<?xml version="1.0" encoding="UTF-8"?>
<COLLADA xmlns="http://www.collada.org/2005/11/COLLADASchema" version="1.4.1">
<asset><contributor><authoring_tool>Summit Estate procedural mesh exporter</authoring_tool></contributor><created>2026-09-11T00:00:00Z</created><modified>2026-09-11T00:00:00Z</modified><unit name="meter" meter="1"/><up_axis>Z_UP</up_axis></asset>
<library_geometries><geometry id="geometry" name="geometry"><mesh>
<source id="positions"><float_array id="positions-array" count="960">177.60000 12.00000 80.02000 177.56424 12.91013 80.02000 177.45718 13.81464 80.02000 177.27949 14.70797 80.02000 177.03226 15.58460 80.02000 176.71700 16.43913 80.02000 176.33568 17.26629 80.02000 175.89063 18.06098 80.02000 175.38460 18.81831 80.02000 174.82071 19.53360 80.02000 174.20244 20.20244 80.02000 173.53360 20.82071 80.02000 172.81831 21.38460 80.02000 172.06098 21.89063 80.02000 171.26629 22.33568 80.02000 170.43913 22.71700 80.02000 169.58460 23.03226 80.02000 168.70797 23.27949 80.02000 167.81464 23.45718 80.02000 166.91013 23.56424 80.02000 166.00000 23.60000 80.02000 165.08987 23.56424 80.02000 164.18536 23.45718 80.02000 163.29203 23.27949 80.02000 162.41540 23.03226 80.02000 161.56087 22.71700 80.02000 160.73371 22.33568 80.02000 159.93902 21.89063 80.02000 159.18169 21.38460 80.02000 158.46640 20.82071 80.02000 157.79756 20.20244 80.02000 157.17929 19.53360 80.02000 156.61540 18.81831 80.02000 156.10937 18.06098 80.02000 155.66432 17.26629 80.02000 155.28300 16.43913 80.02000 154.96774 15.58460 80.02000 154.72051 14.70797 80.02000 154.54282 13.81464 80.02000 154.43576 12.91013 80.02000 154.40000 12.00000 80.02000 154.43576 11.08987 80.02000 154.54282 10.18536 80.02000 154.72051 9.29203 80.02000 154.96774 8.41540 80.02000 155.28300 7.56087 80.02000 155.66432 6.73371 80.02000 156.10937 5.93902 80.02000 156.61540 5.18169 80.02000 157.17929 4.46640 80.02000 157.79756 3.79756 80.02000 158.46640 3.17929 80.02000 159.18169 2.61540 80.02000 159.93902 2.10937 80.02000 160.73371 1.66432 80.02000 161.56087 1.28300 80.02000 162.41540 0.96774 80.02000 163.29203 0.72051 80.02000 164.18536 0.54282 80.02000 165.08987 0.43576 80.02000 166.00000 0.40000 80.02000 166.91013 0.43576 80.02000 167.81464 0.54282 80.02000 168.70797 0.72051 80.02000 169.58460 0.96774 80.02000 170.43913 1.28300 80.02000 171.26629 1.66432 80.02000 172.06098 2.10937 80.02000 172.81831 2.61540 80.02000 173.53360 3.17929 80.02000 174.20244 3.79756 80.02000 174.82071 4.46640 80.02000 175.38460 5.18169 80.02000 175.89063 5.93902 80.02000 176.33568 6.73371 80.02000 176.71700 7.56087 80.02000 177.03226 8.41540 80.02000 177.27949 9.29203 80.02000 177.45718 10.18536 80.02000 177.56424 11.08987 80.02000 178.00000 12.00000 80.02000 177.96301 12.94151 80.02000 177.85226 13.87721 80.02000 177.66844 14.80134 80.02000 177.41268 15.70820 80.02000 177.08655 16.59220 80.02000 176.69208 17.44789 80.02000 176.23168 18.26998 80.02000 175.70820 19.05342 80.02000 175.12487 19.79338 80.02000 174.48528 20.48528 80.02000 173.79338 21.12487 80.02000 173.05342 21.70820 80.02000 172.26998 22.23168 80.02000 171.44789 22.69208 80.02000 170.59220 23.08655 80.02000 169.70820 23.41268 80.02000 168.80134 23.66844 80.02000 167.87721 23.85226 80.02000 166.94151 23.96301 80.02000 166.00000 24.00000 80.02000 165.05849 23.96301 80.02000 164.12279 23.85226 80.02000 163.19866 23.66844 80.02000 162.29180 23.41268 80.02000 161.40780 23.08655 80.02000 160.55211 22.69208 80.02000 159.73002 22.23168 80.02000 158.94658 21.70820 80.02000 158.20662 21.12487 80.02000 157.51472 20.48528 80.02000 156.87513 19.79338 80.02000 156.29180 19.05342 80.02000 155.76832 18.26998 80.02000 155.30792 17.44789 80.02000 154.91345 16.59220 80.02000 154.58732 15.70820 80.02000 154.33156 14.80134 80.02000 154.14774 13.87721 80.02000 154.03699 12.94151 80.02000 154.00000 12.00000 80.02000 154.03699 11.05849 80.02000 154.14774 10.12279 80.02000 154.33156 9.19866 80.02000 154.58732 8.29180 80.02000 154.91345 7.40780 80.02000 155.30792 6.55211 80.02000 155.76832 5.73002 80.02000 156.29180 4.94658 80.02000 156.87513 4.20662 80.02000 157.51472 3.51472 80.02000 158.20662 2.87513 80.02000 158.94658 2.29180 80.02000 159.73002 1.76832 80.02000 160.55211 1.30792 80.02000 161.40780 0.91345 80.02000 162.29180 0.58732 80.02000 163.19866 0.33156 80.02000 164.12279 0.14774 80.02000 165.05849 0.03699 80.02000 166.00000 0.00000 80.02000 166.94151 0.03699 80.02000 167.87721 0.14774 80.02000 168.80134 0.33156 80.02000 169.70820 0.58732 80.02000 170.59220 0.91345 80.02000 171.44789 1.30792 80.02000 172.26998 1.76832 80.02000 173.05342 2.29180 80.02000 173.79338 2.87513 80.02000 174.48528 3.51472 80.02000 175.12487 4.20662 80.02000 175.70820 4.94658 80.02000 176.23168 5.73002 80.02000 176.69208 6.55211 80.02000 177.08655 7.40780 80.02000 177.41268 8.29180 80.02000 177.66844 9.19866 80.02000 177.85226 10.12279 80.02000 177.96301 11.05849 80.02000 177.60000 12.00000 80.20000 177.56424 12.91013 80.20000 177.45718 13.81464 80.20000 177.27949 14.70797 80.20000 177.03226 15.58460 80.20000 176.71700 16.43913 80.20000 176.33568 17.26629 80.20000 175.89063 18.06098 80.20000 175.38460 18.81831 80.20000 174.82071 19.53360 80.20000 174.20244 20.20244 80.20000 173.53360 20.82071 80.20000 172.81831 21.38460 80.20000 172.06098 21.89063 80.20000 171.26629 22.33568 80.20000 170.43913 22.71700 80.20000 169.58460 23.03226 80.20000 168.70797 23.27949 80.20000 167.81464 23.45718 80.20000 166.91013 23.56424 80.20000 166.00000 23.60000 80.20000 165.08987 23.56424 80.20000 164.18536 23.45718 80.20000 163.29203 23.27949 80.20000 162.41540 23.03226 80.20000 161.56087 22.71700 80.20000 160.73371 22.33568 80.20000 159.93902 21.89063 80.20000 159.18169 21.38460 80.20000 158.46640 20.82071 80.20000 157.79756 20.20244 80.20000 157.17929 19.53360 80.20000 156.61540 18.81831 80.20000 156.10937 18.06098 80.20000 155.66432 17.26629 80.20000 155.28300 16.43913 80.20000 154.96774 15.58460 80.20000 154.72051 14.70797 80.20000 154.54282 13.81464 80.20000 154.43576 12.91013 80.20000 154.40000 12.00000 80.20000 154.43576 11.08987 80.20000 154.54282 10.18536 80.20000 154.72051 9.29203 80.20000 154.96774 8.41540 80.20000 155.28300 7.56087 80.20000 155.66432 6.73371 80.20000 156.10937 5.93902 80.20000 156.61540 5.18169 80.20000 157.17929 4.46640 80.20000 157.79756 3.79756 80.20000 158.46640 3.17929 80.20000 159.18169 2.61540 80.20000 159.93902 2.10937 80.20000 160.73371 1.66432 80.20000 161.56087 1.28300 80.20000 162.41540 0.96774 80.20000 163.29203 0.72051 80.20000 164.18536 0.54282 80.20000 165.08987 0.43576 80.20000 166.00000 0.40000 80.20000 166.91013 0.43576 80.20000 167.81464 0.54282 80.20000 168.70797 0.72051 80.20000 169.58460 0.96774 80.20000 170.43913 1.28300 80.20000 171.26629 1.66432 80.20000 172.06098 2.10937 80.20000 172.81831 2.61540 80.20000 173.53360 3.17929 80.20000 174.20244 3.79756 80.20000 174.82071 4.46640 80.20000 175.38460 5.18169 80.20000 175.89063 5.93902 80.20000 176.33568 6.73371 80.20000 176.71700 7.56087 80.20000 177.03226 8.41540 80.20000 177.27949 9.29203 80.20000 177.45718 10.18536 80.20000 177.56424 11.08987 80.20000 178.00000 12.00000 80.20000 177.96301 12.94151 80.20000 177.85226 13.87721 80.20000 177.66844 14.80134 80.20000 177.41268 15.70820 80.20000 177.08655 16.59220 80.20000 176.69208 17.44789 80.20000 176.23168 18.26998 80.20000 175.70820 19.05342 80.20000 175.12487 19.79338 80.20000 174.48528 20.48528 80.20000 173.79338 21.12487 80.20000 173.05342 21.70820 80.20000 172.26998 22.23168 80.20000 171.44789 22.69208 80.20000 170.59220 23.08655 80.20000 169.70820 23.41268 80.20000 168.80134 23.66844 80.20000 167.87721 23.85226 80.20000 166.94151 23.96301 80.20000 166.00000 24.00000 80.20000 165.05849 23.96301 80.20000 164.12279 23.85226 80.20000 163.19866 23.66844 80.20000 162.29180 23.41268 80.20000 161.40780 23.08655 80.20000 160.55211 22.69208 80.20000 159.73002 22.23168 80.20000 158.94658 21.70820 80.20000 158.20662 21.12487 80.20000 157.51472 20.48528 80.20000 156.87513 19.79338 80.20000 156.29180 19.05342 80.20000 155.76832 18.26998 80.20000 155.30792 17.44789 80.20000 154.91345 16.59220 80.20000 154.58732 15.70820 80.20000 154.33156 14.80134 80.20000 154.14774 13.87721 80.20000 154.03699 12.94151 80.20000 154.00000 12.00000 80.20000 154.03699 11.05849 80.20000 154.14774 10.12279 80.20000 154.33156 9.19866 80.20000 154.58732 8.29180 80.20000 154.91345 7.40780 80.20000 155.30792 6.55211 80.20000 155.76832 5.73002 80.20000 156.29180 4.94658 80.20000 156.87513 4.20662 80.20000 157.51472 3.51472 80.20000 158.20662 2.87513 80.20000 158.94658 2.29180 80.20000 159.73002 1.76832 80.20000 160.55211 1.30792 80.20000 161.40780 0.91345 80.20000 162.29180 0.58732 80.20000 163.19866 0.33156 80.20000 164.12279 0.14774 80.20000 165.05849 0.03699 80.20000 166.00000 0.00000 80.20000 166.94151 0.03699 80.20000 167.87721 0.14774 80.20000 168.80134 0.33156 80.20000 169.70820 0.58732 80.20000 170.59220 0.91345 80.20000 171.44789 1.30792 80.20000 172.26998 1.76832 80.20000 173.05342 2.29180 80.20000 173.79338 2.87513 80.20000 174.48528 3.51472 80.20000 175.12487 4.20662 80.20000 175.70820 4.94658 80.20000 176.23168 5.73002 80.20000 176.69208 6.55211 80.20000 177.08655 7.40780 80.20000 177.41268 8.29180 80.20000 177.66844 9.19866 80.20000 177.85226 10.12279 80.20000 177.96301 11.05849 80.20000</float_array><technique_common><accessor source="#positions-array" count="320" stride="3"><param name="X" type="float"/><param name="Y" type="float"/><param name="Z" type="float"/></accessor></technique_common></source>
<source id="normals"><float_array id="normals-array" count="1920">0.00000 -0.00000 -1.00000 0.00000 0.00000 -1.00000 0.00000 0.00000 1.00000 0.00000 0.00000 1.00000 0.99923 0.03926 0.00000 0.99923 0.03926 -0.00000 -0.99923 -0.03926 -0.00000 -0.99923 -0.03926 -0.00000 0.00000 -0.00000 -1.00000 0.00000 0.00000 -1.00000 0.00000 0.00000 1.00000 0.00000 0.00000 1.00000 0.99307 0.11754 0.00000 0.99307 0.11754 -0.00000 -0.99307 -0.11754 -0.00000 -0.99307 -0.11754 -0.00000 0.00000 -0.00000 -1.00000 0.00000 0.00000 -1.00000 0.00000 0.00000 1.00000 0.00000 0.00000 1.00000 0.98079 0.19509 0.00000 0.98079 0.19509 -0.00000 -0.98079 -0.19509 -0.00000 -0.98079 -0.19509 -0.00000 0.00000 -0.00000 -1.00000 0.00000 0.00000 -1.00000 0.00000 0.00000 1.00000 0.00000 0.00000 1.00000 0.96246 0.27144 0.00000 0.96246 0.27144 -0.00000 -0.96246 -0.27144 -0.00000 -0.96246 -0.27144 -0.00000 0.00000 -0.00000 -1.00000 0.00000 0.00000 -1.00000 0.00000 0.00000 1.00000 0.00000 0.00000 1.00000 0.93819 0.34612 0.00000 0.93819 0.34612 -0.00000 -0.93819 -0.34612 -0.00000 -0.93819 -0.34612 -0.00000 0.00000 0.00000 -1.00000 0.00000 0.00000 -1.00000 0.00000 0.00000 1.00000 0.00000 0.00000 1.00000 0.90814 0.41866 0.00000 0.90814 0.41866 -0.00000 -0.90814 -0.41866 -0.00000 -0.90814 -0.41866 -0.00000 0.00000 0.00000 -1.00000 0.00000 0.00000 -1.00000 0.00000 0.00000 1.00000 0.00000 0.00000 1.00000 0.87250 0.48862 0.00000 0.87250 0.48862 -0.00000 -0.87250 -0.48862 -0.00000 -0.87250 -0.48862 -0.00000 0.00000 0.00000 -1.00000 0.00000 0.00000 -1.00000 0.00000 0.00000 1.00000 0.00000 0.00000 1.00000 0.83147 0.55557 0.00000 0.83147 0.55557 -0.00000 -0.83147 -0.55557 -0.00000 -0.83147 -0.55557 -0.00000 0.00000 0.00000 -1.00000 0.00000 0.00000 -1.00000 0.00000 0.00000 1.00000 0.00000 0.00000 1.00000 0.78532 0.61909 0.00000 0.78532 0.61909 -0.00000 -0.78532 -0.61909 -0.00000 -0.78532 -0.61909 -0.00000 0.00000 0.00000 -1.00000 0.00000 0.00000 -1.00000 0.00000 0.00000 1.00000 0.00000 0.00000 1.00000 0.73432 0.67880 0.00000 0.73432 0.67880 -0.00000 -0.73432 -0.67880 -0.00000 -0.73432 -0.67880 -0.00000 0.00000 0.00000 -1.00000 0.00000 0.00000 -1.00000 0.00000 0.00000 1.00000 0.00000 0.00000 1.00000 0.67880 0.73432 0.00000 0.67880 0.73432 -0.00000 -0.67880 -0.73432 -0.00000 -0.67880 -0.73432 -0.00000 0.00000 0.00000 -1.00000 0.00000 0.00000 -1.00000 0.00000 0.00000 1.00000 0.00000 0.00000 1.00000 0.61909 0.78532 0.00000 0.61909 0.78532 -0.00000 -0.61909 -0.78532 -0.00000 -0.61909 -0.78532 -0.00000 0.00000 0.00000 -1.00000 0.00000 0.00000 -1.00000 0.00000 0.00000 1.00000 0.00000 0.00000 1.00000 0.55557 0.83147 0.00000 0.55557 0.83147 -0.00000 -0.55557 -0.83147 -0.00000 -0.55557 -0.83147 -0.00000 0.00000 0.00000 -1.00000 0.00000 0.00000 -1.00000 0.00000 0.00000 1.00000 0.00000 0.00000 1.00000 0.48862 0.87250 0.00000 0.48862 0.87250 -0.00000 -0.48862 -0.87250 -0.00000 -0.48862 -0.87250 -0.00000 0.00000 0.00000 -1.00000 0.00000 0.00000 -1.00000 0.00000 0.00000 1.00000 0.00000 0.00000 1.00000 0.41866 0.90814 0.00000 0.41866 0.90814 -0.00000 -0.41866 -0.90814 -0.00000 -0.41866 -0.90814 -0.00000 0.00000 0.00000 -1.00000 0.00000 0.00000 -1.00000 0.00000 0.00000 1.00000 0.00000 0.00000 1.00000 0.34612 0.93819 0.00000 0.34612 0.93819 -0.00000 -0.34612 -0.93819 -0.00000 -0.34612 -0.93819 -0.00000 0.00000 0.00000 -1.00000 0.00000 0.00000 -1.00000 0.00000 0.00000 1.00000 0.00000 0.00000 1.00000 0.27144 0.96246 0.00000 0.27144 0.96246 -0.00000 -0.27144 -0.96246 -0.00000 -0.27144 -0.96246 -0.00000 0.00000 0.00000 -1.00000 0.00000 0.00000 -1.00000 0.00000 0.00000 1.00000 0.00000 0.00000 1.00000 0.19509 0.98079 0.00000 0.19509 0.98079 -0.00000 -0.19509 -0.98079 -0.00000 -0.19509 -0.98079 -0.00000 0.00000 0.00000 -1.00000 0.00000 0.00000 -1.00000 0.00000 0.00000 1.00000 0.00000 0.00000 1.00000 0.11754 0.99307 0.00000 0.11754 0.99307 -0.00000 -0.11754 -0.99307 -0.00000 -0.11754 -0.99307 -0.00000 0.00000 0.00000 -1.00000 0.00000 0.00000 -1.00000 0.00000 0.00000 1.00000 0.00000 0.00000 1.00000 0.03926 0.99923 0.00000 0.03926 0.99923 -0.00000 -0.03926 -0.99923 -0.00000 -0.03926 -0.99923 -0.00000 0.00000 0.00000 -1.00000 0.00000 0.00000 -1.00000 0.00000 0.00000 1.00000 0.00000 0.00000 1.00000 -0.03926 0.99923 0.00000 -0.03926 0.99923 0.00000 0.03926 -0.99923 0.00000 0.03926 -0.99923 0.00000 0.00000 0.00000 -1.00000 0.00000 0.00000 -1.00000 0.00000 0.00000 1.00000 0.00000 0.00000 1.00000 -0.11754 0.99307 0.00000 -0.11754 0.99307 0.00000 0.11754 -0.99307 0.00000 0.11754 -0.99307 0.00000 0.00000 0.00000 -1.00000 0.00000 0.00000 -1.00000 0.00000 0.00000 1.00000 0.00000 0.00000 1.00000 -0.19509 0.98079 0.00000 -0.19509 0.98079 0.00000 0.19509 -0.98079 0.00000 0.19509 -0.98079 0.00000 0.00000 0.00000 -1.00000 0.00000 0.00000 -1.00000 0.00000 0.00000 1.00000 0.00000 0.00000 1.00000 -0.27144 0.96246 0.00000 -0.27144 0.96246 0.00000 0.27144 -0.96246 0.00000 0.27144 -0.96246 0.00000 0.00000 0.00000 -1.00000 0.00000 0.00000 -1.00000 0.00000 0.00000 1.00000 0.00000 0.00000 1.00000 -0.34612 0.93819 0.00000 -0.34612 0.93819 0.00000 0.34612 -0.93819 0.00000 0.34612 -0.93819 0.00000 0.00000 0.00000 -1.00000 0.00000 0.00000 -1.00000 -0.00000 0.00000 1.00000 0.00000 0.00000 1.00000 -0.41866 0.90814 0.00000 -0.41866 0.90814 0.00000 0.41866 -0.90814 0.00000 0.41866 -0.90814 0.00000 0.00000 0.00000 -1.00000 0.00000 0.00000 -1.00000 -0.00000 0.00000 1.00000 0.00000 0.00000 1.00000 -0.48862 0.87250 0.00000 -0.48862 0.87250 0.00000 0.48862 -0.87250 0.00000 0.48862 -0.87250 0.00000 0.00000 0.00000 -1.00000 0.00000 0.00000 -1.00000 -0.00000 0.00000 1.00000 0.00000 0.00000 1.00000 -0.55557 0.83147 0.00000 -0.55557 0.83147 0.00000 0.55557 -0.83147 0.00000 0.55557 -0.83147 0.00000 0.00000 0.00000 -1.00000 0.00000 0.00000 -1.00000 -0.00000 0.00000 1.00000 0.00000 0.00000 1.00000 -0.61909 0.78532 0.00000 -0.61909 0.78532 0.00000 0.61909 -0.78532 0.00000 0.61909 -0.78532 0.00000 0.00000 0.00000 -1.00000 0.00000 0.00000 -1.00000 -0.00000 0.00000 1.00000 0.00000 0.00000 1.00000 -0.67880 0.73432 0.00000 -0.67880 0.73432 0.00000 0.67880 -0.73432 0.00000 0.67880 -0.73432 0.00000 0.00000 0.00000 -1.00000 0.00000 0.00000 -1.00000 -0.00000 0.00000 1.00000 0.00000 0.00000 1.00000 -0.73432 0.67880 0.00000 -0.73432 0.67880 0.00000 0.73432 -0.67880 0.00000 0.73432 -0.67880 0.00000 0.00000 0.00000 -1.00000 0.00000 0.00000 -1.00000 -0.00000 0.00000 1.00000 0.00000 0.00000 1.00000 -0.78532 0.61909 0.00000 -0.78532 0.61909 0.00000 0.78532 -0.61909 0.00000 0.78532 -0.61909 0.00000 0.00000 0.00000 -1.00000 0.00000 0.00000 -1.00000 -0.00000 0.00000 1.00000 0.00000 0.00000 1.00000 -0.83147 0.55557 0.00000 -0.83147 0.55557 0.00000 0.83147 -0.55557 0.00000 0.83147 -0.55557 0.00000 0.00000 0.00000 -1.00000 0.00000 0.00000 -1.00000 -0.00000 0.00000 1.00000 0.00000 0.00000 1.00000 -0.87250 0.48862 0.00000 -0.87250 0.48862 0.00000 0.87250 -0.48862 0.00000 0.87250 -0.48862 0.00000 0.00000 0.00000 -1.00000 0.00000 0.00000 -1.00000 -0.00000 0.00000 1.00000 0.00000 0.00000 1.00000 -0.90814 0.41866 0.00000 -0.90814 0.41866 0.00000 0.90814 -0.41866 0.00000 0.90814 -0.41866 0.00000 0.00000 0.00000 -1.00000 0.00000 0.00000 -1.00000 -0.00000 0.00000 1.00000 0.00000 0.00000 1.00000 -0.93819 0.34612 0.00000 -0.93819 0.34612 0.00000 0.93819 -0.34612 0.00000 0.93819 -0.34612 0.00000 0.00000 0.00000 -1.00000 0.00000 0.00000 -1.00000 -0.00000 0.00000 1.00000 0.00000 0.00000 1.00000 -0.96246 0.27144 0.00000 -0.96246 0.27144 0.00000 0.96246 -0.27144 0.00000 0.96246 -0.27144 0.00000 0.00000 0.00000 -1.00000 0.00000 0.00000 -1.00000 -0.00000 0.00000 1.00000 0.00000 0.00000 1.00000 -0.98079 0.19509 0.00000 -0.98079 0.19509 0.00000 0.98079 -0.19509 0.00000 0.98079 -0.19509 0.00000 0.00000 0.00000 -1.00000 0.00000 0.00000 -1.00000 -0.00000 0.00000 1.00000 0.00000 0.00000 1.00000 -0.99307 0.11754 0.00000 -0.99307 0.11754 0.00000 0.99307 -0.11754 0.00000 0.99307 -0.11754 0.00000 0.00000 0.00000 -1.00000 0.00000 0.00000 -1.00000 0.00000 0.00000 1.00000 0.00000 0.00000 1.00000 -0.99923 0.03926 0.00000 -0.99923 0.03926 0.00000 0.99923 -0.03926 0.00000 0.99923 -0.03926 0.00000 0.00000 0.00000 -1.00000 -0.00000 0.00000 -1.00000 0.00000 0.00000 1.00000 -0.00000 0.00000 1.00000 -0.99923 -0.03926 0.00000 -0.99923 -0.03926 0.00000 0.99923 0.03926 0.00000 0.99923 0.03926 0.00000 0.00000 0.00000 -1.00000 -0.00000 0.00000 -1.00000 0.00000 0.00000 1.00000 -0.00000 0.00000 1.00000 -0.99307 -0.11754 0.00000 -0.99307 -0.11754 0.00000 0.99307 0.11754 0.00000 0.99307 0.11754 0.00000 0.00000 0.00000 -1.00000 -0.00000 0.00000 -1.00000 0.00000 0.00000 1.00000 -0.00000 0.00000 1.00000 -0.98079 -0.19509 0.00000 -0.98079 -0.19509 0.00000 0.98079 0.19509 0.00000 0.98079 0.19509 0.00000 0.00000 0.00000 -1.00000 -0.00000 0.00000 -1.00000 0.00000 0.00000 1.00000 -0.00000 0.00000 1.00000 -0.96246 -0.27144 0.00000 -0.96246 -0.27144 0.00000 0.96246 0.27144 0.00000 0.96246 0.27144 0.00000 0.00000 0.00000 -1.00000 -0.00000 0.00000 -1.00000 0.00000 0.00000 1.00000 -0.00000 0.00000 1.00000 -0.93819 -0.34612 0.00000 -0.93819 -0.34612 0.00000 0.93819 0.34612 0.00000 0.93819 0.34612 0.00000 0.00000 0.00000 -1.00000 -0.00000 0.00000 -1.00000 0.00000 -0.00000 1.00000 -0.00000 0.00000 1.00000 -0.90814 -0.41866 0.00000 -0.90814 -0.41866 0.00000 0.90814 0.41866 0.00000 0.90814 0.41866 0.00000 0.00000 0.00000 -1.00000 -0.00000 0.00000 -1.00000 0.00000 -0.00000 1.00000 -0.00000 0.00000 1.00000 -0.87250 -0.48862 0.00000 -0.87250 -0.48862 0.00000 0.87250 0.48862 0.00000 0.87250 0.48862 0.00000 0.00000 0.00000 -1.00000 -0.00000 0.00000 -1.00000 0.00000 -0.00000 1.00000 -0.00000 0.00000 1.00000 -0.83147 -0.55557 0.00000 -0.83147 -0.55557 0.00000 0.83147 0.55557 0.00000 0.83147 0.55557 0.00000 0.00000 0.00000 -1.00000 -0.00000 0.00000 -1.00000 0.00000 -0.00000 1.00000 -0.00000 0.00000 1.00000 -0.78532 -0.61909 0.00000 -0.78532 -0.61909 0.00000 0.78532 0.61909 0.00000 0.78532 0.61909 0.00000 0.00000 0.00000 -1.00000 -0.00000 0.00000 -1.00000 0.00000 -0.00000 1.00000 -0.00000 0.00000 1.00000 -0.73432 -0.67880 0.00000 -0.73432 -0.67880 0.00000 0.73432 0.67880 0.00000 0.73432 0.67880 0.00000 0.00000 0.00000 -1.00000 -0.00000 0.00000 -1.00000 0.00000 -0.00000 1.00000 -0.00000 0.00000 1.00000 -0.67880 -0.73432 0.00000 -0.67880 -0.73432 0.00000 0.67880 0.73432 0.00000 0.67880 0.73432 0.00000 0.00000 0.00000 -1.00000 -0.00000 0.00000 -1.00000 0.00000 -0.00000 1.00000 -0.00000 0.00000 1.00000 -0.61909 -0.78532 0.00000 -0.61909 -0.78532 0.00000 0.61909 0.78532 0.00000 0.61909 0.78532 0.00000 0.00000 0.00000 -1.00000 -0.00000 0.00000 -1.00000 0.00000 -0.00000 1.00000 -0.00000 0.00000 1.00000 -0.55557 -0.83147 0.00000 -0.55557 -0.83147 0.00000 0.55557 0.83147 0.00000 0.55557 0.83147 0.00000 0.00000 0.00000 -1.00000 -0.00000 0.00000 -1.00000 0.00000 -0.00000 1.00000 -0.00000 0.00000 1.00000 -0.48862 -0.87250 0.00000 -0.48862 -0.87250 0.00000 0.48862 0.87250 0.00000 0.48862 0.87250 0.00000 0.00000 0.00000 -1.00000 -0.00000 0.00000 -1.00000 0.00000 -0.00000 1.00000 -0.00000 0.00000 1.00000 -0.41866 -0.90814 0.00000 -0.41866 -0.90814 0.00000 0.41866 0.90814 0.00000 0.41866 0.90814 0.00000 0.00000 0.00000 -1.00000 -0.00000 0.00000 -1.00000 0.00000 -0.00000 1.00000 -0.00000 0.00000 1.00000 -0.34612 -0.93819 0.00000 -0.34612 -0.93819 0.00000 0.34612 0.93819 0.00000 0.34612 0.93819 0.00000 0.00000 0.00000 -1.00000 -0.00000 0.00000 -1.00000 0.00000 -0.00000 1.00000 -0.00000 0.00000 1.00000 -0.27144 -0.96246 0.00000 -0.27144 -0.96246 0.00000 0.27144 0.96246 0.00000 0.27144 0.96246 0.00000 0.00000 0.00000 -1.00000 -0.00000 0.00000 -1.00000 0.00000 -0.00000 1.00000 -0.00000 0.00000 1.00000 -0.19509 -0.98079 0.00000 -0.19509 -0.98079 0.00000 0.19509 0.98079 0.00000 0.19509 0.98079 0.00000 0.00000 0.00000 -1.00000 -0.00000 0.00000 -1.00000 0.00000 -0.00000 1.00000 -0.00000 0.00000 1.00000 -0.11754 -0.99307 0.00000 -0.11754 -0.99307 0.00000 0.11754 0.99307 0.00000 0.11754 0.99307 0.00000 0.00000 0.00000 -1.00000 -0.00000 -0.00000 -1.00000 0.00000 -0.00000 1.00000 -0.00000 0.00000 1.00000 -0.03926 -0.99923 0.00000 -0.03926 -0.99923 0.00000 0.03926 0.99923 0.00000 0.03926 0.99923 0.00000 -0.00000 0.00000 -1.00000 0.00000 -0.00000 -1.00000 0.00000 0.00000 1.00000 0.00000 0.00000 1.00000 0.03926 -0.99923 0.00000 0.03926 -0.99923 0.00000 -0.03926 0.99923 0.00000 -0.03926 0.99923 0.00000 -0.00000 0.00000 -1.00000 0.00000 -0.00000 -1.00000 0.00000 0.00000 1.00000 0.00000 -0.00000 1.00000 0.11754 -0.99307 0.00000 0.11754 -0.99307 0.00000 -0.11754 0.99307 0.00000 -0.11754 0.99307 0.00000 -0.00000 0.00000 -1.00000 0.00000 -0.00000 -1.00000 0.00000 0.00000 1.00000 0.00000 -0.00000 1.00000 0.19509 -0.98079 0.00000 0.19509 -0.98079 0.00000 -0.19509 0.98079 0.00000 -0.19509 0.98079 0.00000 -0.00000 0.00000 -1.00000 0.00000 -0.00000 -1.00000 0.00000 0.00000 1.00000 0.00000 -0.00000 1.00000 0.27144 -0.96246 0.00000 0.27144 -0.96246 0.00000 -0.27144 0.96246 0.00000 -0.27144 0.96246 0.00000 -0.00000 0.00000 -1.00000 0.00000 -0.00000 -1.00000 0.00000 0.00000 1.00000 0.00000 -0.00000 1.00000 0.34612 -0.93819 0.00000 0.34612 -0.93819 0.00000 -0.34612 0.93819 0.00000 -0.34612 0.93819 0.00000 0.00000 0.00000 -1.00000 0.00000 -0.00000 -1.00000 0.00000 0.00000 1.00000 0.00000 -0.00000 1.00000 0.41866 -0.90814 0.00000 0.41866 -0.90814 0.00000 -0.41866 0.90814 0.00000 -0.41866 0.90814 0.00000 0.00000 0.00000 -1.00000 0.00000 -0.00000 -1.00000 0.00000 0.00000 1.00000 0.00000 -0.00000 1.00000 0.48862 -0.87250 0.00000 0.48862 -0.87250 0.00000 -0.48862 0.87250 0.00000 -0.48862 0.87250 0.00000 0.00000 0.00000 -1.00000 0.00000 -0.00000 -1.00000 0.00000 0.00000 1.00000 0.00000 -0.00000 1.00000 0.55557 -0.83147 0.00000 0.55557 -0.83147 0.00000 -0.55557 0.83147 0.00000 -0.55557 0.83147 0.00000 0.00000 0.00000 -1.00000 0.00000 -0.00000 -1.00000 0.00000 0.00000 1.00000 0.00000 -0.00000 1.00000 0.61909 -0.78532 0.00000 0.61909 -0.78532 0.00000 -0.61909 0.78532 0.00000 -0.61909 0.78532 0.00000 0.00000 0.00000 -1.00000 0.00000 -0.00000 -1.00000 0.00000 0.00000 1.00000 0.00000 -0.00000 1.00000 0.67880 -0.73432 0.00000 0.67880 -0.73432 0.00000 -0.67880 0.73432 0.00000 -0.67880 0.73432 0.00000 0.00000 0.00000 -1.00000 0.00000 -0.00000 -1.00000 0.00000 0.00000 1.00000 0.00000 -0.00000 1.00000 0.73432 -0.67880 0.00000 0.73432 -0.67880 0.00000 -0.73432 0.67880 0.00000 -0.73432 0.67880 0.00000 0.00000 0.00000 -1.00000 0.00000 -0.00000 -1.00000 0.00000 0.00000 1.00000 0.00000 -0.00000 1.00000 0.78532 -0.61909 0.00000 0.78532 -0.61909 0.00000 -0.78532 0.61909 0.00000 -0.78532 0.61909 0.00000 0.00000 0.00000 -1.00000 0.00000 -0.00000 -1.00000 0.00000 0.00000 1.00000 0.00000 -0.00000 1.00000 0.83147 -0.55557 0.00000 0.83147 -0.55557 0.00000 -0.83147 0.55557 0.00000 -0.83147 0.55557 0.00000 0.00000 0.00000 -1.00000 0.00000 -0.00000 -1.00000 0.00000 0.00000 1.00000 0.00000 -0.00000 1.00000 0.87250 -0.48862 0.00000 0.87250 -0.48862 0.00000 -0.87250 0.48862 0.00000 -0.87250 0.48862 0.00000 0.00000 0.00000 -1.00000 0.00000 -0.00000 -1.00000 0.00000 0.00000 1.00000 0.00000 -0.00000 1.00000 0.90814 -0.41866 0.00000 0.90814 -0.41866 0.00000 -0.90814 0.41866 0.00000 -0.90814 0.41866 0.00000 0.00000 0.00000 -1.00000 0.00000 -0.00000 -1.00000 0.00000 0.00000 1.00000 0.00000 -0.00000 1.00000 0.93819 -0.34612 0.00000 0.93819 -0.34612 0.00000 -0.93819 0.34612 0.00000 -0.93819 0.34612 0.00000 0.00000 0.00000 -1.00000 0.00000 -0.00000 -1.00000 0.00000 0.00000 1.00000 0.00000 -0.00000 1.00000 0.96246 -0.27144 0.00000 0.96246 -0.27144 0.00000 -0.96246 0.27144 0.00000 -0.96246 0.27144 0.00000 0.00000 0.00000 -1.00000 0.00000 -0.00000 -1.00000 0.00000 0.00000 1.00000 0.00000 -0.00000 1.00000 0.98079 -0.19509 0.00000 0.98079 -0.19509 0.00000 -0.98079 0.19509 0.00000 -0.98079 0.19509 0.00000 0.00000 0.00000 -1.00000 0.00000 -0.00000 -1.00000 0.00000 0.00000 1.00000 0.00000 -0.00000 1.00000 0.99307 -0.11754 0.00000 0.99307 -0.11754 0.00000 -0.99307 0.11754 0.00000 -0.99307 0.11754 0.00000 0.00000 0.00000 -1.00000 0.00000 -0.00000 -1.00000 0.00000 0.00000 1.00000 0.00000 -0.00000 1.00000 0.99923 -0.03926 0.00000 0.99923 -0.03926 0.00000 -0.99923 0.03926 0.00000 -0.99923 0.03926 0.00000</float_array><technique_common><accessor source="#normals-array" count="640" stride="3"><param name="X" type="float"/><param name="Y" type="float"/><param name="Z" type="float"/></accessor></technique_common></source>
<vertices id="vertices"><input semantic="POSITION" source="#positions"/></vertices><triangles count="640"><input semantic="VERTEX" source="#vertices" offset="0"/><input semantic="NORMAL" source="#normals" offset="1"/><p>81 0 80 0 0 0 1 1 81 1 0 1 241 2 161 2 160 2 240 3 241 3 160 3 241 4 240 4 80 4 81 5 241 5 80 5 161 6 1 6 0 6 160 7 161 7 0 7 82 8 81 8 1 8 2 9 82 9 1 9 242 10 162 10 161 10 241 11 242 11 161 11 242 12 241 12 81 12 82 13 242 13 81 13 162 14 2 14 1 14 161 15 162 15 1 15 83 16 82 16 2 16 3 17 83 17 2 17 243 18 163 18 162 18 242 19 243 19 162 19 243 20 242 20 82 20 83 21 243 21 82 21 163 22 3 22 2 22 162 23 163 23 2 23 84 24 83 24 3 24 4 25 84 25 3 25 244 26 164 26 163 26 243 27 244 27 163 27 244 28 243 28 83 28 84 29 244 29 83 29 164 30 4 30 3 30 163 31 164 31 3 31 85 32 84 32 4 32 5 33 85 33 4 33 245 34 165 34 164 34 244 35 245 35 164 35 245 36 244 36 84 36 85 37 245 37 84 37 165 38 5 38 4 38 164 39 165 39 4 39 86 40 85 40 5 40 6 41 86 41 5 41 246 42 166 42 165 42 245 43 246 43 165 43 246 44 245 44 85 44 86 45 246 45 85 45 166 46 6 46 5 46 165 47 166 47 5 47 87 48 86 48 6 48 7 49 87 49 6 49 247 50 167 50 166 50 246 51 247 51 166 51 247 52 246 52 86 52 87 53 247 53 86 53 167 54 7 54 6 54 166 55 167 55 6 55 88 56 87 56 7 56 8 57 88 57 7 57 248 58 168 58 167 58 247 59 248 59 167 59 248 60 247 60 87 60 88 61 248 61 87 61 168 62 8 62 7 62 167 63 168 63 7 63 89 64 88 64 8 64 9 65 89 65 8 65 249 66 169 66 168 66 248 67 249 67 168 67 249 68 248 68 88 68 89 69 249 69 88 69 169 70 9 70 8 70 168 71 169 71 8 71 90 72 89 72 9 72 10 73 90 73 9 73 250 74 170 74 169 74 249 75 250 75 169 75 250 76 249 76 89 76 90 77 250 77 89 77 170 78 10 78 9 78 169 79 170 79 9 79 91 80 90 80 10 80 11 81 91 81 10 81 251 82 171 82 170 82 250 83 251 83 170 83 251 84 250 84 90 84 91 85 251 85 90 85 171 86 11 86 10 86 170 87 171 87 10 87 92 88 91 88 11 88 12 89 92 89 11 89 252 90 172 90 171 90 251 91 252 91 171 91 252 92 251 92 91 92 92 93 252 93 91 93 172 94 12 94 11 94 171 95 172 95 11 95 93 96 92 96 12 96 13 97 93 97 12 97 253 98 173 98 172 98 252 99 253 99 172 99 253 100 252 100 92 100 93 101 253 101 92 101 173 102 13 102 12 102 172 103 173 103 12 103 94 104 93 104 13 104 14 105 94 105 13 105 254 106 174 106 173 106 253 107 254 107 173 107 254 108 253 108 93 108 94 109 254 109 93 109 174 110 14 110 13 110 173 111 174 111 13 111 95 112 94 112 14 112 15 113 95 113 14 113 255 114 175 114 174 114 254 115 255 115 174 115 255 116 254 116 94 116 95 117 255 117 94 117 175 118 15 118 14 118 174 119 175 119 14 119 96 120 95 120 15 120 16 121 96 121 15 121 256 122 176 122 175 122 255 123 256 123 175 123 256 124 255 124 95 124 96 125 256 125 95 125 176 126 16 126 15 126 175 127 176 127 15 127 97 128 96 128 16 128 17 129 97 129 16 129 257 130 177 130 176 130 256 131 257 131 176 131 257 132 256 132 96 132 97 133 257 133 96 133 177 134 17 134 16 134 176 135 177 135 16 135 98 136 97 136 17 136 18 137 98 137 17 137 258 138 178 138 177 138 257 139 258 139 177 139 258 140 257 140 97 140 98 141 258 141 97 141 178 142 18 142 17 142 177 143 178 143 17 143 99 144 98 144 18 144 19 145 99 145 18 145 259 146 179 146 178 146 258 147 259 147 178 147 259 148 258 148 98 148 99 149 259 149 98 149 179 150 19 150 18 150 178 151 179 151 18 151 100 152 99 152 19 152 20 153 100 153 19 153 260 154 180 154 179 154 259 155 260 155 179 155 260 156 259 156 99 156 100 157 260 157 99 157 180 158 20 158 19 158 179 159 180 159 19 159 101 160 100 160 20 160 21 161 101 161 20 161 261 162 181 162 180 162 260 163 261 163 180 163 261 164 260 164 100 164 101 165 261 165 100 165 181 166 21 166 20 166 180 167 181 167 20 167 102 168 101 168 21 168 22 169 102 169 21 169 262 170 182 170 181 170 261 171 262 171 181 171 262 172 261 172 101 172 102 173 262 173 101 173 182 174 22 174 21 174 181 175 182 175 21 175 103 176 102 176 22 176 23 177 103 177 22 177 263 178 183 178 182 178 262 179 263 179 182 179 263 180 262 180 102 180 103 181 263 181 102 181 183 182 23 182 22 182 182 183 183 183 22 183 104 184 103 184 23 184 24 185 104 185 23 185 264 186 184 186 183 186 263 187 264 187 183 187 264 188 263 188 103 188 104 189 264 189 103 189 184 190 24 190 23 190 183 191 184 191 23 191 105 192 104 192 24 192 25 193 105 193 24 193 265 194 185 194 184 194 264 195 265 195 184 195 265 196 264 196 104 196 105 197 265 197 104 197 185 198 25 198 24 198 184 199 185 199 24 199 106 200 105 200 25 200 26 201 106 201 25 201 266 202 186 202 185 202 265 203 266 203 185 203 266 204 265 204 105 204 106 205 266 205 105 205 186 206 26 206 25 206 185 207 186 207 25 207 107 208 106 208 26 208 27 209 107 209 26 209 267 210 187 210 186 210 266 211 267 211 186 211 267 212 266 212 106 212 107 213 267 213 106 213 187 214 27 214 26 214 186 215 187 215 26 215 108 216 107 216 27 216 28 217 108 217 27 217 268 218 188 218 187 218 267 219 268 219 187 219 268 220 267 220 107 220 108 221 268 221 107 221 188 222 28 222 27 222 187 223 188 223 27 223 109 224 108 224 28 224 29 225 109 225 28 225 269 226 189 226 188 226 268 227 269 227 188 227 269 228 268 228 108 228 109 229 269 229 108 229 189 230 29 230 28 230 188 231 189 231 28 231 110 232 109 232 29 232 30 233 110 233 29 233 270 234 190 234 189 234 269 235 270 235 189 235 270 236 269 236 109 236 110 237 270 237 109 237 190 238 30 238 29 238 189 239 190 239 29 239 111 240 110 240 30 240 31 241 111 241 30 241 271 242 191 242 190 242 270 243 271 243 190 243 271 244 270 244 110 244 111 245 271 245 110 245 191 246 31 246 30 246 190 247 191 247 30 247 112 248 111 248 31 248 32 249 112 249 31 249 272 250 192 250 191 250 271 251 272 251 191 251 272 252 271 252 111 252 112 253 272 253 111 253 192 254 32 254 31 254 191 255 192 255 31 255 113 256 112 256 32 256 33 257 113 257 32 257 273 258 193 258 192 258 272 259 273 259 192 259 273 260 272 260 112 260 113 261 273 261 112 261 193 262 33 262 32 262 192 263 193 263 32 263 114 264 113 264 33 264 34 265 114 265 33 265 274 266 194 266 193 266 273 267 274 267 193 267 274 268 273 268 113 268 114 269 274 269 113 269 194 270 34 270 33 270 193 271 194 271 33 271 115 272 114 272 34 272 35 273 115 273 34 273 275 274 195 274 194 274 274 275 275 275 194 275 275 276 274 276 114 276 115 277 275 277 114 277 195 278 35 278 34 278 194 279 195 279 34 279 116 280 115 280 35 280 36 281 116 281 35 281 276 282 196 282 195 282 275 283 276 283 195 283 276 284 275 284 115 284 116 285 276 285 115 285 196 286 36 286 35 286 195 287 196 287 35 287 117 288 116 288 36 288 37 289 117 289 36 289 277 290 197 290 196 290 276 291 277 291 196 291 277 292 276 292 116 292 117 293 277 293 116 293 197 294 37 294 36 294 196 295 197 295 36 295 118 296 117 296 37 296 38 297 118 297 37 297 278 298 198 298 197 298 277 299 278 299 197 299 278 300 277 300 117 300 118 301 278 301 117 301 198 302 38 302 37 302 197 303 198 303 37 303 119 304 118 304 38 304 39 305 119 305 38 305 279 306 199 306 198 306 278 307 279 307 198 307 279 308 278 308 118 308 119 309 279 309 118 309 199 310 39 310 38 310 198 311 199 311 38 311 120 312 119 312 39 312 40 313 120 313 39 313 280 314 200 314 199 314 279 315 280 315 199 315 280 316 279 316 119 316 120 317 280 317 119 317 200 318 40 318 39 318 199 319 200 319 39 319 121 320 120 320 40 320 41 321 121 321 40 321 281 322 201 322 200 322 280 323 281 323 200 323 281 324 280 324 120 324 121 325 281 325 120 325 201 326 41 326 40 326 200 327 201 327 40 327 122 328 121 328 41 328 42 329 122 329 41 329 282 330 202 330 201 330 281 331 282 331 201 331 282 332 281 332 121 332 122 333 282 333 121 333 202 334 42 334 41 334 201 335 202 335 41 335 123 336 122 336 42 336 43 337 123 337 42 337 283 338 203 338 202 338 282 339 283 339 202 339 283 340 282 340 122 340 123 341 283 341 122 341 203 342 43 342 42 342 202 343 203 343 42 343 124 344 123 344 43 344 44 345 124 345 43 345 284 346 204 346 203 346 283 347 284 347 203 347 284 348 283 348 123 348 124 349 284 349 123 349 204 350 44 350 43 350 203 351 204 351 43 351 125 352 124 352 44 352 45 353 125 353 44 353 285 354 205 354 204 354 284 355 285 355 204 355 285 356 284 356 124 356 125 357 285 357 124 357 205 358 45 358 44 358 204 359 205 359 44 359 126 360 125 360 45 360 46 361 126 361 45 361 286 362 206 362 205 362 285 363 286 363 205 363 286 364 285 364 125 364 126 365 286 365 125 365 206 366 46 366 45 366 205 367 206 367 45 367 127 368 126 368 46 368 47 369 127 369 46 369 287 370 207 370 206 370 286 371 287 371 206 371 287 372 286 372 126 372 127 373 287 373 126 373 207 374 47 374 46 374 206 375 207 375 46 375 128 376 127 376 47 376 48 377 128 377 47 377 288 378 208 378 207 378 287 379 288 379 207 379 288 380 287 380 127 380 128 381 288 381 127 381 208 382 48 382 47 382 207 383 208 383 47 383 129 384 128 384 48 384 49 385 129 385 48 385 289 386 209 386 208 386 288 387 289 387 208 387 289 388 288 388 128 388 129 389 289 389 128 389 209 390 49 390 48 390 208 391 209 391 48 391 130 392 129 392 49 392 50 393 130 393 49 393 290 394 210 394 209 394 289 395 290 395 209 395 290 396 289 396 129 396 130 397 290 397 129 397 210 398 50 398 49 398 209 399 210 399 49 399 131 400 130 400 50 400 51 401 131 401 50 401 291 402 211 402 210 402 290 403 291 403 210 403 291 404 290 404 130 404 131 405 291 405 130 405 211 406 51 406 50 406 210 407 211 407 50 407 132 408 131 408 51 408 52 409 132 409 51 409 292 410 212 410 211 410 291 411 292 411 211 411 292 412 291 412 131 412 132 413 292 413 131 413 212 414 52 414 51 414 211 415 212 415 51 415 133 416 132 416 52 416 53 417 133 417 52 417 293 418 213 418 212 418 292 419 293 419 212 419 293 420 292 420 132 420 133 421 293 421 132 421 213 422 53 422 52 422 212 423 213 423 52 423 134 424 133 424 53 424 54 425 134 425 53 425 294 426 214 426 213 426 293 427 294 427 213 427 294 428 293 428 133 428 134 429 294 429 133 429 214 430 54 430 53 430 213 431 214 431 53 431 135 432 134 432 54 432 55 433 135 433 54 433 295 434 215 434 214 434 294 435 295 435 214 435 295 436 294 436 134 436 135 437 295 437 134 437 215 438 55 438 54 438 214 439 215 439 54 439 136 440 135 440 55 440 56 441 136 441 55 441 296 442 216 442 215 442 295 443 296 443 215 443 296 444 295 444 135 444 136 445 296 445 135 445 216 446 56 446 55 446 215 447 216 447 55 447 137 448 136 448 56 448 57 449 137 449 56 449 297 450 217 450 216 450 296 451 297 451 216 451 297 452 296 452 136 452 137 453 297 453 136 453 217 454 57 454 56 454 216 455 217 455 56 455 138 456 137 456 57 456 58 457 138 457 57 457 298 458 218 458 217 458 297 459 298 459 217 459 298 460 297 460 137 460 138 461 298 461 137 461 218 462 58 462 57 462 217 463 218 463 57 463 139 464 138 464 58 464 59 465 139 465 58 465 299 466 219 466 218 466 298 467 299 467 218 467 299 468 298 468 138 468 139 469 299 469 138 469 219 470 59 470 58 470 218 471 219 471 58 471 140 472 139 472 59 472 60 473 140 473 59 473 300 474 220 474 219 474 299 475 300 475 219 475 300 476 299 476 139 476 140 477 300 477 139 477 220 478 60 478 59 478 219 479 220 479 59 479 141 480 140 480 60 480 61 481 141 481 60 481 301 482 221 482 220 482 300 483 301 483 220 483 301 484 300 484 140 484 141 485 301 485 140 485 221 486 61 486 60 486 220 487 221 487 60 487 142 488 141 488 61 488 62 489 142 489 61 489 302 490 222 490 221 490 301 491 302 491 221 491 302 492 301 492 141 492 142 493 302 493 141 493 222 494 62 494 61 494 221 495 222 495 61 495 143 496 142 496 62 496 63 497 143 497 62 497 303 498 223 498 222 498 302 499 303 499 222 499 303 500 302 500 142 500 143 501 303 501 142 501 223 502 63 502 62 502 222 503 223 503 62 503 144 504 143 504 63 504 64 505 144 505 63 505 304 506 224 506 223 506 303 507 304 507 223 507 304 508 303 508 143 508 144 509 304 509 143 509 224 510 64 510 63 510 223 511 224 511 63 511 145 512 144 512 64 512 65 513 145 513 64 513 305 514 225 514 224 514 304 515 305 515 224 515 305 516 304 516 144 516 145 517 305 517 144 517 225 518 65 518 64 518 224 519 225 519 64 519 146 520 145 520 65 520 66 521 146 521 65 521 306 522 226 522 225 522 305 523 306 523 225 523 306 524 305 524 145 524 146 525 306 525 145 525 226 526 66 526 65 526 225 527 226 527 65 527 147 528 146 528 66 528 67 529 147 529 66 529 307 530 227 530 226 530 306 531 307 531 226 531 307 532 306 532 146 532 147 533 307 533 146 533 227 534 67 534 66 534 226 535 227 535 66 535 148 536 147 536 67 536 68 537 148 537 67 537 308 538 228 538 227 538 307 539 308 539 227 539 308 540 307 540 147 540 148 541 308 541 147 541 228 542 68 542 67 542 227 543 228 543 67 543 149 544 148 544 68 544 69 545 149 545 68 545 309 546 229 546 228 546 308 547 309 547 228 547 309 548 308 548 148 548 149 549 309 549 148 549 229 550 69 550 68 550 228 551 229 551 68 551 150 552 149 552 69 552 70 553 150 553 69 553 310 554 230 554 229 554 309 555 310 555 229 555 310 556 309 556 149 556 150 557 310 557 149 557 230 558 70 558 69 558 229 559 230 559 69 559 151 560 150 560 70 560 71 561 151 561 70 561 311 562 231 562 230 562 310 563 311 563 230 563 311 564 310 564 150 564 151 565 311 565 150 565 231 566 71 566 70 566 230 567 231 567 70 567 152 568 151 568 71 568 72 569 152 569 71 569 312 570 232 570 231 570 311 571 312 571 231 571 312 572 311 572 151 572 152 573 312 573 151 573 232 574 72 574 71 574 231 575 232 575 71 575 153 576 152 576 72 576 73 577 153 577 72 577 313 578 233 578 232 578 312 579 313 579 232 579 313 580 312 580 152 580 153 581 313 581 152 581 233 582 73 582 72 582 232 583 233 583 72 583 154 584 153 584 73 584 74 585 154 585 73 585 314 586 234 586 233 586 313 587 314 587 233 587 314 588 313 588 153 588 154 589 314 589 153 589 234 590 74 590 73 590 233 591 234 591 73 591 155 592 154 592 74 592 75 593 155 593 74 593 315 594 235 594 234 594 314 595 315 595 234 595 315 596 314 596 154 596 155 597 315 597 154 597 235 598 75 598 74 598 234 599 235 599 74 599 156 600 155 600 75 600 76 601 156 601 75 601 316 602 236 602 235 602 315 603 316 603 235 603 316 604 315 604 155 604 156 605 316 605 155 605 236 606 76 606 75 606 235 607 236 607 75 607 157 608 156 608 76 608 77 609 157 609 76 609 317 610 237 610 236 610 316 611 317 611 236 611 317 612 316 612 156 612 157 613 317 613 156 613 237 614 77 614 76 614 236 615 237 615 76 615 158 616 157 616 77 616 78 617 158 617 77 617 318 618 238 618 237 618 317 619 318 619 237 619 318 620 317 620 157 620 158 621 318 621 157 621 238 622 78 622 77 622 237 623 238 623 77 623 159 624 158 624 78 624 79 625 159 625 78 625 319 626 239 626 238 626 318 627 319 627 238 627 319 628 318 628 158 628 159 629 319 629 158 629 239 630 79 630 78 630 238 631 239 631 78 631 80 632 159 632 79 632 0 633 80 633 79 633 240 634 160 634 239 634 319 635 240 635 239 635 240 636 319 636 159 636 80 637 240 637 159 637 160 638 0 638 79 638 239 639 160 639 79 639</p></triangles>
</mesh></geometry></library_geometries><library_visual_scenes><visual_scene id="Scene"><node id="mesh"><instance_geometry url="#geometry"/></node></visual_scene></library_visual_scenes><scene><instance_visual_scene url="#Scene"/></scene></COLLADA>