<?xml version='1.0' encoding='utf-8'?>
<COLLADA xmlns="http://www.collada.org/2005/11/COLLADASchema" version="1.4.1"><asset><created>2026-09-11T00:00:00Z</created><modified>2026-09-11T00:00:00Z</modified><unit name="meter" meter="1" /><up_axis>Z_UP</up_axis></asset><library_effects><effect id="concrete_effect"><profile_COMMON><technique sid="common"><phong><ambient><color>0.53 0.56 0.51 1</color></ambient><diffuse><color>0.53 0.56 0.51 1</color></diffuse><specular><color>0.03 0.03 0.03 1</color></specular><shininess><float>8</float></shininess></phong></technique></profile_COMMON></effect><effect id="white_effect"><profile_COMMON><technique sid="common"><phong><ambient><color>0.92 0.91 0.78 1</color></ambient><diffuse><color>0.92 0.91 0.78 1</color></diffuse><specular><color>0.03 0.03 0.03 1</color></specular><shininess><float>8</float></shininess></phong></technique></profile_COMMON></effect><effect id="gold_effect"><profile_COMMON><technique sid="common"><phong><ambient><color>0.98 0.69 0.15 1</color></ambient><diffuse><color>0.98 0.69 0.15 1</color></diffuse><specular><color>0.03 0.03 0.03 1</color></specular><shininess><float>8</float></shininess></phong></technique></profile_COMMON></effect><effect id="wood_effect"><profile_COMMON><technique sid="common"><phong><ambient><color>0.53 0.31 0.16 1</color></ambient><diffuse><color>0.53 0.31 0.16 1</color></diffuse><specular><color>0.03 0.03 0.03 1</color></specular><shininess><float>8</float></shininess></phong></technique></profile_COMMON></effect><effect id="roof_effect"><profile_COMMON><technique sid="common"><phong><ambient><color>0.3 0.18 0.15 1</color></ambient><diffuse><color>0.3 0.18 0.15 1</color></diffuse><specular><color>0.03 0.03 0.03 1</color></specular><shininess><float>8</float></shininess></phong></technique></profile_COMMON></effect><effect id="gravel_effect"><profile_COMMON><technique sid="common"><phong><ambient><color>0.6 0.57 0.43 1</color></ambient><diffuse><color>0.6 0.57 0.43 1</color></diffuse><specular><color>0.03 0.03 0.03 1</color></specular><shininess><float>8</float></shininess></phong></technique></profile_COMMON></effect></library_effects><library_materials><material id="concrete_material" name="concrete"><instance_effect url="#concrete_effect" /></material><material id="white_material" name="white"><instance_effect url="#white_effect" /></material><material id="gold_material" name="gold"><instance_effect url="#gold_effect" /></material><material id="wood_material" name="wood"><instance_effect url="#wood_effect" /></material><material id="roof_material" name="roof"><instance_effect url="#roof_effect" /></material><material id="gravel_material" name="gravel"><instance_effect url="#gravel_effect" /></material></library_materials><library_geometries><geometry id="mesh" name="clearings"><mesh><source id="position"><float_array id="position_array" count="1836">-339.00000 -316.00000 125.10059 -311.00000 -316.00000 125.10059 -311.00000 -288.00000 125.10059 -339.00000 -288.00000 125.10059 -339.00000 -316.00000 125.70059 -311.00000 -316.00000 125.70059 -311.00000 -288.00000 125.70059 -339.00000 -288.00000 125.70059 -329.12500 -307.00000 125.70059 -327.87500 -307.00000 125.70059 -327.87500 -297.00000 125.70059 -329.12500 -297.00000 125.70059 -329.12500 -307.00000 125.72459 -327.87500 -307.00000 125.72459 -327.87500 -297.00000 125.72459 -329.12500 -297.00000 125.72459 -322.12500 -307.00000 125.70059 -320.87500 -307.00000 125.70059 -320.87500 -297.00000 125.70059 -322.12500 -297.00000 125.70059 -322.12500 -307.00000 125.72459 -320.87500 -307.00000 125.72459 -320.87500 -297.00000 125.72459 -322.12500 -297.00000 125.72459 -328.50000 -302.62500 125.70059 -321.50000 -302.62500 125.70059 -321.50000 -301.37500 125.70059 -328.50000 -301.37500 125.70059 -328.50000 -302.62500 125.72459 -321.50000 -302.62500 125.72459 -321.50000 -301.37500 125.72459 -328.50000 -301.37500 125.72459 -314.32513 -301.99313 125.73059 -314.67487 -302.00687 125.73059 -314.35710 -301.18271 125.73059 -314.70605 -301.20983 125.73059 -314.45162 -300.37051 125.73059 -314.79747 -300.42424 125.73059 -314.60798 -299.56797 125.73059 -314.94871 -299.64801 125.73059 -314.82527 -298.77980 125.73059 -315.15888 -298.88567 125.73059 -315.10220 -298.01061 125.73059 -315.42673 -298.14169 125.73059 -315.43714 -297.26491 125.73059 -315.75069 -297.42043 125.73059 -315.82813 -296.54705 125.73059 -316.12887 -296.72610 125.73059 -316.27287 -295.86125 125.73059 -316.55902 -296.06278 125.73059 -316.76875 -295.21150 125.73059 -317.03864 -295.43434 125.73059 -317.31285 -294.60163 125.73059 -317.56491 -294.84446 125.73059 -317.90199 -294.03518 125.73059 -318.13474 -294.29659 125.73059 -318.53272 -293.51549 125.73059 -318.74479 -293.79393 125.73059 -319.20134 -293.04559 125.73059 -319.39148 -293.33944 125.73059 -319.90392 -292.62822 125.73059 -320.07103 -292.93576 125.73059 -320.63636 -292.26584 125.73059 -320.77944 -292.58525 125.73059 -321.39435 -291.96055 125.73059 -321.51259 -292.28998 125.73059 -322.17347 -291.71415 125.73059 -322.26615 -292.05166 125.73059 -322.96914 -291.52808 125.73059 -323.03573 -291.87169 125.73059 -323.77671 -291.40343 125.73059 -323.81682 -291.75112 125.73059 -324.59144 -291.34092 125.73059 -324.60484 -291.69066 125.73059 -325.40856 -291.34092 125.73059 -325.39516 -291.69066 125.73059 -326.22329 -291.40343 125.73059 -326.18318 -291.75112 125.73059 -327.03086 -291.52808 125.73059 -326.96427 -291.87169 125.73059 -327.82653 -291.71415 125.73059 -327.73385 -292.05166 125.73059 -328.60565 -291.96055 125.73059 -328.48741 -292.28998 125.73059 -329.36364 -292.26584 125.73059 -329.22056 -292.58525 125.73059 -330.09608 -292.62822 125.73059 -329.92897 -292.93576 125.73059 -330.79866 -293.04559 125.73059 -330.60852 -293.33944 125.73059 -331.46728 -293.51549 125.73059 -331.25521 -293.79393 125.73059 -332.09801 -294.03518 125.73059 -331.86526 -294.29659 125.73059 -332.68715 -294.60163 125.73059 -332.43509 -294.84446 125.73059 -333.23125 -295.21150 125.73059 -332.96136 -295.43434 125.73059 -333.72713 -295.86125 125.73059 -333.44098 -296.06278 125.73059 -334.17187 -296.54705 125.73059 -333.87113 -296.72610 125.73059 -334.56286 -297.26491 125.73059 -334.24931 -297.42043 125.73059 -334.89780 -298.01061 125.73059 -334.57327 -298.14169 125.73059 -335.17473 -298.77980 125.73059 -334.84112 -298.88567 125.73059 -335.39202 -299.56797 125.73059 -335.05129 -299.64801 125.73059 -335.54838 -300.37051 125.73059 -335.20253 -300.42424 125.73059 -335.64290 -301.18271 125.73059 -335.29395 -301.20983 125.73059 -335.67500 -302.00000 125.73059 -335.32500 -302.00000 125.73059 -335.64290 -302.81729 125.73059 -335.29395 -302.79017 125.73059 -335.54838 -303.62949 125.73059 -335.20253 -303.57576 125.73059 -335.39202 -304.43203 125.73059 -335.05129 -304.35199 125.73059 -335.17473 -305.22020 125.73059 -334.84112 -305.11433 125.73059 -334.89780 -305.98939 125.73059 -334.57327 -305.85831 125.73059 -334.56286 -306.73509 125.73059 -334.24931 -306.57957 125.73059 -334.17187 -307.45295 125.73059 -333.87113 -307.27390 125.73059 -333.72713 -308.13875 125.73059 -333.44098 -307.93722 125.73059 -333.23125 -308.78850 125.73059 -332.96136 -308.56566 125.73059 -332.68715 -309.39837 125.73059 -332.43509 -309.15554 125.73059 -332.09801 -309.96482 125.73059 -331.86526 -309.70341 125.73059 -331.46728 -310.48451 125.73059 -331.25521 -310.20607 125.73059 -330.79866 -310.95441 125.73059 -330.60852 -310.66056 125.73059 -330.09608 -311.37178 125.73059 -329.92897 -311.06424 125.73059 -329.36364 -311.73416 125.73059 -329.22056 -311.41475 125.73059 -328.60565 -312.03945 125.73059 -328.48741 -311.71002 125.73059 -327.82653 -312.28585 125.73059 -327.73385 -311.94834 125.73059 -327.03086 -312.47192 125.73059 -326.96427 -312.12831 125.73059 -326.22329 -312.59657 125.73059 -326.18318 -312.24888 125.73059 -325.40856 -312.65908 125.73059 -325.39516 -312.30934 125.73059 -324.59144 -312.65908 125.73059 -324.60484 -312.30934 125.73059 -323.77671 -312.59657 125.73059 -323.81682 -312.24888 125.73059 -322.96914 -312.47192 125.73059 -323.03573 -312.12831 125.73059 -322.17347 -312.28585 125.73059 -322.26615 -311.94834 125.73059 -321.39435 -312.03945 125.73059 -321.51259 -311.71002 125.73059 -320.63636 -311.73416 125.73059 -320.77944 -311.41475 125.73059 -319.90392 -311.37178 125.73059 -320.07103 -311.06424 125.73059 -319.20134 -310.95441 125.73059 -319.39148 -310.66056 125.73059 -318.53272 -310.48451 125.73059 -318.74479 -310.20607 125.73059 -317.90199 -309.96482 125.73059 -318.13474 -309.70341 125.73059 -317.31285 -309.39837 125.73059 -317.56491 -309.15554 125.73059 -316.76875 -308.78850 125.73059 -317.03864 -308.56566 125.73059 -316.27287 -308.13875 125.73059 -316.55902 -307.93722 125.73059 -315.82813 -307.45295 125.73059 -316.12887 -307.27390 125.73059 -315.43714 -306.73509 125.73059 -315.75069 -306.57957 125.73059 -315.10220 -305.98939 125.73059 -315.42673 -305.85831 125.73059 -314.82527 -305.22020 125.73059 -315.15888 -305.11433 125.73059 -314.60798 -304.43203 125.73059 -314.94871 -304.35199 125.73059 -314.45162 -303.62949 125.73059 -314.79747 -303.57576 125.73059 -314.35710 -302.81729 125.73059 -314.70605 -302.79017 125.73059 -314.32513 -302.00687 125.73059 -314.67487 -301.99313 125.73059 -337.70000 -314.70000 125.70059 -336.30000 -314.70000 125.70059 -336.30000 -313.30000 125.70059 -337.70000 -313.30000 125.70059 -337.70000 -314.70000 125.74059 -336.30000 -314.70000 125.74059 -336.30000 -313.30000 125.74059 -337.70000 -313.30000 125.74059 -337.70000 -290.70000 125.70059 -336.30000 -290.70000 125.70059 -336.30000 -289.30000 125.70059 -337.70000 -289.30000 125.70059 -337.70000 -290.70000 125.74059 -336.30000 -290.70000 125.74059 -336.30000 -289.30000 125.74059 -337.70000 -289.30000 125.74059 -313.70000 -314.70000 125.70059 -312.30000 -314.70000 125.70059 -312.30000 -313.30000 125.70059 -313.70000 -313.30000 125.70059 -313.70000 -314.70000 125.74059 -312.30000 -314.70000 125.74059 -312.30000 -313.30000 125.74059 -313.70000 -313.30000 125.74059 -313.70000 -290.70000 125.70059 -312.30000 -290.70000 125.70059 -312.30000 -289.30000 125.70059 -313.70000 -289.30000 125.70059 -313.70000 -290.70000 125.74059 -312.30000 -290.70000 125.74059 -312.30000 -289.30000 125.74059 -313.70000 -289.30000 125.74059 -349.50000 -322.32500 126.11059 -346.50000 -322.32500 126.11059 -346.50000 -321.67500 126.11059 -349.50000 -321.67500 126.11059 -349.50000 -322.32500 126.29059 -346.50000 -322.32500 126.29059 -346.50000 -321.67500 126.29059 -349.50000 -321.67500 126.29059 -349.09000 -322.25000 125.55059 -348.91000 -322.25000 125.55059 -348.91000 -321.75000 125.55059 -349.09000 -321.75000 125.55059 -349.09000 -322.25000 126.15059 -348.91000 -322.25000 126.15059 -348.91000 -321.75000 126.15059 -349.09000 -321.75000 126.15059 -347.09000 -322.25000 125.55059 -346.91000 -322.25000 125.55059 -346.91000 -321.75000 125.55059 -347.09000 -321.75000 125.55059 -347.09000 -322.25000 126.15059 -346.91000 -322.25000 126.15059 -346.91000 -321.75000 126.15059 -347.09000 -321.75000 126.15059 -303.50000 -322.32500 126.11059 -300.50000 -322.32500 126.11059 -300.50000 -321.67500 126.11059 -303.50000 -321.67500 126.11059 -303.50000 -322.32500 126.29059 -300.50000 -322.32500 126.29059 -300.50000 -321.67500 126.29059 -303.50000 -321.67500 126.29059 -303.09000 -322.25000 125.55059 -302.91000 -322.25000 125.55059 -302.91000 -321.75000 125.55059 -303.09000 -321.75000 125.55059 -303.09000 -322.25000 126.15059 -302.91000 -322.25000 126.15059 -302.91000 -321.75000 126.15059 -303.09000 -321.75000 126.15059 -301.09000 -322.25000 125.55059 -300.91000 -322.25000 125.55059 -300.91000 -321.75000 125.55059 -301.09000 -321.75000 125.55059 -301.09000 -322.25000 126.15059 -300.91000 -322.25000 126.15059 -300.91000 -321.75000 126.15059 -301.09000 -321.75000 126.15059 247.00000 -82.50000 170.21304 273.00000 -82.50000 170.21304 273.00000 -63.50000 170.21304 247.00000 -63.50000 170.21304 247.00000 -82.50000 170.61304 273.00000 -82.50000 170.61304 273.00000 -63.50000 170.61304 247.00000 -63.50000 170.61304 235.50000 -79.32500 171.09304 238.50000 -79.32500 171.09304 238.50000 -78.67500 171.09304 235.50000 -78.67500 171.09304 235.50000 -79.32500 171.27304 238.50000 -79.32500 171.27304 238.50000 -78.67500 171.27304 235.50000 -78.67500 171.27304 235.91000 -79.25000 170.53304 236.09000 -79.25000 170.53304 236.09000 -78.75000 170.53304 235.91000 -78.75000 170.53304 235.91000 -79.25000 171.13304 236.09000 -79.25000 171.13304 236.09000 -78.75000 171.13304 235.91000 -78.75000 171.13304 237.91000 -79.25000 170.53304 238.09000 -79.25000 170.53304 238.09000 -78.75000 170.53304 237.91000 -78.75000 170.53304 237.91000 -79.25000 171.13304 238.09000 -79.25000 171.13304 238.09000 -78.75000 171.13304 237.91000 -78.75000 171.13304 281.50000 -79.32500 171.09304 284.50000 -79.32500 171.09304 284.50000 -78.67500 171.09304 281.50000 -78.67500 171.09304 281.50000 -79.32500 171.27304 284.50000 -79.32500 171.27304 284.50000 -78.67500 171.27304 281.50000 -78.67500 171.27304 281.91000 -79.25000 170.53304 282.09000 -79.25000 170.53304 282.09000 -78.75000 170.53304 281.91000 -78.75000 170.53304 281.91000 -79.25000 171.13304 282.09000 -79.25000 171.13304 282.09000 -78.75000 171.13304 281.91000 -78.75000 171.13304 283.91000 -79.25000 170.53304 284.09000 -79.25000 170.53304 284.09000 -78.75000 170.53304 283.91000 -78.75000 170.53304 283.91000 -79.25000 171.13304 284.09000 -79.25000 171.13304 284.09000 -78.75000 171.13304 283.91000 -78.75000 171.13304 -154.00000 271.00000 197.64681 -126.00000 271.00000 197.64681 -126.00000 299.00000 197.64681 -154.00000 299.00000 197.64681 -154.00000 271.00000 198.24681 -126.00000 271.00000 198.24681 -126.00000 299.00000 198.24681 -154.00000 299.00000 198.24681 -144.12500 280.00000 198.24681 -142.87500 280.00000 198.24681 -142.87500 290.00000 198.24681 -144.12500 290.00000 198.24681 -144.12500 280.00000 198.27081 -142.87500 280.00000 198.27081 -142.87500 290.00000 198.27081 -144.12500 290.00000 198.27081 -137.12500 280.00000 198.24681 -135.87500 280.00000 198.24681 -135.87500 290.00000 198.24681 -137.12500 290.00000 198.24681 -137.12500 280.00000 198.27081 -135.87500 280.00000 198.27081 -135.87500 290.00000 198.27081 -137.12500 290.00000 198.27081 -143.50000 284.37500 198.24681 -136.50000 284.37500 198.24681 -136.50000 285.62500 198.24681 -143.50000 285.62500 198.24681 -143.50000 284.37500 198.27081 -136.50000 284.37500 198.27081 -136.50000 285.62500 198.27081 -143.50000 285.62500 198.27081 -129.32513 285.00687 198.27681 -129.67487 284.99313 198.27681 -129.35710 285.81729 198.27681 -129.70605 285.79017 198.27681 -129.45162 286.62949 198.27681 -129.79747 286.57576 198.27681 -129.60798 287.43203 198.27681 -129.94871 287.35199 198.27681 -129.82527 288.22020 198.27681 -130.15888 288.11433 198.27681 -130.10220 288.98939 198.27681 -130.42673 288.85831 198.27681 -130.43714 289.73509 198.27681 -130.75069 289.57957 198.27681 -130.82813 290.45295 198.27681 -131.12887 290.27390 198.27681 -131.27287 291.13875 198.27681 -131.55902 290.93722 198.27681 -131.76875 291.78850 198.27681 -132.03864 291.56566 198.27681 -132.31285 292.39837 198.27681 -132.56491 292.15554 198.27681 -132.90199 292.96482 198.27681 -133.13474 292.70341 198.27681 -133.53272 293.48451 198.27681 -133.74479 293.20607 198.27681 -134.20134 293.95441 198.27681 -134.39148 293.66056 198.27681 -134.90392 294.37178 198.27681 -135.07103 294.06424 198.27681 -135.63636 294.73416 198.27681 -135.77944 294.41475 198.27681 -136.39435 295.03945 198.27681 -136.51259 294.71002 198.27681 -137.17347 295.28585 198.27681 -137.26615 294.94834 198.27681 -137.96914 295.47192 198.27681 -138.03573 295.12831 198.27681 -138.77671 295.59657 198.27681 -138.81682 295.24888 198.27681 -139.59144 295.65908 198.27681 -139.60484 295.30934 198.27681 -140.40856 295.65908 198.27681 -140.39516 295.30934 198.27681 -141.22329 295.59657 198.27681 -141.18318 295.24888 198.27681 -142.03086 295.47192 198.27681 -141.96427 295.12831 198.27681 -142.82653 295.28585 198.27681 -142.73385 294.94834 198.27681 -143.60565 295.03945 198.27681 -143.48741 294.71002 198.27681 -144.36364 294.73416 198.27681 -144.22056 294.41475 198.27681 -145.09608 294.37178 198.27681 -144.92897 294.06424 198.27681 -145.79866 293.95441 198.27681 -145.60852 293.66056 198.27681 -146.46728 293.48451 198.27681 -146.25521 293.20607 198.27681 -147.09801 292.96482 198.27681 -146.86526 292.70341 198.27681 -147.68715 292.39837 198.27681 -147.43509 292.15554 198.27681 -148.23125 291.78850 198.27681 -147.96136 291.56566 198.27681 -148.72713 291.13875 198.27681 -148.44098 290.93722 198.27681 -149.17187 290.45295 198.27681 -148.87113 290.27390 198.27681 -149.56286 289.73509 198.27681 -149.24931 289.57957 198.27681 -149.89780 288.98939 198.27681 -149.57327 288.85831 198.27681 -150.17473 288.22020 198.27681 -149.84112 288.11433 198.27681 -150.39202 287.43203 198.27681 -150.05129 287.35199 198.27681 -150.54838 286.62949 198.27681 -150.20253 286.57576 198.27681 -150.64290 285.81729 198.27681 -150.29395 285.79017 198.27681 -150.67500 285.00000 198.27681 -150.32500 285.00000 198.27681 -150.64290 284.18271 198.27681 -150.29395 284.20983 198.27681 -150.54838 283.37051 198.27681 -150.20253 283.42424 198.27681 -150.39202 282.56797 198.27681 -150.05129 282.64801 198.27681 -150.17473 281.77980 198.27681 -149.84112 281.88567 198.27681 -149.89780 281.01061 198.27681 -149.57327 281.14169 198.27681 -149.56286 280.26491 198.27681 -149.24931 280.42043 198.27681 -149.17187 279.54705 198.27681 -148.87113 279.72610 198.27681 -148.72713 278.86125 198.27681 -148.44098 279.06278 198.27681 -148.23125 278.21150 198.27681 -147.96136 278.43434 198.27681 -147.68715 277.60163 198.27681 -147.43509 277.84446 198.27681 -147.09801 277.03518 198.27681 -146.86526 277.29659 198.27681 -146.46728 276.51549 198.27681 -146.25521 276.79393 198.27681 -145.79866 276.04559 198.27681 -145.60852 276.33944 198.27681 -145.09608 275.62822 198.27681 -144.92897 275.93576 198.27681 -144.36364 275.26584 198.27681 -144.22056 275.58525 198.27681 -143.60565 274.96055 198.27681 -143.48741 275.28998 198.27681 -142.82653 274.71415 198.27681 -142.73385 275.05166 198.27681 -142.03086 274.52808 198.27681 -141.96427 274.87169 198.27681 -141.22329 274.40343 198.27681 -141.18318 274.75112 198.27681 -140.40856 274.34092 198.27681 -140.39516 274.69066 198.27681 -139.59144 274.34092 198.27681 -139.60484 274.69066 198.27681 -138.77671 274.40343 198.27681 -138.81682 274.75112 198.27681 -137.96914 274.52808 198.27681 -138.03573 274.87169 198.27681 -137.17347 274.71415 198.27681 -137.26615 275.05166 198.27681 -136.39435 274.96055 198.27681 -136.51259 275.28998 198.27681 -135.63636 275.26584 198.27681 -135.77944 275.58525 198.27681 -134.90392 275.62822 198.27681 -135.07103 275.93576 198.27681 -134.20134 276.04559 198.27681 -134.39148 276.33944 198.27681 -133.53272 276.51549 198.27681 -133.74479 276.79393 198.27681 -132.90199 277.03518 198.27681 -133.13474 277.29659 198.27681 -132.31285 277.60163 198.27681 -132.56491 277.84446 198.27681 -131.76875 278.21150 198.27681 -132.03864 278.43434 198.27681 -131.27287 278.86125 198.27681 -131.55902 279.06278 198.27681 -130.82813 279.54705 198.27681 -131.12887 279.72610 198.27681 -130.43714 280.26491 198.27681 -130.75069 280.42043 198.27681 -130.10220 281.01061 198.27681 -130.42673 281.14169 198.27681 -129.82527 281.77980 198.27681 -130.15888 281.88567 198.27681 -129.60798 282.56797 198.27681 -129.94871 282.64801 198.27681 -129.45162 283.37051 198.27681 -129.79747 283.42424 198.27681 -129.35710 284.18271 198.27681 -129.70605 284.20983 198.27681 -129.32513 284.99313 198.27681 -129.67487 285.00687 198.27681 -152.70000 272.30000 198.24681 -151.30000 272.30000 198.24681 -151.30000 273.70000 198.24681 -152.70000 273.70000 198.24681 -152.70000 272.30000 198.28681 -151.30000 272.30000 198.28681 -151.30000 273.70000 198.28681 -152.70000 273.70000 198.28681 -152.70000 296.30000 198.24681 -151.30000 296.30000 198.24681 -151.30000 297.70000 198.24681 -152.70000 297.70000 198.24681 -152.70000 296.30000 198.28681 -151.30000 296.30000 198.28681 -151.30000 297.70000 198.28681 -152.70000 297.70000 198.28681 -128.70000 272.30000 198.24681 -127.30000 272.30000 198.24681 -127.30000 273.70000 198.24681 -128.70000 273.70000 198.24681 -128.70000 272.30000 198.28681 -127.30000 272.30000 198.28681 -127.30000 273.70000 198.28681 -128.70000 273.70000 198.28681 -128.70000 296.30000 198.24681 -127.30000 296.30000 198.24681 -127.30000 297.70000 198.24681 -128.70000 297.70000 198.24681 -128.70000 296.30000 198.28681 -127.30000 296.30000 198.28681 -127.30000 297.70000 198.28681 -128.70000 297.70000 198.28681 -164.50000 264.67500 198.65681 -161.50000 264.67500 198.65681 -161.50000 265.32500 198.65681 -164.50000 265.32500 198.65681 -164.50000 264.67500 198.83681 -161.50000 264.67500 198.83681 -161.50000 265.32500 198.83681 -164.50000 265.32500 198.83681 -164.09000 264.75000 198.09681 -163.91000 264.75000 198.09681 -163.91000 265.25000 198.09681 -164.09000 265.25000 198.09681 -164.09000 264.75000 198.69681 -163.91000 264.75000 198.69681 -163.91000 265.25000 198.69681 -164.09000 265.25000 198.69681 -162.09000 264.75000 198.09681 -161.91000 264.75000 198.09681 -161.91000 265.25000 198.09681 -162.09000 265.25000 198.09681 -162.09000 264.75000 198.69681 -161.91000 264.75000 198.69681 -161.91000 265.25000 198.69681 -162.09000 265.25000 198.69681 -118.50000 264.67500 198.65681 -115.50000 264.67500 198.65681 -115.50000 265.32500 198.65681 -118.50000 265.32500 198.65681 -118.50000 264.67500 198.83681 -115.50000 264.67500 198.83681 -115.50000 265.32500 198.83681 -118.50000 265.32500 198.83681 -118.09000 264.75000 198.09681 -117.91000 264.75000 198.09681 -117.91000 265.25000 198.09681 -118.09000 265.25000 198.09681 -118.09000 264.75000 198.69681 -117.91000 264.75000 198.69681 -117.91000 265.25000 198.69681 -118.09000 265.25000 198.69681 -116.09000 264.75000 198.09681 -115.91000 264.75000 198.09681 -115.91000 265.25000 198.09681 -116.09000 265.25000 198.09681 -116.09000 264.75000 198.69681 -115.91000 264.75000 198.69681 -115.91000 265.25000 198.69681 -116.09000 265.25000 198.69681</float_array><technique_common><accessor source="#position_array" count="612" stride="3"><param name="X" type="float" /><param name="Y" type="float" /><param name="Z" type="float" /></accessor></technique_common></source><source id="normal"><float_array id="normal_array" count="1836">-0.01071 -0.02142 -0.99971 0.04281 -0.02140 -0.99885 0.01071 0.02142 -0.99971 -0.04281 0.02140 -0.99885 -0.02142 -0.01071 0.99971 0.02140 -0.04281 0.99885 0.02142 0.01071 0.99971 -0.02140 0.04281 0.99885 -0.00960 -0.00240 -0.99995 0.03837 -0.00240 -0.99926 0.00960 0.00240 -0.99995 -0.03837 0.00240 -0.99926 -0.01920 -0.00120 0.99982 0.01920 -0.00480 0.99980 0.01920 0.00120 0.99982 -0.01920 0.00480 0.99980 -0.00960 -0.00240 -0.99995 0.03837 -0.00240 -0.99926 0.00960 0.00240 -0.99995 -0.03837 0.00240 -0.99926 -0.01920 -0.00120 0.99982 0.01920 -0.00480 0.99980 0.01920 0.00120 0.99982 -0.01920 0.00480 0.99980 -0.00171 -0.01920 -0.99981 0.00686 -0.01920 -0.99979 0.00171 0.01920 -0.99981 -0.00686 0.01920 -0.99979 -0.00343 -0.00960 0.99995 0.00343 -0.03837 0.99926 0.00343 0.00960 0.99995 -0.00343 0.03837 0.99926 0.00000 0.00000 1.00000 0.00000 0.00000 1.00000 0.00000 0.00000 1.00000 0.00000 0.00000 1.00000 0.00000 0.00000 1.00000 0.00000 0.00000 1.00000 0.00000 0.00000 1.00000 0.00000 0.00000 1.00000 0.00000 0.00000 1.00000 0.00000 0.00000 1.00000 0.00000 0.00000 1.00000 0.00000 0.00000 1.00000 0.00000 0.00000 1.00000 0.00000 0.00000 1.00000 0.00000 0.00000 1.00000 0.00000 0.00000 1.00000 0.00000 0.00000 1.00000 0.00000 0.00000 1.00000 0.00000 0.00000 1.00000 0.00000 0.00000 1.00000 0.00000 0.00000 1.00000 0.00000 0.00000 1.00000 0.00000 0.00000 1.00000 0.00000 0.00000 1.00000 0.00000 0.00000 1.00000 0.00000 0.00000 1.00000 0.00000 0.00000 1.00000 0.00000 0.00000 1.00000 0.00000 0.00000 1.00000 0.00000 0.00000 1.00000 0.00000 0.00000 1.00000 0.00000 0.00000 1.00000 0.00000 0.00000 1.00000 0.00000 0.00000 1.00000 0.00000 0.00000 1.00000 0.00000 0.00000 1.00000 0.00000 0.00000 1.00000 0.00000 0.00000 1.00000 0.00000 0.00000 1.00000 0.00000 0.00000 1.00000 0.00000 0.00000 1.00000 0.00000 0.00000 1.00000 0.00000 0.00000 1.00000 0.00000 0.00000 1.00000 0.00000 0.00000 1.00000 0.00000 0.00000 1.00000 0.00000 0.00000 1.00000 0.00000 0.00000 1.00000 0.00000 0.00000 1.00000 0.00000 0.00000 1.00000 0.00000 0.00000 1.00000 0.00000 0.00000 1.00000 0.00000 0.00000 1.00000 0.00000 0.00000 1.00000 0.00000 0.00000 1.00000 0.00000 0.00000 1.00000 0.00000 0.00000 1.00000 0.00000 0.00000 1.00000 0.00000 0.00000 1.00000 0.00000 0.00000 1.00000 0.00000 0.00000 1.00000 0.00000 0.00000 1.00000 0.00000 0.00000 1.00000 0.00000 0.00000 1.00000 0.00000 0.00000 1.00000 0.00000 0.00000 1.00000 0.00000 0.00000 1.00000 0.00000 0.00000 1.00000 0.00000 0.00000 1.00000 0.00000 0.00000 1.00000 0.00000 0.00000 1.00000 0.00000 0.00000 1.00000 0.00000 0.00000 1.00000 0.00000 0.00000 1.00000 0.00000 0.00000 1.00000 0.00000 0.00000 1.00000 0.00000 0.00000 1.00000 0.00000 0.00000 1.00000 0.00000 0.00000 1.00000 0.00000 0.00000 1.00000 0.00000 0.00000 1.00000 0.00000 0.00000 1.00000 0.00000 0.00000 1.00000 0.00000 0.00000 1.00000 0.00000 0.00000 1.00000 0.00000 0.00000 1.00000 0.00000 0.00000 1.00000 0.00000 0.00000 1.00000 0.00000 0.00000 1.00000 0.00000 0.00000 1.00000 0.00000 0.00000 1.00000 0.00000 0.00000 1.00000 0.00000 0.00000 1.00000 0.00000 0.00000 1.00000 0.00000 0.00000 1.00000 0.00000 0.00000 1.00000 0.00000 0.00000 1.00000 0.00000 0.00000 1.00000 0.00000 0.00000 1.00000 0.00000 0.00000 1.00000 0.00000 0.00000 1.00000 0.00000 0.00000 1.00000 0.00000 0.00000 1.00000 0.00000 0.00000 1.00000 0.00000 0.00000 1.00000 0.00000 0.00000 1.00000 0.00000 0.00000 1.00000 0.00000 0.00000 1.00000 0.00000 0.00000 1.00000 0.00000 0.00000 1.00000 0.00000 0.00000 1.00000 0.00000 0.00000 1.00000 0.00000 0.00000 1.00000 0.00000 0.00000 1.00000 0.00000 0.00000 1.00000 0.00000 0.00000 1.00000 0.00000 0.00000 1.00000 0.00000 0.00000 1.00000 0.00000 0.00000 1.00000 0.00000 0.00000 1.00000 0.00000 0.00000 1.00000 0.00000 0.00000 1.00000 0.00000 0.00000 1.00000 0.00000 0.00000 1.00000 0.00000 0.00000 1.00000 0.00000 0.00000 1.00000 0.00000 0.00000 1.00000 0.00000 0.00000 1.00000 0.00000 0.00000 1.00000 0.00000 0.00000 1.00000 0.00000 0.00000 1.00000 0.00000 0.00000 1.00000 0.00000 0.00000 1.00000 0.00000 0.00000 1.00000 0.00000 0.00000 1.00000 0.00000 0.00000 1.00000 0.00000 0.00000 1.00000 0.00000 0.00000 1.00000 0.00000 0.00000 1.00000 0.00000 0.00000 1.00000 0.00000 0.00000 1.00000 0.00000 0.00000 1.00000 0.00000 0.00000 1.00000 0.00000 0.00000 1.00000 0.00000 0.00000 1.00000 0.00000 0.00000 1.00000 0.00000 0.00000 1.00000 0.00000 0.00000 1.00000 0.00000 0.00000 1.00000 0.00000 0.00000 1.00000 0.00000 0.00000 1.00000 0.00000 0.00000 1.00000 0.00000 0.00000 1.00000 0.00000 0.00000 1.00000 0.00000 0.00000 1.00000 0.00000 0.00000 1.00000 0.00000 0.00000 1.00000 0.00000 0.00000 1.00000 0.00000 0.00000 1.00000 0.00000 0.00000 1.00000 0.00000 0.00000 1.00000 0.00000 0.00000 1.00000 0.00000 0.00000 1.00000 0.00000 0.00000 1.00000 0.00000 0.00000 1.00000 0.00000 0.00000 1.00000 -0.01428 -0.02856 -0.99949 0.05703 -0.02851 -0.99797 0.01428 0.02856 -0.99949 -0.05703 0.02851 -0.99797 -0.02856 -0.01428 0.99949 0.02851 -0.05703 0.99797 0.02856 0.01428 0.99949 -0.02851 0.05703 0.99797 -0.01428 -0.02856 -0.99949 0.05703 -0.02851 -0.99797 0.01428 0.02856 -0.99949 -0.05703 0.02851 -0.99797 -0.02856 -0.01428 0.99949 0.02851 -0.05703 0.99797 0.02856 0.01428 0.99949 -0.02851 0.05703 0.99797 -0.01428 -0.02856 -0.99949 0.05703 -0.02851 -0.99797 0.01428 0.02856 -0.99949 -0.05703 0.02851 -0.99797 -0.02856 -0.01428 0.99949 0.02851 -0.05703 0.99797 0.02856 0.01428 0.99949 -0.02851 0.05703 0.99797 -0.01428 -0.02856 -0.99949 0.05703 -0.02851 -0.99797 0.01428 0.02856 -0.99949 -0.05703 0.02851 -0.99797 -0.02856 -0.01428 0.99949 0.02851 -0.05703 0.99797 0.02856 0.01428 0.99949 -0.02851 0.05703 0.99797 -0.02890 -0.26677 -0.96333 0.11488 -0.26511 -0.95735 0.02890 0.26677 -0.96333 -0.11488 0.26511 -0.95735 -0.05933 -0.13691 0.98881 0.05242 -0.48383 0.87359 0.05933 0.13691 0.98881 -0.05242 0.48383 0.87359 -0.72964 -0.52534 -0.43778 0.97363 -0.17525 -0.14604 0.72964 0.52534 -0.43778 -0.97363 0.17525 -0.14604 -0.94390 -0.16990 0.28317 0.78850 -0.56772 0.23655 0.94390 0.16990 0.28317 -0.78850 0.56772 0.23655 -0.72964 -0.52534 -0.43778 0.97363 -0.17525 -0.14604 0.72964 0.52534 -0.43778 -0.97363 0.17525 -0.14604 -0.94390 -0.16990 0.28317 0.78850 -0.56772 0.23655 0.94390 0.16990 0.28317 -0.78850 0.56772 0.23655 -0.02890 -0.26677 -0.96333 0.11488 -0.26511 -0.95735 0.02890 0.26677 -0.96333 -0.11488 0.26511 -0.95735 -0.05933 -0.13691 0.98881 0.05242 -0.48383 0.87359 0.05933 0.13691 0.98881 -0.05242 0.48383 0.87359 -0.72964 -0.52534 -0.43778 0.97363 -0.17525 -0.14604 0.72964 0.52534 -0.43778 -0.97363 0.17525 -0.14604 -0.94390 -0.16990 0.28317 0.78850 -0.56772 0.23655 0.94390 0.16990 0.28317 -0.78850 0.56772 0.23655 -0.72964 -0.52534 -0.43778 0.97363 -0.17525 -0.14604 0.72964 0.52534 -0.43778 -0.97363 0.17525 -0.14604 -0.94390 -0.16990 0.28317 0.78850 -0.56772 0.23655 0.94390 0.16990 0.28317 -0.78850 0.56772 0.23655 -0.00769 -0.02105 -0.99975 0.03075 -0.02104 -0.99931 0.00769 0.02105 -0.99975 -0.03075 0.02104 -0.99931 -0.01538 -0.01052 0.99983 0.01537 -0.04206 0.99900 0.01538 0.01052 0.99983 -0.01537 0.04206 0.99900 -0.02890 -0.26677 -0.96333 0.11488 -0.26511 -0.95735 0.02890 0.26677 -0.96333 -0.11488 0.26511 -0.95735 -0.05933 -0.13691 0.98881 0.05242 -0.48383 0.87359 0.05933 0.13691 0.98881 -0.05242 0.48383 0.87359 -0.72964 -0.52534 -0.43778 0.97363 -0.17525 -0.14604 0.72964 0.52534 -0.43778 -0.97363 0.17525 -0.14604 -0.94390 -0.16990 0.28317 0.78850 -0.56772 0.23655 0.94390 0.16990 0.28317 -0.78850 0.56772 0.23655 -0.72964 -0.52534 -0.43778 0.97363 -0.17525 -0.14604 0.72964 0.52534 -0.43778 -0.97363 0.17525 -0.14604 -0.94390 -0.16990 0.28317 0.78850 -0.56772 0.23655 0.94390 0.16990 0.28317 -0.78850 0.56772 0.23655 -0.02890 -0.26677 -0.96333 0.11488 -0.26511 -0.95735 0.02890 0.26677 -0.96333 -0.11488 0.26511 -0.95735 -0.05933 -0.13691 0.98881 0.05242 -0.48383 0.87359 0.05933 0.13691 0.98881 -0.05242 0.48383 0.87359 -0.72964 -0.52534 -0.43778 0.97363 -0.17525 -0.14604 0.72964 0.52534 -0.43778 -0.97363 0.17525 -0.14604 -0.94390 -0.16990 0.28317 0.78850 -0.56772 0.23655 0.94390 0.16990 0.28317 -0.78850 0.56772 0.23655 -0.72964 -0.52534 -0.43778 0.97363 -0.17525 -0.14604 0.72964 0.52534 -0.43778 -0.97363 0.17525 -0.14604 -0.94390 -0.16990 0.28317 0.78850 -0.56772 0.23655 0.94390 0.16990 0.28317 -0.78850 0.56772 0.23655 -0.01071 -0.02142 -0.99971 0.04281 -0.02140 -0.99885 0.01071 0.02142 -0.99971 -0.04281 0.02140 -0.99885 -0.02142 -0.01071 0.99971 0.02140 -0.04281 0.99885 0.02142 0.01071 0.99971 -0.02140 0.04281 0.99885 -0.00960 -0.00240 -0.99995 0.03837 -0.00240 -0.99926 0.00960 0.00240 -0.99995 -0.03837 0.00240 -0.99926 -0.01920 -0.00120 0.99982 0.01920 -0.00480 0.99980 0.01920 0.00120 0.99982 -0.01920 0.00480 0.99980 -0.00960 -0.00240 -0.99995 0.03837 -0.00240 -0.99926 0.00960 0.00240 -0.99995 -0.03837 0.00240 -0.99926 -0.01920 -0.00120 0.99982 0.01920 -0.00480 0.99980 0.01920 0.00120 0.99982 -0.01920 0.00480 0.99980 -0.00171 -0.01920 -0.99981 0.00686 -0.01920 -0.99979 0.00171 0.01920 -0.99981 -0.00686 0.01920 -0.99979 -0.00343 -0.00960 0.99995 0.00343 -0.03837 0.99926 0.00343 0.00960 0.99995 -0.00343 0.03837 0.99926 0.00000 0.00000 1.00000 0.00000 0.00000 1.00000 0.00000 0.00000 1.00000 0.00000 0.00000 1.00000 0.00000 0.00000 1.00000 0.00000 0.00000 1.00000 0.00000 0.00000 1.00000 0.00000 0.00000 1.00000 0.00000 0.00000 1.00000 0.00000 0.00000 1.00000 0.00000 0.00000 1.00000 0.00000 0.00000 1.00000 0.00000 0.00000 1.00000 0.00000 0.00000 1.00000 0.00000 0.00000 1.00000 0.00000 0.00000 1.00000 0.00000 0.00000 1.00000 0.00000 0.00000 1.00000 0.00000 0.00000 1.00000 0.00000 0.00000 1.00000 0.00000 0.00000 1.00000 0.00000 0.00000 1.00000 0.00000 0.00000 1.00000 0.00000 0.00000 1.00000 0.00000 0.00000 1.00000 0.00000 0.00000 1.00000 0.00000 0.00000 1.00000 0.00000 0.00000 1.00000 0.00000 0.00000 1.00000 0.00000 0.00000 1.00000 0.00000 0.00000 1.00000 0.00000 0.00000 1.00000 0.00000 0.00000 1.00000 0.00000 0.00000 1.00000 0.00000 0.00000 1.00000 0.00000 0.00000 1.00000 0.00000 0.00000 1.00000 0.00000 0.00000 1.00000 0.00000 0.00000 1.00000 0.00000 0.00000 1.00000 0.00000 0.00000 1.00000 0.00000 0.00000 1.00000 0.00000 0.00000 1.00000 0.00000 0.00000 1.00000 0.00000 0.00000 1.00000 0.00000 0.00000 1.00000 0.00000 0.00000 1.00000 0.00000 0.00000 1.00000 0.00000 0.00000 1.00000 0.00000 0.00000 1.00000 0.00000 0.00000 1.00000 0.00000 0.00000 1.00000 0.00000 0.00000 1.00000 0.00000 0.00000 1.00000 0.00000 0.00000 1.00000 0.00000 0.00000 1.00000 0.00000 0.00000 1.00000 0.00000 0.00000 1.00000 0.00000 0.00000 1.00000 0.00000 0.00000 1.00000 0.00000 0.00000 1.00000 0.00000 0.00000 1.00000 0.00000 0.00000 1.00000 0.00000 0.00000 1.00000 0.00000 0.00000 1.00000 0.00000 0.00000 1.00000 0.00000 0.00000 1.00000 0.00000 0.00000 1.00000 0.00000 0.00000 1.00000 0.00000 0.00000 1.00000 0.00000 0.00000 1.00000 0.00000 0.00000 1.00000 0.00000 0.00000 1.00000 0.00000 0.00000 1.00000 0.00000 0.00000 1.00000 0.00000 0.00000 1.00000 0.00000 0.00000 1.00000 0.00000 0.00000 1.00000 0.00000 0.00000 1.00000 0.00000 0.00000 1.00000 0.00000 0.00000 1.00000 0.00000 0.00000 1.00000 0.00000 0.00000 1.00000 0.00000 0.00000 1.00000 0.00000 0.00000 1.00000 0.00000 0.00000 1.00000 0.00000 0.00000 1.00000 0.00000 0.00000 1.00000 0.00000 0.00000 1.00000 0.00000 0.00000 1.00000 0.00000 0.00000 1.00000 0.00000 0.00000 1.00000 0.00000 0.00000 1.00000 0.00000 0.00000 1.00000 0.00000 0.00000 1.00000 0.00000 0.00000 1.00000 0.00000 0.00000 1.00000 0.00000 0.00000 1.00000 0.00000 0.00000 1.00000 0.00000 0.00000 1.00000 0.00000 0.00000 1.00000 0.00000 0.00000 1.00000 0.00000 0.00000 1.00000 0.00000 0.00000 1.00000 0.00000 0.00000 1.00000 0.00000 0.00000 1.00000 0.00000 0.00000 1.00000 0.00000 0.00000 1.00000 0.00000 0.00000 1.00000 0.00000 0.00000 1.00000 0.00000 0.00000 1.00000 0.00000 0.00000 1.00000 0.00000 0.00000 1.00000 0.00000 0.00000 1.00000 0.00000 0.00000 1.00000 0.00000 0.00000 1.00000 0.00000 0.00000 1.00000 0.00000 0.00000 1.00000 0.00000 0.00000 1.00000 0.00000 0.00000 1.00000 0.00000 0.00000 1.00000 0.00000 0.00000 1.00000 0.00000 0.00000 1.00000 0.00000 0.00000 1.00000 0.00000 0.00000 1.00000 0.00000 0.00000 1.00000 0.00000 0.00000 1.00000 0.00000 0.00000 1.00000 0.00000 0.00000 1.00000 0.00000 0.00000 1.00000 0.00000 0.00000 1.00000 0.00000 0.00000 1.00000 0.00000 0.00000 1.00000 0.00000 0.00000 1.00000 0.00000 0.00000 1.00000 0.00000 0.00000 1.00000 0.00000 0.00000 1.00000 0.00000 0.00000 1.00000 0.00000 0.00000 1.00000 0.00000 0.00000 1.00000 0.00000 0.00000 1.00000 0.00000 0.00000 1.00000 0.00000 0.00000 1.00000 0.00000 0.00000 1.00000 0.00000 0.00000 1.00000 0.00000 0.00000 1.00000 0.00000 0.00000 1.00000 0.00000 0.00000 1.00000 0.00000 0.00000 1.00000 0.00000 0.00000 1.00000 0.00000 0.00000 1.00000 0.00000 0.00000 1.00000 0.00000 0.00000 1.00000 0.00000 0.00000 1.00000 0.00000 0.00000 1.00000 0.00000 0.00000 1.00000 0.00000 0.00000 1.00000 0.00000 0.00000 1.00000 0.00000 0.00000 1.00000 0.00000 0.00000 1.00000 0.00000 0.00000 1.00000 0.00000 0.00000 1.00000 0.00000 0.00000 1.00000 0.00000 0.00000 1.00000 0.00000 0.00000 1.00000 0.00000 0.00000 1.00000 -0.01428 -0.02856 -0.99949 0.05703 -0.02851 -0.99797 0.01428 0.02856 -0.99949 -0.05703 0.02851 -0.99797 -0.02856 -0.01428 0.99949 0.02851 -0.05703 0.99797 0.02856 0.01428 0.99949 -0.02851 0.05703 0.99797 -0.01428 -0.02856 -0.99949 0.05703 -0.02851 -0.99797 0.01428 0.02856 -0.99949 -0.05703 0.02851 -0.99797 -0.02856 -0.01428 0.99949 0.02851 -0.05703 0.99797 0.02856 0.01428 0.99949 -0.02851 0.05703 0.99797 -0.01428 -0.02856 -0.99949 0.05703 -0.02851 -0.99797 0.01428 0.02856 -0.99949 -0.05703 0.02851 -0.99797 -0.02856 -0.01428 0.99949 0.02851 -0.05703 0.99797 0.02856 0.01428 0.99949 -0.02851 0.05703 0.99797 -0.01428 -0.02856 -0.99949 0.05703 -0.02851 -0.99797 0.01428 0.02856 -0.99949 -0.05703 0.02851 -0.99797 -0.02856 -0.01428 0.99949 0.02851 -0.05703 0.99797 0.02856 0.01428 0.99949 -0.02851 0.05703 0.99797 -0.02890 -0.26677 -0.96333 0.11488 -0.26511 -0.95735 0.02890 0.26677 -0.96333 -0.11488 0.26511 -0.95735 -0.05933 -0.13691 0.98881 0.05242 -0.48383 0.87359 0.05933 0.13691 0.98881 -0.05242 0.48383 0.87359 -0.72964 -0.52534 -0.43778 0.97363 -0.17525 -0.14604 0.72964 0.52534 -0.43778 -0.97363 0.17525 -0.14604 -0.94390 -0.16990 0.28317 0.78850 -0.56772 0.23655 0.94390 0.16990 0.28317 -0.78850 0.56772 0.23655 -0.72964 -0.52534 -0.43778 0.97363 -0.17525 -0.14604 0.72964 0.52534 -0.43778 -0.97363 0.17525 -0.14604 -0.94390 -0.16990 0.28317 0.78850 -0.56772 0.23655 0.94390 0.16990 0.28317 -0.78850 0.56772 0.23655 -0.02890 -0.26677 -0.96333 0.11488 -0.26511 -0.95735 0.02890 0.26677 -0.96333 -0.11488 0.26511 -0.95735 -0.05933 -0.13691 0.98881 0.05242 -0.48383 0.87359 0.05933 0.13691 0.98881 -0.05242 0.48383 0.87359 -0.72964 -0.52534 -0.43778 0.97363 -0.17525 -0.14604 0.72964 0.52534 -0.43778 -0.97363 0.17525 -0.14604 -0.94390 -0.16990 0.28317 0.78850 -0.56772 0.23655 0.94390 0.16990 0.28317 -0.78850 0.56772 0.23655 -0.72964 -0.52534 -0.43778 0.97363 -0.17525 -0.14604 0.72964 0.52534 -0.43778 -0.97363 0.17525 -0.14604 -0.94390 -0.16990 0.28317 0.78850 -0.56772 0.23655 0.94390 0.16990 0.28317 -0.78850 0.56772 0.23655</float_array><technique_common><accessor source="#normal_array" count="612" stride="3"><param name="X" type="float" /><param name="Y" type="float" /><param name="Z" type="float" /></accessor></technique_common></source><source id="uv"><float_array id="uv_array" count="1224">0.00000 0.00000 0.00000 0.00000 0.00000 0.00000 0.00000 0.00000 0.00000 0.00000 0.00000 0.00000 0.00000 0.00000 0.00000 0.00000 0.00000 0.00000 0.00000 0.00000 0.00000 0.00000 0.00000 0.00000 0.00000 0.00000 0.00000 0.00000 0.00000 0.00000 0.00000 0.00000 0.00000 0.00000 0.00000 0.00000 0.00000 0.00000 0.00000 0.00000 0.00000 0.00000 0.00000 0.00000 0.00000 0.00000 0.00000 0.00000 0.00000 0.00000 0.00000 0.00000 0.00000 0.00000 0.00000 0.00000 0.00000 0.00000 0.00000 0.00000 0.00000 0.00000 0.00000 0.00000 0.00000 0.00000 0.00000 0.00000 0.00000 0.00000 0.00000 0.00000 0.00000 0.00000 0.00000 0.00000 0.00000 0.00000 0.00000 0.00000 0.00000 0.00000 0.00000 0.00000 0.00000 0.00000 0.00000 0.00000 0.00000 0.00000 0.00000 0.00000 0.00000 0.00000 0.00000 0.00000 0.00000 0.00000 0.00000 0.00000 0.00000 0.00000 0.00000 0.00000 0.00000 0.00000 0.00000 0.00000 0.00000 0.00000 0.00000 0.00000 0.00000 0.00000 0.00000 0.00000 0.00000 0.00000 0.00000 0.00000 0.00000 0.00000 0.00000 0.00000 0.00000 0.00000 0.00000 0.00000 0.00000 0.00000 0.00000 0.00000 0.00000 0.00000 0.00000 0.00000 0.00000 0.00000 0.00000 0.00000 0.00000 0.00000 0.00000 0.00000 0.00000 0.00000 0.00000 0.00000 0.00000 0.00000 0.00000 0.00000 0.00000 0.00000 0.00000 0.00000 0.00000 0.00000 0.00000 0.00000 0.00000 0.00000 0.00000 0.00000 0.00000 0.00000 0.00000 0.00000 0.00000 0.00000 0.00000 0.00000 0.00000 0.00000 0.00000 0.00000 0.00000 0.00000 0.00000 0.00000 0.00000 0.00000 0.00000 0.00000 0.00000 0.00000 0.00000 0.00000 0.00000 0.00000 0.00000 0.00000 0.00000 0.00000 0.00000 0.00000 0.00000 0.00000 0.00000 0.00000 0.00000 0.00000 0.00000 0.00000 0.00000 0.00000 0.00000 0.00000 0.00000 0.00000 0.00000 0.00000 0.00000 0.00000 0.00000 0.00000 0.00000 0.00000 0.00000 0.00000 0.00000 0.00000 0.00000 0.00000 0.00000 0.00000 0.00000 0.00000 0.00000 0.00000 0.00000 0.00000 0.00000 0.00000 0.00000 0.00000 0.00000 0.00000 0.00000 0.00000 0.00000 0.00000 0.00000 0.00000 0.00000 0.00000 0.00000 0.00000 0.00000 0.00000 0.00000 0.00000 0.00000 0.00000 0.00000 0.00000 0.00000 0.00000 0.00000 0.00000 0.00000 0.00000 0.00000 0.00000 0.00000 0.00000 0.00000 0.00000 0.00000 0.00000 0.00000 0.00000 0.00000 0.00000 0.00000 0.00000 0.00000 0.00000 0.00000 0.00000 0.00000 0.00000 0.00000 0.00000 0.00000 0.00000 0.00000 0.00000 0.00000 0.00000 0.00000 0.00000 0.00000 0.00000 0.00000 0.00000 0.00000 0.00000 0.00000 0.00000 0.00000 0.00000 0.00000 0.00000 0.00000 0.00000 0.00000 0.00000 0.00000 0.00000 0.00000 0.00000 0.00000 0.00000 0.00000 0.00000 0.00000 0.00000 0.00000 0.00000 0.00000 0.00000 0.00000 0.00000 0.00000 0.00000 0.00000 0.00000 0.00000 0.00000 0.00000 0.00000 0.00000 0.00000 0.00000 0.00000 0.00000 0.00000 0.00000 0.00000 0.00000 0.00000 0.00000 0.00000 0.00000 0.00000 0.00000 0.00000 0.00000 0.00000 0.00000 0.00000 0.00000 0.00000 0.00000 0.00000 0.00000 0.00000 0.00000 0.00000 0.00000 0.00000 0.00000 0.00000 0.00000 0.00000 0.00000 0.00000 0.00000 0.00000 0.00000 0.00000 0.00000 0.00000 0.00000 0.00000 0.00000 0.00000 0.00000 0.00000 0.00000 0.00000 0.00000 0.00000 0.00000 0.00000 0.00000 0.00000 0.00000 0.00000 0.00000 0.00000 0.00000 0.00000 0.00000 0.00000 0.00000 0.00000 0.00000 0.00000 0.00000 0.00000 0.00000 0.00000 0.00000 0.00000 0.00000 0.00000 0.00000 0.00000 0.00000 0.00000 0.00000 0.00000 0.00000 0.00000 0.00000 0.00000 0.00000 0.00000 0.00000 0.00000 0.00000 0.00000 0.00000 0.00000 0.00000 0.00000 0.00000 0.00000 0.00000 0.00000 0.00000 0.00000 0.00000 0.00000 0.00000 0.00000 0.00000 0.00000 0.00000 0.00000 0.00000 0.00000 0.00000 0.00000 0.00000 0.00000 0.00000 0.00000 0.00000 0.00000 0.00000 0.00000 0.00000 0.00000 0.00000 0.00000 0.00000 0.00000 0.00000 0.00000 0.00000 0.00000 0.00000 0.00000 0.00000 0.00000 0.00000 0.00000 0.00000 0.00000 0.00000 0.00000 0.00000 0.00000 0.00000 0.00000 0.00000 0.00000 0.00000 0.00000 0.00000 0.00000 0.00000 0.00000 0.00000 0.00000 0.00000 0.00000 0.00000 0.00000 0.00000 0.00000 0.00000 0.00000 0.00000 0.00000 0.00000 0.00000 0.00000 0.00000 0.00000 0.00000 0.00000 0.00000 0.00000 0.00000 0.00000 0.00000 0.00000 0.00000 0.00000 0.00000 0.00000 0.00000 0.00000 0.00000 0.00000 0.00000 0.00000 0.00000 0.00000 0.00000 0.00000 0.00000 0.00000 0.00000 0.00000 0.00000 0.00000 0.00000 0.00000 0.00000 0.00000 0.00000 0.00000 0.00000 0.00000 0.00000 0.00000 0.00000 0.00000 0.00000 0.00000 0.00000 0.00000 0.00000 0.00000 0.00000 0.00000 0.00000 0.00000 0.00000 0.00000 0.00000 0.00000 0.00000 0.00000 0.00000 0.00000 0.00000 0.00000 0.00000 0.00000 0.00000 0.00000 0.00000 0.00000 0.00000 0.00000 0.00000 0.00000 0.00000 0.00000 0.00000 0.00000 0.00000 0.00000 0.00000 0.00000 0.00000 0.00000 0.00000 0.00000 0.00000 0.00000 0.00000 0.00000 0.00000 0.00000 0.00000 0.00000 0.00000 0.00000 0.00000 0.00000 0.00000 0.00000 0.00000 0.00000 0.00000 0.00000 0.00000 0.00000 0.00000 0.00000 0.00000 0.00000 0.00000 0.00000 0.00000 0.00000 0.00000 0.00000 0.00000 0.00000 0.00000 0.00000 0.00000 0.00000 0.00000 0.00000 0.00000 0.00000 0.00000 0.00000 0.00000 0.00000 0.00000 0.00000 0.00000 0.00000 0.00000 0.00000 0.00000 0.00000 0.00000 0.00000 0.00000 0.00000 0.00000 0.00000 0.00000 0.00000 0.00000 0.00000 0.00000 0.00000 0.00000 0.00000 0.00000 0.00000 0.00000 0.00000 0.00000 0.00000 0.00000 0.00000 0.00000 0.00000 0.00000 0.00000 0.00000 0.00000 0.00000 0.00000 0.00000 0.00000 0.00000 0.00000 0.00000 0.00000 0.00000 0.00000 0.00000 0.00000 0.00000 0.00000 0.00000 0.00000 0.00000 0.00000 0.00000 0.00000 0.00000 0.00000 0.00000 0.00000 0.00000 0.00000 0.00000 0.00000 0.00000 0.00000 0.00000 0.00000 0.00000 0.00000 0.00000 0.00000 0.00000 0.00000 0.00000 0.00000 0.00000 0.00000 0.00000 0.00000 0.00000 0.00000 0.00000 0.00000 0.00000 0.00000 0.00000 0.00000 0.00000 0.00000 0.00000 0.00000 0.00000 0.00000 0.00000 0.00000 0.00000 0.00000 0.00000 0.00000 0.00000 0.00000 0.00000 0.00000 0.00000 0.00000 0.00000 0.00000 0.00000 0.00000 0.00000 0.00000 0.00000 0.00000 0.00000 0.00000 0.00000 0.00000 0.00000 0.00000 0.00000 0.00000 0.00000 0.00000 0.00000 0.00000 0.00000 0.00000 0.00000 0.00000 0.00000 0.00000 0.00000 0.00000 0.00000 0.00000 0.00000 0.00000 0.00000 0.00000 0.00000 0.00000 0.00000 0.00000 0.00000 0.00000 0.00000 0.00000 0.00000 0.00000 0.00000 0.00000 0.00000 0.00000 0.00000 0.00000 0.00000 0.00000 0.00000 0.00000 0.00000 0.00000 0.00000 0.00000 0.00000 0.00000 0.00000 0.00000 0.00000 0.00000 0.00000 0.00000 0.00000 0.00000 0.00000 0.00000 0.00000 0.00000 0.00000 0.00000 0.00000 0.00000 0.00000 0.00000 0.00000 0.00000 0.00000 0.00000 0.00000 0.00000 0.00000 0.00000 0.00000 0.00000 0.00000 0.00000 0.00000 0.00000 0.00000 0.00000 0.00000 0.00000 0.00000 0.00000 0.00000 0.00000 0.00000 0.00000 0.00000 0.00000 0.00000 0.00000 0.00000 0.00000 0.00000 0.00000 0.00000 0.00000 0.00000 0.00000 0.00000 0.00000 0.00000 0.00000 0.00000 0.00000 0.00000 0.00000 0.00000 0.00000 0.00000 0.00000 0.00000 0.00000 0.00000 0.00000 0.00000 0.00000 0.00000 0.00000 0.00000 0.00000 0.00000 0.00000 0.00000 0.00000 0.00000 0.00000 0.00000 0.00000 0.00000 0.00000 0.00000 0.00000 0.00000 0.00000 0.00000 0.00000 0.00000 0.00000 0.00000 0.00000 0.00000 0.00000 0.00000 0.00000 0.00000 0.00000 0.00000 0.00000 0.00000 0.00000 0.00000 0.00000 0.00000 0.00000 0.00000 0.00000 0.00000 0.00000 0.00000 0.00000 0.00000 0.00000 0.00000 0.00000 0.00000 0.00000 0.00000 0.00000 0.00000 0.00000 0.00000 0.00000 0.00000 0.00000 0.00000 0.00000 0.00000 0.00000 0.00000 0.00000 0.00000 0.00000 0.00000 0.00000 0.00000 0.00000 0.00000 0.00000 0.00000 0.00000 0.00000 0.00000 0.00000 0.00000 0.00000 0.00000 0.00000 0.00000 0.00000 0.00000 0.00000 0.00000 0.00000 0.00000 0.00000 0.00000 0.00000 0.00000 0.00000 0.00000 0.00000 0.00000 0.00000 0.00000 0.00000 0.00000 0.00000 0.00000 0.00000 0.00000 0.00000 0.00000 0.00000 0.00000 0.00000 0.00000 0.00000 0.00000 0.00000 0.00000 0.00000 0.00000 0.00000 0.00000 0.00000 0.00000 0.00000 0.00000 0.00000 0.00000 0.00000 0.00000 0.00000 0.00000 0.00000 0.00000 0.00000 0.00000 0.00000 0.00000 0.00000 0.00000 0.00000 0.00000 0.00000 0.00000 0.00000 0.00000 0.00000 0.00000 0.00000 0.00000 0.00000 0.00000 0.00000 0.00000 0.00000 0.00000 0.00000 0.00000 0.00000 0.00000 0.00000 0.00000 0.00000 0.00000 0.00000 0.00000 0.00000 0.00000 0.00000 0.00000 0.00000 0.00000 0.00000 0.00000 0.00000 0.00000 0.00000 0.00000 0.00000 0.00000 0.00000 0.00000 0.00000 0.00000 0.00000 0.00000 0.00000 0.00000 0.00000 0.00000 0.00000 0.00000 0.00000 0.00000 0.00000 0.00000 0.00000 0.00000 0.00000 0.00000 0.00000 0.00000 0.00000 0.00000 0.00000 0.00000 0.00000 0.00000 0.00000 0.00000 0.00000 0.00000 0.00000 0.00000 0.00000 0.00000 0.00000 0.00000 0.00000 0.00000 0.00000 0.00000 0.00000 0.00000 0.00000 0.00000 0.00000 0.00000 0.00000 0.00000 0.00000 0.00000 0.00000 0.00000 0.00000 0.00000 0.00000 0.00000 0.00000 0.00000 0.00000 0.00000 0.00000 0.00000 0.00000 0.00000 0.00000 0.00000 0.00000 0.00000 0.00000 0.00000 0.00000 0.00000 0.00000 0.00000 0.00000 0.00000 0.00000 0.00000 0.00000 0.00000 0.00000 0.00000 0.00000 0.00000 0.00000 0.00000 0.00000 0.00000 0.00000 0.00000 0.00000 0.00000 0.00000 0.00000 0.00000 0.00000 0.00000 0.00000 0.00000 0.00000 0.00000 0.00000 0.00000 0.00000 0.00000 0.00000 0.00000 0.00000 0.00000 0.00000 0.00000 0.00000 0.00000 0.00000 0.00000 0.00000 0.00000 0.00000 0.00000 0.00000 0.00000 0.00000 0.00000 0.00000 0.00000 0.00000 0.00000 0.00000 0.00000 0.00000 0.00000 0.00000 0.00000 0.00000 0.00000 0.00000 0.00000 0.00000 0.00000 0.00000 0.00000 0.00000 0.00000 0.00000 0.00000 0.00000 0.00000 0.00000 0.00000 0.00000 0.00000 0.00000 0.00000 0.00000 0.00000 0.00000 0.00000 0.00000 0.00000 0.00000 0.00000 0.00000 0.00000 0.00000 0.00000 0.00000 0.00000 0.00000 0.00000 0.00000 0.00000 0.00000 0.00000 0.00000 0.00000 0.00000 0.00000 0.00000 0.00000</float_array><technique_common><accessor source="#uv_array" count="612" stride="2"><param name="S" type="float" /><param name="T" type="float" /></accessor></technique_common></source><vertices id="vertices"><input semantic="POSITION" source="#position" /></vertices><triangles count="24" material="concrete"><input semantic="VERTEX" source="#vertices" offset="0" /><input semantic="NORMAL" source="#normal" offset="1" /><input semantic="TEXCOORD" source="#uv" offset="2" set="0" /><p>0 0 0 2 2 2 1 1 1 0 0 0 3 3 3 2 2 2 4 4 4 5 5 5 6 6 6 4 4 4 6 6 6 7 7 7 0 0 0 1 1 1 5 5 5 0 0 0 5 5 5 4 4 4 1 1 1 2 2 2 6 6 6 1 1 1 6 6 6 5 5 5 2 2 2 3 3 3 7 7 7 2 2 2 7 7 7 6 6 6 3 3 3 0 0 0 4 4 4 3 3 3 4 4 4 7 7 7 334 334 334 336 336 336 335 335 335 334 334 334 337 337 337 336 336 336 338 338 338 339 339 339 340 340 340 338 338 338 340 340 340 341 341 341 334 334 334 335 335 335 339 339 339 334 334 334 339 339 339 338 338 338 335 335 335 336 336 336 340 340 340 335 335 335 340 340 340 339 339 339 336 336 336 337 337 337 341 341 341 336 336 336 341 341 341 340 340 340 337 337 337 334 334 334 338 338 338 337 337 337 338 338 338 341 341 341</p></triangles><triangles count="72" material="white"><input semantic="VERTEX" source="#vertices" offset="0" /><input semantic="NORMAL" source="#normal" offset="1" /><input semantic="TEXCOORD" source="#uv" offset="2" set="0" /><p>8 8 8 10 10 10 9 9 9 8 8 8 11 11 11 10 10 10 12 12 12 13 13 13 14 14 14 12 12 12 14 14 14 15 15 15 8 8 8 9 9 9 13 13 13 8 8 8 13 13 13 12 12 12 9 9 9 10 10 10 14 14 14 9 9 9 14 14 14 13 13 13 10 10 10 11 11 11 15 15 15 10 10 10 15 15 15 14 14 14 11 11 11 8 8 8 12 12 12 11 11 11 12 12 12 15 15 15 16 16 16 18 18 18 17 17 17 16 16 16 19 19 19 18 18 18 20 20 20 21 21 21 22 22 22 20 20 20 22 22 22 23 23 23 16 16 16 17 17 17 21 21 21 16 16 16 21 21 21 20 20 20 17 17 17 18 18 18 22 22 22 17 17 17 22 22 22 21 21 21 18 18 18 19 19 19 23 23 23 18 18 18 23 23 23 22 22 22 19 19 19 16 16 16 20 20 20 19 19 19 20 20 20 23 23 23 24 24 24 26 26 26 25 25 25 24 24 24 27 27 27 26 26 26 28 28 28 29 29 29 30 30 30 28 28 28 30 30 30 31 31 31 24 24 24 25 25 25 29 29 29 24 24 24 29 29 29 28 28 28 25 25 25 26 26 26 30 30 30 25 25 25 30 30 30 29 29 29 26 26 26 27 27 27 31 31 31 26 26 26 31 31 31 30 30 30 27 27 27 24 24 24 28 28 28 27 27 27 28 28 28 31 31 31 342 342 342 344 344 344 343 343 343 342 342 342 345 345 345 344 344 344 346 346 346 347 347 347 348 348 348 346 346 346 348 348 348 349 349 349 342 342 342 343 343 343 347 347 347 342 342 342 347 347 347 346 346 346 343 343 343 344 344 344 348 348 348 343 343 343 348 348 348 347 347 347 344 344 344 345 345 345 349 349 349 344 344 344 349 349 349 348 348 348 345 345 345 342 342 342 346 346 346 345 345 345 346 346 346 349 349 349 350 350 350 352 352 352 351 351 351 350 350 350 353 353 353 352 352 352 354 354 354 355 355 355 356 356 356 354 354 354 356 356 356 357 357 357 350 350 350 351 351 351 355 355 355 350 350 350 355 355 355 354 354 354 351 351 351 352 352 352 356 356 356 351 351 351 356 356 356 355 355 355 352 352 352 353 353 353 357 357 357 352 352 352 357 357 357 356 356 356 353 353 353 350 350 350 354 354 354 353 353 353 354 354 354 357 357 357 358 358 358 360 360 360 359 359 359 358 358 358 361 361 361 360 360 360 362 362 362 363 363 363 364 364 364 362 362 362 364 364 364 365 365 365 358 358 358 359 359 359 363 363 363 358 358 358 363 363 363 362 362 362 359 359 359 360 360 360 364 364 364 359 359 359 364 364 364 363 363 363 360 360 360 361 361 361 365 365 365 360 360 360 365 365 365 364 364 364 361 361 361 358 358 358 362 362 362 361 361 361 362 362 362 365 365 365</p></triangles><triangles count="424" material="gold"><input semantic="VERTEX" source="#vertices" offset="0" /><input semantic="NORMAL" source="#normal" offset="1" /><input semantic="TEXCOORD" source="#uv" offset="2" set="0" /><p>32 32 32 34 34 34 35 35 35 32 32 32 35 35 35 33 33 33 34 34 34 36 36 36 37 37 37 34 34 34 37 37 37 35 35 35 36 36 36 38 38 38 39 39 39 36 36 36 39 39 39 37 37 37 38 38 38 40 40 40 41 41 41 38 38 38 41 41 41 39 39 39 40 40 40 42 42 42 43 43 43 40 40 40 43 43 43 41 41 41 42 42 42 44 44 44 45 45 45 42 42 42 45 45 45 43 43 43 44 44 44 46 46 46 47 47 47 44 44 44 47 47 47 45 45 45 46 46 46 48 48 48 49 49 49 46 46 46 49 49 49 47 47 47 48 48 48 50 50 50 51 51 51 48 48 48 51 51 51 49 49 49 50 50 50 52 52 52 53 53 53 50 50 50 53 53 53 51 51 51 52 52 52 54 54 54 55 55 55 52 52 52 55 55 55 53 53 53 54 54 54 56 56 56 57 57 57 54 54 54 57 57 57 55 55 55 56 56 56 58 58 58 59 59 59 56 56 56 59 59 59 57 57 57 58 58 58 60 60 60 61 61 61 58 58 58 61 61 61 59 59 59 60 60 60 62 62 62 63 63 63 60 60 60 63 63 63 61 61 61 62 62 62 64 64 64 65 65 65 62 62 62 65 65 65 63 63 63 64 64 64 66 66 66 67 67 67 64 64 64 67 67 67 65 65 65 66 66 66 68 68 68 69 69 69 66 66 66 69 69 69 67 67 67 68 68 68 70 70 70 71 71 71 68 68 68 71 71 71 69 69 69 70 70 70 72 72 72 73 73 73 70 70 70 73 73 73 71 71 71 72 72 72 74 74 74 75 75 75 72 72 72 75 75 75 73 73 73 74 74 74 76 76 76 77 77 77 74 74 74 77 77 77 75 75 75 76 76 76 78 78 78 79 79 79 76 76 76 79 79 79 77 77 77 78 78 78 80 80 80 81 81 81 78 78 78 81 81 81 79 79 79 80 80 80 82 82 82 83 83 83 80 80 80 83 83 83 81 81 81 82 82 82 84 84 84 85 85 85 82 82 82 85 85 85 83 83 83 84 84 84 86 86 86 87 87 87 84 84 84 87 87 87 85 85 85 86 86 86 88 88 88 89 89 89 86 86 86 89 89 89 87 87 87 88 88 88 90 90 90 91 91 91 88 88 88 91 91 91 89 89 89 90 90 90 92 92 92 93 93 93 90 90 90 93 93 93 91 91 91 92 92 92 94 94 94 95 95 95 92 92 92 95 95 95 93 93 93 94 94 94 96 96 96 97 97 97 94 94 94 97 97 97 95 95 95 96 96 96 98 98 98 99 99 99 96 96 96 99 99 99 97 97 97 98 98 98 100 100 100 101 101 101 98 98 98 101 101 101 99 99 99 100 100 100 102 102 102 103 103 103 100 100 100 103 103 103 101 101 101 102 102 102 104 104 104 105 105 105 102 102 102 105 105 105 103 103 103 104 104 104 106 106 106 107 107 107 104 104 104 107 107 107 105 105 105 106 106 106 108 108 108 109 109 109 106 106 106 109 109 109 107 107 107 108 108 108 110 110 110 111 111 111 108 108 108 111 111 111 109 109 109 110 110 110 112 112 112 113 113 113 110 110 110 113 113 113 111 111 111 112 112 112 114 114 114 115 115 115 112 112 112 115 115 115 113 113 113 114 114 114 116 116 116 117 117 117 114 114 114 117 117 117 115 115 115 116 116 116 118 118 118 119 119 119 116 116 116 119 119 119 117 117 117 118 118 118 120 120 120 121 121 121 118 118 118 121 121 121 119 119 119 120 120 120 122 122 122 123 123 123 120 120 120 123 123 123 121 121 121 122 122 122 124 124 124 125 125 125 122 122 122 125 125 125 123 123 123 124 124 124 126 126 126 127 127 127 124 124 124 127 127 127 125 125 125 126 126 126 128 128 128 129 129 129 126 126 126 129 129 129 127 127 127 128 128 128 130 130 130 131 131 131 128 128 128 131 131 131 129 129 129 130 130 130 132 132 132 133 133 133 130 130 130 133 133 133 131 131 131 132 132 132 134 134 134 135 135 135 132 132 132 135 135 135 133 133 133 134 134 134 136 136 136 137 137 137 134 134 134 137 137 137 135 135 135 136 136 136 138 138 138 139 139 139 136 136 136 139 139 139 137 137 137 138 138 138 140 140 140 141 141 141 138 138 138 141 141 141 139 139 139 140 140 140 142 142 142 143 143 143 140 140 140 143 143 143 141 141 141 142 142 142 144 144 144 145 145 145 142 142 142 145 145 145 143 143 143 144 144 144 146 146 146 147 147 147 144 144 144 147 147 147 145 145 145 146 146 146 148 148 148 149 149 149 146 146 146 149 149 149 147 147 147 148 148 148 150 150 150 151 151 151 148 148 148 151 151 151 149 149 149 150 150 150 152 152 152 153 153 153 150 150 150 153 153 153 151 151 151 152 152 152 154 154 154 155 155 155 152 152 152 155 155 155 153 153 153 154 154 154 156 156 156 157 157 157 154 154 154 157 157 157 155 155 155 156 156 156 158 158 158 159 159 159 156 156 156 159 159 159 157 157 157 158 158 158 160 160 160 161 161 161 158 158 158 161 161 161 159 159 159 160 160 160 162 162 162 163 163 163 160 160 160 163 163 163 161 161 161 162 162 162 164 164 164 165 165 165 162 162 162 165 165 165 163 163 163 164 164 164 166 166 166 167 167 167 164 164 164 167 167 167 165 165 165 166 166 166 168 168 168 169 169 169 166 166 166 169 169 169 167 167 167 168 168 168 170 170 170 171 171 171 168 168 168 171 171 171 169 169 169 170 170 170 172 172 172 173 173 173 170 170 170 173 173 173 171 171 171 172 172 172 174 174 174 175 175 175 172 172 172 175 175 175 173 173 173 174 174 174 176 176 176 177 177 177 174 174 174 177 177 177 175 175 175 176 176 176 178 178 178 179 179 179 176 176 176 179 179 179 177 177 177 178 178 178 180 180 180 181 181 181 178 178 178 181 181 181 179 179 179 180 180 180 182 182 182 183 183 183 180 180 180 183 183 183 181 181 181 182 182 182 184 184 184 185 185 185 182 182 182 185 185 185 183 183 183 184 184 184 186 186 186 187 187 187 184 184 184 187 187 187 185 185 185 186 186 186 188 188 188 189 189 189 186 186 186 189 189 189 187 187 187 188 188 188 190 190 190 191 191 191 188 188 188 191 191 191 189 189 189 190 190 190 192 192 192 193 193 193 190 190 190 193 193 193 191 191 191 192 192 192 194 194 194 195 195 195 192 192 192 195 195 195 193 193 193 194 194 194 196 196 196 197 197 197 194 194 194 197 197 197 195 195 195 198 198 198 200 200 200 199 199 199 198 198 198 201 201 201 200 200 200 202 202 202 203 203 203 204 204 204 202 202 202 204 204 204 205 205 205 198 198 198 199 199 199 203 203 203 198 198 198 203 203 203 202 202 202 199 199 199 200 200 200 204 204 204 199 199 199 204 204 204 203 203 203 200 200 200 201 201 201 205 205 205 200 200 200 205 205 205 204 204 204 201 201 201 198 198 198 202 202 202 201 201 201 202 202 202 205 205 205 206 206 206 208 208 208 207 207 207 206 206 206 209 209 209 208 208 208 210 210 210 211 211 211 212 212 212 210 210 210 212 212 212 213 213 213 206 206 206 207 207 207 211 211 211 206 206 206 211 211 211 210 210 210 207 207 207 208 208 208 212 212 212 207 207 207 212 212 212 211 211 211 208 208 208 209 209 209 213 213 213 208 208 208 213 213 213 212 212 212 209 209 209 206 206 206 210 210 210 209 209 209 210 210 210 213 213 213 214 214 214 216 216 216 215 215 215 214 214 214 217 217 217 216 216 216 218 218 218 219 219 219 220 220 220 218 218 218 220 220 220 221 221 221 214 214 214 215 215 215 219 219 219 214 214 214 219 219 219 218 218 218 215 215 215 216 216 216 220 220 220 215 215 215 220 220 220 219 219 219 216 216 216 217 217 217 221 221 221 216 216 216 221 221 221 220 220 220 217 217 217 214 214 214 218 218 218 217 217 217 218 218 218 221 221 221 222 222 222 224 224 224 223 223 223 222 222 222 225 225 225 224 224 224 226 226 226 227 227 227 228 228 228 226 226 226 228 228 228 229 229 229 222 222 222 223 223 223 227 227 227 222 222 222 227 227 227 226 226 226 223 223 223 224 224 224 228 228 228 223 223 223 228 228 228 227 227 227 224 224 224 225 225 225 229 229 229 224 224 224 229 229 229 228 228 228 225 225 225 222 222 222 226 226 226 225 225 225 226 226 226 229 229 229 366 366 366 368 368 368 369 369 369 366 366 366 369 369 369 367 367 367 368 368 368 370 370 370 371 371 371 368 368 368 371 371 371 369 369 369 370 370 370 372 372 372 373 373 373 370 370 370 373 373 373 371 371 371 372 372 372 374 374 374 375 375 375 372 372 372 375 375 375 373 373 373 374 374 374 376 376 376 377 377 377 374 374 374 377 377 377 375 375 375 376 376 376 378 378 378 379 379 379 376 376 376 379 379 379 377 377 377 378 378 378 380 380 380 381 381 381 378 378 378 381 381 381 379 379 379 380 380 380 382 382 382 383 383 383 380 380 380 383 383 383 381 381 381 382 382 382 384 384 384 385 385 385 382 382 382 385 385 385 383 383 383 384 384 384 386 386 386 387 387 387 384 384 384 387 387 387 385 385 385 386 386 386 388 388 388 389 389 389 386 386 386 389 389 389 387 387 387 388 388 388 390 390 390 391 391 391 388 388 388 391 391 391 389 389 389 390 390 390 392 392 392 393 393 393 390 390 390 393 393 393 391 391 391 392 392 392 394 394 394 395 395 395 392 392 392 395 395 395 393 393 393 394 394 394 396 396 396 397 397 397 394 394 394 397 397 397 395 395 395 396 396 396 398 398 398 399 399 399 396 396 396 399 399 399 397 397 397 398 398 398 400 400 400 401 401 401 398 398 398 401 401 401 399 399 399 400 400 400 402 402 402 403 403 403 400 400 400 403 403 403 401 401 401 402 402 402 404 404 404 405 405 405 402 402 402 405 405 405 403 403 403 404 404 404 406 406 406 407 407 407 404 404 404 407 407 407 405 405 405 406 406 406 408 408 408 409 409 409 406 406 406 409 409 409 407 407 407 408 408 408 410 410 410 411 411 411 408 408 408 411 411 411 409 409 409 410 410 410 412 412 412 413 413 413 410 410 410 413 413 413 411 411 411 412 412 412 414 414 414 415 415 415 412 412 412 415 415 415 413 413 413 414 414 414 416 416 416 417 417 417 414 414 414 417 417 417 415 415 415 416 416 416 418 418 418 419 419 419 416 416 416 419 419 419 417 417 417 418 418 418 420 420 420 421 421 421 418 418 418 421 421 421 419 419 419 420 420 420 422 422 422 423 423 423 420 420 420 423 423 423 421 421 421 422 422 422 424 424 424 425 425 425 422 422 422 425 425 425 423 423 423 424 424 424 426 426 426 427 427 427 424 424 424 427 427 427 425 425 425 426 426 426 428 428 428 429 429 429 426 426 426 429 429 429 427 427 427 428 428 428 430 430 430 431 431 431 428 428 428 431 431 431 429 429 429 430 430 430 432 432 432 433 433 433 430 430 430 433 433 433 431 431 431 432 432 432 434 434 434 435 435 435 432 432 432 435 435 435 433 433 433 434 434 434 436 436 436 437 437 437 434 434 434 437 437 437 435 435 435 436 436 436 438 438 438 439 439 439 436 436 436 439 439 439 437 437 437 438 438 438 440 440 440 441 441 441 438 438 438 441 441 441 439 439 439 440 440 440 442 442 442 443 443 443 440 440 440 443 443 443 441 441 441 442 442 442 444 444 444 445 445 445 442 442 442 445 445 445 443 443 443 444 444 444 446 446 446 447 447 447 444 444 444 447 447 447 445 445 445 446 446 446 448 448 448 449 449 449 446 446 446 449 449 449 447 447 447 448 448 448 450 450 450 451 451 451 448 448 448 451 451 451 449 449 449 450 450 450 452 452 452 453 453 453 450 450 450 453 453 453 451 451 451 452 452 452 454 454 454 455 455 455 452 452 452 455 455 455 453 453 453 454 454 454 456 456 456 457 457 457 454 454 454 457 457 457 455 455 455 456 456 456 458 458 458 459 459 459 456 456 456 459 459 459 457 457 457 458 458 458 460 460 460 461 461 461 458 458 458 461 461 461 459 459 459 460 460 460 462 462 462 463 463 463 460 460 460 463 463 463 461 461 461 462 462 462 464 464 464 465 465 465 462 462 462 465 465 465 463 463 463 464 464 464 466 466 466 467 467 467 464 464 464 467 467 467 465 465 465 466 466 466 468 468 468 469 469 469 466 466 466 469 469 469 467 467 467 468 468 468 470 470 470 471 471 471 468 468 468 471 471 471 469 469 469 470 470 470 472 472 472 473 473 473 470 470 470 473 473 473 471 471 471 472 472 472 474 474 474 475 475 475 472 472 472 475 475 475 473 473 473 474 474 474 476 476 476 477 477 477 474 474 474 477 477 477 475 475 475 476 476 476 478 478 478 479 479 479 476 476 476 479 479 479 477 477 477 478 478 478 480 480 480 481 481 481 478 478 478 481 481 481 479 479 479 480 480 480 482 482 482 483 483 483 480 480 480 483 483 483 481 481 481 482 482 482 484 484 484 485 485 485 482 482 482 485 485 485 483 483 483 484 484 484 486 486 486 487 487 487 484 484 484 487 487 487 485 485 485 486 486 486 488 488 488 489 489 489 486 486 486 489 489 489 487 487 487 488 488 488 490 490 490 491 491 491 488 488 488 491 491 491 489 489 489 490 490 490 492 492 492 493 493 493 490 490 490 493 493 493 491 491 491 492 492 492 494 494 494 495 495 495 492 492 492 495 495 495 493 493 493 494 494 494 496 496 496 497 497 497 494 494 494 497 497 497 495 495 495 496 496 496 498 498 498 499 499 499 496 496 496 499 499 499 497 497 497 498 498 498 500 500 500 501 501 501 498 498 498 501 501 501 499 499 499 500 500 500 502 502 502 503 503 503 500 500 500 503 503 503 501 501 501 502 502 502 504 504 504 505 505 505 502 502 502 505 505 505 503 503 503 504 504 504 506 506 506 507 507 507 504 504 504 507 507 507 505 505 505 506 506 506 508 508 508 509 509 509 506 506 506 509 509 509 507 507 507 508 508 508 510 510 510 511 511 511 508 508 508 511 511 511 509 509 509 510 510 510 512 512 512 513 513 513 510 510 510 513 513 513 511 511 511 512 512 512 514 514 514 515 515 515 512 512 512 515 515 515 513 513 513 514 514 514 516 516 516 517 517 517 514 514 514 517 517 517 515 515 515 516 516 516 518 518 518 519 519 519 516 516 516 519 519 519 517 517 517 518 518 518 520 520 520 521 521 521 518 518 518 521 521 521 519 519 519 520 520 520 522 522 522 523 523 523 520 520 520 523 523 523 521 521 521 522 522 522 524 524 524 525 525 525 522 522 522 525 525 525 523 523 523 524 524 524 526 526 526 527 527 527 524 524 524 527 527 527 525 525 525 526 526 526 528 528 528 529 529 529 526 526 526 529 529 529 527 527 527 528 528 528 530 530 530 531 531 531 528 528 528 531 531 531 529 529 529 532 532 532 534 534 534 533 533 533 532 532 532 535 535 535 534 534 534 536 536 536 537 537 537 538 538 538 536 536 536 538 538 538 539 539 539 532 532 532 533 533 533 537 537 537 532 532 532 537 537 537 536 536 536 533 533 533 534 534 534 538 538 538 533 533 533 538 538 538 537 537 537 534 534 534 535 535 535 539 539 539 534 534 534 539 539 539 538 538 538 535 535 535 532 532 532 536 536 536 535 535 535 536 536 536 539 539 539 540 540 540 542 542 542 541 541 541 540 540 540 543 543 543 542 542 542 544 544 544 545 545 545 546 546 546 544 544 544 546 546 546 547 547 547 540 540 540 541 541 541 545 545 545 540 540 540 545 545 545 544 544 544 541 541 541 542 542 542 546 546 546 541 541 541 546 546 546 545 545 545 542 542 542 543 543 543 547 547 547 542 542 542 547 547 547 546 546 546 543 543 543 540 540 540 544 544 544 543 543 543 544 544 544 547 547 547 548 548 548 550 550 550 549 549 549 548 548 548 551 551 551 550 550 550 552 552 552 553 553 553 554 554 554 552 552 552 554 554 554 555 555 555 548 548 548 549 549 549 553 553 553 548 548 548 553 553 553 552 552 552 549 549 549 550 550 550 554 554 554 549 549 549 554 554 554 553 553 553 550 550 550 551 551 551 555 555 555 550 550 550 555 555 555 554 554 554 551 551 551 548 548 548 552 552 552 551 551 551 552 552 552 555 555 555 556 556 556 558 558 558 557 557 557 556 556 556 559 559 559 558 558 558 560 560 560 561 561 561 562 562 562 560 560 560 562 562 562 563 563 563 556 556 556 557 557 557 561 561 561 556 556 556 561 561 561 560 560 560 557 557 557 558 558 558 562 562 562 557 557 557 562 562 562 561 561 561 558 558 558 559 559 559 563 563 563 558 558 558 563 563 563 562 562 562 559 559 559 556 556 556 560 560 560 559 559 559 560 560 560 563 563 563</p></triangles><triangles count="72" material="wood"><input semantic="VERTEX" source="#vertices" offset="0" /><input semantic="NORMAL" source="#normal" offset="1" /><input semantic="TEXCOORD" source="#uv" offset="2" set="0" /><p>230 230 230 232 232 232 231 231 231 230 230 230 233 233 233 232 232 232 234 234 234 235 235 235 236 236 236 234 234 234 236 236 236 237 237 237 230 230 230 231 231 231 235 235 235 230 230 230 235 235 235 234 234 234 231 231 231 232 232 232 236 236 236 231 231 231 236 236 236 235 235 235 232 232 232 233 233 233 237 237 237 232 232 232 237 237 237 236 236 236 233 233 233 230 230 230 234 234 234 233 233 233 234 234 234 237 237 237 254 254 254 256 256 256 255 255 255 254 254 254 257 257 257 256 256 256 258 258 258 259 259 259 260 260 260 258 258 258 260 260 260 261 261 261 254 254 254 255 255 255 259 259 259 254 254 254 259 259 259 258 258 258 255 255 255 256 256 256 260 260 260 255 255 255 260 260 260 259 259 259 256 256 256 257 257 257 261 261 261 256 256 256 261 261 261 260 260 260 257 257 257 254 254 254 258 258 258 257 257 257 258 258 258 261 261 261 286 286 286 288 288 288 287 287 287 286 286 286 289 289 289 288 288 288 290 290 290 291 291 291 292 292 292 290 290 290 292 292 292 293 293 293 286 286 286 287 287 287 291 291 291 286 286 286 291 291 291 290 290 290 287 287 287 288 288 288 292 292 292 287 287 287 292 292 292 291 291 291 288 288 288 289 289 289 293 293 293 288 288 288 293 293 293 292 292 292 289 289 289 286 286 286 290 290 290 289 289 289 290 290 290 293 293 293 310 310 310 312 312 312 311 311 311 310 310 310 313 313 313 312 312 312 314 314 314 315 315 315 316 316 316 314 314 314 316 316 316 317 317 317 310 310 310 311 311 311 315 315 315 310 310 310 315 315 315 314 314 314 311 311 311 312 312 312 316 316 316 311 311 311 316 316 316 315 315 315 312 312 312 313 313 313 317 317 317 312 312 312 317 317 317 316 316 316 313 313 313 310 310 310 314 314 314 313 313 313 314 314 314 317 317 317 564 564 564 566 566 566 565 565 565 564 564 564 567 567 567 566 566 566 568 568 568 569 569 569 570 570 570 568 568 568 570 570 570 571 571 571 564 564 564 565 565 565 569 569 569 564 564 564 569 569 569 568 568 568 565 565 565 566 566 566 570 570 570 565 565 565 570 570 570 569 569 569 566 566 566 567 567 567 571 571 571 566 566 566 571 571 571 570 570 570 567 567 567 564 564 564 568 568 568 567 567 567 568 568 568 571 571 571 588 588 588 590 590 590 589 589 589 588 588 588 591 591 591 590 590 590 592 592 592 593 593 593 594 594 594 592 592 592 594 594 594 595 595 595 588 588 588 589 589 589 593 593 593 588 588 588 593 593 593 592 592 592 589 589 589 590 590 590 594 594 594 589 589 589 594 594 594 593 593 593 590 590 590 591 591 591 595 595 595 590 590 590 595 595 595 594 594 594 591 591 591 588 588 588 592 592 592 591 591 591 592 592 592 595 595 595</p></triangles><triangles count="144" material="roof"><input semantic="VERTEX" source="#vertices" offset="0" /><input semantic="NORMAL" source="#normal" offset="1" /><input semantic="TEXCOORD" source="#uv" offset="2" set="0" /><p>238 238 238 240 240 240 239 239 239 238 238 238 241 241 241 240 240 240 242 242 242 243 243 243 244 244 244 242 242 242 244 244 244 245 245 245 238 238 238 239 239 239 243 243 243 238 238 238 243 243 243 242 242 242 239 239 239 240 240 240 244 244 244 239 239 239 244 244 244 243 243 243 240 240 240 241 241 241 245 245 245 240 240 240 245 245 245 244 244 244 241 241 241 238 238 238 242 242 242 241 241 241 242 242 242 245 245 245 246 246 246 248 248 248 247 247 247 246 246 246 249 249 249 248 248 248 250 250 250 251 251 251 252 252 252 250 250 250 252 252 252 253 253 253 246 246 246 247 247 247 251 251 251 246 246 246 251 251 251 250 250 250 247 247 247 248 248 248 252 252 252 247 247 247 252 252 252 251 251 251 248 248 248 249 249 249 253 253 253 248 248 248 253 253 253 252 252 252 249 249 249 246 246 246 250 250 250 249 249 249 250 250 250 253 253 253 262 262 262 264 264 264 263 263 263 262 262 262 265 265 265 264 264 264 266 266 266 267 267 267 268 268 268 266 266 266 268 268 268 269 269 269 262 262 262 263 263 263 267 267 267 262 262 262 267 267 267 266 266 266 263 263 263 264 264 264 268 268 268 263 263 263 268 268 268 267 267 267 264 264 264 265 265 265 269 269 269 264 264 264 269 269 269 268 268 268 265 265 265 262 262 262 266 266 266 265 265 265 266 266 266 269 269 269 270 270 270 272 272 272 271 271 271 270 270 270 273 273 273 272 272 272 274 274 274 275 275 275 276 276 276 274 274 274 276 276 276 277 277 277 270 270 270 271 271 271 275 275 275 270 270 270 275 275 275 274 274 274 271 271 271 272 272 272 276 276 276 271 271 271 276 276 276 275 275 275 272 272 272 273 273 273 277 277 277 272 272 272 277 277 277 276 276 276 273 273 273 270 270 270 274 274 274 273 273 273 274 274 274 277 277 277 294 294 294 296 296 296 295 295 295 294 294 294 297 297 297 296 296 296 298 298 298 299 299 299 300 300 300 298 298 298 300 300 300 301 301 301 294 294 294 295 295 295 299 299 299 294 294 294 299 299 299 298 298 298 295 295 295 296 296 296 300 300 300 295 295 295 300 300 300 299 299 299 296 296 296 297 297 297 301 301 301 296 296 296 301 301 301 300 300 300 297 297 297 294 294 294 298 298 298 297 297 297 298 298 298 301 301 301 302 302 302 304 304 304 303 303 303 302 302 302 305 305 305 304 304 304 306 306 306 307 307 307 308 308 308 306 306 306 308 308 308 309 309 309 302 302 302 303 303 303 307 307 307 302 302 302 307 307 307 306 306 306 303 303 303 304 304 304 308 308 308 303 303 303 308 308 308 307 307 307 304 304 304 305 305 305 309 309 309 304 304 304 309 309 309 308 308 308 305 305 305 302 302 302 306 306 306 305 305 305 306 306 306 309 309 309 318 318 318 320 320 320 319 319 319 318 318 318 321 321 321 320 320 320 322 322 322 323 323 323 324 324 324 322 322 322 324 324 324 325 325 325 318 318 318 319 319 319 323 323 323 318 318 318 323 323 323 322 322 322 319 319 319 320 320 320 324 324 324 319 319 319 324 324 324 323 323 323 320 320 320 321 321 321 325 325 325 320 320 320 325 325 325 324 324 324 321 321 321 318 318 318 322 322 322 321 321 321 322 322 322 325 325 325 326 326 326 328 328 328 327 327 327 326 326 326 329 329 329 328 328 328 330 330 330 331 331 331 332 332 332 330 330 330 332 332 332 333 333 333 326 326 326 327 327 327 331 331 331 326 326 326 331 331 331 330 330 330 327 327 327 328 328 328 332 332 332 327 327 327 332 332 332 331 331 331 328 328 328 329 329 329 333 333 333 328 328 328 333 333 333 332 332 332 329 329 329 326 326 326 330 330 330 329 329 329 330 330 330 333 333 333 572 572 572 574 574 574 573 573 573 572 572 572 575 575 575 574 574 574 576 576 576 577 577 577 578 578 578 576 576 576 578 578 578 579 579 579 572 572 572 573 573 573 577 577 577 572 572 572 577 577 577 576 576 576 573 573 573 574 574 574 578 578 578 573 573 573 578 578 578 577 577 577 574 574 574 575 575 575 579 579 579 574 574 574 579 579 579 578 578 578 575 575 575 572 572 572 576 576 576 575 575 575 576 576 576 579 579 579 580 580 580 582 582 582 581 581 581 580 580 580 583 583 583 582 582 582 584 584 584 585 585 585 586 586 586 584 584 584 586 586 586 587 587 587 580 580 580 581 581 581 585 585 585 580 580 580 585 585 585 584 584 584 581 581 581 582 582 582 586 586 586 581 581 581 586 586 586 585 585 585 582 582 582 583 583 583 587 587 587 582 582 582 587 587 587 586 586 586 583 583 583 580 580 580 584 584 584 583 583 583 584 584 584 587 587 587 596 596 596 598 598 598 597 597 597 596 596 596 599 599 599 598 598 598 600 600 600 601 601 601 602 602 602 600 600 600 602 602 602 603 603 603 596 596 596 597 597 597 601 601 601 596 596 596 601 601 601 600 600 600 597 597 597 598 598 598 602 602 602 597 597 597 602 602 602 601 601 601 598 598 598 599 599 599 603 603 603 598 598 598 603 603 603 602 602 602 599 599 599 596 596 596 600 600 600 599 599 599 600 600 600 603 603 603 604 604 604 606 606 606 605 605 605 604 604 604 607 607 607 606 606 606 608 608 608 609 609 609 610 610 610 608 608 608 610 610 610 611 611 611 604 604 604 605 605 605 609 609 609 604 604 604 609 609 609 608 608 608 605 605 605 606 606 606 610 610 610 605 605 605 610 610 610 609 609 609 606 606 606 607 607 607 611 611 611 606 606 606 611 611 611 610 610 610 607 607 607 604 604 604 608 608 608 607 607 607 608 608 608 611 611 611</p></triangles><triangles count="12" material="gravel"><input semantic="VERTEX" source="#vertices" offset="0" /><input semantic="NORMAL" source="#normal" offset="1" /><input semantic="TEXCOORD" source="#uv" offset="2" set="0" /><p>278 278 278 280 280 280 279 279 279 278 278 278 281 281 281 280 280 280 282 282 282 283 283 283 284 284 284 282 282 282 284 284 284 285 285 285 278 278 278 279 279 279 283 283 283 278 278 278 283 283 283 282 282 282 279 279 279 280 280 280 284 284 284 279 279 279 284 284 284 283 283 283 280 280 280 281 281 281 285 285 285 280 280 280 285 285 285 284 284 284 281 281 281 278 278 278 282 282 282 281 281 281 282 282 282 285 285 285</p></triangles></mesh></geometry></library_geometries><library_visual_scenes><visual_scene id="Scene"><node id="Node" name="clearings"><instance_geometry url="#mesh"><bind_material><technique_common><instance_material symbol="concrete" target="#concrete_material"><bind_vertex_input semantic="UVMap" input_semantic="TEXCOORD" input_set="0" /></instance_material><instance_material symbol="white" target="#white_material"><bind_vertex_input semantic="UVMap" input_semantic="TEXCOORD" input_set="0" /></instance_material><instance_material symbol="gold" target="#gold_material"><bind_vertex_input semantic="UVMap" input_semantic="TEXCOORD" input_set="0" /></instance_material><instance_material symbol="wood" target="#wood_material"><bind_vertex_input semantic="UVMap" input_semantic="TEXCOORD" input_set="0" /></instance_material><instance_material symbol="roof" target="#roof_material"><bind_vertex_input semantic="UVMap" input_semantic="TEXCOORD" input_set="0" /></instance_material><instance_material symbol="gravel" target="#gravel_material"><bind_vertex_input semantic="UVMap" input_semantic="TEXCOORD" input_set="0" /></instance_material></technique_common></bind_material></instance_geometry></node></visual_scene></library_visual_scenes><scene><instance_visual_scene url="#Scene" /></scene></COLLADA>