# Blender 4.5.13 LTS
# www.blender.org
mtllib villa_Roof.mtl
o Roof_Slab
v -18.770233 -6.298148 0.000000
v -17.650734 -6.298148 0.000000
v -17.650734 -5.735185 0.000000
v -18.770233 -5.735185 0.000000
v -18.770233 -6.298148 0.200000
v -17.650734 -6.298148 0.200000
v -17.650734 -5.735185 0.200000
v -18.770233 -5.735185 0.200000
v -17.650734 7.318519 0.000000
v -18.770233 7.318519 0.000000
v -17.650734 7.318519 0.200000
v -18.770233 7.318519 0.200000
v -17.650734 -9.570371 0.000000
v -0.858281 -9.570371 0.000000
v -0.858281 -9.042593 0.000000
v -17.650734 -9.042593 0.000000
v -17.650734 -9.570371 0.200000
v -0.858281 -9.570371 0.200000
v -0.858281 -9.042593 0.200000
v -17.650734 -9.042593 0.200000
v -0.858281 -6.298148 0.000000
v -0.858281 -6.298148 0.200000
v -0.858281 -5.735185 0.000000
v -0.858281 -5.735185 0.200000
v -0.858281 7.318519 0.000000
v -0.858281 7.318519 0.200000
v 5.373585 -9.042593 0.000000
v 5.373585 -6.298148 0.000000
v 5.373585 -9.042593 0.200000
v 5.373585 -6.298148 0.200000
v 5.373585 -5.735185 0.000000
v 5.373585 -5.735185 0.200000
v 5.373585 7.318519 0.000000
v 5.373585 7.318519 0.200000
v 5.373585 -9.570371 0.000000
v 16.680504 -9.570371 0.000000
v 16.680504 -9.042593 0.000000
v 5.373585 -9.570371 0.200000
v 16.680504 -9.570371 0.200000
v 16.680504 -9.042593 0.200000
v 16.680504 -6.298148 0.000000
v 16.680504 -6.298148 0.200000
v 16.680504 -5.735185 0.000000
v 16.680504 -5.735185 0.200000
v 16.680504 7.318519 0.000000
v 16.680504 7.318519 0.200000
v 17.650734 -6.298148 0.000000
v 17.650734 -5.735185 0.000000
v 17.650734 -6.298148 0.200000
v 17.650734 -5.735185 0.200000
v 17.650734 7.318519 0.000000
v 17.650734 7.318519 0.200000
vn -0.0000 -0.0000 -1.0000
vn -0.0000 -0.0000 1.0000
vn -0.0000 -1.0000 -0.0000
vn -1.0000 -0.0000 -0.0000
vn -0.0000 1.0000 -0.0000
vn 1.0000 -0.0000 -0.0000
s 0
usemtl Placeholder_Roof_Concrete
f 4//1 3//1 2//1 1//1
f 5//2 6//2 7//2 8//2
f 1//3 2//3 6//3 5//3
f 4//4 1//4 5//4 8//4
f 10//1 9//1 3//1 4//1
f 8//2 7//2 11//2 12//2
f 9//5 10//5 12//5 11//5
f 10//4 4//4 8//4 12//4
f 16//1 15//1 14//1 13//1
f 17//2 18//2 19//2 20//2
f 13//3 14//3 18//3 17//3
f 14//6 15//6 19//6 18//6
f 16//4 13//4 17//4 20//4
f 2//1 21//1 15//1 16//1
f 20//2 19//2 22//2 6//2
f 2//4 16//4 20//4 6//4
f 3//1 23//1 21//1 2//1
f 6//2 22//2 24//2 7//2
f 9//1 25//1 23//1 3//1
f 7//2 24//2 26//2 11//2
f 25//5 9//5 11//5 26//5
f 21//1 28//1 27//1 15//1
f 19//2 29//2 30//2 22//2
f 15//3 27//3 29//3 19//3
f 23//1 31//1 28//1 21//1
f 22//2 30//2 32//2 24//2
f 25//1 33//1 31//1 23//1
f 24//2 32//2 34//2 26//2
f 33//5 25//5 26//5 34//5
f 27//1 37//1 36//1 35//1
f 38//2 39//2 40//2 29//2
f 35//3 36//3 39//3 38//3
f 36//6 37//6 40//6 39//6
f 27//4 35//4 38//4 29//4
f 28//1 41//1 37//1 27//1
f 29//2 40//2 42//2 30//2
f 37//6 41//6 42//6 40//6
f 31//1 43//1 41//1 28//1
f 30//2 42//2 44//2 32//2
f 33//1 45//1 43//1 31//1
f 32//2 44//2 46//2 34//2
f 45//5 33//5 34//5 46//5
f 43//1 48//1 47//1 41//1
f 42//2 49//2 50//2 44//2
f 41//3 47//3 49//3 42//3
f 47//6 48//6 50//6 49//6
f 45//1 51//1 48//1 43//1
f 44//2 50//2 52//2 46//2
f 48//6 51//6 52//6 50//6
f 51//5 45//5 46//5 52//5
o Roof_Parapet
v -18.770233 -6.298148 0.200000
v -18.590233 -6.298148 0.200000
v -18.590233 -6.118148 0.200000
v -18.770233 -6.118148 0.200000
v -18.770233 -6.298148 0.500000
v -18.590233 -6.298148 0.500000
v -18.590233 -6.118148 0.500000
v -18.770233 -6.118148 0.500000
v -18.590233 -5.735185 0.200000
v -18.770233 -5.735185 0.200000
v -18.590233 -5.735185 0.500000
v -18.770233 -5.735185 0.500000
v -18.590233 7.138518 0.200000
v -18.770233 7.138518 0.200000
v -18.590233 7.138518 0.500000
v -18.770233 7.138518 0.500000
v -18.590233 7.318519 0.200000
v -18.770233 7.318519 0.200000
v -18.590233 7.318519 0.500000
v -18.770233 7.318519 0.500000
v -17.650734 -6.298148 0.200000
v -17.650734 -6.118148 0.200000
v -17.650734 -6.298148 0.500000
v -17.650734 -6.118148 0.500000
v -17.650734 7.138518 0.200000
v -17.650734 7.318519 0.200000
v -17.650734 7.138518 0.500000
v -17.650734 7.318519 0.500000
v -17.650734 -9.570371 0.200000
v -17.470734 -9.570371 0.200000
v -17.470734 -9.390370 0.200000
v -17.650734 -9.390370 0.200000
v -17.650734 -9.570371 0.500000
v -17.470734 -9.570371 0.500000
v -17.470734 -9.390370 0.500000
v -17.650734 -9.390370 0.500000
v -17.470734 -9.042593 0.200000
v -17.650734 -9.042593 0.200000
v -17.470734 -9.042593 0.500000
v -17.650734 -9.042593 0.500000
v -17.470734 -8.862593 0.200000
v -17.650734 -8.862593 0.200000
v -17.470734 -8.862593 0.500000
v -17.650734 -8.862593 0.500000
v -17.470734 -6.298148 0.200000
v -17.470734 -6.298148 0.500000
v -17.470734 -6.118148 0.200000
v -17.470734 -6.118148 0.500000
v -17.470734 7.138518 0.200000
v -17.470734 7.318519 0.200000
v -17.470734 7.138518 0.500000
v -17.470734 7.318519 0.500000
v -1.038281 -9.570371 0.200000
v -1.038281 -9.390370 0.200000
v -1.038281 -9.570371 0.500000
v -1.038281 -9.390370 0.500000
v -1.038281 7.138518 0.200000
v -1.038281 7.318519 0.200000
v -1.038281 7.138518 0.500000
v -1.038281 7.318519 0.500000
v -0.858281 -9.570371 0.200000
v -0.858281 -9.390370 0.200000
v -0.858281 -9.570371 0.500000
v -0.858281 -9.390370 0.500000
v -0.858281 -9.042593 0.200000
v -1.038281 -9.042593 0.200000
v -0.858281 -9.042593 0.500000
v -1.038281 -9.042593 0.500000
v -0.858281 -8.862593 0.200000
v -1.038281 -8.862593 0.200000
v -0.858281 -8.862593 0.500000
v -1.038281 -8.862593 0.500000
v -0.858281 7.138518 0.200000
v -0.858281 7.318519 0.200000
v -0.858281 7.138518 0.500000
v -0.858281 7.318519 0.500000
v 5.373585 -9.042593 0.200000
v 5.373585 -8.862593 0.200000
v 5.373585 -9.042593 0.500000
v 5.373585 -8.862593 0.500000
v 5.373585 7.138518 0.200000
v 5.373585 7.318519 0.200000
v 5.373585 7.138518 0.500000
v 5.373585 7.318519 0.500000
v 5.373585 -9.570371 0.200000
v 5.553585 -9.570371 0.200000
v 5.553585 -9.390370 0.200000
v 5.373585 -9.390370 0.200000
v 5.373585 -9.570371 0.500000
v 5.553585 -9.570371 0.500000
v 5.553585 -9.390370 0.500000
v 5.373585 -9.390370 0.500000
v 5.553585 -9.042593 0.200000
v 5.553585 -9.042593 0.500000
v 5.553585 -8.862593 0.200000
v 5.553585 -8.862593 0.500000
v 5.553585 7.138518 0.200000
v 5.553585 7.318519 0.200000
v 5.553585 7.138518 0.500000
v 5.553585 7.318519 0.500000
v 16.500504 -9.570371 0.200000
v 16.500504 -9.390370 0.200000
v 16.500504 -9.570371 0.500000
v 16.500504 -9.390370 0.500000
v 16.500504 7.138518 0.200000
v 16.500504 7.318519 0.200000
v 16.500504 7.138518 0.500000
v 16.500504 7.318519 0.500000
v 16.680504 -9.570371 0.200000
v 16.680504 -9.390370 0.200000
v 16.680504 -9.570371 0.500000
v 16.680504 -9.390370 0.500000
v 16.680504 -9.042593 0.200000
v 16.500504 -9.042593 0.200000
v 16.680504 -9.042593 0.500000
v 16.500504 -9.042593 0.500000
v 16.680504 -8.862593 0.200000
v 16.500504 -8.862593 0.200000
v 16.680504 -8.862593 0.500000
v 16.500504 -8.862593 0.500000
v 16.680504 -6.298148 0.200000
v 16.500504 -6.298148 0.200000
v 16.680504 -6.298148 0.500000
v 16.500504 -6.298148 0.500000
v 16.680504 -6.118148 0.200000
v 16.500504 -6.118148 0.200000
v 16.680504 -6.118148 0.500000
v 16.500504 -6.118148 0.500000
v 16.680504 7.138518 0.200000
v 16.680504 7.318519 0.200000
v 16.680504 7.138518 0.500000
v 16.680504 7.318519 0.500000
v 17.470734 -6.298148 0.200000
v 17.470734 -6.118148 0.200000
v 17.470734 -6.298148 0.500000
v 17.470734 -6.118148 0.500000
v 17.470734 7.138518 0.200000
v 17.470734 7.318519 0.200000
v 17.470734 7.138518 0.500000
v 17.470734 7.318519 0.500000
v 17.650734 -6.298148 0.200000
v 17.650734 -6.118148 0.200000
v 17.650734 -6.298148 0.500000
v 17.650734 -6.118148 0.500000
v 17.650734 -5.735185 0.200000
v 17.470734 -5.735185 0.200000
v 17.650734 -5.735185 0.500000
v 17.470734 -5.735185 0.500000
v 17.650734 7.138518 0.200000
v 17.650734 7.138518 0.500000
v 17.650734 7.318519 0.200000
v 17.650734 7.318519 0.500000
vn -0.0000 -0.0000 -1.0000
vn -0.0000 -0.0000 1.0000
vn -0.0000 -1.0000 -0.0000
vn -1.0000 -0.0000 -0.0000
vn 1.0000 -0.0000 -0.0000
vn -0.0000 1.0000 -0.0000
s 0
usemtl Placeholder_Roof_Parapet
f 56//7 55//7 54//7 53//7
f 57//8 58//8 59//8 60//8
f 53//9 54//9 58//9 57//9
f 56//10 53//10 57//10 60//10
f 62//7 61//7 55//7 56//7
f 60//8 59//8 63//8 64//8
f 55//11 61//11 63//11 59//11
f 62//10 56//10 60//10 64//10
f 66//7 65//7 61//7 62//7
f 64//8 63//8 67//8 68//8
f 61//11 65//11 67//11 63//11
f 66//10 62//10 64//10 68//10
f 70//7 69//7 65//7 66//7
f 68//8 67//8 71//8 72//8
f 69//12 70//12 72//12 71//12
f 70//10 66//10 68//10 72//10
f 55//7 74//7 73//7 54//7
f 58//8 75//8 76//8 59//8
f 54//9 73//9 75//9 58//9
f 74//12 55//12 59//12 76//12
f 69//7 78//7 77//7 65//7
f 67//8 79//8 80//8 71//8
f 65//9 77//9 79//9 67//9
f 78//12 69//12 71//12 80//12
f 84//7 83//7 82//7 81//7
f 85//8 86//8 87//8 88//8
f 81//9 82//9 86//9 85//9
f 84//10 81//10 85//10 88//10
f 90//7 89//7 83//7 84//7
f 88//8 87//8 91//8 92//8
f 83//11 89//11 91//11 87//11
f 90//10 84//10 88//10 92//10
f 94//7 93//7 89//7 90//7
f 92//8 91//8 95//8 96//8
f 89//11 93//11 95//11 91//11
f 94//10 90//10 92//10 96//10
f 73//7 97//7 93//7 94//7
f 96//8 95//8 98//8 75//8
f 93//11 97//11 98//11 95//11
f 73//10 94//10 96//10 75//10
f 74//7 99//7 97//7 73//7
f 75//8 98//8 100//8 76//8
f 97//11 99//11 100//11 98//11
f 99//12 74//12 76//12 100//12
f 78//7 102//7 101//7 77//7
f 79//8 103//8 104//8 80//8
f 77//9 101//9 103//9 79//9
f 102//12 78//12 80//12 104//12
f 83//7 106//7 105//7 82//7
f 86//8 107//8 108//8 87//8
f 82//9 105//9 107//9 86//9
f 106//12 83//12 87//12 108//12
f 102//7 110//7 109//7 101//7
f 103//8 111//8 112//8 104//8
f 101//9 109//9 111//9 103//9
f 110//12 102//12 104//12 112//12
f 106//7 114//7 113//7 105//7
f 107//8 115//8 116//8 108//8
f 105//9 113//9 115//9 107//9
f 113//11 114//11 116//11 115//11
f 118//7 117//7 114//7 106//7
f 108//8 116//8 119//8 120//8
f 114//11 117//11 119//11 116//11
f 118//10 106//10 108//10 120//10
f 122//7 121//7 117//7 118//7
f 120//8 119//8 123//8 124//8
f 121//12 122//12 124//12 123//12
f 122//10 118//10 120//10 124//10
f 110//7 126//7 125//7 109//7
f 111//8 127//8 128//8 112//8
f 109//9 125//9 127//9 111//9
f 126//12 110//12 112//12 128//12
f 121//7 130//7 129//7 117//7
f 119//8 131//8 132//8 123//8
f 117//9 129//9 131//9 119//9
f 130//12 121//12 123//12 132//12
f 126//7 134//7 133//7 125//7
f 127//8 135//8 136//8 128//8
f 125//9 133//9 135//9 127//9
f 134//12 126//12 128//12 136//12
f 140//7 139//7 138//7 137//7
f 141//8 142//8 143//8 144//8
f 137//9 138//9 142//9 141//9
f 140//10 137//10 141//10 144//10
f 129//7 145//7 139//7 140//7
f 144//8 143//8 146//8 131//8
f 139//11 145//11 146//11 143//11
f 129//10 140//10 144//10 131//10
f 130//7 147//7 145//7 129//7
f 131//8 146//8 148//8 132//8
f 145//11 147//11 148//11 146//11
f 147//12 130//12 132//12 148//12
f 134//7 150//7 149//7 133//7
f 135//8 151//8 152//8 136//8
f 133//9 149//9 151//9 135//9
f 150//12 134//12 136//12 152//12
f 139//7 154//7 153//7 138//7
f 142//8 155//8 156//8 143//8
f 138//9 153//9 155//9 142//9
f 154//12 139//12 143//12 156//12
f 150//7 158//7 157//7 149//7
f 151//8 159//8 160//8 152//8
f 149//9 157//9 159//9 151//9
f 158//12 150//12 152//12 160//12
f 154//7 162//7 161//7 153//7
f 155//8 163//8 164//8 156//8
f 153//9 161//9 163//9 155//9
f 161//11 162//11 164//11 163//11
f 166//7 165//7 162//7 154//7
f 156//8 164//8 167//8 168//8
f 162//11 165//11 167//11 164//11
f 166//10 154//10 156//10 168//10
f 170//7 169//7 165//7 166//7
f 168//8 167//8 171//8 172//8
f 165//11 169//11 171//11 167//11
f 170//10 166//10 168//10 172//10
f 174//7 173//7 169//7 170//7
f 172//8 171//8 175//8 176//8
f 169//11 173//11 175//11 171//11
f 174//10 170//10 172//10 176//10
f 178//7 177//7 173//7 174//7
f 176//8 175//8 179//8 180//8
f 177//12 178//12 180//12 179//12
f 178//10 174//10 176//10 180//10
f 158//7 182//7 181//7 157//7
f 159//8 183//8 184//8 160//8
f 157//9 181//9 183//9 159//9
f 182//12 158//12 160//12 184//12
f 177//7 186//7 185//7 173//7
f 175//8 187//8 188//8 179//8
f 173//9 185//9 187//9 175//9
f 186//12 177//12 179//12 188//12
f 182//7 190//7 189//7 181//7
f 183//8 191//8 192//8 184//8
f 181//9 189//9 191//9 183//9
f 190//12 182//12 184//12 192//12
f 186//7 194//7 193//7 185//7
f 187//8 195//8 196//8 188//8
f 185//9 193//9 195//9 187//9
f 193//11 194//11 196//11 195//11
f 198//7 197//7 194//7 186//7
f 188//8 196//8 199//8 200//8
f 194//11 197//11 199//11 196//11
f 198//10 186//10 188//10 200//10
f 189//7 201//7 197//7 198//7
f 200//8 199//8 202//8 191//8
f 197//11 201//11 202//11 199//11
f 189//10 198//10 200//10 191//10
f 190//7 203//7 201//7 189//7
f 191//8 202//8 204//8 192//8
f 201//11 203//11 204//11 202//11
f 203//12 190//12 192//12 204//12
