<?xml version="1.0" encoding="UTF-8"?>
<COLLADA xmlns="http://www.collada.org/2005/11/COLLADASchema" version="1.4.1">
<asset><contributor><authoring_tool>Summit Estate procedural mesh exporter</authoring_tool></contributor><created>2026-09-11T00:00:00Z</created><modified>2026-09-11T00:00:00Z</modified><unit name="meter" meter="1"/><up_axis>Z_UP</up_axis></asset>
<library_geometries><geometry id="geometry" name="geometry"><mesh>
<source id="positions"><float_array id="positions-array" count="483">-190.00000 135.00000 49.00000 -25.68298 135.00000 49.00000 -23.64979 139.95145 49.00000 -21.66642 145.03647 49.00000 -19.85750 150.25583 49.00000 -18.35954 155.59483 49.00000 -17.31017 161.02284 49.00000 -16.83722 166.49447 49.00000 -17.04845 171.95256 49.00000 -18.02298 177.33236 49.00000 -19.80501 182.56685 49.00000 -22.40052 187.59241 49.00000 -25.77708 192.35439 49.00000 -29.86683 196.81207 49.00000 -34.57223 200.94222 49.00000 -39.77419 204.74129 49.00000 -45.34160 208.22549 49.00000 -51.14160 211.42919 49.00000 -57.04947 214.40133 49.00000 -62.95744 217.20045 49.00000 -68.78160 219.88874 49.00000 -74.46632 222.52552 49.00000 -79.98591 225.16104 49.00000 -85.34356 227.83102 49.00000 -90.56759 230.55258 49.00000 -95.70570 233.32195 49.00000 -100.81769 236.11421 49.00000 -105.96756 238.88521 49.00000 -111.21567 241.57541 49.00000 -116.61188 244.11538 49.00000 -122.19023 246.43240 49.00000 -127.96568 248.45765 49.00000 -133.93316 250.13320 49.00000 -140.06897 251.41812 49.00000 -146.33426 252.29322 49.00000 -152.68018 252.76381 49.00000 -159.05410 252.86028 49.00000 -165.40608 252.63629 49.00000 -171.69507 252.16480 49.00000 -177.89390 251.53224 49.00000 -183.99265 250.83121 49.00000 -190.00000 250.15256 49.00000 -195.94232 249.57738 49.00000 -201.86066 249.16971 49.00000 -207.80589 248.97062 49.00000 -213.83248 248.99419 49.00000 -219.99161 249.22576 49.00000 -226.32437 249.62263 49.00000 -232.85564 250.11715 49.00000 -239.58954 250.62190 49.00000 -246.50676 251.03657 49.00000 -253.56425 251.25581 49.00000 -260.69729 251.17749 49.00000 -267.82387 250.71056 49.00000 -274.85082 249.78186 49.00000 -281.68143 248.34128 49.00000 -288.22341 246.36495 49.00000 -294.39686 243.85602 49.00000 -300.14102 240.84335 49.00000 -305.41947 237.37790 49.00000 -310.22294 233.52761 49.00000 -314.56969 229.37098 49.00000 -318.50303 224.99014 49.00000 -322.08656 220.46408 49.00000 -325.39720 215.86253 49.00000 -328.51691 211.24123 49.00000 -331.52377 206.63876 49.00000 -334.48327 202.07535 49.00000 -337.44079 197.55365 49.00000 -340.41583 193.06113 49.00000 -343.39878 188.57410 49.00000 -346.35056 184.06252 49.00000 -349.20506 179.49534 49.00000 -351.87446 174.84561 49.00000 -354.25678 170.09485 49.00000 -356.24512 165.23630 49.00000 -357.73765 160.27659 49.00000 -358.64750 155.23571 49.00000 -358.91161 150.14546 49.00000 -358.49764 145.04625 49.00000 -357.40836 139.98295 49.00000 -355.68298 135.00000 49.00000 -353.39538 130.13650 49.00000 -350.64914 125.42170 49.00000 -347.57009 120.87148 49.00000 -344.29669 116.48622 49.00000 -340.96931 112.25026 49.00000 -337.71929 108.13313 49.00000 -334.65868 104.09245 49.00000 -331.87163 100.07812 49.00000 -329.40815 96.03759 49.00000 -327.28077 91.92155 49.00000 -325.46433 87.68946 49.00000 -323.89898 83.31444 49.00000 -322.49591 78.78691 49.00000 -321.14544 74.11664 49.00000 -319.72658 69.33293 49.00000 -318.11721 64.48288 49.00000 -316.20405 59.62784 49.00000 -313.89141 54.83844 49.00000 -311.10803 50.18855 49.00000 -307.81156 45.74882 49.00000 -303.99016 41.58041 49.00000 -299.66142 37.72953 49.00000 -294.86860 34.22335 49.00000 -289.67483 31.06770 49.00000 -284.15587 28.24680 49.00000 -278.39209 25.72517 49.00000 -272.46068 23.45141 49.00000 -266.42874 21.36375 49.00000 -260.34794 19.39660 49.00000 -254.25121 17.48777 49.00000 -248.15179 15.58536 49.00000 -242.04458 13.65399 49.00000 -235.90961 11.67941 49.00000 -229.71715 9.67133 49.00000 -223.43390 7.66396 49.00000 -217.02945 5.71420 49.00000 -210.48241 3.89769 49.00000 -203.78540 2.30291 49.00000 -196.94839 1.02395 49.00000 -190.00000 0.15256 49.00000 -182.98658 -0.22988 49.00000 -175.96916 -0.05962 49.00000 -169.01855 0.70351 49.00000 -162.20910 2.07211 49.00000 -155.61180 4.02944 49.00000 -149.28740 6.53015 49.00000 -143.28029 9.50334 49.00000 -137.61393 12.85777 49.00000 -132.28813 16.48874 49.00000 -127.27872 20.28593 49.00000 -122.53958 24.14170 49.00000 -118.00700 27.95893 49.00000 -113.60581 31.65785 49.00000 -109.25690 35.18124 49.00000 -104.88524 38.49754 49.00000 -100.42773 41.60178 49.00000 -95.84002 44.51412 49.00000 -91.10161 47.27641 49.00000 -86.21870 49.94699 49.00000 -81.22445 52.59428 49.00000 -76.17661 55.28995 49.00000 -71.15259 58.10206 49.00000 -66.24261 61.08905 49.00000 -61.54130 64.29492 49.00000 -57.13879 67.74620 49.00000 -53.11202 71.45071 49.00000 -49.51711 75.39833 49.00000 -46.38367 79.56351 49.00000 -43.71154 83.90916 49.00000 -41.47032 88.39166 49.00000 -39.60192 92.96608 49.00000 -38.02581 97.59136 49.00000 -36.64655 102.23474 49.00000 -35.36304 106.87496 49.00000 -34.07851 111.50400 49.00000 -32.71035 116.12710 49.00000 -31.19902 120.76111 49.00000 -29.51492 125.43148 49.00000 -27.66278 130.16799 49.00000</float_array><technique_common><accessor source="#positions-array" count="161" stride="3"><param name="X" type="float"/><param name="Y" type="float"/><param name="Z" type="float"/></accessor></technique_common></source>
<source id="normals"><float_array id="normals-array" count="480">0.00000 0.00000 1.00000 0.00000 0.00000 1.00000 0.00000 0.00000 1.00000 0.00000 0.00000 1.00000 0.00000 0.00000 1.00000 0.00000 0.00000 1.00000 0.00000 0.00000 1.00000 0.00000 0.00000 1.00000 0.00000 0.00000 1.00000 0.00000 0.00000 1.00000 0.00000 0.00000 1.00000 0.00000 0.00000 1.00000 0.00000 0.00000 1.00000 0.00000 0.00000 1.00000 0.00000 0.00000 1.00000 0.00000 0.00000 1.00000 0.00000 0.00000 1.00000 0.00000 0.00000 1.00000 0.00000 0.00000 1.00000 0.00000 0.00000 1.00000 0.00000 0.00000 1.00000 0.00000 0.00000 1.00000 0.00000 0.00000 1.00000 0.00000 0.00000 1.00000 0.00000 0.00000 1.00000 0.00000 0.00000 1.00000 0.00000 0.00000 1.00000 0.00000 0.00000 1.00000 0.00000 0.00000 1.00000 0.00000 0.00000 1.00000 0.00000 0.00000 1.00000 0.00000 0.00000 1.00000 0.00000 0.00000 1.00000 0.00000 0.00000 1.00000 0.00000 0.00000 1.00000 0.00000 0.00000 1.00000 0.00000 0.00000 1.00000 0.00000 0.00000 1.00000 0.00000 0.00000 1.00000 0.00000 0.00000 1.00000 0.00000 -0.00000 1.00000 0.00000 0.00000 1.00000 0.00000 0.00000 1.00000 0.00000 0.00000 1.00000 0.00000 0.00000 1.00000 0.00000 0.00000 1.00000 0.00000 0.00000 1.00000 0.00000 0.00000 1.00000 0.00000 0.00000 1.00000 0.00000 0.00000 1.00000 0.00000 0.00000 1.00000 0.00000 0.00000 1.00000 0.00000 0.00000 1.00000 0.00000 0.00000 1.00000 0.00000 0.00000 1.00000 0.00000 0.00000 1.00000 0.00000 0.00000 1.00000 0.00000 0.00000 1.00000 0.00000 0.00000 1.00000 0.00000 0.00000 1.00000 0.00000 0.00000 1.00000 0.00000 0.00000 1.00000 0.00000 0.00000 1.00000 0.00000 0.00000 1.00000 0.00000 0.00000 1.00000 0.00000 0.00000 1.00000 0.00000 0.00000 1.00000 0.00000 0.00000 1.00000 0.00000 0.00000 1.00000 0.00000 0.00000 1.00000 0.00000 0.00000 1.00000 0.00000 0.00000 1.00000 0.00000 0.00000 1.00000 0.00000 0.00000 1.00000 0.00000 0.00000 1.00000 0.00000 0.00000 1.00000 0.00000 0.00000 1.00000 0.00000 0.00000 1.00000 0.00000 0.00000 1.00000 0.00000 0.00000 1.00000 0.00000 0.00000 1.00000 0.00000 0.00000 1.00000 0.00000 0.00000 1.00000 0.00000 0.00000 1.00000 0.00000 0.00000 1.00000 0.00000 0.00000 1.00000 0.00000 0.00000 1.00000 0.00000 0.00000 1.00000 0.00000 0.00000 1.00000 0.00000 0.00000 1.00000 0.00000 0.00000 1.00000 0.00000 0.00000 1.00000 0.00000 0.00000 1.00000 0.00000 0.00000 1.00000 0.00000 0.00000 1.00000 0.00000 0.00000 1.00000 0.00000 0.00000 1.00000 0.00000 0.00000 1.00000 0.00000 0.00000 1.00000 0.00000 0.00000 1.00000 0.00000 0.00000 1.00000 0.00000 0.00000 1.00000 0.00000 0.00000 1.00000 0.00000 0.00000 1.00000 0.00000 0.00000 1.00000 0.00000 0.00000 1.00000 0.00000 0.00000 1.00000 0.00000 0.00000 1.00000 0.00000 0.00000 1.00000 0.00000 0.00000 1.00000 0.00000 0.00000 1.00000 0.00000 0.00000 1.00000 0.00000 0.00000 1.00000 0.00000 0.00000 1.00000 0.00000 0.00000 1.00000 0.00000 0.00000 1.00000 0.00000 0.00000 1.00000 0.00000 0.00000 1.00000 0.00000 0.00000 1.00000 0.00000 0.00000 1.00000 0.00000 0.00000 1.00000 0.00000 0.00000 1.00000 0.00000 0.00000 1.00000 0.00000 0.00000 1.00000 0.00000 0.00000 1.00000 0.00000 0.00000 1.00000 0.00000 0.00000 1.00000 0.00000 0.00000 1.00000 0.00000 0.00000 1.00000 0.00000 0.00000 1.00000 0.00000 0.00000 1.00000 0.00000 0.00000 1.00000 0.00000 0.00000 1.00000 0.00000 0.00000 1.00000 0.00000 0.00000 1.00000 0.00000 0.00000 1.00000 0.00000 0.00000 1.00000 0.00000 0.00000 1.00000 0.00000 0.00000 1.00000 0.00000 0.00000 1.00000 0.00000 0.00000 1.00000 0.00000 0.00000 1.00000 0.00000 0.00000 1.00000 0.00000 0.00000 1.00000 0.00000 0.00000 1.00000 0.00000 0.00000 1.00000 0.00000 0.00000 1.00000 0.00000 0.00000 1.00000 0.00000 0.00000 1.00000 0.00000 0.00000 1.00000 0.00000 0.00000 1.00000 0.00000 0.00000 1.00000 0.00000 0.00000 1.00000 0.00000 0.00000 1.00000 0.00000 0.00000 1.00000 0.00000 0.00000 1.00000 0.00000 0.00000 1.00000 0.00000 0.00000 1.00000 0.00000 0.00000 1.00000 -0.00000 0.00000 1.00000</float_array><technique_common><accessor source="#normals-array" count="160" stride="3"><param name="X" type="float"/><param name="Y" type="float"/><param name="Z" type="float"/></accessor></technique_common></source>
<vertices id="vertices"><input semantic="POSITION" source="#positions"/></vertices><triangles count="160"><input semantic="VERTEX" source="#vertices" offset="0"/><input semantic="NORMAL" source="#normals" offset="1"/><p>0 0 1 0 2 0 0 1 2 1 3 1 0 2 3 2 4 2 0 3 4 3 5 3 0 4 5 4 6 4 0 5 6 5 7 5 0 6 7 6 8 6 0 7 8 7 9 7 0 8 9 8 10 8 0 9 10 9 11 9 0 10 11 10 12 10 0 11 12 11 13 11 0 12 13 12 14 12 0 13 14 13 15 13 0 14 15 14 16 14 0 15 16 15 17 15 0 16 17 16 18 16 0 17 18 17 19 17 0 18 19 18 20 18 0 19 20 19 21 19 0 20 21 20 22 20 0 21 22 21 23 21 0 22 23 22 24 22 0 23 24 23 25 23 0 24 25 24 26 24 0 25 26 25 27 25 0 26 27 26 28 26 0 27 28 27 29 27 0 28 29 28 30 28 0 29 30 29 31 29 0 30 31 30 32 30 0 31 32 31 33 31 0 32 33 32 34 32 0 33 34 33 35 33 0 34 35 34 36 34 0 35 36 35 37 35 0 36 37 36 38 36 0 37 38 37 39 37 0 38 39 38 40 38 0 39 40 39 41 39 0 40 41 40 42 40 0 41 42 41 43 41 0 42 43 42 44 42 0 43 44 43 45 43 0 44 45 44 46 44 0 45 46 45 47 45 0 46 47 46 48 46 0 47 48 47 49 47 0 48 49 48 50 48 0 49 50 49 51 49 0 50 51 50 52 50 0 51 52 51 53 51 0 52 53 52 54 52 0 53 54 53 55 53 0 54 55 54 56 54 0 55 56 55 57 55 0 56 57 56 58 56 0 57 58 57 59 57 0 58 59 58 60 58 0 59 60 59 61 59 0 60 61 60 62 60 0 61 62 61 63 61 0 62 63 62 64 62 0 63 64 63 65 63 0 64 65 64 66 64 0 65 66 65 67 65 0 66 67 66 68 66 0 67 68 67 69 67 0 68 69 68 70 68 0 69 70 69 71 69 0 70 71 70 72 70 0 71 72 71 73 71 0 72 73 72 74 72 0 73 74 73 75 73 0 74 75 74 76 74 0 75 76 75 77 75 0 76 77 76 78 76 0 77 78 77 79 77 0 78 79 78 80 78 0 79 80 79 81 79 0 80 81 80 82 80 0 81 82 81 83 81 0 82 83 82 84 82 0 83 84 83 85 83 0 84 85 84 86 84 0 85 86 85 87 85 0 86 87 86 88 86 0 87 88 87 89 87 0 88 89 88 90 88 0 89 90 89 91 89 0 90 91 90 92 90 0 91 92 91 93 91 0 92 93 92 94 92 0 93 94 93 95 93 0 94 95 94 96 94 0 95 96 95 97 95 0 96 97 96 98 96 0 97 98 97 99 97 0 98 99 98 100 98 0 99 100 99 101 99 0 100 101 100 102 100 0 101 102 101 103 101 0 102 103 102 104 102 0 103 104 103 105 103 0 104 105 104 106 104 0 105 106 105 107 105 0 106 107 106 108 106 0 107 108 107 109 107 0 108 109 108 110 108 0 109 110 109 111 109 0 110 111 110 112 110 0 111 112 111 113 111 0 112 113 112 114 112 0 113 114 113 115 113 0 114 115 114 116 114 0 115 116 115 117 115 0 116 117 116 118 116 0 117 118 117 119 117 0 118 119 118 120 118 0 119 120 119 121 119 0 120 121 120 122 120 0 121 122 121 123 121 0 122 123 122 124 122 0 123 124 123 125 123 0 124 125 124 126 124 0 125 126 125 127 125 0 126 127 126 128 126 0 127 128 127 129 127 0 128 129 128 130 128 0 129 130 129 131 129 0 130 131 130 132 130 0 131 132 131 133 131 0 132 133 132 134 132 0 133 134 133 135 133 0 134 135 134 136 134 0 135 136 135 137 135 0 136 137 136 138 136 0 137 138 137 139 137 0 138 139 138 140 138 0 139 140 139 141 139 0 140 141 140 142 140 0 141 142 141 143 141 0 142 143 142 144 142 0 143 144 143 145 143 0 144 145 144 146 144 0 145 146 145 147 145 0 146 147 146 148 146 0 147 148 147 149 147 0 148 149 148 150 148 0 149 150 149 151 149 0 150 151 150 152 150 0 151 152 151 153 151 0 152 153 152 154 152 0 153 154 153 155 153 0 154 155 154 156 154 0 155 156 155 157 155 0 156 157 156 158 156 0 157 158 157 159 157 0 158 159 158 160 158 0 159 160 159 1 159</p></triangles>
</mesh></geometry></library_geometries><library_visual_scenes><visual_scene id="Scene"><node id="mesh"><instance_geometry url="#geometry"/></node></visual_scene></library_visual_scenes><scene><instance_visual_scene url="#Scene"/></scene></COLLADA>