<?xml version="1.0" encoding="UTF-8"?>
<COLLADA xmlns="http://www.collada.org/2005/11/COLLADASchema" version="1.4.1">
<asset><contributor><authoring_tool>Summit Estate procedural mesh exporter</authoring_tool></contributor><created>2026-09-11T00:00:00Z</created><modified>2026-09-11T00:00:00Z</modified><unit name="meter" meter="1"/><up_axis>Z_UP</up_axis></asset>
<library_geometries><geometry id="geometry" name="geometry"><mesh>
<source id="positions"><float_array id="positions-array" count="384">162.80000 83.00000 83.14000 162.79568 83.04390 83.14000 162.78287 83.08610 83.14000 162.76208 83.12500 83.14000 162.73410 83.15910 83.14000 162.70000 83.18708 83.14000 162.66110 83.20787 83.14000 162.61890 83.22068 83.14000 162.57500 83.22500 83.14000 162.53110 83.22068 83.14000 162.48890 83.20787 83.14000 162.45000 83.18708 83.14000 162.41590 83.15910 83.14000 162.38792 83.12500 83.14000 162.36713 83.08610 83.14000 162.35432 83.04390 83.14000 162.35000 83.00000 83.14000 162.35432 82.95610 83.14000 162.36713 82.91390 83.14000 162.38792 82.87500 83.14000 162.41590 82.84090 83.14000 162.45000 82.81292 83.14000 162.48890 82.79213 83.14000 162.53110 82.77932 83.14000 162.57500 82.77500 83.14000 162.61890 82.77932 83.14000 162.66110 82.79213 83.14000 162.70000 82.81292 83.14000 162.73410 82.84090 83.14000 162.76208 82.87500 83.14000 162.78287 82.91390 83.14000 162.79568 82.95610 83.14000 162.81800 83.00000 83.14000 162.81333 83.04741 83.14000 162.79950 83.09299 83.14000 162.77705 83.13500 83.14000 162.74683 83.17183 83.14000 162.71000 83.20205 83.14000 162.66799 83.22450 83.14000 162.62241 83.23833 83.14000 162.57500 83.24300 83.14000 162.52759 83.23833 83.14000 162.48201 83.22450 83.14000 162.44000 83.20205 83.14000 162.40317 83.17183 83.14000 162.37295 83.13500 83.14000 162.35050 83.09299 83.14000 162.33667 83.04741 83.14000 162.33200 83.00000 83.14000 162.33667 82.95259 83.14000 162.35050 82.90701 83.14000 162.37295 82.86500 83.14000 162.40317 82.82817 83.14000 162.44000 82.79795 83.14000 162.48201 82.77550 83.14000 162.52759 82.76167 83.14000 162.57500 82.75700 83.14000 162.62241 82.76167 83.14000 162.66799 82.77550 83.14000 162.71000 82.79795 83.14000 162.74683 82.82817 83.14000 162.77705 82.86500 83.14000 162.79950 82.90701 83.14000 162.81333 82.95259 83.14000 162.80000 83.00000 83.17000 162.79568 83.04390 83.17000 162.78287 83.08610 83.17000 162.76208 83.12500 83.17000 162.73410 83.15910 83.17000 162.70000 83.18708 83.17000 162.66110 83.20787 83.17000 162.61890 83.22068 83.17000 162.57500 83.22500 83.17000 162.53110 83.22068 83.17000 162.48890 83.20787 83.17000 162.45000 83.18708 83.17000 162.41590 83.15910 83.17000 162.38792 83.12500 83.17000 162.36713 83.08610 83.17000 162.35432 83.04390 83.17000 162.35000 83.00000 83.17000 162.35432 82.95610 83.17000 162.36713 82.91390 83.17000 162.38792 82.87500 83.17000 162.41590 82.84090 83.17000 162.45000 82.81292 83.17000 162.48890 82.79213 83.17000 162.53110 82.77932 83.17000 162.57500 82.77500 83.17000 162.61890 82.77932 83.17000 162.66110 82.79213 83.17000 162.70000 82.81292 83.17000 162.73410 82.84090 83.17000 162.76208 82.87500 83.17000 162.78287 82.91390 83.17000 162.79568 82.95610 83.17000 162.81800 83.00000 83.17000 162.81333 83.04741 83.17000 162.79950 83.09299 83.17000 162.77705 83.13500 83.17000 162.74683 83.17183 83.17000 162.71000 83.20205 83.17000 162.66799 83.22450 83.17000 162.62241 83.23833 83.17000 162.57500 83.24300 83.17000 162.52759 83.23833 83.17000 162.48201 83.22450 83.17000 162.44000 83.20205 83.17000 162.40317 83.17183 83.17000 162.37295 83.13500 83.17000 162.35050 83.09299 83.17000 162.33667 83.04741 83.17000 162.33200 83.00000 83.17000 162.33667 82.95259 83.17000 162.35050 82.90701 83.17000 162.37295 82.86500 83.17000 162.40317 82.82817 83.17000 162.44000 82.79795 83.17000 162.48201 82.77550 83.17000 162.52759 82.76167 83.17000 162.57500 82.75700 83.17000 162.62241 82.76167 83.17000 162.66799 82.77550 83.17000 162.71000 82.79795 83.17000 162.74683 82.82817 83.17000 162.77705 82.86500 83.17000 162.79950 82.90701 83.17000 162.81333 82.95259 83.17000</float_array><technique_common><accessor source="#positions-array" count="128" stride="3"><param name="X" type="float"/><param name="Y" type="float"/><param name="Z" type="float"/></accessor></technique_common></source>
<source id="normals"><float_array id="normals-array" count="768">0.00000 -0.00000 -1.00000 0.00000 0.00000 -1.00000 0.00000 0.00000 1.00000 0.00000 0.00000 1.00000 0.99518 0.09802 0.00000 0.99518 0.09802 -0.00000 -0.99518 -0.09802 -0.00000 -0.99518 -0.09802 -0.00000 0.00000 -0.00000 -1.00000 0.00000 0.00000 -1.00000 0.00000 0.00000 1.00000 0.00000 0.00000 1.00000 0.95694 0.29028 0.00000 0.95694 0.29028 -0.00000 -0.95694 -0.29028 -0.00000 -0.95694 -0.29028 -0.00000 0.00000 0.00000 -1.00000 0.00000 0.00000 -1.00000 0.00000 0.00000 1.00000 0.00000 0.00000 1.00000 0.88192 0.47140 0.00000 0.88192 0.47140 -0.00000 -0.88192 -0.47140 -0.00000 -0.88192 -0.47140 -0.00000 0.00000 0.00000 -1.00000 0.00000 0.00000 -1.00000 0.00000 0.00000 1.00000 0.00000 0.00000 1.00000 0.77301 0.63439 0.00000 0.77301 0.63439 -0.00000 -0.77301 -0.63439 -0.00000 -0.77301 -0.63439 -0.00000 0.00000 0.00000 -1.00000 0.00000 0.00000 -1.00000 0.00000 0.00000 1.00000 0.00000 0.00000 1.00000 0.63439 0.77301 0.00000 0.63439 0.77301 -0.00000 -0.63439 -0.77301 -0.00000 -0.63439 -0.77301 -0.00000 0.00000 0.00000 -1.00000 0.00000 0.00000 -1.00000 0.00000 0.00000 1.00000 0.00000 0.00000 1.00000 0.47140 0.88192 0.00000 0.47140 0.88192 -0.00000 -0.47140 -0.88192 -0.00000 -0.47140 -0.88192 -0.00000 0.00000 0.00000 -1.00000 0.00000 0.00000 -1.00000 0.00000 0.00000 1.00000 0.00000 0.00000 1.00000 0.29028 0.95694 0.00000 0.29028 0.95694 -0.00000 -0.29028 -0.95694 -0.00000 -0.29028 -0.95694 -0.00000 0.00000 0.00000 -1.00000 0.00000 0.00000 -1.00000 0.00000 0.00000 1.00000 0.00000 0.00000 1.00000 0.09802 0.99518 0.00000 0.09802 0.99518 -0.00000 -0.09802 -0.99518 -0.00000 -0.09802 -0.99518 -0.00000 0.00000 0.00000 -1.00000 0.00000 0.00000 -1.00000 0.00000 0.00000 1.00000 0.00000 0.00000 1.00000 -0.09802 0.99518 0.00000 -0.09802 0.99518 0.00000 0.09802 -0.99518 0.00000 0.09802 -0.99518 0.00000 0.00000 0.00000 -1.00000 0.00000 0.00000 -1.00000 0.00000 0.00000 1.00000 0.00000 0.00000 1.00000 -0.29028 0.95694 0.00000 -0.29028 0.95694 0.00000 0.29028 -0.95694 0.00000 0.29028 -0.95694 0.00000 0.00000 0.00000 -1.00000 0.00000 0.00000 -1.00000 -0.00000 0.00000 1.00000 0.00000 0.00000 1.00000 -0.47140 0.88192 0.00000 -0.47140 0.88192 0.00000 0.47140 -0.88192 0.00000 0.47140 -0.88192 0.00000 0.00000 0.00000 -1.00000 0.00000 0.00000 -1.00000 -0.00000 0.00000 1.00000 0.00000 0.00000 1.00000 -0.63439 0.77301 0.00000 -0.63439 0.77301 0.00000 0.63439 -0.77301 0.00000 0.63439 -0.77301 0.00000 0.00000 0.00000 -1.00000 0.00000 0.00000 -1.00000 -0.00000 0.00000 1.00000 0.00000 0.00000 1.00000 -0.77301 0.63439 0.00000 -0.77301 0.63439 0.00000 0.77301 -0.63439 0.00000 0.77301 -0.63439 0.00000 0.00000 0.00000 -1.00000 0.00000 0.00000 -1.00000 -0.00000 0.00000 1.00000 0.00000 0.00000 1.00000 -0.88192 0.47140 0.00000 -0.88192 0.47140 0.00000 0.88192 -0.47140 0.00000 0.88192 -0.47140 0.00000 0.00000 0.00000 -1.00000 0.00000 0.00000 -1.00000 -0.00000 0.00000 1.00000 0.00000 0.00000 1.00000 -0.95694 0.29028 0.00000 -0.95694 0.29028 0.00000 0.95694 -0.29028 0.00000 0.95694 -0.29028 0.00000 0.00000 0.00000 -1.00000 0.00000 0.00000 -1.00000 0.00000 0.00000 1.00000 0.00000 0.00000 1.00000 -0.99518 0.09802 0.00000 -0.99518 0.09802 0.00000 0.99518 -0.09802 0.00000 0.99518 -0.09802 0.00000 0.00000 0.00000 -1.00000 -0.00000 0.00000 -1.00000 0.00000 0.00000 1.00000 -0.00000 0.00000 1.00000 -0.99518 -0.09802 0.00000 -0.99518 -0.09802 0.00000 0.99518 0.09802 0.00000 0.99518 0.09802 0.00000 0.00000 0.00000 -1.00000 -0.00000 0.00000 -1.00000 0.00000 0.00000 1.00000 -0.00000 0.00000 1.00000 -0.95694 -0.29028 0.00000 -0.95694 -0.29028 0.00000 0.95694 0.29028 0.00000 0.95694 0.29028 0.00000 0.00000 0.00000 -1.00000 -0.00000 0.00000 -1.00000 0.00000 -0.00000 1.00000 -0.00000 0.00000 1.00000 -0.88192 -0.47140 0.00000 -0.88192 -0.47140 0.00000 0.88192 0.47140 0.00000 0.88192 0.47140 0.00000 0.00000 0.00000 -1.00000 -0.00000 0.00000 -1.00000 0.00000 -0.00000 1.00000 -0.00000 0.00000 1.00000 -0.77301 -0.63439 0.00000 -0.77301 -0.63439 0.00000 0.77301 0.63439 0.00000 0.77301 0.63439 0.00000 0.00000 0.00000 -1.00000 -0.00000 0.00000 -1.00000 0.00000 -0.00000 1.00000 -0.00000 0.00000 1.00000 -0.63439 -0.77301 0.00000 -0.63439 -0.77301 0.00000 0.63439 0.77301 0.00000 0.63439 0.77301 0.00000 0.00000 0.00000 -1.00000 -0.00000 0.00000 -1.00000 0.00000 -0.00000 1.00000 -0.00000 0.00000 1.00000 -0.47140 -0.88192 0.00000 -0.47140 -0.88192 0.00000 0.47140 0.88192 0.00000 0.47140 0.88192 0.00000 0.00000 0.00000 -1.00000 -0.00000 0.00000 -1.00000 0.00000 -0.00000 1.00000 -0.00000 0.00000 1.00000 -0.29028 -0.95694 0.00000 -0.29028 -0.95694 0.00000 0.29028 0.95694 0.00000 0.29028 0.95694 0.00000 0.00000 0.00000 -1.00000 -0.00000 -0.00000 -1.00000 0.00000 -0.00000 1.00000 -0.00000 0.00000 1.00000 -0.09802 -0.99518 0.00000 -0.09802 -0.99518 0.00000 0.09802 0.99518 0.00000 0.09802 0.99518 0.00000 -0.00000 0.00000 -1.00000 0.00000 -0.00000 -1.00000 0.00000 0.00000 1.00000 0.00000 0.00000 1.00000 0.09802 -0.99518 0.00000 0.09802 -0.99518 0.00000 -0.09802 0.99518 0.00000 -0.09802 0.99518 0.00000 -0.00000 0.00000 -1.00000 0.00000 -0.00000 -1.00000 0.00000 0.00000 1.00000 0.00000 -0.00000 1.00000 0.29028 -0.95694 0.00000 0.29028 -0.95694 0.00000 -0.29028 0.95694 0.00000 -0.29028 0.95694 0.00000 0.00000 0.00000 -1.00000 0.00000 -0.00000 -1.00000 0.00000 0.00000 1.00000 0.00000 -0.00000 1.00000 0.47140 -0.88192 0.00000 0.47140 -0.88192 0.00000 -0.47140 0.88192 0.00000 -0.47140 0.88192 0.00000 0.00000 0.00000 -1.00000 0.00000 -0.00000 -1.00000 0.00000 0.00000 1.00000 0.00000 -0.00000 1.00000 0.63439 -0.77301 0.00000 0.63439 -0.77301 0.00000 -0.63439 0.77301 0.00000 -0.63439 0.77301 0.00000 0.00000 0.00000 -1.00000 0.00000 -0.00000 -1.00000 0.00000 0.00000 1.00000 0.00000 -0.00000 1.00000 0.77301 -0.63439 0.00000 0.77301 -0.63439 0.00000 -0.77301 0.63439 0.00000 -0.77301 0.63439 0.00000 0.00000 0.00000 -1.00000 0.00000 -0.00000 -1.00000 0.00000 0.00000 1.00000 0.00000 -0.00000 1.00000 0.88192 -0.47140 0.00000 0.88192 -0.47140 0.00000 -0.88192 0.47140 0.00000 -0.88192 0.47140 0.00000 0.00000 0.00000 -1.00000 0.00000 -0.00000 -1.00000 0.00000 0.00000 1.00000 0.00000 -0.00000 1.00000 0.95694 -0.29028 0.00000 0.95694 -0.29028 0.00000 -0.95694 0.29028 0.00000 -0.95694 0.29028 0.00000 0.00000 0.00000 -1.00000 0.00000 -0.00000 -1.00000 0.00000 0.00000 1.00000 0.00000 -0.00000 1.00000 0.99518 -0.09802 0.00000 0.99518 -0.09802 0.00000 -0.99518 0.09802 0.00000 -0.99518 0.09802 0.00000</float_array><technique_common><accessor source="#normals-array" count="256" stride="3"><param name="X" type="float"/><param name="Y" type="float"/><param name="Z" type="float"/></accessor></technique_common></source>
<vertices id="vertices"><input semantic="POSITION" source="#positions"/></vertices><triangles count="256"><input semantic="VERTEX" source="#vertices" offset="0"/><input semantic="NORMAL" source="#normals" offset="1"/><p>33 0 32 0 0 0 1 1 33 1 0 1 97 2 65 2 64 2 96 3 97 3 64 3 97 4 96 4 32 4 33 5 97 5 32 5 65 6 1 6 0 6 64 7 65 7 0 7 34 8 33 8 1 8 2 9 34 9 1 9 98 10 66 10 65 10 97 11 98 11 65 11 98 12 97 12 33 12 34 13 98 13 33 13 66 14 2 14 1 14 65 15 66 15 1 15 35 16 34 16 2 16 3 17 35 17 2 17 99 18 67 18 66 18 98 19 99 19 66 19 99 20 98 20 34 20 35 21 99 21 34 21 67 22 3 22 2 22 66 23 67 23 2 23 36 24 35 24 3 24 4 25 36 25 3 25 100 26 68 26 67 26 99 27 100 27 67 27 100 28 99 28 35 28 36 29 100 29 35 29 68 30 4 30 3 30 67 31 68 31 3 31 37 32 36 32 4 32 5 33 37 33 4 33 101 34 69 34 68 34 100 35 101 35 68 35 101 36 100 36 36 36 37 37 101 37 36 37 69 38 5 38 4 38 68 39 69 39 4 39 38 40 37 40 5 40 6 41 38 41 5 41 102 42 70 42 69 42 101 43 102 43 69 43 102 44 101 44 37 44 38 45 102 45 37 45 70 46 6 46 5 46 69 47 70 47 5 47 39 48 38 48 6 48 7 49 39 49 6 49 103 50 71 50 70 50 102 51 103 51 70 51 103 52 102 52 38 52 39 53 103 53 38 53 71 54 7 54 6 54 70 55 71 55 6 55 40 56 39 56 7 56 8 57 40 57 7 57 104 58 72 58 71 58 103 59 104 59 71 59 104 60 103 60 39 60 40 61 104 61 39 61 72 62 8 62 7 62 71 63 72 63 7 63 41 64 40 64 8 64 9 65 41 65 8 65 105 66 73 66 72 66 104 67 105 67 72 67 105 68 104 68 40 68 41 69 105 69 40 69 73 70 9 70 8 70 72 71 73 71 8 71 42 72 41 72 9 72 10 73 42 73 9 73 106 74 74 74 73 74 105 75 106 75 73 75 106 76 105 76 41 76 42 77 106 77 41 77 74 78 10 78 9 78 73 79 74 79 9 79 43 80 42 80 10 80 11 81 43 81 10 81 107 82 75 82 74 82 106 83 107 83 74 83 107 84 106 84 42 84 43 85 107 85 42 85 75 86 11 86 10 86 74 87 75 87 10 87 44 88 43 88 11 88 12 89 44 89 11 89 108 90 76 90 75 90 107 91 108 91 75 91 108 92 107 92 43 92 44 93 108 93 43 93 76 94 12 94 11 94 75 95 76 95 11 95 45 96 44 96 12 96 13 97 45 97 12 97 109 98 77 98 76 98 108 99 109 99 76 99 109 100 108 100 44 100 45 101 109 101 44 101 77 102 13 102 12 102 76 103 77 103 12 103 46 104 45 104 13 104 14 105 46 105 13 105 110 106 78 106 77 106 109 107 110 107 77 107 110 108 109 108 45 108 46 109 110 109 45 109 78 110 14 110 13 110 77 111 78 111 13 111 47 112 46 112 14 112 15 113 47 113 14 113 111 114 79 114 78 114 110 115 111 115 78 115 111 116 110 116 46 116 47 117 111 117 46 117 79 118 15 118 14 118 78 119 79 119 14 119 48 120 47 120 15 120 16 121 48 121 15 121 112 122 80 122 79 122 111 123 112 123 79 123 112 124 111 124 47 124 48 125 112 125 47 125 80 126 16 126 15 126 79 127 80 127 15 127 49 128 48 128 16 128 17 129 49 129 16 129 113 130 81 130 80 130 112 131 113 131 80 131 113 132 112 132 48 132 49 133 113 133 48 133 81 134 17 134 16 134 80 135 81 135 16 135 50 136 49 136 17 136 18 137 50 137 17 137 114 138 82 138 81 138 113 139 114 139 81 139 114 140 113 140 49 140 50 141 114 141 49 141 82 142 18 142 17 142 81 143 82 143 17 143 51 144 50 144 18 144 19 145 51 145 18 145 115 146 83 146 82 146 114 147 115 147 82 147 115 148 114 148 50 148 51 149 115 149 50 149 83 150 19 150 18 150 82 151 83 151 18 151 52 152 51 152 19 152 20 153 52 153 19 153 116 154 84 154 83 154 115 155 116 155 83 155 116 156 115 156 51 156 52 157 116 157 51 157 84 158 20 158 19 158 83 159 84 159 19 159 53 160 52 160 20 160 21 161 53 161 20 161 117 162 85 162 84 162 116 163 117 163 84 163 117 164 116 164 52 164 53 165 117 165 52 165 85 166 21 166 20 166 84 167 85 167 20 167 54 168 53 168 21 168 22 169 54 169 21 169 118 170 86 170 85 170 117 171 118 171 85 171 118 172 117 172 53 172 54 173 118 173 53 173 86 174 22 174 21 174 85 175 86 175 21 175 55 176 54 176 22 176 23 177 55 177 22 177 119 178 87 178 86 178 118 179 119 179 86 179 119 180 118 180 54 180 55 181 119 181 54 181 87 182 23 182 22 182 86 183 87 183 22 183 56 184 55 184 23 184 24 185 56 185 23 185 120 186 88 186 87 186 119 187 120 187 87 187 120 188 119 188 55 188 56 189 120 189 55 189 88 190 24 190 23 190 87 191 88 191 23 191 57 192 56 192 24 192 25 193 57 193 24 193 121 194 89 194 88 194 120 195 121 195 88 195 121 196 120 196 56 196 57 197 121 197 56 197 89 198 25 198 24 198 88 199 89 199 24 199 58 200 57 200 25 200 26 201 58 201 25 201 122 202 90 202 89 202 121 203 122 203 89 203 122 204 121 204 57 204 58 205 122 205 57 205 90 206 26 206 25 206 89 207 90 207 25 207 59 208 58 208 26 208 27 209 59 209 26 209 123 210 91 210 90 210 122 211 123 211 90 211 123 212 122 212 58 212 59 213 123 213 58 213 91 214 27 214 26 214 90 215 91 215 26 215 60 216 59 216 27 216 28 217 60 217 27 217 124 218 92 218 91 218 123 219 124 219 91 219 124 220 123 220 59 220 60 221 124 221 59 221 92 222 28 222 27 222 91 223 92 223 27 223 61 224 60 224 28 224 29 225 61 225 28 225 125 226 93 226 92 226 124 227 125 227 92 227 125 228 124 228 60 228 61 229 125 229 60 229 93 230 29 230 28 230 92 231 93 231 28 231 62 232 61 232 29 232 30 233 62 233 29 233 126 234 94 234 93 234 125 235 126 235 93 235 126 236 125 236 61 236 62 237 126 237 61 237 94 238 30 238 29 238 93 239 94 239 29 239 63 240 62 240 30 240 31 241 63 241 30 241 127 242 95 242 94 242 126 243 127 243 94 243 127 244 126 244 62 244 63 245 127 245 62 245 95 246 31 246 30 246 94 247 95 247 30 247 32 248 63 248 31 248 0 249 32 249 31 249 96 250 64 250 95 250 127 251 96 251 95 251 96 252 127 252 63 252 32 253 96 253 63 253 64 254 0 254 31 254 95 255 64 255 31 255</p></triangles>
</mesh></geometry></library_geometries><library_visual_scenes><visual_scene id="Scene"><node id="mesh"><instance_geometry url="#geometry"/></node></visual_scene></library_visual_scenes><scene><instance_visual_scene url="#Scene"/></scene></COLLADA>