<?xml version="1.0" encoding="UTF-8"?>
<COLLADA xmlns="http://www.collada.org/2005/11/COLLADASchema" version="1.4.1">
<asset><contributor><authoring_tool>Summit Estate procedural mesh exporter</authoring_tool></contributor><created>2026-09-11T00:00:00Z</created><modified>2026-09-11T00:00:00Z</modified><unit name="meter" meter="1"/><up_axis>Z_UP</up_axis></asset>
<library_geometries><geometry id="geometry" name="geometry"><mesh>
<source id="positions"><float_array id="positions-array" count="990">-22.81998 247.43876 88.85716 -24.56952 248.40624 88.85716 -26.25696 248.22109 88.85716 -27.17117 246.88014 88.85716 -27.20717 245.11493 88.85716 -26.12264 243.49984 88.85716 -24.23239 243.21409 88.85716 -22.84342 244.04597 88.85716 -22.17580 245.81086 88.85716 -24.83612 245.87211 97.78847 -24.83612 245.87211 88.85716 -57.61289 27.79169 82.42512 -57.07351 29.17024 82.42512 -57.28994 31.09294 82.42512 -58.60515 31.96012 82.42512 -60.49488 32.19042 82.42512 -61.98384 30.79774 82.42512 -61.87226 29.15206 82.42512 -61.30066 27.73951 82.42512 -59.49860 27.12645 82.42512 -59.49096 29.60519 90.36391 -59.49096 29.60519 82.42512 -67.61675 11.66003 74.72259 -70.61487 12.23366 74.72259 -72.96374 10.82354 74.72259 -73.82443 8.21612 74.72259 -72.91130 5.86373 74.72259 -70.59395 4.21028 74.72259 -67.91712 4.80079 74.72259 -65.98043 7.05946 74.72259 -65.94621 9.51663 74.72259 -69.73246 8.29954 85.29458 -69.73246 8.29954 74.72259 -33.22591 242.82606 85.02624 -31.59870 240.48892 85.02624 -29.27082 239.65231 85.02624 -26.65651 240.72812 85.02624 -25.40886 243.12387 85.02624 -25.71811 245.76916 85.02624 -27.81179 247.65900 85.02624 -30.49024 247.23742 85.02624 -32.79029 245.69212 85.02624 -29.25544 243.74125 95.17934 -29.25544 243.74125 85.02624 -77.75775 26.81882 67.38733 -80.09714 26.87013 67.38733 -81.54258 24.98365 67.38733 -81.91230 22.61750 67.38733 -80.36388 21.06397 67.38733 -78.33783 20.33893 67.38733 -76.17542 21.14533 67.38733 -75.31399 23.29186 67.38733 -75.91411 25.70344 67.38733 -78.60806 23.69121 73.88705 -78.60806 23.69121 67.38733 -35.61080 243.98931 82.70467 -33.60029 243.12247 82.70467 -31.01864 243.84528 82.70467 -29.49448 245.99275 82.70467 -29.89433 248.42397 82.70467 -31.76328 250.22318 82.70467 -34.29777 250.53552 82.70467 -36.41828 248.86053 82.70467 -36.89689 246.11628 82.70467 -33.21656 246.79180 90.45963 -33.21656 246.79180 82.70467 -59.76762 2.32129 83.15181 -59.57301 3.36588 83.15181 -60.15849 4.73375 83.15181 -61.81859 4.96768 83.15181 -63.08277 4.45127 83.15181 -63.70877 3.28563 83.15181 -63.20486 1.90217 83.15181 -61.77443 1.05258 83.15181 -60.41341 1.35232 83.15181 -61.49194 3.00536 91.62394 -61.49194 3.00536 83.15181 -119.58424 0.79539 59.60510 -117.66163 0.48205 59.60510 -116.02974 1.80130 59.60510 -115.85892 3.73427 59.60510 -116.79472 5.50085 59.60510 -118.37451 6.28534 59.60510 -120.60238 5.49570 59.60510 -121.65717 3.87091 59.60510 -121.30798 1.90784 59.60510 -118.69739 3.39366 68.72718 -118.69739 3.39366 59.60510 -86.48518 19.41903 62.11045 -85.21321 17.26235 62.11045 -82.79215 16.57811 62.11045 -80.61904 17.51859 62.11045 -79.35429 19.63121 62.11045 -79.76368 22.14759 62.11045 -81.59047 23.74700 62.11045 -84.21697 23.50342 62.11045 -86.14658 22.03837 62.11045 -82.88952 20.08847 68.86263 -82.88952 20.08847 62.11045 -69.05792 4.53202 81.28303 -69.66120 4.99354 81.28303 -70.80858 5.04205 81.28303 -71.54676 4.38335 81.28303 -71.49199 3.50539 81.28303 -71.03204 2.52579 81.28303 -70.06240 2.10950 81.28303 -69.34465 2.48902 81.28303 -68.78111 3.55793 81.28303 -70.13307 3.62493 89.05425 -70.13307 3.62493 81.28303 -23.25663 236.86712 84.53187 -24.89577 236.93232 84.53187 -26.19821 235.95648 84.53187 -26.85383 234.29585 84.53187 -26.04365 232.60541 84.53187 -24.21535 232.07989 84.53187 -22.52936 232.59472 84.53187 -21.72021 234.13439 84.53187 -21.87825 235.48514 84.53187 -24.24929 234.53459 94.05359 -24.24929 234.53459 84.53187 -58.04125 3.93730 86.87693 -59.05770 3.44536 86.87693 -59.35844 1.80805 86.87693 -59.15542 0.95002 86.87693 -57.86177 0.26825 86.87693 -56.51176 0.42385 86.87693 -55.51478 1.38047 86.87693 -55.86581 2.98460 86.87693 -56.80218 3.71590 86.87693 -57.56879 2.13623 93.38831 -57.56879 2.13623 86.87693 -64.81032 0.77376 77.76354 -62.04369 1.68214 77.76354 -60.21997 4.37526 77.76354 -60.83920 7.61508 77.76354 -63.24466 9.74289 77.76354 -66.45083 9.76903 77.76354 -68.63169 7.56287 77.76354 -69.54432 4.36858 77.76354 -68.05941 1.73004 77.76354 -64.85607 5.30394 87.70707 -64.85607 5.30394 77.76354 -19.49289 229.81543 79.42877 -18.15223 228.01230 79.42877 -15.75754 227.81399 79.42877 -13.73841 228.90282 79.42877 -13.05552 231.34348 79.42877 -13.88739 233.24441 79.42877 -15.68946 234.61734 79.42877 -18.01165 233.88342 79.42877 -19.64141 232.22994 79.42877 -16.43987 231.08878 84.97462 -16.43987 231.08878 79.42877 -15.10701 241.56732 85.92160 -15.94973 242.71622 85.92160 -17.41290 243.53678 85.92160 -18.46978 242.90812 85.92160 -19.22969 241.54132 85.92160 -19.00244 240.28035 85.92160 -18.04161 239.72198 85.92160 -16.77778 239.57680 85.92160 -15.52347 240.34122 85.92160 -17.23134 241.38397 92.32556 -17.23134 241.38397 85.92160 -68.49153 13.71497 82.64538 -68.57252 15.14202 82.64538 -69.49168 16.66405 82.64538 -71.01205 16.56252 82.64538 -72.48628 15.71248 82.64538 -72.88595 14.09970 82.64538 -72.32092 12.68012 82.64538 -71.10422 11.77160 82.64538 -69.29784 12.49101 82.64538 -70.67370 14.37144 91.72324 -70.67370 14.37144 82.64538 -61.53230 13.61071 81.63550 -60.10887 11.43216 81.63550 -57.75230 11.25573 81.63550 -55.80556 12.44296 81.63550 -55.04019 14.90724 81.63550 -55.79597 17.24183 81.63550 -58.02386 18.45514 81.63550 -60.22620 17.71775 81.63550 -61.58407 15.71219 81.63550 -58.40256 14.77054 92.68821 -58.40256 14.77054 81.63550 -108.15221 2.05332 60.73591 -109.18554 0.92498 60.73591 -108.87993 -0.18309 60.73591 -108.14844 -1.10720 60.73591 -106.85139 -1.38934 60.73591 -105.60451 -0.63276 60.73591 -105.32187 0.75408 60.73591 -105.92010 1.83071 60.73591 -106.86172 2.15421 60.73591 -107.19983 0.41631 68.47394 -107.19983 0.41631 60.73591 -56.82372 239.37727 64.19739 -59.71937 239.84305 64.19739 -61.97639 238.73727 64.19739 -62.72307 236.37934 64.19739 -61.90437 234.08215 64.19739 -59.57075 232.51670 64.19739 -57.13078 232.75437 64.19739 -55.54163 234.89293 64.19739 -55.21713 237.56167 64.19739 -58.92196 236.24671 73.65792 -58.92196 236.24671 64.19739 -101.14445 8.16195 53.56398 -104.16350 9.44643 53.56398 -107.01410 8.55101 53.56398 -108.78661 5.53935 53.56398 -108.11599 2.41228 53.56398 -105.95483 0.58467 53.56398 -102.39965 0.43586 53.56398 -100.14102 2.16021 53.56398 -99.45824 5.54536 53.56398 -104.12498 4.76650 60.76774 -104.12498 4.76650 53.56398 -10.33856 230.02114 83.26620 -11.05618 230.75461 83.26620 -12.12298 231.33441 83.26620 -13.63424 230.68265 83.26620 -14.29653 229.77561 83.26620 -13.69074 228.33322 83.26620 -12.76866 227.53563 83.26620 -11.43271 227.45258 83.26620 -10.48761 228.42091 83.26620 -12.14814 229.40605 89.64833 -12.14814 229.40605 83.26620 -77.40685 4.22863 72.92657 -76.60554 2.21716 72.92657 -74.70077 1.33505 72.92657 -72.63452 2.03841 72.92657 -71.63160 3.77361 72.92657 -71.89184 5.77027 72.92657 -73.33104 6.95462 72.92657 -75.23576 7.16037 72.92657 -77.12891 6.29871 72.92657 -74.55170 4.47393 79.60317 -74.55170 4.47393 72.92657 -22.99625 252.02430 82.40528 -23.99471 249.56737 82.40528 -23.31920 247.08467 82.40528 -21.36065 245.55795 82.40528 -18.94205 246.04716 82.40528 -17.03505 247.73792 82.40528 -16.86886 250.05490 82.40528 -17.91773 252.37646 82.40528 -20.68732 252.89759 82.40528 -20.33387 249.31272 89.27164 -20.33387 249.31272 82.40528 -100.66622 12.62336 56.16318 -102.23900 12.55784 56.16318 -103.42315 11.58119 56.16318 -103.71027 9.97181 56.16318 -102.62570 8.78178 56.16318 -101.40970 8.38798 56.16318 -99.99591 8.94921 56.16318 -99.08309 10.38842 56.16318 -99.65971 11.56768 56.16318 -101.46169 10.54708 61.23528 -101.46169 10.54708 56.16318 -90.42159 18.70227 59.50119 -87.41768 16.96749 59.50119 -84.21207 17.45921 59.50119 -81.64698 19.83306 59.50119 -81.79359 23.14468 59.50119 -83.63619 25.91364 59.50119 -86.57014 26.40263 59.50119 -89.64905 25.22834 59.50119 -91.06640 22.02084 59.50119 -86.27100 21.72660 66.58109 -86.27100 21.72660 59.50119 -58.13730 43.87089 67.99072 -58.32349 42.34671 67.99072 -57.70241 40.90971 67.99072 -56.27034 39.99475 67.99072 -54.41178 40.83054 67.99072 -53.68096 41.86045 67.99072 -54.00423 43.54196 67.99072 -55.26772 44.62472 67.99072 -56.66284 44.65819 67.99072 -56.10926 42.55833 76.16139 -56.10926 42.55833 67.99072 -21.98108 244.99129 84.52000 -23.40986 244.82918 84.52000 -24.36594 243.66326 84.52000 -24.52303 241.97726 84.52000 -23.36078 241.14260 84.52000 -22.11322 240.79095 84.52000 -21.02653 241.28352 84.52000 -20.35922 242.84008 84.52000 -20.96674 244.34076 84.52000 -22.46561 242.83356 90.10045 -22.46561 242.83356 84.52000 -43.08499 241.97609 88.01848 -42.09376 241.77966 88.01848 -41.10533 242.41676 88.01848 -41.03865 243.54107 88.01848 -41.30861 244.84900 88.01848 -42.53167 245.03629 88.01848 -43.45027 244.68841 88.01848 -44.00334 243.99471 88.01848 -44.02342 242.73228 88.01848 -42.54083 243.45796 97.28585 -42.54083 243.45796 88.01848 -46.32820 246.27541 84.07736 -48.01667 247.17701 84.07736 -49.84793 246.79849 84.07736 -50.60619 245.14104 84.07736 -50.42082 243.04775 84.07736 -49.13175 242.07122 84.07736 -47.20953 242.14146 84.07736 -45.61564 242.84495 84.07736 -45.53363 244.74031 84.07736 -48.09788 244.49363 91.22887 -48.09788 244.49363 84.07736 -56.11363 20.64443 80.32203 -57.93989 21.94554 80.32203 -59.64621 21.52100 80.32203 -60.85146 19.89958 80.32203 -60.95497 18.36466 80.32203 -59.89518 16.72216 80.32203 -57.80027 16.40365 80.32203 -56.31707 17.33961 80.32203 -55.36060 18.95918 80.32203 -58.33010 19.01941 87.62637 -58.33010 19.01941 80.32203</float_array><technique_common><accessor source="#positions-array" count="330" stride="3"><param name="X" type="float"/><param name="Y" type="float"/><param name="Z" type="float"/></accessor></technique_common></source>
<source id="normals"><float_array id="normals-array" count="1620">0.46804 0.84638 0.25412 0.00000 0.00000 -1.00000 -0.10506 0.95752 0.26855 0.00000 0.00000 -1.00000 -0.79573 0.54250 0.26927 0.00000 0.00000 -1.00000 -0.96675 0.01972 0.25498 -0.00000 0.00000 -1.00000 -0.80196 -0.53852 0.25856 0.00000 0.00000 -1.00000 -0.14378 -0.95111 0.27334 0.00000 -0.00000 -1.00000 0.49348 -0.82394 0.27857 0.00000 0.00000 -1.00000 0.90044 -0.34062 0.27054 0.00000 0.00000 -1.00000 0.89669 0.35483 0.26466 0.00000 0.00000 -1.00000 0.89111 -0.34866 0.29045 0.00000 0.00000 -1.00000 0.95274 0.10725 0.28424 0.00000 0.00000 -1.00000 0.52591 0.79763 0.29529 0.00000 0.00000 -1.00000 0.11562 0.94869 0.29432 0.00000 0.00000 -1.00000 -0.64980 0.69472 0.30841 0.00000 0.00000 -1.00000 -0.95481 -0.06474 0.29010 -0.00000 0.00000 -1.00000 -0.88801 -0.35935 0.28688 0.00000 0.00000 -1.00000 -0.30884 -0.90781 0.28374 0.00000 0.00000 -1.00000 0.31917 -0.90472 0.28217 0.00000 -0.00000 -1.00000 0.17738 0.92710 0.33019 0.00000 0.00000 -1.00000 -0.48397 0.80617 0.34039 0.00000 0.00000 -1.00000 -0.89202 0.29445 0.34294 -0.00000 0.00000 -1.00000 -0.87609 -0.34007 0.34178 0.00000 0.00000 -1.00000 -0.54610 -0.76537 0.34055 0.00000 0.00000 -1.00000 0.20268 -0.91875 0.33886 0.00000 -0.00000 -1.00000 0.71746 -0.61519 0.32679 0.00000 0.00000 -1.00000 0.94184 -0.01311 0.33580 0.00000 0.00000 -1.00000 0.74370 0.57963 0.33308 0.00000 0.00000 -1.00000 -0.76907 -0.53546 0.34902 0.00000 0.00000 -1.00000 -0.31621 -0.87984 0.35482 0.00000 0.00000 -1.00000 0.35669 -0.86677 0.34853 0.00000 -0.00000 -1.00000 0.83341 -0.43402 0.34213 0.00000 0.00000 -1.00000 0.93175 0.10893 0.34638 0.00000 0.00000 -1.00000 0.62599 0.69351 0.35661 0.00000 0.00000 -1.00000 -0.14633 0.92972 0.33794 0.00000 0.00000 -1.00000 -0.52577 0.78256 0.33341 0.00000 0.00000 -1.00000 -0.92628 0.14079 0.34954 -0.00000 0.00000 -1.00000 0.01974 0.89992 0.43562 0.00000 0.00000 -1.00000 -0.71580 0.54845 0.43223 0.00000 0.00000 -1.00000 -0.89184 0.13935 0.43036 -0.00000 0.00000 -1.00000 -0.63935 -0.63725 0.43029 0.00000 0.00000 -1.00000 -0.30475 -0.85158 0.42654 0.00000 -0.00000 -1.00000 0.31280 -0.83880 0.44562 0.00000 0.00000 -1.00000 0.83232 -0.33402 0.44234 0.00000 0.00000 -1.00000 0.87588 0.21796 0.43050 0.00000 0.00000 -1.00000 0.46676 0.77152 0.43231 0.00000 0.00000 -1.00000 -0.36049 -0.83612 0.41346 0.00000 0.00000 -1.00000 0.24657 -0.88067 0.40450 0.00000 -0.00000 -1.00000 0.74336 -0.52760 0.41115 0.00000 0.00000 -1.00000 0.89751 0.14761 0.41556 0.00000 0.00000 -1.00000 0.63275 0.65728 0.40941 0.00000 0.00000 -1.00000 0.11103 0.90096 0.41946 0.00000 0.00000 -1.00000 -0.56200 0.71149 0.42183 0.00000 0.00000 -1.00000 -0.89750 0.15653 0.41230 -0.00000 0.00000 -1.00000 -0.78001 -0.47164 0.41126 0.00000 0.00000 -1.00000 0.96115 -0.17906 0.21008 0.00000 0.00000 -1.00000 0.89691 0.38390 0.21949 0.00000 0.00000 -1.00000 0.13616 0.96628 0.21856 0.00000 0.00000 -1.00000 -0.36862 0.90238 0.22322 0.00000 0.00000 -1.00000 -0.85545 0.45941 0.23904 0.00000 0.00000 -1.00000 -0.91479 -0.33320 0.22834 -0.00000 0.00000 -1.00000 -0.49923 -0.84054 0.21039 0.00000 0.00000 -1.00000 0.21015 -0.95420 0.21293 0.00000 -0.00000 -1.00000 0.81368 -0.54229 0.20939 0.00000 0.00000 -1.00000 -0.15421 -0.94619 0.28450 0.00000 -0.00000 -1.00000 0.59884 -0.74075 0.30443 0.00000 0.00000 -1.00000 0.95234 -0.08416 0.29319 0.00000 0.00000 -1.00000 0.84815 0.44929 0.28069 0.00000 0.00000 -1.00000 0.42604 0.85796 0.28705 0.00000 0.00000 -1.00000 -0.32112 0.90598 0.27583 0.00000 0.00000 -1.00000 -0.80324 0.52146 0.28790 0.00000 0.00000 -1.00000 -0.94032 -0.16727 0.29635 -0.00000 0.00000 -1.00000 -0.52051 -0.80653 0.28033 0.00000 0.00000 -1.00000 -0.76762 -0.45273 0.45365 0.00000 0.00000 -1.00000 -0.24361 -0.86196 0.44461 0.00000 -0.00000 -1.00000 0.35767 -0.82644 0.43481 0.00000 0.00000 -1.00000 0.77229 -0.46234 0.43566 0.00000 0.00000 -1.00000 0.88073 0.14329 0.45142 0.00000 0.00000 -1.00000 0.58098 0.66357 0.47132 0.00000 0.00000 -1.00000 -0.08187 0.88279 0.46257 0.00000 0.00000 -1.00000 -0.53613 0.70613 0.46253 0.00000 0.00000 -1.00000 -0.88155 0.11395 0.45814 -0.00000 0.00000 -1.00000 0.59834 0.78211 0.17407 0.00000 0.00000 -1.00000 0.04158 0.98356 0.17574 0.00000 0.00000 -1.00000 -0.65362 0.73248 0.19039 0.00000 0.00000 -1.00000 -0.98304 -0.06132 0.17284 -0.00000 0.00000 -1.00000 -0.89313 -0.41936 0.16263 0.00000 0.00000 -1.00000 -0.38856 -0.90505 0.17296 0.00000 -0.00000 -1.00000 0.46032 -0.87055 0.17395 0.00000 0.00000 -1.00000 0.87377 -0.46065 0.15598 0.00000 0.00000 -1.00000 0.94908 0.26970 0.16279 0.00000 0.00000 -1.00000 0.03857 0.96962 0.24155 0.00000 0.00000 -1.00000 -0.58276 0.77780 0.23543 0.00000 0.00000 -1.00000 -0.90337 0.35665 0.23816 -0.00000 0.00000 -1.00000 -0.87329 -0.41855 0.24937 0.00000 0.00000 -1.00000 -0.26821 -0.93309 0.23959 0.00000 -0.00000 -1.00000 0.28348 -0.92837 0.24034 0.00000 0.00000 -1.00000 0.85782 -0.45081 0.24680 0.00000 0.00000 -1.00000 0.96152 0.11250 0.25066 0.00000 0.00000 -1.00000 0.68740 0.68561 0.23962 0.00000 0.00000 -1.00000 -0.41944 0.86665 0.27015 0.00000 0.00000 -1.00000 -0.95161 0.17479 0.25274 -0.00000 0.00000 -1.00000 -0.93732 -0.22178 0.26880 0.00000 0.00000 -1.00000 -0.44957 -0.85305 0.26495 0.00000 0.00000 -1.00000 0.11027 -0.95667 0.26949 0.00000 -0.00000 -1.00000 0.66276 -0.69072 0.28924 0.00000 0.00000 -1.00000 0.93988 0.20568 0.27261 0.00000 0.00000 -1.00000 0.59518 0.76208 0.25495 0.00000 0.00000 -1.00000 0.17026 0.95284 0.25121 0.00000 0.00000 -1.00000 0.28613 -0.87146 0.39835 0.00000 0.00000 -1.00000 0.75833 -0.51352 0.40153 0.00000 0.00000 -1.00000 0.89890 0.17181 0.40306 0.00000 0.00000 -1.00000 0.60606 0.68514 0.40407 0.00000 0.00000 -1.00000 0.00744 0.91267 0.40864 0.00000 0.00000 -1.00000 -0.65339 0.64590 0.39483 0.00000 0.00000 -1.00000 -0.88412 0.25260 0.39309 -0.00000 0.00000 -1.00000 -0.79262 -0.44607 0.41567 0.00000 0.00000 -1.00000 -0.25884 -0.87944 0.39948 0.00000 -0.00000 -1.00000 -0.69455 -0.51641 0.50092 0.00000 0.00000 -1.00000 -0.07144 -0.86271 0.50063 0.00000 -0.00000 -1.00000 0.41091 -0.76200 0.50051 0.00000 0.00000 -1.00000 0.83473 -0.23356 0.49867 0.00000 0.00000 -1.00000 0.79334 0.34718 0.50008 0.00000 0.00000 -1.00000 0.52238 0.68566 0.50694 0.00000 0.00000 -1.00000 -0.26227 0.82985 0.49251 0.00000 0.00000 -1.00000 -0.62257 0.61363 0.48566 0.00000 0.00000 -1.00000 -0.86954 -0.05349 0.49096 -0.00000 0.00000 -1.00000 0.77558 0.56889 0.27356 0.00000 0.00000 -1.00000 0.47111 0.84004 0.26904 0.00000 0.00000 -1.00000 -0.48920 0.82242 0.29034 0.00000 0.00000 -1.00000 -0.84060 0.46736 0.27379 0.00000 0.00000 -1.00000 -0.94193 -0.16975 0.28976 -0.00000 0.00000 -1.00000 -0.48283 -0.83085 0.27672 0.00000 0.00000 -1.00000 -0.11011 -0.95857 0.26271 0.00000 -0.00000 -1.00000 0.50141 -0.82275 0.26769 0.00000 0.00000 -1.00000 0.90571 -0.30764 0.29163 0.00000 0.00000 -1.00000 0.97172 0.05515 0.22960 0.00000 0.00000 -1.00000 0.83200 0.50245 0.23523 0.00000 0.00000 -1.00000 -0.06474 0.96949 0.23642 0.00000 0.00000 -1.00000 -0.48704 0.84468 0.22203 0.00000 0.00000 -1.00000 -0.94608 0.23445 0.22354 -0.00000 0.00000 -1.00000 -0.90397 -0.35980 0.23106 0.00000 0.00000 -1.00000 -0.57936 -0.77589 0.24969 0.00000 0.00000 -1.00000 0.35908 -0.90161 0.24118 0.00000 -0.00000 -1.00000 0.81192 -0.53488 0.23385 0.00000 0.00000 -1.00000 -0.80306 -0.52471 0.28246 0.00000 0.00000 -1.00000 -0.07126 -0.95176 0.29847 0.00000 -0.00000 -1.00000 0.49842 -0.81727 0.28922 0.00000 0.00000 -1.00000 0.91798 -0.28511 0.27573 0.00000 0.00000 -1.00000 0.91295 0.29555 0.28138 0.00000 0.00000 -1.00000 0.45694 0.83903 0.29536 0.00000 0.00000 -1.00000 -0.30367 0.90695 0.29194 0.00000 0.00000 -1.00000 -0.79611 0.53901 0.27508 0.00000 0.00000 -1.00000 -0.96125 -0.02368 0.27468 -0.00000 0.00000 -1.00000 -0.71814 0.65766 0.22752 0.00000 0.00000 -1.00000 -0.93950 -0.25911 0.22406 -0.00000 0.00000 -1.00000 -0.76604 -0.60637 0.21330 0.00000 0.00000 -1.00000 -0.20766 -0.95464 0.21341 0.00000 -0.00000 -1.00000 0.50633 -0.83445 0.21752 0.00000 0.00000 -1.00000 0.95512 -0.19465 0.22330 0.00000 0.00000 -1.00000 0.85126 0.47300 0.22724 0.00000 0.00000 -1.00000 0.31689 0.92236 0.22100 0.00000 0.00000 -1.00000 -0.07611 0.97357 0.21533 0.00000 0.00000 -1.00000 0.14933 0.92837 0.34033 0.00000 0.00000 -1.00000 -0.41148 0.83988 0.35396 0.00000 0.00000 -1.00000 -0.88900 0.28152 0.36114 0.00000 0.00000 -1.00000 -0.88235 -0.31446 0.35011 -0.00000 0.00000 -1.00000 -0.52321 -0.77996 0.34339 0.00000 0.00000 -1.00000 0.09045 -0.92859 0.35991 0.00000 -0.00000 -1.00000 0.75225 -0.55899 0.34878 0.00000 0.00000 -1.00000 0.93041 -0.11313 0.34863 0.00000 0.00000 -1.00000 0.69880 0.61836 0.35960 0.00000 0.00000 -1.00000 0.33634 0.79054 0.51178 0.00000 0.00000 -1.00000 -0.25454 0.81033 0.52780 0.00000 0.00000 -1.00000 -0.73505 0.43261 0.52207 0.00000 0.00000 -1.00000 -0.83464 -0.17899 0.52090 -0.00000 0.00000 -1.00000 -0.55192 -0.65265 0.51906 0.00000 0.00000 -1.00000 -0.03601 -0.86028 0.50855 0.00000 -0.00000 -1.00000 0.51501 -0.67458 0.52888 0.00000 0.00000 -1.00000 0.83549 -0.16852 0.52303 0.00000 0.00000 -1.00000 0.71980 0.46386 0.51645 0.00000 0.00000 -1.00000 0.69007 0.67515 0.26073 0.00000 0.00000 -1.00000 0.46132 0.84881 0.25829 0.00000 0.00000 -1.00000 -0.38175 0.88518 0.26595 0.00000 0.00000 -1.00000 -0.77228 0.56388 0.29262 0.00000 0.00000 -1.00000 -0.88599 -0.37211 0.27670 -0.00000 0.00000 -1.00000 -0.62911 -0.72731 0.27432 0.00000 0.00000 -1.00000 -0.05945 -0.95636 0.28606 0.00000 -0.00000 -1.00000 0.68658 -0.67011 0.28207 0.00000 0.00000 -1.00000 0.96045 -0.08946 0.26370 0.00000 0.00000 -1.00000 -0.85929 -0.34232 0.38004 0.00000 0.00000 -1.00000 -0.38521 -0.83180 0.39966 0.00000 0.00000 -1.00000 0.29519 -0.86717 0.40109 0.00000 -0.00000 -1.00000 0.79504 -0.45952 0.39592 0.00000 0.00000 -1.00000 0.91420 0.11916 0.38734 0.00000 0.00000 -1.00000 0.58935 0.71617 0.37384 0.00000 0.00000 -1.00000 0.10009 0.92657 0.36257 0.00000 0.00000 -1.00000 -0.38347 0.84252 0.37829 0.00000 0.00000 -1.00000 -0.91413 0.12273 0.38640 -0.00000 0.00000 -1.00000 -0.82599 0.33567 0.45283 0.00000 0.00000 -1.00000 -0.86142 -0.23438 0.45058 -0.00000 0.00000 -1.00000 -0.54474 -0.69881 0.46360 0.00000 0.00000 -1.00000 0.17688 -0.87445 0.45173 0.00000 -0.00000 -1.00000 0.59565 -0.67184 0.44026 0.00000 0.00000 -1.00000 0.89370 -0.06410 0.44406 0.00000 0.00000 -1.00000 0.81367 0.36761 0.45034 0.00000 0.00000 -1.00000 0.16516 0.87775 0.44976 0.00000 0.00000 -1.00000 -0.31559 0.83439 0.45188 0.00000 0.00000 -1.00000 -0.03861 0.92688 0.37337 0.00000 0.00000 -1.00000 -0.59009 0.71545 0.37406 0.00000 0.00000 -1.00000 -0.90878 0.16213 0.38449 -0.00000 0.00000 -1.00000 -0.68527 -0.62454 0.37463 0.00000 0.00000 -1.00000 -0.28588 -0.88276 0.37284 0.00000 -0.00000 -1.00000 0.34264 -0.86314 0.37093 0.00000 0.00000 -1.00000 0.78058 -0.49509 0.38155 0.00000 0.00000 -1.00000 0.83192 0.40678 0.37741 0.00000 0.00000 -1.00000 0.67292 0.64158 0.36817 0.00000 0.00000 -1.00000 -0.41680 -0.72171 0.55264 0.00000 0.00000 -1.00000 0.12771 -0.83258 0.53898 0.00000 -0.00000 -1.00000 0.57211 -0.61820 0.53900 0.00000 0.00000 -1.00000 0.84120 0.03724 0.53944 0.00000 0.00000 -1.00000 0.70201 0.46716 0.53753 0.00000 0.00000 -1.00000 0.13818 0.82910 0.54175 0.00000 0.00000 -1.00000 -0.30122 0.78977 0.53435 0.00000 0.00000 -1.00000 -0.77169 0.34100 0.53686 0.00000 0.00000 -1.00000 -0.82043 -0.15941 0.54907 -0.00000 0.00000 -1.00000 -0.95930 0.11719 0.25693 -0.00000 0.00000 -1.00000 -0.88861 -0.38406 0.25076 0.00000 0.00000 -1.00000 -0.51913 -0.81252 0.26517 0.00000 0.00000 -1.00000 0.39514 -0.87869 0.26790 0.00000 -0.00000 -1.00000 0.78289 -0.55554 0.28012 0.00000 0.00000 -1.00000 0.94669 0.18200 0.26581 0.00000 0.00000 -1.00000 0.62992 0.73506 0.25078 0.00000 0.00000 -1.00000 0.02323 0.96864 0.24737 0.00000 0.00000 -1.00000 -0.45601 0.85403 0.25038 0.00000 0.00000 -1.00000 -0.10559 0.93054 0.35064 0.00000 0.00000 -1.00000 -0.72811 0.59706 0.33672 0.00000 0.00000 -1.00000 -0.93895 0.08749 0.33275 -0.00000 0.00000 -1.00000 -0.55232 -0.76909 0.32164 0.00000 0.00000 -1.00000 -0.25723 -0.91260 0.31779 0.00000 -0.00000 -1.00000 0.38851 -0.85711 0.33826 0.00000 0.00000 -1.00000 0.86845 -0.37231 0.32737 0.00000 0.00000 -1.00000 0.87480 0.35415 0.33061 0.00000 0.00000 -1.00000 0.50592 0.78885 0.34894 0.00000 0.00000 -1.00000 -0.19169 -0.96733 0.16593 0.00000 -0.00000 -1.00000 0.53335 -0.82747 0.17558 0.00000 0.00000 -1.00000 0.98551 -0.05844 0.15922 0.00000 0.00000 -1.00000 0.96697 0.19958 0.15853 0.00000 0.00000 -1.00000 0.14926 0.97474 0.16616 0.00000 0.00000 -1.00000 -0.34977 0.92359 0.15695 0.00000 0.00000 -1.00000 -0.77215 0.61561 0.15751 0.00000 0.00000 -1.00000 -0.98751 0.01570 0.15675 -0.00000 0.00000 -1.00000 -0.61944 -0.76872 0.15929 0.00000 0.00000 -1.00000 0.44645 0.83609 0.31879 0.00000 0.00000 -1.00000 -0.19014 0.91989 0.34300 0.00000 0.00000 -1.00000 -0.85652 0.39185 0.33589 0.00000 0.00000 -1.00000 -0.94268 -0.08348 0.32308 -0.00000 0.00000 -1.00000 -0.56863 -0.75063 0.33646 0.00000 0.00000 -1.00000 0.03464 -0.94808 0.31613 0.00000 -0.00000 -1.00000 0.38099 -0.86321 0.33124 0.00000 0.00000 -1.00000 0.94098 -0.04072 0.33599 0.00000 0.00000 -1.00000 0.84227 0.43596 0.31704 0.00000 0.00000 -1.00000 0.54642 0.76697 0.33644 0.00000 0.00000 -1.00000 -0.22600 0.90837 0.35182 0.00000 0.00000 -1.00000 -0.75776 0.56327 0.32944 0.00000 0.00000 -1.00000 -0.94098 0.06346 0.33246 -0.00000 0.00000 -1.00000 -0.79296 -0.51164 0.33082 0.00000 0.00000 -1.00000 -0.14218 -0.93512 0.32456 0.00000 -0.00000 -1.00000 0.50502 -0.80030 0.32323 0.00000 0.00000 -1.00000 0.81163 -0.47932 0.33391 0.00000 0.00000 -1.00000 0.85688 0.38288 0.34520 0.00000 0.00000 -1.00000</float_array><technique_common><accessor source="#normals-array" count="540" stride="3"><param name="X" type="float"/><param name="Y" type="float"/><param name="Z" type="float"/></accessor></technique_common></source>
<vertices id="vertices"><input semantic="POSITION" source="#positions"/></vertices><triangles count="540"><input semantic="VERTEX" source="#vertices" offset="0"/><input semantic="NORMAL" source="#normals" offset="1"/><p>0 0 1 0 9 0 10 1 1 1 0 1 1 2 2 2 9 2 10 3 2 3 1 3 2 4 3 4 9 4 10 5 3 5 2 5 3 6 4 6 9 6 10 7 4 7 3 7 4 8 5 8 9 8 10 9 5 9 4 9 5 10 6 10 9 10 10 11 6 11 5 11 6 12 7 12 9 12 10 13 7 13 6 13 7 14 8 14 9 14 10 15 8 15 7 15 8 16 0 16 9 16 10 17 0 17 8 17 11 18 12 18 20 18 21 19 12 19 11 19 12 20 13 20 20 20 21 21 13 21 12 21 13 22 14 22 20 22 21 23 14 23 13 23 14 24 15 24 20 24 21 25 15 25 14 25 15 26 16 26 20 26 21 27 16 27 15 27 16 28 17 28 20 28 21 29 17 29 16 29 17 30 18 30 20 30 21 31 18 31 17 31 18 32 19 32 20 32 21 33 19 33 18 33 19 34 11 34 20 34 21 35 11 35 19 35 22 36 23 36 31 36 32 37 23 37 22 37 23 38 24 38 31 38 32 39 24 39 23 39 24 40 25 40 31 40 32 41 25 41 24 41 25 42 26 42 31 42 32 43 26 43 25 43 26 44 27 44 31 44 32 45 27 45 26 45 27 46 28 46 31 46 32 47 28 47 27 47 28 48 29 48 31 48 32 49 29 49 28 49 29 50 30 50 31 50 32 51 30 51 29 51 30 52 22 52 31 52 32 53 22 53 30 53 33 54 34 54 42 54 43 55 34 55 33 55 34 56 35 56 42 56 43 57 35 57 34 57 35 58 36 58 42 58 43 59 36 59 35 59 36 60 37 60 42 60 43 61 37 61 36 61 37 62 38 62 42 62 43 63 38 63 37 63 38 64 39 64 42 64 43 65 39 65 38 65 39 66 40 66 42 66 43 67 40 67 39 67 40 68 41 68 42 68 43 69 41 69 40 69 41 70 33 70 42 70 43 71 33 71 41 71 44 72 45 72 53 72 54 73 45 73 44 73 45 74 46 74 53 74 54 75 46 75 45 75 46 76 47 76 53 76 54 77 47 77 46 77 47 78 48 78 53 78 54 79 48 79 47 79 48 80 49 80 53 80 54 81 49 81 48 81 49 82 50 82 53 82 54 83 50 83 49 83 50 84 51 84 53 84 54 85 51 85 50 85 51 86 52 86 53 86 54 87 52 87 51 87 52 88 44 88 53 88 54 89 44 89 52 89 55 90 56 90 64 90 65 91 56 91 55 91 56 92 57 92 64 92 65 93 57 93 56 93 57 94 58 94 64 94 65 95 58 95 57 95 58 96 59 96 64 96 65 97 59 97 58 97 59 98 60 98 64 98 65 99 60 99 59 99 60 100 61 100 64 100 65 101 61 101 60 101 61 102 62 102 64 102 65 103 62 103 61 103 62 104 63 104 64 104 65 105 63 105 62 105 63 106 55 106 64 106 65 107 55 107 63 107 66 108 67 108 75 108 76 109 67 109 66 109 67 110 68 110 75 110 76 111 68 111 67 111 68 112 69 112 75 112 76 113 69 113 68 113 69 114 70 114 75 114 76 115 70 115 69 115 70 116 71 116 75 116 76 117 71 117 70 117 71 118 72 118 75 118 76 119 72 119 71 119 72 120 73 120 75 120 76 121 73 121 72 121 73 122 74 122 75 122 76 123 74 123 73 123 74 124 66 124 75 124 76 125 66 125 74 125 77 126 78 126 86 126 87 127 78 127 77 127 78 128 79 128 86 128 87 129 79 129 78 129 79 130 80 130 86 130 87 131 80 131 79 131 80 132 81 132 86 132 87 133 81 133 80 133 81 134 82 134 86 134 87 135 82 135 81 135 82 136 83 136 86 136 87 137 83 137 82 137 83 138 84 138 86 138 87 139 84 139 83 139 84 140 85 140 86 140 87 141 85 141 84 141 85 142 77 142 86 142 87 143 77 143 85 143 88 144 89 144 97 144 98 145 89 145 88 145 89 146 90 146 97 146 98 147 90 147 89 147 90 148 91 148 97 148 98 149 91 149 90 149 91 150 92 150 97 150 98 151 92 151 91 151 92 152 93 152 97 152 98 153 93 153 92 153 93 154 94 154 97 154 98 155 94 155 93 155 94 156 95 156 97 156 98 157 95 157 94 157 95 158 96 158 97 158 98 159 96 159 95 159 96 160 88 160 97 160 98 161 88 161 96 161 99 162 100 162 108 162 109 163 100 163 99 163 100 164 101 164 108 164 109 165 101 165 100 165 101 166 102 166 108 166 109 167 102 167 101 167 102 168 103 168 108 168 109 169 103 169 102 169 103 170 104 170 108 170 109 171 104 171 103 171 104 172 105 172 108 172 109 173 105 173 104 173 105 174 106 174 108 174 109 175 106 175 105 175 106 176 107 176 108 176 109 177 107 177 106 177 107 178 99 178 108 178 109 179 99 179 107 179 110 180 111 180 119 180 120 181 111 181 110 181 111 182 112 182 119 182 120 183 112 183 111 183 112 184 113 184 119 184 120 185 113 185 112 185 113 186 114 186 119 186 120 187 114 187 113 187 114 188 115 188 119 188 120 189 115 189 114 189 115 190 116 190 119 190 120 191 116 191 115 191 116 192 117 192 119 192 120 193 117 193 116 193 117 194 118 194 119 194 120 195 118 195 117 195 118 196 110 196 119 196 120 197 110 197 118 197 121 198 122 198 130 198 131 199 122 199 121 199 122 200 123 200 130 200 131 201 123 201 122 201 123 202 124 202 130 202 131 203 124 203 123 203 124 204 125 204 130 204 131 205 125 205 124 205 125 206 126 206 130 206 131 207 126 207 125 207 126 208 127 208 130 208 131 209 127 209 126 209 127 210 128 210 130 210 131 211 128 211 127 211 128 212 129 212 130 212 131 213 129 213 128 213 129 214 121 214 130 214 131 215 121 215 129 215 132 216 133 216 141 216 142 217 133 217 132 217 133 218 134 218 141 218 142 219 134 219 133 219 134 220 135 220 141 220 142 221 135 221 134 221 135 222 136 222 141 222 142 223 136 223 135 223 136 224 137 224 141 224 142 225 137 225 136 225 137 226 138 226 141 226 142 227 138 227 137 227 138 228 139 228 141 228 142 229 139 229 138 229 139 230 140 230 141 230 142 231 140 231 139 231 140 232 132 232 141 232 142 233 132 233 140 233 143 234 144 234 152 234 153 235 144 235 143 235 144 236 145 236 152 236 153 237 145 237 144 237 145 238 146 238 152 238 153 239 146 239 145 239 146 240 147 240 152 240 153 241 147 241 146 241 147 242 148 242 152 242 153 243 148 243 147 243 148 244 149 244 152 244 153 245 149 245 148 245 149 246 150 246 152 246 153 247 150 247 149 247 150 248 151 248 152 248 153 249 151 249 150 249 151 250 143 250 152 250 153 251 143 251 151 251 154 252 155 252 163 252 164 253 155 253 154 253 155 254 156 254 163 254 164 255 156 255 155 255 156 256 157 256 163 256 164 257 157 257 156 257 157 258 158 258 163 258 164 259 158 259 157 259 158 260 159 260 163 260 164 261 159 261 158 261 159 262 160 262 163 262 164 263 160 263 159 263 160 264 161 264 163 264 164 265 161 265 160 265 161 266 162 266 163 266 164 267 162 267 161 267 162 268 154 268 163 268 164 269 154 269 162 269 165 270 166 270 174 270 175 271 166 271 165 271 166 272 167 272 174 272 175 273 167 273 166 273 167 274 168 274 174 274 175 275 168 275 167 275 168 276 169 276 174 276 175 277 169 277 168 277 169 278 170 278 174 278 175 279 170 279 169 279 170 280 171 280 174 280 175 281 171 281 170 281 171 282 172 282 174 282 175 283 172 283 171 283 172 284 173 284 174 284 175 285 173 285 172 285 173 286 165 286 174 286 175 287 165 287 173 287 176 288 177 288 185 288 186 289 177 289 176 289 177 290 178 290 185 290 186 291 178 291 177 291 178 292 179 292 185 292 186 293 179 293 178 293 179 294 180 294 185 294 186 295 180 295 179 295 180 296 181 296 185 296 186 297 181 297 180 297 181 298 182 298 185 298 186 299 182 299 181 299 182 300 183 300 185 300 186 301 183 301 182 301 183 302 184 302 185 302 186 303 184 303 183 303 184 304 176 304 185 304 186 305 176 305 184 305 187 306 188 306 196 306 197 307 188 307 187 307 188 308 189 308 196 308 197 309 189 309 188 309 189 310 190 310 196 310 197 311 190 311 189 311 190 312 191 312 196 312 197 313 191 313 190 313 191 314 192 314 196 314 197 315 192 315 191 315 192 316 193 316 196 316 197 317 193 317 192 317 193 318 194 318 196 318 197 319 194 319 193 319 194 320 195 320 196 320 197 321 195 321 194 321 195 322 187 322 196 322 197 323 187 323 195 323 198 324 199 324 207 324 208 325 199 325 198 325 199 326 200 326 207 326 208 327 200 327 199 327 200 328 201 328 207 328 208 329 201 329 200 329 201 330 202 330 207 330 208 331 202 331 201 331 202 332 203 332 207 332 208 333 203 333 202 333 203 334 204 334 207 334 208 335 204 335 203 335 204 336 205 336 207 336 208 337 205 337 204 337 205 338 206 338 207 338 208 339 206 339 205 339 206 340 198 340 207 340 208 341 198 341 206 341 209 342 210 342 218 342 219 343 210 343 209 343 210 344 211 344 218 344 219 345 211 345 210 345 211 346 212 346 218 346 219 347 212 347 211 347 212 348 213 348 218 348 219 349 213 349 212 349 213 350 214 350 218 350 219 351 214 351 213 351 214 352 215 352 218 352 219 353 215 353 214 353 215 354 216 354 218 354 219 355 216 355 215 355 216 356 217 356 218 356 219 357 217 357 216 357 217 358 209 358 218 358 219 359 209 359 217 359 220 360 221 360 229 360 230 361 221 361 220 361 221 362 222 362 229 362 230 363 222 363 221 363 222 364 223 364 229 364 230 365 223 365 222 365 223 366 224 366 229 366 230 367 224 367 223 367 224 368 225 368 229 368 230 369 225 369 224 369 225 370 226 370 229 370 230 371 226 371 225 371 226 372 227 372 229 372 230 373 227 373 226 373 227 374 228 374 229 374 230 375 228 375 227 375 228 376 220 376 229 376 230 377 220 377 228 377 231 378 232 378 240 378 241 379 232 379 231 379 232 380 233 380 240 380 241 381 233 381 232 381 233 382 234 382 240 382 241 383 234 383 233 383 234 384 235 384 240 384 241 385 235 385 234 385 235 386 236 386 240 386 241 387 236 387 235 387 236 388 237 388 240 388 241 389 237 389 236 389 237 390 238 390 240 390 241 391 238 391 237 391 238 392 239 392 240 392 241 393 239 393 238 393 239 394 231 394 240 394 241 395 231 395 239 395 242 396 243 396 251 396 252 397 243 397 242 397 243 398 244 398 251 398 252 399 244 399 243 399 244 400 245 400 251 400 252 401 245 401 244 401 245 402 246 402 251 402 252 403 246 403 245 403 246 404 247 404 251 404 252 405 247 405 246 405 247 406 248 406 251 406 252 407 248 407 247 407 248 408 249 408 251 408 252 409 249 409 248 409 249 410 250 410 251 410 252 411 250 411 249 411 250 412 242 412 251 412 252 413 242 413 250 413 253 414 254 414 262 414 263 415 254 415 253 415 254 416 255 416 262 416 263 417 255 417 254 417 255 418 256 418 262 418 263 419 256 419 255 419 256 420 257 420 262 420 263 421 257 421 256 421 257 422 258 422 262 422 263 423 258 423 257 423 258 424 259 424 262 424 263 425 259 425 258 425 259 426 260 426 262 426 263 427 260 427 259 427 260 428 261 428 262 428 263 429 261 429 260 429 261 430 253 430 262 430 263 431 253 431 261 431 264 432 265 432 273 432 274 433 265 433 264 433 265 434 266 434 273 434 274 435 266 435 265 435 266 436 267 436 273 436 274 437 267 437 266 437 267 438 268 438 273 438 274 439 268 439 267 439 268 440 269 440 273 440 274 441 269 441 268 441 269 442 270 442 273 442 274 443 270 443 269 443 270 444 271 444 273 444 274 445 271 445 270 445 271 446 272 446 273 446 274 447 272 447 271 447 272 448 264 448 273 448 274 449 264 449 272 449 275 450 276 450 284 450 285 451 276 451 275 451 276 452 277 452 284 452 285 453 277 453 276 453 277 454 278 454 284 454 285 455 278 455 277 455 278 456 279 456 284 456 285 457 279 457 278 457 279 458 280 458 284 458 285 459 280 459 279 459 280 460 281 460 284 460 285 461 281 461 280 461 281 462 282 462 284 462 285 463 282 463 281 463 282 464 283 464 284 464 285 465 283 465 282 465 283 466 275 466 284 466 285 467 275 467 283 467 286 468 287 468 295 468 296 469 287 469 286 469 287 470 288 470 295 470 296 471 288 471 287 471 288 472 289 472 295 472 296 473 289 473 288 473 289 474 290 474 295 474 296 475 290 475 289 475 290 476 291 476 295 476 296 477 291 477 290 477 291 478 292 478 295 478 296 479 292 479 291 479 292 480 293 480 295 480 296 481 293 481 292 481 293 482 294 482 295 482 296 483 294 483 293 483 294 484 286 484 295 484 296 485 286 485 294 485 297 486 298 486 306 486 307 487 298 487 297 487 298 488 299 488 306 488 307 489 299 489 298 489 299 490 300 490 306 490 307 491 300 491 299 491 300 492 301 492 306 492 307 493 301 493 300 493 301 494 302 494 306 494 307 495 302 495 301 495 302 496 303 496 306 496 307 497 303 497 302 497 303 498 304 498 306 498 307 499 304 499 303 499 304 500 305 500 306 500 307 501 305 501 304 501 305 502 297 502 306 502 307 503 297 503 305 503 308 504 309 504 317 504 318 505 309 505 308 505 309 506 310 506 317 506 318 507 310 507 309 507 310 508 311 508 317 508 318 509 311 509 310 509 311 510 312 510 317 510 318 511 312 511 311 511 312 512 313 512 317 512 318 513 313 513 312 513 313 514 314 514 317 514 318 515 314 515 313 515 314 516 315 516 317 516 318 517 315 517 314 517 315 518 316 518 317 518 318 519 316 519 315 519 316 520 308 520 317 520 318 521 308 521 316 521 319 522 320 522 328 522 329 523 320 523 319 523 320 524 321 524 328 524 329 525 321 525 320 525 321 526 322 526 328 526 329 527 322 527 321 527 322 528 323 528 328 528 329 529 323 529 322 529 323 530 324 530 328 530 329 531 324 531 323 531 324 532 325 532 328 532 329 533 325 533 324 533 325 534 326 534 328 534 329 535 326 535 325 535 326 536 327 536 328 536 329 537 327 537 326 537 327 538 319 538 328 538 329 539 319 539 327 539</p></triangles>
</mesh></geometry></library_geometries><library_visual_scenes><visual_scene id="Scene"><node id="mesh"><instance_geometry url="#geometry"/></node></visual_scene></library_visual_scenes><scene><instance_visual_scene url="#Scene"/></scene></COLLADA>