<?xml version="1.0" encoding="UTF-8"?>
<COLLADA xmlns="http://www.collada.org/2005/11/COLLADASchema" version="1.4.1">
<asset><contributor><authoring_tool>Summit Estate procedural mesh exporter</authoring_tool></contributor><created>2026-09-11T00:00:00Z</created><modified>2026-09-11T00:00:00Z</modified><unit name="meter" meter="1"/><up_axis>Z_UP</up_axis></asset>
<library_geometries><geometry id="geometry" name="geometry"><mesh>
<source id="positions"><float_array id="positions-array" count="990">-20.26815 246.39395 80.75667 -21.62648 249.50047 80.75667 -24.87119 250.34567 80.75667 -27.62365 249.49808 80.75667 -29.17366 246.84195 80.75667 -28.79456 243.89351 80.75667 -26.35762 241.51825 80.75667 -23.56187 241.26544 80.75667 -20.67979 243.52238 80.75667 -24.83612 245.87211 92.18044 -24.83612 245.87211 80.75667 -57.83497 28.54919 85.56756 -57.83211 29.81707 85.56756 -58.37729 30.99535 85.56756 -59.17465 31.32467 85.56756 -60.63222 30.90846 85.56756 -61.41233 30.04756 85.56756 -61.01624 28.62642 85.56756 -60.00205 27.89651 85.56756 -58.94042 27.88117 85.56756 -59.49096 29.60519 92.67939 -59.49096 29.60519 85.56756 -68.90311 11.30147 78.56695 -71.17105 11.37616 78.56695 -72.71482 9.47071 78.56695 -72.78138 7.56720 78.56695 -71.67341 5.73704 78.56695 -69.25914 4.86748 78.56695 -67.52969 5.94213 78.56695 -66.57862 7.88783 78.56695 -67.02512 10.23573 78.56695 -69.73246 8.29954 87.79341 -69.73246 8.29954 78.56695 -31.66668 242.36298 89.04518 -30.22979 241.35040 89.04518 -28.31603 241.32622 89.04518 -27.01920 242.12343 89.04518 -26.75396 244.06605 89.04518 -27.50364 245.66280 89.04518 -28.93826 246.32753 89.04518 -30.93883 245.71989 89.04518 -32.04810 244.56621 89.04518 -29.25544 243.74125 98.14067 -29.25544 243.74125 89.04518 -78.75682 26.20485 69.96014 -80.32395 25.31247 69.96014 -80.81572 24.24869 69.96014 -80.42634 22.62113 69.96014 -79.47847 21.52920 69.96014 -77.58906 21.38427 69.96014 -76.47372 22.53966 69.96014 -76.19666 24.18087 69.96014 -77.12750 25.60292 69.96014 -78.60806 23.69121 75.78280 -78.60806 23.69121 69.96014 -34.34683 244.43051 85.77434 -32.69761 244.26819 85.77434 -31.15691 245.24035 85.77434 -30.56723 246.86085 85.77434 -31.40625 248.31876 85.77434 -32.96145 249.30254 85.77434 -34.40565 248.81257 85.77434 -35.73810 247.34161 85.77434 -35.38440 245.65900 85.77434 -33.21656 246.79180 92.72150 -33.21656 246.79180 85.77434 -60.22818 2.63967 86.50536 -60.06722 3.64376 86.50536 -61.22182 4.21236 86.50536 -61.94548 4.30561 86.50536 -62.52694 3.71617 86.50536 -62.79974 2.56893 86.50536 -62.39435 1.76094 86.50536 -61.52546 1.68746 86.50536 -60.68566 1.82471 86.50536 -61.49194 3.00536 94.09497 -61.49194 3.00536 86.50536 -119.06137 1.26253 63.21592 -117.44202 1.63765 63.21592 -116.65097 2.80016 63.21592 -116.76796 4.24583 63.21592 -117.89537 5.40328 63.21592 -119.11391 5.24795 63.21592 -120.45436 4.39408 63.21592 -120.78835 3.46506 63.21592 -120.35638 2.01471 63.21592 -118.69739 3.39366 71.38778 -118.69739 3.39366 63.21592 -85.30708 18.81762 64.56579 -83.87695 17.41729 64.56579 -82.11355 17.11721 64.56579 -80.30289 18.60545 64.56579 -79.74635 20.29640 64.56579 -81.05796 22.12072 64.56579 -82.58241 23.06087 64.56579 -84.46555 22.64533 64.56579 -85.72228 20.53268 64.56579 -82.88952 20.08847 70.45860 -82.88952 20.08847 64.56579 -67.39114 3.65931 74.23471 -68.21039 5.29581 74.23471 -70.02072 6.05580 74.23471 -71.49873 5.60005 74.23471 -72.73327 4.58909 74.23471 -72.57287 2.40517 74.23471 -71.19895 1.40795 74.23471 -69.49991 1.27680 74.23471 -67.98129 1.93072 74.23471 -70.13307 3.62493 84.17465 -70.13307 3.62493 74.23471 -24.16369 236.23091 88.30088 -25.18369 235.86446 88.30088 -25.93438 234.87920 88.30088 -25.60496 233.73439 88.30088 -24.91279 233.12530 88.30088 -23.98961 233.06160 88.30088 -22.72350 233.64618 88.30088 -22.50469 234.53632 88.30088 -22.95396 235.68431 88.30088 -24.24929 234.53459 96.83076 -24.24929 234.53459 88.30088 -56.72993 5.52404 80.97125 -59.13693 5.17965 80.97125 -60.44970 3.86576 80.97125 -61.04240 1.31104 80.97125 -59.70168 -0.59289 80.97125 -57.30722 -1.31477 80.97125 -55.37523 -0.49019 80.97125 -54.05175 1.83962 80.97125 -54.69256 3.80470 80.97125 -57.56879 2.13623 89.29977 -57.56879 2.13623 80.97125 -63.73626 1.76150 81.37937 -61.84453 3.29390 81.37937 -61.11544 5.70230 81.37937 -62.36803 8.09637 81.37937 -64.70018 9.04427 81.37937 -67.16026 8.14522 81.37937 -68.51199 6.05689 81.37937 -68.34354 3.90486 81.37937 -66.48599 2.13576 81.37937 -64.85607 5.30394 90.05736 -64.85607 5.30394 81.37937 -18.83385 229.39522 81.44544 -17.23921 228.63594 81.44544 -15.33903 228.70255 81.44544 -13.85886 230.11247 81.44544 -13.94097 231.70198 81.44544 -14.72221 233.44182 81.44544 -16.88087 233.74108 81.44544 -18.40902 233.02480 81.44544 -19.34258 231.38647 81.44544 -16.43987 231.08878 86.28546 -16.43987 231.08878 81.44544 -13.68719 240.09545 80.11334 -13.72456 242.44976 80.11334 -15.16524 244.36622 80.11334 -17.74800 244.95827 80.11334 -20.14254 243.92174 80.11334 -20.96714 241.71654 80.11334 -19.89990 239.10035 80.11334 -18.03929 237.66093 80.11334 -15.64912 238.27845 80.11334 -17.23134 241.38397 88.30447 -17.23134 241.38397 80.11334 -67.74438 11.04273 74.41197 -66.10510 13.61301 74.41197 -66.80060 16.81649 74.41197 -69.38635 18.59212 74.41197 -72.07102 18.40407 74.41197 -74.76647 16.40200 74.41197 -75.17203 13.46836 74.41197 -73.52329 11.02388 74.41197 -70.69075 9.82651 74.41197 -70.67370 14.37144 86.02318 -70.67370 14.37144 74.41197 -60.53816 12.90612 85.65466 -58.97209 12.05151 85.65466 -56.97140 12.47220 85.65466 -55.76095 13.79043 85.65466 -55.89356 15.52505 85.65466 -57.04626 17.33968 85.65466 -58.84389 17.73993 85.65466 -60.44902 16.73607 85.65466 -61.36198 14.69327 85.65466 -58.40256 14.77054 95.30067 -58.40256 14.77054 85.65466 -107.46408 3.73240 53.71770 -109.50758 2.97422 53.71770 -110.35723 0.86972 53.71770 -109.76468 -1.31373 53.71770 -108.10624 -2.62435 53.71770 -106.04002 -2.74320 53.71770 -104.02809 -1.10392 53.71770 -104.14207 1.11304 53.71770 -105.45106 2.88639 53.71770 -107.19983 0.41631 63.61518 -107.19983 0.41631 53.71770 -58.13205 239.30545 67.63758 -60.15693 239.18414 67.63758 -61.84419 237.64980 67.63758 -61.79018 235.67127 67.63758 -60.83390 233.67907 67.63758 -58.72348 233.38756 67.63758 -56.65687 234.10951 67.63758 -56.06366 235.78600 67.63758 -56.35180 238.10311 67.63758 -58.92196 236.24671 75.89404 -58.92196 236.24671 67.63758 -102.29433 8.28606 56.18353 -105.19785 8.20751 56.18353 -106.96238 6.73743 56.18353 -107.79199 4.65595 56.18353 -107.00774 2.07490 56.18353 -104.67278 0.88236 56.18353 -101.79555 1.47314 56.18353 -100.41156 3.61198 56.18353 -100.90732 6.43046 56.18353 -104.12498 4.76650 62.47044 -104.12498 4.76650 56.18353 -10.94835 229.88789 85.79246 -11.47137 230.86497 85.79246 -12.76644 230.77991 85.79246 -13.36011 230.11225 85.79246 -13.26633 229.17169 85.79246 -12.99011 228.56625 85.79246 -12.01938 228.06543 85.79246 -11.25179 228.55489 85.79246 -10.78563 229.24886 85.79246 -12.14814 229.40605 91.50978 -12.14814 229.40605 85.79246 -76.33528 3.79148 75.56939 -75.55995 2.48727 75.56939 -74.08241 2.26321 75.56939 -72.94713 3.01306 75.56939 -72.45119 4.43633 75.56939 -73.12405 5.83614 75.56939 -73.99631 6.56307 75.56939 -75.61102 6.25552 75.56939 -76.65983 5.00937 75.56939 -74.55170 4.47393 81.55051 -74.55170 4.47393 75.56939 -22.72187 250.78924 85.12321 -22.95865 248.75923 85.12321 -22.06382 247.23535 85.12321 -20.39326 246.49691 85.12321 -18.84350 247.07234 85.12321 -17.92058 248.85658 85.12321 -17.94312 250.50539 85.12321 -19.25525 251.72615 85.12321 -21.20127 251.83904 85.12321 -20.33387 249.31272 91.27432 -20.33387 249.31272 85.12321 -101.57525 12.24671 58.17089 -102.33576 11.93557 58.17089 -102.91803 10.87992 58.17089 -102.88910 10.03583 58.17089 -102.21453 8.98980 58.17089 -100.80525 9.22804 58.17089 -100.24364 9.64964 58.17089 -100.13090 10.81214 58.17089 -100.46963 11.54469 58.17089 -101.46169 10.54708 62.71464 -101.46169 10.54708 58.17089 -88.68155 18.85387 62.07570 -86.07512 17.79999 62.07570 -83.53730 18.59590 62.07570 -82.23999 21.29089 62.07570 -82.78838 23.76440 62.07570 -85.22814 25.40923 62.07570 -87.89576 25.27644 62.07570 -89.74381 23.64180 62.07570 -90.02847 20.86561 62.07570 -86.27100 21.72660 68.25452 -86.27100 21.72660 62.07570 -57.77674 43.01210 70.96187 -58.04097 41.77153 70.96187 -56.77532 40.60224 70.96187 -55.86286 40.47074 70.96187 -54.66313 41.61513 70.96187 -54.35518 42.87010 70.96187 -54.56835 43.70009 70.96187 -55.82696 44.29609 70.96187 -57.28035 43.99205 70.96187 -56.10926 42.55833 78.09263 -56.10926 42.55833 70.96187 -20.13289 245.73434 79.45866 -22.52896 246.55550 79.45866 -24.98162 245.88620 79.45866 -26.40228 243.44603 79.45866 -25.66163 241.08977 79.45866 -23.77589 239.22333 79.45866 -21.31382 239.10431 79.45866 -19.13857 240.84996 79.45866 -18.83922 243.58802 79.45866 -22.46561 242.83356 86.59645 -22.46561 242.83356 79.45866 -45.07327 241.60924 79.61320 -43.13887 240.33189 79.61320 -41.11075 240.83430 79.61320 -39.88040 242.35491 79.61320 -39.42228 244.23673 79.61320 -40.67684 245.78867 79.61320 -42.76956 246.60585 79.61320 -44.78119 245.87433 79.61320 -45.69926 243.97778 79.61320 -42.54083 243.45796 91.46681 -42.54083 243.45796 79.61320 -43.28784 245.80714 77.59110 -45.49135 248.36219 77.59110 -48.67342 249.54979 77.59110 -51.45626 247.99839 77.59110 -52.82889 244.82188 77.59110 -52.02282 241.38864 77.59110 -49.09098 239.67740 77.59110 -45.79684 240.14469 77.59110 -43.84235 242.58643 77.59110 -48.09788 244.49363 86.73838 -48.09788 244.49363 77.59110 -56.95340 20.65407 82.97815 -58.39677 21.42723 82.97815 -60.00170 20.53755 82.97815 -60.52742 19.29106 82.97815 -60.10674 17.61494 82.97815 -59.07434 16.67226 82.97815 -57.58134 17.17598 82.97815 -56.46442 17.91633 82.97815 -56.38358 19.64614 82.97815 -58.33010 19.01941 89.35285 -58.33010 19.01941 82.97815</float_array><technique_common><accessor source="#positions-array" count="330" stride="3"><param name="X" type="float"/><param name="Y" type="float"/><param name="Z" type="float"/></accessor></technique_common></source>
<source id="normals"><float_array id="normals-array" count="1620">0.85515 0.37392 0.35903 0.00000 0.00000 -1.00000 0.23578 0.90514 0.35373 0.00000 0.00000 -1.00000 -0.27555 0.89481 0.35126 0.00000 0.00000 -1.00000 -0.80983 0.47259 0.34761 0.00000 0.00000 -1.00000 -0.93148 -0.11977 0.34351 -0.00000 0.00000 -1.00000 -0.65549 -0.67251 0.34361 0.00000 0.00000 -1.00000 -0.08386 -0.92738 0.36461 0.00000 -0.00000 -1.00000 0.57513 -0.73444 0.36032 0.00000 0.00000 -1.00000 0.92243 -0.13223 0.36281 0.00000 0.00000 -1.00000 0.97387 -0.00220 0.22709 0.00000 0.00000 -1.00000 0.88558 0.40975 0.21877 0.00000 0.00000 -1.00000 0.37116 0.89866 0.23378 0.00000 0.00000 -1.00000 -0.26815 0.93905 0.21511 0.00000 0.00000 -1.00000 -0.72023 0.65265 0.23518 0.00000 0.00000 -1.00000 -0.93593 -0.26085 0.23663 -0.00000 0.00000 -1.00000 -0.56840 -0.78978 0.23060 0.00000 0.00000 -1.00000 -0.01404 -0.97200 0.23454 0.00000 -0.00000 -1.00000 0.50205 -0.83080 0.24026 0.00000 0.00000 -1.00000 0.03128 0.94964 0.31179 0.00000 0.00000 -1.00000 -0.73762 0.59761 0.31429 0.00000 0.00000 -1.00000 -0.94976 0.03321 0.31121 -0.00000 0.00000 -1.00000 -0.81385 -0.49270 0.30805 0.00000 0.00000 -1.00000 -0.32155 -0.89275 0.31559 0.00000 -0.00000 -1.00000 0.49923 -0.80342 0.32447 0.00000 0.00000 -1.00000 0.85399 -0.41744 0.31054 0.00000 0.00000 -1.00000 0.93361 0.17754 0.31121 0.00000 0.00000 -1.00000 0.46906 0.82656 0.31109 0.00000 0.00000 -1.00000 -0.55520 -0.78784 0.26657 0.00000 0.00000 -1.00000 -0.01221 -0.96675 0.25543 0.00000 -0.00000 -1.00000 0.50427 -0.82029 0.26989 0.00000 0.00000 -1.00000 0.95711 -0.13068 0.25856 0.00000 0.00000 -1.00000 0.87518 0.41090 0.25537 0.00000 0.00000 -1.00000 0.40560 0.87538 0.26306 0.00000 0.00000 -1.00000 -0.28114 0.92561 0.25339 0.00000 0.00000 -1.00000 -0.69339 0.66670 0.27337 0.00000 0.00000 -1.00000 -0.94709 -0.16396 0.27592 -0.00000 0.00000 -1.00000 -0.46136 0.81020 0.36155 0.00000 0.00000 -1.00000 -0.84728 0.39169 0.35875 0.00000 0.00000 -1.00000 -0.91896 -0.21985 0.32737 -0.00000 0.00000 -1.00000 -0.71136 -0.61751 0.33563 0.00000 0.00000 -1.00000 -0.07146 -0.93153 0.35657 0.00000 -0.00000 -1.00000 0.66776 -0.64461 0.37226 0.00000 0.00000 -1.00000 0.91729 -0.15485 0.36687 0.00000 0.00000 -1.00000 0.77883 0.50981 0.36542 0.00000 0.00000 -1.00000 0.32219 0.87211 0.36826 0.00000 0.00000 -1.00000 -0.09233 -0.93809 0.33387 0.00000 -0.00000 -1.00000 0.50413 -0.79896 0.32789 0.00000 0.00000 -1.00000 0.88558 -0.32225 0.33452 0.00000 0.00000 -1.00000 0.82171 0.47289 0.31806 0.00000 0.00000 -1.00000 0.50841 0.80371 0.30914 0.00000 0.00000 -1.00000 -0.30506 0.89916 0.31376 0.00000 0.00000 -1.00000 -0.70544 0.63902 0.30662 0.00000 0.00000 -1.00000 -0.92683 -0.19483 0.32098 -0.00000 0.00000 -1.00000 -0.72251 -0.61023 0.32496 0.00000 0.00000 -1.00000 0.97310 -0.15599 0.16955 0.00000 0.00000 -1.00000 0.43635 0.88607 0.15644 0.00000 0.00000 -1.00000 0.12615 0.97899 0.16018 0.00000 0.00000 -1.00000 -0.70266 0.69314 0.16074 0.00000 0.00000 -1.00000 -0.96149 0.22864 0.15253 -0.00000 0.00000 -1.00000 -0.87970 -0.44137 0.17697 0.00000 0.00000 -1.00000 -0.08302 -0.98179 0.17085 0.00000 0.00000 -1.00000 0.15898 -0.97284 0.16823 0.00000 -0.00000 -1.00000 0.85984 -0.48267 0.16643 0.00000 0.00000 -1.00000 0.21924 -0.94643 0.23706 0.00000 -0.00000 -1.00000 0.80246 -0.54605 0.24061 0.00000 0.00000 -1.00000 0.96839 0.07837 0.23682 0.00000 0.00000 -1.00000 0.69626 0.67819 0.23511 0.00000 0.00000 -1.00000 -0.12319 0.96641 0.22557 0.00000 0.00000 -1.00000 -0.52484 0.82393 0.21371 0.00000 0.00000 -1.00000 -0.91427 0.32869 0.23681 0.00000 0.00000 -1.00000 -0.93135 -0.27739 0.23588 -0.00000 0.00000 -1.00000 -0.48750 -0.83932 0.24060 0.00000 0.00000 -1.00000 -0.64011 -0.65373 0.40359 0.00000 0.00000 -1.00000 -0.15153 -0.89048 0.42904 0.00000 -0.00000 -1.00000 0.57397 -0.69832 0.42768 0.00000 0.00000 -1.00000 0.85108 -0.28011 0.44407 0.00000 0.00000 -1.00000 0.73940 0.53160 0.41315 0.00000 0.00000 -1.00000 0.47748 0.77424 0.41542 0.00000 0.00000 -1.00000 -0.19416 0.87989 0.43371 0.00000 0.00000 -1.00000 -0.78325 0.46592 0.41164 0.00000 0.00000 -1.00000 -0.88649 -0.21461 0.40997 -0.00000 0.00000 -1.00000 0.86787 0.43447 0.24091 0.00000 0.00000 -1.00000 0.37724 0.89861 0.22402 0.00000 0.00000 -1.00000 -0.28714 0.93121 0.22449 0.00000 0.00000 -1.00000 -0.61597 0.75219 0.23409 0.00000 0.00000 -1.00000 -0.96667 -0.07100 0.24599 -0.00000 0.00000 -1.00000 -0.57073 -0.78632 0.23658 0.00000 0.00000 -1.00000 -0.07499 -0.97153 0.22473 0.00000 -0.00000 -1.00000 0.38438 -0.89267 0.23536 0.00000 0.00000 -1.00000 0.91593 -0.31270 0.25158 0.00000 0.00000 -1.00000 -0.33253 0.92561 0.18074 0.00000 0.00000 -1.00000 -0.78262 0.59630 0.17870 0.00000 0.00000 -1.00000 -0.94602 -0.27222 0.17589 -0.00000 0.00000 -1.00000 -0.65068 -0.73943 0.17278 0.00000 0.00000 -1.00000 -0.06787 -0.98349 0.16777 0.00000 -0.00000 -1.00000 0.41329 -0.89512 0.16716 0.00000 0.00000 -1.00000 0.95250 -0.23414 0.19476 0.00000 0.00000 -1.00000 0.91477 0.35799 0.18717 0.00000 0.00000 -1.00000 0.40486 0.89603 0.18225 0.00000 0.00000 -1.00000 -0.13203 0.92276 0.36206 0.00000 0.00000 -1.00000 -0.65873 0.65817 0.36454 0.00000 0.00000 -1.00000 -0.90942 0.21099 0.35839 -0.00000 0.00000 -1.00000 -0.75965 -0.53494 0.36983 0.00000 0.00000 -1.00000 -0.26913 -0.89270 0.36145 0.00000 -0.00000 -1.00000 0.36529 -0.85587 0.36611 0.00000 0.00000 -1.00000 0.81150 -0.46099 0.35911 0.00000 0.00000 -1.00000 0.88562 0.28880 0.36370 0.00000 0.00000 -1.00000 0.60371 0.71538 0.35180 0.00000 0.00000 -1.00000 0.58474 -0.72186 0.37013 0.00000 0.00000 -1.00000 0.88888 -0.26909 0.37080 0.00000 0.00000 -1.00000 0.82176 0.42995 0.37396 0.00000 0.00000 -1.00000 0.34887 0.85834 0.37622 0.00000 0.00000 -1.00000 -0.31885 0.87247 0.37032 0.00000 0.00000 -1.00000 -0.77922 0.50438 0.37204 0.00000 0.00000 -1.00000 -0.92138 -0.07212 0.38191 -0.00000 0.00000 -1.00000 -0.64167 -0.67375 0.36649 0.00000 0.00000 -1.00000 -0.12577 -0.92405 0.36098 0.00000 -0.00000 -1.00000 -0.38007 -0.79823 0.46730 0.00000 0.00000 -1.00000 0.03133 -0.89363 0.44771 0.00000 -0.00000 -1.00000 0.61346 -0.64403 0.45705 0.00000 0.00000 -1.00000 0.88526 0.04573 0.46285 0.00000 0.00000 -1.00000 0.80841 0.36300 0.46337 0.00000 0.00000 -1.00000 0.12131 0.87510 0.46849 0.00000 0.00000 -1.00000 -0.37425 0.79844 0.47164 0.00000 0.00000 -1.00000 -0.76080 0.43352 0.48294 0.00000 0.00000 -1.00000 -0.84324 -0.21544 0.49247 -0.00000 0.00000 -1.00000 0.91851 0.01458 0.39513 0.00000 0.00000 -1.00000 0.73687 0.55393 0.38754 0.00000 0.00000 -1.00000 0.20664 0.90147 0.38033 0.00000 0.00000 -1.00000 -0.36553 0.84444 0.39154 0.00000 0.00000 -1.00000 -0.85689 0.32042 0.40382 0.00000 0.00000 -1.00000 -0.85762 -0.34986 0.37694 -0.00000 0.00000 -1.00000 -0.56418 -0.72927 0.38712 0.00000 0.00000 -1.00000 0.23101 -0.89413 0.38362 0.00000 -0.00000 -1.00000 0.62882 -0.67899 0.37889 0.00000 0.00000 -1.00000 0.79154 -0.50483 0.34442 0.00000 0.00000 -1.00000 0.91632 0.19894 0.34754 0.00000 0.00000 -1.00000 0.53221 0.77502 0.34073 0.00000 0.00000 -1.00000 -0.06585 0.94012 0.33443 0.00000 0.00000 -1.00000 -0.56270 0.75758 0.33083 0.00000 0.00000 -1.00000 -0.92808 0.12830 0.34957 -0.00000 0.00000 -1.00000 -0.77888 -0.52533 0.34260 0.00000 0.00000 -1.00000 -0.36622 -0.86633 0.33964 0.00000 0.00000 -1.00000 0.35886 -0.86936 0.33976 0.00000 -0.00000 -1.00000 -0.46179 -0.84623 0.26580 0.00000 0.00000 -1.00000 0.19897 -0.94625 0.25498 0.00000 -0.00000 -1.00000 0.71103 -0.65290 0.26106 0.00000 0.00000 -1.00000 0.96375 0.07368 0.25644 0.00000 0.00000 -1.00000 0.81663 0.51875 0.25299 0.00000 0.00000 -1.00000 0.20870 0.93734 0.27900 0.00000 0.00000 -1.00000 -0.50991 0.81532 0.27431 0.00000 0.00000 -1.00000 -0.87988 0.39323 0.26680 -0.00000 0.00000 -1.00000 -0.87407 -0.40292 0.27140 0.00000 0.00000 -1.00000 -0.33097 0.89206 0.30772 0.00000 0.00000 -1.00000 -0.88495 0.35728 0.29868 0.00000 0.00000 -1.00000 -0.92543 -0.25115 0.28372 -0.00000 0.00000 -1.00000 -0.59424 -0.75194 0.28543 0.00000 0.00000 -1.00000 -0.05482 -0.95305 0.29781 0.00000 -0.00000 -1.00000 0.60134 -0.73804 0.30607 0.00000 0.00000 -1.00000 0.95332 0.04901 0.29797 0.00000 0.00000 -1.00000 0.77264 0.57032 0.27885 0.00000 0.00000 -1.00000 0.37125 0.88337 0.28606 0.00000 0.00000 -1.00000 -0.05619 0.93798 0.34211 0.00000 0.00000 -1.00000 -0.63223 0.69525 0.34192 0.00000 0.00000 -1.00000 -0.94375 -0.02577 0.32965 -0.00000 0.00000 -1.00000 -0.85266 -0.40929 0.32473 0.00000 0.00000 -1.00000 -0.12956 -0.93794 0.32169 0.00000 -0.00000 -1.00000 0.31273 -0.89520 0.31752 0.00000 0.00000 -1.00000 0.89119 -0.31533 0.32611 0.00000 0.00000 -1.00000 0.94049 0.11695 0.31906 0.00000 0.00000 -1.00000 0.52651 0.77958 0.33918 0.00000 0.00000 -1.00000 -0.02368 0.87525 0.48309 0.00000 0.00000 -1.00000 -0.56563 0.67892 0.46812 0.00000 0.00000 -1.00000 -0.81897 0.32642 0.47195 -0.00000 0.00000 -1.00000 -0.83368 -0.25331 0.49072 0.00000 0.00000 -1.00000 -0.39177 -0.76708 0.50805 0.00000 0.00000 -1.00000 0.17341 -0.84453 0.50665 0.00000 -0.00000 -1.00000 0.72130 -0.46673 0.51175 0.00000 0.00000 -1.00000 0.86300 0.15180 0.48186 0.00000 0.00000 -1.00000 0.69634 0.52050 0.49415 0.00000 0.00000 -1.00000 0.86017 0.46044 0.21931 0.00000 0.00000 -1.00000 -0.06363 0.96877 0.23967 0.00000 0.00000 -1.00000 -0.72658 0.64607 0.23383 0.00000 0.00000 -1.00000 -0.97599 -0.09731 0.19487 -0.00000 0.00000 -1.00000 -0.89298 -0.40741 0.19135 0.00000 0.00000 -1.00000 -0.44976 -0.87176 0.19428 0.00000 -0.00000 -1.00000 0.52620 -0.82520 0.20535 0.00000 0.00000 -1.00000 0.81187 -0.54536 0.20847 0.00000 0.00000 -1.00000 0.94561 0.24079 0.21873 0.00000 0.00000 -1.00000 -0.81995 -0.48745 0.30013 0.00000 0.00000 -1.00000 -0.14135 -0.93212 0.33343 0.00000 -0.00000 -1.00000 0.51992 -0.78716 0.33174 0.00000 0.00000 -1.00000 0.89575 -0.31213 0.31654 0.00000 0.00000 -1.00000 0.85994 0.41336 0.29940 0.00000 0.00000 -1.00000 0.60836 0.72999 0.31147 0.00000 0.00000 -1.00000 -0.17790 0.93403 0.30973 0.00000 0.00000 -1.00000 -0.72713 0.61198 0.31107 0.00000 0.00000 -1.00000 -0.92097 -0.24542 0.30264 -0.00000 0.00000 -1.00000 -0.91792 0.10706 0.38206 -0.00000 0.00000 -1.00000 -0.79687 -0.46793 0.38214 0.00000 0.00000 -1.00000 -0.37240 -0.84249 0.38926 0.00000 0.00000 -1.00000 0.32026 -0.86253 0.39175 0.00000 -0.00000 -1.00000 0.82958 -0.42911 0.35729 0.00000 0.00000 -1.00000 0.93116 0.01273 0.36438 0.00000 0.00000 -1.00000 0.63097 0.67820 0.37674 0.00000 0.00000 -1.00000 0.05374 0.92632 0.37287 0.00000 0.00000 -1.00000 -0.52417 0.75924 0.38574 0.00000 0.00000 -1.00000 -0.35677 0.87202 0.33511 0.00000 0.00000 -1.00000 -0.83493 0.46053 0.30134 0.00000 0.00000 -1.00000 -0.95247 -0.03263 0.30289 -0.00000 0.00000 -1.00000 -0.79925 -0.51543 0.30908 0.00000 0.00000 -1.00000 0.15920 -0.94171 0.29638 0.00000 -0.00000 -1.00000 0.57197 -0.76193 0.30382 0.00000 0.00000 -1.00000 0.95699 -0.09280 0.27487 0.00000 0.00000 -1.00000 0.87167 0.40306 0.27881 0.00000 0.00000 -1.00000 0.51309 0.80806 0.28944 0.00000 0.00000 -1.00000 -0.32465 -0.80290 0.49995 0.00000 -0.00000 -1.00000 0.25480 -0.81246 0.52439 0.00000 0.00000 -1.00000 0.76634 -0.36890 0.52597 0.00000 0.00000 -1.00000 0.82914 0.18383 0.52796 0.00000 0.00000 -1.00000 0.48176 0.71459 0.50721 0.00000 0.00000 -1.00000 -0.04288 0.86138 0.50615 0.00000 0.00000 -1.00000 -0.56698 0.64100 0.51736 0.00000 0.00000 -1.00000 -0.85650 0.08782 0.50862 -0.00000 0.00000 -1.00000 -0.71791 -0.48066 0.50356 0.00000 0.00000 -1.00000 -0.95063 0.20248 0.23518 -0.00000 0.00000 -1.00000 -0.65597 -0.71003 0.25604 0.00000 0.00000 -1.00000 -0.13719 -0.95191 0.27394 0.00000 -0.00000 -1.00000 0.67181 -0.70430 0.22940 0.00000 0.00000 -1.00000 0.94679 -0.23232 0.22274 0.00000 0.00000 -1.00000 0.93984 0.24137 0.24174 0.00000 0.00000 -1.00000 0.41642 0.87939 0.23079 0.00000 0.00000 -1.00000 -0.19953 0.95382 0.22454 0.00000 0.00000 -1.00000 -0.86796 0.43966 0.23094 0.00000 0.00000 -1.00000 0.29108 0.84935 0.44031 0.00000 0.00000 -1.00000 -0.23496 0.86101 0.45105 0.00000 0.00000 -1.00000 -0.76680 0.44643 0.46122 0.00000 0.00000 -1.00000 -0.85313 -0.26816 0.44751 -0.00000 0.00000 -1.00000 -0.63204 -0.63858 0.43901 0.00000 0.00000 -1.00000 -0.04294 -0.88833 0.45719 0.00000 -0.00000 -1.00000 0.55790 -0.69521 0.45325 0.00000 0.00000 -1.00000 0.89141 -0.09746 0.44259 0.00000 0.00000 -1.00000 0.76918 0.46361 0.43979 0.00000 0.00000 -1.00000 -0.53485 -0.80997 0.24059 0.00000 0.00000 -1.00000 0.23361 -0.94303 0.23691 0.00000 -0.00000 -1.00000 0.75712 -0.61260 0.22693 0.00000 0.00000 -1.00000 0.94478 -0.23000 0.23345 0.00000 0.00000 -1.00000 0.75518 0.61048 0.23879 0.00000 0.00000 -1.00000 0.35367 0.90571 0.23370 0.00000 0.00000 -1.00000 -0.33106 0.91039 0.24816 0.00000 0.00000 -1.00000 -0.87135 0.42180 0.25067 0.00000 0.00000 -1.00000 -0.93873 -0.24810 0.23925 -0.00000 0.00000 -1.00000 0.67950 0.58601 0.44146 0.00000 0.00000 -1.00000 0.31326 0.83935 0.44424 0.00000 0.00000 -1.00000 -0.43317 0.77701 0.45675 0.00000 0.00000 -1.00000 -0.82464 0.35634 0.43930 0.00000 0.00000 -1.00000 -0.87238 -0.20482 0.44385 -0.00000 0.00000 -1.00000 -0.44916 -0.76954 0.45394 0.00000 0.00000 -1.00000 0.12532 -0.88341 0.45153 0.00000 -0.00000 -1.00000 0.70009 -0.56039 0.44254 0.00000 0.00000 -1.00000 0.88362 -0.15213 0.44280 0.00000 0.00000 -1.00000 0.44867 0.83759 0.31168 0.00000 0.00000 -1.00000 -0.45966 0.82920 0.31801 0.00000 0.00000 -1.00000 -0.87390 0.36858 0.31694 0.00000 0.00000 -1.00000 -0.92271 -0.23159 0.30818 -0.00000 0.00000 -1.00000 -0.63631 -0.69687 0.33088 0.00000 0.00000 -1.00000 0.30521 -0.90464 0.29745 0.00000 -0.00000 -1.00000 0.52832 -0.79705 0.29255 0.00000 0.00000 -1.00000 0.95667 -0.04471 0.28772 0.00000 0.00000 -1.00000 0.83049 0.46951 0.29975 0.00000 0.00000 -1.00000</float_array><technique_common><accessor source="#normals-array" count="540" stride="3"><param name="X" type="float"/><param name="Y" type="float"/><param name="Z" type="float"/></accessor></technique_common></source>
<vertices id="vertices"><input semantic="POSITION" source="#positions"/></vertices><triangles count="540"><input semantic="VERTEX" source="#vertices" offset="0"/><input semantic="NORMAL" source="#normals" offset="1"/><p>0 0 1 0 9 0 10 1 1 1 0 1 1 2 2 2 9 2 10 3 2 3 1 3 2 4 3 4 9 4 10 5 3 5 2 5 3 6 4 6 9 6 10 7 4 7 3 7 4 8 5 8 9 8 10 9 5 9 4 9 5 10 6 10 9 10 10 11 6 11 5 11 6 12 7 12 9 12 10 13 7 13 6 13 7 14 8 14 9 14 10 15 8 15 7 15 8 16 0 16 9 16 10 17 0 17 8 17 11 18 12 18 20 18 21 19 12 19 11 19 12 20 13 20 20 20 21 21 13 21 12 21 13 22 14 22 20 22 21 23 14 23 13 23 14 24 15 24 20 24 21 25 15 25 14 25 15 26 16 26 20 26 21 27 16 27 15 27 16 28 17 28 20 28 21 29 17 29 16 29 17 30 18 30 20 30 21 31 18 31 17 31 18 32 19 32 20 32 21 33 19 33 18 33 19 34 11 34 20 34 21 35 11 35 19 35 22 36 23 36 31 36 32 37 23 37 22 37 23 38 24 38 31 38 32 39 24 39 23 39 24 40 25 40 31 40 32 41 25 41 24 41 25 42 26 42 31 42 32 43 26 43 25 43 26 44 27 44 31 44 32 45 27 45 26 45 27 46 28 46 31 46 32 47 28 47 27 47 28 48 29 48 31 48 32 49 29 49 28 49 29 50 30 50 31 50 32 51 30 51 29 51 30 52 22 52 31 52 32 53 22 53 30 53 33 54 34 54 42 54 43 55 34 55 33 55 34 56 35 56 42 56 43 57 35 57 34 57 35 58 36 58 42 58 43 59 36 59 35 59 36 60 37 60 42 60 43 61 37 61 36 61 37 62 38 62 42 62 43 63 38 63 37 63 38 64 39 64 42 64 43 65 39 65 38 65 39 66 40 66 42 66 43 67 40 67 39 67 40 68 41 68 42 68 43 69 41 69 40 69 41 70 33 70 42 70 43 71 33 71 41 71 44 72 45 72 53 72 54 73 45 73 44 73 45 74 46 74 53 74 54 75 46 75 45 75 46 76 47 76 53 76 54 77 47 77 46 77 47 78 48 78 53 78 54 79 48 79 47 79 48 80 49 80 53 80 54 81 49 81 48 81 49 82 50 82 53 82 54 83 50 83 49 83 50 84 51 84 53 84 54 85 51 85 50 85 51 86 52 86 53 86 54 87 52 87 51 87 52 88 44 88 53 88 54 89 44 89 52 89 55 90 56 90 64 90 65 91 56 91 55 91 56 92 57 92 64 92 65 93 57 93 56 93 57 94 58 94 64 94 65 95 58 95 57 95 58 96 59 96 64 96 65 97 59 97 58 97 59 98 60 98 64 98 65 99 60 99 59 99 60 100 61 100 64 100 65 101 61 101 60 101 61 102 62 102 64 102 65 103 62 103 61 103 62 104 63 104 64 104 65 105 63 105 62 105 63 106 55 106 64 106 65 107 55 107 63 107 66 108 67 108 75 108 76 109 67 109 66 109 67 110 68 110 75 110 76 111 68 111 67 111 68 112 69 112 75 112 76 113 69 113 68 113 69 114 70 114 75 114 76 115 70 115 69 115 70 116 71 116 75 116 76 117 71 117 70 117 71 118 72 118 75 118 76 119 72 119 71 119 72 120 73 120 75 120 76 121 73 121 72 121 73 122 74 122 75 122 76 123 74 123 73 123 74 124 66 124 75 124 76 125 66 125 74 125 77 126 78 126 86 126 87 127 78 127 77 127 78 128 79 128 86 128 87 129 79 129 78 129 79 130 80 130 86 130 87 131 80 131 79 131 80 132 81 132 86 132 87 133 81 133 80 133 81 134 82 134 86 134 87 135 82 135 81 135 82 136 83 136 86 136 87 137 83 137 82 137 83 138 84 138 86 138 87 139 84 139 83 139 84 140 85 140 86 140 87 141 85 141 84 141 85 142 77 142 86 142 87 143 77 143 85 143 88 144 89 144 97 144 98 145 89 145 88 145 89 146 90 146 97 146 98 147 90 147 89 147 90 148 91 148 97 148 98 149 91 149 90 149 91 150 92 150 97 150 98 151 92 151 91 151 92 152 93 152 97 152 98 153 93 153 92 153 93 154 94 154 97 154 98 155 94 155 93 155 94 156 95 156 97 156 98 157 95 157 94 157 95 158 96 158 97 158 98 159 96 159 95 159 96 160 88 160 97 160 98 161 88 161 96 161 99 162 100 162 108 162 109 163 100 163 99 163 100 164 101 164 108 164 109 165 101 165 100 165 101 166 102 166 108 166 109 167 102 167 101 167 102 168 103 168 108 168 109 169 103 169 102 169 103 170 104 170 108 170 109 171 104 171 103 171 104 172 105 172 108 172 109 173 105 173 104 173 105 174 106 174 108 174 109 175 106 175 105 175 106 176 107 176 108 176 109 177 107 177 106 177 107 178 99 178 108 178 109 179 99 179 107 179 110 180 111 180 119 180 120 181 111 181 110 181 111 182 112 182 119 182 120 183 112 183 111 183 112 184 113 184 119 184 120 185 113 185 112 185 113 186 114 186 119 186 120 187 114 187 113 187 114 188 115 188 119 188 120 189 115 189 114 189 115 190 116 190 119 190 120 191 116 191 115 191 116 192 117 192 119 192 120 193 117 193 116 193 117 194 118 194 119 194 120 195 118 195 117 195 118 196 110 196 119 196 120 197 110 197 118 197 121 198 122 198 130 198 131 199 122 199 121 199 122 200 123 200 130 200 131 201 123 201 122 201 123 202 124 202 130 202 131 203 124 203 123 203 124 204 125 204 130 204 131 205 125 205 124 205 125 206 126 206 130 206 131 207 126 207 125 207 126 208 127 208 130 208 131 209 127 209 126 209 127 210 128 210 130 210 131 211 128 211 127 211 128 212 129 212 130 212 131 213 129 213 128 213 129 214 121 214 130 214 131 215 121 215 129 215 132 216 133 216 141 216 142 217 133 217 132 217 133 218 134 218 141 218 142 219 134 219 133 219 134 220 135 220 141 220 142 221 135 221 134 221 135 222 136 222 141 222 142 223 136 223 135 223 136 224 137 224 141 224 142 225 137 225 136 225 137 226 138 226 141 226 142 227 138 227 137 227 138 228 139 228 141 228 142 229 139 229 138 229 139 230 140 230 141 230 142 231 140 231 139 231 140 232 132 232 141 232 142 233 132 233 140 233 143 234 144 234 152 234 153 235 144 235 143 235 144 236 145 236 152 236 153 237 145 237 144 237 145 238 146 238 152 238 153 239 146 239 145 239 146 240 147 240 152 240 153 241 147 241 146 241 147 242 148 242 152 242 153 243 148 243 147 243 148 244 149 244 152 244 153 245 149 245 148 245 149 246 150 246 152 246 153 247 150 247 149 247 150 248 151 248 152 248 153 249 151 249 150 249 151 250 143 250 152 250 153 251 143 251 151 251 154 252 155 252 163 252 164 253 155 253 154 253 155 254 156 254 163 254 164 255 156 255 155 255 156 256 157 256 163 256 164 257 157 257 156 257 157 258 158 258 163 258 164 259 158 259 157 259 158 260 159 260 163 260 164 261 159 261 158 261 159 262 160 262 163 262 164 263 160 263 159 263 160 264 161 264 163 264 164 265 161 265 160 265 161 266 162 266 163 266 164 267 162 267 161 267 162 268 154 268 163 268 164 269 154 269 162 269 165 270 166 270 174 270 175 271 166 271 165 271 166 272 167 272 174 272 175 273 167 273 166 273 167 274 168 274 174 274 175 275 168 275 167 275 168 276 169 276 174 276 175 277 169 277 168 277 169 278 170 278 174 278 175 279 170 279 169 279 170 280 171 280 174 280 175 281 171 281 170 281 171 282 172 282 174 282 175 283 172 283 171 283 172 284 173 284 174 284 175 285 173 285 172 285 173 286 165 286 174 286 175 287 165 287 173 287 176 288 177 288 185 288 186 289 177 289 176 289 177 290 178 290 185 290 186 291 178 291 177 291 178 292 179 292 185 292 186 293 179 293 178 293 179 294 180 294 185 294 186 295 180 295 179 295 180 296 181 296 185 296 186 297 181 297 180 297 181 298 182 298 185 298 186 299 182 299 181 299 182 300 183 300 185 300 186 301 183 301 182 301 183 302 184 302 185 302 186 303 184 303 183 303 184 304 176 304 185 304 186 305 176 305 184 305 187 306 188 306 196 306 197 307 188 307 187 307 188 308 189 308 196 308 197 309 189 309 188 309 189 310 190 310 196 310 197 311 190 311 189 311 190 312 191 312 196 312 197 313 191 313 190 313 191 314 192 314 196 314 197 315 192 315 191 315 192 316 193 316 196 316 197 317 193 317 192 317 193 318 194 318 196 318 197 319 194 319 193 319 194 320 195 320 196 320 197 321 195 321 194 321 195 322 187 322 196 322 197 323 187 323 195 323 198 324 199 324 207 324 208 325 199 325 198 325 199 326 200 326 207 326 208 327 200 327 199 327 200 328 201 328 207 328 208 329 201 329 200 329 201 330 202 330 207 330 208 331 202 331 201 331 202 332 203 332 207 332 208 333 203 333 202 333 203 334 204 334 207 334 208 335 204 335 203 335 204 336 205 336 207 336 208 337 205 337 204 337 205 338 206 338 207 338 208 339 206 339 205 339 206 340 198 340 207 340 208 341 198 341 206 341 209 342 210 342 218 342 219 343 210 343 209 343 210 344 211 344 218 344 219 345 211 345 210 345 211 346 212 346 218 346 219 347 212 347 211 347 212 348 213 348 218 348 219 349 213 349 212 349 213 350 214 350 218 350 219 351 214 351 213 351 214 352 215 352 218 352 219 353 215 353 214 353 215 354 216 354 218 354 219 355 216 355 215 355 216 356 217 356 218 356 219 357 217 357 216 357 217 358 209 358 218 358 219 359 209 359 217 359 220 360 221 360 229 360 230 361 221 361 220 361 221 362 222 362 229 362 230 363 222 363 221 363 222 364 223 364 229 364 230 365 223 365 222 365 223 366 224 366 229 366 230 367 224 367 223 367 224 368 225 368 229 368 230 369 225 369 224 369 225 370 226 370 229 370 230 371 226 371 225 371 226 372 227 372 229 372 230 373 227 373 226 373 227 374 228 374 229 374 230 375 228 375 227 375 228 376 220 376 229 376 230 377 220 377 228 377 231 378 232 378 240 378 241 379 232 379 231 379 232 380 233 380 240 380 241 381 233 381 232 381 233 382 234 382 240 382 241 383 234 383 233 383 234 384 235 384 240 384 241 385 235 385 234 385 235 386 236 386 240 386 241 387 236 387 235 387 236 388 237 388 240 388 241 389 237 389 236 389 237 390 238 390 240 390 241 391 238 391 237 391 238 392 239 392 240 392 241 393 239 393 238 393 239 394 231 394 240 394 241 395 231 395 239 395 242 396 243 396 251 396 252 397 243 397 242 397 243 398 244 398 251 398 252 399 244 399 243 399 244 400 245 400 251 400 252 401 245 401 244 401 245 402 246 402 251 402 252 403 246 403 245 403 246 404 247 404 251 404 252 405 247 405 246 405 247 406 248 406 251 406 252 407 248 407 247 407 248 408 249 408 251 408 252 409 249 409 248 409 249 410 250 410 251 410 252 411 250 411 249 411 250 412 242 412 251 412 252 413 242 413 250 413 253 414 254 414 262 414 263 415 254 415 253 415 254 416 255 416 262 416 263 417 255 417 254 417 255 418 256 418 262 418 263 419 256 419 255 419 256 420 257 420 262 420 263 421 257 421 256 421 257 422 258 422 262 422 263 423 258 423 257 423 258 424 259 424 262 424 263 425 259 425 258 425 259 426 260 426 262 426 263 427 260 427 259 427 260 428 261 428 262 428 263 429 261 429 260 429 261 430 253 430 262 430 263 431 253 431 261 431 264 432 265 432 273 432 274 433 265 433 264 433 265 434 266 434 273 434 274 435 266 435 265 435 266 436 267 436 273 436 274 437 267 437 266 437 267 438 268 438 273 438 274 439 268 439 267 439 268 440 269 440 273 440 274 441 269 441 268 441 269 442 270 442 273 442 274 443 270 443 269 443 270 444 271 444 273 444 274 445 271 445 270 445 271 446 272 446 273 446 274 447 272 447 271 447 272 448 264 448 273 448 274 449 264 449 272 449 275 450 276 450 284 450 285 451 276 451 275 451 276 452 277 452 284 452 285 453 277 453 276 453 277 454 278 454 284 454 285 455 278 455 277 455 278 456 279 456 284 456 285 457 279 457 278 457 279 458 280 458 284 458 285 459 280 459 279 459 280 460 281 460 284 460 285 461 281 461 280 461 281 462 282 462 284 462 285 463 282 463 281 463 282 464 283 464 284 464 285 465 283 465 282 465 283 466 275 466 284 466 285 467 275 467 283 467 286 468 287 468 295 468 296 469 287 469 286 469 287 470 288 470 295 470 296 471 288 471 287 471 288 472 289 472 295 472 296 473 289 473 288 473 289 474 290 474 295 474 296 475 290 475 289 475 290 476 291 476 295 476 296 477 291 477 290 477 291 478 292 478 295 478 296 479 292 479 291 479 292 480 293 480 295 480 296 481 293 481 292 481 293 482 294 482 295 482 296 483 294 483 293 483 294 484 286 484 295 484 296 485 286 485 294 485 297 486 298 486 306 486 307 487 298 487 297 487 298 488 299 488 306 488 307 489 299 489 298 489 299 490 300 490 306 490 307 491 300 491 299 491 300 492 301 492 306 492 307 493 301 493 300 493 301 494 302 494 306 494 307 495 302 495 301 495 302 496 303 496 306 496 307 497 303 497 302 497 303 498 304 498 306 498 307 499 304 499 303 499 304 500 305 500 306 500 307 501 305 501 304 501 305 502 297 502 306 502 307 503 297 503 305 503 308 504 309 504 317 504 318 505 309 505 308 505 309 506 310 506 317 506 318 507 310 507 309 507 310 508 311 508 317 508 318 509 311 509 310 509 311 510 312 510 317 510 318 511 312 511 311 511 312 512 313 512 317 512 318 513 313 513 312 513 313 514 314 514 317 514 318 515 314 515 313 515 314 516 315 516 317 516 318 517 315 517 314 517 315 518 316 518 317 518 318 519 316 519 315 519 316 520 308 520 317 520 318 521 308 521 316 521 319 522 320 522 328 522 329 523 320 523 319 523 320 524 321 524 328 524 329 525 321 525 320 525 321 526 322 526 328 526 329 527 322 527 321 527 322 528 323 528 328 528 329 529 323 529 322 529 323 530 324 530 328 530 329 531 324 531 323 531 324 532 325 532 328 532 329 533 325 533 324 533 325 534 326 534 328 534 329 535 326 535 325 535 326 536 327 536 328 536 329 537 327 537 326 537 327 538 319 538 328 538 329 539 319 539 327 539</p></triangles>
</mesh></geometry></library_geometries><library_visual_scenes><visual_scene id="Scene"><node id="mesh"><instance_geometry url="#geometry"/></node></visual_scene></library_visual_scenes><scene><instance_visual_scene url="#Scene"/></scene></COLLADA>