<?xml version="1.0" encoding="UTF-8"?>
<COLLADA xmlns="http://www.collada.org/2005/11/COLLADASchema" version="1.4.1">
<asset><contributor><authoring_tool>Summit Estate procedural mesh exporter</authoring_tool></contributor><created>2026-09-11T00:00:00Z</created><modified>2026-09-11T00:00:00Z</modified><unit name="meter" meter="1"/><up_axis>Z_UP</up_axis></asset>
<library_geometries><geometry id="geometry" name="geometry"><mesh>
<source id="positions"><float_array id="positions-array" count="990">-21.39760 247.31789 84.91077 -23.28842 249.38703 84.91077 -25.67372 249.60507 84.91077 -27.93932 248.00837 84.91077 -28.68211 245.44600 84.91077 -27.48807 243.22511 84.91077 -25.16859 242.18494 84.91077 -22.63511 242.73544 84.91077 -21.43288 244.78211 84.91077 -24.83612 245.87211 94.88060 -24.83612 245.87211 84.91077 -57.92353 26.85427 79.11728 -56.61955 28.13273 79.11728 -56.52567 30.51557 79.11728 -57.58748 32.06682 79.11728 -59.77640 32.75073 79.11728 -61.65502 31.89264 79.11728 -62.59919 29.85744 79.11728 -61.93891 27.91526 79.11728 -60.17007 26.53480 79.11728 -59.49096 29.60519 88.21382 -59.49096 29.60519 79.11728 -69.69259 10.64328 82.21909 -71.39943 10.00598 82.21909 -71.86719 8.44749 82.21909 -71.72671 7.00749 82.21909 -70.61409 6.41778 82.21909 -69.02389 6.14645 82.21909 -67.99394 7.03596 82.21909 -67.71382 8.70127 82.21909 -68.29080 9.93026 82.21909 -69.73246 8.29954 90.48446 -69.73246 8.29954 82.21909 -34.27220 244.11803 80.79578 -33.15303 241.05091 80.79578 -30.55867 238.79675 80.79578 -26.97039 239.46148 80.79578 -24.80431 241.63634 80.79578 -24.36594 245.21675 80.79578 -26.54129 247.95375 80.79578 -29.78075 248.56559 80.79578 -32.54111 247.09711 80.79578 -29.25544 243.74125 92.42954 -29.25544 243.74125 80.79578 -76.46653 27.58276 64.67912 -79.42035 28.14646 64.67912 -82.07929 26.53982 64.67912 -82.77536 23.81648 64.67912 -81.84625 20.88924 64.67912 -79.12508 19.22645 64.67912 -76.23630 19.99815 64.67912 -74.77986 22.28587 64.67912 -74.48122 25.15046 64.67912 -78.60806 23.69121 72.12671 -78.60806 23.69121 64.67912 -37.41276 244.12862 79.47343 -34.55340 242.34595 79.47343 -31.49361 242.46858 79.47343 -29.08567 244.75773 79.47343 -28.86686 247.63579 79.47343 -30.17277 250.51398 79.47343 -33.37114 251.60750 79.47343 -36.31002 250.07574 79.47343 -37.83402 247.35642 79.47343 -33.21656 246.79180 88.35933 -33.21656 246.79180 79.47343 -59.57029 1.52969 79.62176 -58.84455 2.82920 79.62176 -59.43806 4.81889 79.62176 -60.89095 5.42792 79.62176 -62.65303 5.13311 79.62176 -63.92295 3.65909 79.62176 -64.07910 1.87207 79.62176 -62.89139 0.79139 79.62176 -61.20317 0.28264 79.62176 -61.49194 3.00536 89.32940 -61.49194 3.00536 79.62176 -121.11760 0.57792 55.80424 -118.40223 -0.18595 55.80424 -116.31118 0.47114 55.80424 -114.89132 3.08655 55.80424 -115.63530 5.21680 55.80424 -117.61885 6.92574 55.80424 -120.13181 6.67362 55.80424 -121.74410 5.22998 55.80424 -122.15433 2.83561 55.80424 -118.69739 3.39366 66.25662 -118.69739 3.39366 55.80424 -84.24989 18.90621 66.89836 -82.95172 18.28703 66.89836 -81.88932 18.35075 66.89836 -81.09488 19.35643 66.89836 -81.16113 20.67030 66.89836 -81.91759 22.07206 66.89836 -83.37044 22.05041 66.89836 -84.37767 21.23106 66.89836 -84.93346 19.92265 66.89836 -82.88952 20.08847 72.17733 -82.88952 20.08847 66.89836 -68.35746 4.35464 77.84924 -68.85389 5.47700 77.84924 -70.31477 5.75944 77.84924 -71.86581 4.79206 77.84924 -72.42818 3.49489 77.84924 -71.74991 2.48313 77.84924 -70.36789 1.49857 77.84924 -68.97625 1.64822 77.84924 -68.40632 2.75275 77.84924 -70.13307 3.62493 86.52409 -70.13307 3.62493 77.84924 -22.44205 237.17449 80.56448 -24.41969 237.74379 80.56448 -26.46421 237.03348 80.56448 -27.34155 235.04017 80.56448 -26.93100 232.69032 80.56448 -25.40615 231.47835 80.56448 -23.23591 231.74955 80.56448 -21.73424 232.96116 80.56448 -21.29893 235.32936 80.56448 -24.24929 234.53459 91.47479 -24.24929 234.53459 80.56448 -57.50418 4.76525 83.99980 -59.32903 4.49431 83.99980 -60.50658 2.63563 83.99980 -60.09554 0.80448 83.99980 -58.76908 -0.55648 83.99980 -56.80710 -0.61749 83.99980 -55.01220 0.61958 83.99980 -54.64674 2.64877 83.99980 -55.87524 3.99886 83.99980 -57.56879 2.13623 91.26832 -57.56879 2.13623 83.99980 -63.56841 3.09746 84.81440 -62.62051 4.35287 84.81440 -62.57798 6.33476 84.81440 -63.69720 7.65584 84.81440 -65.12890 7.66360 84.81440 -66.89905 6.75887 84.81440 -67.20079 5.16021 84.81440 -66.90412 3.85633 84.81440 -65.40371 2.94568 84.81440 -64.85607 5.30394 92.58844 -64.85607 5.30394 84.81440 -17.46912 229.77227 83.36128 -16.26845 229.33237 83.36128 -15.32616 229.53240 83.36128 -14.79122 230.74638 83.36128 -14.73784 232.08986 83.36128 -16.07756 232.95538 83.36128 -17.25723 232.99547 83.36128 -17.86911 231.85125 83.36128 -18.30135 230.53448 83.36128 -16.43987 231.08878 87.69713 -16.43987 231.08878 83.36128 -14.44045 240.96972 83.09194 -14.75673 242.91660 83.09194 -16.21672 243.98411 83.09194 -18.23030 243.90192 83.09194 -19.71900 242.59823 83.09194 -19.92429 240.84455 83.09194 -18.87109 239.02116 83.09194 -17.21412 238.42852 83.09194 -15.38888 239.31467 83.09194 -17.23134 241.38397 90.24055 -17.23134 241.38397 83.09194 -67.69394 12.42228 78.63423 -67.00794 14.91979 78.63423 -68.22676 16.93752 78.63423 -70.57356 18.06972 78.63423 -73.00428 17.14030 78.63423 -74.04554 14.99877 78.63423 -73.69796 12.74483 78.63423 -71.98950 11.13614 78.63423 -69.59123 10.98462 78.63423 -70.67370 14.37144 88.76765 -70.67370 14.37144 78.63423 -59.75237 13.06393 89.47287 -58.34279 12.82755 89.47287 -57.08386 13.59163 89.47287 -56.45456 14.60181 89.47287 -56.65680 15.83803 89.47287 -57.94060 16.53311 89.47287 -59.09565 16.63839 89.47287 -60.22377 15.72898 89.47287 -60.47250 14.13011 89.47287 -58.40256 14.77054 98.11408 -58.40256 14.77054 89.47287 -108.03805 3.05877 57.31678 -109.63762 1.82235 57.31678 -109.75227 -0.10027 57.31678 -108.83386 -1.41827 57.31678 -107.11980 -2.29467 57.31678 -105.65319 -1.84311 57.31678 -104.54080 -0.00028 57.31678 -104.90868 1.64572 57.31678 -106.44570 2.90907 57.31678 -107.19983 0.41631 65.95458 -107.19983 0.41631 57.31678 -58.90073 238.36593 70.90576 -60.40870 237.73105 70.90576 -61.02040 236.75285 70.90576 -60.65880 235.19503 70.90576 -59.44538 234.30754 70.90576 -58.13103 234.28401 70.90576 -57.10701 235.27453 70.90576 -56.88503 236.56507 70.90576 -57.38161 237.98156 70.90576 -58.92196 236.24671 78.30218 -58.92196 236.24671 70.90576 -103.63579 7.22316 58.67210 -105.58004 6.82318 58.67210 -106.58024 5.62531 58.67210 -106.48887 4.06320 58.67210 -105.51743 2.73108 58.67210 -103.47647 2.23824 58.67210 -102.22265 3.14047 58.67210 -101.65710 4.59351 58.67210 -102.07758 6.19980 58.67210 -104.12498 4.76650 64.30412 -104.12498 4.76650 58.67210 -9.91711 229.12070 80.60698 -10.43674 230.69655 80.60698 -11.83445 231.74201 80.60698 -13.19065 231.58669 80.60698 -14.50789 230.30939 80.60698 -14.53267 228.68728 80.60698 -13.55591 227.48387 80.60698 -11.68592 226.84002 80.60698 -10.23126 227.65124 80.60698 -12.14814 229.40605 87.91983 -12.14814 229.40605 80.60698 -78.38900 5.16655 70.14465 -77.89088 2.83691 70.14465 -76.05343 0.91463 70.14465 -73.27202 1.10646 70.14465 -71.17730 2.57320 70.14465 -70.68953 5.17753 70.14465 -72.21331 7.44478 70.14465 -74.29389 8.23299 70.14465 -76.97912 7.14095 70.14465 -74.55170 4.47393 77.79492 -74.55170 4.47393 70.14465 -22.67026 253.63342 79.54430 -24.89077 250.89660 79.54430 -24.78121 247.74937 79.54430 -22.62388 245.43874 79.54430 -19.62857 244.80926 79.54430 -16.69815 246.11253 79.54430 -15.72067 249.06958 79.54430 -16.41737 252.23803 79.54430 -19.33207 253.80455 79.54430 -20.33387 249.31272 87.41200 -20.33387 249.31272 79.54430 -99.75523 12.82426 54.04981 -101.71580 13.19718 54.04981 -103.33087 12.35780 54.04981 -104.19595 10.72543 54.04981 -103.90849 8.89501 54.04981 -101.95176 7.93428 54.04981 -100.30358 8.12592 54.04981 -98.72146 9.25903 54.04981 -98.61544 11.50410 54.04981 -101.46169 10.54708 59.86159 -101.46169 10.54708 54.04981 -87.26893 19.46490 64.52148 -85.46806 18.97073 64.52148 -83.91630 20.42317 64.52148 -83.64357 21.95411 64.52148 -84.38824 23.59039 64.52148 -86.19104 24.61346 64.52148 -87.75986 23.95584 64.52148 -88.89322 22.22547 64.52148 -88.58768 20.34955 64.52148 -86.27100 21.72660 70.05667 -86.27100 21.72660 64.52148 -57.54231 42.70854 73.78447 -57.30196 41.82830 73.78447 -56.33174 41.12805 73.78447 -55.63526 41.48206 73.78447 -54.98941 41.93380 73.78447 -54.68671 42.82622 73.78447 -55.47218 43.89760 73.78447 -56.30113 44.10408 73.78447 -56.97283 43.27581 73.78447 -56.10926 42.55833 80.17244 -56.10926 42.55833 73.78447 -21.10391 245.44422 82.05422 -23.07918 245.64545 82.05422 -25.03952 244.47522 82.05422 -25.54834 242.68922 82.05422 -24.47185 240.88777 82.05422 -22.76522 239.85023 82.05422 -20.90838 240.44117 82.05422 -19.60122 241.82660 82.05422 -19.84588 244.10139 82.05422 -22.46561 242.83356 88.28356 -22.46561 242.83356 82.05422 -44.03206 241.36818 83.92360 -42.56894 240.99002 83.92360 -40.89857 241.42737 83.92360 -40.02307 242.95704 83.92360 -40.61778 244.90165 83.92360 -41.61324 245.56524 83.92360 -43.52071 245.57850 83.92360 -44.82257 244.90147 83.92360 -45.10745 242.97526 83.92360 -42.54083 243.45796 94.26857 -42.54083 243.45796 83.92360 -44.79237 246.67044 80.91738 -46.66705 248.25124 80.91738 -49.43903 247.95986 80.91738 -51.44895 246.29481 80.91738 -52.09752 243.58160 80.91738 -50.68013 241.30379 80.91738 -48.06709 240.64272 80.91738 -45.60296 241.57549 80.91738 -44.32033 243.90349 80.91738 -48.09788 244.49363 88.90047 -48.09788 244.49363 80.91738 -57.87601 20.41604 85.50147 -58.72998 20.69117 85.50147 -59.64563 20.01639 85.50147 -59.94593 18.99363 85.50147 -59.36762 17.66218 85.50147 -58.52737 17.70266 85.50147 -57.26987 18.04506 85.50147 -56.92682 18.57436 85.50147 -56.79189 19.68383 85.50147 -58.33010 19.01941 91.21213 -58.33010 19.01941 85.50147</float_array><technique_common><accessor source="#positions-array" count="330" stride="3"><param name="X" type="float"/><param name="Y" type="float"/><param name="Z" type="float"/></accessor></technique_common></source>
<source id="normals"><float_array id="normals-array" count="1620">0.69623 0.63623 0.33239 0.00000 0.00000 -1.00000 0.08551 0.93541 0.34306 0.00000 0.00000 -1.00000 -0.54297 0.77043 0.33409 0.00000 0.00000 -1.00000 -0.90408 0.26208 0.33756 -0.00000 0.00000 -1.00000 -0.82871 -0.44555 0.33873 0.00000 0.00000 -1.00000 -0.38608 -0.86093 0.33127 0.00000 0.00000 -1.00000 0.20014 -0.92109 0.33397 0.00000 -0.00000 -1.00000 0.81391 -0.47810 0.33010 0.00000 0.00000 -1.00000 0.94586 -0.01316 0.32431 0.00000 0.00000 -1.00000 0.66351 -0.67676 0.31899 0.00000 0.00000 -1.00000 0.95119 -0.03748 0.30632 0.00000 0.00000 -1.00000 0.78467 0.53710 0.30954 0.00000 0.00000 -1.00000 0.28398 0.90890 0.30538 0.00000 0.00000 -1.00000 -0.39483 0.86441 0.31130 0.00000 0.00000 -1.00000 -0.86357 0.40062 0.30619 0.00000 0.00000 -1.00000 -0.90315 -0.30704 0.30009 -0.00000 0.00000 -1.00000 -0.58732 -0.75255 0.29786 0.00000 0.00000 -1.00000 0.13395 -0.94193 0.30793 0.00000 -0.00000 -1.00000 -0.33821 0.90580 0.25522 0.00000 0.00000 -1.00000 -0.92864 0.27872 0.24483 0.00000 0.00000 -1.00000 -0.96434 -0.09408 0.24738 -0.00000 0.00000 -1.00000 -0.45421 -0.85696 0.24355 0.00000 0.00000 -1.00000 -0.16346 -0.95802 0.23555 0.00000 -0.00000 -1.00000 0.63363 -0.73367 0.24544 0.00000 0.00000 -1.00000 0.96047 -0.16156 0.22672 0.00000 0.00000 -1.00000 0.87987 0.41307 0.23497 0.00000 0.00000 -1.00000 0.43932 0.86370 0.24703 0.00000 0.00000 -1.00000 -0.87402 -0.31893 0.36657 -0.00000 0.00000 -1.00000 -0.61016 -0.70225 0.36681 0.00000 0.00000 -1.00000 0.16927 -0.91373 0.36938 0.00000 -0.00000 -1.00000 0.65814 -0.65548 0.37040 0.00000 0.00000 -1.00000 0.92104 -0.11277 0.37280 0.00000 0.00000 -1.00000 0.72486 0.57611 0.37772 0.00000 0.00000 -1.00000 0.17237 0.91263 0.37067 0.00000 0.00000 -1.00000 -0.43796 0.82325 0.36117 0.00000 0.00000 -1.00000 -0.80577 0.46822 0.36263 0.00000 0.00000 -1.00000 0.16305 0.85442 0.49334 0.00000 0.00000 -1.00000 -0.44961 0.74408 0.49416 0.00000 0.00000 -1.00000 -0.85025 0.21732 0.47942 0.00000 0.00000 -1.00000 -0.84278 -0.26750 0.46708 -0.00000 0.00000 -1.00000 -0.45731 -0.74839 0.48040 0.00000 0.00000 -1.00000 0.22506 -0.84249 0.48944 0.00000 -0.00000 -1.00000 0.74382 -0.47354 0.47169 0.00000 0.00000 -1.00000 0.87851 -0.09159 0.46885 0.00000 0.00000 -1.00000 0.67789 0.55331 0.48405 0.00000 0.00000 -1.00000 -0.47241 -0.75774 0.45019 0.00000 0.00000 -1.00000 0.03590 -0.89589 0.44283 0.00000 -0.00000 -1.00000 0.61965 -0.65180 0.43726 0.00000 0.00000 -1.00000 0.89861 -0.06832 0.43339 0.00000 0.00000 -1.00000 0.81936 0.37177 0.43639 0.00000 0.00000 -1.00000 0.28853 0.84389 0.45233 0.00000 0.00000 -1.00000 -0.41527 0.79675 0.43902 0.00000 0.00000 -1.00000 -0.78510 0.44000 0.43592 0.00000 0.00000 -1.00000 -0.88440 -0.11542 0.45223 -0.00000 0.00000 -1.00000 0.84761 -0.47337 0.23974 0.00000 0.00000 -1.00000 0.92831 0.27691 0.24814 0.00000 0.00000 -1.00000 0.37469 0.89385 0.24626 0.00000 0.00000 -1.00000 -0.16060 0.95994 0.22961 0.00000 0.00000 -1.00000 -0.73773 0.63559 0.22755 0.00000 0.00000 -1.00000 -0.96524 0.08434 0.24740 -0.00000 0.00000 -1.00000 -0.65043 -0.71484 0.25680 0.00000 0.00000 -1.00000 -0.27925 -0.92667 0.25160 0.00000 -0.00000 -1.00000 0.59006 -0.77263 0.23425 0.00000 0.00000 -1.00000 -0.25777 -0.91630 0.30652 0.00000 -0.00000 -1.00000 0.28424 -0.90455 0.31781 0.00000 0.00000 -1.00000 0.83357 -0.45253 0.31683 0.00000 0.00000 -1.00000 0.89543 0.31273 0.31687 0.00000 0.00000 -1.00000 0.62106 0.72085 0.30768 0.00000 0.00000 -1.00000 -0.09491 0.94602 0.30989 0.00000 0.00000 -1.00000 -0.63434 0.70845 0.30936 0.00000 0.00000 -1.00000 -0.93957 0.16098 0.30215 -0.00000 0.00000 -1.00000 -0.86482 -0.39712 0.30722 0.00000 0.00000 -1.00000 -0.41084 -0.86136 0.29878 0.00000 0.00000 -1.00000 0.05669 -0.94509 0.32184 0.00000 -0.00000 -1.00000 0.74001 -0.58458 0.33264 0.00000 0.00000 -1.00000 0.94770 0.04779 0.31555 0.00000 0.00000 -1.00000 0.83307 0.44957 0.32231 0.00000 0.00000 -1.00000 -0.01396 0.93685 0.34945 0.00000 0.00000 -1.00000 -0.59639 0.73315 0.32681 0.00000 0.00000 -1.00000 -0.87032 0.36970 0.32536 -0.00000 0.00000 -1.00000 -0.78592 -0.52854 0.32090 0.00000 0.00000 -1.00000 0.89295 0.39496 0.21600 0.00000 0.00000 -1.00000 0.18468 0.95522 0.23117 0.00000 0.00000 -1.00000 -0.51686 0.82870 0.21473 0.00000 0.00000 -1.00000 -0.89280 0.38706 0.23041 -0.00000 0.00000 -1.00000 -0.80982 -0.54290 0.22239 0.00000 0.00000 -1.00000 -0.56722 -0.79620 0.21052 0.00000 0.00000 -1.00000 0.10395 -0.96663 0.23413 0.00000 -0.00000 -1.00000 0.86736 -0.44756 0.21765 0.00000 0.00000 -1.00000 0.97974 -0.02988 0.19802 0.00000 0.00000 -1.00000 0.26650 0.92578 0.26815 0.00000 0.00000 -1.00000 -0.31578 0.90892 0.27229 0.00000 0.00000 -1.00000 -0.88181 0.38812 0.26791 0.00000 0.00000 -1.00000 -0.95073 -0.16611 0.26176 -0.00000 0.00000 -1.00000 -0.59835 -0.75281 0.27433 0.00000 0.00000 -1.00000 0.11987 -0.95922 0.25599 0.00000 -0.00000 -1.00000 0.60817 -0.75377 0.24890 0.00000 0.00000 -1.00000 0.95353 -0.17527 0.24508 0.00000 0.00000 -1.00000 0.82105 0.50867 0.25908 0.00000 0.00000 -1.00000 -0.13834 0.93173 0.33578 0.00000 0.00000 -1.00000 -0.79012 0.50057 0.35374 0.00000 0.00000 -1.00000 -0.91229 -0.20478 0.35466 -0.00000 0.00000 -1.00000 -0.67012 -0.65314 0.35262 0.00000 0.00000 -1.00000 -0.02910 -0.93575 0.35146 0.00000 -0.00000 -1.00000 0.53198 -0.77186 0.34817 0.00000 0.00000 -1.00000 0.91902 -0.16551 0.35779 0.00000 0.00000 -1.00000 0.69923 0.63626 0.32597 0.00000 0.00000 -1.00000 0.40415 0.85900 0.31429 0.00000 0.00000 -1.00000 0.76372 -0.57665 0.29017 0.00000 0.00000 -1.00000 0.96018 -0.02060 0.27864 0.00000 0.00000 -1.00000 0.72892 0.61754 0.29549 0.00000 0.00000 -1.00000 0.00519 0.95693 0.29028 0.00000 0.00000 -1.00000 -0.43753 0.85606 0.27520 0.00000 0.00000 -1.00000 -0.94302 0.17799 0.28113 -0.00000 0.00000 -1.00000 -0.93442 -0.21261 0.28576 0.00000 0.00000 -1.00000 -0.49753 -0.81974 0.28372 0.00000 0.00000 -1.00000 0.07902 -0.95548 0.28428 0.00000 -0.00000 -1.00000 -0.32298 -0.88154 0.34434 0.00000 -0.00000 -1.00000 0.19251 -0.90683 0.37496 0.00000 0.00000 -1.00000 0.85548 -0.37696 0.35505 0.00000 0.00000 -1.00000 0.93309 -0.03708 0.35772 0.00000 0.00000 -1.00000 0.50263 0.77800 0.37693 0.00000 0.00000 -1.00000 0.03117 0.91711 0.39742 0.00000 0.00000 -1.00000 -0.82606 0.44174 0.34998 0.00000 0.00000 -1.00000 -0.89165 0.29270 0.34539 -0.00000 0.00000 -1.00000 -0.63046 -0.68838 0.35868 0.00000 0.00000 -1.00000 0.92389 0.15009 0.35200 0.00000 0.00000 -1.00000 0.55222 0.75524 0.35308 0.00000 0.00000 -1.00000 -0.03841 0.94081 0.33675 0.00000 0.00000 -1.00000 -0.62045 0.70850 0.33626 0.00000 0.00000 -1.00000 -0.93290 0.10921 0.34319 -0.00000 0.00000 -1.00000 -0.81371 -0.47001 0.34200 0.00000 0.00000 -1.00000 -0.31392 -0.87769 0.36211 0.00000 -0.00000 -1.00000 0.40921 -0.84287 0.34945 0.00000 0.00000 -1.00000 0.81437 -0.46668 0.34498 0.00000 0.00000 -1.00000 0.91448 -0.25118 0.31722 0.00000 0.00000 -1.00000 0.81098 0.48988 0.31988 0.00000 0.00000 -1.00000 0.41226 0.85453 0.31594 0.00000 0.00000 -1.00000 -0.33841 0.88504 0.31966 0.00000 0.00000 -1.00000 -0.85496 0.41570 0.31022 0.00000 0.00000 -1.00000 -0.94146 -0.14518 0.30428 -0.00000 0.00000 -1.00000 -0.65264 -0.69311 0.30603 0.00000 0.00000 -1.00000 -0.05993 -0.94863 0.31065 0.00000 -0.00000 -1.00000 0.57337 -0.75668 0.31415 0.00000 0.00000 -1.00000 -0.16150 -0.96307 0.21543 0.00000 -0.00000 -1.00000 0.50917 -0.83894 0.19216 0.00000 0.00000 -1.00000 0.83203 -0.51831 0.19769 0.00000 0.00000 -1.00000 0.96397 0.15770 0.21423 0.00000 0.00000 -1.00000 0.46644 0.86150 0.20066 0.00000 0.00000 -1.00000 0.08886 0.97501 0.20363 0.00000 0.00000 -1.00000 -0.61312 0.76057 0.21358 0.00000 0.00000 -1.00000 -0.96395 0.14996 0.21979 -0.00000 0.00000 -1.00000 -0.80580 -0.54427 0.23336 0.00000 0.00000 -1.00000 -0.58555 0.75753 0.28857 0.00000 0.00000 -1.00000 -0.95836 0.05715 0.27977 -0.00000 0.00000 -1.00000 -0.79076 -0.55102 0.26662 0.00000 0.00000 -1.00000 -0.43893 -0.85845 0.26536 0.00000 -0.00000 -1.00000 0.28164 -0.91474 0.28970 0.00000 0.00000 -1.00000 0.82258 -0.49653 0.27717 0.00000 0.00000 -1.00000 0.93733 0.20949 0.27844 0.00000 0.00000 -1.00000 0.61172 0.74423 0.26818 0.00000 0.00000 -1.00000 0.08976 0.95480 0.28338 0.00000 0.00000 -1.00000 -0.37527 0.89135 0.25431 0.00000 0.00000 -1.00000 -0.81714 0.51098 0.26680 0.00000 0.00000 -1.00000 -0.94255 -0.21878 0.25244 -0.00000 0.00000 -1.00000 -0.57226 -0.78242 0.24563 0.00000 0.00000 -1.00000 -0.01731 -0.96686 0.25471 0.00000 -0.00000 -1.00000 0.67204 -0.69477 0.25623 0.00000 0.00000 -1.00000 0.95285 -0.16389 0.25536 0.00000 0.00000 -1.00000 0.91012 0.31905 0.26437 0.00000 0.00000 -1.00000 0.23630 0.93392 0.26826 0.00000 0.00000 -1.00000 -0.18646 0.90635 0.37915 0.00000 0.00000 -1.00000 -0.70456 0.58830 0.39686 0.00000 0.00000 -1.00000 -0.91833 -0.05371 0.39215 -0.00000 0.00000 -1.00000 -0.74687 -0.54466 0.38149 0.00000 0.00000 -1.00000 -0.21723 -0.89961 0.37883 0.00000 -0.00000 -1.00000 0.53626 -0.74524 0.39629 0.00000 0.00000 -1.00000 0.85935 -0.33447 0.38683 0.00000 0.00000 -1.00000 0.89316 0.23381 0.38419 0.00000 0.00000 -1.00000 0.50751 0.77276 0.38115 0.00000 0.00000 -1.00000 0.91511 0.30176 0.26741 0.00000 0.00000 -1.00000 0.57656 0.77082 0.27096 0.00000 0.00000 -1.00000 -0.10860 0.94829 0.29826 0.00000 0.00000 -1.00000 -0.66430 0.68507 0.29898 0.00000 0.00000 -1.00000 -0.95105 0.01453 0.30869 -0.00000 0.00000 -1.00000 -0.74054 -0.60106 0.30055 0.00000 0.00000 -1.00000 -0.31085 -0.90282 0.29714 0.00000 -0.00000 -1.00000 0.46151 -0.82758 0.31956 0.00000 0.00000 -1.00000 0.93497 -0.19988 0.29304 0.00000 0.00000 -1.00000 -0.88448 -0.18912 0.42653 -0.00000 0.00000 -1.00000 -0.65588 -0.62694 0.42043 0.00000 0.00000 -1.00000 0.06273 -0.90954 0.41085 0.00000 -0.00000 -1.00000 0.52178 -0.74517 0.41529 0.00000 0.00000 -1.00000 0.88636 -0.16601 0.43220 0.00000 0.00000 -1.00000 0.75105 0.50477 0.42559 0.00000 0.00000 -1.00000 0.32045 0.84586 0.42642 0.00000 0.00000 -1.00000 -0.34451 0.84711 0.40463 0.00000 0.00000 -1.00000 -0.73911 0.52779 0.41852 0.00000 0.00000 -1.00000 -0.67273 0.54582 0.49952 0.00000 0.00000 -1.00000 -0.86756 -0.03020 0.49641 -0.00000 0.00000 -1.00000 -0.64079 -0.59828 0.48110 0.00000 0.00000 -1.00000 -0.18083 -0.86047 0.47632 0.00000 -0.00000 -1.00000 0.35464 -0.79741 0.48823 0.00000 0.00000 -1.00000 0.82615 -0.27309 0.49285 0.00000 0.00000 -1.00000 0.84996 0.18689 0.49259 0.00000 0.00000 -1.00000 0.41250 0.76750 0.49070 0.00000 0.00000 -1.00000 -0.04460 0.87000 0.49102 0.00000 0.00000 -1.00000 0.17104 0.89926 0.40258 0.00000 0.00000 -1.00000 -0.42445 0.81669 0.39096 0.00000 0.00000 -1.00000 -0.81170 0.43017 0.39508 0.00000 0.00000 -1.00000 -0.89749 -0.14095 0.41791 -0.00000 0.00000 -1.00000 -0.40330 -0.82141 0.40329 0.00000 0.00000 -1.00000 0.10584 -0.91025 0.40030 0.00000 -0.00000 -1.00000 0.53004 -0.74008 0.41393 0.00000 0.00000 -1.00000 0.90002 -0.04250 0.43378 0.00000 0.00000 -1.00000 0.68283 0.58954 0.43149 0.00000 0.00000 -1.00000 -0.24206 -0.88212 0.40408 0.00000 -0.00000 -1.00000 0.62020 -0.66261 0.41987 0.00000 0.00000 -1.00000 0.89437 -0.15933 0.41799 0.00000 0.00000 -1.00000 0.83030 0.37787 0.40966 0.00000 0.00000 -1.00000 0.44827 0.78991 0.41845 0.00000 0.00000 -1.00000 -0.34914 0.83292 0.42936 0.00000 0.00000 -1.00000 -0.76409 0.50046 0.40708 0.00000 0.00000 -1.00000 -0.89902 -0.14643 0.41270 -0.00000 0.00000 -1.00000 -0.50996 -0.76019 0.40256 0.00000 0.00000 -1.00000 -0.94405 -0.25777 0.20572 -0.00000 0.00000 -1.00000 -0.57366 -0.79482 0.19794 0.00000 0.00000 -1.00000 0.44565 -0.87676 0.18079 0.00000 -0.00000 -1.00000 0.56404 -0.80640 0.17772 0.00000 0.00000 -1.00000 0.92907 -0.31514 0.19368 0.00000 0.00000 -1.00000 0.79014 0.57928 0.20025 0.00000 0.00000 -1.00000 0.23567 0.94617 0.22187 0.00000 0.00000 -1.00000 -0.76497 0.62037 0.17309 0.00000 0.00000 -1.00000 -0.69517 0.69788 0.17236 0.00000 0.00000 -1.00000 0.09280 0.91091 0.40204 0.00000 0.00000 -1.00000 -0.46950 0.78649 0.40126 0.00000 0.00000 -1.00000 -0.87053 0.24801 0.42505 -0.00000 0.00000 -1.00000 -0.78667 -0.47009 0.40020 0.00000 0.00000 -1.00000 -0.47650 -0.78378 0.39828 0.00000 0.00000 -1.00000 0.27740 -0.87164 0.40410 0.00000 -0.00000 -1.00000 0.66443 -0.62690 0.40686 0.00000 0.00000 -1.00000 0.91010 0.09789 0.40266 0.00000 0.00000 -1.00000 0.66648 0.62439 0.40736 0.00000 0.00000 -1.00000 -0.24378 -0.94321 0.22568 0.00000 0.00000 -1.00000 0.24684 -0.94276 0.22424 0.00000 -0.00000 -1.00000 0.84483 -0.48354 0.22903 0.00000 0.00000 -1.00000 0.93422 0.28571 0.21354 0.00000 0.00000 -1.00000 0.54181 0.81277 0.21414 0.00000 0.00000 -1.00000 0.00681 0.97973 0.20018 0.00000 0.00000 -1.00000 -0.45008 0.86546 0.22004 0.00000 0.00000 -1.00000 -0.96223 0.14231 0.23209 -0.00000 0.00000 -1.00000 -0.80957 -0.54173 0.22613 0.00000 0.00000 -1.00000 0.58220 0.69044 0.42934 0.00000 0.00000 -1.00000 -0.09536 0.90714 0.40989 0.00000 0.00000 -1.00000 -0.58359 0.70447 0.40392 0.00000 0.00000 -1.00000 -0.88335 0.21116 0.41845 -0.00000 0.00000 -1.00000 -0.76371 -0.47523 0.43692 0.00000 0.00000 -1.00000 -0.22225 -0.87849 0.42291 0.00000 -0.00000 -1.00000 0.32254 -0.85206 0.41226 0.00000 0.00000 -1.00000 0.79868 -0.44004 0.41046 0.00000 0.00000 -1.00000 0.89758 0.15313 0.41341 0.00000 0.00000 -1.00000 0.29699 0.92183 0.24906 0.00000 0.00000 -1.00000 -0.57170 0.77576 0.26713 0.00000 0.00000 -1.00000 -0.92627 0.27197 0.26086 -0.00000 0.00000 -1.00000 -0.88742 -0.38544 0.25283 0.00000 0.00000 -1.00000 0.04690 -0.97371 0.22290 0.00000 0.00000 -1.00000 0.25693 -0.94362 0.20870 0.00000 -0.00000 -1.00000 0.81438 -0.52781 0.24125 0.00000 0.00000 -1.00000 0.96229 -0.11703 0.24558 0.00000 0.00000 -1.00000 0.54335 0.80448 0.23995 0.00000 0.00000 -1.00000</float_array><technique_common><accessor source="#normals-array" count="540" stride="3"><param name="X" type="float"/><param name="Y" type="float"/><param name="Z" type="float"/></accessor></technique_common></source>
<vertices id="vertices"><input semantic="POSITION" source="#positions"/></vertices><triangles count="540"><input semantic="VERTEX" source="#vertices" offset="0"/><input semantic="NORMAL" source="#normals" offset="1"/><p>0 0 1 0 9 0 10 1 1 1 0 1 1 2 2 2 9 2 10 3 2 3 1 3 2 4 3 4 9 4 10 5 3 5 2 5 3 6 4 6 9 6 10 7 4 7 3 7 4 8 5 8 9 8 10 9 5 9 4 9 5 10 6 10 9 10 10 11 6 11 5 11 6 12 7 12 9 12 10 13 7 13 6 13 7 14 8 14 9 14 10 15 8 15 7 15 8 16 0 16 9 16 10 17 0 17 8 17 11 18 12 18 20 18 21 19 12 19 11 19 12 20 13 20 20 20 21 21 13 21 12 21 13 22 14 22 20 22 21 23 14 23 13 23 14 24 15 24 20 24 21 25 15 25 14 25 15 26 16 26 20 26 21 27 16 27 15 27 16 28 17 28 20 28 21 29 17 29 16 29 17 30 18 30 20 30 21 31 18 31 17 31 18 32 19 32 20 32 21 33 19 33 18 33 19 34 11 34 20 34 21 35 11 35 19 35 22 36 23 36 31 36 32 37 23 37 22 37 23 38 24 38 31 38 32 39 24 39 23 39 24 40 25 40 31 40 32 41 25 41 24 41 25 42 26 42 31 42 32 43 26 43 25 43 26 44 27 44 31 44 32 45 27 45 26 45 27 46 28 46 31 46 32 47 28 47 27 47 28 48 29 48 31 48 32 49 29 49 28 49 29 50 30 50 31 50 32 51 30 51 29 51 30 52 22 52 31 52 32 53 22 53 30 53 33 54 34 54 42 54 43 55 34 55 33 55 34 56 35 56 42 56 43 57 35 57 34 57 35 58 36 58 42 58 43 59 36 59 35 59 36 60 37 60 42 60 43 61 37 61 36 61 37 62 38 62 42 62 43 63 38 63 37 63 38 64 39 64 42 64 43 65 39 65 38 65 39 66 40 66 42 66 43 67 40 67 39 67 40 68 41 68 42 68 43 69 41 69 40 69 41 70 33 70 42 70 43 71 33 71 41 71 44 72 45 72 53 72 54 73 45 73 44 73 45 74 46 74 53 74 54 75 46 75 45 75 46 76 47 76 53 76 54 77 47 77 46 77 47 78 48 78 53 78 54 79 48 79 47 79 48 80 49 80 53 80 54 81 49 81 48 81 49 82 50 82 53 82 54 83 50 83 49 83 50 84 51 84 53 84 54 85 51 85 50 85 51 86 52 86 53 86 54 87 52 87 51 87 52 88 44 88 53 88 54 89 44 89 52 89 55 90 56 90 64 90 65 91 56 91 55 91 56 92 57 92 64 92 65 93 57 93 56 93 57 94 58 94 64 94 65 95 58 95 57 95 58 96 59 96 64 96 65 97 59 97 58 97 59 98 60 98 64 98 65 99 60 99 59 99 60 100 61 100 64 100 65 101 61 101 60 101 61 102 62 102 64 102 65 103 62 103 61 103 62 104 63 104 64 104 65 105 63 105 62 105 63 106 55 106 64 106 65 107 55 107 63 107 66 108 67 108 75 108 76 109 67 109 66 109 67 110 68 110 75 110 76 111 68 111 67 111 68 112 69 112 75 112 76 113 69 113 68 113 69 114 70 114 75 114 76 115 70 115 69 115 70 116 71 116 75 116 76 117 71 117 70 117 71 118 72 118 75 118 76 119 72 119 71 119 72 120 73 120 75 120 76 121 73 121 72 121 73 122 74 122 75 122 76 123 74 123 73 123 74 124 66 124 75 124 76 125 66 125 74 125 77 126 78 126 86 126 87 127 78 127 77 127 78 128 79 128 86 128 87 129 79 129 78 129 79 130 80 130 86 130 87 131 80 131 79 131 80 132 81 132 86 132 87 133 81 133 80 133 81 134 82 134 86 134 87 135 82 135 81 135 82 136 83 136 86 136 87 137 83 137 82 137 83 138 84 138 86 138 87 139 84 139 83 139 84 140 85 140 86 140 87 141 85 141 84 141 85 142 77 142 86 142 87 143 77 143 85 143 88 144 89 144 97 144 98 145 89 145 88 145 89 146 90 146 97 146 98 147 90 147 89 147 90 148 91 148 97 148 98 149 91 149 90 149 91 150 92 150 97 150 98 151 92 151 91 151 92 152 93 152 97 152 98 153 93 153 92 153 93 154 94 154 97 154 98 155 94 155 93 155 94 156 95 156 97 156 98 157 95 157 94 157 95 158 96 158 97 158 98 159 96 159 95 159 96 160 88 160 97 160 98 161 88 161 96 161 99 162 100 162 108 162 109 163 100 163 99 163 100 164 101 164 108 164 109 165 101 165 100 165 101 166 102 166 108 166 109 167 102 167 101 167 102 168 103 168 108 168 109 169 103 169 102 169 103 170 104 170 108 170 109 171 104 171 103 171 104 172 105 172 108 172 109 173 105 173 104 173 105 174 106 174 108 174 109 175 106 175 105 175 106 176 107 176 108 176 109 177 107 177 106 177 107 178 99 178 108 178 109 179 99 179 107 179 110 180 111 180 119 180 120 181 111 181 110 181 111 182 112 182 119 182 120 183 112 183 111 183 112 184 113 184 119 184 120 185 113 185 112 185 113 186 114 186 119 186 120 187 114 187 113 187 114 188 115 188 119 188 120 189 115 189 114 189 115 190 116 190 119 190 120 191 116 191 115 191 116 192 117 192 119 192 120 193 117 193 116 193 117 194 118 194 119 194 120 195 118 195 117 195 118 196 110 196 119 196 120 197 110 197 118 197 121 198 122 198 130 198 131 199 122 199 121 199 122 200 123 200 130 200 131 201 123 201 122 201 123 202 124 202 130 202 131 203 124 203 123 203 124 204 125 204 130 204 131 205 125 205 124 205 125 206 126 206 130 206 131 207 126 207 125 207 126 208 127 208 130 208 131 209 127 209 126 209 127 210 128 210 130 210 131 211 128 211 127 211 128 212 129 212 130 212 131 213 129 213 128 213 129 214 121 214 130 214 131 215 121 215 129 215 132 216 133 216 141 216 142 217 133 217 132 217 133 218 134 218 141 218 142 219 134 219 133 219 134 220 135 220 141 220 142 221 135 221 134 221 135 222 136 222 141 222 142 223 136 223 135 223 136 224 137 224 141 224 142 225 137 225 136 225 137 226 138 226 141 226 142 227 138 227 137 227 138 228 139 228 141 228 142 229 139 229 138 229 139 230 140 230 141 230 142 231 140 231 139 231 140 232 132 232 141 232 142 233 132 233 140 233 143 234 144 234 152 234 153 235 144 235 143 235 144 236 145 236 152 236 153 237 145 237 144 237 145 238 146 238 152 238 153 239 146 239 145 239 146 240 147 240 152 240 153 241 147 241 146 241 147 242 148 242 152 242 153 243 148 243 147 243 148 244 149 244 152 244 153 245 149 245 148 245 149 246 150 246 152 246 153 247 150 247 149 247 150 248 151 248 152 248 153 249 151 249 150 249 151 250 143 250 152 250 153 251 143 251 151 251 154 252 155 252 163 252 164 253 155 253 154 253 155 254 156 254 163 254 164 255 156 255 155 255 156 256 157 256 163 256 164 257 157 257 156 257 157 258 158 258 163 258 164 259 158 259 157 259 158 260 159 260 163 260 164 261 159 261 158 261 159 262 160 262 163 262 164 263 160 263 159 263 160 264 161 264 163 264 164 265 161 265 160 265 161 266 162 266 163 266 164 267 162 267 161 267 162 268 154 268 163 268 164 269 154 269 162 269 165 270 166 270 174 270 175 271 166 271 165 271 166 272 167 272 174 272 175 273 167 273 166 273 167 274 168 274 174 274 175 275 168 275 167 275 168 276 169 276 174 276 175 277 169 277 168 277 169 278 170 278 174 278 175 279 170 279 169 279 170 280 171 280 174 280 175 281 171 281 170 281 171 282 172 282 174 282 175 283 172 283 171 283 172 284 173 284 174 284 175 285 173 285 172 285 173 286 165 286 174 286 175 287 165 287 173 287 176 288 177 288 185 288 186 289 177 289 176 289 177 290 178 290 185 290 186 291 178 291 177 291 178 292 179 292 185 292 186 293 179 293 178 293 179 294 180 294 185 294 186 295 180 295 179 295 180 296 181 296 185 296 186 297 181 297 180 297 181 298 182 298 185 298 186 299 182 299 181 299 182 300 183 300 185 300 186 301 183 301 182 301 183 302 184 302 185 302 186 303 184 303 183 303 184 304 176 304 185 304 186 305 176 305 184 305 187 306 188 306 196 306 197 307 188 307 187 307 188 308 189 308 196 308 197 309 189 309 188 309 189 310 190 310 196 310 197 311 190 311 189 311 190 312 191 312 196 312 197 313 191 313 190 313 191 314 192 314 196 314 197 315 192 315 191 315 192 316 193 316 196 316 197 317 193 317 192 317 193 318 194 318 196 318 197 319 194 319 193 319 194 320 195 320 196 320 197 321 195 321 194 321 195 322 187 322 196 322 197 323 187 323 195 323 198 324 199 324 207 324 208 325 199 325 198 325 199 326 200 326 207 326 208 327 200 327 199 327 200 328 201 328 207 328 208 329 201 329 200 329 201 330 202 330 207 330 208 331 202 331 201 331 202 332 203 332 207 332 208 333 203 333 202 333 203 334 204 334 207 334 208 335 204 335 203 335 204 336 205 336 207 336 208 337 205 337 204 337 205 338 206 338 207 338 208 339 206 339 205 339 206 340 198 340 207 340 208 341 198 341 206 341 209 342 210 342 218 342 219 343 210 343 209 343 210 344 211 344 218 344 219 345 211 345 210 345 211 346 212 346 218 346 219 347 212 347 211 347 212 348 213 348 218 348 219 349 213 349 212 349 213 350 214 350 218 350 219 351 214 351 213 351 214 352 215 352 218 352 219 353 215 353 214 353 215 354 216 354 218 354 219 355 216 355 215 355 216 356 217 356 218 356 219 357 217 357 216 357 217 358 209 358 218 358 219 359 209 359 217 359 220 360 221 360 229 360 230 361 221 361 220 361 221 362 222 362 229 362 230 363 222 363 221 363 222 364 223 364 229 364 230 365 223 365 222 365 223 366 224 366 229 366 230 367 224 367 223 367 224 368 225 368 229 368 230 369 225 369 224 369 225 370 226 370 229 370 230 371 226 371 225 371 226 372 227 372 229 372 230 373 227 373 226 373 227 374 228 374 229 374 230 375 228 375 227 375 228 376 220 376 229 376 230 377 220 377 228 377 231 378 232 378 240 378 241 379 232 379 231 379 232 380 233 380 240 380 241 381 233 381 232 381 233 382 234 382 240 382 241 383 234 383 233 383 234 384 235 384 240 384 241 385 235 385 234 385 235 386 236 386 240 386 241 387 236 387 235 387 236 388 237 388 240 388 241 389 237 389 236 389 237 390 238 390 240 390 241 391 238 391 237 391 238 392 239 392 240 392 241 393 239 393 238 393 239 394 231 394 240 394 241 395 231 395 239 395 242 396 243 396 251 396 252 397 243 397 242 397 243 398 244 398 251 398 252 399 244 399 243 399 244 400 245 400 251 400 252 401 245 401 244 401 245 402 246 402 251 402 252 403 246 403 245 403 246 404 247 404 251 404 252 405 247 405 246 405 247 406 248 406 251 406 252 407 248 407 247 407 248 408 249 408 251 408 252 409 249 409 248 409 249 410 250 410 251 410 252 411 250 411 249 411 250 412 242 412 251 412 252 413 242 413 250 413 253 414 254 414 262 414 263 415 254 415 253 415 254 416 255 416 262 416 263 417 255 417 254 417 255 418 256 418 262 418 263 419 256 419 255 419 256 420 257 420 262 420 263 421 257 421 256 421 257 422 258 422 262 422 263 423 258 423 257 423 258 424 259 424 262 424 263 425 259 425 258 425 259 426 260 426 262 426 263 427 260 427 259 427 260 428 261 428 262 428 263 429 261 429 260 429 261 430 253 430 262 430 263 431 253 431 261 431 264 432 265 432 273 432 274 433 265 433 264 433 265 434 266 434 273 434 274 435 266 435 265 435 266 436 267 436 273 436 274 437 267 437 266 437 267 438 268 438 273 438 274 439 268 439 267 439 268 440 269 440 273 440 274 441 269 441 268 441 269 442 270 442 273 442 274 443 270 443 269 443 270 444 271 444 273 444 274 445 271 445 270 445 271 446 272 446 273 446 274 447 272 447 271 447 272 448 264 448 273 448 274 449 264 449 272 449 275 450 276 450 284 450 285 451 276 451 275 451 276 452 277 452 284 452 285 453 277 453 276 453 277 454 278 454 284 454 285 455 278 455 277 455 278 456 279 456 284 456 285 457 279 457 278 457 279 458 280 458 284 458 285 459 280 459 279 459 280 460 281 460 284 460 285 461 281 461 280 461 281 462 282 462 284 462 285 463 282 463 281 463 282 464 283 464 284 464 285 465 283 465 282 465 283 466 275 466 284 466 285 467 275 467 283 467 286 468 287 468 295 468 296 469 287 469 286 469 287 470 288 470 295 470 296 471 288 471 287 471 288 472 289 472 295 472 296 473 289 473 288 473 289 474 290 474 295 474 296 475 290 475 289 475 290 476 291 476 295 476 296 477 291 477 290 477 291 478 292 478 295 478 296 479 292 479 291 479 292 480 293 480 295 480 296 481 293 481 292 481 293 482 294 482 295 482 296 483 294 483 293 483 294 484 286 484 295 484 296 485 286 485 294 485 297 486 298 486 306 486 307 487 298 487 297 487 298 488 299 488 306 488 307 489 299 489 298 489 299 490 300 490 306 490 307 491 300 491 299 491 300 492 301 492 306 492 307 493 301 493 300 493 301 494 302 494 306 494 307 495 302 495 301 495 302 496 303 496 306 496 307 497 303 497 302 497 303 498 304 498 306 498 307 499 304 499 303 499 304 500 305 500 306 500 307 501 305 501 304 501 305 502 297 502 306 502 307 503 297 503 305 503 308 504 309 504 317 504 318 505 309 505 308 505 309 506 310 506 317 506 318 507 310 507 309 507 310 508 311 508 317 508 318 509 311 509 310 509 311 510 312 510 317 510 318 511 312 511 311 511 312 512 313 512 317 512 318 513 313 513 312 513 313 514 314 514 317 514 318 515 314 515 313 515 314 516 315 516 317 516 318 517 315 517 314 517 315 518 316 518 317 518 318 519 316 519 315 519 316 520 308 520 317 520 318 521 308 521 316 521 319 522 320 522 328 522 329 523 320 523 319 523 320 524 321 524 328 524 329 525 321 525 320 525 321 526 322 526 328 526 329 527 322 527 321 527 322 528 323 528 328 528 329 529 323 529 322 529 323 530 324 530 328 530 329 531 324 531 323 531 324 532 325 532 328 532 329 533 325 533 324 533 325 534 326 534 328 534 329 535 326 535 325 535 326 536 327 536 328 536 329 537 327 537 326 537 327 538 319 538 328 538 329 539 319 539 327 539</p></triangles>
</mesh></geometry></library_geometries><library_visual_scenes><visual_scene id="Scene"><node id="mesh"><instance_geometry url="#geometry"/></node></visual_scene></library_visual_scenes><scene><instance_visual_scene url="#Scene"/></scene></COLLADA>