<?xml version="1.0" encoding="UTF-8"?>
<COLLADA xmlns="http://www.collada.org/2005/11/COLLADASchema" version="1.4.1">
<asset><contributor><authoring_tool>Summit Estate procedural mesh exporter</authoring_tool></contributor><created>2026-09-11T00:00:00Z</created><modified>2026-09-11T00:00:00Z</modified><unit name="meter" meter="1"/><up_axis>Z_UP</up_axis></asset>
<library_geometries><geometry id="geometry" name="geometry"><mesh>
<source id="positions"><float_array id="positions-array" count="1260">-24.57612 245.87211 76.60257 -24.70612 246.09728 76.60257 -24.96612 246.09728 76.60257 -25.09612 245.87211 76.60257 -24.96612 245.64694 76.60257 -24.70612 245.64694 76.60257 -24.57612 245.87211 90.72650 -24.70612 246.09728 90.72650 -24.96612 246.09728 90.72650 -25.09612 245.87211 90.72650 -24.96612 245.64694 90.72650 -24.70612 245.64694 90.72650 -24.83612 245.87211 76.60257 -24.83612 245.87211 90.72650 -59.23096 29.60519 75.80945 -59.36096 29.83036 75.80945 -59.62096 29.83036 75.80945 -59.75096 29.60519 75.80945 -59.62096 29.38003 75.80945 -59.36096 29.38003 75.80945 -59.23096 29.60519 87.05608 -59.36096 29.83036 87.05608 -59.62096 29.83036 87.05608 -59.75096 29.60519 87.05608 -59.62096 29.38003 87.05608 -59.36096 29.38003 87.05608 -59.49096 29.60519 75.80945 -59.49096 29.60519 87.05608 -69.47246 8.29954 70.87823 -69.60246 8.52471 70.87823 -69.86246 8.52471 70.87823 -69.99246 8.29954 70.87823 -69.86246 8.07437 70.87823 -69.60246 8.07437 70.87823 -69.47246 8.29954 83.94905 -69.60246 8.52471 83.94905 -69.86246 8.52471 83.94905 -69.99246 8.29954 83.94905 -69.86246 8.07437 83.94905 -69.60246 8.07437 83.94905 -69.73246 8.29954 70.87823 -69.73246 8.29954 83.94905 -28.99544 243.74125 76.56532 -29.12544 243.96641 76.56532 -29.38544 243.96641 76.56532 -29.51544 243.74125 76.56532 -29.38544 243.51608 76.56532 -29.12544 243.51608 76.56532 -28.99544 243.74125 90.94888 -29.12544 243.96641 90.94888 -29.38544 243.96641 90.94888 -29.51544 243.74125 90.94888 -29.38544 243.51608 90.94888 -29.12544 243.51608 90.94888 -29.25544 243.74125 76.56532 -29.25544 243.74125 90.94888 -78.34806 23.69121 61.97091 -78.47806 23.91637 61.97091 -78.73806 23.91637 61.97091 -78.86806 23.69121 61.97091 -78.73806 23.46604 61.97091 -78.47806 23.46604 61.97091 -78.34806 23.69121 71.17883 -78.47806 23.91637 71.17883 -78.73806 23.91637 71.17883 -78.86806 23.69121 71.17883 -78.73806 23.46604 71.17883 -78.47806 23.46604 71.17883 -78.60806 23.69121 61.97091 -78.60806 23.69121 71.17883 -32.95656 246.79180 76.24219 -33.08656 247.01696 76.24219 -33.34656 247.01696 76.24219 -33.47656 246.79180 76.24219 -33.34656 246.56663 76.24219 -33.08656 246.56663 76.24219 -32.95656 246.79180 87.22840 -33.08656 247.01696 87.22840 -33.34656 247.01696 87.22840 -33.47656 246.79180 87.22840 -33.34656 246.56663 87.22840 -33.08656 246.56663 87.22840 -33.21656 246.79180 76.24219 -33.21656 246.79180 87.22840 -61.23194 3.00536 76.09171 -61.36194 3.23053 76.09171 -61.62194 3.23053 76.09171 -61.75194 3.00536 76.09171 -61.62194 2.78019 76.09171 -61.36194 2.78019 76.09171 -61.23194 3.00536 88.09388 -61.36194 3.23053 88.09388 -61.62194 3.23053 88.09388 -61.75194 3.00536 88.09388 -61.62194 2.78019 88.09388 -61.36194 2.78019 88.09388 -61.49194 3.00536 76.09171 -61.49194 3.00536 88.09388 -118.43739 3.39366 52.00337 -118.56739 3.61883 52.00337 -118.82739 3.61883 52.00337 -118.95739 3.39366 52.00337 -118.82739 3.16850 52.00337 -118.56739 3.16850 52.00337 -118.43739 3.39366 64.92631 -118.56739 3.61883 64.92631 -118.82739 3.61883 64.92631 -118.95739 3.39366 64.92631 -118.82739 3.16850 64.92631 -118.56739 3.16850 64.92631 -118.69739 3.39366 52.00337 -118.69739 3.39366 64.92631 -82.62952 20.08847 59.65512 -82.75952 20.31363 59.65512 -83.01952 20.31363 59.65512 -83.14952 20.08847 59.65512 -83.01952 19.86330 59.65512 -82.75952 19.86330 59.65512 -82.62952 20.08847 68.00326 -82.75952 20.31363 68.00326 -83.01952 20.31363 68.00326 -83.14952 20.08847 68.00326 -83.01952 19.86330 68.00326 -82.75952 19.86330 68.00326 -82.88952 20.08847 59.65512 -82.88952 20.08847 68.00326 -69.87307 3.62493 70.62019 -70.00307 3.85010 70.62019 -70.26307 3.85010 70.62019 -70.39307 3.62493 70.62019 -70.26307 3.39977 70.62019 -70.00307 3.39977 70.62019 -69.87307 3.62493 82.90957 -70.00307 3.85010 82.90957 -70.26307 3.85010 82.90957 -70.39307 3.62493 82.90957 -70.26307 3.39977 82.90957 -70.00307 3.39977 82.90957 -70.13307 3.62493 70.62019 -70.13307 3.62493 82.90957 -23.98929 234.53459 76.59710 -24.11929 234.75976 76.59710 -24.37929 234.75976 76.59710 -24.50929 234.53459 76.59710 -24.37929 234.30942 76.59710 -24.11929 234.30942 76.59710 -23.98929 234.53459 90.08621 -24.11929 234.75976 90.08621 -24.37929 234.75976 90.08621 -24.50929 234.53459 90.08621 -24.37929 234.30942 90.08621 -24.11929 234.30942 90.08621 -24.24929 234.53459 76.59710 -24.24929 234.53459 90.08621 -57.30879 2.13623 77.94270 -57.43879 2.36139 77.94270 -57.69879 2.36139 77.94270 -57.82879 2.13623 77.94270 -57.69879 1.91106 77.94270 -57.43879 1.91106 77.94270 -57.30879 2.13623 88.23977 -57.43879 2.36139 88.23977 -57.69879 2.36139 88.23977 -57.82879 2.13623 88.23977 -57.69879 1.91106 88.23977 -57.43879 1.91106 88.23977 -57.56879 2.13623 77.94270 -57.56879 2.13623 88.23977 -64.59607 5.30394 74.14771 -64.72607 5.52910 74.14771 -64.98607 5.52910 74.14771 -65.11607 5.30394 74.14771 -64.98607 5.07877 74.14771 -64.72607 5.07877 74.14771 -64.59607 5.30394 86.44153 -64.72607 5.52910 86.44153 -64.98607 5.52910 86.44153 -65.11607 5.30394 86.44153 -64.98607 5.07877 86.44153 -64.72607 5.07877 86.44153 -64.85607 5.30394 74.14771 -64.85607 5.30394 86.44153 -16.17987 231.08878 77.41210 -16.30987 231.31395 77.41210 -16.56987 231.31395 77.41210 -16.69987 231.08878 77.41210 -16.56987 230.86362 77.41210 -16.30987 230.86362 77.41210 -16.17987 231.08878 84.26878 -16.30987 231.31395 84.26878 -16.56987 231.31395 84.26878 -16.69987 231.08878 84.26878 -16.56987 230.86362 84.26878 -16.30987 230.86362 84.26878 -16.43987 231.08878 77.41210 -16.43987 231.08878 84.26878 -16.97134 241.38397 77.13475 -17.10134 241.60914 77.13475 -17.36134 241.60914 77.13475 -17.49134 241.38397 77.13475 -17.36134 241.15880 77.13475 -17.10134 241.15880 77.13475 -16.97134 241.38397 87.26196 -17.10134 241.60914 87.26196 -17.36134 241.60914 87.26196 -17.49134 241.38397 87.26196 -17.36134 241.15880 87.26196 -17.10134 241.15880 87.26196 -17.23134 241.38397 77.13475 -17.23134 241.38397 87.26196 -70.41370 14.37144 70.18971 -70.54370 14.59660 70.18971 -70.80370 14.59660 70.18971 -70.93370 14.37144 70.18971 -70.80370 14.14627 70.18971 -70.54370 14.14627 70.18971 -70.41370 14.37144 84.54539 -70.54370 14.59660 84.54539 -70.80370 14.59660 84.54539 -70.93370 14.37144 84.54539 -70.80370 14.14627 84.54539 -70.54370 14.14627 84.54539 -70.67370 14.37144 70.18971 -70.67370 14.37144 84.54539 -58.14256 14.77054 77.61633 -58.27256 14.99571 77.61633 -58.53256 14.99571 77.61633 -58.66256 14.77054 77.61633 -58.53256 14.54537 77.61633 -58.27256 14.54537 77.61633 -58.14256 14.77054 91.28150 -58.27256 14.99571 91.28150 -58.53256 14.99571 91.28150 -58.66256 14.77054 91.28150 -58.53256 14.54537 91.28150 -58.27256 14.54537 91.28150 -58.40256 14.77054 77.61633 -58.40256 14.77054 91.28150 -106.93983 0.41631 50.11861 -107.06983 0.64147 50.11861 -107.32983 0.64147 50.11861 -107.45983 0.41631 50.11861 -107.32983 0.19114 50.11861 -107.06983 0.19114 50.11861 -106.93983 0.41631 62.35550 -107.06983 0.64147 62.35550 -107.32983 0.64147 62.35550 -107.45983 0.41631 62.35550 -107.32983 0.19114 62.35550 -107.06983 0.19114 62.35550 -107.19983 0.41631 50.11861 -107.19983 0.41631 62.35550 -58.66196 236.24671 60.75720 -58.79196 236.47188 60.75720 -59.05196 236.47188 60.75720 -59.18196 236.24671 60.75720 -59.05196 236.02155 60.75720 -58.79196 236.02155 60.75720 -58.66196 236.24671 72.45385 -58.79196 236.47188 72.45385 -59.05196 236.47188 72.45385 -59.18196 236.24671 72.45385 -59.05196 236.02155 72.45385 -58.79196 236.02155 72.45385 -58.92196 236.24671 60.75720 -58.92196 236.24671 72.45385 -103.86498 4.76650 50.94443 -103.99498 4.99167 50.94443 -104.25498 4.99167 50.94443 -104.38498 4.76650 50.94443 -104.25498 4.54133 50.94443 -103.99498 4.54133 50.94443 -103.86498 4.76650 59.85089 -103.99498 4.99167 59.85089 -104.25498 4.99167 59.85089 -104.38498 4.76650 59.85089 -104.25498 4.54133 59.85089 -103.99498 4.54133 59.85089 -104.12498 4.76650 50.94443 -104.12498 4.76650 59.85089 -11.88814 229.40605 77.94777 -12.01814 229.63121 77.94777 -12.27814 229.63121 77.94777 -12.40814 229.40605 77.94777 -12.27814 229.18088 77.94777 -12.01814 229.18088 77.94777 -11.88814 229.40605 86.98911 -12.01814 229.63121 86.98911 -12.27814 229.63121 86.98911 -12.40814 229.40605 86.98911 -12.27814 229.18088 86.98911 -12.01814 229.18088 86.98911 -12.14814 229.40605 77.94777 -12.14814 229.40605 86.98911 -74.29170 4.47393 67.36273 -74.42170 4.69909 67.36273 -74.68170 4.69909 67.36273 -74.81170 4.47393 67.36273 -74.68170 4.24876 67.36273 -74.42170 4.24876 67.36273 -74.29170 4.47393 76.82125 -74.42170 4.69909 76.82125 -74.68170 4.69909 76.82125 -74.81170 4.47393 76.82125 -74.68170 4.24876 76.82125 -74.42170 4.24876 76.82125 -74.55170 4.47393 67.36273 -74.55170 4.47393 76.82125 -20.07387 249.31272 76.68332 -20.20387 249.53789 76.68332 -20.46387 249.53789 76.68332 -20.59387 249.31272 76.68332 -20.46387 249.08756 76.68332 -20.20387 249.08756 76.68332 -20.07387 249.31272 86.41066 -20.20387 249.53789 86.41066 -20.46387 249.53789 86.41066 -20.59387 249.31272 86.41066 -20.46387 249.08756 86.41066 -20.20387 249.08756 86.41066 -20.33387 249.31272 76.68332 -20.33387 249.31272 86.41066 -101.20169 10.54708 51.93644 -101.33169 10.77224 51.93644 -101.59169 10.77224 51.93644 -101.72169 10.54708 51.93644 -101.59169 10.32191 51.93644 -101.33169 10.32191 51.93644 -101.20169 10.54708 59.12191 -101.33169 10.77224 59.12191 -101.59169 10.77224 59.12191 -101.72169 10.54708 59.12191 -101.59169 10.32191 59.12191 -101.33169 10.32191 59.12191 -101.46169 10.54708 51.93644 -101.46169 10.54708 59.12191 -86.01100 21.72660 56.92669 -86.14100 21.95177 56.92669 -86.40100 21.95177 56.92669 -86.53100 21.72660 56.92669 -86.40100 21.50144 56.92669 -86.14100 21.50144 56.92669 -86.01100 21.72660 65.68001 -86.14100 21.95177 65.68001 -86.40100 21.95177 65.68001 -86.53100 21.72660 65.68001 -86.40100 21.50144 65.68001 -86.14100 21.50144 65.68001 -86.27100 21.72660 56.92669 -86.27100 21.72660 65.68001 -55.84926 42.55833 65.01957 -55.97926 42.78350 65.01957 -56.23926 42.78350 65.01957 -56.36926 42.55833 65.01957 -56.23926 42.33316 65.01957 -55.97926 42.33316 65.01957 -55.84926 42.55833 75.12148 -55.97926 42.78350 75.12148 -56.23926 42.78350 75.12148 -56.36926 42.55833 75.12148 -56.23926 42.33316 75.12148 -55.97926 42.33316 75.12148 -56.10926 42.55833 65.01957 -56.10926 42.55833 75.12148 -22.20561 242.83356 76.86310 -22.33561 243.05873 76.86310 -22.59561 243.05873 76.86310 -22.72561 242.83356 76.86310 -22.59561 242.60839 76.86310 -22.33561 242.60839 76.86310 -22.20561 242.83356 85.68800 -22.33561 243.05873 85.68800 -22.59561 243.05873 85.68800 -22.72561 242.83356 85.68800 -22.59561 242.60839 85.68800 -22.33561 242.60839 85.68800 -22.46561 242.83356 76.86310 -22.46561 242.83356 85.68800 -42.28083 243.45796 75.30279 -42.41083 243.68313 75.30279 -42.67083 243.68313 75.30279 -42.80083 243.45796 75.30279 -42.67083 243.23279 75.30279 -42.41083 243.23279 75.30279 -42.28083 243.45796 89.95817 -42.41083 243.68313 89.95817 -42.67083 243.68313 89.95817 -42.80083 243.45796 89.95817 -42.67083 243.23279 89.95817 -42.41083 243.23279 89.95817 -42.54083 243.45796 75.30279 -42.54083 243.45796 89.95817 -47.83788 244.49363 74.26481 -47.96788 244.71880 74.26481 -48.22788 244.71880 74.26481 -48.35788 244.49363 74.26481 -48.22788 244.26846 74.26481 -47.96788 244.26846 74.26481 -47.83788 244.49363 85.57418 -47.96788 244.71880 85.57418 -48.22788 244.71880 85.57418 -48.35788 244.49363 85.57418 -48.22788 244.26846 85.57418 -47.96788 244.26846 85.57418 -48.09788 244.49363 74.26481 -48.09788 244.49363 85.57418 -58.07010 19.01941 77.66591 -58.20010 19.24458 77.66591 -58.46010 19.24458 77.66591 -58.59010 19.01941 77.66591 -58.46010 18.79424 77.66591 -58.20010 18.79424 77.66591 -58.07010 19.01941 86.69673 -58.20010 19.24458 86.69673 -58.46010 19.24458 86.69673 -58.59010 19.01941 86.69673 -58.46010 18.79424 86.69673 -58.20010 18.79424 86.69673 -58.33010 19.01941 77.66591 -58.33010 19.01941 86.69673</float_array><technique_common><accessor source="#positions-array" count="420" stride="3"><param name="X" type="float"/><param name="Y" type="float"/><param name="Z" type="float"/></accessor></technique_common></source>
<source id="normals"><float_array id="normals-array" count="2160">0.86603 0.50000 0.00000 0.86603 0.50000 -0.00000 0.00000 0.00000 -1.00000 0.00000 0.00000 1.00000 0.00000 1.00000 0.00000 0.00000 1.00000 -0.00000 0.00000 0.00000 -1.00000 0.00000 -0.00000 1.00000 -0.86603 0.50000 0.00000 -0.86603 0.50000 0.00000 0.00000 0.00000 -1.00000 0.00000 0.00000 1.00000 -0.86603 -0.50000 0.00000 -0.86603 -0.50000 0.00000 -0.00000 0.00000 -1.00000 0.00000 0.00000 1.00000 0.00000 -1.00000 0.00000 0.00000 -1.00000 0.00000 0.00000 -0.00000 -1.00000 0.00000 0.00000 1.00000 0.86603 -0.50000 0.00000 0.86603 -0.50000 0.00000 0.00000 0.00000 -1.00000 -0.00000 0.00000 1.00000 0.86603 0.50000 0.00000 0.86603 0.50000 -0.00000 0.00000 0.00000 -1.00000 0.00000 0.00000 1.00000 0.00000 1.00000 0.00000 0.00000 1.00000 -0.00000 0.00000 0.00000 -1.00000 0.00000 -0.00000 1.00000 -0.86603 0.50000 0.00000 -0.86603 0.50000 0.00000 0.00000 0.00000 -1.00000 0.00000 0.00000 1.00000 -0.86603 -0.50000 0.00000 -0.86603 -0.50000 0.00000 -0.00000 0.00000 -1.00000 0.00000 0.00000 1.00000 0.00000 -1.00000 0.00000 0.00000 -1.00000 0.00000 0.00000 -0.00000 -1.00000 0.00000 0.00000 1.00000 0.86603 -0.50000 0.00000 0.86603 -0.50000 0.00000 0.00000 0.00000 -1.00000 -0.00000 0.00000 1.00000 0.86603 0.50000 0.00000 0.86603 0.50000 -0.00000 0.00000 0.00000 -1.00000 0.00000 0.00000 1.00000 0.00000 1.00000 0.00000 0.00000 1.00000 -0.00000 0.00000 0.00000 -1.00000 0.00000 -0.00000 1.00000 -0.86603 0.50000 0.00000 -0.86603 0.50000 0.00000 0.00000 0.00000 -1.00000 0.00000 0.00000 1.00000 -0.86603 -0.50000 0.00000 -0.86603 -0.50000 0.00000 -0.00000 0.00000 -1.00000 0.00000 0.00000 1.00000 0.00000 -1.00000 0.00000 0.00000 -1.00000 0.00000 0.00000 -0.00000 -1.00000 0.00000 0.00000 1.00000 0.86603 -0.50000 0.00000 0.86603 -0.50000 0.00000 0.00000 0.00000 -1.00000 -0.00000 0.00000 1.00000 0.86603 0.50000 0.00000 0.86603 0.50000 -0.00000 0.00000 0.00000 -1.00000 0.00000 0.00000 1.00000 0.00000 1.00000 0.00000 0.00000 1.00000 -0.00000 0.00000 0.00000 -1.00000 0.00000 -0.00000 1.00000 -0.86603 0.50000 0.00000 -0.86603 0.50000 0.00000 0.00000 0.00000 -1.00000 0.00000 0.00000 1.00000 -0.86603 -0.50000 0.00000 -0.86603 -0.50000 0.00000 -0.00000 0.00000 -1.00000 0.00000 0.00000 1.00000 0.00000 -1.00000 0.00000 0.00000 -1.00000 0.00000 0.00000 -0.00000 -1.00000 0.00000 0.00000 1.00000 0.86603 -0.50000 0.00000 0.86603 -0.50000 0.00000 0.00000 0.00000 -1.00000 -0.00000 0.00000 1.00000 0.86603 0.50000 0.00000 0.86603 0.50000 -0.00000 0.00000 0.00000 -1.00000 0.00000 0.00000 1.00000 0.00000 1.00000 0.00000 0.00000 1.00000 -0.00000 0.00000 0.00000 -1.00000 0.00000 -0.00000 1.00000 -0.86603 0.50000 0.00000 -0.86603 0.50000 0.00000 0.00000 0.00000 -1.00000 0.00000 0.00000 1.00000 -0.86603 -0.50000 0.00000 -0.86603 -0.50000 0.00000 -0.00000 0.00000 -1.00000 0.00000 0.00000 1.00000 0.00000 -1.00000 0.00000 0.00000 -1.00000 0.00000 0.00000 -0.00000 -1.00000 0.00000 0.00000 1.00000 0.86603 -0.50000 0.00000 0.86603 -0.50000 0.00000 0.00000 0.00000 -1.00000 -0.00000 0.00000 1.00000 0.86603 0.50000 0.00000 0.86603 0.50000 -0.00000 0.00000 0.00000 -1.00000 0.00000 0.00000 1.00000 0.00000 1.00000 0.00000 0.00000 1.00000 -0.00000 0.00000 0.00000 -1.00000 0.00000 -0.00000 1.00000 -0.86603 0.50000 0.00000 -0.86603 0.50000 0.00000 0.00000 0.00000 -1.00000 0.00000 0.00000 1.00000 -0.86603 -0.50000 0.00000 -0.86603 -0.50000 0.00000 -0.00000 0.00000 -1.00000 0.00000 0.00000 1.00000 0.00000 -1.00000 0.00000 0.00000 -1.00000 0.00000 0.00000 -0.00000 -1.00000 0.00000 0.00000 1.00000 0.86603 -0.50000 0.00000 0.86603 -0.50000 0.00000 0.00000 0.00000 -1.00000 -0.00000 0.00000 1.00000 0.86603 0.50000 0.00000 0.86603 0.50000 -0.00000 0.00000 0.00000 -1.00000 0.00000 0.00000 1.00000 0.00000 1.00000 0.00000 0.00000 1.00000 -0.00000 0.00000 0.00000 -1.00000 0.00000 -0.00000 1.00000 -0.86603 0.50000 0.00000 -0.86603 0.50000 0.00000 0.00000 0.00000 -1.00000 0.00000 0.00000 1.00000 -0.86603 -0.50000 0.00000 -0.86603 -0.50000 0.00000 -0.00000 0.00000 -1.00000 0.00000 0.00000 1.00000 -0.00000 -1.00000 0.00000 -0.00000 -1.00000 0.00000 0.00000 -0.00000 -1.00000 0.00000 0.00000 1.00000 0.86603 -0.50000 0.00000 0.86603 -0.50000 0.00000 0.00000 0.00000 -1.00000 -0.00000 0.00000 1.00000 0.86603 0.50000 0.00000 0.86603 0.50000 -0.00000 0.00000 0.00000 -1.00000 0.00000 0.00000 1.00000 0.00000 1.00000 0.00000 0.00000 1.00000 -0.00000 0.00000 0.00000 -1.00000 0.00000 -0.00000 1.00000 -0.86603 0.50000 0.00000 -0.86603 0.50000 0.00000 0.00000 0.00000 -1.00000 0.00000 0.00000 1.00000 -0.86603 -0.50000 0.00000 -0.86603 -0.50000 0.00000 -0.00000 0.00000 -1.00000 0.00000 0.00000 1.00000 -0.00000 -1.00000 0.00000 -0.00000 -1.00000 0.00000 0.00000 -0.00000 -1.00000 0.00000 0.00000 1.00000 0.86603 -0.50000 0.00000 0.86603 -0.50000 0.00000 0.00000 0.00000 -1.00000 -0.00000 0.00000 1.00000 0.86603 0.50000 0.00000 0.86603 0.50000 -0.00000 0.00000 0.00000 -1.00000 0.00000 0.00000 1.00000 0.00000 1.00000 0.00000 0.00000 1.00000 -0.00000 0.00000 0.00000 -1.00000 0.00000 -0.00000 1.00000 -0.86603 0.50000 0.00000 -0.86603 0.50000 0.00000 0.00000 0.00000 -1.00000 0.00000 0.00000 1.00000 -0.86603 -0.50000 0.00000 -0.86603 -0.50000 0.00000 -0.00000 0.00000 -1.00000 0.00000 0.00000 1.00000 0.00000 -1.00000 0.00000 0.00000 -1.00000 0.00000 0.00000 -0.00000 -1.00000 0.00000 0.00000 1.00000 0.86603 -0.50000 0.00000 0.86603 -0.50000 0.00000 0.00000 0.00000 -1.00000 -0.00000 0.00000 1.00000 0.86603 0.50000 0.00000 0.86603 0.50000 -0.00000 0.00000 0.00000 -1.00000 0.00000 0.00000 1.00000 0.00000 1.00000 0.00000 0.00000 1.00000 -0.00000 0.00000 0.00000 -1.00000 0.00000 -0.00000 1.00000 -0.86603 0.50000 0.00000 -0.86603 0.50000 0.00000 0.00000 0.00000 -1.00000 0.00000 0.00000 1.00000 -0.86603 -0.50000 0.00000 -0.86603 -0.50000 0.00000 -0.00000 0.00000 -1.00000 0.00000 0.00000 1.00000 -0.00000 -1.00000 0.00000 -0.00000 -1.00000 0.00000 0.00000 -0.00000 -1.00000 0.00000 0.00000 1.00000 0.86603 -0.50000 0.00000 0.86603 -0.50000 0.00000 0.00000 0.00000 -1.00000 -0.00000 0.00000 1.00000 0.86603 0.50000 0.00000 0.86603 0.50000 -0.00000 0.00000 0.00000 -1.00000 0.00000 0.00000 1.00000 0.00000 1.00000 0.00000 0.00000 1.00000 -0.00000 0.00000 0.00000 -1.00000 0.00000 -0.00000 1.00000 -0.86603 0.50000 0.00000 -0.86603 0.50000 0.00000 0.00000 0.00000 -1.00000 0.00000 0.00000 1.00000 -0.86603 -0.50000 0.00000 -0.86603 -0.50000 0.00000 -0.00000 0.00000 -1.00000 0.00000 0.00000 1.00000 0.00000 -1.00000 0.00000 0.00000 -1.00000 0.00000 0.00000 -0.00000 -1.00000 0.00000 0.00000 1.00000 0.86603 -0.50000 0.00000 0.86603 -0.50000 0.00000 0.00000 0.00000 -1.00000 -0.00000 0.00000 1.00000 0.86603 0.50000 0.00000 0.86603 0.50000 -0.00000 0.00000 0.00000 -1.00000 0.00000 0.00000 1.00000 0.00000 1.00000 0.00000 0.00000 1.00000 -0.00000 0.00000 0.00000 -1.00000 0.00000 -0.00000 1.00000 -0.86603 0.50000 0.00000 -0.86603 0.50000 0.00000 0.00000 0.00000 -1.00000 0.00000 0.00000 1.00000 -0.86603 -0.50000 0.00000 -0.86603 -0.50000 0.00000 -0.00000 0.00000 -1.00000 0.00000 0.00000 1.00000 0.00000 -1.00000 0.00000 0.00000 -1.00000 0.00000 0.00000 -0.00000 -1.00000 0.00000 0.00000 1.00000 0.86603 -0.50000 0.00000 0.86603 -0.50000 0.00000 0.00000 0.00000 -1.00000 -0.00000 0.00000 1.00000 0.86603 0.50000 0.00000 0.86603 0.50000 -0.00000 0.00000 0.00000 -1.00000 0.00000 0.00000 1.00000 0.00000 1.00000 0.00000 0.00000 1.00000 -0.00000 0.00000 0.00000 -1.00000 0.00000 -0.00000 1.00000 -0.86603 0.50000 0.00000 -0.86603 0.50000 0.00000 0.00000 0.00000 -1.00000 0.00000 0.00000 1.00000 -0.86603 -0.50000 0.00000 -0.86603 -0.50000 0.00000 -0.00000 0.00000 -1.00000 0.00000 0.00000 1.00000 0.00000 -1.00000 0.00000 0.00000 -1.00000 0.00000 0.00000 -0.00000 -1.00000 0.00000 0.00000 1.00000 0.86603 -0.50000 0.00000 0.86603 -0.50000 0.00000 0.00000 0.00000 -1.00000 -0.00000 0.00000 1.00000 0.86603 0.50000 0.00000 0.86603 0.50000 -0.00000 0.00000 0.00000 -1.00000 0.00000 0.00000 1.00000 0.00000 1.00000 0.00000 0.00000 1.00000 -0.00000 0.00000 0.00000 -1.00000 0.00000 -0.00000 1.00000 -0.86603 0.50000 0.00000 -0.86603 0.50000 0.00000 0.00000 0.00000 -1.00000 0.00000 0.00000 1.00000 -0.86603 -0.50000 0.00000 -0.86603 -0.50000 0.00000 -0.00000 0.00000 -1.00000 0.00000 0.00000 1.00000 0.00000 -1.00000 0.00000 0.00000 -1.00000 0.00000 0.00000 -0.00000 -1.00000 0.00000 0.00000 1.00000 0.86603 -0.50000 0.00000 0.86603 -0.50000 0.00000 0.00000 0.00000 -1.00000 -0.00000 0.00000 1.00000 0.86603 0.50000 0.00000 0.86603 0.50000 -0.00000 0.00000 0.00000 -1.00000 0.00000 0.00000 1.00000 0.00000 1.00000 0.00000 0.00000 1.00000 -0.00000 0.00000 0.00000 -1.00000 0.00000 -0.00000 1.00000 -0.86603 0.50000 0.00000 -0.86603 0.50000 0.00000 0.00000 0.00000 -1.00000 0.00000 0.00000 1.00000 -0.86603 -0.50000 0.00000 -0.86603 -0.50000 0.00000 -0.00000 0.00000 -1.00000 0.00000 0.00000 1.00000 0.00000 -1.00000 0.00000 0.00000 -1.00000 0.00000 0.00000 -0.00000 -1.00000 0.00000 0.00000 1.00000 0.86603 -0.50000 0.00000 0.86603 -0.50000 0.00000 0.00000 0.00000 -1.00000 -0.00000 0.00000 1.00000 0.86603 0.50000 0.00000 0.86603 0.50000 -0.00000 0.00000 0.00000 -1.00000 0.00000 0.00000 1.00000 0.00000 1.00000 0.00000 0.00000 1.00000 -0.00000 0.00000 0.00000 -1.00000 0.00000 -0.00000 1.00000 -0.86603 0.50000 0.00000 -0.86603 0.50000 0.00000 0.00000 0.00000 -1.00000 0.00000 0.00000 1.00000 -0.86603 -0.50000 0.00000 -0.86603 -0.50000 0.00000 -0.00000 0.00000 -1.00000 0.00000 0.00000 1.00000 0.00000 -1.00000 0.00000 0.00000 -1.00000 0.00000 0.00000 -0.00000 -1.00000 0.00000 0.00000 1.00000 0.86603 -0.50000 0.00000 0.86603 -0.50000 0.00000 0.00000 0.00000 -1.00000 -0.00000 0.00000 1.00000 0.86603 0.50000 0.00000 0.86603 0.50000 -0.00000 0.00000 0.00000 -1.00000 0.00000 0.00000 1.00000 0.00000 1.00000 0.00000 0.00000 1.00000 -0.00000 0.00000 0.00000 -1.00000 0.00000 -0.00000 1.00000 -0.86603 0.50000 0.00000 -0.86603 0.50000 0.00000 0.00000 0.00000 -1.00000 0.00000 0.00000 1.00000 -0.86603 -0.50000 0.00000 -0.86603 -0.50000 0.00000 -0.00000 0.00000 -1.00000 0.00000 0.00000 1.00000 0.00000 -1.00000 0.00000 0.00000 -1.00000 0.00000 0.00000 -0.00000 -1.00000 0.00000 0.00000 1.00000 0.86603 -0.50000 0.00000 0.86603 -0.50000 0.00000 0.00000 0.00000 -1.00000 -0.00000 0.00000 1.00000 0.86603 0.50000 0.00000 0.86603 0.50000 -0.00000 0.00000 0.00000 -1.00000 0.00000 0.00000 1.00000 0.00000 1.00000 0.00000 0.00000 1.00000 -0.00000 0.00000 0.00000 -1.00000 0.00000 -0.00000 1.00000 -0.86603 0.50000 0.00000 -0.86603 0.50000 0.00000 0.00000 0.00000 -1.00000 0.00000 0.00000 1.00000 -0.86603 -0.50000 0.00000 -0.86603 -0.50000 0.00000 -0.00000 0.00000 -1.00000 0.00000 0.00000 1.00000 -0.00000 -1.00000 0.00000 -0.00000 -1.00000 0.00000 0.00000 -0.00000 -1.00000 0.00000 0.00000 1.00000 0.86603 -0.50000 0.00000 0.86603 -0.50000 0.00000 0.00000 0.00000 -1.00000 -0.00000 0.00000 1.00000 0.86603 0.50000 0.00000 0.86603 0.50000 -0.00000 0.00000 0.00000 -1.00000 0.00000 0.00000 1.00000 0.00000 1.00000 0.00000 0.00000 1.00000 -0.00000 0.00000 0.00000 -1.00000 0.00000 -0.00000 1.00000 -0.86603 0.50000 0.00000 -0.86603 0.50000 0.00000 0.00000 0.00000 -1.00000 0.00000 0.00000 1.00000 -0.86603 -0.50000 0.00000 -0.86603 -0.50000 0.00000 -0.00000 0.00000 -1.00000 0.00000 0.00000 1.00000 0.00000 -1.00000 0.00000 0.00000 -1.00000 0.00000 0.00000 -0.00000 -1.00000 0.00000 0.00000 1.00000 0.86603 -0.50000 0.00000 0.86603 -0.50000 0.00000 0.00000 0.00000 -1.00000 -0.00000 0.00000 1.00000 0.86603 0.50000 0.00000 0.86603 0.50000 -0.00000 0.00000 0.00000 -1.00000 0.00000 0.00000 1.00000 0.00000 1.00000 0.00000 0.00000 1.00000 -0.00000 0.00000 0.00000 -1.00000 0.00000 -0.00000 1.00000 -0.86603 0.50000 0.00000 -0.86603 0.50000 0.00000 0.00000 0.00000 -1.00000 0.00000 0.00000 1.00000 -0.86603 -0.50000 0.00000 -0.86603 -0.50000 0.00000 -0.00000 0.00000 -1.00000 0.00000 0.00000 1.00000 0.00000 -1.00000 0.00000 0.00000 -1.00000 0.00000 0.00000 -0.00000 -1.00000 0.00000 0.00000 1.00000 0.86603 -0.50000 0.00000 0.86603 -0.50000 0.00000 0.00000 0.00000 -1.00000 -0.00000 0.00000 1.00000 0.86603 0.50000 0.00000 0.86603 0.50000 -0.00000 0.00000 0.00000 -1.00000 0.00000 0.00000 1.00000 0.00000 1.00000 0.00000 0.00000 1.00000 -0.00000 0.00000 0.00000 -1.00000 0.00000 -0.00000 1.00000 -0.86603 0.50000 0.00000 -0.86603 0.50000 0.00000 0.00000 0.00000 -1.00000 0.00000 0.00000 1.00000 -0.86603 -0.50000 0.00000 -0.86603 -0.50000 0.00000 -0.00000 0.00000 -1.00000 0.00000 0.00000 1.00000 0.00000 -1.00000 0.00000 0.00000 -1.00000 0.00000 0.00000 -0.00000 -1.00000 0.00000 0.00000 1.00000 0.86603 -0.50000 0.00000 0.86603 -0.50000 0.00000 0.00000 0.00000 -1.00000 -0.00000 0.00000 1.00000 0.86603 0.50000 0.00000 0.86603 0.50000 -0.00000 0.00000 0.00000 -1.00000 0.00000 0.00000 1.00000 0.00000 1.00000 0.00000 0.00000 1.00000 -0.00000 0.00000 0.00000 -1.00000 0.00000 -0.00000 1.00000 -0.86603 0.50000 0.00000 -0.86603 0.50000 0.00000 0.00000 0.00000 -1.00000 0.00000 0.00000 1.00000 -0.86603 -0.50000 0.00000 -0.86603 -0.50000 0.00000 -0.00000 0.00000 -1.00000 0.00000 0.00000 1.00000 0.00000 -1.00000 0.00000 0.00000 -1.00000 0.00000 0.00000 -0.00000 -1.00000 0.00000 0.00000 1.00000 0.86603 -0.50000 0.00000 0.86603 -0.50000 0.00000 0.00000 0.00000 -1.00000 -0.00000 0.00000 1.00000 0.86603 0.50000 0.00000 0.86603 0.50000 -0.00000 0.00000 0.00000 -1.00000 0.00000 0.00000 1.00000 0.00000 1.00000 0.00000 0.00000 1.00000 -0.00000 0.00000 0.00000 -1.00000 0.00000 -0.00000 1.00000 -0.86603 0.50000 0.00000 -0.86603 0.50000 0.00000 0.00000 0.00000 -1.00000 0.00000 0.00000 1.00000 -0.86603 -0.50000 0.00000 -0.86603 -0.50000 0.00000 -0.00000 0.00000 -1.00000 0.00000 0.00000 1.00000 0.00000 -1.00000 0.00000 0.00000 -1.00000 0.00000 0.00000 -0.00000 -1.00000 0.00000 0.00000 1.00000 0.86603 -0.50000 0.00000 0.86603 -0.50000 0.00000 0.00000 0.00000 -1.00000 -0.00000 0.00000 1.00000 0.86603 0.50000 0.00000 0.86603 0.50000 -0.00000 0.00000 0.00000 -1.00000 0.00000 0.00000 1.00000 0.00000 1.00000 0.00000 0.00000 1.00000 -0.00000 0.00000 0.00000 -1.00000 0.00000 -0.00000 1.00000 -0.86603 0.50000 0.00000 -0.86603 0.50000 0.00000 0.00000 0.00000 -1.00000 0.00000 0.00000 1.00000 -0.86603 -0.50000 0.00000 -0.86603 -0.50000 0.00000 -0.00000 0.00000 -1.00000 0.00000 0.00000 1.00000 0.00000 -1.00000 0.00000 0.00000 -1.00000 0.00000 0.00000 -0.00000 -1.00000 0.00000 0.00000 1.00000 0.86603 -0.50000 0.00000 0.86603 -0.50000 0.00000 0.00000 0.00000 -1.00000 -0.00000 0.00000 1.00000 0.86603 0.50000 0.00000 0.86603 0.50000 -0.00000 0.00000 0.00000 -1.00000 0.00000 0.00000 1.00000 0.00000 1.00000 0.00000 0.00000 1.00000 -0.00000 0.00000 0.00000 -1.00000 0.00000 -0.00000 1.00000 -0.86603 0.50000 0.00000 -0.86603 0.50000 0.00000 0.00000 0.00000 -1.00000 0.00000 0.00000 1.00000 -0.86603 -0.50000 0.00000 -0.86603 -0.50000 0.00000 -0.00000 0.00000 -1.00000 0.00000 0.00000 1.00000 0.00000 -1.00000 0.00000 0.00000 -1.00000 0.00000 0.00000 -0.00000 -1.00000 0.00000 0.00000 1.00000 0.86603 -0.50000 0.00000 0.86603 -0.50000 0.00000 0.00000 0.00000 -1.00000 -0.00000 0.00000 1.00000 0.86603 0.50000 0.00000 0.86603 0.50000 -0.00000 0.00000 0.00000 -1.00000 0.00000 0.00000 1.00000 0.00000 1.00000 0.00000 0.00000 1.00000 -0.00000 0.00000 0.00000 -1.00000 0.00000 -0.00000 1.00000 -0.86603 0.50000 0.00000 -0.86603 0.50000 0.00000 0.00000 0.00000 -1.00000 0.00000 0.00000 1.00000 -0.86603 -0.50000 0.00000 -0.86603 -0.50000 0.00000 -0.00000 0.00000 -1.00000 0.00000 0.00000 1.00000 0.00000 -1.00000 0.00000 0.00000 -1.00000 0.00000 0.00000 -0.00000 -1.00000 0.00000 0.00000 1.00000 0.86603 -0.50000 0.00000 0.86603 -0.50000 0.00000 0.00000 0.00000 -1.00000 -0.00000 0.00000 1.00000 0.86603 0.50000 0.00000 0.86603 0.50000 -0.00000 0.00000 0.00000 -1.00000 0.00000 0.00000 1.00000 0.00000 1.00000 0.00000 0.00000 1.00000 -0.00000 0.00000 0.00000 -1.00000 0.00000 -0.00000 1.00000 -0.86603 0.50000 0.00000 -0.86603 0.50000 0.00000 0.00000 0.00000 -1.00000 0.00000 0.00000 1.00000 -0.86603 -0.50000 0.00000 -0.86603 -0.50000 0.00000 -0.00000 0.00000 -1.00000 0.00000 0.00000 1.00000 0.00000 -1.00000 0.00000 0.00000 -1.00000 0.00000 0.00000 -0.00000 -1.00000 0.00000 0.00000 1.00000 0.86603 -0.50000 0.00000 0.86603 -0.50000 0.00000 0.00000 0.00000 -1.00000 -0.00000 0.00000 1.00000 0.86603 0.50000 0.00000 0.86603 0.50000 -0.00000 0.00000 0.00000 -1.00000 0.00000 0.00000 1.00000 0.00000 1.00000 0.00000 0.00000 1.00000 -0.00000 0.00000 0.00000 -1.00000 0.00000 -0.00000 1.00000 -0.86603 0.50000 0.00000 -0.86603 0.50000 0.00000 0.00000 0.00000 -1.00000 0.00000 0.00000 1.00000 -0.86603 -0.50000 0.00000 -0.86603 -0.50000 0.00000 -0.00000 0.00000 -1.00000 0.00000 0.00000 1.00000 0.00000 -1.00000 0.00000 0.00000 -1.00000 0.00000 0.00000 -0.00000 -1.00000 0.00000 0.00000 1.00000 0.86603 -0.50000 0.00000 0.86603 -0.50000 0.00000 0.00000 0.00000 -1.00000 -0.00000 0.00000 1.00000 0.86603 0.50000 0.00000 0.86603 0.50000 -0.00000 0.00000 0.00000 -1.00000 0.00000 0.00000 1.00000 0.00000 1.00000 0.00000 0.00000 1.00000 -0.00000 0.00000 0.00000 -1.00000 0.00000 -0.00000 1.00000 -0.86603 0.50000 0.00000 -0.86603 0.50000 0.00000 0.00000 0.00000 -1.00000 0.00000 0.00000 1.00000 -0.86603 -0.50000 0.00000 -0.86603 -0.50000 0.00000 -0.00000 0.00000 -1.00000 0.00000 0.00000 1.00000 0.00000 -1.00000 0.00000 0.00000 -1.00000 0.00000 0.00000 -0.00000 -1.00000 0.00000 0.00000 1.00000 0.86603 -0.50000 0.00000 0.86603 -0.50000 0.00000 0.00000 0.00000 -1.00000 -0.00000 0.00000 1.00000 0.86603 0.50000 0.00000 0.86603 0.50000 -0.00000 0.00000 0.00000 -1.00000 0.00000 0.00000 1.00000 0.00000 1.00000 0.00000 0.00000 1.00000 -0.00000 0.00000 0.00000 -1.00000 0.00000 -0.00000 1.00000 -0.86603 0.50000 0.00000 -0.86603 0.50000 0.00000 0.00000 0.00000 -1.00000 0.00000 0.00000 1.00000 -0.86603 -0.50000 0.00000 -0.86603 -0.50000 0.00000 -0.00000 0.00000 -1.00000 0.00000 0.00000 1.00000 0.00000 -1.00000 0.00000 0.00000 -1.00000 0.00000 0.00000 -0.00000 -1.00000 0.00000 0.00000 1.00000 0.86603 -0.50000 0.00000 0.86603 -0.50000 0.00000 0.00000 0.00000 -1.00000 -0.00000 0.00000 1.00000</float_array><technique_common><accessor source="#normals-array" count="720" stride="3"><param name="X" type="float"/><param name="Y" type="float"/><param name="Z" type="float"/></accessor></technique_common></source>
<vertices id="vertices"><input semantic="POSITION" source="#positions"/></vertices><triangles count="720"><input semantic="VERTEX" source="#vertices" offset="0"/><input semantic="NORMAL" source="#normals" offset="1"/><p>0 0 1 0 7 0 0 1 7 1 6 1 12 2 1 2 0 2 13 3 6 3 7 3 1 4 2 4 8 4 1 5 8 5 7 5 12 6 2 6 1 6 13 7 7 7 8 7 2 8 3 8 9 8 2 9 9 9 8 9 12 10 3 10 2 10 13 11 8 11 9 11 3 12 4 12 10 12 3 13 10 13 9 13 12 14 4 14 3 14 13 15 9 15 10 15 4 16 5 16 11 16 4 17 11 17 10 17 12 18 5 18 4 18 13 19 10 19 11 19 5 20 0 20 6 20 5 21 6 21 11 21 12 22 0 22 5 22 13 23 11 23 6 23 14 24 15 24 21 24 14 25 21 25 20 25 26 26 15 26 14 26 27 27 20 27 21 27 15 28 16 28 22 28 15 29 22 29 21 29 26 30 16 30 15 30 27 31 21 31 22 31 16 32 17 32 23 32 16 33 23 33 22 33 26 34 17 34 16 34 27 35 22 35 23 35 17 36 18 36 24 36 17 37 24 37 23 37 26 38 18 38 17 38 27 39 23 39 24 39 18 40 19 40 25 40 18 41 25 41 24 41 26 42 19 42 18 42 27 43 24 43 25 43 19 44 14 44 20 44 19 45 20 45 25 45 26 46 14 46 19 46 27 47 25 47 20 47 28 48 29 48 35 48 28 49 35 49 34 49 40 50 29 50 28 50 41 51 34 51 35 51 29 52 30 52 36 52 29 53 36 53 35 53 40 54 30 54 29 54 41 55 35 55 36 55 30 56 31 56 37 56 30 57 37 57 36 57 40 58 31 58 30 58 41 59 36 59 37 59 31 60 32 60 38 60 31 61 38 61 37 61 40 62 32 62 31 62 41 63 37 63 38 63 32 64 33 64 39 64 32 65 39 65 38 65 40 66 33 66 32 66 41 67 38 67 39 67 33 68 28 68 34 68 33 69 34 69 39 69 40 70 28 70 33 70 41 71 39 71 34 71 42 72 43 72 49 72 42 73 49 73 48 73 54 74 43 74 42 74 55 75 48 75 49 75 43 76 44 76 50 76 43 77 50 77 49 77 54 78 44 78 43 78 55 79 49 79 50 79 44 80 45 80 51 80 44 81 51 81 50 81 54 82 45 82 44 82 55 83 50 83 51 83 45 84 46 84 52 84 45 85 52 85 51 85 54 86 46 86 45 86 55 87 51 87 52 87 46 88 47 88 53 88 46 89 53 89 52 89 54 90 47 90 46 90 55 91 52 91 53 91 47 92 42 92 48 92 47 93 48 93 53 93 54 94 42 94 47 94 55 95 53 95 48 95 56 96 57 96 63 96 56 97 63 97 62 97 68 98 57 98 56 98 69 99 62 99 63 99 57 100 58 100 64 100 57 101 64 101 63 101 68 102 58 102 57 102 69 103 63 103 64 103 58 104 59 104 65 104 58 105 65 105 64 105 68 106 59 106 58 106 69 107 64 107 65 107 59 108 60 108 66 108 59 109 66 109 65 109 68 110 60 110 59 110 69 111 65 111 66 111 60 112 61 112 67 112 60 113 67 113 66 113 68 114 61 114 60 114 69 115 66 115 67 115 61 116 56 116 62 116 61 117 62 117 67 117 68 118 56 118 61 118 69 119 67 119 62 119 70 120 71 120 77 120 70 121 77 121 76 121 82 122 71 122 70 122 83 123 76 123 77 123 71 124 72 124 78 124 71 125 78 125 77 125 82 126 72 126 71 126 83 127 77 127 78 127 72 128 73 128 79 128 72 129 79 129 78 129 82 130 73 130 72 130 83 131 78 131 79 131 73 132 74 132 80 132 73 133 80 133 79 133 82 134 74 134 73 134 83 135 79 135 80 135 74 136 75 136 81 136 74 137 81 137 80 137 82 138 75 138 74 138 83 139 80 139 81 139 75 140 70 140 76 140 75 141 76 141 81 141 82 142 70 142 75 142 83 143 81 143 76 143 84 144 85 144 91 144 84 145 91 145 90 145 96 146 85 146 84 146 97 147 90 147 91 147 85 148 86 148 92 148 85 149 92 149 91 149 96 150 86 150 85 150 97 151 91 151 92 151 86 152 87 152 93 152 86 153 93 153 92 153 96 154 87 154 86 154 97 155 92 155 93 155 87 156 88 156 94 156 87 157 94 157 93 157 96 158 88 158 87 158 97 159 93 159 94 159 88 160 89 160 95 160 88 161 95 161 94 161 96 162 89 162 88 162 97 163 94 163 95 163 89 164 84 164 90 164 89 165 90 165 95 165 96 166 84 166 89 166 97 167 95 167 90 167 98 168 99 168 105 168 98 169 105 169 104 169 110 170 99 170 98 170 111 171 104 171 105 171 99 172 100 172 106 172 99 173 106 173 105 173 110 174 100 174 99 174 111 175 105 175 106 175 100 176 101 176 107 176 100 177 107 177 106 177 110 178 101 178 100 178 111 179 106 179 107 179 101 180 102 180 108 180 101 181 108 181 107 181 110 182 102 182 101 182 111 183 107 183 108 183 102 184 103 184 109 184 102 185 109 185 108 185 110 186 103 186 102 186 111 187 108 187 109 187 103 188 98 188 104 188 103 189 104 189 109 189 110 190 98 190 103 190 111 191 109 191 104 191 112 192 113 192 119 192 112 193 119 193 118 193 124 194 113 194 112 194 125 195 118 195 119 195 113 196 114 196 120 196 113 197 120 197 119 197 124 198 114 198 113 198 125 199 119 199 120 199 114 200 115 200 121 200 114 201 121 201 120 201 124 202 115 202 114 202 125 203 120 203 121 203 115 204 116 204 122 204 115 205 122 205 121 205 124 206 116 206 115 206 125 207 121 207 122 207 116 208 117 208 123 208 116 209 123 209 122 209 124 210 117 210 116 210 125 211 122 211 123 211 117 212 112 212 118 212 117 213 118 213 123 213 124 214 112 214 117 214 125 215 123 215 118 215 126 216 127 216 133 216 126 217 133 217 132 217 138 218 127 218 126 218 139 219 132 219 133 219 127 220 128 220 134 220 127 221 134 221 133 221 138 222 128 222 127 222 139 223 133 223 134 223 128 224 129 224 135 224 128 225 135 225 134 225 138 226 129 226 128 226 139 227 134 227 135 227 129 228 130 228 136 228 129 229 136 229 135 229 138 230 130 230 129 230 139 231 135 231 136 231 130 232 131 232 137 232 130 233 137 233 136 233 138 234 131 234 130 234 139 235 136 235 137 235 131 236 126 236 132 236 131 237 132 237 137 237 138 238 126 238 131 238 139 239 137 239 132 239 140 240 141 240 147 240 140 241 147 241 146 241 152 242 141 242 140 242 153 243 146 243 147 243 141 244 142 244 148 244 141 245 148 245 147 245 152 246 142 246 141 246 153 247 147 247 148 247 142 248 143 248 149 248 142 249 149 249 148 249 152 250 143 250 142 250 153 251 148 251 149 251 143 252 144 252 150 252 143 253 150 253 149 253 152 254 144 254 143 254 153 255 149 255 150 255 144 256 145 256 151 256 144 257 151 257 150 257 152 258 145 258 144 258 153 259 150 259 151 259 145 260 140 260 146 260 145 261 146 261 151 261 152 262 140 262 145 262 153 263 151 263 146 263 154 264 155 264 161 264 154 265 161 265 160 265 166 266 155 266 154 266 167 267 160 267 161 267 155 268 156 268 162 268 155 269 162 269 161 269 166 270 156 270 155 270 167 271 161 271 162 271 156 272 157 272 163 272 156 273 163 273 162 273 166 274 157 274 156 274 167 275 162 275 163 275 157 276 158 276 164 276 157 277 164 277 163 277 166 278 158 278 157 278 167 279 163 279 164 279 158 280 159 280 165 280 158 281 165 281 164 281 166 282 159 282 158 282 167 283 164 283 165 283 159 284 154 284 160 284 159 285 160 285 165 285 166 286 154 286 159 286 167 287 165 287 160 287 168 288 169 288 175 288 168 289 175 289 174 289 180 290 169 290 168 290 181 291 174 291 175 291 169 292 170 292 176 292 169 293 176 293 175 293 180 294 170 294 169 294 181 295 175 295 176 295 170 296 171 296 177 296 170 297 177 297 176 297 180 298 171 298 170 298 181 299 176 299 177 299 171 300 172 300 178 300 171 301 178 301 177 301 180 302 172 302 171 302 181 303 177 303 178 303 172 304 173 304 179 304 172 305 179 305 178 305 180 306 173 306 172 306 181 307 178 307 179 307 173 308 168 308 174 308 173 309 174 309 179 309 180 310 168 310 173 310 181 311 179 311 174 311 182 312 183 312 189 312 182 313 189 313 188 313 194 314 183 314 182 314 195 315 188 315 189 315 183 316 184 316 190 316 183 317 190 317 189 317 194 318 184 318 183 318 195 319 189 319 190 319 184 320 185 320 191 320 184 321 191 321 190 321 194 322 185 322 184 322 195 323 190 323 191 323 185 324 186 324 192 324 185 325 192 325 191 325 194 326 186 326 185 326 195 327 191 327 192 327 186 328 187 328 193 328 186 329 193 329 192 329 194 330 187 330 186 330 195 331 192 331 193 331 187 332 182 332 188 332 187 333 188 333 193 333 194 334 182 334 187 334 195 335 193 335 188 335 196 336 197 336 203 336 196 337 203 337 202 337 208 338 197 338 196 338 209 339 202 339 203 339 197 340 198 340 204 340 197 341 204 341 203 341 208 342 198 342 197 342 209 343 203 343 204 343 198 344 199 344 205 344 198 345 205 345 204 345 208 346 199 346 198 346 209 347 204 347 205 347 199 348 200 348 206 348 199 349 206 349 205 349 208 350 200 350 199 350 209 351 205 351 206 351 200 352 201 352 207 352 200 353 207 353 206 353 208 354 201 354 200 354 209 355 206 355 207 355 201 356 196 356 202 356 201 357 202 357 207 357 208 358 196 358 201 358 209 359 207 359 202 359 210 360 211 360 217 360 210 361 217 361 216 361 222 362 211 362 210 362 223 363 216 363 217 363 211 364 212 364 218 364 211 365 218 365 217 365 222 366 212 366 211 366 223 367 217 367 218 367 212 368 213 368 219 368 212 369 219 369 218 369 222 370 213 370 212 370 223 371 218 371 219 371 213 372 214 372 220 372 213 373 220 373 219 373 222 374 214 374 213 374 223 375 219 375 220 375 214 376 215 376 221 376 214 377 221 377 220 377 222 378 215 378 214 378 223 379 220 379 221 379 215 380 210 380 216 380 215 381 216 381 221 381 222 382 210 382 215 382 223 383 221 383 216 383 224 384 225 384 231 384 224 385 231 385 230 385 236 386 225 386 224 386 237 387 230 387 231 387 225 388 226 388 232 388 225 389 232 389 231 389 236 390 226 390 225 390 237 391 231 391 232 391 226 392 227 392 233 392 226 393 233 393 232 393 236 394 227 394 226 394 237 395 232 395 233 395 227 396 228 396 234 396 227 397 234 397 233 397 236 398 228 398 227 398 237 399 233 399 234 399 228 400 229 400 235 400 228 401 235 401 234 401 236 402 229 402 228 402 237 403 234 403 235 403 229 404 224 404 230 404 229 405 230 405 235 405 236 406 224 406 229 406 237 407 235 407 230 407 238 408 239 408 245 408 238 409 245 409 244 409 250 410 239 410 238 410 251 411 244 411 245 411 239 412 240 412 246 412 239 413 246 413 245 413 250 414 240 414 239 414 251 415 245 415 246 415 240 416 241 416 247 416 240 417 247 417 246 417 250 418 241 418 240 418 251 419 246 419 247 419 241 420 242 420 248 420 241 421 248 421 247 421 250 422 242 422 241 422 251 423 247 423 248 423 242 424 243 424 249 424 242 425 249 425 248 425 250 426 243 426 242 426 251 427 248 427 249 427 243 428 238 428 244 428 243 429 244 429 249 429 250 430 238 430 243 430 251 431 249 431 244 431 252 432 253 432 259 432 252 433 259 433 258 433 264 434 253 434 252 434 265 435 258 435 259 435 253 436 254 436 260 436 253 437 260 437 259 437 264 438 254 438 253 438 265 439 259 439 260 439 254 440 255 440 261 440 254 441 261 441 260 441 264 442 255 442 254 442 265 443 260 443 261 443 255 444 256 444 262 444 255 445 262 445 261 445 264 446 256 446 255 446 265 447 261 447 262 447 256 448 257 448 263 448 256 449 263 449 262 449 264 450 257 450 256 450 265 451 262 451 263 451 257 452 252 452 258 452 257 453 258 453 263 453 264 454 252 454 257 454 265 455 263 455 258 455 266 456 267 456 273 456 266 457 273 457 272 457 278 458 267 458 266 458 279 459 272 459 273 459 267 460 268 460 274 460 267 461 274 461 273 461 278 462 268 462 267 462 279 463 273 463 274 463 268 464 269 464 275 464 268 465 275 465 274 465 278 466 269 466 268 466 279 467 274 467 275 467 269 468 270 468 276 468 269 469 276 469 275 469 278 470 270 470 269 470 279 471 275 471 276 471 270 472 271 472 277 472 270 473 277 473 276 473 278 474 271 474 270 474 279 475 276 475 277 475 271 476 266 476 272 476 271 477 272 477 277 477 278 478 266 478 271 478 279 479 277 479 272 479 280 480 281 480 287 480 280 481 287 481 286 481 292 482 281 482 280 482 293 483 286 483 287 483 281 484 282 484 288 484 281 485 288 485 287 485 292 486 282 486 281 486 293 487 287 487 288 487 282 488 283 488 289 488 282 489 289 489 288 489 292 490 283 490 282 490 293 491 288 491 289 491 283 492 284 492 290 492 283 493 290 493 289 493 292 494 284 494 283 494 293 495 289 495 290 495 284 496 285 496 291 496 284 497 291 497 290 497 292 498 285 498 284 498 293 499 290 499 291 499 285 500 280 500 286 500 285 501 286 501 291 501 292 502 280 502 285 502 293 503 291 503 286 503 294 504 295 504 301 504 294 505 301 505 300 505 306 506 295 506 294 506 307 507 300 507 301 507 295 508 296 508 302 508 295 509 302 509 301 509 306 510 296 510 295 510 307 511 301 511 302 511 296 512 297 512 303 512 296 513 303 513 302 513 306 514 297 514 296 514 307 515 302 515 303 515 297 516 298 516 304 516 297 517 304 517 303 517 306 518 298 518 297 518 307 519 303 519 304 519 298 520 299 520 305 520 298 521 305 521 304 521 306 522 299 522 298 522 307 523 304 523 305 523 299 524 294 524 300 524 299 525 300 525 305 525 306 526 294 526 299 526 307 527 305 527 300 527 308 528 309 528 315 528 308 529 315 529 314 529 320 530 309 530 308 530 321 531 314 531 315 531 309 532 310 532 316 532 309 533 316 533 315 533 320 534 310 534 309 534 321 535 315 535 316 535 310 536 311 536 317 536 310 537 317 537 316 537 320 538 311 538 310 538 321 539 316 539 317 539 311 540 312 540 318 540 311 541 318 541 317 541 320 542 312 542 311 542 321 543 317 543 318 543 312 544 313 544 319 544 312 545 319 545 318 545 320 546 313 546 312 546 321 547 318 547 319 547 313 548 308 548 314 548 313 549 314 549 319 549 320 550 308 550 313 550 321 551 319 551 314 551 322 552 323 552 329 552 322 553 329 553 328 553 334 554 323 554 322 554 335 555 328 555 329 555 323 556 324 556 330 556 323 557 330 557 329 557 334 558 324 558 323 558 335 559 329 559 330 559 324 560 325 560 331 560 324 561 331 561 330 561 334 562 325 562 324 562 335 563 330 563 331 563 325 564 326 564 332 564 325 565 332 565 331 565 334 566 326 566 325 566 335 567 331 567 332 567 326 568 327 568 333 568 326 569 333 569 332 569 334 570 327 570 326 570 335 571 332 571 333 571 327 572 322 572 328 572 327 573 328 573 333 573 334 574 322 574 327 574 335 575 333 575 328 575 336 576 337 576 343 576 336 577 343 577 342 577 348 578 337 578 336 578 349 579 342 579 343 579 337 580 338 580 344 580 337 581 344 581 343 581 348 582 338 582 337 582 349 583 343 583 344 583 338 584 339 584 345 584 338 585 345 585 344 585 348 586 339 586 338 586 349 587 344 587 345 587 339 588 340 588 346 588 339 589 346 589 345 589 348 590 340 590 339 590 349 591 345 591 346 591 340 592 341 592 347 592 340 593 347 593 346 593 348 594 341 594 340 594 349 595 346 595 347 595 341 596 336 596 342 596 341 597 342 597 347 597 348 598 336 598 341 598 349 599 347 599 342 599 350 600 351 600 357 600 350 601 357 601 356 601 362 602 351 602 350 602 363 603 356 603 357 603 351 604 352 604 358 604 351 605 358 605 357 605 362 606 352 606 351 606 363 607 357 607 358 607 352 608 353 608 359 608 352 609 359 609 358 609 362 610 353 610 352 610 363 611 358 611 359 611 353 612 354 612 360 612 353 613 360 613 359 613 362 614 354 614 353 614 363 615 359 615 360 615 354 616 355 616 361 616 354 617 361 617 360 617 362 618 355 618 354 618 363 619 360 619 361 619 355 620 350 620 356 620 355 621 356 621 361 621 362 622 350 622 355 622 363 623 361 623 356 623 364 624 365 624 371 624 364 625 371 625 370 625 376 626 365 626 364 626 377 627 370 627 371 627 365 628 366 628 372 628 365 629 372 629 371 629 376 630 366 630 365 630 377 631 371 631 372 631 366 632 367 632 373 632 366 633 373 633 372 633 376 634 367 634 366 634 377 635 372 635 373 635 367 636 368 636 374 636 367 637 374 637 373 637 376 638 368 638 367 638 377 639 373 639 374 639 368 640 369 640 375 640 368 641 375 641 374 641 376 642 369 642 368 642 377 643 374 643 375 643 369 644 364 644 370 644 369 645 370 645 375 645 376 646 364 646 369 646 377 647 375 647 370 647 378 648 379 648 385 648 378 649 385 649 384 649 390 650 379 650 378 650 391 651 384 651 385 651 379 652 380 652 386 652 379 653 386 653 385 653 390 654 380 654 379 654 391 655 385 655 386 655 380 656 381 656 387 656 380 657 387 657 386 657 390 658 381 658 380 658 391 659 386 659 387 659 381 660 382 660 388 660 381 661 388 661 387 661 390 662 382 662 381 662 391 663 387 663 388 663 382 664 383 664 389 664 382 665 389 665 388 665 390 666 383 666 382 666 391 667 388 667 389 667 383 668 378 668 384 668 383 669 384 669 389 669 390 670 378 670 383 670 391 671 389 671 384 671 392 672 393 672 399 672 392 673 399 673 398 673 404 674 393 674 392 674 405 675 398 675 399 675 393 676 394 676 400 676 393 677 400 677 399 677 404 678 394 678 393 678 405 679 399 679 400 679 394 680 395 680 401 680 394 681 401 681 400 681 404 682 395 682 394 682 405 683 400 683 401 683 395 684 396 684 402 684 395 685 402 685 401 685 404 686 396 686 395 686 405 687 401 687 402 687 396 688 397 688 403 688 396 689 403 689 402 689 404 690 397 690 396 690 405 691 402 691 403 691 397 692 392 692 398 692 397 693 398 693 403 693 404 694 392 694 397 694 405 695 403 695 398 695 406 696 407 696 413 696 406 697 413 697 412 697 418 698 407 698 406 698 419 699 412 699 413 699 407 700 408 700 414 700 407 701 414 701 413 701 418 702 408 702 407 702 419 703 413 703 414 703 408 704 409 704 415 704 408 705 415 705 414 705 418 706 409 706 408 706 419 707 414 707 415 707 409 708 410 708 416 708 409 709 416 709 415 709 418 710 410 710 409 710 419 711 415 711 416 711 410 712 411 712 417 712 410 713 417 713 416 713 418 714 411 714 410 714 419 715 416 715 417 715 411 716 406 716 412 716 411 717 412 717 417 717 418 718 406 718 411 718 419 719 417 719 412 719</p></triangles>
</mesh></geometry></library_geometries><library_visual_scenes><visual_scene id="Scene"><node id="mesh"><instance_geometry url="#geometry"/></node></visual_scene></library_visual_scenes><scene><instance_visual_scene url="#Scene"/></scene></COLLADA>