<?xml version="1.0" encoding="UTF-8"?>
<COLLADA xmlns="http://www.collada.org/2005/11/COLLADASchema" version="1.4.1">
<asset><contributor><authoring_tool>Summit Estate procedural mesh exporter</authoring_tool></contributor><created>2026-09-11T00:00:00Z</created><modified>2026-09-11T00:00:00Z</modified><unit name="meter" meter="1"/><up_axis>Z_UP</up_axis></asset>
<library_geometries><geometry id="geometry" name="geometry"><mesh>
<source id="positions"><float_array id="positions-array" count="2592">-180.20014 -455.03613 22.18000 -180.18916 -453.56166 22.28233 -180.15762 -452.12444 22.38465 -180.10679 -450.68699 22.48698 -180.03810 -449.24882 22.58930 -179.95299 -447.80948 22.69163 -179.85292 -446.36853 22.79395 -179.73935 -444.92553 22.89628 -179.61377 -443.48006 22.99860 -179.47767 -442.03173 23.10093 -179.33259 -440.58012 23.20326 -179.18004 -439.12485 23.30558 -179.02159 -437.66553 23.40791 -178.85880 -436.20177 23.51023 -178.69326 -434.73319 23.61256 -178.52658 -433.25942 23.71488 -178.36039 -431.78006 23.81721 -178.19633 -430.29476 23.91953 -178.03606 -428.80314 24.02186 -177.88126 -427.30483 24.12419 -177.73364 -425.79946 24.22651 -177.59489 -424.28667 24.32884 -177.46677 -422.76612 24.43116 -177.35102 -421.23746 24.53349 -177.24940 -419.70036 24.63581 -177.16370 -418.15449 24.73814 -177.09572 -416.59954 24.84047 -177.04726 -415.03524 24.94279 -177.02014 -413.46131 25.04512 -177.01619 -411.87750 25.14744 -177.03724 -410.28359 25.24977 -177.08514 -408.67938 25.35209 -177.16172 -407.06471 25.45442 -177.26881 -405.43941 25.55674 -177.40825 -403.80340 25.65907 -177.58185 -402.15656 25.76140 -177.79141 -400.49886 25.86372 -178.03872 -398.83024 25.96605 -178.32553 -397.15072 26.06837 -178.65358 -395.46028 26.17070 -179.02457 -393.75895 26.27302 -179.44017 -392.04678 26.37535 -179.90203 -390.32380 26.47767 -180.41331 -388.58497 26.58000 -180.86982 -387.19162 26.69579 -181.38179 -385.79612 26.81158 -181.94387 -384.40466 26.92737 -182.55309 -383.01652 27.04316 -183.20664 -381.63102 27.15895 -183.90190 -380.24756 27.27474 -184.63634 -378.86560 27.39053 -185.40755 -377.48468 27.50632 -186.21321 -376.10442 27.62211 -187.05103 -374.72451 27.73789 -187.91880 -373.34472 27.85368 -188.81431 -371.96491 27.96947 -189.73540 -370.58498 28.08526 -190.67991 -369.20489 28.20105 -191.64571 -367.82467 28.31684 -192.63066 -366.44438 28.43263 -193.63262 -365.06413 28.54842 -194.64948 -363.68408 28.66421 -195.67909 -362.30443 28.78000 -196.71932 -360.92539 28.89579 -197.76804 -359.54722 29.01158 -198.82311 -358.17021 29.12737 -199.88237 -356.79467 29.24316 -200.94368 -355.42095 29.35895 -202.00487 -354.04941 29.47474 -203.06379 -352.68044 29.59053 -204.11825 -351.31445 29.70632 -205.16609 -349.95190 29.82211 -206.20512 -348.59325 29.93789 -207.23315 -347.23898 30.05368 -208.24799 -345.88962 30.16947 -209.24744 -344.54571 30.28526 -210.22931 -343.20784 30.40105 -211.19140 -341.87662 30.51684 -212.13149 -340.55269 30.63263 -213.04739 -339.23673 30.74842 -213.93691 -337.92948 30.86421 -214.79785 -336.63172 30.98000 -215.62804 -335.34425 31.09579 -216.42532 -334.06796 31.21158 -217.18755 -332.80378 31.32737 -217.91264 -331.55272 31.44316 -218.59853 -330.31583 31.55895 -219.24322 -329.09425 31.67474 -219.84478 -327.88919 31.79053 -220.40138 -326.70191 31.90632 -220.91131 -325.53375 32.02211 -221.37299 -324.38608 32.13789 -221.78503 -323.26032 32.25368 -222.14623 -322.15785 32.36947 -222.45563 -321.08004 32.48526 -222.71254 -320.02809 32.60105 -222.91652 -319.00305 32.71684 -223.06744 -318.00562 32.83263 -223.16536 -317.03609 32.94842 -223.21056 -316.09424 33.06421 -223.20256 -315.15688 33.18000 -223.14006 -314.02606 33.31725 -223.03608 -312.87599 33.45451 -222.89172 -311.72661 33.59176 -222.70734 -310.57756 33.72902 -222.48329 -309.42856 33.86627 -222.21985 -308.27939 34.00353 -221.91734 -307.12992 34.14078 -221.57605 -305.98005 34.27804 -221.19627 -304.82977 34.41529 -220.77832 -303.67909 34.55255 -220.32254 -302.52812 34.68980 -219.82926 -301.37697 34.82706 -219.29887 -300.22580 34.96431 -218.73176 -299.07483 35.10157 -218.12837 -297.92427 35.23882 -217.48915 -296.77438 35.37608 -216.81458 -295.62541 35.51333 -216.10517 -294.47765 35.65059 -215.36146 -293.33139 35.78784 -214.58399 -292.18690 35.92510 -213.77335 -291.04450 36.06235 -212.93015 -289.90448 36.19961 -212.05498 -288.76713 36.33686 -211.14850 -287.63274 36.47412 -210.21134 -286.50161 36.61137 -209.24418 -285.37401 36.74863 -208.24768 -284.25023 36.88588 -207.22253 -283.13053 37.02314 -206.16943 -282.01517 37.16039 -205.08908 -280.90443 37.29765 -203.98218 -279.79854 37.43490 -202.84946 -278.69775 37.57216 -201.69164 -277.60230 37.70941 -200.50944 -276.51243 37.84667 -199.30359 -275.42834 37.98392 -198.07483 -274.35027 38.12118 -196.82388 -273.27843 38.25843 -195.55150 -272.21301 38.39569 -194.25842 -271.15423 38.53294 -192.94538 -270.10228 38.67020 -191.61312 -269.05735 38.80745 -190.26240 -268.01963 38.94471 -188.89394 -266.98930 39.08196 -187.50851 -265.96654 39.21922 -186.10684 -264.95152 39.35647 -184.68968 -263.94441 39.49373 -183.25778 -262.94539 39.63098 -181.81189 -261.95461 39.76824 -180.35274 -260.97224 39.90549 -178.88109 -259.99844 40.04275 -177.40987 -259.04119 40.18000 -176.46110 -258.44627 40.27211 -175.47847 -257.86355 40.36421 -174.45084 -257.28547 40.45632 -173.37971 -256.71245 40.54842 -172.26660 -256.14484 40.64053 -171.11302 -255.58288 40.73263 -169.92049 -255.02677 40.82474 -168.69051 -254.47661 40.91684 -167.42459 -253.93248 41.00895 -166.12420 -253.39437 41.10105 -164.79082 -252.86228 41.19316 -163.42589 -252.33612 41.28526 -162.03086 -251.81581 41.37737 -160.60716 -251.30121 41.46947 -159.15618 -250.79218 41.56158 -157.67934 -250.28855 41.65368 -156.17801 -249.79013 41.74579 -154.65357 -249.29671 41.83789 -153.10737 -248.80808 41.93000 -151.54077 -248.32400 42.02211 -149.95510 -247.84423 42.11421 -148.35170 -247.36852 42.20632 -146.73189 -246.89662 42.29842 -145.09697 -246.42825 42.39053 -143.44825 -245.96314 42.48263 -141.78704 -245.50100 42.57474 -140.11461 -245.04156 42.66684 -138.43225 -244.58452 42.75895 -136.74124 -244.12959 42.85105 -135.04284 -243.67646 42.94316 -133.33832 -243.22484 43.03526 -131.62894 -242.77441 43.12737 -129.91595 -242.32486 43.21947 -128.20059 -241.87589 43.31158 -126.48411 -241.42716 43.40368 -124.76773 -240.97837 43.49579 -123.05269 -240.52918 43.58789 -121.34022 -240.07927 43.68000 -119.63152 -239.62831 43.77211 -117.92781 -239.17595 43.86421 -116.23029 -238.72187 43.95632 -114.54017 -238.26572 44.04842 -112.85862 -237.80715 44.14053 -111.18685 -237.34581 44.23263 -109.52602 -236.88134 44.32474 -107.87729 -236.41337 44.41684 -106.24184 -235.94154 44.50895 -104.62081 -235.46548 44.60105 -103.01534 -234.98478 44.69316 -101.42656 -234.49906 44.78526 -99.85559 -234.00790 44.87737 -98.30353 -233.51090 44.96947 -96.77148 -233.00761 45.06158 -95.26051 -232.49759 45.15368 -93.77169 -231.98037 45.24579 -92.30607 -231.45545 45.33789 -90.86466 -230.92233 45.43000 -89.44849 -230.38045 45.52211 -88.05854 -229.82924 45.61421 -86.69579 -229.26808 45.70632 -85.36117 -228.69630 45.79842 -84.05563 -228.11318 45.89053 -82.78007 -227.51794 45.98263 -81.53538 -226.90973 46.07474 -80.32244 -226.28760 46.16684 -79.14213 -225.65050 46.25895 -77.99533 -224.99730 46.35105 -76.88293 -224.32670 46.44316 -75.80585 -223.63727 46.53526 -74.76511 -222.92741 46.62737 -73.76179 -222.19538 46.71947 -72.79716 -221.43920 46.81158 -71.87267 -220.65677 46.90368 -70.99010 -219.84580 46.99579 -70.15158 -219.00390 47.08789 -69.30909 -218.06874 47.18000 -68.15776 -216.60459 47.33556 -67.11557 -215.01463 47.49111 -66.23836 -213.36968 47.64667 -65.52703 -211.68078 47.80222 -64.97953 -209.96057 47.95778 -64.59041 -208.22179 48.11333 -64.35112 -206.47578 48.26889 -64.25091 -204.73153 48.42444 -64.27784 -202.99526 48.58000 -64.41978 -201.27066 48.73556 -64.66504 -199.55936 48.89111 -65.00278 -197.86153 49.04667 -65.42309 -196.17643 49.20222 -65.91699 -194.50286 49.35778 -66.47628 -192.83946 49.51333 -67.09340 -191.18496 49.66889 -67.76131 -189.53822 49.82444 -68.47335 -187.89836 49.98000 -69.22312 -186.26475 50.13556 -70.00444 -184.63702 50.29111 -70.81127 -183.01507 50.44667 -71.63765 -181.39900 50.60222 -72.47768 -179.78916 50.75778 -73.32553 -178.18610 50.91333 -74.17535 -176.59056 51.06889 -75.02135 -175.00345 51.22444 -75.85772 -173.42590 51.38000 -76.67868 -171.85918 51.53556 -77.47848 -170.30475 51.69111 -78.25137 -168.76427 51.84667 -78.99170 -167.23958 52.00222 -79.69385 -165.73274 52.15778 -80.35233 -164.24599 52.31333 -80.96182 -162.78181 52.46889 -81.51720 -161.34290 52.62444 -82.01365 -159.93212 52.78000 -82.44672 -158.55251 52.93556 -82.81247 -157.20714 53.09111 -83.10753 -155.89905 53.24667 -83.32925 -154.63096 53.40222 -83.47570 -153.40503 53.55778 -83.54565 -152.22244 53.71333 -83.53842 -151.08299 53.86889 -83.45342 -149.98465 54.02444 -83.27791 -148.86133 54.18000 -83.03749 -147.73456 54.34667 -82.74444 -146.53855 54.51333 -82.41047 -145.33189 54.68000 -82.03640 -144.11519 54.84667 -81.62310 -142.88912 55.01333 -81.17152 -141.65437 55.18000 -80.68266 -140.41163 55.34667 -80.15758 -139.16163 55.51333 -79.59738 -137.90509 55.68000 -79.00321 -136.64273 55.84667 -78.37626 -135.37525 56.01333 -77.71775 -134.10334 56.18000 -77.02892 -132.82769 56.34667 -76.31106 -131.54896 56.51333 -75.56544 -130.26781 56.68000 -74.79340 -128.98487 56.84667 -73.99625 -127.70076 57.01333 -73.17534 -126.41606 57.18000 -72.33202 -125.13138 57.34667 -71.46765 -123.84728 57.51333 -70.58359 -122.56431 57.68000 -69.68121 -121.28301 57.84667 -68.76190 -120.00390 58.01333 -67.82704 -118.72751 58.18000 -66.87799 -117.45433 58.34667 -65.91614 -116.18485 58.51333 -64.94288 -114.91954 58.68000 -63.95959 -113.65888 58.84667 -62.96765 -112.40332 59.01333 -61.96844 -111.15331 59.18000 -60.96333 -109.90928 59.34667 -59.95371 -108.67166 59.51333 -58.94095 -107.44087 59.68000 -57.92641 -106.21732 59.84667 -56.91148 -105.00140 60.01333 -55.89750 -103.79351 60.18000 -54.88585 -102.59402 60.34667 -53.87787 -101.40331 60.51333 -52.87492 -100.22173 60.68000 -51.87835 -99.04963 60.84667 -50.88948 -97.88734 61.01333 -49.90967 -96.73519 61.18000 -48.94022 -95.59348 61.34667 -47.98247 -94.46250 61.51333 -47.03771 -93.34253 61.68000 -46.10726 -92.23381 61.84667 -45.19241 -91.13657 62.01333 -44.31844 -90.07995 62.18000 -43.30773 -88.88276 62.35500 -42.29594 -87.74164 62.53000 -41.25988 -86.62555 62.70500 -40.20081 -85.53294 62.88000 -39.12005 -84.46228 63.05500 -38.01894 -83.41210 63.23000 -36.89888 -82.38089 63.40500 -35.76128 -81.36720 63.58000 -34.60761 -80.36955 63.75500 -33.43936 -79.38647 63.93000 -32.25805 -78.41646 64.10500 -31.06521 -77.45805 64.28000 -29.86241 -76.50970 64.45500 -28.65124 -75.56989 64.63000 -27.43329 -74.63705 64.80500 -26.21018 -73.70959 64.98000 -24.98352 -72.78591 65.15500 -23.75494 -71.86435 65.33000 -22.52610 -70.94323 65.50500 -21.29863 -70.02083 65.68000 -20.07421 -69.09542 65.85500 -18.85450 -68.16518 66.03000 -17.64120 -67.22831 66.20500 -16.43600 -66.28293 66.38000 -15.24064 -65.32712 66.55500 -14.05686 -64.35894 66.73000 -12.88646 -63.37641 66.90500 -11.73127 -62.37750 67.08000 -10.59318 -61.36015 67.25500 -9.47413 -60.32228 67.43000 -8.37615 -59.26180 67.60500 -7.30133 -58.17660 67.78000 -6.25189 -57.06459 67.95500 -5.23012 -55.92370 68.13000 -4.23844 -54.75193 68.30500 -3.27939 -53.54735 68.48000 -2.35562 -52.30811 68.65500 -1.46987 -51.03253 68.83000 -0.62498 -49.71907 69.00500 0.18356 -48.35325 69.18000 0.97734 -46.86877 69.33789 1.70402 -45.34079 69.49579 2.35900 -43.78928 69.65368 2.94693 -42.21762 69.81158 3.47254 -40.62883 69.96947 3.94054 -39.02557 70.12737 4.35557 -37.41024 70.28526 4.72217 -35.78499 70.44316 5.04474 -34.15184 70.60105 5.32755 -32.51266 70.75895 5.57475 -30.86929 70.91684 5.79034 -29.22350 71.07474 5.97822 -27.57708 71.23263 6.14216 -25.93180 71.39053 6.28586 -24.28948 71.54842 6.41291 -22.65197 71.70632 6.52681 -21.02117 71.86421 6.63101 -19.39903 72.02211 6.72888 -17.78758 72.18000 6.82370 -16.18888 72.33789 6.91872 -14.60509 72.49579 7.01710 -13.03841 72.65368 7.12193 -11.49113 72.81158 7.23622 -9.96560 72.96947 7.36291 -8.46423 73.12737 7.50483 -6.98952 73.28526 7.66468 -5.54400 73.44316 7.84507 -4.13025 73.60105 8.04844 -2.75091 73.75895 8.27706 -1.40859 73.91684 8.53303 -0.10590 74.07474 8.81822 1.15465 74.23263 9.13430 2.37065 74.39053 9.48274 3.53994 74.54842 9.86479 4.66065 74.70632 10.28158 5.73131 74.86421 10.73415 6.75101 75.02211 11.22849 7.72847 75.18000 11.88192 8.88356 75.33152 12.58072 10.01306 75.48303 13.32091 11.11378 75.63455 14.10155 12.18799 75.78606 14.92165 13.23779 75.93758 15.78014 14.26508 76.08909 16.67584 15.27165 76.24061 17.60749 16.25913 76.39212 18.57367 17.22910 76.54364 19.57289 18.18307 76.69515 20.60350 19.12251 76.84667 21.66380 20.04887 76.99818 22.75198 20.96362 77.14970 23.86615 21.86825 77.30121 25.00437 22.76427 77.45273 26.16462 23.65321 77.60424 27.34487 24.53668 77.75576 28.54302 25.41630 77.90727 29.75699 26.29376 78.05879 30.98463 27.17080 78.21030 32.22381 28.04921 78.36182 33.47236 28.93082 78.51333 34.72813 29.81752 78.66485 35.98894 30.71128 78.81636 37.25261 31.61407 78.96788 38.51692 32.52797 79.11939 39.77968 33.45506 79.27091 41.03865 34.39752 79.42242 42.29156 35.35753 79.57394 43.53613 36.33735 79.72545 44.77001 37.33928 79.87697 45.99082 38.36565 80.02848 47.15824 39.38537 80.18000 -180.80012 -455.03161 22.18000 -180.78910 -453.55283 22.28233 -180.75737 -452.10727 22.38465 -180.70627 -450.66208 22.48698 -180.63724 -449.21681 22.58930 -180.55175 -447.77100 22.69163 -180.45128 -446.32421 22.79395 -180.33730 -444.87603 22.89628 -180.21133 -443.42604 22.99860 -180.07487 -441.97383 23.10093 -179.92947 -440.51901 23.20326 -179.77665 -439.06120 23.30558 -179.61799 -437.59999 23.40791 -179.45507 -436.13501 23.51023 -179.28947 -434.66588 23.61256 -179.12281 -433.19221 23.71488 -178.95670 -431.71364 23.81721 -178.79280 -430.22978 23.91953 -178.63276 -428.74026 24.02186 -178.47824 -427.24471 24.12419 -178.33095 -425.74278 24.22651 -178.19258 -424.23408 24.32884 -178.06486 -422.71828 24.43116 -177.94952 -421.19502 24.53349 -177.84830 -419.66396 24.63581 -177.76297 -418.12477 24.73814 -177.69530 -416.57715 24.84047 -177.64708 -415.02078 24.94279 -177.62011 -413.45539 25.04512 -177.61618 -411.88072 25.14744 -177.63710 -410.29651 25.24977 -177.68469 -408.70255 25.35209 -177.76076 -407.09865 25.45442 -177.86711 -405.48463 25.55674 -178.00554 -403.86034 25.65907 -178.17786 -402.22566 25.76140 -178.38584 -400.58049 25.86372 -178.63123 -398.92476 25.96605 -178.91579 -397.25840 26.06837 -179.24123 -395.58138 26.17070 -179.60925 -393.89368 26.27302 -180.02151 -392.19527 26.37535 -180.47965 -390.48614 26.47767 -180.98665 -388.76185 26.58000 -181.43660 -387.38849 26.69579 -181.94162 -386.01196 26.81158 -182.49676 -384.63772 26.92737 -183.09913 -383.26518 27.04316 -183.74603 -381.89382 27.15895 -184.43486 -380.52315 27.27474 -185.16317 -379.15275 27.39053 -185.92856 -377.78226 27.50632 -186.72873 -376.41140 27.62211 -187.56141 -375.03996 27.73789 -188.42439 -373.66780 27.85368 -189.31547 -372.29482 27.96947 -190.23248 -370.92100 28.08526 -191.17328 -369.54635 28.20105 -192.13571 -368.17094 28.31684 -193.11763 -366.79489 28.43263 -194.11691 -365.41834 28.54842 -195.13142 -364.04148 28.66421 -196.15902 -362.66452 28.78000 -197.19756 -361.28772 28.89579 -198.24492 -359.91135 29.01158 -199.29894 -358.53571 29.12737 -200.35747 -357.16112 29.24316 -201.41835 -355.78794 29.35895 -202.47944 -354.41654 29.47474 -203.53856 -353.04730 29.59053 -204.59354 -351.68066 29.70632 -205.64220 -350.31703 29.82211 -206.68237 -348.95688 29.93789 -207.71186 -347.60069 30.05368 -208.72847 -346.24897 30.16947 -209.73003 -344.90224 30.28526 -210.71432 -343.56107 30.40105 -211.67915 -342.22604 30.51684 -212.62233 -340.89776 30.63263 -213.54165 -339.57689 30.74842 -214.43493 -338.26411 30.86421 -215.29997 -336.96016 30.98000 -216.13461 -335.66579 31.09579 -216.93667 -334.38183 31.21158 -217.70403 -333.10915 31.32737 -218.43457 -331.84868 31.44316 -219.12622 -330.60138 31.55895 -219.77697 -329.36832 31.67474 -220.38485 -328.15058 31.79053 -220.94799 -326.94933 31.90632 -221.46462 -325.76580 32.02211 -221.93309 -324.60123 32.13789 -222.35191 -323.45691 32.25368 -222.71975 -322.33412 32.36947 -223.03552 -321.23407 32.48526 -223.29833 -320.15790 32.60105 -223.50753 -319.10654 32.71684 -223.66272 -318.08069 32.83263 -223.76370 -317.08065 32.94842 -223.81044 -316.10624 33.06421 -223.80224 -315.13727 33.18000 -223.73849 -313.98260 33.31725 -223.63261 -312.81159 33.45451 -223.48568 -311.64168 33.59176 -223.29809 -310.47259 33.72902 -223.07023 -309.30408 33.86627 -222.80246 -308.13598 34.00353 -222.49513 -306.96818 34.14078 -222.14858 -305.80060 34.27804 -221.76318 -304.63326 34.41529 -221.33928 -303.46618 34.55255 -220.87726 -302.29946 34.68980 -220.37752 -301.13322 34.82706 -219.84048 -299.96763 34.96431 -219.26658 -298.80286 35.10157 -218.65629 -297.63914 35.23882 -218.01009 -296.47669 35.37608 -217.32850 -295.31575 35.51333 -216.61205 -294.15660 35.65059 -215.86130 -292.99948 35.78784 -215.07682 -291.84468 35.92510 -214.25922 -290.69246 36.06235 -213.40911 -289.54310 36.19961 -212.52711 -288.39687 36.33686 -211.61388 -287.25404 36.47412 -210.67007 -286.11487 36.61137 -209.69636 -284.97963 36.74863 -208.69342 -283.84858 36.88588 -207.66194 -282.72196 37.02314 -206.60262 -281.60002 37.16039 -205.51617 -280.48301 37.29765 -204.40330 -279.37115 37.43490 -203.26472 -278.26467 37.57216 -202.10117 -277.16380 37.70941 -200.91335 -276.06874 37.84667 -199.70201 -274.97972 37.98392 -198.46787 -273.89694 38.12118 -197.21168 -272.82059 38.25843 -195.93416 -271.75087 38.39569 -194.63605 -270.68798 38.53294 -193.31809 -269.63209 38.67020 -191.98103 -268.58339 38.80745 -190.62561 -267.54206 38.94471 -189.25257 -266.50827 39.08196 -187.86264 -265.48219 39.21922 -186.45658 -264.46399 39.35647 -185.03512 -263.45383 39.49373 -183.59902 -262.45187 39.63098 -182.14901 -261.45827 39.76824 -180.68584 -260.47319 39.90549 -179.21024 -259.49678 40.04275 -177.73364 -258.53604 40.18000 -176.77343 -257.93397 40.27211 -175.77854 -257.34398 40.36421 -174.73940 -256.75942 40.45632 -173.65747 -256.18062 40.54842 -172.53423 -255.60784 40.64053 -171.37116 -255.04126 40.73263 -170.16975 -254.48099 40.82474 -168.93145 -253.92711 40.91684 -167.65775 -253.37963 41.00895 -166.35008 -252.83852 41.10105 -165.00990 -252.30370 41.19316 -163.63862 -251.77510 41.28526 -162.23766 -251.25257 41.37737 -160.80843 -250.73598 41.46947 -159.35231 -250.22514 41.56158 -157.87068 -249.71988 41.65368 -156.36491 -249.21998 41.74579 -154.83634 -248.72522 41.83789 -153.28633 -248.23539 41.93000 -151.71621 -247.75022 42.02211 -150.12731 -247.26947 42.11421 -148.52094 -246.79289 42.20632 -146.89842 -246.32019 42.29842 -145.26104 -245.85112 42.39053 -143.61011 -245.38538 42.48263 -141.94691 -244.92270 42.57474 -140.27273 -244.46277 42.66684 -138.58884 -244.00532 42.75895 -136.89651 -243.55003 42.85105 -135.19701 -243.09661 42.94316 -133.49160 -242.64475 43.03526 -131.78153 -242.19414 43.12737 -130.06806 -241.74447 43.21947 -128.35243 -241.29542 43.31158 -126.63587 -240.84667 43.40368 -124.91963 -240.39792 43.49579 -123.20493 -239.94882 43.58789 -121.49300 -239.49905 43.68000 -119.78506 -239.04828 43.77211 -118.08232 -238.59619 43.86421 -116.38598 -238.14242 43.95632 -114.69727 -237.68665 44.04842 -113.01736 -237.22853 44.14053 -111.34745 -236.76770 44.23263 -109.68872 -236.30382 44.32474 -108.04236 -235.83653 44.41684 -106.40953 -235.36545 44.50895 -104.79139 -234.89023 44.60105 -103.18909 -234.41049 44.69316 -101.60378 -233.92582 44.78526 -100.03658 -233.43585 44.87737 -98.48863 -232.94017 44.96947 -96.96103 -232.43834 45.06158 -95.45489 -231.92995 45.15368 -93.97127 -231.41453 45.24579 -92.51127 -230.89163 45.33789 -91.07592 -230.36075 45.43000 -89.66626 -229.82137 45.52211 -88.28333 -229.27294 45.61421 -86.92812 -228.71489 45.70632 -85.60162 -228.14658 45.79842 -84.30479 -227.56736 45.89053 -83.03859 -226.97649 45.98263 -81.80394 -226.37319 46.07474 -80.60179 -225.75659 46.16684 -79.43304 -225.12574 46.25895 -78.29862 -224.47960 46.35105 -77.19946 -223.81699 46.44316 -76.13654 -223.13662 46.53526 -75.11088 -222.43707 46.62737 -74.12360 -221.71674 46.71947 -73.17595 -220.97389 46.81158 -72.26938 -220.20663 46.90368 -71.40556 -219.41291 46.99579 -70.58654 -218.59061 47.08789 -69.77045 -217.68515 47.18000 -68.64437 -216.25358 47.33556 -67.63151 -214.70835 47.49111 -66.78001 -213.11158 47.64667 -66.08992 -211.47306 47.80222 -65.55873 -209.80398 47.95778 -65.18094 -208.11562 48.11333 -64.94834 -206.41806 48.26889 -64.85079 -204.71927 48.42444 -64.87711 -203.02485 48.58000 -65.01597 -201.33817 48.73556 -65.25641 -199.66077 48.89111 -65.58821 -197.99295 49.04667 -66.00198 -196.33419 49.20222 -66.48913 -194.68359 49.35778 -67.04175 -193.04009 49.51333 -67.65250 -191.40270 49.66889 -68.31450 -189.77057 49.82444 -69.02118 -188.14307 49.98000 -69.76623 -186.51977 50.13556 -70.54350 -184.90050 50.29111 -71.34697 -183.28529 50.44667 -72.17072 -181.67439 50.60222 -73.00884 -180.06822 50.75778 -73.85550 -178.46739 50.91333 -74.70487 -176.87270 51.06889 -75.55114 -175.28509 51.22444 -76.38850 -173.70566 51.38000 -77.21118 -172.13567 51.53556 -78.01339 -170.57654 51.69111 -78.78940 -169.02985 51.84667 -79.53351 -167.49734 52.00222 -80.24010 -165.98095 52.15778 -80.90363 -164.48280 52.31333 -81.51870 -163.00517 52.46889 -82.08013 -161.55055 52.62444 -82.58294 -160.12161 52.78000 -83.02254 -158.72111 52.93556 -83.39474 -157.35191 53.09111 -83.69587 -156.01678 53.24667 -83.92287 -154.71824 53.40222 -84.07332 -153.45832 53.55778 -84.14545 -152.23819 53.71333 -84.13789 -151.05780 53.86889 -84.04943 -149.91553 54.02444 -83.86817 -148.75366 54.18000 -83.62241 -147.60087 54.34667 -83.32501 -146.38710 54.51333 -82.98641 -145.16367 54.68000 -82.60748 -143.93116 54.84667 -82.18916 -142.69021 55.01333 -81.73247 -141.44147 55.18000 -81.23845 -140.18559 55.34667 -80.70819 -138.92326 55.51333 -80.14284 -137.65515 55.68000 -79.54357 -136.38193 55.84667 -78.91159 -135.10428 56.01333 -78.24815 -133.82284 56.18000 -77.55451 -132.53827 56.34667 -76.83195 -131.25119 56.51333 -76.08178 -129.96221 56.68000 -75.30534 -128.67195 56.84667 -74.50394 -127.38098 57.01333 -73.67894 -126.08989 57.18000 -72.83169 -124.79922 57.34667 -71.96355 -123.50952 57.51333 -71.07590 -122.22134 57.68000 -70.17011 -120.93517 57.84667 -69.24754 -119.65155 58.01333 -68.30959 -118.37095 58.18000 -67.35764 -117.09386 58.34667 -66.39306 -115.82077 58.51333 -65.41723 -114.55213 58.68000 -64.43155 -113.28840 58.84667 -63.43739 -112.03003 59.01333 -62.43613 -110.77746 59.18000 -61.42915 -109.53111 59.34667 -60.41783 -108.29141 59.51333 -59.40354 -107.05877 59.68000 -58.38767 -105.83359 59.84667 -57.37156 -104.61628 60.01333 -56.35660 -103.40721 60.18000 -55.34415 -102.20677 60.34667 -54.33556 -101.01534 60.51333 -53.33219 -99.83326 60.68000 -52.33539 -98.66090 60.84667 -51.34651 -97.49859 61.01333 -50.36688 -96.34666 61.18000 -49.39784 -95.20542 61.34667 -48.44071 -94.07519 61.51333 -47.49682 -92.95623 61.68000 -46.56748 -91.84883 61.84667 -45.65398 -90.75323 62.01333 -44.77863 -89.69496 62.18000 -43.76145 -88.49016 62.35500 -42.74033 -87.33851 62.53000 -41.69521 -86.21264 62.70500 -40.62740 -85.11101 62.88000 -39.53827 -84.03206 63.05500 -38.42922 -82.97429 63.23000 -37.30168 -81.93621 63.40500 -36.15712 -80.91630 63.58000 -34.99703 -79.91309 63.75500 -33.82292 -78.92507 63.93000 -32.63634 -77.95075 64.10500 -31.43887 -76.98860 64.28000 -30.23208 -76.03711 64.45500 -29.01758 -75.09471 64.63000 -27.79698 -74.15983 64.80500 -26.57190 -73.23089 64.98000 -25.34399 -72.30627 65.15500 -24.11489 -71.38431 65.33000 -22.88626 -70.46335 65.50500 -21.65974 -69.54167 65.68000 -20.43702 -68.61754 65.85500 -19.21978 -67.68919 66.03000 -18.00970 -66.75481 66.20500 -16.80850 -65.81256 66.38000 -15.61791 -64.86057 66.55500 -14.43967 -63.89693 66.73000 -13.27557 -62.91969 66.90500 -12.12743 -61.92687 67.08000 -10.99711 -60.91648 67.25500 -9.88655 -59.88649 67.43000 -8.79771 -58.83485 67.60500 -7.73266 -57.75952 67.78000 -6.69355 -56.65847 67.95500 -5.68261 -55.52969 68.13000 -4.70217 -54.37120 68.30500 -3.75466 -53.18111 68.48000 -2.84261 -51.95763 68.65500 -1.96866 -50.69905 68.83000 -1.13549 -49.40383 69.00500 -0.33938 -48.05910 69.18000 0.44172 -46.59838 69.33789 1.15655 -45.09529 69.49579 1.80148 -43.56752 69.65368 2.38099 -42.01832 69.81158 2.89962 -40.45059 69.96947 3.36190 -38.86691 70.12737 3.77228 -37.26962 70.28526 4.13514 -35.66090 70.44316 4.45474 -34.04274 70.60105 4.73521 -32.41707 70.75895 4.98059 -30.78573 70.91684 5.19479 -29.15055 71.07474 5.38161 -27.51334 71.23263 5.54477 -25.87592 71.39053 5.68790 -24.24013 71.54842 5.81453 -22.60787 71.70632 5.92816 -20.98104 71.86421 6.03218 -19.36162 72.02211 6.12996 -17.75163 72.18000 6.22477 -16.15315 72.33789 6.31985 -14.56832 72.49579 6.41837 -12.99933 72.65368 6.52345 -11.44844 72.81158 6.63812 -9.91796 72.96947 6.76534 -8.41027 73.12737 6.90801 -6.92781 73.28526 7.06889 -5.47305 73.44316 7.25067 -4.04853 73.60105 7.45587 -2.65679 73.75895 7.68690 -1.30038 73.91684 7.94599 0.01814 74.07474 8.23519 1.29633 74.23263 8.55636 2.53182 74.39053 8.91117 3.72245 74.54842 9.30115 4.86633 74.70632 9.72766 5.96192 74.86421 10.19204 7.00816 75.02211 10.69993 8.01241 75.18000 11.36553 9.18908 75.33152 12.07652 10.33831 75.48303 12.82916 11.45756 75.63455 13.62235 12.54905 75.78606 14.45494 13.61487 75.93758 15.32574 14.65691 76.08909 16.23345 15.67697 76.24061 17.17668 16.67674 76.39212 18.15392 17.65783 76.54364 19.16359 18.62179 76.69515 20.20399 19.57016 76.84667 21.27335 20.50444 76.99818 22.36982 21.42617 77.14970 23.49147 22.33689 77.30121 24.63633 23.23814 77.45273 25.80238 24.13152 77.60424 26.98754 25.01868 77.75576 28.18974 25.90127 77.90727 29.40685 26.78101 78.05879 30.63675 27.65966 78.21030 31.87727 28.53902 78.36182 33.12628 29.42095 78.51333 34.38160 30.30734 78.66485 35.64106 31.20013 78.81636 36.90247 32.10132 78.96788 38.16364 33.01293 79.11939 39.42236 33.93706 79.27091 40.67641 34.87583 79.42242 41.92353 35.83140 79.57394 43.16145 36.80598 79.72545 44.38785 37.80183 79.87697 45.60037 38.82122 80.02848 46.76346 39.83720 80.18000</float_array><technique_common><accessor source="#positions-array" count="864" stride="3"><param name="X" type="float"/><param name="Y" type="float"/><param name="Z" type="float"/></accessor></technique_common></source>
<source id="normals"><float_array id="normals-array" count="2586">-0.00052 -0.06923 0.99760 -0.00102 -0.06902 0.99761 -0.00104 -0.07099 0.99748 -0.00202 -0.07057 0.99751 -0.00203 -0.07093 0.99748 -0.00293 -0.07052 0.99751 -0.00294 -0.07083 0.99748 -0.00376 -0.07044 0.99751 -0.00378 -0.07069 0.99749 -0.00452 -0.07033 0.99751 -0.00453 -0.07052 0.99750 -0.00520 -0.07019 0.99752 -0.00521 -0.07033 0.99751 -0.00580 -0.07003 0.99753 -0.00580 -0.07011 0.99752 -0.00632 -0.06985 0.99754 -0.00632 -0.06988 0.99754 -0.00675 -0.06965 0.99755 -0.00675 -0.06964 0.99755 -0.00711 -0.06945 0.99756 -0.00711 -0.06940 0.99756 -0.00739 -0.06925 0.99757 -0.00738 -0.06915 0.99758 -0.00759 -0.06904 0.99759 -0.00757 -0.06890 0.99760 -0.00771 -0.06882 0.99760 -0.00769 -0.06864 0.99761 -0.00775 -0.06861 0.99761 -0.00772 -0.06839 0.99763 -0.00771 -0.06840 0.99763 -0.00768 -0.06814 0.99765 -0.00760 -0.06819 0.99764 -0.00756 -0.06790 0.99766 -0.00741 -0.06798 0.99766 -0.00737 -0.06765 0.99768 -0.00714 -0.06777 0.99768 -0.00710 -0.06740 0.99770 -0.00680 -0.06756 0.99769 -0.00676 -0.06716 0.99772 -0.00639 -0.06735 0.99771 -0.00635 -0.06691 0.99774 -0.00591 -0.06713 0.99773 -0.00586 -0.06665 0.99776 -0.00535 -0.06690 0.99775 -0.00531 -0.06639 0.99778 -0.00473 -0.06667 0.99776 -0.00469 -0.06611 0.99780 -0.00404 -0.06642 0.99778 -0.00400 -0.06583 0.99782 -0.00328 -0.06615 0.99780 -0.00325 -0.06552 0.99785 -0.00246 -0.06587 0.99783 -0.00244 -0.06520 0.99787 -0.00158 -0.06556 0.99785 -0.00156 -0.06485 0.99789 -0.00064 -0.06522 0.99787 -0.00064 -0.06447 0.99792 0.00035 -0.06485 0.99790 0.00034 -0.06406 0.99795 0.00139 -0.06444 0.99792 0.00137 -0.06362 0.99797 0.00247 -0.06399 0.99795 0.00244 -0.06313 0.99800 0.00360 -0.06350 0.99798 0.00355 -0.06260 0.99803 0.00476 -0.06296 0.99800 0.00469 -0.06202 0.99806 0.00595 -0.06237 0.99804 0.00585 -0.06140 0.99810 0.00716 -0.06172 0.99807 0.00704 -0.06072 0.99813 0.00838 -0.06102 0.99810 0.00824 -0.05999 0.99816 0.00961 -0.06026 0.99814 0.00944 -0.05920 0.99820 0.01084 -0.05944 0.99817 0.01065 -0.05836 0.99824 0.01207 -0.05857 0.99821 0.01184 -0.05746 0.99828 0.01328 -0.05763 0.99825 0.01302 -0.05650 0.99832 0.01447 -0.05663 0.99829 0.01417 -0.05549 0.99836 0.01562 -0.05558 0.99833 0.01525 -0.05427 0.99841 0.01676 -0.05432 0.99838 0.02321 -0.07524 0.99690 0.02621 -0.07545 0.99680 0.02549 -0.07337 0.99698 0.02832 -0.07346 0.99690 0.02768 -0.07179 0.99704 0.03026 -0.07178 0.99696 0.02959 -0.07019 0.99710 0.03192 -0.07010 0.99703 0.03124 -0.06860 0.99716 0.03335 -0.06846 0.99710 0.03267 -0.06705 0.99721 0.03457 -0.06686 0.99716 0.03389 -0.06555 0.99727 0.03561 -0.06533 0.99723 0.03494 -0.06411 0.99733 0.03649 -0.06388 0.99729 0.03584 -0.06275 0.99739 0.03723 -0.06251 0.99735 0.03660 -0.06147 0.99744 0.03785 -0.06123 0.99741 0.03726 -0.06028 0.99749 0.03837 -0.06004 0.99746 0.03781 -0.05917 0.99753 0.03880 -0.05894 0.99751 0.03828 -0.05815 0.99757 0.03916 -0.05794 0.99755 0.03868 -0.05723 0.99761 0.03946 -0.05702 0.99759 0.03902 -0.05639 0.99765 0.03971 -0.05620 0.99763 0.03932 -0.05564 0.99768 0.03992 -0.05546 0.99766 0.03957 -0.05497 0.99770 0.04009 -0.05482 0.99769 0.03979 -0.05440 0.99773 0.04024 -0.05426 0.99772 0.03997 -0.05391 0.99775 0.04035 -0.05378 0.99774 0.04014 -0.05350 0.99776 0.04045 -0.05340 0.99775 0.04029 -0.05317 0.99777 0.04054 -0.05309 0.99777 0.04042 -0.05293 0.99778 0.04061 -0.05287 0.99778 0.04054 -0.05277 0.99778 0.04067 -0.05273 0.99778 0.04065 -0.05270 0.99778 0.04072 -0.05267 0.99778 0.04075 -0.05271 0.99778 0.04077 -0.05270 0.99778 0.04085 -0.05280 0.99777 0.04081 -0.05281 0.99777 0.04094 -0.05298 0.99776 0.04084 -0.05301 0.99776 0.04102 -0.05324 0.99774 0.04087 -0.05329 0.99774 0.04110 -0.05360 0.99772 0.04089 -0.05367 0.99772 0.04118 -0.05404 0.99769 0.04090 -0.05413 0.99770 0.04125 -0.05459 0.99766 0.04091 -0.05470 0.99766 0.04131 -0.05523 0.99762 0.04090 -0.05536 0.99763 0.04136 -0.05598 0.99757 0.04088 -0.05613 0.99759 0.04140 -0.05684 0.99752 0.04084 -0.05700 0.99754 0.04142 -0.05782 0.99747 0.04078 -0.05800 0.99748 0.04143 -0.05893 0.99740 0.04069 -0.05912 0.99742 0.04141 -0.06016 0.99733 0.04056 -0.06037 0.99735 0.04135 -0.06154 0.99725 0.04040 -0.06176 0.99727 0.04126 -0.06308 0.99716 0.04018 -0.06330 0.99719 0.04111 -0.06477 0.99705 0.03990 -0.06500 0.99709 0.04091 -0.06665 0.99694 0.03954 -0.06687 0.99698 0.04063 -0.06871 0.99681 0.03908 -0.06892 0.99686 0.04025 -0.07098 0.99667 0.03851 -0.07117 0.99672 0.03976 -0.07347 0.99650 0.03781 -0.07363 0.99657 0.03913 -0.07620 0.99632 0.03693 -0.07631 0.99640 0.03832 -0.07918 0.99612 0.03586 -0.07922 0.99621 0.03731 -0.08243 0.99590 0.03454 -0.08236 0.99600 0.03605 -0.08595 0.99565 0.03294 -0.08576 0.99577 0.03448 -0.08976 0.99537 0.03100 -0.08939 0.99551 0.03255 -0.09385 0.99505 0.02866 -0.09325 0.99523 0.03018 -0.09820 0.99471 0.02585 -0.09730 0.99492 0.02730 -0.10278 0.99433 0.02249 -0.10152 0.99458 0.02383 -0.10753 0.99392 0.01853 -0.10581 0.99421 0.01968 -0.11235 0.99347 0.01388 -0.11007 0.99383 0.01477 -0.11710 0.99301 0.00850 -0.11416 0.99343 0.00905 -0.12159 0.99254 0.00236 -0.11789 0.99302 0.00245 -0.12262 0.99245 -0.00388 -0.11862 0.99293 -0.00393 -0.12028 0.99273 -0.00854 -0.11757 0.99303 -0.00855 -0.11774 0.99301 -0.01245 -0.11529 0.99325 -0.01263 -0.11700 0.99305 -0.01637 -0.11448 0.99329 -0.01658 -0.11597 0.99311 -0.02015 -0.11339 0.99335 -0.02037 -0.11467 0.99319 -0.02376 -0.11205 0.99342 -0.02399 -0.11314 0.99329 -0.02720 -0.11050 0.99350 -0.02742 -0.11140 0.99340 -0.03045 -0.10877 0.99360 -0.03065 -0.10949 0.99351 -0.03350 -0.10687 0.99371 -0.03368 -0.10744 0.99364 -0.03635 -0.10485 0.99382 -0.03650 -0.10528 0.99377 -0.03899 -0.10273 0.99394 -0.03911 -0.10304 0.99391 -0.04144 -0.10053 0.99407 -0.04152 -0.10073 0.99405 -0.04369 -0.09828 0.99420 -0.04374 -0.09839 0.99419 -0.04576 -0.09600 0.99433 -0.04577 -0.09602 0.99433 -0.04765 -0.09371 0.99446 -0.04763 -0.09366 0.99446 -0.04937 -0.09141 0.99459 -0.04931 -0.09130 0.99460 -0.05094 -0.08913 0.99472 -0.05085 -0.08898 0.99473 -0.05235 -0.08688 0.99484 -0.05223 -0.08669 0.99487 -0.05363 -0.08467 0.99497 -0.05348 -0.08444 0.99499 -0.05478 -0.08249 0.99508 -0.05461 -0.08224 0.99511 -0.05581 -0.08037 0.99520 -0.05562 -0.08010 0.99523 -0.05674 -0.07830 0.99531 -0.05653 -0.07802 0.99535 -0.05756 -0.07629 0.99542 -0.05735 -0.07600 0.99546 -0.05830 -0.07435 0.99553 -0.05807 -0.07405 0.99556 -0.05896 -0.07246 0.99563 -0.05872 -0.07216 0.99566 -0.05955 -0.07063 0.99572 -0.05930 -0.07034 0.99576 -0.06007 -0.06887 0.99582 -0.05982 -0.06859 0.99585 -0.06053 -0.06718 0.99590 -0.06028 -0.06690 0.99594 -0.06094 -0.06554 0.99599 -0.06069 -0.06527 0.99602 -0.06131 -0.06397 0.99607 -0.06105 -0.06371 0.99610 -0.06163 -0.06246 0.99614 -0.06138 -0.06220 0.99617 -0.06192 -0.06101 0.99622 -0.06167 -0.06076 0.99625 -0.06217 -0.05961 0.99628 -0.06193 -0.05938 0.99631 -0.06240 -0.05827 0.99635 -0.06216 -0.05805 0.99638 -0.06260 -0.05699 0.99641 -0.06237 -0.05678 0.99644 -0.06278 -0.05576 0.99647 -0.06256 -0.05556 0.99649 -0.06295 -0.05458 0.99652 -0.06274 -0.05439 0.99655 -0.06310 -0.05344 0.99658 -0.06290 -0.05327 0.99660 -0.06323 -0.05236 0.99662 -0.06305 -0.05220 0.99664 -0.06336 -0.05132 0.99667 -0.06319 -0.05118 0.99669 -0.06348 -0.05032 0.99671 -0.06332 -0.05019 0.99673 -0.06360 -0.04937 0.99675 -0.06345 -0.04925 0.99677 -0.06371 -0.04846 0.99679 -0.06357 -0.04835 0.99681 -0.06382 -0.04758 0.99683 -0.06370 -0.04749 0.99684 -0.06393 -0.04674 0.99686 -0.06382 -0.04666 0.99687 -0.06404 -0.04594 0.99689 -0.06395 -0.04588 0.99690 -0.06416 -0.04518 0.99692 -0.06408 -0.04512 0.99692 -0.06428 -0.04444 0.99694 -0.06421 -0.04440 0.99695 -0.06440 -0.04374 0.99697 -0.06435 -0.04371 0.99697 -0.06453 -0.04307 0.99699 -0.06450 -0.04305 0.99699 -0.06466 -0.04243 0.99700 -0.06518 -0.04277 0.99696 -0.06540 -0.04192 0.99698 -0.06902 -0.04423 0.99663 -0.06917 -0.04217 0.99671 -0.06862 -0.04183 0.99677 -0.06874 -0.03970 0.99684 -0.06744 -0.03895 0.99696 -0.06753 -0.03705 0.99703 -0.06629 -0.03636 0.99714 -0.06635 -0.03465 0.99719 -0.06517 -0.03404 0.99729 -0.06521 -0.03250 0.99734 -0.06408 -0.03194 0.99743 -0.06411 -0.03055 0.99748 -0.06304 -0.03004 0.99756 -0.06305 -0.02880 0.99759 -0.06204 -0.02833 0.99767 -0.06204 -0.02720 0.99770 -0.06108 -0.02678 0.99777 -0.06108 -0.02576 0.99780 -0.06018 -0.02538 0.99787 -0.06017 -0.02445 0.99789 -0.05932 -0.02410 0.99795 -0.05930 -0.02326 0.99797 -0.05850 -0.02294 0.99802 -0.05849 -0.02218 0.99804 -0.05773 -0.02189 0.99809 -0.05772 -0.02119 0.99811 -0.05701 -0.02093 0.99815 -0.05699 -0.02029 0.99817 -0.05633 -0.02006 0.99821 -0.05631 -0.01948 0.99822 -0.05569 -0.01926 0.99826 -0.05567 -0.01873 0.99827 -0.05509 -0.01854 0.99831 -0.05507 -0.01805 0.99832 -0.05453 -0.01788 0.99835 -0.05451 -0.01744 0.99836 -0.05401 -0.01728 0.99839 -0.05399 -0.01687 0.99840 -0.05353 -0.01673 0.99843 -0.05351 -0.01636 0.99843 -0.05309 -0.01623 0.99846 -0.05307 -0.01590 0.99846 -0.05267 -0.01578 0.99849 -0.05266 -0.01548 0.99849 -0.05230 -0.01538 0.99851 -0.05228 -0.01510 0.99852 -0.05195 -0.01501 0.99854 -0.05194 -0.01477 0.99854 -0.05164 -0.01468 0.99856 -0.05163 -0.01446 0.99856 -0.05136 -0.01439 0.99858 -0.05135 -0.01420 0.99858 -0.05111 -0.01413 0.99859 -0.05110 -0.01396 0.99860 -0.05089 -0.01390 0.99861 -0.05088 -0.01376 0.99861 -0.05070 -0.01371 0.99862 -0.05070 -0.01358 0.99862 -0.05054 -0.01354 0.99863 -0.05054 -0.01344 0.99863 -0.05041 -0.01340 0.99864 -0.05041 -0.01332 0.99864 -0.05031 -0.01329 0.99865 -0.05030 -0.01323 0.99865 -0.05023 -0.01321 0.99865 -0.05023 -0.01316 0.99865 -0.05018 -0.01315 0.99865 -0.05018 -0.01313 0.99865 -0.05016 -0.01312 0.99866 -0.05016 -0.01311 0.99866 -0.05016 -0.01311 0.99866 -0.05016 -0.01313 0.99865 -0.05019 -0.01313 0.99865 -0.05019 -0.01317 0.99865 -0.05025 -0.01318 0.99865 -0.05025 -0.01323 0.99865 -0.05033 -0.01325 0.99864 -0.05034 -0.01333 0.99864 -0.05044 -0.01335 0.99864 -0.05045 -0.01344 0.99864 -0.05058 -0.01348 0.99863 -0.05059 -0.01359 0.99863 -0.05074 -0.01363 0.99862 -0.05075 -0.01377 0.99862 -0.05093 -0.01382 0.99861 -0.05094 -0.01397 0.99860 -0.05114 -0.01403 0.99859 -0.05116 -0.01421 0.99859 -0.05139 -0.01428 0.99858 -0.05140 -0.01448 0.99857 -0.05165 -0.01455 0.99856 -0.05167 -0.01478 0.99855 -0.05195 -0.01486 0.99854 -0.05196 -0.01512 0.99853 -0.05227 -0.01521 0.99852 -0.05228 -0.01550 0.99851 -0.05261 -0.01560 0.99849 -0.05263 -0.01592 0.99849 -0.05298 -0.01603 0.99847 -0.05300 -0.01639 0.99846 -0.05338 -0.01650 0.99844 -0.05340 -0.01689 0.99843 -0.05380 -0.01702 0.99841 -0.05382 -0.01745 0.99840 -0.05424 -0.01759 0.99837 -0.05426 -0.01807 0.99836 -0.05471 -0.01822 0.99834 -0.05473 -0.01874 0.99833 -0.05519 -0.01890 0.99830 -0.05521 -0.01947 0.99828 -0.05570 -0.01965 0.99825 -0.05571 -0.02028 0.99824 -0.05622 -0.02046 0.99821 -0.05623 -0.02115 0.99819 -0.05675 -0.02135 0.99816 -0.05676 -0.02211 0.99814 -0.05729 -0.02232 0.99811 -0.05729 -0.02315 0.99809 -0.05783 -0.02337 0.99805 -0.05783 -0.02429 0.99803 -0.05837 -0.02452 0.99799 -0.05836 -0.02553 0.99797 -0.05890 -0.02576 0.99793 -0.05887 -0.02687 0.99790 -0.05940 -0.02712 0.99787 -0.05936 -0.02834 0.99783 -0.05987 -0.02858 0.99780 -0.05981 -0.02994 0.99776 -0.06029 -0.03018 0.99772 -0.06020 -0.03167 0.99768 -0.06063 -0.03190 0.99765 -0.06051 -0.03355 0.99760 -0.06089 -0.03376 0.99757 -0.06073 -0.03558 0.99752 -0.06104 -0.03576 0.99749 -0.06081 -0.03777 0.99743 -0.06103 -0.03790 0.99742 -0.06074 -0.04012 0.99735 -0.06085 -0.04019 0.99734 -0.06047 -0.04264 0.99726 -0.06045 -0.04263 0.99726 -0.05996 -0.04532 0.99717 -0.05979 -0.04519 0.99719 -0.05916 -0.04816 0.99709 -0.05882 -0.04788 0.99712 -0.05802 -0.05113 0.99701 -0.05749 -0.05067 0.99706 -0.05649 -0.05421 0.99693 -0.05577 -0.05353 0.99701 -0.05451 -0.05737 0.99686 -0.05029 -0.05293 0.99733 -0.04821 -0.05798 0.99715 -0.05323 -0.06402 0.99653 -0.04983 -0.06907 0.99637 -0.04776 -0.06621 0.99666 -0.04287 -0.07221 0.99647 -0.04249 -0.07158 0.99653 -0.03688 -0.07739 0.99632 -0.03642 -0.07643 0.99641 -0.03021 -0.08185 0.99619 -0.02975 -0.08062 0.99630 -0.02311 -0.08548 0.99607 -0.02272 -0.08404 0.99620 -0.01586 -0.08821 0.99598 -0.01557 -0.08661 0.99612 -0.00871 -0.09007 0.99590 -0.00854 -0.08834 0.99605 -0.00186 -0.09108 0.99584 -0.00182 -0.08926 0.99601 0.00451 -0.09135 0.99581 0.00442 -0.08947 0.99598 0.01030 -0.09099 0.99580 0.01009 -0.08909 0.99597 0.01546 -0.09013 0.99581 0.01513 -0.08824 0.99598 0.01996 -0.08891 0.99584 0.01955 -0.08707 0.99601 0.02383 -0.08745 0.99588 0.02335 -0.08569 0.99605 0.02712 -0.08585 0.99594 0.02660 -0.08421 0.99609 0.02988 -0.08422 0.99600 0.02935 -0.08271 0.99614 0.03218 -0.08263 0.99606 0.03165 -0.08127 0.99619 0.03407 -0.08112 0.99612 0.03357 -0.07993 0.99624 0.03562 -0.07975 0.99618 0.03517 -0.07873 0.99628 0.03688 -0.07854 0.99623 0.03649 -0.07770 0.99631 0.03789 -0.07752 0.99627 0.03757 -0.07687 0.99633 0.03869 -0.07670 0.99630 0.03846 -0.07624 0.99635 0.03932 -0.07610 0.99632 0.03918 -0.07583 0.99635 0.03979 -0.07573 0.99633 0.03975 -0.07566 0.99634 0.04012 -0.07559 0.99633 0.04019 -0.07573 0.99632 0.04034 -0.07570 0.99631 0.04052 -0.07605 0.99628 0.04044 -0.07606 0.99628 0.04074 -0.07663 0.99623 0.04042 -0.07669 0.99624 0.04085 -0.07750 0.99616 0.04029 -0.07759 0.99617 0.04085 -0.07866 0.99606 0.04003 -0.07878 0.99609 0.04072 -0.08014 0.99595 0.03963 -0.08029 0.99598 0.04045 -0.08195 0.99581 0.03907 -0.08212 0.99586 0.04003 -0.08413 0.99565 0.03830 -0.08429 0.99570 0.03940 -0.08670 0.99545 0.03730 -0.08684 0.99552 0.03853 -0.08970 0.99522 0.03601 -0.08979 0.99531 0.03736 -0.09314 0.99495 0.03436 -0.09315 0.99506 0.03581 -0.09707 0.99463 0.03226 -0.09694 0.99477 0.03378 -0.10150 0.99426 0.02962 -0.10116 0.99443 0.03117 -0.10644 0.99383 0.02630 -0.10578 0.99404 0.02781 -0.11185 0.99334 0.02216 -0.11076 0.99360 0.02355 -0.11767 0.99277 0.01705 -0.11599 0.99310 0.01819 -0.12372 0.99215 0.01081 -0.12125 0.99256 0.01157 -0.12973 0.99148 0.00332 -0.12627 0.99199 0.00355 -0.13528 0.99080 -0.00549 -0.13062 0.99142 -0.00587 -0.13978 0.99016 -0.01551 -0.13374 0.99090 -0.01563 -0.13476 0.99076 -0.02354 -0.12905 0.99136 -0.02570 -0.14091 0.98969 -0.03120 -0.13650 0.99015 -0.02989 -0.13077 0.99096 -0.03337 -0.12793 0.99122 -0.03331 -0.12769 0.99125 -0.03650 -0.12497 0.99149 -0.03640 -0.12463 0.99154 -0.03932 -0.12202 0.99175 -0.03919 -0.12161 0.99180 -0.04186 -0.11912 0.99200 -0.04170 -0.11866 0.99206 -0.04414 -0.11629 0.99223 -0.04395 -0.11579 0.99230 -0.04618 -0.11354 0.99246 -0.04597 -0.11303 0.99253 -0.04801 -0.11090 0.99267 -0.04778 -0.11037 0.99274 -0.04965 -0.10836 0.99287 -0.04941 -0.10784 0.99294 -0.05113 -0.10593 0.99306 -0.05088 -0.10542 0.99313 -0.05245 -0.10362 0.99323 -0.05220 -0.10313 0.99330 -0.05364 -0.10143 0.99340 -0.05339 -0.10097 0.99346 -0.05472 -0.09936 0.99355 -0.05447 -0.09892 0.99360 -0.05569 -0.09741 0.99368 -0.05545 -0.09700 0.99374 -0.05657 -0.09558 0.99381 -0.05635 -0.09520 0.99386 -0.05737 -0.09386 0.99393 -0.05717 -0.09352 0.99397 -0.05811 -0.09226 0.99404 -0.05792 -0.09195 0.99408 -0.05879 -0.09077 0.99414 -0.05862 -0.09050 0.99417 -0.05942 -0.08938 0.99422 -0.05927 -0.08915 0.99425 -0.06000 -0.08810 0.99430 -0.05988 -0.08791 0.99433 -0.06056 -0.08693 0.99437 -0.06045 -0.08677 0.99439 -0.06108 -0.08585 0.99443 -0.06100 -0.08574 0.99445 -0.06158 -0.08487 0.99449 -0.06152 -0.08480 0.99450 -0.06206 -0.08398 0.99453 -0.06203 -0.08395 0.99454 -0.06252 -0.08319 0.99457 -0.06253 -0.08320 0.99457 -0.06298 -0.08249 0.99460 -0.06301 -0.08254 0.99459 -0.06342 -0.08188 0.99462 -0.06349 -0.08197 0.99461 -0.06387 -0.08136 0.99464 -0.06397 -0.08149 0.99462 -0.06431 -0.08093 0.99464 -0.06445 -0.08110 0.99462 -0.06476 -0.08058 0.99464 -0.06493 -0.08079 0.99461 -0.06521 -0.08032 0.99463 -0.06542 -0.08058 0.99460 -0.06567 -0.08015 0.99462 -0.06591 -0.08045 0.99458 -0.06613 -0.08006 0.99459 -0.06641 -0.08040 0.99455 -0.06661 -0.08007 0.99456 -0.06693 -0.08045 0.99451 -0.06710 -0.08016 0.99452 -0.06746 -0.08059 0.99446 -0.06760 -0.08034 0.99447 -0.06800 -0.08082 0.99441 -0.06812 -0.08061 0.99442 -0.06856 -0.08114 0.99434 -0.06865 -0.08098 0.99435 -0.06914 -0.08156 0.99427 -0.06920 -0.08145 0.99427 -0.06973 -0.08208 0.99418 -0.06976 -0.08202 0.99419 -0.07034 -0.08270 0.99409 -0.07034 -0.08270 0.99409 -0.07097 -0.08343 0.99398 -0.07094 -0.08348 0.99398 -0.07161 -0.08428 0.99387 -0.07156 -0.08438 0.99386 -0.07228 -0.08523 0.99374 -0.07219 -0.08541 0.99373 -0.07296 -0.08632 0.99359 -0.07283 -0.08656 0.99358 -0.07365 -0.08753 0.99344 -0.07348 -0.08784 0.99342 -0.07435 -0.08888 0.99326 -0.07414 -0.08927 0.99324 -0.07709 -0.09282 0.99269 -0.07730 -0.09240 0.99272 -0.07123 -0.08514 0.99382 -0.07219 -0.08342 0.99390 -0.07460 -0.08621 0.99348 -0.07591 -0.08368 0.99360 -0.07671 -0.08456 0.99346 -0.07790 -0.08213 0.99357 -0.07863 -0.08290 0.99345 -0.07970 -0.08058 0.99356 -0.08037 -0.08125 0.99345 -0.08132 -0.07906 0.99355 -0.08193 -0.07964 0.99345 -0.08278 -0.07758 0.99354 -0.08333 -0.07809 0.99346 -0.08408 -0.07616 0.99354 -0.08457 -0.07660 0.99347 -0.08523 -0.07483 0.99355 -0.08567 -0.07521 0.99348 -0.08625 -0.07358 0.99355 -0.08663 -0.07391 0.99350 -0.08713 -0.07244 0.99356 -0.08747 -0.07271 0.99351 -0.08790 -0.07140 0.99357 -0.08820 -0.07164 0.99352 -0.08856 -0.07049 0.99357 -0.08882 -0.07069 0.99354 -0.08912 -0.06971 0.99358 -0.08933 -0.06988 0.99355 -0.08958 -0.06906 0.99358 -0.08976 -0.06920 0.99356 -0.08995 -0.06855 0.99358 -0.09009 -0.06866 0.99356 -0.09023 -0.06818 0.99358 -0.09034 -0.06827 0.99357 -0.09043 -0.06796 0.99358 -0.09050 -0.06802 0.99357 -0.09054 -0.06789 0.99358 -0.09058 -0.06792 0.99357 -0.09057 -0.06797 0.99357 -0.09057 -0.06798 0.99357 -0.09051 -0.06821 0.99356 -0.09047 -0.06818 0.99356 -0.09035 -0.06860 0.99354 -0.09028 -0.06854 0.99356 -0.09010 -0.06914 0.99353 -0.08998 -0.06905 0.99355 -0.08975 -0.06985 0.99351 -0.08958 -0.06971 0.99354 -0.08928 -0.07070 0.99349 -0.08906 -0.07053 0.99353 -0.08868 -0.07171 0.99347 -0.08841 -0.07149 0.99352 -0.08795 -0.07287 0.99346 -0.08761 -0.07259 0.99351 -0.08707 -0.07418 0.99344 -0.08666 -0.07383 0.99350 -0.08602 -0.07562 0.99342 -0.08554 -0.07520 0.99349 -0.08479 -0.07720 0.99340 -0.08424 -0.07669 0.99349 -0.08337 -0.07889 0.99339 -0.08273 -0.07829 0.99349 -0.08172 -0.08069 0.99338 -0.08100 -0.07998 0.99350 -0.07985 -0.08258 0.99338 -0.07905 -0.08175 0.99351 -0.07773 -0.08453 0.99338 -0.07685 -0.08357 0.99353 -0.07535 -0.08653 0.99340 -0.07439 -0.08543 0.99356 -0.07270 -0.08854 0.99342 -0.07167 -0.08729 0.99360 -0.06977 -0.09054 0.99345 -0.06868 -0.08912 0.99365 -0.06656 -0.09249 0.99349 -0.06542 -0.09090 0.99371 -0.06308 -0.09435 0.99354 -0.06190 -0.09259 0.99378 -0.05933 -0.09608 0.99360 -0.05759 -0.09326 0.99397 -0.05457 -0.09702 0.99379 -0.04579 -0.08141 0.99563 -0.04277 -0.08473 0.99549 -0.04188 -0.08297 0.99567 -0.03865 -0.08619 0.99553 -0.03820 -0.08520 0.99563 -0.03504 -0.08809 0.99550 -0.03463 -0.08707 0.99560 -0.03157 -0.08965 0.99547 -0.03121 -0.08862 0.99558 -0.02828 -0.09090 0.99546 -0.02796 -0.08988 0.99556 -0.02520 -0.09189 0.99545 -0.02493 -0.09091 0.99555 -0.02234 -0.09266 0.99545 -0.02211 -0.09173 0.99554 -0.01971 -0.09326 0.99545 -0.01953 -0.09239 0.99553 -0.01733 -0.09371 0.99545 -0.01718 -0.09293 0.99552 -0.01518 -0.09406 0.99545 -0.01507 -0.09338 0.99552 -0.01327 -0.09435 0.99545 -0.01319 -0.09378 0.99551 -0.01159 -0.09460 0.99545 -0.01153 -0.09415 0.99549 -0.01013 -0.09485 0.99544 -0.01010 -0.09453 0.99547 -0.00890 -0.09510 0.99543 -0.00888 -0.09493 0.99544 -0.00787 -0.09539 0.99541 -0.00787 -0.09537 0.99541 -0.00706 -0.09574 0.99538 -0.00707 -0.09588 0.99537 -0.00645 -0.09615 0.99535 -0.00647 -0.09647 0.99532 -0.00604 -0.09665 0.99530 -0.00607 -0.09715 0.99525 -0.00584 -0.09725 0.99524 -0.00588 -0.09794 0.99518 -0.00584 -0.09795 0.99517 -0.00590 -0.09885 0.99508 -0.00606 -0.09878 0.99509 -0.00613 -0.09989 0.99498 -0.00651 -0.09972 0.99499 -0.00660 -0.10107 0.99486 -0.00719 -0.10080 0.99488 -0.00731 -0.10241 0.99472 -0.00813 -0.10202 0.99475 -0.00828 -0.10390 0.99455 -0.00933 -0.10337 0.99460 -0.00953 -0.10555 0.99437 -0.01084 -0.10487 0.99443 -0.01110 -0.10736 0.99416 -0.01268 -0.10651 0.99423 -0.01302 -0.10935 0.99392 -0.01489 -0.10828 0.99401 -0.01533 -0.11148 0.99365 -0.01750 -0.11016 0.99376 -0.01807 -0.11377 0.99334 -0.02056 -0.11215 0.99348 -0.02130 -0.11617 0.99300 -0.02413 -0.11419 0.99317 -0.02507 -0.11866 0.99262 -0.02825 -0.11625 0.99282 -0.02945 -0.12118 0.99219 -0.03298 -0.11826 0.99243 -0.03448 -0.12364 0.99173 -0.03836 -0.12012 0.99202 -0.04021 -0.12594 0.99122 -0.04442 -0.12173 0.99157 -0.04668 -0.12793 0.99068 -0.05117 -0.12291 0.99110 -0.05387 -0.12940 0.99013 -0.05858 -0.12350 0.99061 -0.06117 -0.12895 0.98976 -0.06577 -0.12244 0.99029 -0.05369 -0.09995 0.99354 -0.05672 -0.09588 0.99378 -0.05772 -0.09757 0.99355 -0.06041 -0.09365 0.99377 -0.06153 -0.09538 0.99354 -0.06397 -0.09151 0.99375 -0.06497 -0.09293 0.99355 -0.06716 -0.08914 0.99375 -0.06802 -0.09027 0.99359 -0.06998 -0.08661 0.99378 -0.07068 -0.08748 0.99365 -0.07242 -0.08399 0.99383 -0.07298 -0.08464 0.99374 -0.07451 -0.08132 0.99390 -0.07494 -0.08179 0.99383 -0.07627 -0.07868 0.99398 -0.07657 -0.07899 0.99393 -0.07773 -0.07610 0.99407 -0.07791 -0.07628 0.99404 -0.07891 -0.07361 0.99416 -0.07898 -0.07369 0.99415 -0.07984 -0.07126 0.99426 -0.07983 -0.07125 0.99426 -0.08056 -0.06905 0.99436 -0.08047 -0.06897 0.99437 -0.08109 -0.06700 0.99445 -0.08094 -0.06687 0.99447 -0.08146 -0.06513 0.99455 -0.08125 -0.06496 0.99457 -0.08169 -0.06344 0.99464 -0.08143 -0.06325 0.99467 -0.08179 -0.06194 0.99472 -0.08150 -0.06172 0.99476 -0.08179 -0.06063 0.99480 -0.08147 -0.06039 0.99484 -0.08170 -0.05951 0.99488 -0.08134 -0.05926 0.99492 -0.08152 -0.05858 0.99495 -0.08114 -0.05831 0.99500 -0.08126 -0.05783 0.99501 -0.08087 -0.05755 0.99506 -0.08094 -0.05727 0.99507 -0.08053 -0.05697 0.99512 -0.08055 -0.05688 0.99513 -0.08012 -0.05658 0.99518 -0.08010 -0.05667 0.99517 -0.07965 -0.05635 0.99523 -0.07958 -0.05663 0.99522 -0.07911 -0.05630 0.99527 -0.07899 -0.05676 0.99526 -0.07850 -0.05641 0.99532 -0.07833 -0.05706 0.99529 -0.07781 -0.05668 0.99536 -0.07758 -0.05752 0.99533 -0.07704 -0.05711 0.99539 -0.07675 -0.05812 0.99535 -0.07617 -0.05769 0.99542 -0.07581 -0.05888 0.99538 -0.07520 -0.05841 0.99546 -0.07477 -0.05978 0.99541 -0.07412 -0.05926 0.99549 -0.07360 -0.06081 0.99543 -0.07291 -0.06024 0.99552 -0.07230 -0.06196 0.99546 -0.07387 -0.06331 0.99526 -0.07353 -0.06424 0.99522</float_array><technique_common><accessor source="#normals-array" count="862" stride="3"><param name="X" type="float"/><param name="Y" type="float"/><param name="Z" type="float"/></accessor></technique_common></source>
<vertices id="vertices"><input semantic="POSITION" source="#positions"/></vertices><triangles count="862"><input semantic="VERTEX" source="#vertices" offset="0"/><input semantic="NORMAL" source="#normals" offset="1"/><p>1 0 432 0 0 0 433 1 432 1 1 1 2 2 433 2 1 2 434 3 433 3 2 3 3 4 434 4 2 4 435 5 434 5 3 5 4 6 435 6 3 6 436 7 435 7 4 7 5 8 436 8 4 8 437 9 436 9 5 9 6 10 437 10 5 10 438 11 437 11 6 11 7 12 438 12 6 12 439 13 438 13 7 13 8 14 439 14 7 14 440 15 439 15 8 15 9 16 440 16 8 16 441 17 440 17 9 17 10 18 441 18 9 18 442 19 441 19 10 19 11 20 442 20 10 20 443 21 442 21 11 21 12 22 443 22 11 22 444 23 443 23 12 23 13 24 444 24 12 24 445 25 444 25 13 25 14 26 445 26 13 26 446 27 445 27 14 27 15 28 446 28 14 28 447 29 446 29 15 29 16 30 447 30 15 30 448 31 447 31 16 31 17 32 448 32 16 32 449 33 448 33 17 33 18 34 449 34 17 34 450 35 449 35 18 35 19 36 450 36 18 36 451 37 450 37 19 37 20 38 451 38 19 38 452 39 451 39 20 39 21 40 452 40 20 40 453 41 452 41 21 41 22 42 453 42 21 42 454 43 453 43 22 43 23 44 454 44 22 44 455 45 454 45 23 45 24 46 455 46 23 46 456 47 455 47 24 47 25 48 456 48 24 48 457 49 456 49 25 49 26 50 457 50 25 50 458 51 457 51 26 51 27 52 458 52 26 52 459 53 458 53 27 53 28 54 459 54 27 54 460 55 459 55 28 55 29 56 460 56 28 56 461 57 460 57 29 57 30 58 461 58 29 58 462 59 461 59 30 59 31 60 462 60 30 60 463 61 462 61 31 61 32 62 463 62 31 62 464 63 463 63 32 63 33 64 464 64 32 64 465 65 464 65 33 65 34 66 465 66 33 66 466 67 465 67 34 67 35 68 466 68 34 68 467 69 466 69 35 69 36 70 467 70 35 70 468 71 467 71 36 71 37 72 468 72 36 72 469 73 468 73 37 73 38 74 469 74 37 74 470 75 469 75 38 75 39 76 470 76 38 76 471 77 470 77 39 77 40 78 471 78 39 78 472 79 471 79 40 79 41 80 472 80 40 80 473 81 472 81 41 81 42 82 473 82 41 82 474 83 473 83 42 83 43 84 474 84 42 84 475 85 474 85 43 85 44 86 475 86 43 86 476 87 475 87 44 87 45 88 476 88 44 88 477 89 476 89 45 89 46 90 477 90 45 90 478 91 477 91 46 91 47 92 478 92 46 92 479 93 478 93 47 93 48 94 479 94 47 94 480 95 479 95 48 95 49 96 480 96 48 96 481 97 480 97 49 97 50 98 481 98 49 98 482 99 481 99 50 99 51 100 482 100 50 100 483 101 482 101 51 101 52 102 483 102 51 102 484 103 483 103 52 103 53 104 484 104 52 104 485 105 484 105 53 105 54 106 485 106 53 106 486 107 485 107 54 107 55 108 486 108 54 108 487 109 486 109 55 109 56 110 487 110 55 110 488 111 487 111 56 111 57 112 488 112 56 112 489 113 488 113 57 113 58 114 489 114 57 114 490 115 489 115 58 115 59 116 490 116 58 116 491 117 490 117 59 117 60 118 491 118 59 118 492 119 491 119 60 119 61 120 492 120 60 120 493 121 492 121 61 121 62 122 493 122 61 122 494 123 493 123 62 123 63 124 494 124 62 124 495 125 494 125 63 125 64 126 495 126 63 126 496 127 495 127 64 127 65 128 496 128 64 128 497 129 496 129 65 129 66 130 497 130 65 130 498 131 497 131 66 131 67 132 498 132 66 132 499 133 498 133 67 133 68 134 499 134 67 134 500 135 499 135 68 135 69 136 500 136 68 136 501 137 500 137 69 137 70 138 501 138 69 138 502 139 501 139 70 139 71 140 502 140 70 140 503 141 502 141 71 141 72 142 503 142 71 142 504 143 503 143 72 143 73 144 504 144 72 144 505 145 504 145 73 145 74 146 505 146 73 146 506 147 505 147 74 147 75 148 506 148 74 148 507 149 506 149 75 149 76 150 507 150 75 150 508 151 507 151 76 151 77 152 508 152 76 152 509 153 508 153 77 153 78 154 509 154 77 154 510 155 509 155 78 155 79 156 510 156 78 156 511 157 510 157 79 157 80 158 511 158 79 158 512 159 511 159 80 159 81 160 512 160 80 160 513 161 512 161 81 161 82 162 513 162 81 162 514 163 513 163 82 163 83 164 514 164 82 164 515 165 514 165 83 165 84 166 515 166 83 166 516 167 515 167 84 167 85 168 516 168 84 168 517 169 516 169 85 169 86 170 517 170 85 170 518 171 517 171 86 171 87 172 518 172 86 172 519 173 518 173 87 173 88 174 519 174 87 174 520 175 519 175 88 175 89 176 520 176 88 176 521 177 520 177 89 177 90 178 521 178 89 178 522 179 521 179 90 179 91 180 522 180 90 180 523 181 522 181 91 181 92 182 523 182 91 182 524 183 523 183 92 183 93 184 524 184 92 184 525 185 524 185 93 185 94 186 525 186 93 186 526 187 525 187 94 187 95 188 526 188 94 188 527 189 526 189 95 189 96 190 527 190 95 190 528 191 527 191 96 191 97 192 528 192 96 192 529 193 528 193 97 193 98 194 529 194 97 194 530 195 529 195 98 195 99 196 530 196 98 196 531 197 530 197 99 197 100 198 531 198 99 198 532 199 531 199 100 199 101 200 532 200 100 200 533 201 532 201 101 201 102 202 533 202 101 202 534 203 533 203 102 203 103 204 534 204 102 204 535 205 534 205 103 205 104 206 535 206 103 206 536 207 535 207 104 207 105 208 536 208 104 208 537 209 536 209 105 209 106 210 537 210 105 210 538 211 537 211 106 211 107 212 538 212 106 212 539 213 538 213 107 213 108 214 539 214 107 214 540 215 539 215 108 215 109 216 540 216 108 216 541 217 540 217 109 217 110 218 541 218 109 218 542 219 541 219 110 219 111 220 542 220 110 220 543 221 542 221 111 221 112 222 543 222 111 222 544 223 543 223 112 223 113 224 544 224 112 224 545 225 544 225 113 225 114 226 545 226 113 226 546 227 545 227 114 227 115 228 546 228 114 228 547 229 546 229 115 229 116 230 547 230 115 230 548 231 547 231 116 231 117 232 548 232 116 232 549 233 548 233 117 233 118 234 549 234 117 234 550 235 549 235 118 235 119 236 550 236 118 236 551 237 550 237 119 237 120 238 551 238 119 238 552 239 551 239 120 239 121 240 552 240 120 240 553 241 552 241 121 241 122 242 553 242 121 242 554 243 553 243 122 243 123 244 554 244 122 244 555 245 554 245 123 245 124 246 555 246 123 246 556 247 555 247 124 247 125 248 556 248 124 248 557 249 556 249 125 249 126 250 557 250 125 250 558 251 557 251 126 251 127 252 558 252 126 252 559 253 558 253 127 253 128 254 559 254 127 254 560 255 559 255 128 255 129 256 560 256 128 256 561 257 560 257 129 257 130 258 561 258 129 258 562 259 561 259 130 259 131 260 562 260 130 260 563 261 562 261 131 261 132 262 563 262 131 262 564 263 563 263 132 263 133 264 564 264 132 264 565 265 564 265 133 265 134 266 565 266 133 266 566 267 565 267 134 267 135 268 566 268 134 268 567 269 566 269 135 269 136 270 567 270 135 270 568 271 567 271 136 271 137 272 568 272 136 272 569 273 568 273 137 273 138 274 569 274 137 274 570 275 569 275 138 275 139 276 570 276 138 276 571 277 570 277 139 277 140 278 571 278 139 278 572 279 571 279 140 279 141 280 572 280 140 280 573 281 572 281 141 281 142 282 573 282 141 282 574 283 573 283 142 283 143 284 574 284 142 284 575 285 574 285 143 285 144 286 575 286 143 286 576 287 575 287 144 287 145 288 576 288 144 288 577 289 576 289 145 289 146 290 577 290 145 290 578 291 577 291 146 291 147 292 578 292 146 292 579 293 578 293 147 293 148 294 579 294 147 294 580 295 579 295 148 295 149 296 580 296 148 296 581 297 580 297 149 297 150 298 581 298 149 298 582 299 581 299 150 299 151 300 582 300 150 300 583 301 582 301 151 301 152 302 583 302 151 302 584 303 583 303 152 303 153 304 584 304 152 304 585 305 584 305 153 305 154 306 585 306 153 306 586 307 585 307 154 307 155 308 586 308 154 308 587 309 586 309 155 309 156 310 587 310 155 310 588 311 587 311 156 311 157 312 588 312 156 312 589 313 588 313 157 313 158 314 589 314 157 314 590 315 589 315 158 315 159 316 590 316 158 316 591 317 590 317 159 317 160 318 591 318 159 318 592 319 591 319 160 319 161 320 592 320 160 320 593 321 592 321 161 321 162 322 593 322 161 322 594 323 593 323 162 323 163 324 594 324 162 324 595 325 594 325 163 325 164 326 595 326 163 326 596 327 595 327 164 327 165 328 596 328 164 328 597 329 596 329 165 329 166 330 597 330 165 330 598 331 597 331 166 331 167 332 598 332 166 332 599 333 598 333 167 333 168 334 599 334 167 334 600 335 599 335 168 335 169 336 600 336 168 336 601 337 600 337 169 337 170 338 601 338 169 338 602 339 601 339 170 339 171 340 602 340 170 340 603 341 602 341 171 341 172 342 603 342 171 342 604 343 603 343 172 343 173 344 604 344 172 344 605 345 604 345 173 345 174 346 605 346 173 346 606 347 605 347 174 347 175 348 606 348 174 348 607 349 606 349 175 349 176 350 607 350 175 350 608 351 607 351 176 351 177 352 608 352 176 352 609 353 608 353 177 353 178 354 609 354 177 354 610 355 609 355 178 355 179 356 610 356 178 356 611 357 610 357 179 357 180 358 611 358 179 358 612 359 611 359 180 359 181 360 612 360 180 360 613 361 612 361 181 361 182 362 613 362 181 362 614 363 613 363 182 363 183 364 614 364 182 364 615 365 614 365 183 365 184 366 615 366 183 366 616 367 615 367 184 367 185 368 616 368 184 368 617 369 616 369 185 369 186 370 617 370 185 370 618 371 617 371 186 371 187 372 618 372 186 372 619 373 618 373 187 373 188 374 619 374 187 374 620 375 619 375 188 375 189 376 620 376 188 376 621 377 620 377 189 377 190 378 621 378 189 378 622 379 621 379 190 379 191 380 622 380 190 380 623 381 622 381 191 381 192 382 623 382 191 382 624 383 623 383 192 383 193 384 624 384 192 384 625 385 624 385 193 385 194 386 625 386 193 386 626 387 625 387 194 387 195 388 626 388 194 388 627 389 626 389 195 389 196 390 627 390 195 390 628 391 627 391 196 391 197 392 628 392 196 392 629 393 628 393 197 393 198 394 629 394 197 394 630 395 629 395 198 395 199 396 630 396 198 396 631 397 630 397 199 397 200 398 631 398 199 398 632 399 631 399 200 399 201 400 632 400 200 400 633 401 632 401 201 401 202 402 633 402 201 402 634 403 633 403 202 403 203 404 634 404 202 404 635 405 634 405 203 405 204 406 635 406 203 406 636 407 635 407 204 407 205 408 636 408 204 408 637 409 636 409 205 409 206 410 637 410 205 410 638 411 637 411 206 411 207 412 638 412 206 412 639 413 638 413 207 413 208 414 639 414 207 414 640 415 639 415 208 415 209 416 640 416 208 416 641 417 640 417 209 417 210 418 641 418 209 418 642 419 641 419 210 419 211 420 642 420 210 420 643 421 642 421 211 421 212 422 643 422 211 422 644 423 643 423 212 423 213 424 644 424 212 424 645 425 644 425 213 425 214 426 645 426 213 426 646 427 645 427 214 427 215 428 646 428 214 428 647 429 646 429 215 429 216 430 647 430 215 430 648 431 647 431 216 431 217 432 648 432 216 432 649 433 648 433 217 433 218 434 649 434 217 434 650 435 649 435 218 435 219 436 650 436 218 436 651 437 650 437 219 437 220 438 651 438 219 438 652 439 651 439 220 439 221 440 652 440 220 440 653 441 652 441 221 441 222 442 653 442 221 442 654 443 653 443 222 443 223 444 654 444 222 444 655 445 654 445 223 445 224 446 655 446 223 446 656 447 655 447 224 447 225 448 656 448 224 448 657 449 656 449 225 449 226 450 657 450 225 450 658 451 657 451 226 451 227 452 658 452 226 452 659 453 658 453 227 453 228 454 659 454 227 454 660 455 659 455 228 455 229 456 660 456 228 456 661 457 660 457 229 457 230 458 661 458 229 458 662 459 661 459 230 459 231 460 662 460 230 460 663 461 662 461 231 461 232 462 663 462 231 462 664 463 663 463 232 463 233 464 664 464 232 464 665 465 664 465 233 465 234 466 665 466 233 466 666 467 665 467 234 467 235 468 666 468 234 468 667 469 666 469 235 469 236 470 667 470 235 470 668 471 667 471 236 471 237 472 668 472 236 472 669 473 668 473 237 473 238 474 669 474 237 474 670 475 669 475 238 475 239 476 670 476 238 476 671 477 670 477 239 477 240 478 671 478 239 478 672 479 671 479 240 479 241 480 672 480 240 480 673 481 672 481 241 481 242 482 673 482 241 482 674 483 673 483 242 483 243 484 674 484 242 484 675 485 674 485 243 485 244 486 675 486 243 486 676 487 675 487 244 487 245 488 676 488 244 488 677 489 676 489 245 489 246 490 677 490 245 490 678 491 677 491 246 491 247 492 678 492 246 492 679 493 678 493 247 493 248 494 679 494 247 494 680 495 679 495 248 495 249 496 680 496 248 496 681 497 680 497 249 497 250 498 681 498 249 498 682 499 681 499 250 499 251 500 682 500 250 500 683 501 682 501 251 501 252 502 683 502 251 502 684 503 683 503 252 503 253 504 684 504 252 504 685 505 684 505 253 505 254 506 685 506 253 506 686 507 685 507 254 507 255 508 686 508 254 508 687 509 686 509 255 509 256 510 687 510 255 510 688 511 687 511 256 511 257 512 688 512 256 512 689 513 688 513 257 513 258 514 689 514 257 514 690 515 689 515 258 515 259 516 690 516 258 516 691 517 690 517 259 517 260 518 691 518 259 518 692 519 691 519 260 519 261 520 692 520 260 520 693 521 692 521 261 521 262 522 693 522 261 522 694 523 693 523 262 523 263 524 694 524 262 524 695 525 694 525 263 525 264 526 695 526 263 526 696 527 695 527 264 527 265 528 696 528 264 528 697 529 696 529 265 529 266 530 697 530 265 530 698 531 697 531 266 531 267 532 698 532 266 532 699 533 698 533 267 533 268 534 699 534 267 534 700 535 699 535 268 535 269 536 700 536 268 536 701 537 700 537 269 537 270 538 701 538 269 538 702 539 701 539 270 539 271 540 702 540 270 540 703 541 702 541 271 541 272 542 703 542 271 542 704 543 703 543 272 543 273 544 704 544 272 544 705 545 704 545 273 545 274 546 705 546 273 546 706 547 705 547 274 547 275 548 706 548 274 548 707 549 706 549 275 549 276 550 707 550 275 550 708 551 707 551 276 551 277 552 708 552 276 552 709 553 708 553 277 553 278 554 709 554 277 554 710 555 709 555 278 555 279 556 710 556 278 556 711 557 710 557 279 557 280 558 711 558 279 558 712 559 711 559 280 559 281 560 712 560 280 560 713 561 712 561 281 561 282 562 713 562 281 562 714 563 713 563 282 563 283 564 714 564 282 564 715 565 714 565 283 565 284 566 715 566 283 566 716 567 715 567 284 567 285 568 716 568 284 568 717 569 716 569 285 569 286 570 717 570 285 570 718 571 717 571 286 571 287 572 718 572 286 572 719 573 718 573 287 573 288 574 719 574 287 574 720 575 719 575 288 575 289 576 720 576 288 576 721 577 720 577 289 577 290 578 721 578 289 578 722 579 721 579 290 579 291 580 722 580 290 580 723 581 722 581 291 581 292 582 723 582 291 582 724 583 723 583 292 583 293 584 724 584 292 584 725 585 724 585 293 585 294 586 725 586 293 586 726 587 725 587 294 587 295 588 726 588 294 588 727 589 726 589 295 589 296 590 727 590 295 590 728 591 727 591 296 591 297 592 728 592 296 592 729 593 728 593 297 593 298 594 729 594 297 594 730 595 729 595 298 595 299 596 730 596 298 596 731 597 730 597 299 597 300 598 731 598 299 598 732 599 731 599 300 599 301 600 732 600 300 600 733 601 732 601 301 601 302 602 733 602 301 602 734 603 733 603 302 603 303 604 734 604 302 604 735 605 734 605 303 605 304 606 735 606 303 606 736 607 735 607 304 607 305 608 736 608 304 608 737 609 736 609 305 609 306 610 737 610 305 610 738 611 737 611 306 611 307 612 738 612 306 612 739 613 738 613 307 613 308 614 739 614 307 614 740 615 739 615 308 615 309 616 740 616 308 616 741 617 740 617 309 617 310 618 741 618 309 618 742 619 741 619 310 619 311 620 742 620 310 620 743 621 742 621 311 621 312 622 743 622 311 622 744 623 743 623 312 623 313 624 744 624 312 624 745 625 744 625 313 625 314 626 745 626 313 626 746 627 745 627 314 627 315 628 746 628 314 628 747 629 746 629 315 629 316 630 747 630 315 630 748 631 747 631 316 631 317 632 748 632 316 632 749 633 748 633 317 633 318 634 749 634 317 634 750 635 749 635 318 635 319 636 750 636 318 636 751 637 750 637 319 637 320 638 751 638 319 638 752 639 751 639 320 639 321 640 752 640 320 640 753 641 752 641 321 641 322 642 753 642 321 642 754 643 753 643 322 643 323 644 754 644 322 644 755 645 754 645 323 645 324 646 755 646 323 646 756 647 755 647 324 647 325 648 756 648 324 648 757 649 756 649 325 649 326 650 757 650 325 650 758 651 757 651 326 651 327 652 758 652 326 652 759 653 758 653 327 653 328 654 759 654 327 654 760 655 759 655 328 655 329 656 760 656 328 656 761 657 760 657 329 657 330 658 761 658 329 658 762 659 761 659 330 659 331 660 762 660 330 660 763 661 762 661 331 661 332 662 763 662 331 662 764 663 763 663 332 663 333 664 764 664 332 664 765 665 764 665 333 665 334 666 765 666 333 666 766 667 765 667 334 667 335 668 766 668 334 668 767 669 766 669 335 669 336 670 767 670 335 670 768 671 767 671 336 671 337 672 768 672 336 672 769 673 768 673 337 673 338 674 769 674 337 674 770 675 769 675 338 675 339 676 770 676 338 676 771 677 770 677 339 677 340 678 771 678 339 678 772 679 771 679 340 679 341 680 772 680 340 680 773 681 772 681 341 681 342 682 773 682 341 682 774 683 773 683 342 683 343 684 774 684 342 684 775 685 774 685 343 685 344 686 775 686 343 686 776 687 775 687 344 687 345 688 776 688 344 688 777 689 776 689 345 689 346 690 777 690 345 690 778 691 777 691 346 691 347 692 778 692 346 692 779 693 778 693 347 693 348 694 779 694 347 694 780 695 779 695 348 695 349 696 780 696 348 696 781 697 780 697 349 697 350 698 781 698 349 698 782 699 781 699 350 699 351 700 782 700 350 700 783 701 782 701 351 701 352 702 783 702 351 702 784 703 783 703 352 703 353 704 784 704 352 704 785 705 784 705 353 705 354 706 785 706 353 706 786 707 785 707 354 707 355 708 786 708 354 708 787 709 786 709 355 709 356 710 787 710 355 710 788 711 787 711 356 711 357 712 788 712 356 712 789 713 788 713 357 713 358 714 789 714 357 714 790 715 789 715 358 715 359 716 790 716 358 716 791 717 790 717 359 717 360 718 791 718 359 718 792 719 791 719 360 719 361 720 792 720 360 720 793 721 792 721 361 721 362 722 793 722 361 722 794 723 793 723 362 723 363 724 794 724 362 724 795 725 794 725 363 725 364 726 795 726 363 726 796 727 795 727 364 727 365 728 796 728 364 728 797 729 796 729 365 729 366 730 797 730 365 730 798 731 797 731 366 731 367 732 798 732 366 732 799 733 798 733 367 733 368 734 799 734 367 734 800 735 799 735 368 735 369 736 800 736 368 736 801 737 800 737 369 737 370 738 801 738 369 738 802 739 801 739 370 739 371 740 802 740 370 740 803 741 802 741 371 741 372 742 803 742 371 742 804 743 803 743 372 743 373 744 804 744 372 744 805 745 804 745 373 745 374 746 805 746 373 746 806 747 805 747 374 747 375 748 806 748 374 748 807 749 806 749 375 749 376 750 807 750 375 750 808 751 807 751 376 751 377 752 808 752 376 752 809 753 808 753 377 753 378 754 809 754 377 754 810 755 809 755 378 755 379 756 810 756 378 756 811 757 810 757 379 757 380 758 811 758 379 758 812 759 811 759 380 759 381 760 812 760 380 760 813 761 812 761 381 761 382 762 813 762 381 762 814 763 813 763 382 763 383 764 814 764 382 764 815 765 814 765 383 765 384 766 815 766 383 766 816 767 815 767 384 767 385 768 816 768 384 768 817 769 816 769 385 769 386 770 817 770 385 770 818 771 817 771 386 771 387 772 818 772 386 772 819 773 818 773 387 773 388 774 819 774 387 774 820 775 819 775 388 775 389 776 820 776 388 776 821 777 820 777 389 777 390 778 821 778 389 778 822 779 821 779 390 779 391 780 822 780 390 780 823 781 822 781 391 781 392 782 823 782 391 782 824 783 823 783 392 783 393 784 824 784 392 784 825 785 824 785 393 785 394 786 825 786 393 786 826 787 825 787 394 787 395 788 826 788 394 788 827 789 826 789 395 789 396 790 827 790 395 790 828 791 827 791 396 791 397 792 828 792 396 792 829 793 828 793 397 793 398 794 829 794 397 794 830 795 829 795 398 795 399 796 830 796 398 796 831 797 830 797 399 797 400 798 831 798 399 798 832 799 831 799 400 799 401 800 832 800 400 800 833 801 832 801 401 801 402 802 833 802 401 802 834 803 833 803 402 803 403 804 834 804 402 804 835 805 834 805 403 805 404 806 835 806 403 806 836 807 835 807 404 807 405 808 836 808 404 808 837 809 836 809 405 809 406 810 837 810 405 810 838 811 837 811 406 811 407 812 838 812 406 812 839 813 838 813 407 813 408 814 839 814 407 814 840 815 839 815 408 815 409 816 840 816 408 816 841 817 840 817 409 817 410 818 841 818 409 818 842 819 841 819 410 819 411 820 842 820 410 820 843 821 842 821 411 821 412 822 843 822 411 822 844 823 843 823 412 823 413 824 844 824 412 824 845 825 844 825 413 825 414 826 845 826 413 826 846 827 845 827 414 827 415 828 846 828 414 828 847 829 846 829 415 829 416 830 847 830 415 830 848 831 847 831 416 831 417 832 848 832 416 832 849 833 848 833 417 833 418 834 849 834 417 834 850 835 849 835 418 835 419 836 850 836 418 836 851 837 850 837 419 837 420 838 851 838 419 838 852 839 851 839 420 839 421 840 852 840 420 840 853 841 852 841 421 841 422 842 853 842 421 842 854 843 853 843 422 843 423 844 854 844 422 844 855 845 854 845 423 845 424 846 855 846 423 846 856 847 855 847 424 847 425 848 856 848 424 848 857 849 856 849 425 849 426 850 857 850 425 850 858 851 857 851 426 851 427 852 858 852 426 852 859 853 858 853 427 853 428 854 859 854 427 854 860 855 859 855 428 855 429 856 860 856 428 856 861 857 860 857 429 857 430 858 861 858 429 858 862 859 861 859 430 859 431 860 862 860 430 860 863 861 862 861 431 861</p></triangles>
</mesh></geometry></library_geometries><library_visual_scenes><visual_scene id="Scene"><node id="mesh"><instance_geometry url="#geometry"/></node></visual_scene></library_visual_scenes><scene><instance_visual_scene url="#Scene"/></scene></COLLADA>