<?xml version="1.0" encoding="UTF-8"?>
<COLLADA xmlns="http://www.collada.org/2005/11/COLLADASchema" version="1.4.1">
<asset><contributor><authoring_tool>Summit Estate procedural mesh exporter</authoring_tool></contributor><created>2026-09-11T00:00:00Z</created><modified>2026-09-11T00:00:00Z</modified><unit name="meter" meter="1"/><up_axis>Z_UP</up_axis></asset>
<library_geometries><geometry id="geometry" name="geometry"><mesh>
<source id="positions"><float_array id="positions-array" count="2592">-180.50013 -455.03387 22.12000 -180.48913 -453.55724 22.22233 -180.45750 -452.11585 22.32465 -180.40653 -450.67454 22.42698 -180.33767 -449.23282 22.52930 -180.25237 -447.79024 22.63163 -180.15210 -446.34637 22.73395 -180.03832 -444.90078 22.83628 -179.91255 -443.45305 22.93860 -179.77627 -442.00278 23.04093 -179.63103 -440.54957 23.14326 -179.47835 -439.09302 23.24558 -179.31979 -437.63276 23.34791 -179.15693 -436.16839 23.45023 -178.99136 -434.69953 23.55256 -178.82469 -433.22581 23.65488 -178.65855 -431.74685 23.75721 -178.49456 -430.26227 23.85953 -178.33441 -428.77170 23.96186 -178.17975 -427.27477 24.06419 -178.03229 -425.77112 24.16651 -177.89374 -424.26038 24.26884 -177.76582 -422.74220 24.37116 -177.65027 -421.21624 24.47349 -177.54885 -419.68216 24.57581 -177.46334 -418.13963 24.67814 -177.39551 -416.58835 24.78047 -177.34717 -415.02801 24.88279 -177.32012 -413.45835 24.98512 -177.31618 -411.87911 25.08744 -177.33717 -410.29005 25.18977 -177.38491 -408.69097 25.29209 -177.46124 -407.08168 25.39442 -177.56796 -405.46202 25.49674 -177.70690 -403.83187 25.59907 -177.87986 -402.19111 25.70140 -178.08862 -400.53967 25.80372 -178.33498 -398.87750 25.90605 -178.62066 -397.20456 26.00837 -178.94741 -395.52083 26.11070 -179.31691 -393.82631 26.21302 -179.73084 -392.12102 26.31535 -180.19084 -390.40497 26.41767 -180.69998 -388.67341 26.52000 -181.15321 -387.29006 26.63579 -181.66170 -385.90404 26.75158 -182.22032 -384.52119 26.86737 -182.82611 -383.14085 26.98316 -183.47634 -381.76242 27.09895 -184.16838 -380.38536 27.21474 -184.89975 -379.00917 27.33053 -185.66805 -377.63347 27.44632 -186.47097 -376.25791 27.56211 -187.30622 -374.88223 27.67789 -188.17159 -373.50626 27.79368 -189.06489 -372.12987 27.90947 -189.98394 -370.75299 28.02526 -190.92660 -369.37562 28.14105 -191.89071 -367.99781 28.25684 -192.87414 -366.61963 28.37263 -193.87477 -365.24123 28.48842 -194.89045 -363.86278 28.60421 -195.91905 -362.48447 28.72000 -196.95844 -361.10655 28.83579 -198.00648 -359.72928 28.95158 -199.06102 -358.35296 29.06737 -200.11992 -356.97790 29.18316 -201.18102 -355.60444 29.29895 -202.24216 -354.23297 29.41474 -203.30117 -352.86387 29.53053 -204.35589 -351.49756 29.64632 -205.40414 -350.13446 29.76211 -206.44374 -348.77506 29.87789 -207.47250 -347.41983 29.99368 -208.48823 -346.06929 30.10947 -209.48873 -344.72398 30.22526 -210.47182 -343.38446 30.34105 -211.43527 -342.05133 30.45684 -212.37691 -340.72522 30.57263 -213.29452 -339.40681 30.68842 -214.18592 -338.09680 30.80421 -215.04891 -336.79594 30.92000 -215.88132 -335.50502 31.03579 -216.68100 -334.22490 31.15158 -217.44579 -332.95647 31.26737 -218.17361 -331.70070 31.38316 -218.86238 -330.45861 31.49895 -219.51009 -329.23128 31.61474 -220.11481 -328.01988 31.73053 -220.67468 -326.82562 31.84632 -221.18796 -325.64977 31.96211 -221.65304 -324.49366 32.07789 -222.06847 -323.35862 32.19368 -222.43299 -322.24599 32.30947 -222.74558 -321.15705 32.42526 -223.00544 -320.09300 32.54105 -223.21203 -319.05480 32.65684 -223.36508 -318.04315 32.77263 -223.46453 -317.05837 32.88842 -223.51050 -316.10024 33.00421 -223.50240 -315.14707 33.12000 -223.43927 -314.00433 33.25725 -223.33434 -312.84379 33.39451 -223.18870 -311.68414 33.53176 -223.00272 -310.52507 33.66902 -222.77676 -309.36632 33.80627 -222.51116 -308.20769 33.94353 -222.20624 -307.04905 34.08078 -221.86232 -305.89033 34.21804 -221.47973 -304.73151 34.35529 -221.05880 -303.57264 34.49255 -220.59990 -302.41379 34.62980 -220.10339 -301.25509 34.76706 -219.56968 -300.09672 34.90431 -218.99917 -298.93885 35.04157 -218.39233 -297.78171 35.17882 -217.74962 -296.62553 35.31608 -217.07154 -295.47058 35.45333 -216.35861 -294.31713 35.59059 -215.61138 -293.16543 35.72784 -214.83041 -292.01579 35.86510 -214.01629 -290.86848 36.00235 -213.16963 -289.72379 36.13961 -212.29105 -288.58200 36.27686 -211.38119 -287.44339 36.41412 -210.44071 -286.30824 36.55137 -209.47027 -285.17682 36.68863 -208.47055 -284.04940 36.82588 -207.44224 -282.92624 36.96314 -206.38603 -281.80760 37.10039 -205.30262 -280.69372 37.23765 -204.19274 -279.58484 37.37490 -203.05709 -278.48121 37.51216 -201.89640 -277.38305 37.64941 -200.71140 -276.29058 37.78667 -199.50280 -275.20403 37.92392 -198.27135 -274.12360 38.06118 -197.01778 -273.04951 38.19843 -195.74283 -271.98194 38.33569 -194.44723 -270.92110 38.47294 -193.13174 -269.86719 38.61020 -191.79708 -268.82037 38.74745 -190.44400 -267.78085 38.88471 -189.07325 -266.74878 39.02196 -187.68558 -265.72436 39.15922 -186.28171 -264.70775 39.29647 -184.86240 -263.69912 39.43373 -183.42840 -262.69863 39.57098 -181.98045 -261.70644 39.70824 -180.51929 -260.72272 39.84549 -179.04567 -259.74761 39.98275 -177.57175 -258.78862 40.12000 -176.61726 -258.19012 40.21211 -175.62850 -257.60377 40.30421 -174.59512 -257.02245 40.39632 -173.51859 -256.44654 40.48842 -172.40041 -255.87634 40.58053 -171.24209 -255.31207 40.67263 -170.04512 -254.75388 40.76474 -168.81098 -254.20186 40.85684 -167.54117 -253.65605 40.94895 -166.23714 -253.11645 41.04105 -164.90036 -252.58299 41.13316 -163.53226 -252.05561 41.22526 -162.13426 -251.53419 41.31737 -160.70779 -251.01859 41.40947 -159.25425 -250.50866 41.50158 -157.77501 -250.00421 41.59368 -156.27146 -249.50505 41.68579 -154.74495 -249.01097 41.77789 -153.19685 -248.52173 41.87000 -151.62849 -248.03711 41.96211 -150.04121 -247.55685 42.05421 -148.43632 -247.08071 42.14632 -146.81515 -246.60841 42.23842 -145.17901 -246.13968 42.33053 -143.52918 -245.67426 42.42263 -141.86697 -245.21185 42.51474 -140.19367 -244.75217 42.60684 -138.51054 -244.29492 42.69895 -136.81887 -243.83981 42.79105 -135.11992 -243.38654 42.88316 -133.41496 -242.93479 42.97526 -131.70524 -242.48427 43.06737 -129.99200 -242.03466 43.15947 -128.27651 -241.58565 43.25158 -126.55999 -241.13692 43.34368 -124.84368 -240.68814 43.43579 -123.12881 -240.23900 43.52789 -121.41661 -239.78916 43.62000 -119.70829 -239.33829 43.71211 -118.00506 -238.88607 43.80421 -116.30814 -238.43215 43.89632 -114.61872 -237.97619 43.98842 -112.93799 -237.51784 44.08053 -111.26715 -237.05675 44.17263 -109.60737 -236.59258 44.26474 -107.95983 -236.12495 44.35684 -106.32568 -235.65350 44.44895 -104.70610 -235.17785 44.54105 -103.10221 -234.69763 44.63316 -101.51517 -234.21244 44.72526 -99.94608 -233.72188 44.81737 -98.39608 -233.22553 44.90947 -96.86626 -232.72298 45.00158 -95.35770 -232.21377 45.09368 -93.87148 -231.69745 45.18579 -92.40867 -231.17354 45.27789 -90.97029 -230.64154 45.37000 -89.55738 -230.10091 45.46211 -88.17094 -229.55109 45.55421 -86.81195 -228.99148 45.64632 -85.48139 -228.42144 45.73842 -84.18021 -227.84027 45.83053 -82.90933 -227.24722 45.92263 -81.66966 -226.64146 46.01474 -80.46212 -226.02209 46.10684 -79.28759 -225.38812 46.19895 -78.14697 -224.73845 46.29105 -77.04119 -224.07184 46.38316 -75.97120 -223.38694 46.47526 -74.93799 -222.68224 46.56737 -73.94270 -221.95606 46.65947 -72.98656 -221.20655 46.75158 -72.07102 -220.43170 46.84368 -71.19783 -219.62936 46.93579 -70.36906 -218.79725 47.02789 -69.53977 -217.87695 47.12000 -68.40106 -216.42909 47.27556 -67.37354 -214.86149 47.43111 -66.50918 -213.24063 47.58667 -65.80847 -211.57692 47.74222 -65.26913 -209.88227 47.89778 -64.88567 -208.16871 48.05333 -64.64973 -206.44692 48.20889 -64.55085 -204.72540 48.36444 -64.57748 -203.01005 48.52000 -64.71787 -201.30441 48.67556 -64.96072 -199.61007 48.83111 -65.29549 -197.92724 48.98667 -65.71254 -196.25531 49.14222 -66.20306 -194.59322 49.29778 -66.75901 -192.93978 49.45333 -67.37295 -191.29383 49.60889 -68.03791 -189.65440 49.76444 -68.74726 -188.02071 49.92000 -69.49467 -186.39226 50.07556 -70.27397 -184.76876 50.23111 -71.07912 -183.15018 50.38667 -71.90418 -181.53669 50.54222 -72.74326 -179.92869 50.69778 -73.59052 -178.32675 50.85333 -74.44011 -176.73163 51.00889 -75.28624 -175.14427 51.16444 -76.12311 -173.56578 51.32000 -76.94493 -171.99742 51.47556 -77.74593 -170.44064 51.63111 -78.52038 -168.89706 51.78667 -79.26260 -167.36846 51.94222 -79.96697 -165.85684 52.09778 -80.62798 -164.36439 52.25333 -81.24026 -162.89349 52.40889 -81.79866 -161.44673 52.56444 -82.29830 -160.02686 52.72000 -82.73463 -158.63681 52.87556 -83.10360 -157.27953 53.03111 -83.40170 -155.95792 53.18667 -83.62606 -154.67460 53.34222 -83.77451 -153.43167 53.49778 -83.84555 -152.23031 53.65333 -83.83816 -151.07039 53.80889 -83.75143 -149.95009 53.96444 -83.57304 -148.80750 54.12000 -83.32995 -147.66772 54.28667 -83.03473 -146.46282 54.45333 -82.69844 -145.24778 54.62000 -82.32194 -144.02318 54.78667 -81.90613 -142.78967 54.95333 -81.45199 -141.54792 55.12000 -80.96055 -140.29861 55.28667 -80.43289 -139.04244 55.45333 -79.87011 -137.78012 55.62000 -79.27339 -136.51233 55.78667 -78.64393 -135.23976 55.95333 -77.98295 -133.96309 56.12000 -77.29171 -132.68298 56.28667 -76.57150 -131.40008 56.45333 -75.82361 -130.11501 56.62000 -75.04937 -128.82841 56.78667 -74.25009 -127.54087 56.95333 -73.42714 -126.25298 57.12000 -72.58185 -124.96530 57.28667 -71.71560 -123.67840 57.45333 -70.82974 -122.39282 57.62000 -69.92566 -121.10909 57.78667 -69.00472 -119.82772 57.95333 -68.06831 -118.54923 58.12000 -67.11781 -117.27409 58.28667 -66.15460 -116.00281 58.45333 -65.18006 -114.73583 58.62000 -64.19557 -113.47364 58.78667 -63.20252 -112.21668 58.95333 -62.20228 -110.96538 59.12000 -61.19624 -109.72019 59.28667 -60.18577 -108.48153 59.45333 -59.17225 -107.24982 59.62000 -58.15704 -106.02545 59.78667 -57.14152 -104.80884 59.95333 -56.12705 -103.60036 60.12000 -55.11500 -102.40040 60.28667 -54.10672 -101.20932 60.45333 -53.10356 -100.02749 60.62000 -52.10687 -98.85526 60.78667 -51.11800 -97.69296 60.95333 -50.13827 -96.54092 61.12000 -49.16903 -95.39945 61.28667 -48.21159 -94.26884 61.45333 -47.26727 -93.14938 61.62000 -46.33737 -92.04132 61.78667 -45.42319 -90.94490 61.95333 -44.54853 -89.88745 62.12000 -43.53459 -88.68646 62.29500 -42.51814 -87.54007 62.47000 -41.47754 -86.41910 62.64500 -40.41411 -85.32197 62.82000 -39.32916 -84.24717 62.99500 -38.22408 -83.19320 63.17000 -37.10028 -82.15855 63.34500 -35.95920 -81.14175 63.52000 -34.80232 -80.14132 63.69500 -33.63114 -79.15577 63.87000 -32.44720 -78.18361 64.04500 -31.25204 -77.22333 64.22000 -30.04725 -76.27340 64.39500 -28.83441 -75.33230 64.57000 -27.61514 -74.39844 64.74500 -26.39104 -73.47024 64.92000 -25.16375 -72.54609 65.09500 -23.93492 -71.62433 65.27000 -22.70618 -70.70329 65.44500 -21.47919 -69.78125 65.62000 -20.25562 -68.85648 65.79500 -19.03714 -67.92718 65.97000 -17.82545 -66.99156 66.14500 -16.62225 -66.04774 66.32000 -15.42927 -65.09384 66.49500 -14.24826 -64.12794 66.67000 -13.08102 -63.14805 66.84500 -11.92935 -62.15219 67.02000 -10.79515 -61.13832 67.19500 -9.68034 -60.10438 67.37000 -8.58693 -59.04832 67.54500 -7.51700 -57.96806 67.72000 -6.47272 -56.86153 67.89500 -5.45636 -55.72669 68.07000 -4.47030 -54.56157 68.24500 -3.51703 -53.36423 68.42000 -2.59912 -52.13287 68.59500 -1.71927 -50.86579 68.77000 -0.88024 -49.56145 68.94500 -0.07791 -48.20618 69.12000 0.70953 -46.73357 69.27789 1.43029 -45.21804 69.43579 2.08024 -43.67840 69.59368 2.66396 -42.11797 69.75158 3.18608 -40.53971 69.90947 3.65122 -38.94624 70.06737 4.06393 -37.33993 70.22526 4.42865 -35.72295 70.38316 4.74974 -34.09729 70.54105 5.03138 -32.46486 70.69895 5.27767 -30.82751 70.85684 5.49257 -29.18703 71.01474 5.67992 -27.54521 71.17263 5.84347 -25.90386 71.33053 5.98688 -24.26481 71.48842 6.11372 -22.62992 71.64632 6.22749 -21.00110 71.80421 6.33160 -19.38033 71.96211 6.42942 -17.76961 72.12000 6.52423 -16.17102 72.27789 6.61929 -14.58670 72.43579 6.71774 -13.01887 72.59368 6.82269 -11.46978 72.75158 6.93717 -9.94178 72.90947 7.06413 -8.43725 73.06737 7.20642 -6.95866 73.22526 7.36679 -5.50852 73.38316 7.54787 -4.08939 73.54105 7.75216 -2.70385 73.69895 7.98198 -1.35449 73.85684 8.23951 -0.04388 74.01474 8.52670 1.22549 74.17263 8.84533 2.45124 74.33053 9.19696 3.63120 74.48842 9.58297 4.76349 74.64632 10.00462 5.84662 74.80421 10.46309 6.87959 74.96211 10.96421 7.87044 75.12000 11.62373 9.03632 75.27152 12.32862 10.17569 75.42303 13.07504 11.28567 75.57455 13.86195 12.36852 75.72606 14.68830 13.42633 75.87758 15.55294 14.46100 76.02909 16.45465 15.47431 76.18061 17.39208 16.46794 76.33212 18.36380 17.44347 76.48364 19.36824 18.40243 76.63515 20.40375 19.34633 76.78667 21.46858 20.27666 76.93818 22.56090 21.19490 77.08970 23.67881 22.10257 77.24121 24.82035 23.00120 77.39273 25.98350 23.89237 77.54424 27.16620 24.77768 77.69576 28.36638 25.65878 77.84727 29.58192 26.53738 77.99879 30.81069 27.41523 78.15030 32.05054 28.29411 78.30182 33.29932 29.17588 78.45333 34.55487 30.06243 78.60485 35.81500 30.95570 78.75636 37.07754 31.85770 78.90788 38.34028 32.77045 79.05939 39.60102 33.69606 79.21091 40.85753 34.63667 79.36242 42.10755 35.59446 79.51394 43.34879 36.57167 79.66545 44.57893 37.57056 79.81697 45.79560 38.59343 79.96848 46.96085 39.61129 80.12000 -189.49987 -454.96613 22.12000 -189.48816 -453.42478 22.22233 -189.45381 -451.85826 22.32465 -189.39877 -450.30098 22.42698 -189.32485 -448.75264 22.52930 -189.23384 -447.21297 22.63163 -189.12751 -445.68163 22.73395 -189.00765 -444.15830 22.83628 -188.87599 -442.64264 22.93860 -188.73427 -441.13430 23.04093 -188.58423 -439.63293 23.14326 -188.42755 -438.13816 23.24558 -188.26593 -436.64963 23.34791 -188.10104 -435.16696 23.45023 -187.93454 -433.68979 23.55256 -187.76806 -432.21773 23.65488 -187.60322 -430.75041 23.75721 -187.44162 -429.28746 23.85953 -187.28485 -427.82847 23.96186 -187.13447 -426.37308 24.06419 -186.99204 -424.92090 24.16651 -186.85910 -423.47152 24.26884 -186.73716 -422.02455 24.37116 -186.62772 -420.57958 24.47349 -186.53227 -419.13619 24.57581 -186.45229 -417.69395 24.67814 -186.38924 -416.25241 24.78047 -186.34456 -414.81112 24.88279 -186.31968 -413.36960 24.98512 -186.31605 -411.92735 25.08744 -186.33508 -410.48384 25.18977 -186.37820 -409.03854 25.29209 -186.44682 -407.59087 25.39442 -186.54237 -406.14023 25.49674 -186.66628 -404.68600 25.59907 -186.81998 -403.22753 25.70140 -187.00494 -401.76415 25.80372 -187.22262 -400.29515 25.90605 -187.47453 -398.81982 26.00837 -187.76217 -397.33741 26.11070 -188.08709 -395.84717 26.21302 -188.45088 -394.34834 26.31535 -188.85513 -392.84015 26.41767 -189.30002 -391.32659 26.52000 -189.65493 -390.24317 26.63579 -190.05919 -389.14167 26.75158 -190.51361 -388.01708 26.86737 -191.01678 -386.87087 26.98316 -191.56710 -385.70444 27.09895 -192.16286 -384.51915 27.21474 -192.80220 -383.31629 27.33053 -193.48318 -382.09708 27.44632 -194.20377 -380.86266 27.56211 -194.96190 -379.61410 27.67789 -195.75546 -378.35239 27.79368 -196.58229 -377.07847 27.90947 -197.44023 -375.79321 28.02526 -198.32708 -374.49742 28.14105 -199.24065 -373.19187 28.25684 -200.17874 -371.87729 28.37263 -201.13913 -370.55434 28.48842 -202.11961 -369.22368 28.60421 -203.11798 -367.88590 28.72000 -204.13204 -366.54158 28.83579 -205.15958 -365.19126 28.95158 -206.19840 -363.83546 29.06737 -207.24631 -362.47468 29.18316 -208.30112 -361.10936 29.29895 -209.36066 -359.73996 29.41474 -210.42274 -358.36690 29.53053 -211.48519 -356.99056 29.64632 -212.54585 -355.61132 29.76211 -213.60257 -354.22953 29.87789 -214.65317 -352.84551 29.99368 -215.69552 -351.45956 30.10947 -216.72747 -350.07194 30.22526 -217.74687 -348.68290 30.34105 -218.75159 -347.29265 30.45684 -219.73948 -345.90138 30.57263 -220.70839 -344.50921 30.68842 -221.65619 -343.11626 30.80421 -222.58072 -341.72258 30.92000 -223.47981 -340.32819 31.03579 -224.35128 -338.93305 31.15158 -225.19293 -337.53707 31.26737 -226.00251 -336.14010 31.38316 -226.77776 -334.74192 31.49895 -227.51634 -333.34225 31.61474 -228.21585 -331.94075 31.73053 -228.87380 -330.53702 31.84632 -229.48759 -329.13059 31.96211 -230.05450 -327.72095 32.07789 -230.57162 -326.30757 32.19368 -231.03588 -324.88992 32.30947 -231.44395 -323.46753 32.42526 -231.79231 -322.04002 32.54105 -232.07712 -320.60723 32.65684 -232.29435 -319.16927 32.77263 -232.43969 -317.72664 32.88842 -232.50869 -316.28036 33.00421 -232.49760 -314.85293 33.12000 -232.41564 -313.35249 33.25725 -232.28235 -311.87777 33.39451 -232.09809 -310.41030 33.53176 -231.86393 -308.95062 33.66902 -231.58096 -307.49921 33.80627 -231.25029 -306.05651 33.94353 -230.87305 -304.62286 34.08078 -230.45035 -303.19856 34.21804 -229.98333 -301.78386 34.35529 -229.47309 -300.37894 34.49255 -228.92072 -298.98394 34.62980 -228.32730 -297.59897 34.76706 -227.69388 -296.22408 34.90431 -227.02148 -294.85932 35.04157 -226.31111 -293.50468 35.17882 -225.56374 -292.16015 35.31608 -224.78031 -290.82571 35.45333 -223.96176 -289.50132 35.59059 -223.10900 -288.18691 35.72784 -222.22288 -286.88244 35.86510 -221.30429 -285.58786 36.00235 -220.35406 -284.30309 36.13961 -219.37300 -283.02809 36.27686 -218.36194 -281.76280 36.41412 -217.32166 -280.50716 36.55137 -216.25294 -279.26114 36.68863 -215.15656 -278.02469 36.82588 -214.03328 -276.79777 36.96314 -212.88383 -275.58036 37.10039 -211.70898 -274.37243 37.23765 -210.50945 -273.17398 37.37490 -209.28597 -271.98498 37.51216 -208.03928 -270.80543 37.64941 -206.77009 -269.63534 37.78667 -205.47912 -268.47472 37.92392 -204.16708 -267.32358 38.06118 -202.83469 -266.18193 38.19843 -201.48266 -265.04982 38.33569 -200.11169 -263.92726 38.47294 -198.72250 -262.81429 38.61020 -197.31578 -261.71095 38.74745 -195.89225 -260.61728 38.88471 -194.45260 -259.53334 39.02196 -192.99754 -258.45917 39.15922 -191.52777 -257.39483 39.29647 -190.04400 -256.34038 39.43373 -188.54693 -255.29588 39.57098 -187.03726 -254.26140 39.70824 -185.51569 -253.23700 39.84549 -183.98293 -252.22275 39.98275 -182.42825 -251.21138 40.12000 -181.30212 -250.50558 40.21211 -180.12964 -249.81020 40.30421 -178.92363 -249.13169 40.39632 -177.68508 -248.46905 40.48842 -176.41498 -247.82132 40.58053 -175.11428 -247.18766 40.67263 -173.78398 -246.56725 40.76474 -172.42506 -245.95938 40.85684 -171.03850 -245.36337 40.94895 -169.62532 -244.77857 41.04105 -168.18653 -244.20438 41.13316 -166.72318 -243.64026 41.22526 -165.23629 -243.08567 41.31737 -163.72694 -242.54011 41.40947 -162.19621 -242.00308 41.50158 -160.64517 -241.47414 41.59368 -159.07492 -240.95282 41.68579 -157.48658 -240.43872 41.77789 -155.88127 -239.93139 41.87000 -154.26012 -239.43045 41.96211 -152.62427 -238.93550 42.05421 -150.97487 -238.44614 42.14632 -149.31308 -237.96200 42.23842 -147.64006 -237.48271 42.33053 -145.95700 -237.00790 42.42263 -144.26506 -236.53722 42.51474 -142.56544 -236.07031 42.60684 -140.85934 -235.60681 42.69895 -139.14794 -235.14640 42.79105 -137.43247 -234.68871 42.88316 -135.71413 -234.23342 42.97526 -133.99414 -233.78020 43.06737 -132.27372 -233.32870 43.15947 -130.55410 -232.87861 43.25158 -128.83651 -232.42960 43.34368 -127.12220 -231.98134 43.43579 -125.41241 -231.53353 43.52789 -123.70839 -231.08584 43.62000 -122.01139 -230.63797 43.71211 -120.32268 -230.18960 43.80421 -118.64352 -229.74043 43.89632 -116.97519 -229.29016 43.98842 -115.31897 -228.83850 44.08053 -113.67614 -228.38515 44.17263 -112.04799 -227.92982 44.26474 -110.43584 -227.47224 44.35684 -108.84098 -227.01213 44.44895 -107.26474 -226.54922 44.54105 -105.70845 -226.08325 44.63316 -104.17344 -225.61397 44.72526 -102.66105 -225.14115 44.81737 -101.17266 -224.66454 44.90947 -99.70963 -224.18394 45.00158 -98.27335 -223.69914 45.09368 -96.86522 -223.20996 45.18579 -95.48665 -222.71624 45.27789 -94.13909 -222.21784 45.37000 -92.82396 -221.71464 45.46211 -91.54276 -221.20658 45.55421 -90.29695 -220.69360 45.64632 -89.08806 -220.17572 45.73842 -87.91760 -219.65297 45.83053 -86.78712 -219.12547 45.92263 -85.69818 -218.59341 46.01474 -84.65234 -218.05705 46.10684 -83.65120 -217.51673 46.19895 -82.69631 -216.97291 46.29105 -81.78925 -216.42619 46.38316 -80.93153 -215.87727 46.47526 -80.12461 -215.32704 46.56737 -79.36986 -214.77651 46.65947 -78.66850 -214.22690 46.75158 -78.02155 -213.67957 46.84368 -77.42976 -213.13604 46.93579 -76.89351 -212.59794 47.02789 -76.46023 -212.12305 47.12000 -75.70021 -211.16387 47.27556 -75.11265 -210.26733 47.43111 -74.63393 -209.36914 47.58667 -74.25190 -208.46107 47.74222 -73.95721 -207.53336 47.89778 -73.74366 -206.57618 48.05333 -73.60798 -205.58100 48.20889 -73.54897 -204.54150 48.36444 -73.56652 -203.45395 48.52000 -73.66073 -202.31699 48.67556 -73.83124 -201.13120 48.83111 -74.07695 -199.89854 48.98667 -74.39584 -198.62179 49.14222 -74.78505 -197.30419 49.29778 -75.24099 -195.94911 49.45333 -75.75943 -194.55987 49.60889 -76.33569 -193.13961 49.76444 -76.96474 -191.69129 49.92000 -77.64126 -190.21758 50.07556 -78.35977 -188.72095 50.23111 -79.11466 -187.20360 50.38667 -79.90020 -185.66752 50.54222 -80.71063 -184.11450 50.69778 -81.54015 -182.54614 50.85333 -82.38293 -180.96384 51.00889 -83.23313 -179.36885 51.16444 -84.08489 -177.76222 51.32000 -84.93234 -176.14486 51.47556 -85.76959 -174.51751 51.63111 -86.59073 -172.88072 51.78667 -87.38978 -171.23486 51.94222 -88.16070 -169.58013 52.09778 -88.89735 -167.91650 52.25333 -89.59345 -166.24376 52.40889 -90.24249 -164.56150 52.56444 -90.83770 -162.86914 52.72000 -91.37197 -161.16592 52.87556 -91.83770 -159.45107 53.03111 -92.22675 -157.72386 53.18667 -92.53032 -155.98383 53.34222 -92.73894 -154.23108 53.49778 -92.84245 -152.46658 53.65333 -92.83022 -150.69263 53.80889 -92.69150 -148.91325 53.96444 -92.42696 -147.19250 54.12000 -92.10367 -145.66227 54.28667 -91.74327 -144.19097 54.45333 -91.33745 -142.72439 54.62000 -90.88813 -141.26270 54.78667 -90.39717 -139.80602 54.95333 -89.86637 -138.35443 55.12000 -89.29745 -136.90801 55.28667 -88.69211 -135.46681 55.45333 -88.05201 -134.03092 55.62000 -87.37873 -132.60037 55.78667 -86.67386 -131.17526 55.95333 -85.93892 -129.75566 56.12000 -85.17543 -128.34167 56.28667 -84.38488 -126.93340 56.45333 -83.56872 -125.53098 56.62000 -82.72841 -124.13455 56.78667 -81.86538 -122.74427 56.95333 -80.98106 -121.36031 57.12000 -80.07687 -119.98285 57.28667 -79.15419 -118.61211 57.45333 -78.21445 -117.24829 57.62000 -77.25902 -115.89163 57.78667 -76.28930 -114.54238 57.95333 -75.30669 -113.20077 58.12000 -74.31255 -111.86709 58.28667 -73.30829 -110.54161 58.45333 -72.29528 -109.22461 58.62000 -71.27492 -107.91641 58.78667 -70.24857 -106.61729 58.95333 -69.21764 -105.32759 59.12000 -68.18351 -104.04762 59.28667 -67.14756 -102.77773 59.45333 -66.11120 -101.51825 59.62000 -65.07582 -100.26954 59.78667 -64.04281 -99.03196 59.95333 -63.01357 -97.80589 60.12000 -61.98952 -96.59170 60.28667 -60.97206 -95.38978 60.45333 -59.96260 -94.20053 60.62000 -58.96257 -93.02437 60.78667 -57.97339 -91.86171 60.95333 -56.99649 -90.71298 61.12000 -56.03331 -89.57865 61.28667 -55.08528 -88.45917 61.45333 -54.15387 -87.35501 61.62000 -53.24054 -86.26670 61.78667 -52.34674 -85.19473 61.95333 -51.45147 -84.11255 62.12000 -50.34037 -82.79737 62.29500 -49.18399 -81.49305 62.47000 -48.00744 -80.22551 62.64500 -46.81289 -78.99303 62.82000 -45.60248 -77.79384 62.99500 -44.37829 -76.62618 63.17000 -43.14239 -75.48825 63.34500 -41.89680 -74.37825 63.52000 -40.64351 -73.29439 63.69500 -39.38449 -72.23486 63.87000 -38.12166 -71.19788 64.04500 -36.85696 -70.18167 64.22000 -35.59227 -69.18449 64.39500 -34.32946 -68.20458 64.57000 -33.07041 -67.24023 64.74500 -31.81696 -66.28976 64.92000 -30.57095 -65.35149 65.09500 -29.33421 -64.42380 65.27000 -28.10856 -63.50507 65.44500 -26.89581 -62.59375 65.62000 -25.69777 -61.68829 65.79500 -24.51623 -60.78719 65.97000 -23.35297 -59.88899 66.14500 -22.20975 -58.99226 66.32000 -21.08831 -58.09561 66.49500 -19.99036 -57.19769 66.67000 -18.91759 -56.29718 66.84500 -17.87165 -55.39281 67.02000 -16.85412 -54.48333 67.19500 -15.86654 -53.56749 67.37000 -14.91037 -52.64410 67.54500 -13.98700 -51.71194 67.72000 -13.09773 -50.76980 67.89500 -12.24376 -49.81643 68.07000 -11.42618 -48.85054 68.24500 -10.64597 -47.87077 68.42000 -9.90402 -46.87565 68.59500 -9.20111 -45.86359 68.77000 -8.53793 -44.83285 68.94500 -7.92209 -43.79382 69.12000 -7.32480 -42.67778 69.27789 -6.78180 -41.53542 69.43579 -6.28251 -40.35207 69.59368 -5.82506 -39.12857 69.75158 -5.40763 -37.86611 69.90947 -5.02839 -36.56623 70.06737 -4.68543 -35.23071 70.22526 -4.37675 -33.86154 70.38316 -4.10024 -32.46088 70.54105 -3.85366 -31.03098 70.69895 -3.63463 -29.57415 70.85684 -3.44066 -28.09275 71.01474 -3.26916 -26.58914 71.17263 -3.11742 -25.06567 71.33053 -2.98263 -23.52467 71.48842 -2.86194 -21.96842 71.64632 -2.75236 -20.39917 71.80421 -2.65089 -18.81912 71.96211 -2.55442 -17.23039 72.12000 -2.45979 -15.63508 72.27789 -2.36380 -14.03518 72.43579 -2.26315 -12.43265 72.59368 -2.15450 -10.82939 72.75158 -2.03442 -9.22720 72.90947 -1.89940 -7.62785 73.06737 -1.74586 -6.03303 73.22526 -1.57008 -4.44438 73.38316 -1.36825 -2.86352 73.54105 -1.13641 -1.29200 73.69895 -0.87045 0.26862 73.85684 -0.56607 1.81673 74.01474 -0.21878 3.35069 74.17263 0.17608 4.86871 74.33053 0.62342 6.36880 74.48842 1.12830 7.84870 74.64632 1.69592 9.30574 74.80421 2.33154 10.73676 74.96211 3.03579 12.12956 75.12000 3.87785 13.61905 75.27152 4.76568 15.05441 75.42303 5.69882 16.44236 75.57455 6.67393 17.78447 75.72606 7.68775 19.08251 75.87758 8.73707 20.33840 76.02909 9.81877 21.55421 76.18061 10.92987 22.73211 76.33212 12.06746 23.87434 76.48364 13.22875 24.98322 76.63515 14.41107 26.06108 76.78667 15.61181 27.11027 76.93818 16.82847 28.13315 77.08970 18.05862 29.13203 77.24121 19.29986 30.10924 77.39273 20.54988 31.06703 77.54424 21.80639 32.00764 77.69576 23.06713 32.93325 77.84727 24.32987 33.84601 77.99879 25.59241 34.74800 78.15030 26.85254 35.64127 78.30182 28.10808 36.52782 78.45333 29.35687 37.40959 78.60485 30.59672 38.28847 78.75636 31.82549 39.16632 78.90788 33.04103 40.04492 79.05939 34.24120 40.92603 79.21091 35.42391 41.81133 79.36242 36.58706 42.70250 79.51394 37.72859 43.60113 79.66545 38.84651 44.50880 79.81697 39.93883 45.42705 79.96848 41.03915 46.38871 80.12000</float_array><technique_common><accessor source="#positions-array" count="864" stride="3"><param name="X" type="float"/><param name="Y" type="float"/><param name="Z" type="float"/></accessor></technique_common></source>
<source id="normals"><float_array id="normals-array" count="2586">-0.00052 -0.06913 0.99761 -0.00097 -0.06623 0.99780 -0.00104 -0.07079 0.99749 -0.00187 -0.06514 0.99787 -0.00203 -0.07074 0.99749 -0.00272 -0.06547 0.99785 -0.00294 -0.07066 0.99750 -0.00351 -0.06578 0.99783 -0.00377 -0.07053 0.99750 -0.00425 -0.06606 0.99781 -0.00452 -0.07038 0.99751 -0.00491 -0.06633 0.99779 -0.00520 -0.07020 0.99752 -0.00551 -0.06659 0.99777 -0.00579 -0.07000 0.99753 -0.00604 -0.06684 0.99775 -0.00631 -0.06979 0.99754 -0.00650 -0.06707 0.99773 -0.00674 -0.06957 0.99755 -0.00689 -0.06731 0.99771 -0.00710 -0.06934 0.99757 -0.00721 -0.06754 0.99769 -0.00737 -0.06910 0.99758 -0.00745 -0.06777 0.99767 -0.00757 -0.06887 0.99760 -0.00761 -0.06801 0.99766 -0.00768 -0.06863 0.99761 -0.00770 -0.06824 0.99764 -0.00772 -0.06840 0.99763 -0.00772 -0.06847 0.99762 -0.00768 -0.06816 0.99764 -0.00765 -0.06871 0.99761 -0.00757 -0.06793 0.99766 -0.00751 -0.06895 0.99759 -0.00738 -0.06770 0.99768 -0.00729 -0.06918 0.99758 -0.00711 -0.06746 0.99770 -0.00699 -0.06941 0.99756 -0.00677 -0.06723 0.99771 -0.00661 -0.06964 0.99755 -0.00636 -0.06700 0.99773 -0.00615 -0.06986 0.99754 -0.00587 -0.06675 0.99775 -0.00561 -0.07007 0.99753 -0.00532 -0.06650 0.99777 -0.00498 -0.07026 0.99752 -0.00470 -0.06624 0.99779 -0.00428 -0.07043 0.99751 -0.00401 -0.06597 0.99781 -0.00350 -0.07058 0.99750 -0.00326 -0.06568 0.99784 -0.00264 -0.07069 0.99749 -0.00244 -0.06536 0.99786 -0.00171 -0.07076 0.99749 -0.00157 -0.06502 0.99788 -0.00070 -0.07079 0.99749 -0.00064 -0.06466 0.99791 0.00038 -0.07077 0.99749 0.00034 -0.06426 0.99793 0.00152 -0.07069 0.99750 0.00137 -0.06382 0.99796 0.00273 -0.07054 0.99751 0.00245 -0.06334 0.99799 0.00398 -0.07032 0.99752 0.00356 -0.06282 0.99802 0.00529 -0.07002 0.99753 0.00470 -0.06225 0.99805 0.00664 -0.06963 0.99755 0.00588 -0.06163 0.99808 0.00802 -0.06914 0.99757 0.00707 -0.06095 0.99812 0.00942 -0.06857 0.99760 0.00827 -0.06022 0.99815 0.01083 -0.06789 0.99763 0.00948 -0.05944 0.99819 0.01224 -0.06711 0.99767 0.01069 -0.05859 0.99822 0.01365 -0.06622 0.99771 0.01189 -0.05769 0.99826 0.01503 -0.06523 0.99776 0.01307 -0.05673 0.99830 0.01638 -0.06414 0.99781 0.01423 -0.05572 0.99835 0.01770 -0.06296 0.99786 0.01532 -0.05450 0.99840 0.01908 -0.06185 0.99790 0.02338 -0.07578 0.99685 0.03316 -0.09546 0.99488 0.02566 -0.07387 0.99694 0.03533 -0.09164 0.99516 0.02785 -0.07223 0.99700 0.03692 -0.08758 0.99547 0.02975 -0.07058 0.99706 0.03818 -0.08383 0.99575 0.03140 -0.06895 0.99713 0.03917 -0.08039 0.99599 0.03282 -0.06736 0.99719 0.03994 -0.07724 0.99621 0.03403 -0.06582 0.99725 0.04053 -0.07437 0.99641 0.03507 -0.06435 0.99731 0.04098 -0.07176 0.99658 0.03596 -0.06296 0.99737 0.04131 -0.06938 0.99673 0.03672 -0.06166 0.99742 0.04155 -0.06722 0.99687 0.03736 -0.06044 0.99747 0.04171 -0.06527 0.99700 0.03790 -0.05932 0.99752 0.04180 -0.06350 0.99711 0.03837 -0.05828 0.99756 0.04185 -0.06191 0.99720 0.03876 -0.05734 0.99760 0.04185 -0.06047 0.99729 0.03909 -0.05649 0.99764 0.04183 -0.05919 0.99737 0.03938 -0.05572 0.99767 0.04178 -0.05804 0.99744 0.03962 -0.05505 0.99770 0.04171 -0.05703 0.99750 0.03983 -0.05446 0.99772 0.04163 -0.05613 0.99756 0.04001 -0.05396 0.99774 0.04153 -0.05535 0.99760 0.04017 -0.05354 0.99776 0.04143 -0.05468 0.99764 0.04031 -0.05321 0.99777 0.04132 -0.05411 0.99768 0.04044 -0.05296 0.99778 0.04120 -0.05364 0.99771 0.04055 -0.05279 0.99778 0.04108 -0.05326 0.99774 0.04066 -0.05271 0.99778 0.04096 -0.05297 0.99776 0.04075 -0.05271 0.99778 0.04083 -0.05278 0.99777 0.04084 -0.05279 0.99777 0.04070 -0.05266 0.99778 0.04093 -0.05296 0.99776 0.04056 -0.05264 0.99779 0.04101 -0.05322 0.99774 0.04041 -0.05269 0.99779 0.04108 -0.05357 0.99772 0.04025 -0.05283 0.99779 0.04115 -0.05401 0.99769 0.04008 -0.05305 0.99779 0.04121 -0.05454 0.99766 0.03990 -0.05335 0.99778 0.04127 -0.05518 0.99762 0.03970 -0.05373 0.99777 0.04131 -0.05591 0.99758 0.03948 -0.05420 0.99775 0.04134 -0.05676 0.99753 0.03922 -0.05475 0.99773 0.04136 -0.05773 0.99748 0.03894 -0.05539 0.99771 0.04135 -0.05882 0.99741 0.03861 -0.05611 0.99768 0.04132 -0.06004 0.99734 0.03824 -0.05691 0.99765 0.04125 -0.06140 0.99726 0.03781 -0.05780 0.99761 0.04115 -0.06291 0.99717 0.03731 -0.05878 0.99757 0.04099 -0.06458 0.99707 0.03673 -0.05984 0.99753 0.04077 -0.06642 0.99696 0.03606 -0.06099 0.99749 0.04048 -0.06846 0.99683 0.03528 -0.06222 0.99744 0.04008 -0.07069 0.99669 0.03438 -0.06353 0.99739 0.03957 -0.07313 0.99654 0.03333 -0.06492 0.99733 0.03892 -0.07581 0.99636 0.03212 -0.06636 0.99728 0.03810 -0.07872 0.99617 0.03072 -0.06786 0.99722 0.03707 -0.08189 0.99595 0.02910 -0.06939 0.99716 0.03579 -0.08533 0.99571 0.02725 -0.07094 0.99711 0.03420 -0.08903 0.99544 0.02514 -0.07248 0.99705 0.03225 -0.09300 0.99514 0.02274 -0.07399 0.99700 0.02987 -0.09721 0.99482 0.02003 -0.07541 0.99695 0.02699 -0.10162 0.99446 0.01700 -0.07671 0.99691 0.02353 -0.10619 0.99407 0.01363 -0.07785 0.99687 0.01940 -0.11080 0.99365 0.00993 -0.07877 0.99684 0.01454 -0.11531 0.99322 0.00591 -0.07941 0.99682 0.00890 -0.11955 0.99279 0.00160 -0.07973 0.99682 0.00241 -0.12061 0.99270 -0.00264 -0.08083 0.99672 -0.00389 -0.11904 0.99288 -0.00659 -0.09074 0.99585 -0.00847 -0.11669 0.99313 -0.00991 -0.09178 0.99573 -0.01252 -0.11598 0.99317 -0.01308 -0.09149 0.99572 -0.01644 -0.11498 0.99323 -0.01617 -0.09103 0.99572 -0.02021 -0.11372 0.99331 -0.01918 -0.09042 0.99572 -0.02380 -0.11223 0.99340 -0.02207 -0.08967 0.99573 -0.02721 -0.11053 0.99350 -0.02486 -0.08879 0.99574 -0.03042 -0.10867 0.99361 -0.02752 -0.08779 0.99576 -0.03343 -0.10666 0.99373 -0.03005 -0.08669 0.99578 -0.03624 -0.10455 0.99386 -0.03245 -0.08550 0.99581 -0.03885 -0.10235 0.99399 -0.03472 -0.08423 0.99584 -0.04125 -0.10008 0.99412 -0.03686 -0.08290 0.99588 -0.04347 -0.09778 0.99426 -0.03886 -0.08152 0.99591 -0.04550 -0.09546 0.99439 -0.04073 -0.08010 0.99595 -0.04736 -0.09313 0.99453 -0.04248 -0.07864 0.99600 -0.04905 -0.09081 0.99466 -0.04410 -0.07717 0.99604 -0.05059 -0.08852 0.99479 -0.04560 -0.07568 0.99609 -0.05198 -0.08626 0.99492 -0.04699 -0.07419 0.99614 -0.05323 -0.08405 0.99504 -0.04828 -0.07270 0.99618 -0.05437 -0.08188 0.99516 -0.04946 -0.07123 0.99623 -0.05539 -0.07976 0.99527 -0.05055 -0.06976 0.99628 -0.05630 -0.07771 0.99539 -0.05155 -0.06832 0.99633 -0.05713 -0.07571 0.99549 -0.05246 -0.06689 0.99638 -0.05786 -0.07378 0.99559 -0.05330 -0.06550 0.99643 -0.05852 -0.07191 0.99569 -0.05407 -0.06413 0.99648 -0.05910 -0.07011 0.99579 -0.05477 -0.06280 0.99652 -0.05963 -0.06837 0.99588 -0.05541 -0.06149 0.99657 -0.06009 -0.06669 0.99596 -0.05600 -0.06022 0.99661 -0.06051 -0.06508 0.99604 -0.05653 -0.05899 0.99666 -0.06088 -0.06353 0.99612 -0.05702 -0.05779 0.99670 -0.06121 -0.06204 0.99619 -0.05747 -0.05663 0.99674 -0.06151 -0.06061 0.99626 -0.05788 -0.05550 0.99678 -0.06178 -0.05923 0.99633 -0.05826 -0.05441 0.99682 -0.06202 -0.05792 0.99639 -0.05861 -0.05336 0.99685 -0.06223 -0.05665 0.99645 -0.05893 -0.05234 0.99689 -0.06243 -0.05544 0.99651 -0.05923 -0.05136 0.99692 -0.06261 -0.05428 0.99656 -0.05951 -0.05041 0.99695 -0.06277 -0.05317 0.99661 -0.05977 -0.04949 0.99698 -0.06292 -0.05210 0.99666 -0.06002 -0.04861 0.99701 -0.06307 -0.05108 0.99670 -0.06025 -0.04776 0.99704 -0.06321 -0.05010 0.99674 -0.06047 -0.04694 0.99707 -0.06334 -0.04917 0.99678 -0.06068 -0.04615 0.99709 -0.06347 -0.04827 0.99682 -0.06089 -0.04539 0.99711 -0.06360 -0.04741 0.99685 -0.06109 -0.04466 0.99713 -0.06372 -0.04659 0.99688 -0.06128 -0.04396 0.99715 -0.06385 -0.04581 0.99691 -0.06148 -0.04329 0.99717 -0.06399 -0.04506 0.99693 -0.06167 -0.04264 0.99719 -0.06412 -0.04434 0.99696 -0.06187 -0.04202 0.99720 -0.06426 -0.04365 0.99698 -0.06206 -0.04143 0.99721 -0.06441 -0.04299 0.99700 -0.06227 -0.04085 0.99722 -0.06506 -0.04269 0.99697 -0.06214 -0.03983 0.99727 -0.06860 -0.04397 0.99667 -0.05904 -0.03599 0.99761 -0.06820 -0.04158 0.99681 -0.05838 -0.03372 0.99772 -0.06707 -0.03874 0.99700 -0.05823 -0.03194 0.99779 -0.06596 -0.03618 0.99717 -0.05800 -0.03029 0.99786 -0.06487 -0.03388 0.99732 -0.05770 -0.02876 0.99792 -0.06382 -0.03181 0.99745 -0.05735 -0.02733 0.99798 -0.06280 -0.02993 0.99758 -0.05697 -0.02602 0.99804 -0.06183 -0.02824 0.99769 -0.05656 -0.02480 0.99809 -0.06090 -0.02670 0.99779 -0.05613 -0.02367 0.99814 -0.06001 -0.02531 0.99788 -0.05569 -0.02263 0.99819 -0.05917 -0.02404 0.99796 -0.05525 -0.02167 0.99824 -0.05837 -0.02289 0.99803 -0.05482 -0.02079 0.99828 -0.05761 -0.02184 0.99810 -0.05439 -0.01997 0.99832 -0.05690 -0.02089 0.99816 -0.05398 -0.01922 0.99836 -0.05623 -0.02002 0.99822 -0.05357 -0.01853 0.99839 -0.05560 -0.01923 0.99827 -0.05319 -0.01790 0.99842 -0.05501 -0.01851 0.99831 -0.05282 -0.01731 0.99845 -0.05446 -0.01785 0.99836 -0.05247 -0.01678 0.99848 -0.05395 -0.01725 0.99839 -0.05214 -0.01629 0.99851 -0.05347 -0.01671 0.99843 -0.05183 -0.01585 0.99853 -0.05303 -0.01622 0.99846 -0.05155 -0.01544 0.99855 -0.05263 -0.01577 0.99849 -0.05129 -0.01508 0.99857 -0.05225 -0.01536 0.99852 -0.05105 -0.01475 0.99859 -0.05192 -0.01500 0.99854 -0.05084 -0.01445 0.99860 -0.05161 -0.01467 0.99856 -0.05065 -0.01419 0.99862 -0.05133 -0.01438 0.99858 -0.05048 -0.01396 0.99863 -0.05109 -0.01412 0.99859 -0.05034 -0.01375 0.99864 -0.05087 -0.01390 0.99861 -0.05022 -0.01358 0.99865 -0.05068 -0.01370 0.99862 -0.05013 -0.01343 0.99865 -0.05053 -0.01354 0.99863 -0.05007 -0.01331 0.99866 -0.05040 -0.01340 0.99864 -0.05003 -0.01322 0.99866 -0.05030 -0.01329 0.99865 -0.05001 -0.01315 0.99866 -0.05022 -0.01321 0.99865 -0.05002 -0.01311 0.99866 -0.05018 -0.01315 0.99865 -0.05006 -0.01310 0.99866 -0.05016 -0.01312 0.99866 -0.05013 -0.01311 0.99866 -0.05016 -0.01312 0.99865 -0.05022 -0.01314 0.99865 -0.05020 -0.01314 0.99865 -0.05034 -0.01320 0.99864 -0.05026 -0.01318 0.99865 -0.05049 -0.01329 0.99864 -0.05034 -0.01326 0.99864 -0.05066 -0.01341 0.99863 -0.05046 -0.01336 0.99864 -0.05087 -0.01356 0.99861 -0.05060 -0.01348 0.99863 -0.05110 -0.01373 0.99860 -0.05076 -0.01364 0.99862 -0.05137 -0.01394 0.99858 -0.05095 -0.01382 0.99861 -0.05167 -0.01417 0.99856 -0.05117 -0.01404 0.99859 -0.05200 -0.01444 0.99854 -0.05142 -0.01428 0.99858 -0.05236 -0.01475 0.99852 -0.05169 -0.01456 0.99856 -0.05276 -0.01510 0.99849 -0.05199 -0.01488 0.99854 -0.05320 -0.01548 0.99846 -0.05231 -0.01523 0.99851 -0.05367 -0.01591 0.99843 -0.05266 -0.01562 0.99849 -0.05418 -0.01639 0.99840 -0.05304 -0.01605 0.99846 -0.05473 -0.01692 0.99836 -0.05344 -0.01652 0.99843 -0.05533 -0.01751 0.99831 -0.05387 -0.01704 0.99840 -0.05596 -0.01815 0.99827 -0.05432 -0.01762 0.99837 -0.05665 -0.01886 0.99822 -0.05479 -0.01825 0.99833 -0.05738 -0.01965 0.99816 -0.05529 -0.01893 0.99829 -0.05816 -0.02051 0.99810 -0.05580 -0.01968 0.99825 -0.05899 -0.02147 0.99803 -0.05634 -0.02050 0.99820 -0.05988 -0.02252 0.99795 -0.05688 -0.02140 0.99815 -0.06082 -0.02369 0.99787 -0.05743 -0.02237 0.99810 -0.06182 -0.02498 0.99777 -0.05799 -0.02343 0.99804 -0.06289 -0.02641 0.99767 -0.05855 -0.02459 0.99798 -0.06401 -0.02800 0.99756 -0.05909 -0.02585 0.99792 -0.06520 -0.02976 0.99743 -0.05962 -0.02721 0.99785 -0.06645 -0.03173 0.99729 -0.06011 -0.02870 0.99778 -0.06777 -0.03392 0.99712 -0.06055 -0.03031 0.99770 -0.06914 -0.03638 0.99694 -0.06093 -0.03205 0.99763 -0.07058 -0.03913 0.99674 -0.06122 -0.03394 0.99755 -0.07207 -0.04222 0.99651 -0.06140 -0.03597 0.99746 -0.07361 -0.04571 0.99624 -0.06143 -0.03815 0.99738 -0.07517 -0.04965 0.99593 -0.06129 -0.04048 0.99730 -0.07674 -0.05411 0.99558 -0.06093 -0.04297 0.99722 -0.07828 -0.05917 0.99517 -0.06031 -0.04559 0.99714 -0.07975 -0.06492 0.99470 -0.05939 -0.04835 0.99706 -0.08108 -0.07146 0.99414 -0.05811 -0.05121 0.99700 -0.08218 -0.07887 0.99349 -0.05642 -0.05415 0.99694 -0.08293 -0.08728 0.99273 -0.05109 -0.05377 0.99725 -0.09077 -0.10917 0.98987 -0.05382 -0.06473 0.99645 -0.07384 -0.10237 0.99200 -0.04843 -0.06714 0.99657 -0.07338 -0.12361 0.98961 -0.04312 -0.07263 0.99643 -0.06505 -0.13652 0.98850 -0.03697 -0.07758 0.99630 -0.05405 -0.14646 0.98774 -0.03020 -0.08183 0.99619 -0.04122 -0.15248 0.98745 -0.02305 -0.08527 0.99609 -0.02774 -0.15431 0.98763 -0.01579 -0.08782 0.99601 -0.01474 -0.15245 0.98820 -0.00865 -0.08950 0.99595 -0.00302 -0.14783 0.98901 -0.00185 -0.09034 0.99591 0.00699 -0.14148 0.98992 0.00447 -0.09046 0.99589 0.01521 -0.13430 0.99082 0.01019 -0.08997 0.99589 0.02177 -0.12696 0.99167 0.01527 -0.08902 0.99591 0.02691 -0.11987 0.99242 0.01970 -0.08775 0.99595 0.03087 -0.11328 0.99308 0.02351 -0.08628 0.99599 0.03389 -0.10730 0.99365 0.02676 -0.08471 0.99605 0.03617 -0.10195 0.99413 0.02950 -0.08314 0.99610 0.03787 -0.09723 0.99454 0.03179 -0.08163 0.99616 0.03910 -0.09310 0.99489 0.03370 -0.08023 0.99621 0.03999 -0.08952 0.99518 0.03528 -0.07897 0.99625 0.04059 -0.08644 0.99543 0.03658 -0.07790 0.99629 0.04097 -0.08382 0.99564 0.03765 -0.07702 0.99632 0.04117 -0.08161 0.99581 0.03852 -0.07636 0.99634 0.04122 -0.07978 0.99596 0.03922 -0.07592 0.99634 0.04114 -0.07830 0.99608 0.03978 -0.07571 0.99634 0.04095 -0.07715 0.99618 0.04020 -0.07575 0.99632 0.04065 -0.07629 0.99626 0.04051 -0.07604 0.99628 0.04025 -0.07571 0.99632 0.04072 -0.07659 0.99623 0.03974 -0.07540 0.99636 0.04081 -0.07742 0.99616 0.03912 -0.07534 0.99639 0.04078 -0.07854 0.99608 0.03837 -0.07551 0.99641 0.04064 -0.07998 0.99597 0.03747 -0.07590 0.99641 0.04035 -0.08175 0.99584 0.03640 -0.07650 0.99640 0.03990 -0.08387 0.99568 0.03513 -0.07730 0.99639 0.03925 -0.08637 0.99549 0.03362 -0.07828 0.99636 0.03835 -0.08929 0.99527 0.03185 -0.07940 0.99633 0.03716 -0.09264 0.99501 0.02975 -0.08065 0.99630 0.03558 -0.09646 0.99470 0.02728 -0.08198 0.99626 0.03353 -0.10075 0.99435 0.02440 -0.08333 0.99622 0.03090 -0.10551 0.99394 0.02105 -0.08465 0.99619 0.02753 -0.11072 0.99347 0.01718 -0.08585 0.99616 0.02327 -0.11629 0.99294 0.01277 -0.08683 0.99614 0.01795 -0.12205 0.99236 0.00780 -0.08748 0.99614 0.01139 -0.12774 0.99174 0.00230 -0.08768 0.99615 0.00349 -0.13294 0.99112 -0.00367 -0.08733 0.99617 -0.00576 -0.13709 0.99054 -0.01001 -0.08631 0.99622 -0.01537 -0.13253 0.99106 -0.01598 -0.08758 0.99603 -0.02541 -0.13933 0.98992 -0.02361 -0.10331 0.99437 -0.02967 -0.12982 0.99109 -0.02761 -0.10584 0.99400 -0.03309 -0.12683 0.99137 -0.03053 -0.10452 0.99405 -0.03617 -0.12384 0.99164 -0.03324 -0.10314 0.99411 -0.03896 -0.12089 0.99190 -0.03574 -0.10170 0.99417 -0.04146 -0.11800 0.99215 -0.03804 -0.10024 0.99424 -0.04372 -0.11519 0.99238 -0.04017 -0.09877 0.99430 -0.04575 -0.11248 0.99260 -0.04212 -0.09730 0.99436 -0.04757 -0.10987 0.99281 -0.04392 -0.09585 0.99443 -0.04921 -0.10738 0.99300 -0.04557 -0.09442 0.99449 -0.05068 -0.10501 0.99318 -0.04709 -0.09302 0.99455 -0.05201 -0.10275 0.99335 -0.04848 -0.09167 0.99461 -0.05321 -0.10062 0.99350 -0.04976 -0.09037 0.99466 -0.05430 -0.09861 0.99364 -0.05095 -0.08912 0.99472 -0.05529 -0.09671 0.99378 -0.05204 -0.08793 0.99477 -0.05619 -0.09494 0.99390 -0.05306 -0.08680 0.99481 -0.05702 -0.09328 0.99401 -0.05400 -0.08574 0.99485 -0.05778 -0.09173 0.99411 -0.05489 -0.08474 0.99489 -0.05848 -0.09029 0.99420 -0.05571 -0.08381 0.99492 -0.05914 -0.08896 0.99428 -0.05649 -0.08295 0.99495 -0.05975 -0.08774 0.99435 -0.05723 -0.08216 0.99497 -0.06034 -0.08661 0.99441 -0.05794 -0.08143 0.99499 -0.06089 -0.08559 0.99447 -0.05861 -0.08078 0.99501 -0.06142 -0.08466 0.99452 -0.05926 -0.08020 0.99502 -0.06194 -0.08382 0.99455 -0.05990 -0.07970 0.99502 -0.06244 -0.08308 0.99458 -0.06051 -0.07927 0.99502 -0.06293 -0.08243 0.99461 -0.06112 -0.07891 0.99501 -0.06342 -0.08187 0.99462 -0.06172 -0.07862 0.99499 -0.06390 -0.08140 0.99463 -0.06232 -0.07842 0.99497 -0.06438 -0.08102 0.99463 -0.06291 -0.07829 0.99494 -0.06487 -0.08072 0.99462 -0.06351 -0.07823 0.99491 -0.06536 -0.08051 0.99461 -0.06412 -0.07826 0.99487 -0.06586 -0.08039 0.99459 -0.06474 -0.07838 0.99482 -0.06637 -0.08035 0.99455 -0.06537 -0.07857 0.99476 -0.06689 -0.08041 0.99452 -0.06601 -0.07886 0.99470 -0.06743 -0.08055 0.99447 -0.06667 -0.07924 0.99462 -0.06798 -0.08079 0.99441 -0.06735 -0.07971 0.99454 -0.06854 -0.08112 0.99435 -0.06806 -0.08029 0.99445 -0.06912 -0.08154 0.99427 -0.06878 -0.08097 0.99434 -0.06972 -0.08207 0.99418 -0.06954 -0.08176 0.99422 -0.07034 -0.08270 0.99409 -0.07032 -0.08267 0.99409 -0.07098 -0.08344 0.99398 -0.07114 -0.08371 0.99395 -0.07163 -0.08429 0.99386 -0.07199 -0.08489 0.99379 -0.07230 -0.08526 0.99373 -0.07287 -0.08622 0.99361 -0.07299 -0.08636 0.99359 -0.07379 -0.08770 0.99341 -0.07369 -0.08758 0.99343 -0.07475 -0.08936 0.99319 -0.07441 -0.08895 0.99325 -0.07576 -0.09122 0.99295 -0.07703 -0.09275 0.99271 -0.07561 -0.09038 0.99303 -0.07100 -0.08487 0.99386 -0.06617 -0.07647 0.99487 -0.07426 -0.08582 0.99354 -0.06712 -0.07399 0.99500 -0.07638 -0.08420 0.99352 -0.06929 -0.07305 0.99492 -0.07831 -0.08256 0.99350 -0.07133 -0.07212 0.99484 -0.08006 -0.08095 0.99350 -0.07326 -0.07122 0.99477 -0.08164 -0.07936 0.99350 -0.07508 -0.07036 0.99469 -0.08305 -0.07783 0.99350 -0.07679 -0.06956 0.99462 -0.08431 -0.07637 0.99351 -0.07840 -0.06882 0.99454 -0.08543 -0.07500 0.99352 -0.07991 -0.06817 0.99447 -0.08642 -0.07372 0.99353 -0.08132 -0.06760 0.99439 -0.08728 -0.07256 0.99354 -0.08266 -0.06714 0.99431 -0.08803 -0.07150 0.99355 -0.08391 -0.06679 0.99423 -0.08867 -0.07058 0.99356 -0.08509 -0.06656 0.99415 -0.08921 -0.06978 0.99356 -0.08619 -0.06645 0.99406 -0.08966 -0.06912 0.99357 -0.08723 -0.06648 0.99397 -0.09002 -0.06861 0.99357 -0.08821 -0.06666 0.99387 -0.09030 -0.06823 0.99357 -0.08913 -0.06699 0.99376 -0.09048 -0.06800 0.99357 -0.08999 -0.06748 0.99365 -0.09059 -0.06793 0.99357 -0.09079 -0.06814 0.99354 -0.09061 -0.06800 0.99356 -0.09152 -0.06897 0.99341 -0.09053 -0.06823 0.99355 -0.09219 -0.06999 0.99328 -0.09037 -0.06861 0.99354 -0.09279 -0.07121 0.99314 -0.09010 -0.06914 0.99353 -0.09331 -0.07262 0.99299 -0.08973 -0.06983 0.99352 -0.09374 -0.07424 0.99282 -0.08923 -0.07067 0.99350 -0.09408 -0.07607 0.99265 -0.08861 -0.07165 0.99349 -0.09429 -0.07813 0.99247 -0.08785 -0.07278 0.99347 -0.09438 -0.08040 0.99228 -0.08692 -0.07405 0.99346 -0.09430 -0.08291 0.99209 -0.08583 -0.07546 0.99345 -0.09405 -0.08563 0.99188 -0.08455 -0.07698 0.99344 -0.09359 -0.08857 0.99166 -0.08307 -0.07861 0.99344 -0.09289 -0.09171 0.99144 -0.08137 -0.08034 0.99344 -0.09191 -0.09505 0.99122 -0.07943 -0.08215 0.99345 -0.09061 -0.09855 0.99100 -0.07725 -0.08401 0.99347 -0.08897 -0.10217 0.99078 -0.07481 -0.08591 0.99349 -0.08694 -0.10589 0.99057 -0.07210 -0.08781 0.99352 -0.08448 -0.10963 0.99038 -0.06911 -0.08969 0.99357 -0.08156 -0.11333 0.99020 -0.06585 -0.09150 0.99362 -0.07816 -0.11691 0.99006 -0.06233 -0.09323 0.99369 -0.07428 -0.12029 0.98996 -0.05803 -0.09398 0.99388 -0.07032 -0.12501 0.98966 -0.04616 -0.08206 0.99556 -0.05580 -0.11053 0.99231 -0.04222 -0.08364 0.99560 -0.05070 -0.11305 0.99229 -0.03850 -0.08585 0.99556 -0.04511 -0.11340 0.99252 -0.03488 -0.08769 0.99554 -0.03987 -0.11321 0.99277 -0.03141 -0.08920 0.99552 -0.03503 -0.11261 0.99302 -0.02813 -0.09043 0.99551 -0.03063 -0.11171 0.99327 -0.02507 -0.09141 0.99550 -0.02667 -0.11061 0.99351 -0.02223 -0.09219 0.99549 -0.02312 -0.10939 0.99373 -0.01962 -0.09281 0.99549 -0.01999 -0.10810 0.99394 -0.01725 -0.09331 0.99549 -0.01724 -0.10680 0.99413 -0.01513 -0.09372 0.99548 -0.01484 -0.10553 0.99430 -0.01323 -0.09408 0.99548 -0.01278 -0.10432 0.99446 -0.01157 -0.09441 0.99547 -0.01102 -0.10319 0.99460 -0.01012 -0.09475 0.99545 -0.00955 -0.10214 0.99472 -0.00890 -0.09511 0.99543 -0.00835 -0.10120 0.99483 -0.00788 -0.09552 0.99540 -0.00740 -0.10037 0.99492 -0.00707 -0.09599 0.99536 -0.00668 -0.09965 0.99500 -0.00647 -0.09655 0.99531 -0.00619 -0.09904 0.99506 -0.00607 -0.09719 0.99525 -0.00591 -0.09854 0.99512 -0.00588 -0.09795 0.99517 -0.00585 -0.09815 0.99515 -0.00589 -0.09882 0.99509 -0.00601 -0.09785 0.99518 -0.00613 -0.09982 0.99499 -0.00637 -0.09766 0.99520 -0.00659 -0.10096 0.99487 -0.00696 -0.09754 0.99521 -0.00729 -0.10224 0.99473 -0.00777 -0.09749 0.99521 -0.00826 -0.10368 0.99458 -0.00880 -0.09751 0.99520 -0.00951 -0.10527 0.99440 -0.01009 -0.09756 0.99518 -0.01107 -0.10703 0.99419 -0.01162 -0.09762 0.99516 -0.01297 -0.10893 0.99396 -0.01343 -0.09768 0.99513 -0.01526 -0.11099 0.99370 -0.01552 -0.09769 0.99510 -0.01798 -0.11318 0.99341 -0.01790 -0.09762 0.99506 -0.02117 -0.11548 0.99308 -0.02059 -0.09744 0.99503 -0.02490 -0.11785 0.99272 -0.02359 -0.09708 0.99500 -0.02922 -0.12023 0.99232 -0.02691 -0.09649 0.99497 -0.03417 -0.12254 0.99187 -0.03053 -0.09562 0.99495 -0.03981 -0.12468 0.99140 -0.03445 -0.09440 0.99494 -0.04615 -0.12648 0.99089 -0.03862 -0.09277 0.99494 -0.05320 -0.12777 0.99038 -0.04301 -0.09068 0.99495 -0.06036 -0.12724 0.99003 -0.04765 -0.08870 0.99492 -0.05320 -0.09904 0.99366 -0.04492 -0.07593 0.99610 -0.05723 -0.09673 0.99366 -0.04848 -0.07515 0.99599 -0.06102 -0.09460 0.99364 -0.05170 -0.07396 0.99592 -0.06445 -0.09220 0.99365 -0.05474 -0.07265 0.99585 -0.06751 -0.08960 0.99369 -0.05758 -0.07126 0.99579 -0.07019 -0.08687 0.99374 -0.06021 -0.06982 0.99574 -0.07250 -0.08408 0.99382 -0.06263 -0.06836 0.99569 -0.07448 -0.08129 0.99390 -0.06485 -0.06690 0.99565 -0.07614 -0.07854 0.99400 -0.06687 -0.06547 0.99561 -0.07751 -0.07588 0.99410 -0.06870 -0.06409 0.99558 -0.07862 -0.07334 0.99420 -0.07035 -0.06278 0.99555 -0.07950 -0.07095 0.99431 -0.07183 -0.06156 0.99552 -0.08017 -0.06871 0.99441 -0.07316 -0.06044 0.99549 -0.08067 -0.06665 0.99451 -0.07434 -0.05944 0.99546 -0.08102 -0.06478 0.99461 -0.07540 -0.05856 0.99543 -0.08123 -0.06309 0.99470 -0.07635 -0.05782 0.99540 -0.08133 -0.06160 0.99478 -0.07719 -0.05722 0.99537 -0.08133 -0.06029 0.99486 -0.07794 -0.05677 0.99534 -0.08124 -0.05918 0.99494 -0.07860 -0.05648 0.99531 -0.08107 -0.05826 0.99500 -0.07918 -0.05635 0.99527 -0.08083 -0.05752 0.99507 -0.07969 -0.05638 0.99522 -0.08052 -0.05696 0.99512 -0.08014 -0.05659 0.99518 -0.08014 -0.05659 0.99518 -0.08052 -0.05696 0.99512 -0.07969 -0.05638 0.99522 -0.08083 -0.05752 0.99507 -0.07918 -0.05635 0.99527 -0.08107 -0.05826 0.99500 -0.07860 -0.05648 0.99531 -0.08124 -0.05918 0.99494 -0.07794 -0.05677 0.99534 -0.08133 -0.06029 0.99486 -0.07719 -0.05722 0.99537 -0.08133 -0.06160 0.99478 -0.07635 -0.05782 0.99540 -0.08123 -0.06309 0.99470 -0.07540 -0.05856 0.99543 -0.08102 -0.06478 0.99461 -0.07434 -0.05944 0.99546 -0.08067 -0.06665 0.99451 -0.07316 -0.06044 0.99549 -0.08017 -0.06871 0.99441 -0.07401 -0.06343 0.99524 -0.07766 -0.06786 0.99467</float_array><technique_common><accessor source="#normals-array" count="862" stride="3"><param name="X" type="float"/><param name="Y" type="float"/><param name="Z" type="float"/></accessor></technique_common></source>
<vertices id="vertices"><input semantic="POSITION" source="#positions"/></vertices><triangles count="862"><input semantic="VERTEX" source="#vertices" offset="0"/><input semantic="NORMAL" source="#normals" offset="1"/><p>1 0 432 0 0 0 433 1 432 1 1 1 2 2 433 2 1 2 434 3 433 3 2 3 3 4 434 4 2 4 435 5 434 5 3 5 4 6 435 6 3 6 436 7 435 7 4 7 5 8 436 8 4 8 437 9 436 9 5 9 6 10 437 10 5 10 438 11 437 11 6 11 7 12 438 12 6 12 439 13 438 13 7 13 8 14 439 14 7 14 440 15 439 15 8 15 9 16 440 16 8 16 441 17 440 17 9 17 10 18 441 18 9 18 442 19 441 19 10 19 11 20 442 20 10 20 443 21 442 21 11 21 12 22 443 22 11 22 444 23 443 23 12 23 13 24 444 24 12 24 445 25 444 25 13 25 14 26 445 26 13 26 446 27 445 27 14 27 15 28 446 28 14 28 447 29 446 29 15 29 16 30 447 30 15 30 448 31 447 31 16 31 17 32 448 32 16 32 449 33 448 33 17 33 18 34 449 34 17 34 450 35 449 35 18 35 19 36 450 36 18 36 451 37 450 37 19 37 20 38 451 38 19 38 452 39 451 39 20 39 21 40 452 40 20 40 453 41 452 41 21 41 22 42 453 42 21 42 454 43 453 43 22 43 23 44 454 44 22 44 455 45 454 45 23 45 24 46 455 46 23 46 456 47 455 47 24 47 25 48 456 48 24 48 457 49 456 49 25 49 26 50 457 50 25 50 458 51 457 51 26 51 27 52 458 52 26 52 459 53 458 53 27 53 28 54 459 54 27 54 460 55 459 55 28 55 29 56 460 56 28 56 461 57 460 57 29 57 30 58 461 58 29 58 462 59 461 59 30 59 31 60 462 60 30 60 463 61 462 61 31 61 32 62 463 62 31 62 464 63 463 63 32 63 33 64 464 64 32 64 465 65 464 65 33 65 34 66 465 66 33 66 466 67 465 67 34 67 35 68 466 68 34 68 467 69 466 69 35 69 36 70 467 70 35 70 468 71 467 71 36 71 37 72 468 72 36 72 469 73 468 73 37 73 38 74 469 74 37 74 470 75 469 75 38 75 39 76 470 76 38 76 471 77 470 77 39 77 40 78 471 78 39 78 472 79 471 79 40 79 41 80 472 80 40 80 473 81 472 81 41 81 42 82 473 82 41 82 474 83 473 83 42 83 43 84 474 84 42 84 475 85 474 85 43 85 44 86 475 86 43 86 476 87 475 87 44 87 45 88 476 88 44 88 477 89 476 89 45 89 46 90 477 90 45 90 478 91 477 91 46 91 47 92 478 92 46 92 479 93 478 93 47 93 48 94 479 94 47 94 480 95 479 95 48 95 49 96 480 96 48 96 481 97 480 97 49 97 50 98 481 98 49 98 482 99 481 99 50 99 51 100 482 100 50 100 483 101 482 101 51 101 52 102 483 102 51 102 484 103 483 103 52 103 53 104 484 104 52 104 485 105 484 105 53 105 54 106 485 106 53 106 486 107 485 107 54 107 55 108 486 108 54 108 487 109 486 109 55 109 56 110 487 110 55 110 488 111 487 111 56 111 57 112 488 112 56 112 489 113 488 113 57 113 58 114 489 114 57 114 490 115 489 115 58 115 59 116 490 116 58 116 491 117 490 117 59 117 60 118 491 118 59 118 492 119 491 119 60 119 61 120 492 120 60 120 493 121 492 121 61 121 62 122 493 122 61 122 494 123 493 123 62 123 63 124 494 124 62 124 495 125 494 125 63 125 64 126 495 126 63 126 496 127 495 127 64 127 65 128 496 128 64 128 497 129 496 129 65 129 66 130 497 130 65 130 498 131 497 131 66 131 67 132 498 132 66 132 499 133 498 133 67 133 68 134 499 134 67 134 500 135 499 135 68 135 69 136 500 136 68 136 501 137 500 137 69 137 70 138 501 138 69 138 502 139 501 139 70 139 71 140 502 140 70 140 503 141 502 141 71 141 72 142 503 142 71 142 504 143 503 143 72 143 73 144 504 144 72 144 505 145 504 145 73 145 74 146 505 146 73 146 506 147 505 147 74 147 75 148 506 148 74 148 507 149 506 149 75 149 76 150 507 150 75 150 508 151 507 151 76 151 77 152 508 152 76 152 509 153 508 153 77 153 78 154 509 154 77 154 510 155 509 155 78 155 79 156 510 156 78 156 511 157 510 157 79 157 80 158 511 158 79 158 512 159 511 159 80 159 81 160 512 160 80 160 513 161 512 161 81 161 82 162 513 162 81 162 514 163 513 163 82 163 83 164 514 164 82 164 515 165 514 165 83 165 84 166 515 166 83 166 516 167 515 167 84 167 85 168 516 168 84 168 517 169 516 169 85 169 86 170 517 170 85 170 518 171 517 171 86 171 87 172 518 172 86 172 519 173 518 173 87 173 88 174 519 174 87 174 520 175 519 175 88 175 89 176 520 176 88 176 521 177 520 177 89 177 90 178 521 178 89 178 522 179 521 179 90 179 91 180 522 180 90 180 523 181 522 181 91 181 92 182 523 182 91 182 524 183 523 183 92 183 93 184 524 184 92 184 525 185 524 185 93 185 94 186 525 186 93 186 526 187 525 187 94 187 95 188 526 188 94 188 527 189 526 189 95 189 96 190 527 190 95 190 528 191 527 191 96 191 97 192 528 192 96 192 529 193 528 193 97 193 98 194 529 194 97 194 530 195 529 195 98 195 99 196 530 196 98 196 531 197 530 197 99 197 100 198 531 198 99 198 532 199 531 199 100 199 101 200 532 200 100 200 533 201 532 201 101 201 102 202 533 202 101 202 534 203 533 203 102 203 103 204 534 204 102 204 535 205 534 205 103 205 104 206 535 206 103 206 536 207 535 207 104 207 105 208 536 208 104 208 537 209 536 209 105 209 106 210 537 210 105 210 538 211 537 211 106 211 107 212 538 212 106 212 539 213 538 213 107 213 108 214 539 214 107 214 540 215 539 215 108 215 109 216 540 216 108 216 541 217 540 217 109 217 110 218 541 218 109 218 542 219 541 219 110 219 111 220 542 220 110 220 543 221 542 221 111 221 112 222 543 222 111 222 544 223 543 223 112 223 113 224 544 224 112 224 545 225 544 225 113 225 114 226 545 226 113 226 546 227 545 227 114 227 115 228 546 228 114 228 547 229 546 229 115 229 116 230 547 230 115 230 548 231 547 231 116 231 117 232 548 232 116 232 549 233 548 233 117 233 118 234 549 234 117 234 550 235 549 235 118 235 119 236 550 236 118 236 551 237 550 237 119 237 120 238 551 238 119 238 552 239 551 239 120 239 121 240 552 240 120 240 553 241 552 241 121 241 122 242 553 242 121 242 554 243 553 243 122 243 123 244 554 244 122 244 555 245 554 245 123 245 124 246 555 246 123 246 556 247 555 247 124 247 125 248 556 248 124 248 557 249 556 249 125 249 126 250 557 250 125 250 558 251 557 251 126 251 127 252 558 252 126 252 559 253 558 253 127 253 128 254 559 254 127 254 560 255 559 255 128 255 129 256 560 256 128 256 561 257 560 257 129 257 130 258 561 258 129 258 562 259 561 259 130 259 131 260 562 260 130 260 563 261 562 261 131 261 132 262 563 262 131 262 564 263 563 263 132 263 133 264 564 264 132 264 565 265 564 265 133 265 134 266 565 266 133 266 566 267 565 267 134 267 135 268 566 268 134 268 567 269 566 269 135 269 136 270 567 270 135 270 568 271 567 271 136 271 137 272 568 272 136 272 569 273 568 273 137 273 138 274 569 274 137 274 570 275 569 275 138 275 139 276 570 276 138 276 571 277 570 277 139 277 140 278 571 278 139 278 572 279 571 279 140 279 141 280 572 280 140 280 573 281 572 281 141 281 142 282 573 282 141 282 574 283 573 283 142 283 143 284 574 284 142 284 575 285 574 285 143 285 144 286 575 286 143 286 576 287 575 287 144 287 145 288 576 288 144 288 577 289 576 289 145 289 146 290 577 290 145 290 578 291 577 291 146 291 147 292 578 292 146 292 579 293 578 293 147 293 148 294 579 294 147 294 580 295 579 295 148 295 149 296 580 296 148 296 581 297 580 297 149 297 150 298 581 298 149 298 582 299 581 299 150 299 151 300 582 300 150 300 583 301 582 301 151 301 152 302 583 302 151 302 584 303 583 303 152 303 153 304 584 304 152 304 585 305 584 305 153 305 154 306 585 306 153 306 586 307 585 307 154 307 155 308 586 308 154 308 587 309 586 309 155 309 156 310 587 310 155 310 588 311 587 311 156 311 157 312 588 312 156 312 589 313 588 313 157 313 158 314 589 314 157 314 590 315 589 315 158 315 159 316 590 316 158 316 591 317 590 317 159 317 160 318 591 318 159 318 592 319 591 319 160 319 161 320 592 320 160 320 593 321 592 321 161 321 162 322 593 322 161 322 594 323 593 323 162 323 163 324 594 324 162 324 595 325 594 325 163 325 164 326 595 326 163 326 596 327 595 327 164 327 165 328 596 328 164 328 597 329 596 329 165 329 166 330 597 330 165 330 598 331 597 331 166 331 167 332 598 332 166 332 599 333 598 333 167 333 168 334 599 334 167 334 600 335 599 335 168 335 169 336 600 336 168 336 601 337 600 337 169 337 170 338 601 338 169 338 602 339 601 339 170 339 171 340 602 340 170 340 603 341 602 341 171 341 172 342 603 342 171 342 604 343 603 343 172 343 173 344 604 344 172 344 605 345 604 345 173 345 174 346 605 346 173 346 606 347 605 347 174 347 175 348 606 348 174 348 607 349 606 349 175 349 176 350 607 350 175 350 608 351 607 351 176 351 177 352 608 352 176 352 609 353 608 353 177 353 178 354 609 354 177 354 610 355 609 355 178 355 179 356 610 356 178 356 611 357 610 357 179 357 180 358 611 358 179 358 612 359 611 359 180 359 181 360 612 360 180 360 613 361 612 361 181 361 182 362 613 362 181 362 614 363 613 363 182 363 183 364 614 364 182 364 615 365 614 365 183 365 184 366 615 366 183 366 616 367 615 367 184 367 185 368 616 368 184 368 617 369 616 369 185 369 186 370 617 370 185 370 618 371 617 371 186 371 187 372 618 372 186 372 619 373 618 373 187 373 188 374 619 374 187 374 620 375 619 375 188 375 189 376 620 376 188 376 621 377 620 377 189 377 190 378 621 378 189 378 622 379 621 379 190 379 191 380 622 380 190 380 623 381 622 381 191 381 192 382 623 382 191 382 624 383 623 383 192 383 193 384 624 384 192 384 625 385 624 385 193 385 194 386 625 386 193 386 626 387 625 387 194 387 195 388 626 388 194 388 627 389 626 389 195 389 196 390 627 390 195 390 628 391 627 391 196 391 197 392 628 392 196 392 629 393 628 393 197 393 198 394 629 394 197 394 630 395 629 395 198 395 199 396 630 396 198 396 631 397 630 397 199 397 200 398 631 398 199 398 632 399 631 399 200 399 201 400 632 400 200 400 633 401 632 401 201 401 202 402 633 402 201 402 634 403 633 403 202 403 203 404 634 404 202 404 635 405 634 405 203 405 204 406 635 406 203 406 636 407 635 407 204 407 205 408 636 408 204 408 637 409 636 409 205 409 206 410 637 410 205 410 638 411 637 411 206 411 207 412 638 412 206 412 639 413 638 413 207 413 208 414 639 414 207 414 640 415 639 415 208 415 209 416 640 416 208 416 641 417 640 417 209 417 210 418 641 418 209 418 642 419 641 419 210 419 211 420 642 420 210 420 643 421 642 421 211 421 212 422 643 422 211 422 644 423 643 423 212 423 213 424 644 424 212 424 645 425 644 425 213 425 214 426 645 426 213 426 646 427 645 427 214 427 215 428 646 428 214 428 647 429 646 429 215 429 216 430 647 430 215 430 648 431 647 431 216 431 217 432 648 432 216 432 649 433 648 433 217 433 218 434 649 434 217 434 650 435 649 435 218 435 219 436 650 436 218 436 651 437 650 437 219 437 220 438 651 438 219 438 652 439 651 439 220 439 221 440 652 440 220 440 653 441 652 441 221 441 222 442 653 442 221 442 654 443 653 443 222 443 223 444 654 444 222 444 655 445 654 445 223 445 224 446 655 446 223 446 656 447 655 447 224 447 225 448 656 448 224 448 657 449 656 449 225 449 226 450 657 450 225 450 658 451 657 451 226 451 227 452 658 452 226 452 659 453 658 453 227 453 228 454 659 454 227 454 660 455 659 455 228 455 229 456 660 456 228 456 661 457 660 457 229 457 230 458 661 458 229 458 662 459 661 459 230 459 231 460 662 460 230 460 663 461 662 461 231 461 232 462 663 462 231 462 664 463 663 463 232 463 233 464 664 464 232 464 665 465 664 465 233 465 234 466 665 466 233 466 666 467 665 467 234 467 235 468 666 468 234 468 667 469 666 469 235 469 236 470 667 470 235 470 668 471 667 471 236 471 237 472 668 472 236 472 669 473 668 473 237 473 238 474 669 474 237 474 670 475 669 475 238 475 239 476 670 476 238 476 671 477 670 477 239 477 240 478 671 478 239 478 672 479 671 479 240 479 241 480 672 480 240 480 673 481 672 481 241 481 242 482 673 482 241 482 674 483 673 483 242 483 243 484 674 484 242 484 675 485 674 485 243 485 244 486 675 486 243 486 676 487 675 487 244 487 245 488 676 488 244 488 677 489 676 489 245 489 246 490 677 490 245 490 678 491 677 491 246 491 247 492 678 492 246 492 679 493 678 493 247 493 248 494 679 494 247 494 680 495 679 495 248 495 249 496 680 496 248 496 681 497 680 497 249 497 250 498 681 498 249 498 682 499 681 499 250 499 251 500 682 500 250 500 683 501 682 501 251 501 252 502 683 502 251 502 684 503 683 503 252 503 253 504 684 504 252 504 685 505 684 505 253 505 254 506 685 506 253 506 686 507 685 507 254 507 255 508 686 508 254 508 687 509 686 509 255 509 256 510 687 510 255 510 688 511 687 511 256 511 257 512 688 512 256 512 689 513 688 513 257 513 258 514 689 514 257 514 690 515 689 515 258 515 259 516 690 516 258 516 691 517 690 517 259 517 260 518 691 518 259 518 692 519 691 519 260 519 261 520 692 520 260 520 693 521 692 521 261 521 262 522 693 522 261 522 694 523 693 523 262 523 263 524 694 524 262 524 695 525 694 525 263 525 264 526 695 526 263 526 696 527 695 527 264 527 265 528 696 528 264 528 697 529 696 529 265 529 266 530 697 530 265 530 698 531 697 531 266 531 267 532 698 532 266 532 699 533 698 533 267 533 268 534 699 534 267 534 700 535 699 535 268 535 269 536 700 536 268 536 701 537 700 537 269 537 270 538 701 538 269 538 702 539 701 539 270 539 271 540 702 540 270 540 703 541 702 541 271 541 272 542 703 542 271 542 704 543 703 543 272 543 273 544 704 544 272 544 705 545 704 545 273 545 274 546 705 546 273 546 706 547 705 547 274 547 275 548 706 548 274 548 707 549 706 549 275 549 276 550 707 550 275 550 708 551 707 551 276 551 277 552 708 552 276 552 709 553 708 553 277 553 278 554 709 554 277 554 710 555 709 555 278 555 279 556 710 556 278 556 711 557 710 557 279 557 280 558 711 558 279 558 712 559 711 559 280 559 281 560 712 560 280 560 713 561 712 561 281 561 282 562 713 562 281 562 714 563 713 563 282 563 283 564 714 564 282 564 715 565 714 565 283 565 284 566 715 566 283 566 716 567 715 567 284 567 285 568 716 568 284 568 717 569 716 569 285 569 286 570 717 570 285 570 718 571 717 571 286 571 287 572 718 572 286 572 719 573 718 573 287 573 288 574 719 574 287 574 720 575 719 575 288 575 289 576 720 576 288 576 721 577 720 577 289 577 290 578 721 578 289 578 722 579 721 579 290 579 291 580 722 580 290 580 723 581 722 581 291 581 292 582 723 582 291 582 724 583 723 583 292 583 293 584 724 584 292 584 725 585 724 585 293 585 294 586 725 586 293 586 726 587 725 587 294 587 295 588 726 588 294 588 727 589 726 589 295 589 296 590 727 590 295 590 728 591 727 591 296 591 297 592 728 592 296 592 729 593 728 593 297 593 298 594 729 594 297 594 730 595 729 595 298 595 299 596 730 596 298 596 731 597 730 597 299 597 300 598 731 598 299 598 732 599 731 599 300 599 301 600 732 600 300 600 733 601 732 601 301 601 302 602 733 602 301 602 734 603 733 603 302 603 303 604 734 604 302 604 735 605 734 605 303 605 304 606 735 606 303 606 736 607 735 607 304 607 305 608 736 608 304 608 737 609 736 609 305 609 306 610 737 610 305 610 738 611 737 611 306 611 307 612 738 612 306 612 739 613 738 613 307 613 308 614 739 614 307 614 740 615 739 615 308 615 309 616 740 616 308 616 741 617 740 617 309 617 310 618 741 618 309 618 742 619 741 619 310 619 311 620 742 620 310 620 743 621 742 621 311 621 312 622 743 622 311 622 744 623 743 623 312 623 313 624 744 624 312 624 745 625 744 625 313 625 314 626 745 626 313 626 746 627 745 627 314 627 315 628 746 628 314 628 747 629 746 629 315 629 316 630 747 630 315 630 748 631 747 631 316 631 317 632 748 632 316 632 749 633 748 633 317 633 318 634 749 634 317 634 750 635 749 635 318 635 319 636 750 636 318 636 751 637 750 637 319 637 320 638 751 638 319 638 752 639 751 639 320 639 321 640 752 640 320 640 753 641 752 641 321 641 322 642 753 642 321 642 754 643 753 643 322 643 323 644 754 644 322 644 755 645 754 645 323 645 324 646 755 646 323 646 756 647 755 647 324 647 325 648 756 648 324 648 757 649 756 649 325 649 326 650 757 650 325 650 758 651 757 651 326 651 327 652 758 652 326 652 759 653 758 653 327 653 328 654 759 654 327 654 760 655 759 655 328 655 329 656 760 656 328 656 761 657 760 657 329 657 330 658 761 658 329 658 762 659 761 659 330 659 331 660 762 660 330 660 763 661 762 661 331 661 332 662 763 662 331 662 764 663 763 663 332 663 333 664 764 664 332 664 765 665 764 665 333 665 334 666 765 666 333 666 766 667 765 667 334 667 335 668 766 668 334 668 767 669 766 669 335 669 336 670 767 670 335 670 768 671 767 671 336 671 337 672 768 672 336 672 769 673 768 673 337 673 338 674 769 674 337 674 770 675 769 675 338 675 339 676 770 676 338 676 771 677 770 677 339 677 340 678 771 678 339 678 772 679 771 679 340 679 341 680 772 680 340 680 773 681 772 681 341 681 342 682 773 682 341 682 774 683 773 683 342 683 343 684 774 684 342 684 775 685 774 685 343 685 344 686 775 686 343 686 776 687 775 687 344 687 345 688 776 688 344 688 777 689 776 689 345 689 346 690 777 690 345 690 778 691 777 691 346 691 347 692 778 692 346 692 779 693 778 693 347 693 348 694 779 694 347 694 780 695 779 695 348 695 349 696 780 696 348 696 781 697 780 697 349 697 350 698 781 698 349 698 782 699 781 699 350 699 351 700 782 700 350 700 783 701 782 701 351 701 352 702 783 702 351 702 784 703 783 703 352 703 353 704 784 704 352 704 785 705 784 705 353 705 354 706 785 706 353 706 786 707 785 707 354 707 355 708 786 708 354 708 787 709 786 709 355 709 356 710 787 710 355 710 788 711 787 711 356 711 357 712 788 712 356 712 789 713 788 713 357 713 358 714 789 714 357 714 790 715 789 715 358 715 359 716 790 716 358 716 791 717 790 717 359 717 360 718 791 718 359 718 792 719 791 719 360 719 361 720 792 720 360 720 793 721 792 721 361 721 362 722 793 722 361 722 794 723 793 723 362 723 363 724 794 724 362 724 795 725 794 725 363 725 364 726 795 726 363 726 796 727 795 727 364 727 365 728 796 728 364 728 797 729 796 729 365 729 366 730 797 730 365 730 798 731 797 731 366 731 367 732 798 732 366 732 799 733 798 733 367 733 368 734 799 734 367 734 800 735 799 735 368 735 369 736 800 736 368 736 801 737 800 737 369 737 370 738 801 738 369 738 802 739 801 739 370 739 371 740 802 740 370 740 803 741 802 741 371 741 372 742 803 742 371 742 804 743 803 743 372 743 373 744 804 744 372 744 805 745 804 745 373 745 374 746 805 746 373 746 806 747 805 747 374 747 375 748 806 748 374 748 807 749 806 749 375 749 376 750 807 750 375 750 808 751 807 751 376 751 377 752 808 752 376 752 809 753 808 753 377 753 378 754 809 754 377 754 810 755 809 755 378 755 379 756 810 756 378 756 811 757 810 757 379 757 380 758 811 758 379 758 812 759 811 759 380 759 381 760 812 760 380 760 813 761 812 761 381 761 382 762 813 762 381 762 814 763 813 763 382 763 383 764 814 764 382 764 815 765 814 765 383 765 384 766 815 766 383 766 816 767 815 767 384 767 385 768 816 768 384 768 817 769 816 769 385 769 386 770 817 770 385 770 818 771 817 771 386 771 387 772 818 772 386 772 819 773 818 773 387 773 388 774 819 774 387 774 820 775 819 775 388 775 389 776 820 776 388 776 821 777 820 777 389 777 390 778 821 778 389 778 822 779 821 779 390 779 391 780 822 780 390 780 823 781 822 781 391 781 392 782 823 782 391 782 824 783 823 783 392 783 393 784 824 784 392 784 825 785 824 785 393 785 394 786 825 786 393 786 826 787 825 787 394 787 395 788 826 788 394 788 827 789 826 789 395 789 396 790 827 790 395 790 828 791 827 791 396 791 397 792 828 792 396 792 829 793 828 793 397 793 398 794 829 794 397 794 830 795 829 795 398 795 399 796 830 796 398 796 831 797 830 797 399 797 400 798 831 798 399 798 832 799 831 799 400 799 401 800 832 800 400 800 833 801 832 801 401 801 402 802 833 802 401 802 834 803 833 803 402 803 403 804 834 804 402 804 835 805 834 805 403 805 404 806 835 806 403 806 836 807 835 807 404 807 405 808 836 808 404 808 837 809 836 809 405 809 406 810 837 810 405 810 838 811 837 811 406 811 407 812 838 812 406 812 839 813 838 813 407 813 408 814 839 814 407 814 840 815 839 815 408 815 409 816 840 816 408 816 841 817 840 817 409 817 410 818 841 818 409 818 842 819 841 819 410 819 411 820 842 820 410 820 843 821 842 821 411 821 412 822 843 822 411 822 844 823 843 823 412 823 413 824 844 824 412 824 845 825 844 825 413 825 414 826 845 826 413 826 846 827 845 827 414 827 415 828 846 828 414 828 847 829 846 829 415 829 416 830 847 830 415 830 848 831 847 831 416 831 417 832 848 832 416 832 849 833 848 833 417 833 418 834 849 834 417 834 850 835 849 835 418 835 419 836 850 836 418 836 851 837 850 837 419 837 420 838 851 838 419 838 852 839 851 839 420 839 421 840 852 840 420 840 853 841 852 841 421 841 422 842 853 842 421 842 854 843 853 843 422 843 423 844 854 844 422 844 855 845 854 845 423 845 424 846 855 846 423 846 856 847 855 847 424 847 425 848 856 848 424 848 857 849 856 849 425 849 426 850 857 850 425 850 858 851 857 851 426 851 427 852 858 852 426 852 859 853 858 853 427 853 428 854 859 854 427 854 860 855 859 855 428 855 429 856 860 856 428 856 861 857 860 857 429 857 430 858 861 858 429 858 862 859 861 859 430 859 431 860 862 860 430 860 863 861 862 861 431 861</p></triangles>
</mesh></geometry></library_geometries><library_visual_scenes><visual_scene id="Scene"><node id="mesh"><instance_geometry url="#geometry"/></node></visual_scene></library_visual_scenes><scene><instance_visual_scene url="#Scene"/></scene></COLLADA>