<?xml version="1.0" encoding="UTF-8"?>
<COLLADA xmlns="http://www.collada.org/2005/11/COLLADASchema" version="1.4.1">
<asset><contributor><authoring_tool>Summit Estate procedural mesh exporter</authoring_tool></contributor><created>2026-09-11T00:00:00Z</created><modified>2026-09-11T00:00:00Z</modified><unit name="meter" meter="1"/><up_axis>Z_UP</up_axis></asset>
<library_geometries><geometry id="geometry" name="geometry"><mesh>
<source id="positions"><float_array id="positions-array" count="1080">-184.94000 -455.00045 22.13500 -184.92865 -453.49190 22.23733 -184.89568 -451.98878 22.33965 -184.84270 -450.49025 22.44198 -184.77133 -448.99559 22.54430 -185.06000 -454.99955 22.13500 -185.04864 -453.49013 22.23733 -185.01563 -451.98534 22.33965 -184.96260 -450.48527 22.44198 -184.89119 -448.98987 22.54430 -183.73323 -437.14783 23.36291 -183.56936 -435.67435 23.46523 -183.40333 -434.20139 23.56756 -183.23675 -432.72849 23.66988 -183.07126 -431.25533 23.77221 -183.85249 -437.13456 23.36291 -183.68862 -435.66100 23.46523 -183.52257 -434.18793 23.56756 -183.35600 -432.71505 23.66988 -183.19051 -431.24193 23.77221 -181.98065 -419.41249 24.59081 -181.89789 -417.91976 24.69314 -181.83242 -416.42262 24.79547 -181.78588 -414.92101 24.89779 -181.75991 -413.41501 25.00012 -182.10047 -419.40585 24.59081 -182.01774 -417.91382 24.69314 -181.95233 -416.41814 24.79547 -181.90585 -414.91812 24.89779 -181.87989 -413.41294 25.00012 -182.48743 -401.14312 25.81872 -182.71955 -399.57687 25.92105 -182.98857 -398.00142 26.02337 -183.29602 -396.41701 26.12570 -183.64338 -394.82396 26.22802 -182.60613 -401.16071 25.81872 -182.83805 -399.59578 25.92105 -183.10662 -398.02296 26.02337 -183.41355 -396.44123 26.12570 -183.76062 -394.84953 26.22802 -187.46811 -383.70649 27.11395 -188.11233 -382.42469 27.22974 -188.79829 -381.13402 27.34553 -189.52351 -379.83552 27.46132 -190.28555 -378.53004 27.57711 -187.57533 -383.76037 27.11395 -188.21892 -382.47981 27.22974 -188.90366 -381.19145 27.34553 -189.62772 -379.89503 27.46132 -190.38918 -378.59053 27.57711 -197.45864 -367.86220 28.50342 -198.45684 -366.50749 28.61921 -199.47053 -365.14918 28.73500 -200.49742 -363.78783 28.85079 -201.53528 -362.42394 28.96658 -197.55525 -367.93338 28.50342 -198.55322 -366.57897 28.61921 -199.56651 -365.22119 28.73500 -200.59307 -363.86030 28.85079 -201.63078 -362.49661 28.96658 -209.97536 -351.46602 29.89289 -211.01497 -350.09650 30.00868 -212.04383 -348.72849 30.12447 -213.05985 -347.36230 30.24026 -214.06097 -345.99818 30.35605 -210.07094 -351.53858 29.89289 -211.11071 -350.16884 30.00868 -212.13993 -348.80036 30.12447 -213.15636 -347.43361 30.24026 -214.15772 -346.06918 30.35605 -221.26745 -335.21668 31.28237 -222.03587 -333.89080 31.39816 -222.76730 -332.57170 31.51395 -223.45984 -331.25936 31.62974 -224.11165 -329.95352 31.74553 -221.37127 -335.27686 31.28237 -222.14025 -333.94999 31.39816 -222.87284 -332.62882 31.51395 -223.56659 -331.31417 31.62974 -224.21901 -330.00711 31.74553 -227.58525 -319.82205 32.67184 -227.77018 -318.59870 32.78763 -227.89228 -317.38805 32.90342 -227.94961 -316.18910 33.01921 -227.94000 -315.00048 33.13500 -227.70390 -319.83998 32.67184 -227.88924 -318.61372 32.78763 -228.01194 -317.39696 32.90342 -228.06958 -316.19150 33.01921 -228.06000 -314.99952 33.13500 -226.09936 -304.56325 34.23304 -225.67484 -303.27733 34.37029 -225.20985 -301.99708 34.50755 -224.70484 -300.72173 34.64480 -224.16020 -299.45066 34.78206 -226.21331 -304.52563 34.23304 -225.78822 -303.23803 34.37029 -225.32204 -301.95449 34.50755 -224.81578 -300.67600 34.64480 -224.27050 -299.40340 34.78206 -218.47771 -289.48384 35.88010 -217.61170 -288.26337 36.01735 -216.71395 -287.04958 36.15461 -215.78481 -285.84207 36.29186 -214.82469 -284.64055 36.42912 -218.57558 -289.41440 35.88010 -217.70888 -288.19297 36.01735 -216.80974 -286.97730 36.15461 -215.87924 -285.76802 36.29186 -214.91844 -284.56564 36.42912 -206.13030 -275.27668 37.52716 -204.92689 -274.13809 37.66441 -203.70035 -273.00733 37.80167 -202.45112 -271.88424 37.93892 -201.17964 -270.76869 38.07618 -206.21277 -275.18951 37.52716 -205.00879 -274.05039 37.66441 -203.78113 -272.91859 37.80167 -202.53080 -271.79451 37.93892 -201.25879 -270.67849 38.07618 -190.30637 -262.14036 39.17422 -188.86977 -261.10005 39.31147 -187.41866 -260.06881 39.44873 -185.95354 -259.04661 39.58598 -184.47494 -258.03341 39.72324 -190.37675 -262.04317 39.17422 -188.93972 -261.00254 39.31147 -187.48775 -259.97069 39.44873 -186.02179 -258.94790 39.58598 -184.54277 -257.93443 39.72324 -174.38142 -251.90277 40.59553 -173.15237 -251.30403 40.68763 -171.88962 -250.71515 40.77974 -170.59393 -250.13557 40.87184 -169.26614 -249.56483 40.96395 -174.43397 -251.79489 40.59553 -173.20400 -251.19570 40.68763 -171.93948 -250.60599 40.77974 -170.64211 -250.02567 40.87184 -169.31353 -249.45459 40.96395 -157.65471 -245.28602 41.70079 -156.09749 -244.78199 41.79289 -154.52117 -244.28383 41.88500 -152.92676 -243.79116 41.97711 -151.31536 -243.30360 42.06921 -157.69167 -245.17185 41.70079 -156.13405 -244.66769 41.79289 -154.55696 -244.16929 41.88500 -152.96185 -243.67640 41.97711 -151.35012 -243.18875 42.06921 -137.96794 -239.55108 42.80605 -136.26078 -239.09561 42.89816 -134.54922 -238.64212 42.99026 -132.83443 -238.19026 43.08237 -131.11763 -237.73972 43.17447 -137.99887 -239.43513 42.80605 -136.29161 -238.97964 42.89816 -134.57987 -238.52610 42.99026 -132.86495 -238.07421 43.08237 -131.14809 -237.62365 43.17447 -117.46020 -234.14422 43.91132 -115.78124 -233.69108 44.00342 -114.11261 -233.23603 44.09553 -112.45558 -232.77876 44.18763 -110.81152 -232.31898 44.27974 -117.49147 -234.02836 43.91132 -115.81266 -233.57527 44.00342 -114.14435 -233.12031 44.09553 -112.48770 -232.66314 44.18763 -110.84384 -232.20342 44.27974 -98.26876 -228.51031 45.01658 -96.79609 -228.01322 45.10868 -95.34839 -227.51029 45.20079 -93.92714 -227.00127 45.29289 -92.53387 -226.48596 45.38500 -98.30713 -228.39661 45.01658 -96.83496 -227.89969 45.10868 -95.38831 -227.39712 45.20079 -93.96818 -226.88851 45.29289 -92.57550 -226.37341 45.38500 -82.52873 -222.09237 46.12184 -81.44030 -221.50490 46.21395 -80.39131 -220.90745 46.30605 -79.38357 -220.29999 46.39816 -78.41902 -219.68264 46.49026 -82.58573 -221.98677 46.12184 -81.49848 -221.39995 46.21395 -80.45197 -220.80391 46.30605 -79.44687 -220.19804 46.39816 -78.48371 -219.58157 46.49026 -72.00045 -213.82937 47.29056 -71.19150 -212.59504 47.44611 -70.51739 -211.33070 47.60167 -69.97390 -210.03977 47.75722 -69.55599 -208.72600 47.91278 -72.10082 -213.76359 47.29056 -71.29469 -212.53378 47.44611 -70.62572 -211.27908 47.60167 -70.08648 -209.99822 47.75722 -69.67035 -208.68963 47.91278 -69.99664 -197.42156 49.15722 -70.43684 -195.93063 49.31278 -70.94345 -194.42438 49.46833 -71.51028 -192.90507 49.62389 -72.13120 -191.37445 49.77944 -70.11173 -197.45554 49.15722 -70.55127 -195.96678 49.31278 -71.05655 -194.46451 49.46833 -71.62210 -192.94862 49.62389 -72.24240 -191.41956 49.77944 -78.35858 -178.81951 51.02389 -79.20671 -177.22840 51.17944 -80.05092 -175.63602 51.33500 -80.88538 -174.04349 51.49056 -81.70441 -172.45163 51.64611 -78.46447 -178.87596 51.02389 -79.31267 -177.28472 51.17944 -80.15708 -175.69198 51.33500 -80.99188 -174.09879 51.49056 -81.81111 -172.50653 51.64611 -86.99540 -159.88563 52.89056 -87.41242 -158.35082 53.04611 -87.75539 -156.82912 53.20167 -88.01883 -155.32049 53.35722 -88.19715 -153.82427 53.51278 -87.11120 -159.91710 52.89056 -87.52888 -158.37978 53.04611 -87.87306 -156.85266 53.20167 -88.13755 -155.33795 53.35722 -88.31630 -153.83848 53.51278 -86.54818 -142.66210 54.80167 -86.09505 -141.31773 54.96833 -85.60308 -139.97246 55.13500 -85.07342 -138.62591 55.30167 -84.50718 -137.27787 55.46833 -86.66189 -142.62378 54.80167 -86.20826 -141.27795 54.96833 -85.71528 -139.92988 55.13500 -85.18458 -138.58070 55.30167 -84.61782 -137.23139 55.46833 -78.83791 -126.51313 56.80167 -78.00697 -125.17455 56.96833 -77.15374 -123.83926 57.13500 -76.27939 -122.50729 57.30167 -75.38512 -121.17876 57.46833 -78.93987 -126.44984 56.80167 -78.10851 -125.11059 56.96833 -77.25446 -123.77402 57.13500 -76.37933 -122.44086 57.30167 -75.48467 -121.11175 57.46833 -67.68816 -110.73222 58.80167 -66.67857 -109.45431 58.96833 -65.66319 -108.18407 59.13500 -64.64329 -106.92172 59.30167 -63.62017 -105.66756 59.46833 -67.78232 -110.65783 58.80167 -66.77252 -109.37965 58.96833 -65.75673 -108.10890 59.13500 -64.73646 -106.84609 59.30167 -63.71316 -105.59170 59.46833 -55.48902 -95.97869 60.80167 -54.49999 -94.81621 60.96833 -53.52166 -93.66581 61.13500 -52.55541 -92.52786 61.30167 -51.60265 -91.40278 61.46833 -55.58042 -95.90093 60.80167 -54.59140 -94.73846 60.96833 -53.61310 -93.58810 61.13500 -52.64693 -92.45024 61.30167 -51.69423 -91.32523 61.46833 -43.57127 -82.20012 62.83500 -42.42400 -81.06353 63.01000 -41.26016 -79.95347 63.18500 -40.08106 -78.86787 63.36000 -38.88808 -77.80480 63.53500 -43.65573 -82.11488 62.83500 -42.50764 -80.97749 63.01000 -41.34222 -79.86591 63.18500 -40.16162 -78.77893 63.36000 -38.96792 -77.71520 63.53500 -29.06791 -69.92793 64.93500 -27.83130 -68.99675 65.11000 -26.59857 -68.07207 65.28500 -25.37135 -67.15217 65.46000 -24.15146 -66.23547 65.63500 -29.14009 -69.83207 64.93500 -27.90340 -68.90083 65.11000 -26.67056 -67.97606 65.28500 -25.44338 -67.05619 65.46000 -24.22354 -66.13953 65.63500 -14.86051 -58.81723 67.03500 -13.78424 -57.85519 67.21000 -12.73220 -56.87952 67.38500 -11.70649 -55.88891 67.56000 -10.70937 -54.88222 67.73500 -14.94049 -58.72777 67.03500 -13.86503 -57.76645 67.21000 -12.81468 -56.79236 67.38500 -11.79080 -55.80352 67.56000 -10.79463 -54.79778 67.73500 -3.94709 -46.02830 69.13500 -3.25407 -44.73272 69.29289 -2.62101 -43.40128 69.45079 -2.04538 -42.03741 69.60868 -1.52435 -40.64429 69.76658 -4.05291 -45.97170 69.13500 -3.36120 -44.67864 69.29289 -2.73050 -43.35218 69.45079 -2.15689 -41.99306 69.60868 -1.63675 -40.60225 69.76658 1.08556 -28.64669 71.02974 1.26504 -27.07355 71.18763 1.42277 -25.49035 71.34553 1.56192 -23.89967 71.50342 1.68571 -22.30381 71.66132 0.96634 -28.63309 71.02974 1.14572 -27.06080 71.18763 1.30329 -25.47918 71.34553 1.44233 -23.88980 71.50342 1.56607 -22.29453 71.66132 2.51117 -9.58953 72.92447 2.64212 -8.03794 73.08237 2.78996 -6.50202 73.24026 2.95793 -4.98355 73.39816 3.14933 -3.48405 73.55605 2.39159 -9.57944 72.92447 2.52261 -8.02715 73.08237 2.67060 -6.48967 73.24026 2.83878 -4.96936 73.39816 3.03029 -3.46886 73.55605 5.90511 7.55183 74.81921 6.45153 8.78246 74.97711 7.05286 9.97161 75.13500 7.80243 11.29713 75.28652 8.59818 12.58348 75.43803 5.79543 7.60053 74.81921 6.34311 8.83389 74.97711 6.94714 10.02839 75.13500 7.69915 11.35824 75.28652 8.49613 12.64661 75.43803 16.33892 21.64848 76.65015 17.44736 22.65894 76.80167 18.57924 23.64791 76.95318 19.73290 24.61777 77.10470 20.90654 25.57072 77.25621 16.25807 21.73716 76.65015 17.36746 22.74847 76.80167 18.50115 23.73902 76.95318 19.65647 24.71028 77.10470 20.83089 25.66388 77.25621 30.73831 32.80284 78.46833 31.99052 33.68703 78.61985 33.24065 34.57320 78.77136 34.48653 35.46328 78.92288 35.72580 36.35906 79.07439 30.66910 32.90086 78.46833 31.92121 33.78499 78.61985 33.17107 34.67097 78.77136 34.41650 35.56073 78.92288 35.65550 36.45631 79.07439</float_array><technique_common><accessor source="#positions-array" count="360" stride="3"><param name="X" type="float"/><param name="Y" type="float"/><param name="Z" type="float"/></accessor></technique_common></source>
<source id="normals"><float_array id="normals-array" count="864">-0.00051 -0.06767 0.99771 -0.00100 -0.06763 0.99771 -0.00100 -0.06790 0.99769 -0.00194 -0.06780 0.99770 -0.00195 -0.06806 0.99768 -0.00282 -0.06796 0.99768 -0.00283 -0.06817 0.99767 -0.00325 -0.06811 0.99767 -0.00761 -0.06843 0.99763 -0.00766 -0.06842 0.99763 -0.00766 -0.06844 0.99763 -0.00773 -0.06843 0.99763 -0.00773 -0.06843 0.99763 -0.00771 -0.06844 0.99763 -0.00771 -0.06843 0.99763 -0.00769 -0.06843 0.99763 -0.00378 -0.06818 0.99767 -0.00338 -0.06823 0.99766 -0.00337 -0.06804 0.99768 -0.00255 -0.06814 0.99767 -0.00254 -0.06791 0.99769 -0.00164 -0.06801 0.99768 -0.00163 -0.06776 0.99770 -0.00117 -0.06781 0.99770 0.00945 -0.06379 0.99792 0.01017 -0.06374 0.99791 0.01006 -0.06310 0.99796 0.01149 -0.06296 0.99795 0.01136 -0.06225 0.99800 0.01279 -0.06208 0.99799 0.01264 -0.06135 0.99804 0.01336 -0.06125 0.99803 0.03613 -0.07188 0.99676 0.03699 -0.07154 0.99675 0.03627 -0.07015 0.99688 0.03786 -0.06947 0.99687 0.03715 -0.06816 0.99698 0.03856 -0.06751 0.99697 0.03788 -0.06632 0.99708 0.03853 -0.06601 0.99707 0.04072 -0.05527 0.99764 0.04090 -0.05515 0.99764 0.04060 -0.05475 0.99767 0.04092 -0.05454 0.99767 0.04066 -0.05419 0.99770 0.04093 -0.05402 0.99770 0.04071 -0.05373 0.99773 0.04082 -0.05365 0.99772 0.04063 -0.05352 0.99774 0.04050 -0.05360 0.99774 0.04069 -0.05385 0.99772 0.04041 -0.05403 0.99772 0.04064 -0.05434 0.99770 0.04030 -0.05455 0.99770 0.04057 -0.05491 0.99767 0.04038 -0.05503 0.99767 0.03778 -0.06519 0.99716 0.03714 -0.06549 0.99716 0.03776 -0.06659 0.99707 0.03637 -0.06722 0.99708 0.03703 -0.06842 0.99697 0.03548 -0.06909 0.99698 0.03613 -0.07036 0.99687 0.03529 -0.07070 0.99687 0.01393 -0.09213 0.99565 0.01164 -0.09226 0.99567 0.01186 -0.09402 0.99550 0.00700 -0.09403 0.99554 0.00713 -0.09579 0.99538 0.00191 -0.09552 0.99543 0.00194 -0.09697 0.99529 -0.00078 -0.09668 0.99532 -0.03161 -0.09576 0.99490 -0.03299 -0.09516 0.99491 -0.03284 -0.09474 0.99496 -0.03549 -0.09351 0.99499 -0.03533 -0.09309 0.99503 -0.03785 -0.09184 0.99505 -0.03764 -0.09133 0.99511 -0.03885 -0.09068 0.99512 -0.05285 -0.07449 0.99582 -0.05355 -0.07391 0.99583 -0.05313 -0.07332 0.99589 -0.05445 -0.07217 0.99590 -0.05404 -0.07163 0.99597 -0.05529 -0.07050 0.99598 -0.05486 -0.06995 0.99604 -0.05545 -0.06939 0.99605 -0.05998 -0.05675 0.99659 -0.06032 -0.05633 0.99659 -0.05993 -0.05597 0.99663 -0.06058 -0.05515 0.99664 -0.06022 -0.05482 0.99668 -0.06084 -0.05403 0.99668 -0.06047 -0.05371 0.99672 -0.06077 -0.05332 0.99673 -0.06249 -0.04525 0.99702 -0.06267 -0.04496 0.99702 -0.06246 -0.04481 0.99704 -0.06282 -0.04423 0.99704 -0.06264 -0.04410 0.99706 -0.06297 -0.04354 0.99706 -0.06280 -0.04342 0.99708 -0.06297 -0.04315 0.99708 -0.06043 -0.02944 0.99774 -0.06064 -0.02890 0.99774 -0.05955 -0.02838 0.99782 -0.05992 -0.02736 0.99783 -0.05890 -0.02690 0.99790 -0.05923 -0.02597 0.99791 -0.05825 -0.02554 0.99798 -0.05840 -0.02510 0.99798 -0.05345 -0.01730 0.99842 -0.05350 -0.01711 0.99842 -0.05298 -0.01695 0.99845 -0.05307 -0.01658 0.99845 -0.05260 -0.01644 0.99848 -0.05268 -0.01611 0.99848 -0.05224 -0.01597 0.99851 -0.05228 -0.01582 0.99851 -0.05030 -0.01342 0.99864 -0.05031 -0.01338 0.99864 -0.05020 -0.01335 0.99865 -0.05022 -0.01327 0.99865 -0.05015 -0.01325 0.99865 -0.05016 -0.01319 0.99865 -0.05012 -0.01318 0.99866 -0.05012 -0.01315 0.99866 -0.05106 -0.01378 0.99860 -0.05105 -0.01385 0.99860 -0.05132 -0.01392 0.99859 -0.05129 -0.01407 0.99858 -0.05160 -0.01415 0.99857 -0.05156 -0.01432 0.99857 -0.05191 -0.01442 0.99855 -0.05189 -0.01451 0.99855 -0.05605 -0.01892 0.99825 -0.05598 -0.01917 0.99825 -0.05676 -0.01943 0.99820 -0.05662 -0.01997 0.99820 -0.05743 -0.02026 0.99814 -0.05727 -0.02084 0.99814 -0.05815 -0.02116 0.99808 -0.05807 -0.02148 0.99808 -0.06535 -0.03527 0.99724 -0.06502 -0.03605 0.99723 -0.06654 -0.03689 0.99710 -0.06580 -0.03855 0.99709 -0.06734 -0.03945 0.99695 -0.06647 -0.04128 0.99693 -0.06811 -0.04230 0.99678 -0.06762 -0.04328 0.99677 -0.05746 -0.08767 0.99449 -0.05375 -0.09055 0.99444 -0.05515 -0.09291 0.99415 -0.04683 -0.09827 0.99406 -0.04753 -0.09975 0.99388 -0.03855 -0.10446 0.99378 -0.03886 -0.10530 0.99368 -0.03412 -0.10727 0.99364 0.02819 -0.09549 0.99503 0.03004 -0.09510 0.99501 0.02935 -0.09291 0.99524 0.03266 -0.09207 0.99522 0.03193 -0.09000 0.99543 0.03473 -0.08919 0.99541 0.03403 -0.08738 0.99559 0.03528 -0.08697 0.99559 0.04043 -0.07585 0.99630 0.04034 -0.07589 0.99630 0.04036 -0.07593 0.99630 0.04008 -0.07605 0.99630 0.04019 -0.07625 0.99628 0.03971 -0.07647 0.99628 0.03989 -0.07683 0.99625 0.03959 -0.07696 0.99625 0.02552 -0.09394 0.99525 0.02345 -0.09433 0.99526 0.02395 -0.09632 0.99506 0.01941 -0.09699 0.99510 0.01983 -0.09912 0.99488 0.01465 -0.09962 0.99492 0.01494 -0.10163 0.99471 0.01213 -0.10175 0.99474 -0.03727 -0.11057 0.99317 -0.03864 -0.10997 0.99318 -0.03832 -0.10905 0.99330 -0.04093 -0.10784 0.99333 -0.04060 -0.10699 0.99343 -0.04303 -0.10580 0.99346 -0.04267 -0.10492 0.99357 -0.04382 -0.10432 0.99358 -0.05548 -0.08938 0.99445 -0.05604 -0.08897 0.99446 -0.05575 -0.08851 0.99451 -0.05681 -0.08771 0.99452 -0.05656 -0.08732 0.99457 -0.05755 -0.08656 0.99458 -0.05731 -0.08620 0.99463 -0.05778 -0.08583 0.99463 -0.06311 -0.07988 0.99480 -0.06333 -0.07969 0.99481 -0.06343 -0.07982 0.99479 -0.06384 -0.07944 0.99479 -0.06400 -0.07963 0.99477 -0.06437 -0.07929 0.99477 -0.06456 -0.07952 0.99474 -0.06474 -0.07936 0.99474 -0.07034 -0.08268 0.99409 -0.07033 -0.08269 0.99409 -0.07108 -0.08356 0.99396 -0.07104 -0.08360 0.99396 -0.07185 -0.08455 0.99383 -0.07177 -0.08463 0.99382 -0.07265 -0.08568 0.99367 -0.07260 -0.08573 0.99367 -0.07653 -0.07582 0.99418 -0.07720 -0.07504 0.99419 -0.07756 -0.07540 0.99413 -0.07882 -0.07387 0.99415 -0.07920 -0.07422 0.99409 -0.08035 -0.07278 0.99411 -0.08069 -0.07309 0.99406 -0.08123 -0.07238 0.99406 -0.08974 -0.06757 0.99367 -0.08979 -0.06749 0.99367 -0.09020 -0.06779 0.99361 -0.09027 -0.06769 0.99361 -0.09070 -0.06801 0.99355 -0.09067 -0.06805 0.99355 -0.09113 -0.06839 0.99349 -0.09109 -0.06845 0.99349 -0.08973 -0.08020 0.99273 -0.08906 -0.08108 0.99272 -0.08953 -0.08151 0.99264 -0.08808 -0.08335 0.99262 -0.08848 -0.08373 0.99255 -0.08684 -0.08574 0.99253 -0.08723 -0.08613 0.99246 -0.08634 -0.08717 0.99245 -0.05040 -0.09422 0.99428 -0.04826 -0.09559 0.99425 -0.04800 -0.09509 0.99431 -0.04375 -0.09755 0.99427 -0.04341 -0.09680 0.99436 -0.03934 -0.09891 0.99432 -0.03902 -0.09811 0.99441 -0.03704 -0.09904 0.99439 -0.01125 -0.09859 0.99506 -0.01055 -0.09872 0.99506 -0.01049 -0.09820 0.99511 -0.00921 -0.09842 0.99510 -0.00916 -0.09798 0.99515 -0.00810 -0.09815 0.99514 -0.00807 -0.09784 0.99517 -0.00759 -0.09791 0.99517 -0.00848 -0.10053 0.99490 -0.00907 -0.10043 0.99490 -0.00916 -0.10139 0.99481 -0.01046 -0.10116 0.99482 -0.01057 -0.10226 0.99470 -0.01214 -0.10196 0.99471 -0.01228 -0.10316 0.99459 -0.01314 -0.10298 0.99460 -0.04726 -0.10644 0.99319 -0.04982 -0.10503 0.99322 -0.05045 -0.10635 0.99305 -0.05546 -0.10323 0.99311 -0.04687 -0.08724 0.99508 -0.05026 -0.08496 0.99512 -0.05076 -0.08580 0.99502 -0.05235 -0.08463 0.99504 -0.07428 -0.06771 0.99494 -0.07493 -0.06687 0.99494 -0.07483 -0.06679 0.99496 -0.07604 -0.06517 0.99497 -0.07595 -0.06509 0.99498 -0.07700 -0.06362 0.99500 -0.07688 -0.06352 0.99501 -0.07736 -0.06282 0.99502 -0.08035 -0.05674 0.99515 -0.08030 -0.05681 0.99515 -0.08033 -0.05683 0.99515 -0.08019 -0.05706 0.99515 -0.08023 -0.05710 0.99514 -0.08000 -0.05749 0.99514 -0.08007 -0.05754 0.99513 -0.07993 -0.05778 0.99512</float_array><technique_common><accessor source="#normals-array" count="288" stride="3"><param name="X" type="float"/><param name="Y" type="float"/><param name="Z" type="float"/></accessor></technique_common></source>
<vertices id="vertices"><input semantic="POSITION" source="#positions"/></vertices><triangles count="288"><input semantic="VERTEX" source="#vertices" offset="0"/><input semantic="NORMAL" source="#normals" offset="1"/><p>1 0 5 0 0 0 6 1 5 1 1 1 2 2 6 2 1 2 7 3 6 3 2 3 3 4 7 4 2 4 8 5 7 5 3 5 4 6 8 6 3 6 9 7 8 7 4 7 11 8 15 8 10 8 16 9 15 9 11 9 12 10 16 10 11 10 17 11 16 11 12 11 13 12 17 12 12 12 18 13 17 13 13 13 14 14 18 14 13 14 19 15 18 15 14 15 21 16 25 16 20 16 26 17 25 17 21 17 22 18 26 18 21 18 27 19 26 19 22 19 23 20 27 20 22 20 28 21 27 21 23 21 24 22 28 22 23 22 29 23 28 23 24 23 31 24 35 24 30 24 36 25 35 25 31 25 32 26 36 26 31 26 37 27 36 27 32 27 33 28 37 28 32 28 38 29 37 29 33 29 34 30 38 30 33 30 39 31 38 31 34 31 41 32 45 32 40 32 46 33 45 33 41 33 42 34 46 34 41 34 47 35 46 35 42 35 43 36 47 36 42 36 48 37 47 37 43 37 44 38 48 38 43 38 49 39 48 39 44 39 51 40 55 40 50 40 56 41 55 41 51 41 52 42 56 42 51 42 57 43 56 43 52 43 53 44 57 44 52 44 58 45 57 45 53 45 54 46 58 46 53 46 59 47 58 47 54 47 61 48 65 48 60 48 66 49 65 49 61 49 62 50 66 50 61 50 67 51 66 51 62 51 63 52 67 52 62 52 68 53 67 53 63 53 64 54 68 54 63 54 69 55 68 55 64 55 71 56 75 56 70 56 76 57 75 57 71 57 72 58 76 58 71 58 77 59 76 59 72 59 73 60 77 60 72 60 78 61 77 61 73 61 74 62 78 62 73 62 79 63 78 63 74 63 81 64 85 64 80 64 86 65 85 65 81 65 82 66 86 66 81 66 87 67 86 67 82 67 83 68 87 68 82 68 88 69 87 69 83 69 84 70 88 70 83 70 89 71 88 71 84 71 91 72 95 72 90 72 96 73 95 73 91 73 92 74 96 74 91 74 97 75 96 75 92 75 93 76 97 76 92 76 98 77 97 77 93 77 94 78 98 78 93 78 99 79 98 79 94 79 101 80 105 80 100 80 106 81 105 81 101 81 102 82 106 82 101 82 107 83 106 83 102 83 103 84 107 84 102 84 108 85 107 85 103 85 104 86 108 86 103 86 109 87 108 87 104 87 111 88 115 88 110 88 116 89 115 89 111 89 112 90 116 90 111 90 117 91 116 91 112 91 113 92 117 92 112 92 118 93 117 93 113 93 114 94 118 94 113 94 119 95 118 95 114 95 121 96 125 96 120 96 126 97 125 97 121 97 122 98 126 98 121 98 127 99 126 99 122 99 123 100 127 100 122 100 128 101 127 101 123 101 124 102 128 102 123 102 129 103 128 103 124 103 131 104 135 104 130 104 136 105 135 105 131 105 132 106 136 106 131 106 137 107 136 107 132 107 133 108 137 108 132 108 138 109 137 109 133 109 134 110 138 110 133 110 139 111 138 111 134 111 141 112 145 112 140 112 146 113 145 113 141 113 142 114 146 114 141 114 147 115 146 115 142 115 143 116 147 116 142 116 148 117 147 117 143 117 144 118 148 118 143 118 149 119 148 119 144 119 151 120 155 120 150 120 156 121 155 121 151 121 152 122 156 122 151 122 157 123 156 123 152 123 153 124 157 124 152 124 158 125 157 125 153 125 154 126 158 126 153 126 159 127 158 127 154 127 161 128 165 128 160 128 166 129 165 129 161 129 162 130 166 130 161 130 167 131 166 131 162 131 163 132 167 132 162 132 168 133 167 133 163 133 164 134 168 134 163 134 169 135 168 135 164 135 171 136 175 136 170 136 176 137 175 137 171 137 172 138 176 138 171 138 177 139 176 139 172 139 173 140 177 140 172 140 178 141 177 141 173 141 174 142 178 142 173 142 179 143 178 143 174 143 181 144 185 144 180 144 186 145 185 145 181 145 182 146 186 146 181 146 187 147 186 147 182 147 183 148 187 148 182 148 188 149 187 149 183 149 184 150 188 150 183 150 189 151 188 151 184 151 191 152 195 152 190 152 196 153 195 153 191 153 192 154 196 154 191 154 197 155 196 155 192 155 193 156 197 156 192 156 198 157 197 157 193 157 194 158 198 158 193 158 199 159 198 159 194 159 201 160 205 160 200 160 206 161 205 161 201 161 202 162 206 162 201 162 207 163 206 163 202 163 203 164 207 164 202 164 208 165 207 165 203 165 204 166 208 166 203 166 209 167 208 167 204 167 211 168 215 168 210 168 216 169 215 169 211 169 212 170 216 170 211 170 217 171 216 171 212 171 213 172 217 172 212 172 218 173 217 173 213 173 214 174 218 174 213 174 219 175 218 175 214 175 221 176 225 176 220 176 226 177 225 177 221 177 222 178 226 178 221 178 227 179 226 179 222 179 223 180 227 180 222 180 228 181 227 181 223 181 224 182 228 182 223 182 229 183 228 183 224 183 231 184 235 184 230 184 236 185 235 185 231 185 232 186 236 186 231 186 237 187 236 187 232 187 233 188 237 188 232 188 238 189 237 189 233 189 234 190 238 190 233 190 239 191 238 191 234 191 241 192 245 192 240 192 246 193 245 193 241 193 242 194 246 194 241 194 247 195 246 195 242 195 243 196 247 196 242 196 248 197 247 197 243 197 244 198 248 198 243 198 249 199 248 199 244 199 251 200 255 200 250 200 256 201 255 201 251 201 252 202 256 202 251 202 257 203 256 203 252 203 253 204 257 204 252 204 258 205 257 205 253 205 254 206 258 206 253 206 259 207 258 207 254 207 261 208 265 208 260 208 266 209 265 209 261 209 262 210 266 210 261 210 267 211 266 211 262 211 263 212 267 212 262 212 268 213 267 213 263 213 264 214 268 214 263 214 269 215 268 215 264 215 271 216 275 216 270 216 276 217 275 217 271 217 272 218 276 218 271 218 277 219 276 219 272 219 273 220 277 220 272 220 278 221 277 221 273 221 274 222 278 222 273 222 279 223 278 223 274 223 281 224 285 224 280 224 286 225 285 225 281 225 282 226 286 226 281 226 287 227 286 227 282 227 283 228 287 228 282 228 288 229 287 229 283 229 284 230 288 230 283 230 289 231 288 231 284 231 291 232 295 232 290 232 296 233 295 233 291 233 292 234 296 234 291 234 297 235 296 235 292 235 293 236 297 236 292 236 298 237 297 237 293 237 294 238 298 238 293 238 299 239 298 239 294 239 301 240 305 240 300 240 306 241 305 241 301 241 302 242 306 242 301 242 307 243 306 243 302 243 303 244 307 244 302 244 308 245 307 245 303 245 304 246 308 246 303 246 309 247 308 247 304 247 311 248 315 248 310 248 316 249 315 249 311 249 312 250 316 250 311 250 317 251 316 251 312 251 313 252 317 252 312 252 318 253 317 253 313 253 314 254 318 254 313 254 319 255 318 255 314 255 321 256 325 256 320 256 326 257 325 257 321 257 322 258 326 258 321 258 327 259 326 259 322 259 323 260 327 260 322 260 328 261 327 261 323 261 324 262 328 262 323 262 329 263 328 263 324 263 331 264 335 264 330 264 336 265 335 265 331 265 332 266 336 266 331 266 337 267 336 267 332 267 333 268 337 268 332 268 338 269 337 269 333 269 334 270 338 270 333 270 339 271 338 271 334 271 341 272 345 272 340 272 346 273 345 273 341 273 342 274 346 274 341 274 347 275 346 275 342 275 343 276 347 276 342 276 348 277 347 277 343 277 344 278 348 278 343 278 349 279 348 279 344 279 351 280 355 280 350 280 356 281 355 281 351 281 352 282 356 282 351 282 357 283 356 283 352 283 353 284 357 284 352 284 358 285 357 285 353 285 354 286 358 286 353 286 359 287 358 287 354 287</p></triangles>
</mesh></geometry></library_geometries><library_visual_scenes><visual_scene id="Scene"><node id="mesh"><instance_geometry url="#geometry"/></node></visual_scene></library_visual_scenes><scene><instance_visual_scene url="#Scene"/></scene></COLLADA>