<?xml version="1.0" encoding="UTF-8"?>
<COLLADA xmlns="http://www.collada.org/2005/11/COLLADASchema" version="1.4.1">
<asset><contributor><authoring_tool>Summit Estate procedural mesh exporter</authoring_tool></contributor><created>2026-09-11T00:00:00Z</created><modified>2026-09-11T00:00:00Z</modified><unit name="meter" meter="1"/><up_axis>Z_UP</up_axis></asset>
<library_geometries><geometry id="geometry" name="geometry"><mesh>
<source id="positions"><float_array id="positions-array" count="78">-334.88726 93.21259 49.08700 -333.79906 93.21259 49.59043 -334.11778 93.66128 49.59043 -334.88726 93.84714 49.59043 -335.65673 93.66128 49.59043 -335.97545 93.21259 49.59043 -335.65673 92.76390 49.59043 -334.88726 92.57805 49.59043 -334.11778 92.76390 49.59043 -333.34831 93.21259 50.80579 -333.79906 93.84714 50.80579 -334.88726 94.10998 50.80579 -335.97545 93.84714 50.80579 -336.42620 93.21259 50.80579 -335.97545 92.57805 50.80579 -334.88726 92.31521 50.80579 -333.79906 92.57805 50.80579 -333.79906 93.21259 52.02116 -334.11778 93.66128 52.02116 -334.88726 93.84714 52.02116 -335.65673 93.66128 52.02116 -335.97545 93.21259 52.02116 -335.65673 92.76390 52.02116 -334.88726 92.57805 52.02116 -334.11778 92.76390 52.02116 -334.88726 93.21259 52.52458</float_array><technique_common><accessor source="#positions-array" count="26" stride="3"><param name="X" type="float"/><param name="Y" type="float"/><param name="Z" type="float"/></accessor></technique_common></source>
<source id="normals"><float_array id="normals-array" count="144">0.40235 0.28581 -0.86973 0.14845 0.61463 -0.77472 -0.14845 0.61463 -0.77472 -0.40235 0.28581 -0.86973 -0.40235 -0.28581 -0.86973 -0.14845 -0.61463 -0.77472 0.14845 -0.61463 -0.77472 0.40235 -0.28581 -0.86973 0.78036 0.55432 -0.28941 0.78036 0.55432 -0.28941 0.22976 0.95126 -0.20572 0.22976 0.95126 -0.20572 -0.22976 0.95126 -0.20572 -0.22976 0.95126 -0.20572 -0.78036 0.55432 -0.28941 -0.78036 0.55432 -0.28941 -0.78036 -0.55432 -0.28941 -0.78036 -0.55432 -0.28941 -0.22976 -0.95126 -0.20572 -0.22976 -0.95126 -0.20572 0.22976 -0.95126 -0.20572 0.22976 -0.95126 -0.20572 0.78036 -0.55432 -0.28941 0.78036 -0.55432 -0.28941 0.78036 0.55432 0.28941 0.78036 0.55432 0.28941 0.22976 0.95126 0.20572 0.22976 0.95126 0.20572 -0.22976 0.95126 0.20572 -0.22976 0.95126 0.20572 -0.78036 0.55432 0.28941 -0.78036 0.55432 0.28941 -0.78036 -0.55432 0.28941 -0.78036 -0.55432 0.28941 -0.22976 -0.95126 0.20572 -0.22976 -0.95126 0.20572 0.22976 -0.95126 0.20572 0.22976 -0.95126 0.20572 0.78036 -0.55432 0.28941 0.78036 -0.55432 0.28941 0.40235 0.28581 0.86973 0.14845 0.61463 0.77472 -0.14845 0.61463 0.77472 -0.40235 0.28581 0.86973 -0.40235 -0.28581 0.86973 -0.14845 -0.61463 0.77472 0.14845 -0.61463 0.77472 0.40235 -0.28581 0.86973</float_array><technique_common><accessor source="#normals-array" count="48" stride="3"><param name="X" type="float"/><param name="Y" type="float"/><param name="Z" type="float"/></accessor></technique_common></source>
<vertices id="vertices"><input semantic="POSITION" source="#positions"/></vertices><triangles count="48"><input semantic="VERTEX" source="#vertices" offset="0"/><input semantic="NORMAL" source="#normals" offset="1"/><p>0 0 2 0 1 0 0 1 3 1 2 1 0 2 4 2 3 2 0 3 5 3 4 3 0 4 6 4 5 4 0 5 7 5 6 5 0 6 8 6 7 6 0 7 1 7 8 7 1 8 2 8 10 8 1 9 10 9 9 9 2 10 3 10 11 10 2 11 11 11 10 11 3 12 4 12 12 12 3 13 12 13 11 13 4 14 5 14 13 14 4 15 13 15 12 15 5 16 6 16 14 16 5 17 14 17 13 17 6 18 7 18 15 18 6 19 15 19 14 19 7 20 8 20 16 20 7 21 16 21 15 21 8 22 1 22 9 22 8 23 9 23 16 23 9 24 10 24 18 24 9 25 18 25 17 25 10 26 11 26 19 26 10 27 19 27 18 27 11 28 12 28 20 28 11 29 20 29 19 29 12 30 13 30 21 30 12 31 21 31 20 31 13 32 14 32 22 32 13 33 22 33 21 33 14 34 15 34 23 34 14 35 23 35 22 35 15 36 16 36 24 36 15 37 24 37 23 37 16 38 9 38 17 38 16 39 17 39 24 39 17 40 18 40 25 40 18 41 19 41 25 41 19 42 20 42 25 42 20 43 21 43 25 43 21 44 22 44 25 44 22 45 23 45 25 45 23 46 24 46 25 46 24 47 17 47 25 47</p></triangles>
</mesh></geometry></library_geometries><library_visual_scenes><visual_scene id="Scene"><node id="mesh"><instance_geometry url="#geometry"/></node></visual_scene></library_visual_scenes><scene><instance_visual_scene url="#Scene"/></scene></COLLADA>