<?xml version="1.0" encoding="UTF-8"?>
<COLLADA xmlns="http://www.collada.org/2005/11/COLLADASchema" version="1.4.1">
<asset><contributor><authoring_tool>Summit Estate procedural mesh exporter</authoring_tool></contributor><created>2026-09-11T00:00:00Z</created><modified>2026-09-11T00:00:00Z</modified><unit name="meter" meter="1"/><up_axis>Z_UP</up_axis></asset>
<library_geometries><geometry id="geometry" name="geometry"><mesh>
<source id="positions"><float_array id="positions-array" count="78">-392.22648 -35.98819 107.37168 -390.67075 -35.98819 107.77121 -391.12641 -35.16314 107.77121 -392.22648 -34.82139 107.77121 -393.32655 -35.16314 107.77121 -393.78222 -35.98819 107.77121 -393.32655 -36.81324 107.77121 -392.22648 -37.15499 107.77121 -391.12641 -36.81324 107.77121 -390.02634 -35.98819 108.73577 -390.67075 -34.82139 108.73577 -392.22648 -34.33808 108.73577 -393.78222 -34.82139 108.73577 -394.42662 -35.98819 108.73577 -393.78222 -37.15499 108.73577 -392.22648 -37.63829 108.73577 -390.67075 -37.15499 108.73577 -390.67075 -35.98819 109.70032 -391.12641 -35.16314 109.70032 -392.22648 -34.82139 109.70032 -393.32655 -35.16314 109.70032 -393.78222 -35.98819 109.70032 -393.32655 -36.81324 109.70032 -392.22648 -37.15499 109.70032 -391.12641 -36.81324 109.70032 -392.22648 -35.98819 110.09985</float_array><technique_common><accessor source="#positions-array" count="26" stride="3"><param name="X" type="float"/><param name="Y" type="float"/><param name="Z" type="float"/></accessor></technique_common></source>
<source id="normals"><float_array id="normals-array" count="144">0.24643 0.13610 -0.95956 0.10013 0.32232 -0.94132 -0.10013 0.32232 -0.94132 -0.24643 0.13610 -0.95956 -0.24643 -0.13610 -0.95956 -0.10013 -0.32232 -0.94132 0.10013 -0.32232 -0.94132 0.24643 -0.13610 -0.95956 0.75564 0.41733 -0.50483 0.75564 0.41733 -0.50483 0.26761 0.86144 -0.43164 0.26761 0.86144 -0.43164 -0.26761 0.86144 -0.43164 -0.26761 0.86144 -0.43164 -0.75564 0.41733 -0.50483 -0.75564 0.41733 -0.50483 -0.75564 -0.41733 -0.50483 -0.75564 -0.41733 -0.50483 -0.26761 -0.86144 -0.43164 -0.26761 -0.86144 -0.43164 0.26761 -0.86144 -0.43164 0.26761 -0.86144 -0.43164 0.75564 -0.41733 -0.50483 0.75564 -0.41733 -0.50483 0.75564 0.41733 0.50483 0.75564 0.41733 0.50483 0.26761 0.86144 0.43164 0.26761 0.86144 0.43164 -0.26761 0.86144 0.43164 -0.26761 0.86144 0.43164 -0.75564 0.41733 0.50483 -0.75564 0.41733 0.50483 -0.75564 -0.41733 0.50483 -0.75564 -0.41733 0.50483 -0.26761 -0.86144 0.43164 -0.26761 -0.86144 0.43164 0.26761 -0.86144 0.43164 0.26761 -0.86144 0.43164 0.75564 -0.41733 0.50483 0.75564 -0.41733 0.50483 0.24643 0.13610 0.95956 0.10013 0.32232 0.94132 -0.10013 0.32232 0.94132 -0.24643 0.13610 0.95956 -0.24643 -0.13610 0.95956 -0.10013 -0.32232 0.94132 0.10013 -0.32232 0.94132 0.24643 -0.13610 0.95956</float_array><technique_common><accessor source="#normals-array" count="48" stride="3"><param name="X" type="float"/><param name="Y" type="float"/><param name="Z" type="float"/></accessor></technique_common></source>
<vertices id="vertices"><input semantic="POSITION" source="#positions"/></vertices><triangles count="48"><input semantic="VERTEX" source="#vertices" offset="0"/><input semantic="NORMAL" source="#normals" offset="1"/><p>0 0 2 0 1 0 0 1 3 1 2 1 0 2 4 2 3 2 0 3 5 3 4 3 0 4 6 4 5 4 0 5 7 5 6 5 0 6 8 6 7 6 0 7 1 7 8 7 1 8 2 8 10 8 1 9 10 9 9 9 2 10 3 10 11 10 2 11 11 11 10 11 3 12 4 12 12 12 3 13 12 13 11 13 4 14 5 14 13 14 4 15 13 15 12 15 5 16 6 16 14 16 5 17 14 17 13 17 6 18 7 18 15 18 6 19 15 19 14 19 7 20 8 20 16 20 7 21 16 21 15 21 8 22 1 22 9 22 8 23 9 23 16 23 9 24 10 24 18 24 9 25 18 25 17 25 10 26 11 26 19 26 10 27 19 27 18 27 11 28 12 28 20 28 11 29 20 29 19 29 12 30 13 30 21 30 12 31 21 31 20 31 13 32 14 32 22 32 13 33 22 33 21 33 14 34 15 34 23 34 14 35 23 35 22 35 15 36 16 36 24 36 15 37 24 37 23 37 16 38 9 38 17 38 16 39 17 39 24 39 17 40 18 40 25 40 18 41 19 41 25 41 19 42 20 42 25 42 20 43 21 43 25 43 21 44 22 44 25 44 22 45 23 45 25 45 23 46 24 46 25 46 24 47 17 47 25 47</p></triangles>
</mesh></geometry></library_geometries><library_visual_scenes><visual_scene id="Scene"><node id="mesh"><instance_geometry url="#geometry"/></node></visual_scene></library_visual_scenes><scene><instance_visual_scene url="#Scene"/></scene></COLLADA>