<?xml version="1.0" encoding="UTF-8"?>
<COLLADA xmlns="http://www.collada.org/2005/11/COLLADASchema" version="1.4.1">
<asset><contributor><authoring_tool>Summit Estate procedural mesh exporter</authoring_tool></contributor><created>2026-09-11T00:00:00Z</created><modified>2026-09-11T00:00:00Z</modified><unit name="meter" meter="1"/><up_axis>Z_UP</up_axis></asset>
<library_geometries><geometry id="geometry" name="geometry"><mesh>
<source id="positions"><float_array id="positions-array" count="1440">104.00000 58.00000 79.97500 103.96437 59.36073 79.97500 103.85757 60.71774 79.97500 103.67990 62.06730 79.97500 103.43184 63.40570 79.97500 103.11407 64.72930 79.97500 102.72747 66.03444 79.97500 102.27309 67.31757 79.97500 101.75218 68.57515 79.97500 101.16617 69.80375 79.97500 100.51666 71.00000 79.97500 99.80543 72.16061 79.97500 99.03444 73.28242 79.97500 98.20579 74.36233 79.97500 97.32177 75.39740 79.97500 96.38478 76.38478 79.97500 95.39740 77.32177 79.97500 94.36233 78.20579 79.97500 93.28242 79.03444 79.97500 92.16061 79.80543 79.97500 91.00000 80.51666 79.97500 89.80375 81.16617 79.97500 88.57515 81.75218 79.97500 87.31757 82.27309 79.97500 86.03444 82.72747 79.97500 84.72930 83.11407 79.97500 83.40570 83.43184 79.97500 82.06730 83.67990 79.97500 80.71774 83.85757 79.97500 79.36073 83.96437 79.97500 78.00000 84.00000 79.97500 76.63927 83.96437 79.97500 75.28226 83.85757 79.97500 73.93270 83.67990 79.97500 72.59430 83.43184 79.97500 71.27070 83.11407 79.97500 69.96556 82.72747 79.97500 68.68243 82.27309 79.97500 67.42485 81.75218 79.97500 66.19625 81.16617 79.97500 65.00000 80.51666 79.97500 63.83939 79.80543 79.97500 62.71758 79.03444 79.97500 61.63767 78.20579 79.97500 60.60260 77.32177 79.97500 59.61522 76.38478 79.97500 58.67823 75.39740 79.97500 57.79421 74.36233 79.97500 56.96556 73.28242 79.97500 56.19457 72.16061 79.97500 55.48334 71.00000 79.97500 54.83383 69.80375 79.97500 54.24782 68.57515 79.97500 53.72691 67.31757 79.97500 53.27253 66.03444 79.97500 52.88593 64.72930 79.97500 52.56816 63.40570 79.97500 52.32010 62.06730 79.97500 52.14243 60.71774 79.97500 52.03563 59.36073 79.97500 52.00000 58.00000 79.97500 52.03563 56.63927 79.97500 52.14243 55.28226 79.97500 52.32010 53.93270 79.97500 52.56816 52.59430 79.97500 52.88593 51.27070 79.97500 53.27253 49.96556 79.97500 53.72691 48.68243 79.97500 54.24782 47.42485 79.97500 54.83383 46.19625 79.97500 55.48334 45.00000 79.97500 56.19457 43.83939 79.97500 56.96556 42.71758 79.97500 57.79421 41.63767 79.97500 58.67823 40.60260 79.97500 59.61522 39.61522 79.97500 60.60260 38.67823 79.97500 61.63767 37.79421 79.97500 62.71758 36.96556 79.97500 63.83939 36.19457 79.97500 65.00000 35.48334 79.97500 66.19625 34.83383 79.97500 67.42485 34.24782 79.97500 68.68243 33.72691 79.97500 69.96556 33.27253 79.97500 71.27070 32.88593 79.97500 72.59430 32.56816 79.97500 73.93270 32.32010 79.97500 75.28226 32.14243 79.97500 76.63927 32.03563 79.97500 78.00000 32.00000 79.97500 79.36073 32.03563 79.97500 80.71774 32.14243 79.97500 82.06730 32.32010 79.97500 83.40570 32.56816 79.97500 84.72930 32.88593 79.97500 86.03444 33.27253 79.97500 87.31757 33.72691 79.97500 88.57515 34.24782 79.97500 89.80375 34.83383 79.97500 91.00000 35.48334 79.97500 92.16061 36.19457 79.97500 93.28242 36.96556 79.97500 94.36233 37.79421 79.97500 95.39740 38.67823 79.97500 96.38478 39.61522 79.97500 97.32177 40.60260 79.97500 98.20579 41.63767 79.97500 99.03444 42.71758 79.97500 99.80543 43.83939 79.97500 100.51666 45.00000 79.97500 101.16617 46.19625 79.97500 101.75218 47.42485 79.97500 102.27309 48.68243 79.97500 102.72747 49.96556 79.97500 103.11407 51.27070 79.97500 103.43184 52.59430 79.97500 103.67990 53.93270 79.97500 103.85757 55.28226 79.97500 103.96437 56.63927 79.97500 115.00000 58.00000 79.97500 114.94929 59.93643 79.97500 114.79731 61.86755 79.97500 114.54447 63.78808 79.97500 114.19146 65.69273 79.97500 113.73926 67.57630 79.97500 113.18909 69.43363 79.97500 112.54248 71.25961 79.97500 111.80118 73.04926 79.97500 110.96724 74.79765 79.97500 110.04294 76.50000 79.97500 109.03081 78.15164 79.97500 107.93363 79.74805 79.97500 106.75440 81.28485 79.97500 105.49636 82.75783 79.97500 104.16295 84.16295 79.97500 102.75783 85.49636 79.97500 101.28485 86.75440 79.97500 99.74805 87.93363 79.97500 98.15164 89.03081 79.97500 96.50000 90.04294 79.97500 94.79765 90.96724 79.97500 93.04926 91.80118 79.97500 91.25961 92.54248 79.97500 89.43363 93.18909 79.97500 87.57630 93.73926 79.97500 85.69273 94.19146 79.97500 83.78808 94.54447 79.97500 81.86755 94.79731 79.97500 79.93643 94.94929 79.97500 78.00000 95.00000 79.97500 76.06357 94.94929 79.97500 74.13245 94.79731 79.97500 72.21192 94.54447 79.97500 70.30727 94.19146 79.97500 68.42370 93.73926 79.97500 66.56637 93.18909 79.97500 64.74039 92.54248 79.97500 62.95074 91.80118 79.97500 61.20235 90.96724 79.97500 59.50000 90.04294 79.97500 57.84836 89.03081 79.97500 56.25195 87.93363 79.97500 54.71515 86.75440 79.97500 53.24217 85.49636 79.97500 51.83705 84.16295 79.97500 50.50364 82.75783 79.97500 49.24560 81.28485 79.97500 48.06637 79.74805 79.97500 46.96919 78.15164 79.97500 45.95706 76.50000 79.97500 45.03276 74.79765 79.97500 44.19882 73.04926 79.97500 43.45752 71.25961 79.97500 42.81091 69.43363 79.97500 42.26074 67.57630 79.97500 41.80854 65.69273 79.97500 41.45553 63.78808 79.97500 41.20269 61.86755 79.97500 41.05071 59.93643 79.97500 41.00000 58.00000 79.97500 41.05071 56.06357 79.97500 41.20269 54.13245 79.97500 41.45553 52.21192 79.97500 41.80854 50.30727 79.97500 42.26074 48.42370 79.97500 42.81091 46.56637 79.97500 43.45752 44.74039 79.97500 44.19882 42.95074 79.97500 45.03276 41.20235 79.97500 45.95706 39.50000 79.97500 46.96919 37.84836 79.97500 48.06637 36.25195 79.97500 49.24560 34.71515 79.97500 50.50364 33.24217 79.97500 51.83705 31.83705 79.97500 53.24217 30.50364 79.97500 54.71515 29.24560 79.97500 56.25195 28.06637 79.97500 57.84836 26.96919 79.97500 59.50000 25.95706 79.97500 61.20235 25.03276 79.97500 62.95074 24.19882 79.97500 64.74039 23.45752 79.97500 66.56637 22.81091 79.97500 68.42370 22.26074 79.97500 70.30727 21.80854 79.97500 72.21192 21.45553 79.97500 74.13245 21.20269 79.97500 76.06357 21.05071 79.97500 78.00000 21.00000 79.97500 79.93643 21.05071 79.97500 81.86755 21.20269 79.97500 83.78808 21.45553 79.97500 85.69273 21.80854 79.97500 87.57630 22.26074 79.97500 89.43363 22.81091 79.97500 91.25961 23.45752 79.97500 93.04926 24.19882 79.97500 94.79765 25.03276 79.97500 96.50000 25.95706 79.97500 98.15164 26.96919 79.97500 99.74805 28.06637 79.97500 101.28485 29.24560 79.97500 102.75783 30.50364 79.97500 104.16295 31.83705 79.97500 105.49636 33.24217 79.97500 106.75440 34.71515 79.97500 107.93363 36.25195 79.97500 109.03081 37.84836 79.97500 110.04294 39.50000 79.97500 110.96724 41.20235 79.97500 111.80118 42.95074 79.97500 112.54248 44.74039 79.97500 113.18909 46.56637 79.97500 113.73926 48.42370 79.97500 114.19146 50.30727 79.97500 114.54447 52.21192 79.97500 114.79731 54.13245 79.97500 114.94929 56.06357 79.97500 104.00000 58.00000 80.13500 103.96437 59.36073 80.13500 103.85757 60.71774 80.13500 103.67990 62.06730 80.13500 103.43184 63.40570 80.13500 103.11407 64.72930 80.13500 102.72747 66.03444 80.13500 102.27309 67.31757 80.13500 101.75218 68.57515 80.13500 101.16617 69.80375 80.13500 100.51666 71.00000 80.13500 99.80543 72.16061 80.13500 99.03444 73.28242 80.13500 98.20579 74.36233 80.13500 97.32177 75.39740 80.13500 96.38478 76.38478 80.13500 95.39740 77.32177 80.13500 94.36233 78.20579 80.13500 93.28242 79.03444 80.13500 92.16061 79.80543 80.13500 91.00000 80.51666 80.13500 89.80375 81.16617 80.13500 88.57515 81.75218 80.13500 87.31757 82.27309 80.13500 86.03444 82.72747 80.13500 84.72930 83.11407 80.13500 83.40570 83.43184 80.13500 82.06730 83.67990 80.13500 80.71774 83.85757 80.13500 79.36073 83.96437 80.13500 78.00000 84.00000 80.13500 76.63927 83.96437 80.13500 75.28226 83.85757 80.13500 73.93270 83.67990 80.13500 72.59430 83.43184 80.13500 71.27070 83.11407 80.13500 69.96556 82.72747 80.13500 68.68243 82.27309 80.13500 67.42485 81.75218 80.13500 66.19625 81.16617 80.13500 65.00000 80.51666 80.13500 63.83939 79.80543 80.13500 62.71758 79.03444 80.13500 61.63767 78.20579 80.13500 60.60260 77.32177 80.13500 59.61522 76.38478 80.13500 58.67823 75.39740 80.13500 57.79421 74.36233 80.13500 56.96556 73.28242 80.13500 56.19457 72.16061 80.13500 55.48334 71.00000 80.13500 54.83383 69.80375 80.13500 54.24782 68.57515 80.13500 53.72691 67.31757 80.13500 53.27253 66.03444 80.13500 52.88593 64.72930 80.13500 52.56816 63.40570 80.13500 52.32010 62.06730 80.13500 52.14243 60.71774 80.13500 52.03563 59.36073 80.13500 52.00000 58.00000 80.13500 52.03563 56.63927 80.13500 52.14243 55.28226 80.13500 52.32010 53.93270 80.13500 52.56816 52.59430 80.13500 52.88593 51.27070 80.13500 53.27253 49.96556 80.13500 53.72691 48.68243 80.13500 54.24782 47.42485 80.13500 54.83383 46.19625 80.13500 55.48334 45.00000 80.13500 56.19457 43.83939 80.13500 56.96556 42.71758 80.13500 57.79421 41.63767 80.13500 58.67823 40.60260 80.13500 59.61522 39.61522 80.13500 60.60260 38.67823 80.13500 61.63767 37.79421 80.13500 62.71758 36.96556 80.13500 63.83939 36.19457 80.13500 65.00000 35.48334 80.13500 66.19625 34.83383 80.13500 67.42485 34.24782 80.13500 68.68243 33.72691 80.13500 69.96556 33.27253 80.13500 71.27070 32.88593 80.13500 72.59430 32.56816 80.13500 73.93270 32.32010 80.13500 75.28226 32.14243 80.13500 76.63927 32.03563 80.13500 78.00000 32.00000 80.13500 79.36073 32.03563 80.13500 80.71774 32.14243 80.13500 82.06730 32.32010 80.13500 83.40570 32.56816 80.13500 84.72930 32.88593 80.13500 86.03444 33.27253 80.13500 87.31757 33.72691 80.13500 88.57515 34.24782 80.13500 89.80375 34.83383 80.13500 91.00000 35.48334 80.13500 92.16061 36.19457 80.13500 93.28242 36.96556 80.13500 94.36233 37.79421 80.13500 95.39740 38.67823 80.13500 96.38478 39.61522 80.13500 97.32177 40.60260 80.13500 98.20579 41.63767 80.13500 99.03444 42.71758 80.13500 99.80543 43.83939 80.13500 100.51666 45.00000 80.13500 101.16617 46.19625 80.13500 101.75218 47.42485 80.13500 102.27309 48.68243 80.13500 102.72747 49.96556 80.13500 103.11407 51.27070 80.13500 103.43184 52.59430 80.13500 103.67990 53.93270 80.13500 103.85757 55.28226 80.13500 103.96437 56.63927 80.13500 115.00000 58.00000 80.13500 114.94929 59.93643 80.13500 114.79731 61.86755 80.13500 114.54447 63.78808 80.13500 114.19146 65.69273 80.13500 113.73926 67.57630 80.13500 113.18909 69.43363 80.13500 112.54248 71.25961 80.13500 111.80118 73.04926 80.13500 110.96724 74.79765 80.13500 110.04294 76.50000 80.13500 109.03081 78.15164 80.13500 107.93363 79.74805 80.13500 106.75440 81.28485 80.13500 105.49636 82.75783 80.13500 104.16295 84.16295 80.13500 102.75783 85.49636 80.13500 101.28485 86.75440 80.13500 99.74805 87.93363 80.13500 98.15164 89.03081 80.13500 96.50000 90.04294 80.13500 94.79765 90.96724 80.13500 93.04926 91.80118 80.13500 91.25961 92.54248 80.13500 89.43363 93.18909 80.13500 87.57630 93.73926 80.13500 85.69273 94.19146 80.13500 83.78808 94.54447 80.13500 81.86755 94.79731 80.13500 79.93643 94.94929 80.13500 78.00000 95.00000 80.13500 76.06357 94.94929 80.13500 74.13245 94.79731 80.13500 72.21192 94.54447 80.13500 70.30727 94.19146 80.13500 68.42370 93.73926 80.13500 66.56637 93.18909 80.13500 64.74039 92.54248 80.13500 62.95074 91.80118 80.13500 61.20235 90.96724 80.13500 59.50000 90.04294 80.13500 57.84836 89.03081 80.13500 56.25195 87.93363 80.13500 54.71515 86.75440 80.13500 53.24217 85.49636 80.13500 51.83705 84.16295 80.13500 50.50364 82.75783 80.13500 49.24560 81.28485 80.13500 48.06637 79.74805 80.13500 46.96919 78.15164 80.13500 45.95706 76.50000 80.13500 45.03276 74.79765 80.13500 44.19882 73.04926 80.13500 43.45752 71.25961 80.13500 42.81091 69.43363 80.13500 42.26074 67.57630 80.13500 41.80854 65.69273 80.13500 41.45553 63.78808 80.13500 41.20269 61.86755 80.13500 41.05071 59.93643 80.13500 41.00000 58.00000 80.13500 41.05071 56.06357 80.13500 41.20269 54.13245 80.13500 41.45553 52.21192 80.13500 41.80854 50.30727 80.13500 42.26074 48.42370 80.13500 42.81091 46.56637 80.13500 43.45752 44.74039 80.13500 44.19882 42.95074 80.13500 45.03276 41.20235 80.13500 45.95706 39.50000 80.13500 46.96919 37.84836 80.13500 48.06637 36.25195 80.13500 49.24560 34.71515 80.13500 50.50364 33.24217 80.13500 51.83705 31.83705 80.13500 53.24217 30.50364 80.13500 54.71515 29.24560 80.13500 56.25195 28.06637 80.13500 57.84836 26.96919 80.13500 59.50000 25.95706 80.13500 61.20235 25.03276 80.13500 62.95074 24.19882 80.13500 64.74039 23.45752 80.13500 66.56637 22.81091 80.13500 68.42370 22.26074 80.13500 70.30727 21.80854 80.13500 72.21192 21.45553 80.13500 74.13245 21.20269 80.13500 76.06357 21.05071 80.13500 78.00000 21.00000 80.13500 79.93643 21.05071 80.13500 81.86755 21.20269 80.13500 83.78808 21.45553 80.13500 85.69273 21.80854 80.13500 87.57630 22.26074 80.13500 89.43363 22.81091 80.13500 91.25961 23.45752 80.13500 93.04926 24.19882 80.13500 94.79765 25.03276 80.13500 96.50000 25.95706 80.13500 98.15164 26.96919 80.13500 99.74805 28.06637 80.13500 101.28485 29.24560 80.13500 102.75783 30.50364 80.13500 104.16295 31.83705 80.13500 105.49636 33.24217 80.13500 106.75440 34.71515 80.13500 107.93363 36.25195 80.13500 109.03081 37.84836 80.13500 110.04294 39.50000 80.13500 110.96724 41.20235 80.13500 111.80118 42.95074 80.13500 112.54248 44.74039 80.13500 113.18909 46.56637 80.13500 113.73926 48.42370 80.13500 114.19146 50.30727 80.13500 114.54447 52.21192 80.13500 114.79731 54.13245 80.13500 114.94929 56.06357 80.13500</float_array><technique_common><accessor source="#positions-array" count="480" stride="3"><param name="X" type="float"/><param name="Y" type="float"/><param name="Z" type="float"/></accessor></technique_common></source>
<source id="normals"><float_array id="normals-array" count="2880">0.00000 -0.00000 -1.00000 0.00000 0.00000 -1.00000 0.00000 0.00000 1.00000 0.00000 0.00000 1.00000 0.99966 0.02618 0.00000 0.99966 0.02618 -0.00000 -0.99966 -0.02618 -0.00000 -0.99966 -0.02618 -0.00000 0.00000 -0.00000 -1.00000 0.00000 0.00000 -1.00000 0.00000 0.00000 1.00000 0.00000 0.00000 1.00000 0.99692 0.07846 0.00000 0.99692 0.07846 -0.00000 -0.99692 -0.07846 -0.00000 -0.99692 -0.07846 -0.00000 0.00000 -0.00000 -1.00000 0.00000 0.00000 -1.00000 0.00000 0.00000 1.00000 0.00000 0.00000 1.00000 0.99144 0.13053 0.00000 0.99144 0.13053 -0.00000 -0.99144 -0.13053 -0.00000 -0.99144 -0.13053 -0.00000 0.00000 -0.00000 -1.00000 0.00000 0.00000 -1.00000 0.00000 0.00000 1.00000 0.00000 0.00000 1.00000 0.98325 0.18224 0.00000 0.98325 0.18224 -0.00000 -0.98325 -0.18224 -0.00000 -0.98325 -0.18224 -0.00000 0.00000 -0.00000 -1.00000 0.00000 0.00000 -1.00000 0.00000 0.00000 1.00000 0.00000 0.00000 1.00000 0.97237 0.23345 0.00000 0.97237 0.23345 -0.00000 -0.97237 -0.23345 -0.00000 -0.97237 -0.23345 -0.00000 0.00000 -0.00000 -1.00000 0.00000 0.00000 -1.00000 0.00000 0.00000 1.00000 0.00000 0.00000 1.00000 0.95882 0.28402 0.00000 0.95882 0.28402 -0.00000 -0.95882 -0.28402 -0.00000 -0.95882 -0.28402 -0.00000 0.00000 -0.00000 -1.00000 0.00000 0.00000 -1.00000 0.00000 0.00000 1.00000 0.00000 0.00000 1.00000 0.94264 0.33381 0.00000 0.94264 0.33381 -0.00000 -0.94264 -0.33381 -0.00000 -0.94264 -0.33381 -0.00000 0.00000 -0.00000 -1.00000 0.00000 0.00000 -1.00000 0.00000 0.00000 1.00000 0.00000 0.00000 1.00000 0.92388 0.38268 0.00000 0.92388 0.38268 -0.00000 -0.92388 -0.38268 -0.00000 -0.92388 -0.38268 -0.00000 0.00000 -0.00000 -1.00000 0.00000 0.00000 -1.00000 0.00000 0.00000 1.00000 0.00000 0.00000 1.00000 0.90259 0.43051 0.00000 0.90259 0.43051 -0.00000 -0.90259 -0.43051 -0.00000 -0.90259 -0.43051 -0.00000 0.00000 -0.00000 -1.00000 0.00000 0.00000 -1.00000 0.00000 0.00000 1.00000 0.00000 0.00000 1.00000 0.87882 0.47716 0.00000 0.87882 0.47716 -0.00000 -0.87882 -0.47716 -0.00000 -0.87882 -0.47716 -0.00000 0.00000 -0.00000 -1.00000 0.00000 0.00000 -1.00000 0.00000 0.00000 1.00000 0.00000 0.00000 1.00000 0.85264 0.52250 0.00000 0.85264 0.52250 -0.00000 -0.85264 -0.52250 -0.00000 -0.85264 -0.52250 -0.00000 0.00000 -0.00000 -1.00000 0.00000 0.00000 -1.00000 0.00000 0.00000 1.00000 0.00000 0.00000 1.00000 0.82413 0.56641 0.00000 0.82413 0.56641 -0.00000 -0.82413 -0.56641 -0.00000 -0.82413 -0.56641 -0.00000 0.00000 -0.00000 -1.00000 0.00000 0.00000 -1.00000 0.00000 0.00000 1.00000 0.00000 0.00000 1.00000 0.79335 0.60876 0.00000 0.79335 0.60876 -0.00000 -0.79335 -0.60876 -0.00000 -0.79335 -0.60876 -0.00000 0.00000 -0.00000 -1.00000 0.00000 0.00000 -1.00000 0.00000 0.00000 1.00000 0.00000 0.00000 1.00000 0.76041 0.64945 0.00000 0.76041 0.64945 -0.00000 -0.76041 -0.64945 -0.00000 -0.76041 -0.64945 -0.00000 0.00000 -0.00000 -1.00000 0.00000 0.00000 -1.00000 0.00000 0.00000 1.00000 0.00000 0.00000 1.00000 0.72537 0.68835 0.00000 0.72537 0.68835 -0.00000 -0.72537 -0.68835 -0.00000 -0.72537 -0.68835 -0.00000 0.00000 -0.00000 -1.00000 0.00000 0.00000 -1.00000 0.00000 0.00000 1.00000 0.00000 0.00000 1.00000 0.68835 0.72537 0.00000 0.68835 0.72537 -0.00000 -0.68835 -0.72537 -0.00000 -0.68835 -0.72537 -0.00000 0.00000 -0.00000 -1.00000 0.00000 0.00000 -1.00000 0.00000 0.00000 1.00000 0.00000 0.00000 1.00000 0.64945 0.76041 0.00000 0.64945 0.76041 -0.00000 -0.64945 -0.76041 -0.00000 -0.64945 -0.76041 -0.00000 0.00000 -0.00000 -1.00000 0.00000 0.00000 -1.00000 0.00000 0.00000 1.00000 0.00000 0.00000 1.00000 0.60876 0.79335 0.00000 0.60876 0.79335 -0.00000 -0.60876 -0.79335 -0.00000 -0.60876 -0.79335 -0.00000 0.00000 -0.00000 -1.00000 0.00000 0.00000 -1.00000 0.00000 0.00000 1.00000 0.00000 0.00000 1.00000 0.56641 0.82413 0.00000 0.56641 0.82413 -0.00000 -0.56641 -0.82413 -0.00000 -0.56641 -0.82413 -0.00000 0.00000 -0.00000 -1.00000 0.00000 0.00000 -1.00000 0.00000 0.00000 1.00000 0.00000 0.00000 1.00000 0.52250 0.85264 0.00000 0.52250 0.85264 -0.00000 -0.52250 -0.85264 -0.00000 -0.52250 -0.85264 -0.00000 0.00000 -0.00000 -1.00000 0.00000 0.00000 -1.00000 0.00000 0.00000 1.00000 0.00000 0.00000 1.00000 0.47716 0.87882 0.00000 0.47716 0.87882 -0.00000 -0.47716 -0.87882 -0.00000 -0.47716 -0.87882 -0.00000 0.00000 -0.00000 -1.00000 0.00000 0.00000 -1.00000 0.00000 0.00000 1.00000 0.00000 0.00000 1.00000 0.43051 0.90259 0.00000 0.43051 0.90259 -0.00000 -0.43051 -0.90259 -0.00000 -0.43051 -0.90259 -0.00000 0.00000 -0.00000 -1.00000 0.00000 0.00000 -1.00000 0.00000 0.00000 1.00000 0.00000 0.00000 1.00000 0.38268 0.92388 0.00000 0.38268 0.92388 -0.00000 -0.38268 -0.92388 -0.00000 -0.38268 -0.92388 -0.00000 0.00000 -0.00000 -1.00000 0.00000 0.00000 -1.00000 0.00000 0.00000 1.00000 0.00000 0.00000 1.00000 0.33381 0.94264 0.00000 0.33381 0.94264 -0.00000 -0.33381 -0.94264 -0.00000 -0.33381 -0.94264 -0.00000 0.00000 -0.00000 -1.00000 0.00000 0.00000 -1.00000 0.00000 0.00000 1.00000 0.00000 0.00000 1.00000 0.28402 0.95882 0.00000 0.28402 0.95882 -0.00000 -0.28402 -0.95882 -0.00000 -0.28402 -0.95882 -0.00000 0.00000 -0.00000 -1.00000 0.00000 0.00000 -1.00000 0.00000 0.00000 1.00000 0.00000 0.00000 1.00000 0.23345 0.97237 0.00000 0.23345 0.97237 -0.00000 -0.23345 -0.97237 -0.00000 -0.23345 -0.97237 -0.00000 0.00000 -0.00000 -1.00000 0.00000 0.00000 -1.00000 0.00000 0.00000 1.00000 0.00000 0.00000 1.00000 0.18224 0.98325 0.00000 0.18224 0.98325 -0.00000 -0.18224 -0.98325 -0.00000 -0.18224 -0.98325 -0.00000 0.00000 0.00000 -1.00000 0.00000 0.00000 -1.00000 0.00000 0.00000 1.00000 0.00000 0.00000 1.00000 0.13053 0.99144 0.00000 0.13053 0.99144 -0.00000 -0.13053 -0.99144 -0.00000 -0.13053 -0.99144 -0.00000 0.00000 0.00000 -1.00000 0.00000 0.00000 -1.00000 0.00000 0.00000 1.00000 0.00000 0.00000 1.00000 0.07846 0.99692 0.00000 0.07846 0.99692 -0.00000 -0.07846 -0.99692 -0.00000 -0.07846 -0.99692 -0.00000 0.00000 0.00000 -1.00000 0.00000 0.00000 -1.00000 0.00000 0.00000 1.00000 0.00000 0.00000 1.00000 0.02618 0.99966 0.00000 0.02618 0.99966 -0.00000 -0.02618 -0.99966 -0.00000 -0.02618 -0.99966 -0.00000 0.00000 0.00000 -1.00000 0.00000 0.00000 -1.00000 0.00000 0.00000 1.00000 0.00000 0.00000 1.00000 -0.02618 0.99966 0.00000 -0.02618 0.99966 0.00000 0.02618 -0.99966 0.00000 0.02618 -0.99966 0.00000 0.00000 0.00000 -1.00000 0.00000 0.00000 -1.00000 0.00000 0.00000 1.00000 0.00000 0.00000 1.00000 -0.07846 0.99692 0.00000 -0.07846 0.99692 0.00000 0.07846 -0.99692 0.00000 0.07846 -0.99692 0.00000 0.00000 0.00000 -1.00000 0.00000 0.00000 -1.00000 0.00000 0.00000 1.00000 0.00000 0.00000 1.00000 -0.13053 0.99144 0.00000 -0.13053 0.99144 0.00000 0.13053 -0.99144 0.00000 0.13053 -0.99144 0.00000 0.00000 0.00000 -1.00000 0.00000 0.00000 -1.00000 0.00000 0.00000 1.00000 0.00000 0.00000 1.00000 -0.18224 0.98325 0.00000 -0.18224 0.98325 0.00000 0.18224 -0.98325 0.00000 0.18224 -0.98325 0.00000 0.00000 0.00000 -1.00000 0.00000 0.00000 -1.00000 0.00000 0.00000 1.00000 0.00000 0.00000 1.00000 -0.23345 0.97237 0.00000 -0.23345 0.97237 0.00000 0.23345 -0.97237 0.00000 0.23345 -0.97237 0.00000 0.00000 0.00000 -1.00000 0.00000 0.00000 -1.00000 0.00000 0.00000 1.00000 0.00000 0.00000 1.00000 -0.28402 0.95882 0.00000 -0.28402 0.95882 0.00000 0.28402 -0.95882 0.00000 0.28402 -0.95882 0.00000 0.00000 0.00000 -1.00000 0.00000 0.00000 -1.00000 0.00000 0.00000 1.00000 0.00000 0.00000 1.00000 -0.33381 0.94264 0.00000 -0.33381 0.94264 0.00000 0.33381 -0.94264 0.00000 0.33381 -0.94264 0.00000 0.00000 0.00000 -1.00000 0.00000 0.00000 -1.00000 0.00000 0.00000 1.00000 0.00000 0.00000 1.00000 -0.38268 0.92388 0.00000 -0.38268 0.92388 0.00000 0.38268 -0.92388 0.00000 0.38268 -0.92388 0.00000 0.00000 0.00000 -1.00000 0.00000 0.00000 -1.00000 0.00000 0.00000 1.00000 0.00000 0.00000 1.00000 -0.43051 0.90259 0.00000 -0.43051 0.90259 0.00000 0.43051 -0.90259 0.00000 0.43051 -0.90259 0.00000 0.00000 0.00000 -1.00000 0.00000 0.00000 -1.00000 0.00000 0.00000 1.00000 0.00000 0.00000 1.00000 -0.47716 0.87882 0.00000 -0.47716 0.87882 0.00000 0.47716 -0.87882 0.00000 0.47716 -0.87882 0.00000 0.00000 0.00000 -1.00000 0.00000 0.00000 -1.00000 0.00000 0.00000 1.00000 0.00000 0.00000 1.00000 -0.52250 0.85264 0.00000 -0.52250 0.85264 0.00000 0.52250 -0.85264 0.00000 0.52250 -0.85264 0.00000 0.00000 0.00000 -1.00000 0.00000 0.00000 -1.00000 0.00000 0.00000 1.00000 0.00000 0.00000 1.00000 -0.56641 0.82413 0.00000 -0.56641 0.82413 0.00000 0.56641 -0.82413 0.00000 0.56641 -0.82413 0.00000 0.00000 0.00000 -1.00000 0.00000 0.00000 -1.00000 0.00000 0.00000 1.00000 0.00000 0.00000 1.00000 -0.60876 0.79335 0.00000 -0.60876 0.79335 0.00000 0.60876 -0.79335 0.00000 0.60876 -0.79335 0.00000 0.00000 0.00000 -1.00000 0.00000 0.00000 -1.00000 0.00000 0.00000 1.00000 0.00000 0.00000 1.00000 -0.64945 0.76041 0.00000 -0.64945 0.76041 0.00000 0.64945 -0.76041 0.00000 0.64945 -0.76041 0.00000 0.00000 0.00000 -1.00000 0.00000 0.00000 -1.00000 0.00000 0.00000 1.00000 0.00000 0.00000 1.00000 -0.68835 0.72537 0.00000 -0.68835 0.72537 0.00000 0.68835 -0.72537 0.00000 0.68835 -0.72537 0.00000 0.00000 0.00000 -1.00000 0.00000 0.00000 -1.00000 0.00000 0.00000 1.00000 0.00000 0.00000 1.00000 -0.72537 0.68835 0.00000 -0.72537 0.68835 0.00000 0.72537 -0.68835 0.00000 0.72537 -0.68835 0.00000 0.00000 0.00000 -1.00000 0.00000 0.00000 -1.00000 0.00000 0.00000 1.00000 0.00000 0.00000 1.00000 -0.76041 0.64945 0.00000 -0.76041 0.64945 0.00000 0.76041 -0.64945 0.00000 0.76041 -0.64945 0.00000 0.00000 0.00000 -1.00000 0.00000 0.00000 -1.00000 0.00000 0.00000 1.00000 0.00000 0.00000 1.00000 -0.79335 0.60876 0.00000 -0.79335 0.60876 0.00000 0.79335 -0.60876 0.00000 0.79335 -0.60876 0.00000 0.00000 0.00000 -1.00000 0.00000 0.00000 -1.00000 0.00000 0.00000 1.00000 0.00000 0.00000 1.00000 -0.82413 0.56641 0.00000 -0.82413 0.56641 0.00000 0.82413 -0.56641 0.00000 0.82413 -0.56641 0.00000 0.00000 0.00000 -1.00000 0.00000 0.00000 -1.00000 0.00000 0.00000 1.00000 0.00000 0.00000 1.00000 -0.85264 0.52250 0.00000 -0.85264 0.52250 0.00000 0.85264 -0.52250 0.00000 0.85264 -0.52250 0.00000 0.00000 0.00000 -1.00000 0.00000 0.00000 -1.00000 0.00000 0.00000 1.00000 0.00000 0.00000 1.00000 -0.87882 0.47716 0.00000 -0.87882 0.47716 0.00000 0.87882 -0.47716 0.00000 0.87882 -0.47716 0.00000 0.00000 0.00000 -1.00000 0.00000 0.00000 -1.00000 0.00000 0.00000 1.00000 0.00000 0.00000 1.00000 -0.90259 0.43051 0.00000 -0.90259 0.43051 0.00000 0.90259 -0.43051 0.00000 0.90259 -0.43051 0.00000 0.00000 0.00000 -1.00000 0.00000 0.00000 -1.00000 0.00000 0.00000 1.00000 0.00000 0.00000 1.00000 -0.92388 0.38268 0.00000 -0.92388 0.38268 0.00000 0.92388 -0.38268 0.00000 0.92388 -0.38268 0.00000 0.00000 0.00000 -1.00000 0.00000 0.00000 -1.00000 0.00000 0.00000 1.00000 0.00000 0.00000 1.00000 -0.94264 0.33381 0.00000 -0.94264 0.33381 0.00000 0.94264 -0.33381 0.00000 0.94264 -0.33381 0.00000 0.00000 0.00000 -1.00000 0.00000 0.00000 -1.00000 0.00000 0.00000 1.00000 0.00000 0.00000 1.00000 -0.95882 0.28402 0.00000 -0.95882 0.28402 0.00000 0.95882 -0.28402 0.00000 0.95882 -0.28402 0.00000 0.00000 0.00000 -1.00000 0.00000 0.00000 -1.00000 0.00000 0.00000 1.00000 0.00000 0.00000 1.00000 -0.97237 0.23345 0.00000 -0.97237 0.23345 0.00000 0.97237 -0.23345 0.00000 0.97237 -0.23345 0.00000 0.00000 0.00000 -1.00000 0.00000 0.00000 -1.00000 0.00000 0.00000 1.00000 0.00000 0.00000 1.00000 -0.98325 0.18224 0.00000 -0.98325 0.18224 0.00000 0.98325 -0.18224 0.00000 0.98325 -0.18224 0.00000 0.00000 0.00000 -1.00000 0.00000 0.00000 -1.00000 -0.00000 0.00000 1.00000 0.00000 0.00000 1.00000 -0.99144 0.13053 0.00000 -0.99144 0.13053 0.00000 0.99144 -0.13053 0.00000 0.99144 -0.13053 0.00000 0.00000 0.00000 -1.00000 0.00000 0.00000 -1.00000 -0.00000 0.00000 1.00000 0.00000 0.00000 1.00000 -0.99692 0.07846 0.00000 -0.99692 0.07846 0.00000 0.99692 -0.07846 0.00000 0.99692 -0.07846 0.00000 0.00000 0.00000 -1.00000 0.00000 0.00000 -1.00000 -0.00000 0.00000 1.00000 0.00000 0.00000 1.00000 -0.99966 0.02618 0.00000 -0.99966 0.02618 0.00000 0.99966 -0.02618 0.00000 0.99966 -0.02618 0.00000 0.00000 0.00000 -1.00000 -0.00000 0.00000 -1.00000 0.00000 0.00000 1.00000 0.00000 0.00000 1.00000 -0.99966 -0.02618 0.00000 -0.99966 -0.02618 0.00000 0.99966 0.02618 0.00000 0.99966 0.02618 0.00000 0.00000 0.00000 -1.00000 -0.00000 0.00000 -1.00000 0.00000 0.00000 1.00000 -0.00000 0.00000 1.00000 -0.99692 -0.07846 0.00000 -0.99692 -0.07846 0.00000 0.99692 0.07846 0.00000 0.99692 0.07846 0.00000 0.00000 0.00000 -1.00000 -0.00000 0.00000 -1.00000 0.00000 0.00000 1.00000 -0.00000 0.00000 1.00000 -0.99144 -0.13053 0.00000 -0.99144 -0.13053 0.00000 0.99144 0.13053 0.00000 0.99144 0.13053 0.00000 0.00000 0.00000 -1.00000 -0.00000 0.00000 -1.00000 0.00000 0.00000 1.00000 -0.00000 0.00000 1.00000 -0.98325 -0.18224 0.00000 -0.98325 -0.18224 0.00000 0.98325 0.18224 0.00000 0.98325 0.18224 0.00000 0.00000 0.00000 -1.00000 -0.00000 0.00000 -1.00000 0.00000 0.00000 1.00000 -0.00000 0.00000 1.00000 -0.97237 -0.23345 0.00000 -0.97237 -0.23345 0.00000 0.97237 0.23345 0.00000 0.97237 0.23345 0.00000 0.00000 0.00000 -1.00000 -0.00000 0.00000 -1.00000 0.00000 0.00000 1.00000 -0.00000 0.00000 1.00000 -0.95882 -0.28402 0.00000 -0.95882 -0.28402 0.00000 0.95882 0.28402 0.00000 0.95882 0.28402 0.00000 0.00000 0.00000 -1.00000 -0.00000 0.00000 -1.00000 0.00000 0.00000 1.00000 -0.00000 0.00000 1.00000 -0.94264 -0.33381 0.00000 -0.94264 -0.33381 0.00000 0.94264 0.33381 0.00000 0.94264 0.33381 0.00000 0.00000 0.00000 -1.00000 -0.00000 0.00000 -1.00000 0.00000 0.00000 1.00000 -0.00000 0.00000 1.00000 -0.92388 -0.38268 0.00000 -0.92388 -0.38268 0.00000 0.92388 0.38268 0.00000 0.92388 0.38268 0.00000 0.00000 0.00000 -1.00000 -0.00000 0.00000 -1.00000 0.00000 0.00000 1.00000 -0.00000 0.00000 1.00000 -0.90259 -0.43051 0.00000 -0.90259 -0.43051 0.00000 0.90259 0.43051 0.00000 0.90259 0.43051 0.00000 0.00000 0.00000 -1.00000 -0.00000 0.00000 -1.00000 0.00000 0.00000 1.00000 -0.00000 0.00000 1.00000 -0.87882 -0.47716 0.00000 -0.87882 -0.47716 0.00000 0.87882 0.47716 0.00000 0.87882 0.47716 0.00000 0.00000 0.00000 -1.00000 -0.00000 0.00000 -1.00000 0.00000 0.00000 1.00000 -0.00000 0.00000 1.00000 -0.85264 -0.52250 0.00000 -0.85264 -0.52250 0.00000 0.85264 0.52250 0.00000 0.85264 0.52250 0.00000 0.00000 0.00000 -1.00000 -0.00000 0.00000 -1.00000 0.00000 0.00000 1.00000 -0.00000 0.00000 1.00000 -0.82413 -0.56641 0.00000 -0.82413 -0.56641 0.00000 0.82413 0.56641 0.00000 0.82413 0.56641 0.00000 0.00000 0.00000 -1.00000 -0.00000 0.00000 -1.00000 0.00000 0.00000 1.00000 -0.00000 0.00000 1.00000 -0.79335 -0.60876 0.00000 -0.79335 -0.60876 0.00000 0.79335 0.60876 0.00000 0.79335 0.60876 0.00000 0.00000 0.00000 -1.00000 -0.00000 0.00000 -1.00000 0.00000 0.00000 1.00000 -0.00000 0.00000 1.00000 -0.76041 -0.64945 0.00000 -0.76041 -0.64945 0.00000 0.76041 0.64945 0.00000 0.76041 0.64945 0.00000 0.00000 0.00000 -1.00000 -0.00000 0.00000 -1.00000 0.00000 0.00000 1.00000 -0.00000 0.00000 1.00000 -0.72537 -0.68835 0.00000 -0.72537 -0.68835 0.00000 0.72537 0.68835 0.00000 0.72537 0.68835 0.00000 0.00000 0.00000 -1.00000 -0.00000 0.00000 -1.00000 0.00000 0.00000 1.00000 -0.00000 0.00000 1.00000 -0.68835 -0.72537 0.00000 -0.68835 -0.72537 0.00000 0.68835 0.72537 0.00000 0.68835 0.72537 0.00000 0.00000 0.00000 -1.00000 -0.00000 0.00000 -1.00000 0.00000 0.00000 1.00000 -0.00000 0.00000 1.00000 -0.64945 -0.76041 0.00000 -0.64945 -0.76041 0.00000 0.64945 0.76041 0.00000 0.64945 0.76041 0.00000 0.00000 0.00000 -1.00000 -0.00000 0.00000 -1.00000 0.00000 0.00000 1.00000 -0.00000 0.00000 1.00000 -0.60876 -0.79335 0.00000 -0.60876 -0.79335 0.00000 0.60876 0.79335 0.00000 0.60876 0.79335 0.00000 0.00000 0.00000 -1.00000 -0.00000 0.00000 -1.00000 0.00000 0.00000 1.00000 -0.00000 0.00000 1.00000 -0.56641 -0.82413 0.00000 -0.56641 -0.82413 0.00000 0.56641 0.82413 0.00000 0.56641 0.82413 0.00000 0.00000 0.00000 -1.00000 -0.00000 0.00000 -1.00000 0.00000 0.00000 1.00000 -0.00000 0.00000 1.00000 -0.52250 -0.85264 0.00000 -0.52250 -0.85264 0.00000 0.52250 0.85264 0.00000 0.52250 0.85264 0.00000 0.00000 0.00000 -1.00000 -0.00000 0.00000 -1.00000 0.00000 0.00000 1.00000 -0.00000 0.00000 1.00000 -0.47716 -0.87882 0.00000 -0.47716 -0.87882 0.00000 0.47716 0.87882 0.00000 0.47716 0.87882 0.00000 0.00000 0.00000 -1.00000 -0.00000 0.00000 -1.00000 0.00000 0.00000 1.00000 -0.00000 0.00000 1.00000 -0.43051 -0.90259 0.00000 -0.43051 -0.90259 0.00000 0.43051 0.90259 0.00000 0.43051 0.90259 0.00000 0.00000 0.00000 -1.00000 -0.00000 0.00000 -1.00000 0.00000 0.00000 1.00000 -0.00000 0.00000 1.00000 -0.38268 -0.92388 0.00000 -0.38268 -0.92388 0.00000 0.38268 0.92388 0.00000 0.38268 0.92388 0.00000 0.00000 0.00000 -1.00000 -0.00000 0.00000 -1.00000 0.00000 0.00000 1.00000 -0.00000 0.00000 1.00000 -0.33381 -0.94264 0.00000 -0.33381 -0.94264 0.00000 0.33381 0.94264 0.00000 0.33381 0.94264 0.00000 0.00000 0.00000 -1.00000 -0.00000 0.00000 -1.00000 0.00000 0.00000 1.00000 -0.00000 0.00000 1.00000 -0.28402 -0.95882 0.00000 -0.28402 -0.95882 0.00000 0.28402 0.95882 0.00000 0.28402 0.95882 0.00000 0.00000 0.00000 -1.00000 -0.00000 0.00000 -1.00000 0.00000 0.00000 1.00000 -0.00000 0.00000 1.00000 -0.23345 -0.97237 0.00000 -0.23345 -0.97237 0.00000 0.23345 0.97237 0.00000 0.23345 0.97237 0.00000 0.00000 0.00000 -1.00000 -0.00000 0.00000 -1.00000 0.00000 0.00000 1.00000 -0.00000 0.00000 1.00000 -0.18224 -0.98325 0.00000 -0.18224 -0.98325 0.00000 0.18224 0.98325 0.00000 0.18224 0.98325 0.00000 0.00000 0.00000 -1.00000 -0.00000 0.00000 -1.00000 0.00000 -0.00000 1.00000 -0.00000 0.00000 1.00000 -0.13053 -0.99144 0.00000 -0.13053 -0.99144 0.00000 0.13053 0.99144 0.00000 0.13053 0.99144 0.00000 0.00000 0.00000 -1.00000 -0.00000 0.00000 -1.00000 0.00000 -0.00000 1.00000 -0.00000 0.00000 1.00000 -0.07846 -0.99692 0.00000 -0.07846 -0.99692 0.00000 0.07846 0.99692 0.00000 0.07846 0.99692 0.00000 0.00000 0.00000 -1.00000 -0.00000 -0.00000 -1.00000 0.00000 -0.00000 1.00000 -0.00000 0.00000 1.00000 -0.02618 -0.99966 0.00000 -0.02618 -0.99966 0.00000 0.02618 0.99966 0.00000 0.02618 0.99966 0.00000 -0.00000 0.00000 -1.00000 0.00000 -0.00000 -1.00000 0.00000 0.00000 1.00000 0.00000 0.00000 1.00000 0.02618 -0.99966 0.00000 0.02618 -0.99966 0.00000 -0.02618 0.99966 0.00000 -0.02618 0.99966 0.00000 -0.00000 0.00000 -1.00000 0.00000 -0.00000 -1.00000 0.00000 0.00000 1.00000 0.00000 -0.00000 1.00000 0.07846 -0.99692 0.00000 0.07846 -0.99692 0.00000 -0.07846 0.99692 0.00000 -0.07846 0.99692 0.00000 -0.00000 0.00000 -1.00000 0.00000 -0.00000 -1.00000 0.00000 0.00000 1.00000 0.00000 -0.00000 1.00000 0.13053 -0.99144 0.00000 0.13053 -0.99144 0.00000 -0.13053 0.99144 0.00000 -0.13053 0.99144 0.00000 -0.00000 0.00000 -1.00000 0.00000 -0.00000 -1.00000 0.00000 0.00000 1.00000 0.00000 -0.00000 1.00000 0.18224 -0.98325 0.00000 0.18224 -0.98325 0.00000 -0.18224 0.98325 0.00000 -0.18224 0.98325 0.00000 -0.00000 0.00000 -1.00000 0.00000 -0.00000 -1.00000 0.00000 0.00000 1.00000 0.00000 -0.00000 1.00000 0.23345 -0.97237 0.00000 0.23345 -0.97237 0.00000 -0.23345 0.97237 0.00000 -0.23345 0.97237 0.00000 -0.00000 0.00000 -1.00000 0.00000 -0.00000 -1.00000 0.00000 0.00000 1.00000 0.00000 -0.00000 1.00000 0.28402 -0.95882 0.00000 0.28402 -0.95882 0.00000 -0.28402 0.95882 0.00000 -0.28402 0.95882 0.00000 -0.00000 0.00000 -1.00000 0.00000 -0.00000 -1.00000 0.00000 0.00000 1.00000 0.00000 -0.00000 1.00000 0.33381 -0.94264 0.00000 0.33381 -0.94264 0.00000 -0.33381 0.94264 0.00000 -0.33381 0.94264 0.00000 -0.00000 0.00000 -1.00000 0.00000 -0.00000 -1.00000 0.00000 0.00000 1.00000 0.00000 -0.00000 1.00000 0.38268 -0.92388 0.00000 0.38268 -0.92388 0.00000 -0.38268 0.92388 0.00000 -0.38268 0.92388 0.00000 -0.00000 0.00000 -1.00000 0.00000 -0.00000 -1.00000 0.00000 0.00000 1.00000 0.00000 -0.00000 1.00000 0.43051 -0.90259 0.00000 0.43051 -0.90259 0.00000 -0.43051 0.90259 0.00000 -0.43051 0.90259 0.00000 -0.00000 0.00000 -1.00000 0.00000 -0.00000 -1.00000 0.00000 0.00000 1.00000 0.00000 -0.00000 1.00000 0.47716 -0.87882 0.00000 0.47716 -0.87882 0.00000 -0.47716 0.87882 0.00000 -0.47716 0.87882 0.00000 -0.00000 0.00000 -1.00000 0.00000 -0.00000 -1.00000 0.00000 0.00000 1.00000 0.00000 -0.00000 1.00000 0.52250 -0.85264 0.00000 0.52250 -0.85264 0.00000 -0.52250 0.85264 0.00000 -0.52250 0.85264 0.00000 -0.00000 0.00000 -1.00000 0.00000 -0.00000 -1.00000 0.00000 0.00000 1.00000 0.00000 -0.00000 1.00000 0.56641 -0.82413 0.00000 0.56641 -0.82413 0.00000 -0.56641 0.82413 0.00000 -0.56641 0.82413 0.00000 -0.00000 0.00000 -1.00000 0.00000 -0.00000 -1.00000 0.00000 0.00000 1.00000 0.00000 -0.00000 1.00000 0.60876 -0.79335 0.00000 0.60876 -0.79335 0.00000 -0.60876 0.79335 0.00000 -0.60876 0.79335 0.00000 -0.00000 0.00000 -1.00000 0.00000 -0.00000 -1.00000 0.00000 0.00000 1.00000 0.00000 -0.00000 1.00000 0.64945 -0.76041 0.00000 0.64945 -0.76041 0.00000 -0.64945 0.76041 0.00000 -0.64945 0.76041 0.00000 -0.00000 0.00000 -1.00000 0.00000 -0.00000 -1.00000 0.00000 0.00000 1.00000 0.00000 -0.00000 1.00000 0.68835 -0.72537 0.00000 0.68835 -0.72537 0.00000 -0.68835 0.72537 0.00000 -0.68835 0.72537 0.00000 -0.00000 0.00000 -1.00000 0.00000 -0.00000 -1.00000 0.00000 0.00000 1.00000 0.00000 -0.00000 1.00000 0.72537 -0.68835 0.00000 0.72537 -0.68835 0.00000 -0.72537 0.68835 0.00000 -0.72537 0.68835 0.00000 -0.00000 0.00000 -1.00000 0.00000 -0.00000 -1.00000 0.00000 0.00000 1.00000 0.00000 -0.00000 1.00000 0.76041 -0.64945 0.00000 0.76041 -0.64945 0.00000 -0.76041 0.64945 0.00000 -0.76041 0.64945 0.00000 -0.00000 0.00000 -1.00000 0.00000 -0.00000 -1.00000 0.00000 0.00000 1.00000 0.00000 -0.00000 1.00000 0.79335 -0.60876 0.00000 0.79335 -0.60876 0.00000 -0.79335 0.60876 0.00000 -0.79335 0.60876 0.00000 -0.00000 0.00000 -1.00000 0.00000 -0.00000 -1.00000 0.00000 0.00000 1.00000 0.00000 -0.00000 1.00000 0.82413 -0.56641 0.00000 0.82413 -0.56641 0.00000 -0.82413 0.56641 0.00000 -0.82413 0.56641 0.00000 -0.00000 0.00000 -1.00000 0.00000 -0.00000 -1.00000 0.00000 0.00000 1.00000 0.00000 -0.00000 1.00000 0.85264 -0.52250 0.00000 0.85264 -0.52250 0.00000 -0.85264 0.52250 0.00000 -0.85264 0.52250 0.00000 -0.00000 0.00000 -1.00000 0.00000 -0.00000 -1.00000 0.00000 0.00000 1.00000 0.00000 -0.00000 1.00000 0.87882 -0.47716 0.00000 0.87882 -0.47716 0.00000 -0.87882 0.47716 0.00000 -0.87882 0.47716 0.00000 -0.00000 0.00000 -1.00000 0.00000 -0.00000 -1.00000 0.00000 0.00000 1.00000 0.00000 -0.00000 1.00000 0.90259 -0.43051 0.00000 0.90259 -0.43051 0.00000 -0.90259 0.43051 0.00000 -0.90259 0.43051 0.00000 -0.00000 0.00000 -1.00000 0.00000 -0.00000 -1.00000 0.00000 0.00000 1.00000 0.00000 -0.00000 1.00000 0.92388 -0.38268 0.00000 0.92388 -0.38268 0.00000 -0.92388 0.38268 0.00000 -0.92388 0.38268 0.00000 -0.00000 0.00000 -1.00000 0.00000 -0.00000 -1.00000 0.00000 0.00000 1.00000 0.00000 -0.00000 1.00000 0.94264 -0.33381 0.00000 0.94264 -0.33381 0.00000 -0.94264 0.33381 0.00000 -0.94264 0.33381 0.00000 -0.00000 0.00000 -1.00000 0.00000 -0.00000 -1.00000 0.00000 0.00000 1.00000 0.00000 -0.00000 1.00000 0.95882 -0.28402 0.00000 0.95882 -0.28402 0.00000 -0.95882 0.28402 0.00000 -0.95882 0.28402 0.00000 -0.00000 0.00000 -1.00000 0.00000 -0.00000 -1.00000 0.00000 0.00000 1.00000 0.00000 -0.00000 1.00000 0.97237 -0.23345 0.00000 0.97237 -0.23345 0.00000 -0.97237 0.23345 0.00000 -0.97237 0.23345 0.00000 -0.00000 0.00000 -1.00000 0.00000 -0.00000 -1.00000 0.00000 0.00000 1.00000 0.00000 -0.00000 1.00000 0.98325 -0.18224 0.00000 0.98325 -0.18224 0.00000 -0.98325 0.18224 0.00000 -0.98325 0.18224 0.00000 0.00000 0.00000 -1.00000 0.00000 -0.00000 -1.00000 0.00000 0.00000 1.00000 0.00000 -0.00000 1.00000 0.99144 -0.13053 0.00000 0.99144 -0.13053 0.00000 -0.99144 0.13053 0.00000 -0.99144 0.13053 0.00000 0.00000 0.00000 -1.00000 0.00000 -0.00000 -1.00000 0.00000 0.00000 1.00000 0.00000 -0.00000 1.00000 0.99692 -0.07846 0.00000 0.99692 -0.07846 0.00000 -0.99692 0.07846 0.00000 -0.99692 0.07846 0.00000 0.00000 0.00000 -1.00000 0.00000 -0.00000 -1.00000 0.00000 0.00000 1.00000 0.00000 -0.00000 1.00000 0.99966 -0.02618 0.00000 0.99966 -0.02618 0.00000 -0.99966 0.02618 0.00000 -0.99966 0.02618 0.00000</float_array><technique_common><accessor source="#normals-array" count="960" stride="3"><param name="X" type="float"/><param name="Y" type="float"/><param name="Z" type="float"/></accessor></technique_common></source>
<vertices id="vertices"><input semantic="POSITION" source="#positions"/></vertices><triangles count="960"><input semantic="VERTEX" source="#vertices" offset="0"/><input semantic="NORMAL" source="#normals" offset="1"/><p>121 0 120 0 0 0 1 1 121 1 0 1 361 2 241 2 240 2 360 3 361 3 240 3 361 4 360 4 120 4 121 5 361 5 120 5 241 6 1 6 0 6 240 7 241 7 0 7 122 8 121 8 1 8 2 9 122 9 1 9 362 10 242 10 241 10 361 11 362 11 241 11 362 12 361 12 121 12 122 13 362 13 121 13 242 14 2 14 1 14 241 15 242 15 1 15 123 16 122 16 2 16 3 17 123 17 2 17 363 18 243 18 242 18 362 19 363 19 242 19 363 20 362 20 122 20 123 21 363 21 122 21 243 22 3 22 2 22 242 23 243 23 2 23 124 24 123 24 3 24 4 25 124 25 3 25 364 26 244 26 243 26 363 27 364 27 243 27 364 28 363 28 123 28 124 29 364 29 123 29 244 30 4 30 3 30 243 31 244 31 3 31 125 32 124 32 4 32 5 33 125 33 4 33 365 34 245 34 244 34 364 35 365 35 244 35 365 36 364 36 124 36 125 37 365 37 124 37 245 38 5 38 4 38 244 39 245 39 4 39 126 40 125 40 5 40 6 41 126 41 5 41 366 42 246 42 245 42 365 43 366 43 245 43 366 44 365 44 125 44 126 45 366 45 125 45 246 46 6 46 5 46 245 47 246 47 5 47 127 48 126 48 6 48 7 49 127 49 6 49 367 50 247 50 246 50 366 51 367 51 246 51 367 52 366 52 126 52 127 53 367 53 126 53 247 54 7 54 6 54 246 55 247 55 6 55 128 56 127 56 7 56 8 57 128 57 7 57 368 58 248 58 247 58 367 59 368 59 247 59 368 60 367 60 127 60 128 61 368 61 127 61 248 62 8 62 7 62 247 63 248 63 7 63 129 64 128 64 8 64 9 65 129 65 8 65 369 66 249 66 248 66 368 67 369 67 248 67 369 68 368 68 128 68 129 69 369 69 128 69 249 70 9 70 8 70 248 71 249 71 8 71 130 72 129 72 9 72 10 73 130 73 9 73 370 74 250 74 249 74 369 75 370 75 249 75 370 76 369 76 129 76 130 77 370 77 129 77 250 78 10 78 9 78 249 79 250 79 9 79 131 80 130 80 10 80 11 81 131 81 10 81 371 82 251 82 250 82 370 83 371 83 250 83 371 84 370 84 130 84 131 85 371 85 130 85 251 86 11 86 10 86 250 87 251 87 10 87 132 88 131 88 11 88 12 89 132 89 11 89 372 90 252 90 251 90 371 91 372 91 251 91 372 92 371 92 131 92 132 93 372 93 131 93 252 94 12 94 11 94 251 95 252 95 11 95 133 96 132 96 12 96 13 97 133 97 12 97 373 98 253 98 252 98 372 99 373 99 252 99 373 100 372 100 132 100 133 101 373 101 132 101 253 102 13 102 12 102 252 103 253 103 12 103 134 104 133 104 13 104 14 105 134 105 13 105 374 106 254 106 253 106 373 107 374 107 253 107 374 108 373 108 133 108 134 109 374 109 133 109 254 110 14 110 13 110 253 111 254 111 13 111 135 112 134 112 14 112 15 113 135 113 14 113 375 114 255 114 254 114 374 115 375 115 254 115 375 116 374 116 134 116 135 117 375 117 134 117 255 118 15 118 14 118 254 119 255 119 14 119 136 120 135 120 15 120 16 121 136 121 15 121 376 122 256 122 255 122 375 123 376 123 255 123 376 124 375 124 135 124 136 125 376 125 135 125 256 126 16 126 15 126 255 127 256 127 15 127 137 128 136 128 16 128 17 129 137 129 16 129 377 130 257 130 256 130 376 131 377 131 256 131 377 132 376 132 136 132 137 133 377 133 136 133 257 134 17 134 16 134 256 135 257 135 16 135 138 136 137 136 17 136 18 137 138 137 17 137 378 138 258 138 257 138 377 139 378 139 257 139 378 140 377 140 137 140 138 141 378 141 137 141 258 142 18 142 17 142 257 143 258 143 17 143 139 144 138 144 18 144 19 145 139 145 18 145 379 146 259 146 258 146 378 147 379 147 258 147 379 148 378 148 138 148 139 149 379 149 138 149 259 150 19 150 18 150 258 151 259 151 18 151 140 152 139 152 19 152 20 153 140 153 19 153 380 154 260 154 259 154 379 155 380 155 259 155 380 156 379 156 139 156 140 157 380 157 139 157 260 158 20 158 19 158 259 159 260 159 19 159 141 160 140 160 20 160 21 161 141 161 20 161 381 162 261 162 260 162 380 163 381 163 260 163 381 164 380 164 140 164 141 165 381 165 140 165 261 166 21 166 20 166 260 167 261 167 20 167 142 168 141 168 21 168 22 169 142 169 21 169 382 170 262 170 261 170 381 171 382 171 261 171 382 172 381 172 141 172 142 173 382 173 141 173 262 174 22 174 21 174 261 175 262 175 21 175 143 176 142 176 22 176 23 177 143 177 22 177 383 178 263 178 262 178 382 179 383 179 262 179 383 180 382 180 142 180 143 181 383 181 142 181 263 182 23 182 22 182 262 183 263 183 22 183 144 184 143 184 23 184 24 185 144 185 23 185 384 186 264 186 263 186 383 187 384 187 263 187 384 188 383 188 143 188 144 189 384 189 143 189 264 190 24 190 23 190 263 191 264 191 23 191 145 192 144 192 24 192 25 193 145 193 24 193 385 194 265 194 264 194 384 195 385 195 264 195 385 196 384 196 144 196 145 197 385 197 144 197 265 198 25 198 24 198 264 199 265 199 24 199 146 200 145 200 25 200 26 201 146 201 25 201 386 202 266 202 265 202 385 203 386 203 265 203 386 204 385 204 145 204 146 205 386 205 145 205 266 206 26 206 25 206 265 207 266 207 25 207 147 208 146 208 26 208 27 209 147 209 26 209 387 210 267 210 266 210 386 211 387 211 266 211 387 212 386 212 146 212 147 213 387 213 146 213 267 214 27 214 26 214 266 215 267 215 26 215 148 216 147 216 27 216 28 217 148 217 27 217 388 218 268 218 267 218 387 219 388 219 267 219 388 220 387 220 147 220 148 221 388 221 147 221 268 222 28 222 27 222 267 223 268 223 27 223 149 224 148 224 28 224 29 225 149 225 28 225 389 226 269 226 268 226 388 227 389 227 268 227 389 228 388 228 148 228 149 229 389 229 148 229 269 230 29 230 28 230 268 231 269 231 28 231 150 232 149 232 29 232 30 233 150 233 29 233 390 234 270 234 269 234 389 235 390 235 269 235 390 236 389 236 149 236 150 237 390 237 149 237 270 238 30 238 29 238 269 239 270 239 29 239 151 240 150 240 30 240 31 241 151 241 30 241 391 242 271 242 270 242 390 243 391 243 270 243 391 244 390 244 150 244 151 245 391 245 150 245 271 246 31 246 30 246 270 247 271 247 30 247 152 248 151 248 31 248 32 249 152 249 31 249 392 250 272 250 271 250 391 251 392 251 271 251 392 252 391 252 151 252 152 253 392 253 151 253 272 254 32 254 31 254 271 255 272 255 31 255 153 256 152 256 32 256 33 257 153 257 32 257 393 258 273 258 272 258 392 259 393 259 272 259 393 260 392 260 152 260 153 261 393 261 152 261 273 262 33 262 32 262 272 263 273 263 32 263 154 264 153 264 33 264 34 265 154 265 33 265 394 266 274 266 273 266 393 267 394 267 273 267 394 268 393 268 153 268 154 269 394 269 153 269 274 270 34 270 33 270 273 271 274 271 33 271 155 272 154 272 34 272 35 273 155 273 34 273 395 274 275 274 274 274 394 275 395 275 274 275 395 276 394 276 154 276 155 277 395 277 154 277 275 278 35 278 34 278 274 279 275 279 34 279 156 280 155 280 35 280 36 281 156 281 35 281 396 282 276 282 275 282 395 283 396 283 275 283 396 284 395 284 155 284 156 285 396 285 155 285 276 286 36 286 35 286 275 287 276 287 35 287 157 288 156 288 36 288 37 289 157 289 36 289 397 290 277 290 276 290 396 291 397 291 276 291 397 292 396 292 156 292 157 293 397 293 156 293 277 294 37 294 36 294 276 295 277 295 36 295 158 296 157 296 37 296 38 297 158 297 37 297 398 298 278 298 277 298 397 299 398 299 277 299 398 300 397 300 157 300 158 301 398 301 157 301 278 302 38 302 37 302 277 303 278 303 37 303 159 304 158 304 38 304 39 305 159 305 38 305 399 306 279 306 278 306 398 307 399 307 278 307 399 308 398 308 158 308 159 309 399 309 158 309 279 310 39 310 38 310 278 311 279 311 38 311 160 312 159 312 39 312 40 313 160 313 39 313 400 314 280 314 279 314 399 315 400 315 279 315 400 316 399 316 159 316 160 317 400 317 159 317 280 318 40 318 39 318 279 319 280 319 39 319 161 320 160 320 40 320 41 321 161 321 40 321 401 322 281 322 280 322 400 323 401 323 280 323 401 324 400 324 160 324 161 325 401 325 160 325 281 326 41 326 40 326 280 327 281 327 40 327 162 328 161 328 41 328 42 329 162 329 41 329 402 330 282 330 281 330 401 331 402 331 281 331 402 332 401 332 161 332 162 333 402 333 161 333 282 334 42 334 41 334 281 335 282 335 41 335 163 336 162 336 42 336 43 337 163 337 42 337 403 338 283 338 282 338 402 339 403 339 282 339 403 340 402 340 162 340 163 341 403 341 162 341 283 342 43 342 42 342 282 343 283 343 42 343 164 344 163 344 43 344 44 345 164 345 43 345 404 346 284 346 283 346 403 347 404 347 283 347 404 348 403 348 163 348 164 349 404 349 163 349 284 350 44 350 43 350 283 351 284 351 43 351 165 352 164 352 44 352 45 353 165 353 44 353 405 354 285 354 284 354 404 355 405 355 284 355 405 356 404 356 164 356 165 357 405 357 164 357 285 358 45 358 44 358 284 359 285 359 44 359 166 360 165 360 45 360 46 361 166 361 45 361 406 362 286 362 285 362 405 363 406 363 285 363 406 364 405 364 165 364 166 365 406 365 165 365 286 366 46 366 45 366 285 367 286 367 45 367 167 368 166 368 46 368 47 369 167 369 46 369 407 370 287 370 286 370 406 371 407 371 286 371 407 372 406 372 166 372 167 373 407 373 166 373 287 374 47 374 46 374 286 375 287 375 46 375 168 376 167 376 47 376 48 377 168 377 47 377 408 378 288 378 287 378 407 379 408 379 287 379 408 380 407 380 167 380 168 381 408 381 167 381 288 382 48 382 47 382 287 383 288 383 47 383 169 384 168 384 48 384 49 385 169 385 48 385 409 386 289 386 288 386 408 387 409 387 288 387 409 388 408 388 168 388 169 389 409 389 168 389 289 390 49 390 48 390 288 391 289 391 48 391 170 392 169 392 49 392 50 393 170 393 49 393 410 394 290 394 289 394 409 395 410 395 289 395 410 396 409 396 169 396 170 397 410 397 169 397 290 398 50 398 49 398 289 399 290 399 49 399 171 400 170 400 50 400 51 401 171 401 50 401 411 402 291 402 290 402 410 403 411 403 290 403 411 404 410 404 170 404 171 405 411 405 170 405 291 406 51 406 50 406 290 407 291 407 50 407 172 408 171 408 51 408 52 409 172 409 51 409 412 410 292 410 291 410 411 411 412 411 291 411 412 412 411 412 171 412 172 413 412 413 171 413 292 414 52 414 51 414 291 415 292 415 51 415 173 416 172 416 52 416 53 417 173 417 52 417 413 418 293 418 292 418 412 419 413 419 292 419 413 420 412 420 172 420 173 421 413 421 172 421 293 422 53 422 52 422 292 423 293 423 52 423 174 424 173 424 53 424 54 425 174 425 53 425 414 426 294 426 293 426 413 427 414 427 293 427 414 428 413 428 173 428 174 429 414 429 173 429 294 430 54 430 53 430 293 431 294 431 53 431 175 432 174 432 54 432 55 433 175 433 54 433 415 434 295 434 294 434 414 435 415 435 294 435 415 436 414 436 174 436 175 437 415 437 174 437 295 438 55 438 54 438 294 439 295 439 54 439 176 440 175 440 55 440 56 441 176 441 55 441 416 442 296 442 295 442 415 443 416 443 295 443 416 444 415 444 175 444 176 445 416 445 175 445 296 446 56 446 55 446 295 447 296 447 55 447 177 448 176 448 56 448 57 449 177 449 56 449 417 450 297 450 296 450 416 451 417 451 296 451 417 452 416 452 176 452 177 453 417 453 176 453 297 454 57 454 56 454 296 455 297 455 56 455 178 456 177 456 57 456 58 457 178 457 57 457 418 458 298 458 297 458 417 459 418 459 297 459 418 460 417 460 177 460 178 461 418 461 177 461 298 462 58 462 57 462 297 463 298 463 57 463 179 464 178 464 58 464 59 465 179 465 58 465 419 466 299 466 298 466 418 467 419 467 298 467 419 468 418 468 178 468 179 469 419 469 178 469 299 470 59 470 58 470 298 471 299 471 58 471 180 472 179 472 59 472 60 473 180 473 59 473 420 474 300 474 299 474 419 475 420 475 299 475 420 476 419 476 179 476 180 477 420 477 179 477 300 478 60 478 59 478 299 479 300 479 59 479 181 480 180 480 60 480 61 481 181 481 60 481 421 482 301 482 300 482 420 483 421 483 300 483 421 484 420 484 180 484 181 485 421 485 180 485 301 486 61 486 60 486 300 487 301 487 60 487 182 488 181 488 61 488 62 489 182 489 61 489 422 490 302 490 301 490 421 491 422 491 301 491 422 492 421 492 181 492 182 493 422 493 181 493 302 494 62 494 61 494 301 495 302 495 61 495 183 496 182 496 62 496 63 497 183 497 62 497 423 498 303 498 302 498 422 499 423 499 302 499 423 500 422 500 182 500 183 501 423 501 182 501 303 502 63 502 62 502 302 503 303 503 62 503 184 504 183 504 63 504 64 505 184 505 63 505 424 506 304 506 303 506 423 507 424 507 303 507 424 508 423 508 183 508 184 509 424 509 183 509 304 510 64 510 63 510 303 511 304 511 63 511 185 512 184 512 64 512 65 513 185 513 64 513 425 514 305 514 304 514 424 515 425 515 304 515 425 516 424 516 184 516 185 517 425 517 184 517 305 518 65 518 64 518 304 519 305 519 64 519 186 520 185 520 65 520 66 521 186 521 65 521 426 522 306 522 305 522 425 523 426 523 305 523 426 524 425 524 185 524 186 525 426 525 185 525 306 526 66 526 65 526 305 527 306 527 65 527 187 528 186 528 66 528 67 529 187 529 66 529 427 530 307 530 306 530 426 531 427 531 306 531 427 532 426 532 186 532 187 533 427 533 186 533 307 534 67 534 66 534 306 535 307 535 66 535 188 536 187 536 67 536 68 537 188 537 67 537 428 538 308 538 307 538 427 539 428 539 307 539 428 540 427 540 187 540 188 541 428 541 187 541 308 542 68 542 67 542 307 543 308 543 67 543 189 544 188 544 68 544 69 545 189 545 68 545 429 546 309 546 308 546 428 547 429 547 308 547 429 548 428 548 188 548 189 549 429 549 188 549 309 550 69 550 68 550 308 551 309 551 68 551 190 552 189 552 69 552 70 553 190 553 69 553 430 554 310 554 309 554 429 555 430 555 309 555 430 556 429 556 189 556 190 557 430 557 189 557 310 558 70 558 69 558 309 559 310 559 69 559 191 560 190 560 70 560 71 561 191 561 70 561 431 562 311 562 310 562 430 563 431 563 310 563 431 564 430 564 190 564 191 565 431 565 190 565 311 566 71 566 70 566 310 567 311 567 70 567 192 568 191 568 71 568 72 569 192 569 71 569 432 570 312 570 311 570 431 571 432 571 311 571 432 572 431 572 191 572 192 573 432 573 191 573 312 574 72 574 71 574 311 575 312 575 71 575 193 576 192 576 72 576 73 577 193 577 72 577 433 578 313 578 312 578 432 579 433 579 312 579 433 580 432 580 192 580 193 581 433 581 192 581 313 582 73 582 72 582 312 583 313 583 72 583 194 584 193 584 73 584 74 585 194 585 73 585 434 586 314 586 313 586 433 587 434 587 313 587 434 588 433 588 193 588 194 589 434 589 193 589 314 590 74 590 73 590 313 591 314 591 73 591 195 592 194 592 74 592 75 593 195 593 74 593 435 594 315 594 314 594 434 595 435 595 314 595 435 596 434 596 194 596 195 597 435 597 194 597 315 598 75 598 74 598 314 599 315 599 74 599 196 600 195 600 75 600 76 601 196 601 75 601 436 602 316 602 315 602 435 603 436 603 315 603 436 604 435 604 195 604 196 605 436 605 195 605 316 606 76 606 75 606 315 607 316 607 75 607 197 608 196 608 76 608 77 609 197 609 76 609 437 610 317 610 316 610 436 611 437 611 316 611 437 612 436 612 196 612 197 613 437 613 196 613 317 614 77 614 76 614 316 615 317 615 76 615 198 616 197 616 77 616 78 617 198 617 77 617 438 618 318 618 317 618 437 619 438 619 317 619 438 620 437 620 197 620 198 621 438 621 197 621 318 622 78 622 77 622 317 623 318 623 77 623 199 624 198 624 78 624 79 625 199 625 78 625 439 626 319 626 318 626 438 627 439 627 318 627 439 628 438 628 198 628 199 629 439 629 198 629 319 630 79 630 78 630 318 631 319 631 78 631 200 632 199 632 79 632 80 633 200 633 79 633 440 634 320 634 319 634 439 635 440 635 319 635 440 636 439 636 199 636 200 637 440 637 199 637 320 638 80 638 79 638 319 639 320 639 79 639 201 640 200 640 80 640 81 641 201 641 80 641 441 642 321 642 320 642 440 643 441 643 320 643 441 644 440 644 200 644 201 645 441 645 200 645 321 646 81 646 80 646 320 647 321 647 80 647 202 648 201 648 81 648 82 649 202 649 81 649 442 650 322 650 321 650 441 651 442 651 321 651 442 652 441 652 201 652 202 653 442 653 201 653 322 654 82 654 81 654 321 655 322 655 81 655 203 656 202 656 82 656 83 657 203 657 82 657 443 658 323 658 322 658 442 659 443 659 322 659 443 660 442 660 202 660 203 661 443 661 202 661 323 662 83 662 82 662 322 663 323 663 82 663 204 664 203 664 83 664 84 665 204 665 83 665 444 666 324 666 323 666 443 667 444 667 323 667 444 668 443 668 203 668 204 669 444 669 203 669 324 670 84 670 83 670 323 671 324 671 83 671 205 672 204 672 84 672 85 673 205 673 84 673 445 674 325 674 324 674 444 675 445 675 324 675 445 676 444 676 204 676 205 677 445 677 204 677 325 678 85 678 84 678 324 679 325 679 84 679 206 680 205 680 85 680 86 681 206 681 85 681 446 682 326 682 325 682 445 683 446 683 325 683 446 684 445 684 205 684 206 685 446 685 205 685 326 686 86 686 85 686 325 687 326 687 85 687 207 688 206 688 86 688 87 689 207 689 86 689 447 690 327 690 326 690 446 691 447 691 326 691 447 692 446 692 206 692 207 693 447 693 206 693 327 694 87 694 86 694 326 695 327 695 86 695 208 696 207 696 87 696 88 697 208 697 87 697 448 698 328 698 327 698 447 699 448 699 327 699 448 700 447 700 207 700 208 701 448 701 207 701 328 702 88 702 87 702 327 703 328 703 87 703 209 704 208 704 88 704 89 705 209 705 88 705 449 706 329 706 328 706 448 707 449 707 328 707 449 708 448 708 208 708 209 709 449 709 208 709 329 710 89 710 88 710 328 711 329 711 88 711 210 712 209 712 89 712 90 713 210 713 89 713 450 714 330 714 329 714 449 715 450 715 329 715 450 716 449 716 209 716 210 717 450 717 209 717 330 718 90 718 89 718 329 719 330 719 89 719 211 720 210 720 90 720 91 721 211 721 90 721 451 722 331 722 330 722 450 723 451 723 330 723 451 724 450 724 210 724 211 725 451 725 210 725 331 726 91 726 90 726 330 727 331 727 90 727 212 728 211 728 91 728 92 729 212 729 91 729 452 730 332 730 331 730 451 731 452 731 331 731 452 732 451 732 211 732 212 733 452 733 211 733 332 734 92 734 91 734 331 735 332 735 91 735 213 736 212 736 92 736 93 737 213 737 92 737 453 738 333 738 332 738 452 739 453 739 332 739 453 740 452 740 212 740 213 741 453 741 212 741 333 742 93 742 92 742 332 743 333 743 92 743 214 744 213 744 93 744 94 745 214 745 93 745 454 746 334 746 333 746 453 747 454 747 333 747 454 748 453 748 213 748 214 749 454 749 213 749 334 750 94 750 93 750 333 751 334 751 93 751 215 752 214 752 94 752 95 753 215 753 94 753 455 754 335 754 334 754 454 755 455 755 334 755 455 756 454 756 214 756 215 757 455 757 214 757 335 758 95 758 94 758 334 759 335 759 94 759 216 760 215 760 95 760 96 761 216 761 95 761 456 762 336 762 335 762 455 763 456 763 335 763 456 764 455 764 215 764 216 765 456 765 215 765 336 766 96 766 95 766 335 767 336 767 95 767 217 768 216 768 96 768 97 769 217 769 96 769 457 770 337 770 336 770 456 771 457 771 336 771 457 772 456 772 216 772 217 773 457 773 216 773 337 774 97 774 96 774 336 775 337 775 96 775 218 776 217 776 97 776 98 777 218 777 97 777 458 778 338 778 337 778 457 779 458 779 337 779 458 780 457 780 217 780 218 781 458 781 217 781 338 782 98 782 97 782 337 783 338 783 97 783 219 784 218 784 98 784 99 785 219 785 98 785 459 786 339 786 338 786 458 787 459 787 338 787 459 788 458 788 218 788 219 789 459 789 218 789 339 790 99 790 98 790 338 791 339 791 98 791 220 792 219 792 99 792 100 793 220 793 99 793 460 794 340 794 339 794 459 795 460 795 339 795 460 796 459 796 219 796 220 797 460 797 219 797 340 798 100 798 99 798 339 799 340 799 99 799 221 800 220 800 100 800 101 801 221 801 100 801 461 802 341 802 340 802 460 803 461 803 340 803 461 804 460 804 220 804 221 805 461 805 220 805 341 806 101 806 100 806 340 807 341 807 100 807 222 808 221 808 101 808 102 809 222 809 101 809 462 810 342 810 341 810 461 811 462 811 341 811 462 812 461 812 221 812 222 813 462 813 221 813 342 814 102 814 101 814 341 815 342 815 101 815 223 816 222 816 102 816 103 817 223 817 102 817 463 818 343 818 342 818 462 819 463 819 342 819 463 820 462 820 222 820 223 821 463 821 222 821 343 822 103 822 102 822 342 823 343 823 102 823 224 824 223 824 103 824 104 825 224 825 103 825 464 826 344 826 343 826 463 827 464 827 343 827 464 828 463 828 223 828 224 829 464 829 223 829 344 830 104 830 103 830 343 831 344 831 103 831 225 832 224 832 104 832 105 833 225 833 104 833 465 834 345 834 344 834 464 835 465 835 344 835 465 836 464 836 224 836 225 837 465 837 224 837 345 838 105 838 104 838 344 839 345 839 104 839 226 840 225 840 105 840 106 841 226 841 105 841 466 842 346 842 345 842 465 843 466 843 345 843 466 844 465 844 225 844 226 845 466 845 225 845 346 846 106 846 105 846 345 847 346 847 105 847 227 848 226 848 106 848 107 849 227 849 106 849 467 850 347 850 346 850 466 851 467 851 346 851 467 852 466 852 226 852 227 853 467 853 226 853 347 854 107 854 106 854 346 855 347 855 106 855 228 856 227 856 107 856 108 857 228 857 107 857 468 858 348 858 347 858 467 859 468 859 347 859 468 860 467 860 227 860 228 861 468 861 227 861 348 862 108 862 107 862 347 863 348 863 107 863 229 864 228 864 108 864 109 865 229 865 108 865 469 866 349 866 348 866 468 867 469 867 348 867 469 868 468 868 228 868 229 869 469 869 228 869 349 870 109 870 108 870 348 871 349 871 108 871 230 872 229 872 109 872 110 873 230 873 109 873 470 874 350 874 349 874 469 875 470 875 349 875 470 876 469 876 229 876 230 877 470 877 229 877 350 878 110 878 109 878 349 879 350 879 109 879 231 880 230 880 110 880 111 881 231 881 110 881 471 882 351 882 350 882 470 883 471 883 350 883 471 884 470 884 230 884 231 885 471 885 230 885 351 886 111 886 110 886 350 887 351 887 110 887 232 888 231 888 111 888 112 889 232 889 111 889 472 890 352 890 351 890 471 891 472 891 351 891 472 892 471 892 231 892 232 893 472 893 231 893 352 894 112 894 111 894 351 895 352 895 111 895 233 896 232 896 112 896 113 897 233 897 112 897 473 898 353 898 352 898 472 899 473 899 352 899 473 900 472 900 232 900 233 901 473 901 232 901 353 902 113 902 112 902 352 903 353 903 112 903 234 904 233 904 113 904 114 905 234 905 113 905 474 906 354 906 353 906 473 907 474 907 353 907 474 908 473 908 233 908 234 909 474 909 233 909 354 910 114 910 113 910 353 911 354 911 113 911 235 912 234 912 114 912 115 913 235 913 114 913 475 914 355 914 354 914 474 915 475 915 354 915 475 916 474 916 234 916 235 917 475 917 234 917 355 918 115 918 114 918 354 919 355 919 114 919 236 920 235 920 115 920 116 921 236 921 115 921 476 922 356 922 355 922 475 923 476 923 355 923 476 924 475 924 235 924 236 925 476 925 235 925 356 926 116 926 115 926 355 927 356 927 115 927 237 928 236 928 116 928 117 929 237 929 116 929 477 930 357 930 356 930 476 931 477 931 356 931 477 932 476 932 236 932 237 933 477 933 236 933 357 934 117 934 116 934 356 935 357 935 116 935 238 936 237 936 117 936 118 937 238 937 117 937 478 938 358 938 357 938 477 939 478 939 357 939 478 940 477 940 237 940 238 941 478 941 237 941 358 942 118 942 117 942 357 943 358 943 117 943 239 944 238 944 118 944 119 945 239 945 118 945 479 946 359 946 358 946 478 947 479 947 358 947 479 948 478 948 238 948 239 949 479 949 238 949 359 950 119 950 118 950 358 951 359 951 118 951 120 952 239 952 119 952 0 953 120 953 119 953 360 954 240 954 359 954 479 955 360 955 359 955 360 956 479 956 239 956 120 957 360 957 239 957 240 958 0 958 119 958 359 959 240 959 119 959</p></triangles>
</mesh></geometry></library_geometries><library_visual_scenes><visual_scene id="Scene"><node id="mesh"><instance_geometry url="#geometry"/></node></visual_scene></library_visual_scenes><scene><instance_visual_scene url="#Scene"/></scene></COLLADA>