<?xml version="1.0" encoding="UTF-8"?>
<COLLADA xmlns="http://www.collada.org/2005/11/COLLADASchema" version="1.4.1">
<asset><contributor><authoring_tool>Summit Estate procedural mesh exporter</authoring_tool></contributor><created>2026-09-11T00:00:00Z</created><modified>2026-09-11T00:00:00Z</modified><unit name="meter" meter="1"/><up_axis>Z_UP</up_axis></asset>
<library_geometries><geometry id="geometry" name="geometry"><mesh>
<source id="positions"><float_array id="positions-array" count="1182">78.00000 58.00000 84.76000 78.18369 58.00000 84.80872 78.16971 58.07029 84.80872 78.12989 58.12989 84.80872 78.07029 58.16971 84.80872 78.00000 58.18369 84.80872 77.92971 58.16971 84.80872 77.87011 58.12989 84.80872 77.83029 58.07029 84.80872 77.81631 58.00000 84.80872 77.83029 57.92971 84.80872 77.87011 57.87011 84.80872 77.92971 57.83029 84.80872 78.00000 57.81631 84.80872 78.07029 57.83029 84.80872 78.12989 57.87011 84.80872 78.16971 57.92971 84.80872 78.33941 58.00000 84.94745 78.31358 58.12989 84.94745 78.24000 58.24000 84.94745 78.12989 58.31358 84.94745 78.00000 58.33941 84.94745 77.87011 58.31358 84.94745 77.76000 58.24000 84.94745 77.68642 58.12989 84.94745 77.66059 58.00000 84.94745 77.68642 57.87011 84.94745 77.76000 57.76000 84.94745 77.87011 57.68642 84.94745 78.00000 57.66059 84.94745 78.12989 57.68642 84.94745 78.24000 57.76000 84.94745 78.31358 57.87011 84.94745 78.44346 58.00000 85.15508 78.40971 58.16971 85.15508 78.31358 58.31358 85.15508 78.16971 58.40971 85.15508 78.00000 58.44346 85.15508 77.83029 58.40971 85.15508 77.68642 58.31358 85.15508 77.59029 58.16971 85.15508 77.55654 58.00000 85.15508 77.59029 57.83029 85.15508 77.68642 57.68642 85.15508 77.83029 57.59029 85.15508 78.00000 57.55654 85.15508 78.16971 57.59029 85.15508 78.31358 57.68642 85.15508 78.40971 57.83029 85.15508 78.48000 58.00000 85.40000 78.44346 58.18369 85.40000 78.33941 58.33941 85.40000 78.18369 58.44346 85.40000 78.00000 58.48000 85.40000 77.81631 58.44346 85.40000 77.66059 58.33941 85.40000 77.55654 58.18369 85.40000 77.52000 58.00000 85.40000 77.55654 57.81631 85.40000 77.66059 57.66059 85.40000 77.81631 57.55654 85.40000 78.00000 57.52000 85.40000 78.18369 57.55654 85.40000 78.33941 57.66059 85.40000 78.44346 57.81631 85.40000 78.44346 58.00000 85.64492 78.40971 58.16971 85.64492 78.31358 58.31358 85.64492 78.16971 58.40971 85.64492 78.00000 58.44346 85.64492 77.83029 58.40971 85.64492 77.68642 58.31358 85.64492 77.59029 58.16971 85.64492 77.55654 58.00000 85.64492 77.59029 57.83029 85.64492 77.68642 57.68642 85.64492 77.83029 57.59029 85.64492 78.00000 57.55654 85.64492 78.16971 57.59029 85.64492 78.31358 57.68642 85.64492 78.40971 57.83029 85.64492 78.33941 58.00000 85.85255 78.31358 58.12989 85.85255 78.24000 58.24000 85.85255 78.12989 58.31358 85.85255 78.00000 58.33941 85.85255 77.87011 58.31358 85.85255 77.76000 58.24000 85.85255 77.68642 58.12989 85.85255 77.66059 58.00000 85.85255 77.68642 57.87011 85.85255 77.76000 57.76000 85.85255 77.87011 57.68642 85.85255 78.00000 57.66059 85.85255 78.12989 57.68642 85.85255 78.24000 57.76000 85.85255 78.31358 57.87011 85.85255 78.18369 58.00000 85.99128 78.16971 58.07029 85.99128 78.12989 58.12989 85.99128 78.07029 58.16971 85.99128 78.00000 58.18369 85.99128 77.92971 58.16971 85.99128 77.87011 58.12989 85.99128 77.83029 58.07029 85.99128 77.81631 58.00000 85.99128 77.83029 57.92971 85.99128 77.87011 57.87011 85.99128 77.92971 57.83029 85.99128 78.00000 57.81631 85.99128 78.07029 57.83029 85.99128 78.12989 57.87011 85.99128 78.16971 57.92971 85.99128 78.00000 58.00000 86.04000 87.25000 58.00000 81.28000 87.35392 58.00000 81.35500 87.30196 58.09000 81.35500 87.19804 58.09000 81.35500 87.14608 58.00000 81.35500 87.19804 57.91000 81.35500 87.30196 57.91000 81.35500 87.35392 58.00000 81.50500 87.30196 58.09000 81.50500 87.19804 58.09000 81.50500 87.14608 58.00000 81.50500 87.19804 57.91000 81.50500 87.30196 57.91000 81.50500 87.25000 58.00000 81.58000 86.79727 60.85841 81.28000 86.90120 60.85841 81.35500 86.84923 60.94841 81.35500 86.74531 60.94841 81.35500 86.69335 60.85841 81.35500 86.74531 60.76841 81.35500 86.84923 60.76841 81.35500 86.90120 60.85841 81.50500 86.84923 60.94841 81.50500 86.74531 60.94841 81.50500 86.69335 60.85841 81.50500 86.74531 60.76841 81.50500 86.84923 60.76841 81.50500 86.79727 60.85841 81.58000 85.48341 63.43701 81.28000 85.58733 63.43701 81.35500 85.53537 63.52701 81.35500 85.43145 63.52701 81.35500 85.37948 63.43701 81.35500 85.43145 63.34701 81.35500 85.53537 63.34701 81.35500 85.58733 63.43701 81.50500 85.53537 63.52701 81.50500 85.43145 63.52701 81.50500 85.37948 63.43701 81.50500 85.43145 63.34701 81.50500 85.53537 63.34701 81.50500 85.48341 63.43701 81.58000 83.43701 65.48341 81.28000 83.54094 65.48341 81.35500 83.48898 65.57341 81.35500 83.38505 65.57341 81.35500 83.33309 65.48341 81.35500 83.38505 65.39341 81.35500 83.48898 65.39341 81.35500 83.54094 65.48341 81.50500 83.48898 65.57341 81.50500 83.38505 65.57341 81.50500 83.33309 65.48341 81.50500 83.38505 65.39341 81.50500 83.48898 65.39341 81.50500 83.43701 65.48341 81.58000 80.85841 66.79727 81.28000 80.96233 66.79727 81.35500 80.91037 66.88727 81.35500 80.80645 66.88727 81.35500 80.75448 66.79727 81.35500 80.80645 66.70727 81.35500 80.91037 66.70727 81.35500 80.96233 66.79727 81.50500 80.91037 66.88727 81.50500 80.80645 66.88727 81.50500 80.75448 66.79727 81.50500 80.80645 66.70727 81.50500 80.91037 66.70727 81.50500 80.85841 66.79727 81.58000 78.00000 67.25000 81.28000 78.10392 67.25000 81.35500 78.05196 67.34000 81.35500 77.94804 67.34000 81.35500 77.89608 67.25000 81.35500 77.94804 67.16000 81.35500 78.05196 67.16000 81.35500 78.10392 67.25000 81.50500 78.05196 67.34000 81.50500 77.94804 67.34000 81.50500 77.89608 67.25000 81.50500 77.94804 67.16000 81.50500 78.05196 67.16000 81.50500 78.00000 67.25000 81.58000 75.14159 66.79727 81.28000 75.24552 66.79727 81.35500 75.19355 66.88727 81.35500 75.08963 66.88727 81.35500 75.03767 66.79727 81.35500 75.08963 66.70727 81.35500 75.19355 66.70727 81.35500 75.24552 66.79727 81.50500 75.19355 66.88727 81.50500 75.08963 66.88727 81.50500 75.03767 66.79727 81.50500 75.08963 66.70727 81.50500 75.19355 66.70727 81.50500 75.14159 66.79727 81.58000 72.56299 65.48341 81.28000 72.66691 65.48341 81.35500 72.61495 65.57341 81.35500 72.51102 65.57341 81.35500 72.45906 65.48341 81.35500 72.51102 65.39341 81.35500 72.61495 65.39341 81.35500 72.66691 65.48341 81.50500 72.61495 65.57341 81.50500 72.51102 65.57341 81.50500 72.45906 65.48341 81.50500 72.51102 65.39341 81.50500 72.61495 65.39341 81.50500 72.56299 65.48341 81.58000 70.51659 63.43701 81.28000 70.62052 63.43701 81.35500 70.56855 63.52701 81.35500 70.46463 63.52701 81.35500 70.41267 63.43701 81.35500 70.46463 63.34701 81.35500 70.56855 63.34701 81.35500 70.62052 63.43701 81.50500 70.56855 63.52701 81.50500 70.46463 63.52701 81.50500 70.41267 63.43701 81.50500 70.46463 63.34701 81.50500 70.56855 63.34701 81.50500 70.51659 63.43701 81.58000 69.20273 60.85841 81.28000 69.30665 60.85841 81.35500 69.25469 60.94841 81.35500 69.15077 60.94841 81.35500 69.09880 60.85841 81.35500 69.15077 60.76841 81.35500 69.25469 60.76841 81.35500 69.30665 60.85841 81.50500 69.25469 60.94841 81.50500 69.15077 60.94841 81.50500 69.09880 60.85841 81.50500 69.15077 60.76841 81.50500 69.25469 60.76841 81.50500 69.20273 60.85841 81.58000 68.75000 58.00000 81.28000 68.85392 58.00000 81.35500 68.80196 58.09000 81.35500 68.69804 58.09000 81.35500 68.64608 58.00000 81.35500 68.69804 57.91000 81.35500 68.80196 57.91000 81.35500 68.85392 58.00000 81.50500 68.80196 58.09000 81.50500 68.69804 58.09000 81.50500 68.64608 58.00000 81.50500 68.69804 57.91000 81.50500 68.80196 57.91000 81.50500 68.75000 58.00000 81.58000 69.20273 55.14159 81.28000 69.30665 55.14159 81.35500 69.25469 55.23159 81.35500 69.15077 55.23159 81.35500 69.09880 55.14159 81.35500 69.15077 55.05159 81.35500 69.25469 55.05159 81.35500 69.30665 55.14159 81.50500 69.25469 55.23159 81.50500 69.15077 55.23159 81.50500 69.09880 55.14159 81.50500 69.15077 55.05159 81.50500 69.25469 55.05159 81.50500 69.20273 55.14159 81.58000 70.51659 52.56299 81.28000 70.62052 52.56299 81.35500 70.56855 52.65299 81.35500 70.46463 52.65299 81.35500 70.41267 52.56299 81.35500 70.46463 52.47299 81.35500 70.56855 52.47299 81.35500 70.62052 52.56299 81.50500 70.56855 52.65299 81.50500 70.46463 52.65299 81.50500 70.41267 52.56299 81.50500 70.46463 52.47299 81.50500 70.56855 52.47299 81.50500 70.51659 52.56299 81.58000 72.56299 50.51659 81.28000 72.66691 50.51659 81.35500 72.61495 50.60659 81.35500 72.51102 50.60659 81.35500 72.45906 50.51659 81.35500 72.51102 50.42659 81.35500 72.61495 50.42659 81.35500 72.66691 50.51659 81.50500 72.61495 50.60659 81.50500 72.51102 50.60659 81.50500 72.45906 50.51659 81.50500 72.51102 50.42659 81.50500 72.61495 50.42659 81.50500 72.56299 50.51659 81.58000 75.14159 49.20273 81.28000 75.24552 49.20273 81.35500 75.19355 49.29273 81.35500 75.08963 49.29273 81.35500 75.03767 49.20273 81.35500 75.08963 49.11273 81.35500 75.19355 49.11273 81.35500 75.24552 49.20273 81.50500 75.19355 49.29273 81.50500 75.08963 49.29273 81.50500 75.03767 49.20273 81.50500 75.08963 49.11273 81.50500 75.19355 49.11273 81.50500 75.14159 49.20273 81.58000 78.00000 48.75000 81.28000 78.10392 48.75000 81.35500 78.05196 48.84000 81.35500 77.94804 48.84000 81.35500 77.89608 48.75000 81.35500 77.94804 48.66000 81.35500 78.05196 48.66000 81.35500 78.10392 48.75000 81.50500 78.05196 48.84000 81.50500 77.94804 48.84000 81.50500 77.89608 48.75000 81.50500 77.94804 48.66000 81.50500 78.05196 48.66000 81.50500 78.00000 48.75000 81.58000 80.85841 49.20273 81.28000 80.96233 49.20273 81.35500 80.91037 49.29273 81.35500 80.80645 49.29273 81.35500 80.75448 49.20273 81.35500 80.80645 49.11273 81.35500 80.91037 49.11273 81.35500 80.96233 49.20273 81.50500 80.91037 49.29273 81.50500 80.80645 49.29273 81.50500 80.75448 49.20273 81.50500 80.80645 49.11273 81.50500 80.91037 49.11273 81.50500 80.85841 49.20273 81.58000 83.43701 50.51659 81.28000 83.54094 50.51659 81.35500 83.48898 50.60659 81.35500 83.38505 50.60659 81.35500 83.33309 50.51659 81.35500 83.38505 50.42659 81.35500 83.48898 50.42659 81.35500 83.54094 50.51659 81.50500 83.48898 50.60659 81.50500 83.38505 50.60659 81.50500 83.33309 50.51659 81.50500 83.38505 50.42659 81.50500 83.48898 50.42659 81.50500 83.43701 50.51659 81.58000 85.48341 52.56299 81.28000 85.58733 52.56299 81.35500 85.53537 52.65299 81.35500 85.43145 52.65299 81.35500 85.37948 52.56299 81.35500 85.43145 52.47299 81.35500 85.53537 52.47299 81.35500 85.58733 52.56299 81.50500 85.53537 52.65299 81.50500 85.43145 52.65299 81.50500 85.37948 52.56299 81.50500 85.43145 52.47299 81.50500 85.53537 52.47299 81.50500 85.48341 52.56299 81.58000 86.79727 55.14159 81.28000 86.90120 55.14159 81.35500 86.84923 55.23159 81.35500 86.74531 55.23159 81.35500 86.69335 55.14159 81.35500 86.74531 55.05159 81.35500 86.84923 55.05159 81.35500 86.90120 55.14159 81.50500 86.84923 55.23159 81.50500 86.74531 55.23159 81.50500 86.69335 55.14159 81.50500 86.74531 55.05159 81.50500 86.84923 55.05159 81.50500 86.79727 55.14159 81.58000</float_array><technique_common><accessor source="#positions-array" count="394" stride="3"><param name="X" type="float"/><param name="Y" type="float"/><param name="Z" type="float"/></accessor></technique_common></source>
<source id="normals"><float_array id="normals-array" count="2112">0.25602 0.05093 -0.96533 0.65946 0.13117 -0.74021 0.65946 0.13117 -0.74021 0.88021 0.17508 -0.44110 0.88021 0.17508 -0.44110 0.97045 0.19303 -0.14478 0.97045 0.19303 -0.14478 0.97045 0.19303 0.14478 0.97045 0.19303 0.14478 0.88021 0.17508 0.44110 0.88021 0.17508 0.44110 0.65946 0.13117 0.74021 0.65946 0.13117 0.74021 0.25602 0.05093 0.96533 0.21704 0.14502 -0.96533 0.55906 0.37355 -0.74021 0.55906 0.37355 -0.74021 0.74621 0.49860 -0.44110 0.74621 0.49860 -0.44110 0.82271 0.54972 -0.14478 0.82271 0.54972 -0.14478 0.82271 0.54972 0.14478 0.82271 0.54972 0.14478 0.74621 0.49860 0.44110 0.74621 0.49860 0.44110 0.55906 0.37355 0.74021 0.55906 0.37355 0.74021 0.21704 0.14502 0.96533 0.14502 0.21704 -0.96533 0.37355 0.55906 -0.74021 0.37355 0.55906 -0.74021 0.49860 0.74621 -0.44110 0.49860 0.74621 -0.44110 0.54972 0.82271 -0.14478 0.54972 0.82271 -0.14478 0.54972 0.82271 0.14478 0.54972 0.82271 0.14478 0.49860 0.74621 0.44110 0.49860 0.74621 0.44110 0.37355 0.55906 0.74021 0.37355 0.55906 0.74021 0.14502 0.21704 0.96533 0.05093 0.25602 -0.96533 0.13117 0.65946 -0.74021 0.13117 0.65946 -0.74021 0.17508 0.88021 -0.44110 0.17508 0.88021 -0.44110 0.19303 0.97045 -0.14478 0.19303 0.97045 -0.14478 0.19303 0.97045 0.14478 0.19303 0.97045 0.14478 0.17508 0.88021 0.44110 0.17508 0.88021 0.44110 0.13117 0.65946 0.74021 0.13117 0.65946 0.74021 0.05093 0.25602 0.96533 -0.05093 0.25602 -0.96533 -0.13117 0.65946 -0.74021 -0.13117 0.65946 -0.74021 -0.17508 0.88021 -0.44110 -0.17508 0.88021 -0.44110 -0.19303 0.97045 -0.14478 -0.19303 0.97045 -0.14478 -0.19303 0.97045 0.14478 -0.19303 0.97045 0.14478 -0.17508 0.88021 0.44110 -0.17508 0.88021 0.44110 -0.13117 0.65946 0.74021 -0.13117 0.65946 0.74021 -0.05093 0.25602 0.96533 -0.14502 0.21704 -0.96533 -0.37355 0.55906 -0.74021 -0.37355 0.55906 -0.74021 -0.49860 0.74621 -0.44110 -0.49860 0.74621 -0.44110 -0.54972 0.82271 -0.14478 -0.54972 0.82271 -0.14478 -0.54972 0.82271 0.14478 -0.54972 0.82271 0.14478 -0.49860 0.74621 0.44110 -0.49860 0.74621 0.44110 -0.37355 0.55906 0.74021 -0.37355 0.55906 0.74021 -0.14502 0.21704 0.96533 -0.21704 0.14502 -0.96533 -0.55906 0.37355 -0.74021 -0.55906 0.37355 -0.74021 -0.74621 0.49860 -0.44110 -0.74621 0.49860 -0.44110 -0.82271 0.54972 -0.14478 -0.82271 0.54972 -0.14478 -0.82271 0.54972 0.14478 -0.82271 0.54972 0.14478 -0.74621 0.49860 0.44110 -0.74621 0.49860 0.44110 -0.55906 0.37355 0.74021 -0.55906 0.37355 0.74021 -0.21704 0.14502 0.96533 -0.25602 0.05093 -0.96533 -0.65946 0.13117 -0.74021 -0.65946 0.13117 -0.74021 -0.88021 0.17508 -0.44110 -0.88021 0.17508 -0.44110 -0.97045 0.19303 -0.14478 -0.97045 0.19303 -0.14478 -0.97045 0.19303 0.14478 -0.97045 0.19303 0.14478 -0.88021 0.17508 0.44110 -0.88021 0.17508 0.44110 -0.65946 0.13117 0.74021 -0.65946 0.13117 0.74021 -0.25602 0.05093 0.96533 -0.25602 -0.05093 -0.96533 -0.65946 -0.13117 -0.74021 -0.65946 -0.13117 -0.74021 -0.88021 -0.17508 -0.44110 -0.88021 -0.17508 -0.44110 -0.97045 -0.19303 -0.14478 -0.97045 -0.19303 -0.14478 -0.97045 -0.19303 0.14478 -0.97045 -0.19303 0.14478 -0.88021 -0.17508 0.44110 -0.88021 -0.17508 0.44110 -0.65946 -0.13117 0.74021 -0.65946 -0.13117 0.74021 -0.25602 -0.05093 0.96533 -0.21704 -0.14502 -0.96533 -0.55906 -0.37355 -0.74021 -0.55906 -0.37355 -0.74021 -0.74621 -0.49860 -0.44110 -0.74621 -0.49860 -0.44110 -0.82271 -0.54972 -0.14478 -0.82271 -0.54972 -0.14478 -0.82271 -0.54972 0.14478 -0.82271 -0.54972 0.14478 -0.74621 -0.49860 0.44110 -0.74621 -0.49860 0.44110 -0.55906 -0.37355 0.74021 -0.55906 -0.37355 0.74021 -0.21704 -0.14502 0.96533 -0.14502 -0.21704 -0.96533 -0.37355 -0.55906 -0.74021 -0.37355 -0.55906 -0.74021 -0.49860 -0.74621 -0.44110 -0.49860 -0.74621 -0.44110 -0.54972 -0.82271 -0.14478 -0.54972 -0.82271 -0.14478 -0.54972 -0.82271 0.14478 -0.54972 -0.82271 0.14478 -0.49860 -0.74621 0.44110 -0.49860 -0.74621 0.44110 -0.37355 -0.55906 0.74021 -0.37355 -0.55906 0.74021 -0.14502 -0.21704 0.96533 -0.05093 -0.25602 -0.96533 -0.13117 -0.65946 -0.74021 -0.13117 -0.65946 -0.74021 -0.17508 -0.88021 -0.44110 -0.17508 -0.88021 -0.44110 -0.19303 -0.97045 -0.14478 -0.19303 -0.97045 -0.14478 -0.19303 -0.97045 0.14478 -0.19303 -0.97045 0.14478 -0.17508 -0.88021 0.44110 -0.17508 -0.88021 0.44110 -0.13117 -0.65946 0.74021 -0.13117 -0.65946 0.74021 -0.05093 -0.25602 0.96533 0.05093 -0.25602 -0.96533 0.13117 -0.65946 -0.74021 0.13117 -0.65946 -0.74021 0.17508 -0.88021 -0.44110 0.17508 -0.88021 -0.44110 0.19303 -0.97045 -0.14478 0.19303 -0.97045 -0.14478 0.19303 -0.97045 0.14478 0.19303 -0.97045 0.14478 0.17508 -0.88021 0.44110 0.17508 -0.88021 0.44110 0.13117 -0.65946 0.74021 0.13117 -0.65946 0.74021 0.05093 -0.25602 0.96533 0.14502 -0.21704 -0.96533 0.37355 -0.55906 -0.74021 0.37355 -0.55906 -0.74021 0.49860 -0.74621 -0.44110 0.49860 -0.74621 -0.44110 0.54972 -0.82271 -0.14478 0.54972 -0.82271 -0.14478 0.54972 -0.82271 0.14478 0.54972 -0.82271 0.14478 0.49860 -0.74621 0.44110 0.49860 -0.74621 0.44110 0.37355 -0.55906 0.74021 0.37355 -0.55906 0.74021 0.14502 -0.21704 0.96533 0.21704 -0.14502 -0.96533 0.55906 -0.37355 -0.74021 0.55906 -0.37355 -0.74021 0.74621 -0.49860 -0.44110 0.74621 -0.49860 -0.44110 0.82271 -0.54972 -0.14478 0.82271 -0.54972 -0.14478 0.82271 -0.54972 0.14478 0.82271 -0.54972 0.14478 0.74621 -0.49860 0.44110 0.74621 -0.49860 0.44110 0.55906 -0.37355 0.74021 0.55906 -0.37355 0.74021 0.21704 -0.14502 0.96533 0.25602 -0.05093 -0.96533 0.65946 -0.13117 -0.74021 0.65946 -0.13117 -0.74021 0.88021 -0.17508 -0.44110 0.88021 -0.17508 -0.44110 0.97045 -0.19303 -0.14478 0.97045 -0.19303 -0.14478 0.97045 -0.19303 0.14478 0.97045 -0.19303 0.14478 0.88021 -0.17508 0.44110 0.88021 -0.17508 0.44110 0.65946 -0.13117 0.74021 0.65946 -0.13117 0.74021 0.25602 -0.05093 0.96533 0.55442 0.32009 -0.76822 0.86603 0.50000 0.00000 0.86603 0.50000 -0.00000 0.55442 0.32009 0.76822 0.00000 0.64018 -0.76822 0.00000 1.00000 0.00000 0.00000 1.00000 -0.00000 0.00000 0.64018 0.76822 -0.55442 0.32009 -0.76822 -0.86603 0.50000 0.00000 -0.86603 0.50000 0.00000 -0.55442 0.32009 0.76822 -0.55442 -0.32009 -0.76822 -0.86603 -0.50000 0.00000 -0.86603 -0.50000 0.00000 -0.55442 -0.32009 0.76822 0.00000 -0.64018 -0.76822 0.00000 -1.00000 0.00000 0.00000 -1.00000 0.00000 0.00000 -0.64018 0.76822 0.55442 -0.32009 -0.76822 0.86603 -0.50000 0.00000 0.86603 -0.50000 0.00000 0.55442 -0.32009 0.76822 0.55442 0.32009 -0.76822 0.86603 0.50000 0.00000 0.86603 0.50000 -0.00000 0.55442 0.32009 0.76822 0.00000 0.64018 -0.76822 0.00000 1.00000 0.00000 0.00000 1.00000 -0.00000 0.00000 0.64018 0.76822 -0.55442 0.32009 -0.76822 -0.86603 0.50000 0.00000 -0.86603 0.50000 0.00000 -0.55442 0.32009 0.76822 -0.55442 -0.32009 -0.76822 -0.86603 -0.50000 0.00000 -0.86603 -0.50000 0.00000 -0.55442 -0.32009 0.76822 0.00000 -0.64018 -0.76822 0.00000 -1.00000 0.00000 0.00000 -1.00000 0.00000 0.00000 -0.64018 0.76822 0.55442 -0.32009 -0.76822 0.86603 -0.50000 0.00000 0.86603 -0.50000 0.00000 0.55442 -0.32009 0.76822 0.55442 0.32009 -0.76822 0.86603 0.50000 0.00000 0.86603 0.50000 -0.00000 0.55442 0.32009 0.76822 0.00000 0.64018 -0.76822 0.00000 1.00000 0.00000 0.00000 1.00000 -0.00000 0.00000 0.64018 0.76822 -0.55442 0.32009 -0.76822 -0.86603 0.50000 0.00000 -0.86603 0.50000 0.00000 -0.55442 0.32009 0.76822 -0.55442 -0.32009 -0.76822 -0.86603 -0.50000 0.00000 -0.86603 -0.50000 0.00000 -0.55442 -0.32009 0.76822 0.00000 -0.64018 -0.76822 0.00000 -1.00000 0.00000 0.00000 -1.00000 0.00000 0.00000 -0.64018 0.76822 0.55442 -0.32009 -0.76822 0.86603 -0.50000 0.00000 0.86603 -0.50000 0.00000 0.55442 -0.32009 0.76822 0.55442 0.32009 -0.76822 0.86603 0.50000 0.00000 0.86603 0.50000 -0.00000 0.55442 0.32009 0.76822 0.00000 0.64018 -0.76822 0.00000 1.00000 0.00000 0.00000 1.00000 -0.00000 0.00000 0.64018 0.76822 -0.55442 0.32009 -0.76822 -0.86603 0.50000 0.00000 -0.86603 0.50000 0.00000 -0.55442 0.32009 0.76822 -0.55442 -0.32009 -0.76822 -0.86603 -0.50000 0.00000 -0.86603 -0.50000 0.00000 -0.55442 -0.32009 0.76822 0.00000 -0.64018 -0.76822 0.00000 -1.00000 0.00000 0.00000 -1.00000 0.00000 0.00000 -0.64018 0.76822 0.55442 -0.32009 -0.76822 0.86603 -0.50000 0.00000 0.86603 -0.50000 0.00000 0.55442 -0.32009 0.76822 0.55442 0.32009 -0.76822 0.86603 0.50000 0.00000 0.86603 0.50000 -0.00000 0.55442 0.32009 0.76822 0.00000 0.64018 -0.76822 0.00000 1.00000 0.00000 0.00000 1.00000 -0.00000 0.00000 0.64018 0.76822 -0.55442 0.32009 -0.76822 -0.86603 0.50000 0.00000 -0.86603 0.50000 0.00000 -0.55442 0.32009 0.76822 -0.55442 -0.32009 -0.76822 -0.86603 -0.50000 0.00000 -0.86603 -0.50000 0.00000 -0.55442 -0.32009 0.76822 0.00000 -0.64018 -0.76822 0.00000 -1.00000 0.00000 0.00000 -1.00000 0.00000 0.00000 -0.64018 0.76822 0.55442 -0.32009 -0.76822 0.86603 -0.50000 0.00000 0.86603 -0.50000 0.00000 0.55442 -0.32009 0.76822 0.55442 0.32009 -0.76822 0.86603 0.50000 0.00000 0.86603 0.50000 -0.00000 0.55442 0.32009 0.76822 0.00000 0.64018 -0.76822 0.00000 1.00000 0.00000 0.00000 1.00000 -0.00000 0.00000 0.64018 0.76822 -0.55442 0.32009 -0.76822 -0.86603 0.50000 0.00000 -0.86603 0.50000 0.00000 -0.55442 0.32009 0.76822 -0.55442 -0.32009 -0.76822 -0.86603 -0.50000 0.00000 -0.86603 -0.50000 0.00000 -0.55442 -0.32009 0.76822 0.00000 -0.64018 -0.76822 0.00000 -1.00000 0.00000 0.00000 -1.00000 0.00000 0.00000 -0.64018 0.76822 0.55442 -0.32009 -0.76822 0.86603 -0.50000 0.00000 0.86603 -0.50000 0.00000 0.55442 -0.32009 0.76822 0.55442 0.32009 -0.76822 0.86603 0.50000 0.00000 0.86603 0.50000 -0.00000 0.55442 0.32009 0.76822 0.00000 0.64018 -0.76822 0.00000 1.00000 0.00000 0.00000 1.00000 -0.00000 0.00000 0.64018 0.76822 -0.55442 0.32009 -0.76822 -0.86603 0.50000 0.00000 -0.86603 0.50000 0.00000 -0.55442 0.32009 0.76822 -0.55442 -0.32009 -0.76822 -0.86603 -0.50000 0.00000 -0.86603 -0.50000 0.00000 -0.55442 -0.32009 0.76822 0.00000 -0.64018 -0.76822 0.00000 -1.00000 0.00000 0.00000 -1.00000 0.00000 0.00000 -0.64018 0.76822 0.55442 -0.32009 -0.76822 0.86603 -0.50000 0.00000 0.86603 -0.50000 0.00000 0.55442 -0.32009 0.76822 0.55442 0.32009 -0.76822 0.86603 0.50000 0.00000 0.86603 0.50000 -0.00000 0.55442 0.32009 0.76822 0.00000 0.64018 -0.76822 0.00000 1.00000 0.00000 0.00000 1.00000 -0.00000 0.00000 0.64018 0.76822 -0.55442 0.32009 -0.76822 -0.86603 0.50000 0.00000 -0.86603 0.50000 0.00000 -0.55442 0.32009 0.76822 -0.55442 -0.32009 -0.76822 -0.86603 -0.50000 0.00000 -0.86603 -0.50000 0.00000 -0.55442 -0.32009 0.76822 0.00000 -0.64018 -0.76822 0.00000 -1.00000 0.00000 0.00000 -1.00000 0.00000 0.00000 -0.64018 0.76822 0.55442 -0.32009 -0.76822 0.86603 -0.50000 0.00000 0.86603 -0.50000 0.00000 0.55442 -0.32009 0.76822 0.55442 0.32009 -0.76822 0.86603 0.50000 0.00000 0.86603 0.50000 -0.00000 0.55442 0.32009 0.76822 0.00000 0.64018 -0.76822 0.00000 1.00000 0.00000 0.00000 1.00000 -0.00000 0.00000 0.64018 0.76822 -0.55442 0.32009 -0.76822 -0.86603 0.50000 0.00000 -0.86603 0.50000 0.00000 -0.55442 0.32009 0.76822 -0.55442 -0.32009 -0.76822 -0.86603 -0.50000 0.00000 -0.86603 -0.50000 0.00000 -0.55442 -0.32009 0.76822 0.00000 -0.64018 -0.76822 0.00000 -1.00000 0.00000 0.00000 -1.00000 0.00000 0.00000 -0.64018 0.76822 0.55442 -0.32009 -0.76822 0.86603 -0.50000 0.00000 0.86603 -0.50000 0.00000 0.55442 -0.32009 0.76822 0.55442 0.32009 -0.76822 0.86603 0.50000 0.00000 0.86603 0.50000 -0.00000 0.55442 0.32009 0.76822 0.00000 0.64018 -0.76822 0.00000 1.00000 0.00000 0.00000 1.00000 -0.00000 0.00000 0.64018 0.76822 -0.55442 0.32009 -0.76822 -0.86603 0.50000 0.00000 -0.86603 0.50000 0.00000 -0.55442 0.32009 0.76822 -0.55442 -0.32009 -0.76822 -0.86603 -0.50000 0.00000 -0.86603 -0.50000 0.00000 -0.55442 -0.32009 0.76822 0.00000 -0.64018 -0.76822 0.00000 -1.00000 0.00000 0.00000 -1.00000 0.00000 0.00000 -0.64018 0.76822 0.55442 -0.32009 -0.76822 0.86603 -0.50000 0.00000 0.86603 -0.50000 0.00000 0.55442 -0.32009 0.76822 0.55442 0.32009 -0.76822 0.86603 0.50000 0.00000 0.86603 0.50000 -0.00000 0.55442 0.32009 0.76822 0.00000 0.64018 -0.76822 0.00000 1.00000 0.00000 0.00000 1.00000 -0.00000 0.00000 0.64018 0.76822 -0.55442 0.32009 -0.76822 -0.86603 0.50000 0.00000 -0.86603 0.50000 0.00000 -0.55442 0.32009 0.76822 -0.55442 -0.32009 -0.76822 -0.86603 -0.50000 0.00000 -0.86603 -0.50000 0.00000 -0.55442 -0.32009 0.76822 0.00000 -0.64018 -0.76822 0.00000 -1.00000 0.00000 0.00000 -1.00000 0.00000 0.00000 -0.64018 0.76822 0.55442 -0.32009 -0.76822 0.86603 -0.50000 0.00000 0.86603 -0.50000 0.00000 0.55442 -0.32009 0.76822 0.55442 0.32009 -0.76822 0.86603 0.50000 0.00000 0.86603 0.50000 -0.00000 0.55442 0.32009 0.76822 0.00000 0.64018 -0.76822 0.00000 1.00000 0.00000 0.00000 1.00000 -0.00000 0.00000 0.64018 0.76822 -0.55442 0.32009 -0.76822 -0.86603 0.50000 0.00000 -0.86603 0.50000 0.00000 -0.55442 0.32009 0.76822 -0.55442 -0.32009 -0.76822 -0.86603 -0.50000 0.00000 -0.86603 -0.50000 0.00000 -0.55442 -0.32009 0.76822 0.00000 -0.64018 -0.76822 0.00000 -1.00000 0.00000 0.00000 -1.00000 0.00000 0.00000 -0.64018 0.76822 0.55442 -0.32009 -0.76822 0.86603 -0.50000 0.00000 0.86603 -0.50000 0.00000 0.55442 -0.32009 0.76822 0.55442 0.32009 -0.76822 0.86603 0.50000 0.00000 0.86603 0.50000 -0.00000 0.55442 0.32009 0.76822 0.00000 0.64018 -0.76822 0.00000 1.00000 0.00000 0.00000 1.00000 -0.00000 0.00000 0.64018 0.76822 -0.55442 0.32009 -0.76822 -0.86603 0.50000 0.00000 -0.86603 0.50000 0.00000 -0.55442 0.32009 0.76822 -0.55442 -0.32009 -0.76822 -0.86603 -0.50000 0.00000 -0.86603 -0.50000 0.00000 -0.55442 -0.32009 0.76822 0.00000 -0.64018 -0.76822 0.00000 -1.00000 0.00000 0.00000 -1.00000 0.00000 0.00000 -0.64018 0.76822 0.55442 -0.32009 -0.76822 0.86603 -0.50000 0.00000 0.86603 -0.50000 0.00000 0.55442 -0.32009 0.76822 0.55442 0.32009 -0.76822 0.86603 0.50000 0.00000 0.86603 0.50000 -0.00000 0.55442 0.32009 0.76822 0.00000 0.64018 -0.76822 0.00000 1.00000 0.00000 0.00000 1.00000 -0.00000 0.00000 0.64018 0.76822 -0.55442 0.32009 -0.76822 -0.86603 0.50000 0.00000 -0.86603 0.50000 0.00000 -0.55442 0.32009 0.76822 -0.55442 -0.32009 -0.76822 -0.86603 -0.50000 0.00000 -0.86603 -0.50000 0.00000 -0.55442 -0.32009 0.76822 0.00000 -0.64018 -0.76822 0.00000 -1.00000 0.00000 0.00000 -1.00000 0.00000 0.00000 -0.64018 0.76822 0.55442 -0.32009 -0.76822 0.86603 -0.50000 0.00000 0.86603 -0.50000 0.00000 0.55442 -0.32009 0.76822 0.55442 0.32009 -0.76822 0.86603 0.50000 0.00000 0.86603 0.50000 -0.00000 0.55442 0.32009 0.76822 0.00000 0.64018 -0.76822 0.00000 1.00000 0.00000 0.00000 1.00000 -0.00000 0.00000 0.64018 0.76822 -0.55442 0.32009 -0.76822 -0.86603 0.50000 0.00000 -0.86603 0.50000 0.00000 -0.55442 0.32009 0.76822 -0.55442 -0.32009 -0.76822 -0.86603 -0.50000 0.00000 -0.86603 -0.50000 0.00000 -0.55442 -0.32009 0.76822 0.00000 -0.64018 -0.76822 0.00000 -1.00000 0.00000 0.00000 -1.00000 0.00000 0.00000 -0.64018 0.76822 0.55442 -0.32009 -0.76822 0.86603 -0.50000 0.00000 0.86603 -0.50000 0.00000 0.55442 -0.32009 0.76822 0.55442 0.32009 -0.76822 0.86603 0.50000 0.00000 0.86603 0.50000 -0.00000 0.55442 0.32009 0.76822 0.00000 0.64018 -0.76822 0.00000 1.00000 0.00000 0.00000 1.00000 -0.00000 0.00000 0.64018 0.76822 -0.55442 0.32009 -0.76822 -0.86603 0.50000 0.00000 -0.86603 0.50000 0.00000 -0.55442 0.32009 0.76822 -0.55442 -0.32009 -0.76822 -0.86603 -0.50000 0.00000 -0.86603 -0.50000 0.00000 -0.55442 -0.32009 0.76822 0.00000 -0.64018 -0.76822 0.00000 -1.00000 0.00000 0.00000 -1.00000 0.00000 0.00000 -0.64018 0.76822 0.55442 -0.32009 -0.76822 0.86603 -0.50000 0.00000 0.86603 -0.50000 0.00000 0.55442 -0.32009 0.76822 0.55442 0.32009 -0.76822 0.86603 0.50000 0.00000 0.86603 0.50000 -0.00000 0.55442 0.32009 0.76822 0.00000 0.64018 -0.76822 0.00000 1.00000 0.00000 0.00000 1.00000 -0.00000 0.00000 0.64018 0.76822 -0.55442 0.32009 -0.76822 -0.86603 0.50000 0.00000 -0.86603 0.50000 0.00000 -0.55442 0.32009 0.76822 -0.55442 -0.32009 -0.76822 -0.86603 -0.50000 0.00000 -0.86603 -0.50000 0.00000 -0.55442 -0.32009 0.76822 0.00000 -0.64018 -0.76822 0.00000 -1.00000 0.00000 0.00000 -1.00000 0.00000 0.00000 -0.64018 0.76822 0.55442 -0.32009 -0.76822 0.86603 -0.50000 0.00000 0.86603 -0.50000 0.00000 0.55442 -0.32009 0.76822 0.55442 0.32009 -0.76822 0.86603 0.50000 0.00000 0.86603 0.50000 -0.00000 0.55442 0.32009 0.76822 0.00000 0.64018 -0.76822 0.00000 1.00000 0.00000 0.00000 1.00000 -0.00000 0.00000 0.64018 0.76822 -0.55442 0.32009 -0.76822 -0.86603 0.50000 0.00000 -0.86603 0.50000 0.00000 -0.55442 0.32009 0.76822 -0.55442 -0.32009 -0.76822 -0.86603 -0.50000 0.00000 -0.86603 -0.50000 0.00000 -0.55442 -0.32009 0.76822 0.00000 -0.64018 -0.76822 0.00000 -1.00000 0.00000 0.00000 -1.00000 0.00000 0.00000 -0.64018 0.76822 0.55442 -0.32009 -0.76822 0.86603 -0.50000 0.00000 0.86603 -0.50000 0.00000 0.55442 -0.32009 0.76822 0.55442 0.32009 -0.76822 0.86603 0.50000 0.00000 0.86603 0.50000 -0.00000 0.55442 0.32009 0.76822 0.00000 0.64018 -0.76822 0.00000 1.00000 0.00000 0.00000 1.00000 -0.00000 0.00000 0.64018 0.76822 -0.55442 0.32009 -0.76822 -0.86603 0.50000 0.00000 -0.86603 0.50000 0.00000 -0.55442 0.32009 0.76822 -0.55442 -0.32009 -0.76822 -0.86603 -0.50000 0.00000 -0.86603 -0.50000 0.00000 -0.55442 -0.32009 0.76822 0.00000 -0.64018 -0.76822 0.00000 -1.00000 0.00000 0.00000 -1.00000 0.00000 0.00000 -0.64018 0.76822 0.55442 -0.32009 -0.76822 0.86603 -0.50000 0.00000 0.86603 -0.50000 0.00000 0.55442 -0.32009 0.76822 0.55442 0.32009 -0.76822 0.86603 0.50000 0.00000 0.86603 0.50000 -0.00000 0.55442 0.32009 0.76822 0.00000 0.64018 -0.76822 0.00000 1.00000 0.00000 0.00000 1.00000 -0.00000 0.00000 0.64018 0.76822 -0.55442 0.32009 -0.76822 -0.86603 0.50000 0.00000 -0.86603 0.50000 0.00000 -0.55442 0.32009 0.76822 -0.55442 -0.32009 -0.76822 -0.86603 -0.50000 0.00000 -0.86603 -0.50000 0.00000 -0.55442 -0.32009 0.76822 0.00000 -0.64018 -0.76822 0.00000 -1.00000 0.00000 0.00000 -1.00000 0.00000 0.00000 -0.64018 0.76822 0.55442 -0.32009 -0.76822 0.86603 -0.50000 0.00000 0.86603 -0.50000 0.00000 0.55442 -0.32009 0.76822</float_array><technique_common><accessor source="#normals-array" count="704" stride="3"><param name="X" type="float"/><param name="Y" type="float"/><param name="Z" type="float"/></accessor></technique_common></source>
<vertices id="vertices"><input semantic="POSITION" source="#positions"/></vertices><triangles count="704"><input semantic="VERTEX" source="#vertices" offset="0"/><input semantic="NORMAL" source="#normals" offset="1"/><p>0 0 2 0 1 0 1 1 2 1 18 1 1 2 18 2 17 2 17 3 18 3 34 3 17 4 34 4 33 4 33 5 34 5 50 5 33 6 50 6 49 6 49 7 50 7 66 7 49 8 66 8 65 8 65 9 66 9 82 9 65 10 82 10 81 10 81 11 82 11 98 11 81 12 98 12 97 12 97 13 98 13 113 13 0 14 3 14 2 14 2 15 3 15 19 15 2 16 19 16 18 16 18 17 19 17 35 17 18 18 35 18 34 18 34 19 35 19 51 19 34 20 51 20 50 20 50 21 51 21 67 21 50 22 67 22 66 22 66 23 67 23 83 23 66 24 83 24 82 24 82 25 83 25 99 25 82 26 99 26 98 26 98 27 99 27 113 27 0 28 4 28 3 28 3 29 4 29 20 29 3 30 20 30 19 30 19 31 20 31 36 31 19 32 36 32 35 32 35 33 36 33 52 33 35 34 52 34 51 34 51 35 52 35 68 35 51 36 68 36 67 36 67 37 68 37 84 37 67 38 84 38 83 38 83 39 84 39 100 39 83 40 100 40 99 40 99 41 100 41 113 41 0 42 5 42 4 42 4 43 5 43 21 43 4 44 21 44 20 44 20 45 21 45 37 45 20 46 37 46 36 46 36 47 37 47 53 47 36 48 53 48 52 48 52 49 53 49 69 49 52 50 69 50 68 50 68 51 69 51 85 51 68 52 85 52 84 52 84 53 85 53 101 53 84 54 101 54 100 54 100 55 101 55 113 55 0 56 6 56 5 56 5 57 6 57 22 57 5 58 22 58 21 58 21 59 22 59 38 59 21 60 38 60 37 60 37 61 38 61 54 61 37 62 54 62 53 62 53 63 54 63 70 63 53 64 70 64 69 64 69 65 70 65 86 65 69 66 86 66 85 66 85 67 86 67 102 67 85 68 102 68 101 68 101 69 102 69 113 69 0 70 7 70 6 70 6 71 7 71 23 71 6 72 23 72 22 72 22 73 23 73 39 73 22 74 39 74 38 74 38 75 39 75 55 75 38 76 55 76 54 76 54 77 55 77 71 77 54 78 71 78 70 78 70 79 71 79 87 79 70 80 87 80 86 80 86 81 87 81 103 81 86 82 103 82 102 82 102 83 103 83 113 83 0 84 8 84 7 84 7 85 8 85 24 85 7 86 24 86 23 86 23 87 24 87 40 87 23 88 40 88 39 88 39 89 40 89 56 89 39 90 56 90 55 90 55 91 56 91 72 91 55 92 72 92 71 92 71 93 72 93 88 93 71 94 88 94 87 94 87 95 88 95 104 95 87 96 104 96 103 96 103 97 104 97 113 97 0 98 9 98 8 98 8 99 9 99 25 99 8 100 25 100 24 100 24 101 25 101 41 101 24 102 41 102 40 102 40 103 41 103 57 103 40 104 57 104 56 104 56 105 57 105 73 105 56 106 73 106 72 106 72 107 73 107 89 107 72 108 89 108 88 108 88 109 89 109 105 109 88 110 105 110 104 110 104 111 105 111 113 111 0 112 10 112 9 112 9 113 10 113 26 113 9 114 26 114 25 114 25 115 26 115 42 115 25 116 42 116 41 116 41 117 42 117 58 117 41 118 58 118 57 118 57 119 58 119 74 119 57 120 74 120 73 120 73 121 74 121 90 121 73 122 90 122 89 122 89 123 90 123 106 123 89 124 106 124 105 124 105 125 106 125 113 125 0 126 11 126 10 126 10 127 11 127 27 127 10 128 27 128 26 128 26 129 27 129 43 129 26 130 43 130 42 130 42 131 43 131 59 131 42 132 59 132 58 132 58 133 59 133 75 133 58 134 75 134 74 134 74 135 75 135 91 135 74 136 91 136 90 136 90 137 91 137 107 137 90 138 107 138 106 138 106 139 107 139 113 139 0 140 12 140 11 140 11 141 12 141 28 141 11 142 28 142 27 142 27 143 28 143 44 143 27 144 44 144 43 144 43 145 44 145 60 145 43 146 60 146 59 146 59 147 60 147 76 147 59 148 76 148 75 148 75 149 76 149 92 149 75 150 92 150 91 150 91 151 92 151 108 151 91 152 108 152 107 152 107 153 108 153 113 153 0 154 13 154 12 154 12 155 13 155 29 155 12 156 29 156 28 156 28 157 29 157 45 157 28 158 45 158 44 158 44 159 45 159 61 159 44 160 61 160 60 160 60 161 61 161 77 161 60 162 77 162 76 162 76 163 77 163 93 163 76 164 93 164 92 164 92 165 93 165 109 165 92 166 109 166 108 166 108 167 109 167 113 167 0 168 14 168 13 168 13 169 14 169 30 169 13 170 30 170 29 170 29 171 30 171 46 171 29 172 46 172 45 172 45 173 46 173 62 173 45 174 62 174 61 174 61 175 62 175 78 175 61 176 78 176 77 176 77 177 78 177 94 177 77 178 94 178 93 178 93 179 94 179 110 179 93 180 110 180 109 180 109 181 110 181 113 181 0 182 15 182 14 182 14 183 15 183 31 183 14 184 31 184 30 184 30 185 31 185 47 185 30 186 47 186 46 186 46 187 47 187 63 187 46 188 63 188 62 188 62 189 63 189 79 189 62 190 79 190 78 190 78 191 79 191 95 191 78 192 95 192 94 192 94 193 95 193 111 193 94 194 111 194 110 194 110 195 111 195 113 195 0 196 16 196 15 196 15 197 16 197 32 197 15 198 32 198 31 198 31 199 32 199 48 199 31 200 48 200 47 200 47 201 48 201 64 201 47 202 64 202 63 202 63 203 64 203 80 203 63 204 80 204 79 204 79 205 80 205 96 205 79 206 96 206 95 206 95 207 96 207 112 207 95 208 112 208 111 208 111 209 112 209 113 209 0 210 1 210 16 210 16 211 1 211 17 211 16 212 17 212 32 212 32 213 17 213 33 213 32 214 33 214 48 214 48 215 33 215 49 215 48 216 49 216 64 216 64 217 49 217 65 217 64 218 65 218 80 218 80 219 65 219 81 219 80 220 81 220 96 220 96 221 81 221 97 221 96 222 97 222 112 222 112 223 97 223 113 223 114 224 116 224 115 224 115 225 116 225 122 225 115 226 122 226 121 226 121 227 122 227 127 227 114 228 117 228 116 228 116 229 117 229 123 229 116 230 123 230 122 230 122 231 123 231 127 231 114 232 118 232 117 232 117 233 118 233 124 233 117 234 124 234 123 234 123 235 124 235 127 235 114 236 119 236 118 236 118 237 119 237 125 237 118 238 125 238 124 238 124 239 125 239 127 239 114 240 120 240 119 240 119 241 120 241 126 241 119 242 126 242 125 242 125 243 126 243 127 243 114 244 115 244 120 244 120 245 115 245 121 245 120 246 121 246 126 246 126 247 121 247 127 247 128 248 130 248 129 248 129 249 130 249 136 249 129 250 136 250 135 250 135 251 136 251 141 251 128 252 131 252 130 252 130 253 131 253 137 253 130 254 137 254 136 254 136 255 137 255 141 255 128 256 132 256 131 256 131 257 132 257 138 257 131 258 138 258 137 258 137 259 138 259 141 259 128 260 133 260 132 260 132 261 133 261 139 261 132 262 139 262 138 262 138 263 139 263 141 263 128 264 134 264 133 264 133 265 134 265 140 265 133 266 140 266 139 266 139 267 140 267 141 267 128 268 129 268 134 268 134 269 129 269 135 269 134 270 135 270 140 270 140 271 135 271 141 271 142 272 144 272 143 272 143 273 144 273 150 273 143 274 150 274 149 274 149 275 150 275 155 275 142 276 145 276 144 276 144 277 145 277 151 277 144 278 151 278 150 278 150 279 151 279 155 279 142 280 146 280 145 280 145 281 146 281 152 281 145 282 152 282 151 282 151 283 152 283 155 283 142 284 147 284 146 284 146 285 147 285 153 285 146 286 153 286 152 286 152 287 153 287 155 287 142 288 148 288 147 288 147 289 148 289 154 289 147 290 154 290 153 290 153 291 154 291 155 291 142 292 143 292 148 292 148 293 143 293 149 293 148 294 149 294 154 294 154 295 149 295 155 295 156 296 158 296 157 296 157 297 158 297 164 297 157 298 164 298 163 298 163 299 164 299 169 299 156 300 159 300 158 300 158 301 159 301 165 301 158 302 165 302 164 302 164 303 165 303 169 303 156 304 160 304 159 304 159 305 160 305 166 305 159 306 166 306 165 306 165 307 166 307 169 307 156 308 161 308 160 308 160 309 161 309 167 309 160 310 167 310 166 310 166 311 167 311 169 311 156 312 162 312 161 312 161 313 162 313 168 313 161 314 168 314 167 314 167 315 168 315 169 315 156 316 157 316 162 316 162 317 157 317 163 317 162 318 163 318 168 318 168 319 163 319 169 319 170 320 172 320 171 320 171 321 172 321 178 321 171 322 178 322 177 322 177 323 178 323 183 323 170 324 173 324 172 324 172 325 173 325 179 325 172 326 179 326 178 326 178 327 179 327 183 327 170 328 174 328 173 328 173 329 174 329 180 329 173 330 180 330 179 330 179 331 180 331 183 331 170 332 175 332 174 332 174 333 175 333 181 333 174 334 181 334 180 334 180 335 181 335 183 335 170 336 176 336 175 336 175 337 176 337 182 337 175 338 182 338 181 338 181 339 182 339 183 339 170 340 171 340 176 340 176 341 171 341 177 341 176 342 177 342 182 342 182 343 177 343 183 343 184 344 186 344 185 344 185 345 186 345 192 345 185 346 192 346 191 346 191 347 192 347 197 347 184 348 187 348 186 348 186 349 187 349 193 349 186 350 193 350 192 350 192 351 193 351 197 351 184 352 188 352 187 352 187 353 188 353 194 353 187 354 194 354 193 354 193 355 194 355 197 355 184 356 189 356 188 356 188 357 189 357 195 357 188 358 195 358 194 358 194 359 195 359 197 359 184 360 190 360 189 360 189 361 190 361 196 361 189 362 196 362 195 362 195 363 196 363 197 363 184 364 185 364 190 364 190 365 185 365 191 365 190 366 191 366 196 366 196 367 191 367 197 367 198 368 200 368 199 368 199 369 200 369 206 369 199 370 206 370 205 370 205 371 206 371 211 371 198 372 201 372 200 372 200 373 201 373 207 373 200 374 207 374 206 374 206 375 207 375 211 375 198 376 202 376 201 376 201 377 202 377 208 377 201 378 208 378 207 378 207 379 208 379 211 379 198 380 203 380 202 380 202 381 203 381 209 381 202 382 209 382 208 382 208 383 209 383 211 383 198 384 204 384 203 384 203 385 204 385 210 385 203 386 210 386 209 386 209 387 210 387 211 387 198 388 199 388 204 388 204 389 199 389 205 389 204 390 205 390 210 390 210 391 205 391 211 391 212 392 214 392 213 392 213 393 214 393 220 393 213 394 220 394 219 394 219 395 220 395 225 395 212 396 215 396 214 396 214 397 215 397 221 397 214 398 221 398 220 398 220 399 221 399 225 399 212 400 216 400 215 400 215 401 216 401 222 401 215 402 222 402 221 402 221 403 222 403 225 403 212 404 217 404 216 404 216 405 217 405 223 405 216 406 223 406 222 406 222 407 223 407 225 407 212 408 218 408 217 408 217 409 218 409 224 409 217 410 224 410 223 410 223 411 224 411 225 411 212 412 213 412 218 412 218 413 213 413 219 413 218 414 219 414 224 414 224 415 219 415 225 415 226 416 228 416 227 416 227 417 228 417 234 417 227 418 234 418 233 418 233 419 234 419 239 419 226 420 229 420 228 420 228 421 229 421 235 421 228 422 235 422 234 422 234 423 235 423 239 423 226 424 230 424 229 424 229 425 230 425 236 425 229 426 236 426 235 426 235 427 236 427 239 427 226 428 231 428 230 428 230 429 231 429 237 429 230 430 237 430 236 430 236 431 237 431 239 431 226 432 232 432 231 432 231 433 232 433 238 433 231 434 238 434 237 434 237 435 238 435 239 435 226 436 227 436 232 436 232 437 227 437 233 437 232 438 233 438 238 438 238 439 233 439 239 439 240 440 242 440 241 440 241 441 242 441 248 441 241 442 248 442 247 442 247 443 248 443 253 443 240 444 243 444 242 444 242 445 243 445 249 445 242 446 249 446 248 446 248 447 249 447 253 447 240 448 244 448 243 448 243 449 244 449 250 449 243 450 250 450 249 450 249 451 250 451 253 451 240 452 245 452 244 452 244 453 245 453 251 453 244 454 251 454 250 454 250 455 251 455 253 455 240 456 246 456 245 456 245 457 246 457 252 457 245 458 252 458 251 458 251 459 252 459 253 459 240 460 241 460 246 460 246 461 241 461 247 461 246 462 247 462 252 462 252 463 247 463 253 463 254 464 256 464 255 464 255 465 256 465 262 465 255 466 262 466 261 466 261 467 262 467 267 467 254 468 257 468 256 468 256 469 257 469 263 469 256 470 263 470 262 470 262 471 263 471 267 471 254 472 258 472 257 472 257 473 258 473 264 473 257 474 264 474 263 474 263 475 264 475 267 475 254 476 259 476 258 476 258 477 259 477 265 477 258 478 265 478 264 478 264 479 265 479 267 479 254 480 260 480 259 480 259 481 260 481 266 481 259 482 266 482 265 482 265 483 266 483 267 483 254 484 255 484 260 484 260 485 255 485 261 485 260 486 261 486 266 486 266 487 261 487 267 487 268 488 270 488 269 488 269 489 270 489 276 489 269 490 276 490 275 490 275 491 276 491 281 491 268 492 271 492 270 492 270 493 271 493 277 493 270 494 277 494 276 494 276 495 277 495 281 495 268 496 272 496 271 496 271 497 272 497 278 497 271 498 278 498 277 498 277 499 278 499 281 499 268 500 273 500 272 500 272 501 273 501 279 501 272 502 279 502 278 502 278 503 279 503 281 503 268 504 274 504 273 504 273 505 274 505 280 505 273 506 280 506 279 506 279 507 280 507 281 507 268 508 269 508 274 508 274 509 269 509 275 509 274 510 275 510 280 510 280 511 275 511 281 511 282 512 284 512 283 512 283 513 284 513 290 513 283 514 290 514 289 514 289 515 290 515 295 515 282 516 285 516 284 516 284 517 285 517 291 517 284 518 291 518 290 518 290 519 291 519 295 519 282 520 286 520 285 520 285 521 286 521 292 521 285 522 292 522 291 522 291 523 292 523 295 523 282 524 287 524 286 524 286 525 287 525 293 525 286 526 293 526 292 526 292 527 293 527 295 527 282 528 288 528 287 528 287 529 288 529 294 529 287 530 294 530 293 530 293 531 294 531 295 531 282 532 283 532 288 532 288 533 283 533 289 533 288 534 289 534 294 534 294 535 289 535 295 535 296 536 298 536 297 536 297 537 298 537 304 537 297 538 304 538 303 538 303 539 304 539 309 539 296 540 299 540 298 540 298 541 299 541 305 541 298 542 305 542 304 542 304 543 305 543 309 543 296 544 300 544 299 544 299 545 300 545 306 545 299 546 306 546 305 546 305 547 306 547 309 547 296 548 301 548 300 548 300 549 301 549 307 549 300 550 307 550 306 550 306 551 307 551 309 551 296 552 302 552 301 552 301 553 302 553 308 553 301 554 308 554 307 554 307 555 308 555 309 555 296 556 297 556 302 556 302 557 297 557 303 557 302 558 303 558 308 558 308 559 303 559 309 559 310 560 312 560 311 560 311 561 312 561 318 561 311 562 318 562 317 562 317 563 318 563 323 563 310 564 313 564 312 564 312 565 313 565 319 565 312 566 319 566 318 566 318 567 319 567 323 567 310 568 314 568 313 568 313 569 314 569 320 569 313 570 320 570 319 570 319 571 320 571 323 571 310 572 315 572 314 572 314 573 315 573 321 573 314 574 321 574 320 574 320 575 321 575 323 575 310 576 316 576 315 576 315 577 316 577 322 577 315 578 322 578 321 578 321 579 322 579 323 579 310 580 311 580 316 580 316 581 311 581 317 581 316 582 317 582 322 582 322 583 317 583 323 583 324 584 326 584 325 584 325 585 326 585 332 585 325 586 332 586 331 586 331 587 332 587 337 587 324 588 327 588 326 588 326 589 327 589 333 589 326 590 333 590 332 590 332 591 333 591 337 591 324 592 328 592 327 592 327 593 328 593 334 593 327 594 334 594 333 594 333 595 334 595 337 595 324 596 329 596 328 596 328 597 329 597 335 597 328 598 335 598 334 598 334 599 335 599 337 599 324 600 330 600 329 600 329 601 330 601 336 601 329 602 336 602 335 602 335 603 336 603 337 603 324 604 325 604 330 604 330 605 325 605 331 605 330 606 331 606 336 606 336 607 331 607 337 607 338 608 340 608 339 608 339 609 340 609 346 609 339 610 346 610 345 610 345 611 346 611 351 611 338 612 341 612 340 612 340 613 341 613 347 613 340 614 347 614 346 614 346 615 347 615 351 615 338 616 342 616 341 616 341 617 342 617 348 617 341 618 348 618 347 618 347 619 348 619 351 619 338 620 343 620 342 620 342 621 343 621 349 621 342 622 349 622 348 622 348 623 349 623 351 623 338 624 344 624 343 624 343 625 344 625 350 625 343 626 350 626 349 626 349 627 350 627 351 627 338 628 339 628 344 628 344 629 339 629 345 629 344 630 345 630 350 630 350 631 345 631 351 631 352 632 354 632 353 632 353 633 354 633 360 633 353 634 360 634 359 634 359 635 360 635 365 635 352 636 355 636 354 636 354 637 355 637 361 637 354 638 361 638 360 638 360 639 361 639 365 639 352 640 356 640 355 640 355 641 356 641 362 641 355 642 362 642 361 642 361 643 362 643 365 643 352 644 357 644 356 644 356 645 357 645 363 645 356 646 363 646 362 646 362 647 363 647 365 647 352 648 358 648 357 648 357 649 358 649 364 649 357 650 364 650 363 650 363 651 364 651 365 651 352 652 353 652 358 652 358 653 353 653 359 653 358 654 359 654 364 654 364 655 359 655 365 655 366 656 368 656 367 656 367 657 368 657 374 657 367 658 374 658 373 658 373 659 374 659 379 659 366 660 369 660 368 660 368 661 369 661 375 661 368 662 375 662 374 662 374 663 375 663 379 663 366 664 370 664 369 664 369 665 370 665 376 665 369 666 376 666 375 666 375 667 376 667 379 667 366 668 371 668 370 668 370 669 371 669 377 669 370 670 377 670 376 670 376 671 377 671 379 671 366 672 372 672 371 672 371 673 372 673 378 673 371 674 378 674 377 674 377 675 378 675 379 675 366 676 367 676 372 676 372 677 367 677 373 677 372 678 373 678 378 678 378 679 373 679 379 679 380 680 382 680 381 680 381 681 382 681 388 681 381 682 388 682 387 682 387 683 388 683 393 683 380 684 383 684 382 684 382 685 383 685 389 685 382 686 389 686 388 686 388 687 389 687 393 687 380 688 384 688 383 688 383 689 384 689 390 689 383 690 390 690 389 690 389 691 390 691 393 691 380 692 385 692 384 692 384 693 385 693 391 693 384 694 391 694 390 694 390 695 391 695 393 695 380 696 386 696 385 696 385 697 386 697 392 697 385 698 392 698 391 698 391 699 392 699 393 699 380 700 381 700 386 700 386 701 381 701 387 701 386 702 387 702 392 702 392 703 387 703 393 703</p></triangles>
</mesh></geometry></library_geometries><library_visual_scenes><visual_scene id="Scene"><node id="mesh"><instance_geometry url="#geometry"/></node></visual_scene></library_visual_scenes><scene><instance_visual_scene url="#Scene"/></scene></COLLADA>