<?xml version="1.0" encoding="UTF-8"?>
<COLLADA xmlns="http://www.collada.org/2005/11/COLLADASchema" version="1.4.1">
<asset><contributor><authoring_tool>Summit Estate procedural mesh exporter</authoring_tool></contributor><created>2026-09-11T00:00:00Z</created><modified>2026-09-11T00:00:00Z</modified><unit name="meter" meter="1"/><up_axis>Z_UP</up_axis></asset>
<library_geometries><geometry id="geometry" name="geometry"><mesh>
<source id="positions"><float_array id="positions-array" count="378">69.40000 96.00000 80.72500 70.57000 96.00000 80.72500 70.51274 96.36155 80.72500 70.34655 96.68771 80.72500 70.08771 96.94655 80.72500 69.76155 97.11274 80.72500 69.40000 97.17000 80.72500 69.03845 97.11274 80.72500 68.71229 96.94655 80.72500 68.45345 96.68771 80.72500 68.28726 96.36155 80.72500 68.23000 96.00000 80.72500 68.28726 95.63845 80.72500 68.45345 95.31229 80.72500 68.71229 95.05345 80.72500 69.03845 94.88726 80.72500 69.40000 94.83000 80.72500 69.76155 94.88726 80.72500 70.08771 95.05345 80.72500 70.34655 95.31229 80.72500 70.51274 95.63845 80.72500 69.40000 102.00000 80.72500 70.57000 102.00000 80.72500 70.51274 102.36155 80.72500 70.34655 102.68771 80.72500 70.08771 102.94655 80.72500 69.76155 103.11274 80.72500 69.40000 103.17000 80.72500 69.03845 103.11274 80.72500 68.71229 102.94655 80.72500 68.45345 102.68771 80.72500 68.28726 102.36155 80.72500 68.23000 102.00000 80.72500 68.28726 101.63845 80.72500 68.45345 101.31229 80.72500 68.71229 101.05345 80.72500 69.03845 100.88726 80.72500 69.40000 100.83000 80.72500 69.76155 100.88726 80.72500 70.08771 101.05345 80.72500 70.34655 101.31229 80.72500 70.51274 101.63845 80.72500 69.40000 108.00000 80.72500 70.57000 108.00000 80.72500 70.51274 108.36155 80.72500 70.34655 108.68771 80.72500 70.08771 108.94655 80.72500 69.76155 109.11274 80.72500 69.40000 109.17000 80.72500 69.03845 109.11274 80.72500 68.71229 108.94655 80.72500 68.45345 108.68771 80.72500 68.28726 108.36155 80.72500 68.23000 108.00000 80.72500 68.28726 107.63845 80.72500 68.45345 107.31229 80.72500 68.71229 107.05345 80.72500 69.03845 106.88726 80.72500 69.40000 106.83000 80.72500 69.76155 106.88726 80.72500 70.08771 107.05345 80.72500 70.34655 107.31229 80.72500 70.51274 107.63845 80.72500 86.60000 96.00000 80.72500 87.77000 96.00000 80.72500 87.71274 96.36155 80.72500 87.54655 96.68771 80.72500 87.28771 96.94655 80.72500 86.96155 97.11274 80.72500 86.60000 97.17000 80.72500 86.23845 97.11274 80.72500 85.91229 96.94655 80.72500 85.65345 96.68771 80.72500 85.48726 96.36155 80.72500 85.43000 96.00000 80.72500 85.48726 95.63845 80.72500 85.65345 95.31229 80.72500 85.91229 95.05345 80.72500 86.23845 94.88726 80.72500 86.60000 94.83000 80.72500 86.96155 94.88726 80.72500 87.28771 95.05345 80.72500 87.54655 95.31229 80.72500 87.71274 95.63845 80.72500 86.60000 102.00000 80.72500 87.77000 102.00000 80.72500 87.71274 102.36155 80.72500 87.54655 102.68771 80.72500 87.28771 102.94655 80.72500 86.96155 103.11274 80.72500 86.60000 103.17000 80.72500 86.23845 103.11274 80.72500 85.91229 102.94655 80.72500 85.65345 102.68771 80.72500 85.48726 102.36155 80.72500 85.43000 102.00000 80.72500 85.48726 101.63845 80.72500 85.65345 101.31229 80.72500 85.91229 101.05345 80.72500 86.23845 100.88726 80.72500 86.60000 100.83000 80.72500 86.96155 100.88726 80.72500 87.28771 101.05345 80.72500 87.54655 101.31229 80.72500 87.71274 101.63845 80.72500 86.60000 108.00000 80.72500 87.77000 108.00000 80.72500 87.71274 108.36155 80.72500 87.54655 108.68771 80.72500 87.28771 108.94655 80.72500 86.96155 109.11274 80.72500 86.60000 109.17000 80.72500 86.23845 109.11274 80.72500 85.91229 108.94655 80.72500 85.65345 108.68771 80.72500 85.48726 108.36155 80.72500 85.43000 108.00000 80.72500 85.48726 107.63845 80.72500 85.65345 107.31229 80.72500 85.91229 107.05345 80.72500 86.23845 106.88726 80.72500 86.60000 106.83000 80.72500 86.96155 106.88726 80.72500 87.28771 107.05345 80.72500 87.54655 107.31229 80.72500 87.71274 107.63845 80.72500</float_array><technique_common><accessor source="#positions-array" count="126" stride="3"><param name="X" type="float"/><param name="Y" type="float"/><param name="Z" type="float"/></accessor></technique_common></source>
<source id="normals"><float_array id="normals-array" count="360">0.00000 0.00000 1.00000 0.00000 0.00000 1.00000 0.00000 0.00000 1.00000 0.00000 0.00000 1.00000 0.00000 0.00000 1.00000 0.00000 -0.00000 1.00000 0.00000 0.00000 1.00000 0.00000 0.00000 1.00000 0.00000 0.00000 1.00000 0.00000 0.00000 1.00000 0.00000 0.00000 1.00000 0.00000 0.00000 1.00000 0.00000 0.00000 1.00000 0.00000 0.00000 1.00000 0.00000 0.00000 1.00000 0.00000 0.00000 1.00000 0.00000 0.00000 1.00000 0.00000 0.00000 1.00000 0.00000 0.00000 1.00000 -0.00000 0.00000 1.00000 0.00000 0.00000 1.00000 0.00000 0.00000 1.00000 0.00000 0.00000 1.00000 0.00000 0.00000 1.00000 0.00000 0.00000 1.00000 0.00000 -0.00000 1.00000 0.00000 0.00000 1.00000 0.00000 0.00000 1.00000 0.00000 0.00000 1.00000 0.00000 0.00000 1.00000 0.00000 0.00000 1.00000 0.00000 0.00000 1.00000 0.00000 0.00000 1.00000 0.00000 0.00000 1.00000 0.00000 0.00000 1.00000 0.00000 0.00000 1.00000 0.00000 0.00000 1.00000 0.00000 0.00000 1.00000 0.00000 0.00000 1.00000 -0.00000 0.00000 1.00000 0.00000 0.00000 1.00000 0.00000 0.00000 1.00000 0.00000 0.00000 1.00000 0.00000 0.00000 1.00000 0.00000 0.00000 1.00000 0.00000 -0.00000 1.00000 0.00000 0.00000 1.00000 0.00000 0.00000 1.00000 0.00000 0.00000 1.00000 0.00000 0.00000 1.00000 0.00000 0.00000 1.00000 0.00000 0.00000 1.00000 0.00000 0.00000 1.00000 0.00000 0.00000 1.00000 0.00000 0.00000 1.00000 0.00000 0.00000 1.00000 0.00000 0.00000 1.00000 0.00000 0.00000 1.00000 0.00000 0.00000 1.00000 -0.00000 0.00000 1.00000 0.00000 0.00000 1.00000 0.00000 0.00000 1.00000 0.00000 0.00000 1.00000 0.00000 0.00000 1.00000 0.00000 0.00000 1.00000 0.00000 -0.00000 1.00000 0.00000 0.00000 1.00000 0.00000 0.00000 1.00000 0.00000 0.00000 1.00000 0.00000 0.00000 1.00000 0.00000 0.00000 1.00000 0.00000 0.00000 1.00000 0.00000 0.00000 1.00000 0.00000 0.00000 1.00000 0.00000 0.00000 1.00000 0.00000 0.00000 1.00000 0.00000 0.00000 1.00000 0.00000 0.00000 1.00000 0.00000 0.00000 1.00000 -0.00000 0.00000 1.00000 0.00000 0.00000 1.00000 0.00000 0.00000 1.00000 0.00000 0.00000 1.00000 0.00000 0.00000 1.00000 0.00000 0.00000 1.00000 0.00000 -0.00000 1.00000 0.00000 0.00000 1.00000 0.00000 0.00000 1.00000 0.00000 0.00000 1.00000 0.00000 0.00000 1.00000 0.00000 0.00000 1.00000 0.00000 0.00000 1.00000 0.00000 0.00000 1.00000 0.00000 0.00000 1.00000 0.00000 0.00000 1.00000 0.00000 0.00000 1.00000 0.00000 0.00000 1.00000 0.00000 0.00000 1.00000 0.00000 0.00000 1.00000 -0.00000 0.00000 1.00000 0.00000 0.00000 1.00000 0.00000 0.00000 1.00000 0.00000 0.00000 1.00000 0.00000 0.00000 1.00000 0.00000 0.00000 1.00000 0.00000 -0.00000 1.00000 0.00000 0.00000 1.00000 0.00000 0.00000 1.00000 0.00000 0.00000 1.00000 0.00000 0.00000 1.00000 0.00000 0.00000 1.00000 0.00000 0.00000 1.00000 0.00000 0.00000 1.00000 0.00000 0.00000 1.00000 0.00000 0.00000 1.00000 0.00000 0.00000 1.00000 0.00000 0.00000 1.00000 0.00000 0.00000 1.00000 0.00000 0.00000 1.00000 -0.00000 0.00000 1.00000</float_array><technique_common><accessor source="#normals-array" count="120" stride="3"><param name="X" type="float"/><param name="Y" type="float"/><param name="Z" type="float"/></accessor></technique_common></source>
<vertices id="vertices"><input semantic="POSITION" source="#positions"/></vertices><triangles count="120"><input semantic="VERTEX" source="#vertices" offset="0"/><input semantic="NORMAL" source="#normals" offset="1"/><p>0 0 1 0 2 0 0 1 2 1 3 1 0 2 3 2 4 2 0 3 4 3 5 3 0 4 5 4 6 4 0 5 6 5 7 5 0 6 7 6 8 6 0 7 8 7 9 7 0 8 9 8 10 8 0 9 10 9 11 9 0 10 11 10 12 10 0 11 12 11 13 11 0 12 13 12 14 12 0 13 14 13 15 13 0 14 15 14 16 14 0 15 16 15 17 15 0 16 17 16 18 16 0 17 18 17 19 17 0 18 19 18 20 18 0 19 20 19 1 19 21 20 22 20 23 20 21 21 23 21 24 21 21 22 24 22 25 22 21 23 25 23 26 23 21 24 26 24 27 24 21 25 27 25 28 25 21 26 28 26 29 26 21 27 29 27 30 27 21 28 30 28 31 28 21 29 31 29 32 29 21 30 32 30 33 30 21 31 33 31 34 31 21 32 34 32 35 32 21 33 35 33 36 33 21 34 36 34 37 34 21 35 37 35 38 35 21 36 38 36 39 36 21 37 39 37 40 37 21 38 40 38 41 38 21 39 41 39 22 39 42 40 43 40 44 40 42 41 44 41 45 41 42 42 45 42 46 42 42 43 46 43 47 43 42 44 47 44 48 44 42 45 48 45 49 45 42 46 49 46 50 46 42 47 50 47 51 47 42 48 51 48 52 48 42 49 52 49 53 49 42 50 53 50 54 50 42 51 54 51 55 51 42 52 55 52 56 52 42 53 56 53 57 53 42 54 57 54 58 54 42 55 58 55 59 55 42 56 59 56 60 56 42 57 60 57 61 57 42 58 61 58 62 58 42 59 62 59 43 59 63 60 64 60 65 60 63 61 65 61 66 61 63 62 66 62 67 62 63 63 67 63 68 63 63 64 68 64 69 64 63 65 69 65 70 65 63 66 70 66 71 66 63 67 71 67 72 67 63 68 72 68 73 68 63 69 73 69 74 69 63 70 74 70 75 70 63 71 75 71 76 71 63 72 76 72 77 72 63 73 77 73 78 73 63 74 78 74 79 74 63 75 79 75 80 75 63 76 80 76 81 76 63 77 81 77 82 77 63 78 82 78 83 78 63 79 83 79 64 79 84 80 85 80 86 80 84 81 86 81 87 81 84 82 87 82 88 82 84 83 88 83 89 83 84 84 89 84 90 84 84 85 90 85 91 85 84 86 91 86 92 86 84 87 92 87 93 87 84 88 93 88 94 88 84 89 94 89 95 89 84 90 95 90 96 90 84 91 96 91 97 91 84 92 97 92 98 92 84 93 98 93 99 93 84 94 99 94 100 94 84 95 100 95 101 95 84 96 101 96 102 96 84 97 102 97 103 97 84 98 103 98 104 98 84 99 104 99 85 99 105 100 106 100 107 100 105 101 107 101 108 101 105 102 108 102 109 102 105 103 109 103 110 103 105 104 110 104 111 104 105 105 111 105 112 105 105 106 112 106 113 106 105 107 113 107 114 107 105 108 114 108 115 108 105 109 115 109 116 109 105 110 116 110 117 110 105 111 117 111 118 111 105 112 118 112 119 112 105 113 119 113 120 113 105 114 120 114 121 114 105 115 121 115 122 115 105 116 122 116 123 116 105 117 123 117 124 117 105 118 124 118 125 118 105 119 125 119 106 119</p></triangles>
</mesh></geometry></library_geometries><library_visual_scenes><visual_scene id="Scene"><node id="mesh"><instance_geometry url="#geometry"/></node></visual_scene></library_visual_scenes><scene><instance_visual_scene url="#Scene"/></scene></COLLADA>