<?xml version="1.0" encoding="UTF-8"?>
<COLLADA xmlns="http://www.collada.org/2005/11/COLLADASchema" version="1.4.1">
<asset><contributor><authoring_tool>Summit Estate procedural mesh exporter</authoring_tool></contributor><created>2026-09-11T00:00:00Z</created><modified>2026-09-11T00:00:00Z</modified><unit name="meter" meter="1"/><up_axis>Z_UP</up_axis></asset>
<library_geometries><geometry id="geometry" name="geometry"><mesh>
<source id="positions"><float_array id="positions-array" count="243">78.00000 58.00000 80.04000 103.65000 58.00000 80.04000 103.57093 60.01248 80.04000 103.33421 62.01254 80.04000 102.94129 63.98787 80.04000 102.39460 65.92629 80.04000 101.69751 67.81583 80.04000 100.85432 69.64486 80.04000 99.87022 71.40209 80.04000 98.75129 73.07669 80.04000 97.50441 74.65834 80.04000 96.13729 76.13729 80.04000 94.65834 77.50441 80.04000 93.07669 78.75129 80.04000 91.40209 79.87022 80.04000 89.64486 80.85432 80.04000 87.81583 81.69751 80.04000 85.92629 82.39460 80.04000 83.98787 82.94129 80.04000 82.01254 83.33421 80.04000 80.01248 83.57093 80.04000 78.00000 83.65000 80.04000 75.98752 83.57093 80.04000 73.98746 83.33421 80.04000 72.01213 82.94129 80.04000 70.07371 82.39460 80.04000 68.18417 81.69751 80.04000 66.35514 80.85432 80.04000 64.59791 79.87022 80.04000 62.92331 78.75129 80.04000 61.34166 77.50441 80.04000 59.86271 76.13729 80.04000 58.49559 74.65834 80.04000 57.24871 73.07669 80.04000 56.12978 71.40209 80.04000 55.14568 69.64486 80.04000 54.30249 67.81583 80.04000 53.60540 65.92629 80.04000 53.05871 63.98787 80.04000 52.66579 62.01254 80.04000 52.42907 60.01248 80.04000 52.35000 58.00000 80.04000 52.42907 55.98752 80.04000 52.66579 53.98746 80.04000 53.05871 52.01213 80.04000 53.60540 50.07371 80.04000 54.30249 48.18417 80.04000 55.14568 46.35514 80.04000 56.12978 44.59791 80.04000 57.24871 42.92331 80.04000 58.49559 41.34166 80.04000 59.86271 39.86271 80.04000 61.34166 38.49559 80.04000 62.92331 37.24871 80.04000 64.59791 36.12978 80.04000 66.35514 35.14568 80.04000 68.18417 34.30249 80.04000 70.07371 33.60540 80.04000 72.01213 33.05871 80.04000 73.98746 32.66579 80.04000 75.98752 32.42907 80.04000 78.00000 32.35000 80.04000 80.01248 32.42907 80.04000 82.01254 32.66579 80.04000 83.98787 33.05871 80.04000 85.92629 33.60540 80.04000 87.81583 34.30249 80.04000 89.64486 35.14568 80.04000 91.40209 36.12978 80.04000 93.07669 37.24871 80.04000 94.65834 38.49559 80.04000 96.13729 39.86271 80.04000 97.50441 41.34166 80.04000 98.75129 42.92331 80.04000 99.87022 44.59791 80.04000 100.85432 46.35514 80.04000 101.69751 48.18417 80.04000 102.39460 50.07371 80.04000 102.94129 52.01213 80.04000 103.33421 53.98746 80.04000 103.57093 55.98752 80.04000</float_array><technique_common><accessor source="#positions-array" count="81" stride="3"><param name="X" type="float"/><param name="Y" type="float"/><param name="Z" type="float"/></accessor></technique_common></source>
<source id="normals"><float_array id="normals-array" count="240">0.00000 0.00000 1.00000 0.00000 0.00000 1.00000 0.00000 0.00000 1.00000 0.00000 0.00000 1.00000 0.00000 0.00000 1.00000 0.00000 0.00000 1.00000 0.00000 0.00000 1.00000 0.00000 0.00000 1.00000 0.00000 0.00000 1.00000 0.00000 0.00000 1.00000 0.00000 0.00000 1.00000 0.00000 0.00000 1.00000 0.00000 0.00000 1.00000 0.00000 0.00000 1.00000 0.00000 0.00000 1.00000 0.00000 0.00000 1.00000 0.00000 0.00000 1.00000 0.00000 0.00000 1.00000 0.00000 0.00000 1.00000 0.00000 0.00000 1.00000 0.00000 -0.00000 1.00000 0.00000 0.00000 1.00000 0.00000 0.00000 1.00000 0.00000 0.00000 1.00000 0.00000 0.00000 1.00000 0.00000 0.00000 1.00000 0.00000 0.00000 1.00000 0.00000 0.00000 1.00000 0.00000 0.00000 1.00000 0.00000 0.00000 1.00000 0.00000 0.00000 1.00000 0.00000 0.00000 1.00000 0.00000 0.00000 1.00000 0.00000 0.00000 1.00000 0.00000 0.00000 1.00000 0.00000 0.00000 1.00000 0.00000 0.00000 1.00000 0.00000 0.00000 1.00000 0.00000 0.00000 1.00000 0.00000 0.00000 1.00000 0.00000 0.00000 1.00000 0.00000 0.00000 1.00000 0.00000 0.00000 1.00000 0.00000 0.00000 1.00000 0.00000 0.00000 1.00000 0.00000 0.00000 1.00000 0.00000 0.00000 1.00000 0.00000 0.00000 1.00000 0.00000 0.00000 1.00000 0.00000 0.00000 1.00000 0.00000 0.00000 1.00000 0.00000 0.00000 1.00000 0.00000 0.00000 1.00000 0.00000 0.00000 1.00000 0.00000 0.00000 1.00000 0.00000 0.00000 1.00000 0.00000 0.00000 1.00000 0.00000 0.00000 1.00000 0.00000 0.00000 1.00000 0.00000 0.00000 1.00000 0.00000 0.00000 1.00000 0.00000 0.00000 1.00000 0.00000 0.00000 1.00000 0.00000 0.00000 1.00000 0.00000 0.00000 1.00000 0.00000 0.00000 1.00000 0.00000 0.00000 1.00000 0.00000 0.00000 1.00000 0.00000 0.00000 1.00000 0.00000 0.00000 1.00000 0.00000 0.00000 1.00000 0.00000 0.00000 1.00000 0.00000 0.00000 1.00000 0.00000 0.00000 1.00000 0.00000 0.00000 1.00000 0.00000 0.00000 1.00000 0.00000 0.00000 1.00000 0.00000 0.00000 1.00000 0.00000 0.00000 1.00000 -0.00000 0.00000 1.00000</float_array><technique_common><accessor source="#normals-array" count="80" stride="3"><param name="X" type="float"/><param name="Y" type="float"/><param name="Z" type="float"/></accessor></technique_common></source>
<vertices id="vertices"><input semantic="POSITION" source="#positions"/></vertices><triangles count="80"><input semantic="VERTEX" source="#vertices" offset="0"/><input semantic="NORMAL" source="#normals" offset="1"/><p>0 0 1 0 2 0 0 1 2 1 3 1 0 2 3 2 4 2 0 3 4 3 5 3 0 4 5 4 6 4 0 5 6 5 7 5 0 6 7 6 8 6 0 7 8 7 9 7 0 8 9 8 10 8 0 9 10 9 11 9 0 10 11 10 12 10 0 11 12 11 13 11 0 12 13 12 14 12 0 13 14 13 15 13 0 14 15 14 16 14 0 15 16 15 17 15 0 16 17 16 18 16 0 17 18 17 19 17 0 18 19 18 20 18 0 19 20 19 21 19 0 20 21 20 22 20 0 21 22 21 23 21 0 22 23 22 24 22 0 23 24 23 25 23 0 24 25 24 26 24 0 25 26 25 27 25 0 26 27 26 28 26 0 27 28 27 29 27 0 28 29 28 30 28 0 29 30 29 31 29 0 30 31 30 32 30 0 31 32 31 33 31 0 32 33 32 34 32 0 33 34 33 35 33 0 34 35 34 36 34 0 35 36 35 37 35 0 36 37 36 38 36 0 37 38 37 39 37 0 38 39 38 40 38 0 39 40 39 41 39 0 40 41 40 42 40 0 41 42 41 43 41 0 42 43 42 44 42 0 43 44 43 45 43 0 44 45 44 46 44 0 45 46 45 47 45 0 46 47 46 48 46 0 47 48 47 49 47 0 48 49 48 50 48 0 49 50 49 51 49 0 50 51 50 52 50 0 51 52 51 53 51 0 52 53 52 54 52 0 53 54 53 55 53 0 54 55 54 56 54 0 55 56 55 57 55 0 56 57 56 58 56 0 57 58 57 59 57 0 58 59 58 60 58 0 59 60 59 61 59 0 60 61 60 62 60 0 61 62 61 63 61 0 62 63 62 64 62 0 63 64 63 65 63 0 64 65 64 66 64 0 65 66 65 67 65 0 66 67 66 68 66 0 67 68 67 69 67 0 68 69 68 70 68 0 69 70 69 71 69 0 70 71 70 72 70 0 71 72 71 73 71 0 72 73 72 74 72 0 73 74 73 75 73 0 74 75 74 76 74 0 75 76 75 77 75 0 76 77 76 78 76 0 77 78 77 79 77 0 78 79 78 80 78 0 79 80 79 1 79</p></triangles>
</mesh></geometry></library_geometries><library_visual_scenes><visual_scene id="Scene"><node id="mesh"><instance_geometry url="#geometry"/></node></visual_scene></library_visual_scenes><scene><instance_visual_scene url="#Scene"/></scene></COLLADA>