<?xml version="1.0" encoding="UTF-8"?>
<COLLADA xmlns="http://www.collada.org/2005/11/COLLADASchema" version="1.4.1">
<asset><contributor><authoring_tool>Summit Estate procedural mesh exporter</authoring_tool></contributor><created>2026-09-11T00:00:00Z</created><modified>2026-09-11T00:00:00Z</modified><unit name="meter" meter="1"/><up_axis>Z_UP</up_axis></asset>
<library_geometries><geometry id="geometry" name="geometry"><mesh>
<source id="positions"><float_array id="positions-array" count="2628">90.00000 58.00000 80.02000 89.97431 58.78484 80.02000 89.89734 59.56631 80.02000 89.76942 60.34108 80.02000 89.59111 61.10583 80.02000 89.36316 61.85727 80.02000 89.08655 62.59220 80.02000 88.76247 63.30746 80.02000 88.39230 64.00000 80.02000 87.97764 64.66684 80.02000 87.52024 65.30514 80.02000 87.02208 65.91215 80.02000 86.48528 66.48528 80.02000 85.91215 67.02208 80.02000 85.30514 67.52024 80.02000 84.66684 67.97764 80.02000 84.00000 68.39230 80.02000 83.30746 68.76247 80.02000 82.59220 69.08655 80.02000 81.85727 69.36316 80.02000 81.10583 69.59111 80.02000 80.34108 69.76942 80.02000 79.56631 69.89734 80.02000 78.78484 69.97431 80.02000 78.00000 70.00000 80.02000 77.21516 69.97431 80.02000 76.43369 69.89734 80.02000 75.65892 69.76942 80.02000 74.89417 69.59111 80.02000 74.14273 69.36316 80.02000 73.40780 69.08655 80.02000 72.69254 68.76247 80.02000 72.00000 68.39230 80.02000 71.33316 67.97764 80.02000 70.69486 67.52024 80.02000 70.08785 67.02208 80.02000 69.51472 66.48528 80.02000 68.97792 65.91215 80.02000 68.47976 65.30514 80.02000 68.02236 64.66684 80.02000 67.60770 64.00000 80.02000 67.23753 63.30746 80.02000 66.91345 62.59220 80.02000 66.63684 61.85727 80.02000 66.40889 61.10583 80.02000 66.23058 60.34108 80.02000 66.10266 59.56631 80.02000 66.02569 58.78484 80.02000 66.00000 58.00000 80.02000 66.02569 57.21516 80.02000 66.10266 56.43369 80.02000 66.23058 55.65892 80.02000 66.40889 54.89417 80.02000 66.63684 54.14273 80.02000 66.91345 53.40780 80.02000 67.23753 52.69254 80.02000 67.60770 52.00000 80.02000 68.02236 51.33316 80.02000 68.47976 50.69486 80.02000 68.97792 50.08785 80.02000 69.51472 49.51472 80.02000 70.08785 48.97792 80.02000 70.69486 48.47976 80.02000 71.33316 48.02236 80.02000 72.00000 47.60770 80.02000 72.69254 47.23753 80.02000 73.40780 46.91345 80.02000 74.14273 46.63684 80.02000 74.89417 46.40889 80.02000 75.65892 46.23058 80.02000 76.43369 46.10266 80.02000 77.21516 46.02569 80.02000 78.00000 46.00000 80.02000 78.78484 46.02569 80.02000 79.56631 46.10266 80.02000 80.34108 46.23058 80.02000 81.10583 46.40889 80.02000 81.85727 46.63684 80.02000 82.59220 46.91345 80.02000 83.30746 47.23753 80.02000 84.00000 47.60770 80.02000 84.66684 48.02236 80.02000 85.30514 48.47976 80.02000 85.91215 48.97792 80.02000 86.48528 49.51472 80.02000 87.02208 50.08785 80.02000 87.52024 50.69486 80.02000 87.97764 51.33316 80.02000 88.39230 52.00000 80.02000 88.76247 52.69254 80.02000 89.08655 53.40780 80.02000 89.36316 54.14273 80.02000 89.59111 54.89417 80.02000 89.76942 55.65892 80.02000 89.89734 56.43369 80.02000 89.97431 57.21516 80.02000 94.00000 58.00000 80.02000 93.96574 59.04645 80.02000 93.86312 60.08842 80.02000 93.69256 61.12145 80.02000 93.45481 62.14110 80.02000 93.15088 63.14303 80.02000 92.78207 64.12293 80.02000 92.34996 65.07662 80.02000 91.85641 66.00000 80.02000 91.30351 66.88912 80.02000 90.69365 67.74018 80.02000 90.02944 68.54953 80.02000 89.31371 69.31371 80.02000 88.54953 70.02944 80.02000 87.74018 70.69365 80.02000 86.88912 71.30351 80.02000 86.00000 71.85641 80.02000 85.07662 72.34996 80.02000 84.12293 72.78207 80.02000 83.14303 73.15088 80.02000 82.14110 73.45481 80.02000 81.12145 73.69256 80.02000 80.08842 73.86312 80.02000 79.04645 73.96574 80.02000 78.00000 74.00000 80.02000 76.95355 73.96574 80.02000 75.91158 73.86312 80.02000 74.87855 73.69256 80.02000 73.85890 73.45481 80.02000 72.85697 73.15088 80.02000 71.87707 72.78207 80.02000 70.92338 72.34996 80.02000 70.00000 71.85641 80.02000 69.11088 71.30351 80.02000 68.25982 70.69365 80.02000 67.45047 70.02944 80.02000 66.68629 69.31371 80.02000 65.97056 68.54953 80.02000 65.30635 67.74018 80.02000 64.69649 66.88912 80.02000 64.14359 66.00000 80.02000 63.65004 65.07662 80.02000 63.21793 64.12293 80.02000 62.84912 63.14303 80.02000 62.54519 62.14110 80.02000 62.30744 61.12145 80.02000 62.13688 60.08842 80.02000 62.03426 59.04645 80.02000 62.00000 58.00000 80.02000 62.03426 56.95355 80.02000 62.13688 55.91158 80.02000 62.30744 54.87855 80.02000 62.54519 53.85890 80.02000 62.84912 52.85697 80.02000 63.21793 51.87707 80.02000 63.65004 50.92338 80.02000 64.14359 50.00000 80.02000 64.69649 49.11088 80.02000 65.30635 48.25982 80.02000 65.97056 47.45047 80.02000 66.68629 46.68629 80.02000 67.45047 45.97056 80.02000 68.25982 45.30635 80.02000 69.11088 44.69649 80.02000 70.00000 44.14359 80.02000 70.92338 43.65004 80.02000 71.87707 43.21793 80.02000 72.85697 42.84912 80.02000 73.85890 42.54519 80.02000 74.87855 42.30744 80.02000 75.91158 42.13688 80.02000 76.95355 42.03426 80.02000 78.00000 42.00000 80.02000 79.04645 42.03426 80.02000 80.08842 42.13688 80.02000 81.12145 42.30744 80.02000 82.14110 42.54519 80.02000 83.14303 42.84912 80.02000 84.12293 43.21793 80.02000 85.07662 43.65004 80.02000 86.00000 44.14359 80.02000 86.88912 44.69649 80.02000 87.74018 45.30635 80.02000 88.54953 45.97056 80.02000 89.31371 46.68629 80.02000 90.02944 47.45047 80.02000 90.69365 48.25982 80.02000 91.30351 49.11088 80.02000 91.85641 50.00000 80.02000 92.34996 50.92338 80.02000 92.78207 51.87707 80.02000 93.15088 52.85697 80.02000 93.45481 53.85890 80.02000 93.69256 54.87855 80.02000 93.86312 55.91158 80.02000 93.96574 56.95355 80.02000 90.00000 58.00000 80.18000 89.97431 58.78484 80.18000 89.89734 59.56631 80.18000 89.76942 60.34108 80.18000 89.59111 61.10583 80.18000 89.36316 61.85727 80.18000 89.08655 62.59220 80.18000 88.76247 63.30746 80.18000 88.39230 64.00000 80.18000 87.97764 64.66684 80.18000 87.52024 65.30514 80.18000 87.02208 65.91215 80.18000 86.48528 66.48528 80.18000 85.91215 67.02208 80.18000 85.30514 67.52024 80.18000 84.66684 67.97764 80.18000 84.00000 68.39230 80.18000 83.30746 68.76247 80.18000 82.59220 69.08655 80.18000 81.85727 69.36316 80.18000 81.10583 69.59111 80.18000 80.34108 69.76942 80.18000 79.56631 69.89734 80.18000 78.78484 69.97431 80.18000 78.00000 70.00000 80.18000 77.21516 69.97431 80.18000 76.43369 69.89734 80.18000 75.65892 69.76942 80.18000 74.89417 69.59111 80.18000 74.14273 69.36316 80.18000 73.40780 69.08655 80.18000 72.69254 68.76247 80.18000 72.00000 68.39230 80.18000 71.33316 67.97764 80.18000 70.69486 67.52024 80.18000 70.08785 67.02208 80.18000 69.51472 66.48528 80.18000 68.97792 65.91215 80.18000 68.47976 65.30514 80.18000 68.02236 64.66684 80.18000 67.60770 64.00000 80.18000 67.23753 63.30746 80.18000 66.91345 62.59220 80.18000 66.63684 61.85727 80.18000 66.40889 61.10583 80.18000 66.23058 60.34108 80.18000 66.10266 59.56631 80.18000 66.02569 58.78484 80.18000 66.00000 58.00000 80.18000 66.02569 57.21516 80.18000 66.10266 56.43369 80.18000 66.23058 55.65892 80.18000 66.40889 54.89417 80.18000 66.63684 54.14273 80.18000 66.91345 53.40780 80.18000 67.23753 52.69254 80.18000 67.60770 52.00000 80.18000 68.02236 51.33316 80.18000 68.47976 50.69486 80.18000 68.97792 50.08785 80.18000 69.51472 49.51472 80.18000 70.08785 48.97792 80.18000 70.69486 48.47976 80.18000 71.33316 48.02236 80.18000 72.00000 47.60770 80.18000 72.69254 47.23753 80.18000 73.40780 46.91345 80.18000 74.14273 46.63684 80.18000 74.89417 46.40889 80.18000 75.65892 46.23058 80.18000 76.43369 46.10266 80.18000 77.21516 46.02569 80.18000 78.00000 46.00000 80.18000 78.78484 46.02569 80.18000 79.56631 46.10266 80.18000 80.34108 46.23058 80.18000 81.10583 46.40889 80.18000 81.85727 46.63684 80.18000 82.59220 46.91345 80.18000 83.30746 47.23753 80.18000 84.00000 47.60770 80.18000 84.66684 48.02236 80.18000 85.30514 48.47976 80.18000 85.91215 48.97792 80.18000 86.48528 49.51472 80.18000 87.02208 50.08785 80.18000 87.52024 50.69486 80.18000 87.97764 51.33316 80.18000 88.39230 52.00000 80.18000 88.76247 52.69254 80.18000 89.08655 53.40780 80.18000 89.36316 54.14273 80.18000 89.59111 54.89417 80.18000 89.76942 55.65892 80.18000 89.89734 56.43369 80.18000 89.97431 57.21516 80.18000 94.00000 58.00000 80.18000 93.96574 59.04645 80.18000 93.86312 60.08842 80.18000 93.69256 61.12145 80.18000 93.45481 62.14110 80.18000 93.15088 63.14303 80.18000 92.78207 64.12293 80.18000 92.34996 65.07662 80.18000 91.85641 66.00000 80.18000 91.30351 66.88912 80.18000 90.69365 67.74018 80.18000 90.02944 68.54953 80.18000 89.31371 69.31371 80.18000 88.54953 70.02944 80.18000 87.74018 70.69365 80.18000 86.88912 71.30351 80.18000 86.00000 71.85641 80.18000 85.07662 72.34996 80.18000 84.12293 72.78207 80.18000 83.14303 73.15088 80.18000 82.14110 73.45481 80.18000 81.12145 73.69256 80.18000 80.08842 73.86312 80.18000 79.04645 73.96574 80.18000 78.00000 74.00000 80.18000 76.95355 73.96574 80.18000 75.91158 73.86312 80.18000 74.87855 73.69256 80.18000 73.85890 73.45481 80.18000 72.85697 73.15088 80.18000 71.87707 72.78207 80.18000 70.92338 72.34996 80.18000 70.00000 71.85641 80.18000 69.11088 71.30351 80.18000 68.25982 70.69365 80.18000 67.45047 70.02944 80.18000 66.68629 69.31371 80.18000 65.97056 68.54953 80.18000 65.30635 67.74018 80.18000 64.69649 66.88912 80.18000 64.14359 66.00000 80.18000 63.65004 65.07662 80.18000 63.21793 64.12293 80.18000 62.84912 63.14303 80.18000 62.54519 62.14110 80.18000 62.30744 61.12145 80.18000 62.13688 60.08842 80.18000 62.03426 59.04645 80.18000 62.00000 58.00000 80.18000 62.03426 56.95355 80.18000 62.13688 55.91158 80.18000 62.30744 54.87855 80.18000 62.54519 53.85890 80.18000 62.84912 52.85697 80.18000 63.21793 51.87707 80.18000 63.65004 50.92338 80.18000 64.14359 50.00000 80.18000 64.69649 49.11088 80.18000 65.30635 48.25982 80.18000 65.97056 47.45047 80.18000 66.68629 46.68629 80.18000 67.45047 45.97056 80.18000 68.25982 45.30635 80.18000 69.11088 44.69649 80.18000 70.00000 44.14359 80.18000 70.92338 43.65004 80.18000 71.87707 43.21793 80.18000 72.85697 42.84912 80.18000 73.85890 42.54519 80.18000 74.87855 42.30744 80.18000 75.91158 42.13688 80.18000 76.95355 42.03426 80.18000 78.00000 42.00000 80.18000 79.04645 42.03426 80.18000 80.08842 42.13688 80.18000 81.12145 42.30744 80.18000 82.14110 42.54519 80.18000 83.14303 42.84912 80.18000 84.12293 43.21793 80.18000 85.07662 43.65004 80.18000 86.00000 44.14359 80.18000 86.88912 44.69649 80.18000 87.74018 45.30635 80.18000 88.54953 45.97056 80.18000 89.31371 46.68629 80.18000 90.02944 47.45047 80.18000 90.69365 48.25982 80.18000 91.30351 49.11088 80.18000 91.85641 50.00000 80.18000 92.34996 50.92338 80.18000 92.78207 51.87707 80.18000 93.15088 52.85697 80.18000 93.45481 53.85890 80.18000 93.69256 54.87855 80.18000 93.86312 55.91158 80.18000 93.96574 56.95355 80.18000 72.00000 92.00000 80.00000 84.00000 92.00000 80.00000 84.00000 115.00000 80.00000 72.00000 115.00000 80.00000 72.00000 92.00000 80.20000 84.00000 92.00000 80.20000 84.00000 115.00000 80.20000 72.00000 115.00000 80.20000 114.70000 58.00000 80.15000 115.00000 58.00000 80.15000 114.64970 59.92073 80.15000 114.94929 59.93643 80.15000 114.49895 61.83619 80.15000 114.79731 61.86755 80.15000 114.24816 63.74114 80.15000 114.54447 63.78808 80.15000 113.89802 65.63036 80.15000 114.19146 65.69273 80.15000 113.44948 67.49866 80.15000 113.73926 67.57630 80.15000 112.90377 69.34092 80.15000 113.18909 69.43363 80.15000 112.26240 71.15210 80.15000 112.54248 71.25961 80.15000 111.52712 72.92723 80.15000 111.80118 73.04926 80.15000 110.69994 74.66145 80.15000 110.96724 74.79765 80.15000 109.78313 76.35000 80.15000 110.04294 76.50000 80.15000 108.77921 77.98825 80.15000 109.03081 78.15164 80.15000 107.69092 79.57172 80.15000 107.93363 79.74805 80.15000 106.52126 81.09606 80.15000 106.75440 81.28485 80.15000 105.27342 82.55709 80.15000 105.49636 82.75783 80.15000 103.95082 83.95082 80.15000 104.16295 84.16295 80.15000 102.55709 85.27342 80.15000 102.75783 85.49636 80.15000 101.09606 86.52126 80.15000 101.28485 86.75440 80.15000 99.57172 87.69092 80.15000 99.74805 87.93363 80.15000 97.98825 88.77921 80.15000 98.15164 89.03081 80.15000 96.35000 89.78313 80.15000 96.50000 90.04294 80.15000 94.66145 90.69994 80.15000 94.79765 90.96724 80.15000 92.92723 91.52712 80.15000 93.04926 91.80118 80.15000 91.15210 92.26240 80.15000 91.25961 92.54248 80.15000 89.34092 92.90377 80.15000 89.43363 93.18909 80.15000 87.49866 93.44948 80.15000 87.57630 93.73926 80.15000 85.63036 93.89802 80.15000 85.69273 94.19146 80.15000 83.74114 94.24816 80.15000 83.78808 94.54447 80.15000 81.83619 94.49895 80.15000 81.86755 94.79731 80.15000 79.92073 94.64970 80.15000 79.93643 94.94929 80.15000 78.00000 94.70000 80.15000 78.00000 95.00000 80.15000 76.07927 94.64970 80.15000 76.06357 94.94929 80.15000 74.16381 94.49895 80.15000 74.13245 94.79731 80.15000 72.25886 94.24816 80.15000 72.21192 94.54447 80.15000 70.36964 93.89802 80.15000 70.30727 94.19146 80.15000 68.50134 93.44948 80.15000 68.42370 93.73926 80.15000 66.65908 92.90377 80.15000 66.56637 93.18909 80.15000 64.84790 92.26240 80.15000 64.74039 92.54248 80.15000 63.07277 91.52712 80.15000 62.95074 91.80118 80.15000 61.33855 90.69994 80.15000 61.20235 90.96724 80.15000 59.65000 89.78313 80.15000 59.50000 90.04294 80.15000 58.01175 88.77921 80.15000 57.84836 89.03081 80.15000 56.42828 87.69092 80.15000 56.25195 87.93363 80.15000 54.90394 86.52126 80.15000 54.71515 86.75440 80.15000 53.44291 85.27342 80.15000 53.24217 85.49636 80.15000 52.04918 83.95082 80.15000 51.83705 84.16295 80.15000 50.72658 82.55709 80.15000 50.50364 82.75783 80.15000 49.47874 81.09606 80.15000 49.24560 81.28485 80.15000 48.30908 79.57172 80.15000 48.06637 79.74805 80.15000 47.22079 77.98825 80.15000 46.96919 78.15164 80.15000 46.21687 76.35000 80.15000 45.95706 76.50000 80.15000 45.30006 74.66145 80.15000 45.03276 74.79765 80.15000 44.47288 72.92723 80.15000 44.19882 73.04926 80.15000 43.73760 71.15210 80.15000 43.45752 71.25961 80.15000 43.09623 69.34092 80.15000 42.81091 69.43363 80.15000 42.55052 67.49866 80.15000 42.26074 67.57630 80.15000 42.10198 65.63036 80.15000 41.80854 65.69273 80.15000 41.75184 63.74114 80.15000 41.45553 63.78808 80.15000 41.50105 61.83619 80.15000 41.20269 61.86755 80.15000 41.35030 59.92073 80.15000 41.05071 59.93643 80.15000 41.30000 58.00000 80.15000 41.00000 58.00000 80.15000 41.35030 56.07927 80.15000 41.05071 56.06357 80.15000 41.50105 54.16381 80.15000 41.20269 54.13245 80.15000 41.75184 52.25886 80.15000 41.45553 52.21192 80.15000 42.10198 50.36964 80.15000 41.80854 50.30727 80.15000 42.55052 48.50134 80.15000 42.26074 48.42370 80.15000 43.09623 46.65908 80.15000 42.81091 46.56637 80.15000 43.73760 44.84790 80.15000 43.45752 44.74039 80.15000 44.47288 43.07277 80.15000 44.19882 42.95074 80.15000 45.30006 41.33855 80.15000 45.03276 41.20235 80.15000 46.21687 39.65000 80.15000 45.95706 39.50000 80.15000 47.22079 38.01175 80.15000 46.96919 37.84836 80.15000 48.30908 36.42828 80.15000 48.06637 36.25195 80.15000 49.47874 34.90394 80.15000 49.24560 34.71515 80.15000 50.72658 33.44291 80.15000 50.50364 33.24217 80.15000 52.04918 32.04918 80.15000 51.83705 31.83705 80.15000 53.44291 30.72658 80.15000 53.24217 30.50364 80.15000 54.90394 29.47874 80.15000 54.71515 29.24560 80.15000 56.42828 28.30908 80.15000 56.25195 28.06637 80.15000 58.01175 27.22079 80.15000 57.84836 26.96919 80.15000 59.65000 26.21687 80.15000 59.50000 25.95706 80.15000 61.33855 25.30006 80.15000 61.20235 25.03276 80.15000 63.07277 24.47288 80.15000 62.95074 24.19882 80.15000 64.84790 23.73760 80.15000 64.74039 23.45752 80.15000 66.65908 23.09623 80.15000 66.56637 22.81091 80.15000 68.50134 22.55052 80.15000 68.42370 22.26074 80.15000 70.36964 22.10198 80.15000 70.30727 21.80854 80.15000 72.25886 21.75184 80.15000 72.21192 21.45553 80.15000 74.16381 21.50105 80.15000 74.13245 21.20269 80.15000 76.07927 21.35030 80.15000 76.06357 21.05071 80.15000 78.00000 21.30000 80.15000 78.00000 21.00000 80.15000 79.92073 21.35030 80.15000 79.93643 21.05071 80.15000 81.83619 21.50105 80.15000 81.86755 21.20269 80.15000 83.74114 21.75184 80.15000 83.78808 21.45553 80.15000 85.63036 22.10198 80.15000 85.69273 21.80854 80.15000 87.49866 22.55052 80.15000 87.57630 22.26074 80.15000 89.34092 23.09623 80.15000 89.43363 22.81091 80.15000 91.15210 23.73760 80.15000 91.25961 23.45752 80.15000 92.92723 24.47288 80.15000 93.04926 24.19882 80.15000 94.66145 25.30006 80.15000 94.79765 25.03276 80.15000 96.35000 26.21687 80.15000 96.50000 25.95706 80.15000 97.98825 27.22079 80.15000 98.15164 26.96919 80.15000 99.57172 28.30908 80.15000 99.74805 28.06637 80.15000 101.09606 29.47874 80.15000 101.28485 29.24560 80.15000 102.55709 30.72658 80.15000 102.75783 30.50364 80.15000 103.95082 32.04918 80.15000 104.16295 31.83705 80.15000 105.27342 33.44291 80.15000 105.49636 33.24217 80.15000 106.52126 34.90394 80.15000 106.75440 34.71515 80.15000 107.69092 36.42828 80.15000 107.93363 36.25195 80.15000 108.77921 38.01175 80.15000 109.03081 37.84836 80.15000 109.78313 39.65000 80.15000 110.04294 39.50000 80.15000 110.69994 41.33855 80.15000 110.96724 41.20235 80.15000 111.52712 43.07277 80.15000 111.80118 42.95074 80.15000 112.26240 44.84790 80.15000 112.54248 44.74039 80.15000 112.90377 46.65908 80.15000 113.18909 46.56637 80.15000 113.44948 48.50134 80.15000 113.73926 48.42370 80.15000 113.89802 50.36964 80.15000 114.19146 50.30727 80.15000 114.24816 52.25886 80.15000 114.54447 52.21192 80.15000 114.49895 54.16381 80.15000 114.79731 54.13245 80.15000 114.64970 56.07927 80.15000 114.94929 56.06357 80.15000 114.70000 58.00000 80.15000 115.00000 58.00000 80.15000 104.74000 58.00000 80.15000 104.86000 58.00000 80.15000 104.70335 59.39946 80.15000 104.82319 59.40574 80.15000 104.59352 60.79509 80.15000 104.71286 60.80763 80.15000 104.41079 62.18306 80.15000 104.52931 62.20183 80.15000 104.15567 63.55956 80.15000 104.27304 63.58451 80.15000 103.82886 64.92082 80.15000 103.94477 64.95188 80.15000 103.43125 66.26311 80.15000 103.54538 66.30020 80.15000 102.96394 67.58276 80.15000 103.07597 67.62576 80.15000 102.42821 68.87614 80.15000 102.53783 68.92495 80.15000 101.82551 70.13971 80.15000 101.93244 70.19418 80.15000 101.15752 71.37000 80.15000 101.26144 71.43000 80.15000 100.42605 72.56365 80.15000 100.52669 72.62900 80.15000 99.63311 73.71738 80.15000 99.73020 73.78791 80.15000 98.78088 74.82803 80.15000 98.87414 74.90355 80.15000 97.87169 75.89255 80.15000 97.96087 75.97285 80.15000 96.90804 76.90804 80.15000 96.99289 76.99289 80.15000 95.89255 77.87169 80.15000 95.97285 77.96087 80.15000 94.82803 78.78088 80.15000 94.90355 78.87414 80.15000 93.71738 79.63311 80.15000 93.78791 79.73020 80.15000 92.56365 80.42605 80.15000 92.62900 80.52669 80.15000 91.37000 81.15752 80.15000 91.43000 81.26144 80.15000 90.13971 81.82551 80.15000 90.19418 81.93244 80.15000 88.87614 82.42821 80.15000 88.92495 82.53783 80.15000 87.58276 82.96394 80.15000 87.62576 83.07597 80.15000 86.26311 83.43125 80.15000 86.30020 83.54538 80.15000 84.92082 83.82886 80.15000 84.95188 83.94477 80.15000 83.55956 84.15567 80.15000 83.58451 84.27304 80.15000 82.18306 84.41079 80.15000 82.20183 84.52931 80.15000 80.79509 84.59352 80.15000 80.80763 84.71286 80.15000 79.39946 84.70335 80.15000 79.40574 84.82319 80.15000 78.00000 84.74000 80.15000 78.00000 84.86000 80.15000 76.60054 84.70335 80.15000 76.59426 84.82319 80.15000 75.20491 84.59352 80.15000 75.19237 84.71286 80.15000 73.81694 84.41079 80.15000 73.79817 84.52931 80.15000 72.44044 84.15567 80.15000 72.41549 84.27304 80.15000 71.07918 83.82886 80.15000 71.04812 83.94477 80.15000 69.73689 83.43125 80.15000 69.69980 83.54538 80.15000 68.41724 82.96394 80.15000 68.37424 83.07597 80.15000 67.12386 82.42821 80.15000 67.07505 82.53783 80.15000 65.86029 81.82551 80.15000 65.80582 81.93244 80.15000 64.63000 81.15752 80.15000 64.57000 81.26144 80.15000 63.43635 80.42605 80.15000 63.37100 80.52669 80.15000 62.28262 79.63311 80.15000 62.21209 79.73020 80.15000 61.17197 78.78088 80.15000 61.09645 78.87414 80.15000 60.10745 77.87169 80.15000 60.02715 77.96087 80.15000 59.09196 76.90804 80.15000 59.00711 76.99289 80.15000 58.12831 75.89255 80.15000 58.03913 75.97285 80.15000 57.21912 74.82803 80.15000 57.12586 74.90355 80.15000 56.36689 73.71738 80.15000 56.26980 73.78791 80.15000 55.57395 72.56365 80.15000 55.47331 72.62900 80.15000 54.84248 71.37000 80.15000 54.73856 71.43000 80.15000 54.17449 70.13971 80.15000 54.06756 70.19418 80.15000 53.57179 68.87614 80.15000 53.46217 68.92495 80.15000 53.03606 67.58276 80.15000 52.92403 67.62576 80.15000 52.56875 66.26311 80.15000 52.45462 66.30020 80.15000 52.17114 64.92082 80.15000 52.05523 64.95188 80.15000 51.84433 63.55956 80.15000 51.72696 63.58451 80.15000 51.58921 62.18306 80.15000 51.47069 62.20183 80.15000 51.40648 60.79509 80.15000 51.28714 60.80763 80.15000 51.29665 59.39946 80.15000 51.17681 59.40574 80.15000 51.26000 58.00000 80.15000 51.14000 58.00000 80.15000 51.29665 56.60054 80.15000 51.17681 56.59426 80.15000 51.40648 55.20491 80.15000 51.28714 55.19237 80.15000 51.58921 53.81694 80.15000 51.47069 53.79817 80.15000 51.84433 52.44044 80.15000 51.72696 52.41549 80.15000 52.17114 51.07918 80.15000 52.05523 51.04812 80.15000 52.56875 49.73689 80.15000 52.45462 49.69980 80.15000 53.03606 48.41724 80.15000 52.92403 48.37424 80.15000 53.57179 47.12386 80.15000 53.46217 47.07505 80.15000 54.17449 45.86029 80.15000 54.06756 45.80582 80.15000 54.84248 44.63000 80.15000 54.73856 44.57000 80.15000 55.57395 43.43635 80.15000 55.47331 43.37100 80.15000 56.36689 42.28262 80.15000 56.26980 42.21209 80.15000 57.21912 41.17197 80.15000 57.12586 41.09645 80.15000 58.12831 40.10745 80.15000 58.03913 40.02715 80.15000 59.09196 39.09196 80.15000 59.00711 39.00711 80.15000 60.10745 38.12831 80.15000 60.02715 38.03913 80.15000 61.17197 37.21912 80.15000 61.09645 37.12586 80.15000 62.28262 36.36689 80.15000 62.21209 36.26980 80.15000 63.43635 35.57395 80.15000 63.37100 35.47331 80.15000 64.63000 34.84248 80.15000 64.57000 34.73856 80.15000 65.86029 34.17449 80.15000 65.80582 34.06756 80.15000 67.12386 33.57179 80.15000 67.07505 33.46217 80.15000 68.41724 33.03606 80.15000 68.37424 32.92403 80.15000 69.73689 32.56875 80.15000 69.69980 32.45462 80.15000 71.07918 32.17114 80.15000 71.04812 32.05523 80.15000 72.44044 31.84433 80.15000 72.41549 31.72696 80.15000 73.81694 31.58921 80.15000 73.79817 31.47069 80.15000 75.20491 31.40648 80.15000 75.19237 31.28714 80.15000 76.60054 31.29665 80.15000 76.59426 31.17681 80.15000 78.00000 31.26000 80.15000 78.00000 31.14000 80.15000 79.39946 31.29665 80.15000 79.40574 31.17681 80.15000 80.79509 31.40648 80.15000 80.80763 31.28714 80.15000 82.18306 31.58921 80.15000 82.20183 31.47069 80.15000 83.55956 31.84433 80.15000 83.58451 31.72696 80.15000 84.92082 32.17114 80.15000 84.95188 32.05523 80.15000 86.26311 32.56875 80.15000 86.30020 32.45462 80.15000 87.58276 33.03606 80.15000 87.62576 32.92403 80.15000 88.87614 33.57179 80.15000 88.92495 33.46217 80.15000 90.13971 34.17449 80.15000 90.19418 34.06756 80.15000 91.37000 34.84248 80.15000 91.43000 34.73856 80.15000 92.56365 35.57395 80.15000 92.62900 35.47331 80.15000 93.71738 36.36689 80.15000 93.78791 36.26980 80.15000 94.82803 37.21912 80.15000 94.90355 37.12586 80.15000 95.89255 38.12831 80.15000 95.97285 38.03913 80.15000 96.90804 39.09196 80.15000 96.99289 39.00711 80.15000 97.87169 40.10745 80.15000 97.96087 40.02715 80.15000 98.78088 41.17197 80.15000 98.87414 41.09645 80.15000 99.63311 42.28262 80.15000 99.73020 42.21209 80.15000 100.42605 43.43635 80.15000 100.52669 43.37100 80.15000 101.15752 44.63000 80.15000 101.26144 44.57000 80.15000 101.82551 45.86029 80.15000 101.93244 45.80582 80.15000 102.42821 47.12386 80.15000 102.53783 47.07505 80.15000 102.96394 48.41724 80.15000 103.07597 48.37424 80.15000 103.43125 49.73689 80.15000 103.54538 49.69980 80.15000 103.82886 51.07918 80.15000 103.94477 51.04812 80.15000 104.15567 52.44044 80.15000 104.27304 52.41549 80.15000 104.41079 53.81694 80.15000 104.52931 53.79817 80.15000 104.59352 55.20491 80.15000 104.71286 55.19237 80.15000 104.70335 56.60054 80.15000 104.82319 56.59426 80.15000 104.74000 58.00000 80.15000 104.86000 58.00000 80.15000</float_array><technique_common><accessor source="#positions-array" count="876" stride="3"><param name="X" type="float"/><param name="Y" type="float"/><param name="Z" type="float"/></accessor></technique_common></source>
<source id="normals"><float_array id="normals-array" count="3780">0.00000 -0.00000 -1.00000 0.00000 0.00000 -1.00000 0.00000 0.00000 1.00000 0.00000 0.00000 1.00000 0.99946 0.03272 0.00000 0.99946 0.03272 -0.00000 -0.99946 -0.03272 -0.00000 -0.99946 -0.03272 -0.00000 0.00000 -0.00000 -1.00000 0.00000 0.00000 -1.00000 0.00000 0.00000 1.00000 0.00000 0.00000 1.00000 0.99518 0.09802 0.00000 0.99518 0.09802 -0.00000 -0.99518 -0.09802 -0.00000 -0.99518 -0.09802 -0.00000 0.00000 -0.00000 -1.00000 0.00000 0.00000 -1.00000 0.00000 0.00000 1.00000 0.00000 0.00000 1.00000 0.98664 0.16290 0.00000 0.98664 0.16290 -0.00000 -0.98664 -0.16290 -0.00000 -0.98664 -0.16290 -0.00000 0.00000 -0.00000 -1.00000 0.00000 0.00000 -1.00000 0.00000 0.00000 1.00000 0.00000 0.00000 1.00000 0.97388 0.22708 0.00000 0.97388 0.22708 -0.00000 -0.97388 -0.22708 -0.00000 -0.97388 -0.22708 -0.00000 0.00000 -0.00000 -1.00000 0.00000 0.00000 -1.00000 0.00000 0.00000 1.00000 0.00000 0.00000 1.00000 0.95694 0.29028 0.00000 0.95694 0.29028 -0.00000 -0.95694 -0.29028 -0.00000 -0.95694 -0.29028 -0.00000 0.00000 -0.00000 -1.00000 0.00000 0.00000 -1.00000 0.00000 0.00000 1.00000 0.00000 0.00000 1.00000 0.93591 0.35225 0.00000 0.93591 0.35225 -0.00000 -0.93591 -0.35225 -0.00000 -0.93591 -0.35225 -0.00000 0.00000 -0.00000 -1.00000 0.00000 0.00000 -1.00000 0.00000 0.00000 1.00000 0.00000 0.00000 1.00000 0.91086 0.41271 0.00000 0.91086 0.41271 -0.00000 -0.91086 -0.41271 -0.00000 -0.91086 -0.41271 -0.00000 0.00000 -0.00000 -1.00000 0.00000 0.00000 -1.00000 0.00000 0.00000 1.00000 0.00000 0.00000 1.00000 0.88192 0.47140 0.00000 0.88192 0.47140 -0.00000 -0.88192 -0.47140 -0.00000 -0.88192 -0.47140 -0.00000 0.00000 -0.00000 -1.00000 0.00000 0.00000 -1.00000 0.00000 0.00000 1.00000 0.00000 0.00000 1.00000 0.84920 0.52807 0.00000 0.84920 0.52807 -0.00000 -0.84920 -0.52807 -0.00000 -0.84920 -0.52807 -0.00000 0.00000 -0.00000 -1.00000 0.00000 0.00000 -1.00000 0.00000 0.00000 1.00000 0.00000 0.00000 1.00000 0.81285 0.58248 0.00000 0.81285 0.58248 -0.00000 -0.81285 -0.58248 -0.00000 -0.81285 -0.58248 -0.00000 0.00000 -0.00000 -1.00000 0.00000 0.00000 -1.00000 0.00000 0.00000 1.00000 0.00000 0.00000 1.00000 0.77301 0.63439 0.00000 0.77301 0.63439 -0.00000 -0.77301 -0.63439 -0.00000 -0.77301 -0.63439 -0.00000 0.00000 -0.00000 -1.00000 0.00000 0.00000 -1.00000 0.00000 0.00000 1.00000 0.00000 0.00000 1.00000 0.72986 0.68359 0.00000 0.72986 0.68359 -0.00000 -0.72986 -0.68359 -0.00000 -0.72986 -0.68359 -0.00000 0.00000 -0.00000 -1.00000 0.00000 0.00000 -1.00000 0.00000 0.00000 1.00000 0.00000 0.00000 1.00000 0.68359 0.72986 0.00000 0.68359 0.72986 -0.00000 -0.68359 -0.72986 -0.00000 -0.68359 -0.72986 -0.00000 0.00000 -0.00000 -1.00000 0.00000 0.00000 -1.00000 0.00000 0.00000 1.00000 0.00000 0.00000 1.00000 0.63439 0.77301 0.00000 0.63439 0.77301 -0.00000 -0.63439 -0.77301 -0.00000 -0.63439 -0.77301 -0.00000 0.00000 -0.00000 -1.00000 0.00000 0.00000 -1.00000 0.00000 0.00000 1.00000 0.00000 0.00000 1.00000 0.58248 0.81285 0.00000 0.58248 0.81285 -0.00000 -0.58248 -0.81285 -0.00000 -0.58248 -0.81285 -0.00000 0.00000 -0.00000 -1.00000 0.00000 0.00000 -1.00000 0.00000 0.00000 1.00000 0.00000 0.00000 1.00000 0.52807 0.84920 0.00000 0.52807 0.84920 -0.00000 -0.52807 -0.84920 -0.00000 -0.52807 -0.84920 -0.00000 0.00000 -0.00000 -1.00000 0.00000 0.00000 -1.00000 0.00000 0.00000 1.00000 0.00000 0.00000 1.00000 0.47140 0.88192 0.00000 0.47140 0.88192 -0.00000 -0.47140 -0.88192 -0.00000 -0.47140 -0.88192 -0.00000 0.00000 -0.00000 -1.00000 0.00000 0.00000 -1.00000 0.00000 0.00000 1.00000 0.00000 0.00000 1.00000 0.41271 0.91086 0.00000 0.41271 0.91086 -0.00000 -0.41271 -0.91086 -0.00000 -0.41271 -0.91086 -0.00000 0.00000 -0.00000 -1.00000 0.00000 0.00000 -1.00000 0.00000 0.00000 1.00000 0.00000 0.00000 1.00000 0.35225 0.93591 0.00000 0.35225 0.93591 -0.00000 -0.35225 -0.93591 -0.00000 -0.35225 -0.93591 -0.00000 0.00000 -0.00000 -1.00000 0.00000 0.00000 -1.00000 0.00000 0.00000 1.00000 0.00000 0.00000 1.00000 0.29028 0.95694 0.00000 0.29028 0.95694 -0.00000 -0.29028 -0.95694 -0.00000 -0.29028 -0.95694 -0.00000 0.00000 -0.00000 -1.00000 0.00000 0.00000 -1.00000 0.00000 0.00000 1.00000 0.00000 0.00000 1.00000 0.22708 0.97388 0.00000 0.22708 0.97388 -0.00000 -0.22708 -0.97388 -0.00000 -0.22708 -0.97388 -0.00000 0.00000 0.00000 -1.00000 0.00000 0.00000 -1.00000 0.00000 0.00000 1.00000 0.00000 0.00000 1.00000 0.16290 0.98664 0.00000 0.16290 0.98664 -0.00000 -0.16290 -0.98664 -0.00000 -0.16290 -0.98664 -0.00000 0.00000 0.00000 -1.00000 0.00000 0.00000 -1.00000 0.00000 0.00000 1.00000 0.00000 0.00000 1.00000 0.09802 0.99518 0.00000 0.09802 0.99518 -0.00000 -0.09802 -0.99518 -0.00000 -0.09802 -0.99518 -0.00000 0.00000 0.00000 -1.00000 0.00000 0.00000 -1.00000 0.00000 0.00000 1.00000 0.00000 0.00000 1.00000 0.03272 0.99946 0.00000 0.03272 0.99946 -0.00000 -0.03272 -0.99946 -0.00000 -0.03272 -0.99946 -0.00000 0.00000 0.00000 -1.00000 0.00000 0.00000 -1.00000 0.00000 0.00000 1.00000 0.00000 0.00000 1.00000 -0.03272 0.99946 0.00000 -0.03272 0.99946 0.00000 0.03272 -0.99946 0.00000 0.03272 -0.99946 0.00000 0.00000 0.00000 -1.00000 0.00000 0.00000 -1.00000 0.00000 0.00000 1.00000 0.00000 0.00000 1.00000 -0.09802 0.99518 0.00000 -0.09802 0.99518 0.00000 0.09802 -0.99518 0.00000 0.09802 -0.99518 0.00000 0.00000 0.00000 -1.00000 0.00000 0.00000 -1.00000 0.00000 0.00000 1.00000 0.00000 0.00000 1.00000 -0.16290 0.98664 0.00000 -0.16290 0.98664 0.00000 0.16290 -0.98664 0.00000 0.16290 -0.98664 0.00000 0.00000 0.00000 -1.00000 0.00000 0.00000 -1.00000 0.00000 0.00000 1.00000 0.00000 0.00000 1.00000 -0.22708 0.97388 0.00000 -0.22708 0.97388 0.00000 0.22708 -0.97388 0.00000 0.22708 -0.97388 0.00000 0.00000 0.00000 -1.00000 0.00000 0.00000 -1.00000 0.00000 0.00000 1.00000 0.00000 0.00000 1.00000 -0.29028 0.95694 0.00000 -0.29028 0.95694 0.00000 0.29028 -0.95694 0.00000 0.29028 -0.95694 0.00000 0.00000 0.00000 -1.00000 0.00000 0.00000 -1.00000 0.00000 0.00000 1.00000 0.00000 0.00000 1.00000 -0.35225 0.93591 0.00000 -0.35225 0.93591 0.00000 0.35225 -0.93591 0.00000 0.35225 -0.93591 0.00000 0.00000 0.00000 -1.00000 0.00000 0.00000 -1.00000 0.00000 0.00000 1.00000 0.00000 0.00000 1.00000 -0.41271 0.91086 0.00000 -0.41271 0.91086 0.00000 0.41271 -0.91086 0.00000 0.41271 -0.91086 0.00000 0.00000 0.00000 -1.00000 0.00000 0.00000 -1.00000 0.00000 0.00000 1.00000 0.00000 0.00000 1.00000 -0.47140 0.88192 0.00000 -0.47140 0.88192 0.00000 0.47140 -0.88192 0.00000 0.47140 -0.88192 0.00000 0.00000 0.00000 -1.00000 0.00000 0.00000 -1.00000 0.00000 0.00000 1.00000 0.00000 0.00000 1.00000 -0.52807 0.84920 0.00000 -0.52807 0.84920 0.00000 0.52807 -0.84920 0.00000 0.52807 -0.84920 0.00000 0.00000 0.00000 -1.00000 0.00000 0.00000 -1.00000 0.00000 0.00000 1.00000 0.00000 0.00000 1.00000 -0.58248 0.81285 0.00000 -0.58248 0.81285 0.00000 0.58248 -0.81285 0.00000 0.58248 -0.81285 0.00000 0.00000 0.00000 -1.00000 0.00000 0.00000 -1.00000 0.00000 0.00000 1.00000 0.00000 0.00000 1.00000 -0.63439 0.77301 0.00000 -0.63439 0.77301 0.00000 0.63439 -0.77301 0.00000 0.63439 -0.77301 0.00000 0.00000 0.00000 -1.00000 0.00000 0.00000 -1.00000 0.00000 0.00000 1.00000 0.00000 0.00000 1.00000 -0.68359 0.72986 0.00000 -0.68359 0.72986 0.00000 0.68359 -0.72986 0.00000 0.68359 -0.72986 0.00000 0.00000 0.00000 -1.00000 0.00000 0.00000 -1.00000 0.00000 0.00000 1.00000 0.00000 0.00000 1.00000 -0.72986 0.68359 0.00000 -0.72986 0.68359 0.00000 0.72986 -0.68359 0.00000 0.72986 -0.68359 0.00000 0.00000 0.00000 -1.00000 0.00000 0.00000 -1.00000 0.00000 0.00000 1.00000 0.00000 0.00000 1.00000 -0.77301 0.63439 0.00000 -0.77301 0.63439 0.00000 0.77301 -0.63439 0.00000 0.77301 -0.63439 0.00000 0.00000 0.00000 -1.00000 0.00000 0.00000 -1.00000 0.00000 0.00000 1.00000 0.00000 0.00000 1.00000 -0.81285 0.58248 0.00000 -0.81285 0.58248 0.00000 0.81285 -0.58248 0.00000 0.81285 -0.58248 0.00000 0.00000 0.00000 -1.00000 0.00000 0.00000 -1.00000 0.00000 0.00000 1.00000 0.00000 0.00000 1.00000 -0.84920 0.52807 0.00000 -0.84920 0.52807 0.00000 0.84920 -0.52807 0.00000 0.84920 -0.52807 0.00000 0.00000 0.00000 -1.00000 0.00000 0.00000 -1.00000 0.00000 0.00000 1.00000 0.00000 0.00000 1.00000 -0.88192 0.47140 0.00000 -0.88192 0.47140 0.00000 0.88192 -0.47140 0.00000 0.88192 -0.47140 0.00000 0.00000 0.00000 -1.00000 0.00000 0.00000 -1.00000 0.00000 0.00000 1.00000 0.00000 0.00000 1.00000 -0.91086 0.41271 0.00000 -0.91086 0.41271 0.00000 0.91086 -0.41271 0.00000 0.91086 -0.41271 0.00000 0.00000 0.00000 -1.00000 0.00000 0.00000 -1.00000 0.00000 0.00000 1.00000 0.00000 0.00000 1.00000 -0.93591 0.35225 0.00000 -0.93591 0.35225 0.00000 0.93591 -0.35225 0.00000 0.93591 -0.35225 0.00000 0.00000 0.00000 -1.00000 0.00000 0.00000 -1.00000 0.00000 0.00000 1.00000 0.00000 0.00000 1.00000 -0.95694 0.29028 0.00000 -0.95694 0.29028 0.00000 0.95694 -0.29028 0.00000 0.95694 -0.29028 0.00000 0.00000 0.00000 -1.00000 0.00000 0.00000 -1.00000 0.00000 0.00000 1.00000 0.00000 0.00000 1.00000 -0.97388 0.22708 0.00000 -0.97388 0.22708 0.00000 0.97388 -0.22708 0.00000 0.97388 -0.22708 0.00000 0.00000 0.00000 -1.00000 0.00000 0.00000 -1.00000 -0.00000 0.00000 1.00000 0.00000 0.00000 1.00000 -0.98664 0.16290 0.00000 -0.98664 0.16290 0.00000 0.98664 -0.16290 0.00000 0.98664 -0.16290 0.00000 0.00000 0.00000 -1.00000 0.00000 0.00000 -1.00000 -0.00000 0.00000 1.00000 0.00000 0.00000 1.00000 -0.99518 0.09802 0.00000 -0.99518 0.09802 0.00000 0.99518 -0.09802 0.00000 0.99518 -0.09802 0.00000 0.00000 0.00000 -1.00000 0.00000 0.00000 -1.00000 0.00000 0.00000 1.00000 0.00000 0.00000 1.00000 -0.99946 0.03272 0.00000 -0.99946 0.03272 0.00000 0.99946 -0.03272 0.00000 0.99946 -0.03272 0.00000 0.00000 0.00000 -1.00000 -0.00000 0.00000 -1.00000 0.00000 0.00000 1.00000 -0.00000 0.00000 1.00000 -0.99946 -0.03272 0.00000 -0.99946 -0.03272 0.00000 0.99946 0.03272 0.00000 0.99946 0.03272 0.00000 0.00000 0.00000 -1.00000 -0.00000 0.00000 -1.00000 0.00000 0.00000 1.00000 -0.00000 0.00000 1.00000 -0.99518 -0.09802 0.00000 -0.99518 -0.09802 0.00000 0.99518 0.09802 0.00000 0.99518 0.09802 0.00000 0.00000 0.00000 -1.00000 -0.00000 0.00000 -1.00000 0.00000 0.00000 1.00000 -0.00000 0.00000 1.00000 -0.98664 -0.16290 0.00000 -0.98664 -0.16290 0.00000 0.98664 0.16290 0.00000 0.98664 0.16290 0.00000 0.00000 0.00000 -1.00000 -0.00000 0.00000 -1.00000 0.00000 0.00000 1.00000 -0.00000 0.00000 1.00000 -0.97388 -0.22708 0.00000 -0.97388 -0.22708 0.00000 0.97388 0.22708 0.00000 0.97388 0.22708 0.00000 0.00000 0.00000 -1.00000 -0.00000 0.00000 -1.00000 0.00000 0.00000 1.00000 -0.00000 0.00000 1.00000 -0.95694 -0.29028 0.00000 -0.95694 -0.29028 0.00000 0.95694 0.29028 0.00000 0.95694 0.29028 0.00000 0.00000 0.00000 -1.00000 -0.00000 0.00000 -1.00000 0.00000 0.00000 1.00000 -0.00000 0.00000 1.00000 -0.93591 -0.35225 0.00000 -0.93591 -0.35225 0.00000 0.93591 0.35225 0.00000 0.93591 0.35225 0.00000 0.00000 0.00000 -1.00000 -0.00000 0.00000 -1.00000 0.00000 0.00000 1.00000 -0.00000 0.00000 1.00000 -0.91086 -0.41271 0.00000 -0.91086 -0.41271 0.00000 0.91086 0.41271 0.00000 0.91086 0.41271 0.00000 0.00000 0.00000 -1.00000 -0.00000 0.00000 -1.00000 0.00000 0.00000 1.00000 -0.00000 0.00000 1.00000 -0.88192 -0.47140 0.00000 -0.88192 -0.47140 0.00000 0.88192 0.47140 0.00000 0.88192 0.47140 0.00000 0.00000 0.00000 -1.00000 -0.00000 0.00000 -1.00000 0.00000 0.00000 1.00000 -0.00000 0.00000 1.00000 -0.84920 -0.52807 0.00000 -0.84920 -0.52807 0.00000 0.84920 0.52807 0.00000 0.84920 0.52807 0.00000 0.00000 0.00000 -1.00000 -0.00000 0.00000 -1.00000 0.00000 0.00000 1.00000 -0.00000 0.00000 1.00000 -0.81285 -0.58248 0.00000 -0.81285 -0.58248 0.00000 0.81285 0.58248 0.00000 0.81285 0.58248 0.00000 0.00000 0.00000 -1.00000 -0.00000 0.00000 -1.00000 0.00000 0.00000 1.00000 -0.00000 0.00000 1.00000 -0.77301 -0.63439 0.00000 -0.77301 -0.63439 0.00000 0.77301 0.63439 0.00000 0.77301 0.63439 0.00000 0.00000 0.00000 -1.00000 -0.00000 0.00000 -1.00000 0.00000 0.00000 1.00000 -0.00000 0.00000 1.00000 -0.72986 -0.68359 0.00000 -0.72986 -0.68359 0.00000 0.72986 0.68359 0.00000 0.72986 0.68359 0.00000 0.00000 0.00000 -1.00000 -0.00000 0.00000 -1.00000 0.00000 0.00000 1.00000 -0.00000 0.00000 1.00000 -0.68359 -0.72986 0.00000 -0.68359 -0.72986 0.00000 0.68359 0.72986 0.00000 0.68359 0.72986 0.00000 0.00000 0.00000 -1.00000 -0.00000 0.00000 -1.00000 0.00000 0.00000 1.00000 -0.00000 0.00000 1.00000 -0.63439 -0.77301 0.00000 -0.63439 -0.77301 0.00000 0.63439 0.77301 0.00000 0.63439 0.77301 0.00000 0.00000 0.00000 -1.00000 -0.00000 0.00000 -1.00000 0.00000 0.00000 1.00000 -0.00000 0.00000 1.00000 -0.58248 -0.81285 0.00000 -0.58248 -0.81285 0.00000 0.58248 0.81285 0.00000 0.58248 0.81285 0.00000 0.00000 0.00000 -1.00000 -0.00000 0.00000 -1.00000 0.00000 0.00000 1.00000 -0.00000 0.00000 1.00000 -0.52807 -0.84920 0.00000 -0.52807 -0.84920 0.00000 0.52807 0.84920 0.00000 0.52807 0.84920 0.00000 0.00000 0.00000 -1.00000 -0.00000 0.00000 -1.00000 0.00000 0.00000 1.00000 -0.00000 0.00000 1.00000 -0.47140 -0.88192 0.00000 -0.47140 -0.88192 0.00000 0.47140 0.88192 0.00000 0.47140 0.88192 0.00000 0.00000 0.00000 -1.00000 -0.00000 0.00000 -1.00000 0.00000 0.00000 1.00000 -0.00000 0.00000 1.00000 -0.41271 -0.91086 0.00000 -0.41271 -0.91086 0.00000 0.41271 0.91086 0.00000 0.41271 0.91086 0.00000 0.00000 0.00000 -1.00000 -0.00000 0.00000 -1.00000 0.00000 0.00000 1.00000 -0.00000 0.00000 1.00000 -0.35225 -0.93591 0.00000 -0.35225 -0.93591 0.00000 0.35225 0.93591 0.00000 0.35225 0.93591 0.00000 0.00000 0.00000 -1.00000 -0.00000 0.00000 -1.00000 0.00000 0.00000 1.00000 -0.00000 0.00000 1.00000 -0.29028 -0.95694 0.00000 -0.29028 -0.95694 0.00000 0.29028 0.95694 0.00000 0.29028 0.95694 0.00000 0.00000 0.00000 -1.00000 -0.00000 0.00000 -1.00000 0.00000 0.00000 1.00000 -0.00000 0.00000 1.00000 -0.22708 -0.97388 0.00000 -0.22708 -0.97388 0.00000 0.22708 0.97388 0.00000 0.22708 0.97388 0.00000 0.00000 0.00000 -1.00000 -0.00000 0.00000 -1.00000 0.00000 -0.00000 1.00000 -0.00000 0.00000 1.00000 -0.16290 -0.98664 0.00000 -0.16290 -0.98664 0.00000 0.16290 0.98664 0.00000 0.16290 0.98664 0.00000 0.00000 0.00000 -1.00000 -0.00000 0.00000 -1.00000 0.00000 -0.00000 1.00000 -0.00000 0.00000 1.00000 -0.09802 -0.99518 0.00000 -0.09802 -0.99518 0.00000 0.09802 0.99518 0.00000 0.09802 0.99518 0.00000 0.00000 0.00000 -1.00000 -0.00000 -0.00000 -1.00000 0.00000 -0.00000 1.00000 -0.00000 0.00000 1.00000 -0.03272 -0.99946 0.00000 -0.03272 -0.99946 0.00000 0.03272 0.99946 0.00000 0.03272 0.99946 0.00000 -0.00000 0.00000 -1.00000 0.00000 -0.00000 -1.00000 0.00000 0.00000 1.00000 0.00000 0.00000 1.00000 0.03272 -0.99946 0.00000 0.03272 -0.99946 0.00000 -0.03272 0.99946 0.00000 -0.03272 0.99946 0.00000 -0.00000 0.00000 -1.00000 0.00000 -0.00000 -1.00000 0.00000 0.00000 1.00000 0.00000 -0.00000 1.00000 0.09802 -0.99518 0.00000 0.09802 -0.99518 0.00000 -0.09802 0.99518 0.00000 -0.09802 0.99518 0.00000 -0.00000 0.00000 -1.00000 0.00000 -0.00000 -1.00000 0.00000 0.00000 1.00000 0.00000 -0.00000 1.00000 0.16290 -0.98664 0.00000 0.16290 -0.98664 0.00000 -0.16290 0.98664 0.00000 -0.16290 0.98664 0.00000 -0.00000 0.00000 -1.00000 0.00000 -0.00000 -1.00000 0.00000 0.00000 1.00000 0.00000 -0.00000 1.00000 0.22708 -0.97388 0.00000 0.22708 -0.97388 0.00000 -0.22708 0.97388 0.00000 -0.22708 0.97388 0.00000 -0.00000 0.00000 -1.00000 0.00000 -0.00000 -1.00000 0.00000 0.00000 1.00000 0.00000 -0.00000 1.00000 0.29028 -0.95694 0.00000 0.29028 -0.95694 0.00000 -0.29028 0.95694 0.00000 -0.29028 0.95694 0.00000 -0.00000 0.00000 -1.00000 0.00000 -0.00000 -1.00000 0.00000 0.00000 1.00000 0.00000 -0.00000 1.00000 0.35225 -0.93591 0.00000 0.35225 -0.93591 0.00000 -0.35225 0.93591 0.00000 -0.35225 0.93591 0.00000 -0.00000 0.00000 -1.00000 0.00000 -0.00000 -1.00000 0.00000 0.00000 1.00000 0.00000 -0.00000 1.00000 0.41271 -0.91086 0.00000 0.41271 -0.91086 0.00000 -0.41271 0.91086 0.00000 -0.41271 0.91086 0.00000 -0.00000 0.00000 -1.00000 0.00000 -0.00000 -1.00000 0.00000 0.00000 1.00000 0.00000 -0.00000 1.00000 0.47140 -0.88192 0.00000 0.47140 -0.88192 0.00000 -0.47140 0.88192 0.00000 -0.47140 0.88192 0.00000 -0.00000 0.00000 -1.00000 0.00000 -0.00000 -1.00000 0.00000 0.00000 1.00000 0.00000 -0.00000 1.00000 0.52807 -0.84920 0.00000 0.52807 -0.84920 0.00000 -0.52807 0.84920 0.00000 -0.52807 0.84920 0.00000 -0.00000 0.00000 -1.00000 0.00000 -0.00000 -1.00000 0.00000 0.00000 1.00000 0.00000 -0.00000 1.00000 0.58248 -0.81285 0.00000 0.58248 -0.81285 0.00000 -0.58248 0.81285 0.00000 -0.58248 0.81285 0.00000 -0.00000 0.00000 -1.00000 0.00000 -0.00000 -1.00000 0.00000 0.00000 1.00000 0.00000 -0.00000 1.00000 0.63439 -0.77301 0.00000 0.63439 -0.77301 0.00000 -0.63439 0.77301 0.00000 -0.63439 0.77301 0.00000 -0.00000 0.00000 -1.00000 0.00000 -0.00000 -1.00000 0.00000 0.00000 1.00000 0.00000 -0.00000 1.00000 0.68359 -0.72986 0.00000 0.68359 -0.72986 0.00000 -0.68359 0.72986 0.00000 -0.68359 0.72986 0.00000 -0.00000 0.00000 -1.00000 0.00000 -0.00000 -1.00000 0.00000 0.00000 1.00000 0.00000 -0.00000 1.00000 0.72986 -0.68359 0.00000 0.72986 -0.68359 0.00000 -0.72986 0.68359 0.00000 -0.72986 0.68359 0.00000 -0.00000 0.00000 -1.00000 0.00000 -0.00000 -1.00000 0.00000 0.00000 1.00000 0.00000 -0.00000 1.00000 0.77301 -0.63439 0.00000 0.77301 -0.63439 0.00000 -0.77301 0.63439 0.00000 -0.77301 0.63439 0.00000 -0.00000 0.00000 -1.00000 0.00000 -0.00000 -1.00000 0.00000 0.00000 1.00000 0.00000 -0.00000 1.00000 0.81285 -0.58248 0.00000 0.81285 -0.58248 0.00000 -0.81285 0.58248 0.00000 -0.81285 0.58248 0.00000 -0.00000 0.00000 -1.00000 0.00000 -0.00000 -1.00000 0.00000 0.00000 1.00000 0.00000 -0.00000 1.00000 0.84920 -0.52807 0.00000 0.84920 -0.52807 0.00000 -0.84920 0.52807 0.00000 -0.84920 0.52807 0.00000 -0.00000 0.00000 -1.00000 0.00000 -0.00000 -1.00000 0.00000 0.00000 1.00000 0.00000 -0.00000 1.00000 0.88192 -0.47140 0.00000 0.88192 -0.47140 0.00000 -0.88192 0.47140 0.00000 -0.88192 0.47140 0.00000 -0.00000 0.00000 -1.00000 0.00000 -0.00000 -1.00000 0.00000 0.00000 1.00000 0.00000 -0.00000 1.00000 0.91086 -0.41271 0.00000 0.91086 -0.41271 0.00000 -0.91086 0.41271 0.00000 -0.91086 0.41271 0.00000 -0.00000 0.00000 -1.00000 0.00000 -0.00000 -1.00000 0.00000 0.00000 1.00000 0.00000 -0.00000 1.00000 0.93591 -0.35225 0.00000 0.93591 -0.35225 0.00000 -0.93591 0.35225 0.00000 -0.93591 0.35225 0.00000 -0.00000 0.00000 -1.00000 0.00000 -0.00000 -1.00000 0.00000 0.00000 1.00000 0.00000 -0.00000 1.00000 0.95694 -0.29028 0.00000 0.95694 -0.29028 0.00000 -0.95694 0.29028 0.00000 -0.95694 0.29028 0.00000 -0.00000 0.00000 -1.00000 0.00000 -0.00000 -1.00000 0.00000 0.00000 1.00000 0.00000 -0.00000 1.00000 0.97388 -0.22708 0.00000 0.97388 -0.22708 0.00000 -0.97388 0.22708 0.00000 -0.97388 0.22708 0.00000 0.00000 0.00000 -1.00000 0.00000 -0.00000 -1.00000 0.00000 0.00000 1.00000 0.00000 -0.00000 1.00000 0.98664 -0.16290 0.00000 0.98664 -0.16290 0.00000 -0.98664 0.16290 0.00000 -0.98664 0.16290 0.00000 0.00000 0.00000 -1.00000 0.00000 -0.00000 -1.00000 0.00000 0.00000 1.00000 0.00000 -0.00000 1.00000 0.99518 -0.09802 0.00000 0.99518 -0.09802 0.00000 -0.99518 0.09802 0.00000 -0.99518 0.09802 0.00000 0.00000 0.00000 -1.00000 0.00000 -0.00000 -1.00000 0.00000 0.00000 1.00000 0.00000 -0.00000 1.00000 0.99946 -0.03272 0.00000 0.99946 -0.03272 0.00000 -0.99946 0.03272 0.00000 -0.99946 0.03272 0.00000 0.00000 0.00000 -1.00000 0.00000 0.00000 -1.00000 0.00000 0.00000 1.00000 0.00000 0.00000 1.00000 0.00000 -1.00000 0.00000 0.00000 -1.00000 0.00000 1.00000 0.00000 0.00000 1.00000 0.00000 0.00000 0.00000 1.00000 0.00000 0.00000 1.00000 -0.00000 -1.00000 0.00000 0.00000 -1.00000 0.00000 0.00000 0.00000 -0.00000 1.00000 0.00000 0.00000 1.00000 0.00000 -0.00000 1.00000 0.00000 0.00000 1.00000 0.00000 -0.00000 1.00000 0.00000 0.00000 1.00000 0.00000 0.00000 1.00000 0.00000 -0.00000 1.00000 0.00000 0.00000 1.00000 0.00000 -0.00000 1.00000 0.00000 0.00000 1.00000 0.00000 -0.00000 1.00000 0.00000 0.00000 1.00000 0.00000 -0.00000 1.00000 0.00000 0.00000 1.00000 0.00000 -0.00000 1.00000 0.00000 0.00000 1.00000 0.00000 -0.00000 1.00000 0.00000 0.00000 1.00000 0.00000 -0.00000 1.00000 0.00000 0.00000 1.00000 0.00000 -0.00000 1.00000 0.00000 0.00000 1.00000 0.00000 -0.00000 1.00000 0.00000 0.00000 1.00000 0.00000 -0.00000 1.00000 0.00000 0.00000 1.00000 0.00000 -0.00000 1.00000 0.00000 0.00000 1.00000 0.00000 -0.00000 1.00000 0.00000 0.00000 1.00000 0.00000 -0.00000 1.00000 0.00000 0.00000 1.00000 0.00000 -0.00000 1.00000 0.00000 0.00000 1.00000 0.00000 -0.00000 1.00000 0.00000 0.00000 1.00000 0.00000 -0.00000 1.00000 0.00000 0.00000 1.00000 0.00000 -0.00000 1.00000 0.00000 0.00000 1.00000 0.00000 -0.00000 1.00000 0.00000 0.00000 1.00000 0.00000 -0.00000 1.00000 0.00000 0.00000 1.00000 0.00000 -0.00000 1.00000 0.00000 0.00000 1.00000 0.00000 -0.00000 1.00000 0.00000 0.00000 1.00000 0.00000 -0.00000 1.00000 0.00000 0.00000 1.00000 0.00000 -0.00000 1.00000 0.00000 0.00000 1.00000 0.00000 -0.00000 1.00000 0.00000 0.00000 1.00000 0.00000 -0.00000 1.00000 0.00000 0.00000 1.00000 0.00000 -0.00000 1.00000 0.00000 0.00000 1.00000 0.00000 -0.00000 1.00000 0.00000 0.00000 1.00000 0.00000 -0.00000 1.00000 0.00000 0.00000 1.00000 0.00000 0.00000 1.00000 0.00000 0.00000 1.00000 0.00000 0.00000 1.00000 0.00000 0.00000 1.00000 0.00000 0.00000 1.00000 0.00000 0.00000 1.00000 0.00000 0.00000 1.00000 0.00000 0.00000 1.00000 0.00000 0.00000 1.00000 0.00000 0.00000 1.00000 0.00000 0.00000 1.00000 0.00000 0.00000 1.00000 0.00000 0.00000 1.00000 0.00000 0.00000 1.00000 0.00000 0.00000 1.00000 0.00000 0.00000 1.00000 0.00000 0.00000 1.00000 0.00000 0.00000 1.00000 0.00000 0.00000 1.00000 0.00000 0.00000 1.00000 0.00000 0.00000 1.00000 0.00000 0.00000 1.00000 0.00000 0.00000 1.00000 0.00000 0.00000 1.00000 0.00000 0.00000 1.00000 0.00000 0.00000 1.00000 0.00000 0.00000 1.00000 0.00000 0.00000 1.00000 0.00000 0.00000 1.00000 0.00000 0.00000 1.00000 0.00000 0.00000 1.00000 0.00000 0.00000 1.00000 0.00000 0.00000 1.00000 0.00000 0.00000 1.00000 0.00000 0.00000 1.00000 0.00000 0.00000 1.00000 0.00000 0.00000 1.00000 0.00000 0.00000 1.00000 0.00000 0.00000 1.00000 0.00000 0.00000 1.00000 0.00000 0.00000 1.00000 0.00000 0.00000 1.00000 0.00000 0.00000 1.00000 0.00000 0.00000 1.00000 0.00000 0.00000 1.00000 0.00000 0.00000 1.00000 0.00000 0.00000 1.00000 0.00000 0.00000 1.00000 0.00000 0.00000 1.00000 0.00000 0.00000 1.00000 0.00000 0.00000 1.00000 0.00000 0.00000 1.00000 0.00000 0.00000 1.00000 0.00000 0.00000 1.00000 0.00000 0.00000 1.00000 0.00000 0.00000 1.00000 0.00000 0.00000 1.00000 0.00000 0.00000 1.00000 0.00000 0.00000 1.00000 0.00000 0.00000 1.00000 0.00000 0.00000 1.00000 0.00000 0.00000 1.00000 0.00000 0.00000 1.00000 0.00000 0.00000 1.00000 0.00000 0.00000 1.00000 0.00000 0.00000 1.00000 0.00000 0.00000 1.00000 0.00000 0.00000 1.00000 0.00000 0.00000 1.00000 0.00000 0.00000 1.00000 0.00000 0.00000 1.00000 0.00000 0.00000 1.00000 0.00000 0.00000 1.00000 0.00000 0.00000 1.00000 0.00000 0.00000 1.00000 0.00000 0.00000 1.00000 0.00000 0.00000 1.00000 0.00000 0.00000 1.00000 0.00000 0.00000 1.00000 0.00000 0.00000 1.00000 0.00000 0.00000 1.00000 0.00000 0.00000 1.00000 0.00000 0.00000 1.00000 0.00000 0.00000 1.00000 0.00000 0.00000 1.00000 0.00000 0.00000 1.00000 0.00000 0.00000 1.00000 0.00000 0.00000 1.00000 0.00000 0.00000 1.00000 0.00000 0.00000 1.00000 0.00000 0.00000 1.00000 0.00000 0.00000 1.00000 0.00000 0.00000 1.00000 0.00000 0.00000 1.00000 0.00000 0.00000 1.00000 0.00000 0.00000 1.00000 0.00000 0.00000 1.00000 0.00000 0.00000 1.00000 0.00000 0.00000 1.00000 0.00000 0.00000 1.00000 0.00000 0.00000 1.00000 0.00000 0.00000 1.00000 0.00000 0.00000 1.00000 0.00000 0.00000 1.00000 0.00000 0.00000 1.00000 0.00000 0.00000 1.00000 0.00000 0.00000 1.00000 0.00000 0.00000 1.00000 0.00000 0.00000 1.00000 0.00000 0.00000 1.00000 0.00000 0.00000 1.00000 0.00000 0.00000 1.00000 0.00000 0.00000 1.00000 0.00000 0.00000 1.00000 0.00000 0.00000 1.00000 0.00000 0.00000 1.00000 0.00000 0.00000 1.00000 -0.00000 0.00000 1.00000 0.00000 0.00000 1.00000 -0.00000 0.00000 1.00000 0.00000 0.00000 1.00000 -0.00000 0.00000 1.00000 0.00000 0.00000 1.00000 0.00000 0.00000 1.00000 -0.00000 0.00000 1.00000 0.00000 0.00000 1.00000 -0.00000 0.00000 1.00000 0.00000 0.00000 1.00000 -0.00000 0.00000 1.00000 0.00000 0.00000 1.00000 -0.00000 0.00000 1.00000 0.00000 0.00000 1.00000 -0.00000 0.00000 1.00000 0.00000 0.00000 1.00000 -0.00000 0.00000 1.00000 0.00000 0.00000 1.00000 -0.00000 0.00000 1.00000 0.00000 0.00000 1.00000 -0.00000 0.00000 1.00000 0.00000 0.00000 1.00000 -0.00000 0.00000 1.00000 0.00000 0.00000 1.00000 -0.00000 0.00000 1.00000 0.00000 0.00000 1.00000 -0.00000 0.00000 1.00000 0.00000 0.00000 1.00000 -0.00000 0.00000 1.00000 0.00000 0.00000 1.00000 -0.00000 0.00000 1.00000 0.00000 0.00000 1.00000 -0.00000 0.00000 1.00000 0.00000 0.00000 1.00000 -0.00000 0.00000 1.00000 0.00000 0.00000 1.00000 -0.00000 0.00000 1.00000 0.00000 0.00000 1.00000 -0.00000 0.00000 1.00000 0.00000 0.00000 1.00000 -0.00000 0.00000 1.00000 0.00000 0.00000 1.00000 -0.00000 0.00000 1.00000 0.00000 0.00000 1.00000 -0.00000 0.00000 1.00000 0.00000 0.00000 1.00000 -0.00000 0.00000 1.00000 0.00000 0.00000 1.00000 -0.00000 0.00000 1.00000 0.00000 0.00000 1.00000 -0.00000 0.00000 1.00000 0.00000 0.00000 1.00000 -0.00000 0.00000 1.00000 0.00000 0.00000 1.00000 -0.00000 0.00000 1.00000 0.00000 0.00000 1.00000 -0.00000 0.00000 1.00000 0.00000 0.00000 1.00000 -0.00000 0.00000 1.00000 0.00000 -0.00000 1.00000 0.00000 0.00000 1.00000 0.00000 -0.00000 1.00000 0.00000 0.00000 1.00000 0.00000 0.00000 1.00000 0.00000 -0.00000 1.00000 0.00000 0.00000 1.00000 0.00000 -0.00000 1.00000 0.00000 0.00000 1.00000 0.00000 -0.00000 1.00000 0.00000 0.00000 1.00000 0.00000 -0.00000 1.00000 0.00000 0.00000 1.00000 0.00000 -0.00000 1.00000 0.00000 0.00000 1.00000 0.00000 -0.00000 1.00000 0.00000 0.00000 1.00000 0.00000 -0.00000 1.00000 0.00000 0.00000 1.00000 0.00000 -0.00000 1.00000 0.00000 0.00000 1.00000 0.00000 -0.00000 1.00000 0.00000 0.00000 1.00000 0.00000 -0.00000 1.00000 0.00000 0.00000 1.00000 0.00000 -0.00000 1.00000 0.00000 0.00000 1.00000 0.00000 -0.00000 1.00000 0.00000 0.00000 1.00000 0.00000 -0.00000 1.00000 0.00000 0.00000 1.00000 0.00000 -0.00000 1.00000 0.00000 0.00000 1.00000 0.00000 -0.00000 1.00000 0.00000 0.00000 1.00000 0.00000 -0.00000 1.00000 0.00000 0.00000 1.00000 0.00000 -0.00000 1.00000 0.00000 0.00000 1.00000 0.00000 -0.00000 1.00000 0.00000 0.00000 1.00000 0.00000 -0.00000 1.00000 0.00000 0.00000 1.00000 0.00000 -0.00000 1.00000 0.00000 0.00000 1.00000 0.00000 -0.00000 1.00000 0.00000 0.00000 1.00000 0.00000 -0.00000 1.00000 0.00000 0.00000 1.00000 0.00000 -0.00000 1.00000 0.00000 0.00000 1.00000 0.00000 -0.00000 1.00000 0.00000 0.00000 1.00000 0.00000 -0.00000 1.00000 0.00000 0.00000 1.00000 0.00000 -0.00000 1.00000 0.00000 0.00000 1.00000 0.00000 -0.00000 1.00000 0.00000 0.00000 1.00000 0.00000 -0.00000 1.00000 0.00000 0.00000 1.00000 0.00000 -0.00000 1.00000 0.00000 0.00000 1.00000 0.00000 0.00000 1.00000 0.00000 0.00000 1.00000 0.00000 0.00000 1.00000 0.00000 0.00000 1.00000 0.00000 0.00000 1.00000 0.00000 0.00000 1.00000 0.00000 0.00000 1.00000 0.00000 0.00000 1.00000 0.00000 0.00000 1.00000 0.00000 0.00000 1.00000 0.00000 0.00000 1.00000 0.00000 0.00000 1.00000 0.00000 0.00000 1.00000 0.00000 0.00000 1.00000 0.00000 0.00000 1.00000 0.00000 0.00000 1.00000 0.00000 0.00000 1.00000 0.00000 0.00000 1.00000 0.00000 0.00000 1.00000 0.00000 0.00000 1.00000 0.00000 0.00000 1.00000 0.00000 0.00000 1.00000 0.00000 0.00000 1.00000 0.00000 0.00000 1.00000 0.00000 0.00000 1.00000 0.00000 0.00000 1.00000 0.00000 0.00000 1.00000 0.00000 0.00000 1.00000 0.00000 0.00000 1.00000 0.00000 0.00000 1.00000 0.00000 0.00000 1.00000 0.00000 0.00000 1.00000 0.00000 0.00000 1.00000 0.00000 0.00000 1.00000 0.00000 0.00000 1.00000 0.00000 0.00000 1.00000 0.00000 0.00000 1.00000 0.00000 0.00000 1.00000 0.00000 0.00000 1.00000 0.00000 0.00000 1.00000 0.00000 0.00000 1.00000 0.00000 0.00000 1.00000 0.00000 0.00000 1.00000 0.00000 0.00000 1.00000 0.00000 0.00000 1.00000 0.00000 0.00000 1.00000 0.00000 0.00000 1.00000 0.00000 0.00000 1.00000 0.00000 0.00000 1.00000 0.00000 0.00000 1.00000 0.00000 0.00000 1.00000 0.00000 0.00000 1.00000 0.00000 0.00000 1.00000 0.00000 0.00000 1.00000 0.00000 0.00000 1.00000 0.00000 0.00000 1.00000 0.00000 0.00000 1.00000 0.00000 0.00000 1.00000 0.00000 0.00000 1.00000 0.00000 0.00000 1.00000 0.00000 0.00000 1.00000 0.00000 0.00000 1.00000 0.00000 0.00000 1.00000 0.00000 0.00000 1.00000 0.00000 0.00000 1.00000 0.00000 0.00000 1.00000 0.00000 0.00000 1.00000 0.00000 0.00000 1.00000 0.00000 0.00000 1.00000 0.00000 0.00000 1.00000 0.00000 0.00000 1.00000 0.00000 0.00000 1.00000 0.00000 0.00000 1.00000 0.00000 0.00000 1.00000 0.00000 0.00000 1.00000 0.00000 0.00000 1.00000 0.00000 0.00000 1.00000 0.00000 0.00000 1.00000 0.00000 0.00000 1.00000 0.00000 0.00000 1.00000 0.00000 0.00000 1.00000 0.00000 0.00000 1.00000 0.00000 0.00000 1.00000 0.00000 0.00000 1.00000 0.00000 0.00000 1.00000 0.00000 0.00000 1.00000 0.00000 0.00000 1.00000 0.00000 0.00000 1.00000 0.00000 0.00000 1.00000 0.00000 0.00000 1.00000 0.00000 0.00000 1.00000 0.00000 0.00000 1.00000 0.00000 0.00000 1.00000 0.00000 0.00000 1.00000 0.00000 0.00000 1.00000 0.00000 0.00000 1.00000 0.00000 0.00000 1.00000 0.00000 0.00000 1.00000 0.00000 0.00000 1.00000 0.00000 0.00000 1.00000 0.00000 0.00000 1.00000 0.00000 0.00000 1.00000 0.00000 0.00000 1.00000 0.00000 0.00000 1.00000 0.00000 0.00000 1.00000 0.00000 0.00000 1.00000 0.00000 0.00000 1.00000 0.00000 0.00000 1.00000 0.00000 0.00000 1.00000 0.00000 0.00000 1.00000 0.00000 0.00000 1.00000 0.00000 0.00000 1.00000 0.00000 0.00000 1.00000 0.00000 0.00000 1.00000 0.00000 0.00000 1.00000 0.00000 0.00000 1.00000 0.00000 0.00000 1.00000 -0.00000 0.00000 1.00000 0.00000 0.00000 1.00000 -0.00000 0.00000 1.00000 0.00000 0.00000 1.00000 0.00000 0.00000 1.00000 -0.00000 0.00000 1.00000 0.00000 0.00000 1.00000 -0.00000 0.00000 1.00000 0.00000 0.00000 1.00000 -0.00000 0.00000 1.00000 0.00000 0.00000 1.00000 -0.00000 0.00000 1.00000 0.00000 0.00000 1.00000 -0.00000 0.00000 1.00000 0.00000 0.00000 1.00000 -0.00000 0.00000 1.00000 0.00000 0.00000 1.00000 -0.00000 0.00000 1.00000 0.00000 0.00000 1.00000 -0.00000 0.00000 1.00000 0.00000 0.00000 1.00000 -0.00000 0.00000 1.00000 0.00000 0.00000 1.00000 -0.00000 0.00000 1.00000 0.00000 0.00000 1.00000 -0.00000 0.00000 1.00000 0.00000 0.00000 1.00000 -0.00000 0.00000 1.00000 0.00000 0.00000 1.00000 -0.00000 0.00000 1.00000 0.00000 0.00000 1.00000 -0.00000 0.00000 1.00000 0.00000 0.00000 1.00000 -0.00000 0.00000 1.00000 0.00000 0.00000 1.00000 -0.00000 0.00000 1.00000 0.00000 0.00000 1.00000 -0.00000 0.00000 1.00000 0.00000 0.00000 1.00000 -0.00000 0.00000 1.00000 0.00000 0.00000 1.00000 -0.00000 0.00000 1.00000 0.00000 0.00000 1.00000 -0.00000 0.00000 1.00000 0.00000 0.00000 1.00000 -0.00000 0.00000 1.00000 0.00000 0.00000 1.00000 -0.00000 0.00000 1.00000 0.00000 0.00000 1.00000 -0.00000 0.00000 1.00000 0.00000 0.00000 1.00000 -0.00000 0.00000 1.00000 0.00000 0.00000 1.00000 -0.00000 0.00000 1.00000 0.00000 0.00000 1.00000 -0.00000 0.00000 1.00000 0.00000 0.00000 1.00000 -0.00000 0.00000 1.00000 0.00000 0.00000 1.00000 -0.00000 0.00000 1.00000</float_array><technique_common><accessor source="#normals-array" count="1260" stride="3"><param name="X" type="float"/><param name="Y" type="float"/><param name="Z" type="float"/></accessor></technique_common></source>
<vertices id="vertices"><input semantic="POSITION" source="#positions"/></vertices><triangles count="1260"><input semantic="VERTEX" source="#vertices" offset="0"/><input semantic="NORMAL" source="#normals" offset="1"/><p>97 0 96 0 0 0 1 1 97 1 0 1 289 2 193 2 192 2 288 3 289 3 192 3 289 4 288 4 96 4 97 5 289 5 96 5 193 6 1 6 0 6 192 7 193 7 0 7 98 8 97 8 1 8 2 9 98 9 1 9 290 10 194 10 193 10 289 11 290 11 193 11 290 12 289 12 97 12 98 13 290 13 97 13 194 14 2 14 1 14 193 15 194 15 1 15 99 16 98 16 2 16 3 17 99 17 2 17 291 18 195 18 194 18 290 19 291 19 194 19 291 20 290 20 98 20 99 21 291 21 98 21 195 22 3 22 2 22 194 23 195 23 2 23 100 24 99 24 3 24 4 25 100 25 3 25 292 26 196 26 195 26 291 27 292 27 195 27 292 28 291 28 99 28 100 29 292 29 99 29 196 30 4 30 3 30 195 31 196 31 3 31 101 32 100 32 4 32 5 33 101 33 4 33 293 34 197 34 196 34 292 35 293 35 196 35 293 36 292 36 100 36 101 37 293 37 100 37 197 38 5 38 4 38 196 39 197 39 4 39 102 40 101 40 5 40 6 41 102 41 5 41 294 42 198 42 197 42 293 43 294 43 197 43 294 44 293 44 101 44 102 45 294 45 101 45 198 46 6 46 5 46 197 47 198 47 5 47 103 48 102 48 6 48 7 49 103 49 6 49 295 50 199 50 198 50 294 51 295 51 198 51 295 52 294 52 102 52 103 53 295 53 102 53 199 54 7 54 6 54 198 55 199 55 6 55 104 56 103 56 7 56 8 57 104 57 7 57 296 58 200 58 199 58 295 59 296 59 199 59 296 60 295 60 103 60 104 61 296 61 103 61 200 62 8 62 7 62 199 63 200 63 7 63 105 64 104 64 8 64 9 65 105 65 8 65 297 66 201 66 200 66 296 67 297 67 200 67 297 68 296 68 104 68 105 69 297 69 104 69 201 70 9 70 8 70 200 71 201 71 8 71 106 72 105 72 9 72 10 73 106 73 9 73 298 74 202 74 201 74 297 75 298 75 201 75 298 76 297 76 105 76 106 77 298 77 105 77 202 78 10 78 9 78 201 79 202 79 9 79 107 80 106 80 10 80 11 81 107 81 10 81 299 82 203 82 202 82 298 83 299 83 202 83 299 84 298 84 106 84 107 85 299 85 106 85 203 86 11 86 10 86 202 87 203 87 10 87 108 88 107 88 11 88 12 89 108 89 11 89 300 90 204 90 203 90 299 91 300 91 203 91 300 92 299 92 107 92 108 93 300 93 107 93 204 94 12 94 11 94 203 95 204 95 11 95 109 96 108 96 12 96 13 97 109 97 12 97 301 98 205 98 204 98 300 99 301 99 204 99 301 100 300 100 108 100 109 101 301 101 108 101 205 102 13 102 12 102 204 103 205 103 12 103 110 104 109 104 13 104 14 105 110 105 13 105 302 106 206 106 205 106 301 107 302 107 205 107 302 108 301 108 109 108 110 109 302 109 109 109 206 110 14 110 13 110 205 111 206 111 13 111 111 112 110 112 14 112 15 113 111 113 14 113 303 114 207 114 206 114 302 115 303 115 206 115 303 116 302 116 110 116 111 117 303 117 110 117 207 118 15 118 14 118 206 119 207 119 14 119 112 120 111 120 15 120 16 121 112 121 15 121 304 122 208 122 207 122 303 123 304 123 207 123 304 124 303 124 111 124 112 125 304 125 111 125 208 126 16 126 15 126 207 127 208 127 15 127 113 128 112 128 16 128 17 129 113 129 16 129 305 130 209 130 208 130 304 131 305 131 208 131 305 132 304 132 112 132 113 133 305 133 112 133 209 134 17 134 16 134 208 135 209 135 16 135 114 136 113 136 17 136 18 137 114 137 17 137 306 138 210 138 209 138 305 139 306 139 209 139 306 140 305 140 113 140 114 141 306 141 113 141 210 142 18 142 17 142 209 143 210 143 17 143 115 144 114 144 18 144 19 145 115 145 18 145 307 146 211 146 210 146 306 147 307 147 210 147 307 148 306 148 114 148 115 149 307 149 114 149 211 150 19 150 18 150 210 151 211 151 18 151 116 152 115 152 19 152 20 153 116 153 19 153 308 154 212 154 211 154 307 155 308 155 211 155 308 156 307 156 115 156 116 157 308 157 115 157 212 158 20 158 19 158 211 159 212 159 19 159 117 160 116 160 20 160 21 161 117 161 20 161 309 162 213 162 212 162 308 163 309 163 212 163 309 164 308 164 116 164 117 165 309 165 116 165 213 166 21 166 20 166 212 167 213 167 20 167 118 168 117 168 21 168 22 169 118 169 21 169 310 170 214 170 213 170 309 171 310 171 213 171 310 172 309 172 117 172 118 173 310 173 117 173 214 174 22 174 21 174 213 175 214 175 21 175 119 176 118 176 22 176 23 177 119 177 22 177 311 178 215 178 214 178 310 179 311 179 214 179 311 180 310 180 118 180 119 181 311 181 118 181 215 182 23 182 22 182 214 183 215 183 22 183 120 184 119 184 23 184 24 185 120 185 23 185 312 186 216 186 215 186 311 187 312 187 215 187 312 188 311 188 119 188 120 189 312 189 119 189 216 190 24 190 23 190 215 191 216 191 23 191 121 192 120 192 24 192 25 193 121 193 24 193 313 194 217 194 216 194 312 195 313 195 216 195 313 196 312 196 120 196 121 197 313 197 120 197 217 198 25 198 24 198 216 199 217 199 24 199 122 200 121 200 25 200 26 201 122 201 25 201 314 202 218 202 217 202 313 203 314 203 217 203 314 204 313 204 121 204 122 205 314 205 121 205 218 206 26 206 25 206 217 207 218 207 25 207 123 208 122 208 26 208 27 209 123 209 26 209 315 210 219 210 218 210 314 211 315 211 218 211 315 212 314 212 122 212 123 213 315 213 122 213 219 214 27 214 26 214 218 215 219 215 26 215 124 216 123 216 27 216 28 217 124 217 27 217 316 218 220 218 219 218 315 219 316 219 219 219 316 220 315 220 123 220 124 221 316 221 123 221 220 222 28 222 27 222 219 223 220 223 27 223 125 224 124 224 28 224 29 225 125 225 28 225 317 226 221 226 220 226 316 227 317 227 220 227 317 228 316 228 124 228 125 229 317 229 124 229 221 230 29 230 28 230 220 231 221 231 28 231 126 232 125 232 29 232 30 233 126 233 29 233 318 234 222 234 221 234 317 235 318 235 221 235 318 236 317 236 125 236 126 237 318 237 125 237 222 238 30 238 29 238 221 239 222 239 29 239 127 240 126 240 30 240 31 241 127 241 30 241 319 242 223 242 222 242 318 243 319 243 222 243 319 244 318 244 126 244 127 245 319 245 126 245 223 246 31 246 30 246 222 247 223 247 30 247 128 248 127 248 31 248 32 249 128 249 31 249 320 250 224 250 223 250 319 251 320 251 223 251 320 252 319 252 127 252 128 253 320 253 127 253 224 254 32 254 31 254 223 255 224 255 31 255 129 256 128 256 32 256 33 257 129 257 32 257 321 258 225 258 224 258 320 259 321 259 224 259 321 260 320 260 128 260 129 261 321 261 128 261 225 262 33 262 32 262 224 263 225 263 32 263 130 264 129 264 33 264 34 265 130 265 33 265 322 266 226 266 225 266 321 267 322 267 225 267 322 268 321 268 129 268 130 269 322 269 129 269 226 270 34 270 33 270 225 271 226 271 33 271 131 272 130 272 34 272 35 273 131 273 34 273 323 274 227 274 226 274 322 275 323 275 226 275 323 276 322 276 130 276 131 277 323 277 130 277 227 278 35 278 34 278 226 279 227 279 34 279 132 280 131 280 35 280 36 281 132 281 35 281 324 282 228 282 227 282 323 283 324 283 227 283 324 284 323 284 131 284 132 285 324 285 131 285 228 286 36 286 35 286 227 287 228 287 35 287 133 288 132 288 36 288 37 289 133 289 36 289 325 290 229 290 228 290 324 291 325 291 228 291 325 292 324 292 132 292 133 293 325 293 132 293 229 294 37 294 36 294 228 295 229 295 36 295 134 296 133 296 37 296 38 297 134 297 37 297 326 298 230 298 229 298 325 299 326 299 229 299 326 300 325 300 133 300 134 301 326 301 133 301 230 302 38 302 37 302 229 303 230 303 37 303 135 304 134 304 38 304 39 305 135 305 38 305 327 306 231 306 230 306 326 307 327 307 230 307 327 308 326 308 134 308 135 309 327 309 134 309 231 310 39 310 38 310 230 311 231 311 38 311 136 312 135 312 39 312 40 313 136 313 39 313 328 314 232 314 231 314 327 315 328 315 231 315 328 316 327 316 135 316 136 317 328 317 135 317 232 318 40 318 39 318 231 319 232 319 39 319 137 320 136 320 40 320 41 321 137 321 40 321 329 322 233 322 232 322 328 323 329 323 232 323 329 324 328 324 136 324 137 325 329 325 136 325 233 326 41 326 40 326 232 327 233 327 40 327 138 328 137 328 41 328 42 329 138 329 41 329 330 330 234 330 233 330 329 331 330 331 233 331 330 332 329 332 137 332 138 333 330 333 137 333 234 334 42 334 41 334 233 335 234 335 41 335 139 336 138 336 42 336 43 337 139 337 42 337 331 338 235 338 234 338 330 339 331 339 234 339 331 340 330 340 138 340 139 341 331 341 138 341 235 342 43 342 42 342 234 343 235 343 42 343 140 344 139 344 43 344 44 345 140 345 43 345 332 346 236 346 235 346 331 347 332 347 235 347 332 348 331 348 139 348 140 349 332 349 139 349 236 350 44 350 43 350 235 351 236 351 43 351 141 352 140 352 44 352 45 353 141 353 44 353 333 354 237 354 236 354 332 355 333 355 236 355 333 356 332 356 140 356 141 357 333 357 140 357 237 358 45 358 44 358 236 359 237 359 44 359 142 360 141 360 45 360 46 361 142 361 45 361 334 362 238 362 237 362 333 363 334 363 237 363 334 364 333 364 141 364 142 365 334 365 141 365 238 366 46 366 45 366 237 367 238 367 45 367 143 368 142 368 46 368 47 369 143 369 46 369 335 370 239 370 238 370 334 371 335 371 238 371 335 372 334 372 142 372 143 373 335 373 142 373 239 374 47 374 46 374 238 375 239 375 46 375 144 376 143 376 47 376 48 377 144 377 47 377 336 378 240 378 239 378 335 379 336 379 239 379 336 380 335 380 143 380 144 381 336 381 143 381 240 382 48 382 47 382 239 383 240 383 47 383 145 384 144 384 48 384 49 385 145 385 48 385 337 386 241 386 240 386 336 387 337 387 240 387 337 388 336 388 144 388 145 389 337 389 144 389 241 390 49 390 48 390 240 391 241 391 48 391 146 392 145 392 49 392 50 393 146 393 49 393 338 394 242 394 241 394 337 395 338 395 241 395 338 396 337 396 145 396 146 397 338 397 145 397 242 398 50 398 49 398 241 399 242 399 49 399 147 400 146 400 50 400 51 401 147 401 50 401 339 402 243 402 242 402 338 403 339 403 242 403 339 404 338 404 146 404 147 405 339 405 146 405 243 406 51 406 50 406 242 407 243 407 50 407 148 408 147 408 51 408 52 409 148 409 51 409 340 410 244 410 243 410 339 411 340 411 243 411 340 412 339 412 147 412 148 413 340 413 147 413 244 414 52 414 51 414 243 415 244 415 51 415 149 416 148 416 52 416 53 417 149 417 52 417 341 418 245 418 244 418 340 419 341 419 244 419 341 420 340 420 148 420 149 421 341 421 148 421 245 422 53 422 52 422 244 423 245 423 52 423 150 424 149 424 53 424 54 425 150 425 53 425 342 426 246 426 245 426 341 427 342 427 245 427 342 428 341 428 149 428 150 429 342 429 149 429 246 430 54 430 53 430 245 431 246 431 53 431 151 432 150 432 54 432 55 433 151 433 54 433 343 434 247 434 246 434 342 435 343 435 246 435 343 436 342 436 150 436 151 437 343 437 150 437 247 438 55 438 54 438 246 439 247 439 54 439 152 440 151 440 55 440 56 441 152 441 55 441 344 442 248 442 247 442 343 443 344 443 247 443 344 444 343 444 151 444 152 445 344 445 151 445 248 446 56 446 55 446 247 447 248 447 55 447 153 448 152 448 56 448 57 449 153 449 56 449 345 450 249 450 248 450 344 451 345 451 248 451 345 452 344 452 152 452 153 453 345 453 152 453 249 454 57 454 56 454 248 455 249 455 56 455 154 456 153 456 57 456 58 457 154 457 57 457 346 458 250 458 249 458 345 459 346 459 249 459 346 460 345 460 153 460 154 461 346 461 153 461 250 462 58 462 57 462 249 463 250 463 57 463 155 464 154 464 58 464 59 465 155 465 58 465 347 466 251 466 250 466 346 467 347 467 250 467 347 468 346 468 154 468 155 469 347 469 154 469 251 470 59 470 58 470 250 471 251 471 58 471 156 472 155 472 59 472 60 473 156 473 59 473 348 474 252 474 251 474 347 475 348 475 251 475 348 476 347 476 155 476 156 477 348 477 155 477 252 478 60 478 59 478 251 479 252 479 59 479 157 480 156 480 60 480 61 481 157 481 60 481 349 482 253 482 252 482 348 483 349 483 252 483 349 484 348 484 156 484 157 485 349 485 156 485 253 486 61 486 60 486 252 487 253 487 60 487 158 488 157 488 61 488 62 489 158 489 61 489 350 490 254 490 253 490 349 491 350 491 253 491 350 492 349 492 157 492 158 493 350 493 157 493 254 494 62 494 61 494 253 495 254 495 61 495 159 496 158 496 62 496 63 497 159 497 62 497 351 498 255 498 254 498 350 499 351 499 254 499 351 500 350 500 158 500 159 501 351 501 158 501 255 502 63 502 62 502 254 503 255 503 62 503 160 504 159 504 63 504 64 505 160 505 63 505 352 506 256 506 255 506 351 507 352 507 255 507 352 508 351 508 159 508 160 509 352 509 159 509 256 510 64 510 63 510 255 511 256 511 63 511 161 512 160 512 64 512 65 513 161 513 64 513 353 514 257 514 256 514 352 515 353 515 256 515 353 516 352 516 160 516 161 517 353 517 160 517 257 518 65 518 64 518 256 519 257 519 64 519 162 520 161 520 65 520 66 521 162 521 65 521 354 522 258 522 257 522 353 523 354 523 257 523 354 524 353 524 161 524 162 525 354 525 161 525 258 526 66 526 65 526 257 527 258 527 65 527 163 528 162 528 66 528 67 529 163 529 66 529 355 530 259 530 258 530 354 531 355 531 258 531 355 532 354 532 162 532 163 533 355 533 162 533 259 534 67 534 66 534 258 535 259 535 66 535 164 536 163 536 67 536 68 537 164 537 67 537 356 538 260 538 259 538 355 539 356 539 259 539 356 540 355 540 163 540 164 541 356 541 163 541 260 542 68 542 67 542 259 543 260 543 67 543 165 544 164 544 68 544 69 545 165 545 68 545 357 546 261 546 260 546 356 547 357 547 260 547 357 548 356 548 164 548 165 549 357 549 164 549 261 550 69 550 68 550 260 551 261 551 68 551 166 552 165 552 69 552 70 553 166 553 69 553 358 554 262 554 261 554 357 555 358 555 261 555 358 556 357 556 165 556 166 557 358 557 165 557 262 558 70 558 69 558 261 559 262 559 69 559 167 560 166 560 70 560 71 561 167 561 70 561 359 562 263 562 262 562 358 563 359 563 262 563 359 564 358 564 166 564 167 565 359 565 166 565 263 566 71 566 70 566 262 567 263 567 70 567 168 568 167 568 71 568 72 569 168 569 71 569 360 570 264 570 263 570 359 571 360 571 263 571 360 572 359 572 167 572 168 573 360 573 167 573 264 574 72 574 71 574 263 575 264 575 71 575 169 576 168 576 72 576 73 577 169 577 72 577 361 578 265 578 264 578 360 579 361 579 264 579 361 580 360 580 168 580 169 581 361 581 168 581 265 582 73 582 72 582 264 583 265 583 72 583 170 584 169 584 73 584 74 585 170 585 73 585 362 586 266 586 265 586 361 587 362 587 265 587 362 588 361 588 169 588 170 589 362 589 169 589 266 590 74 590 73 590 265 591 266 591 73 591 171 592 170 592 74 592 75 593 171 593 74 593 363 594 267 594 266 594 362 595 363 595 266 595 363 596 362 596 170 596 171 597 363 597 170 597 267 598 75 598 74 598 266 599 267 599 74 599 172 600 171 600 75 600 76 601 172 601 75 601 364 602 268 602 267 602 363 603 364 603 267 603 364 604 363 604 171 604 172 605 364 605 171 605 268 606 76 606 75 606 267 607 268 607 75 607 173 608 172 608 76 608 77 609 173 609 76 609 365 610 269 610 268 610 364 611 365 611 268 611 365 612 364 612 172 612 173 613 365 613 172 613 269 614 77 614 76 614 268 615 269 615 76 615 174 616 173 616 77 616 78 617 174 617 77 617 366 618 270 618 269 618 365 619 366 619 269 619 366 620 365 620 173 620 174 621 366 621 173 621 270 622 78 622 77 622 269 623 270 623 77 623 175 624 174 624 78 624 79 625 175 625 78 625 367 626 271 626 270 626 366 627 367 627 270 627 367 628 366 628 174 628 175 629 367 629 174 629 271 630 79 630 78 630 270 631 271 631 78 631 176 632 175 632 79 632 80 633 176 633 79 633 368 634 272 634 271 634 367 635 368 635 271 635 368 636 367 636 175 636 176 637 368 637 175 637 272 638 80 638 79 638 271 639 272 639 79 639 177 640 176 640 80 640 81 641 177 641 80 641 369 642 273 642 272 642 368 643 369 643 272 643 369 644 368 644 176 644 177 645 369 645 176 645 273 646 81 646 80 646 272 647 273 647 80 647 178 648 177 648 81 648 82 649 178 649 81 649 370 650 274 650 273 650 369 651 370 651 273 651 370 652 369 652 177 652 178 653 370 653 177 653 274 654 82 654 81 654 273 655 274 655 81 655 179 656 178 656 82 656 83 657 179 657 82 657 371 658 275 658 274 658 370 659 371 659 274 659 371 660 370 660 178 660 179 661 371 661 178 661 275 662 83 662 82 662 274 663 275 663 82 663 180 664 179 664 83 664 84 665 180 665 83 665 372 666 276 666 275 666 371 667 372 667 275 667 372 668 371 668 179 668 180 669 372 669 179 669 276 670 84 670 83 670 275 671 276 671 83 671 181 672 180 672 84 672 85 673 181 673 84 673 373 674 277 674 276 674 372 675 373 675 276 675 373 676 372 676 180 676 181 677 373 677 180 677 277 678 85 678 84 678 276 679 277 679 84 679 182 680 181 680 85 680 86 681 182 681 85 681 374 682 278 682 277 682 373 683 374 683 277 683 374 684 373 684 181 684 182 685 374 685 181 685 278 686 86 686 85 686 277 687 278 687 85 687 183 688 182 688 86 688 87 689 183 689 86 689 375 690 279 690 278 690 374 691 375 691 278 691 375 692 374 692 182 692 183 693 375 693 182 693 279 694 87 694 86 694 278 695 279 695 86 695 184 696 183 696 87 696 88 697 184 697 87 697 376 698 280 698 279 698 375 699 376 699 279 699 376 700 375 700 183 700 184 701 376 701 183 701 280 702 88 702 87 702 279 703 280 703 87 703 185 704 184 704 88 704 89 705 185 705 88 705 377 706 281 706 280 706 376 707 377 707 280 707 377 708 376 708 184 708 185 709 377 709 184 709 281 710 89 710 88 710 280 711 281 711 88 711 186 712 185 712 89 712 90 713 186 713 89 713 378 714 282 714 281 714 377 715 378 715 281 715 378 716 377 716 185 716 186 717 378 717 185 717 282 718 90 718 89 718 281 719 282 719 89 719 187 720 186 720 90 720 91 721 187 721 90 721 379 722 283 722 282 722 378 723 379 723 282 723 379 724 378 724 186 724 187 725 379 725 186 725 283 726 91 726 90 726 282 727 283 727 90 727 188 728 187 728 91 728 92 729 188 729 91 729 380 730 284 730 283 730 379 731 380 731 283 731 380 732 379 732 187 732 188 733 380 733 187 733 284 734 92 734 91 734 283 735 284 735 91 735 189 736 188 736 92 736 93 737 189 737 92 737 381 738 285 738 284 738 380 739 381 739 284 739 381 740 380 740 188 740 189 741 381 741 188 741 285 742 93 742 92 742 284 743 285 743 92 743 190 744 189 744 93 744 94 745 190 745 93 745 382 746 286 746 285 746 381 747 382 747 285 747 382 748 381 748 189 748 190 749 382 749 189 749 286 750 94 750 93 750 285 751 286 751 93 751 191 752 190 752 94 752 95 753 191 753 94 753 383 754 287 754 286 754 382 755 383 755 286 755 383 756 382 756 190 756 191 757 383 757 190 757 287 758 95 758 94 758 286 759 287 759 94 759 96 760 191 760 95 760 0 761 96 761 95 761 288 762 192 762 287 762 383 763 288 763 287 763 288 764 383 764 191 764 96 765 288 765 191 765 192 766 0 766 95 766 287 767 192 767 95 767 384 768 386 768 385 768 384 769 387 769 386 769 388 770 389 770 390 770 388 771 390 771 391 771 384 772 385 772 389 772 384 773 389 773 388 773 385 774 386 774 390 774 385 775 390 775 389 775 386 776 387 776 391 776 386 777 391 777 390 777 387 778 384 778 388 778 387 779 388 779 391 779 392 780 395 780 394 780 392 781 393 781 395 781 394 782 397 782 396 782 394 783 395 783 397 783 396 784 399 784 398 784 396 785 397 785 399 785 398 786 401 786 400 786 398 787 399 787 401 787 400 788 403 788 402 788 400 789 401 789 403 789 402 790 405 790 404 790 402 791 403 791 405 791 404 792 407 792 406 792 404 793 405 793 407 793 406 794 409 794 408 794 406 795 407 795 409 795 408 796 411 796 410 796 408 797 409 797 411 797 410 798 413 798 412 798 410 799 411 799 413 799 412 800 415 800 414 800 412 801 413 801 415 801 414 802 417 802 416 802 414 803 415 803 417 803 416 804 419 804 418 804 416 805 417 805 419 805 418 806 421 806 420 806 418 807 419 807 421 807 420 808 423 808 422 808 420 809 421 809 423 809 422 810 425 810 424 810 422 811 423 811 425 811 424 812 427 812 426 812 424 813 425 813 427 813 426 814 429 814 428 814 426 815 427 815 429 815 428 816 431 816 430 816 428 817 429 817 431 817 430 818 433 818 432 818 430 819 431 819 433 819 432 820 435 820 434 820 432 821 433 821 435 821 434 822 437 822 436 822 434 823 435 823 437 823 436 824 439 824 438 824 436 825 437 825 439 825 438 826 441 826 440 826 438 827 439 827 441 827 440 828 443 828 442 828 440 829 441 829 443 829 442 830 445 830 444 830 442 831 443 831 445 831 444 832 447 832 446 832 444 833 445 833 447 833 446 834 449 834 448 834 446 835 447 835 449 835 448 836 451 836 450 836 448 837 449 837 451 837 450 838 453 838 452 838 450 839 451 839 453 839 452 840 455 840 454 840 452 841 453 841 455 841 454 842 457 842 456 842 454 843 455 843 457 843 456 844 459 844 458 844 456 845 457 845 459 845 458 846 461 846 460 846 458 847 459 847 461 847 460 848 463 848 462 848 460 849 461 849 463 849 462 850 465 850 464 850 462 851 463 851 465 851 464 852 467 852 466 852 464 853 465 853 467 853 466 854 469 854 468 854 466 855 467 855 469 855 468 856 471 856 470 856 468 857 469 857 471 857 470 858 473 858 472 858 470 859 471 859 473 859 472 860 475 860 474 860 472 861 473 861 475 861 474 862 477 862 476 862 474 863 475 863 477 863 476 864 479 864 478 864 476 865 477 865 479 865 478 866 481 866 480 866 478 867 479 867 481 867 480 868 483 868 482 868 480 869 481 869 483 869 482 870 485 870 484 870 482 871 483 871 485 871 484 872 487 872 486 872 484 873 485 873 487 873 486 874 489 874 488 874 486 875 487 875 489 875 488 876 491 876 490 876 488 877 489 877 491 877 490 878 493 878 492 878 490 879 491 879 493 879 492 880 495 880 494 880 492 881 493 881 495 881 494 882 497 882 496 882 494 883 495 883 497 883 496 884 499 884 498 884 496 885 497 885 499 885 498 886 501 886 500 886 498 887 499 887 501 887 500 888 503 888 502 888 500 889 501 889 503 889 502 890 505 890 504 890 502 891 503 891 505 891 504 892 507 892 506 892 504 893 505 893 507 893 506 894 509 894 508 894 506 895 507 895 509 895 508 896 511 896 510 896 508 897 509 897 511 897 510 898 513 898 512 898 510 899 511 899 513 899 512 900 515 900 514 900 512 901 513 901 515 901 514 902 517 902 516 902 514 903 515 903 517 903 516 904 519 904 518 904 516 905 517 905 519 905 518 906 521 906 520 906 518 907 519 907 521 907 520 908 523 908 522 908 520 909 521 909 523 909 522 910 525 910 524 910 522 911 523 911 525 911 524 912 527 912 526 912 524 913 525 913 527 913 526 914 529 914 528 914 526 915 527 915 529 915 528 916 531 916 530 916 528 917 529 917 531 917 530 918 533 918 532 918 530 919 531 919 533 919 532 920 535 920 534 920 532 921 533 921 535 921 534 922 537 922 536 922 534 923 535 923 537 923 536 924 539 924 538 924 536 925 537 925 539 925 538 926 541 926 540 926 538 927 539 927 541 927 540 928 543 928 542 928 540 929 541 929 543 929 542 930 545 930 544 930 542 931 543 931 545 931 544 932 547 932 546 932 544 933 545 933 547 933 546 934 549 934 548 934 546 935 547 935 549 935 548 936 551 936 550 936 548 937 549 937 551 937 550 938 553 938 552 938 550 939 551 939 553 939 552 940 555 940 554 940 552 941 553 941 555 941 554 942 557 942 556 942 554 943 555 943 557 943 556 944 559 944 558 944 556 945 557 945 559 945 558 946 561 946 560 946 558 947 559 947 561 947 560 948 563 948 562 948 560 949 561 949 563 949 562 950 565 950 564 950 562 951 563 951 565 951 564 952 567 952 566 952 564 953 565 953 567 953 566 954 569 954 568 954 566 955 567 955 569 955 568 956 571 956 570 956 568 957 569 957 571 957 570 958 573 958 572 958 570 959 571 959 573 959 572 960 575 960 574 960 572 961 573 961 575 961 574 962 577 962 576 962 574 963 575 963 577 963 576 964 579 964 578 964 576 965 577 965 579 965 578 966 581 966 580 966 578 967 579 967 581 967 580 968 583 968 582 968 580 969 581 969 583 969 582 970 585 970 584 970 582 971 583 971 585 971 584 972 587 972 586 972 584 973 585 973 587 973 586 974 589 974 588 974 586 975 587 975 589 975 588 976 591 976 590 976 588 977 589 977 591 977 590 978 593 978 592 978 590 979 591 979 593 979 592 980 595 980 594 980 592 981 593 981 595 981 594 982 597 982 596 982 594 983 595 983 597 983 596 984 599 984 598 984 596 985 597 985 599 985 598 986 601 986 600 986 598 987 599 987 601 987 600 988 603 988 602 988 600 989 601 989 603 989 602 990 605 990 604 990 602 991 603 991 605 991 604 992 607 992 606 992 604 993 605 993 607 993 606 994 609 994 608 994 606 995 607 995 609 995 608 996 611 996 610 996 608 997 609 997 611 997 610 998 613 998 612 998 610 999 611 999 613 999 612 1000 615 1000 614 1000 612 1001 613 1001 615 1001 614 1002 617 1002 616 1002 614 1003 615 1003 617 1003 616 1004 619 1004 618 1004 616 1005 617 1005 619 1005 618 1006 621 1006 620 1006 618 1007 619 1007 621 1007 620 1008 623 1008 622 1008 620 1009 621 1009 623 1009 622 1010 625 1010 624 1010 622 1011 623 1011 625 1011 624 1012 627 1012 626 1012 624 1013 625 1013 627 1013 626 1014 629 1014 628 1014 626 1015 627 1015 629 1015 628 1016 631 1016 630 1016 628 1017 629 1017 631 1017 630 1018 633 1018 632 1018 630 1019 631 1019 633 1019 634 1020 637 1020 636 1020 634 1021 635 1021 637 1021 636 1022 639 1022 638 1022 636 1023 637 1023 639 1023 638 1024 641 1024 640 1024 638 1025 639 1025 641 1025 640 1026 643 1026 642 1026 640 1027 641 1027 643 1027 642 1028 645 1028 644 1028 642 1029 643 1029 645 1029 644 1030 647 1030 646 1030 644 1031 645 1031 647 1031 646 1032 649 1032 648 1032 646 1033 647 1033 649 1033 648 1034 651 1034 650 1034 648 1035 649 1035 651 1035 650 1036 653 1036 652 1036 650 1037 651 1037 653 1037 652 1038 655 1038 654 1038 652 1039 653 1039 655 1039 654 1040 657 1040 656 1040 654 1041 655 1041 657 1041 656 1042 659 1042 658 1042 656 1043 657 1043 659 1043 658 1044 661 1044 660 1044 658 1045 659 1045 661 1045 660 1046 663 1046 662 1046 660 1047 661 1047 663 1047 662 1048 665 1048 664 1048 662 1049 663 1049 665 1049 664 1050 667 1050 666 1050 664 1051 665 1051 667 1051 666 1052 669 1052 668 1052 666 1053 667 1053 669 1053 668 1054 671 1054 670 1054 668 1055 669 1055 671 1055 670 1056 673 1056 672 1056 670 1057 671 1057 673 1057 672 1058 675 1058 674 1058 672 1059 673 1059 675 1059 674 1060 677 1060 676 1060 674 1061 675 1061 677 1061 676 1062 679 1062 678 1062 676 1063 677 1063 679 1063 678 1064 681 1064 680 1064 678 1065 679 1065 681 1065 680 1066 683 1066 682 1066 680 1067 681 1067 683 1067 682 1068 685 1068 684 1068 682 1069 683 1069 685 1069 684 1070 687 1070 686 1070 684 1071 685 1071 687 1071 686 1072 689 1072 688 1072 686 1073 687 1073 689 1073 688 1074 691 1074 690 1074 688 1075 689 1075 691 1075 690 1076 693 1076 692 1076 690 1077 691 1077 693 1077 692 1078 695 1078 694 1078 692 1079 693 1079 695 1079 694 1080 697 1080 696 1080 694 1081 695 1081 697 1081 696 1082 699 1082 698 1082 696 1083 697 1083 699 1083 698 1084 701 1084 700 1084 698 1085 699 1085 701 1085 700 1086 703 1086 702 1086 700 1087 701 1087 703 1087 702 1088 705 1088 704 1088 702 1089 703 1089 705 1089 704 1090 707 1090 706 1090 704 1091 705 1091 707 1091 706 1092 709 1092 708 1092 706 1093 707 1093 709 1093 708 1094 711 1094 710 1094 708 1095 709 1095 711 1095 710 1096 713 1096 712 1096 710 1097 711 1097 713 1097 712 1098 715 1098 714 1098 712 1099 713 1099 715 1099 714 1100 717 1100 716 1100 714 1101 715 1101 717 1101 716 1102 719 1102 718 1102 716 1103 717 1103 719 1103 718 1104 721 1104 720 1104 718 1105 719 1105 721 1105 720 1106 723 1106 722 1106 720 1107 721 1107 723 1107 722 1108 725 1108 724 1108 722 1109 723 1109 725 1109 724 1110 727 1110 726 1110 724 1111 725 1111 727 1111 726 1112 729 1112 728 1112 726 1113 727 1113 729 1113 728 1114 731 1114 730 1114 728 1115 729 1115 731 1115 730 1116 733 1116 732 1116 730 1117 731 1117 733 1117 732 1118 735 1118 734 1118 732 1119 733 1119 735 1119 734 1120 737 1120 736 1120 734 1121 735 1121 737 1121 736 1122 739 1122 738 1122 736 1123 737 1123 739 1123 738 1124 741 1124 740 1124 738 1125 739 1125 741 1125 740 1126 743 1126 742 1126 740 1127 741 1127 743 1127 742 1128 745 1128 744 1128 742 1129 743 1129 745 1129 744 1130 747 1130 746 1130 744 1131 745 1131 747 1131 746 1132 749 1132 748 1132 746 1133 747 1133 749 1133 748 1134 751 1134 750 1134 748 1135 749 1135 751 1135 750 1136 753 1136 752 1136 750 1137 751 1137 753 1137 752 1138 755 1138 754 1138 752 1139 753 1139 755 1139 754 1140 757 1140 756 1140 754 1141 755 1141 757 1141 756 1142 759 1142 758 1142 756 1143 757 1143 759 1143 758 1144 761 1144 760 1144 758 1145 759 1145 761 1145 760 1146 763 1146 762 1146 760 1147 761 1147 763 1147 762 1148 765 1148 764 1148 762 1149 763 1149 765 1149 764 1150 767 1150 766 1150 764 1151 765 1151 767 1151 766 1152 769 1152 768 1152 766 1153 767 1153 769 1153 768 1154 771 1154 770 1154 768 1155 769 1155 771 1155 770 1156 773 1156 772 1156 770 1157 771 1157 773 1157 772 1158 775 1158 774 1158 772 1159 773 1159 775 1159 774 1160 777 1160 776 1160 774 1161 775 1161 777 1161 776 1162 779 1162 778 1162 776 1163 777 1163 779 1163 778 1164 781 1164 780 1164 778 1165 779 1165 781 1165 780 1166 783 1166 782 1166 780 1167 781 1167 783 1167 782 1168 785 1168 784 1168 782 1169 783 1169 785 1169 784 1170 787 1170 786 1170 784 1171 785 1171 787 1171 786 1172 789 1172 788 1172 786 1173 787 1173 789 1173 788 1174 791 1174 790 1174 788 1175 789 1175 791 1175 790 1176 793 1176 792 1176 790 1177 791 1177 793 1177 792 1178 795 1178 794 1178 792 1179 793 1179 795 1179 794 1180 797 1180 796 1180 794 1181 795 1181 797 1181 796 1182 799 1182 798 1182 796 1183 797 1183 799 1183 798 1184 801 1184 800 1184 798 1185 799 1185 801 1185 800 1186 803 1186 802 1186 800 1187 801 1187 803 1187 802 1188 805 1188 804 1188 802 1189 803 1189 805 1189 804 1190 807 1190 806 1190 804 1191 805 1191 807 1191 806 1192 809 1192 808 1192 806 1193 807 1193 809 1193 808 1194 811 1194 810 1194 808 1195 809 1195 811 1195 810 1196 813 1196 812 1196 810 1197 811 1197 813 1197 812 1198 815 1198 814 1198 812 1199 813 1199 815 1199 814 1200 817 1200 816 1200 814 1201 815 1201 817 1201 816 1202 819 1202 818 1202 816 1203 817 1203 819 1203 818 1204 821 1204 820 1204 818 1205 819 1205 821 1205 820 1206 823 1206 822 1206 820 1207 821 1207 823 1207 822 1208 825 1208 824 1208 822 1209 823 1209 825 1209 824 1210 827 1210 826 1210 824 1211 825 1211 827 1211 826 1212 829 1212 828 1212 826 1213 827 1213 829 1213 828 1214 831 1214 830 1214 828 1215 829 1215 831 1215 830 1216 833 1216 832 1216 830 1217 831 1217 833 1217 832 1218 835 1218 834 1218 832 1219 833 1219 835 1219 834 1220 837 1220 836 1220 834 1221 835 1221 837 1221 836 1222 839 1222 838 1222 836 1223 837 1223 839 1223 838 1224 841 1224 840 1224 838 1225 839 1225 841 1225 840 1226 843 1226 842 1226 840 1227 841 1227 843 1227 842 1228 845 1228 844 1228 842 1229 843 1229 845 1229 844 1230 847 1230 846 1230 844 1231 845 1231 847 1231 846 1232 849 1232 848 1232 846 1233 847 1233 849 1233 848 1234 851 1234 850 1234 848 1235 849 1235 851 1235 850 1236 853 1236 852 1236 850 1237 851 1237 853 1237 852 1238 855 1238 854 1238 852 1239 853 1239 855 1239 854 1240 857 1240 856 1240 854 1241 855 1241 857 1241 856 1242 859 1242 858 1242 856 1243 857 1243 859 1243 858 1244 861 1244 860 1244 858 1245 859 1245 861 1245 860 1246 863 1246 862 1246 860 1247 861 1247 863 1247 862 1248 865 1248 864 1248 862 1249 863 1249 865 1249 864 1250 867 1250 866 1250 864 1251 865 1251 867 1251 866 1252 869 1252 868 1252 866 1253 867 1253 869 1253 868 1254 871 1254 870 1254 868 1255 869 1255 871 1255 870 1256 873 1256 872 1256 870 1257 871 1257 873 1257 872 1258 875 1258 874 1258 872 1259 873 1259 875 1259</p></triangles>
</mesh></geometry></library_geometries><library_visual_scenes><visual_scene id="Scene"><node id="mesh"><instance_geometry url="#geometry"/></node></visual_scene></library_visual_scenes><scene><instance_visual_scene url="#Scene"/></scene></COLLADA>