<?xml version="1.0" encoding="UTF-8"?>
<COLLADA xmlns="http://www.collada.org/2005/11/COLLADASchema" version="1.4.1">
<asset><contributor><authoring_tool>Summit Estate procedural mesh exporter</authoring_tool></contributor><created>2026-09-11T00:00:00Z</created><modified>2026-09-11T00:00:00Z</modified><unit name="meter" meter="1"/><up_axis>Z_UP</up_axis></asset>
<library_geometries><geometry id="geometry" name="geometry"><mesh>
<source id="positions"><float_array id="positions-array" count="378">119.20000 58.00000 80.00000 119.14142 58.14142 80.00000 119.00000 58.20000 80.00000 118.85858 58.14142 80.00000 118.80000 58.00000 80.00000 118.85858 57.85858 80.00000 119.00000 57.80000 80.00000 119.14142 57.85858 80.00000 119.20000 58.00000 83.50000 119.14142 58.14142 83.50000 119.00000 58.20000 83.50000 118.85858 58.14142 83.50000 118.80000 58.00000 83.50000 118.85858 57.85858 83.50000 119.00000 57.80000 83.50000 119.14142 57.85858 83.50000 119.00000 58.00000 80.00000 119.00000 58.00000 83.50000 111.36970 82.09920 80.00000 111.31112 82.24062 80.00000 111.16970 82.29920 80.00000 111.02828 82.24062 80.00000 110.96970 82.09920 80.00000 111.02828 81.95777 80.00000 111.16970 81.89920 80.00000 111.31112 81.95777 80.00000 111.36970 82.09920 83.50000 111.31112 82.24062 83.50000 111.16970 82.29920 83.50000 111.02828 82.24062 83.50000 110.96970 82.09920 83.50000 111.02828 81.95777 83.50000 111.16970 81.89920 83.50000 111.31112 81.95777 83.50000 111.16970 82.09920 80.00000 111.16970 82.09920 83.50000 45.03030 82.09920 80.00000 44.97172 82.24062 80.00000 44.83030 82.29920 80.00000 44.68888 82.24062 80.00000 44.63030 82.09920 80.00000 44.68888 81.95777 80.00000 44.83030 81.89920 80.00000 44.97172 81.95777 80.00000 45.03030 82.09920 83.50000 44.97172 82.24062 83.50000 44.83030 82.29920 83.50000 44.68888 82.24062 83.50000 44.63030 82.09920 83.50000 44.68888 81.95777 83.50000 44.83030 81.89920 83.50000 44.97172 81.95777 83.50000 44.83030 82.09920 80.00000 44.83030 82.09920 83.50000 37.20000 58.00000 80.00000 37.14142 58.14142 80.00000 37.00000 58.20000 80.00000 36.85858 58.14142 80.00000 36.80000 58.00000 80.00000 36.85858 57.85858 80.00000 37.00000 57.80000 80.00000 37.14142 57.85858 80.00000 37.20000 58.00000 83.50000 37.14142 58.14142 83.50000 37.00000 58.20000 83.50000 36.85858 58.14142 83.50000 36.80000 58.00000 83.50000 36.85858 57.85858 83.50000 37.00000 57.80000 83.50000 37.14142 57.85858 83.50000 37.00000 58.00000 80.00000 37.00000 58.00000 83.50000 65.53030 19.00668 80.00000 65.47172 19.14810 80.00000 65.33030 19.20668 80.00000 65.18888 19.14810 80.00000 65.13030 19.00668 80.00000 65.18888 18.86526 80.00000 65.33030 18.80668 80.00000 65.47172 18.86526 80.00000 65.53030 19.00668 83.50000 65.47172 19.14810 83.50000 65.33030 19.20668 83.50000 65.18888 19.14810 83.50000 65.13030 19.00668 83.50000 65.18888 18.86526 83.50000 65.33030 18.80668 83.50000 65.47172 18.86526 83.50000 65.33030 19.00668 80.00000 65.33030 19.00668 83.50000 90.86970 19.00668 80.00000 90.81112 19.14810 80.00000 90.66970 19.20668 80.00000 90.52828 19.14810 80.00000 90.46970 19.00668 80.00000 90.52828 18.86526 80.00000 90.66970 18.80668 80.00000 90.81112 18.86526 80.00000 90.86970 19.00668 83.50000 90.81112 19.14810 83.50000 90.66970 19.20668 83.50000 90.52828 19.14810 83.50000 90.46970 19.00668 83.50000 90.52828 18.86526 83.50000 90.66970 18.80668 83.50000 90.81112 18.86526 83.50000 90.66970 19.00668 80.00000 90.66970 19.00668 83.50000 111.36970 33.90080 80.00000 111.31112 34.04223 80.00000 111.16970 34.10080 80.00000 111.02828 34.04223 80.00000 110.96970 33.90080 80.00000 111.02828 33.75938 80.00000 111.16970 33.70080 80.00000 111.31112 33.75938 80.00000 111.36970 33.90080 83.50000 111.31112 34.04223 83.50000 111.16970 34.10080 83.50000 111.02828 34.04223 83.50000 110.96970 33.90080 83.50000 111.02828 33.75938 83.50000 111.16970 33.70080 83.50000 111.31112 33.75938 83.50000 111.16970 33.90080 80.00000 111.16970 33.90080 83.50000</float_array><technique_common><accessor source="#positions-array" count="126" stride="3"><param name="X" type="float"/><param name="Y" type="float"/><param name="Z" type="float"/></accessor></technique_common></source>
<source id="normals"><float_array id="normals-array" count="672">0.92388 0.38268 0.00000 0.92388 0.38268 -0.00000 0.00000 0.00000 -1.00000 0.00000 0.00000 1.00000 0.38268 0.92388 0.00000 0.38268 0.92388 -0.00000 0.00000 0.00000 -1.00000 0.00000 0.00000 1.00000 -0.38268 0.92388 0.00000 -0.38268 0.92388 0.00000 0.00000 0.00000 -1.00000 0.00000 -0.00000 1.00000 -0.92388 0.38268 0.00000 -0.92388 0.38268 0.00000 0.00000 0.00000 -1.00000 0.00000 0.00000 1.00000 -0.92388 -0.38268 0.00000 -0.92388 -0.38268 0.00000 -0.00000 0.00000 -1.00000 0.00000 0.00000 1.00000 -0.38268 -0.92388 0.00000 -0.38268 -0.92388 0.00000 0.00000 -0.00000 -1.00000 0.00000 0.00000 1.00000 0.38268 -0.92388 0.00000 0.38268 -0.92388 0.00000 0.00000 0.00000 -1.00000 0.00000 0.00000 1.00000 0.92388 -0.38268 0.00000 0.92388 -0.38268 0.00000 0.00000 0.00000 -1.00000 -0.00000 0.00000 1.00000 0.92388 0.38268 0.00000 0.92388 0.38268 -0.00000 0.00000 0.00000 -1.00000 0.00000 0.00000 1.00000 0.38268 0.92388 0.00000 0.38268 0.92388 -0.00000 0.00000 0.00000 -1.00000 0.00000 0.00000 1.00000 -0.38268 0.92388 0.00000 -0.38268 0.92388 0.00000 0.00000 0.00000 -1.00000 0.00000 -0.00000 1.00000 -0.92388 0.38268 0.00000 -0.92388 0.38268 0.00000 0.00000 0.00000 -1.00000 0.00000 0.00000 1.00000 -0.92388 -0.38268 0.00000 -0.92388 -0.38268 0.00000 -0.00000 0.00000 -1.00000 0.00000 0.00000 1.00000 -0.38268 -0.92388 0.00000 -0.38268 -0.92388 0.00000 0.00000 -0.00000 -1.00000 0.00000 0.00000 1.00000 0.38268 -0.92388 0.00000 0.38268 -0.92388 0.00000 0.00000 0.00000 -1.00000 0.00000 0.00000 1.00000 0.92388 -0.38268 0.00000 0.92388 -0.38268 0.00000 0.00000 0.00000 -1.00000 -0.00000 0.00000 1.00000 0.92388 0.38268 0.00000 0.92388 0.38268 -0.00000 0.00000 0.00000 -1.00000 0.00000 0.00000 1.00000 0.38268 0.92388 0.00000 0.38268 0.92388 -0.00000 0.00000 0.00000 -1.00000 0.00000 0.00000 1.00000 -0.38268 0.92388 0.00000 -0.38268 0.92388 0.00000 0.00000 0.00000 -1.00000 0.00000 -0.00000 1.00000 -0.92388 0.38268 0.00000 -0.92388 0.38268 0.00000 0.00000 0.00000 -1.00000 0.00000 0.00000 1.00000 -0.92388 -0.38268 0.00000 -0.92388 -0.38268 0.00000 -0.00000 0.00000 -1.00000 0.00000 0.00000 1.00000 -0.38268 -0.92388 0.00000 -0.38268 -0.92388 0.00000 0.00000 -0.00000 -1.00000 0.00000 0.00000 1.00000 0.38268 -0.92388 0.00000 0.38268 -0.92388 0.00000 0.00000 0.00000 -1.00000 0.00000 0.00000 1.00000 0.92388 -0.38268 0.00000 0.92388 -0.38268 0.00000 0.00000 0.00000 -1.00000 -0.00000 0.00000 1.00000 0.92388 0.38268 0.00000 0.92388 0.38268 -0.00000 0.00000 0.00000 -1.00000 0.00000 0.00000 1.00000 0.38268 0.92388 0.00000 0.38268 0.92388 -0.00000 0.00000 0.00000 -1.00000 0.00000 0.00000 1.00000 -0.38268 0.92388 0.00000 -0.38268 0.92388 0.00000 0.00000 0.00000 -1.00000 0.00000 -0.00000 1.00000 -0.92388 0.38268 0.00000 -0.92388 0.38268 0.00000 0.00000 0.00000 -1.00000 0.00000 0.00000 1.00000 -0.92388 -0.38268 0.00000 -0.92388 -0.38268 0.00000 -0.00000 0.00000 -1.00000 0.00000 0.00000 1.00000 -0.38268 -0.92388 0.00000 -0.38268 -0.92388 0.00000 0.00000 -0.00000 -1.00000 0.00000 0.00000 1.00000 0.38268 -0.92388 0.00000 0.38268 -0.92388 0.00000 0.00000 0.00000 -1.00000 0.00000 0.00000 1.00000 0.92388 -0.38268 0.00000 0.92388 -0.38268 0.00000 0.00000 0.00000 -1.00000 -0.00000 0.00000 1.00000 0.92388 0.38268 0.00000 0.92388 0.38268 -0.00000 0.00000 0.00000 -1.00000 0.00000 0.00000 1.00000 0.38268 0.92388 0.00000 0.38268 0.92388 -0.00000 0.00000 0.00000 -1.00000 0.00000 0.00000 1.00000 -0.38268 0.92388 0.00000 -0.38268 0.92388 0.00000 0.00000 0.00000 -1.00000 0.00000 -0.00000 1.00000 -0.92388 0.38268 0.00000 -0.92388 0.38268 0.00000 0.00000 0.00000 -1.00000 0.00000 0.00000 1.00000 -0.92388 -0.38268 0.00000 -0.92388 -0.38268 0.00000 -0.00000 0.00000 -1.00000 0.00000 0.00000 1.00000 -0.38268 -0.92388 0.00000 -0.38268 -0.92388 0.00000 0.00000 -0.00000 -1.00000 0.00000 0.00000 1.00000 0.38268 -0.92388 0.00000 0.38268 -0.92388 0.00000 0.00000 0.00000 -1.00000 0.00000 0.00000 1.00000 0.92388 -0.38268 0.00000 0.92388 -0.38268 0.00000 0.00000 0.00000 -1.00000 -0.00000 0.00000 1.00000 0.92388 0.38268 0.00000 0.92388 0.38268 -0.00000 0.00000 0.00000 -1.00000 0.00000 0.00000 1.00000 0.38268 0.92388 0.00000 0.38268 0.92388 -0.00000 0.00000 0.00000 -1.00000 0.00000 0.00000 1.00000 -0.38268 0.92388 0.00000 -0.38268 0.92388 0.00000 0.00000 0.00000 -1.00000 0.00000 -0.00000 1.00000 -0.92388 0.38268 0.00000 -0.92388 0.38268 0.00000 0.00000 0.00000 -1.00000 0.00000 0.00000 1.00000 -0.92388 -0.38268 0.00000 -0.92388 -0.38268 0.00000 -0.00000 0.00000 -1.00000 0.00000 0.00000 1.00000 -0.38268 -0.92388 0.00000 -0.38268 -0.92388 0.00000 0.00000 -0.00000 -1.00000 0.00000 0.00000 1.00000 0.38268 -0.92388 0.00000 0.38268 -0.92388 0.00000 0.00000 0.00000 -1.00000 0.00000 0.00000 1.00000 0.92388 -0.38268 0.00000 0.92388 -0.38268 0.00000 0.00000 0.00000 -1.00000 -0.00000 0.00000 1.00000 0.92388 0.38268 0.00000 0.92388 0.38268 -0.00000 0.00000 0.00000 -1.00000 0.00000 0.00000 1.00000 0.38268 0.92388 0.00000 0.38268 0.92388 -0.00000 0.00000 0.00000 -1.00000 0.00000 0.00000 1.00000 -0.38268 0.92388 0.00000 -0.38268 0.92388 0.00000 0.00000 0.00000 -1.00000 0.00000 -0.00000 1.00000 -0.92388 0.38268 0.00000 -0.92388 0.38268 0.00000 0.00000 0.00000 -1.00000 0.00000 0.00000 1.00000 -0.92388 -0.38268 0.00000 -0.92388 -0.38268 0.00000 -0.00000 0.00000 -1.00000 0.00000 0.00000 1.00000 -0.38268 -0.92388 0.00000 -0.38268 -0.92388 0.00000 0.00000 -0.00000 -1.00000 0.00000 0.00000 1.00000 0.38268 -0.92388 0.00000 0.38268 -0.92388 0.00000 0.00000 0.00000 -1.00000 0.00000 0.00000 1.00000 0.92388 -0.38268 0.00000 0.92388 -0.38268 0.00000 0.00000 0.00000 -1.00000 -0.00000 0.00000 1.00000</float_array><technique_common><accessor source="#normals-array" count="224" stride="3"><param name="X" type="float"/><param name="Y" type="float"/><param name="Z" type="float"/></accessor></technique_common></source>
<vertices id="vertices"><input semantic="POSITION" source="#positions"/></vertices><triangles count="224"><input semantic="VERTEX" source="#vertices" offset="0"/><input semantic="NORMAL" source="#normals" offset="1"/><p>0 0 1 0 9 0 0 1 9 1 8 1 16 2 1 2 0 2 17 3 8 3 9 3 1 4 2 4 10 4 1 5 10 5 9 5 16 6 2 6 1 6 17 7 9 7 10 7 2 8 3 8 11 8 2 9 11 9 10 9 16 10 3 10 2 10 17 11 10 11 11 11 3 12 4 12 12 12 3 13 12 13 11 13 16 14 4 14 3 14 17 15 11 15 12 15 4 16 5 16 13 16 4 17 13 17 12 17 16 18 5 18 4 18 17 19 12 19 13 19 5 20 6 20 14 20 5 21 14 21 13 21 16 22 6 22 5 22 17 23 13 23 14 23 6 24 7 24 15 24 6 25 15 25 14 25 16 26 7 26 6 26 17 27 14 27 15 27 7 28 0 28 8 28 7 29 8 29 15 29 16 30 0 30 7 30 17 31 15 31 8 31 18 32 19 32 27 32 18 33 27 33 26 33 34 34 19 34 18 34 35 35 26 35 27 35 19 36 20 36 28 36 19 37 28 37 27 37 34 38 20 38 19 38 35 39 27 39 28 39 20 40 21 40 29 40 20 41 29 41 28 41 34 42 21 42 20 42 35 43 28 43 29 43 21 44 22 44 30 44 21 45 30 45 29 45 34 46 22 46 21 46 35 47 29 47 30 47 22 48 23 48 31 48 22 49 31 49 30 49 34 50 23 50 22 50 35 51 30 51 31 51 23 52 24 52 32 52 23 53 32 53 31 53 34 54 24 54 23 54 35 55 31 55 32 55 24 56 25 56 33 56 24 57 33 57 32 57 34 58 25 58 24 58 35 59 32 59 33 59 25 60 18 60 26 60 25 61 26 61 33 61 34 62 18 62 25 62 35 63 33 63 26 63 36 64 37 64 45 64 36 65 45 65 44 65 52 66 37 66 36 66 53 67 44 67 45 67 37 68 38 68 46 68 37 69 46 69 45 69 52 70 38 70 37 70 53 71 45 71 46 71 38 72 39 72 47 72 38 73 47 73 46 73 52 74 39 74 38 74 53 75 46 75 47 75 39 76 40 76 48 76 39 77 48 77 47 77 52 78 40 78 39 78 53 79 47 79 48 79 40 80 41 80 49 80 40 81 49 81 48 81 52 82 41 82 40 82 53 83 48 83 49 83 41 84 42 84 50 84 41 85 50 85 49 85 52 86 42 86 41 86 53 87 49 87 50 87 42 88 43 88 51 88 42 89 51 89 50 89 52 90 43 90 42 90 53 91 50 91 51 91 43 92 36 92 44 92 43 93 44 93 51 93 52 94 36 94 43 94 53 95 51 95 44 95 54 96 55 96 63 96 54 97 63 97 62 97 70 98 55 98 54 98 71 99 62 99 63 99 55 100 56 100 64 100 55 101 64 101 63 101 70 102 56 102 55 102 71 103 63 103 64 103 56 104 57 104 65 104 56 105 65 105 64 105 70 106 57 106 56 106 71 107 64 107 65 107 57 108 58 108 66 108 57 109 66 109 65 109 70 110 58 110 57 110 71 111 65 111 66 111 58 112 59 112 67 112 58 113 67 113 66 113 70 114 59 114 58 114 71 115 66 115 67 115 59 116 60 116 68 116 59 117 68 117 67 117 70 118 60 118 59 118 71 119 67 119 68 119 60 120 61 120 69 120 60 121 69 121 68 121 70 122 61 122 60 122 71 123 68 123 69 123 61 124 54 124 62 124 61 125 62 125 69 125 70 126 54 126 61 126 71 127 69 127 62 127 72 128 73 128 81 128 72 129 81 129 80 129 88 130 73 130 72 130 89 131 80 131 81 131 73 132 74 132 82 132 73 133 82 133 81 133 88 134 74 134 73 134 89 135 81 135 82 135 74 136 75 136 83 136 74 137 83 137 82 137 88 138 75 138 74 138 89 139 82 139 83 139 75 140 76 140 84 140 75 141 84 141 83 141 88 142 76 142 75 142 89 143 83 143 84 143 76 144 77 144 85 144 76 145 85 145 84 145 88 146 77 146 76 146 89 147 84 147 85 147 77 148 78 148 86 148 77 149 86 149 85 149 88 150 78 150 77 150 89 151 85 151 86 151 78 152 79 152 87 152 78 153 87 153 86 153 88 154 79 154 78 154 89 155 86 155 87 155 79 156 72 156 80 156 79 157 80 157 87 157 88 158 72 158 79 158 89 159 87 159 80 159 90 160 91 160 99 160 90 161 99 161 98 161 106 162 91 162 90 162 107 163 98 163 99 163 91 164 92 164 100 164 91 165 100 165 99 165 106 166 92 166 91 166 107 167 99 167 100 167 92 168 93 168 101 168 92 169 101 169 100 169 106 170 93 170 92 170 107 171 100 171 101 171 93 172 94 172 102 172 93 173 102 173 101 173 106 174 94 174 93 174 107 175 101 175 102 175 94 176 95 176 103 176 94 177 103 177 102 177 106 178 95 178 94 178 107 179 102 179 103 179 95 180 96 180 104 180 95 181 104 181 103 181 106 182 96 182 95 182 107 183 103 183 104 183 96 184 97 184 105 184 96 185 105 185 104 185 106 186 97 186 96 186 107 187 104 187 105 187 97 188 90 188 98 188 97 189 98 189 105 189 106 190 90 190 97 190 107 191 105 191 98 191 108 192 109 192 117 192 108 193 117 193 116 193 124 194 109 194 108 194 125 195 116 195 117 195 109 196 110 196 118 196 109 197 118 197 117 197 124 198 110 198 109 198 125 199 117 199 118 199 110 200 111 200 119 200 110 201 119 201 118 201 124 202 111 202 110 202 125 203 118 203 119 203 111 204 112 204 120 204 111 205 120 205 119 205 124 206 112 206 111 206 125 207 119 207 120 207 112 208 113 208 121 208 112 209 121 209 120 209 124 210 113 210 112 210 125 211 120 211 121 211 113 212 114 212 122 212 113 213 122 213 121 213 124 214 114 214 113 214 125 215 121 215 122 215 114 216 115 216 123 216 114 217 123 217 122 217 124 218 115 218 114 218 125 219 122 219 123 219 115 220 108 220 116 220 115 221 116 221 123 221 124 222 108 222 115 222 125 223 123 223 116 223</p></triangles>
</mesh></geometry></library_geometries><library_visual_scenes><visual_scene id="Scene"><node id="mesh"><instance_geometry url="#geometry"/></node></visual_scene></library_visual_scenes><scene><instance_visual_scene url="#Scene"/></scene></COLLADA>