# Generated terrain-following OSM road ribbon; model.sdf explicitly overrides this matte material.
mtllib alishan_shizhuo_roads.mtl
o alishan_shizhuo_road_path
usemtl road_path
v -11.287964 78.434022 116.893324
v -11.785028 79.060862 116.844870
v -15.507934 76.108714 116.254741
v -15.010870 75.481875 116.320282
v -19.230841 73.156566 116.098191
v -18.733777 72.529727 116.180819
v -22.953747 70.204419 116.170810
v -22.456683 69.577579 116.291372
v -26.676653 67.252271 116.450327
v -26.179589 66.625432 116.580353
v -30.399560 64.300123 116.969987
v -29.902496 63.673284 117.109477
v -34.122466 61.347975 117.729791
v -33.625402 60.721136 117.878745
v -37.936849 58.293107 118.332882
v -37.256831 57.871710 118.306443
v -39.097552 53.323607 118.746383
v -38.317758 53.144939 118.652000
v -40.208366 48.475471 119.222865
v -39.428573 48.296803 119.155613
v -41.319181 43.627335 119.495073
v -40.539387 43.448668 119.600896
v -42.363052 38.925876 119.544466
v -41.717145 38.453856 119.491355
v -46.496958 36.541132 118.892898
v -46.092412 35.850956 118.799286
v -50.751545 34.047310 118.420040
v -50.346999 33.357134 118.345366
v -55.006132 31.553487 118.155675
v -54.601586 30.863312 118.099939
v -59.286685 29.043069 118.100058
v -58.830206 28.386086 118.062648
v -62.470253 26.366717 117.311939
v -61.955206 25.754568 117.461233
v -65.624537 23.712783 116.411017
v -65.109490 23.100633 116.564626
v -68.778821 21.058848 115.638174
v -68.263774 20.446699 115.796097
v -71.752755 18.491324 114.802818
v -71.598409 17.706354 114.772068
v -76.301162 19.594520 113.761042
v -76.483828 18.815654 113.672351
v -81.018075 20.700768 112.399584
v -81.200741 19.921902 112.422684
v -85.734988 21.807016 110.593015
v -85.917654 21.028150 110.624920
v -90.517284 22.922989 108.770600
v -90.569185 22.124674 108.848155
v -94.996552 22.408084 107.253167
v -94.904042 21.613451 107.378419
v -99.403614 21.895020 105.757324
v -99.311104 21.100387 105.879813
v -103.810676 21.381957 104.667999
v -103.718166 20.587323 104.790324
v -108.217738 20.868893 103.657163
v -108.125228 20.074260 103.791406
v -112.624800 20.355829 102.661928
v -112.532290 19.561196 102.824750
v -117.190432 19.789028 101.660426
v -116.780782 19.101869 101.899196
v -119.535425 16.228318 101.847317
v -118.863030 15.794861 102.093834
v -121.477292 12.972505 101.899527
v -121.348404 12.182956 102.111213
v -125.624328 15.284628 99.944618
v -126.001727 14.579242 99.952454
v -130.024508 17.638833 97.928330
v -130.401907 16.933447 97.932068
v -134.424687 19.993038 95.950370
v -134.802086 19.287652 95.950010
v -139.010336 22.394537 93.678592
v -139.016796 21.594563 93.904761
v -143.608229 20.066726 92.579961
v -143.240485 19.356258 92.867912
v -148.019019 17.783669 91.340805
v -147.651276 17.073201 91.632833
v -152.299723 15.541745 90.233071
v -152.192155 14.749010 90.459826
v -155.240832 16.774740 88.831715
v -155.538065 16.032007 88.906916
v -158.201776 17.885687 87.419078
v -158.864141 17.437053 87.286020
v -158.599400 21.774637 86.075806
v -159.394249 21.684001 85.790554
v -159.063266 25.842586 84.450872
v -159.858115 25.751950 84.155089
v -159.527132 29.910536 82.813484
v -160.321982 29.819899 82.547130
v -159.995171 33.860003 81.204104
v -160.781675 34.006330 80.914736
v -158.138599 37.373982 80.786669
v -158.847590 37.744565 80.336144
v -156.243270 41.000089 80.494422
v -156.952261 41.370671 80.089983
v -154.347941 44.626195 80.390021
v -155.056932 44.996778 80.006602
v -152.452612 48.252302 80.130985
v -153.161604 48.622884 79.768587
v -150.688679 52.395703 79.517109
v -151.134879 51.731696 79.572997
v -155.289993 50.345498 78.562130
v -154.935462 49.628346 78.867705
v -159.490941 48.268721 77.546951
v -159.136410 47.551568 77.826917
v -163.691889 46.191944 76.724557
v -163.337358 45.474791 76.962850
v -167.892837 44.115166 75.905400
v -167.538306 43.398014 76.138344
v -172.093785 42.038389 75.045241
v -171.739254 41.321236 75.272836
v -176.280533 39.968288 74.153316
v -175.954401 39.237783 74.508418
v -180.200491 38.419102 73.511395
v -179.906390 37.675123 73.875266
v -184.136465 36.863178 72.576409
v -183.842364 36.119199 72.938344
v -188.072439 35.307255 71.597634
v -187.778338 34.563276 71.950736
v -192.144420 33.661969 70.549920
v -191.578304 33.096715 70.944671
v -194.301244 29.081619 71.089613
v -193.575854 28.744262 71.484905
v -196.378431 24.615217 71.558768
v -195.653041 24.277860 71.963138
v -198.455619 20.148815 71.961587
v -197.730229 19.811459 72.374171
v -200.532806 15.682414 72.337248
v -199.807416 15.345057 72.761400
v -202.609993 11.216012 72.583682
v -201.884603 10.878655 73.035906
v -204.687181 6.749610 72.679821
v -203.961791 6.412253 73.152611
v -206.698817 2.382309 72.639535
v -206.104529 1.846751 73.105448
v -210.569693 0.217529 70.886420
v -210.175962 -0.478873 71.294882
v -214.540847 -2.027673 69.197816
v -214.147116 -2.724075 69.629497
v -218.512001 -4.272875 67.591048
v -218.118271 -4.969278 68.029644
v -222.483155 -6.518077 66.148787
v -222.089425 -7.214480 66.581587
v -226.454310 -8.763279 64.861077
v -226.060579 -9.459682 65.304648
v -230.425464 -11.008482 63.675457
v -230.031734 -11.704884 64.129800
v -234.396618 -13.253684 62.591928
v -234.002888 -13.950086 63.057043
v -238.367773 -15.498886 61.610489
v -237.974042 -16.195288 62.086376
v -242.338927 -17.744088 61.803344
v -241.945196 -18.440491 62.101755
v -246.448626 -20.119547 62.820160
v -245.777806 -20.555436 63.003016
v -246.996865 -24.909583 64.829583
v -246.201263 -24.993359 64.864728
v -247.482713 -29.523563 66.765151
v -246.687111 -29.607339 66.800295
v -247.968561 -34.137542 68.700719
v -247.172959 -34.221318 68.735863
v -248.454409 -38.751522 70.636287
v -247.658807 -38.835298 70.671431
v -248.940257 -43.365501 71.937454
v -248.144655 -43.449277 71.956807
v -249.426105 -47.979481 73.003283
v -248.630503 -48.063257 73.022635
v -249.911953 -52.593461 74.069111
v -249.116351 -52.677237 74.088463
v -250.000000 -57.207440 75.134939
v -249.602199 -57.291216 75.154291
v -249.708304 -86.424712 73.255848
v -250.000000 -86.972118 73.235046
v -247.156346 -90.313579 73.108069
v -246.572954 -89.766172 73.128871
v -244.020996 -93.655039 72.981092
v -243.437604 -93.107632 73.001894
v -240.885646 -96.996499 72.854115
v -240.302254 -96.449092 72.874917
v -237.750296 -100.337959 73.235682
v -237.166904 -99.790553 73.430596
v -234.614945 -103.679420 73.608848
v -234.031554 -103.132013 73.818859
v -231.457824 -107.042372 74.073697
v -230.917974 -106.451981 74.277323
v -227.742119 -109.963966 74.823663
v -227.247789 -109.334969 75.015228
v -224.049173 -112.866258 75.659484
v -223.554843 -112.237260 75.847318
v -220.356227 -115.768549 76.585332
v -219.861897 -115.139551 76.750746
v -216.663281 -118.670840 77.047424
v -216.168951 -118.041842 77.166660
v -212.970335 -121.573131 76.884479
v -212.476005 -120.944133 77.202883
v -209.277390 -124.475422 76.351493
v -208.783060 -123.846425 76.666855
v -205.584444 -127.377713 75.891925
v -205.090114 -126.748716 76.204245
v -201.833000 -130.318216 75.502972
v -201.455666 -129.612795 75.817934
v -197.673726 -131.607759 75.601263
v -197.438112 -130.843242 75.890086
v -193.585311 -132.867754 75.519336
v -193.349698 -132.103237 75.814171
v -189.496897 -134.127749 75.415513
v -189.261283 -133.363232 75.716359
v -185.408483 -135.387744 75.289794
v -185.172869 -134.623227 75.596652
v -181.320069 -136.647739 75.142179
v -181.084455 -135.883222 75.455049
v -177.217160 -137.911903 74.643606
v -177.010535 -137.139047 74.933514
v -172.530877 -138.997609 74.033148
v -172.350354 -138.218243 74.325612
v -167.857646 -140.080059 73.436068
v -167.677123 -139.300693 73.718952
v -163.184414 -141.162510 72.942629
v -163.003891 -140.383144 73.154038
v -158.511183 -142.244961 72.574794
v -158.330660 -141.465595 72.819248
v -153.837951 -143.327411 72.415326
v -153.657428 -142.548045 72.699159
v -149.164720 -144.409862 72.140273
v -148.984197 -143.630496 72.463484
v -144.472828 -145.496169 71.748056
v -144.329625 -144.709090 72.113640
v -140.255956 -146.030620 71.521124
v -140.155477 -145.236955 71.926532
v -136.060445 -146.561777 71.850059
v -135.959966 -145.768113 72.237883
v -131.864935 -147.092935 72.262367
v -131.764456 -146.299270 72.615625
v -127.669425 -147.624093 72.721695
v -127.568946 -146.830428 73.040387
v -123.473914 -148.155251 73.228044
v -123.373435 -147.361586 73.512169
v -119.292333 -148.684395 73.652586
v -119.163996 -147.894756 73.886101
v -114.410580 -149.628357 73.373271
v -114.258729 -148.842901 73.585493
v -109.517069 -150.574410 73.143046
v -109.365219 -149.788954 73.335380
v -104.623559 -151.520463 72.962588
v -104.471708 -150.735006 73.135035
v -99.730049 -152.466516 72.846668
v -99.578198 -151.681059 73.009589
f 1 2 3 4
f 4 3 5 6
f 6 5 7 8
f 8 7 9 10
f 10 9 11 12
f 12 11 13 14
f 14 13 15 16
f 16 15 17 18
f 18 17 19 20
f 20 19 21 22
f 22 21 23 24
f 24 23 25 26
f 26 25 27 28
f 28 27 29 30
f 30 29 31 32
f 32 31 33 34
f 34 33 35 36
f 36 35 37 38
f 38 37 39 40
f 40 39 41 42
f 42 41 43 44
f 44 43 45 46
f 46 45 47 48
f 48 47 49 50
f 50 49 51 52
f 52 51 53 54
f 54 53 55 56
f 56 55 57 58
f 58 57 59 60
f 60 59 61 62
f 62 61 63 64
f 64 63 65 66
f 66 65 67 68
f 68 67 69 70
f 70 69 71 72
f 72 71 73 74
f 74 73 75 76
f 76 75 77 78
f 78 77 79 80
f 80 79 81 82
f 82 81 83 84
f 84 83 85 86
f 86 85 87 88
f 88 87 89 90
f 90 89 91 92
f 92 91 93 94
f 94 93 95 96
f 96 95 97 98
f 98 97 99 100
f 100 99 101 102
f 102 101 103 104
f 104 103 105 106
f 106 105 107 108
f 108 107 109 110
f 110 109 111 112
f 112 111 113 114
f 114 113 115 116
f 116 115 117 118
f 118 117 119 120
f 120 119 121 122
f 122 121 123 124
f 124 123 125 126
f 126 125 127 128
f 128 127 129 130
f 130 129 131 132
f 132 131 133 134
f 134 133 135 136
f 136 135 137 138
f 138 137 139 140
f 140 139 141 142
f 142 141 143 144
f 144 143 145 146
f 146 145 147 148
f 148 147 149 150
f 150 149 151 152
f 152 151 153 154
f 154 153 155 156
f 156 155 157 158
f 158 157 159 160
f 160 159 161 162
f 162 161 163 164
f 164 163 165 166
f 166 165 167 168
f 168 167 169 170
f 171 172 173 174
f 174 173 175 176
f 176 175 177 178
f 178 177 179 180
f 180 179 181 182
f 182 181 183 184
f 184 183 185 186
f 186 185 187 188
f 188 187 189 190
f 190 189 191 192
f 192 191 193 194
f 194 193 195 196
f 196 195 197 198
f 198 197 199 200
f 200 199 201 202
f 202 201 203 204
f 204 203 205 206
f 206 205 207 208
f 208 207 209 210
f 210 209 211 212
f 212 211 213 214
f 214 213 215 216
f 216 215 217 218
f 218 217 219 220
f 220 219 221 222
f 222 221 223 224
f 224 223 225 226
f 226 225 227 228
f 228 227 229 230
f 230 229 231 232
f 232 231 233 234
f 234 233 235 236
f 236 235 237 238
f 238 237 239 240
f 240 239 241 242
f 242 241 243 244
f 244 243 245 246
