# Generated from OpenStreetMap highway ways; see road metadata JSON.
mtllib alishan_shizhuo_roads.mtl
o alishan_shizhuo_roads
v 164.706529 -250.000000 93.348500
v 168.076725 -249.527830 94.543229
v 163.769622 -247.128503 93.016368
v 167.139818 -246.184163 94.211097
v 162.947794 -244.085673 92.725032
v 166.087833 -242.539661 93.838170
v 161.026654 -241.558187 92.043991
v 163.832506 -239.466013 93.223731
v 159.035678 -238.876750 91.775680
v 161.647014 -236.546316 93.464668
v 155.630020 -235.516046 92.029569
v 158.090187 -233.026553 93.621353
v 152.319330 -232.223868 92.477189
v 154.438391 -229.438265 94.110107
v 148.456452 -230.057127 92.487251
v 150.179734 -227.010769 94.205212
v 144.395684 -227.760009 92.663777
v 146.118966 -224.713650 94.454713
v 140.518576 -225.553043 92.990461
v 141.874539 -222.326379 94.881542
v 136.309976 -224.361617 92.982214
v 137.272881 -220.996678 94.831869
v 131.926296 -223.107043 92.956100
v 132.846305 -219.730124 94.710237
v 127.985707 -222.093714 92.833224
v 128.857527 -218.704034 94.433462
v 124.021024 -221.074006 92.669781
v 124.892843 -217.684326 94.138422
v 120.001357 -220.039196 92.463615
v 120.983143 -216.679718 93.827735
v 116.124751 -218.766335 92.229798
v 117.217390 -215.441258 93.659298
v 112.303572 -217.510675 92.056446
v 113.396210 -214.185597 93.555644
v 108.843421 -216.332639 91.967738
v 109.214001 -212.852313 93.492577
v 105.481537 -216.779065 91.223500
v 105.066013 -213.303819 92.706009
v 101.726602 -217.228031 90.393609
v 101.311077 -213.752785 91.955219
v 97.971666 -217.676997 90.729326
v 97.556141 -214.201751 92.369540
v 94.315594 -218.111268 92.091812
v 93.702341 -214.665412 93.508382
v 89.670633 -219.155447 93.805419
v 88.904246 -215.740385 94.925515
v 84.949105 -220.215023 95.660883
v 84.182718 -216.799961 96.546645
v 80.227576 -221.274599 97.044444
v 79.461189 -217.859537 98.179193
v 75.506048 -222.334175 96.487332
v 74.739661 -218.919112 98.211091
v 70.784520 -223.393751 95.947905
v 70.018133 -219.978688 98.171950
v 66.062992 -224.453327 95.521543
v 65.296605 -221.038264 97.584213
v 61.388041 -225.501778 95.211151
v 60.528499 -222.108964 97.093290
v 57.116892 -226.719640 94.752386
v 56.157741 -223.353629 96.433957
v 52.795938 -227.950904 94.333836
v 51.836787 -224.584893 95.872088
v 48.474985 -229.182168 94.029403
v 47.515834 -225.816157 95.424335
v 43.337270 -230.447634 93.885979
v 44.011641 -227.013217 95.073540
v 40.100855 -227.374947 95.098169
v 42.702751 -225.033977 95.805091
v 37.828203 -224.848984 95.119629
v 40.430098 -222.508014 96.650421
v 35.346488 -222.037052 95.275612
v 38.366508 -220.268020 96.857249
v 33.412100 -217.345947 95.692830
v 36.652433 -216.022979 96.691006
v 31.587868 -212.877874 95.643982
v 34.828201 -211.554906 96.550466
v 29.763637 -208.409801 95.719028
v 33.003969 -207.086833 96.533819
v 27.939405 -203.941728 95.917967
v 31.179738 -202.618760 96.641067
v 26.115173 -199.473655 96.254081
v 29.355506 -198.150687 96.948982
v 24.290942 -195.005582 96.767759
v 27.531274 -193.682614 97.431596
v 22.466710 -190.537509 97.323409
v 25.707043 -189.214541 97.956183
v 20.740363 -186.271177 97.894915
v 23.784927 -184.544727 98.547612
v 17.895383 -182.477606 98.121326
v 20.701464 -180.385740 98.977474
v 15.015377 -178.605698 98.448055
v 17.653028 -176.305090 99.151452
v 11.643493 -175.309453 98.439522
v 14.092983 -172.809454 99.144304
v 8.177528 -171.913513 98.456227
v 10.627019 -169.413514 99.161373
v 4.727447 -168.532939 98.497429
v 7.145172 -166.002208 99.203374
v 1.175186 -165.223851 98.538537
v 3.560923 -162.662941 99.246071
v -2.393069 -161.899673 98.229414
v -0.007332 -159.338764 99.500862
v -5.961324 -158.575496 98.170730
v -3.575587 -156.014586 99.917818
v -9.529579 -155.251318 98.450331
v -7.143842 -152.690408 100.190053
v -13.097834 -151.927141 98.585209
v -10.712097 -149.366231 100.317567
v -16.666089 -148.602963 98.575367
v -14.280352 -146.042053 100.300358
v -20.234345 -145.278785 98.391862
v -17.848607 -142.717876 100.138429
v -23.979800 -141.762919 97.481473
v -21.239662 -139.585387 99.522871
v -25.741918 -138.318672 96.972600
v -22.610579 -136.755112 98.891900
v -27.370743 -135.041651 96.043374
v -24.114788 -133.757610 98.106891
v -28.209745 -132.052904 95.522483
v -24.837077 -131.117430 97.737385
v -29.052349 -128.847993 94.947529
v -25.555764 -128.693413 97.327067
v -28.557669 -124.642580 95.265870
v -25.084044 -125.071448 97.757556
v -28.030543 -120.499891 95.650088
v -24.644770 -121.386761 98.199620
v -26.233545 -115.748307 96.851252
v -22.962301 -116.992878 99.394601
v -24.493812 -111.175574 97.966944
v -21.222567 -112.420145 100.487262
v -22.754079 -106.602841 99.053992
v -19.482834 -107.847412 101.399858
v -21.014346 -102.030107 100.112398
v -17.743101 -103.274679 101.865740
v -19.274612 -97.457374 100.461468
v -16.003368 -98.701946 102.073151
v -17.534879 -92.884641 100.250795
v -14.263634 -94.129212 102.004485
v -15.795146 -88.311908 100.216732
v -12.523901 -89.556479 102.112430
v -14.089511 -83.837503 100.356250
v -10.750069 -84.885418 102.403189
v -13.658177 -81.529809 100.226532
v -10.220933 -82.189623 102.362802
v -13.191231 -79.107006 100.264767
v -9.727408 -79.608935 102.385653
v -12.771457 -75.403564 100.515889
v -9.293814 -75.798529 102.575980
v -12.344773 -71.646639 100.754283
v -8.867129 -72.041605 102.746018
v -11.924949 -67.964336 100.972340
v -8.433585 -68.210060 102.901038
v -11.759974 -63.329480 101.032284
v -8.262217 -63.454765 102.875763
v -11.544965 -58.290161 101.076239
v -8.140883 -59.103933 102.826758
v -9.650890 -54.597707 101.942815
v -6.558376 -56.236720 103.553959
v -7.844114 -51.199996 102.768512
v -4.888569 -53.074763 104.314338
v -5.253754 -47.663275 103.981775
v -2.432003 -49.733956 105.463731
v -2.730291 -44.224511 105.158169
v 0.091460 -46.295192 106.616825
v 0.225057 -40.370544 106.467385
v 2.183038 -43.271631 107.019130
v 4.769677 -39.174496 107.427099
v 5.579304 -42.579566 107.761245
v 7.716150 -38.922491 108.038739
v 10.573718 -40.943458 108.686870
v 7.144794 -35.723480 108.097795
v 10.638779 -35.518359 108.809461
v 6.891647 -31.411425 108.283513
v 10.385631 -31.206303 108.985049
v 6.638499 -27.099370 108.470705
v 10.132483 -26.894248 109.162110
v 6.385351 -22.787314 108.659370
v 9.879335 -22.582193 109.340644
v 6.132203 -18.475259 109.040487
v 9.626187 -18.270138 109.742005
v 5.879131 -14.164493 109.770833
v 9.372963 -13.956794 110.474291
v 5.649529 -10.338205 110.417965
v 9.148461 -10.251727 111.101800
v 5.673616 -5.859336 111.231300
v 9.173562 -5.878784 111.897733
v 5.698210 -1.433429 112.035190
v 9.198156 -1.452878 112.703174
v 5.722804 2.992477 112.443771
v 9.222750 2.973028 113.157497
v 5.747398 7.418383 112.663737
v 9.247344 7.398934 113.440972
v 5.771992 11.844289 112.884596
v 9.271938 11.824840 113.725340
v 5.799447 16.360968 113.111515
v 9.293671 16.159974 114.004132
v 6.283583 20.735857 113.472757
v 9.762129 20.348923 114.405105
v 6.759879 25.017776 113.912459
v 10.238425 24.630842 114.918359
v 7.236176 29.299696 114.372555
v 10.714722 28.912762 115.452008
v 7.702100 33.352947 114.832004
v 11.201392 33.423349 116.031075
v 7.096911 36.573599 114.862443
v 10.540979 37.196811 116.148067
v 6.464110 40.070656 114.883507
v 9.908179 40.693868 116.236113
v 5.879082 43.370057 114.932371
v 9.227605 44.388582 116.341636
v 4.336926 47.052947 114.599683
v 7.568221 48.397840 116.043951
v 2.835025 50.698609 114.224422
v 5.868582 52.444327 115.664518
v 0.157678 54.309200 113.267262
v 2.974274 56.386889 114.662413
v -2.620538 58.075536 113.879599
v 0.180835 60.173705 113.625233
v -5.546863 61.925622 114.939288
v -2.760367 64.043507 114.973664
v -8.480626 65.785565 115.868549
v -5.694130 67.903451 115.992522
v -11.605925 69.962184 116.370631
v -8.436358 71.446719 116.533283
v -12.498562 74.401935 116.542769
v -9.059076 75.049958 116.898804
v -13.280654 78.604567 116.572138
v -9.792338 78.890317 117.178960
v -13.190670 82.852491 116.222935
v -9.691633 82.770401 116.886064
v -13.094342 86.947044 115.668281
v -9.597272 86.803855 116.300115
v -12.912606 89.634723 115.322797
v -9.420635 89.397782 115.941608
v -12.735771 92.233337 114.986340
v -9.239097 92.080773 115.567905
v -12.583142 97.194298 114.309893
v -9.084822 97.085881 114.836524
v -12.446254 101.579754 113.957787
v -8.947958 101.470557 114.443944
v -12.309377 105.964820 114.047891
v -8.811081 105.855623 114.549369
v 43.965237 -229.946134 94.020723
v 43.383674 -227.514718 94.918793
v 41.440876 -230.549928 93.989560
v 40.859313 -228.118512 94.825569
v 38.253110 -231.131184 93.147507
v 38.998356 -228.744846 94.259042
v 34.278278 -228.437296 92.451335
v 35.705601 -226.384798 93.786775
v 30.644484 -225.910328 92.071179
v 32.071807 -223.857830 93.453607
v 27.010691 -223.383360 91.915071
v 28.438014 -221.330862 93.344487
v 23.237262 -220.743590 91.998278
v 24.943856 -218.916697 93.067893
v 20.015464 -216.851961 92.018735
v 21.944498 -215.261731 92.836009
v 16.904887 -213.078664 90.651836
v 18.833920 -211.488434 92.284770
v 13.794309 -209.305366 89.617748
v 15.723342 -207.715137 91.216923
v 10.683731 -205.532069 88.923454
v 12.612764 -203.941840 90.488868
v 7.573153 -201.758772 88.568951
v 9.502187 -200.168542 90.100605
v 4.462575 -197.985474 88.619847
v 6.391609 -196.395245 90.152494
v 1.540980 -194.397392 89.092657
v 3.092049 -192.436733 90.624581
v -1.851315 -192.972639 88.252682
v -0.856938 -190.678905 90.006044
v -5.521956 -191.381348 87.217390
v -4.527579 -189.087614 89.037414
v -9.186198 -189.792810 86.297519
v -8.204619 -187.493570 88.181283
v -13.643440 -187.914176 85.296257
v -12.672457 -185.610441 87.259990
v -18.105980 -186.033294 84.457390
v -17.134997 -183.729560 86.503553
v -22.568520 -184.152412 84.455470
v -21.597537 -181.848678 86.258972
v -27.019522 -182.276326 84.859311
v -26.071614 -179.963001 86.570547
v -31.355468 -180.551867 85.038140
v -30.431541 -178.228860 86.078302
v -35.703404 -178.822567 84.723437
v -34.779477 -176.499560 85.567814
v -40.244297 -176.996461 84.128136
v -38.934456 -174.867067 85.056329
v -42.879271 -174.388966 83.582386
v -41.103953 -172.628782 84.884727
v -45.281507 -171.966076 83.074445
v -43.506189 -170.205892 84.376921
v -47.804214 -169.402128 82.522786
v -45.787952 -167.924059 83.869629
v -50.090036 -165.416313 82.415146
v -47.919177 -164.176405 83.786292
v -52.298560 -161.549578 82.282962
v -50.127701 -160.309670 83.664572
v -54.507083 -157.682843 81.646332
v -52.336224 -156.442936 82.752951
v -56.728625 -153.792738 80.713932
v -54.531729 -152.599571 81.817985
v -59.018818 -149.375814 79.814229
v -56.799365 -148.225150 80.910732
v -61.163050 -145.186977 79.335163
v -59.212960 -143.622640 79.993783
v -64.353289 -142.539729 78.952286
v -63.344396 -140.252343 79.295905
v -67.189027 -142.577906 78.470532
v -67.137849 -140.078430 78.745268
v -70.408922 -142.508388 77.936389
v -70.547148 -140.012212 78.247392
v -74.828462 -143.002598 77.109831
v -75.105211 -140.517964 77.486052
v -79.317264 -143.502579 76.234730
v -79.594012 -141.017944 76.699615
v -83.669912 -143.979724 75.730856
v -84.218967 -141.540761 76.192148
v -88.271870 -145.519812 75.062603
v -89.062203 -143.148025 75.482920
v -92.848459 -147.034373 74.413027
v -93.930809 -144.780816 74.779524
v -96.031710 -149.183054 73.752446
v -97.785443 -147.401364 73.972568
v -98.460533 -152.445057 72.939987
v -100.847714 -151.702518 72.965882
v -98.350598 -156.932764 72.073232
v -100.850447 -156.960263 71.924444
v -98.296997 -161.805490 71.214988
v -100.796846 -161.832989 71.068099
v -98.243397 -166.678217 70.503379
v -100.743245 -166.705715 70.390073
v -98.191812 -171.492401 69.796664
v -100.687628 -171.636983 69.708346
v -97.680781 -176.389264 69.049578
v -100.167347 -176.648089 69.107608
v -97.165124 -181.343249 68.279432
v -99.651690 -181.602074 68.434261
v -96.649468 -186.297234 67.561117
v -99.136034 -186.556058 67.694010
v -96.130558 -191.287641 66.846851
v -98.623631 -191.473621 66.968266
v -95.996100 -195.061310 66.326439
v -98.494538 -195.149697 66.444933
v -95.864325 -198.786183 65.814591
v -98.362762 -198.874570 65.916352
v -95.757161 -202.805923 65.285633
v -98.206376 -202.304576 65.489329
v -97.304382 -205.706914 65.032429
v -99.489178 -204.491733 65.329478
v -98.727483 -208.265310 64.857890
v -100.896099 -207.021484 64.879056
v -100.586279 -211.423927 64.509314
v -102.830416 -210.322180 64.083877
v -101.746548 -214.311473 63.953174
v -103.601492 -212.635411 63.686902
v -105.037335 -216.382163 63.027437
v -106.508954 -214.361189 62.870451
v -108.494895 -219.255227 62.049569
v -110.091577 -217.331531 61.849600
v -112.223809 -222.317339 60.511154
v -113.402846 -220.112827 60.940129
v -116.336717 -223.439814 59.561494
v -116.975870 -221.022898 60.002420
v -120.179683 -224.456087 58.841396
v -120.818836 -222.039171 59.216283
v -124.022649 -225.472359 58.515143
v -124.661802 -223.055444 58.868650
v -127.280955 -226.143225 58.282380
v -129.089428 -224.417124 58.464240
v -128.033901 -229.711422 57.722880
v -130.455146 -229.088869 57.739124
v -129.093233 -233.831393 57.089648
v -131.514478 -233.208840 57.128949
v -130.152566 -237.951364 56.478019
v -132.573811 -237.328810 56.540378
v -131.211898 -242.071335 56.179536
v -133.633143 -241.448781 56.168645
v -132.271230 -246.191306 56.174771
v -134.692475 -245.568752 56.163880
v -133.330562 -250.000000 56.170006
v -135.751807 -249.688723 56.159114
v -156.248937 -173.450958 65.009321
v -156.254201 -175.950953 64.660219
v -151.638617 -173.460665 64.769677
v -151.643880 -175.960659 64.509037
v -147.028296 -173.470371 64.530719
v -147.033560 -175.970366 64.358541
v -142.384570 -173.480595 64.290710
v -142.456644 -175.979556 64.209830
v -138.053939 -173.729272 64.364186
v -138.197555 -176.225144 64.249346
v -133.654267 -173.986881 64.789924
v -134.007507 -176.461800 64.511234
v -129.379404 -174.967416 65.054401
v -129.940811 -177.403565 64.628579
v -125.216907 -175.926687 65.198755
v -125.761749 -178.366594 64.639057
v -121.592642 -176.743820 65.238787
v -122.708457 -178.980996 64.598668
v -119.366368 -178.875403 64.840931
v -121.132542 -180.644761 64.232914
v -117.377466 -180.870440 64.777198
v -119.319254 -182.445070 64.041245
v -114.682657 -184.644080 64.665748
v -116.717901 -186.095899 63.922582
v -112.034575 -188.356315 64.612471
v -114.069820 -189.808134 63.858638
v -109.386494 -192.068549 64.615713
v -111.421739 -193.520368 63.851213
v -106.738413 -195.780784 64.675475
v -108.773657 -197.232603 63.900307
v -104.090331 -199.493018 64.791756
v -106.125576 -200.944837 64.078697
v -101.442250 -203.205253 65.119503
v -103.477495 -204.657072 64.451233
v -98.794169 -206.917487 65.012964
v -100.829413 -208.369307 64.759876
v -96.331693 -201.487588 65.484628
v -97.631844 -203.622912 65.301995
v -92.630441 -203.741196 64.961571
v -93.930592 -205.876520 64.749968
v -88.929190 -205.994805 64.341340
v -90.229340 -208.130129 64.100768
v -85.227938 -208.248414 63.623937
v -86.528089 -210.383738 63.354396
v -81.526686 -210.502022 62.809360
v -82.826837 -212.637346 62.510850
v -77.783034 -212.782631 61.994972
v -79.167986 -214.863955 61.609899
v -74.162537 -215.402219 60.968711
v -75.628463 -217.427327 60.558606
v -70.582527 -217.993699 59.709180
v -72.048452 -220.018807 59.254959
v -66.682018 -220.924889 58.204464
v -68.788941 -222.270577 58.224303
v -65.973832 -225.261433 57.304745
v -68.450866 -225.599522 57.457904
v -65.467144 -229.000478 56.600723
v -67.911293 -229.525966 56.588936
v -64.360505 -232.764105 55.951278
v -66.759575 -233.467285 55.787868
v -63.231326 -236.616579 55.404464
v -65.630396 -237.319758 55.125313
v -62.205227 -240.220404 55.026337
v -64.398138 -241.420879 54.784024
v -59.702702 -243.061233 55.275807
v -61.591004 -244.699622 55.094207
v -57.047873 -246.121020 55.327578
v -58.936175 -247.759408 55.290755
v -54.393045 -249.180806 55.379350
v -56.281346 -250.000000 55.342526
v 175.737235 -70.856992 150.780970
v 173.789901 -72.424759 150.058837
v 178.652171 -74.477655 151.301095
v 176.704837 -76.045421 150.595335
v 181.567106 -78.098318 151.455477
v 179.619772 -79.666084 150.992520
v 184.482042 -81.718981 151.074019
v 182.534708 -83.286747 150.410993
v 187.396977 -85.339643 150.351944
v 185.449643 -86.907410 149.692452
v 190.311913 -88.960306 149.599800
v 188.364579 -90.528072 148.943842
v 193.226848 -92.580969 148.817586
v 191.279514 -94.148735 148.165161
v 196.141783 -96.201632 148.005302
v 194.194450 -97.769398 147.356412
v 199.056719 -99.822294 147.162949
v 197.109385 -101.390061 146.796500
v 201.971654 -103.442957 146.914263
v 200.024320 -105.010723 146.712340
v 204.383016 -106.689267 146.730615
v 203.442829 -109.005740 146.505399
v 208.245763 -105.998071 146.930079
v 208.581937 -108.475365 146.798196
v 212.746691 -105.387286 147.125507
v 213.082865 -107.864580 147.040960
v 217.247618 -104.776500 147.297156
v 217.583792 -107.253795 147.259945
v 221.748546 -104.165715 147.610755
v 222.084720 -106.643010 147.592963
v -11.287964 78.434022 116.893324
v -11.785028 79.060862 116.844870
v -15.010870 75.481875 116.320282
v -15.507934 76.108714 116.254741
v -18.733777 72.529727 116.180819
v -19.230841 73.156566 116.098191
v -22.456683 69.577579 116.291372
v -22.953747 70.204419 116.170810
v -26.179589 66.625432 116.580353
v -26.676653 67.252271 116.450327
v -29.902496 63.673284 117.109477
v -30.399560 64.300123 116.969987
v -33.625402 60.721136 117.878745
v -34.122466 61.347975 117.729791
v -37.256831 57.871710 118.306443
v -37.936849 58.293107 118.332882
v -38.317758 53.144939 118.652000
v -39.097552 53.323607 118.746383
v -39.428573 48.296803 119.155613
v -40.208366 48.475471 119.222865
v -40.539387 43.448668 119.600896
v -41.319181 43.627335 119.495073
v -41.717145 38.453856 119.491355
v -42.363052 38.925876 119.544466
v -46.092412 35.850956 118.799286
v -46.496958 36.541132 118.892898
v -50.346999 33.357134 118.345366
v -50.751545 34.047310 118.420040
v -54.601586 30.863312 118.099939
v -55.006132 31.553487 118.155675
v -58.830206 28.386086 118.062648
v -59.286685 29.043069 118.100058
v -61.955206 25.754568 117.461233
v -62.470253 26.366717 117.311939
v -65.109490 23.100633 116.564626
v -65.624537 23.712783 116.411017
v -68.263774 20.446699 115.796097
v -68.778821 21.058848 115.638174
v -71.598409 17.706354 114.772068
v -71.752755 18.491324 114.802818
v -76.483828 18.815654 113.672351
v -76.301162 19.594520 113.761042
v -81.200741 19.921902 112.422684
v -81.018075 20.700768 112.399584
v -85.917654 21.028150 110.624920
v -85.734988 21.807016 110.593015
v -90.569185 22.124674 108.848155
v -90.517284 22.922989 108.770600
v -94.904042 21.613451 107.378419
v -94.996552 22.408084 107.253167
v -99.311104 21.100387 105.879813
v -99.403614 21.895020 105.757324
v -103.718166 20.587323 104.790324
v -103.810676 21.381957 104.667999
v -108.125228 20.074260 103.791406
v -108.217738 20.868893 103.657163
v -112.532290 19.561196 102.824750
v -112.624800 20.355829 102.661928
v -116.780782 19.101869 101.899196
v -117.190432 19.789028 101.660426
v -118.863030 15.794861 102.093834
v -119.535425 16.228318 101.847317
v -121.348404 12.182956 102.111213
v -121.477292 12.972505 101.899527
v -126.001727 14.579242 99.952454
v -125.624328 15.284628 99.944618
v -130.401907 16.933447 97.932068
v -130.024508 17.638833 97.928330
v -134.802086 19.287652 95.950010
v -134.424687 19.993038 95.950370
v -139.016796 21.594563 93.904761
v -139.010336 22.394537 93.678592
v -143.240485 19.356258 92.867912
v -143.608229 20.066726 92.579961
v -147.651276 17.073201 91.632833
v -148.019019 17.783669 91.340805
v -152.192155 14.749010 90.459826
v -152.299723 15.541745 90.233071
v -155.538065 16.032007 88.906916
v -155.240832 16.774740 88.831715
v -158.864141 17.437053 87.286020
v -158.201776 17.885687 87.419078
v -159.394249 21.684001 85.790554
v -158.599400 21.774637 86.075806
v -159.858115 25.751950 84.155089
v -159.063266 25.842586 84.450872
v -160.321982 29.819899 82.547130
v -159.527132 29.910536 82.813484
v -160.781675 34.006330 80.914736
v -159.995171 33.860003 81.204104
v -158.847590 37.744565 80.336144
v -158.138599 37.373982 80.786669
v -156.952261 41.370671 80.089983
v -156.243270 41.000089 80.494422
v -155.056932 44.996778 80.006602
v -154.347941 44.626195 80.390021
v -153.161604 48.622884 79.768587
v -152.452612 48.252302 80.130985
v -151.134879 51.731696 79.572997
v -150.688679 52.395703 79.517109
v -154.935462 49.628346 78.867705
v -155.289993 50.345498 78.562130
v -159.136410 47.551568 77.826917
v -159.490941 48.268721 77.546951
v -163.337358 45.474791 76.962850
v -163.691889 46.191944 76.724557
v -167.538306 43.398014 76.138344
v -167.892837 44.115166 75.905400
v -171.739254 41.321236 75.272836
v -172.093785 42.038389 75.045241
v -175.954401 39.237783 74.508418
v -176.280533 39.968288 74.153316
v -179.906390 37.675123 73.875266
v -180.200491 38.419102 73.511395
v -183.842364 36.119199 72.938344
v -184.136465 36.863178 72.576409
v -187.778338 34.563276 71.950736
v -188.072439 35.307255 71.597634
v -191.578304 33.096715 70.944671
v -192.144420 33.661969 70.549920
v -193.575854 28.744262 71.484905
v -194.301244 29.081619 71.089613
v -195.653041 24.277860 71.963138
v -196.378431 24.615217 71.558768
v -197.730229 19.811459 72.374171
v -198.455619 20.148815 71.961587
v -199.807416 15.345057 72.761400
v -200.532806 15.682414 72.337248
v -201.884603 10.878655 73.035906
v -202.609993 11.216012 72.583682
v -203.961791 6.412253 73.152611
v -204.687181 6.749610 72.679821
v -206.104529 1.846751 73.105448
v -206.698817 2.382309 72.639535
v -210.175962 -0.478873 71.294882
v -210.569693 0.217529 70.886420
v -214.147116 -2.724075 69.629497
v -214.540847 -2.027673 69.197816
v -218.118271 -4.969278 68.029644
v -218.512001 -4.272875 67.591048
v -222.089425 -7.214480 66.581587
v -222.483155 -6.518077 66.148787
v -226.060579 -9.459682 65.304648
v -226.454310 -8.763279 64.861077
v -230.031734 -11.704884 64.129800
v -230.425464 -11.008482 63.675457
v -234.002888 -13.950086 63.057043
v -234.396618 -13.253684 62.591928
v -237.974042 -16.195288 62.086376
v -238.367773 -15.498886 61.610489
v -241.945196 -18.440491 62.101755
v -242.338927 -17.744088 61.803344
v -245.777806 -20.555436 63.003016
v -246.448626 -20.119547 62.820160
v -246.201263 -24.993359 64.864728
v -246.996865 -24.909583 64.829583
v -246.687111 -29.607339 66.800295
v -247.482713 -29.523563 66.765151
v -247.172959 -34.221318 68.735863
v -247.968561 -34.137542 68.700719
v -247.658807 -38.835298 70.671431
v -248.454409 -38.751522 70.636287
v -248.144655 -43.449277 71.956807
v -248.940257 -43.365501 71.937454
v -248.630503 -48.063257 73.022635
v -249.426105 -47.979481 73.003283
v -249.116351 -52.677237 74.088463
v -249.911953 -52.593461 74.069111
v -249.602199 -57.291216 75.154291
v -250.000000 -57.207440 75.134939
v -249.708304 -86.424712 73.255848
v -250.000000 -86.972118 73.235046
v -246.572954 -89.766172 73.128871
v -247.156346 -90.313579 73.108069
v -243.437604 -93.107632 73.001894
v -244.020996 -93.655039 72.981092
v -240.302254 -96.449092 72.874917
v -240.885646 -96.996499 72.854115
v -237.166904 -99.790553 73.430596
v -237.750296 -100.337959 73.235682
v -234.031554 -103.132013 73.818859
v -234.614945 -103.679420 73.608848
v -230.917974 -106.451981 74.277323
v -231.457824 -107.042372 74.073697
v -227.247789 -109.334969 75.015228
v -227.742119 -109.963966 74.823663
v -223.554843 -112.237260 75.847318
v -224.049173 -112.866258 75.659484
v -219.861897 -115.139551 76.750746
v -220.356227 -115.768549 76.585332
v -216.168951 -118.041842 77.166660
v -216.663281 -118.670840 77.047424
v -212.476005 -120.944133 77.202883
v -212.970335 -121.573131 76.884479
v -208.783060 -123.846425 76.666855
v -209.277390 -124.475422 76.351493
v -205.090114 -126.748716 76.204245
v -205.584444 -127.377713 75.891925
v -201.455666 -129.612795 75.817934
v -201.833000 -130.318216 75.502972
v -197.438112 -130.843242 75.890086
v -197.673726 -131.607759 75.601263
v -193.349698 -132.103237 75.814171
v -193.585311 -132.867754 75.519336
v -189.261283 -133.363232 75.716359
v -189.496897 -134.127749 75.415513
v -185.172869 -134.623227 75.596652
v -185.408483 -135.387744 75.289794
v -181.084455 -135.883222 75.455049
v -181.320069 -136.647739 75.142179
v -177.010535 -137.139047 74.933514
v -177.217160 -137.911903 74.643606
v -172.350354 -138.218243 74.325612
v -172.530877 -138.997609 74.033148
v -167.677123 -139.300693 73.718952
v -167.857646 -140.080059 73.436068
v -163.003891 -140.383144 73.154038
v -163.184414 -141.162510 72.942629
v -158.330660 -141.465595 72.819248
v -158.511183 -142.244961 72.574794
v -153.657428 -142.548045 72.699159
v -153.837951 -143.327411 72.415326
v -148.984197 -143.630496 72.463484
v -149.164720 -144.409862 72.140273
v -144.329625 -144.709090 72.113640
v -144.472828 -145.496169 71.748056
v -140.155477 -145.236955 71.926532
v -140.255956 -146.030620 71.521124
v -135.959966 -145.768113 72.237883
v -136.060445 -146.561777 71.850059
v -131.764456 -146.299270 72.615625
v -131.864935 -147.092935 72.262367
v -127.568946 -146.830428 73.040387
v -127.669425 -147.624093 72.721695
v -123.373435 -147.361586 73.512169
v -123.473914 -148.155251 73.228044
v -119.163996 -147.894756 73.886101
v -119.292333 -148.684395 73.652586
v -114.258729 -148.842901 73.585493
v -114.410580 -149.628357 73.373271
v -109.365219 -149.788954 73.335380
v -109.517069 -150.574410 73.143046
v -104.471708 -150.735006 73.135035
v -104.623559 -151.520463 72.962588
v -99.578198 -151.681059 73.009589
v -99.730049 -152.466516 72.846668
v -4.656794 92.316113 116.263402
v -1.157856 92.229905 116.836473
v -4.545150 96.847411 115.539097
v -1.046212 96.761203 116.067802
v -4.433507 101.378708 115.071367
v -0.934569 101.292500 115.556669
v -4.321863 105.910006 115.196479
v -0.822925 105.823798 115.697622
v -4.210220 110.441303 115.322602
v -0.711282 110.355095 115.839586
v -4.094182 114.798296 115.446155
v -0.604033 115.060698 115.986752
v -4.856214 119.036180 115.429913
v -1.410191 119.648487 115.987635
v -5.640309 123.449016 115.681362
v -2.194286 124.061323 116.477699
v -6.424404 127.861852 115.925164
v -2.978381 128.474159 116.920685
v -7.208499 132.274688 116.075369
v -3.762476 132.886995 117.270073
v -7.992594 136.687525 116.131976
v -4.546571 137.299831 117.525864
v -8.799080 141.279741 116.181831
v -5.308275 141.533288 117.679821
v -8.562314 144.666335 116.706429
v -5.072266 144.402583 118.082790
v -8.323442 147.823835 117.194422
v -4.838365 147.500972 118.501319
v -7.921590 151.583317 117.807138
v -4.441433 151.211159 119.034542
v -7.522199 155.318151 118.399141
v -4.042041 154.945994 119.554587
v -7.066853 159.342536 119.026342
v -3.698603 158.391277 120.011364
v -5.251216 163.376236 119.995902
v -2.066241 161.925053 120.872340
v -3.487431 167.241610 120.928684
v -0.382027 165.627154 121.771572
v -1.397839 170.787849 121.947753
v 1.616516 169.009180 122.998081
v 0.646229 174.251982 122.998063
v 3.660584 172.473313 124.112202
v 2.690297 177.716115 123.995231
v 5.704652 175.937446 125.001146
v 4.734365 181.180248 124.840386
v 7.748720 179.401579 125.664912
v 6.647573 184.370946 125.651609
v 9.923648 183.139146 126.499535
v 7.386891 188.242002 126.142672
v 10.820736 187.564719 127.010746
v 8.205095 192.390316 126.646037
v 11.638939 191.713033 127.451140
v 9.023298 196.538631 127.118179
v 12.457143 195.861348 127.860310
v 9.826618 200.599989 127.519309
v 13.290231 200.096618 128.241729
v 10.271899 205.132633 127.655280
v 13.754992 204.789029 128.376842
v 10.726920 209.745160 127.792380
v 14.210013 209.401557 128.507577
v 11.181942 214.357688 127.927800
v 14.665035 214.014084 128.636632
v 11.636963 218.970215 128.061542
v 15.120056 218.626611 128.764008
v 12.093014 223.229007 129.006897
v 15.574048 223.592875 129.942141
v 10.780918 227.177461 129.670932
v 14.112168 228.251135 130.910074
v 9.393930 231.480819 130.279550
v 12.725180 232.554493 131.659356
v 7.974129 235.899340 130.770069
v 11.371005 236.742687 132.261416
v 7.345114 239.740896 131.338039
v 10.799981 240.301161 132.846789
v 6.725165 243.624992 131.131307
v 10.219889 243.817095 132.602573
v 6.964154 246.784922 131.231921
v 10.452807 246.503315 132.700630
v 7.220598 249.868671 131.339883
v 10.668270 249.265715 132.791339
v 7.936099 250.000000 131.641106
v 10.654668 248.897800 132.785613
v 248.702514 -93.180699 153.100909
v 250.000000 -90.832058 153.986352
v 245.432638 -89.567872 154.462952
v 248.027610 -87.219230 155.348395
v 242.162762 -85.955044 155.824996
v 244.757734 -83.606402 156.710438
v 239.005972 -82.456188 156.885794
v 241.374771 -79.879602 158.096425
v 237.022091 -81.204720 156.819861
v 238.921145 -78.264721 158.162208
v 235.073061 -79.914112 156.738268
v 236.432668 -76.688980 157.868170
v 231.067615 -78.712860 155.950824
v 232.080803 -75.362718 157.074247
v 226.888959 -77.449102 155.177641
v 227.902147 -74.098961 156.357349
v 222.815673 -76.213659 154.469990
v 223.618122 -72.806890 155.669859
v 218.480825 -75.468817 153.978605
v 219.076037 -72.019800 155.012482
v 214.042359 -74.702851 154.194414
v 214.637571 -71.253833 155.113558
v 209.728389 -73.953793 154.354879
v 210.074608 -70.470959 155.161657
v 205.438507 -73.847389 154.340429
v 205.529113 -70.348562 155.026019
v 201.020818 -73.732989 154.318954
v 201.111423 -70.234162 154.885223
v 196.603129 -73.618589 153.895062
v 196.693734 -70.119762 154.420203
v 192.202284 -73.504544 153.352097
v 192.259202 -70.005007 153.843975
v 187.852538 -73.476263 152.802591
v 187.875360 -69.976338 153.261414
v 183.485744 -73.447788 152.250477
v 183.508567 -69.947863 152.680641
v 179.118951 -73.419313 151.551118
v 179.141773 -69.919388 151.942232
v 174.181860 -73.291365 150.109807
v 175.345277 -69.990386 150.732599
v 171.251055 -70.557873 149.403740
v 173.750302 -68.107614 150.367480
v 168.830499 -68.064820 148.750698
v 171.645080 -65.984403 149.803025
v 166.445547 -63.964020 148.072170
v 169.734611 -62.767334 149.301326
v 165.814493 -59.878926 147.933005
v 169.278044 -59.375130 149.242415
v 165.270682 -56.140277 147.705130
v 168.734234 -55.636481 148.948628
v 164.726871 -52.401628 147.498401
v 168.190423 -51.897832 148.675985
v 164.324181 -49.140680 147.358706
v 167.505492 -47.681482 148.371065
v 162.130689 -46.738781 146.669797
v 164.766770 -44.436374 147.489902
v 159.864465 -44.110263 146.011095
v 162.100780 -41.417885 146.719368
v 156.325632 -41.924987 144.815209
v 158.176132 -38.954187 145.933242
v 152.593891 -39.600500 143.729563
v 154.444391 -36.629700 145.490722
v 148.862151 -37.276013 143.226302
v 150.712650 -34.305214 144.948451
v 145.130410 -34.951526 142.623289
v 146.980910 -31.980727 144.306427
v 141.297295 -32.558870 141.901549
v 143.350543 -29.724409 143.584553
v 137.733864 -29.593839 141.520097
v 139.974850 -26.905348 143.041676
v 134.264302 -26.701792 141.158523
v 136.505288 -24.013301 142.668286
v 130.794739 -23.809745 140.713657
v 133.035725 -21.121255 142.211605
v 127.386953 -20.966873 140.196189
v 129.504387 -18.180034 141.724302
v 124.534648 -19.051930 139.582744
v 126.488002 -16.147725 141.030582
v 121.600303 -17.078304 138.809076
v 123.553657 -14.174099 140.192398
v 118.781388 -15.175978 138.068102
v 120.503881 -12.129173 139.150531
v 114.721872 -13.192133 137.138402
v 116.260743 -10.048588 138.115641
v 110.570545 -11.159917 136.228683
v 112.109416 -8.016373 137.229984
v 106.419218 -9.127702 135.359879
v 107.958090 -5.984157 136.385241
v 102.267891 -7.095487 134.531990
v 103.806763 -3.951942 135.581414
v 98.116564 -5.063271 133.921900
v 99.655436 -1.919727 134.850131
v 93.965237 -3.031056 133.557434
v 95.504109 0.112489 134.506710
v 89.813910 -0.998841 133.222493
v 91.352782 2.144704 134.198659
v 85.662583 1.033374 132.885810
v 87.201455 4.176919 133.812150
v 81.511256 3.065590 132.466983
v 83.050128 6.209135 133.347184
v 77.359929 5.097805 131.850889
v 78.898801 8.241350 132.767444
v 73.208795 7.129926 131.141151
v 74.747282 10.273659 132.049455
v 69.117040 9.131729 130.427746
v 70.655137 12.275653 131.327909
v 65.025090 11.133627 129.700792
v 66.563186 14.277551 130.592883
v 60.933139 13.135525 128.960324
v 62.471236 16.279449 129.844343
v 56.689892 15.220941 128.097031
v 58.530583 18.197828 129.085827
v 53.481383 17.746951 127.606881
v 55.654343 20.490715 128.729062
v 50.439008 20.156399 127.186904
v 52.611968 22.900164 128.510336
v 47.194979 22.753158 126.783750
v 49.771248 25.122302 128.119231
v 44.235814 26.890218 126.479469
v 47.088023 28.918740 127.911101
v 41.414619 30.856966 125.880668
v 44.266828 32.885488 127.388621
v 38.593424 34.823715 125.194811
v 41.445633 36.852237 126.560623
v 35.772229 38.790463 124.691059
v 38.624439 40.818985 125.939195
v 32.951034 42.757211 124.641776
v 35.803244 44.785734 126.144839
v 30.266504 46.555071 124.638618
v 32.845384 48.921371 126.166479
v 26.786389 49.476535 123.985419
v 29.045026 52.150214 125.447794
v 23.146152 52.551689 123.135309
v 25.404789 55.225368 124.575873
v 19.337856 55.789241 122.047416
v 21.932612 58.138122 123.577530
v 16.662409 59.716905 121.366225
v 19.562284 61.676681 123.192662
v 14.139521 63.450017 121.089004
v 17.039397 65.409793 122.936120
v 11.616634 67.183129 120.882518
v 14.516509 69.142904 122.717724
v 9.093746 70.916240 120.714180
v 11.993622 72.876016 122.537475
v 6.570858 74.649352 120.583987
v 9.470734 76.609127 122.395372
v 4.047971 78.382463 120.491941
v 6.947847 80.342239 122.172520
v 1.525083 82.115575 119.515506
v 4.424959 84.075351 120.641702
v -1.014452 85.873782 117.963193
v 1.918719 87.783366 118.853881
v -2.716893 88.631829 117.195100
v 0.261702 90.469755 117.485076
v -4.417195 91.388254 116.453915
v -1.397455 93.157765 116.638057
v -6.346669 94.825888 115.595462
v -3.294432 96.538736 115.774371
v -8.259896 98.235191 114.780821
v -5.207659 99.948040 114.939769
v -10.173122 101.644494 114.276257
v -7.120885 103.357343 114.739103
v -12.144836 105.167577 114.058539
v -8.975623 106.652867 114.541264
v -13.860694 109.509871 113.876457
v -10.604665 110.793721 114.379722
v -15.533144 113.751445 113.684761
v -12.277115 115.035295 114.199687
v -17.205594 117.993019 113.478882
v -13.949564 119.276869 114.005469
v -18.878044 122.234593 113.065630
v -15.622014 123.518444 113.636380
v -20.550494 126.476168 112.160934
v -17.294464 127.760018 113.057521
v -22.222944 130.717742 111.010303
v -18.966914 132.001592 112.286770
v -23.895394 134.959316 110.101934
v -20.639364 136.243166 111.319998
v -25.567844 139.200890 109.435825
v -22.311814 140.484741 110.569081
v -27.240294 143.442464 109.489403
v -23.984264 144.726315 110.790757
v -28.841216 147.526060 109.640678
v -25.728241 149.125868 110.977785
v -31.165948 151.082314 109.419091
v -28.232260 152.991102 110.764094
v -33.580324 154.793059 109.145237
v -30.646635 156.701847 110.506877
v -35.994699 158.503804 108.823898
v -33.061011 160.412592 110.186920
v -38.409074 162.214548 108.437155
v -35.475386 164.123336 109.751302
v -40.823450 165.925293 108.113347
v -37.889761 167.834081 109.364958
v -43.237825 169.636037 107.913065
v -40.304137 171.544825 109.042729
v -45.652200 173.346782 107.742344
v -42.718512 175.255570 108.861651
v -48.151175 177.202277 107.598990
v -45.048288 178.821564 108.712804
v -49.173719 180.120011 107.721585
v -45.863369 181.256489 108.541796
v -50.169589 183.115849 107.086731
v -46.705122 183.613311 108.071848
v -50.322378 187.981735 106.457010
v -46.823857 188.083483 107.598719
v -50.458139 192.649764 105.847901
v -46.959618 192.751512 107.093222
v -50.593901 197.317792 105.230744
v -47.095380 197.419541 106.579677
v -50.710989 201.776756 105.072528
v -47.249815 202.296635 106.502834
v -51.603104 204.173737 105.019057
v -48.307472 205.352216 106.422738
v -52.496129 206.708051 105.002617
v -49.364219 208.270465 106.356705
v -54.878771 210.722187 104.673854
v -51.867300 212.505735 105.973428
v -57.247374 214.732000 104.436694
v -54.384419 216.745328 105.683130
v -59.940614 217.922255 104.048444
v -57.262651 220.175810 105.279107
v -62.726350 221.232624 103.787981
v -60.048387 223.486179 105.358544
v -65.512086 224.542993 103.690102
v -62.834123 226.796548 105.274118
v -68.297822 227.853362 103.496318
v -65.619859 230.106917 105.093788
v -71.178475 231.287296 103.197551
v -68.310678 233.293721 104.825900
v -73.350560 235.075972 103.167008
v -70.311252 236.811659 104.838721
v -75.514024 238.881045 103.058045
v -72.320447 240.313199 104.700555
v -76.691380 242.532525 102.770797
v -73.357171 243.596972 104.242843
v -77.798420 246.000151 102.282042
v -74.464210 247.064597 103.754088
v -78.905460 249.467777 101.793286
v -75.571250 250.000000 103.265332
v -250.000000 168.343287 19.133132
v -248.205730 164.861566 20.074943
v -248.357779 171.885210 18.175035
v -244.769238 168.403490 19.116846
v -244.921287 175.427134 17.216939
v -241.332747 171.945414 18.158750
v -241.484796 178.969058 16.258842
v -237.896255 175.487338 18.590520
v -238.048305 182.510982 15.890321
v -234.459764 179.029262 19.712939
v -234.611813 186.052906 16.283853
v -231.023273 182.571185 20.279116
v -231.289614 189.468710 16.777661
v -227.472488 186.239229 20.806322
v -228.935586 192.758827 16.781750
v -224.874872 189.841533 20.853659
v -226.459763 196.205037 16.871523
v -222.399049 193.287743 20.975426
v -224.096190 199.480714 17.038871
v -219.810978 196.904485 21.266741
v -222.363366 203.018088 17.770147
v -217.878053 200.808571 22.152733
v -220.530492 206.738818 18.719410
v -216.045179 204.529301 23.745999
v -218.820971 210.162253 19.994526
v -214.088951 208.547326 25.207264
v -218.073887 213.937739 20.306119
v -213.174235 212.941039 25.309662
v -217.270511 217.859748 20.563392
v -212.315810 217.188230 25.267545
v -216.911145 222.527143 20.287215
v -211.926235 222.138980 24.496868
v -216.536674 227.336216 19.970099
v -211.551764 226.948053 23.590029
v -216.132582 232.380681 19.548236
v -211.206914 231.521732 22.638068
v -214.958135 236.350522 19.559236
v -210.169683 234.911520 22.287777
v -213.737123 240.338411 19.421295
v -209.179015 238.283259 21.748825
v -211.436148 244.169814 20.325591
v -207.160364 241.577966 22.005997
v -209.276335 247.732869 21.174409
v -205.000551 245.141021 22.854815
v -207.116522 250.000000 22.023227
v -202.840738 248.704076 23.703633
v 58.578033 12.805026 128.257032
v 58.279584 12.171838 128.071257
v 62.277254 11.061423 128.985649
v 61.978805 10.428234 128.811295
v 65.976476 9.317820 129.657750
v 65.678026 8.684631 129.481892
v 69.675697 7.574216 130.319209
v 69.377248 6.941027 130.141849
v 73.374946 5.830600 130.970032
v 73.076442 5.197437 130.791160
v 77.722196 3.780704 131.721118
v 77.423646 3.147562 131.540472
v 82.069424 1.730818 132.337717
v 81.770873 1.097677 132.168297
v 86.416651 -0.319067 132.749344
v 86.118101 -0.952208 132.552050
v 90.763878 -2.368953 133.099987
v 90.465328 -3.002094 132.906438
v 95.111106 -4.418838 133.481816
v 94.812555 -5.051979 133.292013
v 99.458333 -6.468723 133.894833
v 99.159783 -7.101864 133.708775
v 103.811220 -8.521340 134.706451
v 103.501350 -9.149019 134.494619
v 107.654072 -10.514774 135.471266
v 107.331732 -11.136141 135.261201
v 111.490689 -12.505051 136.271889
v 111.168350 -13.126419 136.066049
v 115.327306 -14.495329 137.109545
v 115.004967 -15.116696 136.907930
v 119.193194 -16.502637 137.990765
v 118.812313 -17.089944 137.780286
v 122.649763 -19.244042 138.828056
v 122.214589 -19.792333 138.562959
v 126.079185 -21.965939 139.485663
v 125.644011 -22.514230 139.201358
v 129.508607 -24.687836 140.042079
v 129.073433 -25.236127 139.754886
v 132.938029 -27.409733 140.521011
v 132.502856 -27.958024 140.230931
v 136.367451 -30.131629 140.922460
v 135.932278 -30.679921 140.629491
v 139.796873 -32.853526 141.246424
v 139.361700 -33.401818 140.950567
v 143.205621 -35.560216 141.711209
v 142.811797 -36.138923 141.386063
v 147.197269 -37.889544 142.418490
v 146.844352 -38.494068 142.091304
v 151.209371 -40.231780 143.093387
v 150.856454 -40.836304 142.942516
v 155.221473 -42.574017 144.404093
v 154.868556 -43.178541 144.257578
v 159.310390 -44.976952 145.792203
v 158.803842 -45.460078 145.597609
v 161.705241 -49.369989 146.501839
v 161.089818 -49.703537 146.295010
v 164.065888 -53.732733 147.270547
v 163.409998 -53.977290 147.040000
v 164.658267 -57.298907 147.485745
v 163.967521 -57.412357 147.231081
v 165.184180 -60.670012 147.681039
v 164.591510 -61.042492 147.451823
v 168.305965 -63.090189 148.768590
v 167.874194 -63.641164 148.592702
v -157.249884 -48.078993 94.252938
v -158.135004 -49.646335 94.062613
v -153.199398 -50.366412 94.309890
v -154.084518 -51.933754 94.139995
v -149.148912 -52.653831 94.454398
v -150.034032 -54.221173 94.304933
v -145.098426 -54.941250 94.686463
v -145.983546 -56.508592 94.557428
v -141.047940 -57.228669 95.006084
v -141.933060 -58.796011 94.897480
v -136.997454 -59.516088 95.143964
v -137.882574 -61.083430 94.931235
v -132.946968 -61.803507 94.879730
v -133.832088 -63.370849 94.620596
v -128.896481 -64.090926 94.598919
v -129.781602 -65.658269 94.348864
v -124.845995 -66.378345 94.357015
v -125.731116 -67.945688 94.116038
v -120.795509 -68.665765 94.154017
v -121.680630 -70.233107 93.922118
v -116.745023 -70.953184 94.632003
v -117.630144 -72.520526 94.218057
v -112.694537 -73.240603 95.231465
v -113.579658 -74.807945 94.807358
v -108.644051 -75.528022 95.787383
v -109.529172 -77.095364 95.353116
v -104.593565 -77.815441 96.299758
v -105.478686 -79.382783 95.855330
v -100.831792 -79.999778 96.726206
v -101.139487 -81.773284 96.139631
v -97.947841 -79.014159 96.393673
v -97.420379 -80.735143 95.814231
v -94.646311 -78.002279 95.494557
v -94.118850 -79.723263 94.989145
v -91.771446 -77.273523 94.697463
v -90.390656 -78.428260 94.011622
v -90.455209 -72.869665 95.167591
v -88.738408 -73.410585 94.517694
v -88.970966 -68.158899 95.686218
v -87.254165 -68.699819 95.058176
v -87.486723 -63.448133 96.246800
v -85.769922 -63.989053 95.640612
v -86.002480 -58.737366 96.972632
v -84.285679 -59.278287 96.331730
v -84.518237 -54.026600 98.050311
v -82.801436 -54.567521 97.409227
v -82.904729 -49.058695 99.173203
v -81.446458 -50.113894 98.440817
v -78.670176 -45.943508 99.154077
v -77.616075 -47.402573 98.513872
v -74.637708 -43.030253 99.539946
v -73.583607 -44.489319 98.884270
v -70.605239 -40.116999 100.055043
v -69.551138 -41.576065 99.383897
v -66.572771 -37.203745 100.997221
v -65.518670 -38.662811 100.165475
v -62.540303 -34.290491 102.249155
v -61.486202 -35.749557 101.381406
v -58.578459 -31.433877 103.418195
v -57.383109 -32.779663 102.343739
v -55.532717 -28.067159 104.529176
v -54.199282 -29.276270 103.494664
v -52.417932 -24.632103 105.581933
v -51.084497 -25.841215 104.544386
v -49.303148 -21.197048 106.554978
v -47.969712 -22.406159 105.514399
v -46.188363 -17.761993 106.910567
v -44.854928 -18.971104 106.170066
v -43.073578 -14.326937 107.060942
v -41.740143 -15.536049 106.324879
v -39.958794 -10.891882 107.331497
v -38.625358 -12.100993 106.715382
v -36.844009 -7.456827 107.982359
v -35.510573 -8.665938 107.370539
v -33.729224 -4.021771 108.746099
v -32.395789 -5.230883 108.138574
v -30.461189 -0.452115 109.655968
v -29.434255 -1.930428 108.986485
v -26.580236 0.932062 109.566313
v -25.989252 -0.768155 109.044077
v -22.917258 2.205288 109.348321
v -22.326274 0.505071 109.031255
v -18.977562 3.528209 109.290373
v -18.940015 1.728600 109.063570
v -14.209839 2.400807 109.676775
v -14.634795 0.651690 109.446189
v -9.673368 1.298651 110.096544
v -10.098324 -0.450467 109.805443
v -5.137954 0.196751 110.570697
v -5.560796 -1.552879 110.121465
v -1.948934 -0.568150 110.841359
v -2.368765 -2.318505 110.419878
v 1.522893 -1.454465 111.230320
v 0.540459 -2.962716 110.770266
v 3.861218 -4.347267 111.157129
v 2.447013 -5.460831 110.685498
v 5.983658 -7.042726 111.076930
v 4.569453 -8.156289 110.605444
v 8.106098 -9.738184 110.995585
v 6.691893 -10.851748 110.524244
v 134.875499 249.353487 181.700743
v 133.623267 250.000000 181.532314
v 132.372423 246.929381 181.364072
v 131.120191 248.222407 181.195642
v 129.939965 244.582086 181.036898
v 128.546496 245.721491 180.849472
v 127.731669 241.251229 180.739875
v 126.232527 242.247508 180.538236
v 125.470537 237.848809 180.548125
v 123.971394 238.845088 180.273793
v 123.209527 234.446573 180.272015
v 121.710139 235.442484 179.963680
v 120.717085 230.692279 179.755034
v 119.217476 231.687855 179.329016
v 118.224533 226.937817 178.993556
v 116.724924 227.933393 178.530074
v 115.731981 223.183355 178.305138
v 114.232372 224.178932 177.864011
v 113.289205 219.513559 177.856194
v 111.690043 220.339804 177.321978
v 111.944943 215.856806 178.310624
v 110.256566 216.480812 177.680080
v 110.556073 212.098934 178.660362
v 108.867696 212.722940 177.968464
v 109.167203 208.341061 178.893190
v 107.478827 208.965067 178.139939
v 107.778334 204.583189 179.009109
v 106.089957 205.207195 178.194504
v 106.437527 201.019472 179.000002
v 104.653024 201.255167 178.136732
v 106.801030 197.179831 178.584422
v 105.008116 197.020270 177.699207
v 107.067871 193.467235 177.720795
v 105.459868 192.658330 176.765704
v 109.797527 191.210343 178.365748
v 108.623712 189.845733 177.461311
v 112.744276 188.675598 179.002334
v 111.570462 187.310988 178.095465
v 115.716721 186.117881 179.609032
v 114.491517 184.799217 178.690056
v 119.028089 182.837414 180.116423
v 117.761150 181.558796 179.190191
v 122.318589 179.576971 180.804141
v 121.051649 178.298353 179.516219
v 125.609089 176.316528 181.193325
v 124.342149 175.037909 179.905538
v 128.899588 173.056084 181.620593
v 127.632649 171.777466 180.332942
v 132.190088 169.795641 182.085945
v 130.923149 168.517022 180.798430
v 135.480588 166.535197 182.589381
v 134.213649 165.256579 181.302002
v 138.771088 163.274754 183.130901
v 137.504149 161.996136 181.843658
v 142.061588 160.014311 183.950259
v 140.794649 158.735692 182.977100
v 145.352088 156.753867 186.083888
v 144.085149 155.475249 185.115324
v 148.779024 153.320210 188.268998
v 147.239213 152.388019 187.132589
v 150.172795 148.788195 188.928018
v 148.449177 148.269406 187.702187
v 151.474663 144.462881 189.517280
v 149.751046 143.944092 188.303147
v 152.813750 139.920005 190.106033
v 151.015695 139.836340 188.894806
v 151.900824 135.297465 189.718857
v 150.136989 135.656473 188.511719
v 151.005008 130.896261 189.335468
v 149.241174 131.255270 188.131306
v 150.109193 126.495058 188.955233
v 148.345358 126.854067 187.754045
v 149.213377 122.093855 188.578149
v 147.449542 122.452864 187.379937
v 148.325612 117.738153 187.967612
v 146.545676 118.006159 186.835619
v 147.913869 113.463865 187.490505
v 146.122214 113.636990 186.438264
v 147.496267 109.142137 187.050082
v 145.704612 109.315262 186.089316
v 147.074832 105.026744 186.659063
v 145.290842 104.787199 185.781449
v 148.618840 100.807139 187.168851
v 146.925674 100.196247 186.402074
v 150.160299 96.511388 186.830421
v 148.563056 95.681441 185.952068
v 151.755462 94.731631 186.987112
v 150.402095 93.544872 186.115713
v 153.472564 92.773468 187.111778
v 152.119197 91.586709 186.243440
v 113.072937 219.241301 177.863440
v 111.906311 220.612062 177.365110
v 110.026959 216.648934 177.579684
v 108.860334 218.019695 176.987514
v 106.980982 214.056567 177.119053
v 105.814356 215.427328 176.539774
v 104.133777 211.704224 176.519204
v 102.569606 212.594937 175.876345
v 103.153067 207.301391 176.711878
v 101.399450 207.707380 175.977727
v 102.077635 202.656196 176.792084
v 100.324017 203.062185 175.971590
v 101.023789 198.160278 176.113996
v 99.226998 198.267714 175.239203
v 101.563304 194.108950 175.341479
v 99.778145 193.878282 174.447611
v 102.108636 189.888569 174.518347
v 100.323477 189.657902 173.650952
v 102.653967 185.668189 173.684512
v 100.868808 185.437522 172.834342
v 103.149771 181.647536 172.869880
v 101.463667 181.017414 171.977880
v 105.514157 178.022514 172.695810
v 104.001792 177.046424 171.686206
v 107.965413 174.224507 172.210939
v 106.453048 173.248418 171.216750
v 110.416669 170.426501 171.640418
v 108.904303 169.450412 170.661645
v 112.919151 166.538056 170.964946
v 111.304332 165.742845 170.039751
v 114.487767 162.159569 169.661913
v 112.792457 161.554652 168.816027
v 116.016137 157.876229 169.239582
v 114.320827 157.271313 168.684319
v 117.544508 153.592890 169.686539
v 115.849197 152.987973 169.161377
v 119.125057 149.024354 170.080514
v 117.325388 148.989830 169.564743
v 117.721705 144.378295 169.615095
v 116.003634 144.915169 169.163976
v 116.359152 140.017935 169.223559
v 114.641081 140.554809 168.804550
v 114.996598 135.657575 169.507616
v 113.278528 136.194449 168.957373
v 113.634045 131.297216 169.693256
v 111.915974 131.834089 169.085384
v 112.271492 126.936856 169.777596
v 110.553421 127.473729 169.112096
v 109.906918 121.956363 169.428867
v 110.192888 123.733502 169.363182
v 108.296160 127.401413 168.327533
v 110.066426 127.727233 168.916203
v 107.427550 132.120803 167.657822
v 109.197816 132.446623 168.177681
v 106.558939 136.840194 167.058005
v 108.329205 137.166014 167.509053
v 105.690329 141.559584 166.557775
v 107.460595 141.885404 166.990525
v 104.821719 146.278975 166.115200
v 106.591985 146.604795 166.586289
v 103.953108 150.998365 165.633680
v 105.723374 151.324185 166.143110
v 103.229438 155.368694 165.178585
v 104.709824 156.392637 165.597848
v 99.412311 157.564799 163.870395
v 100.338212 159.108400 164.005858
v 95.317941 160.020733 162.813606
v 96.243842 161.564334 163.526402
v 91.228028 162.474011 162.624163
v 92.145016 164.022924 163.301411
v 87.241020 164.802434 162.256916
v 88.148769 166.356780 162.898208
v 83.249392 167.133573 161.728832
v 84.157141 168.687919 162.334863
v 79.257764 169.464713 160.939084
v 80.165513 171.019058 161.611009
v 75.170124 171.860548 159.571960
v 76.269899 173.285502 160.314196
v 72.126386 174.970548 158.727251
v 73.415388 176.226922 159.525105
v 69.177262 177.996258 157.848848
v 70.466263 179.252632 158.647371
v 66.268884 180.982712 156.817169
v 67.476393 182.317599 157.445716
v 63.625293 183.019740 155.611252
v 64.725125 184.444650 156.185931
v 62.094849 185.159082 154.914345
v 60.860709 186.469386 154.328211
v 62.194470 180.985259 154.877256
v 60.395775 181.053781 154.021777
v 62.011814 176.190545 154.279621
v 60.213119 176.259067 153.461620
v 61.829158 171.395832 153.580692
v 60.030463 171.464354 152.792186
v 61.646502 166.601118 152.887761
v 59.847807 166.669640 152.112483
v 61.463846 161.806404 152.200829
v 59.665150 161.874926 151.458603
v 61.281190 157.011691 151.842004
v 59.482494 157.080212 151.104024
v 61.098533 152.216977 151.675252
v 59.299838 152.285499 150.930533
v 60.915877 147.422263 151.503859
v 59.117182 147.490785 150.760545
v 60.733221 142.627549 151.327825
v 58.934526 142.696071 150.594061
v 60.550572 137.901184 151.136174
v 58.751863 137.833009 150.407607
v 61.082553 133.404932 151.264014
v 59.294890 133.194553 150.481440
v 61.620057 128.837577 151.397541
v 59.832394 128.627198 150.565968
v 62.157561 124.270223 151.536102
v 60.369898 124.059844 150.684724
v 62.695065 119.702869 151.673740
v 60.907402 119.492490 150.812431
v 63.232569 115.135514 151.723488
v 61.444906 114.925135 150.876470
v 63.770073 110.568160 151.764521
v 61.982410 110.357781 150.931795
v 64.307577 106.000806 151.796840
v 62.519914 105.790426 150.978405
v 64.845081 101.433451 151.820444
v 63.057418 101.223072 151.016300
v 65.382585 96.866097 151.257110
v 63.594922 96.655718 150.461770
v 122.502803 235.843502 180.106617
v 122.416863 234.045555 180.119253
v 127.154090 235.621174 180.978850
v 127.068150 233.823227 181.090981
v 131.805377 235.398846 181.875745
v 131.719437 233.600899 182.087373
v 136.456664 235.176518 182.797304
v 136.370724 233.378571 183.108428
v 141.107951 234.954190 183.731976
v 141.022010 233.156243 184.136602
v 145.652731 234.730643 184.630088
v 145.779804 232.935134 185.143459
v 149.722252 235.562648 185.133585
v 150.079614 233.798479 185.740842
v 153.906917 236.410323 185.596267
v 154.264279 234.646154 186.261400
v 158.091582 237.257997 186.000952
v 158.448944 235.493828 186.723960
v 162.276247 238.105672 186.408289
v 162.633609 236.341503 187.146308
v 166.460912 238.953347 186.870231
v 166.818274 237.189178 187.586301
v 170.685785 239.808220 187.359261
v 170.962731 238.029653 188.043410
v 174.764074 240.246159 188.069979
v 174.955811 238.456400 188.635492
v 178.799759 240.678501 188.840809
v 178.991496 238.888743 189.244282
v 182.835444 241.110844 189.570501
v 183.027181 239.321085 189.820848
v 186.871129 241.543187 190.282781
v 187.062866 239.753428 190.392592
v 190.969380 241.980034 191.006103
v 191.035986 240.181266 191.017859
v 195.149944 241.849808 191.743953
v 195.092989 240.050710 191.733901
v 199.268727 241.719418 192.470900
v 199.211772 239.920319 192.482808
v 203.387510 241.589027 192.406875
v 203.330555 239.789928 192.468592
v 207.558672 241.455447 192.169116
v 207.396960 239.662726 192.274197
v 212.082913 240.804920 191.911231
v 211.826236 239.023314 192.209737
v 216.559671 240.159950 191.656052
v 216.302994 238.378345 192.152545
v 221.036429 239.514981 191.498979
v 220.779752 237.733375 192.061984
v 225.513187 238.870011 191.222252
v 225.256510 237.088406 191.770610
v 230.252328 238.145002 190.929471
v 229.470884 236.523476 191.474391
v 232.983047 235.244213 191.445586
v 231.652410 234.032024 191.934706
v 235.622854 232.240654 191.970738
v 233.924849 231.643343 192.335425
v 235.542634 227.997530 193.140047
v 233.743636 228.057605 193.349206
v 235.269659 223.626734 194.371325
v 233.755179 224.599540 194.304631
v 231.065591 220.960570 195.684610
v 230.129435 222.497975 195.378592
v 227.150685 218.576706 197.081348
v 226.214529 220.114110 196.603652
v 223.235779 216.192842 198.173663
v 222.299623 217.730246 197.793366
v 219.320873 213.808977 198.767002
v 218.384717 215.346381 198.472721
v 215.405967 211.425113 199.252603
v 214.469811 212.962517 198.969684
v 211.491061 209.041248 199.682205
v 210.554905 210.578653 199.410648
v 207.576155 206.657384 200.055808
v 206.639999 208.194788 199.795613
v 203.661249 204.273519 200.373412
v 202.725093 205.810924 200.124579
v 199.874361 201.984065 200.622513
v 198.682169 203.332649 200.368599
v 197.225039 198.584651 201.172485
v 195.809085 199.695991 200.826932
v 194.463836 195.066615 201.832516
v 193.047883 196.177955 201.466257
v 191.702633 191.548579 202.282234
v 190.286680 192.659919 201.895270
v 188.941430 188.030544 202.521641
v 187.525477 189.141883 202.113971
v 186.105547 184.428696 202.547030
v 184.838955 185.707659 202.126316
v 182.423192 181.575025 202.069975
v 181.322668 182.999401 201.685543
v 178.823871 178.794060 201.753164
v 177.723347 180.218436 201.244886
v 175.224550 176.013095 201.672474
v 174.124026 177.437471 201.166666
v 171.625229 173.232130 201.207915
v 170.524705 174.656506 200.741728
v 168.293851 170.788466 200.427267
v 166.657440 171.538240 199.861873
v 169.308997 168.511458 200.956577
v 167.601490 167.941880 200.349231
v 169.795902 166.114384 201.365668
v 169.073780 164.465585 201.196454
v 174.061715 166.630236 203.063014
v 174.230684 164.838185 203.454530
v 178.773074 167.074462 204.873074
v 178.942043 165.282410 205.425047
v 183.484432 167.518688 206.155679
v 183.653402 165.726636 206.726118
v 188.195791 167.962914 207.267457
v 188.364761 166.170862 207.844589
v 192.907150 168.407140 208.375886
v 193.076119 166.615088 208.959712
v 197.618509 168.851366 209.480968
v 197.787478 167.059314 210.071487
v 202.756002 169.232197 210.867303
v 202.072703 167.566934 211.167886
v 205.706672 165.506431 212.994884
v 204.266162 164.427111 212.865671
v 208.351012 161.960469 215.009931
v 206.765952 161.107483 214.754370
v 210.112917 157.323105 216.607981
v 208.429262 156.686470 216.099574
v 211.825524 152.793917 217.860679
v 210.141869 152.157282 217.322700
v 213.538132 148.264729 219.183578
v 211.854476 147.628094 218.616025
v 215.250739 143.735541 220.576677
v 213.567083 143.098906 219.979552
v 216.963346 139.206353 221.873089
v 215.279691 138.569718 221.143221
v 218.675953 134.677165 222.337957
v 216.992298 134.040530 221.661843
v 220.388561 130.147977 222.663879
v 218.704905 129.511342 222.052865
v 222.101168 125.618789 222.885156
v 220.417512 124.982154 222.318061
v 223.813775 121.089601 223.079281
v 222.130120 120.452966 222.523624
v 225.526382 116.560413 223.400991
v 223.842727 115.923778 222.960560
v 227.238989 112.031225 223.595133
v 225.555334 111.394590 223.237700
v 228.951597 107.502037 223.592257
v 227.267941 106.865402 223.317820
v -31.394473 -250.000000 56.563594
v -29.864095 -249.526201 56.724282
v -32.969210 -247.930586 56.398249
v -31.438832 -246.982988 56.558937
v -34.598385 -245.285343 56.227187
v -32.959131 -244.541806 56.399307
v -35.784999 -241.728659 56.102594
v -34.076767 -241.161258 56.281957
v -36.937124 -238.260042 56.103483
v -35.228892 -237.692641 56.398557
v -39.178720 -88.953312 88.181644
v -40.962507 -88.712268 87.710694
v -39.824106 -93.729334 87.159397
v -41.607894 -93.488290 86.945128
v -40.469493 -98.505356 86.304920
v -42.253280 -98.264312 86.170932
v -41.114879 -103.281378 86.056771
v -42.898667 -103.040334 85.850152
v -41.760266 -108.057400 86.016620
v -43.544053 -107.816356 85.763582
v -42.472589 -113.072686 85.931745
v -44.122503 -112.353114 85.655409
v -45.540348 -116.711681 85.360035
v -46.906882 -115.540108 85.125052
v -48.466417 -120.124675 84.706624
v -49.832951 -118.953102 84.459165
v -51.392486 -123.537670 84.022692
v -52.759021 -122.366096 83.722488
v -54.270228 -126.889061 83.114618
v -55.733418 -125.840694 82.763976
v -56.437953 -130.579183 82.181588
v -57.989202 -129.666151 81.751040
v -58.649708 -134.336973 81.030873
v -60.200957 -133.423941 80.606324
v -60.861463 -138.094762 79.928818
v -62.412712 -137.181730 79.841400
v -63.073218 -141.852552 79.218586
v -64.624466 -140.939520 79.044593
v 8.031877 -13.257336 110.345134
v 7.220217 -14.863950 109.900019
v 12.346142 -15.436899 110.772755
v 11.534482 -17.043513 110.327123
v 16.660406 -17.616461 111.198493
v 15.848746 -19.223075 110.752344
v 20.974670 -19.796024 111.630309
v 20.163010 -21.402638 111.367136
v 25.288934 -21.975586 112.328609
v 24.477274 -23.582200 112.080985
v 29.586869 -24.147106 113.007207
v 28.807868 -25.769806 112.752161
v 34.091686 -26.201465 113.688082
v 33.344761 -27.839178 113.423894
v 38.612542 -28.263331 114.326706
v 37.865616 -29.901044 114.048446
v 43.317380 -30.437474 114.959013
v 42.202488 -31.850632 114.614682
v 45.675122 -33.856847 114.975050
v 44.182809 -34.863327 114.618726
v 47.902736 -37.173140 114.916703
v 46.293256 -37.979101 114.578984
v 48.620665 -39.762549 114.686272
v 46.882912 -40.231818 114.470536
v 49.285712 -42.606313 115.371014
v 47.525449 -42.230181 115.029367
v 46.931821 -47.499127 116.176484
v 45.631739 -46.254222 115.686930
v 42.350061 -49.977399 116.015092
v 41.507611 -48.386715 115.527872
v 37.997116 -52.282782 115.845783
v 37.154667 -50.692097 115.376979
v 33.718666 -54.543996 115.723538
v 32.727229 -53.041647 115.250699
v 30.498456 -57.229749 115.853864
v 29.347367 -55.845916 115.383514
v 27.360025 -59.799188 115.976851
v 25.885726 -58.766501 115.538189
v 26.765869 -62.505982 115.672811
v 25.016767 -62.080965 115.460530
v 26.035118 -65.094942 115.286225
v 24.284402 -65.513264 114.967942
v 28.138956 -68.080162 115.308041
v 26.651144 -69.093283 114.958391
v 30.156019 -71.138821 115.341225
v 29.104661 -72.599864 115.016234
v 33.764312 -72.125714 115.872431
v 33.265186 -73.855128 115.632975
v 37.551704 -73.224523 116.445459
v 37.246611 -74.998479 116.253586
v 41.471455 -73.451274 117.067114
v 41.364961 -75.248121 116.917106
v 45.490506 -73.689471 117.606834
v 45.384012 -75.486318 117.431998
v 49.509556 -73.927668 118.139948
v 49.403063 -75.724515 117.940286
v 53.421565 -74.165897 118.651775
v 53.529155 -75.962679 118.455986
v 57.458253 -73.451181 119.298747
v 57.769545 -75.224059 119.108523
v 61.596792 -72.724513 120.007432
v 61.908084 -74.497391 119.812299
v 65.735331 -71.997845 120.759601
v 66.046623 -73.770723 120.570691
v 69.873870 -71.271177 121.506504
v 70.185162 -73.044055 121.323819
v 74.110436 -70.532794 122.264948
v 74.225673 -72.329101 122.054727
v 78.167975 -70.739782 122.873216
v 78.073570 -72.537304 122.636128
v 82.246155 -70.962857 123.717319
v 81.900825 -72.729420 123.411391
v 86.870288 -72.438150 124.739724
v 86.321006 -74.152294 124.386091
v 91.392444 -73.887234 125.736819
v 90.843163 -75.601378 125.382142
v 95.756000 -75.300902 126.695163
v 95.523920 -77.085878 126.412969
v 100.213706 -75.064114 127.905408
v 100.546632 -76.833057 127.815023
v 103.963905 -73.871918 129.390005
v 105.239933 -75.141466 129.744884
v 104.315133 -70.946534 129.770201
v 106.087845 -71.258770 130.334725
v 104.906350 -67.601168 130.240071
v 106.695768 -67.796055 130.767036
v 105.177897 -63.016776 130.686750
v 106.974723 -63.123633 131.149759
v 105.453148 -58.388368 130.845313
v 107.249973 -58.495225 131.285847
v 105.735780 -53.686646 130.491030
v 107.517843 -53.940131 130.966865
v 106.639670 -50.060101 130.406358
v 108.385666 -50.497704 130.907381
v 107.525527 -46.525614 130.345228
v 109.271523 -46.963218 130.864612
v 108.384849 -43.238931 130.316475
v 110.183914 -43.180928 130.830605
v 107.308500 -39.869015 129.757145
v 109.028061 -39.336931 130.375447
v 106.251836 -36.407659 130.111996
v 107.852523 -35.584373 130.757387
v 103.761173 -32.979753 130.012375
v 105.219924 -31.925217 130.662586
v 101.119122 -29.301676 129.893090
v 102.738713 -28.516232 130.545418
v 100.272838 -25.767154 130.290358
v 102.025889 -25.358728 130.919455
v 99.619461 -22.713896 130.690184
v 101.120159 -21.719961 131.317160
v 96.525892 -20.146696 130.496588
v 97.687764 -18.771904 131.028928
v 93.262910 -17.389068 130.370291
v 94.424781 -16.014275 130.907435
v 89.999927 -14.631439 130.278046
v 91.161799 -13.256647 130.817433
v 86.736945 -11.873811 130.217292
v 87.898817 -10.499018 130.758922
v 83.404438 -9.050800 130.189272
v 84.705360 -7.806773 130.730641
v 80.636805 -5.495149 130.475509
v 82.058390 -4.391021 131.005215
v 77.929504 -2.009448 130.641486
v 79.351089 -0.905320 131.272846
v 75.222203 1.476254 130.714291
v 76.643787 2.580381 131.251252
v 72.361991 5.261002 130.621999
v 74.089397 5.767035 131.139476
v 73.102103 8.908522 131.405524
v 74.853974 8.495064 131.782789
v 9.235612 32.156975 115.253903
v 9.667880 34.619321 115.611221
v 5.947659 32.734181 114.192228
v 6.379928 35.196526 114.510313
v 2.659706 33.311387 113.111576
v 3.091975 35.773732 113.390428
usemtl road_unclassified
f 1 2 4 3
f 3 4 6 5
f 5 6 8 7
f 7 8 10 9
f 9 10 12 11
f 11 12 14 13
f 13 14 16 15
f 15 16 18 17
f 17 18 20 19
f 19 20 22 21
f 21 22 24 23
f 23 24 26 25
f 25 26 28 27
f 27 28 30 29
f 29 30 32 31
f 31 32 34 33
f 33 34 36 35
f 35 36 38 37
f 37 38 40 39
f 39 40 42 41
f 41 42 44 43
f 43 44 46 45
f 45 46 48 47
f 47 48 50 49
f 49 50 52 51
f 51 52 54 53
f 53 54 56 55
f 55 56 58 57
f 57 58 60 59
f 59 60 62 61
f 61 62 64 63
f 63 64 66 65
f 65 66 68 67
f 67 68 70 69
f 69 70 72 71
f 71 72 74 73
f 73 74 76 75
f 75 76 78 77
f 77 78 80 79
f 79 80 82 81
f 81 82 84 83
f 83 84 86 85
f 85 86 88 87
f 87 88 90 89
f 89 90 92 91
f 91 92 94 93
f 93 94 96 95
f 95 96 98 97
f 97 98 100 99
f 99 100 102 101
f 101 102 104 103
f 103 104 106 105
f 105 106 108 107
f 107 108 110 109
f 109 110 112 111
f 111 112 114 113
f 113 114 116 115
f 115 116 118 117
f 117 118 120 119
f 119 120 122 121
f 121 122 124 123
f 123 124 126 125
f 125 126 128 127
f 127 128 130 129
f 129 130 132 131
f 131 132 134 133
f 133 134 136 135
f 135 136 138 137
f 137 138 140 139
f 139 140 142 141
f 141 142 144 143
f 143 144 146 145
f 145 146 148 147
f 147 148 150 149
f 149 150 152 151
f 151 152 154 153
f 153 154 156 155
f 155 156 158 157
f 157 158 160 159
f 159 160 162 161
f 161 162 164 163
f 163 164 166 165
f 165 166 168 167
f 167 168 170 169
f 169 170 172 171
f 171 172 174 173
f 173 174 176 175
f 175 176 178 177
f 177 178 180 179
f 179 180 182 181
f 181 182 184 183
f 183 184 186 185
f 185 186 188 187
f 187 188 190 189
f 189 190 192 191
f 191 192 194 193
f 193 194 196 195
f 195 196 198 197
f 197 198 200 199
f 199 200 202 201
f 201 202 204 203
f 203 204 206 205
f 205 206 208 207
f 207 208 210 209
f 209 210 212 211
f 211 212 214 213
f 213 214 216 215
f 215 216 218 217
f 217 218 220 219
f 219 220 222 221
f 221 222 224 223
f 223 224 226 225
f 225 226 228 227
f 227 228 230 229
f 229 230 232 231
f 231 232 234 233
f 233 234 236 235
f 235 236 238 237
f 237 238 240 239
f 239 240 242 241
usemtl road_service
f 243 244 246 245
f 245 246 248 247
f 247 248 250 249
f 249 250 252 251
f 251 252 254 253
f 253 254 256 255
f 255 256 258 257
f 257 258 260 259
f 259 260 262 261
f 261 262 264 263
f 263 264 266 265
f 265 266 268 267
f 267 268 270 269
f 269 270 272 271
f 271 272 274 273
f 273 274 276 275
f 275 276 278 277
f 277 278 280 279
f 279 280 282 281
f 281 282 284 283
f 283 284 286 285
f 285 286 288 287
f 287 288 290 289
f 289 290 292 291
f 291 292 294 293
f 293 294 296 295
f 295 296 298 297
f 297 298 300 299
f 299 300 302 301
f 301 302 304 303
f 303 304 306 305
f 305 306 308 307
f 307 308 310 309
f 309 310 312 311
f 311 312 314 313
f 313 314 316 315
f 315 316 318 317
f 317 318 320 319
f 319 320 322 321
f 321 322 324 323
f 323 324 326 325
f 325 326 328 327
f 327 328 330 329
f 329 330 332 331
f 331 332 334 333
f 333 334 336 335
f 335 336 338 337
f 337 338 340 339
f 339 340 342 341
f 341 342 344 343
f 343 344 346 345
f 345 346 348 347
f 347 348 350 349
f 349 350 352 351
f 351 352 354 353
f 353 354 356 355
f 355 356 358 357
f 357 358 360 359
f 359 360 362 361
f 361 362 364 363
f 363 364 366 365
f 365 366 368 367
f 367 368 370 369
f 369 370 372 371
f 371 372 374 373
f 373 374 376 375
f 375 376 378 377
f 377 378 380 379
f 379 380 382 381
f 381 382 384 383
f 385 386 388 387
f 387 388 390 389
f 389 390 392 391
f 391 392 394 393
f 393 394 396 395
f 395 396 398 397
f 397 398 400 399
f 399 400 402 401
f 401 402 404 403
f 403 404 406 405
f 405 406 408 407
f 407 408 410 409
f 409 410 412 411
f 411 412 414 413
f 413 414 416 415
f 415 416 418 417
f 417 418 420 419
f 421 422 424 423
f 423 424 426 425
f 425 426 428 427
f 427 428 430 429
f 429 430 432 431
f 431 432 434 433
f 433 434 436 435
f 435 436 438 437
f 437 438 440 439
f 439 440 442 441
f 441 442 444 443
f 443 444 446 445
f 445 446 448 447
f 447 448 450 449
f 449 450 452 451
f 451 452 454 453
f 455 456 458 457
f 457 458 460 459
f 459 460 462 461
f 461 462 464 463
f 463 464 466 465
f 465 466 468 467
f 467 468 470 469
f 469 470 472 471
f 471 472 474 473
f 473 474 476 475
f 475 476 478 477
f 477 478 480 479
f 479 480 482 481
f 481 482 484 483
usemtl road_path
f 485 486 488 487
f 487 488 490 489
f 489 490 492 491
f 491 492 494 493
f 493 494 496 495
f 495 496 498 497
f 497 498 500 499
f 499 500 502 501
f 501 502 504 503
f 503 504 506 505
f 505 506 508 507
f 507 508 510 509
f 509 510 512 511
f 511 512 514 513
f 513 514 516 515
f 515 516 518 517
f 517 518 520 519
f 519 520 522 521
f 521 522 524 523
f 523 524 526 525
f 525 526 528 527
f 527 528 530 529
f 529 530 532 531
f 531 532 534 533
f 533 534 536 535
f 535 536 538 537
f 537 538 540 539
f 539 540 542 541
f 541 542 544 543
f 543 544 546 545
f 545 546 548 547
f 547 548 550 549
f 549 550 552 551
f 551 552 554 553
f 553 554 556 555
f 555 556 558 557
f 557 558 560 559
f 559 560 562 561
f 561 562 564 563
f 563 564 566 565
f 565 566 568 567
f 567 568 570 569
f 569 570 572 571
f 571 572 574 573
f 573 574 576 575
f 575 576 578 577
f 577 578 580 579
f 579 580 582 581
f 581 582 584 583
f 583 584 586 585
f 585 586 588 587
f 587 588 590 589
f 589 590 592 591
f 591 592 594 593
f 593 594 596 595
f 595 596 598 597
f 597 598 600 599
f 599 600 602 601
f 601 602 604 603
f 603 604 606 605
f 605 606 608 607
f 607 608 610 609
f 609 610 612 611
f 611 612 614 613
f 613 614 616 615
f 615 616 618 617
f 617 618 620 619
f 619 620 622 621
f 621 622 624 623
f 623 624 626 625
f 625 626 628 627
f 627 628 630 629
f 629 630 632 631
f 631 632 634 633
f 633 634 636 635
f 635 636 638 637
f 637 638 640 639
f 639 640 642 641
f 641 642 644 643
f 643 644 646 645
f 645 646 648 647
f 647 648 650 649
f 649 650 652 651
f 651 652 654 653
f 655 656 658 657
f 657 658 660 659
f 659 660 662 661
f 661 662 664 663
f 663 664 666 665
f 665 666 668 667
f 667 668 670 669
f 669 670 672 671
f 671 672 674 673
f 673 674 676 675
f 675 676 678 677
f 677 678 680 679
f 679 680 682 681
f 681 682 684 683
f 683 684 686 685
f 685 686 688 687
f 687 688 690 689
f 689 690 692 691
f 691 692 694 693
f 693 694 696 695
f 695 696 698 697
f 697 698 700 699
f 699 700 702 701
f 701 702 704 703
f 703 704 706 705
f 705 706 708 707
f 707 708 710 709
f 709 710 712 711
f 711 712 714 713
f 713 714 716 715
f 715 716 718 717
f 717 718 720 719
f 719 720 722 721
f 721 722 724 723
f 723 724 726 725
f 725 726 728 727
f 727 728 730 729
usemtl road_unclassified
f 731 732 734 733
f 733 734 736 735
f 735 736 738 737
f 737 738 740 739
f 739 740 742 741
f 741 742 744 743
f 743 744 746 745
f 745 746 748 747
f 747 748 750 749
f 749 750 752 751
f 751 752 754 753
f 753 754 756 755
f 755 756 758 757
f 757 758 760 759
f 759 760 762 761
f 761 762 764 763
f 763 764 766 765
f 765 766 768 767
f 767 768 770 769
f 769 770 772 771
f 771 772 774 773
f 773 774 776 775
f 775 776 778 777
f 777 778 780 779
f 779 780 782 781
f 781 782 784 783
f 783 784 786 785
f 785 786 788 787
f 787 788 790 789
f 789 790 792 791
f 791 792 794 793
f 793 794 796 795
f 795 796 798 797
f 797 798 800 799
f 799 800 802 801
f 801 802 804 803
f 803 804 806 805
f 805 806 808 807
f 807 808 810 809
f 809 810 812 811
f 813 814 816 815
f 815 816 818 817
f 817 818 820 819
f 819 820 822 821
f 821 822 824 823
f 823 824 826 825
f 825 826 828 827
f 827 828 830 829
f 829 830 832 831
f 831 832 834 833
f 833 834 836 835
f 835 836 838 837
f 837 838 840 839
f 839 840 842 841
f 841 842 844 843
f 843 844 846 845
f 845 846 848 847
f 847 848 850 849
f 849 850 852 851
f 851 852 854 853
f 853 854 856 855
f 855 856 858 857
f 857 858 860 859
f 859 860 862 861
f 861 862 864 863
f 863 864 866 865
f 865 866 868 867
f 867 868 870 869
f 869 870 872 871
f 871 872 874 873
f 873 874 876 875
f 875 876 878 877
f 877 878 880 879
f 879 880 882 881
f 881 882 884 883
f 883 884 886 885
f 885 886 888 887
f 887 888 890 889
f 889 890 892 891
f 891 892 894 893
f 893 894 896 895
f 895 896 898 897
f 897 898 900 899
f 899 900 902 901
f 901 902 904 903
f 903 904 906 905
f 905 906 908 907
f 907 908 910 909
f 909 910 912 911
f 911 912 914 913
f 913 914 916 915
f 915 916 918 917
f 917 918 920 919
f 919 920 922 921
f 921 922 924 923
f 923 924 926 925
f 925 926 928 927
f 927 928 930 929
f 929 930 932 931
f 931 932 934 933
f 933 934 936 935
f 935 936 938 937
f 937 938 940 939
f 939 940 942 941
f 941 942 944 943
f 943 944 946 945
f 945 946 948 947
f 947 948 950 949
f 949 950 952 951
f 951 952 954 953
f 953 954 956 955
f 955 956 958 957
f 957 958 960 959
f 959 960 962 961
f 961 962 964 963
f 963 964 966 965
f 965 966 968 967
f 967 968 970 969
f 969 970 972 971
f 971 972 974 973
f 973 974 976 975
f 975 976 978 977
f 977 978 980 979
f 979 980 982 981
f 981 982 984 983
f 983 984 986 985
f 985 986 988 987
f 987 988 990 989
f 989 990 992 991
f 991 992 994 993
f 993 994 996 995
f 995 996 998 997
f 997 998 1000 999
f 999 1000 1002 1001
f 1001 1002 1004 1003
f 1003 1004 1006 1005
f 1005 1006 1008 1007
f 1007 1008 1010 1009
f 1009 1010 1012 1011
f 1011 1012 1014 1013
f 1013 1014 1016 1015
f 1015 1016 1018 1017
f 1017 1018 1020 1019
f 1019 1020 1022 1021
f 1021 1022 1024 1023
f 1023 1024 1026 1025
f 1025 1026 1028 1027
f 1027 1028 1030 1029
f 1029 1030 1032 1031
f 1031 1032 1034 1033
f 1033 1034 1036 1035
f 1035 1036 1038 1037
f 1037 1038 1040 1039
f 1039 1040 1042 1041
f 1041 1042 1044 1043
f 1043 1044 1046 1045
f 1045 1046 1048 1047
f 1047 1048 1050 1049
f 1049 1050 1052 1051
usemtl road_secondary
f 1053 1054 1056 1055
f 1055 1056 1058 1057
f 1057 1058 1060 1059
f 1059 1060 1062 1061
f 1061 1062 1064 1063
f 1063 1064 1066 1065
f 1065 1066 1068 1067
f 1067 1068 1070 1069
f 1069 1070 1072 1071
f 1071 1072 1074 1073
f 1073 1074 1076 1075
f 1075 1076 1078 1077
f 1077 1078 1080 1079
f 1079 1080 1082 1081
f 1081 1082 1084 1083
f 1083 1084 1086 1085
f 1085 1086 1088 1087
f 1087 1088 1090 1089
f 1089 1090 1092 1091
f 1091 1092 1094 1093
f 1093 1094 1096 1095
f 1095 1096 1098 1097
usemtl road_footway
f 1099 1100 1102 1101
f 1101 1102 1104 1103
f 1103 1104 1106 1105
f 1105 1106 1108 1107
f 1107 1108 1110 1109
f 1109 1110 1112 1111
f 1111 1112 1114 1113
f 1113 1114 1116 1115
f 1115 1116 1118 1117
f 1117 1118 1120 1119
f 1119 1120 1122 1121
f 1121 1122 1124 1123
f 1123 1124 1126 1125
f 1125 1126 1128 1127
f 1127 1128 1130 1129
f 1129 1130 1132 1131
f 1131 1132 1134 1133
f 1133 1134 1136 1135
f 1135 1136 1138 1137
f 1137 1138 1140 1139
f 1139 1140 1142 1141
f 1141 1142 1144 1143
f 1143 1144 1146 1145
f 1145 1146 1148 1147
f 1147 1148 1150 1149
f 1149 1150 1152 1151
f 1151 1152 1154 1153
f 1153 1154 1156 1155
f 1155 1156 1158 1157
f 1157 1158 1160 1159
f 1159 1160 1162 1161
usemtl road_track
f 1163 1164 1166 1165
f 1165 1166 1168 1167
f 1167 1168 1170 1169
f 1169 1170 1172 1171
f 1171 1172 1174 1173
f 1173 1174 1176 1175
f 1175 1176 1178 1177
f 1177 1178 1180 1179
f 1179 1180 1182 1181
f 1181 1182 1184 1183
f 1183 1184 1186 1185
f 1185 1186 1188 1187
f 1187 1188 1190 1189
f 1189 1190 1192 1191
f 1191 1192 1194 1193
f 1193 1194 1196 1195
f 1195 1196 1198 1197
f 1197 1198 1200 1199
f 1199 1200 1202 1201
f 1201 1202 1204 1203
f 1203 1204 1206 1205
f 1205 1206 1208 1207
f 1207 1208 1210 1209
f 1209 1210 1212 1211
f 1211 1212 1214 1213
f 1213 1214 1216 1215
f 1215 1216 1218 1217
f 1217 1218 1220 1219
f 1219 1220 1222 1221
f 1221 1222 1224 1223
f 1223 1224 1226 1225
f 1225 1226 1228 1227
f 1227 1228 1230 1229
f 1229 1230 1232 1231
f 1231 1232 1234 1233
f 1233 1234 1236 1235
f 1235 1236 1238 1237
f 1237 1238 1240 1239
f 1239 1240 1242 1241
f 1241 1242 1244 1243
f 1243 1244 1246 1245
f 1245 1246 1248 1247
f 1247 1248 1250 1249
f 1249 1250 1252 1251
f 1251 1252 1254 1253
f 1253 1254 1256 1255
f 1255 1256 1258 1257
f 1257 1258 1260 1259
f 1259 1260 1262 1261
f 1263 1264 1266 1265
f 1265 1266 1268 1267
f 1267 1268 1270 1269
f 1269 1270 1272 1271
f 1271 1272 1274 1273
f 1273 1274 1276 1275
f 1275 1276 1278 1277
f 1277 1278 1280 1279
f 1279 1280 1282 1281
f 1281 1282 1284 1283
f 1283 1284 1286 1285
f 1285 1286 1288 1287
f 1287 1288 1290 1289
f 1289 1290 1292 1291
f 1291 1292 1294 1293
f 1293 1294 1296 1295
f 1295 1296 1298 1297
f 1297 1298 1300 1299
f 1299 1300 1302 1301
f 1301 1302 1304 1303
f 1303 1304 1306 1305
f 1305 1306 1308 1307
f 1307 1308 1310 1309
f 1309 1310 1312 1311
f 1311 1312 1314 1313
f 1313 1314 1316 1315
f 1315 1316 1318 1317
f 1317 1318 1320 1319
f 1319 1320 1322 1321
f 1321 1322 1324 1323
f 1323 1324 1326 1325
f 1325 1326 1328 1327
f 1327 1328 1330 1329
f 1329 1330 1332 1331
f 1331 1332 1334 1333
f 1333 1334 1336 1335
f 1335 1336 1338 1337
f 1337 1338 1340 1339
f 1339 1340 1342 1341
f 1341 1342 1344 1343
f 1343 1344 1346 1345
f 1345 1346 1348 1347
f 1347 1348 1350 1349
f 1349 1350 1352 1351
f 1353 1354 1356 1355
f 1355 1356 1358 1357
f 1357 1358 1360 1359
f 1359 1360 1362 1361
f 1361 1362 1364 1363
f 1363 1364 1366 1365
f 1365 1366 1368 1367
f 1367 1368 1370 1369
f 1369 1370 1372 1371
f 1371 1372 1374 1373
f 1373 1374 1376 1375
f 1375 1376 1378 1377
f 1377 1378 1380 1379
f 1379 1380 1382 1381
f 1381 1382 1384 1383
f 1383 1384 1386 1385
f 1385 1386 1388 1387
f 1387 1388 1390 1389
f 1389 1390 1392 1391
f 1391 1392 1394 1393
f 1393 1394 1396 1395
f 1395 1396 1398 1397
f 1397 1398 1400 1399
f 1399 1400 1402 1401
f 1401 1402 1404 1403
f 1403 1404 1406 1405
f 1405 1406 1408 1407
f 1407 1408 1410 1409
f 1409 1410 1412 1411
f 1411 1412 1414 1413
f 1413 1414 1416 1415
f 1415 1416 1418 1417
f 1417 1418 1420 1419
f 1419 1420 1422 1421
f 1421 1422 1424 1423
f 1423 1424 1426 1425
f 1425 1426 1428 1427
f 1427 1428 1430 1429
f 1429 1430 1432 1431
f 1431 1432 1434 1433
f 1433 1434 1436 1435
f 1435 1436 1438 1437
f 1437 1438 1440 1439
f 1439 1440 1442 1441
f 1441 1442 1444 1443
f 1443 1444 1446 1445
f 1445 1446 1448 1447
f 1447 1448 1450 1449
f 1449 1450 1452 1451
f 1451 1452 1454 1453
f 1453 1454 1456 1455
f 1455 1456 1458 1457
f 1457 1458 1460 1459
f 1459 1460 1462 1461
f 1461 1462 1464 1463
f 1463 1464 1466 1465
f 1465 1466 1468 1467
f 1467 1468 1470 1469
f 1469 1470 1472 1471
f 1471 1472 1474 1473
f 1473 1474 1476 1475
f 1475 1476 1478 1477
f 1479 1480 1482 1481
f 1481 1482 1484 1483
f 1483 1484 1486 1485
f 1485 1486 1488 1487
f 1487 1488 1490 1489
f 1489 1490 1492 1491
f 1491 1492 1494 1493
f 1493 1494 1496 1495
f 1495 1496 1498 1497
f 1497 1498 1500 1499
f 1499 1500 1502 1501
f 1501 1502 1504 1503
f 1503 1504 1506 1505
f 1505 1506 1508 1507
f 1507 1508 1510 1509
f 1509 1510 1512 1511
f 1511 1512 1514 1513
f 1513 1514 1516 1515
f 1515 1516 1518 1517
f 1517 1518 1520 1519
f 1519 1520 1522 1521
f 1521 1522 1524 1523
f 1523 1524 1526 1525
f 1525 1526 1528 1527
f 1527 1528 1530 1529
f 1529 1530 1532 1531
f 1531 1532 1534 1533
f 1533 1534 1536 1535
f 1535 1536 1538 1537
f 1537 1538 1540 1539
f 1539 1540 1542 1541
f 1541 1542 1544 1543
f 1543 1544 1546 1545
f 1545 1546 1548 1547
f 1547 1548 1550 1549
f 1549 1550 1552 1551
f 1551 1552 1554 1553
f 1553 1554 1556 1555
f 1555 1556 1558 1557
f 1557 1558 1560 1559
f 1559 1560 1562 1561
f 1561 1562 1564 1563
f 1563 1564 1566 1565
f 1565 1566 1568 1567
f 1567 1568 1570 1569
f 1569 1570 1572 1571
f 1571 1572 1574 1573
f 1573 1574 1576 1575
f 1575 1576 1578 1577
f 1577 1578 1580 1579
f 1579 1580 1582 1581
f 1581 1582 1584 1583
f 1583 1584 1586 1585
f 1585 1586 1588 1587
f 1587 1588 1590 1589
f 1589 1590 1592 1591
f 1591 1592 1594 1593
f 1593 1594 1596 1595
f 1595 1596 1598 1597
f 1597 1598 1600 1599
f 1599 1600 1602 1601
f 1601 1602 1604 1603
f 1603 1604 1606 1605
f 1605 1606 1608 1607
f 1607 1608 1610 1609
f 1609 1610 1612 1611
f 1611 1612 1614 1613
f 1613 1614 1616 1615
f 1615 1616 1618 1617
f 1617 1618 1620 1619
f 1619 1620 1622 1621
f 1623 1624 1626 1625
f 1625 1626 1628 1627
f 1627 1628 1630 1629
f 1629 1630 1632 1631
f 1633 1634 1636 1635
f 1635 1636 1638 1637
f 1637 1638 1640 1639
f 1639 1640 1642 1641
f 1641 1642 1644 1643
f 1643 1644 1646 1645
f 1645 1646 1648 1647
f 1647 1648 1650 1649
f 1649 1650 1652 1651
f 1651 1652 1654 1653
f 1653 1654 1656 1655
f 1655 1656 1658 1657
f 1657 1658 1660 1659
f 1661 1662 1664 1663
f 1663 1664 1666 1665
f 1665 1666 1668 1667
f 1667 1668 1670 1669
f 1669 1670 1672 1671
f 1671 1672 1674 1673
f 1673 1674 1676 1675
f 1675 1676 1678 1677
f 1677 1678 1680 1679
f 1679 1680 1682 1681
f 1681 1682 1684 1683
f 1683 1684 1686 1685
f 1685 1686 1688 1687
f 1687 1688 1690 1689
f 1689 1690 1692 1691
f 1691 1692 1694 1693
f 1693 1694 1696 1695
f 1695 1696 1698 1697
f 1697 1698 1700 1699
f 1699 1700 1702 1701
f 1701 1702 1704 1703
f 1703 1704 1706 1705
f 1705 1706 1708 1707
f 1707 1708 1710 1709
f 1709 1710 1712 1711
f 1711 1712 1714 1713
f 1713 1714 1716 1715
f 1715 1716 1718 1717
f 1717 1718 1720 1719
f 1719 1720 1722 1721
f 1721 1722 1724 1723
f 1723 1724 1726 1725
f 1725 1726 1728 1727
f 1727 1728 1730 1729
f 1729 1730 1732 1731
f 1731 1732 1734 1733
f 1733 1734 1736 1735
f 1735 1736 1738 1737
f 1737 1738 1740 1739
f 1739 1740 1742 1741
f 1741 1742 1744 1743
f 1743 1744 1746 1745
f 1745 1746 1748 1747
f 1747 1748 1750 1749
f 1749 1750 1752 1751
f 1751 1752 1754 1753
f 1753 1754 1756 1755
f 1755 1756 1758 1757
f 1757 1758 1760 1759
f 1759 1760 1762 1761
f 1761 1762 1764 1763
f 1763 1764 1766 1765
f 1765 1766 1768 1767
f 1767 1768 1770 1769
f 1769 1770 1772 1771
f 1771 1772 1774 1773
f 1773 1774 1776 1775
f 1775 1776 1778 1777
f 1777 1778 1780 1779
f 1779 1780 1782 1781
f 1781 1782 1784 1783
f 1783 1784 1786 1785
f 1785 1786 1788 1787
f 1787 1788 1790 1789
usemtl road_service
f 1791 1792 1794 1793
f 1793 1794 1796 1795
