# Generated terrain-following OSM road ribbon; model.sdf explicitly overrides this matte material.
mtllib alishan_shizhuo_roads.mtl
o alishan_shizhuo_road_secondary
usemtl road_secondary
v -250.000000 168.343287 19.133132
v -248.205730 164.861566 20.074943
v -244.769238 168.403490 19.116846
v -248.357779 171.885210 18.175035
v -241.332747 171.945414 18.158750
v -244.921287 175.427134 17.216939
v -237.896255 175.487338 18.590520
v -241.484796 178.969058 16.258842
v -234.459764 179.029262 19.712939
v -238.048305 182.510982 15.890321
v -231.023273 182.571185 20.279116
v -234.611813 186.052906 16.283853
v -227.472488 186.239229 20.806322
v -231.289614 189.468710 16.777661
v -224.874872 189.841533 20.853659
v -228.935586 192.758827 16.781750
v -222.399049 193.287743 20.975426
v -226.459763 196.205037 16.871523
v -219.810978 196.904485 21.266741
v -224.096190 199.480714 17.038871
v -217.878053 200.808571 22.152733
v -222.363366 203.018088 17.770147
v -216.045179 204.529301 23.745999
v -220.530492 206.738818 18.719410
v -214.088951 208.547326 25.207264
v -218.820971 210.162253 19.994526
v -213.174235 212.941039 25.309662
v -218.073887 213.937739 20.306119
v -212.315810 217.188230 25.267545
v -217.270511 217.859748 20.563392
v -211.926235 222.138980 24.496868
v -216.911145 222.527143 20.287215
v -211.551764 226.948053 23.590029
v -216.536674 227.336216 19.970099
v -211.206914 231.521732 22.638068
v -216.132582 232.380681 19.548236
v -210.169683 234.911520 22.287777
v -214.958135 236.350522 19.559236
v -209.179015 238.283259 21.748825
v -213.737123 240.338411 19.421295
v -207.160364 241.577966 22.005997
v -211.436148 244.169814 20.325591
v -205.000551 245.141021 22.854815
v -209.276335 247.732869 21.174409
v -202.840738 248.704076 23.703633
v -207.116522 250.000000 22.023227
f 1 2 3 4
f 4 3 5 6
f 6 5 7 8
f 8 7 9 10
f 10 9 11 12
f 12 11 13 14
f 14 13 15 16
f 16 15 17 18
f 18 17 19 20
f 20 19 21 22
f 22 21 23 24
f 24 23 25 26
f 26 25 27 28
f 28 27 29 30
f 30 29 31 32
f 32 31 33 34
f 34 33 35 36
f 36 35 37 38
f 38 37 39 40
f 40 39 41 42
f 42 41 43 44
f 44 43 45 46
