# Generated terrain-following OSM road ribbon; model.sdf explicitly overrides this matte material.
mtllib alishan_shizhuo_roads.mtl
o alishan_shizhuo_road_unclassified
usemtl road_unclassified
v 164.706529 -250.000000 93.348500
v 168.076725 -249.527830 94.543229
v 167.139818 -246.184163 94.211097
v 163.769622 -247.128503 93.016368
v 166.087833 -242.539661 93.838170
v 162.947794 -244.085673 92.725032
v 163.832506 -239.466013 93.223731
v 161.026654 -241.558187 92.043991
v 161.647014 -236.546316 93.464668
v 159.035678 -238.876750 91.775680
v 158.090187 -233.026553 93.621353
v 155.630020 -235.516046 92.029569
v 154.438391 -229.438265 94.110107
v 152.319330 -232.223868 92.477189
v 150.179734 -227.010769 94.205212
v 148.456452 -230.057127 92.487251
v 146.118966 -224.713650 94.454713
v 144.395684 -227.760009 92.663777
v 141.874539 -222.326379 94.881542
v 140.518576 -225.553043 92.990461
v 137.272881 -220.996678 94.831869
v 136.309976 -224.361617 92.982214
v 132.846305 -219.730124 94.710237
v 131.926296 -223.107043 92.956100
v 128.857527 -218.704034 94.433462
v 127.985707 -222.093714 92.833224
v 124.892843 -217.684326 94.138422
v 124.021024 -221.074006 92.669781
v 120.983143 -216.679718 93.827735
v 120.001357 -220.039196 92.463615
v 117.217390 -215.441258 93.659298
v 116.124751 -218.766335 92.229798
v 113.396210 -214.185597 93.555644
v 112.303572 -217.510675 92.056446
v 109.214001 -212.852313 93.492577
v 108.843421 -216.332639 91.967738
v 105.066013 -213.303819 92.706009
v 105.481537 -216.779065 91.223500
v 101.311077 -213.752785 91.955219
v 101.726602 -217.228031 90.393609
v 97.556141 -214.201751 92.369540
v 97.971666 -217.676997 90.729326
v 93.702341 -214.665412 93.508382
v 94.315594 -218.111268 92.091812
v 88.904246 -215.740385 94.925515
v 89.670633 -219.155447 93.805419
v 84.182718 -216.799961 96.546645
v 84.949105 -220.215023 95.660883
v 79.461189 -217.859537 98.179193
v 80.227576 -221.274599 97.044444
v 74.739661 -218.919112 98.211091
v 75.506048 -222.334175 96.487332
v 70.018133 -219.978688 98.171950
v 70.784520 -223.393751 95.947905
v 65.296605 -221.038264 97.584213
v 66.062992 -224.453327 95.521543
v 60.528499 -222.108964 97.093290
v 61.388041 -225.501778 95.211151
v 56.157741 -223.353629 96.433957
v 57.116892 -226.719640 94.752386
v 51.836787 -224.584893 95.872088
v 52.795938 -227.950904 94.333836
v 47.515834 -225.816157 95.424335
v 48.474985 -229.182168 94.029403
v 44.011641 -227.013217 95.073540
v 43.337270 -230.447634 93.885979
v 42.702751 -225.033977 95.805091
v 40.100855 -227.374947 95.098169
v 40.430098 -222.508014 96.650421
v 37.828203 -224.848984 95.119629
v 38.366508 -220.268020 96.857249
v 35.346488 -222.037052 95.275612
v 36.652433 -216.022979 96.691006
v 33.412100 -217.345947 95.692830
v 34.828201 -211.554906 96.550466
v 31.587868 -212.877874 95.643982
v 33.003969 -207.086833 96.533819
v 29.763637 -208.409801 95.719028
v 31.179738 -202.618760 96.641067
v 27.939405 -203.941728 95.917967
v 29.355506 -198.150687 96.948982
v 26.115173 -199.473655 96.254081
v 27.531274 -193.682614 97.431596
v 24.290942 -195.005582 96.767759
v 25.707043 -189.214541 97.956183
v 22.466710 -190.537509 97.323409
v 23.784927 -184.544727 98.547612
v 20.740363 -186.271177 97.894915
v 20.701464 -180.385740 98.977474
v 17.895383 -182.477606 98.121326
v 17.653028 -176.305090 99.151452
v 15.015377 -178.605698 98.448055
v 14.092983 -172.809454 99.144304
v 11.643493 -175.309453 98.439522
v 10.627019 -169.413514 99.161373
v 8.177528 -171.913513 98.456227
v 7.145172 -166.002208 99.203374
v 4.727447 -168.532939 98.497429
v 3.560923 -162.662941 99.246071
v 1.175186 -165.223851 98.538537
v -0.007332 -159.338764 99.500862
v -2.393069 -161.899673 98.229414
v -3.575587 -156.014586 99.917818
v -5.961324 -158.575496 98.170730
v -7.143842 -152.690408 100.190053
v -9.529579 -155.251318 98.450331
v -10.712097 -149.366231 100.317567
v -13.097834 -151.927141 98.585209
v -14.280352 -146.042053 100.300358
v -16.666089 -148.602963 98.575367
v -17.848607 -142.717876 100.138429
v -20.234345 -145.278785 98.391862
v -21.239662 -139.585387 99.522871
v -23.979800 -141.762919 97.481473
v -22.610579 -136.755112 98.891900
v -25.741918 -138.318672 96.972600
v -24.114788 -133.757610 98.106891
v -27.370743 -135.041651 96.043374
v -24.837077 -131.117430 97.737385
v -28.209745 -132.052904 95.522483
v -25.555764 -128.693413 97.327067
v -29.052349 -128.847993 94.947529
v -25.084044 -125.071448 97.757556
v -28.557669 -124.642580 95.265870
v -24.644770 -121.386761 98.199620
v -28.030543 -120.499891 95.650088
v -22.962301 -116.992878 99.394601
v -26.233545 -115.748307 96.851252
v -21.222567 -112.420145 100.487262
v -24.493812 -111.175574 97.966944
v -19.482834 -107.847412 101.399858
v -22.754079 -106.602841 99.053992
v -17.743101 -103.274679 101.865740
v -21.014346 -102.030107 100.112398
v -16.003368 -98.701946 102.073151
v -19.274612 -97.457374 100.461468
v -14.263634 -94.129212 102.004485
v -17.534879 -92.884641 100.250795
v -12.523901 -89.556479 102.112430
v -15.795146 -88.311908 100.216732
v -10.750069 -84.885418 102.403189
v -14.089511 -83.837503 100.356250
v -10.220933 -82.189623 102.362802
v -13.658177 -81.529809 100.226532
v -9.727408 -79.608935 102.385653
v -13.191231 -79.107006 100.264767
v -9.293814 -75.798529 102.575980
v -12.771457 -75.403564 100.515889
v -8.867129 -72.041605 102.746018
v -12.344773 -71.646639 100.754283
v -8.433585 -68.210060 102.901038
v -11.924949 -67.964336 100.972340
v -8.262217 -63.454765 102.875763
v -11.759974 -63.329480 101.032284
v -8.140883 -59.103933 102.826758
v -11.544965 -58.290161 101.076239
v -6.558376 -56.236720 103.553959
v -9.650890 -54.597707 101.942815
v -4.888569 -53.074763 104.314338
v -7.844114 -51.199996 102.768512
v -2.432003 -49.733956 105.463731
v -5.253754 -47.663275 103.981775
v 0.091460 -46.295192 106.616825
v -2.730291 -44.224511 105.158169
v 2.183038 -43.271631 107.019130
v 0.225057 -40.370544 106.467385
v 5.579304 -42.579566 107.761245
v 4.769677 -39.174496 107.427099
v 10.573718 -40.943458 108.686870
v 7.716150 -38.922491 108.038739
v 10.638779 -35.518359 108.809461
v 7.144794 -35.723480 108.097795
v 10.385631 -31.206303 108.985049
v 6.891647 -31.411425 108.283513
v 10.132483 -26.894248 109.162110
v 6.638499 -27.099370 108.470705
v 9.879335 -22.582193 109.340644
v 6.385351 -22.787314 108.659370
v 9.626187 -18.270138 109.742005
v 6.132203 -18.475259 109.040487
v 9.372963 -13.956794 110.474291
v 5.879131 -14.164493 109.770833
v 9.148461 -10.251727 111.101800
v 5.649529 -10.338205 110.417965
v 9.173562 -5.878784 111.897733
v 5.673616 -5.859336 111.231300
v 9.198156 -1.452878 112.703174
v 5.698210 -1.433429 112.035190
v 9.222750 2.973028 113.157497
v 5.722804 2.992477 112.443771
v 9.247344 7.398934 113.440972
v 5.747398 7.418383 112.663737
v 9.271938 11.824840 113.725340
v 5.771992 11.844289 112.884596
v 9.293671 16.159974 114.004132
v 5.799447 16.360968 113.111515
v 9.762129 20.348923 114.405105
v 6.283583 20.735857 113.472757
v 10.238425 24.630842 114.918359
v 6.759879 25.017776 113.912459
v 10.714722 28.912762 115.452008
v 7.236176 29.299696 114.372555
v 11.201392 33.423349 116.031075
v 7.702100 33.352947 114.832004
v 10.540979 37.196811 116.148067
v 7.096911 36.573599 114.862443
v 9.908179 40.693868 116.236113
v 6.464110 40.070656 114.883507
v 9.227605 44.388582 116.341636
v 5.879082 43.370057 114.932371
v 7.568221 48.397840 116.043951
v 4.336926 47.052947 114.599683
v 5.868582 52.444327 115.664518
v 2.835025 50.698609 114.224422
v 2.974274 56.386889 114.662413
v 0.157678 54.309200 113.267262
v 0.180835 60.173705 113.625233
v -2.620538 58.075536 113.879599
v -2.760367 64.043507 114.973664
v -5.546863 61.925622 114.939288
v -5.694130 67.903451 115.992522
v -8.480626 65.785565 115.868549
v -8.436358 71.446719 116.533283
v -11.605925 69.962184 116.370631
v -9.059076 75.049958 116.898804
v -12.498562 74.401935 116.542769
v -9.792338 78.890317 117.178960
v -13.280654 78.604567 116.572138
v -9.691633 82.770401 116.886064
v -13.190670 82.852491 116.222935
v -9.597272 86.803855 116.300115
v -13.094342 86.947044 115.668281
v -9.420635 89.397782 115.941608
v -12.912606 89.634723 115.322797
v -9.239097 92.080773 115.567905
v -12.735771 92.233337 114.986340
v -9.084822 97.085881 114.836524
v -12.583142 97.194298 114.309893
v -8.947958 101.470557 114.443944
v -12.446254 101.579754 113.957787
v -8.811081 105.855623 114.549369
v -12.309377 105.964820 114.047891
v -4.656794 92.316113 116.263402
v -1.157856 92.229905 116.836473
v -1.046212 96.761203 116.067802
v -4.545150 96.847411 115.539097
v -0.934569 101.292500 115.556669
v -4.433507 101.378708 115.071367
v -0.822925 105.823798 115.697622
v -4.321863 105.910006 115.196479
v -0.711282 110.355095 115.839586
v -4.210220 110.441303 115.322602
v -0.604033 115.060698 115.986752
v -4.094182 114.798296 115.446155
v -1.410191 119.648487 115.987635
v -4.856214 119.036180 115.429913
v -2.194286 124.061323 116.477699
v -5.640309 123.449016 115.681362
v -2.978381 128.474159 116.920685
v -6.424404 127.861852 115.925164
v -3.762476 132.886995 117.270073
v -7.208499 132.274688 116.075369
v -4.546571 137.299831 117.525864
v -7.992594 136.687525 116.131976
v -5.308275 141.533288 117.679821
v -8.799080 141.279741 116.181831
v -5.072266 144.402583 118.082790
v -8.562314 144.666335 116.706429
v -4.838365 147.500972 118.501319
v -8.323442 147.823835 117.194422
v -4.441433 151.211159 119.034542
v -7.921590 151.583317 117.807138
v -4.042041 154.945994 119.554587
v -7.522199 155.318151 118.399141
v -3.698603 158.391277 120.011364
v -7.066853 159.342536 119.026342
v -2.066241 161.925053 120.872340
v -5.251216 163.376236 119.995902
v -0.382027 165.627154 121.771572
v -3.487431 167.241610 120.928684
v 1.616516 169.009180 122.998081
v -1.397839 170.787849 121.947753
v 3.660584 172.473313 124.112202
v 0.646229 174.251982 122.998063
v 5.704652 175.937446 125.001146
v 2.690297 177.716115 123.995231
v 7.748720 179.401579 125.664912
v 4.734365 181.180248 124.840386
v 9.923648 183.139146 126.499535
v 6.647573 184.370946 125.651609
v 10.820736 187.564719 127.010746
v 7.386891 188.242002 126.142672
v 11.638939 191.713033 127.451140
v 8.205095 192.390316 126.646037
v 12.457143 195.861348 127.860310
v 9.023298 196.538631 127.118179
v 13.290231 200.096618 128.241729
v 9.826618 200.599989 127.519309
v 13.754992 204.789029 128.376842
v 10.271899 205.132633 127.655280
v 14.210013 209.401557 128.507577
v 10.726920 209.745160 127.792380
v 14.665035 214.014084 128.636632
v 11.181942 214.357688 127.927800
v 15.120056 218.626611 128.764008
v 11.636963 218.970215 128.061542
v 15.574048 223.592875 129.942141
v 12.093014 223.229007 129.006897
v 14.112168 228.251135 130.910074
v 10.780918 227.177461 129.670932
v 12.725180 232.554493 131.659356
v 9.393930 231.480819 130.279550
v 11.371005 236.742687 132.261416
v 7.974129 235.899340 130.770069
v 10.799981 240.301161 132.846789
v 7.345114 239.740896 131.338039
v 10.219889 243.817095 132.602573
v 6.725165 243.624992 131.131307
v 10.452807 246.503315 132.700630
v 6.964154 246.784922 131.231921
v 10.668270 249.265715 132.791339
v 7.220598 249.868671 131.339883
v 10.654668 248.897800 132.785613
v 7.936099 250.000000 131.641106
v 248.702514 -93.180699 153.100909
v 250.000000 -90.832058 153.986352
v 248.027610 -87.219230 155.348395
v 245.432638 -89.567872 154.462952
v 244.757734 -83.606402 156.710438
v 242.162762 -85.955044 155.824996
v 241.374771 -79.879602 158.096425
v 239.005972 -82.456188 156.885794
v 238.921145 -78.264721 158.162208
v 237.022091 -81.204720 156.819861
v 236.432668 -76.688980 157.868170
v 235.073061 -79.914112 156.738268
v 232.080803 -75.362718 157.074247
v 231.067615 -78.712860 155.950824
v 227.902147 -74.098961 156.357349
v 226.888959 -77.449102 155.177641
v 223.618122 -72.806890 155.669859
v 222.815673 -76.213659 154.469990
v 219.076037 -72.019800 155.012482
v 218.480825 -75.468817 153.978605
v 214.637571 -71.253833 155.113558
v 214.042359 -74.702851 154.194414
v 210.074608 -70.470959 155.161657
v 209.728389 -73.953793 154.354879
v 205.529113 -70.348562 155.026019
v 205.438507 -73.847389 154.340429
v 201.111423 -70.234162 154.885223
v 201.020818 -73.732989 154.318954
v 196.693734 -70.119762 154.420203
v 196.603129 -73.618589 153.895062
v 192.259202 -70.005007 153.843975
v 192.202284 -73.504544 153.352097
v 187.875360 -69.976338 153.261414
v 187.852538 -73.476263 152.802591
v 183.508567 -69.947863 152.680641
v 183.485744 -73.447788 152.250477
v 179.141773 -69.919388 151.942232
v 179.118951 -73.419313 151.551118
v 175.345277 -69.990386 150.732599
v 174.181860 -73.291365 150.109807
v 173.750302 -68.107614 150.367480
v 171.251055 -70.557873 149.403740
v 171.645080 -65.984403 149.803025
v 168.830499 -68.064820 148.750698
v 169.734611 -62.767334 149.301326
v 166.445547 -63.964020 148.072170
v 169.278044 -59.375130 149.242415
v 165.814493 -59.878926 147.933005
v 168.734234 -55.636481 148.948628
v 165.270682 -56.140277 147.705130
v 168.190423 -51.897832 148.675985
v 164.726871 -52.401628 147.498401
v 167.505492 -47.681482 148.371065
v 164.324181 -49.140680 147.358706
v 164.766770 -44.436374 147.489902
v 162.130689 -46.738781 146.669797
v 162.100780 -41.417885 146.719368
v 159.864465 -44.110263 146.011095
v 158.176132 -38.954187 145.933242
v 156.325632 -41.924987 144.815209
v 154.444391 -36.629700 145.490722
v 152.593891 -39.600500 143.729563
v 150.712650 -34.305214 144.948451
v 148.862151 -37.276013 143.226302
v 146.980910 -31.980727 144.306427
v 145.130410 -34.951526 142.623289
v 143.350543 -29.724409 143.584553
v 141.297295 -32.558870 141.901549
v 139.974850 -26.905348 143.041676
v 137.733864 -29.593839 141.520097
v 136.505288 -24.013301 142.668286
v 134.264302 -26.701792 141.158523
v 133.035725 -21.121255 142.211605
v 130.794739 -23.809745 140.713657
v 129.504387 -18.180034 141.724302
v 127.386953 -20.966873 140.196189
v 126.488002 -16.147725 141.030582
v 124.534648 -19.051930 139.582744
v 123.553657 -14.174099 140.192398
v 121.600303 -17.078304 138.809076
v 120.503881 -12.129173 139.150531
v 118.781388 -15.175978 138.068102
v 116.260743 -10.048588 138.115641
v 114.721872 -13.192133 137.138402
v 112.109416 -8.016373 137.229984
v 110.570545 -11.159917 136.228683
v 107.958090 -5.984157 136.385241
v 106.419218 -9.127702 135.359879
v 103.806763 -3.951942 135.581414
v 102.267891 -7.095487 134.531990
v 99.655436 -1.919727 134.850131
v 98.116564 -5.063271 133.921900
v 95.504109 0.112489 134.506710
v 93.965237 -3.031056 133.557434
v 91.352782 2.144704 134.198659
v 89.813910 -0.998841 133.222493
v 87.201455 4.176919 133.812150
v 85.662583 1.033374 132.885810
v 83.050128 6.209135 133.347184
v 81.511256 3.065590 132.466983
v 78.898801 8.241350 132.767444
v 77.359929 5.097805 131.850889
v 74.747282 10.273659 132.049455
v 73.208795 7.129926 131.141151
v 70.655137 12.275653 131.327909
v 69.117040 9.131729 130.427746
v 66.563186 14.277551 130.592883
v 65.025090 11.133627 129.700792
v 62.471236 16.279449 129.844343
v 60.933139 13.135525 128.960324
v 58.530583 18.197828 129.085827
v 56.689892 15.220941 128.097031
v 55.654343 20.490715 128.729062
v 53.481383 17.746951 127.606881
v 52.611968 22.900164 128.510336
v 50.439008 20.156399 127.186904
v 49.771248 25.122302 128.119231
v 47.194979 22.753158 126.783750
v 47.088023 28.918740 127.911101
v 44.235814 26.890218 126.479469
v 44.266828 32.885488 127.388621
v 41.414619 30.856966 125.880668
v 41.445633 36.852237 126.560623
v 38.593424 34.823715 125.194811
v 38.624439 40.818985 125.939195
v 35.772229 38.790463 124.691059
v 35.803244 44.785734 126.144839
v 32.951034 42.757211 124.641776
v 32.845384 48.921371 126.166479
v 30.266504 46.555071 124.638618
v 29.045026 52.150214 125.447794
v 26.786389 49.476535 123.985419
v 25.404789 55.225368 124.575873
v 23.146152 52.551689 123.135309
v 21.932612 58.138122 123.577530
v 19.337856 55.789241 122.047416
v 19.562284 61.676681 123.192662
v 16.662409 59.716905 121.366225
v 17.039397 65.409793 122.936120
v 14.139521 63.450017 121.089004
v 14.516509 69.142904 122.717724
v 11.616634 67.183129 120.882518
v 11.993622 72.876016 122.537475
v 9.093746 70.916240 120.714180
v 9.470734 76.609127 122.395372
v 6.570858 74.649352 120.583987
v 6.947847 80.342239 122.172520
v 4.047971 78.382463 120.491941
v 4.424959 84.075351 120.641702
v 1.525083 82.115575 119.515506
v 1.918719 87.783366 118.853881
v -1.014452 85.873782 117.963193
v 0.261702 90.469755 117.485076
v -2.716893 88.631829 117.195100
v -1.397455 93.157765 116.638057
v -4.417195 91.388254 116.453915
v -3.294432 96.538736 115.774371
v -6.346669 94.825888 115.595462
v -5.207659 99.948040 114.939769
v -8.259896 98.235191 114.780821
v -7.120885 103.357343 114.739103
v -10.173122 101.644494 114.276257
v -8.975623 106.652867 114.541264
v -12.144836 105.167577 114.058539
v -10.604665 110.793721 114.379722
v -13.860694 109.509871 113.876457
v -12.277115 115.035295 114.199687
v -15.533144 113.751445 113.684761
v -13.949564 119.276869 114.005469
v -17.205594 117.993019 113.478882
v -15.622014 123.518444 113.636380
v -18.878044 122.234593 113.065630
v -17.294464 127.760018 113.057521
v -20.550494 126.476168 112.160934
v -18.966914 132.001592 112.286770
v -22.222944 130.717742 111.010303
v -20.639364 136.243166 111.319998
v -23.895394 134.959316 110.101934
v -22.311814 140.484741 110.569081
v -25.567844 139.200890 109.435825
v -23.984264 144.726315 110.790757
v -27.240294 143.442464 109.489403
v -25.728241 149.125868 110.977785
v -28.841216 147.526060 109.640678
v -28.232260 152.991102 110.764094
v -31.165948 151.082314 109.419091
v -30.646635 156.701847 110.506877
v -33.580324 154.793059 109.145237
v -33.061011 160.412592 110.186920
v -35.994699 158.503804 108.823898
v -35.475386 164.123336 109.751302
v -38.409074 162.214548 108.437155
v -37.889761 167.834081 109.364958
v -40.823450 165.925293 108.113347
v -40.304137 171.544825 109.042729
v -43.237825 169.636037 107.913065
v -42.718512 175.255570 108.861651
v -45.652200 173.346782 107.742344
v -45.048288 178.821564 108.712804
v -48.151175 177.202277 107.598990
v -45.863369 181.256489 108.541796
v -49.173719 180.120011 107.721585
v -46.705122 183.613311 108.071848
v -50.169589 183.115849 107.086731
v -46.823857 188.083483 107.598719
v -50.322378 187.981735 106.457010
v -46.959618 192.751512 107.093222
v -50.458139 192.649764 105.847901
v -47.095380 197.419541 106.579677
v -50.593901 197.317792 105.230744
v -47.249815 202.296635 106.502834
v -50.710989 201.776756 105.072528
v -48.307472 205.352216 106.422738
v -51.603104 204.173737 105.019057
v -49.364219 208.270465 106.356705
v -52.496129 206.708051 105.002617
v -51.867300 212.505735 105.973428
v -54.878771 210.722187 104.673854
v -54.384419 216.745328 105.683130
v -57.247374 214.732000 104.436694
v -57.262651 220.175810 105.279107
v -59.940614 217.922255 104.048444
v -60.048387 223.486179 105.358544
v -62.726350 221.232624 103.787981
v -62.834123 226.796548 105.274118
v -65.512086 224.542993 103.690102
v -65.619859 230.106917 105.093788
v -68.297822 227.853362 103.496318
v -68.310678 233.293721 104.825900
v -71.178475 231.287296 103.197551
v -70.311252 236.811659 104.838721
v -73.350560 235.075972 103.167008
v -72.320447 240.313199 104.700555
v -75.514024 238.881045 103.058045
v -73.357171 243.596972 104.242843
v -76.691380 242.532525 102.770797
v -74.464210 247.064597 103.754088
v -77.798420 246.000151 102.282042
v -75.571250 250.000000 103.265332
v -78.905460 249.467777 101.793286
f 1 2 3 4
f 4 3 5 6
f 6 5 7 8
f 8 7 9 10
f 10 9 11 12
f 12 11 13 14
f 14 13 15 16
f 16 15 17 18
f 18 17 19 20
f 20 19 21 22
f 22 21 23 24
f 24 23 25 26
f 26 25 27 28
f 28 27 29 30
f 30 29 31 32
f 32 31 33 34
f 34 33 35 36
f 36 35 37 38
f 38 37 39 40
f 40 39 41 42
f 42 41 43 44
f 44 43 45 46
f 46 45 47 48
f 48 47 49 50
f 50 49 51 52
f 52 51 53 54
f 54 53 55 56
f 56 55 57 58
f 58 57 59 60
f 60 59 61 62
f 62 61 63 64
f 64 63 65 66
f 66 65 67 68
f 68 67 69 70
f 70 69 71 72
f 72 71 73 74
f 74 73 75 76
f 76 75 77 78
f 78 77 79 80
f 80 79 81 82
f 82 81 83 84
f 84 83 85 86
f 86 85 87 88
f 88 87 89 90
f 90 89 91 92
f 92 91 93 94
f 94 93 95 96
f 96 95 97 98
f 98 97 99 100
f 100 99 101 102
f 102 101 103 104
f 104 103 105 106
f 106 105 107 108
f 108 107 109 110
f 110 109 111 112
f 112 111 113 114
f 114 113 115 116
f 116 115 117 118
f 118 117 119 120
f 120 119 121 122
f 122 121 123 124
f 124 123 125 126
f 126 125 127 128
f 128 127 129 130
f 130 129 131 132
f 132 131 133 134
f 134 133 135 136
f 136 135 137 138
f 138 137 139 140
f 140 139 141 142
f 142 141 143 144
f 144 143 145 146
f 146 145 147 148
f 148 147 149 150
f 150 149 151 152
f 152 151 153 154
f 154 153 155 156
f 156 155 157 158
f 158 157 159 160
f 160 159 161 162
f 162 161 163 164
f 164 163 165 166
f 166 165 167 168
f 168 167 169 170
f 170 169 171 172
f 172 171 173 174
f 174 173 175 176
f 176 175 177 178
f 178 177 179 180
f 180 179 181 182
f 182 181 183 184
f 184 183 185 186
f 186 185 187 188
f 188 187 189 190
f 190 189 191 192
f 192 191 193 194
f 194 193 195 196
f 196 195 197 198
f 198 197 199 200
f 200 199 201 202
f 202 201 203 204
f 204 203 205 206
f 206 205 207 208
f 208 207 209 210
f 210 209 211 212
f 212 211 213 214
f 214 213 215 216
f 216 215 217 218
f 218 217 219 220
f 220 219 221 222
f 222 221 223 224
f 224 223 225 226
f 226 225 227 228
f 228 227 229 230
f 230 229 231 232
f 232 231 233 234
f 234 233 235 236
f 236 235 237 238
f 238 237 239 240
f 240 239 241 242
f 243 244 245 246
f 246 245 247 248
f 248 247 249 250
f 250 249 251 252
f 252 251 253 254
f 254 253 255 256
f 256 255 257 258
f 258 257 259 260
f 260 259 261 262
f 262 261 263 264
f 264 263 265 266
f 266 265 267 268
f 268 267 269 270
f 270 269 271 272
f 272 271 273 274
f 274 273 275 276
f 276 275 277 278
f 278 277 279 280
f 280 279 281 282
f 282 281 283 284
f 284 283 285 286
f 286 285 287 288
f 288 287 289 290
f 290 289 291 292
f 292 291 293 294
f 294 293 295 296
f 296 295 297 298
f 298 297 299 300
f 300 299 301 302
f 302 301 303 304
f 304 303 305 306
f 306 305 307 308
f 308 307 309 310
f 310 309 311 312
f 312 311 313 314
f 314 313 315 316
f 316 315 317 318
f 318 317 319 320
f 320 319 321 322
f 322 321 323 324
f 325 326 327 328
f 328 327 329 330
f 330 329 331 332
f 332 331 333 334
f 334 333 335 336
f 336 335 337 338
f 338 337 339 340
f 340 339 341 342
f 342 341 343 344
f 344 343 345 346
f 346 345 347 348
f 348 347 349 350
f 350 349 351 352
f 352 351 353 354
f 354 353 355 356
f 356 355 357 358
f 358 357 359 360
f 360 359 361 362
f 362 361 363 364
f 364 363 365 366
f 366 365 367 368
f 368 367 369 370
f 370 369 371 372
f 372 371 373 374
f 374 373 375 376
f 376 375 377 378
f 378 377 379 380
f 380 379 381 382
f 382 381 383 384
f 384 383 385 386
f 386 385 387 388
f 388 387 389 390
f 390 389 391 392
f 392 391 393 394
f 394 393 395 396
f 396 395 397 398
f 398 397 399 400
f 400 399 401 402
f 402 401 403 404
f 404 403 405 406
f 406 405 407 408
f 408 407 409 410
f 410 409 411 412
f 412 411 413 414
f 414 413 415 416
f 416 415 417 418
f 418 417 419 420
f 420 419 421 422
f 422 421 423 424
f 424 423 425 426
f 426 425 427 428
f 428 427 429 430
f 430 429 431 432
f 432 431 433 434
f 434 433 435 436
f 436 435 437 438
f 438 437 439 440
f 440 439 441 442
f 442 441 443 444
f 444 443 445 446
f 446 445 447 448
f 448 447 449 450
f 450 449 451 452
f 452 451 453 454
f 454 453 455 456
f 456 455 457 458
f 458 457 459 460
f 460 459 461 462
f 462 461 463 464
f 464 463 465 466
f 466 465 467 468
f 468 467 469 470
f 470 469 471 472
f 472 471 473 474
f 474 473 475 476
f 476 475 477 478
f 478 477 479 480
f 480 479 481 482
f 482 481 483 484
f 484 483 485 486
f 486 485 487 488
f 488 487 489 490
f 490 489 491 492
f 492 491 493 494
f 494 493 495 496
f 496 495 497 498
f 498 497 499 500
f 500 499 501 502
f 502 501 503 504
f 504 503 505 506
f 506 505 507 508
f 508 507 509 510
f 510 509 511 512
f 512 511 513 514
f 514 513 515 516
f 516 515 517 518
f 518 517 519 520
f 520 519 521 522
f 522 521 523 524
f 524 523 525 526
f 526 525 527 528
f 528 527 529 530
f 530 529 531 532
f 532 531 533 534
f 534 533 535 536
f 536 535 537 538
f 538 537 539 540
f 540 539 541 542
f 542 541 543 544
f 544 543 545 546
f 546 545 547 548
f 548 547 549 550
f 550 549 551 552
f 552 551 553 554
f 554 553 555 556
f 556 555 557 558
f 558 557 559 560
f 560 559 561 562
f 562 561 563 564
