# Generated terrain-following OSM road ribbon; model.sdf explicitly overrides this matte material.
mtllib alishan_shizhuo_roads.mtl
o alishan_shizhuo_road_track
usemtl road_track
v -157.249884 -48.078993 94.252938
v -158.135004 -49.646335 94.062613
v -154.084518 -51.933754 94.139995
v -153.199398 -50.366412 94.309890
v -150.034032 -54.221173 94.304933
v -149.148912 -52.653831 94.454398
v -145.983546 -56.508592 94.557428
v -145.098426 -54.941250 94.686463
v -141.933060 -58.796011 94.897480
v -141.047940 -57.228669 95.006084
v -137.882574 -61.083430 94.931235
v -136.997454 -59.516088 95.143964
v -133.832088 -63.370849 94.620596
v -132.946968 -61.803507 94.879730
v -129.781602 -65.658269 94.348864
v -128.896481 -64.090926 94.598919
v -125.731116 -67.945688 94.116038
v -124.845995 -66.378345 94.357015
v -121.680630 -70.233107 93.922118
v -120.795509 -68.665765 94.154017
v -117.630144 -72.520526 94.218057
v -116.745023 -70.953184 94.632003
v -113.579658 -74.807945 94.807358
v -112.694537 -73.240603 95.231465
v -109.529172 -77.095364 95.353116
v -108.644051 -75.528022 95.787383
v -105.478686 -79.382783 95.855330
v -104.593565 -77.815441 96.299758
v -101.139487 -81.773284 96.139631
v -100.831792 -79.999778 96.726206
v -97.420379 -80.735143 95.814231
v -97.947841 -79.014159 96.393673
v -94.118850 -79.723263 94.989145
v -94.646311 -78.002279 95.494557
v -90.390656 -78.428260 94.011622
v -91.771446 -77.273523 94.697463
v -88.738408 -73.410585 94.517694
v -90.455209 -72.869665 95.167591
v -87.254165 -68.699819 95.058176
v -88.970966 -68.158899 95.686218
v -85.769922 -63.989053 95.640612
v -87.486723 -63.448133 96.246800
v -84.285679 -59.278287 96.331730
v -86.002480 -58.737366 96.972632
v -82.801436 -54.567521 97.409227
v -84.518237 -54.026600 98.050311
v -81.446458 -50.113894 98.440817
v -82.904729 -49.058695 99.173203
v -77.616075 -47.402573 98.513872
v -78.670176 -45.943508 99.154077
v -73.583607 -44.489319 98.884270
v -74.637708 -43.030253 99.539946
v -69.551138 -41.576065 99.383897
v -70.605239 -40.116999 100.055043
v -65.518670 -38.662811 100.165475
v -66.572771 -37.203745 100.997221
v -61.486202 -35.749557 101.381406
v -62.540303 -34.290491 102.249155
v -57.383109 -32.779663 102.343739
v -58.578459 -31.433877 103.418195
v -54.199282 -29.276270 103.494664
v -55.532717 -28.067159 104.529176
v -51.084497 -25.841215 104.544386
v -52.417932 -24.632103 105.581933
v -47.969712 -22.406159 105.514399
v -49.303148 -21.197048 106.554978
v -44.854928 -18.971104 106.170066
v -46.188363 -17.761993 106.910567
v -41.740143 -15.536049 106.324879
v -43.073578 -14.326937 107.060942
v -38.625358 -12.100993 106.715382
v -39.958794 -10.891882 107.331497
v -35.510573 -8.665938 107.370539
v -36.844009 -7.456827 107.982359
v -32.395789 -5.230883 108.138574
v -33.729224 -4.021771 108.746099
v -29.434255 -1.930428 108.986485
v -30.461189 -0.452115 109.655968
v -25.989252 -0.768155 109.044077
v -26.580236 0.932062 109.566313
v -22.326274 0.505071 109.031255
v -22.917258 2.205288 109.348321
v -18.940015 1.728600 109.063570
v -18.977562 3.528209 109.290373
v -14.634795 0.651690 109.446189
v -14.209839 2.400807 109.676775
v -10.098324 -0.450467 109.805443
v -9.673368 1.298651 110.096544
v -5.560796 -1.552879 110.121465
v -5.137954 0.196751 110.570697
v -2.368765 -2.318505 110.419878
v -1.948934 -0.568150 110.841359
v 0.540459 -2.962716 110.770266
v 1.522893 -1.454465 111.230320
v 2.447013 -5.460831 110.685498
v 3.861218 -4.347267 111.157129
v 4.569453 -8.156289 110.605444
v 5.983658 -7.042726 111.076930
v 6.691893 -10.851748 110.524244
v 8.106098 -9.738184 110.995585
v 134.875499 249.353487 181.700743
v 133.623267 250.000000 181.532314
v 131.120191 248.222407 181.195642
v 132.372423 246.929381 181.364072
v 128.546496 245.721491 180.849472
v 129.939965 244.582086 181.036898
v 126.232527 242.247508 180.538236
v 127.731669 241.251229 180.739875
v 123.971394 238.845088 180.273793
v 125.470537 237.848809 180.548125
v 121.710139 235.442484 179.963680
v 123.209527 234.446573 180.272015
v 119.217476 231.687855 179.329016
v 120.717085 230.692279 179.755034
v 116.724924 227.933393 178.530074
v 118.224533 226.937817 178.993556
v 114.232372 224.178932 177.864011
v 115.731981 223.183355 178.305138
v 111.690043 220.339804 177.321978
v 113.289205 219.513559 177.856194
v 110.256566 216.480812 177.680080
v 111.944943 215.856806 178.310624
v 108.867696 212.722940 177.968464
v 110.556073 212.098934 178.660362
v 107.478827 208.965067 178.139939
v 109.167203 208.341061 178.893190
v 106.089957 205.207195 178.194504
v 107.778334 204.583189 179.009109
v 104.653024 201.255167 178.136732
v 106.437527 201.019472 179.000002
v 105.008116 197.020270 177.699207
v 106.801030 197.179831 178.584422
v 105.459868 192.658330 176.765704
v 107.067871 193.467235 177.720795
v 108.623712 189.845733 177.461311
v 109.797527 191.210343 178.365748
v 111.570462 187.310988 178.095465
v 112.744276 188.675598 179.002334
v 114.491517 184.799217 178.690056
v 115.716721 186.117881 179.609032
v 117.761150 181.558796 179.190191
v 119.028089 182.837414 180.116423
v 121.051649 178.298353 179.516219
v 122.318589 179.576971 180.804141
v 124.342149 175.037909 179.905538
v 125.609089 176.316528 181.193325
v 127.632649 171.777466 180.332942
v 128.899588 173.056084 181.620593
v 130.923149 168.517022 180.798430
v 132.190088 169.795641 182.085945
v 134.213649 165.256579 181.302002
v 135.480588 166.535197 182.589381
v 137.504149 161.996136 181.843658
v 138.771088 163.274754 183.130901
v 140.794649 158.735692 182.977100
v 142.061588 160.014311 183.950259
v 144.085149 155.475249 185.115324
v 145.352088 156.753867 186.083888
v 147.239213 152.388019 187.132589
v 148.779024 153.320210 188.268998
v 148.449177 148.269406 187.702187
v 150.172795 148.788195 188.928018
v 149.751046 143.944092 188.303147
v 151.474663 144.462881 189.517280
v 151.015695 139.836340 188.894806
v 152.813750 139.920005 190.106033
v 150.136989 135.656473 188.511719
v 151.900824 135.297465 189.718857
v 149.241174 131.255270 188.131306
v 151.005008 130.896261 189.335468
v 148.345358 126.854067 187.754045
v 150.109193 126.495058 188.955233
v 147.449542 122.452864 187.379937
v 149.213377 122.093855 188.578149
v 146.545676 118.006159 186.835619
v 148.325612 117.738153 187.967612
v 146.122214 113.636990 186.438264
v 147.913869 113.463865 187.490505
v 145.704612 109.315262 186.089316
v 147.496267 109.142137 187.050082
v 145.290842 104.787199 185.781449
v 147.074832 105.026744 186.659063
v 146.925674 100.196247 186.402074
v 148.618840 100.807139 187.168851
v 148.563056 95.681441 185.952068
v 150.160299 96.511388 186.830421
v 150.402095 93.544872 186.115713
v 151.755462 94.731631 186.987112
v 152.119197 91.586709 186.243440
v 153.472564 92.773468 187.111778
v 113.072937 219.241301 177.863440
v 111.906311 220.612062 177.365110
v 108.860334 218.019695 176.987514
v 110.026959 216.648934 177.579684
v 105.814356 215.427328 176.539774
v 106.980982 214.056567 177.119053
v 102.569606 212.594937 175.876345
v 104.133777 211.704224 176.519204
v 101.399450 207.707380 175.977727
v 103.153067 207.301391 176.711878
v 100.324017 203.062185 175.971590
v 102.077635 202.656196 176.792084
v 99.226998 198.267714 175.239203
v 101.023789 198.160278 176.113996
v 99.778145 193.878282 174.447611
v 101.563304 194.108950 175.341479
v 100.323477 189.657902 173.650952
v 102.108636 189.888569 174.518347
v 100.868808 185.437522 172.834342
v 102.653967 185.668189 173.684512
v 101.463667 181.017414 171.977880
v 103.149771 181.647536 172.869880
v 104.001792 177.046424 171.686206
v 105.514157 178.022514 172.695810
v 106.453048 173.248418 171.216750
v 107.965413 174.224507 172.210939
v 108.904303 169.450412 170.661645
v 110.416669 170.426501 171.640418
v 111.304332 165.742845 170.039751
v 112.919151 166.538056 170.964946
v 112.792457 161.554652 168.816027
v 114.487767 162.159569 169.661913
v 114.320827 157.271313 168.684319
v 116.016137 157.876229 169.239582
v 115.849197 152.987973 169.161377
v 117.544508 153.592890 169.686539
v 117.325388 148.989830 169.564743
v 119.125057 149.024354 170.080514
v 116.003634 144.915169 169.163976
v 117.721705 144.378295 169.615095
v 114.641081 140.554809 168.804550
v 116.359152 140.017935 169.223559
v 113.278528 136.194449 168.957373
v 114.996598 135.657575 169.507616
v 111.915974 131.834089 169.085384
v 113.634045 131.297216 169.693256
v 110.553421 127.473729 169.112096
v 112.271492 126.936856 169.777596
v 110.192888 123.733502 169.363182
v 109.906918 121.956363 169.428867
v 110.066426 127.727233 168.916203
v 108.296160 127.401413 168.327533
v 109.197816 132.446623 168.177681
v 107.427550 132.120803 167.657822
v 108.329205 137.166014 167.509053
v 106.558939 136.840194 167.058005
v 107.460595 141.885404 166.990525
v 105.690329 141.559584 166.557775
v 106.591985 146.604795 166.586289
v 104.821719 146.278975 166.115200
v 105.723374 151.324185 166.143110
v 103.953108 150.998365 165.633680
v 104.709824 156.392637 165.597848
v 103.229438 155.368694 165.178585
v 100.338212 159.108400 164.005858
v 99.412311 157.564799 163.870395
v 96.243842 161.564334 163.526402
v 95.317941 160.020733 162.813606
v 92.145016 164.022924 163.301411
v 91.228028 162.474011 162.624163
v 88.148769 166.356780 162.898208
v 87.241020 164.802434 162.256916
v 84.157141 168.687919 162.334863
v 83.249392 167.133573 161.728832
v 80.165513 171.019058 161.611009
v 79.257764 169.464713 160.939084
v 76.269899 173.285502 160.314196
v 75.170124 171.860548 159.571960
v 73.415388 176.226922 159.525105
v 72.126386 174.970548 158.727251
v 70.466263 179.252632 158.647371
v 69.177262 177.996258 157.848848
v 67.476393 182.317599 157.445716
v 66.268884 180.982712 156.817169
v 64.725125 184.444650 156.185931
v 63.625293 183.019740 155.611252
v 60.860709 186.469386 154.328211
v 62.094849 185.159082 154.914345
v 60.395775 181.053781 154.021777
v 62.194470 180.985259 154.877256
v 60.213119 176.259067 153.461620
v 62.011814 176.190545 154.279621
v 60.030463 171.464354 152.792186
v 61.829158 171.395832 153.580692
v 59.847807 166.669640 152.112483
v 61.646502 166.601118 152.887761
v 59.665150 161.874926 151.458603
v 61.463846 161.806404 152.200829
v 59.482494 157.080212 151.104024
v 61.281190 157.011691 151.842004
v 59.299838 152.285499 150.930533
v 61.098533 152.216977 151.675252
v 59.117182 147.490785 150.760545
v 60.915877 147.422263 151.503859
v 58.934526 142.696071 150.594061
v 60.733221 142.627549 151.327825
v 58.751863 137.833009 150.407607
v 60.550572 137.901184 151.136174
v 59.294890 133.194553 150.481440
v 61.082553 133.404932 151.264014
v 59.832394 128.627198 150.565968
v 61.620057 128.837577 151.397541
v 60.369898 124.059844 150.684724
v 62.157561 124.270223 151.536102
v 60.907402 119.492490 150.812431
v 62.695065 119.702869 151.673740
v 61.444906 114.925135 150.876470
v 63.232569 115.135514 151.723488
v 61.982410 110.357781 150.931795
v 63.770073 110.568160 151.764521
v 62.519914 105.790426 150.978405
v 64.307577 106.000806 151.796840
v 63.057418 101.223072 151.016300
v 64.845081 101.433451 151.820444
v 63.594922 96.655718 150.461770
v 65.382585 96.866097 151.257110
v 122.502803 235.843502 180.106617
v 122.416863 234.045555 180.119253
v 127.068150 233.823227 181.090981
v 127.154090 235.621174 180.978850
v 131.719437 233.600899 182.087373
v 131.805377 235.398846 181.875745
v 136.370724 233.378571 183.108428
v 136.456664 235.176518 182.797304
v 141.022010 233.156243 184.136602
v 141.107951 234.954190 183.731976
v 145.779804 232.935134 185.143459
v 145.652731 234.730643 184.630088
v 150.079614 233.798479 185.740842
v 149.722252 235.562648 185.133585
v 154.264279 234.646154 186.261400
v 153.906917 236.410323 185.596267
v 158.448944 235.493828 186.723960
v 158.091582 237.257997 186.000952
v 162.633609 236.341503 187.146308
v 162.276247 238.105672 186.408289
v 166.818274 237.189178 187.586301
v 166.460912 238.953347 186.870231
v 170.962731 238.029653 188.043410
v 170.685785 239.808220 187.359261
v 174.955811 238.456400 188.635492
v 174.764074 240.246159 188.069979
v 178.991496 238.888743 189.244282
v 178.799759 240.678501 188.840809
v 183.027181 239.321085 189.820848
v 182.835444 241.110844 189.570501
v 187.062866 239.753428 190.392592
v 186.871129 241.543187 190.282781
v 191.035986 240.181266 191.017859
v 190.969380 241.980034 191.006103
v 195.092989 240.050710 191.733901
v 195.149944 241.849808 191.743953
v 199.211772 239.920319 192.482808
v 199.268727 241.719418 192.470900
v 203.330555 239.789928 192.468592
v 203.387510 241.589027 192.406875
v 207.396960 239.662726 192.274197
v 207.558672 241.455447 192.169116
v 211.826236 239.023314 192.209737
v 212.082913 240.804920 191.911231
v 216.302994 238.378345 192.152545
v 216.559671 240.159950 191.656052
v 220.779752 237.733375 192.061984
v 221.036429 239.514981 191.498979
v 225.256510 237.088406 191.770610
v 225.513187 238.870011 191.222252
v 229.470884 236.523476 191.474391
v 230.252328 238.145002 190.929471
v 231.652410 234.032024 191.934706
v 232.983047 235.244213 191.445586
v 233.924849 231.643343 192.335425
v 235.622854 232.240654 191.970738
v 233.743636 228.057605 193.349206
v 235.542634 227.997530 193.140047
v 233.755179 224.599540 194.304631
v 235.269659 223.626734 194.371325
v 230.129435 222.497975 195.378592
v 231.065591 220.960570 195.684610
v 226.214529 220.114110 196.603652
v 227.150685 218.576706 197.081348
v 222.299623 217.730246 197.793366
v 223.235779 216.192842 198.173663
v 218.384717 215.346381 198.472721
v 219.320873 213.808977 198.767002
v 214.469811 212.962517 198.969684
v 215.405967 211.425113 199.252603
v 210.554905 210.578653 199.410648
v 211.491061 209.041248 199.682205
v 206.639999 208.194788 199.795613
v 207.576155 206.657384 200.055808
v 202.725093 205.810924 200.124579
v 203.661249 204.273519 200.373412
v 198.682169 203.332649 200.368599
v 199.874361 201.984065 200.622513
v 195.809085 199.695991 200.826932
v 197.225039 198.584651 201.172485
v 193.047883 196.177955 201.466257
v 194.463836 195.066615 201.832516
v 190.286680 192.659919 201.895270
v 191.702633 191.548579 202.282234
v 187.525477 189.141883 202.113971
v 188.941430 188.030544 202.521641
v 184.838955 185.707659 202.126316
v 186.105547 184.428696 202.547030
v 181.322668 182.999401 201.685543
v 182.423192 181.575025 202.069975
v 177.723347 180.218436 201.244886
v 178.823871 178.794060 201.753164
v 174.124026 177.437471 201.166666
v 175.224550 176.013095 201.672474
v 170.524705 174.656506 200.741728
v 171.625229 173.232130 201.207915
v 166.657440 171.538240 199.861873
v 168.293851 170.788466 200.427267
v 167.601490 167.941880 200.349231
v 169.308997 168.511458 200.956577
v 169.073780 164.465585 201.196454
v 169.795902 166.114384 201.365668
v 174.230684 164.838185 203.454530
v 174.061715 166.630236 203.063014
v 178.942043 165.282410 205.425047
v 178.773074 167.074462 204.873074
v 183.653402 165.726636 206.726118
v 183.484432 167.518688 206.155679
v 188.364761 166.170862 207.844589
v 188.195791 167.962914 207.267457
v 193.076119 166.615088 208.959712
v 192.907150 168.407140 208.375886
v 197.787478 167.059314 210.071487
v 197.618509 168.851366 209.480968
v 202.072703 167.566934 211.167886
v 202.756002 169.232197 210.867303
v 204.266162 164.427111 212.865671
v 205.706672 165.506431 212.994884
v 206.765952 161.107483 214.754370
v 208.351012 161.960469 215.009931
v 208.429262 156.686470 216.099574
v 210.112917 157.323105 216.607981
v 210.141869 152.157282 217.322700
v 211.825524 152.793917 217.860679
v 211.854476 147.628094 218.616025
v 213.538132 148.264729 219.183578
v 213.567083 143.098906 219.979552
v 215.250739 143.735541 220.576677
v 215.279691 138.569718 221.143221
v 216.963346 139.206353 221.873089
v 216.992298 134.040530 221.661843
v 218.675953 134.677165 222.337957
v 218.704905 129.511342 222.052865
v 220.388561 130.147977 222.663879
v 220.417512 124.982154 222.318061
v 222.101168 125.618789 222.885156
v 222.130120 120.452966 222.523624
v 223.813775 121.089601 223.079281
v 223.842727 115.923778 222.960560
v 225.526382 116.560413 223.400991
v 225.555334 111.394590 223.237700
v 227.238989 112.031225 223.595133
v 227.267941 106.865402 223.317820
v 228.951597 107.502037 223.592257
v -31.394473 -250.000000 56.563594
v -29.864095 -249.526201 56.724282
v -31.438832 -246.982988 56.558937
v -32.969210 -247.930586 56.398249
v -32.959131 -244.541806 56.399307
v -34.598385 -245.285343 56.227187
v -34.076767 -241.161258 56.281957
v -35.784999 -241.728659 56.102594
v -35.228892 -237.692641 56.398557
v -36.937124 -238.260042 56.103483
v -39.178720 -88.953312 88.181644
v -40.962507 -88.712268 87.710694
v -41.607894 -93.488290 86.945128
v -39.824106 -93.729334 87.159397
v -42.253280 -98.264312 86.170932
v -40.469493 -98.505356 86.304920
v -42.898667 -103.040334 85.850152
v -41.114879 -103.281378 86.056771
v -43.544053 -107.816356 85.763582
v -41.760266 -108.057400 86.016620
v -44.122503 -112.353114 85.655409
v -42.472589 -113.072686 85.931745
v -46.906882 -115.540108 85.125052
v -45.540348 -116.711681 85.360035
v -49.832951 -118.953102 84.459165
v -48.466417 -120.124675 84.706624
v -52.759021 -122.366096 83.722488
v -51.392486 -123.537670 84.022692
v -55.733418 -125.840694 82.763976
v -54.270228 -126.889061 83.114618
v -57.989202 -129.666151 81.751040
v -56.437953 -130.579183 82.181588
v -60.200957 -133.423941 80.606324
v -58.649708 -134.336973 81.030873
v -62.412712 -137.181730 79.841400
v -60.861463 -138.094762 79.928818
v -64.624466 -140.939520 79.044593
v -63.073218 -141.852552 79.218586
v 8.031877 -13.257336 110.345134
v 7.220217 -14.863950 109.900019
v 11.534482 -17.043513 110.327123
v 12.346142 -15.436899 110.772755
v 15.848746 -19.223075 110.752344
v 16.660406 -17.616461 111.198493
v 20.163010 -21.402638 111.367136
v 20.974670 -19.796024 111.630309
v 24.477274 -23.582200 112.080985
v 25.288934 -21.975586 112.328609
v 28.807868 -25.769806 112.752161
v 29.586869 -24.147106 113.007207
v 33.344761 -27.839178 113.423894
v 34.091686 -26.201465 113.688082
v 37.865616 -29.901044 114.048446
v 38.612542 -28.263331 114.326706
v 42.202488 -31.850632 114.614682
v 43.317380 -30.437474 114.959013
v 44.182809 -34.863327 114.618726
v 45.675122 -33.856847 114.975050
v 46.293256 -37.979101 114.578984
v 47.902736 -37.173140 114.916703
v 46.882912 -40.231818 114.470536
v 48.620665 -39.762549 114.686272
v 47.525449 -42.230181 115.029367
v 49.285712 -42.606313 115.371014
v 45.631739 -46.254222 115.686930
v 46.931821 -47.499127 116.176484
v 41.507611 -48.386715 115.527872
v 42.350061 -49.977399 116.015092
v 37.154667 -50.692097 115.376979
v 37.997116 -52.282782 115.845783
v 32.727229 -53.041647 115.250699
v 33.718666 -54.543996 115.723538
v 29.347367 -55.845916 115.383514
v 30.498456 -57.229749 115.853864
v 25.885726 -58.766501 115.538189
v 27.360025 -59.799188 115.976851
v 25.016767 -62.080965 115.460530
v 26.765869 -62.505982 115.672811
v 24.284402 -65.513264 114.967942
v 26.035118 -65.094942 115.286225
v 26.651144 -69.093283 114.958391
v 28.138956 -68.080162 115.308041
v 29.104661 -72.599864 115.016234
v 30.156019 -71.138821 115.341225
v 33.265186 -73.855128 115.632975
v 33.764312 -72.125714 115.872431
v 37.246611 -74.998479 116.253586
v 37.551704 -73.224523 116.445459
v 41.364961 -75.248121 116.917106
v 41.471455 -73.451274 117.067114
v 45.384012 -75.486318 117.431998
v 45.490506 -73.689471 117.606834
v 49.403063 -75.724515 117.940286
v 49.509556 -73.927668 118.139948
v 53.529155 -75.962679 118.455986
v 53.421565 -74.165897 118.651775
v 57.769545 -75.224059 119.108523
v 57.458253 -73.451181 119.298747
v 61.908084 -74.497391 119.812299
v 61.596792 -72.724513 120.007432
v 66.046623 -73.770723 120.570691
v 65.735331 -71.997845 120.759601
v 70.185162 -73.044055 121.323819
v 69.873870 -71.271177 121.506504
v 74.225673 -72.329101 122.054727
v 74.110436 -70.532794 122.264948
v 78.073570 -72.537304 122.636128
v 78.167975 -70.739782 122.873216
v 81.900825 -72.729420 123.411391
v 82.246155 -70.962857 123.717319
v 86.321006 -74.152294 124.386091
v 86.870288 -72.438150 124.739724
v 90.843163 -75.601378 125.382142
v 91.392444 -73.887234 125.736819
v 95.523920 -77.085878 126.412969
v 95.756000 -75.300902 126.695163
v 100.546632 -76.833057 127.815023
v 100.213706 -75.064114 127.905408
v 105.239933 -75.141466 129.744884
v 103.963905 -73.871918 129.390005
v 106.087845 -71.258770 130.334725
v 104.315133 -70.946534 129.770201
v 106.695768 -67.796055 130.767036
v 104.906350 -67.601168 130.240071
v 106.974723 -63.123633 131.149759
v 105.177897 -63.016776 130.686750
v 107.249973 -58.495225 131.285847
v 105.453148 -58.388368 130.845313
v 107.517843 -53.940131 130.966865
v 105.735780 -53.686646 130.491030
v 108.385666 -50.497704 130.907381
v 106.639670 -50.060101 130.406358
v 109.271523 -46.963218 130.864612
v 107.525527 -46.525614 130.345228
v 110.183914 -43.180928 130.830605
v 108.384849 -43.238931 130.316475
v 109.028061 -39.336931 130.375447
v 107.308500 -39.869015 129.757145
v 107.852523 -35.584373 130.757387
v 106.251836 -36.407659 130.111996
v 105.219924 -31.925217 130.662586
v 103.761173 -32.979753 130.012375
v 102.738713 -28.516232 130.545418
v 101.119122 -29.301676 129.893090
v 102.025889 -25.358728 130.919455
v 100.272838 -25.767154 130.290358
v 101.120159 -21.719961 131.317160
v 99.619461 -22.713896 130.690184
v 97.687764 -18.771904 131.028928
v 96.525892 -20.146696 130.496588
v 94.424781 -16.014275 130.907435
v 93.262910 -17.389068 130.370291
v 91.161799 -13.256647 130.817433
v 89.999927 -14.631439 130.278046
v 87.898817 -10.499018 130.758922
v 86.736945 -11.873811 130.217292
v 84.705360 -7.806773 130.730641
v 83.404438 -9.050800 130.189272
v 82.058390 -4.391021 131.005215
v 80.636805 -5.495149 130.475509
v 79.351089 -0.905320 131.272846
v 77.929504 -2.009448 130.641486
v 76.643787 2.580381 131.251252
v 75.222203 1.476254 130.714291
v 74.089397 5.767035 131.139476
v 72.361991 5.261002 130.621999
v 74.853974 8.495064 131.782789
v 73.102103 8.908522 131.405524
f 1 2 3 4
f 4 3 5 6
f 6 5 7 8
f 8 7 9 10
f 10 9 11 12
f 12 11 13 14
f 14 13 15 16
f 16 15 17 18
f 18 17 19 20
f 20 19 21 22
f 22 21 23 24
f 24 23 25 26
f 26 25 27 28
f 28 27 29 30
f 30 29 31 32
f 32 31 33 34
f 34 33 35 36
f 36 35 37 38
f 38 37 39 40
f 40 39 41 42
f 42 41 43 44
f 44 43 45 46
f 46 45 47 48
f 48 47 49 50
f 50 49 51 52
f 52 51 53 54
f 54 53 55 56
f 56 55 57 58
f 58 57 59 60
f 60 59 61 62
f 62 61 63 64
f 64 63 65 66
f 66 65 67 68
f 68 67 69 70
f 70 69 71 72
f 72 71 73 74
f 74 73 75 76
f 76 75 77 78
f 78 77 79 80
f 80 79 81 82
f 82 81 83 84
f 84 83 85 86
f 86 85 87 88
f 88 87 89 90
f 90 89 91 92
f 92 91 93 94
f 94 93 95 96
f 96 95 97 98
f 98 97 99 100
f 101 102 103 104
f 104 103 105 106
f 106 105 107 108
f 108 107 109 110
f 110 109 111 112
f 112 111 113 114
f 114 113 115 116
f 116 115 117 118
f 118 117 119 120
f 120 119 121 122
f 122 121 123 124
f 124 123 125 126
f 126 125 127 128
f 128 127 129 130
f 130 129 131 132
f 132 131 133 134
f 134 133 135 136
f 136 135 137 138
f 138 137 139 140
f 140 139 141 142
f 142 141 143 144
f 144 143 145 146
f 146 145 147 148
f 148 147 149 150
f 150 149 151 152
f 152 151 153 154
f 154 153 155 156
f 156 155 157 158
f 158 157 159 160
f 160 159 161 162
f 162 161 163 164
f 164 163 165 166
f 166 165 167 168
f 168 167 169 170
f 170 169 171 172
f 172 171 173 174
f 174 173 175 176
f 176 175 177 178
f 178 177 179 180
f 180 179 181 182
f 182 181 183 184
f 184 183 185 186
f 186 185 187 188
f 188 187 189 190
f 191 192 193 194
f 194 193 195 196
f 196 195 197 198
f 198 197 199 200
f 200 199 201 202
f 202 201 203 204
f 204 203 205 206
f 206 205 207 208
f 208 207 209 210
f 210 209 211 212
f 212 211 213 214
f 214 213 215 216
f 216 215 217 218
f 218 217 219 220
f 220 219 221 222
f 222 221 223 224
f 224 223 225 226
f 226 225 227 228
f 228 227 229 230
f 230 229 231 232
f 232 231 233 234
f 234 233 235 236
f 236 235 237 238
f 238 237 239 240
f 240 239 241 242
f 242 241 243 244
f 244 243 245 246
f 246 245 247 248
f 248 247 249 250
f 250 249 251 252
f 252 251 253 254
f 254 253 255 256
f 256 255 257 258
f 258 257 259 260
f 260 259 261 262
f 262 261 263 264
f 264 263 265 266
f 266 265 267 268
f 268 267 269 270
f 270 269 271 272
f 272 271 273 274
f 274 273 275 276
f 276 275 277 278
f 278 277 279 280
f 280 279 281 282
f 282 281 283 284
f 284 283 285 286
f 286 285 287 288
f 288 287 289 290
f 290 289 291 292
f 292 291 293 294
f 294 293 295 296
f 296 295 297 298
f 298 297 299 300
f 300 299 301 302
f 302 301 303 304
f 304 303 305 306
f 306 305 307 308
f 308 307 309 310
f 310 309 311 312
f 312 311 313 314
f 314 313 315 316
f 317 318 319 320
f 320 319 321 322
f 322 321 323 324
f 324 323 325 326
f 326 325 327 328
f 328 327 329 330
f 330 329 331 332
f 332 331 333 334
f 334 333 335 336
f 336 335 337 338
f 338 337 339 340
f 340 339 341 342
f 342 341 343 344
f 344 343 345 346
f 346 345 347 348
f 348 347 349 350
f 350 349 351 352
f 352 351 353 354
f 354 353 355 356
f 356 355 357 358
f 358 357 359 360
f 360 359 361 362
f 362 361 363 364
f 364 363 365 366
f 366 365 367 368
f 368 367 369 370
f 370 369 371 372
f 372 371 373 374
f 374 373 375 376
f 376 375 377 378
f 378 377 379 380
f 380 379 381 382
f 382 381 383 384
f 384 383 385 386
f 386 385 387 388
f 388 387 389 390
f 390 389 391 392
f 392 391 393 394
f 394 393 395 396
f 396 395 397 398
f 398 397 399 400
f 400 399 401 402
f 402 401 403 404
f 404 403 405 406
f 406 405 407 408
f 408 407 409 410
f 410 409 411 412
f 412 411 413 414
f 414 413 415 416
f 416 415 417 418
f 418 417 419 420
f 420 419 421 422
f 422 421 423 424
f 424 423 425 426
f 426 425 427 428
f 428 427 429 430
f 430 429 431 432
f 432 431 433 434
f 434 433 435 436
f 436 435 437 438
f 438 437 439 440
f 440 439 441 442
f 442 441 443 444
f 444 443 445 446
f 446 445 447 448
f 448 447 449 450
f 450 449 451 452
f 452 451 453 454
f 454 453 455 456
f 456 455 457 458
f 458 457 459 460
f 461 462 463 464
f 464 463 465 466
f 466 465 467 468
f 468 467 469 470
f 471 472 473 474
f 474 473 475 476
f 476 475 477 478
f 478 477 479 480
f 480 479 481 482
f 482 481 483 484
f 484 483 485 486
f 486 485 487 488
f 488 487 489 490
f 490 489 491 492
f 492 491 493 494
f 494 493 495 496
f 496 495 497 498
f 499 500 501 502
f 502 501 503 504
f 504 503 505 506
f 506 505 507 508
f 508 507 509 510
f 510 509 511 512
f 512 511 513 514
f 514 513 515 516
f 516 515 517 518
f 518 517 519 520
f 520 519 521 522
f 522 521 523 524
f 524 523 525 526
f 526 525 527 528
f 528 527 529 530
f 530 529 531 532
f 532 531 533 534
f 534 533 535 536
f 536 535 537 538
f 538 537 539 540
f 540 539 541 542
f 542 541 543 544
f 544 543 545 546
f 546 545 547 548
f 548 547 549 550
f 550 549 551 552
f 552 551 553 554
f 554 553 555 556
f 556 555 557 558
f 558 557 559 560
f 560 559 561 562
f 562 561 563 564
f 564 563 565 566
f 566 565 567 568
f 568 567 569 570
f 570 569 571 572
f 572 571 573 574
f 574 573 575 576
f 576 575 577 578
f 578 577 579 580
f 580 579 581 582
f 582 581 583 584
f 584 583 585 586
f 586 585 587 588
f 588 587 589 590
f 590 589 591 592
f 592 591 593 594
f 594 593 595 596
f 596 595 597 598
f 598 597 599 600
f 600 599 601 602
f 602 601 603 604
f 604 603 605 606
f 606 605 607 608
f 608 607 609 610
f 610 609 611 612
f 612 611 613 614
f 614 613 615 616
f 616 615 617 618
f 618 617 619 620
f 620 619 621 622
f 622 621 623 624
f 624 623 625 626
f 626 625 627 628
