# Generated terrain-following OSM road ribbon; model.sdf explicitly overrides this matte material.
mtllib alishan_shizhuo_roads.mtl
o alishan_shizhuo_road_footway
usemtl road_footway
v 58.578033 12.805026 128.257032
v 58.279584 12.171838 128.071257
v 61.978805 10.428234 128.811295
v 62.277254 11.061423 128.985649
v 65.678026 8.684631 129.481892
v 65.976476 9.317820 129.657750
v 69.377248 6.941027 130.141849
v 69.675697 7.574216 130.319209
v 73.076442 5.197437 130.791160
v 73.374946 5.830600 130.970032
v 77.423646 3.147562 131.540472
v 77.722196 3.780704 131.721118
v 81.770873 1.097677 132.168297
v 82.069424 1.730818 132.337717
v 86.118101 -0.952208 132.552050
v 86.416651 -0.319067 132.749344
v 90.465328 -3.002094 132.906438
v 90.763878 -2.368953 133.099987
v 94.812555 -5.051979 133.292013
v 95.111106 -4.418838 133.481816
v 99.159783 -7.101864 133.708775
v 99.458333 -6.468723 133.894833
v 103.501350 -9.149019 134.494619
v 103.811220 -8.521340 134.706451
v 107.331732 -11.136141 135.261201
v 107.654072 -10.514774 135.471266
v 111.168350 -13.126419 136.066049
v 111.490689 -12.505051 136.271889
v 115.004967 -15.116696 136.907930
v 115.327306 -14.495329 137.109545
v 118.812313 -17.089944 137.780286
v 119.193194 -16.502637 137.990765
v 122.214589 -19.792333 138.562959
v 122.649763 -19.244042 138.828056
v 125.644011 -22.514230 139.201358
v 126.079185 -21.965939 139.485663
v 129.073433 -25.236127 139.754886
v 129.508607 -24.687836 140.042079
v 132.502856 -27.958024 140.230931
v 132.938029 -27.409733 140.521011
v 135.932278 -30.679921 140.629491
v 136.367451 -30.131629 140.922460
v 139.361700 -33.401818 140.950567
v 139.796873 -32.853526 141.246424
v 142.811797 -36.138923 141.386063
v 143.205621 -35.560216 141.711209
v 146.844352 -38.494068 142.091304
v 147.197269 -37.889544 142.418490
v 150.856454 -40.836304 142.942516
v 151.209371 -40.231780 143.093387
v 154.868556 -43.178541 144.257578
v 155.221473 -42.574017 144.404093
v 158.803842 -45.460078 145.597609
v 159.310390 -44.976952 145.792203
v 161.089818 -49.703537 146.295010
v 161.705241 -49.369989 146.501839
v 163.409998 -53.977290 147.040000
v 164.065888 -53.732733 147.270547
v 163.967521 -57.412357 147.231081
v 164.658267 -57.298907 147.485745
v 164.591510 -61.042492 147.451823
v 165.184180 -60.670012 147.681039
v 167.874194 -63.641164 148.592702
v 168.305965 -63.090189 148.768590
f 1 2 3 4
f 4 3 5 6
f 6 5 7 8
f 8 7 9 10
f 10 9 11 12
f 12 11 13 14
f 14 13 15 16
f 16 15 17 18
f 18 17 19 20
f 20 19 21 22
f 22 21 23 24
f 24 23 25 26
f 26 25 27 28
f 28 27 29 30
f 30 29 31 32
f 32 31 33 34
f 34 33 35 36
f 36 35 37 38
f 38 37 39 40
f 40 39 41 42
f 42 41 43 44
f 44 43 45 46
f 46 45 47 48
f 48 47 49 50
f 50 49 51 52
f 52 51 53 54
f 54 53 55 56
f 56 55 57 58
f 58 57 59 60
f 60 59 61 62
f 62 61 63 64
