# Generated terrain-following OSM road ribbon; model.sdf explicitly overrides this matte material.
mtllib alishan_shizhuo_roads.mtl
o alishan_shizhuo_road_service
usemtl road_service
v 43.965237 -229.946134 94.020723
v 43.383674 -227.514718 94.918793
v 40.859313 -228.118512 94.825569
v 41.440876 -230.549928 93.989560
v 38.998356 -228.744846 94.259042
v 38.253110 -231.131184 93.147507
v 35.705601 -226.384798 93.786775
v 34.278278 -228.437296 92.451335
v 32.071807 -223.857830 93.453607
v 30.644484 -225.910328 92.071179
v 28.438014 -221.330862 93.344487
v 27.010691 -223.383360 91.915071
v 24.943856 -218.916697 93.067893
v 23.237262 -220.743590 91.998278
v 21.944498 -215.261731 92.836009
v 20.015464 -216.851961 92.018735
v 18.833920 -211.488434 92.284770
v 16.904887 -213.078664 90.651836
v 15.723342 -207.715137 91.216923
v 13.794309 -209.305366 89.617748
v 12.612764 -203.941840 90.488868
v 10.683731 -205.532069 88.923454
v 9.502187 -200.168542 90.100605
v 7.573153 -201.758772 88.568951
v 6.391609 -196.395245 90.152494
v 4.462575 -197.985474 88.619847
v 3.092049 -192.436733 90.624581
v 1.540980 -194.397392 89.092657
v -0.856938 -190.678905 90.006044
v -1.851315 -192.972639 88.252682
v -4.527579 -189.087614 89.037414
v -5.521956 -191.381348 87.217390
v -8.204619 -187.493570 88.181283
v -9.186198 -189.792810 86.297519
v -12.672457 -185.610441 87.259990
v -13.643440 -187.914176 85.296257
v -17.134997 -183.729560 86.503553
v -18.105980 -186.033294 84.457390
v -21.597537 -181.848678 86.258972
v -22.568520 -184.152412 84.455470
v -26.071614 -179.963001 86.570547
v -27.019522 -182.276326 84.859311
v -30.431541 -178.228860 86.078302
v -31.355468 -180.551867 85.038140
v -34.779477 -176.499560 85.567814
v -35.703404 -178.822567 84.723437
v -38.934456 -174.867067 85.056329
v -40.244297 -176.996461 84.128136
v -41.103953 -172.628782 84.884727
v -42.879271 -174.388966 83.582386
v -43.506189 -170.205892 84.376921
v -45.281507 -171.966076 83.074445
v -45.787952 -167.924059 83.869629
v -47.804214 -169.402128 82.522786
v -47.919177 -164.176405 83.786292
v -50.090036 -165.416313 82.415146
v -50.127701 -160.309670 83.664572
v -52.298560 -161.549578 82.282962
v -52.336224 -156.442936 82.752951
v -54.507083 -157.682843 81.646332
v -54.531729 -152.599571 81.817985
v -56.728625 -153.792738 80.713932
v -56.799365 -148.225150 80.910732
v -59.018818 -149.375814 79.814229
v -59.212960 -143.622640 79.993783
v -61.163050 -145.186977 79.335163
v -63.344396 -140.252343 79.295905
v -64.353289 -142.539729 78.952286
v -67.137849 -140.078430 78.745268
v -67.189027 -142.577906 78.470532
v -70.547148 -140.012212 78.247392
v -70.408922 -142.508388 77.936389
v -75.105211 -140.517964 77.486052
v -74.828462 -143.002598 77.109831
v -79.594012 -141.017944 76.699615
v -79.317264 -143.502579 76.234730
v -84.218967 -141.540761 76.192148
v -83.669912 -143.979724 75.730856
v -89.062203 -143.148025 75.482920
v -88.271870 -145.519812 75.062603
v -93.930809 -144.780816 74.779524
v -92.848459 -147.034373 74.413027
v -97.785443 -147.401364 73.972568
v -96.031710 -149.183054 73.752446
v -100.847714 -151.702518 72.965882
v -98.460533 -152.445057 72.939987
v -100.850447 -156.960263 71.924444
v -98.350598 -156.932764 72.073232
v -100.796846 -161.832989 71.068099
v -98.296997 -161.805490 71.214988
v -100.743245 -166.705715 70.390073
v -98.243397 -166.678217 70.503379
v -100.687628 -171.636983 69.708346
v -98.191812 -171.492401 69.796664
v -100.167347 -176.648089 69.107608
v -97.680781 -176.389264 69.049578
v -99.651690 -181.602074 68.434261
v -97.165124 -181.343249 68.279432
v -99.136034 -186.556058 67.694010
v -96.649468 -186.297234 67.561117
v -98.623631 -191.473621 66.968266
v -96.130558 -191.287641 66.846851
v -98.494538 -195.149697 66.444933
v -95.996100 -195.061310 66.326439
v -98.362762 -198.874570 65.916352
v -95.864325 -198.786183 65.814591
v -98.206376 -202.304576 65.489329
v -95.757161 -202.805923 65.285633
v -99.489178 -204.491733 65.329478
v -97.304382 -205.706914 65.032429
v -100.896099 -207.021484 64.879056
v -98.727483 -208.265310 64.857890
v -102.830416 -210.322180 64.083877
v -100.586279 -211.423927 64.509314
v -103.601492 -212.635411 63.686902
v -101.746548 -214.311473 63.953174
v -106.508954 -214.361189 62.870451
v -105.037335 -216.382163 63.027437
v -110.091577 -217.331531 61.849600
v -108.494895 -219.255227 62.049569
v -113.402846 -220.112827 60.940129
v -112.223809 -222.317339 60.511154
v -116.975870 -221.022898 60.002420
v -116.336717 -223.439814 59.561494
v -120.818836 -222.039171 59.216283
v -120.179683 -224.456087 58.841396
v -124.661802 -223.055444 58.868650
v -124.022649 -225.472359 58.515143
v -129.089428 -224.417124 58.464240
v -127.280955 -226.143225 58.282380
v -130.455146 -229.088869 57.739124
v -128.033901 -229.711422 57.722880
v -131.514478 -233.208840 57.128949
v -129.093233 -233.831393 57.089648
v -132.573811 -237.328810 56.540378
v -130.152566 -237.951364 56.478019
v -133.633143 -241.448781 56.168645
v -131.211898 -242.071335 56.179536
v -134.692475 -245.568752 56.163880
v -132.271230 -246.191306 56.174771
v -135.751807 -249.688723 56.159114
v -133.330562 -250.000000 56.170006
v -156.248937 -173.450958 65.009321
v -156.254201 -175.950953 64.660219
v -151.643880 -175.960659 64.509037
v -151.638617 -173.460665 64.769677
v -147.033560 -175.970366 64.358541
v -147.028296 -173.470371 64.530719
v -142.456644 -175.979556 64.209830
v -142.384570 -173.480595 64.290710
v -138.197555 -176.225144 64.249346
v -138.053939 -173.729272 64.364186
v -134.007507 -176.461800 64.511234
v -133.654267 -173.986881 64.789924
v -129.940811 -177.403565 64.628579
v -129.379404 -174.967416 65.054401
v -125.761749 -178.366594 64.639057
v -125.216907 -175.926687 65.198755
v -122.708457 -178.980996 64.598668
v -121.592642 -176.743820 65.238787
v -121.132542 -180.644761 64.232914
v -119.366368 -178.875403 64.840931
v -119.319254 -182.445070 64.041245
v -117.377466 -180.870440 64.777198
v -116.717901 -186.095899 63.922582
v -114.682657 -184.644080 64.665748
v -114.069820 -189.808134 63.858638
v -112.034575 -188.356315 64.612471
v -111.421739 -193.520368 63.851213
v -109.386494 -192.068549 64.615713
v -108.773657 -197.232603 63.900307
v -106.738413 -195.780784 64.675475
v -106.125576 -200.944837 64.078697
v -104.090331 -199.493018 64.791756
v -103.477495 -204.657072 64.451233
v -101.442250 -203.205253 65.119503
v -100.829413 -208.369307 64.759876
v -98.794169 -206.917487 65.012964
v -96.331693 -201.487588 65.484628
v -97.631844 -203.622912 65.301995
v -93.930592 -205.876520 64.749968
v -92.630441 -203.741196 64.961571
v -90.229340 -208.130129 64.100768
v -88.929190 -205.994805 64.341340
v -86.528089 -210.383738 63.354396
v -85.227938 -208.248414 63.623937
v -82.826837 -212.637346 62.510850
v -81.526686 -210.502022 62.809360
v -79.167986 -214.863955 61.609899
v -77.783034 -212.782631 61.994972
v -75.628463 -217.427327 60.558606
v -74.162537 -215.402219 60.968711
v -72.048452 -220.018807 59.254959
v -70.582527 -217.993699 59.709180
v -68.788941 -222.270577 58.224303
v -66.682018 -220.924889 58.204464
v -68.450866 -225.599522 57.457904
v -65.973832 -225.261433 57.304745
v -67.911293 -229.525966 56.588936
v -65.467144 -229.000478 56.600723
v -66.759575 -233.467285 55.787868
v -64.360505 -232.764105 55.951278
v -65.630396 -237.319758 55.125313
v -63.231326 -236.616579 55.404464
v -64.398138 -241.420879 54.784024
v -62.205227 -240.220404 55.026337
v -61.591004 -244.699622 55.094207
v -59.702702 -243.061233 55.275807
v -58.936175 -247.759408 55.290755
v -57.047873 -246.121020 55.327578
v -56.281346 -250.000000 55.342526
v -54.393045 -249.180806 55.379350
v 175.737235 -70.856992 150.780970
v 173.789901 -72.424759 150.058837
v 176.704837 -76.045421 150.595335
v 178.652171 -74.477655 151.301095
v 179.619772 -79.666084 150.992520
v 181.567106 -78.098318 151.455477
v 182.534708 -83.286747 150.410993
v 184.482042 -81.718981 151.074019
v 185.449643 -86.907410 149.692452
v 187.396977 -85.339643 150.351944
v 188.364579 -90.528072 148.943842
v 190.311913 -88.960306 149.599800
v 191.279514 -94.148735 148.165161
v 193.226848 -92.580969 148.817586
v 194.194450 -97.769398 147.356412
v 196.141783 -96.201632 148.005302
v 197.109385 -101.390061 146.796500
v 199.056719 -99.822294 147.162949
v 200.024320 -105.010723 146.712340
v 201.971654 -103.442957 146.914263
v 203.442829 -109.005740 146.505399
v 204.383016 -106.689267 146.730615
v 208.581937 -108.475365 146.798196
v 208.245763 -105.998071 146.930079
v 213.082865 -107.864580 147.040960
v 212.746691 -105.387286 147.125507
v 217.583792 -107.253795 147.259945
v 217.247618 -104.776500 147.297156
v 222.084720 -106.643010 147.592963
v 221.748546 -104.165715 147.610755
v 9.235612 32.156975 115.253903
v 9.667880 34.619321 115.611221
v 6.379928 35.196526 114.510313
v 5.947659 32.734181 114.192228
v 3.091975 35.773732 113.390428
v 2.659706 33.311387 113.111576
f 1 2 3 4
f 4 3 5 6
f 6 5 7 8
f 8 7 9 10
f 10 9 11 12
f 12 11 13 14
f 14 13 15 16
f 16 15 17 18
f 18 17 19 20
f 20 19 21 22
f 22 21 23 24
f 24 23 25 26
f 26 25 27 28
f 28 27 29 30
f 30 29 31 32
f 32 31 33 34
f 34 33 35 36
f 36 35 37 38
f 38 37 39 40
f 40 39 41 42
f 42 41 43 44
f 44 43 45 46
f 46 45 47 48
f 48 47 49 50
f 50 49 51 52
f 52 51 53 54
f 54 53 55 56
f 56 55 57 58
f 58 57 59 60
f 60 59 61 62
f 62 61 63 64
f 64 63 65 66
f 66 65 67 68
f 68 67 69 70
f 70 69 71 72
f 72 71 73 74
f 74 73 75 76
f 76 75 77 78
f 78 77 79 80
f 80 79 81 82
f 82 81 83 84
f 84 83 85 86
f 86 85 87 88
f 88 87 89 90
f 90 89 91 92
f 92 91 93 94
f 94 93 95 96
f 96 95 97 98
f 98 97 99 100
f 100 99 101 102
f 102 101 103 104
f 104 103 105 106
f 106 105 107 108
f 108 107 109 110
f 110 109 111 112
f 112 111 113 114
f 114 113 115 116
f 116 115 117 118
f 118 117 119 120
f 120 119 121 122
f 122 121 123 124
f 124 123 125 126
f 126 125 127 128
f 128 127 129 130
f 130 129 131 132
f 132 131 133 134
f 134 133 135 136
f 136 135 137 138
f 138 137 139 140
f 140 139 141 142
f 143 144 145 146
f 146 145 147 148
f 148 147 149 150
f 150 149 151 152
f 152 151 153 154
f 154 153 155 156
f 156 155 157 158
f 158 157 159 160
f 160 159 161 162
f 162 161 163 164
f 164 163 165 166
f 166 165 167 168
f 168 167 169 170
f 170 169 171 172
f 172 171 173 174
f 174 173 175 176
f 176 175 177 178
f 179 180 181 182
f 182 181 183 184
f 184 183 185 186
f 186 185 187 188
f 188 187 189 190
f 190 189 191 192
f 192 191 193 194
f 194 193 195 196
f 196 195 197 198
f 198 197 199 200
f 200 199 201 202
f 202 201 203 204
f 204 203 205 206
f 206 205 207 208
f 208 207 209 210
f 210 209 211 212
f 213 214 215 216
f 216 215 217 218
f 218 217 219 220
f 220 219 221 222
f 222 221 223 224
f 224 223 225 226
f 226 225 227 228
f 228 227 229 230
f 230 229 231 232
f 232 231 233 234
f 234 233 235 236
f 236 235 237 238
f 238 237 239 240
f 240 239 241 242
f 243 244 245 246
f 246 245 247 248
