<?xml version="1.0" encoding="UTF-8"?>
<COLLADA xmlns="http://www.collada.org/2005/11/COLLADASchema" version="1.4.1">
<asset><contributor><authoring_tool>Summit Estate procedural mesh exporter</authoring_tool></contributor><created>2026-09-11T00:00:00Z</created><modified>2026-09-11T00:00:00Z</modified><unit name="meter" meter="1"/><up_axis>Z_UP</up_axis></asset>
<library_geometries><geometry id="geometry" name="geometry"><mesh>
<source id="positions"><float_array id="positions-array" count="1812">-192.80000 -390.40000 32.59000 -192.00000 -390.40000 32.59000 -192.00000 -389.60000 32.59000 -192.80000 -389.60000 32.59000 -192.80000 -390.40000 32.71000 -192.00000 -390.40000 32.71000 -192.00000 -389.60000 32.71000 -192.80000 -389.60000 32.71000 -192.20000 -389.70000 29.40000 -192.12639 -389.70000 29.47500 -192.16319 -389.63625 29.47500 -192.23681 -389.63625 29.47500 -192.27361 -389.70000 29.47500 -192.23681 -389.76375 29.47500 -192.16319 -389.76375 29.47500 -192.12639 -389.70000 29.62500 -192.16319 -389.63625 29.62500 -192.23681 -389.63625 29.62500 -192.27361 -389.70000 29.62500 -192.23681 -389.76375 29.62500 -192.16319 -389.76375 29.62500 -192.20000 -389.70000 29.70000 -192.20000 -389.41000 29.46257 -192.12639 -389.41000 29.53757 -192.16319 -389.34625 29.53757 -192.23681 -389.34625 29.53757 -192.27361 -389.41000 29.53757 -192.23681 -389.47375 29.53757 -192.16319 -389.47375 29.53757 -192.12639 -389.41000 29.68757 -192.16319 -389.34625 29.68757 -192.23681 -389.34625 29.68757 -192.27361 -389.41000 29.68757 -192.23681 -389.47375 29.68757 -192.16319 -389.47375 29.68757 -192.20000 -389.41000 29.76257 -192.20000 -389.12000 29.52361 -192.12639 -389.12000 29.59861 -192.16319 -389.05625 29.59861 -192.23681 -389.05625 29.59861 -192.27361 -389.12000 29.59861 -192.23681 -389.18375 29.59861 -192.16319 -389.18375 29.59861 -192.12639 -389.12000 29.74861 -192.16319 -389.05625 29.74861 -192.23681 -389.05625 29.74861 -192.27361 -389.12000 29.74861 -192.23681 -389.18375 29.74861 -192.16319 -389.18375 29.74861 -192.20000 -389.12000 29.82361 -192.20000 -388.83000 29.58160 -192.12639 -388.83000 29.65660 -192.16319 -388.76625 29.65660 -192.23681 -388.76625 29.65660 -192.27361 -388.83000 29.65660 -192.23681 -388.89375 29.65660 -192.16319 -388.89375 29.65660 -192.12639 -388.83000 29.80660 -192.16319 -388.76625 29.80660 -192.23681 -388.76625 29.80660 -192.27361 -388.83000 29.80660 -192.23681 -388.89375 29.80660 -192.16319 -388.89375 29.80660 -192.20000 -388.83000 29.88160 -192.20000 -388.54000 29.63511 -192.12639 -388.54000 29.71011 -192.16319 -388.47625 29.71011 -192.23681 -388.47625 29.71011 -192.27361 -388.54000 29.71011 -192.23681 -388.60375 29.71011 -192.16319 -388.60375 29.71011 -192.12639 -388.54000 29.86011 -192.16319 -388.47625 29.86011 -192.23681 -388.47625 29.86011 -192.27361 -388.54000 29.86011 -192.23681 -388.60375 29.86011 -192.16319 -388.60375 29.86011 -192.20000 -388.54000 29.93511 -192.20000 -388.25000 29.68284 -192.12639 -388.25000 29.75784 -192.16319 -388.18625 29.75784 -192.23681 -388.18625 29.75784 -192.27361 -388.25000 29.75784 -192.23681 -388.31375 29.75784 -192.16319 -388.31375 29.75784 -192.12639 -388.25000 29.90784 -192.16319 -388.18625 29.90784 -192.23681 -388.18625 29.90784 -192.27361 -388.25000 29.90784 -192.23681 -388.31375 29.90784 -192.16319 -388.31375 29.90784 -192.20000 -388.25000 29.98284 -192.20000 -387.96000 29.72361 -192.12639 -387.96000 29.79861 -192.16319 -387.89625 29.79861 -192.23681 -387.89625 29.79861 -192.27361 -387.96000 29.79861 -192.23681 -388.02375 29.79861 -192.16319 -388.02375 29.79861 -192.12639 -387.96000 29.94861 -192.16319 -387.89625 29.94861 -192.23681 -387.89625 29.94861 -192.27361 -387.96000 29.94861 -192.23681 -388.02375 29.94861 -192.16319 -388.02375 29.94861 -192.20000 -387.96000 30.02361 -192.20000 -387.67000 29.75640 -192.12639 -387.67000 29.83140 -192.16319 -387.60625 29.83140 -192.23681 -387.60625 29.83140 -192.27361 -387.67000 29.83140 -192.23681 -387.73375 29.83140 -192.16319 -387.73375 29.83140 -192.12639 -387.67000 29.98140 -192.16319 -387.60625 29.98140 -192.23681 -387.60625 29.98140 -192.27361 -387.67000 29.98140 -192.23681 -387.73375 29.98140 -192.16319 -387.73375 29.98140 -192.20000 -387.67000 30.05640 -192.20000 -387.38000 29.78042 -192.12639 -387.38000 29.85542 -192.16319 -387.31625 29.85542 -192.23681 -387.31625 29.85542 -192.27361 -387.38000 29.85542 -192.23681 -387.44375 29.85542 -192.16319 -387.44375 29.85542 -192.12639 -387.38000 30.00542 -192.16319 -387.31625 30.00542 -192.23681 -387.31625 30.00542 -192.27361 -387.38000 30.00542 -192.23681 -387.44375 30.00542 -192.16319 -387.44375 30.00542 -192.20000 -387.38000 30.08042 -192.20000 -387.09000 29.79508 -192.12639 -387.09000 29.87008 -192.16319 -387.02625 29.87008 -192.23681 -387.02625 29.87008 -192.27361 -387.09000 29.87008 -192.23681 -387.15375 29.87008 -192.16319 -387.15375 29.87008 -192.12639 -387.09000 30.02008 -192.16319 -387.02625 30.02008 -192.23681 -387.02625 30.02008 -192.27361 -387.09000 30.02008 -192.23681 -387.15375 30.02008 -192.16319 -387.15375 30.02008 -192.20000 -387.09000 30.09508 -192.20000 -386.80000 29.80000 -192.12639 -386.80000 29.87500 -192.16319 -386.73625 29.87500 -192.23681 -386.73625 29.87500 -192.27361 -386.80000 29.87500 -192.23681 -386.86375 29.87500 -192.16319 -386.86375 29.87500 -192.12639 -386.80000 30.02500 -192.16319 -386.73625 30.02500 -192.23681 -386.73625 30.02500 -192.27361 -386.80000 30.02500 -192.23681 -386.86375 30.02500 -192.16319 -386.86375 30.02500 -192.20000 -386.80000 30.10000 -192.20000 -386.51000 29.79508 -192.12639 -386.51000 29.87008 -192.16319 -386.44625 29.87008 -192.23681 -386.44625 29.87008 -192.27361 -386.51000 29.87008 -192.23681 -386.57375 29.87008 -192.16319 -386.57375 29.87008 -192.12639 -386.51000 30.02008 -192.16319 -386.44625 30.02008 -192.23681 -386.44625 30.02008 -192.27361 -386.51000 30.02008 -192.23681 -386.57375 30.02008 -192.16319 -386.57375 30.02008 -192.20000 -386.51000 30.09508 -192.20000 -386.22000 29.78042 -192.12639 -386.22000 29.85542 -192.16319 -386.15625 29.85542 -192.23681 -386.15625 29.85542 -192.27361 -386.22000 29.85542 -192.23681 -386.28375 29.85542 -192.16319 -386.28375 29.85542 -192.12639 -386.22000 30.00542 -192.16319 -386.15625 30.00542 -192.23681 -386.15625 30.00542 -192.27361 -386.22000 30.00542 -192.23681 -386.28375 30.00542 -192.16319 -386.28375 30.00542 -192.20000 -386.22000 30.08042 -192.20000 -385.93000 29.75640 -192.12639 -385.93000 29.83140 -192.16319 -385.86625 29.83140 -192.23681 -385.86625 29.83140 -192.27361 -385.93000 29.83140 -192.23681 -385.99375 29.83140 -192.16319 -385.99375 29.83140 -192.12639 -385.93000 29.98140 -192.16319 -385.86625 29.98140 -192.23681 -385.86625 29.98140 -192.27361 -385.93000 29.98140 -192.23681 -385.99375 29.98140 -192.16319 -385.99375 29.98140 -192.20000 -385.93000 30.05640 -192.20000 -385.64000 29.72361 -192.12639 -385.64000 29.79861 -192.16319 -385.57625 29.79861 -192.23681 -385.57625 29.79861 -192.27361 -385.64000 29.79861 -192.23681 -385.70375 29.79861 -192.16319 -385.70375 29.79861 -192.12639 -385.64000 29.94861 -192.16319 -385.57625 29.94861 -192.23681 -385.57625 29.94861 -192.27361 -385.64000 29.94861 -192.23681 -385.70375 29.94861 -192.16319 -385.70375 29.94861 -192.20000 -385.64000 30.02361 -192.20000 -385.35000 29.68284 -192.12639 -385.35000 29.75784 -192.16319 -385.28625 29.75784 -192.23681 -385.28625 29.75784 -192.27361 -385.35000 29.75784 -192.23681 -385.41375 29.75784 -192.16319 -385.41375 29.75784 -192.12639 -385.35000 29.90784 -192.16319 -385.28625 29.90784 -192.23681 -385.28625 29.90784 -192.27361 -385.35000 29.90784 -192.23681 -385.41375 29.90784 -192.16319 -385.41375 29.90784 -192.20000 -385.35000 29.98284 -192.20000 -385.06000 29.63511 -192.12639 -385.06000 29.71011 -192.16319 -384.99625 29.71011 -192.23681 -384.99625 29.71011 -192.27361 -385.06000 29.71011 -192.23681 -385.12375 29.71011 -192.16319 -385.12375 29.71011 -192.12639 -385.06000 29.86011 -192.16319 -384.99625 29.86011 -192.23681 -384.99625 29.86011 -192.27361 -385.06000 29.86011 -192.23681 -385.12375 29.86011 -192.16319 -385.12375 29.86011 -192.20000 -385.06000 29.93511 -192.20000 -384.77000 29.58160 -192.12639 -384.77000 29.65660 -192.16319 -384.70625 29.65660 -192.23681 -384.70625 29.65660 -192.27361 -384.77000 29.65660 -192.23681 -384.83375 29.65660 -192.16319 -384.83375 29.65660 -192.12639 -384.77000 29.80660 -192.16319 -384.70625 29.80660 -192.23681 -384.70625 29.80660 -192.27361 -384.77000 29.80660 -192.23681 -384.83375 29.80660 -192.16319 -384.83375 29.80660 -192.20000 -384.77000 29.88160 -192.20000 -384.48000 29.52361 -192.12639 -384.48000 29.59861 -192.16319 -384.41625 29.59861 -192.23681 -384.41625 29.59861 -192.27361 -384.48000 29.59861 -192.23681 -384.54375 29.59861 -192.16319 -384.54375 29.59861 -192.12639 -384.48000 29.74861 -192.16319 -384.41625 29.74861 -192.23681 -384.41625 29.74861 -192.27361 -384.48000 29.74861 -192.23681 -384.54375 29.74861 -192.16319 -384.54375 29.74861 -192.20000 -384.48000 29.82361 -192.20000 -384.19000 29.46257 -192.12639 -384.19000 29.53757 -192.16319 -384.12625 29.53757 -192.23681 -384.12625 29.53757 -192.27361 -384.19000 29.53757 -192.23681 -384.25375 29.53757 -192.16319 -384.25375 29.53757 -192.12639 -384.19000 29.68757 -192.16319 -384.12625 29.68757 -192.23681 -384.12625 29.68757 -192.27361 -384.19000 29.68757 -192.23681 -384.25375 29.68757 -192.16319 -384.25375 29.68757 -192.20000 -384.19000 29.76257 -192.20000 -383.90000 29.40000 -192.12639 -383.90000 29.47500 -192.16319 -383.83625 29.47500 -192.23681 -383.83625 29.47500 -192.27361 -383.90000 29.47500 -192.23681 -383.96375 29.47500 -192.16319 -383.96375 29.47500 -192.12639 -383.90000 29.62500 -192.16319 -383.83625 29.62500 -192.23681 -383.83625 29.62500 -192.27361 -383.90000 29.62500 -192.23681 -383.96375 29.62500 -192.16319 -383.96375 29.62500 -192.20000 -383.90000 29.70000 -178.00000 -390.40000 32.59000 -177.20000 -390.40000 32.59000 -177.20000 -389.60000 32.59000 -178.00000 -389.60000 32.59000 -178.00000 -390.40000 32.71000 -177.20000 -390.40000 32.71000 -177.20000 -389.60000 32.71000 -178.00000 -389.60000 32.71000 -177.80000 -389.70000 29.40000 -177.72639 -389.70000 29.47500 -177.76319 -389.63625 29.47500 -177.83681 -389.63625 29.47500 -177.87361 -389.70000 29.47500 -177.83681 -389.76375 29.47500 -177.76319 -389.76375 29.47500 -177.72639 -389.70000 29.62500 -177.76319 -389.63625 29.62500 -177.83681 -389.63625 29.62500 -177.87361 -389.70000 29.62500 -177.83681 -389.76375 29.62500 -177.76319 -389.76375 29.62500 -177.80000 -389.70000 29.70000 -177.80000 -389.41000 29.46257 -177.72639 -389.41000 29.53757 -177.76319 -389.34625 29.53757 -177.83681 -389.34625 29.53757 -177.87361 -389.41000 29.53757 -177.83681 -389.47375 29.53757 -177.76319 -389.47375 29.53757 -177.72639 -389.41000 29.68757 -177.76319 -389.34625 29.68757 -177.83681 -389.34625 29.68757 -177.87361 -389.41000 29.68757 -177.83681 -389.47375 29.68757 -177.76319 -389.47375 29.68757 -177.80000 -389.41000 29.76257 -177.80000 -389.12000 29.52361 -177.72639 -389.12000 29.59861 -177.76319 -389.05625 29.59861 -177.83681 -389.05625 29.59861 -177.87361 -389.12000 29.59861 -177.83681 -389.18375 29.59861 -177.76319 -389.18375 29.59861 -177.72639 -389.12000 29.74861 -177.76319 -389.05625 29.74861 -177.83681 -389.05625 29.74861 -177.87361 -389.12000 29.74861 -177.83681 -389.18375 29.74861 -177.76319 -389.18375 29.74861 -177.80000 -389.12000 29.82361 -177.80000 -388.83000 29.58160 -177.72639 -388.83000 29.65660 -177.76319 -388.76625 29.65660 -177.83681 -388.76625 29.65660 -177.87361 -388.83000 29.65660 -177.83681 -388.89375 29.65660 -177.76319 -388.89375 29.65660 -177.72639 -388.83000 29.80660 -177.76319 -388.76625 29.80660 -177.83681 -388.76625 29.80660 -177.87361 -388.83000 29.80660 -177.83681 -388.89375 29.80660 -177.76319 -388.89375 29.80660 -177.80000 -388.83000 29.88160 -177.80000 -388.54000 29.63511 -177.72639 -388.54000 29.71011 -177.76319 -388.47625 29.71011 -177.83681 -388.47625 29.71011 -177.87361 -388.54000 29.71011 -177.83681 -388.60375 29.71011 -177.76319 -388.60375 29.71011 -177.72639 -388.54000 29.86011 -177.76319 -388.47625 29.86011 -177.83681 -388.47625 29.86011 -177.87361 -388.54000 29.86011 -177.83681 -388.60375 29.86011 -177.76319 -388.60375 29.86011 -177.80000 -388.54000 29.93511 -177.80000 -388.25000 29.68284 -177.72639 -388.25000 29.75784 -177.76319 -388.18625 29.75784 -177.83681 -388.18625 29.75784 -177.87361 -388.25000 29.75784 -177.83681 -388.31375 29.75784 -177.76319 -388.31375 29.75784 -177.72639 -388.25000 29.90784 -177.76319 -388.18625 29.90784 -177.83681 -388.18625 29.90784 -177.87361 -388.25000 29.90784 -177.83681 -388.31375 29.90784 -177.76319 -388.31375 29.90784 -177.80000 -388.25000 29.98284 -177.80000 -387.96000 29.72361 -177.72639 -387.96000 29.79861 -177.76319 -387.89625 29.79861 -177.83681 -387.89625 29.79861 -177.87361 -387.96000 29.79861 -177.83681 -388.02375 29.79861 -177.76319 -388.02375 29.79861 -177.72639 -387.96000 29.94861 -177.76319 -387.89625 29.94861 -177.83681 -387.89625 29.94861 -177.87361 -387.96000 29.94861 -177.83681 -388.02375 29.94861 -177.76319 -388.02375 29.94861 -177.80000 -387.96000 30.02361 -177.80000 -387.67000 29.75640 -177.72639 -387.67000 29.83140 -177.76319 -387.60625 29.83140 -177.83681 -387.60625 29.83140 -177.87361 -387.67000 29.83140 -177.83681 -387.73375 29.83140 -177.76319 -387.73375 29.83140 -177.72639 -387.67000 29.98140 -177.76319 -387.60625 29.98140 -177.83681 -387.60625 29.98140 -177.87361 -387.67000 29.98140 -177.83681 -387.73375 29.98140 -177.76319 -387.73375 29.98140 -177.80000 -387.67000 30.05640 -177.80000 -387.38000 29.78042 -177.72639 -387.38000 29.85542 -177.76319 -387.31625 29.85542 -177.83681 -387.31625 29.85542 -177.87361 -387.38000 29.85542 -177.83681 -387.44375 29.85542 -177.76319 -387.44375 29.85542 -177.72639 -387.38000 30.00542 -177.76319 -387.31625 30.00542 -177.83681 -387.31625 30.00542 -177.87361 -387.38000 30.00542 -177.83681 -387.44375 30.00542 -177.76319 -387.44375 30.00542 -177.80000 -387.38000 30.08042 -177.80000 -387.09000 29.79508 -177.72639 -387.09000 29.87008 -177.76319 -387.02625 29.87008 -177.83681 -387.02625 29.87008 -177.87361 -387.09000 29.87008 -177.83681 -387.15375 29.87008 -177.76319 -387.15375 29.87008 -177.72639 -387.09000 30.02008 -177.76319 -387.02625 30.02008 -177.83681 -387.02625 30.02008 -177.87361 -387.09000 30.02008 -177.83681 -387.15375 30.02008 -177.76319 -387.15375 30.02008 -177.80000 -387.09000 30.09508 -177.80000 -386.80000 29.80000 -177.72639 -386.80000 29.87500 -177.76319 -386.73625 29.87500 -177.83681 -386.73625 29.87500 -177.87361 -386.80000 29.87500 -177.83681 -386.86375 29.87500 -177.76319 -386.86375 29.87500 -177.72639 -386.80000 30.02500 -177.76319 -386.73625 30.02500 -177.83681 -386.73625 30.02500 -177.87361 -386.80000 30.02500 -177.83681 -386.86375 30.02500 -177.76319 -386.86375 30.02500 -177.80000 -386.80000 30.10000 -177.80000 -386.51000 29.79508 -177.72639 -386.51000 29.87008 -177.76319 -386.44625 29.87008 -177.83681 -386.44625 29.87008 -177.87361 -386.51000 29.87008 -177.83681 -386.57375 29.87008 -177.76319 -386.57375 29.87008 -177.72639 -386.51000 30.02008 -177.76319 -386.44625 30.02008 -177.83681 -386.44625 30.02008 -177.87361 -386.51000 30.02008 -177.83681 -386.57375 30.02008 -177.76319 -386.57375 30.02008 -177.80000 -386.51000 30.09508 -177.80000 -386.22000 29.78042 -177.72639 -386.22000 29.85542 -177.76319 -386.15625 29.85542 -177.83681 -386.15625 29.85542 -177.87361 -386.22000 29.85542 -177.83681 -386.28375 29.85542 -177.76319 -386.28375 29.85542 -177.72639 -386.22000 30.00542 -177.76319 -386.15625 30.00542 -177.83681 -386.15625 30.00542 -177.87361 -386.22000 30.00542 -177.83681 -386.28375 30.00542 -177.76319 -386.28375 30.00542 -177.80000 -386.22000 30.08042 -177.80000 -385.93000 29.75640 -177.72639 -385.93000 29.83140 -177.76319 -385.86625 29.83140 -177.83681 -385.86625 29.83140 -177.87361 -385.93000 29.83140 -177.83681 -385.99375 29.83140 -177.76319 -385.99375 29.83140 -177.72639 -385.93000 29.98140 -177.76319 -385.86625 29.98140 -177.83681 -385.86625 29.98140 -177.87361 -385.93000 29.98140 -177.83681 -385.99375 29.98140 -177.76319 -385.99375 29.98140 -177.80000 -385.93000 30.05640 -177.80000 -385.64000 29.72361 -177.72639 -385.64000 29.79861 -177.76319 -385.57625 29.79861 -177.83681 -385.57625 29.79861 -177.87361 -385.64000 29.79861 -177.83681 -385.70375 29.79861 -177.76319 -385.70375 29.79861 -177.72639 -385.64000 29.94861 -177.76319 -385.57625 29.94861 -177.83681 -385.57625 29.94861 -177.87361 -385.64000 29.94861 -177.83681 -385.70375 29.94861 -177.76319 -385.70375 29.94861 -177.80000 -385.64000 30.02361 -177.80000 -385.35000 29.68284 -177.72639 -385.35000 29.75784 -177.76319 -385.28625 29.75784 -177.83681 -385.28625 29.75784 -177.87361 -385.35000 29.75784 -177.83681 -385.41375 29.75784 -177.76319 -385.41375 29.75784 -177.72639 -385.35000 29.90784 -177.76319 -385.28625 29.90784 -177.83681 -385.28625 29.90784 -177.87361 -385.35000 29.90784 -177.83681 -385.41375 29.90784 -177.76319 -385.41375 29.90784 -177.80000 -385.35000 29.98284 -177.80000 -385.06000 29.63511 -177.72639 -385.06000 29.71011 -177.76319 -384.99625 29.71011 -177.83681 -384.99625 29.71011 -177.87361 -385.06000 29.71011 -177.83681 -385.12375 29.71011 -177.76319 -385.12375 29.71011 -177.72639 -385.06000 29.86011 -177.76319 -384.99625 29.86011 -177.83681 -384.99625 29.86011 -177.87361 -385.06000 29.86011 -177.83681 -385.12375 29.86011 -177.76319 -385.12375 29.86011 -177.80000 -385.06000 29.93511 -177.80000 -384.77000 29.58160 -177.72639 -384.77000 29.65660 -177.76319 -384.70625 29.65660 -177.83681 -384.70625 29.65660 -177.87361 -384.77000 29.65660 -177.83681 -384.83375 29.65660 -177.76319 -384.83375 29.65660 -177.72639 -384.77000 29.80660 -177.76319 -384.70625 29.80660 -177.83681 -384.70625 29.80660 -177.87361 -384.77000 29.80660 -177.83681 -384.83375 29.80660 -177.76319 -384.83375 29.80660 -177.80000 -384.77000 29.88160 -177.80000 -384.48000 29.52361 -177.72639 -384.48000 29.59861 -177.76319 -384.41625 29.59861 -177.83681 -384.41625 29.59861 -177.87361 -384.48000 29.59861 -177.83681 -384.54375 29.59861 -177.76319 -384.54375 29.59861 -177.72639 -384.48000 29.74861 -177.76319 -384.41625 29.74861 -177.83681 -384.41625 29.74861 -177.87361 -384.48000 29.74861 -177.83681 -384.54375 29.74861 -177.76319 -384.54375 29.74861 -177.80000 -384.48000 29.82361 -177.80000 -384.19000 29.46257 -177.72639 -384.19000 29.53757 -177.76319 -384.12625 29.53757 -177.83681 -384.12625 29.53757 -177.87361 -384.19000 29.53757 -177.83681 -384.25375 29.53757 -177.76319 -384.25375 29.53757 -177.72639 -384.19000 29.68757 -177.76319 -384.12625 29.68757 -177.83681 -384.12625 29.68757 -177.87361 -384.19000 29.68757 -177.83681 -384.25375 29.68757 -177.76319 -384.25375 29.68757 -177.80000 -384.19000 29.76257 -177.80000 -383.90000 29.40000 -177.72639 -383.90000 29.47500 -177.76319 -383.83625 29.47500 -177.83681 -383.83625 29.47500 -177.87361 -383.90000 29.47500 -177.83681 -383.96375 29.47500 -177.76319 -383.96375 29.47500 -177.72639 -383.90000 29.62500 -177.76319 -383.83625 29.62500 -177.83681 -383.83625 29.62500 -177.87361 -383.90000 29.62500 -177.83681 -383.96375 29.62500 -177.76319 -383.96375 29.62500 -177.80000 -383.90000 29.70000</float_array><technique_common><accessor source="#positions-array" count="604" stride="3"><param name="X" type="float"/><param name="Y" type="float"/><param name="Z" type="float"/></accessor></technique_common></source>
<source id="normals"><float_array id="normals-array" count="3096">0.00000 0.00000 -1.00000 0.00000 0.00000 -1.00000 0.00000 0.00000 1.00000 0.00000 0.00000 1.00000 0.00000 -1.00000 0.00000 0.00000 -1.00000 0.00000 1.00000 0.00000 0.00000 1.00000 0.00000 0.00000 0.00000 1.00000 0.00000 0.00000 1.00000 -0.00000 -1.00000 0.00000 0.00000 -1.00000 0.00000 0.00000 0.65986 0.38097 -0.64765 0.86603 0.50000 0.00000 0.86603 0.50000 -0.00000 0.65986 0.38097 0.64765 0.00000 0.76194 -0.64765 0.00000 1.00000 0.00000 0.00000 1.00000 -0.00000 0.00000 0.76194 0.64765 -0.65986 0.38097 -0.64765 -0.86603 0.50000 0.00000 -0.86603 0.50000 0.00000 -0.65986 0.38097 0.64765 -0.65986 -0.38097 -0.64765 -0.86603 -0.50000 0.00000 -0.86603 -0.50000 0.00000 -0.65986 -0.38097 0.64765 0.00000 -0.76194 -0.64765 0.00000 -1.00000 0.00000 0.00000 -1.00000 0.00000 0.00000 -0.76194 0.64765 0.65986 -0.38097 -0.64765 0.86603 -0.50000 0.00000 0.86603 -0.50000 0.00000 0.65986 -0.38097 0.64765 0.65986 0.38097 -0.64765 0.86603 0.50000 0.00000 0.86603 0.50000 -0.00000 0.65986 0.38097 0.64765 0.00000 0.76194 -0.64765 0.00000 1.00000 0.00000 0.00000 1.00000 -0.00000 0.00000 0.76194 0.64765 -0.65986 0.38097 -0.64765 -0.86603 0.50000 0.00000 -0.86603 0.50000 0.00000 -0.65986 0.38097 0.64765 -0.65986 -0.38097 -0.64765 -0.86603 -0.50000 0.00000 -0.86603 -0.50000 0.00000 -0.65986 -0.38097 0.64765 0.00000 -0.76194 -0.64765 0.00000 -1.00000 0.00000 0.00000 -1.00000 0.00000 0.00000 -0.76194 0.64765 0.65986 -0.38097 -0.64765 0.86603 -0.50000 0.00000 0.86603 -0.50000 0.00000 0.65986 -0.38097 0.64765 0.65986 0.38097 -0.64765 0.86603 0.50000 0.00000 0.86603 0.50000 -0.00000 0.65986 0.38097 0.64765 0.00000 0.76194 -0.64765 0.00000 1.00000 0.00000 0.00000 1.00000 -0.00000 0.00000 0.76194 0.64765 -0.65986 0.38097 -0.64765 -0.86603 0.50000 0.00000 -0.86603 0.50000 0.00000 -0.65986 0.38097 0.64765 -0.65986 -0.38097 -0.64765 -0.86603 -0.50000 0.00000 -0.86603 -0.50000 0.00000 -0.65986 -0.38097 0.64765 0.00000 -0.76194 -0.64765 0.00000 -1.00000 0.00000 0.00000 -1.00000 0.00000 0.00000 -0.76194 0.64765 0.65986 -0.38097 -0.64765 0.86603 -0.50000 0.00000 0.86603 -0.50000 0.00000 0.65986 -0.38097 0.64765 0.65986 0.38097 -0.64765 0.86603 0.50000 0.00000 0.86603 0.50000 -0.00000 0.65986 0.38097 0.64765 0.00000 0.76194 -0.64765 0.00000 1.00000 0.00000 0.00000 1.00000 -0.00000 0.00000 0.76194 0.64765 -0.65986 0.38097 -0.64765 -0.86603 0.50000 0.00000 -0.86603 0.50000 0.00000 -0.65986 0.38097 0.64765 -0.65986 -0.38097 -0.64765 -0.86603 -0.50000 0.00000 -0.86603 -0.50000 0.00000 -0.65986 -0.38097 0.64765 0.00000 -0.76194 -0.64765 0.00000 -1.00000 0.00000 0.00000 -1.00000 0.00000 0.00000 -0.76194 0.64765 0.65986 -0.38097 -0.64765 0.86603 -0.50000 0.00000 0.86603 -0.50000 0.00000 0.65986 -0.38097 0.64765 0.65986 0.38097 -0.64765 0.86603 0.50000 0.00000 0.86603 0.50000 -0.00000 0.65986 0.38097 0.64765 0.00000 0.76194 -0.64765 0.00000 1.00000 0.00000 0.00000 1.00000 -0.00000 0.00000 0.76194 0.64765 -0.65986 0.38097 -0.64765 -0.86603 0.50000 0.00000 -0.86603 0.50000 0.00000 -0.65986 0.38097 0.64765 -0.65986 -0.38097 -0.64765 -0.86603 -0.50000 0.00000 -0.86603 -0.50000 0.00000 -0.65986 -0.38097 0.64765 0.00000 -0.76194 -0.64765 0.00000 -1.00000 0.00000 0.00000 -1.00000 0.00000 0.00000 -0.76194 0.64765 0.65986 -0.38097 -0.64765 0.86603 -0.50000 0.00000 0.86603 -0.50000 0.00000 0.65986 -0.38097 0.64765 0.65986 0.38097 -0.64765 0.86603 0.50000 0.00000 0.86603 0.50000 -0.00000 0.65986 0.38097 0.64765 0.00000 0.76194 -0.64765 0.00000 1.00000 0.00000 0.00000 1.00000 -0.00000 0.00000 0.76194 0.64765 -0.65986 0.38097 -0.64765 -0.86603 0.50000 0.00000 -0.86603 0.50000 0.00000 -0.65986 0.38097 0.64765 -0.65986 -0.38097 -0.64765 -0.86603 -0.50000 0.00000 -0.86603 -0.50000 0.00000 -0.65986 -0.38097 0.64765 0.00000 -0.76194 -0.64765 0.00000 -1.00000 0.00000 0.00000 -1.00000 0.00000 0.00000 -0.76194 0.64765 0.65986 -0.38097 -0.64765 0.86603 -0.50000 0.00000 0.86603 -0.50000 0.00000 0.65986 -0.38097 0.64765 0.65986 0.38097 -0.64765 0.86603 0.50000 0.00000 0.86603 0.50000 -0.00000 0.65986 0.38097 0.64765 0.00000 0.76194 -0.64765 0.00000 1.00000 0.00000 0.00000 1.00000 -0.00000 0.00000 0.76194 0.64765 -0.65986 0.38097 -0.64765 -0.86603 0.50000 0.00000 -0.86603 0.50000 0.00000 -0.65986 0.38097 0.64765 -0.65986 -0.38097 -0.64765 -0.86603 -0.50000 0.00000 -0.86603 -0.50000 0.00000 -0.65986 -0.38097 0.64765 0.00000 -0.76194 -0.64765 0.00000 -1.00000 0.00000 0.00000 -1.00000 0.00000 0.00000 -0.76194 0.64765 0.65986 -0.38097 -0.64765 0.86603 -0.50000 0.00000 0.86603 -0.50000 0.00000 0.65986 -0.38097 0.64765 0.65986 0.38097 -0.64765 0.86603 0.50000 0.00000 0.86603 0.50000 -0.00000 0.65986 0.38097 0.64765 0.00000 0.76194 -0.64765 0.00000 1.00000 0.00000 0.00000 1.00000 -0.00000 0.00000 0.76194 0.64765 -0.65986 0.38097 -0.64765 -0.86603 0.50000 0.00000 -0.86603 0.50000 0.00000 -0.65986 0.38097 0.64765 -0.65986 -0.38097 -0.64765 -0.86603 -0.50000 0.00000 -0.86603 -0.50000 0.00000 -0.65986 -0.38097 0.64765 0.00000 -0.76194 -0.64765 0.00000 -1.00000 0.00000 0.00000 -1.00000 0.00000 0.00000 -0.76194 0.64765 0.65986 -0.38097 -0.64765 0.86603 -0.50000 0.00000 0.86603 -0.50000 0.00000 0.65986 -0.38097 0.64765 0.65986 0.38097 -0.64765 0.86603 0.50000 0.00000 0.86603 0.50000 -0.00000 0.65986 0.38097 0.64765 0.00000 0.76194 -0.64765 0.00000 1.00000 0.00000 0.00000 1.00000 -0.00000 0.00000 0.76194 0.64765 -0.65986 0.38097 -0.64765 -0.86603 0.50000 0.00000 -0.86603 0.50000 0.00000 -0.65986 0.38097 0.64765 -0.65986 -0.38097 -0.64765 -0.86603 -0.50000 0.00000 -0.86603 -0.50000 0.00000 -0.65986 -0.38097 0.64765 0.00000 -0.76194 -0.64765 0.00000 -1.00000 0.00000 0.00000 -1.00000 0.00000 0.00000 -0.76194 0.64765 0.65986 -0.38097 -0.64765 0.86603 -0.50000 0.00000 0.86603 -0.50000 0.00000 0.65986 -0.38097 0.64765 0.65986 0.38097 -0.64765 0.86603 0.50000 0.00000 0.86603 0.50000 -0.00000 0.65986 0.38097 0.64765 0.00000 0.76194 -0.64765 0.00000 1.00000 0.00000 0.00000 1.00000 -0.00000 0.00000 0.76194 0.64765 -0.65986 0.38097 -0.64765 -0.86603 0.50000 0.00000 -0.86603 0.50000 0.00000 -0.65986 0.38097 0.64765 -0.65986 -0.38097 -0.64765 -0.86603 -0.50000 0.00000 -0.86603 -0.50000 0.00000 -0.65986 -0.38097 0.64765 0.00000 -0.76194 -0.64765 0.00000 -1.00000 0.00000 0.00000 -1.00000 0.00000 0.00000 -0.76194 0.64765 0.65986 -0.38097 -0.64765 0.86603 -0.50000 0.00000 0.86603 -0.50000 0.00000 0.65986 -0.38097 0.64765 0.65986 0.38097 -0.64765 0.86603 0.50000 0.00000 0.86603 0.50000 -0.00000 0.65986 0.38097 0.64765 0.00000 0.76194 -0.64765 0.00000 1.00000 0.00000 0.00000 1.00000 -0.00000 0.00000 0.76194 0.64765 -0.65986 0.38097 -0.64765 -0.86603 0.50000 0.00000 -0.86603 0.50000 0.00000 -0.65986 0.38097 0.64765 -0.65986 -0.38097 -0.64765 -0.86603 -0.50000 0.00000 -0.86603 -0.50000 0.00000 -0.65986 -0.38097 0.64765 0.00000 -0.76194 -0.64765 0.00000 -1.00000 0.00000 0.00000 -1.00000 0.00000 0.00000 -0.76194 0.64765 0.65986 -0.38097 -0.64765 0.86603 -0.50000 0.00000 0.86603 -0.50000 0.00000 0.65986 -0.38097 0.64765 0.65986 0.38097 -0.64765 0.86603 0.50000 0.00000 0.86603 0.50000 -0.00000 0.65986 0.38097 0.64765 0.00000 0.76194 -0.64765 0.00000 1.00000 0.00000 0.00000 1.00000 -0.00000 0.00000 0.76194 0.64765 -0.65986 0.38097 -0.64765 -0.86603 0.50000 0.00000 -0.86603 0.50000 0.00000 -0.65986 0.38097 0.64765 -0.65986 -0.38097 -0.64765 -0.86603 -0.50000 0.00000 -0.86603 -0.50000 0.00000 -0.65986 -0.38097 0.64765 0.00000 -0.76194 -0.64765 0.00000 -1.00000 0.00000 0.00000 -1.00000 0.00000 0.00000 -0.76194 0.64765 0.65986 -0.38097 -0.64765 0.86603 -0.50000 0.00000 0.86603 -0.50000 0.00000 0.65986 -0.38097 0.64765 0.65986 0.38097 -0.64765 0.86603 0.50000 0.00000 0.86603 0.50000 -0.00000 0.65986 0.38097 0.64765 0.00000 0.76194 -0.64765 0.00000 1.00000 0.00000 0.00000 1.00000 -0.00000 0.00000 0.76194 0.64765 -0.65986 0.38097 -0.64765 -0.86603 0.50000 0.00000 -0.86603 0.50000 0.00000 -0.65986 0.38097 0.64765 -0.65986 -0.38097 -0.64765 -0.86603 -0.50000 0.00000 -0.86603 -0.50000 0.00000 -0.65986 -0.38097 0.64765 0.00000 -0.76194 -0.64765 0.00000 -1.00000 0.00000 0.00000 -1.00000 0.00000 0.00000 -0.76194 0.64765 0.65986 -0.38097 -0.64765 0.86603 -0.50000 0.00000 0.86603 -0.50000 0.00000 0.65986 -0.38097 0.64765 0.65986 0.38097 -0.64765 0.86603 0.50000 0.00000 0.86603 0.50000 -0.00000 0.65986 0.38097 0.64765 0.00000 0.76194 -0.64765 0.00000 1.00000 0.00000 0.00000 1.00000 -0.00000 0.00000 0.76194 0.64765 -0.65986 0.38097 -0.64765 -0.86603 0.50000 0.00000 -0.86603 0.50000 0.00000 -0.65986 0.38097 0.64765 -0.65986 -0.38097 -0.64765 -0.86603 -0.50000 0.00000 -0.86603 -0.50000 0.00000 -0.65986 -0.38097 0.64765 0.00000 -0.76194 -0.64765 0.00000 -1.00000 0.00000 0.00000 -1.00000 0.00000 0.00000 -0.76194 0.64765 0.65986 -0.38097 -0.64765 0.86603 -0.50000 0.00000 0.86603 -0.50000 0.00000 0.65986 -0.38097 0.64765 0.65986 0.38097 -0.64765 0.86603 0.50000 0.00000 0.86603 0.50000 -0.00000 0.65986 0.38097 0.64765 0.00000 0.76194 -0.64765 0.00000 1.00000 0.00000 0.00000 1.00000 -0.00000 0.00000 0.76194 0.64765 -0.65986 0.38097 -0.64765 -0.86603 0.50000 0.00000 -0.86603 0.50000 0.00000 -0.65986 0.38097 0.64765 -0.65986 -0.38097 -0.64765 -0.86603 -0.50000 0.00000 -0.86603 -0.50000 0.00000 -0.65986 -0.38097 0.64765 0.00000 -0.76194 -0.64765 0.00000 -1.00000 0.00000 0.00000 -1.00000 0.00000 0.00000 -0.76194 0.64765 0.65986 -0.38097 -0.64765 0.86603 -0.50000 0.00000 0.86603 -0.50000 0.00000 0.65986 -0.38097 0.64765 0.65986 0.38097 -0.64765 0.86603 0.50000 0.00000 0.86603 0.50000 -0.00000 0.65986 0.38097 0.64765 0.00000 0.76194 -0.64765 0.00000 1.00000 0.00000 0.00000 1.00000 -0.00000 0.00000 0.76194 0.64765 -0.65986 0.38097 -0.64765 -0.86603 0.50000 0.00000 -0.86603 0.50000 0.00000 -0.65986 0.38097 0.64765 -0.65986 -0.38097 -0.64765 -0.86603 -0.50000 0.00000 -0.86603 -0.50000 0.00000 -0.65986 -0.38097 0.64765 0.00000 -0.76194 -0.64765 0.00000 -1.00000 0.00000 0.00000 -1.00000 0.00000 0.00000 -0.76194 0.64765 0.65986 -0.38097 -0.64765 0.86603 -0.50000 0.00000 0.86603 -0.50000 0.00000 0.65986 -0.38097 0.64765 0.65986 0.38097 -0.64765 0.86603 0.50000 0.00000 0.86603 0.50000 -0.00000 0.65986 0.38097 0.64765 0.00000 0.76194 -0.64765 0.00000 1.00000 0.00000 0.00000 1.00000 -0.00000 0.00000 0.76194 0.64765 -0.65986 0.38097 -0.64765 -0.86603 0.50000 0.00000 -0.86603 0.50000 0.00000 -0.65986 0.38097 0.64765 -0.65986 -0.38097 -0.64765 -0.86603 -0.50000 0.00000 -0.86603 -0.50000 0.00000 -0.65986 -0.38097 0.64765 0.00000 -0.76194 -0.64765 0.00000 -1.00000 0.00000 0.00000 -1.00000 0.00000 0.00000 -0.76194 0.64765 0.65986 -0.38097 -0.64765 0.86603 -0.50000 0.00000 0.86603 -0.50000 0.00000 0.65986 -0.38097 0.64765 0.65986 0.38097 -0.64765 0.86603 0.50000 0.00000 0.86603 0.50000 -0.00000 0.65986 0.38097 0.64765 0.00000 0.76194 -0.64765 0.00000 1.00000 0.00000 0.00000 1.00000 -0.00000 0.00000 0.76194 0.64765 -0.65986 0.38097 -0.64765 -0.86603 0.50000 0.00000 -0.86603 0.50000 0.00000 -0.65986 0.38097 0.64765 -0.65986 -0.38097 -0.64765 -0.86603 -0.50000 0.00000 -0.86603 -0.50000 0.00000 -0.65986 -0.38097 0.64765 0.00000 -0.76194 -0.64765 0.00000 -1.00000 0.00000 0.00000 -1.00000 0.00000 0.00000 -0.76194 0.64765 0.65986 -0.38097 -0.64765 0.86603 -0.50000 0.00000 0.86603 -0.50000 0.00000 0.65986 -0.38097 0.64765 0.65986 0.38097 -0.64765 0.86603 0.50000 0.00000 0.86603 0.50000 -0.00000 0.65986 0.38097 0.64765 0.00000 0.76194 -0.64765 0.00000 1.00000 0.00000 0.00000 1.00000 -0.00000 0.00000 0.76194 0.64765 -0.65986 0.38097 -0.64765 -0.86603 0.50000 0.00000 -0.86603 0.50000 0.00000 -0.65986 0.38097 0.64765 -0.65986 -0.38097 -0.64765 -0.86603 -0.50000 0.00000 -0.86603 -0.50000 0.00000 -0.65986 -0.38097 0.64765 0.00000 -0.76194 -0.64765 0.00000 -1.00000 0.00000 0.00000 -1.00000 0.00000 0.00000 -0.76194 0.64765 0.65986 -0.38097 -0.64765 0.86603 -0.50000 0.00000 0.86603 -0.50000 0.00000 0.65986 -0.38097 0.64765 0.65986 0.38097 -0.64765 0.86603 0.50000 0.00000 0.86603 0.50000 -0.00000 0.65986 0.38097 0.64765 0.00000 0.76194 -0.64765 0.00000 1.00000 0.00000 0.00000 1.00000 -0.00000 0.00000 0.76194 0.64765 -0.65986 0.38097 -0.64765 -0.86603 0.50000 0.00000 -0.86603 0.50000 0.00000 -0.65986 0.38097 0.64765 -0.65986 -0.38097 -0.64765 -0.86603 -0.50000 0.00000 -0.86603 -0.50000 0.00000 -0.65986 -0.38097 0.64765 0.00000 -0.76194 -0.64765 0.00000 -1.00000 0.00000 0.00000 -1.00000 0.00000 0.00000 -0.76194 0.64765 0.65986 -0.38097 -0.64765 0.86603 -0.50000 0.00000 0.86603 -0.50000 0.00000 0.65986 -0.38097 0.64765 0.65986 0.38097 -0.64765 0.86603 0.50000 0.00000 0.86603 0.50000 -0.00000 0.65986 0.38097 0.64765 0.00000 0.76194 -0.64765 0.00000 1.00000 0.00000 0.00000 1.00000 -0.00000 0.00000 0.76194 0.64765 -0.65986 0.38097 -0.64765 -0.86603 0.50000 0.00000 -0.86603 0.50000 0.00000 -0.65986 0.38097 0.64765 -0.65986 -0.38097 -0.64765 -0.86603 -0.50000 0.00000 -0.86603 -0.50000 0.00000 -0.65986 -0.38097 0.64765 0.00000 -0.76194 -0.64765 0.00000 -1.00000 0.00000 0.00000 -1.00000 0.00000 0.00000 -0.76194 0.64765 0.65986 -0.38097 -0.64765 0.86603 -0.50000 0.00000 0.86603 -0.50000 0.00000 0.65986 -0.38097 0.64765 0.00000 0.00000 -1.00000 0.00000 0.00000 -1.00000 0.00000 0.00000 1.00000 0.00000 0.00000 1.00000 0.00000 -1.00000 0.00000 0.00000 -1.00000 0.00000 1.00000 0.00000 0.00000 1.00000 0.00000 0.00000 0.00000 1.00000 0.00000 0.00000 1.00000 -0.00000 -1.00000 0.00000 0.00000 -1.00000 0.00000 0.00000 0.65986 0.38097 -0.64765 0.86603 0.50000 0.00000 0.86603 0.50000 -0.00000 0.65986 0.38097 0.64765 0.00000 0.76194 -0.64765 0.00000 1.00000 0.00000 0.00000 1.00000 -0.00000 0.00000 0.76194 0.64765 -0.65986 0.38097 -0.64765 -0.86603 0.50000 0.00000 -0.86603 0.50000 0.00000 -0.65986 0.38097 0.64765 -0.65986 -0.38097 -0.64765 -0.86603 -0.50000 0.00000 -0.86603 -0.50000 0.00000 -0.65986 -0.38097 0.64765 0.00000 -0.76194 -0.64765 0.00000 -1.00000 0.00000 0.00000 -1.00000 0.00000 0.00000 -0.76194 0.64765 0.65986 -0.38097 -0.64765 0.86603 -0.50000 0.00000 0.86603 -0.50000 0.00000 0.65986 -0.38097 0.64765 0.65986 0.38097 -0.64765 0.86603 0.50000 0.00000 0.86603 0.50000 -0.00000 0.65986 0.38097 0.64765 0.00000 0.76194 -0.64765 0.00000 1.00000 0.00000 0.00000 1.00000 -0.00000 0.00000 0.76194 0.64765 -0.65986 0.38097 -0.64765 -0.86603 0.50000 0.00000 -0.86603 0.50000 0.00000 -0.65986 0.38097 0.64765 -0.65986 -0.38097 -0.64765 -0.86603 -0.50000 0.00000 -0.86603 -0.50000 0.00000 -0.65986 -0.38097 0.64765 0.00000 -0.76194 -0.64765 0.00000 -1.00000 0.00000 0.00000 -1.00000 0.00000 0.00000 -0.76194 0.64765 0.65986 -0.38097 -0.64765 0.86603 -0.50000 0.00000 0.86603 -0.50000 0.00000 0.65986 -0.38097 0.64765 0.65986 0.38097 -0.64765 0.86603 0.50000 0.00000 0.86603 0.50000 -0.00000 0.65986 0.38097 0.64765 0.00000 0.76194 -0.64765 0.00000 1.00000 0.00000 0.00000 1.00000 -0.00000 0.00000 0.76194 0.64765 -0.65986 0.38097 -0.64765 -0.86603 0.50000 0.00000 -0.86603 0.50000 0.00000 -0.65986 0.38097 0.64765 -0.65986 -0.38097 -0.64765 -0.86603 -0.50000 0.00000 -0.86603 -0.50000 0.00000 -0.65986 -0.38097 0.64765 0.00000 -0.76194 -0.64765 0.00000 -1.00000 0.00000 0.00000 -1.00000 0.00000 0.00000 -0.76194 0.64765 0.65986 -0.38097 -0.64765 0.86603 -0.50000 0.00000 0.86603 -0.50000 0.00000 0.65986 -0.38097 0.64765 0.65986 0.38097 -0.64765 0.86603 0.50000 0.00000 0.86603 0.50000 -0.00000 0.65986 0.38097 0.64765 0.00000 0.76194 -0.64765 0.00000 1.00000 0.00000 0.00000 1.00000 -0.00000 0.00000 0.76194 0.64765 -0.65986 0.38097 -0.64765 -0.86603 0.50000 0.00000 -0.86603 0.50000 0.00000 -0.65986 0.38097 0.64765 -0.65986 -0.38097 -0.64765 -0.86603 -0.50000 0.00000 -0.86603 -0.50000 0.00000 -0.65986 -0.38097 0.64765 0.00000 -0.76194 -0.64765 0.00000 -1.00000 0.00000 0.00000 -1.00000 0.00000 0.00000 -0.76194 0.64765 0.65986 -0.38097 -0.64765 0.86603 -0.50000 0.00000 0.86603 -0.50000 0.00000 0.65986 -0.38097 0.64765 0.65986 0.38097 -0.64765 0.86603 0.50000 0.00000 0.86603 0.50000 -0.00000 0.65986 0.38097 0.64765 0.00000 0.76194 -0.64765 0.00000 1.00000 0.00000 0.00000 1.00000 -0.00000 0.00000 0.76194 0.64765 -0.65986 0.38097 -0.64765 -0.86603 0.50000 0.00000 -0.86603 0.50000 0.00000 -0.65986 0.38097 0.64765 -0.65986 -0.38097 -0.64765 -0.86603 -0.50000 0.00000 -0.86603 -0.50000 0.00000 -0.65986 -0.38097 0.64765 0.00000 -0.76194 -0.64765 0.00000 -1.00000 0.00000 0.00000 -1.00000 0.00000 0.00000 -0.76194 0.64765 0.65986 -0.38097 -0.64765 0.86603 -0.50000 0.00000 0.86603 -0.50000 0.00000 0.65986 -0.38097 0.64765 0.65986 0.38097 -0.64765 0.86603 0.50000 0.00000 0.86603 0.50000 -0.00000 0.65986 0.38097 0.64765 0.00000 0.76194 -0.64765 0.00000 1.00000 0.00000 0.00000 1.00000 -0.00000 0.00000 0.76194 0.64765 -0.65986 0.38097 -0.64765 -0.86603 0.50000 0.00000 -0.86603 0.50000 0.00000 -0.65986 0.38097 0.64765 -0.65986 -0.38097 -0.64765 -0.86603 -0.50000 0.00000 -0.86603 -0.50000 0.00000 -0.65986 -0.38097 0.64765 0.00000 -0.76194 -0.64765 0.00000 -1.00000 0.00000 0.00000 -1.00000 0.00000 0.00000 -0.76194 0.64765 0.65986 -0.38097 -0.64765 0.86603 -0.50000 0.00000 0.86603 -0.50000 0.00000 0.65986 -0.38097 0.64765 0.65986 0.38097 -0.64765 0.86603 0.50000 0.00000 0.86603 0.50000 -0.00000 0.65986 0.38097 0.64765 0.00000 0.76194 -0.64765 0.00000 1.00000 0.00000 0.00000 1.00000 -0.00000 0.00000 0.76194 0.64765 -0.65986 0.38097 -0.64765 -0.86603 0.50000 0.00000 -0.86603 0.50000 0.00000 -0.65986 0.38097 0.64765 -0.65986 -0.38097 -0.64765 -0.86603 -0.50000 0.00000 -0.86603 -0.50000 0.00000 -0.65986 -0.38097 0.64765 0.00000 -0.76194 -0.64765 0.00000 -1.00000 0.00000 0.00000 -1.00000 0.00000 0.00000 -0.76194 0.64765 0.65986 -0.38097 -0.64765 0.86603 -0.50000 0.00000 0.86603 -0.50000 0.00000 0.65986 -0.38097 0.64765 0.65986 0.38097 -0.64765 0.86603 0.50000 0.00000 0.86603 0.50000 -0.00000 0.65986 0.38097 0.64765 0.00000 0.76194 -0.64765 0.00000 1.00000 0.00000 0.00000 1.00000 -0.00000 0.00000 0.76194 0.64765 -0.65986 0.38097 -0.64765 -0.86603 0.50000 0.00000 -0.86603 0.50000 0.00000 -0.65986 0.38097 0.64765 -0.65986 -0.38097 -0.64765 -0.86603 -0.50000 0.00000 -0.86603 -0.50000 0.00000 -0.65986 -0.38097 0.64765 0.00000 -0.76194 -0.64765 0.00000 -1.00000 0.00000 0.00000 -1.00000 0.00000 0.00000 -0.76194 0.64765 0.65986 -0.38097 -0.64765 0.86603 -0.50000 0.00000 0.86603 -0.50000 0.00000 0.65986 -0.38097 0.64765 0.65986 0.38097 -0.64765 0.86603 0.50000 0.00000 0.86603 0.50000 -0.00000 0.65986 0.38097 0.64765 0.00000 0.76194 -0.64765 0.00000 1.00000 0.00000 0.00000 1.00000 -0.00000 0.00000 0.76194 0.64765 -0.65986 0.38097 -0.64765 -0.86603 0.50000 0.00000 -0.86603 0.50000 0.00000 -0.65986 0.38097 0.64765 -0.65986 -0.38097 -0.64765 -0.86603 -0.50000 0.00000 -0.86603 -0.50000 0.00000 -0.65986 -0.38097 0.64765 0.00000 -0.76194 -0.64765 0.00000 -1.00000 0.00000 0.00000 -1.00000 0.00000 0.00000 -0.76194 0.64765 0.65986 -0.38097 -0.64765 0.86603 -0.50000 0.00000 0.86603 -0.50000 0.00000 0.65986 -0.38097 0.64765 0.65986 0.38097 -0.64765 0.86603 0.50000 0.00000 0.86603 0.50000 -0.00000 0.65986 0.38097 0.64765 0.00000 0.76194 -0.64765 0.00000 1.00000 0.00000 0.00000 1.00000 -0.00000 0.00000 0.76194 0.64765 -0.65986 0.38097 -0.64765 -0.86603 0.50000 0.00000 -0.86603 0.50000 0.00000 -0.65986 0.38097 0.64765 -0.65986 -0.38097 -0.64765 -0.86603 -0.50000 0.00000 -0.86603 -0.50000 0.00000 -0.65986 -0.38097 0.64765 0.00000 -0.76194 -0.64765 0.00000 -1.00000 0.00000 0.00000 -1.00000 0.00000 0.00000 -0.76194 0.64765 0.65986 -0.38097 -0.64765 0.86603 -0.50000 0.00000 0.86603 -0.50000 0.00000 0.65986 -0.38097 0.64765 0.65986 0.38097 -0.64765 0.86603 0.50000 0.00000 0.86603 0.50000 -0.00000 0.65986 0.38097 0.64765 0.00000 0.76194 -0.64765 0.00000 1.00000 0.00000 0.00000 1.00000 -0.00000 0.00000 0.76194 0.64765 -0.65986 0.38097 -0.64765 -0.86603 0.50000 0.00000 -0.86603 0.50000 0.00000 -0.65986 0.38097 0.64765 -0.65986 -0.38097 -0.64765 -0.86603 -0.50000 0.00000 -0.86603 -0.50000 0.00000 -0.65986 -0.38097 0.64765 0.00000 -0.76194 -0.64765 0.00000 -1.00000 0.00000 0.00000 -1.00000 0.00000 0.00000 -0.76194 0.64765 0.65986 -0.38097 -0.64765 0.86603 -0.50000 0.00000 0.86603 -0.50000 0.00000 0.65986 -0.38097 0.64765 0.65986 0.38097 -0.64765 0.86603 0.50000 0.00000 0.86603 0.50000 -0.00000 0.65986 0.38097 0.64765 0.00000 0.76194 -0.64765 0.00000 1.00000 0.00000 0.00000 1.00000 -0.00000 0.00000 0.76194 0.64765 -0.65986 0.38097 -0.64765 -0.86603 0.50000 0.00000 -0.86603 0.50000 0.00000 -0.65986 0.38097 0.64765 -0.65986 -0.38097 -0.64765 -0.86603 -0.50000 0.00000 -0.86603 -0.50000 0.00000 -0.65986 -0.38097 0.64765 0.00000 -0.76194 -0.64765 0.00000 -1.00000 0.00000 0.00000 -1.00000 0.00000 0.00000 -0.76194 0.64765 0.65986 -0.38097 -0.64765 0.86603 -0.50000 0.00000 0.86603 -0.50000 0.00000 0.65986 -0.38097 0.64765 0.65986 0.38097 -0.64765 0.86603 0.50000 0.00000 0.86603 0.50000 -0.00000 0.65986 0.38097 0.64765 0.00000 0.76194 -0.64765 0.00000 1.00000 0.00000 0.00000 1.00000 -0.00000 0.00000 0.76194 0.64765 -0.65986 0.38097 -0.64765 -0.86603 0.50000 0.00000 -0.86603 0.50000 0.00000 -0.65986 0.38097 0.64765 -0.65986 -0.38097 -0.64765 -0.86603 -0.50000 0.00000 -0.86603 -0.50000 0.00000 -0.65986 -0.38097 0.64765 0.00000 -0.76194 -0.64765 0.00000 -1.00000 0.00000 0.00000 -1.00000 0.00000 0.00000 -0.76194 0.64765 0.65986 -0.38097 -0.64765 0.86603 -0.50000 0.00000 0.86603 -0.50000 0.00000 0.65986 -0.38097 0.64765 0.65986 0.38097 -0.64765 0.86603 0.50000 0.00000 0.86603 0.50000 -0.00000 0.65986 0.38097 0.64765 0.00000 0.76194 -0.64765 0.00000 1.00000 0.00000 0.00000 1.00000 -0.00000 0.00000 0.76194 0.64765 -0.65986 0.38097 -0.64765 -0.86603 0.50000 0.00000 -0.86603 0.50000 0.00000 -0.65986 0.38097 0.64765 -0.65986 -0.38097 -0.64765 -0.86603 -0.50000 0.00000 -0.86603 -0.50000 0.00000 -0.65986 -0.38097 0.64765 0.00000 -0.76194 -0.64765 0.00000 -1.00000 0.00000 0.00000 -1.00000 0.00000 0.00000 -0.76194 0.64765 0.65986 -0.38097 -0.64765 0.86603 -0.50000 0.00000 0.86603 -0.50000 0.00000 0.65986 -0.38097 0.64765 0.65986 0.38097 -0.64765 0.86603 0.50000 0.00000 0.86603 0.50000 -0.00000 0.65986 0.38097 0.64765 0.00000 0.76194 -0.64765 0.00000 1.00000 0.00000 0.00000 1.00000 -0.00000 0.00000 0.76194 0.64765 -0.65986 0.38097 -0.64765 -0.86603 0.50000 0.00000 -0.86603 0.50000 0.00000 -0.65986 0.38097 0.64765 -0.65986 -0.38097 -0.64765 -0.86603 -0.50000 0.00000 -0.86603 -0.50000 0.00000 -0.65986 -0.38097 0.64765 0.00000 -0.76194 -0.64765 0.00000 -1.00000 0.00000 0.00000 -1.00000 0.00000 0.00000 -0.76194 0.64765 0.65986 -0.38097 -0.64765 0.86603 -0.50000 0.00000 0.86603 -0.50000 0.00000 0.65986 -0.38097 0.64765 0.65986 0.38097 -0.64765 0.86603 0.50000 0.00000 0.86603 0.50000 -0.00000 0.65986 0.38097 0.64765 0.00000 0.76194 -0.64765 0.00000 1.00000 0.00000 0.00000 1.00000 -0.00000 0.00000 0.76194 0.64765 -0.65986 0.38097 -0.64765 -0.86603 0.50000 0.00000 -0.86603 0.50000 0.00000 -0.65986 0.38097 0.64765 -0.65986 -0.38097 -0.64765 -0.86603 -0.50000 0.00000 -0.86603 -0.50000 0.00000 -0.65986 -0.38097 0.64765 0.00000 -0.76194 -0.64765 0.00000 -1.00000 0.00000 0.00000 -1.00000 0.00000 0.00000 -0.76194 0.64765 0.65986 -0.38097 -0.64765 0.86603 -0.50000 0.00000 0.86603 -0.50000 0.00000 0.65986 -0.38097 0.64765 0.65986 0.38097 -0.64765 0.86603 0.50000 0.00000 0.86603 0.50000 -0.00000 0.65986 0.38097 0.64765 0.00000 0.76194 -0.64765 0.00000 1.00000 0.00000 0.00000 1.00000 -0.00000 0.00000 0.76194 0.64765 -0.65986 0.38097 -0.64765 -0.86603 0.50000 0.00000 -0.86603 0.50000 0.00000 -0.65986 0.38097 0.64765 -0.65986 -0.38097 -0.64765 -0.86603 -0.50000 0.00000 -0.86603 -0.50000 0.00000 -0.65986 -0.38097 0.64765 0.00000 -0.76194 -0.64765 0.00000 -1.00000 0.00000 0.00000 -1.00000 0.00000 0.00000 -0.76194 0.64765 0.65986 -0.38097 -0.64765 0.86603 -0.50000 0.00000 0.86603 -0.50000 0.00000 0.65986 -0.38097 0.64765 0.65986 0.38097 -0.64765 0.86603 0.50000 0.00000 0.86603 0.50000 -0.00000 0.65986 0.38097 0.64765 0.00000 0.76194 -0.64765 0.00000 1.00000 0.00000 0.00000 1.00000 -0.00000 0.00000 0.76194 0.64765 -0.65986 0.38097 -0.64765 -0.86603 0.50000 0.00000 -0.86603 0.50000 0.00000 -0.65986 0.38097 0.64765 -0.65986 -0.38097 -0.64765 -0.86603 -0.50000 0.00000 -0.86603 -0.50000 0.00000 -0.65986 -0.38097 0.64765 0.00000 -0.76194 -0.64765 0.00000 -1.00000 0.00000 0.00000 -1.00000 0.00000 0.00000 -0.76194 0.64765 0.65986 -0.38097 -0.64765 0.86603 -0.50000 0.00000 0.86603 -0.50000 0.00000 0.65986 -0.38097 0.64765 0.65986 0.38097 -0.64765 0.86603 0.50000 0.00000 0.86603 0.50000 -0.00000 0.65986 0.38097 0.64765 0.00000 0.76194 -0.64765 0.00000 1.00000 0.00000 0.00000 1.00000 -0.00000 0.00000 0.76194 0.64765 -0.65986 0.38097 -0.64765 -0.86603 0.50000 0.00000 -0.86603 0.50000 0.00000 -0.65986 0.38097 0.64765 -0.65986 -0.38097 -0.64765 -0.86603 -0.50000 0.00000 -0.86603 -0.50000 0.00000 -0.65986 -0.38097 0.64765 0.00000 -0.76194 -0.64765 0.00000 -1.00000 0.00000 0.00000 -1.00000 0.00000 0.00000 -0.76194 0.64765 0.65986 -0.38097 -0.64765 0.86603 -0.50000 0.00000 0.86603 -0.50000 0.00000 0.65986 -0.38097 0.64765 0.65986 0.38097 -0.64765 0.86603 0.50000 0.00000 0.86603 0.50000 -0.00000 0.65986 0.38097 0.64765 0.00000 0.76194 -0.64765 0.00000 1.00000 0.00000 0.00000 1.00000 -0.00000 0.00000 0.76194 0.64765 -0.65986 0.38097 -0.64765 -0.86603 0.50000 0.00000 -0.86603 0.50000 0.00000 -0.65986 0.38097 0.64765 -0.65986 -0.38097 -0.64765 -0.86603 -0.50000 0.00000 -0.86603 -0.50000 0.00000 -0.65986 -0.38097 0.64765 0.00000 -0.76194 -0.64765 0.00000 -1.00000 0.00000 0.00000 -1.00000 0.00000 0.00000 -0.76194 0.64765 0.65986 -0.38097 -0.64765 0.86603 -0.50000 0.00000 0.86603 -0.50000 0.00000 0.65986 -0.38097 0.64765 0.65986 0.38097 -0.64765 0.86603 0.50000 0.00000 0.86603 0.50000 -0.00000 0.65986 0.38097 0.64765 0.00000 0.76194 -0.64765 0.00000 1.00000 0.00000 0.00000 1.00000 -0.00000 0.00000 0.76194 0.64765 -0.65986 0.38097 -0.64765 -0.86603 0.50000 0.00000 -0.86603 0.50000 0.00000 -0.65986 0.38097 0.64765 -0.65986 -0.38097 -0.64765 -0.86603 -0.50000 0.00000 -0.86603 -0.50000 0.00000 -0.65986 -0.38097 0.64765 0.00000 -0.76194 -0.64765 0.00000 -1.00000 0.00000 0.00000 -1.00000 0.00000 0.00000 -0.76194 0.64765 0.65986 -0.38097 -0.64765 0.86603 -0.50000 0.00000 0.86603 -0.50000 0.00000 0.65986 -0.38097 0.64765</float_array><technique_common><accessor source="#normals-array" count="1032" stride="3"><param name="X" type="float"/><param name="Y" type="float"/><param name="Z" type="float"/></accessor></technique_common></source>
<vertices id="vertices"><input semantic="POSITION" source="#positions"/></vertices><triangles count="1032"><input semantic="VERTEX" source="#vertices" offset="0"/><input semantic="NORMAL" source="#normals" offset="1"/><p>0 0 2 0 1 0 0 1 3 1 2 1 4 2 5 2 6 2 4 3 6 3 7 3 0 4 1 4 5 4 0 5 5 5 4 5 1 6 2 6 6 6 1 7 6 7 5 7 2 8 3 8 7 8 2 9 7 9 6 9 3 10 0 10 4 10 3 11 4 11 7 11 8 12 10 12 9 12 9 13 10 13 16 13 9 14 16 14 15 14 15 15 16 15 21 15 8 16 11 16 10 16 10 17 11 17 17 17 10 18 17 18 16 18 16 19 17 19 21 19 8 20 12 20 11 20 11 21 12 21 18 21 11 22 18 22 17 22 17 23 18 23 21 23 8 24 13 24 12 24 12 25 13 25 19 25 12 26 19 26 18 26 18 27 19 27 21 27 8 28 14 28 13 28 13 29 14 29 20 29 13 30 20 30 19 30 19 31 20 31 21 31 8 32 9 32 14 32 14 33 9 33 15 33 14 34 15 34 20 34 20 35 15 35 21 35 22 36 24 36 23 36 23 37 24 37 30 37 23 38 30 38 29 38 29 39 30 39 35 39 22 40 25 40 24 40 24 41 25 41 31 41 24 42 31 42 30 42 30 43 31 43 35 43 22 44 26 44 25 44 25 45 26 45 32 45 25 46 32 46 31 46 31 47 32 47 35 47 22 48 27 48 26 48 26 49 27 49 33 49 26 50 33 50 32 50 32 51 33 51 35 51 22 52 28 52 27 52 27 53 28 53 34 53 27 54 34 54 33 54 33 55 34 55 35 55 22 56 23 56 28 56 28 57 23 57 29 57 28 58 29 58 34 58 34 59 29 59 35 59 36 60 38 60 37 60 37 61 38 61 44 61 37 62 44 62 43 62 43 63 44 63 49 63 36 64 39 64 38 64 38 65 39 65 45 65 38 66 45 66 44 66 44 67 45 67 49 67 36 68 40 68 39 68 39 69 40 69 46 69 39 70 46 70 45 70 45 71 46 71 49 71 36 72 41 72 40 72 40 73 41 73 47 73 40 74 47 74 46 74 46 75 47 75 49 75 36 76 42 76 41 76 41 77 42 77 48 77 41 78 48 78 47 78 47 79 48 79 49 79 36 80 37 80 42 80 42 81 37 81 43 81 42 82 43 82 48 82 48 83 43 83 49 83 50 84 52 84 51 84 51 85 52 85 58 85 51 86 58 86 57 86 57 87 58 87 63 87 50 88 53 88 52 88 52 89 53 89 59 89 52 90 59 90 58 90 58 91 59 91 63 91 50 92 54 92 53 92 53 93 54 93 60 93 53 94 60 94 59 94 59 95 60 95 63 95 50 96 55 96 54 96 54 97 55 97 61 97 54 98 61 98 60 98 60 99 61 99 63 99 50 100 56 100 55 100 55 101 56 101 62 101 55 102 62 102 61 102 61 103 62 103 63 103 50 104 51 104 56 104 56 105 51 105 57 105 56 106 57 106 62 106 62 107 57 107 63 107 64 108 66 108 65 108 65 109 66 109 72 109 65 110 72 110 71 110 71 111 72 111 77 111 64 112 67 112 66 112 66 113 67 113 73 113 66 114 73 114 72 114 72 115 73 115 77 115 64 116 68 116 67 116 67 117 68 117 74 117 67 118 74 118 73 118 73 119 74 119 77 119 64 120 69 120 68 120 68 121 69 121 75 121 68 122 75 122 74 122 74 123 75 123 77 123 64 124 70 124 69 124 69 125 70 125 76 125 69 126 76 126 75 126 75 127 76 127 77 127 64 128 65 128 70 128 70 129 65 129 71 129 70 130 71 130 76 130 76 131 71 131 77 131 78 132 80 132 79 132 79 133 80 133 86 133 79 134 86 134 85 134 85 135 86 135 91 135 78 136 81 136 80 136 80 137 81 137 87 137 80 138 87 138 86 138 86 139 87 139 91 139 78 140 82 140 81 140 81 141 82 141 88 141 81 142 88 142 87 142 87 143 88 143 91 143 78 144 83 144 82 144 82 145 83 145 89 145 82 146 89 146 88 146 88 147 89 147 91 147 78 148 84 148 83 148 83 149 84 149 90 149 83 150 90 150 89 150 89 151 90 151 91 151 78 152 79 152 84 152 84 153 79 153 85 153 84 154 85 154 90 154 90 155 85 155 91 155 92 156 94 156 93 156 93 157 94 157 100 157 93 158 100 158 99 158 99 159 100 159 105 159 92 160 95 160 94 160 94 161 95 161 101 161 94 162 101 162 100 162 100 163 101 163 105 163 92 164 96 164 95 164 95 165 96 165 102 165 95 166 102 166 101 166 101 167 102 167 105 167 92 168 97 168 96 168 96 169 97 169 103 169 96 170 103 170 102 170 102 171 103 171 105 171 92 172 98 172 97 172 97 173 98 173 104 173 97 174 104 174 103 174 103 175 104 175 105 175 92 176 93 176 98 176 98 177 93 177 99 177 98 178 99 178 104 178 104 179 99 179 105 179 106 180 108 180 107 180 107 181 108 181 114 181 107 182 114 182 113 182 113 183 114 183 119 183 106 184 109 184 108 184 108 185 109 185 115 185 108 186 115 186 114 186 114 187 115 187 119 187 106 188 110 188 109 188 109 189 110 189 116 189 109 190 116 190 115 190 115 191 116 191 119 191 106 192 111 192 110 192 110 193 111 193 117 193 110 194 117 194 116 194 116 195 117 195 119 195 106 196 112 196 111 196 111 197 112 197 118 197 111 198 118 198 117 198 117 199 118 199 119 199 106 200 107 200 112 200 112 201 107 201 113 201 112 202 113 202 118 202 118 203 113 203 119 203 120 204 122 204 121 204 121 205 122 205 128 205 121 206 128 206 127 206 127 207 128 207 133 207 120 208 123 208 122 208 122 209 123 209 129 209 122 210 129 210 128 210 128 211 129 211 133 211 120 212 124 212 123 212 123 213 124 213 130 213 123 214 130 214 129 214 129 215 130 215 133 215 120 216 125 216 124 216 124 217 125 217 131 217 124 218 131 218 130 218 130 219 131 219 133 219 120 220 126 220 125 220 125 221 126 221 132 221 125 222 132 222 131 222 131 223 132 223 133 223 120 224 121 224 126 224 126 225 121 225 127 225 126 226 127 226 132 226 132 227 127 227 133 227 134 228 136 228 135 228 135 229 136 229 142 229 135 230 142 230 141 230 141 231 142 231 147 231 134 232 137 232 136 232 136 233 137 233 143 233 136 234 143 234 142 234 142 235 143 235 147 235 134 236 138 236 137 236 137 237 138 237 144 237 137 238 144 238 143 238 143 239 144 239 147 239 134 240 139 240 138 240 138 241 139 241 145 241 138 242 145 242 144 242 144 243 145 243 147 243 134 244 140 244 139 244 139 245 140 245 146 245 139 246 146 246 145 246 145 247 146 247 147 247 134 248 135 248 140 248 140 249 135 249 141 249 140 250 141 250 146 250 146 251 141 251 147 251 148 252 150 252 149 252 149 253 150 253 156 253 149 254 156 254 155 254 155 255 156 255 161 255 148 256 151 256 150 256 150 257 151 257 157 257 150 258 157 258 156 258 156 259 157 259 161 259 148 260 152 260 151 260 151 261 152 261 158 261 151 262 158 262 157 262 157 263 158 263 161 263 148 264 153 264 152 264 152 265 153 265 159 265 152 266 159 266 158 266 158 267 159 267 161 267 148 268 154 268 153 268 153 269 154 269 160 269 153 270 160 270 159 270 159 271 160 271 161 271 148 272 149 272 154 272 154 273 149 273 155 273 154 274 155 274 160 274 160 275 155 275 161 275 162 276 164 276 163 276 163 277 164 277 170 277 163 278 170 278 169 278 169 279 170 279 175 279 162 280 165 280 164 280 164 281 165 281 171 281 164 282 171 282 170 282 170 283 171 283 175 283 162 284 166 284 165 284 165 285 166 285 172 285 165 286 172 286 171 286 171 287 172 287 175 287 162 288 167 288 166 288 166 289 167 289 173 289 166 290 173 290 172 290 172 291 173 291 175 291 162 292 168 292 167 292 167 293 168 293 174 293 167 294 174 294 173 294 173 295 174 295 175 295 162 296 163 296 168 296 168 297 163 297 169 297 168 298 169 298 174 298 174 299 169 299 175 299 176 300 178 300 177 300 177 301 178 301 184 301 177 302 184 302 183 302 183 303 184 303 189 303 176 304 179 304 178 304 178 305 179 305 185 305 178 306 185 306 184 306 184 307 185 307 189 307 176 308 180 308 179 308 179 309 180 309 186 309 179 310 186 310 185 310 185 311 186 311 189 311 176 312 181 312 180 312 180 313 181 313 187 313 180 314 187 314 186 314 186 315 187 315 189 315 176 316 182 316 181 316 181 317 182 317 188 317 181 318 188 318 187 318 187 319 188 319 189 319 176 320 177 320 182 320 182 321 177 321 183 321 182 322 183 322 188 322 188 323 183 323 189 323 190 324 192 324 191 324 191 325 192 325 198 325 191 326 198 326 197 326 197 327 198 327 203 327 190 328 193 328 192 328 192 329 193 329 199 329 192 330 199 330 198 330 198 331 199 331 203 331 190 332 194 332 193 332 193 333 194 333 200 333 193 334 200 334 199 334 199 335 200 335 203 335 190 336 195 336 194 336 194 337 195 337 201 337 194 338 201 338 200 338 200 339 201 339 203 339 190 340 196 340 195 340 195 341 196 341 202 341 195 342 202 342 201 342 201 343 202 343 203 343 190 344 191 344 196 344 196 345 191 345 197 345 196 346 197 346 202 346 202 347 197 347 203 347 204 348 206 348 205 348 205 349 206 349 212 349 205 350 212 350 211 350 211 351 212 351 217 351 204 352 207 352 206 352 206 353 207 353 213 353 206 354 213 354 212 354 212 355 213 355 217 355 204 356 208 356 207 356 207 357 208 357 214 357 207 358 214 358 213 358 213 359 214 359 217 359 204 360 209 360 208 360 208 361 209 361 215 361 208 362 215 362 214 362 214 363 215 363 217 363 204 364 210 364 209 364 209 365 210 365 216 365 209 366 216 366 215 366 215 367 216 367 217 367 204 368 205 368 210 368 210 369 205 369 211 369 210 370 211 370 216 370 216 371 211 371 217 371 218 372 220 372 219 372 219 373 220 373 226 373 219 374 226 374 225 374 225 375 226 375 231 375 218 376 221 376 220 376 220 377 221 377 227 377 220 378 227 378 226 378 226 379 227 379 231 379 218 380 222 380 221 380 221 381 222 381 228 381 221 382 228 382 227 382 227 383 228 383 231 383 218 384 223 384 222 384 222 385 223 385 229 385 222 386 229 386 228 386 228 387 229 387 231 387 218 388 224 388 223 388 223 389 224 389 230 389 223 390 230 390 229 390 229 391 230 391 231 391 218 392 219 392 224 392 224 393 219 393 225 393 224 394 225 394 230 394 230 395 225 395 231 395 232 396 234 396 233 396 233 397 234 397 240 397 233 398 240 398 239 398 239 399 240 399 245 399 232 400 235 400 234 400 234 401 235 401 241 401 234 402 241 402 240 402 240 403 241 403 245 403 232 404 236 404 235 404 235 405 236 405 242 405 235 406 242 406 241 406 241 407 242 407 245 407 232 408 237 408 236 408 236 409 237 409 243 409 236 410 243 410 242 410 242 411 243 411 245 411 232 412 238 412 237 412 237 413 238 413 244 413 237 414 244 414 243 414 243 415 244 415 245 415 232 416 233 416 238 416 238 417 233 417 239 417 238 418 239 418 244 418 244 419 239 419 245 419 246 420 248 420 247 420 247 421 248 421 254 421 247 422 254 422 253 422 253 423 254 423 259 423 246 424 249 424 248 424 248 425 249 425 255 425 248 426 255 426 254 426 254 427 255 427 259 427 246 428 250 428 249 428 249 429 250 429 256 429 249 430 256 430 255 430 255 431 256 431 259 431 246 432 251 432 250 432 250 433 251 433 257 433 250 434 257 434 256 434 256 435 257 435 259 435 246 436 252 436 251 436 251 437 252 437 258 437 251 438 258 438 257 438 257 439 258 439 259 439 246 440 247 440 252 440 252 441 247 441 253 441 252 442 253 442 258 442 258 443 253 443 259 443 260 444 262 444 261 444 261 445 262 445 268 445 261 446 268 446 267 446 267 447 268 447 273 447 260 448 263 448 262 448 262 449 263 449 269 449 262 450 269 450 268 450 268 451 269 451 273 451 260 452 264 452 263 452 263 453 264 453 270 453 263 454 270 454 269 454 269 455 270 455 273 455 260 456 265 456 264 456 264 457 265 457 271 457 264 458 271 458 270 458 270 459 271 459 273 459 260 460 266 460 265 460 265 461 266 461 272 461 265 462 272 462 271 462 271 463 272 463 273 463 260 464 261 464 266 464 266 465 261 465 267 465 266 466 267 466 272 466 272 467 267 467 273 467 274 468 276 468 275 468 275 469 276 469 282 469 275 470 282 470 281 470 281 471 282 471 287 471 274 472 277 472 276 472 276 473 277 473 283 473 276 474 283 474 282 474 282 475 283 475 287 475 274 476 278 476 277 476 277 477 278 477 284 477 277 478 284 478 283 478 283 479 284 479 287 479 274 480 279 480 278 480 278 481 279 481 285 481 278 482 285 482 284 482 284 483 285 483 287 483 274 484 280 484 279 484 279 485 280 485 286 485 279 486 286 486 285 486 285 487 286 487 287 487 274 488 275 488 280 488 280 489 275 489 281 489 280 490 281 490 286 490 286 491 281 491 287 491 288 492 290 492 289 492 289 493 290 493 296 493 289 494 296 494 295 494 295 495 296 495 301 495 288 496 291 496 290 496 290 497 291 497 297 497 290 498 297 498 296 498 296 499 297 499 301 499 288 500 292 500 291 500 291 501 292 501 298 501 291 502 298 502 297 502 297 503 298 503 301 503 288 504 293 504 292 504 292 505 293 505 299 505 292 506 299 506 298 506 298 507 299 507 301 507 288 508 294 508 293 508 293 509 294 509 300 509 293 510 300 510 299 510 299 511 300 511 301 511 288 512 289 512 294 512 294 513 289 513 295 513 294 514 295 514 300 514 300 515 295 515 301 515 302 516 304 516 303 516 302 517 305 517 304 517 306 518 307 518 308 518 306 519 308 519 309 519 302 520 303 520 307 520 302 521 307 521 306 521 303 522 304 522 308 522 303 523 308 523 307 523 304 524 305 524 309 524 304 525 309 525 308 525 305 526 302 526 306 526 305 527 306 527 309 527 310 528 312 528 311 528 311 529 312 529 318 529 311 530 318 530 317 530 317 531 318 531 323 531 310 532 313 532 312 532 312 533 313 533 319 533 312 534 319 534 318 534 318 535 319 535 323 535 310 536 314 536 313 536 313 537 314 537 320 537 313 538 320 538 319 538 319 539 320 539 323 539 310 540 315 540 314 540 314 541 315 541 321 541 314 542 321 542 320 542 320 543 321 543 323 543 310 544 316 544 315 544 315 545 316 545 322 545 315 546 322 546 321 546 321 547 322 547 323 547 310 548 311 548 316 548 316 549 311 549 317 549 316 550 317 550 322 550 322 551 317 551 323 551 324 552 326 552 325 552 325 553 326 553 332 553 325 554 332 554 331 554 331 555 332 555 337 555 324 556 327 556 326 556 326 557 327 557 333 557 326 558 333 558 332 558 332 559 333 559 337 559 324 560 328 560 327 560 327 561 328 561 334 561 327 562 334 562 333 562 333 563 334 563 337 563 324 564 329 564 328 564 328 565 329 565 335 565 328 566 335 566 334 566 334 567 335 567 337 567 324 568 330 568 329 568 329 569 330 569 336 569 329 570 336 570 335 570 335 571 336 571 337 571 324 572 325 572 330 572 330 573 325 573 331 573 330 574 331 574 336 574 336 575 331 575 337 575 338 576 340 576 339 576 339 577 340 577 346 577 339 578 346 578 345 578 345 579 346 579 351 579 338 580 341 580 340 580 340 581 341 581 347 581 340 582 347 582 346 582 346 583 347 583 351 583 338 584 342 584 341 584 341 585 342 585 348 585 341 586 348 586 347 586 347 587 348 587 351 587 338 588 343 588 342 588 342 589 343 589 349 589 342 590 349 590 348 590 348 591 349 591 351 591 338 592 344 592 343 592 343 593 344 593 350 593 343 594 350 594 349 594 349 595 350 595 351 595 338 596 339 596 344 596 344 597 339 597 345 597 344 598 345 598 350 598 350 599 345 599 351 599 352 600 354 600 353 600 353 601 354 601 360 601 353 602 360 602 359 602 359 603 360 603 365 603 352 604 355 604 354 604 354 605 355 605 361 605 354 606 361 606 360 606 360 607 361 607 365 607 352 608 356 608 355 608 355 609 356 609 362 609 355 610 362 610 361 610 361 611 362 611 365 611 352 612 357 612 356 612 356 613 357 613 363 613 356 614 363 614 362 614 362 615 363 615 365 615 352 616 358 616 357 616 357 617 358 617 364 617 357 618 364 618 363 618 363 619 364 619 365 619 352 620 353 620 358 620 358 621 353 621 359 621 358 622 359 622 364 622 364 623 359 623 365 623 366 624 368 624 367 624 367 625 368 625 374 625 367 626 374 626 373 626 373 627 374 627 379 627 366 628 369 628 368 628 368 629 369 629 375 629 368 630 375 630 374 630 374 631 375 631 379 631 366 632 370 632 369 632 369 633 370 633 376 633 369 634 376 634 375 634 375 635 376 635 379 635 366 636 371 636 370 636 370 637 371 637 377 637 370 638 377 638 376 638 376 639 377 639 379 639 366 640 372 640 371 640 371 641 372 641 378 641 371 642 378 642 377 642 377 643 378 643 379 643 366 644 367 644 372 644 372 645 367 645 373 645 372 646 373 646 378 646 378 647 373 647 379 647 380 648 382 648 381 648 381 649 382 649 388 649 381 650 388 650 387 650 387 651 388 651 393 651 380 652 383 652 382 652 382 653 383 653 389 653 382 654 389 654 388 654 388 655 389 655 393 655 380 656 384 656 383 656 383 657 384 657 390 657 383 658 390 658 389 658 389 659 390 659 393 659 380 660 385 660 384 660 384 661 385 661 391 661 384 662 391 662 390 662 390 663 391 663 393 663 380 664 386 664 385 664 385 665 386 665 392 665 385 666 392 666 391 666 391 667 392 667 393 667 380 668 381 668 386 668 386 669 381 669 387 669 386 670 387 670 392 670 392 671 387 671 393 671 394 672 396 672 395 672 395 673 396 673 402 673 395 674 402 674 401 674 401 675 402 675 407 675 394 676 397 676 396 676 396 677 397 677 403 677 396 678 403 678 402 678 402 679 403 679 407 679 394 680 398 680 397 680 397 681 398 681 404 681 397 682 404 682 403 682 403 683 404 683 407 683 394 684 399 684 398 684 398 685 399 685 405 685 398 686 405 686 404 686 404 687 405 687 407 687 394 688 400 688 399 688 399 689 400 689 406 689 399 690 406 690 405 690 405 691 406 691 407 691 394 692 395 692 400 692 400 693 395 693 401 693 400 694 401 694 406 694 406 695 401 695 407 695 408 696 410 696 409 696 409 697 410 697 416 697 409 698 416 698 415 698 415 699 416 699 421 699 408 700 411 700 410 700 410 701 411 701 417 701 410 702 417 702 416 702 416 703 417 703 421 703 408 704 412 704 411 704 411 705 412 705 418 705 411 706 418 706 417 706 417 707 418 707 421 707 408 708 413 708 412 708 412 709 413 709 419 709 412 710 419 710 418 710 418 711 419 711 421 711 408 712 414 712 413 712 413 713 414 713 420 713 413 714 420 714 419 714 419 715 420 715 421 715 408 716 409 716 414 716 414 717 409 717 415 717 414 718 415 718 420 718 420 719 415 719 421 719 422 720 424 720 423 720 423 721 424 721 430 721 423 722 430 722 429 722 429 723 430 723 435 723 422 724 425 724 424 724 424 725 425 725 431 725 424 726 431 726 430 726 430 727 431 727 435 727 422 728 426 728 425 728 425 729 426 729 432 729 425 730 432 730 431 730 431 731 432 731 435 731 422 732 427 732 426 732 426 733 427 733 433 733 426 734 433 734 432 734 432 735 433 735 435 735 422 736 428 736 427 736 427 737 428 737 434 737 427 738 434 738 433 738 433 739 434 739 435 739 422 740 423 740 428 740 428 741 423 741 429 741 428 742 429 742 434 742 434 743 429 743 435 743 436 744 438 744 437 744 437 745 438 745 444 745 437 746 444 746 443 746 443 747 444 747 449 747 436 748 439 748 438 748 438 749 439 749 445 749 438 750 445 750 444 750 444 751 445 751 449 751 436 752 440 752 439 752 439 753 440 753 446 753 439 754 446 754 445 754 445 755 446 755 449 755 436 756 441 756 440 756 440 757 441 757 447 757 440 758 447 758 446 758 446 759 447 759 449 759 436 760 442 760 441 760 441 761 442 761 448 761 441 762 448 762 447 762 447 763 448 763 449 763 436 764 437 764 442 764 442 765 437 765 443 765 442 766 443 766 448 766 448 767 443 767 449 767 450 768 452 768 451 768 451 769 452 769 458 769 451 770 458 770 457 770 457 771 458 771 463 771 450 772 453 772 452 772 452 773 453 773 459 773 452 774 459 774 458 774 458 775 459 775 463 775 450 776 454 776 453 776 453 777 454 777 460 777 453 778 460 778 459 778 459 779 460 779 463 779 450 780 455 780 454 780 454 781 455 781 461 781 454 782 461 782 460 782 460 783 461 783 463 783 450 784 456 784 455 784 455 785 456 785 462 785 455 786 462 786 461 786 461 787 462 787 463 787 450 788 451 788 456 788 456 789 451 789 457 789 456 790 457 790 462 790 462 791 457 791 463 791 464 792 466 792 465 792 465 793 466 793 472 793 465 794 472 794 471 794 471 795 472 795 477 795 464 796 467 796 466 796 466 797 467 797 473 797 466 798 473 798 472 798 472 799 473 799 477 799 464 800 468 800 467 800 467 801 468 801 474 801 467 802 474 802 473 802 473 803 474 803 477 803 464 804 469 804 468 804 468 805 469 805 475 805 468 806 475 806 474 806 474 807 475 807 477 807 464 808 470 808 469 808 469 809 470 809 476 809 469 810 476 810 475 810 475 811 476 811 477 811 464 812 465 812 470 812 470 813 465 813 471 813 470 814 471 814 476 814 476 815 471 815 477 815 478 816 480 816 479 816 479 817 480 817 486 817 479 818 486 818 485 818 485 819 486 819 491 819 478 820 481 820 480 820 480 821 481 821 487 821 480 822 487 822 486 822 486 823 487 823 491 823 478 824 482 824 481 824 481 825 482 825 488 825 481 826 488 826 487 826 487 827 488 827 491 827 478 828 483 828 482 828 482 829 483 829 489 829 482 830 489 830 488 830 488 831 489 831 491 831 478 832 484 832 483 832 483 833 484 833 490 833 483 834 490 834 489 834 489 835 490 835 491 835 478 836 479 836 484 836 484 837 479 837 485 837 484 838 485 838 490 838 490 839 485 839 491 839 492 840 494 840 493 840 493 841 494 841 500 841 493 842 500 842 499 842 499 843 500 843 505 843 492 844 495 844 494 844 494 845 495 845 501 845 494 846 501 846 500 846 500 847 501 847 505 847 492 848 496 848 495 848 495 849 496 849 502 849 495 850 502 850 501 850 501 851 502 851 505 851 492 852 497 852 496 852 496 853 497 853 503 853 496 854 503 854 502 854 502 855 503 855 505 855 492 856 498 856 497 856 497 857 498 857 504 857 497 858 504 858 503 858 503 859 504 859 505 859 492 860 493 860 498 860 498 861 493 861 499 861 498 862 499 862 504 862 504 863 499 863 505 863 506 864 508 864 507 864 507 865 508 865 514 865 507 866 514 866 513 866 513 867 514 867 519 867 506 868 509 868 508 868 508 869 509 869 515 869 508 870 515 870 514 870 514 871 515 871 519 871 506 872 510 872 509 872 509 873 510 873 516 873 509 874 516 874 515 874 515 875 516 875 519 875 506 876 511 876 510 876 510 877 511 877 517 877 510 878 517 878 516 878 516 879 517 879 519 879 506 880 512 880 511 880 511 881 512 881 518 881 511 882 518 882 517 882 517 883 518 883 519 883 506 884 507 884 512 884 512 885 507 885 513 885 512 886 513 886 518 886 518 887 513 887 519 887 520 888 522 888 521 888 521 889 522 889 528 889 521 890 528 890 527 890 527 891 528 891 533 891 520 892 523 892 522 892 522 893 523 893 529 893 522 894 529 894 528 894 528 895 529 895 533 895 520 896 524 896 523 896 523 897 524 897 530 897 523 898 530 898 529 898 529 899 530 899 533 899 520 900 525 900 524 900 524 901 525 901 531 901 524 902 531 902 530 902 530 903 531 903 533 903 520 904 526 904 525 904 525 905 526 905 532 905 525 906 532 906 531 906 531 907 532 907 533 907 520 908 521 908 526 908 526 909 521 909 527 909 526 910 527 910 532 910 532 911 527 911 533 911 534 912 536 912 535 912 535 913 536 913 542 913 535 914 542 914 541 914 541 915 542 915 547 915 534 916 537 916 536 916 536 917 537 917 543 917 536 918 543 918 542 918 542 919 543 919 547 919 534 920 538 920 537 920 537 921 538 921 544 921 537 922 544 922 543 922 543 923 544 923 547 923 534 924 539 924 538 924 538 925 539 925 545 925 538 926 545 926 544 926 544 927 545 927 547 927 534 928 540 928 539 928 539 929 540 929 546 929 539 930 546 930 545 930 545 931 546 931 547 931 534 932 535 932 540 932 540 933 535 933 541 933 540 934 541 934 546 934 546 935 541 935 547 935 548 936 550 936 549 936 549 937 550 937 556 937 549 938 556 938 555 938 555 939 556 939 561 939 548 940 551 940 550 940 550 941 551 941 557 941 550 942 557 942 556 942 556 943 557 943 561 943 548 944 552 944 551 944 551 945 552 945 558 945 551 946 558 946 557 946 557 947 558 947 561 947 548 948 553 948 552 948 552 949 553 949 559 949 552 950 559 950 558 950 558 951 559 951 561 951 548 952 554 952 553 952 553 953 554 953 560 953 553 954 560 954 559 954 559 955 560 955 561 955 548 956 549 956 554 956 554 957 549 957 555 957 554 958 555 958 560 958 560 959 555 959 561 959 562 960 564 960 563 960 563 961 564 961 570 961 563 962 570 962 569 962 569 963 570 963 575 963 562 964 565 964 564 964 564 965 565 965 571 965 564 966 571 966 570 966 570 967 571 967 575 967 562 968 566 968 565 968 565 969 566 969 572 969 565 970 572 970 571 970 571 971 572 971 575 971 562 972 567 972 566 972 566 973 567 973 573 973 566 974 573 974 572 974 572 975 573 975 575 975 562 976 568 976 567 976 567 977 568 977 574 977 567 978 574 978 573 978 573 979 574 979 575 979 562 980 563 980 568 980 568 981 563 981 569 981 568 982 569 982 574 982 574 983 569 983 575 983 576 984 578 984 577 984 577 985 578 985 584 985 577 986 584 986 583 986 583 987 584 987 589 987 576 988 579 988 578 988 578 989 579 989 585 989 578 990 585 990 584 990 584 991 585 991 589 991 576 992 580 992 579 992 579 993 580 993 586 993 579 994 586 994 585 994 585 995 586 995 589 995 576 996 581 996 580 996 580 997 581 997 587 997 580 998 587 998 586 998 586 999 587 999 589 999 576 1000 582 1000 581 1000 581 1001 582 1001 588 1001 581 1002 588 1002 587 1002 587 1003 588 1003 589 1003 576 1004 577 1004 582 1004 582 1005 577 1005 583 1005 582 1006 583 1006 588 1006 588 1007 583 1007 589 1007 590 1008 592 1008 591 1008 591 1009 592 1009 598 1009 591 1010 598 1010 597 1010 597 1011 598 1011 603 1011 590 1012 593 1012 592 1012 592 1013 593 1013 599 1013 592 1014 599 1014 598 1014 598 1015 599 1015 603 1015 590 1016 594 1016 593 1016 593 1017 594 1017 600 1017 593 1018 600 1018 599 1018 599 1019 600 1019 603 1019 590 1020 595 1020 594 1020 594 1021 595 1021 601 1021 594 1022 601 1022 600 1022 600 1023 601 1023 603 1023 590 1024 596 1024 595 1024 595 1025 596 1025 602 1025 595 1026 602 1026 601 1026 601 1027 602 1027 603 1027 590 1028 591 1028 596 1028 596 1029 591 1029 597 1029 596 1030 597 1030 602 1030 602 1031 597 1031 603 1031</p></triangles>
</mesh></geometry></library_geometries><library_visual_scenes><visual_scene id="Scene"><node id="mesh"><instance_geometry url="#geometry"/></node></visual_scene></library_visual_scenes><scene><instance_visual_scene url="#Scene"/></scene></COLLADA>