<?xml version="1.0" encoding="UTF-8"?>
<COLLADA xmlns="http://www.collada.org/2005/11/COLLADASchema" version="1.4.1">
<asset><contributor><authoring_tool>Summit Estate procedural mesh exporter</authoring_tool></contributor><created>2026-09-11T00:00:00Z</created><modified>2026-09-11T00:00:00Z</modified><unit name="meter" meter="1"/><up_axis>Z_UP</up_axis></asset>
<library_geometries><geometry id="geometry" name="geometry"><mesh>
<source id="positions"><float_array id="positions-array" count="2100">-172.10375 -390.71000 28.77375 -171.62250 -390.71000 28.77375 -171.62250 -390.71000 28.87000 -172.10375 -390.71000 28.87000 -171.52625 -390.71000 28.77375 -171.43000 -390.71000 28.77375 -171.43000 -390.71000 28.87000 -171.52625 -390.71000 28.87000 -171.04500 -390.71000 28.77375 -170.94875 -390.71000 28.77375 -170.94875 -390.71000 28.87000 -171.04500 -390.71000 28.87000 -170.75625 -390.71000 28.77375 -170.27500 -390.71000 28.77375 -170.27500 -390.71000 28.87000 -170.75625 -390.71000 28.87000 -169.89000 -390.71000 28.77375 -169.60125 -390.71000 28.77375 -169.60125 -390.71000 28.87000 -169.89000 -390.71000 28.87000 -169.31250 -390.71000 28.77375 -169.21625 -390.71000 28.77375 -169.21625 -390.71000 28.87000 -169.31250 -390.71000 28.87000 -168.92750 -390.71000 28.77375 -168.83125 -390.71000 28.77375 -168.83125 -390.71000 28.87000 -168.92750 -390.71000 28.87000 -168.63875 -390.71000 28.77375 -168.44625 -390.71000 28.77375 -168.44625 -390.71000 28.87000 -168.63875 -390.71000 28.87000 -168.15750 -390.71000 28.77375 -167.96500 -390.71000 28.77375 -167.96500 -390.71000 28.87000 -168.15750 -390.71000 28.87000 -167.77250 -390.71000 28.77375 -167.58000 -390.71000 28.77375 -167.58000 -390.71000 28.87000 -167.77250 -390.71000 28.87000 -167.29125 -390.71000 28.77375 -167.09875 -390.71000 28.77375 -167.09875 -390.71000 28.87000 -167.29125 -390.71000 28.87000 -166.90625 -390.71000 28.77375 -166.81000 -390.71000 28.77375 -166.81000 -390.71000 28.87000 -166.90625 -390.71000 28.87000 -166.61750 -390.71000 28.77375 -166.13625 -390.71000 28.77375 -166.13625 -390.71000 28.87000 -166.61750 -390.71000 28.87000 -171.91125 -390.71000 28.67750 -171.81500 -390.71000 28.67750 -171.81500 -390.71000 28.77375 -171.91125 -390.71000 28.77375 -171.52625 -390.71000 28.67750 -171.43000 -390.71000 28.67750 -171.43000 -390.71000 28.77375 -171.52625 -390.71000 28.77375 -171.04500 -390.71000 28.67750 -170.94875 -390.71000 28.67750 -170.94875 -390.71000 28.77375 -171.04500 -390.71000 28.77375 -170.75625 -390.71000 28.67750 -170.66000 -390.71000 28.67750 -170.66000 -390.71000 28.77375 -170.75625 -390.71000 28.77375 -169.98625 -390.71000 28.67750 -169.89000 -390.71000 28.67750 -169.89000 -390.71000 28.77375 -169.98625 -390.71000 28.77375 -169.60125 -390.71000 28.67750 -169.50500 -390.71000 28.67750 -169.50500 -390.71000 28.77375 -169.60125 -390.71000 28.77375 -169.31250 -390.71000 28.67750 -169.21625 -390.71000 28.67750 -169.21625 -390.71000 28.77375 -169.31250 -390.71000 28.77375 -168.92750 -390.71000 28.67750 -168.83125 -390.71000 28.67750 -168.83125 -390.71000 28.77375 -168.92750 -390.71000 28.77375 -168.63875 -390.71000 28.67750 -168.44625 -390.71000 28.67750 -168.44625 -390.71000 28.77375 -168.63875 -390.71000 28.77375 -168.15750 -390.71000 28.67750 -167.96500 -390.71000 28.67750 -167.96500 -390.71000 28.77375 -168.15750 -390.71000 28.77375 -167.77250 -390.71000 28.67750 -167.58000 -390.71000 28.67750 -167.58000 -390.71000 28.77375 -167.77250 -390.71000 28.77375 -167.29125 -390.71000 28.67750 -167.09875 -390.71000 28.67750 -167.09875 -390.71000 28.77375 -167.29125 -390.71000 28.77375 -166.90625 -390.71000 28.67750 -166.81000 -390.71000 28.67750 -166.81000 -390.71000 28.77375 -166.90625 -390.71000 28.77375 -166.42500 -390.71000 28.67750 -166.32875 -390.71000 28.67750 -166.32875 -390.71000 28.77375 -166.42500 -390.71000 28.77375 -171.91125 -390.71000 28.58125 -171.81500 -390.71000 28.58125 -171.81500 -390.71000 28.67750 -171.91125 -390.71000 28.67750 -171.52625 -390.71000 28.58125 -171.43000 -390.71000 28.58125 -171.43000 -390.71000 28.67750 -171.52625 -390.71000 28.67750 -171.04500 -390.71000 28.58125 -170.94875 -390.71000 28.58125 -170.94875 -390.71000 28.67750 -171.04500 -390.71000 28.67750 -170.75625 -390.71000 28.58125 -170.66000 -390.71000 28.58125 -170.66000 -390.71000 28.67750 -170.75625 -390.71000 28.67750 -169.98625 -390.71000 28.58125 -169.89000 -390.71000 28.58125 -169.89000 -390.71000 28.67750 -169.98625 -390.71000 28.67750 -169.31250 -390.71000 28.58125 -169.21625 -390.71000 28.58125 -169.21625 -390.71000 28.67750 -169.31250 -390.71000 28.67750 -168.92750 -390.71000 28.58125 -168.83125 -390.71000 28.58125 -168.83125 -390.71000 28.67750 -168.92750 -390.71000 28.67750 -168.63875 -390.71000 28.58125 -168.44625 -390.71000 28.58125 -168.44625 -390.71000 28.67750 -168.63875 -390.71000 28.67750 -168.15750 -390.71000 28.58125 -167.96500 -390.71000 28.58125 -167.96500 -390.71000 28.67750 -168.15750 -390.71000 28.67750 -167.77250 -390.71000 28.58125 -167.58000 -390.71000 28.58125 -167.58000 -390.71000 28.67750 -167.77250 -390.71000 28.67750 -167.29125 -390.71000 28.58125 -167.09875 -390.71000 28.58125 -167.09875 -390.71000 28.67750 -167.29125 -390.71000 28.67750 -166.90625 -390.71000 28.58125 -166.81000 -390.71000 28.58125 -166.81000 -390.71000 28.67750 -166.90625 -390.71000 28.67750 -166.42500 -390.71000 28.58125 -166.32875 -390.71000 28.58125 -166.32875 -390.71000 28.67750 -166.42500 -390.71000 28.67750 -171.91125 -390.71000 28.48500 -171.81500 -390.71000 28.48500 -171.81500 -390.71000 28.58125 -171.91125 -390.71000 28.58125 -171.52625 -390.71000 28.48500 -171.43000 -390.71000 28.48500 -171.43000 -390.71000 28.58125 -171.52625 -390.71000 28.58125 -171.04500 -390.71000 28.48500 -170.94875 -390.71000 28.48500 -170.94875 -390.71000 28.58125 -171.04500 -390.71000 28.58125 -170.75625 -390.71000 28.48500 -170.66000 -390.71000 28.48500 -170.66000 -390.71000 28.58125 -170.75625 -390.71000 28.58125 -169.89000 -390.71000 28.48500 -169.79375 -390.71000 28.48500 -169.79375 -390.71000 28.58125 -169.89000 -390.71000 28.58125 -169.31250 -390.71000 28.48500 -169.21625 -390.71000 28.48500 -169.21625 -390.71000 28.58125 -169.31250 -390.71000 28.58125 -168.92750 -390.71000 28.48500 -168.83125 -390.71000 28.48500 -168.83125 -390.71000 28.58125 -168.92750 -390.71000 28.58125 -168.63875 -390.71000 28.48500 -168.54250 -390.71000 28.48500 -168.54250 -390.71000 28.58125 -168.63875 -390.71000 28.58125 -168.44625 -390.71000 28.48500 -168.35000 -390.71000 28.48500 -168.35000 -390.71000 28.58125 -168.44625 -390.71000 28.58125 -168.25375 -390.71000 28.48500 -168.15750 -390.71000 28.48500 -168.15750 -390.71000 28.58125 -168.25375 -390.71000 28.58125 -168.06125 -390.71000 28.48500 -167.96500 -390.71000 28.48500 -167.96500 -390.71000 28.58125 -168.06125 -390.71000 28.58125 -167.77250 -390.71000 28.48500 -167.67625 -390.71000 28.48500 -167.67625 -390.71000 28.58125 -167.77250 -390.71000 28.58125 -167.58000 -390.71000 28.48500 -167.48375 -390.71000 28.48500 -167.48375 -390.71000 28.58125 -167.58000 -390.71000 28.58125 -167.38750 -390.71000 28.48500 -167.29125 -390.71000 28.48500 -167.29125 -390.71000 28.58125 -167.38750 -390.71000 28.58125 -167.19500 -390.71000 28.48500 -167.09875 -390.71000 28.48500 -167.09875 -390.71000 28.58125 -167.19500 -390.71000 28.58125 -166.90625 -390.71000 28.48500 -166.81000 -390.71000 28.48500 -166.81000 -390.71000 28.58125 -166.90625 -390.71000 28.58125 -166.42500 -390.71000 28.48500 -166.32875 -390.71000 28.48500 -166.32875 -390.71000 28.58125 -166.42500 -390.71000 28.58125 -171.91125 -390.71000 28.38875 -171.81500 -390.71000 28.38875 -171.81500 -390.71000 28.48500 -171.91125 -390.71000 28.48500 -171.52625 -390.71000 28.38875 -170.94875 -390.71000 28.38875 -170.94875 -390.71000 28.48500 -171.52625 -390.71000 28.48500 -170.75625 -390.71000 28.38875 -170.37125 -390.71000 28.38875 -170.37125 -390.71000 28.48500 -170.75625 -390.71000 28.48500 -169.79375 -390.71000 28.38875 -169.50500 -390.71000 28.38875 -169.50500 -390.71000 28.48500 -169.79375 -390.71000 28.48500 -169.31250 -390.71000 28.38875 -169.21625 -390.71000 28.38875 -169.21625 -390.71000 28.48500 -169.31250 -390.71000 28.48500 -168.92750 -390.71000 28.38875 -168.83125 -390.71000 28.38875 -168.83125 -390.71000 28.48500 -168.92750 -390.71000 28.48500 -168.63875 -390.71000 28.38875 -168.54250 -390.71000 28.38875 -168.54250 -390.71000 28.48500 -168.63875 -390.71000 28.48500 -168.44625 -390.71000 28.38875 -168.35000 -390.71000 28.38875 -168.35000 -390.71000 28.48500 -168.44625 -390.71000 28.48500 -168.25375 -390.71000 28.38875 -168.15750 -390.71000 28.38875 -168.15750 -390.71000 28.48500 -168.25375 -390.71000 28.48500 -168.06125 -390.71000 28.38875 -167.96500 -390.71000 28.38875 -167.96500 -390.71000 28.48500 -168.06125 -390.71000 28.48500 -167.77250 -390.71000 28.38875 -167.67625 -390.71000 28.38875 -167.67625 -390.71000 28.48500 -167.77250 -390.71000 28.48500 -167.58000 -390.71000 28.38875 -167.48375 -390.71000 28.38875 -167.48375 -390.71000 28.48500 -167.58000 -390.71000 28.48500 -167.38750 -390.71000 28.38875 -167.29125 -390.71000 28.38875 -167.29125 -390.71000 28.48500 -167.38750 -390.71000 28.48500 -167.19500 -390.71000 28.38875 -167.09875 -390.71000 28.38875 -167.09875 -390.71000 28.48500 -167.19500 -390.71000 28.48500 -166.90625 -390.71000 28.38875 -166.81000 -390.71000 28.38875 -166.81000 -390.71000 28.48500 -166.90625 -390.71000 28.48500 -166.42500 -390.71000 28.38875 -166.32875 -390.71000 28.38875 -166.32875 -390.71000 28.48500 -166.42500 -390.71000 28.48500 -171.91125 -390.71000 28.29250 -171.81500 -390.71000 28.29250 -171.81500 -390.71000 28.38875 -171.91125 -390.71000 28.38875 -171.52625 -390.71000 28.29250 -171.43000 -390.71000 28.29250 -171.43000 -390.71000 28.38875 -171.52625 -390.71000 28.38875 -171.04500 -390.71000 28.29250 -170.94875 -390.71000 28.29250 -170.94875 -390.71000 28.38875 -171.04500 -390.71000 28.38875 -170.75625 -390.71000 28.29250 -170.66000 -390.71000 28.29250 -170.66000 -390.71000 28.38875 -170.75625 -390.71000 28.38875 -169.60125 -390.71000 28.29250 -169.50500 -390.71000 28.29250 -169.50500 -390.71000 28.38875 -169.60125 -390.71000 28.38875 -169.31250 -390.71000 28.29250 -169.21625 -390.71000 28.29250 -169.21625 -390.71000 28.38875 -169.31250 -390.71000 28.38875 -168.92750 -390.71000 28.29250 -168.83125 -390.71000 28.29250 -168.83125 -390.71000 28.38875 -168.92750 -390.71000 28.38875 -168.63875 -390.71000 28.29250 -168.54250 -390.71000 28.29250 -168.54250 -390.71000 28.38875 -168.63875 -390.71000 28.38875 -168.44625 -390.71000 28.29250 -168.35000 -390.71000 28.29250 -168.35000 -390.71000 28.38875 -168.44625 -390.71000 28.38875 -168.25375 -390.71000 28.29250 -168.15750 -390.71000 28.29250 -168.15750 -390.71000 28.38875 -168.25375 -390.71000 28.38875 -168.06125 -390.71000 28.29250 -167.96500 -390.71000 28.29250 -167.96500 -390.71000 28.38875 -168.06125 -390.71000 28.38875 -167.77250 -390.71000 28.29250 -167.67625 -390.71000 28.29250 -167.67625 -390.71000 28.38875 -167.77250 -390.71000 28.38875 -167.58000 -390.71000 28.29250 -167.48375 -390.71000 28.29250 -167.48375 -390.71000 28.38875 -167.58000 -390.71000 28.38875 -167.38750 -390.71000 28.29250 -167.29125 -390.71000 28.29250 -167.29125 -390.71000 28.38875 -167.38750 -390.71000 28.38875 -167.19500 -390.71000 28.29250 -167.09875 -390.71000 28.29250 -167.09875 -390.71000 28.38875 -167.19500 -390.71000 28.38875 -166.90625 -390.71000 28.29250 -166.81000 -390.71000 28.29250 -166.81000 -390.71000 28.38875 -166.90625 -390.71000 28.38875 -166.42500 -390.71000 28.29250 -166.32875 -390.71000 28.29250 -166.32875 -390.71000 28.38875 -166.42500 -390.71000 28.38875 -171.91125 -390.71000 28.19625 -171.81500 -390.71000 28.19625 -171.81500 -390.71000 28.29250 -171.91125 -390.71000 28.29250 -171.52625 -390.71000 28.19625 -171.43000 -390.71000 28.19625 -171.43000 -390.71000 28.29250 -171.52625 -390.71000 28.29250 -171.04500 -390.71000 28.19625 -170.94875 -390.71000 28.19625 -170.94875 -390.71000 28.29250 -171.04500 -390.71000 28.29250 -170.75625 -390.71000 28.19625 -170.66000 -390.71000 28.19625 -170.66000 -390.71000 28.29250 -170.75625 -390.71000 28.29250 -169.98625 -390.71000 28.19625 -169.89000 -390.71000 28.19625 -169.89000 -390.71000 28.29250 -169.98625 -390.71000 28.29250 -169.60125 -390.71000 28.19625 -169.50500 -390.71000 28.19625 -169.50500 -390.71000 28.29250 -169.60125 -390.71000 28.29250 -169.31250 -390.71000 28.19625 -169.21625 -390.71000 28.19625 -169.21625 -390.71000 28.29250 -169.31250 -390.71000 28.29250 -168.92750 -390.71000 28.19625 -168.83125 -390.71000 28.19625 -168.83125 -390.71000 28.29250 -168.92750 -390.71000 28.29250 -168.63875 -390.71000 28.19625 -168.54250 -390.71000 28.19625 -168.54250 -390.71000 28.29250 -168.63875 -390.71000 28.29250 -168.44625 -390.71000 28.19625 -168.25375 -390.71000 28.19625 -168.25375 -390.71000 28.29250 -168.44625 -390.71000 28.29250 -168.06125 -390.71000 28.19625 -167.96500 -390.71000 28.19625 -167.96500 -390.71000 28.29250 -168.06125 -390.71000 28.29250 -167.77250 -390.71000 28.19625 -167.67625 -390.71000 28.19625 -167.67625 -390.71000 28.29250 -167.77250 -390.71000 28.29250 -167.58000 -390.71000 28.19625 -167.38750 -390.71000 28.19625 -167.38750 -390.71000 28.29250 -167.58000 -390.71000 28.29250 -167.19500 -390.71000 28.19625 -167.09875 -390.71000 28.19625 -167.09875 -390.71000 28.29250 -167.19500 -390.71000 28.29250 -166.90625 -390.71000 28.19625 -166.81000 -390.71000 28.19625 -166.81000 -390.71000 28.29250 -166.90625 -390.71000 28.29250 -166.42500 -390.71000 28.19625 -166.32875 -390.71000 28.19625 -166.32875 -390.71000 28.29250 -166.42500 -390.71000 28.29250 -171.91125 -390.71000 28.10000 -171.81500 -390.71000 28.10000 -171.81500 -390.71000 28.19625 -171.91125 -390.71000 28.19625 -171.52625 -390.71000 28.10000 -171.43000 -390.71000 28.10000 -171.43000 -390.71000 28.19625 -171.52625 -390.71000 28.19625 -171.04500 -390.71000 28.10000 -170.94875 -390.71000 28.10000 -170.94875 -390.71000 28.19625 -171.04500 -390.71000 28.19625 -170.75625 -390.71000 28.10000 -170.27500 -390.71000 28.10000 -170.27500 -390.71000 28.19625 -170.75625 -390.71000 28.19625 -169.89000 -390.71000 28.10000 -169.60125 -390.71000 28.10000 -169.60125 -390.71000 28.19625 -169.89000 -390.71000 28.19625 -169.21625 -390.71000 28.10000 -168.92750 -390.71000 28.10000 -168.92750 -390.71000 28.19625 -169.21625 -390.71000 28.19625 -168.63875 -390.71000 28.10000 -168.54250 -390.71000 28.10000 -168.54250 -390.71000 28.19625 -168.63875 -390.71000 28.19625 -168.35000 -390.71000 28.10000 -168.25375 -390.71000 28.10000 -168.25375 -390.71000 28.19625 -168.35000 -390.71000 28.19625 -168.06125 -390.71000 28.10000 -167.96500 -390.71000 28.10000 -167.96500 -390.71000 28.19625 -168.06125 -390.71000 28.19625 -167.77250 -390.71000 28.10000 -167.67625 -390.71000 28.10000 -167.67625 -390.71000 28.19625 -167.77250 -390.71000 28.19625 -167.48375 -390.71000 28.10000 -167.38750 -390.71000 28.10000 -167.38750 -390.71000 28.19625 -167.48375 -390.71000 28.19625 -167.19500 -390.71000 28.10000 -167.09875 -390.71000 28.10000 -167.09875 -390.71000 28.19625 -167.19500 -390.71000 28.19625 -166.90625 -390.71000 28.10000 -166.81000 -390.71000 28.10000 -166.81000 -390.71000 28.19625 -166.90625 -390.71000 28.19625 -166.42500 -390.71000 28.10000 -166.32875 -390.71000 28.10000 -166.32875 -390.71000 28.19625 -166.42500 -390.71000 28.19625 -170.80750 -390.72000 27.84750 -170.34500 -390.72000 27.84750 -170.34500 -390.72000 27.94000 -170.80750 -390.72000 27.94000 -170.16000 -390.72000 27.84750 -169.88250 -390.72000 27.84750 -169.88250 -390.72000 27.94000 -170.16000 -390.72000 27.94000 -169.60500 -390.72000 27.84750 -169.14250 -390.72000 27.84750 -169.14250 -390.72000 27.94000 -169.60500 -390.72000 27.94000 -168.86500 -390.72000 27.84750 -168.77250 -390.72000 27.84750 -168.77250 -390.72000 27.94000 -168.86500 -390.72000 27.94000 -168.49500 -390.72000 27.84750 -168.03250 -390.72000 27.84750 -168.03250 -390.72000 27.94000 -168.49500 -390.72000 27.94000 -167.94000 -390.72000 27.84750 -167.57000 -390.72000 27.84750 -167.57000 -390.72000 27.94000 -167.94000 -390.72000 27.94000 -170.80750 -390.72000 27.75500 -170.71500 -390.72000 27.75500 -170.71500 -390.72000 27.84750 -170.80750 -390.72000 27.84750 -170.25250 -390.72000 27.75500 -170.16000 -390.72000 27.75500 -170.16000 -390.72000 27.84750 -170.25250 -390.72000 27.84750 -169.88250 -390.72000 27.75500 -169.79000 -390.72000 27.75500 -169.79000 -390.72000 27.84750 -169.88250 -390.72000 27.84750 -169.42000 -390.72000 27.75500 -169.32750 -390.72000 27.75500 -169.32750 -390.72000 27.84750 -169.42000 -390.72000 27.84750 -168.95750 -390.72000 27.75500 -168.77250 -390.72000 27.75500 -168.77250 -390.72000 27.84750 -168.95750 -390.72000 27.84750 -168.31000 -390.72000 27.75500 -168.21750 -390.72000 27.75500 -168.21750 -390.72000 27.84750 -168.31000 -390.72000 27.84750 -167.94000 -390.72000 27.75500 -167.84750 -390.72000 27.75500 -167.84750 -390.72000 27.84750 -167.94000 -390.72000 27.84750 -170.80750 -390.72000 27.66250 -170.71500 -390.72000 27.66250 -170.71500 -390.72000 27.75500 -170.80750 -390.72000 27.75500 -170.25250 -390.72000 27.66250 -170.16000 -390.72000 27.66250 -170.16000 -390.72000 27.75500 -170.25250 -390.72000 27.75500 -169.42000 -390.72000 27.66250 -169.32750 -390.72000 27.66250 -169.32750 -390.72000 27.75500 -169.42000 -390.72000 27.75500 -168.95750 -390.72000 27.66250 -168.86500 -390.72000 27.66250 -168.86500 -390.72000 27.75500 -168.95750 -390.72000 27.75500 -168.77250 -390.72000 27.66250 -168.68000 -390.72000 27.66250 -168.68000 -390.72000 27.75500 -168.77250 -390.72000 27.75500 -168.31000 -390.72000 27.66250 -168.21750 -390.72000 27.66250 -168.21750 -390.72000 27.75500 -168.31000 -390.72000 27.75500 -167.94000 -390.72000 27.66250 -167.84750 -390.72000 27.66250 -167.84750 -390.72000 27.75500 -167.94000 -390.72000 27.75500 -170.80750 -390.72000 27.57000 -170.71500 -390.72000 27.57000 -170.71500 -390.72000 27.66250 -170.80750 -390.72000 27.66250 -170.16000 -390.72000 27.57000 -170.06750 -390.72000 27.57000 -170.06750 -390.72000 27.66250 -170.16000 -390.72000 27.66250 -169.42000 -390.72000 27.57000 -169.32750 -390.72000 27.57000 -169.32750 -390.72000 27.66250 -169.42000 -390.72000 27.66250 -169.05000 -390.72000 27.57000 -168.95750 -390.72000 27.57000 -168.95750 -390.72000 27.66250 -169.05000 -390.72000 27.66250 -168.77250 -390.72000 27.57000 -168.68000 -390.72000 27.57000 -168.68000 -390.72000 27.66250 -168.77250 -390.72000 27.66250 -168.31000 -390.72000 27.57000 -168.21750 -390.72000 27.57000 -168.21750 -390.72000 27.66250 -168.31000 -390.72000 27.66250 -167.94000 -390.72000 27.57000 -167.84750 -390.72000 27.57000 -167.84750 -390.72000 27.66250 -167.94000 -390.72000 27.66250 -170.80750 -390.72000 27.47750 -170.43750 -390.72000 27.47750 -170.43750 -390.72000 27.57000 -170.80750 -390.72000 27.57000 -170.06750 -390.72000 27.47750 -169.79000 -390.72000 27.47750 -169.79000 -390.72000 27.57000 -170.06750 -390.72000 27.57000 -169.42000 -390.72000 27.47750 -169.32750 -390.72000 27.47750 -169.32750 -390.72000 27.57000 -169.42000 -390.72000 27.57000 -169.05000 -390.72000 27.47750 -168.68000 -390.72000 27.47750 -168.68000 -390.72000 27.57000 -169.05000 -390.72000 27.57000 -168.31000 -390.72000 27.47750 -168.21750 -390.72000 27.47750 -168.21750 -390.72000 27.57000 -168.31000 -390.72000 27.57000 -167.94000 -390.72000 27.47750 -167.57000 -390.72000 27.47750 -167.57000 -390.72000 27.57000 -167.94000 -390.72000 27.57000 -170.80750 -390.72000 27.38500 -170.71500 -390.72000 27.38500 -170.71500 -390.72000 27.47750 -170.80750 -390.72000 27.47750 -169.88250 -390.72000 27.38500 -169.79000 -390.72000 27.38500 -169.79000 -390.72000 27.47750 -169.88250 -390.72000 27.47750 -169.42000 -390.72000 27.38500 -169.32750 -390.72000 27.38500 -169.32750 -390.72000 27.47750 -169.42000 -390.72000 27.47750 -169.05000 -390.72000 27.38500 -168.95750 -390.72000 27.38500 -168.95750 -390.72000 27.47750 -169.05000 -390.72000 27.47750 -168.68000 -390.72000 27.38500 -168.58750 -390.72000 27.38500 -168.58750 -390.72000 27.47750 -168.68000 -390.72000 27.47750 -168.31000 -390.72000 27.38500 -168.21750 -390.72000 27.38500 -168.21750 -390.72000 27.47750 -168.31000 -390.72000 27.47750 -167.94000 -390.72000 27.38500 -167.84750 -390.72000 27.38500 -167.84750 -390.72000 27.47750 -167.94000 -390.72000 27.47750 -170.80750 -390.72000 27.29250 -170.71500 -390.72000 27.29250 -170.71500 -390.72000 27.38500 -170.80750 -390.72000 27.38500 -170.25250 -390.72000 27.29250 -170.16000 -390.72000 27.29250 -170.16000 -390.72000 27.38500 -170.25250 -390.72000 27.38500 -169.88250 -390.72000 27.29250 -169.79000 -390.72000 27.29250 -169.79000 -390.72000 27.38500 -169.88250 -390.72000 27.38500 -169.42000 -390.72000 27.29250 -169.32750 -390.72000 27.29250 -169.32750 -390.72000 27.38500 -169.42000 -390.72000 27.38500 -169.05000 -390.72000 27.29250 -168.95750 -390.72000 27.29250 -168.95750 -390.72000 27.38500 -169.05000 -390.72000 27.38500 -168.68000 -390.72000 27.29250 -168.58750 -390.72000 27.29250 -168.58750 -390.72000 27.38500 -168.68000 -390.72000 27.38500 -168.31000 -390.72000 27.29250 -168.21750 -390.72000 27.29250 -168.21750 -390.72000 27.38500 -168.31000 -390.72000 27.38500 -167.94000 -390.72000 27.29250 -167.84750 -390.72000 27.29250 -167.84750 -390.72000 27.38500 -167.94000 -390.72000 27.38500 -170.80750 -390.72000 27.20000 -170.34500 -390.72000 27.20000 -170.34500 -390.72000 27.29250 -170.80750 -390.72000 27.29250 -170.16000 -390.72000 27.20000 -169.88250 -390.72000 27.20000 -169.88250 -390.72000 27.29250 -170.16000 -390.72000 27.29250 -169.42000 -390.72000 27.20000 -169.32750 -390.72000 27.20000 -169.32750 -390.72000 27.29250 -169.42000 -390.72000 27.29250 -169.14250 -390.72000 27.20000 -169.05000 -390.72000 27.20000 -169.05000 -390.72000 27.29250 -169.14250 -390.72000 27.29250 -168.68000 -390.72000 27.20000 -168.58750 -390.72000 27.20000 -168.58750 -390.72000 27.29250 -168.68000 -390.72000 27.29250 -168.31000 -390.72000 27.20000 -168.21750 -390.72000 27.20000 -168.21750 -390.72000 27.29250 -168.31000 -390.72000 27.29250 -167.94000 -390.72000 27.20000 -167.57000 -390.72000 27.20000 -167.57000 -390.72000 27.29250 -167.94000 -390.72000 27.29250</float_array><technique_common><accessor source="#positions-array" count="700" stride="3"><param name="X" type="float"/><param name="Y" type="float"/><param name="Z" type="float"/></accessor></technique_common></source>
<source id="normals"><float_array id="normals-array" count="1050">0.00000 -1.00000 0.00000 0.00000 -1.00000 0.00000 0.00000 -1.00000 0.00000 0.00000 -1.00000 0.00000 0.00000 -1.00000 0.00000 0.00000 -1.00000 0.00000 0.00000 -1.00000 0.00000 0.00000 -1.00000 0.00000 0.00000 -1.00000 0.00000 0.00000 -1.00000 0.00000 0.00000 -1.00000 0.00000 0.00000 -1.00000 0.00000 0.00000 -1.00000 0.00000 0.00000 -1.00000 0.00000 0.00000 -1.00000 0.00000 0.00000 -1.00000 0.00000 0.00000 -1.00000 0.00000 0.00000 -1.00000 0.00000 0.00000 -1.00000 0.00000 0.00000 -1.00000 0.00000 0.00000 -1.00000 0.00000 0.00000 -1.00000 0.00000 0.00000 -1.00000 0.00000 0.00000 -1.00000 0.00000 0.00000 -1.00000 0.00000 0.00000 -1.00000 0.00000 0.00000 -1.00000 0.00000 0.00000 -1.00000 0.00000 0.00000 -1.00000 0.00000 0.00000 -1.00000 0.00000 0.00000 -1.00000 0.00000 0.00000 -1.00000 0.00000 0.00000 -1.00000 0.00000 0.00000 -1.00000 0.00000 0.00000 -1.00000 0.00000 0.00000 -1.00000 0.00000 0.00000 -1.00000 0.00000 0.00000 -1.00000 0.00000 0.00000 -1.00000 0.00000 0.00000 -1.00000 0.00000 0.00000 -1.00000 0.00000 0.00000 -1.00000 0.00000 0.00000 -1.00000 0.00000 0.00000 -1.00000 0.00000 0.00000 -1.00000 0.00000 0.00000 -1.00000 0.00000 0.00000 -1.00000 0.00000 0.00000 -1.00000 0.00000 0.00000 -1.00000 0.00000 0.00000 -1.00000 0.00000 0.00000 -1.00000 0.00000 0.00000 -1.00000 0.00000 0.00000 -1.00000 0.00000 0.00000 -1.00000 0.00000 0.00000 -1.00000 0.00000 0.00000 -1.00000 0.00000 0.00000 -1.00000 0.00000 0.00000 -1.00000 0.00000 0.00000 -1.00000 0.00000 0.00000 -1.00000 0.00000 0.00000 -1.00000 0.00000 0.00000 -1.00000 0.00000 0.00000 -1.00000 0.00000 0.00000 -1.00000 0.00000 0.00000 -1.00000 0.00000 0.00000 -1.00000 0.00000 0.00000 -1.00000 0.00000 0.00000 -1.00000 0.00000 0.00000 -1.00000 0.00000 0.00000 -1.00000 0.00000 0.00000 -1.00000 0.00000 0.00000 -1.00000 0.00000 0.00000 -1.00000 0.00000 0.00000 -1.00000 0.00000 0.00000 -1.00000 0.00000 0.00000 -1.00000 0.00000 0.00000 -1.00000 0.00000 0.00000 -1.00000 0.00000 0.00000 -1.00000 0.00000 0.00000 -1.00000 0.00000 0.00000 -1.00000 0.00000 0.00000 -1.00000 0.00000 0.00000 -1.00000 0.00000 0.00000 -1.00000 0.00000 0.00000 -1.00000 0.00000 0.00000 -1.00000 0.00000 0.00000 -1.00000 0.00000 0.00000 -1.00000 0.00000 0.00000 -1.00000 0.00000 0.00000 -1.00000 0.00000 0.00000 -1.00000 0.00000 0.00000 -1.00000 0.00000 0.00000 -1.00000 0.00000 0.00000 -1.00000 0.00000 0.00000 -1.00000 0.00000 0.00000 -1.00000 0.00000 0.00000 -1.00000 0.00000 0.00000 -1.00000 0.00000 0.00000 -1.00000 0.00000 0.00000 -1.00000 0.00000 0.00000 -1.00000 0.00000 0.00000 -1.00000 0.00000 0.00000 -1.00000 0.00000 0.00000 -1.00000 0.00000 0.00000 -1.00000 0.00000 0.00000 -1.00000 0.00000 0.00000 -1.00000 0.00000 0.00000 -1.00000 0.00000 0.00000 -1.00000 0.00000 0.00000 -1.00000 0.00000 0.00000 -1.00000 0.00000 0.00000 -1.00000 0.00000 0.00000 -1.00000 0.00000 0.00000 -1.00000 0.00000 0.00000 -1.00000 0.00000 0.00000 -1.00000 0.00000 0.00000 -1.00000 0.00000 0.00000 -1.00000 0.00000 0.00000 -1.00000 0.00000 0.00000 -1.00000 0.00000 0.00000 -1.00000 0.00000 0.00000 -1.00000 0.00000 0.00000 -1.00000 0.00000 0.00000 -1.00000 0.00000 0.00000 -1.00000 0.00000 0.00000 -1.00000 0.00000 0.00000 -1.00000 0.00000 0.00000 -1.00000 0.00000 0.00000 -1.00000 0.00000 0.00000 -1.00000 0.00000 0.00000 -1.00000 0.00000 0.00000 -1.00000 0.00000 0.00000 -1.00000 0.00000 0.00000 -1.00000 0.00000 0.00000 -1.00000 0.00000 0.00000 -1.00000 0.00000 0.00000 -1.00000 0.00000 0.00000 -1.00000 0.00000 0.00000 -1.00000 0.00000 0.00000 -1.00000 0.00000 0.00000 -1.00000 0.00000 0.00000 -1.00000 0.00000 0.00000 -1.00000 0.00000 0.00000 -1.00000 0.00000 0.00000 -1.00000 0.00000 0.00000 -1.00000 0.00000 0.00000 -1.00000 0.00000 0.00000 -1.00000 0.00000 0.00000 -1.00000 0.00000 0.00000 -1.00000 0.00000 0.00000 -1.00000 0.00000 0.00000 -1.00000 0.00000 0.00000 -1.00000 0.00000 0.00000 -1.00000 0.00000 0.00000 -1.00000 0.00000 0.00000 -1.00000 0.00000 0.00000 -1.00000 0.00000 0.00000 -1.00000 0.00000 0.00000 -1.00000 0.00000 0.00000 -1.00000 0.00000 0.00000 -1.00000 0.00000 0.00000 -1.00000 0.00000 0.00000 -1.00000 0.00000 0.00000 -1.00000 0.00000 0.00000 -1.00000 0.00000 0.00000 -1.00000 0.00000 0.00000 -1.00000 0.00000 0.00000 -1.00000 0.00000 0.00000 -1.00000 0.00000 0.00000 -1.00000 0.00000 0.00000 -1.00000 0.00000 0.00000 -1.00000 0.00000 0.00000 -1.00000 0.00000 0.00000 -1.00000 0.00000 0.00000 -1.00000 0.00000 0.00000 -1.00000 0.00000 0.00000 -1.00000 0.00000 0.00000 -1.00000 0.00000 0.00000 -1.00000 0.00000 0.00000 -1.00000 0.00000 0.00000 -1.00000 0.00000 0.00000 -1.00000 0.00000 0.00000 -1.00000 0.00000 0.00000 -1.00000 0.00000 0.00000 -1.00000 0.00000 0.00000 -1.00000 0.00000 0.00000 -1.00000 0.00000 0.00000 -1.00000 0.00000 0.00000 -1.00000 0.00000 0.00000 -1.00000 0.00000 0.00000 -1.00000 0.00000 0.00000 -1.00000 0.00000 0.00000 -1.00000 0.00000 0.00000 -1.00000 0.00000 0.00000 -1.00000 0.00000 0.00000 -1.00000 0.00000 0.00000 -1.00000 0.00000 0.00000 -1.00000 0.00000 0.00000 -1.00000 0.00000 0.00000 -1.00000 0.00000 0.00000 -1.00000 0.00000 0.00000 -1.00000 0.00000 0.00000 -1.00000 0.00000 0.00000 -1.00000 0.00000 0.00000 -1.00000 0.00000 0.00000 -1.00000 0.00000 0.00000 -1.00000 0.00000 0.00000 -1.00000 0.00000 0.00000 -1.00000 0.00000 0.00000 -1.00000 0.00000 0.00000 -1.00000 0.00000 0.00000 -1.00000 0.00000 0.00000 -1.00000 0.00000 0.00000 -1.00000 0.00000 0.00000 -1.00000 0.00000 0.00000 -1.00000 0.00000 0.00000 -1.00000 0.00000 0.00000 -1.00000 0.00000 0.00000 -1.00000 0.00000 0.00000 -1.00000 0.00000 0.00000 -1.00000 0.00000 0.00000 -1.00000 0.00000 0.00000 -1.00000 0.00000 0.00000 -1.00000 0.00000 0.00000 -1.00000 0.00000 0.00000 -1.00000 0.00000 0.00000 -1.00000 0.00000 0.00000 -1.00000 0.00000 0.00000 -1.00000 0.00000 0.00000 -1.00000 0.00000 0.00000 -1.00000 0.00000 0.00000 -1.00000 0.00000 0.00000 -1.00000 0.00000 0.00000 -1.00000 0.00000 0.00000 -1.00000 0.00000 0.00000 -1.00000 0.00000 0.00000 -1.00000 0.00000 0.00000 -1.00000 0.00000 0.00000 -1.00000 0.00000 0.00000 -1.00000 0.00000 0.00000 -1.00000 0.00000 0.00000 -1.00000 0.00000 0.00000 -1.00000 0.00000 0.00000 -1.00000 0.00000 0.00000 -1.00000 0.00000 0.00000 -1.00000 0.00000 0.00000 -1.00000 0.00000 0.00000 -1.00000 0.00000 0.00000 -1.00000 0.00000 0.00000 -1.00000 0.00000 0.00000 -1.00000 0.00000 0.00000 -1.00000 0.00000 0.00000 -1.00000 0.00000 0.00000 -1.00000 0.00000 0.00000 -1.00000 0.00000 0.00000 -1.00000 0.00000 0.00000 -1.00000 0.00000 0.00000 -1.00000 0.00000 0.00000 -1.00000 0.00000 0.00000 -1.00000 0.00000 0.00000 -1.00000 0.00000 0.00000 -1.00000 0.00000 0.00000 -1.00000 0.00000 0.00000 -1.00000 0.00000 0.00000 -1.00000 0.00000 0.00000 -1.00000 0.00000 0.00000 -1.00000 0.00000 0.00000 -1.00000 0.00000 0.00000 -1.00000 0.00000 0.00000 -1.00000 0.00000 0.00000 -1.00000 0.00000 0.00000 -1.00000 0.00000 0.00000 -1.00000 0.00000 0.00000 -1.00000 0.00000 0.00000 -1.00000 0.00000 0.00000 -1.00000 0.00000 0.00000 -1.00000 0.00000 0.00000 -1.00000 0.00000 0.00000 -1.00000 0.00000 0.00000 -1.00000 0.00000 0.00000 -1.00000 0.00000 0.00000 -1.00000 0.00000 0.00000 -1.00000 0.00000 0.00000 -1.00000 0.00000 0.00000 -1.00000 0.00000 0.00000 -1.00000 0.00000 0.00000 -1.00000 0.00000 0.00000 -1.00000 0.00000 0.00000 -1.00000 0.00000 0.00000 -1.00000 0.00000 0.00000 -1.00000 0.00000 0.00000 -1.00000 0.00000 0.00000 -1.00000 0.00000 0.00000 -1.00000 0.00000 0.00000 -1.00000 0.00000 0.00000 -1.00000 0.00000 0.00000 -1.00000 0.00000 0.00000 -1.00000 0.00000 0.00000 -1.00000 0.00000 0.00000 -1.00000 0.00000 0.00000 -1.00000 0.00000 0.00000 -1.00000 0.00000 0.00000 -1.00000 0.00000 0.00000 -1.00000 0.00000 0.00000 -1.00000 0.00000 0.00000 -1.00000 0.00000 0.00000 -1.00000 0.00000 0.00000 -1.00000 0.00000 0.00000 -1.00000 0.00000 0.00000 -1.00000 0.00000 0.00000 -1.00000 0.00000 0.00000 -1.00000 0.00000 0.00000 -1.00000 0.00000 0.00000 -1.00000 0.00000 0.00000 -1.00000 0.00000 0.00000 -1.00000 0.00000 0.00000 -1.00000 0.00000 0.00000 -1.00000 0.00000 0.00000 -1.00000 0.00000 0.00000 -1.00000 0.00000 0.00000 -1.00000 0.00000 0.00000 -1.00000 0.00000 0.00000 -1.00000 0.00000 0.00000 -1.00000 0.00000 0.00000 -1.00000 0.00000 0.00000 -1.00000 0.00000 0.00000 -1.00000 0.00000 0.00000 -1.00000 0.00000 0.00000 -1.00000 0.00000 0.00000 -1.00000 0.00000 0.00000 -1.00000 0.00000 0.00000 -1.00000 0.00000 0.00000 -1.00000 0.00000 0.00000 -1.00000 0.00000 0.00000 -1.00000 0.00000 0.00000 -1.00000 0.00000 0.00000 -1.00000 0.00000 0.00000 -1.00000 0.00000 0.00000 -1.00000 0.00000 0.00000 -1.00000 0.00000 0.00000 -1.00000 0.00000 0.00000 -1.00000 0.00000 0.00000 -1.00000 0.00000 0.00000 -1.00000 0.00000 0.00000 -1.00000 0.00000 0.00000 -1.00000 0.00000 0.00000 -1.00000 0.00000 0.00000 -1.00000 0.00000 0.00000 -1.00000 0.00000 0.00000 -1.00000 0.00000</float_array><technique_common><accessor source="#normals-array" count="350" stride="3"><param name="X" type="float"/><param name="Y" type="float"/><param name="Z" type="float"/></accessor></technique_common></source>
<vertices id="vertices"><input semantic="POSITION" source="#positions"/></vertices><triangles count="350"><input semantic="VERTEX" source="#vertices" offset="0"/><input semantic="NORMAL" source="#normals" offset="1"/><p>0 0 1 0 2 0 0 1 2 1 3 1 4 2 5 2 6 2 4 3 6 3 7 3 8 4 9 4 10 4 8 5 10 5 11 5 12 6 13 6 14 6 12 7 14 7 15 7 16 8 17 8 18 8 16 9 18 9 19 9 20 10 21 10 22 10 20 11 22 11 23 11 24 12 25 12 26 12 24 13 26 13 27 13 28 14 29 14 30 14 28 15 30 15 31 15 32 16 33 16 34 16 32 17 34 17 35 17 36 18 37 18 38 18 36 19 38 19 39 19 40 20 41 20 42 20 40 21 42 21 43 21 44 22 45 22 46 22 44 23 46 23 47 23 48 24 49 24 50 24 48 25 50 25 51 25 52 26 53 26 54 26 52 27 54 27 55 27 56 28 57 28 58 28 56 29 58 29 59 29 60 30 61 30 62 30 60 31 62 31 63 31 64 32 65 32 66 32 64 33 66 33 67 33 68 34 69 34 70 34 68 35 70 35 71 35 72 36 73 36 74 36 72 37 74 37 75 37 76 38 77 38 78 38 76 39 78 39 79 39 80 40 81 40 82 40 80 41 82 41 83 41 84 42 85 42 86 42 84 43 86 43 87 43 88 44 89 44 90 44 88 45 90 45 91 45 92 46 93 46 94 46 92 47 94 47 95 47 96 48 97 48 98 48 96 49 98 49 99 49 100 50 101 50 102 50 100 51 102 51 103 51 104 52 105 52 106 52 104 53 106 53 107 53 108 54 109 54 110 54 108 55 110 55 111 55 112 56 113 56 114 56 112 57 114 57 115 57 116 58 117 58 118 58 116 59 118 59 119 59 120 60 121 60 122 60 120 61 122 61 123 61 124 62 125 62 126 62 124 63 126 63 127 63 128 64 129 64 130 64 128 65 130 65 131 65 132 66 133 66 134 66 132 67 134 67 135 67 136 68 137 68 138 68 136 69 138 69 139 69 140 70 141 70 142 70 140 71 142 71 143 71 144 72 145 72 146 72 144 73 146 73 147 73 148 74 149 74 150 74 148 75 150 75 151 75 152 76 153 76 154 76 152 77 154 77 155 77 156 78 157 78 158 78 156 79 158 79 159 79 160 80 161 80 162 80 160 81 162 81 163 81 164 82 165 82 166 82 164 83 166 83 167 83 168 84 169 84 170 84 168 85 170 85 171 85 172 86 173 86 174 86 172 87 174 87 175 87 176 88 177 88 178 88 176 89 178 89 179 89 180 90 181 90 182 90 180 91 182 91 183 91 184 92 185 92 186 92 184 93 186 93 187 93 188 94 189 94 190 94 188 95 190 95 191 95 192 96 193 96 194 96 192 97 194 97 195 97 196 98 197 98 198 98 196 99 198 99 199 99 200 100 201 100 202 100 200 101 202 101 203 101 204 102 205 102 206 102 204 103 206 103 207 103 208 104 209 104 210 104 208 105 210 105 211 105 212 106 213 106 214 106 212 107 214 107 215 107 216 108 217 108 218 108 216 109 218 109 219 109 220 110 221 110 222 110 220 111 222 111 223 111 224 112 225 112 226 112 224 113 226 113 227 113 228 114 229 114 230 114 228 115 230 115 231 115 232 116 233 116 234 116 232 117 234 117 235 117 236 118 237 118 238 118 236 119 238 119 239 119 240 120 241 120 242 120 240 121 242 121 243 121 244 122 245 122 246 122 244 123 246 123 247 123 248 124 249 124 250 124 248 125 250 125 251 125 252 126 253 126 254 126 252 127 254 127 255 127 256 128 257 128 258 128 256 129 258 129 259 129 260 130 261 130 262 130 260 131 262 131 263 131 264 132 265 132 266 132 264 133 266 133 267 133 268 134 269 134 270 134 268 135 270 135 271 135 272 136 273 136 274 136 272 137 274 137 275 137 276 138 277 138 278 138 276 139 278 139 279 139 280 140 281 140 282 140 280 141 282 141 283 141 284 142 285 142 286 142 284 143 286 143 287 143 288 144 289 144 290 144 288 145 290 145 291 145 292 146 293 146 294 146 292 147 294 147 295 147 296 148 297 148 298 148 296 149 298 149 299 149 300 150 301 150 302 150 300 151 302 151 303 151 304 152 305 152 306 152 304 153 306 153 307 153 308 154 309 154 310 154 308 155 310 155 311 155 312 156 313 156 314 156 312 157 314 157 315 157 316 158 317 158 318 158 316 159 318 159 319 159 320 160 321 160 322 160 320 161 322 161 323 161 324 162 325 162 326 162 324 163 326 163 327 163 328 164 329 164 330 164 328 165 330 165 331 165 332 166 333 166 334 166 332 167 334 167 335 167 336 168 337 168 338 168 336 169 338 169 339 169 340 170 341 170 342 170 340 171 342 171 343 171 344 172 345 172 346 172 344 173 346 173 347 173 348 174 349 174 350 174 348 175 350 175 351 175 352 176 353 176 354 176 352 177 354 177 355 177 356 178 357 178 358 178 356 179 358 179 359 179 360 180 361 180 362 180 360 181 362 181 363 181 364 182 365 182 366 182 364 183 366 183 367 183 368 184 369 184 370 184 368 185 370 185 371 185 372 186 373 186 374 186 372 187 374 187 375 187 376 188 377 188 378 188 376 189 378 189 379 189 380 190 381 190 382 190 380 191 382 191 383 191 384 192 385 192 386 192 384 193 386 193 387 193 388 194 389 194 390 194 388 195 390 195 391 195 392 196 393 196 394 196 392 197 394 197 395 197 396 198 397 198 398 198 396 199 398 199 399 199 400 200 401 200 402 200 400 201 402 201 403 201 404 202 405 202 406 202 404 203 406 203 407 203 408 204 409 204 410 204 408 205 410 205 411 205 412 206 413 206 414 206 412 207 414 207 415 207 416 208 417 208 418 208 416 209 418 209 419 209 420 210 421 210 422 210 420 211 422 211 423 211 424 212 425 212 426 212 424 213 426 213 427 213 428 214 429 214 430 214 428 215 430 215 431 215 432 216 433 216 434 216 432 217 434 217 435 217 436 218 437 218 438 218 436 219 438 219 439 219 440 220 441 220 442 220 440 221 442 221 443 221 444 222 445 222 446 222 444 223 446 223 447 223 448 224 449 224 450 224 448 225 450 225 451 225 452 226 453 226 454 226 452 227 454 227 455 227 456 228 457 228 458 228 456 229 458 229 459 229 460 230 461 230 462 230 460 231 462 231 463 231 464 232 465 232 466 232 464 233 466 233 467 233 468 234 469 234 470 234 468 235 470 235 471 235 472 236 473 236 474 236 472 237 474 237 475 237 476 238 477 238 478 238 476 239 478 239 479 239 480 240 481 240 482 240 480 241 482 241 483 241 484 242 485 242 486 242 484 243 486 243 487 243 488 244 489 244 490 244 488 245 490 245 491 245 492 246 493 246 494 246 492 247 494 247 495 247 496 248 497 248 498 248 496 249 498 249 499 249 500 250 501 250 502 250 500 251 502 251 503 251 504 252 505 252 506 252 504 253 506 253 507 253 508 254 509 254 510 254 508 255 510 255 511 255 512 256 513 256 514 256 512 257 514 257 515 257 516 258 517 258 518 258 516 259 518 259 519 259 520 260 521 260 522 260 520 261 522 261 523 261 524 262 525 262 526 262 524 263 526 263 527 263 528 264 529 264 530 264 528 265 530 265 531 265 532 266 533 266 534 266 532 267 534 267 535 267 536 268 537 268 538 268 536 269 538 269 539 269 540 270 541 270 542 270 540 271 542 271 543 271 544 272 545 272 546 272 544 273 546 273 547 273 548 274 549 274 550 274 548 275 550 275 551 275 552 276 553 276 554 276 552 277 554 277 555 277 556 278 557 278 558 278 556 279 558 279 559 279 560 280 561 280 562 280 560 281 562 281 563 281 564 282 565 282 566 282 564 283 566 283 567 283 568 284 569 284 570 284 568 285 570 285 571 285 572 286 573 286 574 286 572 287 574 287 575 287 576 288 577 288 578 288 576 289 578 289 579 289 580 290 581 290 582 290 580 291 582 291 583 291 584 292 585 292 586 292 584 293 586 293 587 293 588 294 589 294 590 294 588 295 590 295 591 295 592 296 593 296 594 296 592 297 594 297 595 297 596 298 597 298 598 298 596 299 598 299 599 299 600 300 601 300 602 300 600 301 602 301 603 301 604 302 605 302 606 302 604 303 606 303 607 303 608 304 609 304 610 304 608 305 610 305 611 305 612 306 613 306 614 306 612 307 614 307 615 307 616 308 617 308 618 308 616 309 618 309 619 309 620 310 621 310 622 310 620 311 622 311 623 311 624 312 625 312 626 312 624 313 626 313 627 313 628 314 629 314 630 314 628 315 630 315 631 315 632 316 633 316 634 316 632 317 634 317 635 317 636 318 637 318 638 318 636 319 638 319 639 319 640 320 641 320 642 320 640 321 642 321 643 321 644 322 645 322 646 322 644 323 646 323 647 323 648 324 649 324 650 324 648 325 650 325 651 325 652 326 653 326 654 326 652 327 654 327 655 327 656 328 657 328 658 328 656 329 658 329 659 329 660 330 661 330 662 330 660 331 662 331 663 331 664 332 665 332 666 332 664 333 666 333 667 333 668 334 669 334 670 334 668 335 670 335 671 335 672 336 673 336 674 336 672 337 674 337 675 337 676 338 677 338 678 338 676 339 678 339 679 339 680 340 681 340 682 340 680 341 682 341 683 341 684 342 685 342 686 342 684 343 686 343 687 343 688 344 689 344 690 344 688 345 690 345 691 345 692 346 693 346 694 346 692 347 694 347 695 347 696 348 697 348 698 348 696 349 698 349 699 349</p></triangles>
</mesh></geometry></library_geometries><library_visual_scenes><visual_scene id="Scene"><node id="mesh"><instance_geometry url="#geometry"/></node></visual_scene></library_visual_scenes><scene><instance_visual_scene url="#Scene"/></scene></COLLADA>