<?xml version="1.0" encoding="UTF-8"?>
<COLLADA xmlns="http://www.collada.org/2005/11/COLLADASchema" version="1.4.1">
<asset><contributor><authoring_tool>Summit Estate procedural mesh exporter</authoring_tool></contributor><created>2026-09-11T00:00:00Z</created><modified>2026-09-11T00:00:00Z</modified><unit name="meter" meter="1"/><up_axis>Z_UP</up_axis></asset>
<library_geometries><geometry id="geometry" name="geometry"><mesh>
<source id="positions"><float_array id="positions-array" count="504">-194.50000 -395.00000 26.82500 -193.58000 -395.00000 26.82500 -193.62503 -394.71570 26.82500 -193.75570 -394.45924 26.82500 -193.95924 -394.25570 26.82500 -194.21570 -394.12503 26.82500 -194.50000 -394.08000 26.82500 -194.78430 -394.12503 26.82500 -195.04076 -394.25570 26.82500 -195.24430 -394.45924 26.82500 -195.37497 -394.71570 26.82500 -195.42000 -395.00000 26.82500 -195.37497 -395.28430 26.82500 -195.24430 -395.54076 26.82500 -195.04076 -395.74430 26.82500 -194.78430 -395.87497 26.82500 -194.50000 -395.92000 26.82500 -194.21570 -395.87497 26.82500 -193.95924 -395.74430 26.82500 -193.75570 -395.54076 26.82500 -193.62503 -395.28430 26.82500 -194.50000 -400.00000 26.50500 -193.58000 -400.00000 26.50500 -193.62503 -399.71570 26.50500 -193.75570 -399.45924 26.50500 -193.95924 -399.25570 26.50500 -194.21570 -399.12503 26.50500 -194.50000 -399.08000 26.50500 -194.78430 -399.12503 26.50500 -195.04076 -399.25570 26.50500 -195.24430 -399.45924 26.50500 -195.37497 -399.71570 26.50500 -195.42000 -400.00000 26.50500 -195.37497 -400.28430 26.50500 -195.24430 -400.54076 26.50500 -195.04076 -400.74430 26.50500 -194.78430 -400.87497 26.50500 -194.50000 -400.92000 26.50500 -194.21570 -400.87497 26.50500 -193.95924 -400.74430 26.50500 -193.75570 -400.54076 26.50500 -193.62503 -400.28430 26.50500 -194.50000 -405.00000 26.18500 -193.58000 -405.00000 26.18500 -193.62503 -404.71570 26.18500 -193.75570 -404.45924 26.18500 -193.95924 -404.25570 26.18500 -194.21570 -404.12503 26.18500 -194.50000 -404.08000 26.18500 -194.78430 -404.12503 26.18500 -195.04076 -404.25570 26.18500 -195.24430 -404.45924 26.18500 -195.37497 -404.71570 26.18500 -195.42000 -405.00000 26.18500 -195.37497 -405.28430 26.18500 -195.24430 -405.54076 26.18500 -195.04076 -405.74430 26.18500 -194.78430 -405.87497 26.18500 -194.50000 -405.92000 26.18500 -194.21570 -405.87497 26.18500 -193.95924 -405.74430 26.18500 -193.75570 -405.54076 26.18500 -193.62503 -405.28430 26.18500 -194.50000 -410.00000 25.86500 -193.58000 -410.00000 25.86500 -193.62503 -409.71570 25.86500 -193.75570 -409.45924 25.86500 -193.95924 -409.25570 25.86500 -194.21570 -409.12503 25.86500 -194.50000 -409.08000 25.86500 -194.78430 -409.12503 25.86500 -195.04076 -409.25570 25.86500 -195.24430 -409.45924 25.86500 -195.37497 -409.71570 25.86500 -195.42000 -410.00000 25.86500 -195.37497 -410.28430 25.86500 -195.24430 -410.54076 25.86500 -195.04076 -410.74430 25.86500 -194.78430 -410.87497 25.86500 -194.50000 -410.92000 25.86500 -194.21570 -410.87497 25.86500 -193.95924 -410.74430 25.86500 -193.75570 -410.54076 25.86500 -193.62503 -410.28430 25.86500 -175.50000 -395.00000 26.82500 -174.58000 -395.00000 26.82500 -174.62503 -394.71570 26.82500 -174.75570 -394.45924 26.82500 -174.95924 -394.25570 26.82500 -175.21570 -394.12503 26.82500 -175.50000 -394.08000 26.82500 -175.78430 -394.12503 26.82500 -176.04076 -394.25570 26.82500 -176.24430 -394.45924 26.82500 -176.37497 -394.71570 26.82500 -176.42000 -395.00000 26.82500 -176.37497 -395.28430 26.82500 -176.24430 -395.54076 26.82500 -176.04076 -395.74430 26.82500 -175.78430 -395.87497 26.82500 -175.50000 -395.92000 26.82500 -175.21570 -395.87497 26.82500 -174.95924 -395.74430 26.82500 -174.75570 -395.54076 26.82500 -174.62503 -395.28430 26.82500 -175.50000 -400.00000 26.50500 -174.58000 -400.00000 26.50500 -174.62503 -399.71570 26.50500 -174.75570 -399.45924 26.50500 -174.95924 -399.25570 26.50500 -175.21570 -399.12503 26.50500 -175.50000 -399.08000 26.50500 -175.78430 -399.12503 26.50500 -176.04076 -399.25570 26.50500 -176.24430 -399.45924 26.50500 -176.37497 -399.71570 26.50500 -176.42000 -400.00000 26.50500 -176.37497 -400.28430 26.50500 -176.24430 -400.54076 26.50500 -176.04076 -400.74430 26.50500 -175.78430 -400.87497 26.50500 -175.50000 -400.92000 26.50500 -175.21570 -400.87497 26.50500 -174.95924 -400.74430 26.50500 -174.75570 -400.54076 26.50500 -174.62503 -400.28430 26.50500 -175.50000 -405.00000 26.18500 -174.58000 -405.00000 26.18500 -174.62503 -404.71570 26.18500 -174.75570 -404.45924 26.18500 -174.95924 -404.25570 26.18500 -175.21570 -404.12503 26.18500 -175.50000 -404.08000 26.18500 -175.78430 -404.12503 26.18500 -176.04076 -404.25570 26.18500 -176.24430 -404.45924 26.18500 -176.37497 -404.71570 26.18500 -176.42000 -405.00000 26.18500 -176.37497 -405.28430 26.18500 -176.24430 -405.54076 26.18500 -176.04076 -405.74430 26.18500 -175.78430 -405.87497 26.18500 -175.50000 -405.92000 26.18500 -175.21570 -405.87497 26.18500 -174.95924 -405.74430 26.18500 -174.75570 -405.54076 26.18500 -174.62503 -405.28430 26.18500 -175.50000 -410.00000 25.86500 -174.58000 -410.00000 25.86500 -174.62503 -409.71570 25.86500 -174.75570 -409.45924 25.86500 -174.95924 -409.25570 25.86500 -175.21570 -409.12503 25.86500 -175.50000 -409.08000 25.86500 -175.78430 -409.12503 25.86500 -176.04076 -409.25570 25.86500 -176.24430 -409.45924 25.86500 -176.37497 -409.71570 25.86500 -176.42000 -410.00000 25.86500 -176.37497 -410.28430 25.86500 -176.24430 -410.54076 25.86500 -176.04076 -410.74430 25.86500 -175.78430 -410.87497 25.86500 -175.50000 -410.92000 25.86500 -175.21570 -410.87497 25.86500 -174.95924 -410.74430 25.86500 -174.75570 -410.54076 25.86500 -174.62503 -410.28430 25.86500</float_array><technique_common><accessor source="#positions-array" count="168" stride="3"><param name="X" type="float"/><param name="Y" type="float"/><param name="Z" type="float"/></accessor></technique_common></source>
<source id="normals"><float_array id="normals-array" count="480">0.00000 0.00000 1.00000 0.00000 0.00000 1.00000 0.00000 0.00000 1.00000 0.00000 0.00000 1.00000 0.00000 0.00000 1.00000 0.00000 -0.00000 1.00000 0.00000 0.00000 1.00000 0.00000 0.00000 1.00000 0.00000 0.00000 1.00000 0.00000 0.00000 1.00000 0.00000 0.00000 1.00000 0.00000 0.00000 1.00000 0.00000 0.00000 1.00000 0.00000 0.00000 1.00000 0.00000 0.00000 1.00000 0.00000 0.00000 1.00000 0.00000 0.00000 1.00000 0.00000 0.00000 1.00000 0.00000 0.00000 1.00000 -0.00000 0.00000 1.00000 0.00000 0.00000 1.00000 0.00000 0.00000 1.00000 0.00000 0.00000 1.00000 0.00000 0.00000 1.00000 0.00000 0.00000 1.00000 0.00000 -0.00000 1.00000 0.00000 0.00000 1.00000 0.00000 0.00000 1.00000 0.00000 0.00000 1.00000 0.00000 0.00000 1.00000 0.00000 0.00000 1.00000 0.00000 0.00000 1.00000 0.00000 0.00000 1.00000 0.00000 0.00000 1.00000 0.00000 0.00000 1.00000 0.00000 0.00000 1.00000 0.00000 0.00000 1.00000 0.00000 0.00000 1.00000 0.00000 0.00000 1.00000 -0.00000 0.00000 1.00000 0.00000 0.00000 1.00000 0.00000 0.00000 1.00000 0.00000 0.00000 1.00000 0.00000 0.00000 1.00000 0.00000 0.00000 1.00000 0.00000 -0.00000 1.00000 0.00000 0.00000 1.00000 0.00000 0.00000 1.00000 0.00000 0.00000 1.00000 0.00000 0.00000 1.00000 0.00000 0.00000 1.00000 0.00000 0.00000 1.00000 0.00000 0.00000 1.00000 0.00000 0.00000 1.00000 0.00000 0.00000 1.00000 0.00000 0.00000 1.00000 0.00000 0.00000 1.00000 0.00000 0.00000 1.00000 0.00000 0.00000 1.00000 -0.00000 0.00000 1.00000 0.00000 0.00000 1.00000 0.00000 0.00000 1.00000 0.00000 0.00000 1.00000 0.00000 0.00000 1.00000 0.00000 0.00000 1.00000 0.00000 -0.00000 1.00000 0.00000 0.00000 1.00000 0.00000 0.00000 1.00000 0.00000 0.00000 1.00000 0.00000 0.00000 1.00000 0.00000 0.00000 1.00000 0.00000 0.00000 1.00000 0.00000 0.00000 1.00000 0.00000 0.00000 1.00000 0.00000 0.00000 1.00000 0.00000 0.00000 1.00000 0.00000 0.00000 1.00000 0.00000 0.00000 1.00000 0.00000 0.00000 1.00000 -0.00000 0.00000 1.00000 0.00000 0.00000 1.00000 0.00000 0.00000 1.00000 0.00000 0.00000 1.00000 0.00000 0.00000 1.00000 0.00000 0.00000 1.00000 0.00000 -0.00000 1.00000 0.00000 0.00000 1.00000 0.00000 0.00000 1.00000 0.00000 0.00000 1.00000 0.00000 0.00000 1.00000 0.00000 0.00000 1.00000 0.00000 0.00000 1.00000 0.00000 0.00000 1.00000 0.00000 0.00000 1.00000 0.00000 0.00000 1.00000 0.00000 0.00000 1.00000 0.00000 0.00000 1.00000 0.00000 0.00000 1.00000 0.00000 0.00000 1.00000 -0.00000 0.00000 1.00000 0.00000 0.00000 1.00000 0.00000 0.00000 1.00000 0.00000 0.00000 1.00000 0.00000 0.00000 1.00000 0.00000 0.00000 1.00000 0.00000 -0.00000 1.00000 0.00000 0.00000 1.00000 0.00000 0.00000 1.00000 0.00000 0.00000 1.00000 0.00000 0.00000 1.00000 0.00000 0.00000 1.00000 0.00000 0.00000 1.00000 0.00000 0.00000 1.00000 0.00000 0.00000 1.00000 0.00000 0.00000 1.00000 0.00000 0.00000 1.00000 0.00000 0.00000 1.00000 0.00000 0.00000 1.00000 0.00000 0.00000 1.00000 -0.00000 0.00000 1.00000 0.00000 0.00000 1.00000 0.00000 0.00000 1.00000 0.00000 0.00000 1.00000 0.00000 0.00000 1.00000 0.00000 0.00000 1.00000 0.00000 -0.00000 1.00000 0.00000 0.00000 1.00000 0.00000 0.00000 1.00000 0.00000 0.00000 1.00000 0.00000 0.00000 1.00000 0.00000 0.00000 1.00000 0.00000 0.00000 1.00000 0.00000 0.00000 1.00000 0.00000 0.00000 1.00000 0.00000 0.00000 1.00000 0.00000 0.00000 1.00000 0.00000 0.00000 1.00000 0.00000 0.00000 1.00000 0.00000 0.00000 1.00000 -0.00000 0.00000 1.00000 0.00000 0.00000 1.00000 0.00000 0.00000 1.00000 0.00000 0.00000 1.00000 0.00000 0.00000 1.00000 0.00000 0.00000 1.00000 0.00000 -0.00000 1.00000 0.00000 0.00000 1.00000 0.00000 0.00000 1.00000 0.00000 0.00000 1.00000 0.00000 0.00000 1.00000 0.00000 0.00000 1.00000 0.00000 0.00000 1.00000 0.00000 0.00000 1.00000 0.00000 0.00000 1.00000 0.00000 0.00000 1.00000 0.00000 0.00000 1.00000 0.00000 0.00000 1.00000 0.00000 0.00000 1.00000 0.00000 0.00000 1.00000 -0.00000 0.00000 1.00000</float_array><technique_common><accessor source="#normals-array" count="160" stride="3"><param name="X" type="float"/><param name="Y" type="float"/><param name="Z" type="float"/></accessor></technique_common></source>
<vertices id="vertices"><input semantic="POSITION" source="#positions"/></vertices><triangles count="160"><input semantic="VERTEX" source="#vertices" offset="0"/><input semantic="NORMAL" source="#normals" offset="1"/><p>0 0 1 0 2 0 0 1 2 1 3 1 0 2 3 2 4 2 0 3 4 3 5 3 0 4 5 4 6 4 0 5 6 5 7 5 0 6 7 6 8 6 0 7 8 7 9 7 0 8 9 8 10 8 0 9 10 9 11 9 0 10 11 10 12 10 0 11 12 11 13 11 0 12 13 12 14 12 0 13 14 13 15 13 0 14 15 14 16 14 0 15 16 15 17 15 0 16 17 16 18 16 0 17 18 17 19 17 0 18 19 18 20 18 0 19 20 19 1 19 21 20 22 20 23 20 21 21 23 21 24 21 21 22 24 22 25 22 21 23 25 23 26 23 21 24 26 24 27 24 21 25 27 25 28 25 21 26 28 26 29 26 21 27 29 27 30 27 21 28 30 28 31 28 21 29 31 29 32 29 21 30 32 30 33 30 21 31 33 31 34 31 21 32 34 32 35 32 21 33 35 33 36 33 21 34 36 34 37 34 21 35 37 35 38 35 21 36 38 36 39 36 21 37 39 37 40 37 21 38 40 38 41 38 21 39 41 39 22 39 42 40 43 40 44 40 42 41 44 41 45 41 42 42 45 42 46 42 42 43 46 43 47 43 42 44 47 44 48 44 42 45 48 45 49 45 42 46 49 46 50 46 42 47 50 47 51 47 42 48 51 48 52 48 42 49 52 49 53 49 42 50 53 50 54 50 42 51 54 51 55 51 42 52 55 52 56 52 42 53 56 53 57 53 42 54 57 54 58 54 42 55 58 55 59 55 42 56 59 56 60 56 42 57 60 57 61 57 42 58 61 58 62 58 42 59 62 59 43 59 63 60 64 60 65 60 63 61 65 61 66 61 63 62 66 62 67 62 63 63 67 63 68 63 63 64 68 64 69 64 63 65 69 65 70 65 63 66 70 66 71 66 63 67 71 67 72 67 63 68 72 68 73 68 63 69 73 69 74 69 63 70 74 70 75 70 63 71 75 71 76 71 63 72 76 72 77 72 63 73 77 73 78 73 63 74 78 74 79 74 63 75 79 75 80 75 63 76 80 76 81 76 63 77 81 77 82 77 63 78 82 78 83 78 63 79 83 79 64 79 84 80 85 80 86 80 84 81 86 81 87 81 84 82 87 82 88 82 84 83 88 83 89 83 84 84 89 84 90 84 84 85 90 85 91 85 84 86 91 86 92 86 84 87 92 87 93 87 84 88 93 88 94 88 84 89 94 89 95 89 84 90 95 90 96 90 84 91 96 91 97 91 84 92 97 92 98 92 84 93 98 93 99 93 84 94 99 94 100 94 84 95 100 95 101 95 84 96 101 96 102 96 84 97 102 97 103 97 84 98 103 98 104 98 84 99 104 99 85 99 105 100 106 100 107 100 105 101 107 101 108 101 105 102 108 102 109 102 105 103 109 103 110 103 105 104 110 104 111 104 105 105 111 105 112 105 105 106 112 106 113 106 105 107 113 107 114 107 105 108 114 108 115 108 105 109 115 109 116 109 105 110 116 110 117 110 105 111 117 111 118 111 105 112 118 112 119 112 105 113 119 113 120 113 105 114 120 114 121 114 105 115 121 115 122 115 105 116 122 116 123 116 105 117 123 117 124 117 105 118 124 118 125 118 105 119 125 119 106 119 126 120 127 120 128 120 126 121 128 121 129 121 126 122 129 122 130 122 126 123 130 123 131 123 126 124 131 124 132 124 126 125 132 125 133 125 126 126 133 126 134 126 126 127 134 127 135 127 126 128 135 128 136 128 126 129 136 129 137 129 126 130 137 130 138 130 126 131 138 131 139 131 126 132 139 132 140 132 126 133 140 133 141 133 126 134 141 134 142 134 126 135 142 135 143 135 126 136 143 136 144 136 126 137 144 137 145 137 126 138 145 138 146 138 126 139 146 139 127 139 147 140 148 140 149 140 147 141 149 141 150 141 147 142 150 142 151 142 147 143 151 143 152 143 147 144 152 144 153 144 147 145 153 145 154 145 147 146 154 146 155 146 147 147 155 147 156 147 147 148 156 148 157 148 147 149 157 149 158 149 147 150 158 150 159 150 147 151 159 151 160 151 147 152 160 152 161 152 147 153 161 153 162 153 147 154 162 154 163 154 147 155 163 155 164 155 147 156 164 156 165 156 147 157 165 157 166 157 147 158 166 158 167 158 147 159 167 159 148 159</p></triangles>
</mesh></geometry></library_geometries><library_visual_scenes><visual_scene id="Scene"><node id="mesh"><instance_geometry url="#geometry"/></node></visual_scene></library_visual_scenes><scene><instance_visual_scene url="#Scene"/></scene></COLLADA>