<?xml version="1.0" encoding="UTF-8"?>
<COLLADA xmlns="http://www.collada.org/2005/11/COLLADASchema" version="1.4.1">
<asset><contributor><authoring_tool>Summit Estate procedural mesh exporter</authoring_tool></contributor><created>2026-09-11T00:00:00Z</created><modified>2026-09-11T00:00:00Z</modified><unit name="meter" meter="1"/><up_axis>Z_UP</up_axis></asset>
<library_geometries><geometry id="geometry" name="geometry"><mesh>
<source id="positions"><float_array id="positions-array" count="1008">-194.50000 -395.00000 26.57000 -194.00626 -395.00000 26.69032 -194.10056 -394.70979 26.69032 -194.34743 -394.53043 26.69032 -194.65257 -394.53043 26.69032 -194.89944 -394.70979 26.69032 -194.99374 -395.00000 26.69032 -194.89944 -395.29021 26.69032 -194.65257 -395.46957 26.69032 -194.34743 -395.46957 26.69032 -194.10056 -395.29021 26.69032 -193.70111 -395.00000 27.00532 -193.85369 -394.53043 27.00532 -194.25313 -394.24021 27.00532 -194.74687 -394.24021 27.00532 -195.14631 -394.53043 27.00532 -195.29889 -395.00000 27.00532 -195.14631 -395.46957 27.00532 -194.74687 -395.75979 27.00532 -194.25313 -395.75979 27.00532 -193.85369 -395.46957 27.00532 -193.70111 -395.00000 27.39468 -193.85369 -394.53043 27.39468 -194.25313 -394.24021 27.39468 -194.74687 -394.24021 27.39468 -195.14631 -394.53043 27.39468 -195.29889 -395.00000 27.39468 -195.14631 -395.46957 27.39468 -194.74687 -395.75979 27.39468 -194.25313 -395.75979 27.39468 -193.85369 -395.46957 27.39468 -194.00626 -395.00000 27.70968 -194.10056 -394.70979 27.70968 -194.34743 -394.53043 27.70968 -194.65257 -394.53043 27.70968 -194.89944 -394.70979 27.70968 -194.99374 -395.00000 27.70968 -194.89944 -395.29021 27.70968 -194.65257 -395.46957 27.70968 -194.34743 -395.46957 27.70968 -194.10056 -395.29021 27.70968 -194.50000 -395.00000 27.83000 -194.50000 -400.00000 26.25000 -194.00626 -400.00000 26.37032 -194.10056 -399.70979 26.37032 -194.34743 -399.53043 26.37032 -194.65257 -399.53043 26.37032 -194.89944 -399.70979 26.37032 -194.99374 -400.00000 26.37032 -194.89944 -400.29021 26.37032 -194.65257 -400.46957 26.37032 -194.34743 -400.46957 26.37032 -194.10056 -400.29021 26.37032 -193.70111 -400.00000 26.68532 -193.85369 -399.53043 26.68532 -194.25313 -399.24021 26.68532 -194.74687 -399.24021 26.68532 -195.14631 -399.53043 26.68532 -195.29889 -400.00000 26.68532 -195.14631 -400.46957 26.68532 -194.74687 -400.75979 26.68532 -194.25313 -400.75979 26.68532 -193.85369 -400.46957 26.68532 -193.70111 -400.00000 27.07468 -193.85369 -399.53043 27.07468 -194.25313 -399.24021 27.07468 -194.74687 -399.24021 27.07468 -195.14631 -399.53043 27.07468 -195.29889 -400.00000 27.07468 -195.14631 -400.46957 27.07468 -194.74687 -400.75979 27.07468 -194.25313 -400.75979 27.07468 -193.85369 -400.46957 27.07468 -194.00626 -400.00000 27.38968 -194.10056 -399.70979 27.38968 -194.34743 -399.53043 27.38968 -194.65257 -399.53043 27.38968 -194.89944 -399.70979 27.38968 -194.99374 -400.00000 27.38968 -194.89944 -400.29021 27.38968 -194.65257 -400.46957 27.38968 -194.34743 -400.46957 27.38968 -194.10056 -400.29021 27.38968 -194.50000 -400.00000 27.51000 -194.50000 -405.00000 25.93000 -194.00626 -405.00000 26.05032 -194.10056 -404.70979 26.05032 -194.34743 -404.53043 26.05032 -194.65257 -404.53043 26.05032 -194.89944 -404.70979 26.05032 -194.99374 -405.00000 26.05032 -194.89944 -405.29021 26.05032 -194.65257 -405.46957 26.05032 -194.34743 -405.46957 26.05032 -194.10056 -405.29021 26.05032 -193.70111 -405.00000 26.36532 -193.85369 -404.53043 26.36532 -194.25313 -404.24021 26.36532 -194.74687 -404.24021 26.36532 -195.14631 -404.53043 26.36532 -195.29889 -405.00000 26.36532 -195.14631 -405.46957 26.36532 -194.74687 -405.75979 26.36532 -194.25313 -405.75979 26.36532 -193.85369 -405.46957 26.36532 -193.70111 -405.00000 26.75468 -193.85369 -404.53043 26.75468 -194.25313 -404.24021 26.75468 -194.74687 -404.24021 26.75468 -195.14631 -404.53043 26.75468 -195.29889 -405.00000 26.75468 -195.14631 -405.46957 26.75468 -194.74687 -405.75979 26.75468 -194.25313 -405.75979 26.75468 -193.85369 -405.46957 26.75468 -194.00626 -405.00000 27.06968 -194.10056 -404.70979 27.06968 -194.34743 -404.53043 27.06968 -194.65257 -404.53043 27.06968 -194.89944 -404.70979 27.06968 -194.99374 -405.00000 27.06968 -194.89944 -405.29021 27.06968 -194.65257 -405.46957 27.06968 -194.34743 -405.46957 27.06968 -194.10056 -405.29021 27.06968 -194.50000 -405.00000 27.19000 -194.50000 -410.00000 25.61000 -194.00626 -410.00000 25.73032 -194.10056 -409.70979 25.73032 -194.34743 -409.53043 25.73032 -194.65257 -409.53043 25.73032 -194.89944 -409.70979 25.73032 -194.99374 -410.00000 25.73032 -194.89944 -410.29021 25.73032 -194.65257 -410.46957 25.73032 -194.34743 -410.46957 25.73032 -194.10056 -410.29021 25.73032 -193.70111 -410.00000 26.04532 -193.85369 -409.53043 26.04532 -194.25313 -409.24021 26.04532 -194.74687 -409.24021 26.04532 -195.14631 -409.53043 26.04532 -195.29889 -410.00000 26.04532 -195.14631 -410.46957 26.04532 -194.74687 -410.75979 26.04532 -194.25313 -410.75979 26.04532 -193.85369 -410.46957 26.04532 -193.70111 -410.00000 26.43468 -193.85369 -409.53043 26.43468 -194.25313 -409.24021 26.43468 -194.74687 -409.24021 26.43468 -195.14631 -409.53043 26.43468 -195.29889 -410.00000 26.43468 -195.14631 -410.46957 26.43468 -194.74687 -410.75979 26.43468 -194.25313 -410.75979 26.43468 -193.85369 -410.46957 26.43468 -194.00626 -410.00000 26.74968 -194.10056 -409.70979 26.74968 -194.34743 -409.53043 26.74968 -194.65257 -409.53043 26.74968 -194.89944 -409.70979 26.74968 -194.99374 -410.00000 26.74968 -194.89944 -410.29021 26.74968 -194.65257 -410.46957 26.74968 -194.34743 -410.46957 26.74968 -194.10056 -410.29021 26.74968 -194.50000 -410.00000 26.87000 -175.50000 -395.00000 26.57000 -175.00626 -395.00000 26.69032 -175.10056 -394.70979 26.69032 -175.34743 -394.53043 26.69032 -175.65257 -394.53043 26.69032 -175.89944 -394.70979 26.69032 -175.99374 -395.00000 26.69032 -175.89944 -395.29021 26.69032 -175.65257 -395.46957 26.69032 -175.34743 -395.46957 26.69032 -175.10056 -395.29021 26.69032 -174.70111 -395.00000 27.00532 -174.85369 -394.53043 27.00532 -175.25313 -394.24021 27.00532 -175.74687 -394.24021 27.00532 -176.14631 -394.53043 27.00532 -176.29889 -395.00000 27.00532 -176.14631 -395.46957 27.00532 -175.74687 -395.75979 27.00532 -175.25313 -395.75979 27.00532 -174.85369 -395.46957 27.00532 -174.70111 -395.00000 27.39468 -174.85369 -394.53043 27.39468 -175.25313 -394.24021 27.39468 -175.74687 -394.24021 27.39468 -176.14631 -394.53043 27.39468 -176.29889 -395.00000 27.39468 -176.14631 -395.46957 27.39468 -175.74687 -395.75979 27.39468 -175.25313 -395.75979 27.39468 -174.85369 -395.46957 27.39468 -175.00626 -395.00000 27.70968 -175.10056 -394.70979 27.70968 -175.34743 -394.53043 27.70968 -175.65257 -394.53043 27.70968 -175.89944 -394.70979 27.70968 -175.99374 -395.00000 27.70968 -175.89944 -395.29021 27.70968 -175.65257 -395.46957 27.70968 -175.34743 -395.46957 27.70968 -175.10056 -395.29021 27.70968 -175.50000 -395.00000 27.83000 -175.50000 -400.00000 26.25000 -175.00626 -400.00000 26.37032 -175.10056 -399.70979 26.37032 -175.34743 -399.53043 26.37032 -175.65257 -399.53043 26.37032 -175.89944 -399.70979 26.37032 -175.99374 -400.00000 26.37032 -175.89944 -400.29021 26.37032 -175.65257 -400.46957 26.37032 -175.34743 -400.46957 26.37032 -175.10056 -400.29021 26.37032 -174.70111 -400.00000 26.68532 -174.85369 -399.53043 26.68532 -175.25313 -399.24021 26.68532 -175.74687 -399.24021 26.68532 -176.14631 -399.53043 26.68532 -176.29889 -400.00000 26.68532 -176.14631 -400.46957 26.68532 -175.74687 -400.75979 26.68532 -175.25313 -400.75979 26.68532 -174.85369 -400.46957 26.68532 -174.70111 -400.00000 27.07468 -174.85369 -399.53043 27.07468 -175.25313 -399.24021 27.07468 -175.74687 -399.24021 27.07468 -176.14631 -399.53043 27.07468 -176.29889 -400.00000 27.07468 -176.14631 -400.46957 27.07468 -175.74687 -400.75979 27.07468 -175.25313 -400.75979 27.07468 -174.85369 -400.46957 27.07468 -175.00626 -400.00000 27.38968 -175.10056 -399.70979 27.38968 -175.34743 -399.53043 27.38968 -175.65257 -399.53043 27.38968 -175.89944 -399.70979 27.38968 -175.99374 -400.00000 27.38968 -175.89944 -400.29021 27.38968 -175.65257 -400.46957 27.38968 -175.34743 -400.46957 27.38968 -175.10056 -400.29021 27.38968 -175.50000 -400.00000 27.51000 -175.50000 -405.00000 25.93000 -175.00626 -405.00000 26.05032 -175.10056 -404.70979 26.05032 -175.34743 -404.53043 26.05032 -175.65257 -404.53043 26.05032 -175.89944 -404.70979 26.05032 -175.99374 -405.00000 26.05032 -175.89944 -405.29021 26.05032 -175.65257 -405.46957 26.05032 -175.34743 -405.46957 26.05032 -175.10056 -405.29021 26.05032 -174.70111 -405.00000 26.36532 -174.85369 -404.53043 26.36532 -175.25313 -404.24021 26.36532 -175.74687 -404.24021 26.36532 -176.14631 -404.53043 26.36532 -176.29889 -405.00000 26.36532 -176.14631 -405.46957 26.36532 -175.74687 -405.75979 26.36532 -175.25313 -405.75979 26.36532 -174.85369 -405.46957 26.36532 -174.70111 -405.00000 26.75468 -174.85369 -404.53043 26.75468 -175.25313 -404.24021 26.75468 -175.74687 -404.24021 26.75468 -176.14631 -404.53043 26.75468 -176.29889 -405.00000 26.75468 -176.14631 -405.46957 26.75468 -175.74687 -405.75979 26.75468 -175.25313 -405.75979 26.75468 -174.85369 -405.46957 26.75468 -175.00626 -405.00000 27.06968 -175.10056 -404.70979 27.06968 -175.34743 -404.53043 27.06968 -175.65257 -404.53043 27.06968 -175.89944 -404.70979 27.06968 -175.99374 -405.00000 27.06968 -175.89944 -405.29021 27.06968 -175.65257 -405.46957 27.06968 -175.34743 -405.46957 27.06968 -175.10056 -405.29021 27.06968 -175.50000 -405.00000 27.19000 -175.50000 -410.00000 25.61000 -175.00626 -410.00000 25.73032 -175.10056 -409.70979 25.73032 -175.34743 -409.53043 25.73032 -175.65257 -409.53043 25.73032 -175.89944 -409.70979 25.73032 -175.99374 -410.00000 25.73032 -175.89944 -410.29021 25.73032 -175.65257 -410.46957 25.73032 -175.34743 -410.46957 25.73032 -175.10056 -410.29021 25.73032 -174.70111 -410.00000 26.04532 -174.85369 -409.53043 26.04532 -175.25313 -409.24021 26.04532 -175.74687 -409.24021 26.04532 -176.14631 -409.53043 26.04532 -176.29889 -410.00000 26.04532 -176.14631 -410.46957 26.04532 -175.74687 -410.75979 26.04532 -175.25313 -410.75979 26.04532 -174.85369 -410.46957 26.04532 -174.70111 -410.00000 26.43468 -174.85369 -409.53043 26.43468 -175.25313 -409.24021 26.43468 -175.74687 -409.24021 26.43468 -176.14631 -409.53043 26.43468 -176.29889 -410.00000 26.43468 -176.14631 -410.46957 26.43468 -175.74687 -410.75979 26.43468 -175.25313 -410.75979 26.43468 -174.85369 -410.46957 26.43468 -175.00626 -410.00000 26.74968 -175.10056 -409.70979 26.74968 -175.34743 -409.53043 26.74968 -175.65257 -409.53043 26.74968 -175.89944 -409.70979 26.74968 -175.99374 -410.00000 26.74968 -175.89944 -410.29021 26.74968 -175.65257 -410.46957 26.74968 -175.34743 -410.46957 26.74968 -175.10056 -410.29021 26.74968 -175.50000 -410.00000 26.87000</float_array><technique_common><accessor source="#positions-array" count="336" stride="3"><param name="X" type="float"/><param name="Y" type="float"/><param name="Z" type="float"/></accessor></technique_common></source>
<source id="normals"><float_array id="normals-array" count="1920">0.23606 0.07670 -0.96871 0.69946 0.22727 -0.67758 0.69946 0.22727 -0.67758 0.95106 0.30902 0.00000 0.95106 0.30902 -0.00000 0.69946 0.22727 0.67758 0.69946 0.22727 0.67758 0.23606 0.07670 0.96871 0.14590 0.20081 -0.96871 0.43229 0.59499 -0.67758 0.43229 0.59499 -0.67758 0.58779 0.80902 0.00000 0.58779 0.80902 -0.00000 0.43229 0.59499 0.67758 0.43229 0.59499 0.67758 0.14590 0.20081 0.96871 0.00000 0.24821 -0.96871 0.00000 0.73545 -0.67758 0.00000 0.73545 -0.67758 0.00000 1.00000 0.00000 0.00000 1.00000 -0.00000 0.00000 0.73545 0.67758 0.00000 0.73545 0.67758 0.00000 0.24821 0.96871 -0.14590 0.20081 -0.96871 -0.43229 0.59499 -0.67758 -0.43229 0.59499 -0.67758 -0.58779 0.80902 0.00000 -0.58779 0.80902 0.00000 -0.43229 0.59499 0.67758 -0.43229 0.59499 0.67758 -0.14590 0.20081 0.96871 -0.23606 0.07670 -0.96871 -0.69946 0.22727 -0.67758 -0.69946 0.22727 -0.67758 -0.95106 0.30902 0.00000 -0.95106 0.30902 0.00000 -0.69946 0.22727 0.67758 -0.69946 0.22727 0.67758 -0.23606 0.07670 0.96871 -0.23606 -0.07670 -0.96871 -0.69946 -0.22727 -0.67758 -0.69946 -0.22727 -0.67758 -0.95106 -0.30902 0.00000 -0.95106 -0.30902 0.00000 -0.69946 -0.22727 0.67758 -0.69946 -0.22727 0.67758 -0.23606 -0.07670 0.96871 -0.14590 -0.20081 -0.96871 -0.43229 -0.59499 -0.67758 -0.43229 -0.59499 -0.67758 -0.58779 -0.80902 0.00000 -0.58779 -0.80902 0.00000 -0.43229 -0.59499 0.67758 -0.43229 -0.59499 0.67758 -0.14590 -0.20081 0.96871 0.00000 -0.24821 -0.96871 0.00000 -0.73545 -0.67758 0.00000 -0.73545 -0.67758 0.00000 -1.00000 0.00000 0.00000 -1.00000 0.00000 0.00000 -0.73545 0.67758 0.00000 -0.73545 0.67758 0.00000 -0.24821 0.96871 0.14590 -0.20081 -0.96871 0.43229 -0.59499 -0.67758 0.43229 -0.59499 -0.67758 0.58779 -0.80902 0.00000 0.58779 -0.80902 0.00000 0.43229 -0.59499 0.67758 0.43229 -0.59499 0.67758 0.14590 -0.20081 0.96871 0.23606 -0.07670 -0.96871 0.69946 -0.22727 -0.67758 0.69946 -0.22727 -0.67758 0.95106 -0.30902 0.00000 0.95106 -0.30902 0.00000 0.69946 -0.22727 0.67758 0.69946 -0.22727 0.67758 0.23606 -0.07670 0.96871 0.23606 0.07670 -0.96871 0.69946 0.22727 -0.67758 0.69946 0.22727 -0.67758 0.95106 0.30902 0.00000 0.95106 0.30902 -0.00000 0.69946 0.22727 0.67758 0.69946 0.22727 0.67758 0.23606 0.07670 0.96871 0.14590 0.20081 -0.96871 0.43229 0.59499 -0.67758 0.43229 0.59499 -0.67758 0.58779 0.80902 0.00000 0.58779 0.80902 -0.00000 0.43229 0.59499 0.67758 0.43229 0.59499 0.67758 0.14590 0.20081 0.96871 0.00000 0.24821 -0.96871 0.00000 0.73545 -0.67758 0.00000 0.73545 -0.67758 0.00000 1.00000 0.00000 0.00000 1.00000 -0.00000 0.00000 0.73545 0.67758 0.00000 0.73545 0.67758 0.00000 0.24821 0.96871 -0.14590 0.20081 -0.96871 -0.43229 0.59499 -0.67758 -0.43229 0.59499 -0.67758 -0.58779 0.80902 0.00000 -0.58779 0.80902 0.00000 -0.43229 0.59499 0.67758 -0.43229 0.59499 0.67758 -0.14590 0.20081 0.96871 -0.23606 0.07670 -0.96871 -0.69946 0.22727 -0.67758 -0.69946 0.22727 -0.67758 -0.95106 0.30902 0.00000 -0.95106 0.30902 0.00000 -0.69946 0.22727 0.67758 -0.69946 0.22727 0.67758 -0.23606 0.07670 0.96871 -0.23606 -0.07670 -0.96871 -0.69946 -0.22727 -0.67758 -0.69946 -0.22727 -0.67758 -0.95106 -0.30902 0.00000 -0.95106 -0.30902 0.00000 -0.69946 -0.22727 0.67758 -0.69946 -0.22727 0.67758 -0.23606 -0.07670 0.96871 -0.14590 -0.20081 -0.96871 -0.43229 -0.59499 -0.67758 -0.43229 -0.59499 -0.67758 -0.58779 -0.80902 0.00000 -0.58779 -0.80902 0.00000 -0.43229 -0.59499 0.67758 -0.43229 -0.59499 0.67758 -0.14590 -0.20081 0.96871 0.00000 -0.24821 -0.96871 0.00000 -0.73545 -0.67758 0.00000 -0.73545 -0.67758 0.00000 -1.00000 0.00000 0.00000 -1.00000 0.00000 0.00000 -0.73545 0.67758 0.00000 -0.73545 0.67758 0.00000 -0.24821 0.96871 0.14590 -0.20081 -0.96871 0.43229 -0.59499 -0.67758 0.43229 -0.59499 -0.67758 0.58779 -0.80902 0.00000 0.58779 -0.80902 0.00000 0.43229 -0.59499 0.67758 0.43229 -0.59499 0.67758 0.14590 -0.20081 0.96871 0.23606 -0.07670 -0.96871 0.69946 -0.22727 -0.67758 0.69946 -0.22727 -0.67758 0.95106 -0.30902 0.00000 0.95106 -0.30902 0.00000 0.69946 -0.22727 0.67758 0.69946 -0.22727 0.67758 0.23606 -0.07670 0.96871 0.23606 0.07670 -0.96871 0.69946 0.22727 -0.67758 0.69946 0.22727 -0.67758 0.95106 0.30902 0.00000 0.95106 0.30902 -0.00000 0.69946 0.22727 0.67758 0.69946 0.22727 0.67758 0.23606 0.07670 0.96871 0.14590 0.20081 -0.96871 0.43229 0.59499 -0.67758 0.43229 0.59499 -0.67758 0.58779 0.80902 0.00000 0.58779 0.80902 -0.00000 0.43229 0.59499 0.67758 0.43229 0.59499 0.67758 0.14590 0.20081 0.96871 0.00000 0.24821 -0.96871 0.00000 0.73545 -0.67758 0.00000 0.73545 -0.67758 0.00000 1.00000 0.00000 0.00000 1.00000 -0.00000 0.00000 0.73545 0.67758 0.00000 0.73545 0.67758 0.00000 0.24821 0.96871 -0.14590 0.20081 -0.96871 -0.43229 0.59499 -0.67758 -0.43229 0.59499 -0.67758 -0.58779 0.80902 0.00000 -0.58779 0.80902 0.00000 -0.43229 0.59499 0.67758 -0.43229 0.59499 0.67758 -0.14590 0.20081 0.96871 -0.23606 0.07670 -0.96871 -0.69946 0.22727 -0.67758 -0.69946 0.22727 -0.67758 -0.95106 0.30902 0.00000 -0.95106 0.30902 0.00000 -0.69946 0.22727 0.67758 -0.69946 0.22727 0.67758 -0.23606 0.07670 0.96871 -0.23606 -0.07670 -0.96871 -0.69946 -0.22727 -0.67758 -0.69946 -0.22727 -0.67758 -0.95106 -0.30902 0.00000 -0.95106 -0.30902 0.00000 -0.69946 -0.22727 0.67758 -0.69946 -0.22727 0.67758 -0.23606 -0.07670 0.96871 -0.14590 -0.20081 -0.96871 -0.43229 -0.59499 -0.67758 -0.43229 -0.59499 -0.67758 -0.58779 -0.80902 0.00000 -0.58779 -0.80902 0.00000 -0.43229 -0.59499 0.67758 -0.43229 -0.59499 0.67758 -0.14590 -0.20081 0.96871 0.00000 -0.24821 -0.96871 0.00000 -0.73545 -0.67758 0.00000 -0.73545 -0.67758 0.00000 -1.00000 0.00000 0.00000 -1.00000 0.00000 0.00000 -0.73545 0.67758 0.00000 -0.73545 0.67758 0.00000 -0.24821 0.96871 0.14590 -0.20081 -0.96871 0.43229 -0.59499 -0.67758 0.43229 -0.59499 -0.67758 0.58779 -0.80902 0.00000 0.58779 -0.80902 0.00000 0.43229 -0.59499 0.67758 0.43229 -0.59499 0.67758 0.14590 -0.20081 0.96871 0.23606 -0.07670 -0.96871 0.69946 -0.22727 -0.67758 0.69946 -0.22727 -0.67758 0.95106 -0.30902 0.00000 0.95106 -0.30902 0.00000 0.69946 -0.22727 0.67758 0.69946 -0.22727 0.67758 0.23606 -0.07670 0.96871 0.23606 0.07670 -0.96871 0.69946 0.22727 -0.67758 0.69946 0.22727 -0.67758 0.95106 0.30902 0.00000 0.95106 0.30902 -0.00000 0.69946 0.22727 0.67758 0.69946 0.22727 0.67758 0.23606 0.07670 0.96871 0.14590 0.20081 -0.96871 0.43229 0.59499 -0.67758 0.43229 0.59499 -0.67758 0.58779 0.80902 0.00000 0.58779 0.80902 -0.00000 0.43229 0.59499 0.67758 0.43229 0.59499 0.67758 0.14590 0.20081 0.96871 0.00000 0.24821 -0.96871 0.00000 0.73545 -0.67758 0.00000 0.73545 -0.67758 0.00000 1.00000 0.00000 0.00000 1.00000 -0.00000 0.00000 0.73545 0.67758 0.00000 0.73545 0.67758 0.00000 0.24821 0.96871 -0.14590 0.20081 -0.96871 -0.43229 0.59499 -0.67758 -0.43229 0.59499 -0.67758 -0.58779 0.80902 0.00000 -0.58779 0.80902 0.00000 -0.43229 0.59499 0.67758 -0.43229 0.59499 0.67758 -0.14590 0.20081 0.96871 -0.23606 0.07670 -0.96871 -0.69946 0.22727 -0.67758 -0.69946 0.22727 -0.67758 -0.95106 0.30902 0.00000 -0.95106 0.30902 0.00000 -0.69946 0.22727 0.67758 -0.69946 0.22727 0.67758 -0.23606 0.07670 0.96871 -0.23606 -0.07670 -0.96871 -0.69946 -0.22727 -0.67758 -0.69946 -0.22727 -0.67758 -0.95106 -0.30902 0.00000 -0.95106 -0.30902 0.00000 -0.69946 -0.22727 0.67758 -0.69946 -0.22727 0.67758 -0.23606 -0.07670 0.96871 -0.14590 -0.20081 -0.96871 -0.43229 -0.59499 -0.67758 -0.43229 -0.59499 -0.67758 -0.58779 -0.80902 0.00000 -0.58779 -0.80902 0.00000 -0.43229 -0.59499 0.67758 -0.43229 -0.59499 0.67758 -0.14590 -0.20081 0.96871 0.00000 -0.24821 -0.96871 0.00000 -0.73545 -0.67758 0.00000 -0.73545 -0.67758 0.00000 -1.00000 0.00000 0.00000 -1.00000 0.00000 0.00000 -0.73545 0.67758 0.00000 -0.73545 0.67758 0.00000 -0.24821 0.96871 0.14590 -0.20081 -0.96871 0.43229 -0.59499 -0.67758 0.43229 -0.59499 -0.67758 0.58779 -0.80902 0.00000 0.58779 -0.80902 0.00000 0.43229 -0.59499 0.67758 0.43229 -0.59499 0.67758 0.14590 -0.20081 0.96871 0.23606 -0.07670 -0.96871 0.69946 -0.22727 -0.67758 0.69946 -0.22727 -0.67758 0.95106 -0.30902 0.00000 0.95106 -0.30902 0.00000 0.69946 -0.22727 0.67758 0.69946 -0.22727 0.67758 0.23606 -0.07670 0.96871 0.23606 0.07670 -0.96871 0.69946 0.22727 -0.67758 0.69946 0.22727 -0.67758 0.95106 0.30902 0.00000 0.95106 0.30902 -0.00000 0.69946 0.22727 0.67758 0.69946 0.22727 0.67758 0.23606 0.07670 0.96871 0.14590 0.20081 -0.96871 0.43229 0.59499 -0.67758 0.43229 0.59499 -0.67758 0.58779 0.80902 0.00000 0.58779 0.80902 -0.00000 0.43229 0.59499 0.67758 0.43229 0.59499 0.67758 0.14590 0.20081 0.96871 0.00000 0.24821 -0.96871 0.00000 0.73545 -0.67758 0.00000 0.73545 -0.67758 0.00000 1.00000 0.00000 0.00000 1.00000 -0.00000 0.00000 0.73545 0.67758 0.00000 0.73545 0.67758 0.00000 0.24821 0.96871 -0.14590 0.20081 -0.96871 -0.43229 0.59499 -0.67758 -0.43229 0.59499 -0.67758 -0.58779 0.80902 0.00000 -0.58779 0.80902 0.00000 -0.43229 0.59499 0.67758 -0.43229 0.59499 0.67758 -0.14590 0.20081 0.96871 -0.23606 0.07670 -0.96871 -0.69946 0.22727 -0.67758 -0.69946 0.22727 -0.67758 -0.95106 0.30902 0.00000 -0.95106 0.30902 0.00000 -0.69946 0.22727 0.67758 -0.69946 0.22727 0.67758 -0.23606 0.07670 0.96871 -0.23606 -0.07670 -0.96871 -0.69946 -0.22727 -0.67758 -0.69946 -0.22727 -0.67758 -0.95106 -0.30902 0.00000 -0.95106 -0.30902 0.00000 -0.69946 -0.22727 0.67758 -0.69946 -0.22727 0.67758 -0.23606 -0.07670 0.96871 -0.14590 -0.20081 -0.96871 -0.43229 -0.59499 -0.67758 -0.43229 -0.59499 -0.67758 -0.58779 -0.80902 0.00000 -0.58779 -0.80902 0.00000 -0.43229 -0.59499 0.67758 -0.43229 -0.59499 0.67758 -0.14590 -0.20081 0.96871 0.00000 -0.24821 -0.96871 0.00000 -0.73545 -0.67758 0.00000 -0.73545 -0.67758 0.00000 -1.00000 0.00000 0.00000 -1.00000 0.00000 0.00000 -0.73545 0.67758 0.00000 -0.73545 0.67758 0.00000 -0.24821 0.96871 0.14590 -0.20081 -0.96871 0.43229 -0.59499 -0.67758 0.43229 -0.59499 -0.67758 0.58779 -0.80902 0.00000 0.58779 -0.80902 0.00000 0.43229 -0.59499 0.67758 0.43229 -0.59499 0.67758 0.14590 -0.20081 0.96871 0.23606 -0.07670 -0.96871 0.69946 -0.22727 -0.67758 0.69946 -0.22727 -0.67758 0.95106 -0.30902 0.00000 0.95106 -0.30902 0.00000 0.69946 -0.22727 0.67758 0.69946 -0.22727 0.67758 0.23606 -0.07670 0.96871 0.23606 0.07670 -0.96871 0.69946 0.22727 -0.67758 0.69946 0.22727 -0.67758 0.95106 0.30902 0.00000 0.95106 0.30902 -0.00000 0.69946 0.22727 0.67758 0.69946 0.22727 0.67758 0.23606 0.07670 0.96871 0.14590 0.20081 -0.96871 0.43229 0.59499 -0.67758 0.43229 0.59499 -0.67758 0.58779 0.80902 0.00000 0.58779 0.80902 -0.00000 0.43229 0.59499 0.67758 0.43229 0.59499 0.67758 0.14590 0.20081 0.96871 0.00000 0.24821 -0.96871 0.00000 0.73545 -0.67758 0.00000 0.73545 -0.67758 0.00000 1.00000 0.00000 0.00000 1.00000 -0.00000 0.00000 0.73545 0.67758 0.00000 0.73545 0.67758 0.00000 0.24821 0.96871 -0.14590 0.20081 -0.96871 -0.43229 0.59499 -0.67758 -0.43229 0.59499 -0.67758 -0.58779 0.80902 0.00000 -0.58779 0.80902 0.00000 -0.43229 0.59499 0.67758 -0.43229 0.59499 0.67758 -0.14590 0.20081 0.96871 -0.23606 0.07670 -0.96871 -0.69946 0.22727 -0.67758 -0.69946 0.22727 -0.67758 -0.95106 0.30902 0.00000 -0.95106 0.30902 0.00000 -0.69946 0.22727 0.67758 -0.69946 0.22727 0.67758 -0.23606 0.07670 0.96871 -0.23606 -0.07670 -0.96871 -0.69946 -0.22727 -0.67758 -0.69946 -0.22727 -0.67758 -0.95106 -0.30902 0.00000 -0.95106 -0.30902 0.00000 -0.69946 -0.22727 0.67758 -0.69946 -0.22727 0.67758 -0.23606 -0.07670 0.96871 -0.14590 -0.20081 -0.96871 -0.43229 -0.59499 -0.67758 -0.43229 -0.59499 -0.67758 -0.58779 -0.80902 0.00000 -0.58779 -0.80902 0.00000 -0.43229 -0.59499 0.67758 -0.43229 -0.59499 0.67758 -0.14590 -0.20081 0.96871 0.00000 -0.24821 -0.96871 0.00000 -0.73545 -0.67758 0.00000 -0.73545 -0.67758 0.00000 -1.00000 0.00000 0.00000 -1.00000 0.00000 0.00000 -0.73545 0.67758 0.00000 -0.73545 0.67758 0.00000 -0.24821 0.96871 0.14590 -0.20081 -0.96871 0.43229 -0.59499 -0.67758 0.43229 -0.59499 -0.67758 0.58779 -0.80902 0.00000 0.58779 -0.80902 0.00000 0.43229 -0.59499 0.67758 0.43229 -0.59499 0.67758 0.14590 -0.20081 0.96871 0.23606 -0.07670 -0.96871 0.69946 -0.22727 -0.67758 0.69946 -0.22727 -0.67758 0.95106 -0.30902 0.00000 0.95106 -0.30902 0.00000 0.69946 -0.22727 0.67758 0.69946 -0.22727 0.67758 0.23606 -0.07670 0.96871 0.23606 0.07670 -0.96871 0.69946 0.22727 -0.67758 0.69946 0.22727 -0.67758 0.95106 0.30902 0.00000 0.95106 0.30902 -0.00000 0.69946 0.22727 0.67758 0.69946 0.22727 0.67758 0.23606 0.07670 0.96871 0.14590 0.20081 -0.96871 0.43229 0.59499 -0.67758 0.43229 0.59499 -0.67758 0.58779 0.80902 0.00000 0.58779 0.80902 -0.00000 0.43229 0.59499 0.67758 0.43229 0.59499 0.67758 0.14590 0.20081 0.96871 0.00000 0.24821 -0.96871 0.00000 0.73545 -0.67758 0.00000 0.73545 -0.67758 0.00000 1.00000 0.00000 0.00000 1.00000 -0.00000 0.00000 0.73545 0.67758 0.00000 0.73545 0.67758 0.00000 0.24821 0.96871 -0.14590 0.20081 -0.96871 -0.43229 0.59499 -0.67758 -0.43229 0.59499 -0.67758 -0.58779 0.80902 0.00000 -0.58779 0.80902 0.00000 -0.43229 0.59499 0.67758 -0.43229 0.59499 0.67758 -0.14590 0.20081 0.96871 -0.23606 0.07670 -0.96871 -0.69946 0.22727 -0.67758 -0.69946 0.22727 -0.67758 -0.95106 0.30902 0.00000 -0.95106 0.30902 0.00000 -0.69946 0.22727 0.67758 -0.69946 0.22727 0.67758 -0.23606 0.07670 0.96871 -0.23606 -0.07670 -0.96871 -0.69946 -0.22727 -0.67758 -0.69946 -0.22727 -0.67758 -0.95106 -0.30902 0.00000 -0.95106 -0.30902 0.00000 -0.69946 -0.22727 0.67758 -0.69946 -0.22727 0.67758 -0.23606 -0.07670 0.96871 -0.14590 -0.20081 -0.96871 -0.43229 -0.59499 -0.67758 -0.43229 -0.59499 -0.67758 -0.58779 -0.80902 0.00000 -0.58779 -0.80902 0.00000 -0.43229 -0.59499 0.67758 -0.43229 -0.59499 0.67758 -0.14590 -0.20081 0.96871 0.00000 -0.24821 -0.96871 0.00000 -0.73545 -0.67758 0.00000 -0.73545 -0.67758 0.00000 -1.00000 0.00000 0.00000 -1.00000 0.00000 0.00000 -0.73545 0.67758 0.00000 -0.73545 0.67758 0.00000 -0.24821 0.96871 0.14590 -0.20081 -0.96871 0.43229 -0.59499 -0.67758 0.43229 -0.59499 -0.67758 0.58779 -0.80902 0.00000 0.58779 -0.80902 0.00000 0.43229 -0.59499 0.67758 0.43229 -0.59499 0.67758 0.14590 -0.20081 0.96871 0.23606 -0.07670 -0.96871 0.69946 -0.22727 -0.67758 0.69946 -0.22727 -0.67758 0.95106 -0.30902 0.00000 0.95106 -0.30902 0.00000 0.69946 -0.22727 0.67758 0.69946 -0.22727 0.67758 0.23606 -0.07670 0.96871 0.23606 0.07670 -0.96871 0.69946 0.22727 -0.67758 0.69946 0.22727 -0.67758 0.95106 0.30902 0.00000 0.95106 0.30902 -0.00000 0.69946 0.22727 0.67758 0.69946 0.22727 0.67758 0.23606 0.07670 0.96871 0.14590 0.20081 -0.96871 0.43229 0.59499 -0.67758 0.43229 0.59499 -0.67758 0.58779 0.80902 0.00000 0.58779 0.80902 -0.00000 0.43229 0.59499 0.67758 0.43229 0.59499 0.67758 0.14590 0.20081 0.96871 0.00000 0.24821 -0.96871 0.00000 0.73545 -0.67758 0.00000 0.73545 -0.67758 0.00000 1.00000 0.00000 0.00000 1.00000 -0.00000 0.00000 0.73545 0.67758 0.00000 0.73545 0.67758 0.00000 0.24821 0.96871 -0.14590 0.20081 -0.96871 -0.43229 0.59499 -0.67758 -0.43229 0.59499 -0.67758 -0.58779 0.80902 0.00000 -0.58779 0.80902 0.00000 -0.43229 0.59499 0.67758 -0.43229 0.59499 0.67758 -0.14590 0.20081 0.96871 -0.23606 0.07670 -0.96871 -0.69946 0.22727 -0.67758 -0.69946 0.22727 -0.67758 -0.95106 0.30902 0.00000 -0.95106 0.30902 0.00000 -0.69946 0.22727 0.67758 -0.69946 0.22727 0.67758 -0.23606 0.07670 0.96871 -0.23606 -0.07670 -0.96871 -0.69946 -0.22727 -0.67758 -0.69946 -0.22727 -0.67758 -0.95106 -0.30902 0.00000 -0.95106 -0.30902 0.00000 -0.69946 -0.22727 0.67758 -0.69946 -0.22727 0.67758 -0.23606 -0.07670 0.96871 -0.14590 -0.20081 -0.96871 -0.43229 -0.59499 -0.67758 -0.43229 -0.59499 -0.67758 -0.58779 -0.80902 0.00000 -0.58779 -0.80902 0.00000 -0.43229 -0.59499 0.67758 -0.43229 -0.59499 0.67758 -0.14590 -0.20081 0.96871 0.00000 -0.24821 -0.96871 0.00000 -0.73545 -0.67758 0.00000 -0.73545 -0.67758 0.00000 -1.00000 0.00000 0.00000 -1.00000 0.00000 0.00000 -0.73545 0.67758 0.00000 -0.73545 0.67758 0.00000 -0.24821 0.96871 0.14590 -0.20081 -0.96871 0.43229 -0.59499 -0.67758 0.43229 -0.59499 -0.67758 0.58779 -0.80902 0.00000 0.58779 -0.80902 0.00000 0.43229 -0.59499 0.67758 0.43229 -0.59499 0.67758 0.14590 -0.20081 0.96871 0.23606 -0.07670 -0.96871 0.69946 -0.22727 -0.67758 0.69946 -0.22727 -0.67758 0.95106 -0.30902 0.00000 0.95106 -0.30902 0.00000 0.69946 -0.22727 0.67758 0.69946 -0.22727 0.67758 0.23606 -0.07670 0.96871</float_array><technique_common><accessor source="#normals-array" count="640" stride="3"><param name="X" type="float"/><param name="Y" type="float"/><param name="Z" type="float"/></accessor></technique_common></source>
<vertices id="vertices"><input semantic="POSITION" source="#positions"/></vertices><triangles count="640"><input semantic="VERTEX" source="#vertices" offset="0"/><input semantic="NORMAL" source="#normals" offset="1"/><p>0 0 2 0 1 0 1 1 2 1 12 1 1 2 12 2 11 2 11 3 12 3 22 3 11 4 22 4 21 4 21 5 22 5 32 5 21 6 32 6 31 6 31 7 32 7 41 7 0 8 3 8 2 8 2 9 3 9 13 9 2 10 13 10 12 10 12 11 13 11 23 11 12 12 23 12 22 12 22 13 23 13 33 13 22 14 33 14 32 14 32 15 33 15 41 15 0 16 4 16 3 16 3 17 4 17 14 17 3 18 14 18 13 18 13 19 14 19 24 19 13 20 24 20 23 20 23 21 24 21 34 21 23 22 34 22 33 22 33 23 34 23 41 23 0 24 5 24 4 24 4 25 5 25 15 25 4 26 15 26 14 26 14 27 15 27 25 27 14 28 25 28 24 28 24 29 25 29 35 29 24 30 35 30 34 30 34 31 35 31 41 31 0 32 6 32 5 32 5 33 6 33 16 33 5 34 16 34 15 34 15 35 16 35 26 35 15 36 26 36 25 36 25 37 26 37 36 37 25 38 36 38 35 38 35 39 36 39 41 39 0 40 7 40 6 40 6 41 7 41 17 41 6 42 17 42 16 42 16 43 17 43 27 43 16 44 27 44 26 44 26 45 27 45 37 45 26 46 37 46 36 46 36 47 37 47 41 47 0 48 8 48 7 48 7 49 8 49 18 49 7 50 18 50 17 50 17 51 18 51 28 51 17 52 28 52 27 52 27 53 28 53 38 53 27 54 38 54 37 54 37 55 38 55 41 55 0 56 9 56 8 56 8 57 9 57 19 57 8 58 19 58 18 58 18 59 19 59 29 59 18 60 29 60 28 60 28 61 29 61 39 61 28 62 39 62 38 62 38 63 39 63 41 63 0 64 10 64 9 64 9 65 10 65 20 65 9 66 20 66 19 66 19 67 20 67 30 67 19 68 30 68 29 68 29 69 30 69 40 69 29 70 40 70 39 70 39 71 40 71 41 71 0 72 1 72 10 72 10 73 1 73 11 73 10 74 11 74 20 74 20 75 11 75 21 75 20 76 21 76 30 76 30 77 21 77 31 77 30 78 31 78 40 78 40 79 31 79 41 79 42 80 44 80 43 80 43 81 44 81 54 81 43 82 54 82 53 82 53 83 54 83 64 83 53 84 64 84 63 84 63 85 64 85 74 85 63 86 74 86 73 86 73 87 74 87 83 87 42 88 45 88 44 88 44 89 45 89 55 89 44 90 55 90 54 90 54 91 55 91 65 91 54 92 65 92 64 92 64 93 65 93 75 93 64 94 75 94 74 94 74 95 75 95 83 95 42 96 46 96 45 96 45 97 46 97 56 97 45 98 56 98 55 98 55 99 56 99 66 99 55 100 66 100 65 100 65 101 66 101 76 101 65 102 76 102 75 102 75 103 76 103 83 103 42 104 47 104 46 104 46 105 47 105 57 105 46 106 57 106 56 106 56 107 57 107 67 107 56 108 67 108 66 108 66 109 67 109 77 109 66 110 77 110 76 110 76 111 77 111 83 111 42 112 48 112 47 112 47 113 48 113 58 113 47 114 58 114 57 114 57 115 58 115 68 115 57 116 68 116 67 116 67 117 68 117 78 117 67 118 78 118 77 118 77 119 78 119 83 119 42 120 49 120 48 120 48 121 49 121 59 121 48 122 59 122 58 122 58 123 59 123 69 123 58 124 69 124 68 124 68 125 69 125 79 125 68 126 79 126 78 126 78 127 79 127 83 127 42 128 50 128 49 128 49 129 50 129 60 129 49 130 60 130 59 130 59 131 60 131 70 131 59 132 70 132 69 132 69 133 70 133 80 133 69 134 80 134 79 134 79 135 80 135 83 135 42 136 51 136 50 136 50 137 51 137 61 137 50 138 61 138 60 138 60 139 61 139 71 139 60 140 71 140 70 140 70 141 71 141 81 141 70 142 81 142 80 142 80 143 81 143 83 143 42 144 52 144 51 144 51 145 52 145 62 145 51 146 62 146 61 146 61 147 62 147 72 147 61 148 72 148 71 148 71 149 72 149 82 149 71 150 82 150 81 150 81 151 82 151 83 151 42 152 43 152 52 152 52 153 43 153 53 153 52 154 53 154 62 154 62 155 53 155 63 155 62 156 63 156 72 156 72 157 63 157 73 157 72 158 73 158 82 158 82 159 73 159 83 159 84 160 86 160 85 160 85 161 86 161 96 161 85 162 96 162 95 162 95 163 96 163 106 163 95 164 106 164 105 164 105 165 106 165 116 165 105 166 116 166 115 166 115 167 116 167 125 167 84 168 87 168 86 168 86 169 87 169 97 169 86 170 97 170 96 170 96 171 97 171 107 171 96 172 107 172 106 172 106 173 107 173 117 173 106 174 117 174 116 174 116 175 117 175 125 175 84 176 88 176 87 176 87 177 88 177 98 177 87 178 98 178 97 178 97 179 98 179 108 179 97 180 108 180 107 180 107 181 108 181 118 181 107 182 118 182 117 182 117 183 118 183 125 183 84 184 89 184 88 184 88 185 89 185 99 185 88 186 99 186 98 186 98 187 99 187 109 187 98 188 109 188 108 188 108 189 109 189 119 189 108 190 119 190 118 190 118 191 119 191 125 191 84 192 90 192 89 192 89 193 90 193 100 193 89 194 100 194 99 194 99 195 100 195 110 195 99 196 110 196 109 196 109 197 110 197 120 197 109 198 120 198 119 198 119 199 120 199 125 199 84 200 91 200 90 200 90 201 91 201 101 201 90 202 101 202 100 202 100 203 101 203 111 203 100 204 111 204 110 204 110 205 111 205 121 205 110 206 121 206 120 206 120 207 121 207 125 207 84 208 92 208 91 208 91 209 92 209 102 209 91 210 102 210 101 210 101 211 102 211 112 211 101 212 112 212 111 212 111 213 112 213 122 213 111 214 122 214 121 214 121 215 122 215 125 215 84 216 93 216 92 216 92 217 93 217 103 217 92 218 103 218 102 218 102 219 103 219 113 219 102 220 113 220 112 220 112 221 113 221 123 221 112 222 123 222 122 222 122 223 123 223 125 223 84 224 94 224 93 224 93 225 94 225 104 225 93 226 104 226 103 226 103 227 104 227 114 227 103 228 114 228 113 228 113 229 114 229 124 229 113 230 124 230 123 230 123 231 124 231 125 231 84 232 85 232 94 232 94 233 85 233 95 233 94 234 95 234 104 234 104 235 95 235 105 235 104 236 105 236 114 236 114 237 105 237 115 237 114 238 115 238 124 238 124 239 115 239 125 239 126 240 128 240 127 240 127 241 128 241 138 241 127 242 138 242 137 242 137 243 138 243 148 243 137 244 148 244 147 244 147 245 148 245 158 245 147 246 158 246 157 246 157 247 158 247 167 247 126 248 129 248 128 248 128 249 129 249 139 249 128 250 139 250 138 250 138 251 139 251 149 251 138 252 149 252 148 252 148 253 149 253 159 253 148 254 159 254 158 254 158 255 159 255 167 255 126 256 130 256 129 256 129 257 130 257 140 257 129 258 140 258 139 258 139 259 140 259 150 259 139 260 150 260 149 260 149 261 150 261 160 261 149 262 160 262 159 262 159 263 160 263 167 263 126 264 131 264 130 264 130 265 131 265 141 265 130 266 141 266 140 266 140 267 141 267 151 267 140 268 151 268 150 268 150 269 151 269 161 269 150 270 161 270 160 270 160 271 161 271 167 271 126 272 132 272 131 272 131 273 132 273 142 273 131 274 142 274 141 274 141 275 142 275 152 275 141 276 152 276 151 276 151 277 152 277 162 277 151 278 162 278 161 278 161 279 162 279 167 279 126 280 133 280 132 280 132 281 133 281 143 281 132 282 143 282 142 282 142 283 143 283 153 283 142 284 153 284 152 284 152 285 153 285 163 285 152 286 163 286 162 286 162 287 163 287 167 287 126 288 134 288 133 288 133 289 134 289 144 289 133 290 144 290 143 290 143 291 144 291 154 291 143 292 154 292 153 292 153 293 154 293 164 293 153 294 164 294 163 294 163 295 164 295 167 295 126 296 135 296 134 296 134 297 135 297 145 297 134 298 145 298 144 298 144 299 145 299 155 299 144 300 155 300 154 300 154 301 155 301 165 301 154 302 165 302 164 302 164 303 165 303 167 303 126 304 136 304 135 304 135 305 136 305 146 305 135 306 146 306 145 306 145 307 146 307 156 307 145 308 156 308 155 308 155 309 156 309 166 309 155 310 166 310 165 310 165 311 166 311 167 311 126 312 127 312 136 312 136 313 127 313 137 313 136 314 137 314 146 314 146 315 137 315 147 315 146 316 147 316 156 316 156 317 147 317 157 317 156 318 157 318 166 318 166 319 157 319 167 319 168 320 170 320 169 320 169 321 170 321 180 321 169 322 180 322 179 322 179 323 180 323 190 323 179 324 190 324 189 324 189 325 190 325 200 325 189 326 200 326 199 326 199 327 200 327 209 327 168 328 171 328 170 328 170 329 171 329 181 329 170 330 181 330 180 330 180 331 181 331 191 331 180 332 191 332 190 332 190 333 191 333 201 333 190 334 201 334 200 334 200 335 201 335 209 335 168 336 172 336 171 336 171 337 172 337 182 337 171 338 182 338 181 338 181 339 182 339 192 339 181 340 192 340 191 340 191 341 192 341 202 341 191 342 202 342 201 342 201 343 202 343 209 343 168 344 173 344 172 344 172 345 173 345 183 345 172 346 183 346 182 346 182 347 183 347 193 347 182 348 193 348 192 348 192 349 193 349 203 349 192 350 203 350 202 350 202 351 203 351 209 351 168 352 174 352 173 352 173 353 174 353 184 353 173 354 184 354 183 354 183 355 184 355 194 355 183 356 194 356 193 356 193 357 194 357 204 357 193 358 204 358 203 358 203 359 204 359 209 359 168 360 175 360 174 360 174 361 175 361 185 361 174 362 185 362 184 362 184 363 185 363 195 363 184 364 195 364 194 364 194 365 195 365 205 365 194 366 205 366 204 366 204 367 205 367 209 367 168 368 176 368 175 368 175 369 176 369 186 369 175 370 186 370 185 370 185 371 186 371 196 371 185 372 196 372 195 372 195 373 196 373 206 373 195 374 206 374 205 374 205 375 206 375 209 375 168 376 177 376 176 376 176 377 177 377 187 377 176 378 187 378 186 378 186 379 187 379 197 379 186 380 197 380 196 380 196 381 197 381 207 381 196 382 207 382 206 382 206 383 207 383 209 383 168 384 178 384 177 384 177 385 178 385 188 385 177 386 188 386 187 386 187 387 188 387 198 387 187 388 198 388 197 388 197 389 198 389 208 389 197 390 208 390 207 390 207 391 208 391 209 391 168 392 169 392 178 392 178 393 169 393 179 393 178 394 179 394 188 394 188 395 179 395 189 395 188 396 189 396 198 396 198 397 189 397 199 397 198 398 199 398 208 398 208 399 199 399 209 399 210 400 212 400 211 400 211 401 212 401 222 401 211 402 222 402 221 402 221 403 222 403 232 403 221 404 232 404 231 404 231 405 232 405 242 405 231 406 242 406 241 406 241 407 242 407 251 407 210 408 213 408 212 408 212 409 213 409 223 409 212 410 223 410 222 410 222 411 223 411 233 411 222 412 233 412 232 412 232 413 233 413 243 413 232 414 243 414 242 414 242 415 243 415 251 415 210 416 214 416 213 416 213 417 214 417 224 417 213 418 224 418 223 418 223 419 224 419 234 419 223 420 234 420 233 420 233 421 234 421 244 421 233 422 244 422 243 422 243 423 244 423 251 423 210 424 215 424 214 424 214 425 215 425 225 425 214 426 225 426 224 426 224 427 225 427 235 427 224 428 235 428 234 428 234 429 235 429 245 429 234 430 245 430 244 430 244 431 245 431 251 431 210 432 216 432 215 432 215 433 216 433 226 433 215 434 226 434 225 434 225 435 226 435 236 435 225 436 236 436 235 436 235 437 236 437 246 437 235 438 246 438 245 438 245 439 246 439 251 439 210 440 217 440 216 440 216 441 217 441 227 441 216 442 227 442 226 442 226 443 227 443 237 443 226 444 237 444 236 444 236 445 237 445 247 445 236 446 247 446 246 446 246 447 247 447 251 447 210 448 218 448 217 448 217 449 218 449 228 449 217 450 228 450 227 450 227 451 228 451 238 451 227 452 238 452 237 452 237 453 238 453 248 453 237 454 248 454 247 454 247 455 248 455 251 455 210 456 219 456 218 456 218 457 219 457 229 457 218 458 229 458 228 458 228 459 229 459 239 459 228 460 239 460 238 460 238 461 239 461 249 461 238 462 249 462 248 462 248 463 249 463 251 463 210 464 220 464 219 464 219 465 220 465 230 465 219 466 230 466 229 466 229 467 230 467 240 467 229 468 240 468 239 468 239 469 240 469 250 469 239 470 250 470 249 470 249 471 250 471 251 471 210 472 211 472 220 472 220 473 211 473 221 473 220 474 221 474 230 474 230 475 221 475 231 475 230 476 231 476 240 476 240 477 231 477 241 477 240 478 241 478 250 478 250 479 241 479 251 479 252 480 254 480 253 480 253 481 254 481 264 481 253 482 264 482 263 482 263 483 264 483 274 483 263 484 274 484 273 484 273 485 274 485 284 485 273 486 284 486 283 486 283 487 284 487 293 487 252 488 255 488 254 488 254 489 255 489 265 489 254 490 265 490 264 490 264 491 265 491 275 491 264 492 275 492 274 492 274 493 275 493 285 493 274 494 285 494 284 494 284 495 285 495 293 495 252 496 256 496 255 496 255 497 256 497 266 497 255 498 266 498 265 498 265 499 266 499 276 499 265 500 276 500 275 500 275 501 276 501 286 501 275 502 286 502 285 502 285 503 286 503 293 503 252 504 257 504 256 504 256 505 257 505 267 505 256 506 267 506 266 506 266 507 267 507 277 507 266 508 277 508 276 508 276 509 277 509 287 509 276 510 287 510 286 510 286 511 287 511 293 511 252 512 258 512 257 512 257 513 258 513 268 513 257 514 268 514 267 514 267 515 268 515 278 515 267 516 278 516 277 516 277 517 278 517 288 517 277 518 288 518 287 518 287 519 288 519 293 519 252 520 259 520 258 520 258 521 259 521 269 521 258 522 269 522 268 522 268 523 269 523 279 523 268 524 279 524 278 524 278 525 279 525 289 525 278 526 289 526 288 526 288 527 289 527 293 527 252 528 260 528 259 528 259 529 260 529 270 529 259 530 270 530 269 530 269 531 270 531 280 531 269 532 280 532 279 532 279 533 280 533 290 533 279 534 290 534 289 534 289 535 290 535 293 535 252 536 261 536 260 536 260 537 261 537 271 537 260 538 271 538 270 538 270 539 271 539 281 539 270 540 281 540 280 540 280 541 281 541 291 541 280 542 291 542 290 542 290 543 291 543 293 543 252 544 262 544 261 544 261 545 262 545 272 545 261 546 272 546 271 546 271 547 272 547 282 547 271 548 282 548 281 548 281 549 282 549 292 549 281 550 292 550 291 550 291 551 292 551 293 551 252 552 253 552 262 552 262 553 253 553 263 553 262 554 263 554 272 554 272 555 263 555 273 555 272 556 273 556 282 556 282 557 273 557 283 557 282 558 283 558 292 558 292 559 283 559 293 559 294 560 296 560 295 560 295 561 296 561 306 561 295 562 306 562 305 562 305 563 306 563 316 563 305 564 316 564 315 564 315 565 316 565 326 565 315 566 326 566 325 566 325 567 326 567 335 567 294 568 297 568 296 568 296 569 297 569 307 569 296 570 307 570 306 570 306 571 307 571 317 571 306 572 317 572 316 572 316 573 317 573 327 573 316 574 327 574 326 574 326 575 327 575 335 575 294 576 298 576 297 576 297 577 298 577 308 577 297 578 308 578 307 578 307 579 308 579 318 579 307 580 318 580 317 580 317 581 318 581 328 581 317 582 328 582 327 582 327 583 328 583 335 583 294 584 299 584 298 584 298 585 299 585 309 585 298 586 309 586 308 586 308 587 309 587 319 587 308 588 319 588 318 588 318 589 319 589 329 589 318 590 329 590 328 590 328 591 329 591 335 591 294 592 300 592 299 592 299 593 300 593 310 593 299 594 310 594 309 594 309 595 310 595 320 595 309 596 320 596 319 596 319 597 320 597 330 597 319 598 330 598 329 598 329 599 330 599 335 599 294 600 301 600 300 600 300 601 301 601 311 601 300 602 311 602 310 602 310 603 311 603 321 603 310 604 321 604 320 604 320 605 321 605 331 605 320 606 331 606 330 606 330 607 331 607 335 607 294 608 302 608 301 608 301 609 302 609 312 609 301 610 312 610 311 610 311 611 312 611 322 611 311 612 322 612 321 612 321 613 322 613 332 613 321 614 332 614 331 614 331 615 332 615 335 615 294 616 303 616 302 616 302 617 303 617 313 617 302 618 313 618 312 618 312 619 313 619 323 619 312 620 323 620 322 620 322 621 323 621 333 621 322 622 333 622 332 622 332 623 333 623 335 623 294 624 304 624 303 624 303 625 304 625 314 625 303 626 314 626 313 626 313 627 314 627 324 627 313 628 324 628 323 628 323 629 324 629 334 629 323 630 334 630 333 630 333 631 334 631 335 631 294 632 295 632 304 632 304 633 295 633 305 633 304 634 305 634 314 634 314 635 305 635 315 635 314 636 315 636 324 636 324 637 315 637 325 637 324 638 325 638 334 638 334 639 325 639 335 639</p></triangles>
</mesh></geometry></library_geometries><library_visual_scenes><visual_scene id="Scene"><node id="mesh"><instance_geometry url="#geometry"/></node></visual_scene></library_visual_scenes><scene><instance_visual_scene url="#Scene"/></scene></COLLADA>