<?xml version="1.0" encoding="UTF-8"?>
<COLLADA xmlns="http://www.collada.org/2005/11/COLLADASchema" version="1.4.1">
<asset><contributor><authoring_tool>Summit Estate procedural mesh exporter</authoring_tool></contributor><created>2026-09-11T00:00:00Z</created><modified>2026-09-11T00:00:00Z</modified><unit name="meter" meter="1"/><up_axis>Z_UP</up_axis></asset>
<library_geometries><geometry id="geometry" name="geometry"><mesh>
<source id="positions"><float_array id="positions-array" count="912">-193.50000 -391.25000 26.40000 -191.30000 -391.25000 26.40000 -191.30000 -388.75000 26.40000 -193.50000 -388.75000 26.40000 -193.50000 -391.25000 31.80000 -191.30000 -391.25000 31.80000 -191.30000 -388.75000 31.80000 -193.50000 -388.75000 31.80000 -207.50000 -390.65000 26.40000 -194.50000 -390.65000 26.40000 -194.50000 -389.35000 26.40000 -207.50000 -389.35000 26.40000 -207.50000 -390.65000 29.40000 -194.50000 -390.65000 29.40000 -194.50000 -389.35000 29.40000 -207.50000 -389.35000 29.40000 -193.45000 -395.00000 26.10000 -193.52993 -394.59818 26.10000 -193.75754 -394.25754 26.10000 -194.09818 -394.02993 26.10000 -194.50000 -393.95000 26.10000 -194.90182 -394.02993 26.10000 -195.24246 -394.25754 26.10000 -195.47007 -394.59818 26.10000 -195.55000 -395.00000 26.10000 -195.47007 -395.40182 26.10000 -195.24246 -395.74246 26.10000 -194.90182 -395.97007 26.10000 -194.50000 -396.05000 26.10000 -194.09818 -395.97007 26.10000 -193.75754 -395.74246 26.10000 -193.52993 -395.40182 26.10000 -193.45000 -395.00000 26.82000 -193.52993 -394.59818 26.82000 -193.75754 -394.25754 26.82000 -194.09818 -394.02993 26.82000 -194.50000 -393.95000 26.82000 -194.90182 -394.02993 26.82000 -195.24246 -394.25754 26.82000 -195.47007 -394.59818 26.82000 -195.55000 -395.00000 26.82000 -195.47007 -395.40182 26.82000 -195.24246 -395.74246 26.82000 -194.90182 -395.97007 26.82000 -194.50000 -396.05000 26.82000 -194.09818 -395.97007 26.82000 -193.75754 -395.74246 26.82000 -193.52993 -395.40182 26.82000 -194.50000 -395.00000 26.10000 -194.50000 -395.00000 26.82000 -193.45000 -400.00000 25.78000 -193.52993 -399.59818 25.78000 -193.75754 -399.25754 25.78000 -194.09818 -399.02993 25.78000 -194.50000 -398.95000 25.78000 -194.90182 -399.02993 25.78000 -195.24246 -399.25754 25.78000 -195.47007 -399.59818 25.78000 -195.55000 -400.00000 25.78000 -195.47007 -400.40182 25.78000 -195.24246 -400.74246 25.78000 -194.90182 -400.97007 25.78000 -194.50000 -401.05000 25.78000 -194.09818 -400.97007 25.78000 -193.75754 -400.74246 25.78000 -193.52993 -400.40182 25.78000 -193.45000 -400.00000 26.50000 -193.52993 -399.59818 26.50000 -193.75754 -399.25754 26.50000 -194.09818 -399.02993 26.50000 -194.50000 -398.95000 26.50000 -194.90182 -399.02993 26.50000 -195.24246 -399.25754 26.50000 -195.47007 -399.59818 26.50000 -195.55000 -400.00000 26.50000 -195.47007 -400.40182 26.50000 -195.24246 -400.74246 26.50000 -194.90182 -400.97007 26.50000 -194.50000 -401.05000 26.50000 -194.09818 -400.97007 26.50000 -193.75754 -400.74246 26.50000 -193.52993 -400.40182 26.50000 -194.50000 -400.00000 25.78000 -194.50000 -400.00000 26.50000 -193.45000 -405.00000 25.46000 -193.52993 -404.59818 25.46000 -193.75754 -404.25754 25.46000 -194.09818 -404.02993 25.46000 -194.50000 -403.95000 25.46000 -194.90182 -404.02993 25.46000 -195.24246 -404.25754 25.46000 -195.47007 -404.59818 25.46000 -195.55000 -405.00000 25.46000 -195.47007 -405.40182 25.46000 -195.24246 -405.74246 25.46000 -194.90182 -405.97007 25.46000 -194.50000 -406.05000 25.46000 -194.09818 -405.97007 25.46000 -193.75754 -405.74246 25.46000 -193.52993 -405.40182 25.46000 -193.45000 -405.00000 26.18000 -193.52993 -404.59818 26.18000 -193.75754 -404.25754 26.18000 -194.09818 -404.02993 26.18000 -194.50000 -403.95000 26.18000 -194.90182 -404.02993 26.18000 -195.24246 -404.25754 26.18000 -195.47007 -404.59818 26.18000 -195.55000 -405.00000 26.18000 -195.47007 -405.40182 26.18000 -195.24246 -405.74246 26.18000 -194.90182 -405.97007 26.18000 -194.50000 -406.05000 26.18000 -194.09818 -405.97007 26.18000 -193.75754 -405.74246 26.18000 -193.52993 -405.40182 26.18000 -194.50000 -405.00000 25.46000 -194.50000 -405.00000 26.18000 -193.45000 -410.00000 25.14000 -193.52993 -409.59818 25.14000 -193.75754 -409.25754 25.14000 -194.09818 -409.02993 25.14000 -194.50000 -408.95000 25.14000 -194.90182 -409.02993 25.14000 -195.24246 -409.25754 25.14000 -195.47007 -409.59818 25.14000 -195.55000 -410.00000 25.14000 -195.47007 -410.40182 25.14000 -195.24246 -410.74246 25.14000 -194.90182 -410.97007 25.14000 -194.50000 -411.05000 25.14000 -194.09818 -410.97007 25.14000 -193.75754 -410.74246 25.14000 -193.52993 -410.40182 25.14000 -193.45000 -410.00000 25.86000 -193.52993 -409.59818 25.86000 -193.75754 -409.25754 25.86000 -194.09818 -409.02993 25.86000 -194.50000 -408.95000 25.86000 -194.90182 -409.02993 25.86000 -195.24246 -409.25754 25.86000 -195.47007 -409.59818 25.86000 -195.55000 -410.00000 25.86000 -195.47007 -410.40182 25.86000 -195.24246 -410.74246 25.86000 -194.90182 -410.97007 25.86000 -194.50000 -411.05000 25.86000 -194.09818 -410.97007 25.86000 -193.75754 -410.74246 25.86000 -193.52993 -410.40182 25.86000 -194.50000 -410.00000 25.14000 -194.50000 -410.00000 25.86000 -178.70000 -391.25000 26.40000 -176.50000 -391.25000 26.40000 -176.50000 -388.75000 26.40000 -178.70000 -388.75000 26.40000 -178.70000 -391.25000 31.80000 -176.50000 -391.25000 31.80000 -176.50000 -388.75000 31.80000 -178.70000 -388.75000 31.80000 -175.50000 -390.65000 26.40000 -162.50000 -390.65000 26.40000 -162.50000 -389.35000 26.40000 -175.50000 -389.35000 26.40000 -175.50000 -390.65000 29.40000 -162.50000 -390.65000 29.40000 -162.50000 -389.35000 29.40000 -175.50000 -389.35000 29.40000 -174.45000 -395.00000 26.10000 -174.52993 -394.59818 26.10000 -174.75754 -394.25754 26.10000 -175.09818 -394.02993 26.10000 -175.50000 -393.95000 26.10000 -175.90182 -394.02993 26.10000 -176.24246 -394.25754 26.10000 -176.47007 -394.59818 26.10000 -176.55000 -395.00000 26.10000 -176.47007 -395.40182 26.10000 -176.24246 -395.74246 26.10000 -175.90182 -395.97007 26.10000 -175.50000 -396.05000 26.10000 -175.09818 -395.97007 26.10000 -174.75754 -395.74246 26.10000 -174.52993 -395.40182 26.10000 -174.45000 -395.00000 26.82000 -174.52993 -394.59818 26.82000 -174.75754 -394.25754 26.82000 -175.09818 -394.02993 26.82000 -175.50000 -393.95000 26.82000 -175.90182 -394.02993 26.82000 -176.24246 -394.25754 26.82000 -176.47007 -394.59818 26.82000 -176.55000 -395.00000 26.82000 -176.47007 -395.40182 26.82000 -176.24246 -395.74246 26.82000 -175.90182 -395.97007 26.82000 -175.50000 -396.05000 26.82000 -175.09818 -395.97007 26.82000 -174.75754 -395.74246 26.82000 -174.52993 -395.40182 26.82000 -175.50000 -395.00000 26.10000 -175.50000 -395.00000 26.82000 -174.45000 -400.00000 25.78000 -174.52993 -399.59818 25.78000 -174.75754 -399.25754 25.78000 -175.09818 -399.02993 25.78000 -175.50000 -398.95000 25.78000 -175.90182 -399.02993 25.78000 -176.24246 -399.25754 25.78000 -176.47007 -399.59818 25.78000 -176.55000 -400.00000 25.78000 -176.47007 -400.40182 25.78000 -176.24246 -400.74246 25.78000 -175.90182 -400.97007 25.78000 -175.50000 -401.05000 25.78000 -175.09818 -400.97007 25.78000 -174.75754 -400.74246 25.78000 -174.52993 -400.40182 25.78000 -174.45000 -400.00000 26.50000 -174.52993 -399.59818 26.50000 -174.75754 -399.25754 26.50000 -175.09818 -399.02993 26.50000 -175.50000 -398.95000 26.50000 -175.90182 -399.02993 26.50000 -176.24246 -399.25754 26.50000 -176.47007 -399.59818 26.50000 -176.55000 -400.00000 26.50000 -176.47007 -400.40182 26.50000 -176.24246 -400.74246 26.50000 -175.90182 -400.97007 26.50000 -175.50000 -401.05000 26.50000 -175.09818 -400.97007 26.50000 -174.75754 -400.74246 26.50000 -174.52993 -400.40182 26.50000 -175.50000 -400.00000 25.78000 -175.50000 -400.00000 26.50000 -174.45000 -405.00000 25.46000 -174.52993 -404.59818 25.46000 -174.75754 -404.25754 25.46000 -175.09818 -404.02993 25.46000 -175.50000 -403.95000 25.46000 -175.90182 -404.02993 25.46000 -176.24246 -404.25754 25.46000 -176.47007 -404.59818 25.46000 -176.55000 -405.00000 25.46000 -176.47007 -405.40182 25.46000 -176.24246 -405.74246 25.46000 -175.90182 -405.97007 25.46000 -175.50000 -406.05000 25.46000 -175.09818 -405.97007 25.46000 -174.75754 -405.74246 25.46000 -174.52993 -405.40182 25.46000 -174.45000 -405.00000 26.18000 -174.52993 -404.59818 26.18000 -174.75754 -404.25754 26.18000 -175.09818 -404.02993 26.18000 -175.50000 -403.95000 26.18000 -175.90182 -404.02993 26.18000 -176.24246 -404.25754 26.18000 -176.47007 -404.59818 26.18000 -176.55000 -405.00000 26.18000 -176.47007 -405.40182 26.18000 -176.24246 -405.74246 26.18000 -175.90182 -405.97007 26.18000 -175.50000 -406.05000 26.18000 -175.09818 -405.97007 26.18000 -174.75754 -405.74246 26.18000 -174.52993 -405.40182 26.18000 -175.50000 -405.00000 25.46000 -175.50000 -405.00000 26.18000 -174.45000 -410.00000 25.14000 -174.52993 -409.59818 25.14000 -174.75754 -409.25754 25.14000 -175.09818 -409.02993 25.14000 -175.50000 -408.95000 25.14000 -175.90182 -409.02993 25.14000 -176.24246 -409.25754 25.14000 -176.47007 -409.59818 25.14000 -176.55000 -410.00000 25.14000 -176.47007 -410.40182 25.14000 -176.24246 -410.74246 25.14000 -175.90182 -410.97007 25.14000 -175.50000 -411.05000 25.14000 -175.09818 -410.97007 25.14000 -174.75754 -410.74246 25.14000 -174.52993 -410.40182 25.14000 -174.45000 -410.00000 25.86000 -174.52993 -409.59818 25.86000 -174.75754 -409.25754 25.86000 -175.09818 -409.02993 25.86000 -175.50000 -408.95000 25.86000 -175.90182 -409.02993 25.86000 -176.24246 -409.25754 25.86000 -176.47007 -409.59818 25.86000 -176.55000 -410.00000 25.86000 -176.47007 -410.40182 25.86000 -176.24246 -410.74246 25.86000 -175.90182 -410.97007 25.86000 -175.50000 -411.05000 25.86000 -175.09818 -410.97007 25.86000 -174.75754 -410.74246 25.86000 -174.52993 -410.40182 25.86000 -175.50000 -410.00000 25.14000 -175.50000 -410.00000 25.86000</float_array><technique_common><accessor source="#positions-array" count="304" stride="3"><param name="X" type="float"/><param name="Y" type="float"/><param name="Z" type="float"/></accessor></technique_common></source>
<source id="normals"><float_array id="normals-array" count="1680">0.00000 0.00000 -1.00000 0.00000 0.00000 -1.00000 0.00000 0.00000 1.00000 0.00000 0.00000 1.00000 0.00000 -1.00000 0.00000 0.00000 -1.00000 0.00000 1.00000 0.00000 0.00000 1.00000 0.00000 0.00000 0.00000 1.00000 0.00000 0.00000 1.00000 -0.00000 -1.00000 0.00000 0.00000 -1.00000 0.00000 0.00000 0.00000 0.00000 -1.00000 0.00000 0.00000 -1.00000 0.00000 0.00000 1.00000 0.00000 0.00000 1.00000 0.00000 -1.00000 0.00000 0.00000 -1.00000 0.00000 1.00000 0.00000 0.00000 1.00000 0.00000 0.00000 0.00000 1.00000 0.00000 0.00000 1.00000 -0.00000 -1.00000 0.00000 0.00000 -1.00000 0.00000 0.00000 0.98079 0.19509 0.00000 0.98079 0.19509 -0.00000 0.00000 0.00000 -1.00000 0.00000 0.00000 1.00000 0.83147 0.55557 0.00000 0.83147 0.55557 -0.00000 0.00000 0.00000 -1.00000 0.00000 0.00000 1.00000 0.55557 0.83147 0.00000 0.55557 0.83147 -0.00000 0.00000 0.00000 -1.00000 0.00000 0.00000 1.00000 0.19509 0.98079 0.00000 0.19509 0.98079 -0.00000 0.00000 0.00000 -1.00000 0.00000 0.00000 1.00000 -0.19509 0.98079 0.00000 -0.19509 0.98079 0.00000 0.00000 0.00000 -1.00000 0.00000 -0.00000 1.00000 -0.55557 0.83147 0.00000 -0.55557 0.83147 0.00000 0.00000 0.00000 -1.00000 0.00000 0.00000 1.00000 -0.83147 0.55557 0.00000 -0.83147 0.55557 0.00000 0.00000 0.00000 -1.00000 0.00000 0.00000 1.00000 -0.98079 0.19509 0.00000 -0.98079 0.19509 0.00000 0.00000 0.00000 -1.00000 0.00000 0.00000 1.00000 -0.98079 -0.19509 0.00000 -0.98079 -0.19509 0.00000 -0.00000 0.00000 -1.00000 0.00000 0.00000 1.00000 -0.83147 -0.55557 0.00000 -0.83147 -0.55557 0.00000 0.00000 0.00000 -1.00000 0.00000 0.00000 1.00000 -0.55557 -0.83147 0.00000 -0.55557 -0.83147 0.00000 0.00000 0.00000 -1.00000 0.00000 0.00000 1.00000 -0.19509 -0.98079 0.00000 -0.19509 -0.98079 0.00000 0.00000 -0.00000 -1.00000 0.00000 0.00000 1.00000 0.19509 -0.98079 0.00000 0.19509 -0.98079 0.00000 0.00000 0.00000 -1.00000 0.00000 0.00000 1.00000 0.55557 -0.83147 0.00000 0.55557 -0.83147 0.00000 0.00000 0.00000 -1.00000 0.00000 0.00000 1.00000 0.83147 -0.55557 0.00000 0.83147 -0.55557 0.00000 0.00000 0.00000 -1.00000 0.00000 0.00000 1.00000 0.98079 -0.19509 0.00000 0.98079 -0.19509 0.00000 0.00000 0.00000 -1.00000 -0.00000 0.00000 1.00000 0.98079 0.19509 0.00000 0.98079 0.19509 -0.00000 0.00000 0.00000 -1.00000 0.00000 0.00000 1.00000 0.83147 0.55557 0.00000 0.83147 0.55557 -0.00000 0.00000 0.00000 -1.00000 0.00000 0.00000 1.00000 0.55557 0.83147 0.00000 0.55557 0.83147 -0.00000 0.00000 0.00000 -1.00000 0.00000 0.00000 1.00000 0.19509 0.98079 0.00000 0.19509 0.98079 -0.00000 0.00000 0.00000 -1.00000 0.00000 0.00000 1.00000 -0.19509 0.98079 0.00000 -0.19509 0.98079 0.00000 0.00000 0.00000 -1.00000 0.00000 -0.00000 1.00000 -0.55557 0.83147 0.00000 -0.55557 0.83147 0.00000 0.00000 0.00000 -1.00000 0.00000 0.00000 1.00000 -0.83147 0.55557 0.00000 -0.83147 0.55557 0.00000 0.00000 0.00000 -1.00000 0.00000 0.00000 1.00000 -0.98079 0.19509 0.00000 -0.98079 0.19509 0.00000 0.00000 0.00000 -1.00000 0.00000 0.00000 1.00000 -0.98079 -0.19509 0.00000 -0.98079 -0.19509 0.00000 -0.00000 0.00000 -1.00000 0.00000 0.00000 1.00000 -0.83147 -0.55557 0.00000 -0.83147 -0.55557 0.00000 0.00000 0.00000 -1.00000 0.00000 0.00000 1.00000 -0.55557 -0.83147 0.00000 -0.55557 -0.83147 0.00000 0.00000 0.00000 -1.00000 0.00000 0.00000 1.00000 -0.19509 -0.98079 0.00000 -0.19509 -0.98079 0.00000 0.00000 -0.00000 -1.00000 0.00000 0.00000 1.00000 0.19509 -0.98079 0.00000 0.19509 -0.98079 0.00000 0.00000 0.00000 -1.00000 0.00000 0.00000 1.00000 0.55557 -0.83147 0.00000 0.55557 -0.83147 0.00000 0.00000 0.00000 -1.00000 0.00000 0.00000 1.00000 0.83147 -0.55557 0.00000 0.83147 -0.55557 0.00000 0.00000 0.00000 -1.00000 0.00000 0.00000 1.00000 0.98079 -0.19509 0.00000 0.98079 -0.19509 0.00000 0.00000 0.00000 -1.00000 -0.00000 0.00000 1.00000 0.98079 0.19509 0.00000 0.98079 0.19509 -0.00000 0.00000 0.00000 -1.00000 0.00000 0.00000 1.00000 0.83147 0.55557 0.00000 0.83147 0.55557 -0.00000 0.00000 0.00000 -1.00000 0.00000 0.00000 1.00000 0.55557 0.83147 0.00000 0.55557 0.83147 -0.00000 0.00000 0.00000 -1.00000 0.00000 0.00000 1.00000 0.19509 0.98079 0.00000 0.19509 0.98079 -0.00000 0.00000 0.00000 -1.00000 0.00000 0.00000 1.00000 -0.19509 0.98079 0.00000 -0.19509 0.98079 0.00000 0.00000 0.00000 -1.00000 0.00000 -0.00000 1.00000 -0.55557 0.83147 0.00000 -0.55557 0.83147 0.00000 0.00000 0.00000 -1.00000 0.00000 0.00000 1.00000 -0.83147 0.55557 0.00000 -0.83147 0.55557 0.00000 0.00000 0.00000 -1.00000 0.00000 0.00000 1.00000 -0.98079 0.19509 0.00000 -0.98079 0.19509 0.00000 0.00000 0.00000 -1.00000 0.00000 0.00000 1.00000 -0.98079 -0.19509 0.00000 -0.98079 -0.19509 0.00000 -0.00000 0.00000 -1.00000 0.00000 0.00000 1.00000 -0.83147 -0.55557 0.00000 -0.83147 -0.55557 0.00000 0.00000 0.00000 -1.00000 0.00000 0.00000 1.00000 -0.55557 -0.83147 0.00000 -0.55557 -0.83147 0.00000 0.00000 0.00000 -1.00000 0.00000 0.00000 1.00000 -0.19509 -0.98079 0.00000 -0.19509 -0.98079 0.00000 0.00000 -0.00000 -1.00000 0.00000 0.00000 1.00000 0.19509 -0.98079 0.00000 0.19509 -0.98079 0.00000 0.00000 0.00000 -1.00000 0.00000 0.00000 1.00000 0.55557 -0.83147 0.00000 0.55557 -0.83147 0.00000 0.00000 0.00000 -1.00000 0.00000 0.00000 1.00000 0.83147 -0.55557 0.00000 0.83147 -0.55557 0.00000 0.00000 0.00000 -1.00000 0.00000 0.00000 1.00000 0.98079 -0.19509 0.00000 0.98079 -0.19509 0.00000 0.00000 0.00000 -1.00000 -0.00000 0.00000 1.00000 0.98079 0.19509 0.00000 0.98079 0.19509 -0.00000 0.00000 0.00000 -1.00000 0.00000 0.00000 1.00000 0.83147 0.55557 0.00000 0.83147 0.55557 -0.00000 0.00000 0.00000 -1.00000 0.00000 0.00000 1.00000 0.55557 0.83147 0.00000 0.55557 0.83147 -0.00000 0.00000 0.00000 -1.00000 0.00000 0.00000 1.00000 0.19509 0.98079 0.00000 0.19509 0.98079 -0.00000 0.00000 0.00000 -1.00000 0.00000 0.00000 1.00000 -0.19509 0.98079 0.00000 -0.19509 0.98079 0.00000 0.00000 0.00000 -1.00000 0.00000 -0.00000 1.00000 -0.55557 0.83147 0.00000 -0.55557 0.83147 0.00000 0.00000 0.00000 -1.00000 0.00000 0.00000 1.00000 -0.83147 0.55557 0.00000 -0.83147 0.55557 0.00000 0.00000 0.00000 -1.00000 0.00000 0.00000 1.00000 -0.98079 0.19509 0.00000 -0.98079 0.19509 0.00000 0.00000 0.00000 -1.00000 0.00000 0.00000 1.00000 -0.98079 -0.19509 0.00000 -0.98079 -0.19509 0.00000 -0.00000 0.00000 -1.00000 0.00000 0.00000 1.00000 -0.83147 -0.55557 0.00000 -0.83147 -0.55557 0.00000 0.00000 0.00000 -1.00000 0.00000 0.00000 1.00000 -0.55557 -0.83147 0.00000 -0.55557 -0.83147 0.00000 0.00000 0.00000 -1.00000 0.00000 0.00000 1.00000 -0.19509 -0.98079 0.00000 -0.19509 -0.98079 0.00000 0.00000 -0.00000 -1.00000 0.00000 0.00000 1.00000 0.19509 -0.98079 0.00000 0.19509 -0.98079 0.00000 0.00000 0.00000 -1.00000 0.00000 0.00000 1.00000 0.55557 -0.83147 0.00000 0.55557 -0.83147 0.00000 0.00000 0.00000 -1.00000 0.00000 0.00000 1.00000 0.83147 -0.55557 0.00000 0.83147 -0.55557 0.00000 0.00000 0.00000 -1.00000 0.00000 0.00000 1.00000 0.98079 -0.19509 0.00000 0.98079 -0.19509 0.00000 0.00000 0.00000 -1.00000 -0.00000 0.00000 1.00000 0.00000 0.00000 -1.00000 0.00000 0.00000 -1.00000 0.00000 0.00000 1.00000 0.00000 0.00000 1.00000 0.00000 -1.00000 0.00000 0.00000 -1.00000 0.00000 1.00000 0.00000 0.00000 1.00000 0.00000 0.00000 0.00000 1.00000 0.00000 0.00000 1.00000 -0.00000 -1.00000 0.00000 0.00000 -1.00000 0.00000 0.00000 0.00000 0.00000 -1.00000 0.00000 0.00000 -1.00000 0.00000 0.00000 1.00000 0.00000 0.00000 1.00000 0.00000 -1.00000 0.00000 0.00000 -1.00000 0.00000 1.00000 0.00000 0.00000 1.00000 0.00000 0.00000 0.00000 1.00000 0.00000 0.00000 1.00000 -0.00000 -1.00000 0.00000 0.00000 -1.00000 0.00000 0.00000 0.98079 0.19509 0.00000 0.98079 0.19509 -0.00000 0.00000 0.00000 -1.00000 0.00000 0.00000 1.00000 0.83147 0.55557 0.00000 0.83147 0.55557 -0.00000 0.00000 0.00000 -1.00000 0.00000 0.00000 1.00000 0.55557 0.83147 0.00000 0.55557 0.83147 -0.00000 0.00000 0.00000 -1.00000 0.00000 0.00000 1.00000 0.19509 0.98079 0.00000 0.19509 0.98079 -0.00000 0.00000 0.00000 -1.00000 0.00000 0.00000 1.00000 -0.19509 0.98079 0.00000 -0.19509 0.98079 0.00000 0.00000 0.00000 -1.00000 0.00000 -0.00000 1.00000 -0.55557 0.83147 0.00000 -0.55557 0.83147 0.00000 0.00000 0.00000 -1.00000 0.00000 0.00000 1.00000 -0.83147 0.55557 0.00000 -0.83147 0.55557 0.00000 0.00000 0.00000 -1.00000 0.00000 0.00000 1.00000 -0.98079 0.19509 0.00000 -0.98079 0.19509 0.00000 0.00000 0.00000 -1.00000 0.00000 0.00000 1.00000 -0.98079 -0.19509 0.00000 -0.98079 -0.19509 0.00000 -0.00000 0.00000 -1.00000 0.00000 0.00000 1.00000 -0.83147 -0.55557 0.00000 -0.83147 -0.55557 0.00000 0.00000 0.00000 -1.00000 0.00000 0.00000 1.00000 -0.55557 -0.83147 0.00000 -0.55557 -0.83147 0.00000 0.00000 0.00000 -1.00000 0.00000 0.00000 1.00000 -0.19509 -0.98079 0.00000 -0.19509 -0.98079 0.00000 0.00000 -0.00000 -1.00000 0.00000 0.00000 1.00000 0.19509 -0.98079 0.00000 0.19509 -0.98079 0.00000 0.00000 0.00000 -1.00000 0.00000 0.00000 1.00000 0.55557 -0.83147 0.00000 0.55557 -0.83147 0.00000 0.00000 0.00000 -1.00000 0.00000 0.00000 1.00000 0.83147 -0.55557 0.00000 0.83147 -0.55557 0.00000 0.00000 0.00000 -1.00000 0.00000 0.00000 1.00000 0.98079 -0.19509 0.00000 0.98079 -0.19509 0.00000 0.00000 0.00000 -1.00000 -0.00000 0.00000 1.00000 0.98079 0.19509 0.00000 0.98079 0.19509 -0.00000 0.00000 0.00000 -1.00000 0.00000 0.00000 1.00000 0.83147 0.55557 0.00000 0.83147 0.55557 -0.00000 0.00000 0.00000 -1.00000 0.00000 0.00000 1.00000 0.55557 0.83147 0.00000 0.55557 0.83147 -0.00000 0.00000 0.00000 -1.00000 0.00000 0.00000 1.00000 0.19509 0.98079 0.00000 0.19509 0.98079 -0.00000 0.00000 0.00000 -1.00000 0.00000 0.00000 1.00000 -0.19509 0.98079 0.00000 -0.19509 0.98079 0.00000 0.00000 0.00000 -1.00000 0.00000 -0.00000 1.00000 -0.55557 0.83147 0.00000 -0.55557 0.83147 0.00000 0.00000 0.00000 -1.00000 0.00000 0.00000 1.00000 -0.83147 0.55557 0.00000 -0.83147 0.55557 0.00000 0.00000 0.00000 -1.00000 0.00000 0.00000 1.00000 -0.98079 0.19509 0.00000 -0.98079 0.19509 0.00000 0.00000 0.00000 -1.00000 0.00000 0.00000 1.00000 -0.98079 -0.19509 0.00000 -0.98079 -0.19509 0.00000 -0.00000 0.00000 -1.00000 0.00000 0.00000 1.00000 -0.83147 -0.55557 0.00000 -0.83147 -0.55557 0.00000 0.00000 0.00000 -1.00000 0.00000 0.00000 1.00000 -0.55557 -0.83147 0.00000 -0.55557 -0.83147 0.00000 0.00000 0.00000 -1.00000 0.00000 0.00000 1.00000 -0.19509 -0.98079 0.00000 -0.19509 -0.98079 0.00000 0.00000 -0.00000 -1.00000 0.00000 0.00000 1.00000 0.19509 -0.98079 0.00000 0.19509 -0.98079 0.00000 0.00000 0.00000 -1.00000 0.00000 0.00000 1.00000 0.55557 -0.83147 0.00000 0.55557 -0.83147 0.00000 0.00000 0.00000 -1.00000 0.00000 0.00000 1.00000 0.83147 -0.55557 0.00000 0.83147 -0.55557 0.00000 0.00000 0.00000 -1.00000 0.00000 0.00000 1.00000 0.98079 -0.19509 0.00000 0.98079 -0.19509 0.00000 0.00000 0.00000 -1.00000 -0.00000 0.00000 1.00000 0.98079 0.19509 0.00000 0.98079 0.19509 -0.00000 0.00000 0.00000 -1.00000 0.00000 0.00000 1.00000 0.83147 0.55557 0.00000 0.83147 0.55557 -0.00000 0.00000 0.00000 -1.00000 0.00000 0.00000 1.00000 0.55557 0.83147 0.00000 0.55557 0.83147 -0.00000 0.00000 0.00000 -1.00000 0.00000 0.00000 1.00000 0.19509 0.98079 0.00000 0.19509 0.98079 -0.00000 0.00000 0.00000 -1.00000 0.00000 0.00000 1.00000 -0.19509 0.98079 0.00000 -0.19509 0.98079 0.00000 0.00000 0.00000 -1.00000 0.00000 -0.00000 1.00000 -0.55557 0.83147 0.00000 -0.55557 0.83147 0.00000 0.00000 0.00000 -1.00000 0.00000 0.00000 1.00000 -0.83147 0.55557 0.00000 -0.83147 0.55557 0.00000 0.00000 0.00000 -1.00000 0.00000 0.00000 1.00000 -0.98079 0.19509 0.00000 -0.98079 0.19509 0.00000 0.00000 0.00000 -1.00000 0.00000 0.00000 1.00000 -0.98079 -0.19509 0.00000 -0.98079 -0.19509 0.00000 -0.00000 0.00000 -1.00000 0.00000 0.00000 1.00000 -0.83147 -0.55557 0.00000 -0.83147 -0.55557 0.00000 0.00000 0.00000 -1.00000 0.00000 0.00000 1.00000 -0.55557 -0.83147 0.00000 -0.55557 -0.83147 0.00000 0.00000 0.00000 -1.00000 0.00000 0.00000 1.00000 -0.19509 -0.98079 0.00000 -0.19509 -0.98079 0.00000 0.00000 -0.00000 -1.00000 0.00000 0.00000 1.00000 0.19509 -0.98079 0.00000 0.19509 -0.98079 0.00000 0.00000 0.00000 -1.00000 0.00000 0.00000 1.00000 0.55557 -0.83147 0.00000 0.55557 -0.83147 0.00000 0.00000 0.00000 -1.00000 0.00000 0.00000 1.00000 0.83147 -0.55557 0.00000 0.83147 -0.55557 0.00000 0.00000 0.00000 -1.00000 0.00000 0.00000 1.00000 0.98079 -0.19509 0.00000 0.98079 -0.19509 0.00000 0.00000 0.00000 -1.00000 -0.00000 0.00000 1.00000 0.98079 0.19509 0.00000 0.98079 0.19509 -0.00000 0.00000 0.00000 -1.00000 0.00000 0.00000 1.00000 0.83147 0.55557 0.00000 0.83147 0.55557 -0.00000 0.00000 0.00000 -1.00000 0.00000 0.00000 1.00000 0.55557 0.83147 0.00000 0.55557 0.83147 -0.00000 0.00000 0.00000 -1.00000 0.00000 0.00000 1.00000 0.19509 0.98079 0.00000 0.19509 0.98079 -0.00000 0.00000 0.00000 -1.00000 0.00000 0.00000 1.00000 -0.19509 0.98079 0.00000 -0.19509 0.98079 0.00000 0.00000 0.00000 -1.00000 0.00000 -0.00000 1.00000 -0.55557 0.83147 0.00000 -0.55557 0.83147 0.00000 0.00000 0.00000 -1.00000 0.00000 0.00000 1.00000 -0.83147 0.55557 0.00000 -0.83147 0.55557 0.00000 0.00000 0.00000 -1.00000 0.00000 0.00000 1.00000 -0.98079 0.19509 0.00000 -0.98079 0.19509 0.00000 0.00000 0.00000 -1.00000 0.00000 0.00000 1.00000 -0.98079 -0.19509 0.00000 -0.98079 -0.19509 0.00000 -0.00000 0.00000 -1.00000 0.00000 0.00000 1.00000 -0.83147 -0.55557 0.00000 -0.83147 -0.55557 0.00000 0.00000 0.00000 -1.00000 0.00000 0.00000 1.00000 -0.55557 -0.83147 0.00000 -0.55557 -0.83147 0.00000 0.00000 0.00000 -1.00000 0.00000 0.00000 1.00000 -0.19509 -0.98079 0.00000 -0.19509 -0.98079 0.00000 0.00000 -0.00000 -1.00000 0.00000 0.00000 1.00000 0.19509 -0.98079 0.00000 0.19509 -0.98079 0.00000 0.00000 0.00000 -1.00000 0.00000 0.00000 1.00000 0.55557 -0.83147 0.00000 0.55557 -0.83147 0.00000 0.00000 0.00000 -1.00000 0.00000 0.00000 1.00000 0.83147 -0.55557 0.00000 0.83147 -0.55557 0.00000 0.00000 0.00000 -1.00000 0.00000 0.00000 1.00000 0.98079 -0.19509 0.00000 0.98079 -0.19509 0.00000 0.00000 0.00000 -1.00000 -0.00000 0.00000 1.00000</float_array><technique_common><accessor source="#normals-array" count="560" stride="3"><param name="X" type="float"/><param name="Y" type="float"/><param name="Z" type="float"/></accessor></technique_common></source>
<vertices id="vertices"><input semantic="POSITION" source="#positions"/></vertices><triangles count="560"><input semantic="VERTEX" source="#vertices" offset="0"/><input semantic="NORMAL" source="#normals" offset="1"/><p>0 0 2 0 1 0 0 1 3 1 2 1 4 2 5 2 6 2 4 3 6 3 7 3 0 4 1 4 5 4 0 5 5 5 4 5 1 6 2 6 6 6 1 7 6 7 5 7 2 8 3 8 7 8 2 9 7 9 6 9 3 10 0 10 4 10 3 11 4 11 7 11 8 12 10 12 9 12 8 13 11 13 10 13 12 14 13 14 14 14 12 15 14 15 15 15 8 16 9 16 13 16 8 17 13 17 12 17 9 18 10 18 14 18 9 19 14 19 13 19 10 20 11 20 15 20 10 21 15 21 14 21 11 22 8 22 12 22 11 23 12 23 15 23 16 24 17 24 33 24 16 25 33 25 32 25 48 26 17 26 16 26 49 27 32 27 33 27 17 28 18 28 34 28 17 29 34 29 33 29 48 30 18 30 17 30 49 31 33 31 34 31 18 32 19 32 35 32 18 33 35 33 34 33 48 34 19 34 18 34 49 35 34 35 35 35 19 36 20 36 36 36 19 37 36 37 35 37 48 38 20 38 19 38 49 39 35 39 36 39 20 40 21 40 37 40 20 41 37 41 36 41 48 42 21 42 20 42 49 43 36 43 37 43 21 44 22 44 38 44 21 45 38 45 37 45 48 46 22 46 21 46 49 47 37 47 38 47 22 48 23 48 39 48 22 49 39 49 38 49 48 50 23 50 22 50 49 51 38 51 39 51 23 52 24 52 40 52 23 53 40 53 39 53 48 54 24 54 23 54 49 55 39 55 40 55 24 56 25 56 41 56 24 57 41 57 40 57 48 58 25 58 24 58 49 59 40 59 41 59 25 60 26 60 42 60 25 61 42 61 41 61 48 62 26 62 25 62 49 63 41 63 42 63 26 64 27 64 43 64 26 65 43 65 42 65 48 66 27 66 26 66 49 67 42 67 43 67 27 68 28 68 44 68 27 69 44 69 43 69 48 70 28 70 27 70 49 71 43 71 44 71 28 72 29 72 45 72 28 73 45 73 44 73 48 74 29 74 28 74 49 75 44 75 45 75 29 76 30 76 46 76 29 77 46 77 45 77 48 78 30 78 29 78 49 79 45 79 46 79 30 80 31 80 47 80 30 81 47 81 46 81 48 82 31 82 30 82 49 83 46 83 47 83 31 84 16 84 32 84 31 85 32 85 47 85 48 86 16 86 31 86 49 87 47 87 32 87 50 88 51 88 67 88 50 89 67 89 66 89 82 90 51 90 50 90 83 91 66 91 67 91 51 92 52 92 68 92 51 93 68 93 67 93 82 94 52 94 51 94 83 95 67 95 68 95 52 96 53 96 69 96 52 97 69 97 68 97 82 98 53 98 52 98 83 99 68 99 69 99 53 100 54 100 70 100 53 101 70 101 69 101 82 102 54 102 53 102 83 103 69 103 70 103 54 104 55 104 71 104 54 105 71 105 70 105 82 106 55 106 54 106 83 107 70 107 71 107 55 108 56 108 72 108 55 109 72 109 71 109 82 110 56 110 55 110 83 111 71 111 72 111 56 112 57 112 73 112 56 113 73 113 72 113 82 114 57 114 56 114 83 115 72 115 73 115 57 116 58 116 74 116 57 117 74 117 73 117 82 118 58 118 57 118 83 119 73 119 74 119 58 120 59 120 75 120 58 121 75 121 74 121 82 122 59 122 58 122 83 123 74 123 75 123 59 124 60 124 76 124 59 125 76 125 75 125 82 126 60 126 59 126 83 127 75 127 76 127 60 128 61 128 77 128 60 129 77 129 76 129 82 130 61 130 60 130 83 131 76 131 77 131 61 132 62 132 78 132 61 133 78 133 77 133 82 134 62 134 61 134 83 135 77 135 78 135 62 136 63 136 79 136 62 137 79 137 78 137 82 138 63 138 62 138 83 139 78 139 79 139 63 140 64 140 80 140 63 141 80 141 79 141 82 142 64 142 63 142 83 143 79 143 80 143 64 144 65 144 81 144 64 145 81 145 80 145 82 146 65 146 64 146 83 147 80 147 81 147 65 148 50 148 66 148 65 149 66 149 81 149 82 150 50 150 65 150 83 151 81 151 66 151 84 152 85 152 101 152 84 153 101 153 100 153 116 154 85 154 84 154 117 155 100 155 101 155 85 156 86 156 102 156 85 157 102 157 101 157 116 158 86 158 85 158 117 159 101 159 102 159 86 160 87 160 103 160 86 161 103 161 102 161 116 162 87 162 86 162 117 163 102 163 103 163 87 164 88 164 104 164 87 165 104 165 103 165 116 166 88 166 87 166 117 167 103 167 104 167 88 168 89 168 105 168 88 169 105 169 104 169 116 170 89 170 88 170 117 171 104 171 105 171 89 172 90 172 106 172 89 173 106 173 105 173 116 174 90 174 89 174 117 175 105 175 106 175 90 176 91 176 107 176 90 177 107 177 106 177 116 178 91 178 90 178 117 179 106 179 107 179 91 180 92 180 108 180 91 181 108 181 107 181 116 182 92 182 91 182 117 183 107 183 108 183 92 184 93 184 109 184 92 185 109 185 108 185 116 186 93 186 92 186 117 187 108 187 109 187 93 188 94 188 110 188 93 189 110 189 109 189 116 190 94 190 93 190 117 191 109 191 110 191 94 192 95 192 111 192 94 193 111 193 110 193 116 194 95 194 94 194 117 195 110 195 111 195 95 196 96 196 112 196 95 197 112 197 111 197 116 198 96 198 95 198 117 199 111 199 112 199 96 200 97 200 113 200 96 201 113 201 112 201 116 202 97 202 96 202 117 203 112 203 113 203 97 204 98 204 114 204 97 205 114 205 113 205 116 206 98 206 97 206 117 207 113 207 114 207 98 208 99 208 115 208 98 209 115 209 114 209 116 210 99 210 98 210 117 211 114 211 115 211 99 212 84 212 100 212 99 213 100 213 115 213 116 214 84 214 99 214 117 215 115 215 100 215 118 216 119 216 135 216 118 217 135 217 134 217 150 218 119 218 118 218 151 219 134 219 135 219 119 220 120 220 136 220 119 221 136 221 135 221 150 222 120 222 119 222 151 223 135 223 136 223 120 224 121 224 137 224 120 225 137 225 136 225 150 226 121 226 120 226 151 227 136 227 137 227 121 228 122 228 138 228 121 229 138 229 137 229 150 230 122 230 121 230 151 231 137 231 138 231 122 232 123 232 139 232 122 233 139 233 138 233 150 234 123 234 122 234 151 235 138 235 139 235 123 236 124 236 140 236 123 237 140 237 139 237 150 238 124 238 123 238 151 239 139 239 140 239 124 240 125 240 141 240 124 241 141 241 140 241 150 242 125 242 124 242 151 243 140 243 141 243 125 244 126 244 142 244 125 245 142 245 141 245 150 246 126 246 125 246 151 247 141 247 142 247 126 248 127 248 143 248 126 249 143 249 142 249 150 250 127 250 126 250 151 251 142 251 143 251 127 252 128 252 144 252 127 253 144 253 143 253 150 254 128 254 127 254 151 255 143 255 144 255 128 256 129 256 145 256 128 257 145 257 144 257 150 258 129 258 128 258 151 259 144 259 145 259 129 260 130 260 146 260 129 261 146 261 145 261 150 262 130 262 129 262 151 263 145 263 146 263 130 264 131 264 147 264 130 265 147 265 146 265 150 266 131 266 130 266 151 267 146 267 147 267 131 268 132 268 148 268 131 269 148 269 147 269 150 270 132 270 131 270 151 271 147 271 148 271 132 272 133 272 149 272 132 273 149 273 148 273 150 274 133 274 132 274 151 275 148 275 149 275 133 276 118 276 134 276 133 277 134 277 149 277 150 278 118 278 133 278 151 279 149 279 134 279 152 280 154 280 153 280 152 281 155 281 154 281 156 282 157 282 158 282 156 283 158 283 159 283 152 284 153 284 157 284 152 285 157 285 156 285 153 286 154 286 158 286 153 287 158 287 157 287 154 288 155 288 159 288 154 289 159 289 158 289 155 290 152 290 156 290 155 291 156 291 159 291 160 292 162 292 161 292 160 293 163 293 162 293 164 294 165 294 166 294 164 295 166 295 167 295 160 296 161 296 165 296 160 297 165 297 164 297 161 298 162 298 166 298 161 299 166 299 165 299 162 300 163 300 167 300 162 301 167 301 166 301 163 302 160 302 164 302 163 303 164 303 167 303 168 304 169 304 185 304 168 305 185 305 184 305 200 306 169 306 168 306 201 307 184 307 185 307 169 308 170 308 186 308 169 309 186 309 185 309 200 310 170 310 169 310 201 311 185 311 186 311 170 312 171 312 187 312 170 313 187 313 186 313 200 314 171 314 170 314 201 315 186 315 187 315 171 316 172 316 188 316 171 317 188 317 187 317 200 318 172 318 171 318 201 319 187 319 188 319 172 320 173 320 189 320 172 321 189 321 188 321 200 322 173 322 172 322 201 323 188 323 189 323 173 324 174 324 190 324 173 325 190 325 189 325 200 326 174 326 173 326 201 327 189 327 190 327 174 328 175 328 191 328 174 329 191 329 190 329 200 330 175 330 174 330 201 331 190 331 191 331 175 332 176 332 192 332 175 333 192 333 191 333 200 334 176 334 175 334 201 335 191 335 192 335 176 336 177 336 193 336 176 337 193 337 192 337 200 338 177 338 176 338 201 339 192 339 193 339 177 340 178 340 194 340 177 341 194 341 193 341 200 342 178 342 177 342 201 343 193 343 194 343 178 344 179 344 195 344 178 345 195 345 194 345 200 346 179 346 178 346 201 347 194 347 195 347 179 348 180 348 196 348 179 349 196 349 195 349 200 350 180 350 179 350 201 351 195 351 196 351 180 352 181 352 197 352 180 353 197 353 196 353 200 354 181 354 180 354 201 355 196 355 197 355 181 356 182 356 198 356 181 357 198 357 197 357 200 358 182 358 181 358 201 359 197 359 198 359 182 360 183 360 199 360 182 361 199 361 198 361 200 362 183 362 182 362 201 363 198 363 199 363 183 364 168 364 184 364 183 365 184 365 199 365 200 366 168 366 183 366 201 367 199 367 184 367 202 368 203 368 219 368 202 369 219 369 218 369 234 370 203 370 202 370 235 371 218 371 219 371 203 372 204 372 220 372 203 373 220 373 219 373 234 374 204 374 203 374 235 375 219 375 220 375 204 376 205 376 221 376 204 377 221 377 220 377 234 378 205 378 204 378 235 379 220 379 221 379 205 380 206 380 222 380 205 381 222 381 221 381 234 382 206 382 205 382 235 383 221 383 222 383 206 384 207 384 223 384 206 385 223 385 222 385 234 386 207 386 206 386 235 387 222 387 223 387 207 388 208 388 224 388 207 389 224 389 223 389 234 390 208 390 207 390 235 391 223 391 224 391 208 392 209 392 225 392 208 393 225 393 224 393 234 394 209 394 208 394 235 395 224 395 225 395 209 396 210 396 226 396 209 397 226 397 225 397 234 398 210 398 209 398 235 399 225 399 226 399 210 400 211 400 227 400 210 401 227 401 226 401 234 402 211 402 210 402 235 403 226 403 227 403 211 404 212 404 228 404 211 405 228 405 227 405 234 406 212 406 211 406 235 407 227 407 228 407 212 408 213 408 229 408 212 409 229 409 228 409 234 410 213 410 212 410 235 411 228 411 229 411 213 412 214 412 230 412 213 413 230 413 229 413 234 414 214 414 213 414 235 415 229 415 230 415 214 416 215 416 231 416 214 417 231 417 230 417 234 418 215 418 214 418 235 419 230 419 231 419 215 420 216 420 232 420 215 421 232 421 231 421 234 422 216 422 215 422 235 423 231 423 232 423 216 424 217 424 233 424 216 425 233 425 232 425 234 426 217 426 216 426 235 427 232 427 233 427 217 428 202 428 218 428 217 429 218 429 233 429 234 430 202 430 217 430 235 431 233 431 218 431 236 432 237 432 253 432 236 433 253 433 252 433 268 434 237 434 236 434 269 435 252 435 253 435 237 436 238 436 254 436 237 437 254 437 253 437 268 438 238 438 237 438 269 439 253 439 254 439 238 440 239 440 255 440 238 441 255 441 254 441 268 442 239 442 238 442 269 443 254 443 255 443 239 444 240 444 256 444 239 445 256 445 255 445 268 446 240 446 239 446 269 447 255 447 256 447 240 448 241 448 257 448 240 449 257 449 256 449 268 450 241 450 240 450 269 451 256 451 257 451 241 452 242 452 258 452 241 453 258 453 257 453 268 454 242 454 241 454 269 455 257 455 258 455 242 456 243 456 259 456 242 457 259 457 258 457 268 458 243 458 242 458 269 459 258 459 259 459 243 460 244 460 260 460 243 461 260 461 259 461 268 462 244 462 243 462 269 463 259 463 260 463 244 464 245 464 261 464 244 465 261 465 260 465 268 466 245 466 244 466 269 467 260 467 261 467 245 468 246 468 262 468 245 469 262 469 261 469 268 470 246 470 245 470 269 471 261 471 262 471 246 472 247 472 263 472 246 473 263 473 262 473 268 474 247 474 246 474 269 475 262 475 263 475 247 476 248 476 264 476 247 477 264 477 263 477 268 478 248 478 247 478 269 479 263 479 264 479 248 480 249 480 265 480 248 481 265 481 264 481 268 482 249 482 248 482 269 483 264 483 265 483 249 484 250 484 266 484 249 485 266 485 265 485 268 486 250 486 249 486 269 487 265 487 266 487 250 488 251 488 267 488 250 489 267 489 266 489 268 490 251 490 250 490 269 491 266 491 267 491 251 492 236 492 252 492 251 493 252 493 267 493 268 494 236 494 251 494 269 495 267 495 252 495 270 496 271 496 287 496 270 497 287 497 286 497 302 498 271 498 270 498 303 499 286 499 287 499 271 500 272 500 288 500 271 501 288 501 287 501 302 502 272 502 271 502 303 503 287 503 288 503 272 504 273 504 289 504 272 505 289 505 288 505 302 506 273 506 272 506 303 507 288 507 289 507 273 508 274 508 290 508 273 509 290 509 289 509 302 510 274 510 273 510 303 511 289 511 290 511 274 512 275 512 291 512 274 513 291 513 290 513 302 514 275 514 274 514 303 515 290 515 291 515 275 516 276 516 292 516 275 517 292 517 291 517 302 518 276 518 275 518 303 519 291 519 292 519 276 520 277 520 293 520 276 521 293 521 292 521 302 522 277 522 276 522 303 523 292 523 293 523 277 524 278 524 294 524 277 525 294 525 293 525 302 526 278 526 277 526 303 527 293 527 294 527 278 528 279 528 295 528 278 529 295 529 294 529 302 530 279 530 278 530 303 531 294 531 295 531 279 532 280 532 296 532 279 533 296 533 295 533 302 534 280 534 279 534 303 535 295 535 296 535 280 536 281 536 297 536 280 537 297 537 296 537 302 538 281 538 280 538 303 539 296 539 297 539 281 540 282 540 298 540 281 541 298 541 297 541 302 542 282 542 281 542 303 543 297 543 298 543 282 544 283 544 299 544 282 545 299 545 298 545 302 546 283 546 282 546 303 547 298 547 299 547 283 548 284 548 300 548 283 549 300 549 299 549 302 550 284 550 283 550 303 551 299 551 300 551 284 552 285 552 301 552 284 553 301 553 300 553 302 554 285 554 284 554 303 555 300 555 301 555 285 556 270 556 286 556 285 557 286 557 301 557 302 558 270 558 285 558 303 559 301 559 286 559</p></triangles>
</mesh></geometry></library_geometries><library_visual_scenes><visual_scene id="Scene"><node id="mesh"><instance_geometry url="#geometry"/></node></visual_scene></library_visual_scenes><scene><instance_visual_scene url="#Scene"/></scene></COLLADA>