<?xml version="1.0" encoding="UTF-8"?>
<COLLADA xmlns="http://www.collada.org/2005/11/COLLADASchema" version="1.4.1">
<asset><contributor><authoring_tool>Summit Estate procedural mesh exporter</authoring_tool></contributor><created>2026-09-11T00:00:00Z</created><modified>2026-09-11T00:00:00Z</modified><unit name="meter" meter="1"/><up_axis>Z_UP</up_axis></asset>
<library_geometries><geometry id="geometry" name="geometry"><mesh>
<source id="positions"><float_array id="positions-array" count="2352">-193.71250 -395.00000 26.96000 -193.55662 -395.00000 27.02000 -193.63456 -394.86500 27.02000 -193.79044 -394.86500 27.02000 -193.86838 -395.00000 27.02000 -193.79044 -395.13500 27.02000 -193.63456 -395.13500 27.02000 -193.55662 -395.00000 27.14000 -193.63456 -394.86500 27.14000 -193.79044 -394.86500 27.14000 -193.86838 -395.00000 27.14000 -193.79044 -395.13500 27.14000 -193.63456 -395.13500 27.14000 -193.71250 -395.00000 27.20000 -194.00900 -394.38431 26.96000 -193.85312 -394.38431 27.02000 -193.93106 -394.24931 27.02000 -194.08694 -394.24931 27.02000 -194.16489 -394.38431 27.02000 -194.08694 -394.51931 27.02000 -193.93106 -394.51931 27.02000 -193.85312 -394.38431 27.14000 -193.93106 -394.24931 27.14000 -194.08694 -394.24931 27.14000 -194.16489 -394.38431 27.14000 -194.08694 -394.51931 27.14000 -193.93106 -394.51931 27.14000 -194.00900 -394.38431 27.20000 -194.67524 -394.23224 26.96000 -194.51935 -394.23224 27.02000 -194.59729 -394.09724 27.02000 -194.75318 -394.09724 27.02000 -194.83112 -394.23224 27.02000 -194.75318 -394.36724 27.02000 -194.59729 -394.36724 27.02000 -194.51935 -394.23224 27.14000 -194.59729 -394.09724 27.14000 -194.75318 -394.09724 27.14000 -194.83112 -394.23224 27.14000 -194.75318 -394.36724 27.14000 -194.59729 -394.36724 27.14000 -194.67524 -394.23224 27.20000 -195.20951 -394.65832 26.96000 -195.05363 -394.65832 27.02000 -195.13157 -394.52332 27.02000 -195.28746 -394.52332 27.02000 -195.36540 -394.65832 27.02000 -195.28746 -394.79332 27.02000 -195.13157 -394.79332 27.02000 -195.05363 -394.65832 27.14000 -195.13157 -394.52332 27.14000 -195.28746 -394.52332 27.14000 -195.36540 -394.65832 27.14000 -195.28746 -394.79332 27.14000 -195.13157 -394.79332 27.14000 -195.20951 -394.65832 27.20000 -195.20951 -395.34168 26.96000 -195.05363 -395.34168 27.02000 -195.13157 -395.20668 27.02000 -195.28746 -395.20668 27.02000 -195.36540 -395.34168 27.02000 -195.28746 -395.47668 27.02000 -195.13157 -395.47668 27.02000 -195.05363 -395.34168 27.14000 -195.13157 -395.20668 27.14000 -195.28746 -395.20668 27.14000 -195.36540 -395.34168 27.14000 -195.28746 -395.47668 27.14000 -195.13157 -395.47668 27.14000 -195.20951 -395.34168 27.20000 -194.67524 -395.76776 26.96000 -194.51935 -395.76776 27.02000 -194.59729 -395.63276 27.02000 -194.75318 -395.63276 27.02000 -194.83112 -395.76776 27.02000 -194.75318 -395.90276 27.02000 -194.59729 -395.90276 27.02000 -194.51935 -395.76776 27.14000 -194.59729 -395.63276 27.14000 -194.75318 -395.63276 27.14000 -194.83112 -395.76776 27.14000 -194.75318 -395.90276 27.14000 -194.59729 -395.90276 27.14000 -194.67524 -395.76776 27.20000 -194.00900 -395.61569 26.96000 -193.85312 -395.61569 27.02000 -193.93106 -395.48069 27.02000 -194.08694 -395.48069 27.02000 -194.16489 -395.61569 27.02000 -194.08694 -395.75069 27.02000 -193.93106 -395.75069 27.02000 -193.85312 -395.61569 27.14000 -193.93106 -395.48069 27.14000 -194.08694 -395.48069 27.14000 -194.16489 -395.61569 27.14000 -194.08694 -395.75069 27.14000 -193.93106 -395.75069 27.14000 -194.00900 -395.61569 27.20000 -193.71250 -400.00000 26.64000 -193.55662 -400.00000 26.70000 -193.63456 -399.86500 26.70000 -193.79044 -399.86500 26.70000 -193.86838 -400.00000 26.70000 -193.79044 -400.13500 26.70000 -193.63456 -400.13500 26.70000 -193.55662 -400.00000 26.82000 -193.63456 -399.86500 26.82000 -193.79044 -399.86500 26.82000 -193.86838 -400.00000 26.82000 -193.79044 -400.13500 26.82000 -193.63456 -400.13500 26.82000 -193.71250 -400.00000 26.88000 -194.00900 -399.38431 26.64000 -193.85312 -399.38431 26.70000 -193.93106 -399.24931 26.70000 -194.08694 -399.24931 26.70000 -194.16489 -399.38431 26.70000 -194.08694 -399.51931 26.70000 -193.93106 -399.51931 26.70000 -193.85312 -399.38431 26.82000 -193.93106 -399.24931 26.82000 -194.08694 -399.24931 26.82000 -194.16489 -399.38431 26.82000 -194.08694 -399.51931 26.82000 -193.93106 -399.51931 26.82000 -194.00900 -399.38431 26.88000 -194.67524 -399.23224 26.64000 -194.51935 -399.23224 26.70000 -194.59729 -399.09724 26.70000 -194.75318 -399.09724 26.70000 -194.83112 -399.23224 26.70000 -194.75318 -399.36724 26.70000 -194.59729 -399.36724 26.70000 -194.51935 -399.23224 26.82000 -194.59729 -399.09724 26.82000 -194.75318 -399.09724 26.82000 -194.83112 -399.23224 26.82000 -194.75318 -399.36724 26.82000 -194.59729 -399.36724 26.82000 -194.67524 -399.23224 26.88000 -195.20951 -399.65832 26.64000 -195.05363 -399.65832 26.70000 -195.13157 -399.52332 26.70000 -195.28746 -399.52332 26.70000 -195.36540 -399.65832 26.70000 -195.28746 -399.79332 26.70000 -195.13157 -399.79332 26.70000 -195.05363 -399.65832 26.82000 -195.13157 -399.52332 26.82000 -195.28746 -399.52332 26.82000 -195.36540 -399.65832 26.82000 -195.28746 -399.79332 26.82000 -195.13157 -399.79332 26.82000 -195.20951 -399.65832 26.88000 -195.20951 -400.34168 26.64000 -195.05363 -400.34168 26.70000 -195.13157 -400.20668 26.70000 -195.28746 -400.20668 26.70000 -195.36540 -400.34168 26.70000 -195.28746 -400.47668 26.70000 -195.13157 -400.47668 26.70000 -195.05363 -400.34168 26.82000 -195.13157 -400.20668 26.82000 -195.28746 -400.20668 26.82000 -195.36540 -400.34168 26.82000 -195.28746 -400.47668 26.82000 -195.13157 -400.47668 26.82000 -195.20951 -400.34168 26.88000 -194.67524 -400.76776 26.64000 -194.51935 -400.76776 26.70000 -194.59729 -400.63276 26.70000 -194.75318 -400.63276 26.70000 -194.83112 -400.76776 26.70000 -194.75318 -400.90276 26.70000 -194.59729 -400.90276 26.70000 -194.51935 -400.76776 26.82000 -194.59729 -400.63276 26.82000 -194.75318 -400.63276 26.82000 -194.83112 -400.76776 26.82000 -194.75318 -400.90276 26.82000 -194.59729 -400.90276 26.82000 -194.67524 -400.76776 26.88000 -194.00900 -400.61569 26.64000 -193.85312 -400.61569 26.70000 -193.93106 -400.48069 26.70000 -194.08694 -400.48069 26.70000 -194.16489 -400.61569 26.70000 -194.08694 -400.75069 26.70000 -193.93106 -400.75069 26.70000 -193.85312 -400.61569 26.82000 -193.93106 -400.48069 26.82000 -194.08694 -400.48069 26.82000 -194.16489 -400.61569 26.82000 -194.08694 -400.75069 26.82000 -193.93106 -400.75069 26.82000 -194.00900 -400.61569 26.88000 -193.71250 -405.00000 26.32000 -193.55662 -405.00000 26.38000 -193.63456 -404.86500 26.38000 -193.79044 -404.86500 26.38000 -193.86838 -405.00000 26.38000 -193.79044 -405.13500 26.38000 -193.63456 -405.13500 26.38000 -193.55662 -405.00000 26.50000 -193.63456 -404.86500 26.50000 -193.79044 -404.86500 26.50000 -193.86838 -405.00000 26.50000 -193.79044 -405.13500 26.50000 -193.63456 -405.13500 26.50000 -193.71250 -405.00000 26.56000 -194.00900 -404.38431 26.32000 -193.85312 -404.38431 26.38000 -193.93106 -404.24931 26.38000 -194.08694 -404.24931 26.38000 -194.16489 -404.38431 26.38000 -194.08694 -404.51931 26.38000 -193.93106 -404.51931 26.38000 -193.85312 -404.38431 26.50000 -193.93106 -404.24931 26.50000 -194.08694 -404.24931 26.50000 -194.16489 -404.38431 26.50000 -194.08694 -404.51931 26.50000 -193.93106 -404.51931 26.50000 -194.00900 -404.38431 26.56000 -194.67524 -404.23224 26.32000 -194.51935 -404.23224 26.38000 -194.59729 -404.09724 26.38000 -194.75318 -404.09724 26.38000 -194.83112 -404.23224 26.38000 -194.75318 -404.36724 26.38000 -194.59729 -404.36724 26.38000 -194.51935 -404.23224 26.50000 -194.59729 -404.09724 26.50000 -194.75318 -404.09724 26.50000 -194.83112 -404.23224 26.50000 -194.75318 -404.36724 26.50000 -194.59729 -404.36724 26.50000 -194.67524 -404.23224 26.56000 -195.20951 -404.65832 26.32000 -195.05363 -404.65832 26.38000 -195.13157 -404.52332 26.38000 -195.28746 -404.52332 26.38000 -195.36540 -404.65832 26.38000 -195.28746 -404.79332 26.38000 -195.13157 -404.79332 26.38000 -195.05363 -404.65832 26.50000 -195.13157 -404.52332 26.50000 -195.28746 -404.52332 26.50000 -195.36540 -404.65832 26.50000 -195.28746 -404.79332 26.50000 -195.13157 -404.79332 26.50000 -195.20951 -404.65832 26.56000 -195.20951 -405.34168 26.32000 -195.05363 -405.34168 26.38000 -195.13157 -405.20668 26.38000 -195.28746 -405.20668 26.38000 -195.36540 -405.34168 26.38000 -195.28746 -405.47668 26.38000 -195.13157 -405.47668 26.38000 -195.05363 -405.34168 26.50000 -195.13157 -405.20668 26.50000 -195.28746 -405.20668 26.50000 -195.36540 -405.34168 26.50000 -195.28746 -405.47668 26.50000 -195.13157 -405.47668 26.50000 -195.20951 -405.34168 26.56000 -194.67524 -405.76776 26.32000 -194.51935 -405.76776 26.38000 -194.59729 -405.63276 26.38000 -194.75318 -405.63276 26.38000 -194.83112 -405.76776 26.38000 -194.75318 -405.90276 26.38000 -194.59729 -405.90276 26.38000 -194.51935 -405.76776 26.50000 -194.59729 -405.63276 26.50000 -194.75318 -405.63276 26.50000 -194.83112 -405.76776 26.50000 -194.75318 -405.90276 26.50000 -194.59729 -405.90276 26.50000 -194.67524 -405.76776 26.56000 -194.00900 -405.61569 26.32000 -193.85312 -405.61569 26.38000 -193.93106 -405.48069 26.38000 -194.08694 -405.48069 26.38000 -194.16489 -405.61569 26.38000 -194.08694 -405.75069 26.38000 -193.93106 -405.75069 26.38000 -193.85312 -405.61569 26.50000 -193.93106 -405.48069 26.50000 -194.08694 -405.48069 26.50000 -194.16489 -405.61569 26.50000 -194.08694 -405.75069 26.50000 -193.93106 -405.75069 26.50000 -194.00900 -405.61569 26.56000 -193.71250 -410.00000 26.00000 -193.55662 -410.00000 26.06000 -193.63456 -409.86500 26.06000 -193.79044 -409.86500 26.06000 -193.86838 -410.00000 26.06000 -193.79044 -410.13500 26.06000 -193.63456 -410.13500 26.06000 -193.55662 -410.00000 26.18000 -193.63456 -409.86500 26.18000 -193.79044 -409.86500 26.18000 -193.86838 -410.00000 26.18000 -193.79044 -410.13500 26.18000 -193.63456 -410.13500 26.18000 -193.71250 -410.00000 26.24000 -194.00900 -409.38431 26.00000 -193.85312 -409.38431 26.06000 -193.93106 -409.24931 26.06000 -194.08694 -409.24931 26.06000 -194.16489 -409.38431 26.06000 -194.08694 -409.51931 26.06000 -193.93106 -409.51931 26.06000 -193.85312 -409.38431 26.18000 -193.93106 -409.24931 26.18000 -194.08694 -409.24931 26.18000 -194.16489 -409.38431 26.18000 -194.08694 -409.51931 26.18000 -193.93106 -409.51931 26.18000 -194.00900 -409.38431 26.24000 -194.67524 -409.23224 26.00000 -194.51935 -409.23224 26.06000 -194.59729 -409.09724 26.06000 -194.75318 -409.09724 26.06000 -194.83112 -409.23224 26.06000 -194.75318 -409.36724 26.06000 -194.59729 -409.36724 26.06000 -194.51935 -409.23224 26.18000 -194.59729 -409.09724 26.18000 -194.75318 -409.09724 26.18000 -194.83112 -409.23224 26.18000 -194.75318 -409.36724 26.18000 -194.59729 -409.36724 26.18000 -194.67524 -409.23224 26.24000 -195.20951 -409.65832 26.00000 -195.05363 -409.65832 26.06000 -195.13157 -409.52332 26.06000 -195.28746 -409.52332 26.06000 -195.36540 -409.65832 26.06000 -195.28746 -409.79332 26.06000 -195.13157 -409.79332 26.06000 -195.05363 -409.65832 26.18000 -195.13157 -409.52332 26.18000 -195.28746 -409.52332 26.18000 -195.36540 -409.65832 26.18000 -195.28746 -409.79332 26.18000 -195.13157 -409.79332 26.18000 -195.20951 -409.65832 26.24000 -195.20951 -410.34168 26.00000 -195.05363 -410.34168 26.06000 -195.13157 -410.20668 26.06000 -195.28746 -410.20668 26.06000 -195.36540 -410.34168 26.06000 -195.28746 -410.47668 26.06000 -195.13157 -410.47668 26.06000 -195.05363 -410.34168 26.18000 -195.13157 -410.20668 26.18000 -195.28746 -410.20668 26.18000 -195.36540 -410.34168 26.18000 -195.28746 -410.47668 26.18000 -195.13157 -410.47668 26.18000 -195.20951 -410.34168 26.24000 -194.67524 -410.76776 26.00000 -194.51935 -410.76776 26.06000 -194.59729 -410.63276 26.06000 -194.75318 -410.63276 26.06000 -194.83112 -410.76776 26.06000 -194.75318 -410.90276 26.06000 -194.59729 -410.90276 26.06000 -194.51935 -410.76776 26.18000 -194.59729 -410.63276 26.18000 -194.75318 -410.63276 26.18000 -194.83112 -410.76776 26.18000 -194.75318 -410.90276 26.18000 -194.59729 -410.90276 26.18000 -194.67524 -410.76776 26.24000 -194.00900 -410.61569 26.00000 -193.85312 -410.61569 26.06000 -193.93106 -410.48069 26.06000 -194.08694 -410.48069 26.06000 -194.16489 -410.61569 26.06000 -194.08694 -410.75069 26.06000 -193.93106 -410.75069 26.06000 -193.85312 -410.61569 26.18000 -193.93106 -410.48069 26.18000 -194.08694 -410.48069 26.18000 -194.16489 -410.61569 26.18000 -194.08694 -410.75069 26.18000 -193.93106 -410.75069 26.18000 -194.00900 -410.61569 26.24000 -174.71250 -395.00000 26.96000 -174.55662 -395.00000 27.02000 -174.63456 -394.86500 27.02000 -174.79044 -394.86500 27.02000 -174.86838 -395.00000 27.02000 -174.79044 -395.13500 27.02000 -174.63456 -395.13500 27.02000 -174.55662 -395.00000 27.14000 -174.63456 -394.86500 27.14000 -174.79044 -394.86500 27.14000 -174.86838 -395.00000 27.14000 -174.79044 -395.13500 27.14000 -174.63456 -395.13500 27.14000 -174.71250 -395.00000 27.20000 -175.00900 -394.38431 26.96000 -174.85312 -394.38431 27.02000 -174.93106 -394.24931 27.02000 -175.08694 -394.24931 27.02000 -175.16489 -394.38431 27.02000 -175.08694 -394.51931 27.02000 -174.93106 -394.51931 27.02000 -174.85312 -394.38431 27.14000 -174.93106 -394.24931 27.14000 -175.08694 -394.24931 27.14000 -175.16489 -394.38431 27.14000 -175.08694 -394.51931 27.14000 -174.93106 -394.51931 27.14000 -175.00900 -394.38431 27.20000 -175.67524 -394.23224 26.96000 -175.51935 -394.23224 27.02000 -175.59729 -394.09724 27.02000 -175.75318 -394.09724 27.02000 -175.83112 -394.23224 27.02000 -175.75318 -394.36724 27.02000 -175.59729 -394.36724 27.02000 -175.51935 -394.23224 27.14000 -175.59729 -394.09724 27.14000 -175.75318 -394.09724 27.14000 -175.83112 -394.23224 27.14000 -175.75318 -394.36724 27.14000 -175.59729 -394.36724 27.14000 -175.67524 -394.23224 27.20000 -176.20951 -394.65832 26.96000 -176.05363 -394.65832 27.02000 -176.13157 -394.52332 27.02000 -176.28746 -394.52332 27.02000 -176.36540 -394.65832 27.02000 -176.28746 -394.79332 27.02000 -176.13157 -394.79332 27.02000 -176.05363 -394.65832 27.14000 -176.13157 -394.52332 27.14000 -176.28746 -394.52332 27.14000 -176.36540 -394.65832 27.14000 -176.28746 -394.79332 27.14000 -176.13157 -394.79332 27.14000 -176.20951 -394.65832 27.20000 -176.20951 -395.34168 26.96000 -176.05363 -395.34168 27.02000 -176.13157 -395.20668 27.02000 -176.28746 -395.20668 27.02000 -176.36540 -395.34168 27.02000 -176.28746 -395.47668 27.02000 -176.13157 -395.47668 27.02000 -176.05363 -395.34168 27.14000 -176.13157 -395.20668 27.14000 -176.28746 -395.20668 27.14000 -176.36540 -395.34168 27.14000 -176.28746 -395.47668 27.14000 -176.13157 -395.47668 27.14000 -176.20951 -395.34168 27.20000 -175.67524 -395.76776 26.96000 -175.51935 -395.76776 27.02000 -175.59729 -395.63276 27.02000 -175.75318 -395.63276 27.02000 -175.83112 -395.76776 27.02000 -175.75318 -395.90276 27.02000 -175.59729 -395.90276 27.02000 -175.51935 -395.76776 27.14000 -175.59729 -395.63276 27.14000 -175.75318 -395.63276 27.14000 -175.83112 -395.76776 27.14000 -175.75318 -395.90276 27.14000 -175.59729 -395.90276 27.14000 -175.67524 -395.76776 27.20000 -175.00900 -395.61569 26.96000 -174.85312 -395.61569 27.02000 -174.93106 -395.48069 27.02000 -175.08694 -395.48069 27.02000 -175.16489 -395.61569 27.02000 -175.08694 -395.75069 27.02000 -174.93106 -395.75069 27.02000 -174.85312 -395.61569 27.14000 -174.93106 -395.48069 27.14000 -175.08694 -395.48069 27.14000 -175.16489 -395.61569 27.14000 -175.08694 -395.75069 27.14000 -174.93106 -395.75069 27.14000 -175.00900 -395.61569 27.20000 -174.71250 -400.00000 26.64000 -174.55662 -400.00000 26.70000 -174.63456 -399.86500 26.70000 -174.79044 -399.86500 26.70000 -174.86838 -400.00000 26.70000 -174.79044 -400.13500 26.70000 -174.63456 -400.13500 26.70000 -174.55662 -400.00000 26.82000 -174.63456 -399.86500 26.82000 -174.79044 -399.86500 26.82000 -174.86838 -400.00000 26.82000 -174.79044 -400.13500 26.82000 -174.63456 -400.13500 26.82000 -174.71250 -400.00000 26.88000 -175.00900 -399.38431 26.64000 -174.85312 -399.38431 26.70000 -174.93106 -399.24931 26.70000 -175.08694 -399.24931 26.70000 -175.16489 -399.38431 26.70000 -175.08694 -399.51931 26.70000 -174.93106 -399.51931 26.70000 -174.85312 -399.38431 26.82000 -174.93106 -399.24931 26.82000 -175.08694 -399.24931 26.82000 -175.16489 -399.38431 26.82000 -175.08694 -399.51931 26.82000 -174.93106 -399.51931 26.82000 -175.00900 -399.38431 26.88000 -175.67524 -399.23224 26.64000 -175.51935 -399.23224 26.70000 -175.59729 -399.09724 26.70000 -175.75318 -399.09724 26.70000 -175.83112 -399.23224 26.70000 -175.75318 -399.36724 26.70000 -175.59729 -399.36724 26.70000 -175.51935 -399.23224 26.82000 -175.59729 -399.09724 26.82000 -175.75318 -399.09724 26.82000 -175.83112 -399.23224 26.82000 -175.75318 -399.36724 26.82000 -175.59729 -399.36724 26.82000 -175.67524 -399.23224 26.88000 -176.20951 -399.65832 26.64000 -176.05363 -399.65832 26.70000 -176.13157 -399.52332 26.70000 -176.28746 -399.52332 26.70000 -176.36540 -399.65832 26.70000 -176.28746 -399.79332 26.70000 -176.13157 -399.79332 26.70000 -176.05363 -399.65832 26.82000 -176.13157 -399.52332 26.82000 -176.28746 -399.52332 26.82000 -176.36540 -399.65832 26.82000 -176.28746 -399.79332 26.82000 -176.13157 -399.79332 26.82000 -176.20951 -399.65832 26.88000 -176.20951 -400.34168 26.64000 -176.05363 -400.34168 26.70000 -176.13157 -400.20668 26.70000 -176.28746 -400.20668 26.70000 -176.36540 -400.34168 26.70000 -176.28746 -400.47668 26.70000 -176.13157 -400.47668 26.70000 -176.05363 -400.34168 26.82000 -176.13157 -400.20668 26.82000 -176.28746 -400.20668 26.82000 -176.36540 -400.34168 26.82000 -176.28746 -400.47668 26.82000 -176.13157 -400.47668 26.82000 -176.20951 -400.34168 26.88000 -175.67524 -400.76776 26.64000 -175.51935 -400.76776 26.70000 -175.59729 -400.63276 26.70000 -175.75318 -400.63276 26.70000 -175.83112 -400.76776 26.70000 -175.75318 -400.90276 26.70000 -175.59729 -400.90276 26.70000 -175.51935 -400.76776 26.82000 -175.59729 -400.63276 26.82000 -175.75318 -400.63276 26.82000 -175.83112 -400.76776 26.82000 -175.75318 -400.90276 26.82000 -175.59729 -400.90276 26.82000 -175.67524 -400.76776 26.88000 -175.00900 -400.61569 26.64000 -174.85312 -400.61569 26.70000 -174.93106 -400.48069 26.70000 -175.08694 -400.48069 26.70000 -175.16489 -400.61569 26.70000 -175.08694 -400.75069 26.70000 -174.93106 -400.75069 26.70000 -174.85312 -400.61569 26.82000 -174.93106 -400.48069 26.82000 -175.08694 -400.48069 26.82000 -175.16489 -400.61569 26.82000 -175.08694 -400.75069 26.82000 -174.93106 -400.75069 26.82000 -175.00900 -400.61569 26.88000 -174.71250 -405.00000 26.32000 -174.55662 -405.00000 26.38000 -174.63456 -404.86500 26.38000 -174.79044 -404.86500 26.38000 -174.86838 -405.00000 26.38000 -174.79044 -405.13500 26.38000 -174.63456 -405.13500 26.38000 -174.55662 -405.00000 26.50000 -174.63456 -404.86500 26.50000 -174.79044 -404.86500 26.50000 -174.86838 -405.00000 26.50000 -174.79044 -405.13500 26.50000 -174.63456 -405.13500 26.50000 -174.71250 -405.00000 26.56000 -175.00900 -404.38431 26.32000 -174.85312 -404.38431 26.38000 -174.93106 -404.24931 26.38000 -175.08694 -404.24931 26.38000 -175.16489 -404.38431 26.38000 -175.08694 -404.51931 26.38000 -174.93106 -404.51931 26.38000 -174.85312 -404.38431 26.50000 -174.93106 -404.24931 26.50000 -175.08694 -404.24931 26.50000 -175.16489 -404.38431 26.50000 -175.08694 -404.51931 26.50000 -174.93106 -404.51931 26.50000 -175.00900 -404.38431 26.56000 -175.67524 -404.23224 26.32000 -175.51935 -404.23224 26.38000 -175.59729 -404.09724 26.38000 -175.75318 -404.09724 26.38000 -175.83112 -404.23224 26.38000 -175.75318 -404.36724 26.38000 -175.59729 -404.36724 26.38000 -175.51935 -404.23224 26.50000 -175.59729 -404.09724 26.50000 -175.75318 -404.09724 26.50000 -175.83112 -404.23224 26.50000 -175.75318 -404.36724 26.50000 -175.59729 -404.36724 26.50000 -175.67524 -404.23224 26.56000 -176.20951 -404.65832 26.32000 -176.05363 -404.65832 26.38000 -176.13157 -404.52332 26.38000 -176.28746 -404.52332 26.38000 -176.36540 -404.65832 26.38000 -176.28746 -404.79332 26.38000 -176.13157 -404.79332 26.38000 -176.05363 -404.65832 26.50000 -176.13157 -404.52332 26.50000 -176.28746 -404.52332 26.50000 -176.36540 -404.65832 26.50000 -176.28746 -404.79332 26.50000 -176.13157 -404.79332 26.50000 -176.20951 -404.65832 26.56000 -176.20951 -405.34168 26.32000 -176.05363 -405.34168 26.38000 -176.13157 -405.20668 26.38000 -176.28746 -405.20668 26.38000 -176.36540 -405.34168 26.38000 -176.28746 -405.47668 26.38000 -176.13157 -405.47668 26.38000 -176.05363 -405.34168 26.50000 -176.13157 -405.20668 26.50000 -176.28746 -405.20668 26.50000 -176.36540 -405.34168 26.50000 -176.28746 -405.47668 26.50000 -176.13157 -405.47668 26.50000 -176.20951 -405.34168 26.56000 -175.67524 -405.76776 26.32000 -175.51935 -405.76776 26.38000 -175.59729 -405.63276 26.38000 -175.75318 -405.63276 26.38000 -175.83112 -405.76776 26.38000 -175.75318 -405.90276 26.38000 -175.59729 -405.90276 26.38000 -175.51935 -405.76776 26.50000 -175.59729 -405.63276 26.50000 -175.75318 -405.63276 26.50000 -175.83112 -405.76776 26.50000 -175.75318 -405.90276 26.50000 -175.59729 -405.90276 26.50000 -175.67524 -405.76776 26.56000 -175.00900 -405.61569 26.32000 -174.85312 -405.61569 26.38000 -174.93106 -405.48069 26.38000 -175.08694 -405.48069 26.38000 -175.16489 -405.61569 26.38000 -175.08694 -405.75069 26.38000 -174.93106 -405.75069 26.38000 -174.85312 -405.61569 26.50000 -174.93106 -405.48069 26.50000 -175.08694 -405.48069 26.50000 -175.16489 -405.61569 26.50000 -175.08694 -405.75069 26.50000 -174.93106 -405.75069 26.50000 -175.00900 -405.61569 26.56000 -174.71250 -410.00000 26.00000 -174.55662 -410.00000 26.06000 -174.63456 -409.86500 26.06000 -174.79044 -409.86500 26.06000 -174.86838 -410.00000 26.06000 -174.79044 -410.13500 26.06000 -174.63456 -410.13500 26.06000 -174.55662 -410.00000 26.18000 -174.63456 -409.86500 26.18000 -174.79044 -409.86500 26.18000 -174.86838 -410.00000 26.18000 -174.79044 -410.13500 26.18000 -174.63456 -410.13500 26.18000 -174.71250 -410.00000 26.24000 -175.00900 -409.38431 26.00000 -174.85312 -409.38431 26.06000 -174.93106 -409.24931 26.06000 -175.08694 -409.24931 26.06000 -175.16489 -409.38431 26.06000 -175.08694 -409.51931 26.06000 -174.93106 -409.51931 26.06000 -174.85312 -409.38431 26.18000 -174.93106 -409.24931 26.18000 -175.08694 -409.24931 26.18000 -175.16489 -409.38431 26.18000 -175.08694 -409.51931 26.18000 -174.93106 -409.51931 26.18000 -175.00900 -409.38431 26.24000 -175.67524 -409.23224 26.00000 -175.51935 -409.23224 26.06000 -175.59729 -409.09724 26.06000 -175.75318 -409.09724 26.06000 -175.83112 -409.23224 26.06000 -175.75318 -409.36724 26.06000 -175.59729 -409.36724 26.06000 -175.51935 -409.23224 26.18000 -175.59729 -409.09724 26.18000 -175.75318 -409.09724 26.18000 -175.83112 -409.23224 26.18000 -175.75318 -409.36724 26.18000 -175.59729 -409.36724 26.18000 -175.67524 -409.23224 26.24000 -176.20951 -409.65832 26.00000 -176.05363 -409.65832 26.06000 -176.13157 -409.52332 26.06000 -176.28746 -409.52332 26.06000 -176.36540 -409.65832 26.06000 -176.28746 -409.79332 26.06000 -176.13157 -409.79332 26.06000 -176.05363 -409.65832 26.18000 -176.13157 -409.52332 26.18000 -176.28746 -409.52332 26.18000 -176.36540 -409.65832 26.18000 -176.28746 -409.79332 26.18000 -176.13157 -409.79332 26.18000 -176.20951 -409.65832 26.24000 -176.20951 -410.34168 26.00000 -176.05363 -410.34168 26.06000 -176.13157 -410.20668 26.06000 -176.28746 -410.20668 26.06000 -176.36540 -410.34168 26.06000 -176.28746 -410.47668 26.06000 -176.13157 -410.47668 26.06000 -176.05363 -410.34168 26.18000 -176.13157 -410.20668 26.18000 -176.28746 -410.20668 26.18000 -176.36540 -410.34168 26.18000 -176.28746 -410.47668 26.18000 -176.13157 -410.47668 26.18000 -176.20951 -410.34168 26.24000 -175.67524 -410.76776 26.00000 -175.51935 -410.76776 26.06000 -175.59729 -410.63276 26.06000 -175.75318 -410.63276 26.06000 -175.83112 -410.76776 26.06000 -175.75318 -410.90276 26.06000 -175.59729 -410.90276 26.06000 -175.51935 -410.76776 26.18000 -175.59729 -410.63276 26.18000 -175.75318 -410.63276 26.18000 -175.83112 -410.76776 26.18000 -175.75318 -410.90276 26.18000 -175.59729 -410.90276 26.18000 -175.67524 -410.76776 26.24000 -175.00900 -410.61569 26.00000 -174.85312 -410.61569 26.06000 -174.93106 -410.48069 26.06000 -175.08694 -410.48069 26.06000 -175.16489 -410.61569 26.06000 -175.08694 -410.75069 26.06000 -174.93106 -410.75069 26.06000 -174.85312 -410.61569 26.18000 -174.93106 -410.48069 26.18000 -175.08694 -410.48069 26.18000 -175.16489 -410.61569 26.18000 -175.08694 -410.75069 26.18000 -174.93106 -410.75069 26.18000 -175.00900 -410.61569 26.24000</float_array><technique_common><accessor source="#positions-array" count="784" stride="3"><param name="X" type="float"/><param name="Y" type="float"/><param name="Z" type="float"/></accessor></technique_common></source>
<source id="normals"><float_array id="normals-array" count="4032">0.35173 0.20307 -0.91381 0.86603 0.50000 0.00000 0.86603 0.50000 -0.00000 0.35173 0.20307 0.91381 0.00000 0.40614 -0.91381 0.00000 1.00000 0.00000 0.00000 1.00000 -0.00000 0.00000 0.40614 0.91381 -0.35173 0.20307 -0.91381 -0.86603 0.50000 0.00000 -0.86603 0.50000 0.00000 -0.35173 0.20307 0.91381 -0.35173 -0.20307 -0.91381 -0.86603 -0.50000 0.00000 -0.86603 -0.50000 0.00000 -0.35173 -0.20307 0.91381 0.00000 -0.40614 -0.91381 0.00000 -1.00000 0.00000 0.00000 -1.00000 0.00000 0.00000 -0.40614 0.91381 0.35173 -0.20307 -0.91381 0.86603 -0.50000 0.00000 0.86603 -0.50000 0.00000 0.35173 -0.20307 0.91381 0.35173 0.20307 -0.91381 0.86603 0.50000 0.00000 0.86603 0.50000 -0.00000 0.35173 0.20307 0.91381 0.00000 0.40614 -0.91381 0.00000 1.00000 0.00000 0.00000 1.00000 -0.00000 0.00000 0.40614 0.91381 -0.35173 0.20307 -0.91381 -0.86603 0.50000 0.00000 -0.86603 0.50000 0.00000 -0.35173 0.20307 0.91381 -0.35173 -0.20307 -0.91381 -0.86603 -0.50000 0.00000 -0.86603 -0.50000 0.00000 -0.35173 -0.20307 0.91381 0.00000 -0.40614 -0.91381 0.00000 -1.00000 0.00000 0.00000 -1.00000 0.00000 0.00000 -0.40614 0.91381 0.35173 -0.20307 -0.91381 0.86603 -0.50000 0.00000 0.86603 -0.50000 0.00000 0.35173 -0.20307 0.91381 0.35173 0.20307 -0.91381 0.86603 0.50000 0.00000 0.86603 0.50000 -0.00000 0.35173 0.20307 0.91381 0.00000 0.40614 -0.91381 0.00000 1.00000 0.00000 0.00000 1.00000 -0.00000 0.00000 0.40614 0.91381 -0.35173 0.20307 -0.91381 -0.86603 0.50000 0.00000 -0.86603 0.50000 0.00000 -0.35173 0.20307 0.91381 -0.35173 -0.20307 -0.91381 -0.86603 -0.50000 0.00000 -0.86603 -0.50000 0.00000 -0.35173 -0.20307 0.91381 0.00000 -0.40614 -0.91381 0.00000 -1.00000 0.00000 0.00000 -1.00000 0.00000 0.00000 -0.40614 0.91381 0.35173 -0.20307 -0.91381 0.86603 -0.50000 0.00000 0.86603 -0.50000 0.00000 0.35173 -0.20307 0.91381 0.35173 0.20307 -0.91381 0.86603 0.50000 0.00000 0.86603 0.50000 -0.00000 0.35173 0.20307 0.91381 0.00000 0.40614 -0.91381 0.00000 1.00000 0.00000 0.00000 1.00000 -0.00000 0.00000 0.40614 0.91381 -0.35173 0.20307 -0.91381 -0.86603 0.50000 0.00000 -0.86603 0.50000 0.00000 -0.35173 0.20307 0.91381 -0.35173 -0.20307 -0.91381 -0.86603 -0.50000 0.00000 -0.86603 -0.50000 0.00000 -0.35173 -0.20307 0.91381 0.00000 -0.40614 -0.91381 0.00000 -1.00000 0.00000 0.00000 -1.00000 0.00000 0.00000 -0.40614 0.91381 0.35173 -0.20307 -0.91381 0.86603 -0.50000 0.00000 0.86603 -0.50000 0.00000 0.35173 -0.20307 0.91381 0.35173 0.20307 -0.91381 0.86603 0.50000 0.00000 0.86603 0.50000 -0.00000 0.35173 0.20307 0.91381 0.00000 0.40614 -0.91381 0.00000 1.00000 0.00000 0.00000 1.00000 -0.00000 0.00000 0.40614 0.91381 -0.35173 0.20307 -0.91381 -0.86603 0.50000 0.00000 -0.86603 0.50000 0.00000 -0.35173 0.20307 0.91381 -0.35173 -0.20307 -0.91381 -0.86603 -0.50000 0.00000 -0.86603 -0.50000 0.00000 -0.35173 -0.20307 0.91381 0.00000 -0.40614 -0.91381 0.00000 -1.00000 0.00000 0.00000 -1.00000 0.00000 0.00000 -0.40614 0.91381 0.35173 -0.20307 -0.91381 0.86603 -0.50000 0.00000 0.86603 -0.50000 0.00000 0.35173 -0.20307 0.91381 0.35173 0.20307 -0.91381 0.86603 0.50000 0.00000 0.86603 0.50000 -0.00000 0.35173 0.20307 0.91381 0.00000 0.40614 -0.91381 0.00000 1.00000 0.00000 0.00000 1.00000 -0.00000 0.00000 0.40614 0.91381 -0.35173 0.20307 -0.91381 -0.86603 0.50000 0.00000 -0.86603 0.50000 0.00000 -0.35173 0.20307 0.91381 -0.35173 -0.20307 -0.91381 -0.86603 -0.50000 0.00000 -0.86603 -0.50000 0.00000 -0.35173 -0.20307 0.91381 0.00000 -0.40614 -0.91381 0.00000 -1.00000 0.00000 0.00000 -1.00000 0.00000 0.00000 -0.40614 0.91381 0.35173 -0.20307 -0.91381 0.86603 -0.50000 0.00000 0.86603 -0.50000 0.00000 0.35173 -0.20307 0.91381 0.35173 0.20307 -0.91381 0.86603 0.50000 0.00000 0.86603 0.50000 -0.00000 0.35173 0.20307 0.91381 0.00000 0.40614 -0.91381 0.00000 1.00000 0.00000 0.00000 1.00000 -0.00000 0.00000 0.40614 0.91381 -0.35173 0.20307 -0.91381 -0.86603 0.50000 0.00000 -0.86603 0.50000 0.00000 -0.35173 0.20307 0.91381 -0.35173 -0.20307 -0.91381 -0.86603 -0.50000 0.00000 -0.86603 -0.50000 0.00000 -0.35173 -0.20307 0.91381 0.00000 -0.40614 -0.91381 0.00000 -1.00000 0.00000 0.00000 -1.00000 0.00000 0.00000 -0.40614 0.91381 0.35173 -0.20307 -0.91381 0.86603 -0.50000 0.00000 0.86603 -0.50000 0.00000 0.35173 -0.20307 0.91381 0.35173 0.20307 -0.91381 0.86603 0.50000 0.00000 0.86603 0.50000 -0.00000 0.35173 0.20307 0.91381 0.00000 0.40614 -0.91381 0.00000 1.00000 0.00000 0.00000 1.00000 -0.00000 0.00000 0.40614 0.91381 -0.35173 0.20307 -0.91381 -0.86603 0.50000 0.00000 -0.86603 0.50000 0.00000 -0.35173 0.20307 0.91381 -0.35173 -0.20307 -0.91381 -0.86603 -0.50000 0.00000 -0.86603 -0.50000 0.00000 -0.35173 -0.20307 0.91381 0.00000 -0.40614 -0.91381 0.00000 -1.00000 0.00000 0.00000 -1.00000 0.00000 0.00000 -0.40614 0.91381 0.35173 -0.20307 -0.91381 0.86603 -0.50000 0.00000 0.86603 -0.50000 0.00000 0.35173 -0.20307 0.91381 0.35173 0.20307 -0.91381 0.86603 0.50000 0.00000 0.86603 0.50000 -0.00000 0.35173 0.20307 0.91381 0.00000 0.40614 -0.91381 0.00000 1.00000 0.00000 0.00000 1.00000 -0.00000 0.00000 0.40614 0.91381 -0.35173 0.20307 -0.91381 -0.86603 0.50000 0.00000 -0.86603 0.50000 0.00000 -0.35173 0.20307 0.91381 -0.35173 -0.20307 -0.91381 -0.86603 -0.50000 0.00000 -0.86603 -0.50000 0.00000 -0.35173 -0.20307 0.91381 0.00000 -0.40614 -0.91381 0.00000 -1.00000 0.00000 0.00000 -1.00000 0.00000 0.00000 -0.40614 0.91381 0.35173 -0.20307 -0.91381 0.86603 -0.50000 0.00000 0.86603 -0.50000 0.00000 0.35173 -0.20307 0.91381 0.35173 0.20307 -0.91381 0.86603 0.50000 0.00000 0.86603 0.50000 -0.00000 0.35173 0.20307 0.91381 0.00000 0.40614 -0.91381 0.00000 1.00000 0.00000 0.00000 1.00000 -0.00000 0.00000 0.40614 0.91381 -0.35173 0.20307 -0.91381 -0.86603 0.50000 0.00000 -0.86603 0.50000 0.00000 -0.35173 0.20307 0.91381 -0.35173 -0.20307 -0.91381 -0.86603 -0.50000 0.00000 -0.86603 -0.50000 0.00000 -0.35173 -0.20307 0.91381 0.00000 -0.40614 -0.91381 0.00000 -1.00000 0.00000 0.00000 -1.00000 0.00000 0.00000 -0.40614 0.91381 0.35173 -0.20307 -0.91381 0.86603 -0.50000 0.00000 0.86603 -0.50000 0.00000 0.35173 -0.20307 0.91381 0.35173 0.20307 -0.91381 0.86603 0.50000 0.00000 0.86603 0.50000 -0.00000 0.35173 0.20307 0.91381 0.00000 0.40614 -0.91381 0.00000 1.00000 0.00000 0.00000 1.00000 -0.00000 0.00000 0.40614 0.91381 -0.35173 0.20307 -0.91381 -0.86603 0.50000 0.00000 -0.86603 0.50000 0.00000 -0.35173 0.20307 0.91381 -0.35173 -0.20307 -0.91381 -0.86603 -0.50000 0.00000 -0.86603 -0.50000 0.00000 -0.35173 -0.20307 0.91381 0.00000 -0.40614 -0.91381 0.00000 -1.00000 0.00000 0.00000 -1.00000 0.00000 0.00000 -0.40614 0.91381 0.35173 -0.20307 -0.91381 0.86603 -0.50000 0.00000 0.86603 -0.50000 0.00000 0.35173 -0.20307 0.91381 0.35173 0.20307 -0.91381 0.86603 0.50000 0.00000 0.86603 0.50000 -0.00000 0.35173 0.20307 0.91381 0.00000 0.40614 -0.91381 0.00000 1.00000 0.00000 0.00000 1.00000 -0.00000 0.00000 0.40614 0.91381 -0.35173 0.20307 -0.91381 -0.86603 0.50000 0.00000 -0.86603 0.50000 0.00000 -0.35173 0.20307 0.91381 -0.35173 -0.20307 -0.91381 -0.86603 -0.50000 0.00000 -0.86603 -0.50000 0.00000 -0.35173 -0.20307 0.91381 0.00000 -0.40614 -0.91381 0.00000 -1.00000 0.00000 0.00000 -1.00000 0.00000 0.00000 -0.40614 0.91381 0.35173 -0.20307 -0.91381 0.86603 -0.50000 0.00000 0.86603 -0.50000 0.00000 0.35173 -0.20307 0.91381 0.35173 0.20307 -0.91381 0.86603 0.50000 0.00000 0.86603 0.50000 -0.00000 0.35173 0.20307 0.91381 0.00000 0.40614 -0.91381 0.00000 1.00000 0.00000 0.00000 1.00000 -0.00000 0.00000 0.40614 0.91381 -0.35173 0.20307 -0.91381 -0.86603 0.50000 0.00000 -0.86603 0.50000 0.00000 -0.35173 0.20307 0.91381 -0.35173 -0.20307 -0.91381 -0.86603 -0.50000 0.00000 -0.86603 -0.50000 0.00000 -0.35173 -0.20307 0.91381 0.00000 -0.40614 -0.91381 0.00000 -1.00000 0.00000 0.00000 -1.00000 0.00000 0.00000 -0.40614 0.91381 0.35173 -0.20307 -0.91381 0.86603 -0.50000 0.00000 0.86603 -0.50000 0.00000 0.35173 -0.20307 0.91381 0.35173 0.20307 -0.91381 0.86603 0.50000 0.00000 0.86603 0.50000 -0.00000 0.35173 0.20307 0.91381 0.00000 0.40614 -0.91381 0.00000 1.00000 0.00000 0.00000 1.00000 -0.00000 0.00000 0.40614 0.91381 -0.35173 0.20307 -0.91381 -0.86603 0.50000 0.00000 -0.86603 0.50000 0.00000 -0.35173 0.20307 0.91381 -0.35173 -0.20307 -0.91381 -0.86603 -0.50000 0.00000 -0.86603 -0.50000 0.00000 -0.35173 -0.20307 0.91381 0.00000 -0.40614 -0.91381 0.00000 -1.00000 0.00000 0.00000 -1.00000 0.00000 0.00000 -0.40614 0.91381 0.35173 -0.20307 -0.91381 0.86603 -0.50000 0.00000 0.86603 -0.50000 0.00000 0.35173 -0.20307 0.91381 0.35173 0.20307 -0.91381 0.86603 0.50000 0.00000 0.86603 0.50000 -0.00000 0.35173 0.20307 0.91381 0.00000 0.40614 -0.91381 0.00000 1.00000 0.00000 0.00000 1.00000 -0.00000 0.00000 0.40614 0.91381 -0.35173 0.20307 -0.91381 -0.86603 0.50000 0.00000 -0.86603 0.50000 0.00000 -0.35173 0.20307 0.91381 -0.35173 -0.20307 -0.91381 -0.86603 -0.50000 0.00000 -0.86603 -0.50000 0.00000 -0.35173 -0.20307 0.91381 0.00000 -0.40614 -0.91381 0.00000 -1.00000 0.00000 0.00000 -1.00000 0.00000 0.00000 -0.40614 0.91381 0.35173 -0.20307 -0.91381 0.86603 -0.50000 0.00000 0.86603 -0.50000 0.00000 0.35173 -0.20307 0.91381 0.35173 0.20307 -0.91381 0.86603 0.50000 0.00000 0.86603 0.50000 -0.00000 0.35173 0.20307 0.91381 0.00000 0.40614 -0.91381 0.00000 1.00000 0.00000 0.00000 1.00000 -0.00000 0.00000 0.40614 0.91381 -0.35173 0.20307 -0.91381 -0.86603 0.50000 0.00000 -0.86603 0.50000 0.00000 -0.35173 0.20307 0.91381 -0.35173 -0.20307 -0.91381 -0.86603 -0.50000 0.00000 -0.86603 -0.50000 0.00000 -0.35173 -0.20307 0.91381 0.00000 -0.40614 -0.91381 0.00000 -1.00000 0.00000 0.00000 -1.00000 0.00000 0.00000 -0.40614 0.91381 0.35173 -0.20307 -0.91381 0.86603 -0.50000 0.00000 0.86603 -0.50000 0.00000 0.35173 -0.20307 0.91381 0.35173 0.20307 -0.91381 0.86603 0.50000 0.00000 0.86603 0.50000 -0.00000 0.35173 0.20307 0.91381 0.00000 0.40614 -0.91381 0.00000 1.00000 0.00000 0.00000 1.00000 -0.00000 0.00000 0.40614 0.91381 -0.35173 0.20307 -0.91381 -0.86603 0.50000 0.00000 -0.86603 0.50000 0.00000 -0.35173 0.20307 0.91381 -0.35173 -0.20307 -0.91381 -0.86603 -0.50000 0.00000 -0.86603 -0.50000 0.00000 -0.35173 -0.20307 0.91381 0.00000 -0.40614 -0.91381 0.00000 -1.00000 0.00000 0.00000 -1.00000 0.00000 0.00000 -0.40614 0.91381 0.35173 -0.20307 -0.91381 0.86603 -0.50000 0.00000 0.86603 -0.50000 0.00000 0.35173 -0.20307 0.91381 0.35173 0.20307 -0.91381 0.86603 0.50000 0.00000 0.86603 0.50000 -0.00000 0.35173 0.20307 0.91381 0.00000 0.40614 -0.91381 0.00000 1.00000 0.00000 0.00000 1.00000 -0.00000 0.00000 0.40614 0.91381 -0.35173 0.20307 -0.91381 -0.86603 0.50000 0.00000 -0.86603 0.50000 0.00000 -0.35173 0.20307 0.91381 -0.35173 -0.20307 -0.91381 -0.86603 -0.50000 0.00000 -0.86603 -0.50000 0.00000 -0.35173 -0.20307 0.91381 0.00000 -0.40614 -0.91381 0.00000 -1.00000 0.00000 0.00000 -1.00000 0.00000 0.00000 -0.40614 0.91381 0.35173 -0.20307 -0.91381 0.86603 -0.50000 0.00000 0.86603 -0.50000 0.00000 0.35173 -0.20307 0.91381 0.35173 0.20307 -0.91381 0.86603 0.50000 0.00000 0.86603 0.50000 -0.00000 0.35173 0.20307 0.91381 0.00000 0.40614 -0.91381 0.00000 1.00000 0.00000 0.00000 1.00000 -0.00000 0.00000 0.40614 0.91381 -0.35173 0.20307 -0.91381 -0.86603 0.50000 0.00000 -0.86603 0.50000 0.00000 -0.35173 0.20307 0.91381 -0.35173 -0.20307 -0.91381 -0.86603 -0.50000 0.00000 -0.86603 -0.50000 0.00000 -0.35173 -0.20307 0.91381 0.00000 -0.40614 -0.91381 0.00000 -1.00000 0.00000 0.00000 -1.00000 0.00000 0.00000 -0.40614 0.91381 0.35173 -0.20307 -0.91381 0.86603 -0.50000 0.00000 0.86603 -0.50000 0.00000 0.35173 -0.20307 0.91381 0.35173 0.20307 -0.91381 0.86603 0.50000 0.00000 0.86603 0.50000 -0.00000 0.35173 0.20307 0.91381 0.00000 0.40614 -0.91381 0.00000 1.00000 0.00000 0.00000 1.00000 -0.00000 0.00000 0.40614 0.91381 -0.35173 0.20307 -0.91381 -0.86603 0.50000 0.00000 -0.86603 0.50000 0.00000 -0.35173 0.20307 0.91381 -0.35173 -0.20307 -0.91381 -0.86603 -0.50000 0.00000 -0.86603 -0.50000 0.00000 -0.35173 -0.20307 0.91381 0.00000 -0.40614 -0.91381 0.00000 -1.00000 0.00000 0.00000 -1.00000 0.00000 0.00000 -0.40614 0.91381 0.35173 -0.20307 -0.91381 0.86603 -0.50000 0.00000 0.86603 -0.50000 0.00000 0.35173 -0.20307 0.91381 0.35173 0.20307 -0.91381 0.86603 0.50000 0.00000 0.86603 0.50000 -0.00000 0.35173 0.20307 0.91381 0.00000 0.40614 -0.91381 0.00000 1.00000 0.00000 0.00000 1.00000 -0.00000 0.00000 0.40614 0.91381 -0.35173 0.20307 -0.91381 -0.86603 0.50000 0.00000 -0.86603 0.50000 0.00000 -0.35173 0.20307 0.91381 -0.35173 -0.20307 -0.91381 -0.86603 -0.50000 0.00000 -0.86603 -0.50000 0.00000 -0.35173 -0.20307 0.91381 0.00000 -0.40614 -0.91381 0.00000 -1.00000 0.00000 0.00000 -1.00000 0.00000 0.00000 -0.40614 0.91381 0.35173 -0.20307 -0.91381 0.86603 -0.50000 0.00000 0.86603 -0.50000 0.00000 0.35173 -0.20307 0.91381 0.35173 0.20307 -0.91381 0.86603 0.50000 0.00000 0.86603 0.50000 -0.00000 0.35173 0.20307 0.91381 0.00000 0.40614 -0.91381 0.00000 1.00000 0.00000 0.00000 1.00000 -0.00000 0.00000 0.40614 0.91381 -0.35173 0.20307 -0.91381 -0.86603 0.50000 0.00000 -0.86603 0.50000 0.00000 -0.35173 0.20307 0.91381 -0.35173 -0.20307 -0.91381 -0.86603 -0.50000 0.00000 -0.86603 -0.50000 0.00000 -0.35173 -0.20307 0.91381 0.00000 -0.40614 -0.91381 0.00000 -1.00000 0.00000 0.00000 -1.00000 0.00000 0.00000 -0.40614 0.91381 0.35173 -0.20307 -0.91381 0.86603 -0.50000 0.00000 0.86603 -0.50000 0.00000 0.35173 -0.20307 0.91381 0.35173 0.20307 -0.91381 0.86603 0.50000 0.00000 0.86603 0.50000 -0.00000 0.35173 0.20307 0.91381 0.00000 0.40614 -0.91381 0.00000 1.00000 0.00000 0.00000 1.00000 -0.00000 0.00000 0.40614 0.91381 -0.35173 0.20307 -0.91381 -0.86603 0.50000 0.00000 -0.86603 0.50000 0.00000 -0.35173 0.20307 0.91381 -0.35173 -0.20307 -0.91381 -0.86603 -0.50000 0.00000 -0.86603 -0.50000 0.00000 -0.35173 -0.20307 0.91381 0.00000 -0.40614 -0.91381 0.00000 -1.00000 0.00000 0.00000 -1.00000 0.00000 0.00000 -0.40614 0.91381 0.35173 -0.20307 -0.91381 0.86603 -0.50000 0.00000 0.86603 -0.50000 0.00000 0.35173 -0.20307 0.91381 0.35173 0.20307 -0.91381 0.86603 0.50000 0.00000 0.86603 0.50000 -0.00000 0.35173 0.20307 0.91381 0.00000 0.40614 -0.91381 0.00000 1.00000 0.00000 0.00000 1.00000 -0.00000 0.00000 0.40614 0.91381 -0.35173 0.20307 -0.91381 -0.86603 0.50000 0.00000 -0.86603 0.50000 0.00000 -0.35173 0.20307 0.91381 -0.35173 -0.20307 -0.91381 -0.86603 -0.50000 0.00000 -0.86603 -0.50000 0.00000 -0.35173 -0.20307 0.91381 0.00000 -0.40614 -0.91381 0.00000 -1.00000 0.00000 0.00000 -1.00000 0.00000 0.00000 -0.40614 0.91381 0.35173 -0.20307 -0.91381 0.86603 -0.50000 0.00000 0.86603 -0.50000 0.00000 0.35173 -0.20307 0.91381 0.35173 0.20307 -0.91381 0.86603 0.50000 0.00000 0.86603 0.50000 -0.00000 0.35173 0.20307 0.91381 0.00000 0.40614 -0.91381 0.00000 1.00000 0.00000 0.00000 1.00000 -0.00000 0.00000 0.40614 0.91381 -0.35173 0.20307 -0.91381 -0.86603 0.50000 0.00000 -0.86603 0.50000 0.00000 -0.35173 0.20307 0.91381 -0.35173 -0.20307 -0.91381 -0.86603 -0.50000 0.00000 -0.86603 -0.50000 0.00000 -0.35173 -0.20307 0.91381 0.00000 -0.40614 -0.91381 0.00000 -1.00000 0.00000 0.00000 -1.00000 0.00000 0.00000 -0.40614 0.91381 0.35173 -0.20307 -0.91381 0.86603 -0.50000 0.00000 0.86603 -0.50000 0.00000 0.35173 -0.20307 0.91381 0.35173 0.20307 -0.91381 0.86603 0.50000 0.00000 0.86603 0.50000 -0.00000 0.35173 0.20307 0.91381 0.00000 0.40614 -0.91381 0.00000 1.00000 0.00000 0.00000 1.00000 -0.00000 0.00000 0.40614 0.91381 -0.35173 0.20307 -0.91381 -0.86603 0.50000 0.00000 -0.86603 0.50000 0.00000 -0.35173 0.20307 0.91381 -0.35173 -0.20307 -0.91381 -0.86603 -0.50000 0.00000 -0.86603 -0.50000 0.00000 -0.35173 -0.20307 0.91381 0.00000 -0.40614 -0.91381 0.00000 -1.00000 0.00000 0.00000 -1.00000 0.00000 0.00000 -0.40614 0.91381 0.35173 -0.20307 -0.91381 0.86603 -0.50000 0.00000 0.86603 -0.50000 0.00000 0.35173 -0.20307 0.91381 0.35173 0.20307 -0.91381 0.86603 0.50000 0.00000 0.86603 0.50000 -0.00000 0.35173 0.20307 0.91381 0.00000 0.40614 -0.91381 0.00000 1.00000 0.00000 0.00000 1.00000 -0.00000 0.00000 0.40614 0.91381 -0.35173 0.20307 -0.91381 -0.86603 0.50000 0.00000 -0.86603 0.50000 0.00000 -0.35173 0.20307 0.91381 -0.35173 -0.20307 -0.91381 -0.86603 -0.50000 0.00000 -0.86603 -0.50000 0.00000 -0.35173 -0.20307 0.91381 0.00000 -0.40614 -0.91381 0.00000 -1.00000 0.00000 0.00000 -1.00000 0.00000 0.00000 -0.40614 0.91381 0.35173 -0.20307 -0.91381 0.86603 -0.50000 0.00000 0.86603 -0.50000 0.00000 0.35173 -0.20307 0.91381 0.35173 0.20307 -0.91381 0.86603 0.50000 0.00000 0.86603 0.50000 -0.00000 0.35173 0.20307 0.91381 0.00000 0.40614 -0.91381 0.00000 1.00000 0.00000 0.00000 1.00000 -0.00000 0.00000 0.40614 0.91381 -0.35173 0.20307 -0.91381 -0.86603 0.50000 0.00000 -0.86603 0.50000 0.00000 -0.35173 0.20307 0.91381 -0.35173 -0.20307 -0.91381 -0.86603 -0.50000 0.00000 -0.86603 -0.50000 0.00000 -0.35173 -0.20307 0.91381 0.00000 -0.40614 -0.91381 0.00000 -1.00000 0.00000 0.00000 -1.00000 0.00000 0.00000 -0.40614 0.91381 0.35173 -0.20307 -0.91381 0.86603 -0.50000 0.00000 0.86603 -0.50000 0.00000 0.35173 -0.20307 0.91381 0.35173 0.20307 -0.91381 0.86603 0.50000 0.00000 0.86603 0.50000 -0.00000 0.35173 0.20307 0.91381 0.00000 0.40614 -0.91381 0.00000 1.00000 0.00000 0.00000 1.00000 -0.00000 0.00000 0.40614 0.91381 -0.35173 0.20307 -0.91381 -0.86603 0.50000 0.00000 -0.86603 0.50000 0.00000 -0.35173 0.20307 0.91381 -0.35173 -0.20307 -0.91381 -0.86603 -0.50000 0.00000 -0.86603 -0.50000 0.00000 -0.35173 -0.20307 0.91381 0.00000 -0.40614 -0.91381 0.00000 -1.00000 0.00000 0.00000 -1.00000 0.00000 0.00000 -0.40614 0.91381 0.35173 -0.20307 -0.91381 0.86603 -0.50000 0.00000 0.86603 -0.50000 0.00000 0.35173 -0.20307 0.91381 0.35173 0.20307 -0.91381 0.86603 0.50000 0.00000 0.86603 0.50000 -0.00000 0.35173 0.20307 0.91381 0.00000 0.40614 -0.91381 0.00000 1.00000 0.00000 0.00000 1.00000 -0.00000 0.00000 0.40614 0.91381 -0.35173 0.20307 -0.91381 -0.86603 0.50000 0.00000 -0.86603 0.50000 0.00000 -0.35173 0.20307 0.91381 -0.35173 -0.20307 -0.91381 -0.86603 -0.50000 0.00000 -0.86603 -0.50000 0.00000 -0.35173 -0.20307 0.91381 0.00000 -0.40614 -0.91381 0.00000 -1.00000 0.00000 0.00000 -1.00000 0.00000 0.00000 -0.40614 0.91381 0.35173 -0.20307 -0.91381 0.86603 -0.50000 0.00000 0.86603 -0.50000 0.00000 0.35173 -0.20307 0.91381 0.35173 0.20307 -0.91381 0.86603 0.50000 0.00000 0.86603 0.50000 -0.00000 0.35173 0.20307 0.91381 0.00000 0.40614 -0.91381 0.00000 1.00000 0.00000 0.00000 1.00000 -0.00000 0.00000 0.40614 0.91381 -0.35173 0.20307 -0.91381 -0.86603 0.50000 0.00000 -0.86603 0.50000 0.00000 -0.35173 0.20307 0.91381 -0.35173 -0.20307 -0.91381 -0.86603 -0.50000 0.00000 -0.86603 -0.50000 0.00000 -0.35173 -0.20307 0.91381 0.00000 -0.40614 -0.91381 0.00000 -1.00000 0.00000 0.00000 -1.00000 0.00000 0.00000 -0.40614 0.91381 0.35173 -0.20307 -0.91381 0.86603 -0.50000 0.00000 0.86603 -0.50000 0.00000 0.35173 -0.20307 0.91381 0.35173 0.20307 -0.91381 0.86603 0.50000 0.00000 0.86603 0.50000 -0.00000 0.35173 0.20307 0.91381 0.00000 0.40614 -0.91381 0.00000 1.00000 0.00000 0.00000 1.00000 -0.00000 0.00000 0.40614 0.91381 -0.35173 0.20307 -0.91381 -0.86603 0.50000 0.00000 -0.86603 0.50000 0.00000 -0.35173 0.20307 0.91381 -0.35173 -0.20307 -0.91381 -0.86603 -0.50000 0.00000 -0.86603 -0.50000 0.00000 -0.35173 -0.20307 0.91381 0.00000 -0.40614 -0.91381 0.00000 -1.00000 0.00000 0.00000 -1.00000 0.00000 0.00000 -0.40614 0.91381 0.35173 -0.20307 -0.91381 0.86603 -0.50000 0.00000 0.86603 -0.50000 0.00000 0.35173 -0.20307 0.91381 0.35173 0.20307 -0.91381 0.86603 0.50000 0.00000 0.86603 0.50000 -0.00000 0.35173 0.20307 0.91381 0.00000 0.40614 -0.91381 0.00000 1.00000 0.00000 0.00000 1.00000 -0.00000 0.00000 0.40614 0.91381 -0.35173 0.20307 -0.91381 -0.86603 0.50000 0.00000 -0.86603 0.50000 0.00000 -0.35173 0.20307 0.91381 -0.35173 -0.20307 -0.91381 -0.86603 -0.50000 0.00000 -0.86603 -0.50000 0.00000 -0.35173 -0.20307 0.91381 0.00000 -0.40614 -0.91381 0.00000 -1.00000 0.00000 0.00000 -1.00000 0.00000 0.00000 -0.40614 0.91381 0.35173 -0.20307 -0.91381 0.86603 -0.50000 0.00000 0.86603 -0.50000 0.00000 0.35173 -0.20307 0.91381 0.35173 0.20307 -0.91381 0.86603 0.50000 0.00000 0.86603 0.50000 -0.00000 0.35173 0.20307 0.91381 0.00000 0.40614 -0.91381 0.00000 1.00000 0.00000 0.00000 1.00000 -0.00000 0.00000 0.40614 0.91381 -0.35173 0.20307 -0.91381 -0.86603 0.50000 0.00000 -0.86603 0.50000 0.00000 -0.35173 0.20307 0.91381 -0.35173 -0.20307 -0.91381 -0.86603 -0.50000 0.00000 -0.86603 -0.50000 0.00000 -0.35173 -0.20307 0.91381 0.00000 -0.40614 -0.91381 0.00000 -1.00000 0.00000 0.00000 -1.00000 0.00000 0.00000 -0.40614 0.91381 0.35173 -0.20307 -0.91381 0.86603 -0.50000 0.00000 0.86603 -0.50000 0.00000 0.35173 -0.20307 0.91381 0.35173 0.20307 -0.91381 0.86603 0.50000 0.00000 0.86603 0.50000 -0.00000 0.35173 0.20307 0.91381 0.00000 0.40614 -0.91381 0.00000 1.00000 0.00000 0.00000 1.00000 -0.00000 0.00000 0.40614 0.91381 -0.35173 0.20307 -0.91381 -0.86603 0.50000 0.00000 -0.86603 0.50000 0.00000 -0.35173 0.20307 0.91381 -0.35173 -0.20307 -0.91381 -0.86603 -0.50000 0.00000 -0.86603 -0.50000 0.00000 -0.35173 -0.20307 0.91381 0.00000 -0.40614 -0.91381 0.00000 -1.00000 0.00000 0.00000 -1.00000 0.00000 0.00000 -0.40614 0.91381 0.35173 -0.20307 -0.91381 0.86603 -0.50000 0.00000 0.86603 -0.50000 0.00000 0.35173 -0.20307 0.91381 0.35173 0.20307 -0.91381 0.86603 0.50000 0.00000 0.86603 0.50000 -0.00000 0.35173 0.20307 0.91381 0.00000 0.40614 -0.91381 0.00000 1.00000 0.00000 0.00000 1.00000 -0.00000 0.00000 0.40614 0.91381 -0.35173 0.20307 -0.91381 -0.86603 0.50000 0.00000 -0.86603 0.50000 0.00000 -0.35173 0.20307 0.91381 -0.35173 -0.20307 -0.91381 -0.86603 -0.50000 0.00000 -0.86603 -0.50000 0.00000 -0.35173 -0.20307 0.91381 0.00000 -0.40614 -0.91381 0.00000 -1.00000 0.00000 0.00000 -1.00000 0.00000 0.00000 -0.40614 0.91381 0.35173 -0.20307 -0.91381 0.86603 -0.50000 0.00000 0.86603 -0.50000 0.00000 0.35173 -0.20307 0.91381 0.35173 0.20307 -0.91381 0.86603 0.50000 0.00000 0.86603 0.50000 -0.00000 0.35173 0.20307 0.91381 0.00000 0.40614 -0.91381 0.00000 1.00000 0.00000 0.00000 1.00000 -0.00000 0.00000 0.40614 0.91381 -0.35173 0.20307 -0.91381 -0.86603 0.50000 0.00000 -0.86603 0.50000 0.00000 -0.35173 0.20307 0.91381 -0.35173 -0.20307 -0.91381 -0.86603 -0.50000 0.00000 -0.86603 -0.50000 0.00000 -0.35173 -0.20307 0.91381 0.00000 -0.40614 -0.91381 0.00000 -1.00000 0.00000 0.00000 -1.00000 0.00000 0.00000 -0.40614 0.91381 0.35173 -0.20307 -0.91381 0.86603 -0.50000 0.00000 0.86603 -0.50000 0.00000 0.35173 -0.20307 0.91381 0.35173 0.20307 -0.91381 0.86603 0.50000 0.00000 0.86603 0.50000 -0.00000 0.35173 0.20307 0.91381 0.00000 0.40614 -0.91381 0.00000 1.00000 0.00000 0.00000 1.00000 -0.00000 0.00000 0.40614 0.91381 -0.35173 0.20307 -0.91381 -0.86603 0.50000 0.00000 -0.86603 0.50000 0.00000 -0.35173 0.20307 0.91381 -0.35173 -0.20307 -0.91381 -0.86603 -0.50000 0.00000 -0.86603 -0.50000 0.00000 -0.35173 -0.20307 0.91381 0.00000 -0.40614 -0.91381 0.00000 -1.00000 0.00000 0.00000 -1.00000 0.00000 0.00000 -0.40614 0.91381 0.35173 -0.20307 -0.91381 0.86603 -0.50000 0.00000 0.86603 -0.50000 0.00000 0.35173 -0.20307 0.91381 0.35173 0.20307 -0.91381 0.86603 0.50000 0.00000 0.86603 0.50000 -0.00000 0.35173 0.20307 0.91381 0.00000 0.40614 -0.91381 0.00000 1.00000 0.00000 0.00000 1.00000 -0.00000 0.00000 0.40614 0.91381 -0.35173 0.20307 -0.91381 -0.86603 0.50000 0.00000 -0.86603 0.50000 0.00000 -0.35173 0.20307 0.91381 -0.35173 -0.20307 -0.91381 -0.86603 -0.50000 0.00000 -0.86603 -0.50000 0.00000 -0.35173 -0.20307 0.91381 0.00000 -0.40614 -0.91381 0.00000 -1.00000 0.00000 0.00000 -1.00000 0.00000 0.00000 -0.40614 0.91381 0.35173 -0.20307 -0.91381 0.86603 -0.50000 0.00000 0.86603 -0.50000 0.00000 0.35173 -0.20307 0.91381 0.35173 0.20307 -0.91381 0.86603 0.50000 0.00000 0.86603 0.50000 -0.00000 0.35173 0.20307 0.91381 0.00000 0.40614 -0.91381 0.00000 1.00000 0.00000 0.00000 1.00000 -0.00000 0.00000 0.40614 0.91381 -0.35173 0.20307 -0.91381 -0.86603 0.50000 0.00000 -0.86603 0.50000 0.00000 -0.35173 0.20307 0.91381 -0.35173 -0.20307 -0.91381 -0.86603 -0.50000 0.00000 -0.86603 -0.50000 0.00000 -0.35173 -0.20307 0.91381 0.00000 -0.40614 -0.91381 0.00000 -1.00000 0.00000 0.00000 -1.00000 0.00000 0.00000 -0.40614 0.91381 0.35173 -0.20307 -0.91381 0.86603 -0.50000 0.00000 0.86603 -0.50000 0.00000 0.35173 -0.20307 0.91381 0.35173 0.20307 -0.91381 0.86603 0.50000 0.00000 0.86603 0.50000 -0.00000 0.35173 0.20307 0.91381 0.00000 0.40614 -0.91381 0.00000 1.00000 0.00000 0.00000 1.00000 -0.00000 0.00000 0.40614 0.91381 -0.35173 0.20307 -0.91381 -0.86603 0.50000 0.00000 -0.86603 0.50000 0.00000 -0.35173 0.20307 0.91381 -0.35173 -0.20307 -0.91381 -0.86603 -0.50000 0.00000 -0.86603 -0.50000 0.00000 -0.35173 -0.20307 0.91381 0.00000 -0.40614 -0.91381 0.00000 -1.00000 0.00000 0.00000 -1.00000 0.00000 0.00000 -0.40614 0.91381 0.35173 -0.20307 -0.91381 0.86603 -0.50000 0.00000 0.86603 -0.50000 0.00000 0.35173 -0.20307 0.91381 0.35173 0.20307 -0.91381 0.86603 0.50000 0.00000 0.86603 0.50000 -0.00000 0.35173 0.20307 0.91381 0.00000 0.40614 -0.91381 0.00000 1.00000 0.00000 0.00000 1.00000 -0.00000 0.00000 0.40614 0.91381 -0.35173 0.20307 -0.91381 -0.86603 0.50000 0.00000 -0.86603 0.50000 0.00000 -0.35173 0.20307 0.91381 -0.35173 -0.20307 -0.91381 -0.86603 -0.50000 0.00000 -0.86603 -0.50000 0.00000 -0.35173 -0.20307 0.91381 0.00000 -0.40614 -0.91381 0.00000 -1.00000 0.00000 0.00000 -1.00000 0.00000 0.00000 -0.40614 0.91381 0.35173 -0.20307 -0.91381 0.86603 -0.50000 0.00000 0.86603 -0.50000 0.00000 0.35173 -0.20307 0.91381 0.35173 0.20307 -0.91381 0.86603 0.50000 0.00000 0.86603 0.50000 -0.00000 0.35173 0.20307 0.91381 0.00000 0.40614 -0.91381 0.00000 1.00000 0.00000 0.00000 1.00000 -0.00000 0.00000 0.40614 0.91381 -0.35173 0.20307 -0.91381 -0.86603 0.50000 0.00000 -0.86603 0.50000 0.00000 -0.35173 0.20307 0.91381 -0.35173 -0.20307 -0.91381 -0.86603 -0.50000 0.00000 -0.86603 -0.50000 0.00000 -0.35173 -0.20307 0.91381 0.00000 -0.40614 -0.91381 0.00000 -1.00000 0.00000 0.00000 -1.00000 0.00000 0.00000 -0.40614 0.91381 0.35173 -0.20307 -0.91381 0.86603 -0.50000 0.00000 0.86603 -0.50000 0.00000 0.35173 -0.20307 0.91381 0.35173 0.20307 -0.91381 0.86603 0.50000 0.00000 0.86603 0.50000 -0.00000 0.35173 0.20307 0.91381 0.00000 0.40614 -0.91381 0.00000 1.00000 0.00000 0.00000 1.00000 -0.00000 0.00000 0.40614 0.91381 -0.35173 0.20307 -0.91381 -0.86603 0.50000 0.00000 -0.86603 0.50000 0.00000 -0.35173 0.20307 0.91381 -0.35173 -0.20307 -0.91381 -0.86603 -0.50000 0.00000 -0.86603 -0.50000 0.00000 -0.35173 -0.20307 0.91381 0.00000 -0.40614 -0.91381 0.00000 -1.00000 0.00000 0.00000 -1.00000 0.00000 0.00000 -0.40614 0.91381 0.35173 -0.20307 -0.91381 0.86603 -0.50000 0.00000 0.86603 -0.50000 0.00000 0.35173 -0.20307 0.91381 0.35173 0.20307 -0.91381 0.86603 0.50000 0.00000 0.86603 0.50000 -0.00000 0.35173 0.20307 0.91381 0.00000 0.40614 -0.91381 0.00000 1.00000 0.00000 0.00000 1.00000 -0.00000 0.00000 0.40614 0.91381 -0.35173 0.20307 -0.91381 -0.86603 0.50000 0.00000 -0.86603 0.50000 0.00000 -0.35173 0.20307 0.91381 -0.35173 -0.20307 -0.91381 -0.86603 -0.50000 0.00000 -0.86603 -0.50000 0.00000 -0.35173 -0.20307 0.91381 0.00000 -0.40614 -0.91381 0.00000 -1.00000 0.00000 0.00000 -1.00000 0.00000 0.00000 -0.40614 0.91381 0.35173 -0.20307 -0.91381 0.86603 -0.50000 0.00000 0.86603 -0.50000 0.00000 0.35173 -0.20307 0.91381 0.35173 0.20307 -0.91381 0.86603 0.50000 0.00000 0.86603 0.50000 -0.00000 0.35173 0.20307 0.91381 0.00000 0.40614 -0.91381 0.00000 1.00000 0.00000 0.00000 1.00000 -0.00000 0.00000 0.40614 0.91381 -0.35173 0.20307 -0.91381 -0.86603 0.50000 0.00000 -0.86603 0.50000 0.00000 -0.35173 0.20307 0.91381 -0.35173 -0.20307 -0.91381 -0.86603 -0.50000 0.00000 -0.86603 -0.50000 0.00000 -0.35173 -0.20307 0.91381 0.00000 -0.40614 -0.91381 0.00000 -1.00000 0.00000 0.00000 -1.00000 0.00000 0.00000 -0.40614 0.91381 0.35173 -0.20307 -0.91381 0.86603 -0.50000 0.00000 0.86603 -0.50000 0.00000 0.35173 -0.20307 0.91381 0.35173 0.20307 -0.91381 0.86603 0.50000 0.00000 0.86603 0.50000 -0.00000 0.35173 0.20307 0.91381 0.00000 0.40614 -0.91381 0.00000 1.00000 0.00000 0.00000 1.00000 -0.00000 0.00000 0.40614 0.91381 -0.35173 0.20307 -0.91381 -0.86603 0.50000 0.00000 -0.86603 0.50000 0.00000 -0.35173 0.20307 0.91381 -0.35173 -0.20307 -0.91381 -0.86603 -0.50000 0.00000 -0.86603 -0.50000 0.00000 -0.35173 -0.20307 0.91381 0.00000 -0.40614 -0.91381 0.00000 -1.00000 0.00000 0.00000 -1.00000 0.00000 0.00000 -0.40614 0.91381 0.35173 -0.20307 -0.91381 0.86603 -0.50000 0.00000 0.86603 -0.50000 0.00000 0.35173 -0.20307 0.91381 0.35173 0.20307 -0.91381 0.86603 0.50000 0.00000 0.86603 0.50000 -0.00000 0.35173 0.20307 0.91381 0.00000 0.40614 -0.91381 0.00000 1.00000 0.00000 0.00000 1.00000 -0.00000 0.00000 0.40614 0.91381 -0.35173 0.20307 -0.91381 -0.86603 0.50000 0.00000 -0.86603 0.50000 0.00000 -0.35173 0.20307 0.91381 -0.35173 -0.20307 -0.91381 -0.86603 -0.50000 0.00000 -0.86603 -0.50000 0.00000 -0.35173 -0.20307 0.91381 0.00000 -0.40614 -0.91381 0.00000 -1.00000 0.00000 0.00000 -1.00000 0.00000 0.00000 -0.40614 0.91381 0.35173 -0.20307 -0.91381 0.86603 -0.50000 0.00000 0.86603 -0.50000 0.00000 0.35173 -0.20307 0.91381 0.35173 0.20307 -0.91381 0.86603 0.50000 0.00000 0.86603 0.50000 -0.00000 0.35173 0.20307 0.91381 0.00000 0.40614 -0.91381 0.00000 1.00000 0.00000 0.00000 1.00000 -0.00000 0.00000 0.40614 0.91381 -0.35173 0.20307 -0.91381 -0.86603 0.50000 0.00000 -0.86603 0.50000 0.00000 -0.35173 0.20307 0.91381 -0.35173 -0.20307 -0.91381 -0.86603 -0.50000 0.00000 -0.86603 -0.50000 0.00000 -0.35173 -0.20307 0.91381 0.00000 -0.40614 -0.91381 0.00000 -1.00000 0.00000 0.00000 -1.00000 0.00000 0.00000 -0.40614 0.91381 0.35173 -0.20307 -0.91381 0.86603 -0.50000 0.00000 0.86603 -0.50000 0.00000 0.35173 -0.20307 0.91381 0.35173 0.20307 -0.91381 0.86603 0.50000 0.00000 0.86603 0.50000 -0.00000 0.35173 0.20307 0.91381 0.00000 0.40614 -0.91381 0.00000 1.00000 0.00000 0.00000 1.00000 -0.00000 0.00000 0.40614 0.91381 -0.35173 0.20307 -0.91381 -0.86603 0.50000 0.00000 -0.86603 0.50000 0.00000 -0.35173 0.20307 0.91381 -0.35173 -0.20307 -0.91381 -0.86603 -0.50000 0.00000 -0.86603 -0.50000 0.00000 -0.35173 -0.20307 0.91381 0.00000 -0.40614 -0.91381 0.00000 -1.00000 0.00000 0.00000 -1.00000 0.00000 0.00000 -0.40614 0.91381 0.35173 -0.20307 -0.91381 0.86603 -0.50000 0.00000 0.86603 -0.50000 0.00000 0.35173 -0.20307 0.91381 0.35173 0.20307 -0.91381 0.86603 0.50000 0.00000 0.86603 0.50000 -0.00000 0.35173 0.20307 0.91381 0.00000 0.40614 -0.91381 0.00000 1.00000 0.00000 0.00000 1.00000 -0.00000 0.00000 0.40614 0.91381 -0.35173 0.20307 -0.91381 -0.86603 0.50000 0.00000 -0.86603 0.50000 0.00000 -0.35173 0.20307 0.91381 -0.35173 -0.20307 -0.91381 -0.86603 -0.50000 0.00000 -0.86603 -0.50000 0.00000 -0.35173 -0.20307 0.91381 0.00000 -0.40614 -0.91381 0.00000 -1.00000 0.00000 0.00000 -1.00000 0.00000 0.00000 -0.40614 0.91381 0.35173 -0.20307 -0.91381 0.86603 -0.50000 0.00000 0.86603 -0.50000 0.00000 0.35173 -0.20307 0.91381 0.35173 0.20307 -0.91381 0.86603 0.50000 0.00000 0.86603 0.50000 -0.00000 0.35173 0.20307 0.91381 0.00000 0.40614 -0.91381 0.00000 1.00000 0.00000 0.00000 1.00000 -0.00000 0.00000 0.40614 0.91381 -0.35173 0.20307 -0.91381 -0.86603 0.50000 0.00000 -0.86603 0.50000 0.00000 -0.35173 0.20307 0.91381 -0.35173 -0.20307 -0.91381 -0.86603 -0.50000 0.00000 -0.86603 -0.50000 0.00000 -0.35173 -0.20307 0.91381 0.00000 -0.40614 -0.91381 0.00000 -1.00000 0.00000 0.00000 -1.00000 0.00000 0.00000 -0.40614 0.91381 0.35173 -0.20307 -0.91381 0.86603 -0.50000 0.00000 0.86603 -0.50000 0.00000 0.35173 -0.20307 0.91381 0.35173 0.20307 -0.91381 0.86603 0.50000 0.00000 0.86603 0.50000 -0.00000 0.35173 0.20307 0.91381 0.00000 0.40614 -0.91381 0.00000 1.00000 0.00000 0.00000 1.00000 -0.00000 0.00000 0.40614 0.91381 -0.35173 0.20307 -0.91381 -0.86603 0.50000 0.00000 -0.86603 0.50000 0.00000 -0.35173 0.20307 0.91381 -0.35173 -0.20307 -0.91381 -0.86603 -0.50000 0.00000 -0.86603 -0.50000 0.00000 -0.35173 -0.20307 0.91381 0.00000 -0.40614 -0.91381 0.00000 -1.00000 0.00000 0.00000 -1.00000 0.00000 0.00000 -0.40614 0.91381 0.35173 -0.20307 -0.91381 0.86603 -0.50000 0.00000 0.86603 -0.50000 0.00000 0.35173 -0.20307 0.91381 0.35173 0.20307 -0.91381 0.86603 0.50000 0.00000 0.86603 0.50000 -0.00000 0.35173 0.20307 0.91381 0.00000 0.40614 -0.91381 0.00000 1.00000 0.00000 0.00000 1.00000 -0.00000 0.00000 0.40614 0.91381 -0.35173 0.20307 -0.91381 -0.86603 0.50000 0.00000 -0.86603 0.50000 0.00000 -0.35173 0.20307 0.91381 -0.35173 -0.20307 -0.91381 -0.86603 -0.50000 0.00000 -0.86603 -0.50000 0.00000 -0.35173 -0.20307 0.91381 0.00000 -0.40614 -0.91381 0.00000 -1.00000 0.00000 0.00000 -1.00000 0.00000 0.00000 -0.40614 0.91381 0.35173 -0.20307 -0.91381 0.86603 -0.50000 0.00000 0.86603 -0.50000 0.00000 0.35173 -0.20307 0.91381 0.35173 0.20307 -0.91381 0.86603 0.50000 0.00000 0.86603 0.50000 -0.00000 0.35173 0.20307 0.91381 0.00000 0.40614 -0.91381 0.00000 1.00000 0.00000 0.00000 1.00000 -0.00000 0.00000 0.40614 0.91381 -0.35173 0.20307 -0.91381 -0.86603 0.50000 0.00000 -0.86603 0.50000 0.00000 -0.35173 0.20307 0.91381 -0.35173 -0.20307 -0.91381 -0.86603 -0.50000 0.00000 -0.86603 -0.50000 0.00000 -0.35173 -0.20307 0.91381 0.00000 -0.40614 -0.91381 0.00000 -1.00000 0.00000 0.00000 -1.00000 0.00000 0.00000 -0.40614 0.91381 0.35173 -0.20307 -0.91381 0.86603 -0.50000 0.00000 0.86603 -0.50000 0.00000 0.35173 -0.20307 0.91381 0.35173 0.20307 -0.91381 0.86603 0.50000 0.00000 0.86603 0.50000 -0.00000 0.35173 0.20307 0.91381 0.00000 0.40614 -0.91381 0.00000 1.00000 0.00000 0.00000 1.00000 -0.00000 0.00000 0.40614 0.91381 -0.35173 0.20307 -0.91381 -0.86603 0.50000 0.00000 -0.86603 0.50000 0.00000 -0.35173 0.20307 0.91381 -0.35173 -0.20307 -0.91381 -0.86603 -0.50000 0.00000 -0.86603 -0.50000 0.00000 -0.35173 -0.20307 0.91381 0.00000 -0.40614 -0.91381 0.00000 -1.00000 0.00000 0.00000 -1.00000 0.00000 0.00000 -0.40614 0.91381 0.35173 -0.20307 -0.91381 0.86603 -0.50000 0.00000 0.86603 -0.50000 0.00000 0.35173 -0.20307 0.91381</float_array><technique_common><accessor source="#normals-array" count="1344" stride="3"><param name="X" type="float"/><param name="Y" type="float"/><param name="Z" type="float"/></accessor></technique_common></source>
<vertices id="vertices"><input semantic="POSITION" source="#positions"/></vertices><triangles count="1344"><input semantic="VERTEX" source="#vertices" offset="0"/><input semantic="NORMAL" source="#normals" offset="1"/><p>0 0 2 0 1 0 1 1 2 1 8 1 1 2 8 2 7 2 7 3 8 3 13 3 0 4 3 4 2 4 2 5 3 5 9 5 2 6 9 6 8 6 8 7 9 7 13 7 0 8 4 8 3 8 3 9 4 9 10 9 3 10 10 10 9 10 9 11 10 11 13 11 0 12 5 12 4 12 4 13 5 13 11 13 4 14 11 14 10 14 10 15 11 15 13 15 0 16 6 16 5 16 5 17 6 17 12 17 5 18 12 18 11 18 11 19 12 19 13 19 0 20 1 20 6 20 6 21 1 21 7 21 6 22 7 22 12 22 12 23 7 23 13 23 14 24 16 24 15 24 15 25 16 25 22 25 15 26 22 26 21 26 21 27 22 27 27 27 14 28 17 28 16 28 16 29 17 29 23 29 16 30 23 30 22 30 22 31 23 31 27 31 14 32 18 32 17 32 17 33 18 33 24 33 17 34 24 34 23 34 23 35 24 35 27 35 14 36 19 36 18 36 18 37 19 37 25 37 18 38 25 38 24 38 24 39 25 39 27 39 14 40 20 40 19 40 19 41 20 41 26 41 19 42 26 42 25 42 25 43 26 43 27 43 14 44 15 44 20 44 20 45 15 45 21 45 20 46 21 46 26 46 26 47 21 47 27 47 28 48 30 48 29 48 29 49 30 49 36 49 29 50 36 50 35 50 35 51 36 51 41 51 28 52 31 52 30 52 30 53 31 53 37 53 30 54 37 54 36 54 36 55 37 55 41 55 28 56 32 56 31 56 31 57 32 57 38 57 31 58 38 58 37 58 37 59 38 59 41 59 28 60 33 60 32 60 32 61 33 61 39 61 32 62 39 62 38 62 38 63 39 63 41 63 28 64 34 64 33 64 33 65 34 65 40 65 33 66 40 66 39 66 39 67 40 67 41 67 28 68 29 68 34 68 34 69 29 69 35 69 34 70 35 70 40 70 40 71 35 71 41 71 42 72 44 72 43 72 43 73 44 73 50 73 43 74 50 74 49 74 49 75 50 75 55 75 42 76 45 76 44 76 44 77 45 77 51 77 44 78 51 78 50 78 50 79 51 79 55 79 42 80 46 80 45 80 45 81 46 81 52 81 45 82 52 82 51 82 51 83 52 83 55 83 42 84 47 84 46 84 46 85 47 85 53 85 46 86 53 86 52 86 52 87 53 87 55 87 42 88 48 88 47 88 47 89 48 89 54 89 47 90 54 90 53 90 53 91 54 91 55 91 42 92 43 92 48 92 48 93 43 93 49 93 48 94 49 94 54 94 54 95 49 95 55 95 56 96 58 96 57 96 57 97 58 97 64 97 57 98 64 98 63 98 63 99 64 99 69 99 56 100 59 100 58 100 58 101 59 101 65 101 58 102 65 102 64 102 64 103 65 103 69 103 56 104 60 104 59 104 59 105 60 105 66 105 59 106 66 106 65 106 65 107 66 107 69 107 56 108 61 108 60 108 60 109 61 109 67 109 60 110 67 110 66 110 66 111 67 111 69 111 56 112 62 112 61 112 61 113 62 113 68 113 61 114 68 114 67 114 67 115 68 115 69 115 56 116 57 116 62 116 62 117 57 117 63 117 62 118 63 118 68 118 68 119 63 119 69 119 70 120 72 120 71 120 71 121 72 121 78 121 71 122 78 122 77 122 77 123 78 123 83 123 70 124 73 124 72 124 72 125 73 125 79 125 72 126 79 126 78 126 78 127 79 127 83 127 70 128 74 128 73 128 73 129 74 129 80 129 73 130 80 130 79 130 79 131 80 131 83 131 70 132 75 132 74 132 74 133 75 133 81 133 74 134 81 134 80 134 80 135 81 135 83 135 70 136 76 136 75 136 75 137 76 137 82 137 75 138 82 138 81 138 81 139 82 139 83 139 70 140 71 140 76 140 76 141 71 141 77 141 76 142 77 142 82 142 82 143 77 143 83 143 84 144 86 144 85 144 85 145 86 145 92 145 85 146 92 146 91 146 91 147 92 147 97 147 84 148 87 148 86 148 86 149 87 149 93 149 86 150 93 150 92 150 92 151 93 151 97 151 84 152 88 152 87 152 87 153 88 153 94 153 87 154 94 154 93 154 93 155 94 155 97 155 84 156 89 156 88 156 88 157 89 157 95 157 88 158 95 158 94 158 94 159 95 159 97 159 84 160 90 160 89 160 89 161 90 161 96 161 89 162 96 162 95 162 95 163 96 163 97 163 84 164 85 164 90 164 90 165 85 165 91 165 90 166 91 166 96 166 96 167 91 167 97 167 98 168 100 168 99 168 99 169 100 169 106 169 99 170 106 170 105 170 105 171 106 171 111 171 98 172 101 172 100 172 100 173 101 173 107 173 100 174 107 174 106 174 106 175 107 175 111 175 98 176 102 176 101 176 101 177 102 177 108 177 101 178 108 178 107 178 107 179 108 179 111 179 98 180 103 180 102 180 102 181 103 181 109 181 102 182 109 182 108 182 108 183 109 183 111 183 98 184 104 184 103 184 103 185 104 185 110 185 103 186 110 186 109 186 109 187 110 187 111 187 98 188 99 188 104 188 104 189 99 189 105 189 104 190 105 190 110 190 110 191 105 191 111 191 112 192 114 192 113 192 113 193 114 193 120 193 113 194 120 194 119 194 119 195 120 195 125 195 112 196 115 196 114 196 114 197 115 197 121 197 114 198 121 198 120 198 120 199 121 199 125 199 112 200 116 200 115 200 115 201 116 201 122 201 115 202 122 202 121 202 121 203 122 203 125 203 112 204 117 204 116 204 116 205 117 205 123 205 116 206 123 206 122 206 122 207 123 207 125 207 112 208 118 208 117 208 117 209 118 209 124 209 117 210 124 210 123 210 123 211 124 211 125 211 112 212 113 212 118 212 118 213 113 213 119 213 118 214 119 214 124 214 124 215 119 215 125 215 126 216 128 216 127 216 127 217 128 217 134 217 127 218 134 218 133 218 133 219 134 219 139 219 126 220 129 220 128 220 128 221 129 221 135 221 128 222 135 222 134 222 134 223 135 223 139 223 126 224 130 224 129 224 129 225 130 225 136 225 129 226 136 226 135 226 135 227 136 227 139 227 126 228 131 228 130 228 130 229 131 229 137 229 130 230 137 230 136 230 136 231 137 231 139 231 126 232 132 232 131 232 131 233 132 233 138 233 131 234 138 234 137 234 137 235 138 235 139 235 126 236 127 236 132 236 132 237 127 237 133 237 132 238 133 238 138 238 138 239 133 239 139 239 140 240 142 240 141 240 141 241 142 241 148 241 141 242 148 242 147 242 147 243 148 243 153 243 140 244 143 244 142 244 142 245 143 245 149 245 142 246 149 246 148 246 148 247 149 247 153 247 140 248 144 248 143 248 143 249 144 249 150 249 143 250 150 250 149 250 149 251 150 251 153 251 140 252 145 252 144 252 144 253 145 253 151 253 144 254 151 254 150 254 150 255 151 255 153 255 140 256 146 256 145 256 145 257 146 257 152 257 145 258 152 258 151 258 151 259 152 259 153 259 140 260 141 260 146 260 146 261 141 261 147 261 146 262 147 262 152 262 152 263 147 263 153 263 154 264 156 264 155 264 155 265 156 265 162 265 155 266 162 266 161 266 161 267 162 267 167 267 154 268 157 268 156 268 156 269 157 269 163 269 156 270 163 270 162 270 162 271 163 271 167 271 154 272 158 272 157 272 157 273 158 273 164 273 157 274 164 274 163 274 163 275 164 275 167 275 154 276 159 276 158 276 158 277 159 277 165 277 158 278 165 278 164 278 164 279 165 279 167 279 154 280 160 280 159 280 159 281 160 281 166 281 159 282 166 282 165 282 165 283 166 283 167 283 154 284 155 284 160 284 160 285 155 285 161 285 160 286 161 286 166 286 166 287 161 287 167 287 168 288 170 288 169 288 169 289 170 289 176 289 169 290 176 290 175 290 175 291 176 291 181 291 168 292 171 292 170 292 170 293 171 293 177 293 170 294 177 294 176 294 176 295 177 295 181 295 168 296 172 296 171 296 171 297 172 297 178 297 171 298 178 298 177 298 177 299 178 299 181 299 168 300 173 300 172 300 172 301 173 301 179 301 172 302 179 302 178 302 178 303 179 303 181 303 168 304 174 304 173 304 173 305 174 305 180 305 173 306 180 306 179 306 179 307 180 307 181 307 168 308 169 308 174 308 174 309 169 309 175 309 174 310 175 310 180 310 180 311 175 311 181 311 182 312 184 312 183 312 183 313 184 313 190 313 183 314 190 314 189 314 189 315 190 315 195 315 182 316 185 316 184 316 184 317 185 317 191 317 184 318 191 318 190 318 190 319 191 319 195 319 182 320 186 320 185 320 185 321 186 321 192 321 185 322 192 322 191 322 191 323 192 323 195 323 182 324 187 324 186 324 186 325 187 325 193 325 186 326 193 326 192 326 192 327 193 327 195 327 182 328 188 328 187 328 187 329 188 329 194 329 187 330 194 330 193 330 193 331 194 331 195 331 182 332 183 332 188 332 188 333 183 333 189 333 188 334 189 334 194 334 194 335 189 335 195 335 196 336 198 336 197 336 197 337 198 337 204 337 197 338 204 338 203 338 203 339 204 339 209 339 196 340 199 340 198 340 198 341 199 341 205 341 198 342 205 342 204 342 204 343 205 343 209 343 196 344 200 344 199 344 199 345 200 345 206 345 199 346 206 346 205 346 205 347 206 347 209 347 196 348 201 348 200 348 200 349 201 349 207 349 200 350 207 350 206 350 206 351 207 351 209 351 196 352 202 352 201 352 201 353 202 353 208 353 201 354 208 354 207 354 207 355 208 355 209 355 196 356 197 356 202 356 202 357 197 357 203 357 202 358 203 358 208 358 208 359 203 359 209 359 210 360 212 360 211 360 211 361 212 361 218 361 211 362 218 362 217 362 217 363 218 363 223 363 210 364 213 364 212 364 212 365 213 365 219 365 212 366 219 366 218 366 218 367 219 367 223 367 210 368 214 368 213 368 213 369 214 369 220 369 213 370 220 370 219 370 219 371 220 371 223 371 210 372 215 372 214 372 214 373 215 373 221 373 214 374 221 374 220 374 220 375 221 375 223 375 210 376 216 376 215 376 215 377 216 377 222 377 215 378 222 378 221 378 221 379 222 379 223 379 210 380 211 380 216 380 216 381 211 381 217 381 216 382 217 382 222 382 222 383 217 383 223 383 224 384 226 384 225 384 225 385 226 385 232 385 225 386 232 386 231 386 231 387 232 387 237 387 224 388 227 388 226 388 226 389 227 389 233 389 226 390 233 390 232 390 232 391 233 391 237 391 224 392 228 392 227 392 227 393 228 393 234 393 227 394 234 394 233 394 233 395 234 395 237 395 224 396 229 396 228 396 228 397 229 397 235 397 228 398 235 398 234 398 234 399 235 399 237 399 224 400 230 400 229 400 229 401 230 401 236 401 229 402 236 402 235 402 235 403 236 403 237 403 224 404 225 404 230 404 230 405 225 405 231 405 230 406 231 406 236 406 236 407 231 407 237 407 238 408 240 408 239 408 239 409 240 409 246 409 239 410 246 410 245 410 245 411 246 411 251 411 238 412 241 412 240 412 240 413 241 413 247 413 240 414 247 414 246 414 246 415 247 415 251 415 238 416 242 416 241 416 241 417 242 417 248 417 241 418 248 418 247 418 247 419 248 419 251 419 238 420 243 420 242 420 242 421 243 421 249 421 242 422 249 422 248 422 248 423 249 423 251 423 238 424 244 424 243 424 243 425 244 425 250 425 243 426 250 426 249 426 249 427 250 427 251 427 238 428 239 428 244 428 244 429 239 429 245 429 244 430 245 430 250 430 250 431 245 431 251 431 252 432 254 432 253 432 253 433 254 433 260 433 253 434 260 434 259 434 259 435 260 435 265 435 252 436 255 436 254 436 254 437 255 437 261 437 254 438 261 438 260 438 260 439 261 439 265 439 252 440 256 440 255 440 255 441 256 441 262 441 255 442 262 442 261 442 261 443 262 443 265 443 252 444 257 444 256 444 256 445 257 445 263 445 256 446 263 446 262 446 262 447 263 447 265 447 252 448 258 448 257 448 257 449 258 449 264 449 257 450 264 450 263 450 263 451 264 451 265 451 252 452 253 452 258 452 258 453 253 453 259 453 258 454 259 454 264 454 264 455 259 455 265 455 266 456 268 456 267 456 267 457 268 457 274 457 267 458 274 458 273 458 273 459 274 459 279 459 266 460 269 460 268 460 268 461 269 461 275 461 268 462 275 462 274 462 274 463 275 463 279 463 266 464 270 464 269 464 269 465 270 465 276 465 269 466 276 466 275 466 275 467 276 467 279 467 266 468 271 468 270 468 270 469 271 469 277 469 270 470 277 470 276 470 276 471 277 471 279 471 266 472 272 472 271 472 271 473 272 473 278 473 271 474 278 474 277 474 277 475 278 475 279 475 266 476 267 476 272 476 272 477 267 477 273 477 272 478 273 478 278 478 278 479 273 479 279 479 280 480 282 480 281 480 281 481 282 481 288 481 281 482 288 482 287 482 287 483 288 483 293 483 280 484 283 484 282 484 282 485 283 485 289 485 282 486 289 486 288 486 288 487 289 487 293 487 280 488 284 488 283 488 283 489 284 489 290 489 283 490 290 490 289 490 289 491 290 491 293 491 280 492 285 492 284 492 284 493 285 493 291 493 284 494 291 494 290 494 290 495 291 495 293 495 280 496 286 496 285 496 285 497 286 497 292 497 285 498 292 498 291 498 291 499 292 499 293 499 280 500 281 500 286 500 286 501 281 501 287 501 286 502 287 502 292 502 292 503 287 503 293 503 294 504 296 504 295 504 295 505 296 505 302 505 295 506 302 506 301 506 301 507 302 507 307 507 294 508 297 508 296 508 296 509 297 509 303 509 296 510 303 510 302 510 302 511 303 511 307 511 294 512 298 512 297 512 297 513 298 513 304 513 297 514 304 514 303 514 303 515 304 515 307 515 294 516 299 516 298 516 298 517 299 517 305 517 298 518 305 518 304 518 304 519 305 519 307 519 294 520 300 520 299 520 299 521 300 521 306 521 299 522 306 522 305 522 305 523 306 523 307 523 294 524 295 524 300 524 300 525 295 525 301 525 300 526 301 526 306 526 306 527 301 527 307 527 308 528 310 528 309 528 309 529 310 529 316 529 309 530 316 530 315 530 315 531 316 531 321 531 308 532 311 532 310 532 310 533 311 533 317 533 310 534 317 534 316 534 316 535 317 535 321 535 308 536 312 536 311 536 311 537 312 537 318 537 311 538 318 538 317 538 317 539 318 539 321 539 308 540 313 540 312 540 312 541 313 541 319 541 312 542 319 542 318 542 318 543 319 543 321 543 308 544 314 544 313 544 313 545 314 545 320 545 313 546 320 546 319 546 319 547 320 547 321 547 308 548 309 548 314 548 314 549 309 549 315 549 314 550 315 550 320 550 320 551 315 551 321 551 322 552 324 552 323 552 323 553 324 553 330 553 323 554 330 554 329 554 329 555 330 555 335 555 322 556 325 556 324 556 324 557 325 557 331 557 324 558 331 558 330 558 330 559 331 559 335 559 322 560 326 560 325 560 325 561 326 561 332 561 325 562 332 562 331 562 331 563 332 563 335 563 322 564 327 564 326 564 326 565 327 565 333 565 326 566 333 566 332 566 332 567 333 567 335 567 322 568 328 568 327 568 327 569 328 569 334 569 327 570 334 570 333 570 333 571 334 571 335 571 322 572 323 572 328 572 328 573 323 573 329 573 328 574 329 574 334 574 334 575 329 575 335 575 336 576 338 576 337 576 337 577 338 577 344 577 337 578 344 578 343 578 343 579 344 579 349 579 336 580 339 580 338 580 338 581 339 581 345 581 338 582 345 582 344 582 344 583 345 583 349 583 336 584 340 584 339 584 339 585 340 585 346 585 339 586 346 586 345 586 345 587 346 587 349 587 336 588 341 588 340 588 340 589 341 589 347 589 340 590 347 590 346 590 346 591 347 591 349 591 336 592 342 592 341 592 341 593 342 593 348 593 341 594 348 594 347 594 347 595 348 595 349 595 336 596 337 596 342 596 342 597 337 597 343 597 342 598 343 598 348 598 348 599 343 599 349 599 350 600 352 600 351 600 351 601 352 601 358 601 351 602 358 602 357 602 357 603 358 603 363 603 350 604 353 604 352 604 352 605 353 605 359 605 352 606 359 606 358 606 358 607 359 607 363 607 350 608 354 608 353 608 353 609 354 609 360 609 353 610 360 610 359 610 359 611 360 611 363 611 350 612 355 612 354 612 354 613 355 613 361 613 354 614 361 614 360 614 360 615 361 615 363 615 350 616 356 616 355 616 355 617 356 617 362 617 355 618 362 618 361 618 361 619 362 619 363 619 350 620 351 620 356 620 356 621 351 621 357 621 356 622 357 622 362 622 362 623 357 623 363 623 364 624 366 624 365 624 365 625 366 625 372 625 365 626 372 626 371 626 371 627 372 627 377 627 364 628 367 628 366 628 366 629 367 629 373 629 366 630 373 630 372 630 372 631 373 631 377 631 364 632 368 632 367 632 367 633 368 633 374 633 367 634 374 634 373 634 373 635 374 635 377 635 364 636 369 636 368 636 368 637 369 637 375 637 368 638 375 638 374 638 374 639 375 639 377 639 364 640 370 640 369 640 369 641 370 641 376 641 369 642 376 642 375 642 375 643 376 643 377 643 364 644 365 644 370 644 370 645 365 645 371 645 370 646 371 646 376 646 376 647 371 647 377 647 378 648 380 648 379 648 379 649 380 649 386 649 379 650 386 650 385 650 385 651 386 651 391 651 378 652 381 652 380 652 380 653 381 653 387 653 380 654 387 654 386 654 386 655 387 655 391 655 378 656 382 656 381 656 381 657 382 657 388 657 381 658 388 658 387 658 387 659 388 659 391 659 378 660 383 660 382 660 382 661 383 661 389 661 382 662 389 662 388 662 388 663 389 663 391 663 378 664 384 664 383 664 383 665 384 665 390 665 383 666 390 666 389 666 389 667 390 667 391 667 378 668 379 668 384 668 384 669 379 669 385 669 384 670 385 670 390 670 390 671 385 671 391 671 392 672 394 672 393 672 393 673 394 673 400 673 393 674 400 674 399 674 399 675 400 675 405 675 392 676 395 676 394 676 394 677 395 677 401 677 394 678 401 678 400 678 400 679 401 679 405 679 392 680 396 680 395 680 395 681 396 681 402 681 395 682 402 682 401 682 401 683 402 683 405 683 392 684 397 684 396 684 396 685 397 685 403 685 396 686 403 686 402 686 402 687 403 687 405 687 392 688 398 688 397 688 397 689 398 689 404 689 397 690 404 690 403 690 403 691 404 691 405 691 392 692 393 692 398 692 398 693 393 693 399 693 398 694 399 694 404 694 404 695 399 695 405 695 406 696 408 696 407 696 407 697 408 697 414 697 407 698 414 698 413 698 413 699 414 699 419 699 406 700 409 700 408 700 408 701 409 701 415 701 408 702 415 702 414 702 414 703 415 703 419 703 406 704 410 704 409 704 409 705 410 705 416 705 409 706 416 706 415 706 415 707 416 707 419 707 406 708 411 708 410 708 410 709 411 709 417 709 410 710 417 710 416 710 416 711 417 711 419 711 406 712 412 712 411 712 411 713 412 713 418 713 411 714 418 714 417 714 417 715 418 715 419 715 406 716 407 716 412 716 412 717 407 717 413 717 412 718 413 718 418 718 418 719 413 719 419 719 420 720 422 720 421 720 421 721 422 721 428 721 421 722 428 722 427 722 427 723 428 723 433 723 420 724 423 724 422 724 422 725 423 725 429 725 422 726 429 726 428 726 428 727 429 727 433 727 420 728 424 728 423 728 423 729 424 729 430 729 423 730 430 730 429 730 429 731 430 731 433 731 420 732 425 732 424 732 424 733 425 733 431 733 424 734 431 734 430 734 430 735 431 735 433 735 420 736 426 736 425 736 425 737 426 737 432 737 425 738 432 738 431 738 431 739 432 739 433 739 420 740 421 740 426 740 426 741 421 741 427 741 426 742 427 742 432 742 432 743 427 743 433 743 434 744 436 744 435 744 435 745 436 745 442 745 435 746 442 746 441 746 441 747 442 747 447 747 434 748 437 748 436 748 436 749 437 749 443 749 436 750 443 750 442 750 442 751 443 751 447 751 434 752 438 752 437 752 437 753 438 753 444 753 437 754 444 754 443 754 443 755 444 755 447 755 434 756 439 756 438 756 438 757 439 757 445 757 438 758 445 758 444 758 444 759 445 759 447 759 434 760 440 760 439 760 439 761 440 761 446 761 439 762 446 762 445 762 445 763 446 763 447 763 434 764 435 764 440 764 440 765 435 765 441 765 440 766 441 766 446 766 446 767 441 767 447 767 448 768 450 768 449 768 449 769 450 769 456 769 449 770 456 770 455 770 455 771 456 771 461 771 448 772 451 772 450 772 450 773 451 773 457 773 450 774 457 774 456 774 456 775 457 775 461 775 448 776 452 776 451 776 451 777 452 777 458 777 451 778 458 778 457 778 457 779 458 779 461 779 448 780 453 780 452 780 452 781 453 781 459 781 452 782 459 782 458 782 458 783 459 783 461 783 448 784 454 784 453 784 453 785 454 785 460 785 453 786 460 786 459 786 459 787 460 787 461 787 448 788 449 788 454 788 454 789 449 789 455 789 454 790 455 790 460 790 460 791 455 791 461 791 462 792 464 792 463 792 463 793 464 793 470 793 463 794 470 794 469 794 469 795 470 795 475 795 462 796 465 796 464 796 464 797 465 797 471 797 464 798 471 798 470 798 470 799 471 799 475 799 462 800 466 800 465 800 465 801 466 801 472 801 465 802 472 802 471 802 471 803 472 803 475 803 462 804 467 804 466 804 466 805 467 805 473 805 466 806 473 806 472 806 472 807 473 807 475 807 462 808 468 808 467 808 467 809 468 809 474 809 467 810 474 810 473 810 473 811 474 811 475 811 462 812 463 812 468 812 468 813 463 813 469 813 468 814 469 814 474 814 474 815 469 815 475 815 476 816 478 816 477 816 477 817 478 817 484 817 477 818 484 818 483 818 483 819 484 819 489 819 476 820 479 820 478 820 478 821 479 821 485 821 478 822 485 822 484 822 484 823 485 823 489 823 476 824 480 824 479 824 479 825 480 825 486 825 479 826 486 826 485 826 485 827 486 827 489 827 476 828 481 828 480 828 480 829 481 829 487 829 480 830 487 830 486 830 486 831 487 831 489 831 476 832 482 832 481 832 481 833 482 833 488 833 481 834 488 834 487 834 487 835 488 835 489 835 476 836 477 836 482 836 482 837 477 837 483 837 482 838 483 838 488 838 488 839 483 839 489 839 490 840 492 840 491 840 491 841 492 841 498 841 491 842 498 842 497 842 497 843 498 843 503 843 490 844 493 844 492 844 492 845 493 845 499 845 492 846 499 846 498 846 498 847 499 847 503 847 490 848 494 848 493 848 493 849 494 849 500 849 493 850 500 850 499 850 499 851 500 851 503 851 490 852 495 852 494 852 494 853 495 853 501 853 494 854 501 854 500 854 500 855 501 855 503 855 490 856 496 856 495 856 495 857 496 857 502 857 495 858 502 858 501 858 501 859 502 859 503 859 490 860 491 860 496 860 496 861 491 861 497 861 496 862 497 862 502 862 502 863 497 863 503 863 504 864 506 864 505 864 505 865 506 865 512 865 505 866 512 866 511 866 511 867 512 867 517 867 504 868 507 868 506 868 506 869 507 869 513 869 506 870 513 870 512 870 512 871 513 871 517 871 504 872 508 872 507 872 507 873 508 873 514 873 507 874 514 874 513 874 513 875 514 875 517 875 504 876 509 876 508 876 508 877 509 877 515 877 508 878 515 878 514 878 514 879 515 879 517 879 504 880 510 880 509 880 509 881 510 881 516 881 509 882 516 882 515 882 515 883 516 883 517 883 504 884 505 884 510 884 510 885 505 885 511 885 510 886 511 886 516 886 516 887 511 887 517 887 518 888 520 888 519 888 519 889 520 889 526 889 519 890 526 890 525 890 525 891 526 891 531 891 518 892 521 892 520 892 520 893 521 893 527 893 520 894 527 894 526 894 526 895 527 895 531 895 518 896 522 896 521 896 521 897 522 897 528 897 521 898 528 898 527 898 527 899 528 899 531 899 518 900 523 900 522 900 522 901 523 901 529 901 522 902 529 902 528 902 528 903 529 903 531 903 518 904 524 904 523 904 523 905 524 905 530 905 523 906 530 906 529 906 529 907 530 907 531 907 518 908 519 908 524 908 524 909 519 909 525 909 524 910 525 910 530 910 530 911 525 911 531 911 532 912 534 912 533 912 533 913 534 913 540 913 533 914 540 914 539 914 539 915 540 915 545 915 532 916 535 916 534 916 534 917 535 917 541 917 534 918 541 918 540 918 540 919 541 919 545 919 532 920 536 920 535 920 535 921 536 921 542 921 535 922 542 922 541 922 541 923 542 923 545 923 532 924 537 924 536 924 536 925 537 925 543 925 536 926 543 926 542 926 542 927 543 927 545 927 532 928 538 928 537 928 537 929 538 929 544 929 537 930 544 930 543 930 543 931 544 931 545 931 532 932 533 932 538 932 538 933 533 933 539 933 538 934 539 934 544 934 544 935 539 935 545 935 546 936 548 936 547 936 547 937 548 937 554 937 547 938 554 938 553 938 553 939 554 939 559 939 546 940 549 940 548 940 548 941 549 941 555 941 548 942 555 942 554 942 554 943 555 943 559 943 546 944 550 944 549 944 549 945 550 945 556 945 549 946 556 946 555 946 555 947 556 947 559 947 546 948 551 948 550 948 550 949 551 949 557 949 550 950 557 950 556 950 556 951 557 951 559 951 546 952 552 952 551 952 551 953 552 953 558 953 551 954 558 954 557 954 557 955 558 955 559 955 546 956 547 956 552 956 552 957 547 957 553 957 552 958 553 958 558 958 558 959 553 959 559 959 560 960 562 960 561 960 561 961 562 961 568 961 561 962 568 962 567 962 567 963 568 963 573 963 560 964 563 964 562 964 562 965 563 965 569 965 562 966 569 966 568 966 568 967 569 967 573 967 560 968 564 968 563 968 563 969 564 969 570 969 563 970 570 970 569 970 569 971 570 971 573 971 560 972 565 972 564 972 564 973 565 973 571 973 564 974 571 974 570 974 570 975 571 975 573 975 560 976 566 976 565 976 565 977 566 977 572 977 565 978 572 978 571 978 571 979 572 979 573 979 560 980 561 980 566 980 566 981 561 981 567 981 566 982 567 982 572 982 572 983 567 983 573 983 574 984 576 984 575 984 575 985 576 985 582 985 575 986 582 986 581 986 581 987 582 987 587 987 574 988 577 988 576 988 576 989 577 989 583 989 576 990 583 990 582 990 582 991 583 991 587 991 574 992 578 992 577 992 577 993 578 993 584 993 577 994 584 994 583 994 583 995 584 995 587 995 574 996 579 996 578 996 578 997 579 997 585 997 578 998 585 998 584 998 584 999 585 999 587 999 574 1000 580 1000 579 1000 579 1001 580 1001 586 1001 579 1002 586 1002 585 1002 585 1003 586 1003 587 1003 574 1004 575 1004 580 1004 580 1005 575 1005 581 1005 580 1006 581 1006 586 1006 586 1007 581 1007 587 1007 588 1008 590 1008 589 1008 589 1009 590 1009 596 1009 589 1010 596 1010 595 1010 595 1011 596 1011 601 1011 588 1012 591 1012 590 1012 590 1013 591 1013 597 1013 590 1014 597 1014 596 1014 596 1015 597 1015 601 1015 588 1016 592 1016 591 1016 591 1017 592 1017 598 1017 591 1018 598 1018 597 1018 597 1019 598 1019 601 1019 588 1020 593 1020 592 1020 592 1021 593 1021 599 1021 592 1022 599 1022 598 1022 598 1023 599 1023 601 1023 588 1024 594 1024 593 1024 593 1025 594 1025 600 1025 593 1026 600 1026 599 1026 599 1027 600 1027 601 1027 588 1028 589 1028 594 1028 594 1029 589 1029 595 1029 594 1030 595 1030 600 1030 600 1031 595 1031 601 1031 602 1032 604 1032 603 1032 603 1033 604 1033 610 1033 603 1034 610 1034 609 1034 609 1035 610 1035 615 1035 602 1036 605 1036 604 1036 604 1037 605 1037 611 1037 604 1038 611 1038 610 1038 610 1039 611 1039 615 1039 602 1040 606 1040 605 1040 605 1041 606 1041 612 1041 605 1042 612 1042 611 1042 611 1043 612 1043 615 1043 602 1044 607 1044 606 1044 606 1045 607 1045 613 1045 606 1046 613 1046 612 1046 612 1047 613 1047 615 1047 602 1048 608 1048 607 1048 607 1049 608 1049 614 1049 607 1050 614 1050 613 1050 613 1051 614 1051 615 1051 602 1052 603 1052 608 1052 608 1053 603 1053 609 1053 608 1054 609 1054 614 1054 614 1055 609 1055 615 1055 616 1056 618 1056 617 1056 617 1057 618 1057 624 1057 617 1058 624 1058 623 1058 623 1059 624 1059 629 1059 616 1060 619 1060 618 1060 618 1061 619 1061 625 1061 618 1062 625 1062 624 1062 624 1063 625 1063 629 1063 616 1064 620 1064 619 1064 619 1065 620 1065 626 1065 619 1066 626 1066 625 1066 625 1067 626 1067 629 1067 616 1068 621 1068 620 1068 620 1069 621 1069 627 1069 620 1070 627 1070 626 1070 626 1071 627 1071 629 1071 616 1072 622 1072 621 1072 621 1073 622 1073 628 1073 621 1074 628 1074 627 1074 627 1075 628 1075 629 1075 616 1076 617 1076 622 1076 622 1077 617 1077 623 1077 622 1078 623 1078 628 1078 628 1079 623 1079 629 1079 630 1080 632 1080 631 1080 631 1081 632 1081 638 1081 631 1082 638 1082 637 1082 637 1083 638 1083 643 1083 630 1084 633 1084 632 1084 632 1085 633 1085 639 1085 632 1086 639 1086 638 1086 638 1087 639 1087 643 1087 630 1088 634 1088 633 1088 633 1089 634 1089 640 1089 633 1090 640 1090 639 1090 639 1091 640 1091 643 1091 630 1092 635 1092 634 1092 634 1093 635 1093 641 1093 634 1094 641 1094 640 1094 640 1095 641 1095 643 1095 630 1096 636 1096 635 1096 635 1097 636 1097 642 1097 635 1098 642 1098 641 1098 641 1099 642 1099 643 1099 630 1100 631 1100 636 1100 636 1101 631 1101 637 1101 636 1102 637 1102 642 1102 642 1103 637 1103 643 1103 644 1104 646 1104 645 1104 645 1105 646 1105 652 1105 645 1106 652 1106 651 1106 651 1107 652 1107 657 1107 644 1108 647 1108 646 1108 646 1109 647 1109 653 1109 646 1110 653 1110 652 1110 652 1111 653 1111 657 1111 644 1112 648 1112 647 1112 647 1113 648 1113 654 1113 647 1114 654 1114 653 1114 653 1115 654 1115 657 1115 644 1116 649 1116 648 1116 648 1117 649 1117 655 1117 648 1118 655 1118 654 1118 654 1119 655 1119 657 1119 644 1120 650 1120 649 1120 649 1121 650 1121 656 1121 649 1122 656 1122 655 1122 655 1123 656 1123 657 1123 644 1124 645 1124 650 1124 650 1125 645 1125 651 1125 650 1126 651 1126 656 1126 656 1127 651 1127 657 1127 658 1128 660 1128 659 1128 659 1129 660 1129 666 1129 659 1130 666 1130 665 1130 665 1131 666 1131 671 1131 658 1132 661 1132 660 1132 660 1133 661 1133 667 1133 660 1134 667 1134 666 1134 666 1135 667 1135 671 1135 658 1136 662 1136 661 1136 661 1137 662 1137 668 1137 661 1138 668 1138 667 1138 667 1139 668 1139 671 1139 658 1140 663 1140 662 1140 662 1141 663 1141 669 1141 662 1142 669 1142 668 1142 668 1143 669 1143 671 1143 658 1144 664 1144 663 1144 663 1145 664 1145 670 1145 663 1146 670 1146 669 1146 669 1147 670 1147 671 1147 658 1148 659 1148 664 1148 664 1149 659 1149 665 1149 664 1150 665 1150 670 1150 670 1151 665 1151 671 1151 672 1152 674 1152 673 1152 673 1153 674 1153 680 1153 673 1154 680 1154 679 1154 679 1155 680 1155 685 1155 672 1156 675 1156 674 1156 674 1157 675 1157 681 1157 674 1158 681 1158 680 1158 680 1159 681 1159 685 1159 672 1160 676 1160 675 1160 675 1161 676 1161 682 1161 675 1162 682 1162 681 1162 681 1163 682 1163 685 1163 672 1164 677 1164 676 1164 676 1165 677 1165 683 1165 676 1166 683 1166 682 1166 682 1167 683 1167 685 1167 672 1168 678 1168 677 1168 677 1169 678 1169 684 1169 677 1170 684 1170 683 1170 683 1171 684 1171 685 1171 672 1172 673 1172 678 1172 678 1173 673 1173 679 1173 678 1174 679 1174 684 1174 684 1175 679 1175 685 1175 686 1176 688 1176 687 1176 687 1177 688 1177 694 1177 687 1178 694 1178 693 1178 693 1179 694 1179 699 1179 686 1180 689 1180 688 1180 688 1181 689 1181 695 1181 688 1182 695 1182 694 1182 694 1183 695 1183 699 1183 686 1184 690 1184 689 1184 689 1185 690 1185 696 1185 689 1186 696 1186 695 1186 695 1187 696 1187 699 1187 686 1188 691 1188 690 1188 690 1189 691 1189 697 1189 690 1190 697 1190 696 1190 696 1191 697 1191 699 1191 686 1192 692 1192 691 1192 691 1193 692 1193 698 1193 691 1194 698 1194 697 1194 697 1195 698 1195 699 1195 686 1196 687 1196 692 1196 692 1197 687 1197 693 1197 692 1198 693 1198 698 1198 698 1199 693 1199 699 1199 700 1200 702 1200 701 1200 701 1201 702 1201 708 1201 701 1202 708 1202 707 1202 707 1203 708 1203 713 1203 700 1204 703 1204 702 1204 702 1205 703 1205 709 1205 702 1206 709 1206 708 1206 708 1207 709 1207 713 1207 700 1208 704 1208 703 1208 703 1209 704 1209 710 1209 703 1210 710 1210 709 1210 709 1211 710 1211 713 1211 700 1212 705 1212 704 1212 704 1213 705 1213 711 1213 704 1214 711 1214 710 1214 710 1215 711 1215 713 1215 700 1216 706 1216 705 1216 705 1217 706 1217 712 1217 705 1218 712 1218 711 1218 711 1219 712 1219 713 1219 700 1220 701 1220 706 1220 706 1221 701 1221 707 1221 706 1222 707 1222 712 1222 712 1223 707 1223 713 1223 714 1224 716 1224 715 1224 715 1225 716 1225 722 1225 715 1226 722 1226 721 1226 721 1227 722 1227 727 1227 714 1228 717 1228 716 1228 716 1229 717 1229 723 1229 716 1230 723 1230 722 1230 722 1231 723 1231 727 1231 714 1232 718 1232 717 1232 717 1233 718 1233 724 1233 717 1234 724 1234 723 1234 723 1235 724 1235 727 1235 714 1236 719 1236 718 1236 718 1237 719 1237 725 1237 718 1238 725 1238 724 1238 724 1239 725 1239 727 1239 714 1240 720 1240 719 1240 719 1241 720 1241 726 1241 719 1242 726 1242 725 1242 725 1243 726 1243 727 1243 714 1244 715 1244 720 1244 720 1245 715 1245 721 1245 720 1246 721 1246 726 1246 726 1247 721 1247 727 1247 728 1248 730 1248 729 1248 729 1249 730 1249 736 1249 729 1250 736 1250 735 1250 735 1251 736 1251 741 1251 728 1252 731 1252 730 1252 730 1253 731 1253 737 1253 730 1254 737 1254 736 1254 736 1255 737 1255 741 1255 728 1256 732 1256 731 1256 731 1257 732 1257 738 1257 731 1258 738 1258 737 1258 737 1259 738 1259 741 1259 728 1260 733 1260 732 1260 732 1261 733 1261 739 1261 732 1262 739 1262 738 1262 738 1263 739 1263 741 1263 728 1264 734 1264 733 1264 733 1265 734 1265 740 1265 733 1266 740 1266 739 1266 739 1267 740 1267 741 1267 728 1268 729 1268 734 1268 734 1269 729 1269 735 1269 734 1270 735 1270 740 1270 740 1271 735 1271 741 1271 742 1272 744 1272 743 1272 743 1273 744 1273 750 1273 743 1274 750 1274 749 1274 749 1275 750 1275 755 1275 742 1276 745 1276 744 1276 744 1277 745 1277 751 1277 744 1278 751 1278 750 1278 750 1279 751 1279 755 1279 742 1280 746 1280 745 1280 745 1281 746 1281 752 1281 745 1282 752 1282 751 1282 751 1283 752 1283 755 1283 742 1284 747 1284 746 1284 746 1285 747 1285 753 1285 746 1286 753 1286 752 1286 752 1287 753 1287 755 1287 742 1288 748 1288 747 1288 747 1289 748 1289 754 1289 747 1290 754 1290 753 1290 753 1291 754 1291 755 1291 742 1292 743 1292 748 1292 748 1293 743 1293 749 1293 748 1294 749 1294 754 1294 754 1295 749 1295 755 1295 756 1296 758 1296 757 1296 757 1297 758 1297 764 1297 757 1298 764 1298 763 1298 763 1299 764 1299 769 1299 756 1300 759 1300 758 1300 758 1301 759 1301 765 1301 758 1302 765 1302 764 1302 764 1303 765 1303 769 1303 756 1304 760 1304 759 1304 759 1305 760 1305 766 1305 759 1306 766 1306 765 1306 765 1307 766 1307 769 1307 756 1308 761 1308 760 1308 760 1309 761 1309 767 1309 760 1310 767 1310 766 1310 766 1311 767 1311 769 1311 756 1312 762 1312 761 1312 761 1313 762 1313 768 1313 761 1314 768 1314 767 1314 767 1315 768 1315 769 1315 756 1316 757 1316 762 1316 762 1317 757 1317 763 1317 762 1318 763 1318 768 1318 768 1319 763 1319 769 1319 770 1320 772 1320 771 1320 771 1321 772 1321 778 1321 771 1322 778 1322 777 1322 777 1323 778 1323 783 1323 770 1324 773 1324 772 1324 772 1325 773 1325 779 1325 772 1326 779 1326 778 1326 778 1327 779 1327 783 1327 770 1328 774 1328 773 1328 773 1329 774 1329 780 1329 773 1330 780 1330 779 1330 779 1331 780 1331 783 1331 770 1332 775 1332 774 1332 774 1333 775 1333 781 1333 774 1334 781 1334 780 1334 780 1335 781 1335 783 1335 770 1336 776 1336 775 1336 775 1337 776 1337 782 1337 775 1338 782 1338 781 1338 781 1339 782 1339 783 1339 770 1340 771 1340 776 1340 776 1341 771 1341 777 1341 776 1342 777 1342 782 1342 782 1343 777 1343 783 1343</p></triangles>
</mesh></geometry></library_geometries><library_visual_scenes><visual_scene id="Scene"><node id="mesh"><instance_geometry url="#geometry"/></node></visual_scene></library_visual_scenes><scene><instance_visual_scene url="#Scene"/></scene></COLLADA>