<?xml version="1.0" encoding="UTF-8"?>
<COLLADA xmlns="http://www.collada.org/2005/11/COLLADASchema" version="1.4.1">
<asset><contributor><authoring_tool>Summit Estate procedural mesh exporter</authoring_tool></contributor><created>2026-09-11T00:00:00Z</created><modified>2026-09-11T00:00:00Z</modified><unit name="meter" meter="1"/><up_axis>Z_UP</up_axis></asset>
<library_geometries><geometry id="geometry" name="geometry"><mesh>
<source id="positions"><float_array id="positions-array" count="294">168.20000 12.00000 80.52000 168.18118 12.28716 80.52000 168.12504 12.56940 80.52000 168.03253 12.84190 80.52000 167.90526 13.10000 80.52000 167.74538 13.33928 80.52000 167.55563 13.55563 80.52000 167.33928 13.74538 80.52000 167.10000 13.90526 80.52000 166.84190 14.03253 80.52000 166.56940 14.12504 80.52000 166.28716 14.18118 80.52000 166.00000 14.20000 80.52000 165.71284 14.18118 80.52000 165.43060 14.12504 80.52000 165.15810 14.03253 80.52000 164.90000 13.90526 80.52000 164.66072 13.74538 80.52000 164.44437 13.55563 80.52000 164.25462 13.33928 80.52000 164.09474 13.10000 80.52000 163.96747 12.84190 80.52000 163.87496 12.56940 80.52000 163.81882 12.28716 80.52000 163.80000 12.00000 80.52000 163.81882 11.71284 80.52000 163.87496 11.43060 80.52000 163.96747 11.15810 80.52000 164.09474 10.90000 80.52000 164.25462 10.66072 80.52000 164.44437 10.44437 80.52000 164.66072 10.25462 80.52000 164.90000 10.09474 80.52000 165.15810 9.96747 80.52000 165.43060 9.87496 80.52000 165.71284 9.81882 80.52000 166.00000 9.80000 80.52000 166.28716 9.81882 80.52000 166.56940 9.87496 80.52000 166.84190 9.96747 80.52000 167.10000 10.09474 80.52000 167.33928 10.25462 80.52000 167.55563 10.44437 80.52000 167.74538 10.66072 80.52000 167.90526 10.90000 80.52000 168.03253 11.15810 80.52000 168.12504 11.43060 80.52000 168.18118 11.71284 80.52000 168.20000 12.00000 80.70000 168.18118 12.28716 80.70000 168.12504 12.56940 80.70000 168.03253 12.84190 80.70000 167.90526 13.10000 80.70000 167.74538 13.33928 80.70000 167.55563 13.55563 80.70000 167.33928 13.74538 80.70000 167.10000 13.90526 80.70000 166.84190 14.03253 80.70000 166.56940 14.12504 80.70000 166.28716 14.18118 80.70000 166.00000 14.20000 80.70000 165.71284 14.18118 80.70000 165.43060 14.12504 80.70000 165.15810 14.03253 80.70000 164.90000 13.90526 80.70000 164.66072 13.74538 80.70000 164.44437 13.55563 80.70000 164.25462 13.33928 80.70000 164.09474 13.10000 80.70000 163.96747 12.84190 80.70000 163.87496 12.56940 80.70000 163.81882 12.28716 80.70000 163.80000 12.00000 80.70000 163.81882 11.71284 80.70000 163.87496 11.43060 80.70000 163.96747 11.15810 80.70000 164.09474 10.90000 80.70000 164.25462 10.66072 80.70000 164.44437 10.44437 80.70000 164.66072 10.25462 80.70000 164.90000 10.09474 80.70000 165.15810 9.96747 80.70000 165.43060 9.87496 80.70000 165.71284 9.81882 80.70000 166.00000 9.80000 80.70000 166.28716 9.81882 80.70000 166.56940 9.87496 80.70000 166.84190 9.96747 80.70000 167.10000 10.09474 80.70000 167.33928 10.25462 80.70000 167.55563 10.44437 80.70000 167.74538 10.66072 80.70000 167.90526 10.90000 80.70000 168.03253 11.15810 80.70000 168.12504 11.43060 80.70000 168.18118 11.71284 80.70000 166.00000 12.00000 80.52000 166.00000 12.00000 80.70000</float_array><technique_common><accessor source="#positions-array" count="98" stride="3"><param name="X" type="float"/><param name="Y" type="float"/><param name="Z" type="float"/></accessor></technique_common></source>
<source id="normals"><float_array id="normals-array" count="576">0.99786 0.06540 0.00000 0.99786 0.06540 -0.00000 0.00000 0.00000 -1.00000 0.00000 0.00000 1.00000 0.98079 0.19509 0.00000 0.98079 0.19509 -0.00000 0.00000 0.00000 -1.00000 0.00000 0.00000 1.00000 0.94693 0.32144 0.00000 0.94693 0.32144 -0.00000 0.00000 0.00000 -1.00000 0.00000 0.00000 1.00000 0.89687 0.44229 0.00000 0.89687 0.44229 -0.00000 0.00000 0.00000 -1.00000 0.00000 0.00000 1.00000 0.83147 0.55557 0.00000 0.83147 0.55557 -0.00000 0.00000 0.00000 -1.00000 0.00000 0.00000 1.00000 0.75184 0.65935 0.00000 0.75184 0.65935 -0.00000 0.00000 0.00000 -1.00000 0.00000 0.00000 1.00000 0.65935 0.75184 0.00000 0.65935 0.75184 -0.00000 0.00000 0.00000 -1.00000 0.00000 0.00000 1.00000 0.55557 0.83147 0.00000 0.55557 0.83147 -0.00000 0.00000 0.00000 -1.00000 0.00000 0.00000 1.00000 0.44229 0.89687 0.00000 0.44229 0.89687 -0.00000 0.00000 0.00000 -1.00000 0.00000 0.00000 1.00000 0.32144 0.94693 0.00000 0.32144 0.94693 -0.00000 0.00000 0.00000 -1.00000 0.00000 0.00000 1.00000 0.19509 0.98079 0.00000 0.19509 0.98079 -0.00000 0.00000 0.00000 -1.00000 0.00000 0.00000 1.00000 0.06540 0.99786 0.00000 0.06540 0.99786 -0.00000 0.00000 0.00000 -1.00000 0.00000 0.00000 1.00000 -0.06540 0.99786 0.00000 -0.06540 0.99786 0.00000 0.00000 0.00000 -1.00000 0.00000 -0.00000 1.00000 -0.19509 0.98079 0.00000 -0.19509 0.98079 0.00000 0.00000 0.00000 -1.00000 0.00000 0.00000 1.00000 -0.32144 0.94693 0.00000 -0.32144 0.94693 0.00000 0.00000 0.00000 -1.00000 0.00000 0.00000 1.00000 -0.44229 0.89687 0.00000 -0.44229 0.89687 0.00000 0.00000 0.00000 -1.00000 0.00000 0.00000 1.00000 -0.55557 0.83147 0.00000 -0.55557 0.83147 0.00000 0.00000 0.00000 -1.00000 0.00000 0.00000 1.00000 -0.65935 0.75184 0.00000 -0.65935 0.75184 0.00000 0.00000 0.00000 -1.00000 0.00000 0.00000 1.00000 -0.75184 0.65935 0.00000 -0.75184 0.65935 0.00000 0.00000 0.00000 -1.00000 0.00000 0.00000 1.00000 -0.83147 0.55557 0.00000 -0.83147 0.55557 0.00000 0.00000 0.00000 -1.00000 0.00000 0.00000 1.00000 -0.89687 0.44229 0.00000 -0.89687 0.44229 0.00000 0.00000 0.00000 -1.00000 0.00000 0.00000 1.00000 -0.94693 0.32144 0.00000 -0.94693 0.32144 0.00000 0.00000 0.00000 -1.00000 0.00000 0.00000 1.00000 -0.98079 0.19509 0.00000 -0.98079 0.19509 0.00000 0.00000 0.00000 -1.00000 0.00000 0.00000 1.00000 -0.99786 0.06540 0.00000 -0.99786 0.06540 0.00000 0.00000 0.00000 -1.00000 0.00000 0.00000 1.00000 -0.99786 -0.06540 0.00000 -0.99786 -0.06540 0.00000 -0.00000 0.00000 -1.00000 0.00000 0.00000 1.00000 -0.98079 -0.19509 0.00000 -0.98079 -0.19509 0.00000 0.00000 0.00000 -1.00000 0.00000 0.00000 1.00000 -0.94693 -0.32144 0.00000 -0.94693 -0.32144 0.00000 0.00000 0.00000 -1.00000 0.00000 0.00000 1.00000 -0.89687 -0.44229 0.00000 -0.89687 -0.44229 0.00000 0.00000 0.00000 -1.00000 0.00000 0.00000 1.00000 -0.83147 -0.55557 0.00000 -0.83147 -0.55557 0.00000 0.00000 0.00000 -1.00000 0.00000 0.00000 1.00000 -0.75184 -0.65935 0.00000 -0.75184 -0.65935 0.00000 0.00000 0.00000 -1.00000 0.00000 0.00000 1.00000 -0.65935 -0.75184 0.00000 -0.65935 -0.75184 0.00000 0.00000 0.00000 -1.00000 0.00000 0.00000 1.00000 -0.55557 -0.83147 0.00000 -0.55557 -0.83147 0.00000 0.00000 0.00000 -1.00000 0.00000 0.00000 1.00000 -0.44229 -0.89687 0.00000 -0.44229 -0.89687 0.00000 0.00000 0.00000 -1.00000 0.00000 0.00000 1.00000 -0.32144 -0.94693 0.00000 -0.32144 -0.94693 0.00000 0.00000 0.00000 -1.00000 0.00000 0.00000 1.00000 -0.19509 -0.98079 0.00000 -0.19509 -0.98079 0.00000 0.00000 0.00000 -1.00000 0.00000 0.00000 1.00000 -0.06540 -0.99786 0.00000 -0.06540 -0.99786 0.00000 0.00000 -0.00000 -1.00000 0.00000 0.00000 1.00000 0.06540 -0.99786 0.00000 0.06540 -0.99786 0.00000 0.00000 0.00000 -1.00000 0.00000 0.00000 1.00000 0.19509 -0.98079 0.00000 0.19509 -0.98079 0.00000 0.00000 0.00000 -1.00000 0.00000 0.00000 1.00000 0.32144 -0.94693 0.00000 0.32144 -0.94693 0.00000 0.00000 0.00000 -1.00000 0.00000 0.00000 1.00000 0.44229 -0.89687 0.00000 0.44229 -0.89687 0.00000 0.00000 0.00000 -1.00000 0.00000 0.00000 1.00000 0.55557 -0.83147 0.00000 0.55557 -0.83147 0.00000 0.00000 0.00000 -1.00000 0.00000 0.00000 1.00000 0.65935 -0.75184 0.00000 0.65935 -0.75184 0.00000 0.00000 0.00000 -1.00000 0.00000 0.00000 1.00000 0.75184 -0.65935 0.00000 0.75184 -0.65935 0.00000 0.00000 0.00000 -1.00000 0.00000 0.00000 1.00000 0.83147 -0.55557 0.00000 0.83147 -0.55557 0.00000 0.00000 0.00000 -1.00000 0.00000 0.00000 1.00000 0.89687 -0.44229 0.00000 0.89687 -0.44229 0.00000 0.00000 0.00000 -1.00000 0.00000 0.00000 1.00000 0.94693 -0.32144 0.00000 0.94693 -0.32144 0.00000 0.00000 0.00000 -1.00000 0.00000 0.00000 1.00000 0.98079 -0.19509 0.00000 0.98079 -0.19509 0.00000 0.00000 0.00000 -1.00000 0.00000 0.00000 1.00000 0.99786 -0.06540 0.00000 0.99786 -0.06540 0.00000 0.00000 0.00000 -1.00000 -0.00000 0.00000 1.00000</float_array><technique_common><accessor source="#normals-array" count="192" stride="3"><param name="X" type="float"/><param name="Y" type="float"/><param name="Z" type="float"/></accessor></technique_common></source>
<vertices id="vertices"><input semantic="POSITION" source="#positions"/></vertices><triangles count="192"><input semantic="VERTEX" source="#vertices" offset="0"/><input semantic="NORMAL" source="#normals" offset="1"/><p>0 0 1 0 49 0 0 1 49 1 48 1 96 2 1 2 0 2 97 3 48 3 49 3 1 4 2 4 50 4 1 5 50 5 49 5 96 6 2 6 1 6 97 7 49 7 50 7 2 8 3 8 51 8 2 9 51 9 50 9 96 10 3 10 2 10 97 11 50 11 51 11 3 12 4 12 52 12 3 13 52 13 51 13 96 14 4 14 3 14 97 15 51 15 52 15 4 16 5 16 53 16 4 17 53 17 52 17 96 18 5 18 4 18 97 19 52 19 53 19 5 20 6 20 54 20 5 21 54 21 53 21 96 22 6 22 5 22 97 23 53 23 54 23 6 24 7 24 55 24 6 25 55 25 54 25 96 26 7 26 6 26 97 27 54 27 55 27 7 28 8 28 56 28 7 29 56 29 55 29 96 30 8 30 7 30 97 31 55 31 56 31 8 32 9 32 57 32 8 33 57 33 56 33 96 34 9 34 8 34 97 35 56 35 57 35 9 36 10 36 58 36 9 37 58 37 57 37 96 38 10 38 9 38 97 39 57 39 58 39 10 40 11 40 59 40 10 41 59 41 58 41 96 42 11 42 10 42 97 43 58 43 59 43 11 44 12 44 60 44 11 45 60 45 59 45 96 46 12 46 11 46 97 47 59 47 60 47 12 48 13 48 61 48 12 49 61 49 60 49 96 50 13 50 12 50 97 51 60 51 61 51 13 52 14 52 62 52 13 53 62 53 61 53 96 54 14 54 13 54 97 55 61 55 62 55 14 56 15 56 63 56 14 57 63 57 62 57 96 58 15 58 14 58 97 59 62 59 63 59 15 60 16 60 64 60 15 61 64 61 63 61 96 62 16 62 15 62 97 63 63 63 64 63 16 64 17 64 65 64 16 65 65 65 64 65 96 66 17 66 16 66 97 67 64 67 65 67 17 68 18 68 66 68 17 69 66 69 65 69 96 70 18 70 17 70 97 71 65 71 66 71 18 72 19 72 67 72 18 73 67 73 66 73 96 74 19 74 18 74 97 75 66 75 67 75 19 76 20 76 68 76 19 77 68 77 67 77 96 78 20 78 19 78 97 79 67 79 68 79 20 80 21 80 69 80 20 81 69 81 68 81 96 82 21 82 20 82 97 83 68 83 69 83 21 84 22 84 70 84 21 85 70 85 69 85 96 86 22 86 21 86 97 87 69 87 70 87 22 88 23 88 71 88 22 89 71 89 70 89 96 90 23 90 22 90 97 91 70 91 71 91 23 92 24 92 72 92 23 93 72 93 71 93 96 94 24 94 23 94 97 95 71 95 72 95 24 96 25 96 73 96 24 97 73 97 72 97 96 98 25 98 24 98 97 99 72 99 73 99 25 100 26 100 74 100 25 101 74 101 73 101 96 102 26 102 25 102 97 103 73 103 74 103 26 104 27 104 75 104 26 105 75 105 74 105 96 106 27 106 26 106 97 107 74 107 75 107 27 108 28 108 76 108 27 109 76 109 75 109 96 110 28 110 27 110 97 111 75 111 76 111 28 112 29 112 77 112 28 113 77 113 76 113 96 114 29 114 28 114 97 115 76 115 77 115 29 116 30 116 78 116 29 117 78 117 77 117 96 118 30 118 29 118 97 119 77 119 78 119 30 120 31 120 79 120 30 121 79 121 78 121 96 122 31 122 30 122 97 123 78 123 79 123 31 124 32 124 80 124 31 125 80 125 79 125 96 126 32 126 31 126 97 127 79 127 80 127 32 128 33 128 81 128 32 129 81 129 80 129 96 130 33 130 32 130 97 131 80 131 81 131 33 132 34 132 82 132 33 133 82 133 81 133 96 134 34 134 33 134 97 135 81 135 82 135 34 136 35 136 83 136 34 137 83 137 82 137 96 138 35 138 34 138 97 139 82 139 83 139 35 140 36 140 84 140 35 141 84 141 83 141 96 142 36 142 35 142 97 143 83 143 84 143 36 144 37 144 85 144 36 145 85 145 84 145 96 146 37 146 36 146 97 147 84 147 85 147 37 148 38 148 86 148 37 149 86 149 85 149 96 150 38 150 37 150 97 151 85 151 86 151 38 152 39 152 87 152 38 153 87 153 86 153 96 154 39 154 38 154 97 155 86 155 87 155 39 156 40 156 88 156 39 157 88 157 87 157 96 158 40 158 39 158 97 159 87 159 88 159 40 160 41 160 89 160 40 161 89 161 88 161 96 162 41 162 40 162 97 163 88 163 89 163 41 164 42 164 90 164 41 165 90 165 89 165 96 166 42 166 41 166 97 167 89 167 90 167 42 168 43 168 91 168 42 169 91 169 90 169 96 170 43 170 42 170 97 171 90 171 91 171 43 172 44 172 92 172 43 173 92 173 91 173 96 174 44 174 43 174 97 175 91 175 92 175 44 176 45 176 93 176 44 177 93 177 92 177 96 178 45 178 44 178 97 179 92 179 93 179 45 180 46 180 94 180 45 181 94 181 93 181 96 182 46 182 45 182 97 183 93 183 94 183 46 184 47 184 95 184 46 185 95 185 94 185 96 186 47 186 46 186 97 187 94 187 95 187 47 188 0 188 48 188 47 189 48 189 95 189 96 190 0 190 47 190 97 191 95 191 48 191</p></triangles>
</mesh></geometry></library_geometries><library_visual_scenes><visual_scene id="Scene"><node id="mesh"><instance_geometry url="#geometry"/></node></visual_scene></library_visual_scenes><scene><instance_visual_scene url="#Scene"/></scene></COLLADA>