<?xml version="1.0" encoding="UTF-8"?>
<COLLADA xmlns="http://www.collada.org/2005/11/COLLADASchema" version="1.4.1">
<asset><contributor><authoring_tool>Summit Estate procedural mesh exporter</authoring_tool></contributor><created>2026-09-11T00:00:00Z</created><modified>2026-09-11T00:00:00Z</modified><unit name="meter" meter="1"/><up_axis>Z_UP</up_axis></asset>
<library_geometries><geometry id="geometry" name="geometry"><mesh>
<source id="positions"><float_array id="positions-array" count="759">166.70000 12.00000 80.63000 166.89799 12.00000 80.84088 166.82344 12.13821 80.84088 166.65594 12.17234 80.84088 166.52162 12.07670 80.84088 166.52162 11.92330 80.84088 166.65594 11.82766 80.84088 166.82344 11.86179 80.84088 166.98000 12.00000 81.35000 166.87458 12.19546 81.35000 166.63769 12.24373 81.35000 166.44773 12.10847 81.35000 166.44773 11.89153 81.35000 166.63769 11.75627 81.35000 166.87458 11.80454 81.35000 166.89799 12.00000 81.85912 166.82344 12.13821 81.85912 166.65594 12.17234 81.85912 166.52162 12.07670 81.85912 166.52162 11.92330 81.85912 166.65594 11.82766 81.85912 166.82344 11.86179 81.85912 166.70000 12.00000 82.07000 167.00950 12.64877 80.45000 167.20749 12.64877 80.71360 167.13295 12.78698 80.71360 166.96545 12.82111 80.71360 166.83112 12.72547 80.71360 166.83112 12.57207 80.71360 166.96545 12.47642 80.71360 167.13295 12.51056 80.71360 167.28950 12.64877 81.35000 167.18408 12.84423 81.35000 166.94720 12.89250 81.35000 166.75723 12.75724 81.35000 166.75723 12.54030 81.35000 166.94720 12.40504 81.35000 167.18408 12.45331 81.35000 167.20749 12.64877 81.98640 167.13295 12.78698 81.98640 166.96545 12.82111 81.98640 166.83112 12.72547 81.98640 166.83112 12.57207 81.98640 166.96545 12.47642 81.98640 167.13295 12.51056 81.98640 167.00950 12.64877 82.25000 166.70621 13.54637 80.27000 166.90420 13.54637 80.58632 166.82965 13.68458 80.58632 166.66215 13.71872 80.58632 166.52782 13.62307 80.58632 166.52782 13.46967 80.58632 166.66215 13.37403 80.58632 166.82965 13.40816 80.58632 166.98621 13.54637 81.35000 166.88078 13.74183 81.35000 166.64390 13.79011 81.35000 166.45393 13.65485 81.35000 166.45393 13.43790 81.35000 166.64390 13.30264 81.35000 166.88078 13.35092 81.35000 166.90420 13.54637 82.11368 166.82965 13.68458 82.11368 166.66215 13.71872 82.11368 166.52782 13.62307 82.11368 166.52782 13.46967 82.11368 166.66215 13.37403 82.11368 166.82965 13.40816 82.11368 166.70621 13.54637 82.43000 165.90038 12.69288 80.63000 166.09837 12.69288 80.84088 166.02382 12.83108 80.84088 165.85632 12.86522 80.84088 165.72200 12.76958 80.84088 165.72200 12.61617 80.84088 165.85632 12.52053 80.84088 166.02382 12.55467 80.84088 166.18038 12.69288 81.35000 166.07496 12.88833 81.35000 165.83807 12.93661 81.35000 165.64811 12.80135 81.35000 165.64811 12.58440 81.35000 165.83807 12.44914 81.35000 166.07496 12.49742 81.35000 166.09837 12.69288 81.85912 166.02382 12.83108 81.85912 165.85632 12.86522 81.85912 165.72200 12.76958 81.85912 165.72200 12.61617 81.85912 165.85632 12.52053 81.85912 166.02382 12.55467 81.85912 165.90038 12.69288 82.07000 165.21417 12.90690 80.45000 165.41216 12.90690 80.71360 165.33761 13.04511 80.71360 165.17011 13.07924 80.71360 165.03578 12.98360 80.71360 165.03578 12.83020 80.71360 165.17011 12.73455 80.71360 165.33761 12.76869 80.71360 165.49417 12.90690 81.35000 165.38874 13.10236 81.35000 165.15186 13.15063 81.35000 164.96190 13.01537 81.35000 164.96190 12.79843 81.35000 165.15186 12.66317 81.35000 165.38874 12.71144 81.35000 165.41216 12.90690 81.98640 165.33761 13.04511 81.98640 165.17011 13.07924 81.98640 165.03578 12.98360 81.98640 165.03578 12.83020 81.98640 165.17011 12.73455 81.98640 165.33761 12.76869 81.98640 165.21417 12.90690 82.25000 164.36886 12.47895 80.27000 164.56685 12.47895 80.58632 164.49231 12.61715 80.58632 164.32481 12.65129 80.58632 164.19048 12.55565 80.58632 164.19048 12.40224 80.58632 164.32481 12.30660 80.58632 164.49231 12.34074 80.58632 164.64886 12.47895 81.35000 164.54344 12.67440 81.35000 164.30656 12.72268 81.35000 164.11659 12.58742 81.35000 164.11659 12.37047 81.35000 164.30656 12.23521 81.35000 164.54344 12.28349 81.35000 164.56685 12.47895 82.11368 164.49231 12.61715 82.11368 164.32481 12.65129 82.11368 164.19048 12.55565 82.11368 164.19048 12.40224 82.11368 164.32481 12.30660 82.11368 164.49231 12.34074 82.11368 164.36886 12.47895 82.43000 165.32835 11.80279 80.63000 165.52634 11.80279 80.84088 165.45180 11.94100 80.84088 165.28430 11.97513 80.84088 165.14997 11.87949 80.84088 165.14997 11.72609 80.84088 165.28430 11.63044 80.84088 165.45180 11.66458 80.84088 165.60835 11.80279 81.35000 165.50293 11.99825 81.35000 165.26605 12.04652 81.35000 165.07608 11.91126 81.35000 165.07608 11.69432 81.35000 165.26605 11.55906 81.35000 165.50293 11.60733 81.35000 165.52634 11.80279 81.85912 165.45180 11.94100 81.85912 165.28430 11.97513 81.85912 165.14997 11.87949 81.85912 165.14997 11.72609 81.85912 165.28430 11.63044 81.85912 165.45180 11.66458 81.85912 165.32835 11.80279 82.07000 165.21417 11.09310 80.45000 165.41216 11.09310 80.71360 165.33761 11.23131 80.71360 165.17011 11.26545 80.71360 165.03578 11.16980 80.71360 165.03578 11.01640 80.71360 165.17011 10.92076 80.71360 165.33761 10.95489 80.71360 165.49417 11.09310 81.35000 165.38874 11.28856 81.35000 165.15186 11.33683 81.35000 164.96190 11.20157 81.35000 164.96190 10.98463 81.35000 165.15186 10.84937 81.35000 165.38874 10.89764 81.35000 165.41216 11.09310 81.98640 165.33761 11.23131 81.98640 165.17011 11.26545 81.98640 165.03578 11.16980 81.98640 165.03578 11.01640 81.98640 165.17011 10.92076 81.98640 165.33761 10.95489 81.98640 165.21417 11.09310 82.25000 165.75806 10.31730 80.27000 165.95605 10.31730 80.58632 165.88151 10.45551 80.58632 165.71401 10.48965 80.58632 165.57968 10.39400 80.58632 165.57968 10.24060 80.58632 165.71401 10.14496 80.58632 165.88151 10.17909 80.58632 166.03806 10.31730 81.35000 165.93264 10.51276 81.35000 165.69576 10.56104 81.35000 165.50579 10.42577 81.35000 165.50579 10.20883 81.35000 165.69576 10.07357 81.35000 165.93264 10.12185 81.35000 165.95605 10.31730 82.11368 165.88151 10.45551 82.11368 165.71401 10.48965 82.11368 165.57968 10.39400 82.11368 165.57968 10.24060 82.11368 165.71401 10.14496 82.11368 165.88151 10.17909 82.11368 165.75806 10.31730 82.43000 166.29079 11.36326 80.63000 166.48878 11.36326 80.84088 166.41424 11.50147 80.84088 166.24673 11.53560 80.84088 166.11241 11.43996 80.84088 166.11241 11.28656 80.84088 166.24673 11.19091 80.84088 166.41424 11.22505 80.84088 166.57079 11.36326 81.35000 166.46537 11.55872 81.35000 166.22848 11.60699 81.35000 166.03852 11.47173 81.35000 166.03852 11.25479 81.35000 166.22848 11.11953 81.35000 166.46537 11.16780 81.35000 166.48878 11.36326 81.85912 166.41424 11.50147 81.85912 166.24673 11.53560 81.85912 166.11241 11.43996 81.85912 166.11241 11.28656 81.85912 166.24673 11.19091 81.85912 166.41424 11.22505 81.85912 166.29079 11.36326 82.07000 167.00950 11.35123 80.45000 167.20749 11.35123 80.71360 167.13295 11.48944 80.71360 166.96545 11.52358 80.71360 166.83112 11.42793 80.71360 166.83112 11.27453 80.71360 166.96545 11.17889 80.71360 167.13295 11.21302 80.71360 167.28950 11.35123 81.35000 167.18408 11.54669 81.35000 166.94720 11.59496 81.35000 166.75723 11.45970 81.35000 166.75723 11.24276 81.35000 166.94720 11.10750 81.35000 167.18408 11.15577 81.35000 167.20749 11.35123 81.98640 167.13295 11.48944 81.98640 166.96545 11.52358 81.98640 166.83112 11.42793 81.98640 166.83112 11.27453 81.98640 166.96545 11.17889 81.98640 167.13295 11.21302 81.98640 167.00950 11.35123 82.25000</float_array><technique_common><accessor source="#positions-array" count="253" stride="3"><param name="X" type="float"/><param name="Y" type="float"/><param name="Z" type="float"/></accessor></technique_common></source>
<source id="normals"><float_array id="normals-array" count="1386">0.67847 0.36594 -0.63699 0.87143 0.47001 -0.14037 0.87143 0.47001 -0.14037 0.87143 0.47001 0.14037 0.87143 0.47001 0.14037 0.67847 0.36594 0.63699 0.15905 0.78048 -0.60462 0.19801 0.97165 -0.12915 0.19801 0.97165 -0.12915 0.19801 0.97165 0.12915 0.19801 0.97165 0.12915 0.15905 0.78048 0.60462 -0.45582 0.64016 -0.61840 -0.57481 0.80728 -0.13380 -0.57481 0.80728 -0.13380 -0.57481 0.80728 0.13380 -0.57481 0.80728 0.13380 -0.45582 0.64016 0.61840 -0.76349 0.00000 -0.64582 -0.98963 -0.00000 -0.14363 -0.98963 0.00000 -0.14363 -0.98963 0.00000 0.14363 -0.98963 0.00000 0.14363 -0.76349 0.00000 0.64582 -0.45582 -0.64016 -0.61840 -0.57481 -0.80728 -0.13380 -0.57481 -0.80728 -0.13380 -0.57481 -0.80728 0.13380 -0.57481 -0.80728 0.13380 -0.45582 -0.64016 0.61840 0.15905 -0.78048 -0.60462 0.19801 -0.97165 -0.12915 0.19801 -0.97165 -0.12915 0.19801 -0.97165 0.12915 0.19801 -0.97165 0.12915 0.15905 -0.78048 0.60462 0.67847 -0.36594 -0.63699 0.87143 -0.47001 -0.14037 0.87143 -0.47001 -0.14037 0.87143 -0.47001 0.14037 0.87143 -0.47001 0.14037 0.67847 -0.36594 0.63699 0.73421 0.39601 -0.55146 0.87453 0.47169 -0.11270 0.87453 0.47169 -0.11270 0.87453 0.47169 0.11270 0.87453 0.47169 0.11270 0.73421 0.39601 0.55146 0.17068 0.83753 -0.51905 0.19861 0.97458 -0.10363 0.19861 0.97458 -0.10363 0.19861 0.97458 0.10363 0.19861 0.97458 0.10363 0.17068 0.83753 0.51905 -0.49086 0.68937 -0.53275 -0.57667 0.80989 -0.10739 -0.57667 0.80989 -0.10739 -0.57667 0.80989 0.10739 -0.57667 0.80989 0.10739 -0.49086 0.68937 0.53275 -0.82819 0.00000 -0.56044 -0.99333 -0.00000 -0.11533 -0.99333 0.00000 -0.11533 -0.99333 0.00000 0.11533 -0.99333 0.00000 0.11533 -0.82819 0.00000 0.56044 -0.49086 -0.68937 -0.53275 -0.57667 -0.80989 -0.10739 -0.57667 -0.80989 -0.10739 -0.57667 -0.80989 0.10739 -0.57667 -0.80989 0.10739 -0.49086 -0.68937 0.53275 0.17068 -0.83753 -0.51905 0.19861 -0.97458 -0.10363 0.19861 -0.97458 -0.10363 0.19861 -0.97458 0.10363 0.19861 -0.97458 0.10363 0.17068 -0.83753 0.51905 0.73421 -0.39601 -0.55146 0.87453 -0.47169 -0.11270 0.87453 -0.47169 -0.11270 0.87453 -0.47169 0.11270 0.87453 -0.47169 0.11270 0.73421 -0.39601 0.55146 0.77090 0.41580 -0.48251 0.87623 0.47261 -0.09410 0.87623 0.47261 -0.09410 0.87623 0.47261 0.09410 0.87623 0.47261 0.09410 0.77090 0.41580 0.48251 0.17817 0.87429 -0.45153 0.19894 0.97619 -0.08650 0.19894 0.97619 -0.08650 0.19894 0.97619 0.08650 0.19894 0.97619 0.08650 0.17817 0.87429 0.45153 -0.51363 0.72136 -0.46456 -0.57769 0.81132 -0.08965 -0.57769 0.81132 -0.08965 -0.57769 0.81132 0.08965 -0.57769 0.81132 0.08965 -0.51363 0.72136 0.46456 -0.87105 0.00000 -0.49120 -0.99535 -0.00000 -0.09630 -0.99535 0.00000 -0.09630 -0.99535 0.00000 0.09630 -0.99535 0.00000 0.09630 -0.87105 0.00000 0.49120 -0.51363 -0.72136 -0.46456 -0.57769 -0.81132 -0.08965 -0.57769 -0.81132 -0.08965 -0.57769 -0.81132 0.08965 -0.57769 -0.81132 0.08965 -0.51363 -0.72136 0.46456 0.17817 -0.87429 -0.45153 0.19894 -0.97619 -0.08650 0.19894 -0.97619 -0.08650 0.19894 -0.97619 0.08650 0.19894 -0.97619 0.08650 0.17817 -0.87429 0.45153 0.77090 -0.41580 -0.48251 0.87623 -0.47261 -0.09410 0.87623 -0.47261 -0.09410 0.87623 -0.47261 0.09410 0.87623 -0.47261 0.09410 0.77090 -0.41580 0.48251 0.67847 0.36594 -0.63699 0.87143 0.47001 -0.14037 0.87143 0.47001 -0.14037 0.87143 0.47001 0.14037 0.87143 0.47001 0.14037 0.67847 0.36594 0.63699 0.15905 0.78048 -0.60462 0.19801 0.97165 -0.12915 0.19801 0.97165 -0.12915 0.19801 0.97165 0.12915 0.19801 0.97165 0.12915 0.15905 0.78048 0.60462 -0.45582 0.64016 -0.61840 -0.57481 0.80728 -0.13380 -0.57481 0.80728 -0.13380 -0.57481 0.80728 0.13380 -0.57481 0.80728 0.13380 -0.45582 0.64016 0.61840 -0.76349 0.00000 -0.64582 -0.98963 -0.00000 -0.14363 -0.98963 0.00000 -0.14363 -0.98963 0.00000 0.14363 -0.98963 0.00000 0.14363 -0.76349 0.00000 0.64582 -0.45582 -0.64016 -0.61840 -0.57481 -0.80728 -0.13380 -0.57481 -0.80728 -0.13380 -0.57481 -0.80728 0.13380 -0.57481 -0.80728 0.13380 -0.45582 -0.64016 0.61840 0.15905 -0.78048 -0.60462 0.19801 -0.97165 -0.12915 0.19801 -0.97165 -0.12915 0.19801 -0.97165 0.12915 0.19801 -0.97165 0.12915 0.15905 -0.78048 0.60462 0.67847 -0.36594 -0.63699 0.87143 -0.47001 -0.14037 0.87143 -0.47001 -0.14037 0.87143 -0.47001 0.14037 0.87143 -0.47001 0.14037 0.67847 -0.36594 0.63699 0.73421 0.39601 -0.55146 0.87453 0.47169 -0.11270 0.87453 0.47169 -0.11270 0.87453 0.47169 0.11270 0.87453 0.47169 0.11270 0.73421 0.39601 0.55146 0.17068 0.83753 -0.51905 0.19861 0.97458 -0.10363 0.19861 0.97458 -0.10363 0.19861 0.97458 0.10363 0.19861 0.97458 0.10363 0.17068 0.83753 0.51905 -0.49086 0.68937 -0.53275 -0.57667 0.80989 -0.10739 -0.57667 0.80989 -0.10739 -0.57667 0.80989 0.10739 -0.57667 0.80989 0.10739 -0.49086 0.68937 0.53275 -0.82819 0.00000 -0.56044 -0.99333 -0.00000 -0.11533 -0.99333 0.00000 -0.11533 -0.99333 0.00000 0.11533 -0.99333 0.00000 0.11533 -0.82819 0.00000 0.56044 -0.49086 -0.68937 -0.53275 -0.57667 -0.80989 -0.10739 -0.57667 -0.80989 -0.10739 -0.57667 -0.80989 0.10739 -0.57667 -0.80989 0.10739 -0.49086 -0.68937 0.53275 0.17068 -0.83753 -0.51905 0.19861 -0.97458 -0.10363 0.19861 -0.97458 -0.10363 0.19861 -0.97458 0.10363 0.19861 -0.97458 0.10363 0.17068 -0.83753 0.51905 0.73421 -0.39601 -0.55146 0.87453 -0.47169 -0.11270 0.87453 -0.47169 -0.11270 0.87453 -0.47169 0.11270 0.87453 -0.47169 0.11270 0.73421 -0.39601 0.55146 0.77090 0.41580 -0.48251 0.87623 0.47261 -0.09410 0.87623 0.47261 -0.09410 0.87623 0.47261 0.09410 0.87623 0.47261 0.09410 0.77090 0.41580 0.48251 0.17817 0.87429 -0.45153 0.19894 0.97619 -0.08650 0.19894 0.97619 -0.08650 0.19894 0.97619 0.08650 0.19894 0.97619 0.08650 0.17817 0.87429 0.45153 -0.51363 0.72136 -0.46456 -0.57769 0.81132 -0.08965 -0.57769 0.81132 -0.08965 -0.57769 0.81132 0.08965 -0.57769 0.81132 0.08965 -0.51363 0.72136 0.46456 -0.87105 0.00000 -0.49120 -0.99535 -0.00000 -0.09630 -0.99535 0.00000 -0.09630 -0.99535 0.00000 0.09630 -0.99535 0.00000 0.09630 -0.87105 0.00000 0.49120 -0.51363 -0.72136 -0.46456 -0.57769 -0.81132 -0.08965 -0.57769 -0.81132 -0.08965 -0.57769 -0.81132 0.08965 -0.57769 -0.81132 0.08965 -0.51363 -0.72136 0.46456 0.17817 -0.87429 -0.45153 0.19894 -0.97619 -0.08650 0.19894 -0.97619 -0.08650 0.19894 -0.97619 0.08650 0.19894 -0.97619 0.08650 0.17817 -0.87429 0.45153 0.77090 -0.41580 -0.48251 0.87623 -0.47261 -0.09410 0.87623 -0.47261 -0.09410 0.87623 -0.47261 0.09410 0.87623 -0.47261 0.09410 0.77090 -0.41580 0.48251 0.67847 0.36594 -0.63699 0.87143 0.47001 -0.14037 0.87143 0.47001 -0.14037 0.87143 0.47001 0.14037 0.87143 0.47001 0.14037 0.67847 0.36594 0.63699 0.15905 0.78048 -0.60462 0.19801 0.97165 -0.12915 0.19801 0.97165 -0.12915 0.19801 0.97165 0.12915 0.19801 0.97165 0.12915 0.15905 0.78048 0.60462 -0.45582 0.64016 -0.61840 -0.57481 0.80728 -0.13380 -0.57481 0.80728 -0.13380 -0.57481 0.80728 0.13380 -0.57481 0.80728 0.13380 -0.45582 0.64016 0.61840 -0.76349 0.00000 -0.64582 -0.98963 -0.00000 -0.14363 -0.98963 0.00000 -0.14363 -0.98963 0.00000 0.14363 -0.98963 0.00000 0.14363 -0.76349 0.00000 0.64582 -0.45582 -0.64016 -0.61840 -0.57481 -0.80728 -0.13380 -0.57481 -0.80728 -0.13380 -0.57481 -0.80728 0.13380 -0.57481 -0.80728 0.13380 -0.45582 -0.64016 0.61840 0.15905 -0.78048 -0.60462 0.19801 -0.97165 -0.12915 0.19801 -0.97165 -0.12915 0.19801 -0.97165 0.12915 0.19801 -0.97165 0.12915 0.15905 -0.78048 0.60462 0.67847 -0.36594 -0.63699 0.87143 -0.47001 -0.14037 0.87143 -0.47001 -0.14037 0.87143 -0.47001 0.14037 0.87143 -0.47001 0.14037 0.67847 -0.36594 0.63699 0.73421 0.39601 -0.55146 0.87453 0.47169 -0.11270 0.87453 0.47169 -0.11270 0.87453 0.47169 0.11270 0.87453 0.47169 0.11270 0.73421 0.39601 0.55146 0.17068 0.83753 -0.51905 0.19861 0.97458 -0.10363 0.19861 0.97458 -0.10363 0.19861 0.97458 0.10363 0.19861 0.97458 0.10363 0.17068 0.83753 0.51905 -0.49086 0.68937 -0.53275 -0.57667 0.80989 -0.10739 -0.57667 0.80989 -0.10739 -0.57667 0.80989 0.10739 -0.57667 0.80989 0.10739 -0.49086 0.68937 0.53275 -0.82819 0.00000 -0.56044 -0.99333 -0.00000 -0.11533 -0.99333 0.00000 -0.11533 -0.99333 0.00000 0.11533 -0.99333 0.00000 0.11533 -0.82819 0.00000 0.56044 -0.49086 -0.68937 -0.53275 -0.57667 -0.80989 -0.10739 -0.57667 -0.80989 -0.10739 -0.57667 -0.80989 0.10739 -0.57667 -0.80989 0.10739 -0.49086 -0.68937 0.53275 0.17068 -0.83753 -0.51905 0.19861 -0.97458 -0.10363 0.19861 -0.97458 -0.10363 0.19861 -0.97458 0.10363 0.19861 -0.97458 0.10363 0.17068 -0.83753 0.51905 0.73421 -0.39601 -0.55146 0.87453 -0.47169 -0.11270 0.87453 -0.47169 -0.11270 0.87453 -0.47169 0.11270 0.87453 -0.47169 0.11270 0.73421 -0.39601 0.55146 0.77090 0.41580 -0.48251 0.87623 0.47261 -0.09410 0.87623 0.47261 -0.09410 0.87623 0.47261 0.09410 0.87623 0.47261 0.09410 0.77090 0.41580 0.48251 0.17817 0.87429 -0.45153 0.19894 0.97619 -0.08650 0.19894 0.97619 -0.08650 0.19894 0.97619 0.08650 0.19894 0.97619 0.08650 0.17817 0.87429 0.45153 -0.51363 0.72136 -0.46456 -0.57769 0.81132 -0.08965 -0.57769 0.81132 -0.08965 -0.57769 0.81132 0.08965 -0.57769 0.81132 0.08965 -0.51363 0.72136 0.46456 -0.87105 0.00000 -0.49120 -0.99535 -0.00000 -0.09630 -0.99535 0.00000 -0.09630 -0.99535 0.00000 0.09630 -0.99535 0.00000 0.09630 -0.87105 0.00000 0.49120 -0.51363 -0.72136 -0.46456 -0.57769 -0.81132 -0.08965 -0.57769 -0.81132 -0.08965 -0.57769 -0.81132 0.08965 -0.57769 -0.81132 0.08965 -0.51363 -0.72136 0.46456 0.17817 -0.87429 -0.45153 0.19894 -0.97619 -0.08650 0.19894 -0.97619 -0.08650 0.19894 -0.97619 0.08650 0.19894 -0.97619 0.08650 0.17817 -0.87429 0.45153 0.77090 -0.41580 -0.48251 0.87623 -0.47261 -0.09410 0.87623 -0.47261 -0.09410 0.87623 -0.47261 0.09410 0.87623 -0.47261 0.09410 0.77090 -0.41580 0.48251 0.67847 0.36594 -0.63699 0.87143 0.47001 -0.14037 0.87143 0.47001 -0.14037 0.87143 0.47001 0.14037 0.87143 0.47001 0.14037 0.67847 0.36594 0.63699 0.15905 0.78048 -0.60462 0.19801 0.97165 -0.12915 0.19801 0.97165 -0.12915 0.19801 0.97165 0.12915 0.19801 0.97165 0.12915 0.15905 0.78048 0.60462 -0.45582 0.64016 -0.61840 -0.57481 0.80728 -0.13380 -0.57481 0.80728 -0.13380 -0.57481 0.80728 0.13380 -0.57481 0.80728 0.13380 -0.45582 0.64016 0.61840 -0.76349 0.00000 -0.64582 -0.98963 -0.00000 -0.14363 -0.98963 0.00000 -0.14363 -0.98963 0.00000 0.14363 -0.98963 0.00000 0.14363 -0.76349 0.00000 0.64582 -0.45582 -0.64016 -0.61840 -0.57481 -0.80728 -0.13380 -0.57481 -0.80728 -0.13380 -0.57481 -0.80728 0.13380 -0.57481 -0.80728 0.13380 -0.45582 -0.64016 0.61840 0.15905 -0.78048 -0.60462 0.19801 -0.97165 -0.12915 0.19801 -0.97165 -0.12915 0.19801 -0.97165 0.12915 0.19801 -0.97165 0.12915 0.15905 -0.78048 0.60462 0.67847 -0.36594 -0.63699 0.87143 -0.47001 -0.14037 0.87143 -0.47001 -0.14037 0.87143 -0.47001 0.14037 0.87143 -0.47001 0.14037 0.67847 -0.36594 0.63699 0.73421 0.39601 -0.55146 0.87453 0.47169 -0.11270 0.87453 0.47169 -0.11270 0.87453 0.47169 0.11270 0.87453 0.47169 0.11270 0.73421 0.39601 0.55146 0.17068 0.83753 -0.51905 0.19861 0.97458 -0.10363 0.19861 0.97458 -0.10363 0.19861 0.97458 0.10363 0.19861 0.97458 0.10363 0.17068 0.83753 0.51905 -0.49086 0.68937 -0.53275 -0.57667 0.80989 -0.10739 -0.57667 0.80989 -0.10739 -0.57667 0.80989 0.10739 -0.57667 0.80989 0.10739 -0.49086 0.68937 0.53275 -0.82819 0.00000 -0.56044 -0.99333 -0.00000 -0.11533 -0.99333 0.00000 -0.11533 -0.99333 0.00000 0.11533 -0.99333 0.00000 0.11533 -0.82819 0.00000 0.56044 -0.49086 -0.68937 -0.53275 -0.57667 -0.80989 -0.10739 -0.57667 -0.80989 -0.10739 -0.57667 -0.80989 0.10739 -0.57667 -0.80989 0.10739 -0.49086 -0.68937 0.53275 0.17068 -0.83753 -0.51905 0.19861 -0.97458 -0.10363 0.19861 -0.97458 -0.10363 0.19861 -0.97458 0.10363 0.19861 -0.97458 0.10363 0.17068 -0.83753 0.51905 0.73421 -0.39601 -0.55146 0.87453 -0.47169 -0.11270 0.87453 -0.47169 -0.11270 0.87453 -0.47169 0.11270 0.87453 -0.47169 0.11270 0.73421 -0.39601 0.55146</float_array><technique_common><accessor source="#normals-array" count="462" stride="3"><param name="X" type="float"/><param name="Y" type="float"/><param name="Z" type="float"/></accessor></technique_common></source>
<vertices id="vertices"><input semantic="POSITION" source="#positions"/></vertices><triangles count="462"><input semantic="VERTEX" source="#vertices" offset="0"/><input semantic="NORMAL" source="#normals" offset="1"/><p>0 0 2 0 1 0 1 1 2 1 9 1 1 2 9 2 8 2 8 3 9 3 16 3 8 4 16 4 15 4 15 5 16 5 22 5 0 6 3 6 2 6 2 7 3 7 10 7 2 8 10 8 9 8 9 9 10 9 17 9 9 10 17 10 16 10 16 11 17 11 22 11 0 12 4 12 3 12 3 13 4 13 11 13 3 14 11 14 10 14 10 15 11 15 18 15 10 16 18 16 17 16 17 17 18 17 22 17 0 18 5 18 4 18 4 19 5 19 12 19 4 20 12 20 11 20 11 21 12 21 19 21 11 22 19 22 18 22 18 23 19 23 22 23 0 24 6 24 5 24 5 25 6 25 13 25 5 26 13 26 12 26 12 27 13 27 20 27 12 28 20 28 19 28 19 29 20 29 22 29 0 30 7 30 6 30 6 31 7 31 14 31 6 32 14 32 13 32 13 33 14 33 21 33 13 34 21 34 20 34 20 35 21 35 22 35 0 36 1 36 7 36 7 37 1 37 8 37 7 38 8 38 14 38 14 39 8 39 15 39 14 40 15 40 21 40 21 41 15 41 22 41 23 42 25 42 24 42 24 43 25 43 32 43 24 44 32 44 31 44 31 45 32 45 39 45 31 46 39 46 38 46 38 47 39 47 45 47 23 48 26 48 25 48 25 49 26 49 33 49 25 50 33 50 32 50 32 51 33 51 40 51 32 52 40 52 39 52 39 53 40 53 45 53 23 54 27 54 26 54 26 55 27 55 34 55 26 56 34 56 33 56 33 57 34 57 41 57 33 58 41 58 40 58 40 59 41 59 45 59 23 60 28 60 27 60 27 61 28 61 35 61 27 62 35 62 34 62 34 63 35 63 42 63 34 64 42 64 41 64 41 65 42 65 45 65 23 66 29 66 28 66 28 67 29 67 36 67 28 68 36 68 35 68 35 69 36 69 43 69 35 70 43 70 42 70 42 71 43 71 45 71 23 72 30 72 29 72 29 73 30 73 37 73 29 74 37 74 36 74 36 75 37 75 44 75 36 76 44 76 43 76 43 77 44 77 45 77 23 78 24 78 30 78 30 79 24 79 31 79 30 80 31 80 37 80 37 81 31 81 38 81 37 82 38 82 44 82 44 83 38 83 45 83 46 84 48 84 47 84 47 85 48 85 55 85 47 86 55 86 54 86 54 87 55 87 62 87 54 88 62 88 61 88 61 89 62 89 68 89 46 90 49 90 48 90 48 91 49 91 56 91 48 92 56 92 55 92 55 93 56 93 63 93 55 94 63 94 62 94 62 95 63 95 68 95 46 96 50 96 49 96 49 97 50 97 57 97 49 98 57 98 56 98 56 99 57 99 64 99 56 100 64 100 63 100 63 101 64 101 68 101 46 102 51 102 50 102 50 103 51 103 58 103 50 104 58 104 57 104 57 105 58 105 65 105 57 106 65 106 64 106 64 107 65 107 68 107 46 108 52 108 51 108 51 109 52 109 59 109 51 110 59 110 58 110 58 111 59 111 66 111 58 112 66 112 65 112 65 113 66 113 68 113 46 114 53 114 52 114 52 115 53 115 60 115 52 116 60 116 59 116 59 117 60 117 67 117 59 118 67 118 66 118 66 119 67 119 68 119 46 120 47 120 53 120 53 121 47 121 54 121 53 122 54 122 60 122 60 123 54 123 61 123 60 124 61 124 67 124 67 125 61 125 68 125 69 126 71 126 70 126 70 127 71 127 78 127 70 128 78 128 77 128 77 129 78 129 85 129 77 130 85 130 84 130 84 131 85 131 91 131 69 132 72 132 71 132 71 133 72 133 79 133 71 134 79 134 78 134 78 135 79 135 86 135 78 136 86 136 85 136 85 137 86 137 91 137 69 138 73 138 72 138 72 139 73 139 80 139 72 140 80 140 79 140 79 141 80 141 87 141 79 142 87 142 86 142 86 143 87 143 91 143 69 144 74 144 73 144 73 145 74 145 81 145 73 146 81 146 80 146 80 147 81 147 88 147 80 148 88 148 87 148 87 149 88 149 91 149 69 150 75 150 74 150 74 151 75 151 82 151 74 152 82 152 81 152 81 153 82 153 89 153 81 154 89 154 88 154 88 155 89 155 91 155 69 156 76 156 75 156 75 157 76 157 83 157 75 158 83 158 82 158 82 159 83 159 90 159 82 160 90 160 89 160 89 161 90 161 91 161 69 162 70 162 76 162 76 163 70 163 77 163 76 164 77 164 83 164 83 165 77 165 84 165 83 166 84 166 90 166 90 167 84 167 91 167 92 168 94 168 93 168 93 169 94 169 101 169 93 170 101 170 100 170 100 171 101 171 108 171 100 172 108 172 107 172 107 173 108 173 114 173 92 174 95 174 94 174 94 175 95 175 102 175 94 176 102 176 101 176 101 177 102 177 109 177 101 178 109 178 108 178 108 179 109 179 114 179 92 180 96 180 95 180 95 181 96 181 103 181 95 182 103 182 102 182 102 183 103 183 110 183 102 184 110 184 109 184 109 185 110 185 114 185 92 186 97 186 96 186 96 187 97 187 104 187 96 188 104 188 103 188 103 189 104 189 111 189 103 190 111 190 110 190 110 191 111 191 114 191 92 192 98 192 97 192 97 193 98 193 105 193 97 194 105 194 104 194 104 195 105 195 112 195 104 196 112 196 111 196 111 197 112 197 114 197 92 198 99 198 98 198 98 199 99 199 106 199 98 200 106 200 105 200 105 201 106 201 113 201 105 202 113 202 112 202 112 203 113 203 114 203 92 204 93 204 99 204 99 205 93 205 100 205 99 206 100 206 106 206 106 207 100 207 107 207 106 208 107 208 113 208 113 209 107 209 114 209 115 210 117 210 116 210 116 211 117 211 124 211 116 212 124 212 123 212 123 213 124 213 131 213 123 214 131 214 130 214 130 215 131 215 137 215 115 216 118 216 117 216 117 217 118 217 125 217 117 218 125 218 124 218 124 219 125 219 132 219 124 220 132 220 131 220 131 221 132 221 137 221 115 222 119 222 118 222 118 223 119 223 126 223 118 224 126 224 125 224 125 225 126 225 133 225 125 226 133 226 132 226 132 227 133 227 137 227 115 228 120 228 119 228 119 229 120 229 127 229 119 230 127 230 126 230 126 231 127 231 134 231 126 232 134 232 133 232 133 233 134 233 137 233 115 234 121 234 120 234 120 235 121 235 128 235 120 236 128 236 127 236 127 237 128 237 135 237 127 238 135 238 134 238 134 239 135 239 137 239 115 240 122 240 121 240 121 241 122 241 129 241 121 242 129 242 128 242 128 243 129 243 136 243 128 244 136 244 135 244 135 245 136 245 137 245 115 246 116 246 122 246 122 247 116 247 123 247 122 248 123 248 129 248 129 249 123 249 130 249 129 250 130 250 136 250 136 251 130 251 137 251 138 252 140 252 139 252 139 253 140 253 147 253 139 254 147 254 146 254 146 255 147 255 154 255 146 256 154 256 153 256 153 257 154 257 160 257 138 258 141 258 140 258 140 259 141 259 148 259 140 260 148 260 147 260 147 261 148 261 155 261 147 262 155 262 154 262 154 263 155 263 160 263 138 264 142 264 141 264 141 265 142 265 149 265 141 266 149 266 148 266 148 267 149 267 156 267 148 268 156 268 155 268 155 269 156 269 160 269 138 270 143 270 142 270 142 271 143 271 150 271 142 272 150 272 149 272 149 273 150 273 157 273 149 274 157 274 156 274 156 275 157 275 160 275 138 276 144 276 143 276 143 277 144 277 151 277 143 278 151 278 150 278 150 279 151 279 158 279 150 280 158 280 157 280 157 281 158 281 160 281 138 282 145 282 144 282 144 283 145 283 152 283 144 284 152 284 151 284 151 285 152 285 159 285 151 286 159 286 158 286 158 287 159 287 160 287 138 288 139 288 145 288 145 289 139 289 146 289 145 290 146 290 152 290 152 291 146 291 153 291 152 292 153 292 159 292 159 293 153 293 160 293 161 294 163 294 162 294 162 295 163 295 170 295 162 296 170 296 169 296 169 297 170 297 177 297 169 298 177 298 176 298 176 299 177 299 183 299 161 300 164 300 163 300 163 301 164 301 171 301 163 302 171 302 170 302 170 303 171 303 178 303 170 304 178 304 177 304 177 305 178 305 183 305 161 306 165 306 164 306 164 307 165 307 172 307 164 308 172 308 171 308 171 309 172 309 179 309 171 310 179 310 178 310 178 311 179 311 183 311 161 312 166 312 165 312 165 313 166 313 173 313 165 314 173 314 172 314 172 315 173 315 180 315 172 316 180 316 179 316 179 317 180 317 183 317 161 318 167 318 166 318 166 319 167 319 174 319 166 320 174 320 173 320 173 321 174 321 181 321 173 322 181 322 180 322 180 323 181 323 183 323 161 324 168 324 167 324 167 325 168 325 175 325 167 326 175 326 174 326 174 327 175 327 182 327 174 328 182 328 181 328 181 329 182 329 183 329 161 330 162 330 168 330 168 331 162 331 169 331 168 332 169 332 175 332 175 333 169 333 176 333 175 334 176 334 182 334 182 335 176 335 183 335 184 336 186 336 185 336 185 337 186 337 193 337 185 338 193 338 192 338 192 339 193 339 200 339 192 340 200 340 199 340 199 341 200 341 206 341 184 342 187 342 186 342 186 343 187 343 194 343 186 344 194 344 193 344 193 345 194 345 201 345 193 346 201 346 200 346 200 347 201 347 206 347 184 348 188 348 187 348 187 349 188 349 195 349 187 350 195 350 194 350 194 351 195 351 202 351 194 352 202 352 201 352 201 353 202 353 206 353 184 354 189 354 188 354 188 355 189 355 196 355 188 356 196 356 195 356 195 357 196 357 203 357 195 358 203 358 202 358 202 359 203 359 206 359 184 360 190 360 189 360 189 361 190 361 197 361 189 362 197 362 196 362 196 363 197 363 204 363 196 364 204 364 203 364 203 365 204 365 206 365 184 366 191 366 190 366 190 367 191 367 198 367 190 368 198 368 197 368 197 369 198 369 205 369 197 370 205 370 204 370 204 371 205 371 206 371 184 372 185 372 191 372 191 373 185 373 192 373 191 374 192 374 198 374 198 375 192 375 199 375 198 376 199 376 205 376 205 377 199 377 206 377 207 378 209 378 208 378 208 379 209 379 216 379 208 380 216 380 215 380 215 381 216 381 223 381 215 382 223 382 222 382 222 383 223 383 229 383 207 384 210 384 209 384 209 385 210 385 217 385 209 386 217 386 216 386 216 387 217 387 224 387 216 388 224 388 223 388 223 389 224 389 229 389 207 390 211 390 210 390 210 391 211 391 218 391 210 392 218 392 217 392 217 393 218 393 225 393 217 394 225 394 224 394 224 395 225 395 229 395 207 396 212 396 211 396 211 397 212 397 219 397 211 398 219 398 218 398 218 399 219 399 226 399 218 400 226 400 225 400 225 401 226 401 229 401 207 402 213 402 212 402 212 403 213 403 220 403 212 404 220 404 219 404 219 405 220 405 227 405 219 406 227 406 226 406 226 407 227 407 229 407 207 408 214 408 213 408 213 409 214 409 221 409 213 410 221 410 220 410 220 411 221 411 228 411 220 412 228 412 227 412 227 413 228 413 229 413 207 414 208 414 214 414 214 415 208 415 215 415 214 416 215 416 221 416 221 417 215 417 222 417 221 418 222 418 228 418 228 419 222 419 229 419 230 420 232 420 231 420 231 421 232 421 239 421 231 422 239 422 238 422 238 423 239 423 246 423 238 424 246 424 245 424 245 425 246 425 252 425 230 426 233 426 232 426 232 427 233 427 240 427 232 428 240 428 239 428 239 429 240 429 247 429 239 430 247 430 246 430 246 431 247 431 252 431 230 432 234 432 233 432 233 433 234 433 241 433 233 434 241 434 240 434 240 435 241 435 248 435 240 436 248 436 247 436 247 437 248 437 252 437 230 438 235 438 234 438 234 439 235 439 242 439 234 440 242 440 241 440 241 441 242 441 249 441 241 442 249 442 248 442 248 443 249 443 252 443 230 444 236 444 235 444 235 445 236 445 243 445 235 446 243 446 242 446 242 447 243 447 250 447 242 448 250 448 249 448 249 449 250 449 252 449 230 450 237 450 236 450 236 451 237 451 244 451 236 452 244 452 243 452 243 453 244 453 251 453 243 454 251 454 250 454 250 455 251 455 252 455 230 456 231 456 237 456 237 457 231 457 238 457 237 458 238 458 244 458 244 459 238 459 245 459 244 460 245 460 251 460 251 461 245 461 252 461</p></triangles>
</mesh></geometry></library_geometries><library_visual_scenes><visual_scene id="Scene"><node id="mesh"><instance_geometry url="#geometry"/></node></visual_scene></library_visual_scenes><scene><instance_visual_scene url="#Scene"/></scene></COLLADA>