<?xml version="1.0" encoding="UTF-8"?>
<COLLADA xmlns="http://www.collada.org/2005/11/COLLADASchema" version="1.4.1">
<asset><contributor><authoring_tool>Summit Estate procedural mesh exporter</authoring_tool></contributor><created>2026-09-11T00:00:00Z</created><modified>2026-09-11T00:00:00Z</modified><unit name="meter" meter="1"/><up_axis>Z_UP</up_axis></asset>
<library_geometries><geometry id="geometry" name="geometry"><mesh>
<source id="positions"><float_array id="positions-array" count="441">179.72093 14.78137 80.72500 180.84093 14.78137 80.72500 180.78612 15.12747 80.72500 180.62703 15.43969 80.72500 180.37925 15.68747 80.72500 180.06703 15.84655 80.72500 179.72093 15.90137 80.72500 179.37483 15.84655 80.72500 179.06261 15.68747 80.72500 178.81483 15.43969 80.72500 178.65575 15.12747 80.72500 178.60093 14.78137 80.72500 178.65575 14.43527 80.72500 178.81483 14.12305 80.72500 179.06261 13.87527 80.72500 179.37483 13.71619 80.72500 179.72093 13.66137 80.72500 180.06703 13.71619 80.72500 180.37925 13.87527 80.72500 180.62703 14.12305 80.72500 180.78612 14.43527 80.72500 173.56423 23.78059 80.72500 174.68423 23.78059 80.72500 174.62942 24.12669 80.72500 174.47033 24.43891 80.72500 174.22255 24.68669 80.72500 173.91033 24.84578 80.72500 173.56423 24.90059 80.72500 173.21813 24.84578 80.72500 172.90591 24.68669 80.72500 172.65813 24.43891 80.72500 172.49905 24.12669 80.72500 172.44423 23.78059 80.72500 172.49905 23.43449 80.72500 172.65813 23.12227 80.72500 172.90591 22.87449 80.72500 173.21813 22.71541 80.72500 173.56423 22.66059 80.72500 173.91033 22.71541 80.72500 174.22255 22.87449 80.72500 174.47033 23.12227 80.72500 174.62942 23.43449 80.72500 160.17394 24.73016 80.72500 161.29394 24.73016 80.72500 161.23913 25.07626 80.72500 161.08004 25.38848 80.72500 160.83226 25.63626 80.72500 160.52004 25.79535 80.72500 160.17394 25.85016 80.72500 159.82785 25.79535 80.72500 159.51562 25.63626 80.72500 159.26785 25.38848 80.72500 159.10876 25.07626 80.72500 159.05394 24.73016 80.72500 159.10876 24.38406 80.72500 159.26785 24.07184 80.72500 159.51562 23.82406 80.72500 159.82785 23.66498 80.72500 160.17394 23.61016 80.72500 160.52004 23.66498 80.72500 160.83226 23.82406 80.72500 161.08004 24.07184 80.72500 161.23913 24.38406 80.72500 152.40659 15.34949 80.72500 153.52659 15.34949 80.72500 153.47177 15.69559 80.72500 153.31268 16.00781 80.72500 153.06491 16.25559 80.72500 152.75268 16.41467 80.72500 152.40659 16.46949 80.72500 152.06049 16.41467 80.72500 151.74827 16.25559 80.72500 151.50049 16.00781 80.72500 151.34140 15.69559 80.72500 151.28659 15.34949 80.72500 151.34140 15.00339 80.72500 151.50049 14.69117 80.72500 151.74827 14.44339 80.72500 152.06049 14.28431 80.72500 152.40659 14.22949 80.72500 152.75268 14.28431 80.72500 153.06491 14.44339 80.72500 153.31268 14.69117 80.72500 153.47177 15.00339 80.72500 154.12660 4.58229 80.72500 155.24660 4.58229 80.72500 155.19178 4.92839 80.72500 155.03270 5.24061 80.72500 154.78492 5.48839 80.72500 154.47270 5.64748 80.72500 154.12660 5.70229 80.72500 153.78050 5.64748 80.72500 153.46828 5.48839 80.72500 153.22050 5.24061 80.72500 153.06142 4.92839 80.72500 153.00660 4.58229 80.72500 153.06142 4.23619 80.72500 153.22050 3.92397 80.72500 153.46828 3.67619 80.72500 153.78050 3.51711 80.72500 154.12660 3.46229 80.72500 154.47270 3.51711 80.72500 154.78492 3.67619 80.72500 155.03270 3.92397 80.72500 155.19178 4.23619 80.72500 165.82656 -1.99893 80.72500 166.94656 -1.99893 80.72500 166.89174 -1.65283 80.72500 166.73266 -1.34061 80.72500 166.48488 -1.09283 80.72500 166.17266 -0.93374 80.72500 165.82656 -0.87893 80.72500 165.48046 -0.93374 80.72500 165.16824 -1.09283 80.72500 164.92046 -1.34061 80.72500 164.76138 -1.65283 80.72500 164.70656 -1.99893 80.72500 164.76138 -2.34502 80.72500 164.92046 -2.65725 80.72500 165.16824 -2.90502 80.72500 165.48046 -3.06411 80.72500 165.82656 -3.11893 80.72500 166.17266 -3.06411 80.72500 166.48488 -2.90502 80.72500 166.73266 -2.65725 80.72500 166.89174 -2.34502 80.72500 176.85792 3.16227 80.72500 177.97792 3.16227 80.72500 177.92311 3.50837 80.72500 177.76402 3.82059 80.72500 177.51624 4.06837 80.72500 177.20402 4.22745 80.72500 176.85792 4.28227 80.72500 176.51182 4.22745 80.72500 176.19960 4.06837 80.72500 175.95182 3.82059 80.72500 175.79274 3.50837 80.72500 175.73792 3.16227 80.72500 175.79274 2.81617 80.72500 175.95182 2.50395 80.72500 176.19960 2.25617 80.72500 176.51182 2.09708 80.72500 176.85792 2.04227 80.72500 177.20402 2.09708 80.72500 177.51624 2.25617 80.72500 177.76402 2.50395 80.72500 177.92311 2.81617 80.72500</float_array><technique_common><accessor source="#positions-array" count="147" stride="3"><param name="X" type="float"/><param name="Y" type="float"/><param name="Z" type="float"/></accessor></technique_common></source>
<source id="normals"><float_array id="normals-array" count="420">0.00000 0.00000 1.00000 0.00000 0.00000 1.00000 0.00000 0.00000 1.00000 0.00000 0.00000 1.00000 0.00000 0.00000 1.00000 0.00000 -0.00000 1.00000 0.00000 0.00000 1.00000 0.00000 0.00000 1.00000 0.00000 0.00000 1.00000 0.00000 0.00000 1.00000 0.00000 0.00000 1.00000 0.00000 0.00000 1.00000 0.00000 0.00000 1.00000 0.00000 0.00000 1.00000 0.00000 0.00000 1.00000 0.00000 0.00000 1.00000 0.00000 0.00000 1.00000 0.00000 0.00000 1.00000 0.00000 0.00000 1.00000 -0.00000 0.00000 1.00000 0.00000 0.00000 1.00000 0.00000 0.00000 1.00000 0.00000 0.00000 1.00000 0.00000 0.00000 1.00000 0.00000 0.00000 1.00000 0.00000 -0.00000 1.00000 0.00000 0.00000 1.00000 0.00000 0.00000 1.00000 0.00000 0.00000 1.00000 0.00000 0.00000 1.00000 0.00000 0.00000 1.00000 0.00000 0.00000 1.00000 0.00000 0.00000 1.00000 0.00000 0.00000 1.00000 0.00000 0.00000 1.00000 0.00000 0.00000 1.00000 0.00000 0.00000 1.00000 0.00000 0.00000 1.00000 0.00000 0.00000 1.00000 -0.00000 0.00000 1.00000 0.00000 0.00000 1.00000 0.00000 0.00000 1.00000 0.00000 0.00000 1.00000 0.00000 0.00000 1.00000 0.00000 0.00000 1.00000 0.00000 -0.00000 1.00000 0.00000 0.00000 1.00000 0.00000 0.00000 1.00000 0.00000 0.00000 1.00000 0.00000 0.00000 1.00000 0.00000 0.00000 1.00000 0.00000 0.00000 1.00000 0.00000 0.00000 1.00000 0.00000 0.00000 1.00000 0.00000 0.00000 1.00000 0.00000 0.00000 1.00000 0.00000 0.00000 1.00000 0.00000 0.00000 1.00000 0.00000 0.00000 1.00000 -0.00000 0.00000 1.00000 0.00000 0.00000 1.00000 0.00000 0.00000 1.00000 0.00000 0.00000 1.00000 0.00000 0.00000 1.00000 0.00000 0.00000 1.00000 0.00000 -0.00000 1.00000 0.00000 0.00000 1.00000 0.00000 0.00000 1.00000 0.00000 0.00000 1.00000 0.00000 0.00000 1.00000 0.00000 0.00000 1.00000 0.00000 0.00000 1.00000 0.00000 0.00000 1.00000 0.00000 0.00000 1.00000 0.00000 0.00000 1.00000 0.00000 0.00000 1.00000 0.00000 0.00000 1.00000 0.00000 0.00000 1.00000 0.00000 0.00000 1.00000 -0.00000 0.00000 1.00000 0.00000 0.00000 1.00000 0.00000 0.00000 1.00000 0.00000 0.00000 1.00000 0.00000 0.00000 1.00000 0.00000 0.00000 1.00000 0.00000 -0.00000 1.00000 0.00000 0.00000 1.00000 0.00000 0.00000 1.00000 0.00000 0.00000 1.00000 0.00000 0.00000 1.00000 0.00000 0.00000 1.00000 0.00000 0.00000 1.00000 0.00000 0.00000 1.00000 0.00000 0.00000 1.00000 0.00000 0.00000 1.00000 0.00000 0.00000 1.00000 0.00000 0.00000 1.00000 0.00000 0.00000 1.00000 0.00000 0.00000 1.00000 -0.00000 0.00000 1.00000 0.00000 0.00000 1.00000 0.00000 0.00000 1.00000 0.00000 0.00000 1.00000 0.00000 0.00000 1.00000 0.00000 0.00000 1.00000 0.00000 -0.00000 1.00000 0.00000 0.00000 1.00000 0.00000 0.00000 1.00000 0.00000 0.00000 1.00000 0.00000 0.00000 1.00000 0.00000 0.00000 1.00000 0.00000 0.00000 1.00000 0.00000 0.00000 1.00000 0.00000 0.00000 1.00000 0.00000 0.00000 1.00000 0.00000 0.00000 1.00000 0.00000 0.00000 1.00000 0.00000 0.00000 1.00000 0.00000 0.00000 1.00000 -0.00000 0.00000 1.00000 0.00000 0.00000 1.00000 0.00000 0.00000 1.00000 0.00000 0.00000 1.00000 0.00000 0.00000 1.00000 0.00000 0.00000 1.00000 0.00000 -0.00000 1.00000 0.00000 0.00000 1.00000 0.00000 0.00000 1.00000 0.00000 0.00000 1.00000 0.00000 0.00000 1.00000 0.00000 0.00000 1.00000 0.00000 0.00000 1.00000 0.00000 0.00000 1.00000 0.00000 0.00000 1.00000 0.00000 0.00000 1.00000 0.00000 0.00000 1.00000 0.00000 0.00000 1.00000 0.00000 0.00000 1.00000 0.00000 0.00000 1.00000 -0.00000 0.00000 1.00000</float_array><technique_common><accessor source="#normals-array" count="140" stride="3"><param name="X" type="float"/><param name="Y" type="float"/><param name="Z" type="float"/></accessor></technique_common></source>
<vertices id="vertices"><input semantic="POSITION" source="#positions"/></vertices><triangles count="140"><input semantic="VERTEX" source="#vertices" offset="0"/><input semantic="NORMAL" source="#normals" offset="1"/><p>0 0 1 0 2 0 0 1 2 1 3 1 0 2 3 2 4 2 0 3 4 3 5 3 0 4 5 4 6 4 0 5 6 5 7 5 0 6 7 6 8 6 0 7 8 7 9 7 0 8 9 8 10 8 0 9 10 9 11 9 0 10 11 10 12 10 0 11 12 11 13 11 0 12 13 12 14 12 0 13 14 13 15 13 0 14 15 14 16 14 0 15 16 15 17 15 0 16 17 16 18 16 0 17 18 17 19 17 0 18 19 18 20 18 0 19 20 19 1 19 21 20 22 20 23 20 21 21 23 21 24 21 21 22 24 22 25 22 21 23 25 23 26 23 21 24 26 24 27 24 21 25 27 25 28 25 21 26 28 26 29 26 21 27 29 27 30 27 21 28 30 28 31 28 21 29 31 29 32 29 21 30 32 30 33 30 21 31 33 31 34 31 21 32 34 32 35 32 21 33 35 33 36 33 21 34 36 34 37 34 21 35 37 35 38 35 21 36 38 36 39 36 21 37 39 37 40 37 21 38 40 38 41 38 21 39 41 39 22 39 42 40 43 40 44 40 42 41 44 41 45 41 42 42 45 42 46 42 42 43 46 43 47 43 42 44 47 44 48 44 42 45 48 45 49 45 42 46 49 46 50 46 42 47 50 47 51 47 42 48 51 48 52 48 42 49 52 49 53 49 42 50 53 50 54 50 42 51 54 51 55 51 42 52 55 52 56 52 42 53 56 53 57 53 42 54 57 54 58 54 42 55 58 55 59 55 42 56 59 56 60 56 42 57 60 57 61 57 42 58 61 58 62 58 42 59 62 59 43 59 63 60 64 60 65 60 63 61 65 61 66 61 63 62 66 62 67 62 63 63 67 63 68 63 63 64 68 64 69 64 63 65 69 65 70 65 63 66 70 66 71 66 63 67 71 67 72 67 63 68 72 68 73 68 63 69 73 69 74 69 63 70 74 70 75 70 63 71 75 71 76 71 63 72 76 72 77 72 63 73 77 73 78 73 63 74 78 74 79 74 63 75 79 75 80 75 63 76 80 76 81 76 63 77 81 77 82 77 63 78 82 78 83 78 63 79 83 79 64 79 84 80 85 80 86 80 84 81 86 81 87 81 84 82 87 82 88 82 84 83 88 83 89 83 84 84 89 84 90 84 84 85 90 85 91 85 84 86 91 86 92 86 84 87 92 87 93 87 84 88 93 88 94 88 84 89 94 89 95 89 84 90 95 90 96 90 84 91 96 91 97 91 84 92 97 92 98 92 84 93 98 93 99 93 84 94 99 94 100 94 84 95 100 95 101 95 84 96 101 96 102 96 84 97 102 97 103 97 84 98 103 98 104 98 84 99 104 99 85 99 105 100 106 100 107 100 105 101 107 101 108 101 105 102 108 102 109 102 105 103 109 103 110 103 105 104 110 104 111 104 105 105 111 105 112 105 105 106 112 106 113 106 105 107 113 107 114 107 105 108 114 108 115 108 105 109 115 109 116 109 105 110 116 110 117 110 105 111 117 111 118 111 105 112 118 112 119 112 105 113 119 113 120 113 105 114 120 114 121 114 105 115 121 115 122 115 105 116 122 116 123 116 105 117 123 117 124 117 105 118 124 118 125 118 105 119 125 119 106 119 126 120 127 120 128 120 126 121 128 121 129 121 126 122 129 122 130 122 126 123 130 123 131 123 126 124 131 124 132 124 126 125 132 125 133 125 126 126 133 126 134 126 126 127 134 127 135 127 126 128 135 128 136 128 126 129 136 129 137 129 126 130 137 130 138 130 126 131 138 131 139 131 126 132 139 132 140 132 126 133 140 133 141 133 126 134 141 134 142 134 126 135 142 135 143 135 126 136 143 136 144 136 126 137 144 137 145 137 126 138 145 138 146 138 126 139 146 139 127 139</p></triangles>
</mesh></geometry></library_geometries><library_visual_scenes><visual_scene id="Scene"><node id="mesh"><instance_geometry url="#geometry"/></node></visual_scene></library_visual_scenes><scene><instance_visual_scene url="#Scene"/></scene></COLLADA>