<?xml version="1.0" encoding="UTF-8"?>
<COLLADA xmlns="http://www.collada.org/2005/11/COLLADASchema" version="1.4.1">
<asset><contributor><authoring_tool>Summit Estate procedural mesh exporter</authoring_tool></contributor><created>2026-09-11T00:00:00Z</created><modified>2026-09-11T00:00:00Z</modified><unit name="meter" meter="1"/><up_axis>Z_UP</up_axis></asset>
<library_geometries><geometry id="geometry" name="geometry"><mesh>
<source id="positions"><float_array id="positions-array" count="486">178.00000 12.00000 79.94000 177.96301 12.94151 79.94000 177.85226 13.87721 79.94000 177.66844 14.80134 79.94000 177.41268 15.70820 79.94000 177.08655 16.59220 79.94000 176.69208 17.44789 79.94000 176.23168 18.26998 79.94000 175.70820 19.05342 79.94000 175.12487 19.79338 79.94000 174.48528 20.48528 79.94000 173.79338 21.12487 79.94000 173.05342 21.70820 79.94000 172.26998 22.23168 79.94000 171.44789 22.69208 79.94000 170.59220 23.08655 79.94000 169.70820 23.41268 79.94000 168.80134 23.66844 79.94000 167.87721 23.85226 79.94000 166.94151 23.96301 79.94000 166.00000 24.00000 79.94000 165.05849 23.96301 79.94000 164.12279 23.85226 79.94000 163.19866 23.66844 79.94000 162.29180 23.41268 79.94000 161.40780 23.08655 79.94000 160.55211 22.69208 79.94000 159.73002 22.23168 79.94000 158.94658 21.70820 79.94000 158.20662 21.12487 79.94000 157.51472 20.48528 79.94000 156.87513 19.79338 79.94000 156.29180 19.05342 79.94000 155.76832 18.26998 79.94000 155.30792 17.44789 79.94000 154.91345 16.59220 79.94000 154.58732 15.70820 79.94000 154.33156 14.80134 79.94000 154.14774 13.87721 79.94000 154.03699 12.94151 79.94000 154.00000 12.00000 79.94000 154.03699 11.05849 79.94000 154.14774 10.12279 79.94000 154.33156 9.19866 79.94000 154.58732 8.29180 79.94000 154.91345 7.40780 79.94000 155.30792 6.55211 79.94000 155.76832 5.73002 79.94000 156.29180 4.94658 79.94000 156.87513 4.20662 79.94000 157.51472 3.51472 79.94000 158.20662 2.87513 79.94000 158.94658 2.29180 79.94000 159.73002 1.76832 79.94000 160.55211 1.30792 79.94000 161.40780 0.91345 79.94000 162.29180 0.58732 79.94000 163.19866 0.33156 79.94000 164.12279 0.14774 79.94000 165.05849 0.03699 79.94000 166.00000 0.00000 79.94000 166.94151 0.03699 79.94000 167.87721 0.14774 79.94000 168.80134 0.33156 79.94000 169.70820 0.58732 79.94000 170.59220 0.91345 79.94000 171.44789 1.30792 79.94000 172.26998 1.76832 79.94000 173.05342 2.29180 79.94000 173.79338 2.87513 79.94000 174.48528 3.51472 79.94000 175.12487 4.20662 79.94000 175.70820 4.94658 79.94000 176.23168 5.73002 79.94000 176.69208 6.55211 79.94000 177.08655 7.40780 79.94000 177.41268 8.29180 79.94000 177.66844 9.19866 79.94000 177.85226 10.12279 79.94000 177.96301 11.05849 79.94000 178.00000 12.00000 80.16000 177.96301 12.94151 80.16000 177.85226 13.87721 80.16000 177.66844 14.80134 80.16000 177.41268 15.70820 80.16000 177.08655 16.59220 80.16000 176.69208 17.44789 80.16000 176.23168 18.26998 80.16000 175.70820 19.05342 80.16000 175.12487 19.79338 80.16000 174.48528 20.48528 80.16000 173.79338 21.12487 80.16000 173.05342 21.70820 80.16000 172.26998 22.23168 80.16000 171.44789 22.69208 80.16000 170.59220 23.08655 80.16000 169.70820 23.41268 80.16000 168.80134 23.66844 80.16000 167.87721 23.85226 80.16000 166.94151 23.96301 80.16000 166.00000 24.00000 80.16000 165.05849 23.96301 80.16000 164.12279 23.85226 80.16000 163.19866 23.66844 80.16000 162.29180 23.41268 80.16000 161.40780 23.08655 80.16000 160.55211 22.69208 80.16000 159.73002 22.23168 80.16000 158.94658 21.70820 80.16000 158.20662 21.12487 80.16000 157.51472 20.48528 80.16000 156.87513 19.79338 80.16000 156.29180 19.05342 80.16000 155.76832 18.26998 80.16000 155.30792 17.44789 80.16000 154.91345 16.59220 80.16000 154.58732 15.70820 80.16000 154.33156 14.80134 80.16000 154.14774 13.87721 80.16000 154.03699 12.94151 80.16000 154.00000 12.00000 80.16000 154.03699 11.05849 80.16000 154.14774 10.12279 80.16000 154.33156 9.19866 80.16000 154.58732 8.29180 80.16000 154.91345 7.40780 80.16000 155.30792 6.55211 80.16000 155.76832 5.73002 80.16000 156.29180 4.94658 80.16000 156.87513 4.20662 80.16000 157.51472 3.51472 80.16000 158.20662 2.87513 80.16000 158.94658 2.29180 80.16000 159.73002 1.76832 80.16000 160.55211 1.30792 80.16000 161.40780 0.91345 80.16000 162.29180 0.58732 80.16000 163.19866 0.33156 80.16000 164.12279 0.14774 80.16000 165.05849 0.03699 80.16000 166.00000 0.00000 80.16000 166.94151 0.03699 80.16000 167.87721 0.14774 80.16000 168.80134 0.33156 80.16000 169.70820 0.58732 80.16000 170.59220 0.91345 80.16000 171.44789 1.30792 80.16000 172.26998 1.76832 80.16000 173.05342 2.29180 80.16000 173.79338 2.87513 80.16000 174.48528 3.51472 80.16000 175.12487 4.20662 80.16000 175.70820 4.94658 80.16000 176.23168 5.73002 80.16000 176.69208 6.55211 80.16000 177.08655 7.40780 80.16000 177.41268 8.29180 80.16000 177.66844 9.19866 80.16000 177.85226 10.12279 80.16000 177.96301 11.05849 80.16000 166.00000 12.00000 79.94000 166.00000 12.00000 80.16000</float_array><technique_common><accessor source="#positions-array" count="162" stride="3"><param name="X" type="float"/><param name="Y" type="float"/><param name="Z" type="float"/></accessor></technique_common></source>
<source id="normals"><float_array id="normals-array" count="960">0.99923 0.03926 0.00000 0.99923 0.03926 -0.00000 0.00000 0.00000 -1.00000 0.00000 0.00000 1.00000 0.99307 0.11754 0.00000 0.99307 0.11754 -0.00000 0.00000 0.00000 -1.00000 0.00000 0.00000 1.00000 0.98079 0.19509 0.00000 0.98079 0.19509 -0.00000 0.00000 0.00000 -1.00000 0.00000 0.00000 1.00000 0.96246 0.27144 0.00000 0.96246 0.27144 -0.00000 0.00000 0.00000 -1.00000 0.00000 0.00000 1.00000 0.93819 0.34612 0.00000 0.93819 0.34612 -0.00000 0.00000 0.00000 -1.00000 0.00000 0.00000 1.00000 0.90814 0.41866 0.00000 0.90814 0.41866 -0.00000 0.00000 0.00000 -1.00000 0.00000 0.00000 1.00000 0.87250 0.48862 0.00000 0.87250 0.48862 -0.00000 0.00000 0.00000 -1.00000 0.00000 0.00000 1.00000 0.83147 0.55557 0.00000 0.83147 0.55557 -0.00000 0.00000 0.00000 -1.00000 0.00000 0.00000 1.00000 0.78532 0.61909 0.00000 0.78532 0.61909 -0.00000 0.00000 0.00000 -1.00000 0.00000 0.00000 1.00000 0.73432 0.67880 0.00000 0.73432 0.67880 -0.00000 0.00000 0.00000 -1.00000 0.00000 0.00000 1.00000 0.67880 0.73432 0.00000 0.67880 0.73432 -0.00000 0.00000 0.00000 -1.00000 0.00000 0.00000 1.00000 0.61909 0.78532 0.00000 0.61909 0.78532 -0.00000 0.00000 0.00000 -1.00000 0.00000 0.00000 1.00000 0.55557 0.83147 0.00000 0.55557 0.83147 -0.00000 0.00000 0.00000 -1.00000 0.00000 0.00000 1.00000 0.48862 0.87250 0.00000 0.48862 0.87250 -0.00000 0.00000 0.00000 -1.00000 0.00000 0.00000 1.00000 0.41866 0.90814 0.00000 0.41866 0.90814 -0.00000 0.00000 0.00000 -1.00000 0.00000 0.00000 1.00000 0.34612 0.93819 0.00000 0.34612 0.93819 -0.00000 0.00000 0.00000 -1.00000 0.00000 0.00000 1.00000 0.27144 0.96246 0.00000 0.27144 0.96246 -0.00000 0.00000 0.00000 -1.00000 0.00000 0.00000 1.00000 0.19509 0.98079 0.00000 0.19509 0.98079 -0.00000 0.00000 0.00000 -1.00000 0.00000 0.00000 1.00000 0.11754 0.99307 0.00000 0.11754 0.99307 -0.00000 0.00000 0.00000 -1.00000 0.00000 0.00000 1.00000 0.03926 0.99923 0.00000 0.03926 0.99923 -0.00000 0.00000 0.00000 -1.00000 0.00000 0.00000 1.00000 -0.03926 0.99923 0.00000 -0.03926 0.99923 0.00000 0.00000 0.00000 -1.00000 0.00000 -0.00000 1.00000 -0.11754 0.99307 0.00000 -0.11754 0.99307 0.00000 0.00000 0.00000 -1.00000 0.00000 0.00000 1.00000 -0.19509 0.98079 0.00000 -0.19509 0.98079 0.00000 0.00000 0.00000 -1.00000 0.00000 0.00000 1.00000 -0.27144 0.96246 0.00000 -0.27144 0.96246 0.00000 0.00000 0.00000 -1.00000 0.00000 0.00000 1.00000 -0.34612 0.93819 0.00000 -0.34612 0.93819 0.00000 0.00000 0.00000 -1.00000 0.00000 0.00000 1.00000 -0.41866 0.90814 0.00000 -0.41866 0.90814 0.00000 0.00000 0.00000 -1.00000 0.00000 0.00000 1.00000 -0.48862 0.87250 0.00000 -0.48862 0.87250 0.00000 0.00000 0.00000 -1.00000 0.00000 0.00000 1.00000 -0.55557 0.83147 0.00000 -0.55557 0.83147 0.00000 0.00000 0.00000 -1.00000 0.00000 0.00000 1.00000 -0.61909 0.78532 0.00000 -0.61909 0.78532 0.00000 0.00000 0.00000 -1.00000 0.00000 0.00000 1.00000 -0.67880 0.73432 0.00000 -0.67880 0.73432 0.00000 0.00000 0.00000 -1.00000 0.00000 0.00000 1.00000 -0.73432 0.67880 0.00000 -0.73432 0.67880 0.00000 0.00000 0.00000 -1.00000 0.00000 0.00000 1.00000 -0.78532 0.61909 0.00000 -0.78532 0.61909 0.00000 0.00000 0.00000 -1.00000 0.00000 0.00000 1.00000 -0.83147 0.55557 0.00000 -0.83147 0.55557 0.00000 0.00000 0.00000 -1.00000 0.00000 0.00000 1.00000 -0.87250 0.48862 0.00000 -0.87250 0.48862 0.00000 0.00000 0.00000 -1.00000 0.00000 0.00000 1.00000 -0.90814 0.41866 0.00000 -0.90814 0.41866 0.00000 0.00000 0.00000 -1.00000 0.00000 0.00000 1.00000 -0.93819 0.34612 0.00000 -0.93819 0.34612 0.00000 0.00000 0.00000 -1.00000 0.00000 0.00000 1.00000 -0.96246 0.27144 0.00000 -0.96246 0.27144 0.00000 0.00000 0.00000 -1.00000 0.00000 0.00000 1.00000 -0.98079 0.19509 0.00000 -0.98079 0.19509 0.00000 0.00000 0.00000 -1.00000 0.00000 0.00000 1.00000 -0.99307 0.11754 0.00000 -0.99307 0.11754 0.00000 0.00000 0.00000 -1.00000 0.00000 0.00000 1.00000 -0.99923 0.03926 0.00000 -0.99923 0.03926 0.00000 0.00000 0.00000 -1.00000 0.00000 0.00000 1.00000 -0.99923 -0.03926 0.00000 -0.99923 -0.03926 0.00000 -0.00000 0.00000 -1.00000 0.00000 0.00000 1.00000 -0.99307 -0.11754 0.00000 -0.99307 -0.11754 0.00000 0.00000 0.00000 -1.00000 0.00000 0.00000 1.00000 -0.98079 -0.19509 0.00000 -0.98079 -0.19509 0.00000 0.00000 0.00000 -1.00000 0.00000 0.00000 1.00000 -0.96246 -0.27144 0.00000 -0.96246 -0.27144 0.00000 0.00000 0.00000 -1.00000 0.00000 0.00000 1.00000 -0.93819 -0.34612 0.00000 -0.93819 -0.34612 0.00000 0.00000 0.00000 -1.00000 0.00000 0.00000 1.00000 -0.90814 -0.41866 0.00000 -0.90814 -0.41866 0.00000 0.00000 0.00000 -1.00000 0.00000 0.00000 1.00000 -0.87250 -0.48862 0.00000 -0.87250 -0.48862 0.00000 0.00000 0.00000 -1.00000 0.00000 0.00000 1.00000 -0.83147 -0.55557 0.00000 -0.83147 -0.55557 0.00000 0.00000 0.00000 -1.00000 0.00000 0.00000 1.00000 -0.78532 -0.61909 0.00000 -0.78532 -0.61909 0.00000 0.00000 0.00000 -1.00000 0.00000 0.00000 1.00000 -0.73432 -0.67880 0.00000 -0.73432 -0.67880 0.00000 0.00000 0.00000 -1.00000 0.00000 0.00000 1.00000 -0.67880 -0.73432 0.00000 -0.67880 -0.73432 0.00000 0.00000 0.00000 -1.00000 0.00000 0.00000 1.00000 -0.61909 -0.78532 0.00000 -0.61909 -0.78532 0.00000 0.00000 0.00000 -1.00000 0.00000 0.00000 1.00000 -0.55557 -0.83147 0.00000 -0.55557 -0.83147 0.00000 0.00000 0.00000 -1.00000 0.00000 0.00000 1.00000 -0.48862 -0.87250 0.00000 -0.48862 -0.87250 0.00000 0.00000 0.00000 -1.00000 0.00000 0.00000 1.00000 -0.41866 -0.90814 0.00000 -0.41866 -0.90814 0.00000 0.00000 0.00000 -1.00000 0.00000 0.00000 1.00000 -0.34612 -0.93819 0.00000 -0.34612 -0.93819 0.00000 0.00000 0.00000 -1.00000 0.00000 0.00000 1.00000 -0.27144 -0.96246 0.00000 -0.27144 -0.96246 0.00000 0.00000 0.00000 -1.00000 0.00000 0.00000 1.00000 -0.19509 -0.98079 0.00000 -0.19509 -0.98079 0.00000 0.00000 0.00000 -1.00000 0.00000 0.00000 1.00000 -0.11754 -0.99307 0.00000 -0.11754 -0.99307 0.00000 0.00000 0.00000 -1.00000 0.00000 0.00000 1.00000 -0.03926 -0.99923 0.00000 -0.03926 -0.99923 0.00000 0.00000 -0.00000 -1.00000 0.00000 0.00000 1.00000 0.03926 -0.99923 0.00000 0.03926 -0.99923 0.00000 0.00000 0.00000 -1.00000 0.00000 0.00000 1.00000 0.11754 -0.99307 0.00000 0.11754 -0.99307 0.00000 0.00000 0.00000 -1.00000 0.00000 0.00000 1.00000 0.19509 -0.98079 0.00000 0.19509 -0.98079 0.00000 0.00000 0.00000 -1.00000 0.00000 0.00000 1.00000 0.27144 -0.96246 0.00000 0.27144 -0.96246 0.00000 0.00000 0.00000 -1.00000 0.00000 0.00000 1.00000 0.34612 -0.93819 0.00000 0.34612 -0.93819 0.00000 0.00000 0.00000 -1.00000 0.00000 0.00000 1.00000 0.41866 -0.90814 0.00000 0.41866 -0.90814 0.00000 0.00000 0.00000 -1.00000 0.00000 0.00000 1.00000 0.48862 -0.87250 0.00000 0.48862 -0.87250 0.00000 0.00000 0.00000 -1.00000 0.00000 0.00000 1.00000 0.55557 -0.83147 0.00000 0.55557 -0.83147 0.00000 0.00000 0.00000 -1.00000 0.00000 0.00000 1.00000 0.61909 -0.78532 0.00000 0.61909 -0.78532 0.00000 0.00000 0.00000 -1.00000 0.00000 0.00000 1.00000 0.67880 -0.73432 0.00000 0.67880 -0.73432 0.00000 0.00000 0.00000 -1.00000 0.00000 0.00000 1.00000 0.73432 -0.67880 0.00000 0.73432 -0.67880 0.00000 0.00000 0.00000 -1.00000 0.00000 0.00000 1.00000 0.78532 -0.61909 0.00000 0.78532 -0.61909 0.00000 0.00000 0.00000 -1.00000 0.00000 0.00000 1.00000 0.83147 -0.55557 0.00000 0.83147 -0.55557 0.00000 0.00000 0.00000 -1.00000 0.00000 0.00000 1.00000 0.87250 -0.48862 0.00000 0.87250 -0.48862 0.00000 0.00000 0.00000 -1.00000 0.00000 0.00000 1.00000 0.90814 -0.41866 0.00000 0.90814 -0.41866 0.00000 0.00000 0.00000 -1.00000 0.00000 0.00000 1.00000 0.93819 -0.34612 0.00000 0.93819 -0.34612 0.00000 0.00000 0.00000 -1.00000 0.00000 0.00000 1.00000 0.96246 -0.27144 0.00000 0.96246 -0.27144 0.00000 0.00000 0.00000 -1.00000 0.00000 0.00000 1.00000 0.98079 -0.19509 0.00000 0.98079 -0.19509 0.00000 0.00000 0.00000 -1.00000 0.00000 0.00000 1.00000 0.99307 -0.11754 0.00000 0.99307 -0.11754 0.00000 0.00000 0.00000 -1.00000 0.00000 0.00000 1.00000 0.99923 -0.03926 0.00000 0.99923 -0.03926 0.00000 0.00000 0.00000 -1.00000 -0.00000 0.00000 1.00000</float_array><technique_common><accessor source="#normals-array" count="320" stride="3"><param name="X" type="float"/><param name="Y" type="float"/><param name="Z" type="float"/></accessor></technique_common></source>
<vertices id="vertices"><input semantic="POSITION" source="#positions"/></vertices><triangles count="320"><input semantic="VERTEX" source="#vertices" offset="0"/><input semantic="NORMAL" source="#normals" offset="1"/><p>0 0 1 0 81 0 0 1 81 1 80 1 160 2 1 2 0 2 161 3 80 3 81 3 1 4 2 4 82 4 1 5 82 5 81 5 160 6 2 6 1 6 161 7 81 7 82 7 2 8 3 8 83 8 2 9 83 9 82 9 160 10 3 10 2 10 161 11 82 11 83 11 3 12 4 12 84 12 3 13 84 13 83 13 160 14 4 14 3 14 161 15 83 15 84 15 4 16 5 16 85 16 4 17 85 17 84 17 160 18 5 18 4 18 161 19 84 19 85 19 5 20 6 20 86 20 5 21 86 21 85 21 160 22 6 22 5 22 161 23 85 23 86 23 6 24 7 24 87 24 6 25 87 25 86 25 160 26 7 26 6 26 161 27 86 27 87 27 7 28 8 28 88 28 7 29 88 29 87 29 160 30 8 30 7 30 161 31 87 31 88 31 8 32 9 32 89 32 8 33 89 33 88 33 160 34 9 34 8 34 161 35 88 35 89 35 9 36 10 36 90 36 9 37 90 37 89 37 160 38 10 38 9 38 161 39 89 39 90 39 10 40 11 40 91 40 10 41 91 41 90 41 160 42 11 42 10 42 161 43 90 43 91 43 11 44 12 44 92 44 11 45 92 45 91 45 160 46 12 46 11 46 161 47 91 47 92 47 12 48 13 48 93 48 12 49 93 49 92 49 160 50 13 50 12 50 161 51 92 51 93 51 13 52 14 52 94 52 13 53 94 53 93 53 160 54 14 54 13 54 161 55 93 55 94 55 14 56 15 56 95 56 14 57 95 57 94 57 160 58 15 58 14 58 161 59 94 59 95 59 15 60 16 60 96 60 15 61 96 61 95 61 160 62 16 62 15 62 161 63 95 63 96 63 16 64 17 64 97 64 16 65 97 65 96 65 160 66 17 66 16 66 161 67 96 67 97 67 17 68 18 68 98 68 17 69 98 69 97 69 160 70 18 70 17 70 161 71 97 71 98 71 18 72 19 72 99 72 18 73 99 73 98 73 160 74 19 74 18 74 161 75 98 75 99 75 19 76 20 76 100 76 19 77 100 77 99 77 160 78 20 78 19 78 161 79 99 79 100 79 20 80 21 80 101 80 20 81 101 81 100 81 160 82 21 82 20 82 161 83 100 83 101 83 21 84 22 84 102 84 21 85 102 85 101 85 160 86 22 86 21 86 161 87 101 87 102 87 22 88 23 88 103 88 22 89 103 89 102 89 160 90 23 90 22 90 161 91 102 91 103 91 23 92 24 92 104 92 23 93 104 93 103 93 160 94 24 94 23 94 161 95 103 95 104 95 24 96 25 96 105 96 24 97 105 97 104 97 160 98 25 98 24 98 161 99 104 99 105 99 25 100 26 100 106 100 25 101 106 101 105 101 160 102 26 102 25 102 161 103 105 103 106 103 26 104 27 104 107 104 26 105 107 105 106 105 160 106 27 106 26 106 161 107 106 107 107 107 27 108 28 108 108 108 27 109 108 109 107 109 160 110 28 110 27 110 161 111 107 111 108 111 28 112 29 112 109 112 28 113 109 113 108 113 160 114 29 114 28 114 161 115 108 115 109 115 29 116 30 116 110 116 29 117 110 117 109 117 160 118 30 118 29 118 161 119 109 119 110 119 30 120 31 120 111 120 30 121 111 121 110 121 160 122 31 122 30 122 161 123 110 123 111 123 31 124 32 124 112 124 31 125 112 125 111 125 160 126 32 126 31 126 161 127 111 127 112 127 32 128 33 128 113 128 32 129 113 129 112 129 160 130 33 130 32 130 161 131 112 131 113 131 33 132 34 132 114 132 33 133 114 133 113 133 160 134 34 134 33 134 161 135 113 135 114 135 34 136 35 136 115 136 34 137 115 137 114 137 160 138 35 138 34 138 161 139 114 139 115 139 35 140 36 140 116 140 35 141 116 141 115 141 160 142 36 142 35 142 161 143 115 143 116 143 36 144 37 144 117 144 36 145 117 145 116 145 160 146 37 146 36 146 161 147 116 147 117 147 37 148 38 148 118 148 37 149 118 149 117 149 160 150 38 150 37 150 161 151 117 151 118 151 38 152 39 152 119 152 38 153 119 153 118 153 160 154 39 154 38 154 161 155 118 155 119 155 39 156 40 156 120 156 39 157 120 157 119 157 160 158 40 158 39 158 161 159 119 159 120 159 40 160 41 160 121 160 40 161 121 161 120 161 160 162 41 162 40 162 161 163 120 163 121 163 41 164 42 164 122 164 41 165 122 165 121 165 160 166 42 166 41 166 161 167 121 167 122 167 42 168 43 168 123 168 42 169 123 169 122 169 160 170 43 170 42 170 161 171 122 171 123 171 43 172 44 172 124 172 43 173 124 173 123 173 160 174 44 174 43 174 161 175 123 175 124 175 44 176 45 176 125 176 44 177 125 177 124 177 160 178 45 178 44 178 161 179 124 179 125 179 45 180 46 180 126 180 45 181 126 181 125 181 160 182 46 182 45 182 161 183 125 183 126 183 46 184 47 184 127 184 46 185 127 185 126 185 160 186 47 186 46 186 161 187 126 187 127 187 47 188 48 188 128 188 47 189 128 189 127 189 160 190 48 190 47 190 161 191 127 191 128 191 48 192 49 192 129 192 48 193 129 193 128 193 160 194 49 194 48 194 161 195 128 195 129 195 49 196 50 196 130 196 49 197 130 197 129 197 160 198 50 198 49 198 161 199 129 199 130 199 50 200 51 200 131 200 50 201 131 201 130 201 160 202 51 202 50 202 161 203 130 203 131 203 51 204 52 204 132 204 51 205 132 205 131 205 160 206 52 206 51 206 161 207 131 207 132 207 52 208 53 208 133 208 52 209 133 209 132 209 160 210 53 210 52 210 161 211 132 211 133 211 53 212 54 212 134 212 53 213 134 213 133 213 160 214 54 214 53 214 161 215 133 215 134 215 54 216 55 216 135 216 54 217 135 217 134 217 160 218 55 218 54 218 161 219 134 219 135 219 55 220 56 220 136 220 55 221 136 221 135 221 160 222 56 222 55 222 161 223 135 223 136 223 56 224 57 224 137 224 56 225 137 225 136 225 160 226 57 226 56 226 161 227 136 227 137 227 57 228 58 228 138 228 57 229 138 229 137 229 160 230 58 230 57 230 161 231 137 231 138 231 58 232 59 232 139 232 58 233 139 233 138 233 160 234 59 234 58 234 161 235 138 235 139 235 59 236 60 236 140 236 59 237 140 237 139 237 160 238 60 238 59 238 161 239 139 239 140 239 60 240 61 240 141 240 60 241 141 241 140 241 160 242 61 242 60 242 161 243 140 243 141 243 61 244 62 244 142 244 61 245 142 245 141 245 160 246 62 246 61 246 161 247 141 247 142 247 62 248 63 248 143 248 62 249 143 249 142 249 160 250 63 250 62 250 161 251 142 251 143 251 63 252 64 252 144 252 63 253 144 253 143 253 160 254 64 254 63 254 161 255 143 255 144 255 64 256 65 256 145 256 64 257 145 257 144 257 160 258 65 258 64 258 161 259 144 259 145 259 65 260 66 260 146 260 65 261 146 261 145 261 160 262 66 262 65 262 161 263 145 263 146 263 66 264 67 264 147 264 66 265 147 265 146 265 160 266 67 266 66 266 161 267 146 267 147 267 67 268 68 268 148 268 67 269 148 269 147 269 160 270 68 270 67 270 161 271 147 271 148 271 68 272 69 272 149 272 68 273 149 273 148 273 160 274 69 274 68 274 161 275 148 275 149 275 69 276 70 276 150 276 69 277 150 277 149 277 160 278 70 278 69 278 161 279 149 279 150 279 70 280 71 280 151 280 70 281 151 281 150 281 160 282 71 282 70 282 161 283 150 283 151 283 71 284 72 284 152 284 71 285 152 285 151 285 160 286 72 286 71 286 161 287 151 287 152 287 72 288 73 288 153 288 72 289 153 289 152 289 160 290 73 290 72 290 161 291 152 291 153 291 73 292 74 292 154 292 73 293 154 293 153 293 160 294 74 294 73 294 161 295 153 295 154 295 74 296 75 296 155 296 74 297 155 297 154 297 160 298 75 298 74 298 161 299 154 299 155 299 75 300 76 300 156 300 75 301 156 301 155 301 160 302 76 302 75 302 161 303 155 303 156 303 76 304 77 304 157 304 76 305 157 305 156 305 160 306 77 306 76 306 161 307 156 307 157 307 77 308 78 308 158 308 77 309 158 309 157 309 160 310 78 310 77 310 161 311 157 311 158 311 78 312 79 312 159 312 78 313 159 313 158 313 160 314 79 314 78 314 161 315 158 315 159 315 79 316 0 316 80 316 79 317 80 317 159 317 160 318 0 318 79 318 161 319 159 319 80 319</p></triangles>
</mesh></geometry></library_geometries><library_visual_scenes><visual_scene id="Scene"><node id="mesh"><instance_geometry url="#geometry"/></node></visual_scene></library_visual_scenes><scene><instance_visual_scene url="#Scene"/></scene></COLLADA>