<?xml version="1.0" encoding="UTF-8"?>
<COLLADA xmlns="http://www.collada.org/2005/11/COLLADASchema" version="1.4.1">
<asset><contributor><authoring_tool>Summit Estate procedural mesh exporter</authoring_tool></contributor><created>2026-09-11T00:00:00Z</created><modified>2026-09-11T00:00:00Z</modified><unit name="meter" meter="1"/><up_axis>Z_UP</up_axis></asset>
<library_geometries><geometry id="geometry" name="geometry"><mesh>
<source id="positions"><float_array id="positions-array" count="858">166.70000 12.00000 80.64000 167.01820 12.00000 80.71029 166.92500 12.15000 80.71029 166.70000 12.21213 80.71029 166.47500 12.15000 80.71029 166.38180 12.00000 80.71029 166.47500 11.85000 80.71029 166.70000 11.78787 80.71029 166.92500 11.85000 80.71029 167.15000 12.00000 80.88000 167.01820 12.21213 80.88000 166.70000 12.30000 80.88000 166.38180 12.21213 80.88000 166.25000 12.00000 80.88000 166.38180 11.78787 80.88000 166.70000 11.70000 80.88000 167.01820 11.78787 80.88000 167.01820 12.00000 81.04971 166.92500 12.15000 81.04971 166.70000 12.21213 81.04971 166.47500 12.15000 81.04971 166.38180 12.00000 81.04971 166.47500 11.85000 81.04971 166.70000 11.78787 81.04971 166.92500 11.85000 81.04971 166.70000 12.00000 81.12000 167.00950 12.64877 80.64000 167.32770 12.64877 80.71029 167.23450 12.79877 80.71029 167.00950 12.86090 80.71029 166.78450 12.79877 80.71029 166.69131 12.64877 80.71029 166.78450 12.49877 80.71029 167.00950 12.43664 80.71029 167.23450 12.49877 80.71029 167.45950 12.64877 80.88000 167.32770 12.86090 80.88000 167.00950 12.94877 80.88000 166.69131 12.86090 80.88000 166.55950 12.64877 80.88000 166.69131 12.43664 80.88000 167.00950 12.34877 80.88000 167.32770 12.43664 80.88000 167.32770 12.64877 81.04971 167.23450 12.79877 81.04971 167.00950 12.86090 81.04971 166.78450 12.79877 81.04971 166.69131 12.64877 81.04971 166.78450 12.49877 81.04971 167.00950 12.43664 81.04971 167.23450 12.49877 81.04971 167.00950 12.64877 81.12000 166.70621 13.54637 80.64000 167.02440 13.54637 80.71029 166.93121 13.69637 80.71029 166.70621 13.75851 80.71029 166.48121 13.69637 80.71029 166.38801 13.54637 80.71029 166.48121 13.39637 80.71029 166.70621 13.33424 80.71029 166.93121 13.39637 80.71029 167.15621 13.54637 80.88000 167.02440 13.75851 80.88000 166.70621 13.84637 80.88000 166.38801 13.75851 80.88000 166.25621 13.54637 80.88000 166.38801 13.33424 80.88000 166.70621 13.24637 80.88000 167.02440 13.33424 80.88000 167.02440 13.54637 81.04971 166.93121 13.69637 81.04971 166.70621 13.75851 81.04971 166.48121 13.69637 81.04971 166.38801 13.54637 81.04971 166.48121 13.39637 81.04971 166.70621 13.33424 81.04971 166.93121 13.39637 81.04971 166.70621 13.54637 81.12000 165.90038 12.69288 80.64000 166.21858 12.69288 80.71029 166.12538 12.84288 80.71029 165.90038 12.90501 80.71029 165.67538 12.84288 80.71029 165.58218 12.69288 80.71029 165.67538 12.54288 80.71029 165.90038 12.48074 80.71029 166.12538 12.54288 80.71029 166.35038 12.69288 80.88000 166.21858 12.90501 80.88000 165.90038 12.99288 80.88000 165.58218 12.90501 80.88000 165.45038 12.69288 80.88000 165.58218 12.48074 80.88000 165.90038 12.39288 80.88000 166.21858 12.48074 80.88000 166.21858 12.69288 81.04971 166.12538 12.84288 81.04971 165.90038 12.90501 81.04971 165.67538 12.84288 81.04971 165.58218 12.69288 81.04971 165.67538 12.54288 81.04971 165.90038 12.48074 81.04971 166.12538 12.54288 81.04971 165.90038 12.69288 81.12000 165.21417 12.90690 80.64000 165.53237 12.90690 80.71029 165.43917 13.05690 80.71029 165.21417 13.11903 80.71029 164.98917 13.05690 80.71029 164.89597 12.90690 80.71029 164.98917 12.75690 80.71029 165.21417 12.69477 80.71029 165.43917 12.75690 80.71029 165.66417 12.90690 80.88000 165.53237 13.11903 80.88000 165.21417 13.20690 80.88000 164.89597 13.11903 80.88000 164.76417 12.90690 80.88000 164.89597 12.69477 80.88000 165.21417 12.60690 80.88000 165.53237 12.69477 80.88000 165.53237 12.90690 81.04971 165.43917 13.05690 81.04971 165.21417 13.11903 81.04971 164.98917 13.05690 81.04971 164.89597 12.90690 81.04971 164.98917 12.75690 81.04971 165.21417 12.69477 81.04971 165.43917 12.75690 81.04971 165.21417 12.90690 81.12000 164.36886 12.47895 80.64000 164.68706 12.47895 80.71029 164.59386 12.62895 80.71029 164.36886 12.69108 80.71029 164.14386 12.62895 80.71029 164.05066 12.47895 80.71029 164.14386 12.32895 80.71029 164.36886 12.26681 80.71029 164.59386 12.32895 80.71029 164.81886 12.47895 80.88000 164.68706 12.69108 80.88000 164.36886 12.77895 80.88000 164.05066 12.69108 80.88000 163.91886 12.47895 80.88000 164.05066 12.26681 80.88000 164.36886 12.17895 80.88000 164.68706 12.26681 80.88000 164.68706 12.47895 81.04971 164.59386 12.62895 81.04971 164.36886 12.69108 81.04971 164.14386 12.62895 81.04971 164.05066 12.47895 81.04971 164.14386 12.32895 81.04971 164.36886 12.26681 81.04971 164.59386 12.32895 81.04971 164.36886 12.47895 81.12000 165.32835 11.80279 80.64000 165.64655 11.80279 80.71029 165.55335 11.95279 80.71029 165.32835 12.01492 80.71029 165.10335 11.95279 80.71029 165.01016 11.80279 80.71029 165.10335 11.65279 80.71029 165.32835 11.59066 80.71029 165.55335 11.65279 80.71029 165.77835 11.80279 80.88000 165.64655 12.01492 80.88000 165.32835 12.10279 80.88000 165.01016 12.01492 80.88000 164.87835 11.80279 80.88000 165.01016 11.59066 80.88000 165.32835 11.50279 80.88000 165.64655 11.59066 80.88000 165.64655 11.80279 81.04971 165.55335 11.95279 81.04971 165.32835 12.01492 81.04971 165.10335 11.95279 81.04971 165.01016 11.80279 81.04971 165.10335 11.65279 81.04971 165.32835 11.59066 81.04971 165.55335 11.65279 81.04971 165.32835 11.80279 81.12000 165.21417 11.09310 80.64000 165.53237 11.09310 80.71029 165.43917 11.24310 80.71029 165.21417 11.30523 80.71029 164.98917 11.24310 80.71029 164.89597 11.09310 80.71029 164.98917 10.94310 80.71029 165.21417 10.88097 80.71029 165.43917 10.94310 80.71029 165.66417 11.09310 80.88000 165.53237 11.30523 80.88000 165.21417 11.39310 80.88000 164.89597 11.30523 80.88000 164.76417 11.09310 80.88000 164.89597 10.88097 80.88000 165.21417 10.79310 80.88000 165.53237 10.88097 80.88000 165.53237 11.09310 81.04971 165.43917 11.24310 81.04971 165.21417 11.30523 81.04971 164.98917 11.24310 81.04971 164.89597 11.09310 81.04971 164.98917 10.94310 81.04971 165.21417 10.88097 81.04971 165.43917 10.94310 81.04971 165.21417 11.09310 81.12000 165.75806 10.31730 80.64000 166.07626 10.31730 80.71029 165.98306 10.46730 80.71029 165.75806 10.52944 80.71029 165.53306 10.46730 80.71029 165.43987 10.31730 80.71029 165.53306 10.16730 80.71029 165.75806 10.10517 80.71029 165.98306 10.16730 80.71029 166.20806 10.31730 80.88000 166.07626 10.52944 80.88000 165.75806 10.61730 80.88000 165.43987 10.52944 80.88000 165.30806 10.31730 80.88000 165.43987 10.10517 80.88000 165.75806 10.01730 80.88000 166.07626 10.10517 80.88000 166.07626 10.31730 81.04971 165.98306 10.46730 81.04971 165.75806 10.52944 81.04971 165.53306 10.46730 81.04971 165.43987 10.31730 81.04971 165.53306 10.16730 81.04971 165.75806 10.10517 81.04971 165.98306 10.16730 81.04971 165.75806 10.31730 81.12000 166.29079 11.36326 80.64000 166.60899 11.36326 80.71029 166.51579 11.51326 80.71029 166.29079 11.57539 80.71029 166.06579 11.51326 80.71029 165.97259 11.36326 80.71029 166.06579 11.21326 80.71029 166.29079 11.15113 80.71029 166.51579 11.21326 80.71029 166.74079 11.36326 80.88000 166.60899 11.57539 80.88000 166.29079 11.66326 80.88000 165.97259 11.57539 80.88000 165.84079 11.36326 80.88000 165.97259 11.15113 80.88000 166.29079 11.06326 80.88000 166.60899 11.15113 80.88000 166.60899 11.36326 81.04971 166.51579 11.51326 81.04971 166.29079 11.57539 81.04971 166.06579 11.51326 81.04971 165.97259 11.36326 81.04971 166.06579 11.21326 81.04971 166.29079 11.15113 81.04971 166.51579 11.21326 81.04971 166.29079 11.36326 81.12000 167.00950 11.35123 80.64000 167.32770 11.35123 80.71029 167.23450 11.50123 80.71029 167.00950 11.56336 80.71029 166.78450 11.50123 80.71029 166.69131 11.35123 80.71029 166.78450 11.20123 80.71029 167.00950 11.13910 80.71029 167.23450 11.20123 80.71029 167.45950 11.35123 80.88000 167.32770 11.56336 80.88000 167.00950 11.65123 80.88000 166.69131 11.56336 80.88000 166.55950 11.35123 80.88000 166.69131 11.13910 80.88000 167.00950 11.05123 80.88000 167.32770 11.13910 80.88000 167.32770 11.35123 81.04971 167.23450 11.50123 81.04971 167.00950 11.56336 81.04971 166.78450 11.50123 81.04971 166.69131 11.35123 81.04971 166.78450 11.20123 81.04971 167.00950 11.13910 81.04971 167.23450 11.20123 81.04971 167.00950 11.35123 81.12000</float_array><technique_common><accessor source="#positions-array" count="286" stride="3"><param name="X" type="float"/><param name="Y" type="float"/><param name="Z" type="float"/></accessor></technique_common></source>
<source id="normals"><float_array id="normals-array" count="1584">0.21380 0.13284 -0.96780 0.70902 0.44053 -0.55066 0.70902 0.44053 -0.55066 0.70902 0.44053 0.55066 0.70902 0.44053 0.55066 0.21380 0.13284 0.96780 0.08653 0.31337 -0.94568 0.23817 0.86247 -0.44656 0.23817 0.86247 -0.44656 0.23817 0.86247 0.44656 0.23817 0.86247 0.44656 0.08653 0.31337 0.94568 -0.08653 0.31337 -0.94568 -0.23817 0.86247 -0.44656 -0.23817 0.86247 -0.44656 -0.23817 0.86247 0.44656 -0.23817 0.86247 0.44656 -0.08653 0.31337 0.94568 -0.21380 0.13284 -0.96780 -0.70902 0.44053 -0.55066 -0.70902 0.44053 -0.55066 -0.70902 0.44053 0.55066 -0.70902 0.44053 0.55066 -0.21380 0.13284 0.96780 -0.21380 -0.13284 -0.96780 -0.70902 -0.44053 -0.55066 -0.70902 -0.44053 -0.55066 -0.70902 -0.44053 0.55066 -0.70902 -0.44053 0.55066 -0.21380 -0.13284 0.96780 -0.08653 -0.31337 -0.94568 -0.23817 -0.86247 -0.44656 -0.23817 -0.86247 -0.44656 -0.23817 -0.86247 0.44656 -0.23817 -0.86247 0.44656 -0.08653 -0.31337 0.94568 0.08653 -0.31337 -0.94568 0.23817 -0.86247 -0.44656 0.23817 -0.86247 -0.44656 0.23817 -0.86247 0.44656 0.23817 -0.86247 0.44656 0.08653 -0.31337 0.94568 0.21380 -0.13284 -0.96780 0.70902 -0.44053 -0.55066 0.70902 -0.44053 -0.55066 0.70902 -0.44053 0.55066 0.70902 -0.44053 0.55066 0.21380 -0.13284 0.96780 0.21380 0.13284 -0.96780 0.70902 0.44053 -0.55066 0.70902 0.44053 -0.55066 0.70902 0.44053 0.55066 0.70902 0.44053 0.55066 0.21380 0.13284 0.96780 0.08653 0.31337 -0.94568 0.23817 0.86247 -0.44656 0.23817 0.86247 -0.44656 0.23817 0.86247 0.44656 0.23817 0.86247 0.44656 0.08653 0.31337 0.94568 -0.08653 0.31337 -0.94568 -0.23817 0.86247 -0.44656 -0.23817 0.86247 -0.44656 -0.23817 0.86247 0.44656 -0.23817 0.86247 0.44656 -0.08653 0.31337 0.94568 -0.21380 0.13284 -0.96780 -0.70902 0.44053 -0.55066 -0.70902 0.44053 -0.55066 -0.70902 0.44053 0.55066 -0.70902 0.44053 0.55066 -0.21380 0.13284 0.96780 -0.21380 -0.13284 -0.96780 -0.70902 -0.44053 -0.55066 -0.70902 -0.44053 -0.55066 -0.70902 -0.44053 0.55066 -0.70902 -0.44053 0.55066 -0.21380 -0.13284 0.96780 -0.08653 -0.31337 -0.94568 -0.23817 -0.86247 -0.44656 -0.23817 -0.86247 -0.44656 -0.23817 -0.86247 0.44656 -0.23817 -0.86247 0.44656 -0.08653 -0.31337 0.94568 0.08653 -0.31337 -0.94568 0.23817 -0.86247 -0.44656 0.23817 -0.86247 -0.44656 0.23817 -0.86247 0.44656 0.23817 -0.86247 0.44656 0.08653 -0.31337 0.94568 0.21380 -0.13284 -0.96780 0.70902 -0.44053 -0.55066 0.70902 -0.44053 -0.55066 0.70902 -0.44053 0.55066 0.70902 -0.44053 0.55066 0.21380 -0.13284 0.96780 0.21380 0.13284 -0.96780 0.70902 0.44053 -0.55066 0.70902 0.44053 -0.55066 0.70902 0.44053 0.55066 0.70902 0.44053 0.55066 0.21380 0.13284 0.96780 0.08653 0.31337 -0.94568 0.23817 0.86247 -0.44656 0.23817 0.86247 -0.44656 0.23817 0.86247 0.44656 0.23817 0.86247 0.44656 0.08653 0.31337 0.94568 -0.08653 0.31337 -0.94568 -0.23817 0.86247 -0.44656 -0.23817 0.86247 -0.44656 -0.23817 0.86247 0.44656 -0.23817 0.86247 0.44656 -0.08653 0.31337 0.94568 -0.21380 0.13284 -0.96780 -0.70902 0.44053 -0.55066 -0.70902 0.44053 -0.55066 -0.70902 0.44053 0.55066 -0.70902 0.44053 0.55066 -0.21380 0.13284 0.96780 -0.21380 -0.13284 -0.96780 -0.70902 -0.44053 -0.55066 -0.70902 -0.44053 -0.55066 -0.70902 -0.44053 0.55066 -0.70902 -0.44053 0.55066 -0.21380 -0.13284 0.96780 -0.08653 -0.31337 -0.94568 -0.23817 -0.86247 -0.44656 -0.23817 -0.86247 -0.44656 -0.23817 -0.86247 0.44656 -0.23817 -0.86247 0.44656 -0.08653 -0.31337 0.94568 0.08653 -0.31337 -0.94568 0.23817 -0.86247 -0.44656 0.23817 -0.86247 -0.44656 0.23817 -0.86247 0.44656 0.23817 -0.86247 0.44656 0.08653 -0.31337 0.94568 0.21380 -0.13284 -0.96780 0.70902 -0.44053 -0.55066 0.70902 -0.44053 -0.55066 0.70902 -0.44053 0.55066 0.70902 -0.44053 0.55066 0.21380 -0.13284 0.96780 0.21380 0.13284 -0.96780 0.70902 0.44053 -0.55066 0.70902 0.44053 -0.55066 0.70902 0.44053 0.55066 0.70902 0.44053 0.55066 0.21380 0.13284 0.96780 0.08653 0.31337 -0.94568 0.23817 0.86247 -0.44656 0.23817 0.86247 -0.44656 0.23817 0.86247 0.44656 0.23817 0.86247 0.44656 0.08653 0.31337 0.94568 -0.08653 0.31337 -0.94568 -0.23817 0.86247 -0.44656 -0.23817 0.86247 -0.44656 -0.23817 0.86247 0.44656 -0.23817 0.86247 0.44656 -0.08653 0.31337 0.94568 -0.21380 0.13284 -0.96780 -0.70902 0.44053 -0.55066 -0.70902 0.44053 -0.55066 -0.70902 0.44053 0.55066 -0.70902 0.44053 0.55066 -0.21380 0.13284 0.96780 -0.21380 -0.13284 -0.96780 -0.70902 -0.44053 -0.55066 -0.70902 -0.44053 -0.55066 -0.70902 -0.44053 0.55066 -0.70902 -0.44053 0.55066 -0.21380 -0.13284 0.96780 -0.08653 -0.31337 -0.94568 -0.23817 -0.86247 -0.44656 -0.23817 -0.86247 -0.44656 -0.23817 -0.86247 0.44656 -0.23817 -0.86247 0.44656 -0.08653 -0.31337 0.94568 0.08653 -0.31337 -0.94568 0.23817 -0.86247 -0.44656 0.23817 -0.86247 -0.44656 0.23817 -0.86247 0.44656 0.23817 -0.86247 0.44656 0.08653 -0.31337 0.94568 0.21380 -0.13284 -0.96780 0.70902 -0.44053 -0.55066 0.70902 -0.44053 -0.55066 0.70902 -0.44053 0.55066 0.70902 -0.44053 0.55066 0.21380 -0.13284 0.96780 0.21380 0.13284 -0.96780 0.70902 0.44053 -0.55066 0.70902 0.44053 -0.55066 0.70902 0.44053 0.55066 0.70902 0.44053 0.55066 0.21380 0.13284 0.96780 0.08653 0.31337 -0.94568 0.23817 0.86247 -0.44656 0.23817 0.86247 -0.44656 0.23817 0.86247 0.44656 0.23817 0.86247 0.44656 0.08653 0.31337 0.94568 -0.08653 0.31337 -0.94568 -0.23817 0.86247 -0.44656 -0.23817 0.86247 -0.44656 -0.23817 0.86247 0.44656 -0.23817 0.86247 0.44656 -0.08653 0.31337 0.94568 -0.21380 0.13284 -0.96780 -0.70902 0.44053 -0.55066 -0.70902 0.44053 -0.55066 -0.70902 0.44053 0.55066 -0.70902 0.44053 0.55066 -0.21380 0.13284 0.96780 -0.21380 -0.13284 -0.96780 -0.70902 -0.44053 -0.55066 -0.70902 -0.44053 -0.55066 -0.70902 -0.44053 0.55066 -0.70902 -0.44053 0.55066 -0.21380 -0.13284 0.96780 -0.08653 -0.31337 -0.94568 -0.23817 -0.86247 -0.44656 -0.23817 -0.86247 -0.44656 -0.23817 -0.86247 0.44656 -0.23817 -0.86247 0.44656 -0.08653 -0.31337 0.94568 0.08653 -0.31337 -0.94568 0.23817 -0.86247 -0.44656 0.23817 -0.86247 -0.44656 0.23817 -0.86247 0.44656 0.23817 -0.86247 0.44656 0.08653 -0.31337 0.94568 0.21380 -0.13284 -0.96780 0.70902 -0.44053 -0.55066 0.70902 -0.44053 -0.55066 0.70902 -0.44053 0.55066 0.70902 -0.44053 0.55066 0.21380 -0.13284 0.96780 0.21380 0.13284 -0.96780 0.70902 0.44053 -0.55066 0.70902 0.44053 -0.55066 0.70902 0.44053 0.55066 0.70902 0.44053 0.55066 0.21380 0.13284 0.96780 0.08653 0.31337 -0.94568 0.23817 0.86247 -0.44656 0.23817 0.86247 -0.44656 0.23817 0.86247 0.44656 0.23817 0.86247 0.44656 0.08653 0.31337 0.94568 -0.08653 0.31337 -0.94568 -0.23817 0.86247 -0.44656 -0.23817 0.86247 -0.44656 -0.23817 0.86247 0.44656 -0.23817 0.86247 0.44656 -0.08653 0.31337 0.94568 -0.21380 0.13284 -0.96780 -0.70902 0.44053 -0.55066 -0.70902 0.44053 -0.55066 -0.70902 0.44053 0.55066 -0.70902 0.44053 0.55066 -0.21380 0.13284 0.96780 -0.21380 -0.13284 -0.96780 -0.70902 -0.44053 -0.55066 -0.70902 -0.44053 -0.55066 -0.70902 -0.44053 0.55066 -0.70902 -0.44053 0.55066 -0.21380 -0.13284 0.96780 -0.08653 -0.31337 -0.94568 -0.23817 -0.86247 -0.44656 -0.23817 -0.86247 -0.44656 -0.23817 -0.86247 0.44656 -0.23817 -0.86247 0.44656 -0.08653 -0.31337 0.94568 0.08653 -0.31337 -0.94568 0.23817 -0.86247 -0.44656 0.23817 -0.86247 -0.44656 0.23817 -0.86247 0.44656 0.23817 -0.86247 0.44656 0.08653 -0.31337 0.94568 0.21380 -0.13284 -0.96780 0.70902 -0.44053 -0.55066 0.70902 -0.44053 -0.55066 0.70902 -0.44053 0.55066 0.70902 -0.44053 0.55066 0.21380 -0.13284 0.96780 0.21380 0.13284 -0.96780 0.70902 0.44053 -0.55066 0.70902 0.44053 -0.55066 0.70902 0.44053 0.55066 0.70902 0.44053 0.55066 0.21380 0.13284 0.96780 0.08653 0.31337 -0.94568 0.23817 0.86247 -0.44656 0.23817 0.86247 -0.44656 0.23817 0.86247 0.44656 0.23817 0.86247 0.44656 0.08653 0.31337 0.94568 -0.08653 0.31337 -0.94568 -0.23817 0.86247 -0.44656 -0.23817 0.86247 -0.44656 -0.23817 0.86247 0.44656 -0.23817 0.86247 0.44656 -0.08653 0.31337 0.94568 -0.21380 0.13284 -0.96780 -0.70902 0.44053 -0.55066 -0.70902 0.44053 -0.55066 -0.70902 0.44053 0.55066 -0.70902 0.44053 0.55066 -0.21380 0.13284 0.96780 -0.21380 -0.13284 -0.96780 -0.70902 -0.44053 -0.55066 -0.70902 -0.44053 -0.55066 -0.70902 -0.44053 0.55066 -0.70902 -0.44053 0.55066 -0.21380 -0.13284 0.96780 -0.08653 -0.31337 -0.94568 -0.23817 -0.86247 -0.44656 -0.23817 -0.86247 -0.44656 -0.23817 -0.86247 0.44656 -0.23817 -0.86247 0.44656 -0.08653 -0.31337 0.94568 0.08653 -0.31337 -0.94568 0.23817 -0.86247 -0.44656 0.23817 -0.86247 -0.44656 0.23817 -0.86247 0.44656 0.23817 -0.86247 0.44656 0.08653 -0.31337 0.94568 0.21380 -0.13284 -0.96780 0.70902 -0.44053 -0.55066 0.70902 -0.44053 -0.55066 0.70902 -0.44053 0.55066 0.70902 -0.44053 0.55066 0.21380 -0.13284 0.96780 0.21380 0.13284 -0.96780 0.70902 0.44053 -0.55066 0.70902 0.44053 -0.55066 0.70902 0.44053 0.55066 0.70902 0.44053 0.55066 0.21380 0.13284 0.96780 0.08653 0.31337 -0.94568 0.23817 0.86247 -0.44656 0.23817 0.86247 -0.44656 0.23817 0.86247 0.44656 0.23817 0.86247 0.44656 0.08653 0.31337 0.94568 -0.08653 0.31337 -0.94568 -0.23817 0.86247 -0.44656 -0.23817 0.86247 -0.44656 -0.23817 0.86247 0.44656 -0.23817 0.86247 0.44656 -0.08653 0.31337 0.94568 -0.21380 0.13284 -0.96780 -0.70902 0.44053 -0.55066 -0.70902 0.44053 -0.55066 -0.70902 0.44053 0.55066 -0.70902 0.44053 0.55066 -0.21380 0.13284 0.96780 -0.21380 -0.13284 -0.96780 -0.70902 -0.44053 -0.55066 -0.70902 -0.44053 -0.55066 -0.70902 -0.44053 0.55066 -0.70902 -0.44053 0.55066 -0.21380 -0.13284 0.96780 -0.08653 -0.31337 -0.94568 -0.23817 -0.86247 -0.44656 -0.23817 -0.86247 -0.44656 -0.23817 -0.86247 0.44656 -0.23817 -0.86247 0.44656 -0.08653 -0.31337 0.94568 0.08653 -0.31337 -0.94568 0.23817 -0.86247 -0.44656 0.23817 -0.86247 -0.44656 0.23817 -0.86247 0.44656 0.23817 -0.86247 0.44656 0.08653 -0.31337 0.94568 0.21380 -0.13284 -0.96780 0.70902 -0.44053 -0.55066 0.70902 -0.44053 -0.55066 0.70902 -0.44053 0.55066 0.70902 -0.44053 0.55066 0.21380 -0.13284 0.96780 0.21380 0.13284 -0.96780 0.70902 0.44053 -0.55066 0.70902 0.44053 -0.55066 0.70902 0.44053 0.55066 0.70902 0.44053 0.55066 0.21380 0.13284 0.96780 0.08653 0.31337 -0.94568 0.23817 0.86247 -0.44656 0.23817 0.86247 -0.44656 0.23817 0.86247 0.44656 0.23817 0.86247 0.44656 0.08653 0.31337 0.94568 -0.08653 0.31337 -0.94568 -0.23817 0.86247 -0.44656 -0.23817 0.86247 -0.44656 -0.23817 0.86247 0.44656 -0.23817 0.86247 0.44656 -0.08653 0.31337 0.94568 -0.21380 0.13284 -0.96780 -0.70902 0.44053 -0.55066 -0.70902 0.44053 -0.55066 -0.70902 0.44053 0.55066 -0.70902 0.44053 0.55066 -0.21380 0.13284 0.96780 -0.21380 -0.13284 -0.96780 -0.70902 -0.44053 -0.55066 -0.70902 -0.44053 -0.55066 -0.70902 -0.44053 0.55066 -0.70902 -0.44053 0.55066 -0.21380 -0.13284 0.96780 -0.08653 -0.31337 -0.94568 -0.23817 -0.86247 -0.44656 -0.23817 -0.86247 -0.44656 -0.23817 -0.86247 0.44656 -0.23817 -0.86247 0.44656 -0.08653 -0.31337 0.94568 0.08653 -0.31337 -0.94568 0.23817 -0.86247 -0.44656 0.23817 -0.86247 -0.44656 0.23817 -0.86247 0.44656 0.23817 -0.86247 0.44656 0.08653 -0.31337 0.94568 0.21380 -0.13284 -0.96780 0.70902 -0.44053 -0.55066 0.70902 -0.44053 -0.55066 0.70902 -0.44053 0.55066 0.70902 -0.44053 0.55066 0.21380 -0.13284 0.96780 0.21380 0.13284 -0.96780 0.70902 0.44053 -0.55066 0.70902 0.44053 -0.55066 0.70902 0.44053 0.55066 0.70902 0.44053 0.55066 0.21380 0.13284 0.96780 0.08653 0.31337 -0.94568 0.23817 0.86247 -0.44656 0.23817 0.86247 -0.44656 0.23817 0.86247 0.44656 0.23817 0.86247 0.44656 0.08653 0.31337 0.94568 -0.08653 0.31337 -0.94568 -0.23817 0.86247 -0.44656 -0.23817 0.86247 -0.44656 -0.23817 0.86247 0.44656 -0.23817 0.86247 0.44656 -0.08653 0.31337 0.94568 -0.21380 0.13284 -0.96780 -0.70902 0.44053 -0.55066 -0.70902 0.44053 -0.55066 -0.70902 0.44053 0.55066 -0.70902 0.44053 0.55066 -0.21380 0.13284 0.96780 -0.21380 -0.13284 -0.96780 -0.70902 -0.44053 -0.55066 -0.70902 -0.44053 -0.55066 -0.70902 -0.44053 0.55066 -0.70902 -0.44053 0.55066 -0.21380 -0.13284 0.96780 -0.08653 -0.31337 -0.94568 -0.23817 -0.86247 -0.44656 -0.23817 -0.86247 -0.44656 -0.23817 -0.86247 0.44656 -0.23817 -0.86247 0.44656 -0.08653 -0.31337 0.94568 0.08653 -0.31337 -0.94568 0.23817 -0.86247 -0.44656 0.23817 -0.86247 -0.44656 0.23817 -0.86247 0.44656 0.23817 -0.86247 0.44656 0.08653 -0.31337 0.94568 0.21380 -0.13284 -0.96780 0.70902 -0.44053 -0.55066 0.70902 -0.44053 -0.55066 0.70902 -0.44053 0.55066 0.70902 -0.44053 0.55066 0.21380 -0.13284 0.96780 0.21380 0.13284 -0.96780 0.70902 0.44053 -0.55066 0.70902 0.44053 -0.55066 0.70902 0.44053 0.55066 0.70902 0.44053 0.55066 0.21380 0.13284 0.96780 0.08653 0.31337 -0.94568 0.23817 0.86247 -0.44656 0.23817 0.86247 -0.44656 0.23817 0.86247 0.44656 0.23817 0.86247 0.44656 0.08653 0.31337 0.94568 -0.08653 0.31337 -0.94568 -0.23817 0.86247 -0.44656 -0.23817 0.86247 -0.44656 -0.23817 0.86247 0.44656 -0.23817 0.86247 0.44656 -0.08653 0.31337 0.94568 -0.21380 0.13284 -0.96780 -0.70902 0.44053 -0.55066 -0.70902 0.44053 -0.55066 -0.70902 0.44053 0.55066 -0.70902 0.44053 0.55066 -0.21380 0.13284 0.96780 -0.21380 -0.13284 -0.96780 -0.70902 -0.44053 -0.55066 -0.70902 -0.44053 -0.55066 -0.70902 -0.44053 0.55066 -0.70902 -0.44053 0.55066 -0.21380 -0.13284 0.96780 -0.08653 -0.31337 -0.94568 -0.23817 -0.86247 -0.44656 -0.23817 -0.86247 -0.44656 -0.23817 -0.86247 0.44656 -0.23817 -0.86247 0.44656 -0.08653 -0.31337 0.94568 0.08653 -0.31337 -0.94568 0.23817 -0.86247 -0.44656 0.23817 -0.86247 -0.44656 0.23817 -0.86247 0.44656 0.23817 -0.86247 0.44656 0.08653 -0.31337 0.94568 0.21380 -0.13284 -0.96780 0.70902 -0.44053 -0.55066 0.70902 -0.44053 -0.55066 0.70902 -0.44053 0.55066 0.70902 -0.44053 0.55066 0.21380 -0.13284 0.96780</float_array><technique_common><accessor source="#normals-array" count="528" stride="3"><param name="X" type="float"/><param name="Y" type="float"/><param name="Z" type="float"/></accessor></technique_common></source>
<vertices id="vertices"><input semantic="POSITION" source="#positions"/></vertices><triangles count="528"><input semantic="VERTEX" source="#vertices" offset="0"/><input semantic="NORMAL" source="#normals" offset="1"/><p>0 0 2 0 1 0 1 1 2 1 10 1 1 2 10 2 9 2 9 3 10 3 18 3 9 4 18 4 17 4 17 5 18 5 25 5 0 6 3 6 2 6 2 7 3 7 11 7 2 8 11 8 10 8 10 9 11 9 19 9 10 10 19 10 18 10 18 11 19 11 25 11 0 12 4 12 3 12 3 13 4 13 12 13 3 14 12 14 11 14 11 15 12 15 20 15 11 16 20 16 19 16 19 17 20 17 25 17 0 18 5 18 4 18 4 19 5 19 13 19 4 20 13 20 12 20 12 21 13 21 21 21 12 22 21 22 20 22 20 23 21 23 25 23 0 24 6 24 5 24 5 25 6 25 14 25 5 26 14 26 13 26 13 27 14 27 22 27 13 28 22 28 21 28 21 29 22 29 25 29 0 30 7 30 6 30 6 31 7 31 15 31 6 32 15 32 14 32 14 33 15 33 23 33 14 34 23 34 22 34 22 35 23 35 25 35 0 36 8 36 7 36 7 37 8 37 16 37 7 38 16 38 15 38 15 39 16 39 24 39 15 40 24 40 23 40 23 41 24 41 25 41 0 42 1 42 8 42 8 43 1 43 9 43 8 44 9 44 16 44 16 45 9 45 17 45 16 46 17 46 24 46 24 47 17 47 25 47 26 48 28 48 27 48 27 49 28 49 36 49 27 50 36 50 35 50 35 51 36 51 44 51 35 52 44 52 43 52 43 53 44 53 51 53 26 54 29 54 28 54 28 55 29 55 37 55 28 56 37 56 36 56 36 57 37 57 45 57 36 58 45 58 44 58 44 59 45 59 51 59 26 60 30 60 29 60 29 61 30 61 38 61 29 62 38 62 37 62 37 63 38 63 46 63 37 64 46 64 45 64 45 65 46 65 51 65 26 66 31 66 30 66 30 67 31 67 39 67 30 68 39 68 38 68 38 69 39 69 47 69 38 70 47 70 46 70 46 71 47 71 51 71 26 72 32 72 31 72 31 73 32 73 40 73 31 74 40 74 39 74 39 75 40 75 48 75 39 76 48 76 47 76 47 77 48 77 51 77 26 78 33 78 32 78 32 79 33 79 41 79 32 80 41 80 40 80 40 81 41 81 49 81 40 82 49 82 48 82 48 83 49 83 51 83 26 84 34 84 33 84 33 85 34 85 42 85 33 86 42 86 41 86 41 87 42 87 50 87 41 88 50 88 49 88 49 89 50 89 51 89 26 90 27 90 34 90 34 91 27 91 35 91 34 92 35 92 42 92 42 93 35 93 43 93 42 94 43 94 50 94 50 95 43 95 51 95 52 96 54 96 53 96 53 97 54 97 62 97 53 98 62 98 61 98 61 99 62 99 70 99 61 100 70 100 69 100 69 101 70 101 77 101 52 102 55 102 54 102 54 103 55 103 63 103 54 104 63 104 62 104 62 105 63 105 71 105 62 106 71 106 70 106 70 107 71 107 77 107 52 108 56 108 55 108 55 109 56 109 64 109 55 110 64 110 63 110 63 111 64 111 72 111 63 112 72 112 71 112 71 113 72 113 77 113 52 114 57 114 56 114 56 115 57 115 65 115 56 116 65 116 64 116 64 117 65 117 73 117 64 118 73 118 72 118 72 119 73 119 77 119 52 120 58 120 57 120 57 121 58 121 66 121 57 122 66 122 65 122 65 123 66 123 74 123 65 124 74 124 73 124 73 125 74 125 77 125 52 126 59 126 58 126 58 127 59 127 67 127 58 128 67 128 66 128 66 129 67 129 75 129 66 130 75 130 74 130 74 131 75 131 77 131 52 132 60 132 59 132 59 133 60 133 68 133 59 134 68 134 67 134 67 135 68 135 76 135 67 136 76 136 75 136 75 137 76 137 77 137 52 138 53 138 60 138 60 139 53 139 61 139 60 140 61 140 68 140 68 141 61 141 69 141 68 142 69 142 76 142 76 143 69 143 77 143 78 144 80 144 79 144 79 145 80 145 88 145 79 146 88 146 87 146 87 147 88 147 96 147 87 148 96 148 95 148 95 149 96 149 103 149 78 150 81 150 80 150 80 151 81 151 89 151 80 152 89 152 88 152 88 153 89 153 97 153 88 154 97 154 96 154 96 155 97 155 103 155 78 156 82 156 81 156 81 157 82 157 90 157 81 158 90 158 89 158 89 159 90 159 98 159 89 160 98 160 97 160 97 161 98 161 103 161 78 162 83 162 82 162 82 163 83 163 91 163 82 164 91 164 90 164 90 165 91 165 99 165 90 166 99 166 98 166 98 167 99 167 103 167 78 168 84 168 83 168 83 169 84 169 92 169 83 170 92 170 91 170 91 171 92 171 100 171 91 172 100 172 99 172 99 173 100 173 103 173 78 174 85 174 84 174 84 175 85 175 93 175 84 176 93 176 92 176 92 177 93 177 101 177 92 178 101 178 100 178 100 179 101 179 103 179 78 180 86 180 85 180 85 181 86 181 94 181 85 182 94 182 93 182 93 183 94 183 102 183 93 184 102 184 101 184 101 185 102 185 103 185 78 186 79 186 86 186 86 187 79 187 87 187 86 188 87 188 94 188 94 189 87 189 95 189 94 190 95 190 102 190 102 191 95 191 103 191 104 192 106 192 105 192 105 193 106 193 114 193 105 194 114 194 113 194 113 195 114 195 122 195 113 196 122 196 121 196 121 197 122 197 129 197 104 198 107 198 106 198 106 199 107 199 115 199 106 200 115 200 114 200 114 201 115 201 123 201 114 202 123 202 122 202 122 203 123 203 129 203 104 204 108 204 107 204 107 205 108 205 116 205 107 206 116 206 115 206 115 207 116 207 124 207 115 208 124 208 123 208 123 209 124 209 129 209 104 210 109 210 108 210 108 211 109 211 117 211 108 212 117 212 116 212 116 213 117 213 125 213 116 214 125 214 124 214 124 215 125 215 129 215 104 216 110 216 109 216 109 217 110 217 118 217 109 218 118 218 117 218 117 219 118 219 126 219 117 220 126 220 125 220 125 221 126 221 129 221 104 222 111 222 110 222 110 223 111 223 119 223 110 224 119 224 118 224 118 225 119 225 127 225 118 226 127 226 126 226 126 227 127 227 129 227 104 228 112 228 111 228 111 229 112 229 120 229 111 230 120 230 119 230 119 231 120 231 128 231 119 232 128 232 127 232 127 233 128 233 129 233 104 234 105 234 112 234 112 235 105 235 113 235 112 236 113 236 120 236 120 237 113 237 121 237 120 238 121 238 128 238 128 239 121 239 129 239 130 240 132 240 131 240 131 241 132 241 140 241 131 242 140 242 139 242 139 243 140 243 148 243 139 244 148 244 147 244 147 245 148 245 155 245 130 246 133 246 132 246 132 247 133 247 141 247 132 248 141 248 140 248 140 249 141 249 149 249 140 250 149 250 148 250 148 251 149 251 155 251 130 252 134 252 133 252 133 253 134 253 142 253 133 254 142 254 141 254 141 255 142 255 150 255 141 256 150 256 149 256 149 257 150 257 155 257 130 258 135 258 134 258 134 259 135 259 143 259 134 260 143 260 142 260 142 261 143 261 151 261 142 262 151 262 150 262 150 263 151 263 155 263 130 264 136 264 135 264 135 265 136 265 144 265 135 266 144 266 143 266 143 267 144 267 152 267 143 268 152 268 151 268 151 269 152 269 155 269 130 270 137 270 136 270 136 271 137 271 145 271 136 272 145 272 144 272 144 273 145 273 153 273 144 274 153 274 152 274 152 275 153 275 155 275 130 276 138 276 137 276 137 277 138 277 146 277 137 278 146 278 145 278 145 279 146 279 154 279 145 280 154 280 153 280 153 281 154 281 155 281 130 282 131 282 138 282 138 283 131 283 139 283 138 284 139 284 146 284 146 285 139 285 147 285 146 286 147 286 154 286 154 287 147 287 155 287 156 288 158 288 157 288 157 289 158 289 166 289 157 290 166 290 165 290 165 291 166 291 174 291 165 292 174 292 173 292 173 293 174 293 181 293 156 294 159 294 158 294 158 295 159 295 167 295 158 296 167 296 166 296 166 297 167 297 175 297 166 298 175 298 174 298 174 299 175 299 181 299 156 300 160 300 159 300 159 301 160 301 168 301 159 302 168 302 167 302 167 303 168 303 176 303 167 304 176 304 175 304 175 305 176 305 181 305 156 306 161 306 160 306 160 307 161 307 169 307 160 308 169 308 168 308 168 309 169 309 177 309 168 310 177 310 176 310 176 311 177 311 181 311 156 312 162 312 161 312 161 313 162 313 170 313 161 314 170 314 169 314 169 315 170 315 178 315 169 316 178 316 177 316 177 317 178 317 181 317 156 318 163 318 162 318 162 319 163 319 171 319 162 320 171 320 170 320 170 321 171 321 179 321 170 322 179 322 178 322 178 323 179 323 181 323 156 324 164 324 163 324 163 325 164 325 172 325 163 326 172 326 171 326 171 327 172 327 180 327 171 328 180 328 179 328 179 329 180 329 181 329 156 330 157 330 164 330 164 331 157 331 165 331 164 332 165 332 172 332 172 333 165 333 173 333 172 334 173 334 180 334 180 335 173 335 181 335 182 336 184 336 183 336 183 337 184 337 192 337 183 338 192 338 191 338 191 339 192 339 200 339 191 340 200 340 199 340 199 341 200 341 207 341 182 342 185 342 184 342 184 343 185 343 193 343 184 344 193 344 192 344 192 345 193 345 201 345 192 346 201 346 200 346 200 347 201 347 207 347 182 348 186 348 185 348 185 349 186 349 194 349 185 350 194 350 193 350 193 351 194 351 202 351 193 352 202 352 201 352 201 353 202 353 207 353 182 354 187 354 186 354 186 355 187 355 195 355 186 356 195 356 194 356 194 357 195 357 203 357 194 358 203 358 202 358 202 359 203 359 207 359 182 360 188 360 187 360 187 361 188 361 196 361 187 362 196 362 195 362 195 363 196 363 204 363 195 364 204 364 203 364 203 365 204 365 207 365 182 366 189 366 188 366 188 367 189 367 197 367 188 368 197 368 196 368 196 369 197 369 205 369 196 370 205 370 204 370 204 371 205 371 207 371 182 372 190 372 189 372 189 373 190 373 198 373 189 374 198 374 197 374 197 375 198 375 206 375 197 376 206 376 205 376 205 377 206 377 207 377 182 378 183 378 190 378 190 379 183 379 191 379 190 380 191 380 198 380 198 381 191 381 199 381 198 382 199 382 206 382 206 383 199 383 207 383 208 384 210 384 209 384 209 385 210 385 218 385 209 386 218 386 217 386 217 387 218 387 226 387 217 388 226 388 225 388 225 389 226 389 233 389 208 390 211 390 210 390 210 391 211 391 219 391 210 392 219 392 218 392 218 393 219 393 227 393 218 394 227 394 226 394 226 395 227 395 233 395 208 396 212 396 211 396 211 397 212 397 220 397 211 398 220 398 219 398 219 399 220 399 228 399 219 400 228 400 227 400 227 401 228 401 233 401 208 402 213 402 212 402 212 403 213 403 221 403 212 404 221 404 220 404 220 405 221 405 229 405 220 406 229 406 228 406 228 407 229 407 233 407 208 408 214 408 213 408 213 409 214 409 222 409 213 410 222 410 221 410 221 411 222 411 230 411 221 412 230 412 229 412 229 413 230 413 233 413 208 414 215 414 214 414 214 415 215 415 223 415 214 416 223 416 222 416 222 417 223 417 231 417 222 418 231 418 230 418 230 419 231 419 233 419 208 420 216 420 215 420 215 421 216 421 224 421 215 422 224 422 223 422 223 423 224 423 232 423 223 424 232 424 231 424 231 425 232 425 233 425 208 426 209 426 216 426 216 427 209 427 217 427 216 428 217 428 224 428 224 429 217 429 225 429 224 430 225 430 232 430 232 431 225 431 233 431 234 432 236 432 235 432 235 433 236 433 244 433 235 434 244 434 243 434 243 435 244 435 252 435 243 436 252 436 251 436 251 437 252 437 259 437 234 438 237 438 236 438 236 439 237 439 245 439 236 440 245 440 244 440 244 441 245 441 253 441 244 442 253 442 252 442 252 443 253 443 259 443 234 444 238 444 237 444 237 445 238 445 246 445 237 446 246 446 245 446 245 447 246 447 254 447 245 448 254 448 253 448 253 449 254 449 259 449 234 450 239 450 238 450 238 451 239 451 247 451 238 452 247 452 246 452 246 453 247 453 255 453 246 454 255 454 254 454 254 455 255 455 259 455 234 456 240 456 239 456 239 457 240 457 248 457 239 458 248 458 247 458 247 459 248 459 256 459 247 460 256 460 255 460 255 461 256 461 259 461 234 462 241 462 240 462 240 463 241 463 249 463 240 464 249 464 248 464 248 465 249 465 257 465 248 466 257 466 256 466 256 467 257 467 259 467 234 468 242 468 241 468 241 469 242 469 250 469 241 470 250 470 249 470 249 471 250 471 258 471 249 472 258 472 257 472 257 473 258 473 259 473 234 474 235 474 242 474 242 475 235 475 243 475 242 476 243 476 250 476 250 477 243 477 251 477 250 478 251 478 258 478 258 479 251 479 259 479 260 480 262 480 261 480 261 481 262 481 270 481 261 482 270 482 269 482 269 483 270 483 278 483 269 484 278 484 277 484 277 485 278 485 285 485 260 486 263 486 262 486 262 487 263 487 271 487 262 488 271 488 270 488 270 489 271 489 279 489 270 490 279 490 278 490 278 491 279 491 285 491 260 492 264 492 263 492 263 493 264 493 272 493 263 494 272 494 271 494 271 495 272 495 280 495 271 496 280 496 279 496 279 497 280 497 285 497 260 498 265 498 264 498 264 499 265 499 273 499 264 500 273 500 272 500 272 501 273 501 281 501 272 502 281 502 280 502 280 503 281 503 285 503 260 504 266 504 265 504 265 505 266 505 274 505 265 506 274 506 273 506 273 507 274 507 282 507 273 508 282 508 281 508 281 509 282 509 285 509 260 510 267 510 266 510 266 511 267 511 275 511 266 512 275 512 274 512 274 513 275 513 283 513 274 514 283 514 282 514 282 515 283 515 285 515 260 516 268 516 267 516 267 517 268 517 276 517 267 518 276 518 275 518 275 519 276 519 284 519 275 520 284 520 283 520 283 521 284 521 285 521 260 522 261 522 268 522 268 523 261 523 269 523 268 524 269 524 276 524 276 525 269 525 277 525 276 526 277 526 284 526 284 527 277 527 285 527</p></triangles>
</mesh></geometry></library_geometries><library_visual_scenes><visual_scene id="Scene"><node id="mesh"><instance_geometry url="#geometry"/></node></visual_scene></library_visual_scenes><scene><instance_visual_scene url="#Scene"/></scene></COLLADA>