<?xml version="1.0" encoding="UTF-8"?>
<COLLADA xmlns="http://www.collada.org/2005/11/COLLADASchema" version="1.4.1">
<asset><contributor><authoring_tool>Summit Estate procedural mesh exporter</authoring_tool></contributor><created>2026-09-11T00:00:00Z</created><modified>2026-09-11T00:00:00Z</modified><unit name="meter" meter="1"/><up_axis>Z_UP</up_axis></asset>
<library_geometries><geometry id="geometry" name="geometry"><mesh>
<source id="positions"><float_array id="positions-array" count="2058">180.65843 14.78137 80.86000 180.81432 14.78137 80.92000 180.73637 14.91637 80.92000 180.58049 14.91637 80.92000 180.50255 14.78137 80.92000 180.58049 14.64637 80.92000 180.73637 14.64637 80.92000 180.81432 14.78137 81.04000 180.73637 14.91637 81.04000 180.58049 14.91637 81.04000 180.50255 14.78137 81.04000 180.58049 14.64637 81.04000 180.73637 14.64637 81.04000 180.65843 14.78137 81.10000 180.30545 15.51434 80.86000 180.46134 15.51434 80.92000 180.38340 15.64934 80.92000 180.22751 15.64934 80.92000 180.14957 15.51434 80.92000 180.22751 15.37934 80.92000 180.38340 15.37934 80.92000 180.46134 15.51434 81.04000 180.38340 15.64934 81.04000 180.22751 15.64934 81.04000 180.14957 15.51434 81.04000 180.22751 15.37934 81.04000 180.38340 15.37934 81.04000 180.30545 15.51434 81.10000 179.51232 15.69537 80.86000 179.66820 15.69537 80.92000 179.59026 15.83037 80.92000 179.43438 15.83037 80.92000 179.35643 15.69537 80.92000 179.43438 15.56037 80.92000 179.59026 15.56037 80.92000 179.66820 15.69537 81.04000 179.59026 15.83037 81.04000 179.43438 15.83037 81.04000 179.35643 15.69537 81.04000 179.43438 15.56037 81.04000 179.59026 15.56037 81.04000 179.51232 15.69537 81.10000 178.87627 15.18814 80.86000 179.03216 15.18814 80.92000 178.95422 15.32314 80.92000 178.79833 15.32314 80.92000 178.72039 15.18814 80.92000 178.79833 15.05314 80.92000 178.95422 15.05314 80.92000 179.03216 15.18814 81.04000 178.95422 15.32314 81.04000 178.79833 15.32314 81.04000 178.72039 15.18814 81.04000 178.79833 15.05314 81.04000 178.95422 15.05314 81.04000 178.87627 15.18814 81.10000 178.87627 14.37460 80.86000 179.03216 14.37460 80.92000 178.95422 14.50960 80.92000 178.79833 14.50960 80.92000 178.72039 14.37460 80.92000 178.79833 14.23960 80.92000 178.95422 14.23960 80.92000 179.03216 14.37460 81.04000 178.95422 14.50960 81.04000 178.79833 14.50960 81.04000 178.72039 14.37460 81.04000 178.79833 14.23960 81.04000 178.95422 14.23960 81.04000 178.87627 14.37460 81.10000 179.51232 13.86738 80.86000 179.66820 13.86738 80.92000 179.59026 14.00238 80.92000 179.43438 14.00238 80.92000 179.35643 13.86738 80.92000 179.43438 13.73238 80.92000 179.59026 13.73238 80.92000 179.66820 13.86738 81.04000 179.59026 14.00238 81.04000 179.43438 14.00238 81.04000 179.35643 13.86738 81.04000 179.43438 13.73238 81.04000 179.59026 13.73238 81.04000 179.51232 13.86738 81.10000 180.30545 14.04840 80.86000 180.46134 14.04840 80.92000 180.38340 14.18340 80.92000 180.22751 14.18340 80.92000 180.14957 14.04840 80.92000 180.22751 13.91340 80.92000 180.38340 13.91340 80.92000 180.46134 14.04840 81.04000 180.38340 14.18340 81.04000 180.22751 14.18340 81.04000 180.14957 14.04840 81.04000 180.22751 13.91340 81.04000 180.38340 13.91340 81.04000 180.30545 14.04840 81.10000 174.50173 23.78059 80.86000 174.65762 23.78059 80.92000 174.57967 23.91559 80.92000 174.42379 23.91559 80.92000 174.34585 23.78059 80.92000 174.42379 23.64559 80.92000 174.57967 23.64559 80.92000 174.65762 23.78059 81.04000 174.57967 23.91559 81.04000 174.42379 23.91559 81.04000 174.34585 23.78059 81.04000 174.42379 23.64559 81.04000 174.57967 23.64559 81.04000 174.50173 23.78059 81.10000 174.14875 24.51356 80.86000 174.30464 24.51356 80.92000 174.22670 24.64856 80.92000 174.07081 24.64856 80.92000 173.99287 24.51356 80.92000 174.07081 24.37856 80.92000 174.22670 24.37856 80.92000 174.30464 24.51356 81.04000 174.22670 24.64856 81.04000 174.07081 24.64856 81.04000 173.99287 24.51356 81.04000 174.07081 24.37856 81.04000 174.22670 24.37856 81.04000 174.14875 24.51356 81.10000 173.35562 24.69459 80.86000 173.51150 24.69459 80.92000 173.43356 24.82959 80.92000 173.27768 24.82959 80.92000 173.19973 24.69459 80.92000 173.27768 24.55959 80.92000 173.43356 24.55959 80.92000 173.51150 24.69459 81.04000 173.43356 24.82959 81.04000 173.27768 24.82959 81.04000 173.19973 24.69459 81.04000 173.27768 24.55959 81.04000 173.43356 24.55959 81.04000 173.35562 24.69459 81.10000 172.71957 24.18736 80.86000 172.87546 24.18736 80.92000 172.79752 24.32236 80.92000 172.64163 24.32236 80.92000 172.56369 24.18736 80.92000 172.64163 24.05236 80.92000 172.79752 24.05236 80.92000 172.87546 24.18736 81.04000 172.79752 24.32236 81.04000 172.64163 24.32236 81.04000 172.56369 24.18736 81.04000 172.64163 24.05236 81.04000 172.79752 24.05236 81.04000 172.71957 24.18736 81.10000 172.71957 23.37383 80.86000 172.87546 23.37383 80.92000 172.79752 23.50883 80.92000 172.64163 23.50883 80.92000 172.56369 23.37383 80.92000 172.64163 23.23883 80.92000 172.79752 23.23883 80.92000 172.87546 23.37383 81.04000 172.79752 23.50883 81.04000 172.64163 23.50883 81.04000 172.56369 23.37383 81.04000 172.64163 23.23883 81.04000 172.79752 23.23883 81.04000 172.71957 23.37383 81.10000 173.35562 22.86660 80.86000 173.51150 22.86660 80.92000 173.43356 23.00160 80.92000 173.27768 23.00160 80.92000 173.19973 22.86660 80.92000 173.27768 22.73160 80.92000 173.43356 22.73160 80.92000 173.51150 22.86660 81.04000 173.43356 23.00160 81.04000 173.27768 23.00160 81.04000 173.19973 22.86660 81.04000 173.27768 22.73160 81.04000 173.43356 22.73160 81.04000 173.35562 22.86660 81.10000 174.14875 23.04763 80.86000 174.30464 23.04763 80.92000 174.22670 23.18263 80.92000 174.07081 23.18263 80.92000 173.99287 23.04763 80.92000 174.07081 22.91263 80.92000 174.22670 22.91263 80.92000 174.30464 23.04763 81.04000 174.22670 23.18263 81.04000 174.07081 23.18263 81.04000 173.99287 23.04763 81.04000 174.07081 22.91263 81.04000 174.22670 22.91263 81.04000 174.14875 23.04763 81.10000 161.11144 24.73016 80.86000 161.26733 24.73016 80.92000 161.18939 24.86516 80.92000 161.03350 24.86516 80.92000 160.95556 24.73016 80.92000 161.03350 24.59516 80.92000 161.18939 24.59516 80.92000 161.26733 24.73016 81.04000 161.18939 24.86516 81.04000 161.03350 24.86516 81.04000 160.95556 24.73016 81.04000 161.03350 24.59516 81.04000 161.18939 24.59516 81.04000 161.11144 24.73016 81.10000 160.75847 25.46313 80.86000 160.91435 25.46313 80.92000 160.83641 25.59813 80.92000 160.68052 25.59813 80.92000 160.60258 25.46313 80.92000 160.68052 25.32813 80.92000 160.83641 25.32813 80.92000 160.91435 25.46313 81.04000 160.83641 25.59813 81.04000 160.68052 25.59813 81.04000 160.60258 25.46313 81.04000 160.68052 25.32813 81.04000 160.83641 25.32813 81.04000 160.75847 25.46313 81.10000 159.96533 25.64416 80.86000 160.12122 25.64416 80.92000 160.04327 25.77916 80.92000 159.88739 25.77916 80.92000 159.80945 25.64416 80.92000 159.88739 25.50916 80.92000 160.04327 25.50916 80.92000 160.12122 25.64416 81.04000 160.04327 25.77916 81.04000 159.88739 25.77916 81.04000 159.80945 25.64416 81.04000 159.88739 25.50916 81.04000 160.04327 25.50916 81.04000 159.96533 25.64416 81.10000 159.32929 25.13693 80.86000 159.48517 25.13693 80.92000 159.40723 25.27193 80.92000 159.25134 25.27193 80.92000 159.17340 25.13693 80.92000 159.25134 25.00193 80.92000 159.40723 25.00193 80.92000 159.48517 25.13693 81.04000 159.40723 25.27193 81.04000 159.25134 25.27193 81.04000 159.17340 25.13693 81.04000 159.25134 25.00193 81.04000 159.40723 25.00193 81.04000 159.32929 25.13693 81.10000 159.32929 24.32340 80.86000 159.48517 24.32340 80.92000 159.40723 24.45840 80.92000 159.25134 24.45840 80.92000 159.17340 24.32340 80.92000 159.25134 24.18840 80.92000 159.40723 24.18840 80.92000 159.48517 24.32340 81.04000 159.40723 24.45840 81.04000 159.25134 24.45840 81.04000 159.17340 24.32340 81.04000 159.25134 24.18840 81.04000 159.40723 24.18840 81.04000 159.32929 24.32340 81.10000 159.96533 23.81617 80.86000 160.12122 23.81617 80.92000 160.04327 23.95117 80.92000 159.88739 23.95117 80.92000 159.80945 23.81617 80.92000 159.88739 23.68117 80.92000 160.04327 23.68117 80.92000 160.12122 23.81617 81.04000 160.04327 23.95117 81.04000 159.88739 23.95117 81.04000 159.80945 23.81617 81.04000 159.88739 23.68117 81.04000 160.04327 23.68117 81.04000 159.96533 23.81617 81.10000 160.75847 23.99720 80.86000 160.91435 23.99720 80.92000 160.83641 24.13220 80.92000 160.68052 24.13220 80.92000 160.60258 23.99720 80.92000 160.68052 23.86220 80.92000 160.83641 23.86220 80.92000 160.91435 23.99720 81.04000 160.83641 24.13220 81.04000 160.68052 24.13220 81.04000 160.60258 23.99720 81.04000 160.68052 23.86220 81.04000 160.83641 23.86220 81.04000 160.75847 23.99720 81.10000 153.34409 15.34949 80.86000 153.49997 15.34949 80.92000 153.42203 15.48449 80.92000 153.26614 15.48449 80.92000 153.18820 15.34949 80.92000 153.26614 15.21449 80.92000 153.42203 15.21449 80.92000 153.49997 15.34949 81.04000 153.42203 15.48449 81.04000 153.26614 15.48449 81.04000 153.18820 15.34949 81.04000 153.26614 15.21449 81.04000 153.42203 15.21449 81.04000 153.34409 15.34949 81.10000 152.99111 16.08246 80.86000 153.14699 16.08246 80.92000 153.06905 16.21746 80.92000 152.91317 16.21746 80.92000 152.83522 16.08246 80.92000 152.91317 15.94746 80.92000 153.06905 15.94746 80.92000 153.14699 16.08246 81.04000 153.06905 16.21746 81.04000 152.91317 16.21746 81.04000 152.83522 16.08246 81.04000 152.91317 15.94746 81.04000 153.06905 15.94746 81.04000 152.99111 16.08246 81.10000 152.19797 16.26349 80.86000 152.35386 16.26349 80.92000 152.27591 16.39849 80.92000 152.12003 16.39849 80.92000 152.04209 16.26349 80.92000 152.12003 16.12849 80.92000 152.27591 16.12849 80.92000 152.35386 16.26349 81.04000 152.27591 16.39849 81.04000 152.12003 16.39849 81.04000 152.04209 16.26349 81.04000 152.12003 16.12849 81.04000 152.27591 16.12849 81.04000 152.19797 16.26349 81.10000 151.56193 15.75626 80.86000 151.71781 15.75626 80.92000 151.63987 15.89126 80.92000 151.48399 15.89126 80.92000 151.40604 15.75626 80.92000 151.48399 15.62126 80.92000 151.63987 15.62126 80.92000 151.71781 15.75626 81.04000 151.63987 15.89126 81.04000 151.48399 15.89126 81.04000 151.40604 15.75626 81.04000 151.48399 15.62126 81.04000 151.63987 15.62126 81.04000 151.56193 15.75626 81.10000 151.56193 14.94272 80.86000 151.71781 14.94272 80.92000 151.63987 15.07772 80.92000 151.48399 15.07772 80.92000 151.40604 14.94272 80.92000 151.48399 14.80772 80.92000 151.63987 14.80772 80.92000 151.71781 14.94272 81.04000 151.63987 15.07772 81.04000 151.48399 15.07772 81.04000 151.40604 14.94272 81.04000 151.48399 14.80772 81.04000 151.63987 14.80772 81.04000 151.56193 14.94272 81.10000 152.19797 14.43550 80.86000 152.35386 14.43550 80.92000 152.27591 14.57050 80.92000 152.12003 14.57050 80.92000 152.04209 14.43550 80.92000 152.12003 14.30050 80.92000 152.27591 14.30050 80.92000 152.35386 14.43550 81.04000 152.27591 14.57050 81.04000 152.12003 14.57050 81.04000 152.04209 14.43550 81.04000 152.12003 14.30050 81.04000 152.27591 14.30050 81.04000 152.19797 14.43550 81.10000 152.99111 14.61652 80.86000 153.14699 14.61652 80.92000 153.06905 14.75152 80.92000 152.91317 14.75152 80.92000 152.83522 14.61652 80.92000 152.91317 14.48152 80.92000 153.06905 14.48152 80.92000 153.14699 14.61652 81.04000 153.06905 14.75152 81.04000 152.91317 14.75152 81.04000 152.83522 14.61652 81.04000 152.91317 14.48152 81.04000 153.06905 14.48152 81.04000 152.99111 14.61652 81.10000 155.06410 4.58229 80.86000 155.21998 4.58229 80.92000 155.14204 4.71729 80.92000 154.98616 4.71729 80.92000 154.90821 4.58229 80.92000 154.98616 4.44729 80.92000 155.14204 4.44729 80.92000 155.21998 4.58229 81.04000 155.14204 4.71729 81.04000 154.98616 4.71729 81.04000 154.90821 4.58229 81.04000 154.98616 4.44729 81.04000 155.14204 4.44729 81.04000 155.06410 4.58229 81.10000 154.71112 5.31526 80.86000 154.86701 5.31526 80.92000 154.78906 5.45026 80.92000 154.63318 5.45026 80.92000 154.55524 5.31526 80.92000 154.63318 5.18026 80.92000 154.78906 5.18026 80.92000 154.86701 5.31526 81.04000 154.78906 5.45026 81.04000 154.63318 5.45026 81.04000 154.55524 5.31526 81.04000 154.63318 5.18026 81.04000 154.78906 5.18026 81.04000 154.71112 5.31526 81.10000 153.91799 5.49629 80.86000 154.07387 5.49629 80.92000 153.99593 5.63129 80.92000 153.84004 5.63129 80.92000 153.76210 5.49629 80.92000 153.84004 5.36129 80.92000 153.99593 5.36129 80.92000 154.07387 5.49629 81.04000 153.99593 5.63129 81.04000 153.84004 5.63129 81.04000 153.76210 5.49629 81.04000 153.84004 5.36129 81.04000 153.99593 5.36129 81.04000 153.91799 5.49629 81.10000 153.28194 4.98906 80.86000 153.43783 4.98906 80.92000 153.35988 5.12406 80.92000 153.20400 5.12406 80.92000 153.12606 4.98906 80.92000 153.20400 4.85406 80.92000 153.35988 4.85406 80.92000 153.43783 4.98906 81.04000 153.35988 5.12406 81.04000 153.20400 5.12406 81.04000 153.12606 4.98906 81.04000 153.20400 4.85406 81.04000 153.35988 4.85406 81.04000 153.28194 4.98906 81.10000 153.28194 4.17553 80.86000 153.43783 4.17553 80.92000 153.35988 4.31053 80.92000 153.20400 4.31053 80.92000 153.12606 4.17553 80.92000 153.20400 4.04053 80.92000 153.35988 4.04053 80.92000 153.43783 4.17553 81.04000 153.35988 4.31053 81.04000 153.20400 4.31053 81.04000 153.12606 4.17553 81.04000 153.20400 4.04053 81.04000 153.35988 4.04053 81.04000 153.28194 4.17553 81.10000 153.91799 3.66830 80.86000 154.07387 3.66830 80.92000 153.99593 3.80330 80.92000 153.84004 3.80330 80.92000 153.76210 3.66830 80.92000 153.84004 3.53330 80.92000 153.99593 3.53330 80.92000 154.07387 3.66830 81.04000 153.99593 3.80330 81.04000 153.84004 3.80330 81.04000 153.76210 3.66830 81.04000 153.84004 3.53330 81.04000 153.99593 3.53330 81.04000 153.91799 3.66830 81.10000 154.71112 3.84933 80.86000 154.86701 3.84933 80.92000 154.78906 3.98433 80.92000 154.63318 3.98433 80.92000 154.55524 3.84933 80.92000 154.63318 3.71433 80.92000 154.78906 3.71433 80.92000 154.86701 3.84933 81.04000 154.78906 3.98433 81.04000 154.63318 3.98433 81.04000 154.55524 3.84933 81.04000 154.63318 3.71433 81.04000 154.78906 3.71433 81.04000 154.71112 3.84933 81.10000 166.76406 -1.99893 80.86000 166.91994 -1.99893 80.92000 166.84200 -1.86393 80.92000 166.68612 -1.86393 80.92000 166.60817 -1.99893 80.92000 166.68612 -2.13393 80.92000 166.84200 -2.13393 80.92000 166.91994 -1.99893 81.04000 166.84200 -1.86393 81.04000 166.68612 -1.86393 81.04000 166.60817 -1.99893 81.04000 166.68612 -2.13393 81.04000 166.84200 -2.13393 81.04000 166.76406 -1.99893 81.10000 166.41108 -1.26596 80.86000 166.56696 -1.26596 80.92000 166.48902 -1.13096 80.92000 166.33314 -1.13096 80.92000 166.25520 -1.26596 80.92000 166.33314 -1.40096 80.92000 166.48902 -1.40096 80.92000 166.56696 -1.26596 81.04000 166.48902 -1.13096 81.04000 166.33314 -1.13096 81.04000 166.25520 -1.26596 81.04000 166.33314 -1.40096 81.04000 166.48902 -1.40096 81.04000 166.41108 -1.26596 81.10000 165.61795 -1.08493 80.86000 165.77383 -1.08493 80.92000 165.69589 -0.94993 80.92000 165.54000 -0.94993 80.92000 165.46206 -1.08493 80.92000 165.54000 -1.21993 80.92000 165.69589 -1.21993 80.92000 165.77383 -1.08493 81.04000 165.69589 -0.94993 81.04000 165.54000 -0.94993 81.04000 165.46206 -1.08493 81.04000 165.54000 -1.21993 81.04000 165.69589 -1.21993 81.04000 165.61795 -1.08493 81.10000 164.98190 -1.59216 80.86000 165.13778 -1.59216 80.92000 165.05984 -1.45716 80.92000 164.90396 -1.45716 80.92000 164.82602 -1.59216 80.92000 164.90396 -1.72716 80.92000 165.05984 -1.72716 80.92000 165.13778 -1.59216 81.04000 165.05984 -1.45716 81.04000 164.90396 -1.45716 81.04000 164.82602 -1.59216 81.04000 164.90396 -1.72716 81.04000 165.05984 -1.72716 81.04000 164.98190 -1.59216 81.10000 164.98190 -2.40569 80.86000 165.13778 -2.40569 80.92000 165.05984 -2.27069 80.92000 164.90396 -2.27069 80.92000 164.82602 -2.40569 80.92000 164.90396 -2.54069 80.92000 165.05984 -2.54069 80.92000 165.13778 -2.40569 81.04000 165.05984 -2.27069 81.04000 164.90396 -2.27069 81.04000 164.82602 -2.40569 81.04000 164.90396 -2.54069 81.04000 165.05984 -2.54069 81.04000 164.98190 -2.40569 81.10000 165.61795 -2.91292 80.86000 165.77383 -2.91292 80.92000 165.69589 -2.77792 80.92000 165.54000 -2.77792 80.92000 165.46206 -2.91292 80.92000 165.54000 -3.04792 80.92000 165.69589 -3.04792 80.92000 165.77383 -2.91292 81.04000 165.69589 -2.77792 81.04000 165.54000 -2.77792 81.04000 165.46206 -2.91292 81.04000 165.54000 -3.04792 81.04000 165.69589 -3.04792 81.04000 165.61795 -2.91292 81.10000 166.41108 -2.73189 80.86000 166.56696 -2.73189 80.92000 166.48902 -2.59689 80.92000 166.33314 -2.59689 80.92000 166.25520 -2.73189 80.92000 166.33314 -2.86689 80.92000 166.48902 -2.86689 80.92000 166.56696 -2.73189 81.04000 166.48902 -2.59689 81.04000 166.33314 -2.59689 81.04000 166.25520 -2.73189 81.04000 166.33314 -2.86689 81.04000 166.48902 -2.86689 81.04000 166.41108 -2.73189 81.10000 177.79542 3.16227 80.86000 177.95131 3.16227 80.92000 177.87336 3.29727 80.92000 177.71748 3.29727 80.92000 177.63954 3.16227 80.92000 177.71748 3.02727 80.92000 177.87336 3.02727 80.92000 177.95131 3.16227 81.04000 177.87336 3.29727 81.04000 177.71748 3.29727 81.04000 177.63954 3.16227 81.04000 177.71748 3.02727 81.04000 177.87336 3.02727 81.04000 177.79542 3.16227 81.10000 177.44244 3.89523 80.86000 177.59833 3.89523 80.92000 177.52039 4.03023 80.92000 177.36450 4.03023 80.92000 177.28656 3.89523 80.92000 177.36450 3.76023 80.92000 177.52039 3.76023 80.92000 177.59833 3.89523 81.04000 177.52039 4.03023 81.04000 177.36450 4.03023 81.04000 177.28656 3.89523 81.04000 177.36450 3.76023 81.04000 177.52039 3.76023 81.04000 177.44244 3.89523 81.10000 176.64931 4.07626 80.86000 176.80519 4.07626 80.92000 176.72725 4.21126 80.92000 176.57137 4.21126 80.92000 176.49342 4.07626 80.92000 176.57137 3.94126 80.92000 176.72725 3.94126 80.92000 176.80519 4.07626 81.04000 176.72725 4.21126 81.04000 176.57137 4.21126 81.04000 176.49342 4.07626 81.04000 176.57137 3.94126 81.04000 176.72725 3.94126 81.04000 176.64931 4.07626 81.10000 176.01326 3.56903 80.86000 176.16915 3.56903 80.92000 176.09121 3.70403 80.92000 175.93532 3.70403 80.92000 175.85738 3.56903 80.92000 175.93532 3.43403 80.92000 176.09121 3.43403 80.92000 176.16915 3.56903 81.04000 176.09121 3.70403 81.04000 175.93532 3.70403 81.04000 175.85738 3.56903 81.04000 175.93532 3.43403 81.04000 176.09121 3.43403 81.04000 176.01326 3.56903 81.10000 176.01326 2.75550 80.86000 176.16915 2.75550 80.92000 176.09121 2.89050 80.92000 175.93532 2.89050 80.92000 175.85738 2.75550 80.92000 175.93532 2.62050 80.92000 176.09121 2.62050 80.92000 176.16915 2.75550 81.04000 176.09121 2.89050 81.04000 175.93532 2.89050 81.04000 175.85738 2.75550 81.04000 175.93532 2.62050 81.04000 176.09121 2.62050 81.04000 176.01326 2.75550 81.10000 176.64931 2.24827 80.86000 176.80519 2.24827 80.92000 176.72725 2.38327 80.92000 176.57137 2.38327 80.92000 176.49342 2.24827 80.92000 176.57137 2.11327 80.92000 176.72725 2.11327 80.92000 176.80519 2.24827 81.04000 176.72725 2.38327 81.04000 176.57137 2.38327 81.04000 176.49342 2.24827 81.04000 176.57137 2.11327 81.04000 176.72725 2.11327 81.04000 176.64931 2.24827 81.10000 177.44244 2.42930 80.86000 177.59833 2.42930 80.92000 177.52039 2.56430 80.92000 177.36450 2.56430 80.92000 177.28656 2.42930 80.92000 177.36450 2.29430 80.92000 177.52039 2.29430 80.92000 177.59833 2.42930 81.04000 177.52039 2.56430 81.04000 177.36450 2.56430 81.04000 177.28656 2.42930 81.04000 177.36450 2.29430 81.04000 177.52039 2.29430 81.04000 177.44244 2.42930 81.10000</float_array><technique_common><accessor source="#positions-array" count="686" stride="3"><param name="X" type="float"/><param name="Y" type="float"/><param name="Z" type="float"/></accessor></technique_common></source>
<source id="normals"><float_array id="normals-array" count="3528">0.35173 0.20307 -0.91381 0.86603 0.50000 0.00000 0.86603 0.50000 -0.00000 0.35173 0.20307 0.91381 0.00000 0.40614 -0.91381 0.00000 1.00000 0.00000 0.00000 1.00000 -0.00000 0.00000 0.40614 0.91381 -0.35173 0.20307 -0.91381 -0.86603 0.50000 0.00000 -0.86603 0.50000 0.00000 -0.35173 0.20307 0.91381 -0.35173 -0.20307 -0.91381 -0.86603 -0.50000 0.00000 -0.86603 -0.50000 0.00000 -0.35173 -0.20307 0.91381 0.00000 -0.40614 -0.91381 0.00000 -1.00000 0.00000 0.00000 -1.00000 0.00000 0.00000 -0.40614 0.91381 0.35173 -0.20307 -0.91381 0.86603 -0.50000 0.00000 0.86603 -0.50000 0.00000 0.35173 -0.20307 0.91381 0.35173 0.20307 -0.91381 0.86603 0.50000 0.00000 0.86603 0.50000 -0.00000 0.35173 0.20307 0.91381 0.00000 0.40614 -0.91381 0.00000 1.00000 0.00000 0.00000 1.00000 -0.00000 0.00000 0.40614 0.91381 -0.35173 0.20307 -0.91381 -0.86603 0.50000 0.00000 -0.86603 0.50000 0.00000 -0.35173 0.20307 0.91381 -0.35173 -0.20307 -0.91381 -0.86603 -0.50000 0.00000 -0.86603 -0.50000 0.00000 -0.35173 -0.20307 0.91381 0.00000 -0.40614 -0.91381 0.00000 -1.00000 0.00000 0.00000 -1.00000 0.00000 0.00000 -0.40614 0.91381 0.35173 -0.20307 -0.91381 0.86603 -0.50000 0.00000 0.86603 -0.50000 0.00000 0.35173 -0.20307 0.91381 0.35173 0.20307 -0.91381 0.86603 0.50000 0.00000 0.86603 0.50000 -0.00000 0.35173 0.20307 0.91381 0.00000 0.40614 -0.91381 0.00000 1.00000 0.00000 0.00000 1.00000 -0.00000 0.00000 0.40614 0.91381 -0.35173 0.20307 -0.91381 -0.86603 0.50000 0.00000 -0.86603 0.50000 0.00000 -0.35173 0.20307 0.91381 -0.35173 -0.20307 -0.91381 -0.86603 -0.50000 0.00000 -0.86603 -0.50000 0.00000 -0.35173 -0.20307 0.91381 0.00000 -0.40614 -0.91381 0.00000 -1.00000 0.00000 0.00000 -1.00000 0.00000 0.00000 -0.40614 0.91381 0.35173 -0.20307 -0.91381 0.86603 -0.50000 0.00000 0.86603 -0.50000 0.00000 0.35173 -0.20307 0.91381 0.35173 0.20307 -0.91381 0.86603 0.50000 0.00000 0.86603 0.50000 -0.00000 0.35173 0.20307 0.91381 0.00000 0.40614 -0.91381 0.00000 1.00000 0.00000 0.00000 1.00000 -0.00000 0.00000 0.40614 0.91381 -0.35173 0.20307 -0.91381 -0.86603 0.50000 0.00000 -0.86603 0.50000 0.00000 -0.35173 0.20307 0.91381 -0.35173 -0.20307 -0.91381 -0.86603 -0.50000 0.00000 -0.86603 -0.50000 0.00000 -0.35173 -0.20307 0.91381 0.00000 -0.40614 -0.91381 0.00000 -1.00000 0.00000 0.00000 -1.00000 0.00000 0.00000 -0.40614 0.91381 0.35173 -0.20307 -0.91381 0.86603 -0.50000 0.00000 0.86603 -0.50000 0.00000 0.35173 -0.20307 0.91381 0.35173 0.20307 -0.91381 0.86603 0.50000 0.00000 0.86603 0.50000 -0.00000 0.35173 0.20307 0.91381 0.00000 0.40614 -0.91381 0.00000 1.00000 0.00000 0.00000 1.00000 -0.00000 0.00000 0.40614 0.91381 -0.35173 0.20307 -0.91381 -0.86603 0.50000 0.00000 -0.86603 0.50000 0.00000 -0.35173 0.20307 0.91381 -0.35173 -0.20307 -0.91381 -0.86603 -0.50000 0.00000 -0.86603 -0.50000 0.00000 -0.35173 -0.20307 0.91381 0.00000 -0.40614 -0.91381 0.00000 -1.00000 0.00000 0.00000 -1.00000 0.00000 0.00000 -0.40614 0.91381 0.35173 -0.20307 -0.91381 0.86603 -0.50000 0.00000 0.86603 -0.50000 0.00000 0.35173 -0.20307 0.91381 0.35173 0.20307 -0.91381 0.86603 0.50000 0.00000 0.86603 0.50000 -0.00000 0.35173 0.20307 0.91381 0.00000 0.40614 -0.91381 0.00000 1.00000 0.00000 0.00000 1.00000 -0.00000 0.00000 0.40614 0.91381 -0.35173 0.20307 -0.91381 -0.86603 0.50000 0.00000 -0.86603 0.50000 0.00000 -0.35173 0.20307 0.91381 -0.35173 -0.20307 -0.91381 -0.86603 -0.50000 0.00000 -0.86603 -0.50000 0.00000 -0.35173 -0.20307 0.91381 0.00000 -0.40614 -0.91381 0.00000 -1.00000 0.00000 0.00000 -1.00000 0.00000 0.00000 -0.40614 0.91381 0.35173 -0.20307 -0.91381 0.86603 -0.50000 0.00000 0.86603 -0.50000 0.00000 0.35173 -0.20307 0.91381 0.35173 0.20307 -0.91381 0.86603 0.50000 0.00000 0.86603 0.50000 -0.00000 0.35173 0.20307 0.91381 0.00000 0.40614 -0.91381 0.00000 1.00000 0.00000 0.00000 1.00000 -0.00000 0.00000 0.40614 0.91381 -0.35173 0.20307 -0.91381 -0.86603 0.50000 0.00000 -0.86603 0.50000 0.00000 -0.35173 0.20307 0.91381 -0.35173 -0.20307 -0.91381 -0.86603 -0.50000 0.00000 -0.86603 -0.50000 0.00000 -0.35173 -0.20307 0.91381 0.00000 -0.40614 -0.91381 0.00000 -1.00000 0.00000 0.00000 -1.00000 0.00000 0.00000 -0.40614 0.91381 0.35173 -0.20307 -0.91381 0.86603 -0.50000 0.00000 0.86603 -0.50000 0.00000 0.35173 -0.20307 0.91381 0.35173 0.20307 -0.91381 0.86603 0.50000 0.00000 0.86603 0.50000 -0.00000 0.35173 0.20307 0.91381 0.00000 0.40614 -0.91381 0.00000 1.00000 0.00000 0.00000 1.00000 -0.00000 0.00000 0.40614 0.91381 -0.35173 0.20307 -0.91381 -0.86603 0.50000 0.00000 -0.86603 0.50000 0.00000 -0.35173 0.20307 0.91381 -0.35173 -0.20307 -0.91381 -0.86603 -0.50000 0.00000 -0.86603 -0.50000 0.00000 -0.35173 -0.20307 0.91381 0.00000 -0.40614 -0.91381 0.00000 -1.00000 0.00000 0.00000 -1.00000 0.00000 0.00000 -0.40614 0.91381 0.35173 -0.20307 -0.91381 0.86603 -0.50000 0.00000 0.86603 -0.50000 0.00000 0.35173 -0.20307 0.91381 0.35173 0.20307 -0.91381 0.86603 0.50000 0.00000 0.86603 0.50000 -0.00000 0.35173 0.20307 0.91381 0.00000 0.40614 -0.91381 0.00000 1.00000 0.00000 0.00000 1.00000 -0.00000 0.00000 0.40614 0.91381 -0.35173 0.20307 -0.91381 -0.86603 0.50000 0.00000 -0.86603 0.50000 0.00000 -0.35173 0.20307 0.91381 -0.35173 -0.20307 -0.91381 -0.86603 -0.50000 0.00000 -0.86603 -0.50000 0.00000 -0.35173 -0.20307 0.91381 0.00000 -0.40614 -0.91381 0.00000 -1.00000 0.00000 0.00000 -1.00000 0.00000 0.00000 -0.40614 0.91381 0.35173 -0.20307 -0.91381 0.86603 -0.50000 0.00000 0.86603 -0.50000 0.00000 0.35173 -0.20307 0.91381 0.35173 0.20307 -0.91381 0.86603 0.50000 0.00000 0.86603 0.50000 -0.00000 0.35173 0.20307 0.91381 0.00000 0.40614 -0.91381 0.00000 1.00000 0.00000 0.00000 1.00000 -0.00000 0.00000 0.40614 0.91381 -0.35173 0.20307 -0.91381 -0.86603 0.50000 0.00000 -0.86603 0.50000 0.00000 -0.35173 0.20307 0.91381 -0.35173 -0.20307 -0.91381 -0.86603 -0.50000 0.00000 -0.86603 -0.50000 0.00000 -0.35173 -0.20307 0.91381 0.00000 -0.40614 -0.91381 0.00000 -1.00000 0.00000 0.00000 -1.00000 0.00000 0.00000 -0.40614 0.91381 0.35173 -0.20307 -0.91381 0.86603 -0.50000 0.00000 0.86603 -0.50000 0.00000 0.35173 -0.20307 0.91381 0.35173 0.20307 -0.91381 0.86603 0.50000 0.00000 0.86603 0.50000 -0.00000 0.35173 0.20307 0.91381 0.00000 0.40614 -0.91381 0.00000 1.00000 0.00000 0.00000 1.00000 -0.00000 0.00000 0.40614 0.91381 -0.35173 0.20307 -0.91381 -0.86603 0.50000 0.00000 -0.86603 0.50000 0.00000 -0.35173 0.20307 0.91381 -0.35173 -0.20307 -0.91381 -0.86603 -0.50000 0.00000 -0.86603 -0.50000 0.00000 -0.35173 -0.20307 0.91381 0.00000 -0.40614 -0.91381 0.00000 -1.00000 0.00000 0.00000 -1.00000 0.00000 0.00000 -0.40614 0.91381 0.35173 -0.20307 -0.91381 0.86603 -0.50000 0.00000 0.86603 -0.50000 0.00000 0.35173 -0.20307 0.91381 0.35173 0.20307 -0.91381 0.86603 0.50000 0.00000 0.86603 0.50000 -0.00000 0.35173 0.20307 0.91381 0.00000 0.40614 -0.91381 0.00000 1.00000 0.00000 0.00000 1.00000 -0.00000 0.00000 0.40614 0.91381 -0.35173 0.20307 -0.91381 -0.86603 0.50000 0.00000 -0.86603 0.50000 0.00000 -0.35173 0.20307 0.91381 -0.35173 -0.20307 -0.91381 -0.86603 -0.50000 0.00000 -0.86603 -0.50000 0.00000 -0.35173 -0.20307 0.91381 0.00000 -0.40614 -0.91381 0.00000 -1.00000 0.00000 0.00000 -1.00000 0.00000 0.00000 -0.40614 0.91381 0.35173 -0.20307 -0.91381 0.86603 -0.50000 0.00000 0.86603 -0.50000 0.00000 0.35173 -0.20307 0.91381 0.35173 0.20307 -0.91381 0.86603 0.50000 0.00000 0.86603 0.50000 -0.00000 0.35173 0.20307 0.91381 0.00000 0.40614 -0.91381 0.00000 1.00000 0.00000 0.00000 1.00000 -0.00000 0.00000 0.40614 0.91381 -0.35173 0.20307 -0.91381 -0.86603 0.50000 0.00000 -0.86603 0.50000 0.00000 -0.35173 0.20307 0.91381 -0.35173 -0.20307 -0.91381 -0.86603 -0.50000 0.00000 -0.86603 -0.50000 0.00000 -0.35173 -0.20307 0.91381 0.00000 -0.40614 -0.91381 0.00000 -1.00000 0.00000 0.00000 -1.00000 0.00000 0.00000 -0.40614 0.91381 0.35173 -0.20307 -0.91381 0.86603 -0.50000 0.00000 0.86603 -0.50000 0.00000 0.35173 -0.20307 0.91381 0.35173 0.20307 -0.91381 0.86603 0.50000 0.00000 0.86603 0.50000 -0.00000 0.35173 0.20307 0.91381 0.00000 0.40614 -0.91381 0.00000 1.00000 0.00000 0.00000 1.00000 -0.00000 0.00000 0.40614 0.91381 -0.35173 0.20307 -0.91381 -0.86603 0.50000 0.00000 -0.86603 0.50000 0.00000 -0.35173 0.20307 0.91381 -0.35173 -0.20307 -0.91381 -0.86603 -0.50000 0.00000 -0.86603 -0.50000 0.00000 -0.35173 -0.20307 0.91381 0.00000 -0.40614 -0.91381 0.00000 -1.00000 0.00000 0.00000 -1.00000 0.00000 0.00000 -0.40614 0.91381 0.35173 -0.20307 -0.91381 0.86603 -0.50000 0.00000 0.86603 -0.50000 0.00000 0.35173 -0.20307 0.91381 0.35173 0.20307 -0.91381 0.86603 0.50000 0.00000 0.86603 0.50000 -0.00000 0.35173 0.20307 0.91381 0.00000 0.40614 -0.91381 0.00000 1.00000 0.00000 0.00000 1.00000 -0.00000 0.00000 0.40614 0.91381 -0.35173 0.20307 -0.91381 -0.86603 0.50000 0.00000 -0.86603 0.50000 0.00000 -0.35173 0.20307 0.91381 -0.35173 -0.20307 -0.91381 -0.86603 -0.50000 0.00000 -0.86603 -0.50000 0.00000 -0.35173 -0.20307 0.91381 0.00000 -0.40614 -0.91381 0.00000 -1.00000 0.00000 0.00000 -1.00000 0.00000 0.00000 -0.40614 0.91381 0.35173 -0.20307 -0.91381 0.86603 -0.50000 0.00000 0.86603 -0.50000 0.00000 0.35173 -0.20307 0.91381 0.35173 0.20307 -0.91381 0.86603 0.50000 0.00000 0.86603 0.50000 -0.00000 0.35173 0.20307 0.91381 0.00000 0.40614 -0.91381 0.00000 1.00000 0.00000 0.00000 1.00000 -0.00000 0.00000 0.40614 0.91381 -0.35173 0.20307 -0.91381 -0.86603 0.50000 0.00000 -0.86603 0.50000 0.00000 -0.35173 0.20307 0.91381 -0.35173 -0.20307 -0.91381 -0.86603 -0.50000 0.00000 -0.86603 -0.50000 0.00000 -0.35173 -0.20307 0.91381 0.00000 -0.40614 -0.91381 0.00000 -1.00000 0.00000 0.00000 -1.00000 0.00000 0.00000 -0.40614 0.91381 0.35173 -0.20307 -0.91381 0.86603 -0.50000 0.00000 0.86603 -0.50000 0.00000 0.35173 -0.20307 0.91381 0.35173 0.20307 -0.91381 0.86603 0.50000 0.00000 0.86603 0.50000 -0.00000 0.35173 0.20307 0.91381 0.00000 0.40614 -0.91381 0.00000 1.00000 0.00000 0.00000 1.00000 -0.00000 0.00000 0.40614 0.91381 -0.35173 0.20307 -0.91381 -0.86603 0.50000 0.00000 -0.86603 0.50000 0.00000 -0.35173 0.20307 0.91381 -0.35173 -0.20307 -0.91381 -0.86603 -0.50000 0.00000 -0.86603 -0.50000 0.00000 -0.35173 -0.20307 0.91381 0.00000 -0.40614 -0.91381 0.00000 -1.00000 0.00000 0.00000 -1.00000 0.00000 0.00000 -0.40614 0.91381 0.35173 -0.20307 -0.91381 0.86603 -0.50000 0.00000 0.86603 -0.50000 0.00000 0.35173 -0.20307 0.91381 0.35173 0.20307 -0.91381 0.86603 0.50000 0.00000 0.86603 0.50000 -0.00000 0.35173 0.20307 0.91381 0.00000 0.40614 -0.91381 0.00000 1.00000 0.00000 0.00000 1.00000 -0.00000 0.00000 0.40614 0.91381 -0.35173 0.20307 -0.91381 -0.86603 0.50000 0.00000 -0.86603 0.50000 0.00000 -0.35173 0.20307 0.91381 -0.35173 -0.20307 -0.91381 -0.86603 -0.50000 0.00000 -0.86603 -0.50000 0.00000 -0.35173 -0.20307 0.91381 0.00000 -0.40614 -0.91381 0.00000 -1.00000 0.00000 0.00000 -1.00000 0.00000 0.00000 -0.40614 0.91381 0.35173 -0.20307 -0.91381 0.86603 -0.50000 0.00000 0.86603 -0.50000 0.00000 0.35173 -0.20307 0.91381 0.35173 0.20307 -0.91381 0.86603 0.50000 0.00000 0.86603 0.50000 -0.00000 0.35173 0.20307 0.91381 0.00000 0.40614 -0.91381 0.00000 1.00000 0.00000 0.00000 1.00000 -0.00000 0.00000 0.40614 0.91381 -0.35173 0.20307 -0.91381 -0.86603 0.50000 0.00000 -0.86603 0.50000 0.00000 -0.35173 0.20307 0.91381 -0.35173 -0.20307 -0.91381 -0.86603 -0.50000 0.00000 -0.86603 -0.50000 0.00000 -0.35173 -0.20307 0.91381 0.00000 -0.40614 -0.91381 0.00000 -1.00000 0.00000 0.00000 -1.00000 0.00000 0.00000 -0.40614 0.91381 0.35173 -0.20307 -0.91381 0.86603 -0.50000 0.00000 0.86603 -0.50000 0.00000 0.35173 -0.20307 0.91381 0.35173 0.20307 -0.91381 0.86603 0.50000 0.00000 0.86603 0.50000 -0.00000 0.35173 0.20307 0.91381 0.00000 0.40614 -0.91381 0.00000 1.00000 0.00000 0.00000 1.00000 -0.00000 0.00000 0.40614 0.91381 -0.35173 0.20307 -0.91381 -0.86603 0.50000 0.00000 -0.86603 0.50000 0.00000 -0.35173 0.20307 0.91381 -0.35173 -0.20307 -0.91381 -0.86603 -0.50000 0.00000 -0.86603 -0.50000 0.00000 -0.35173 -0.20307 0.91381 0.00000 -0.40614 -0.91381 0.00000 -1.00000 0.00000 0.00000 -1.00000 0.00000 0.00000 -0.40614 0.91381 0.35173 -0.20307 -0.91381 0.86603 -0.50000 0.00000 0.86603 -0.50000 0.00000 0.35173 -0.20307 0.91381 0.35173 0.20307 -0.91381 0.86603 0.50000 0.00000 0.86603 0.50000 -0.00000 0.35173 0.20307 0.91381 0.00000 0.40614 -0.91381 0.00000 1.00000 0.00000 0.00000 1.00000 -0.00000 0.00000 0.40614 0.91381 -0.35173 0.20307 -0.91381 -0.86603 0.50000 0.00000 -0.86603 0.50000 0.00000 -0.35173 0.20307 0.91381 -0.35173 -0.20307 -0.91381 -0.86603 -0.50000 0.00000 -0.86603 -0.50000 0.00000 -0.35173 -0.20307 0.91381 0.00000 -0.40614 -0.91381 0.00000 -1.00000 0.00000 0.00000 -1.00000 0.00000 0.00000 -0.40614 0.91381 0.35173 -0.20307 -0.91381 0.86603 -0.50000 0.00000 0.86603 -0.50000 0.00000 0.35173 -0.20307 0.91381 0.35173 0.20307 -0.91381 0.86603 0.50000 0.00000 0.86603 0.50000 -0.00000 0.35173 0.20307 0.91381 0.00000 0.40614 -0.91381 0.00000 1.00000 0.00000 0.00000 1.00000 -0.00000 0.00000 0.40614 0.91381 -0.35173 0.20307 -0.91381 -0.86603 0.50000 0.00000 -0.86603 0.50000 0.00000 -0.35173 0.20307 0.91381 -0.35173 -0.20307 -0.91381 -0.86603 -0.50000 0.00000 -0.86603 -0.50000 0.00000 -0.35173 -0.20307 0.91381 0.00000 -0.40614 -0.91381 0.00000 -1.00000 0.00000 0.00000 -1.00000 0.00000 0.00000 -0.40614 0.91381 0.35173 -0.20307 -0.91381 0.86603 -0.50000 0.00000 0.86603 -0.50000 0.00000 0.35173 -0.20307 0.91381 0.35173 0.20307 -0.91381 0.86603 0.50000 0.00000 0.86603 0.50000 -0.00000 0.35173 0.20307 0.91381 0.00000 0.40614 -0.91381 0.00000 1.00000 0.00000 0.00000 1.00000 -0.00000 0.00000 0.40614 0.91381 -0.35173 0.20307 -0.91381 -0.86603 0.50000 0.00000 -0.86603 0.50000 0.00000 -0.35173 0.20307 0.91381 -0.35173 -0.20307 -0.91381 -0.86603 -0.50000 0.00000 -0.86603 -0.50000 0.00000 -0.35173 -0.20307 0.91381 0.00000 -0.40614 -0.91381 0.00000 -1.00000 0.00000 0.00000 -1.00000 0.00000 0.00000 -0.40614 0.91381 0.35173 -0.20307 -0.91381 0.86603 -0.50000 0.00000 0.86603 -0.50000 0.00000 0.35173 -0.20307 0.91381 0.35173 0.20307 -0.91381 0.86603 0.50000 0.00000 0.86603 0.50000 -0.00000 0.35173 0.20307 0.91381 0.00000 0.40614 -0.91381 0.00000 1.00000 0.00000 0.00000 1.00000 -0.00000 0.00000 0.40614 0.91381 -0.35173 0.20307 -0.91381 -0.86603 0.50000 0.00000 -0.86603 0.50000 0.00000 -0.35173 0.20307 0.91381 -0.35173 -0.20307 -0.91381 -0.86603 -0.50000 0.00000 -0.86603 -0.50000 0.00000 -0.35173 -0.20307 0.91381 0.00000 -0.40614 -0.91381 0.00000 -1.00000 0.00000 0.00000 -1.00000 0.00000 0.00000 -0.40614 0.91381 0.35173 -0.20307 -0.91381 0.86603 -0.50000 0.00000 0.86603 -0.50000 0.00000 0.35173 -0.20307 0.91381 0.35173 0.20307 -0.91381 0.86603 0.50000 0.00000 0.86603 0.50000 -0.00000 0.35173 0.20307 0.91381 0.00000 0.40614 -0.91381 0.00000 1.00000 0.00000 0.00000 1.00000 -0.00000 0.00000 0.40614 0.91381 -0.35173 0.20307 -0.91381 -0.86603 0.50000 0.00000 -0.86603 0.50000 0.00000 -0.35173 0.20307 0.91381 -0.35173 -0.20307 -0.91381 -0.86603 -0.50000 0.00000 -0.86603 -0.50000 0.00000 -0.35173 -0.20307 0.91381 0.00000 -0.40614 -0.91381 0.00000 -1.00000 0.00000 0.00000 -1.00000 0.00000 0.00000 -0.40614 0.91381 0.35173 -0.20307 -0.91381 0.86603 -0.50000 0.00000 0.86603 -0.50000 0.00000 0.35173 -0.20307 0.91381 0.35173 0.20307 -0.91381 0.86603 0.50000 0.00000 0.86603 0.50000 -0.00000 0.35173 0.20307 0.91381 0.00000 0.40614 -0.91381 0.00000 1.00000 0.00000 0.00000 1.00000 -0.00000 0.00000 0.40614 0.91381 -0.35173 0.20307 -0.91381 -0.86603 0.50000 0.00000 -0.86603 0.50000 0.00000 -0.35173 0.20307 0.91381 -0.35173 -0.20307 -0.91381 -0.86603 -0.50000 0.00000 -0.86603 -0.50000 0.00000 -0.35173 -0.20307 0.91381 0.00000 -0.40614 -0.91381 0.00000 -1.00000 0.00000 0.00000 -1.00000 0.00000 0.00000 -0.40614 0.91381 0.35173 -0.20307 -0.91381 0.86603 -0.50000 0.00000 0.86603 -0.50000 0.00000 0.35173 -0.20307 0.91381 0.35173 0.20307 -0.91381 0.86603 0.50000 0.00000 0.86603 0.50000 -0.00000 0.35173 0.20307 0.91381 0.00000 0.40614 -0.91381 0.00000 1.00000 0.00000 0.00000 1.00000 -0.00000 0.00000 0.40614 0.91381 -0.35173 0.20307 -0.91381 -0.86603 0.50000 0.00000 -0.86603 0.50000 0.00000 -0.35173 0.20307 0.91381 -0.35173 -0.20307 -0.91381 -0.86603 -0.50000 0.00000 -0.86603 -0.50000 0.00000 -0.35173 -0.20307 0.91381 0.00000 -0.40614 -0.91381 0.00000 -1.00000 0.00000 0.00000 -1.00000 0.00000 0.00000 -0.40614 0.91381 0.35173 -0.20307 -0.91381 0.86603 -0.50000 0.00000 0.86603 -0.50000 0.00000 0.35173 -0.20307 0.91381 0.35173 0.20307 -0.91381 0.86603 0.50000 0.00000 0.86603 0.50000 -0.00000 0.35173 0.20307 0.91381 0.00000 0.40614 -0.91381 0.00000 1.00000 0.00000 0.00000 1.00000 -0.00000 0.00000 0.40614 0.91381 -0.35173 0.20307 -0.91381 -0.86603 0.50000 0.00000 -0.86603 0.50000 0.00000 -0.35173 0.20307 0.91381 -0.35173 -0.20307 -0.91381 -0.86603 -0.50000 0.00000 -0.86603 -0.50000 0.00000 -0.35173 -0.20307 0.91381 0.00000 -0.40614 -0.91381 0.00000 -1.00000 0.00000 0.00000 -1.00000 0.00000 0.00000 -0.40614 0.91381 0.35173 -0.20307 -0.91381 0.86603 -0.50000 0.00000 0.86603 -0.50000 0.00000 0.35173 -0.20307 0.91381 0.35173 0.20307 -0.91381 0.86603 0.50000 0.00000 0.86603 0.50000 -0.00000 0.35173 0.20307 0.91381 0.00000 0.40614 -0.91381 0.00000 1.00000 0.00000 0.00000 1.00000 -0.00000 0.00000 0.40614 0.91381 -0.35173 0.20307 -0.91381 -0.86603 0.50000 0.00000 -0.86603 0.50000 0.00000 -0.35173 0.20307 0.91381 -0.35173 -0.20307 -0.91381 -0.86603 -0.50000 0.00000 -0.86603 -0.50000 0.00000 -0.35173 -0.20307 0.91381 0.00000 -0.40614 -0.91381 0.00000 -1.00000 0.00000 0.00000 -1.00000 0.00000 0.00000 -0.40614 0.91381 0.35173 -0.20307 -0.91381 0.86603 -0.50000 0.00000 0.86603 -0.50000 0.00000 0.35173 -0.20307 0.91381 0.35173 0.20307 -0.91381 0.86603 0.50000 0.00000 0.86603 0.50000 -0.00000 0.35173 0.20307 0.91381 0.00000 0.40614 -0.91381 0.00000 1.00000 0.00000 0.00000 1.00000 -0.00000 0.00000 0.40614 0.91381 -0.35173 0.20307 -0.91381 -0.86603 0.50000 0.00000 -0.86603 0.50000 0.00000 -0.35173 0.20307 0.91381 -0.35173 -0.20307 -0.91381 -0.86603 -0.50000 0.00000 -0.86603 -0.50000 0.00000 -0.35173 -0.20307 0.91381 0.00000 -0.40614 -0.91381 0.00000 -1.00000 0.00000 0.00000 -1.00000 0.00000 0.00000 -0.40614 0.91381 0.35173 -0.20307 -0.91381 0.86603 -0.50000 0.00000 0.86603 -0.50000 0.00000 0.35173 -0.20307 0.91381 0.35173 0.20307 -0.91381 0.86603 0.50000 0.00000 0.86603 0.50000 -0.00000 0.35173 0.20307 0.91381 0.00000 0.40614 -0.91381 0.00000 1.00000 0.00000 0.00000 1.00000 -0.00000 0.00000 0.40614 0.91381 -0.35173 0.20307 -0.91381 -0.86603 0.50000 0.00000 -0.86603 0.50000 0.00000 -0.35173 0.20307 0.91381 -0.35173 -0.20307 -0.91381 -0.86603 -0.50000 0.00000 -0.86603 -0.50000 0.00000 -0.35173 -0.20307 0.91381 0.00000 -0.40614 -0.91381 0.00000 -1.00000 0.00000 0.00000 -1.00000 0.00000 0.00000 -0.40614 0.91381 0.35173 -0.20307 -0.91381 0.86603 -0.50000 0.00000 0.86603 -0.50000 0.00000 0.35173 -0.20307 0.91381 0.35173 0.20307 -0.91381 0.86603 0.50000 0.00000 0.86603 0.50000 -0.00000 0.35173 0.20307 0.91381 0.00000 0.40614 -0.91381 0.00000 1.00000 0.00000 0.00000 1.00000 -0.00000 0.00000 0.40614 0.91381 -0.35173 0.20307 -0.91381 -0.86603 0.50000 0.00000 -0.86603 0.50000 0.00000 -0.35173 0.20307 0.91381 -0.35173 -0.20307 -0.91381 -0.86603 -0.50000 0.00000 -0.86603 -0.50000 0.00000 -0.35173 -0.20307 0.91381 0.00000 -0.40614 -0.91381 0.00000 -1.00000 0.00000 0.00000 -1.00000 0.00000 0.00000 -0.40614 0.91381 0.35173 -0.20307 -0.91381 0.86603 -0.50000 0.00000 0.86603 -0.50000 0.00000 0.35173 -0.20307 0.91381 0.35173 0.20307 -0.91381 0.86603 0.50000 0.00000 0.86603 0.50000 -0.00000 0.35173 0.20307 0.91381 0.00000 0.40614 -0.91381 0.00000 1.00000 0.00000 0.00000 1.00000 -0.00000 0.00000 0.40614 0.91381 -0.35173 0.20307 -0.91381 -0.86603 0.50000 0.00000 -0.86603 0.50000 0.00000 -0.35173 0.20307 0.91381 -0.35173 -0.20307 -0.91381 -0.86603 -0.50000 0.00000 -0.86603 -0.50000 0.00000 -0.35173 -0.20307 0.91381 0.00000 -0.40614 -0.91381 0.00000 -1.00000 0.00000 0.00000 -1.00000 0.00000 0.00000 -0.40614 0.91381 0.35173 -0.20307 -0.91381 0.86603 -0.50000 0.00000 0.86603 -0.50000 0.00000 0.35173 -0.20307 0.91381 0.35173 0.20307 -0.91381 0.86603 0.50000 0.00000 0.86603 0.50000 -0.00000 0.35173 0.20307 0.91381 0.00000 0.40614 -0.91381 0.00000 1.00000 0.00000 0.00000 1.00000 -0.00000 0.00000 0.40614 0.91381 -0.35173 0.20307 -0.91381 -0.86603 0.50000 0.00000 -0.86603 0.50000 0.00000 -0.35173 0.20307 0.91381 -0.35173 -0.20307 -0.91381 -0.86603 -0.50000 0.00000 -0.86603 -0.50000 0.00000 -0.35173 -0.20307 0.91381 0.00000 -0.40614 -0.91381 0.00000 -1.00000 0.00000 0.00000 -1.00000 0.00000 0.00000 -0.40614 0.91381 0.35173 -0.20307 -0.91381 0.86603 -0.50000 0.00000 0.86603 -0.50000 0.00000 0.35173 -0.20307 0.91381 0.35173 0.20307 -0.91381 0.86603 0.50000 0.00000 0.86603 0.50000 -0.00000 0.35173 0.20307 0.91381 0.00000 0.40614 -0.91381 0.00000 1.00000 0.00000 0.00000 1.00000 -0.00000 0.00000 0.40614 0.91381 -0.35173 0.20307 -0.91381 -0.86603 0.50000 0.00000 -0.86603 0.50000 0.00000 -0.35173 0.20307 0.91381 -0.35173 -0.20307 -0.91381 -0.86603 -0.50000 0.00000 -0.86603 -0.50000 0.00000 -0.35173 -0.20307 0.91381 0.00000 -0.40614 -0.91381 0.00000 -1.00000 0.00000 0.00000 -1.00000 0.00000 0.00000 -0.40614 0.91381 0.35173 -0.20307 -0.91381 0.86603 -0.50000 0.00000 0.86603 -0.50000 0.00000 0.35173 -0.20307 0.91381 0.35173 0.20307 -0.91381 0.86603 0.50000 0.00000 0.86603 0.50000 -0.00000 0.35173 0.20307 0.91381 0.00000 0.40614 -0.91381 0.00000 1.00000 0.00000 0.00000 1.00000 -0.00000 0.00000 0.40614 0.91381 -0.35173 0.20307 -0.91381 -0.86603 0.50000 0.00000 -0.86603 0.50000 0.00000 -0.35173 0.20307 0.91381 -0.35173 -0.20307 -0.91381 -0.86603 -0.50000 0.00000 -0.86603 -0.50000 0.00000 -0.35173 -0.20307 0.91381 0.00000 -0.40614 -0.91381 0.00000 -1.00000 0.00000 0.00000 -1.00000 0.00000 0.00000 -0.40614 0.91381 0.35173 -0.20307 -0.91381 0.86603 -0.50000 0.00000 0.86603 -0.50000 0.00000 0.35173 -0.20307 0.91381 0.35173 0.20307 -0.91381 0.86603 0.50000 0.00000 0.86603 0.50000 -0.00000 0.35173 0.20307 0.91381 0.00000 0.40614 -0.91381 0.00000 1.00000 0.00000 0.00000 1.00000 -0.00000 0.00000 0.40614 0.91381 -0.35173 0.20307 -0.91381 -0.86603 0.50000 0.00000 -0.86603 0.50000 0.00000 -0.35173 0.20307 0.91381 -0.35173 -0.20307 -0.91381 -0.86603 -0.50000 0.00000 -0.86603 -0.50000 0.00000 -0.35173 -0.20307 0.91381 0.00000 -0.40614 -0.91381 0.00000 -1.00000 0.00000 0.00000 -1.00000 0.00000 0.00000 -0.40614 0.91381 0.35173 -0.20307 -0.91381 0.86603 -0.50000 0.00000 0.86603 -0.50000 0.00000 0.35173 -0.20307 0.91381 0.35173 0.20307 -0.91381 0.86603 0.50000 0.00000 0.86603 0.50000 -0.00000 0.35173 0.20307 0.91381 0.00000 0.40614 -0.91381 0.00000 1.00000 0.00000 0.00000 1.00000 -0.00000 0.00000 0.40614 0.91381 -0.35173 0.20307 -0.91381 -0.86603 0.50000 0.00000 -0.86603 0.50000 0.00000 -0.35173 0.20307 0.91381 -0.35173 -0.20307 -0.91381 -0.86603 -0.50000 0.00000 -0.86603 -0.50000 0.00000 -0.35173 -0.20307 0.91381 0.00000 -0.40614 -0.91381 0.00000 -1.00000 0.00000 0.00000 -1.00000 0.00000 0.00000 -0.40614 0.91381 0.35173 -0.20307 -0.91381 0.86603 -0.50000 0.00000 0.86603 -0.50000 0.00000 0.35173 -0.20307 0.91381 0.35173 0.20307 -0.91381 0.86603 0.50000 0.00000 0.86603 0.50000 -0.00000 0.35173 0.20307 0.91381 0.00000 0.40614 -0.91381 0.00000 1.00000 0.00000 0.00000 1.00000 -0.00000 0.00000 0.40614 0.91381 -0.35173 0.20307 -0.91381 -0.86603 0.50000 0.00000 -0.86603 0.50000 0.00000 -0.35173 0.20307 0.91381 -0.35173 -0.20307 -0.91381 -0.86603 -0.50000 0.00000 -0.86603 -0.50000 0.00000 -0.35173 -0.20307 0.91381 0.00000 -0.40614 -0.91381 0.00000 -1.00000 0.00000 0.00000 -1.00000 0.00000 0.00000 -0.40614 0.91381 0.35173 -0.20307 -0.91381 0.86603 -0.50000 0.00000 0.86603 -0.50000 0.00000 0.35173 -0.20307 0.91381 0.35173 0.20307 -0.91381 0.86603 0.50000 0.00000 0.86603 0.50000 -0.00000 0.35173 0.20307 0.91381 0.00000 0.40614 -0.91381 0.00000 1.00000 0.00000 0.00000 1.00000 -0.00000 0.00000 0.40614 0.91381 -0.35173 0.20307 -0.91381 -0.86603 0.50000 0.00000 -0.86603 0.50000 0.00000 -0.35173 0.20307 0.91381 -0.35173 -0.20307 -0.91381 -0.86603 -0.50000 0.00000 -0.86603 -0.50000 0.00000 -0.35173 -0.20307 0.91381 0.00000 -0.40614 -0.91381 0.00000 -1.00000 0.00000 0.00000 -1.00000 0.00000 0.00000 -0.40614 0.91381 0.35173 -0.20307 -0.91381 0.86603 -0.50000 0.00000 0.86603 -0.50000 0.00000 0.35173 -0.20307 0.91381 0.35173 0.20307 -0.91381 0.86603 0.50000 0.00000 0.86603 0.50000 -0.00000 0.35173 0.20307 0.91381 0.00000 0.40614 -0.91381 0.00000 1.00000 0.00000 0.00000 1.00000 -0.00000 0.00000 0.40614 0.91381 -0.35173 0.20307 -0.91381 -0.86603 0.50000 0.00000 -0.86603 0.50000 0.00000 -0.35173 0.20307 0.91381 -0.35173 -0.20307 -0.91381 -0.86603 -0.50000 0.00000 -0.86603 -0.50000 0.00000 -0.35173 -0.20307 0.91381 0.00000 -0.40614 -0.91381 0.00000 -1.00000 0.00000 0.00000 -1.00000 0.00000 0.00000 -0.40614 0.91381 0.35173 -0.20307 -0.91381 0.86603 -0.50000 0.00000 0.86603 -0.50000 0.00000 0.35173 -0.20307 0.91381 0.35173 0.20307 -0.91381 0.86603 0.50000 0.00000 0.86603 0.50000 -0.00000 0.35173 0.20307 0.91381 0.00000 0.40614 -0.91381 0.00000 1.00000 0.00000 0.00000 1.00000 -0.00000 0.00000 0.40614 0.91381 -0.35173 0.20307 -0.91381 -0.86603 0.50000 0.00000 -0.86603 0.50000 0.00000 -0.35173 0.20307 0.91381 -0.35173 -0.20307 -0.91381 -0.86603 -0.50000 0.00000 -0.86603 -0.50000 0.00000 -0.35173 -0.20307 0.91381 0.00000 -0.40614 -0.91381 0.00000 -1.00000 0.00000 0.00000 -1.00000 0.00000 0.00000 -0.40614 0.91381 0.35173 -0.20307 -0.91381 0.86603 -0.50000 0.00000 0.86603 -0.50000 0.00000 0.35173 -0.20307 0.91381 0.35173 0.20307 -0.91381 0.86603 0.50000 0.00000 0.86603 0.50000 -0.00000 0.35173 0.20307 0.91381 0.00000 0.40614 -0.91381 0.00000 1.00000 0.00000 0.00000 1.00000 -0.00000 0.00000 0.40614 0.91381 -0.35173 0.20307 -0.91381 -0.86603 0.50000 0.00000 -0.86603 0.50000 0.00000 -0.35173 0.20307 0.91381 -0.35173 -0.20307 -0.91381 -0.86603 -0.50000 0.00000 -0.86603 -0.50000 0.00000 -0.35173 -0.20307 0.91381 0.00000 -0.40614 -0.91381 0.00000 -1.00000 0.00000 0.00000 -1.00000 0.00000 0.00000 -0.40614 0.91381 0.35173 -0.20307 -0.91381 0.86603 -0.50000 0.00000 0.86603 -0.50000 0.00000 0.35173 -0.20307 0.91381 0.35173 0.20307 -0.91381 0.86603 0.50000 0.00000 0.86603 0.50000 -0.00000 0.35173 0.20307 0.91381 0.00000 0.40614 -0.91381 0.00000 1.00000 0.00000 0.00000 1.00000 -0.00000 0.00000 0.40614 0.91381 -0.35173 0.20307 -0.91381 -0.86603 0.50000 0.00000 -0.86603 0.50000 0.00000 -0.35173 0.20307 0.91381 -0.35173 -0.20307 -0.91381 -0.86603 -0.50000 0.00000 -0.86603 -0.50000 0.00000 -0.35173 -0.20307 0.91381 0.00000 -0.40614 -0.91381 0.00000 -1.00000 0.00000 0.00000 -1.00000 0.00000 0.00000 -0.40614 0.91381 0.35173 -0.20307 -0.91381 0.86603 -0.50000 0.00000 0.86603 -0.50000 0.00000 0.35173 -0.20307 0.91381 0.35173 0.20307 -0.91381 0.86603 0.50000 0.00000 0.86603 0.50000 -0.00000 0.35173 0.20307 0.91381 0.00000 0.40614 -0.91381 0.00000 1.00000 0.00000 0.00000 1.00000 -0.00000 0.00000 0.40614 0.91381 -0.35173 0.20307 -0.91381 -0.86603 0.50000 0.00000 -0.86603 0.50000 0.00000 -0.35173 0.20307 0.91381 -0.35173 -0.20307 -0.91381 -0.86603 -0.50000 0.00000 -0.86603 -0.50000 0.00000 -0.35173 -0.20307 0.91381 0.00000 -0.40614 -0.91381 0.00000 -1.00000 0.00000 0.00000 -1.00000 0.00000 0.00000 -0.40614 0.91381 0.35173 -0.20307 -0.91381 0.86603 -0.50000 0.00000 0.86603 -0.50000 0.00000 0.35173 -0.20307 0.91381 0.35173 0.20307 -0.91381 0.86603 0.50000 0.00000 0.86603 0.50000 -0.00000 0.35173 0.20307 0.91381 0.00000 0.40614 -0.91381 0.00000 1.00000 -0.00000 0.00000 1.00000 -0.00000 0.00000 0.40614 0.91381 -0.35173 0.20307 -0.91381 -0.86603 0.50000 0.00000 -0.86603 0.50000 -0.00000 -0.35173 0.20307 0.91381 -0.35173 -0.20307 -0.91381 -0.86603 -0.50000 0.00000 -0.86603 -0.50000 0.00000 -0.35173 -0.20307 0.91381 0.00000 -0.40614 -0.91381 0.00000 -1.00000 0.00000 0.00000 -1.00000 0.00000 0.00000 -0.40614 0.91381 0.35173 -0.20307 -0.91381 0.86603 -0.50000 0.00000 0.86603 -0.50000 0.00000 0.35173 -0.20307 0.91381 0.35173 0.20307 -0.91381 0.86603 0.50000 0.00000 0.86603 0.50000 -0.00000 0.35173 0.20307 0.91381 0.00000 0.40614 -0.91381 0.00000 1.00000 0.00000 0.00000 1.00000 -0.00000 0.00000 0.40614 0.91381 -0.35173 0.20307 -0.91381 -0.86603 0.50000 0.00000 -0.86603 0.50000 0.00000 -0.35173 0.20307 0.91381 -0.35173 -0.20307 -0.91381 -0.86603 -0.50000 0.00000 -0.86603 -0.50000 0.00000 -0.35173 -0.20307 0.91381 0.00000 -0.40614 -0.91381 0.00000 -1.00000 0.00000 0.00000 -1.00000 0.00000 0.00000 -0.40614 0.91381 0.35173 -0.20307 -0.91381 0.86603 -0.50000 0.00000 0.86603 -0.50000 0.00000 0.35173 -0.20307 0.91381 0.35173 0.20307 -0.91381 0.86603 0.50000 0.00000 0.86603 0.50000 -0.00000 0.35173 0.20307 0.91381 0.00000 0.40614 -0.91381 0.00000 1.00000 0.00000 0.00000 1.00000 -0.00000 0.00000 0.40614 0.91381 -0.35173 0.20307 -0.91381 -0.86603 0.50000 0.00000 -0.86603 0.50000 0.00000 -0.35173 0.20307 0.91381 -0.35173 -0.20307 -0.91381 -0.86603 -0.50000 0.00000 -0.86603 -0.50000 0.00000 -0.35173 -0.20307 0.91381 0.00000 -0.40614 -0.91381 0.00000 -1.00000 0.00000 0.00000 -1.00000 0.00000 0.00000 -0.40614 0.91381 0.35173 -0.20307 -0.91381 0.86603 -0.50000 0.00000 0.86603 -0.50000 0.00000 0.35173 -0.20307 0.91381 0.35173 0.20307 -0.91381 0.86603 0.50000 0.00000 0.86603 0.50000 -0.00000 0.35173 0.20307 0.91381 0.00000 0.40614 -0.91381 0.00000 1.00000 0.00000 0.00000 1.00000 -0.00000 0.00000 0.40614 0.91381 -0.35173 0.20307 -0.91381 -0.86603 0.50000 0.00000 -0.86603 0.50000 0.00000 -0.35173 0.20307 0.91381 -0.35173 -0.20307 -0.91381 -0.86603 -0.50000 0.00000 -0.86603 -0.50000 0.00000 -0.35173 -0.20307 0.91381 0.00000 -0.40614 -0.91381 0.00000 -1.00000 0.00000 0.00000 -1.00000 0.00000 0.00000 -0.40614 0.91381 0.35173 -0.20307 -0.91381 0.86603 -0.50000 0.00000 0.86603 -0.50000 0.00000 0.35173 -0.20307 0.91381</float_array><technique_common><accessor source="#normals-array" count="1176" stride="3"><param name="X" type="float"/><param name="Y" type="float"/><param name="Z" type="float"/></accessor></technique_common></source>
<vertices id="vertices"><input semantic="POSITION" source="#positions"/></vertices><triangles count="1176"><input semantic="VERTEX" source="#vertices" offset="0"/><input semantic="NORMAL" source="#normals" offset="1"/><p>0 0 2 0 1 0 1 1 2 1 8 1 1 2 8 2 7 2 7 3 8 3 13 3 0 4 3 4 2 4 2 5 3 5 9 5 2 6 9 6 8 6 8 7 9 7 13 7 0 8 4 8 3 8 3 9 4 9 10 9 3 10 10 10 9 10 9 11 10 11 13 11 0 12 5 12 4 12 4 13 5 13 11 13 4 14 11 14 10 14 10 15 11 15 13 15 0 16 6 16 5 16 5 17 6 17 12 17 5 18 12 18 11 18 11 19 12 19 13 19 0 20 1 20 6 20 6 21 1 21 7 21 6 22 7 22 12 22 12 23 7 23 13 23 14 24 16 24 15 24 15 25 16 25 22 25 15 26 22 26 21 26 21 27 22 27 27 27 14 28 17 28 16 28 16 29 17 29 23 29 16 30 23 30 22 30 22 31 23 31 27 31 14 32 18 32 17 32 17 33 18 33 24 33 17 34 24 34 23 34 23 35 24 35 27 35 14 36 19 36 18 36 18 37 19 37 25 37 18 38 25 38 24 38 24 39 25 39 27 39 14 40 20 40 19 40 19 41 20 41 26 41 19 42 26 42 25 42 25 43 26 43 27 43 14 44 15 44 20 44 20 45 15 45 21 45 20 46 21 46 26 46 26 47 21 47 27 47 28 48 30 48 29 48 29 49 30 49 36 49 29 50 36 50 35 50 35 51 36 51 41 51 28 52 31 52 30 52 30 53 31 53 37 53 30 54 37 54 36 54 36 55 37 55 41 55 28 56 32 56 31 56 31 57 32 57 38 57 31 58 38 58 37 58 37 59 38 59 41 59 28 60 33 60 32 60 32 61 33 61 39 61 32 62 39 62 38 62 38 63 39 63 41 63 28 64 34 64 33 64 33 65 34 65 40 65 33 66 40 66 39 66 39 67 40 67 41 67 28 68 29 68 34 68 34 69 29 69 35 69 34 70 35 70 40 70 40 71 35 71 41 71 42 72 44 72 43 72 43 73 44 73 50 73 43 74 50 74 49 74 49 75 50 75 55 75 42 76 45 76 44 76 44 77 45 77 51 77 44 78 51 78 50 78 50 79 51 79 55 79 42 80 46 80 45 80 45 81 46 81 52 81 45 82 52 82 51 82 51 83 52 83 55 83 42 84 47 84 46 84 46 85 47 85 53 85 46 86 53 86 52 86 52 87 53 87 55 87 42 88 48 88 47 88 47 89 48 89 54 89 47 90 54 90 53 90 53 91 54 91 55 91 42 92 43 92 48 92 48 93 43 93 49 93 48 94 49 94 54 94 54 95 49 95 55 95 56 96 58 96 57 96 57 97 58 97 64 97 57 98 64 98 63 98 63 99 64 99 69 99 56 100 59 100 58 100 58 101 59 101 65 101 58 102 65 102 64 102 64 103 65 103 69 103 56 104 60 104 59 104 59 105 60 105 66 105 59 106 66 106 65 106 65 107 66 107 69 107 56 108 61 108 60 108 60 109 61 109 67 109 60 110 67 110 66 110 66 111 67 111 69 111 56 112 62 112 61 112 61 113 62 113 68 113 61 114 68 114 67 114 67 115 68 115 69 115 56 116 57 116 62 116 62 117 57 117 63 117 62 118 63 118 68 118 68 119 63 119 69 119 70 120 72 120 71 120 71 121 72 121 78 121 71 122 78 122 77 122 77 123 78 123 83 123 70 124 73 124 72 124 72 125 73 125 79 125 72 126 79 126 78 126 78 127 79 127 83 127 70 128 74 128 73 128 73 129 74 129 80 129 73 130 80 130 79 130 79 131 80 131 83 131 70 132 75 132 74 132 74 133 75 133 81 133 74 134 81 134 80 134 80 135 81 135 83 135 70 136 76 136 75 136 75 137 76 137 82 137 75 138 82 138 81 138 81 139 82 139 83 139 70 140 71 140 76 140 76 141 71 141 77 141 76 142 77 142 82 142 82 143 77 143 83 143 84 144 86 144 85 144 85 145 86 145 92 145 85 146 92 146 91 146 91 147 92 147 97 147 84 148 87 148 86 148 86 149 87 149 93 149 86 150 93 150 92 150 92 151 93 151 97 151 84 152 88 152 87 152 87 153 88 153 94 153 87 154 94 154 93 154 93 155 94 155 97 155 84 156 89 156 88 156 88 157 89 157 95 157 88 158 95 158 94 158 94 159 95 159 97 159 84 160 90 160 89 160 89 161 90 161 96 161 89 162 96 162 95 162 95 163 96 163 97 163 84 164 85 164 90 164 90 165 85 165 91 165 90 166 91 166 96 166 96 167 91 167 97 167 98 168 100 168 99 168 99 169 100 169 106 169 99 170 106 170 105 170 105 171 106 171 111 171 98 172 101 172 100 172 100 173 101 173 107 173 100 174 107 174 106 174 106 175 107 175 111 175 98 176 102 176 101 176 101 177 102 177 108 177 101 178 108 178 107 178 107 179 108 179 111 179 98 180 103 180 102 180 102 181 103 181 109 181 102 182 109 182 108 182 108 183 109 183 111 183 98 184 104 184 103 184 103 185 104 185 110 185 103 186 110 186 109 186 109 187 110 187 111 187 98 188 99 188 104 188 104 189 99 189 105 189 104 190 105 190 110 190 110 191 105 191 111 191 112 192 114 192 113 192 113 193 114 193 120 193 113 194 120 194 119 194 119 195 120 195 125 195 112 196 115 196 114 196 114 197 115 197 121 197 114 198 121 198 120 198 120 199 121 199 125 199 112 200 116 200 115 200 115 201 116 201 122 201 115 202 122 202 121 202 121 203 122 203 125 203 112 204 117 204 116 204 116 205 117 205 123 205 116 206 123 206 122 206 122 207 123 207 125 207 112 208 118 208 117 208 117 209 118 209 124 209 117 210 124 210 123 210 123 211 124 211 125 211 112 212 113 212 118 212 118 213 113 213 119 213 118 214 119 214 124 214 124 215 119 215 125 215 126 216 128 216 127 216 127 217 128 217 134 217 127 218 134 218 133 218 133 219 134 219 139 219 126 220 129 220 128 220 128 221 129 221 135 221 128 222 135 222 134 222 134 223 135 223 139 223 126 224 130 224 129 224 129 225 130 225 136 225 129 226 136 226 135 226 135 227 136 227 139 227 126 228 131 228 130 228 130 229 131 229 137 229 130 230 137 230 136 230 136 231 137 231 139 231 126 232 132 232 131 232 131 233 132 233 138 233 131 234 138 234 137 234 137 235 138 235 139 235 126 236 127 236 132 236 132 237 127 237 133 237 132 238 133 238 138 238 138 239 133 239 139 239 140 240 142 240 141 240 141 241 142 241 148 241 141 242 148 242 147 242 147 243 148 243 153 243 140 244 143 244 142 244 142 245 143 245 149 245 142 246 149 246 148 246 148 247 149 247 153 247 140 248 144 248 143 248 143 249 144 249 150 249 143 250 150 250 149 250 149 251 150 251 153 251 140 252 145 252 144 252 144 253 145 253 151 253 144 254 151 254 150 254 150 255 151 255 153 255 140 256 146 256 145 256 145 257 146 257 152 257 145 258 152 258 151 258 151 259 152 259 153 259 140 260 141 260 146 260 146 261 141 261 147 261 146 262 147 262 152 262 152 263 147 263 153 263 154 264 156 264 155 264 155 265 156 265 162 265 155 266 162 266 161 266 161 267 162 267 167 267 154 268 157 268 156 268 156 269 157 269 163 269 156 270 163 270 162 270 162 271 163 271 167 271 154 272 158 272 157 272 157 273 158 273 164 273 157 274 164 274 163 274 163 275 164 275 167 275 154 276 159 276 158 276 158 277 159 277 165 277 158 278 165 278 164 278 164 279 165 279 167 279 154 280 160 280 159 280 159 281 160 281 166 281 159 282 166 282 165 282 165 283 166 283 167 283 154 284 155 284 160 284 160 285 155 285 161 285 160 286 161 286 166 286 166 287 161 287 167 287 168 288 170 288 169 288 169 289 170 289 176 289 169 290 176 290 175 290 175 291 176 291 181 291 168 292 171 292 170 292 170 293 171 293 177 293 170 294 177 294 176 294 176 295 177 295 181 295 168 296 172 296 171 296 171 297 172 297 178 297 171 298 178 298 177 298 177 299 178 299 181 299 168 300 173 300 172 300 172 301 173 301 179 301 172 302 179 302 178 302 178 303 179 303 181 303 168 304 174 304 173 304 173 305 174 305 180 305 173 306 180 306 179 306 179 307 180 307 181 307 168 308 169 308 174 308 174 309 169 309 175 309 174 310 175 310 180 310 180 311 175 311 181 311 182 312 184 312 183 312 183 313 184 313 190 313 183 314 190 314 189 314 189 315 190 315 195 315 182 316 185 316 184 316 184 317 185 317 191 317 184 318 191 318 190 318 190 319 191 319 195 319 182 320 186 320 185 320 185 321 186 321 192 321 185 322 192 322 191 322 191 323 192 323 195 323 182 324 187 324 186 324 186 325 187 325 193 325 186 326 193 326 192 326 192 327 193 327 195 327 182 328 188 328 187 328 187 329 188 329 194 329 187 330 194 330 193 330 193 331 194 331 195 331 182 332 183 332 188 332 188 333 183 333 189 333 188 334 189 334 194 334 194 335 189 335 195 335 196 336 198 336 197 336 197 337 198 337 204 337 197 338 204 338 203 338 203 339 204 339 209 339 196 340 199 340 198 340 198 341 199 341 205 341 198 342 205 342 204 342 204 343 205 343 209 343 196 344 200 344 199 344 199 345 200 345 206 345 199 346 206 346 205 346 205 347 206 347 209 347 196 348 201 348 200 348 200 349 201 349 207 349 200 350 207 350 206 350 206 351 207 351 209 351 196 352 202 352 201 352 201 353 202 353 208 353 201 354 208 354 207 354 207 355 208 355 209 355 196 356 197 356 202 356 202 357 197 357 203 357 202 358 203 358 208 358 208 359 203 359 209 359 210 360 212 360 211 360 211 361 212 361 218 361 211 362 218 362 217 362 217 363 218 363 223 363 210 364 213 364 212 364 212 365 213 365 219 365 212 366 219 366 218 366 218 367 219 367 223 367 210 368 214 368 213 368 213 369 214 369 220 369 213 370 220 370 219 370 219 371 220 371 223 371 210 372 215 372 214 372 214 373 215 373 221 373 214 374 221 374 220 374 220 375 221 375 223 375 210 376 216 376 215 376 215 377 216 377 222 377 215 378 222 378 221 378 221 379 222 379 223 379 210 380 211 380 216 380 216 381 211 381 217 381 216 382 217 382 222 382 222 383 217 383 223 383 224 384 226 384 225 384 225 385 226 385 232 385 225 386 232 386 231 386 231 387 232 387 237 387 224 388 227 388 226 388 226 389 227 389 233 389 226 390 233 390 232 390 232 391 233 391 237 391 224 392 228 392 227 392 227 393 228 393 234 393 227 394 234 394 233 394 233 395 234 395 237 395 224 396 229 396 228 396 228 397 229 397 235 397 228 398 235 398 234 398 234 399 235 399 237 399 224 400 230 400 229 400 229 401 230 401 236 401 229 402 236 402 235 402 235 403 236 403 237 403 224 404 225 404 230 404 230 405 225 405 231 405 230 406 231 406 236 406 236 407 231 407 237 407 238 408 240 408 239 408 239 409 240 409 246 409 239 410 246 410 245 410 245 411 246 411 251 411 238 412 241 412 240 412 240 413 241 413 247 413 240 414 247 414 246 414 246 415 247 415 251 415 238 416 242 416 241 416 241 417 242 417 248 417 241 418 248 418 247 418 247 419 248 419 251 419 238 420 243 420 242 420 242 421 243 421 249 421 242 422 249 422 248 422 248 423 249 423 251 423 238 424 244 424 243 424 243 425 244 425 250 425 243 426 250 426 249 426 249 427 250 427 251 427 238 428 239 428 244 428 244 429 239 429 245 429 244 430 245 430 250 430 250 431 245 431 251 431 252 432 254 432 253 432 253 433 254 433 260 433 253 434 260 434 259 434 259 435 260 435 265 435 252 436 255 436 254 436 254 437 255 437 261 437 254 438 261 438 260 438 260 439 261 439 265 439 252 440 256 440 255 440 255 441 256 441 262 441 255 442 262 442 261 442 261 443 262 443 265 443 252 444 257 444 256 444 256 445 257 445 263 445 256 446 263 446 262 446 262 447 263 447 265 447 252 448 258 448 257 448 257 449 258 449 264 449 257 450 264 450 263 450 263 451 264 451 265 451 252 452 253 452 258 452 258 453 253 453 259 453 258 454 259 454 264 454 264 455 259 455 265 455 266 456 268 456 267 456 267 457 268 457 274 457 267 458 274 458 273 458 273 459 274 459 279 459 266 460 269 460 268 460 268 461 269 461 275 461 268 462 275 462 274 462 274 463 275 463 279 463 266 464 270 464 269 464 269 465 270 465 276 465 269 466 276 466 275 466 275 467 276 467 279 467 266 468 271 468 270 468 270 469 271 469 277 469 270 470 277 470 276 470 276 471 277 471 279 471 266 472 272 472 271 472 271 473 272 473 278 473 271 474 278 474 277 474 277 475 278 475 279 475 266 476 267 476 272 476 272 477 267 477 273 477 272 478 273 478 278 478 278 479 273 479 279 479 280 480 282 480 281 480 281 481 282 481 288 481 281 482 288 482 287 482 287 483 288 483 293 483 280 484 283 484 282 484 282 485 283 485 289 485 282 486 289 486 288 486 288 487 289 487 293 487 280 488 284 488 283 488 283 489 284 489 290 489 283 490 290 490 289 490 289 491 290 491 293 491 280 492 285 492 284 492 284 493 285 493 291 493 284 494 291 494 290 494 290 495 291 495 293 495 280 496 286 496 285 496 285 497 286 497 292 497 285 498 292 498 291 498 291 499 292 499 293 499 280 500 281 500 286 500 286 501 281 501 287 501 286 502 287 502 292 502 292 503 287 503 293 503 294 504 296 504 295 504 295 505 296 505 302 505 295 506 302 506 301 506 301 507 302 507 307 507 294 508 297 508 296 508 296 509 297 509 303 509 296 510 303 510 302 510 302 511 303 511 307 511 294 512 298 512 297 512 297 513 298 513 304 513 297 514 304 514 303 514 303 515 304 515 307 515 294 516 299 516 298 516 298 517 299 517 305 517 298 518 305 518 304 518 304 519 305 519 307 519 294 520 300 520 299 520 299 521 300 521 306 521 299 522 306 522 305 522 305 523 306 523 307 523 294 524 295 524 300 524 300 525 295 525 301 525 300 526 301 526 306 526 306 527 301 527 307 527 308 528 310 528 309 528 309 529 310 529 316 529 309 530 316 530 315 530 315 531 316 531 321 531 308 532 311 532 310 532 310 533 311 533 317 533 310 534 317 534 316 534 316 535 317 535 321 535 308 536 312 536 311 536 311 537 312 537 318 537 311 538 318 538 317 538 317 539 318 539 321 539 308 540 313 540 312 540 312 541 313 541 319 541 312 542 319 542 318 542 318 543 319 543 321 543 308 544 314 544 313 544 313 545 314 545 320 545 313 546 320 546 319 546 319 547 320 547 321 547 308 548 309 548 314 548 314 549 309 549 315 549 314 550 315 550 320 550 320 551 315 551 321 551 322 552 324 552 323 552 323 553 324 553 330 553 323 554 330 554 329 554 329 555 330 555 335 555 322 556 325 556 324 556 324 557 325 557 331 557 324 558 331 558 330 558 330 559 331 559 335 559 322 560 326 560 325 560 325 561 326 561 332 561 325 562 332 562 331 562 331 563 332 563 335 563 322 564 327 564 326 564 326 565 327 565 333 565 326 566 333 566 332 566 332 567 333 567 335 567 322 568 328 568 327 568 327 569 328 569 334 569 327 570 334 570 333 570 333 571 334 571 335 571 322 572 323 572 328 572 328 573 323 573 329 573 328 574 329 574 334 574 334 575 329 575 335 575 336 576 338 576 337 576 337 577 338 577 344 577 337 578 344 578 343 578 343 579 344 579 349 579 336 580 339 580 338 580 338 581 339 581 345 581 338 582 345 582 344 582 344 583 345 583 349 583 336 584 340 584 339 584 339 585 340 585 346 585 339 586 346 586 345 586 345 587 346 587 349 587 336 588 341 588 340 588 340 589 341 589 347 589 340 590 347 590 346 590 346 591 347 591 349 591 336 592 342 592 341 592 341 593 342 593 348 593 341 594 348 594 347 594 347 595 348 595 349 595 336 596 337 596 342 596 342 597 337 597 343 597 342 598 343 598 348 598 348 599 343 599 349 599 350 600 352 600 351 600 351 601 352 601 358 601 351 602 358 602 357 602 357 603 358 603 363 603 350 604 353 604 352 604 352 605 353 605 359 605 352 606 359 606 358 606 358 607 359 607 363 607 350 608 354 608 353 608 353 609 354 609 360 609 353 610 360 610 359 610 359 611 360 611 363 611 350 612 355 612 354 612 354 613 355 613 361 613 354 614 361 614 360 614 360 615 361 615 363 615 350 616 356 616 355 616 355 617 356 617 362 617 355 618 362 618 361 618 361 619 362 619 363 619 350 620 351 620 356 620 356 621 351 621 357 621 356 622 357 622 362 622 362 623 357 623 363 623 364 624 366 624 365 624 365 625 366 625 372 625 365 626 372 626 371 626 371 627 372 627 377 627 364 628 367 628 366 628 366 629 367 629 373 629 366 630 373 630 372 630 372 631 373 631 377 631 364 632 368 632 367 632 367 633 368 633 374 633 367 634 374 634 373 634 373 635 374 635 377 635 364 636 369 636 368 636 368 637 369 637 375 637 368 638 375 638 374 638 374 639 375 639 377 639 364 640 370 640 369 640 369 641 370 641 376 641 369 642 376 642 375 642 375 643 376 643 377 643 364 644 365 644 370 644 370 645 365 645 371 645 370 646 371 646 376 646 376 647 371 647 377 647 378 648 380 648 379 648 379 649 380 649 386 649 379 650 386 650 385 650 385 651 386 651 391 651 378 652 381 652 380 652 380 653 381 653 387 653 380 654 387 654 386 654 386 655 387 655 391 655 378 656 382 656 381 656 381 657 382 657 388 657 381 658 388 658 387 658 387 659 388 659 391 659 378 660 383 660 382 660 382 661 383 661 389 661 382 662 389 662 388 662 388 663 389 663 391 663 378 664 384 664 383 664 383 665 384 665 390 665 383 666 390 666 389 666 389 667 390 667 391 667 378 668 379 668 384 668 384 669 379 669 385 669 384 670 385 670 390 670 390 671 385 671 391 671 392 672 394 672 393 672 393 673 394 673 400 673 393 674 400 674 399 674 399 675 400 675 405 675 392 676 395 676 394 676 394 677 395 677 401 677 394 678 401 678 400 678 400 679 401 679 405 679 392 680 396 680 395 680 395 681 396 681 402 681 395 682 402 682 401 682 401 683 402 683 405 683 392 684 397 684 396 684 396 685 397 685 403 685 396 686 403 686 402 686 402 687 403 687 405 687 392 688 398 688 397 688 397 689 398 689 404 689 397 690 404 690 403 690 403 691 404 691 405 691 392 692 393 692 398 692 398 693 393 693 399 693 398 694 399 694 404 694 404 695 399 695 405 695 406 696 408 696 407 696 407 697 408 697 414 697 407 698 414 698 413 698 413 699 414 699 419 699 406 700 409 700 408 700 408 701 409 701 415 701 408 702 415 702 414 702 414 703 415 703 419 703 406 704 410 704 409 704 409 705 410 705 416 705 409 706 416 706 415 706 415 707 416 707 419 707 406 708 411 708 410 708 410 709 411 709 417 709 410 710 417 710 416 710 416 711 417 711 419 711 406 712 412 712 411 712 411 713 412 713 418 713 411 714 418 714 417 714 417 715 418 715 419 715 406 716 407 716 412 716 412 717 407 717 413 717 412 718 413 718 418 718 418 719 413 719 419 719 420 720 422 720 421 720 421 721 422 721 428 721 421 722 428 722 427 722 427 723 428 723 433 723 420 724 423 724 422 724 422 725 423 725 429 725 422 726 429 726 428 726 428 727 429 727 433 727 420 728 424 728 423 728 423 729 424 729 430 729 423 730 430 730 429 730 429 731 430 731 433 731 420 732 425 732 424 732 424 733 425 733 431 733 424 734 431 734 430 734 430 735 431 735 433 735 420 736 426 736 425 736 425 737 426 737 432 737 425 738 432 738 431 738 431 739 432 739 433 739 420 740 421 740 426 740 426 741 421 741 427 741 426 742 427 742 432 742 432 743 427 743 433 743 434 744 436 744 435 744 435 745 436 745 442 745 435 746 442 746 441 746 441 747 442 747 447 747 434 748 437 748 436 748 436 749 437 749 443 749 436 750 443 750 442 750 442 751 443 751 447 751 434 752 438 752 437 752 437 753 438 753 444 753 437 754 444 754 443 754 443 755 444 755 447 755 434 756 439 756 438 756 438 757 439 757 445 757 438 758 445 758 444 758 444 759 445 759 447 759 434 760 440 760 439 760 439 761 440 761 446 761 439 762 446 762 445 762 445 763 446 763 447 763 434 764 435 764 440 764 440 765 435 765 441 765 440 766 441 766 446 766 446 767 441 767 447 767 448 768 450 768 449 768 449 769 450 769 456 769 449 770 456 770 455 770 455 771 456 771 461 771 448 772 451 772 450 772 450 773 451 773 457 773 450 774 457 774 456 774 456 775 457 775 461 775 448 776 452 776 451 776 451 777 452 777 458 777 451 778 458 778 457 778 457 779 458 779 461 779 448 780 453 780 452 780 452 781 453 781 459 781 452 782 459 782 458 782 458 783 459 783 461 783 448 784 454 784 453 784 453 785 454 785 460 785 453 786 460 786 459 786 459 787 460 787 461 787 448 788 449 788 454 788 454 789 449 789 455 789 454 790 455 790 460 790 460 791 455 791 461 791 462 792 464 792 463 792 463 793 464 793 470 793 463 794 470 794 469 794 469 795 470 795 475 795 462 796 465 796 464 796 464 797 465 797 471 797 464 798 471 798 470 798 470 799 471 799 475 799 462 800 466 800 465 800 465 801 466 801 472 801 465 802 472 802 471 802 471 803 472 803 475 803 462 804 467 804 466 804 466 805 467 805 473 805 466 806 473 806 472 806 472 807 473 807 475 807 462 808 468 808 467 808 467 809 468 809 474 809 467 810 474 810 473 810 473 811 474 811 475 811 462 812 463 812 468 812 468 813 463 813 469 813 468 814 469 814 474 814 474 815 469 815 475 815 476 816 478 816 477 816 477 817 478 817 484 817 477 818 484 818 483 818 483 819 484 819 489 819 476 820 479 820 478 820 478 821 479 821 485 821 478 822 485 822 484 822 484 823 485 823 489 823 476 824 480 824 479 824 479 825 480 825 486 825 479 826 486 826 485 826 485 827 486 827 489 827 476 828 481 828 480 828 480 829 481 829 487 829 480 830 487 830 486 830 486 831 487 831 489 831 476 832 482 832 481 832 481 833 482 833 488 833 481 834 488 834 487 834 487 835 488 835 489 835 476 836 477 836 482 836 482 837 477 837 483 837 482 838 483 838 488 838 488 839 483 839 489 839 490 840 492 840 491 840 491 841 492 841 498 841 491 842 498 842 497 842 497 843 498 843 503 843 490 844 493 844 492 844 492 845 493 845 499 845 492 846 499 846 498 846 498 847 499 847 503 847 490 848 494 848 493 848 493 849 494 849 500 849 493 850 500 850 499 850 499 851 500 851 503 851 490 852 495 852 494 852 494 853 495 853 501 853 494 854 501 854 500 854 500 855 501 855 503 855 490 856 496 856 495 856 495 857 496 857 502 857 495 858 502 858 501 858 501 859 502 859 503 859 490 860 491 860 496 860 496 861 491 861 497 861 496 862 497 862 502 862 502 863 497 863 503 863 504 864 506 864 505 864 505 865 506 865 512 865 505 866 512 866 511 866 511 867 512 867 517 867 504 868 507 868 506 868 506 869 507 869 513 869 506 870 513 870 512 870 512 871 513 871 517 871 504 872 508 872 507 872 507 873 508 873 514 873 507 874 514 874 513 874 513 875 514 875 517 875 504 876 509 876 508 876 508 877 509 877 515 877 508 878 515 878 514 878 514 879 515 879 517 879 504 880 510 880 509 880 509 881 510 881 516 881 509 882 516 882 515 882 515 883 516 883 517 883 504 884 505 884 510 884 510 885 505 885 511 885 510 886 511 886 516 886 516 887 511 887 517 887 518 888 520 888 519 888 519 889 520 889 526 889 519 890 526 890 525 890 525 891 526 891 531 891 518 892 521 892 520 892 520 893 521 893 527 893 520 894 527 894 526 894 526 895 527 895 531 895 518 896 522 896 521 896 521 897 522 897 528 897 521 898 528 898 527 898 527 899 528 899 531 899 518 900 523 900 522 900 522 901 523 901 529 901 522 902 529 902 528 902 528 903 529 903 531 903 518 904 524 904 523 904 523 905 524 905 530 905 523 906 530 906 529 906 529 907 530 907 531 907 518 908 519 908 524 908 524 909 519 909 525 909 524 910 525 910 530 910 530 911 525 911 531 911 532 912 534 912 533 912 533 913 534 913 540 913 533 914 540 914 539 914 539 915 540 915 545 915 532 916 535 916 534 916 534 917 535 917 541 917 534 918 541 918 540 918 540 919 541 919 545 919 532 920 536 920 535 920 535 921 536 921 542 921 535 922 542 922 541 922 541 923 542 923 545 923 532 924 537 924 536 924 536 925 537 925 543 925 536 926 543 926 542 926 542 927 543 927 545 927 532 928 538 928 537 928 537 929 538 929 544 929 537 930 544 930 543 930 543 931 544 931 545 931 532 932 533 932 538 932 538 933 533 933 539 933 538 934 539 934 544 934 544 935 539 935 545 935 546 936 548 936 547 936 547 937 548 937 554 937 547 938 554 938 553 938 553 939 554 939 559 939 546 940 549 940 548 940 548 941 549 941 555 941 548 942 555 942 554 942 554 943 555 943 559 943 546 944 550 944 549 944 549 945 550 945 556 945 549 946 556 946 555 946 555 947 556 947 559 947 546 948 551 948 550 948 550 949 551 949 557 949 550 950 557 950 556 950 556 951 557 951 559 951 546 952 552 952 551 952 551 953 552 953 558 953 551 954 558 954 557 954 557 955 558 955 559 955 546 956 547 956 552 956 552 957 547 957 553 957 552 958 553 958 558 958 558 959 553 959 559 959 560 960 562 960 561 960 561 961 562 961 568 961 561 962 568 962 567 962 567 963 568 963 573 963 560 964 563 964 562 964 562 965 563 965 569 965 562 966 569 966 568 966 568 967 569 967 573 967 560 968 564 968 563 968 563 969 564 969 570 969 563 970 570 970 569 970 569 971 570 971 573 971 560 972 565 972 564 972 564 973 565 973 571 973 564 974 571 974 570 974 570 975 571 975 573 975 560 976 566 976 565 976 565 977 566 977 572 977 565 978 572 978 571 978 571 979 572 979 573 979 560 980 561 980 566 980 566 981 561 981 567 981 566 982 567 982 572 982 572 983 567 983 573 983 574 984 576 984 575 984 575 985 576 985 582 985 575 986 582 986 581 986 581 987 582 987 587 987 574 988 577 988 576 988 576 989 577 989 583 989 576 990 583 990 582 990 582 991 583 991 587 991 574 992 578 992 577 992 577 993 578 993 584 993 577 994 584 994 583 994 583 995 584 995 587 995 574 996 579 996 578 996 578 997 579 997 585 997 578 998 585 998 584 998 584 999 585 999 587 999 574 1000 580 1000 579 1000 579 1001 580 1001 586 1001 579 1002 586 1002 585 1002 585 1003 586 1003 587 1003 574 1004 575 1004 580 1004 580 1005 575 1005 581 1005 580 1006 581 1006 586 1006 586 1007 581 1007 587 1007 588 1008 590 1008 589 1008 589 1009 590 1009 596 1009 589 1010 596 1010 595 1010 595 1011 596 1011 601 1011 588 1012 591 1012 590 1012 590 1013 591 1013 597 1013 590 1014 597 1014 596 1014 596 1015 597 1015 601 1015 588 1016 592 1016 591 1016 591 1017 592 1017 598 1017 591 1018 598 1018 597 1018 597 1019 598 1019 601 1019 588 1020 593 1020 592 1020 592 1021 593 1021 599 1021 592 1022 599 1022 598 1022 598 1023 599 1023 601 1023 588 1024 594 1024 593 1024 593 1025 594 1025 600 1025 593 1026 600 1026 599 1026 599 1027 600 1027 601 1027 588 1028 589 1028 594 1028 594 1029 589 1029 595 1029 594 1030 595 1030 600 1030 600 1031 595 1031 601 1031 602 1032 604 1032 603 1032 603 1033 604 1033 610 1033 603 1034 610 1034 609 1034 609 1035 610 1035 615 1035 602 1036 605 1036 604 1036 604 1037 605 1037 611 1037 604 1038 611 1038 610 1038 610 1039 611 1039 615 1039 602 1040 606 1040 605 1040 605 1041 606 1041 612 1041 605 1042 612 1042 611 1042 611 1043 612 1043 615 1043 602 1044 607 1044 606 1044 606 1045 607 1045 613 1045 606 1046 613 1046 612 1046 612 1047 613 1047 615 1047 602 1048 608 1048 607 1048 607 1049 608 1049 614 1049 607 1050 614 1050 613 1050 613 1051 614 1051 615 1051 602 1052 603 1052 608 1052 608 1053 603 1053 609 1053 608 1054 609 1054 614 1054 614 1055 609 1055 615 1055 616 1056 618 1056 617 1056 617 1057 618 1057 624 1057 617 1058 624 1058 623 1058 623 1059 624 1059 629 1059 616 1060 619 1060 618 1060 618 1061 619 1061 625 1061 618 1062 625 1062 624 1062 624 1063 625 1063 629 1063 616 1064 620 1064 619 1064 619 1065 620 1065 626 1065 619 1066 626 1066 625 1066 625 1067 626 1067 629 1067 616 1068 621 1068 620 1068 620 1069 621 1069 627 1069 620 1070 627 1070 626 1070 626 1071 627 1071 629 1071 616 1072 622 1072 621 1072 621 1073 622 1073 628 1073 621 1074 628 1074 627 1074 627 1075 628 1075 629 1075 616 1076 617 1076 622 1076 622 1077 617 1077 623 1077 622 1078 623 1078 628 1078 628 1079 623 1079 629 1079 630 1080 632 1080 631 1080 631 1081 632 1081 638 1081 631 1082 638 1082 637 1082 637 1083 638 1083 643 1083 630 1084 633 1084 632 1084 632 1085 633 1085 639 1085 632 1086 639 1086 638 1086 638 1087 639 1087 643 1087 630 1088 634 1088 633 1088 633 1089 634 1089 640 1089 633 1090 640 1090 639 1090 639 1091 640 1091 643 1091 630 1092 635 1092 634 1092 634 1093 635 1093 641 1093 634 1094 641 1094 640 1094 640 1095 641 1095 643 1095 630 1096 636 1096 635 1096 635 1097 636 1097 642 1097 635 1098 642 1098 641 1098 641 1099 642 1099 643 1099 630 1100 631 1100 636 1100 636 1101 631 1101 637 1101 636 1102 637 1102 642 1102 642 1103 637 1103 643 1103 644 1104 646 1104 645 1104 645 1105 646 1105 652 1105 645 1106 652 1106 651 1106 651 1107 652 1107 657 1107 644 1108 647 1108 646 1108 646 1109 647 1109 653 1109 646 1110 653 1110 652 1110 652 1111 653 1111 657 1111 644 1112 648 1112 647 1112 647 1113 648 1113 654 1113 647 1114 654 1114 653 1114 653 1115 654 1115 657 1115 644 1116 649 1116 648 1116 648 1117 649 1117 655 1117 648 1118 655 1118 654 1118 654 1119 655 1119 657 1119 644 1120 650 1120 649 1120 649 1121 650 1121 656 1121 649 1122 656 1122 655 1122 655 1123 656 1123 657 1123 644 1124 645 1124 650 1124 650 1125 645 1125 651 1125 650 1126 651 1126 656 1126 656 1127 651 1127 657 1127 658 1128 660 1128 659 1128 659 1129 660 1129 666 1129 659 1130 666 1130 665 1130 665 1131 666 1131 671 1131 658 1132 661 1132 660 1132 660 1133 661 1133 667 1133 660 1134 667 1134 666 1134 666 1135 667 1135 671 1135 658 1136 662 1136 661 1136 661 1137 662 1137 668 1137 661 1138 668 1138 667 1138 667 1139 668 1139 671 1139 658 1140 663 1140 662 1140 662 1141 663 1141 669 1141 662 1142 669 1142 668 1142 668 1143 669 1143 671 1143 658 1144 664 1144 663 1144 663 1145 664 1145 670 1145 663 1146 670 1146 669 1146 669 1147 670 1147 671 1147 658 1148 659 1148 664 1148 664 1149 659 1149 665 1149 664 1150 665 1150 670 1150 670 1151 665 1151 671 1151 672 1152 674 1152 673 1152 673 1153 674 1153 680 1153 673 1154 680 1154 679 1154 679 1155 680 1155 685 1155 672 1156 675 1156 674 1156 674 1157 675 1157 681 1157 674 1158 681 1158 680 1158 680 1159 681 1159 685 1159 672 1160 676 1160 675 1160 675 1161 676 1161 682 1161 675 1162 682 1162 681 1162 681 1163 682 1163 685 1163 672 1164 677 1164 676 1164 676 1165 677 1165 683 1165 676 1166 683 1166 682 1166 682 1167 683 1167 685 1167 672 1168 678 1168 677 1168 677 1169 678 1169 684 1169 677 1170 684 1170 683 1170 683 1171 684 1171 685 1171 672 1172 673 1172 678 1172 678 1173 673 1173 679 1173 678 1174 679 1174 684 1174 684 1175 679 1175 685 1175</p></triangles>
</mesh></geometry></library_geometries><library_visual_scenes><visual_scene id="Scene"><node id="mesh"><instance_geometry url="#geometry"/></node></visual_scene></library_visual_scenes><scene><instance_visual_scene url="#Scene"/></scene></COLLADA>