<?xml version="1.0" encoding="UTF-8"?>
<COLLADA xmlns="http://www.collada.org/2005/11/COLLADASchema" version="1.4.1">
<asset><contributor><authoring_tool>Summit Estate procedural mesh exporter</authoring_tool></contributor><created>2026-09-11T00:00:00Z</created><modified>2026-09-11T00:00:00Z</modified><unit name="meter" meter="1"/><up_axis>Z_UP</up_axis></asset>
<library_geometries><geometry id="geometry" name="geometry"><mesh>
<source id="positions"><float_array id="positions-array" count="1152">90.00000 58.00000 80.02000 89.97431 58.78484 80.02000 89.89734 59.56631 80.02000 89.76942 60.34108 80.02000 89.59111 61.10583 80.02000 89.36316 61.85727 80.02000 89.08655 62.59220 80.02000 88.76247 63.30746 80.02000 88.39230 64.00000 80.02000 87.97764 64.66684 80.02000 87.52024 65.30514 80.02000 87.02208 65.91215 80.02000 86.48528 66.48528 80.02000 85.91215 67.02208 80.02000 85.30514 67.52024 80.02000 84.66684 67.97764 80.02000 84.00000 68.39230 80.02000 83.30746 68.76247 80.02000 82.59220 69.08655 80.02000 81.85727 69.36316 80.02000 81.10583 69.59111 80.02000 80.34108 69.76942 80.02000 79.56631 69.89734 80.02000 78.78484 69.97431 80.02000 78.00000 70.00000 80.02000 77.21516 69.97431 80.02000 76.43369 69.89734 80.02000 75.65892 69.76942 80.02000 74.89417 69.59111 80.02000 74.14273 69.36316 80.02000 73.40780 69.08655 80.02000 72.69254 68.76247 80.02000 72.00000 68.39230 80.02000 71.33316 67.97764 80.02000 70.69486 67.52024 80.02000 70.08785 67.02208 80.02000 69.51472 66.48528 80.02000 68.97792 65.91215 80.02000 68.47976 65.30514 80.02000 68.02236 64.66684 80.02000 67.60770 64.00000 80.02000 67.23753 63.30746 80.02000 66.91345 62.59220 80.02000 66.63684 61.85727 80.02000 66.40889 61.10583 80.02000 66.23058 60.34108 80.02000 66.10266 59.56631 80.02000 66.02569 58.78484 80.02000 66.00000 58.00000 80.02000 66.02569 57.21516 80.02000 66.10266 56.43369 80.02000 66.23058 55.65892 80.02000 66.40889 54.89417 80.02000 66.63684 54.14273 80.02000 66.91345 53.40780 80.02000 67.23753 52.69254 80.02000 67.60770 52.00000 80.02000 68.02236 51.33316 80.02000 68.47976 50.69486 80.02000 68.97792 50.08785 80.02000 69.51472 49.51472 80.02000 70.08785 48.97792 80.02000 70.69486 48.47976 80.02000 71.33316 48.02236 80.02000 72.00000 47.60770 80.02000 72.69254 47.23753 80.02000 73.40780 46.91345 80.02000 74.14273 46.63684 80.02000 74.89417 46.40889 80.02000 75.65892 46.23058 80.02000 76.43369 46.10266 80.02000 77.21516 46.02569 80.02000 78.00000 46.00000 80.02000 78.78484 46.02569 80.02000 79.56631 46.10266 80.02000 80.34108 46.23058 80.02000 81.10583 46.40889 80.02000 81.85727 46.63684 80.02000 82.59220 46.91345 80.02000 83.30746 47.23753 80.02000 84.00000 47.60770 80.02000 84.66684 48.02236 80.02000 85.30514 48.47976 80.02000 85.91215 48.97792 80.02000 86.48528 49.51472 80.02000 87.02208 50.08785 80.02000 87.52024 50.69486 80.02000 87.97764 51.33316 80.02000 88.39230 52.00000 80.02000 88.76247 52.69254 80.02000 89.08655 53.40780 80.02000 89.36316 54.14273 80.02000 89.59111 54.89417 80.02000 89.76942 55.65892 80.02000 89.89734 56.43369 80.02000 89.97431 57.21516 80.02000 94.00000 58.00000 80.02000 93.96574 59.04645 80.02000 93.86312 60.08842 80.02000 93.69256 61.12145 80.02000 93.45481 62.14110 80.02000 93.15088 63.14303 80.02000 92.78207 64.12293 80.02000 92.34996 65.07662 80.02000 91.85641 66.00000 80.02000 91.30351 66.88912 80.02000 90.69365 67.74018 80.02000 90.02944 68.54953 80.02000 89.31371 69.31371 80.02000 88.54953 70.02944 80.02000 87.74018 70.69365 80.02000 86.88912 71.30351 80.02000 86.00000 71.85641 80.02000 85.07662 72.34996 80.02000 84.12293 72.78207 80.02000 83.14303 73.15088 80.02000 82.14110 73.45481 80.02000 81.12145 73.69256 80.02000 80.08842 73.86312 80.02000 79.04645 73.96574 80.02000 78.00000 74.00000 80.02000 76.95355 73.96574 80.02000 75.91158 73.86312 80.02000 74.87855 73.69256 80.02000 73.85890 73.45481 80.02000 72.85697 73.15088 80.02000 71.87707 72.78207 80.02000 70.92338 72.34996 80.02000 70.00000 71.85641 80.02000 69.11088 71.30351 80.02000 68.25982 70.69365 80.02000 67.45047 70.02944 80.02000 66.68629 69.31371 80.02000 65.97056 68.54953 80.02000 65.30635 67.74018 80.02000 64.69649 66.88912 80.02000 64.14359 66.00000 80.02000 63.65004 65.07662 80.02000 63.21793 64.12293 80.02000 62.84912 63.14303 80.02000 62.54519 62.14110 80.02000 62.30744 61.12145 80.02000 62.13688 60.08842 80.02000 62.03426 59.04645 80.02000 62.00000 58.00000 80.02000 62.03426 56.95355 80.02000 62.13688 55.91158 80.02000 62.30744 54.87855 80.02000 62.54519 53.85890 80.02000 62.84912 52.85697 80.02000 63.21793 51.87707 80.02000 63.65004 50.92338 80.02000 64.14359 50.00000 80.02000 64.69649 49.11088 80.02000 65.30635 48.25982 80.02000 65.97056 47.45047 80.02000 66.68629 46.68629 80.02000 67.45047 45.97056 80.02000 68.25982 45.30635 80.02000 69.11088 44.69649 80.02000 70.00000 44.14359 80.02000 70.92338 43.65004 80.02000 71.87707 43.21793 80.02000 72.85697 42.84912 80.02000 73.85890 42.54519 80.02000 74.87855 42.30744 80.02000 75.91158 42.13688 80.02000 76.95355 42.03426 80.02000 78.00000 42.00000 80.02000 79.04645 42.03426 80.02000 80.08842 42.13688 80.02000 81.12145 42.30744 80.02000 82.14110 42.54519 80.02000 83.14303 42.84912 80.02000 84.12293 43.21793 80.02000 85.07662 43.65004 80.02000 86.00000 44.14359 80.02000 86.88912 44.69649 80.02000 87.74018 45.30635 80.02000 88.54953 45.97056 80.02000 89.31371 46.68629 80.02000 90.02944 47.45047 80.02000 90.69365 48.25982 80.02000 91.30351 49.11088 80.02000 91.85641 50.00000 80.02000 92.34996 50.92338 80.02000 92.78207 51.87707 80.02000 93.15088 52.85697 80.02000 93.45481 53.85890 80.02000 93.69256 54.87855 80.02000 93.86312 55.91158 80.02000 93.96574 56.95355 80.02000 90.00000 58.00000 80.18000 89.97431 58.78484 80.18000 89.89734 59.56631 80.18000 89.76942 60.34108 80.18000 89.59111 61.10583 80.18000 89.36316 61.85727 80.18000 89.08655 62.59220 80.18000 88.76247 63.30746 80.18000 88.39230 64.00000 80.18000 87.97764 64.66684 80.18000 87.52024 65.30514 80.18000 87.02208 65.91215 80.18000 86.48528 66.48528 80.18000 85.91215 67.02208 80.18000 85.30514 67.52024 80.18000 84.66684 67.97764 80.18000 84.00000 68.39230 80.18000 83.30746 68.76247 80.18000 82.59220 69.08655 80.18000 81.85727 69.36316 80.18000 81.10583 69.59111 80.18000 80.34108 69.76942 80.18000 79.56631 69.89734 80.18000 78.78484 69.97431 80.18000 78.00000 70.00000 80.18000 77.21516 69.97431 80.18000 76.43369 69.89734 80.18000 75.65892 69.76942 80.18000 74.89417 69.59111 80.18000 74.14273 69.36316 80.18000 73.40780 69.08655 80.18000 72.69254 68.76247 80.18000 72.00000 68.39230 80.18000 71.33316 67.97764 80.18000 70.69486 67.52024 80.18000 70.08785 67.02208 80.18000 69.51472 66.48528 80.18000 68.97792 65.91215 80.18000 68.47976 65.30514 80.18000 68.02236 64.66684 80.18000 67.60770 64.00000 80.18000 67.23753 63.30746 80.18000 66.91345 62.59220 80.18000 66.63684 61.85727 80.18000 66.40889 61.10583 80.18000 66.23058 60.34108 80.18000 66.10266 59.56631 80.18000 66.02569 58.78484 80.18000 66.00000 58.00000 80.18000 66.02569 57.21516 80.18000 66.10266 56.43369 80.18000 66.23058 55.65892 80.18000 66.40889 54.89417 80.18000 66.63684 54.14273 80.18000 66.91345 53.40780 80.18000 67.23753 52.69254 80.18000 67.60770 52.00000 80.18000 68.02236 51.33316 80.18000 68.47976 50.69486 80.18000 68.97792 50.08785 80.18000 69.51472 49.51472 80.18000 70.08785 48.97792 80.18000 70.69486 48.47976 80.18000 71.33316 48.02236 80.18000 72.00000 47.60770 80.18000 72.69254 47.23753 80.18000 73.40780 46.91345 80.18000 74.14273 46.63684 80.18000 74.89417 46.40889 80.18000 75.65892 46.23058 80.18000 76.43369 46.10266 80.18000 77.21516 46.02569 80.18000 78.00000 46.00000 80.18000 78.78484 46.02569 80.18000 79.56631 46.10266 80.18000 80.34108 46.23058 80.18000 81.10583 46.40889 80.18000 81.85727 46.63684 80.18000 82.59220 46.91345 80.18000 83.30746 47.23753 80.18000 84.00000 47.60770 80.18000 84.66684 48.02236 80.18000 85.30514 48.47976 80.18000 85.91215 48.97792 80.18000 86.48528 49.51472 80.18000 87.02208 50.08785 80.18000 87.52024 50.69486 80.18000 87.97764 51.33316 80.18000 88.39230 52.00000 80.18000 88.76247 52.69254 80.18000 89.08655 53.40780 80.18000 89.36316 54.14273 80.18000 89.59111 54.89417 80.18000 89.76942 55.65892 80.18000 89.89734 56.43369 80.18000 89.97431 57.21516 80.18000 94.00000 58.00000 80.18000 93.96574 59.04645 80.18000 93.86312 60.08842 80.18000 93.69256 61.12145 80.18000 93.45481 62.14110 80.18000 93.15088 63.14303 80.18000 92.78207 64.12293 80.18000 92.34996 65.07662 80.18000 91.85641 66.00000 80.18000 91.30351 66.88912 80.18000 90.69365 67.74018 80.18000 90.02944 68.54953 80.18000 89.31371 69.31371 80.18000 88.54953 70.02944 80.18000 87.74018 70.69365 80.18000 86.88912 71.30351 80.18000 86.00000 71.85641 80.18000 85.07662 72.34996 80.18000 84.12293 72.78207 80.18000 83.14303 73.15088 80.18000 82.14110 73.45481 80.18000 81.12145 73.69256 80.18000 80.08842 73.86312 80.18000 79.04645 73.96574 80.18000 78.00000 74.00000 80.18000 76.95355 73.96574 80.18000 75.91158 73.86312 80.18000 74.87855 73.69256 80.18000 73.85890 73.45481 80.18000 72.85697 73.15088 80.18000 71.87707 72.78207 80.18000 70.92338 72.34996 80.18000 70.00000 71.85641 80.18000 69.11088 71.30351 80.18000 68.25982 70.69365 80.18000 67.45047 70.02944 80.18000 66.68629 69.31371 80.18000 65.97056 68.54953 80.18000 65.30635 67.74018 80.18000 64.69649 66.88912 80.18000 64.14359 66.00000 80.18000 63.65004 65.07662 80.18000 63.21793 64.12293 80.18000 62.84912 63.14303 80.18000 62.54519 62.14110 80.18000 62.30744 61.12145 80.18000 62.13688 60.08842 80.18000 62.03426 59.04645 80.18000 62.00000 58.00000 80.18000 62.03426 56.95355 80.18000 62.13688 55.91158 80.18000 62.30744 54.87855 80.18000 62.54519 53.85890 80.18000 62.84912 52.85697 80.18000 63.21793 51.87707 80.18000 63.65004 50.92338 80.18000 64.14359 50.00000 80.18000 64.69649 49.11088 80.18000 65.30635 48.25982 80.18000 65.97056 47.45047 80.18000 66.68629 46.68629 80.18000 67.45047 45.97056 80.18000 68.25982 45.30635 80.18000 69.11088 44.69649 80.18000 70.00000 44.14359 80.18000 70.92338 43.65004 80.18000 71.87707 43.21793 80.18000 72.85697 42.84912 80.18000 73.85890 42.54519 80.18000 74.87855 42.30744 80.18000 75.91158 42.13688 80.18000 76.95355 42.03426 80.18000 78.00000 42.00000 80.18000 79.04645 42.03426 80.18000 80.08842 42.13688 80.18000 81.12145 42.30744 80.18000 82.14110 42.54519 80.18000 83.14303 42.84912 80.18000 84.12293 43.21793 80.18000 85.07662 43.65004 80.18000 86.00000 44.14359 80.18000 86.88912 44.69649 80.18000 87.74018 45.30635 80.18000 88.54953 45.97056 80.18000 89.31371 46.68629 80.18000 90.02944 47.45047 80.18000 90.69365 48.25982 80.18000 91.30351 49.11088 80.18000 91.85641 50.00000 80.18000 92.34996 50.92338 80.18000 92.78207 51.87707 80.18000 93.15088 52.85697 80.18000 93.45481 53.85890 80.18000 93.69256 54.87855 80.18000 93.86312 55.91158 80.18000 93.96574 56.95355 80.18000</float_array><technique_common><accessor source="#positions-array" count="384" stride="3"><param name="X" type="float"/><param name="Y" type="float"/><param name="Z" type="float"/></accessor></technique_common></source>
<source id="normals"><float_array id="normals-array" count="2304">0.00000 -0.00000 -1.00000 0.00000 0.00000 -1.00000 0.00000 0.00000 1.00000 0.00000 0.00000 1.00000 0.99946 0.03272 0.00000 0.99946 0.03272 -0.00000 -0.99946 -0.03272 -0.00000 -0.99946 -0.03272 -0.00000 0.00000 -0.00000 -1.00000 0.00000 0.00000 -1.00000 0.00000 0.00000 1.00000 0.00000 0.00000 1.00000 0.99518 0.09802 0.00000 0.99518 0.09802 -0.00000 -0.99518 -0.09802 -0.00000 -0.99518 -0.09802 -0.00000 0.00000 -0.00000 -1.00000 0.00000 0.00000 -1.00000 0.00000 0.00000 1.00000 0.00000 0.00000 1.00000 0.98664 0.16290 0.00000 0.98664 0.16290 -0.00000 -0.98664 -0.16290 -0.00000 -0.98664 -0.16290 -0.00000 0.00000 -0.00000 -1.00000 0.00000 0.00000 -1.00000 0.00000 0.00000 1.00000 0.00000 0.00000 1.00000 0.97388 0.22708 0.00000 0.97388 0.22708 -0.00000 -0.97388 -0.22708 -0.00000 -0.97388 -0.22708 -0.00000 0.00000 -0.00000 -1.00000 0.00000 0.00000 -1.00000 0.00000 0.00000 1.00000 0.00000 0.00000 1.00000 0.95694 0.29028 0.00000 0.95694 0.29028 -0.00000 -0.95694 -0.29028 -0.00000 -0.95694 -0.29028 -0.00000 0.00000 -0.00000 -1.00000 0.00000 0.00000 -1.00000 0.00000 0.00000 1.00000 0.00000 0.00000 1.00000 0.93591 0.35225 0.00000 0.93591 0.35225 -0.00000 -0.93591 -0.35225 -0.00000 -0.93591 -0.35225 -0.00000 0.00000 -0.00000 -1.00000 0.00000 0.00000 -1.00000 0.00000 0.00000 1.00000 0.00000 0.00000 1.00000 0.91086 0.41271 0.00000 0.91086 0.41271 -0.00000 -0.91086 -0.41271 -0.00000 -0.91086 -0.41271 -0.00000 0.00000 -0.00000 -1.00000 0.00000 0.00000 -1.00000 0.00000 0.00000 1.00000 0.00000 0.00000 1.00000 0.88192 0.47140 0.00000 0.88192 0.47140 -0.00000 -0.88192 -0.47140 -0.00000 -0.88192 -0.47140 -0.00000 0.00000 -0.00000 -1.00000 0.00000 0.00000 -1.00000 0.00000 0.00000 1.00000 0.00000 0.00000 1.00000 0.84920 0.52807 0.00000 0.84920 0.52807 -0.00000 -0.84920 -0.52807 -0.00000 -0.84920 -0.52807 -0.00000 0.00000 -0.00000 -1.00000 0.00000 0.00000 -1.00000 0.00000 0.00000 1.00000 0.00000 0.00000 1.00000 0.81285 0.58248 0.00000 0.81285 0.58248 -0.00000 -0.81285 -0.58248 -0.00000 -0.81285 -0.58248 -0.00000 0.00000 -0.00000 -1.00000 0.00000 0.00000 -1.00000 0.00000 0.00000 1.00000 0.00000 0.00000 1.00000 0.77301 0.63439 0.00000 0.77301 0.63439 -0.00000 -0.77301 -0.63439 -0.00000 -0.77301 -0.63439 -0.00000 0.00000 -0.00000 -1.00000 0.00000 0.00000 -1.00000 0.00000 0.00000 1.00000 0.00000 0.00000 1.00000 0.72986 0.68359 0.00000 0.72986 0.68359 -0.00000 -0.72986 -0.68359 -0.00000 -0.72986 -0.68359 -0.00000 0.00000 -0.00000 -1.00000 0.00000 0.00000 -1.00000 0.00000 0.00000 1.00000 0.00000 0.00000 1.00000 0.68359 0.72986 0.00000 0.68359 0.72986 -0.00000 -0.68359 -0.72986 -0.00000 -0.68359 -0.72986 -0.00000 0.00000 -0.00000 -1.00000 0.00000 0.00000 -1.00000 0.00000 0.00000 1.00000 0.00000 0.00000 1.00000 0.63439 0.77301 0.00000 0.63439 0.77301 -0.00000 -0.63439 -0.77301 -0.00000 -0.63439 -0.77301 -0.00000 0.00000 -0.00000 -1.00000 0.00000 0.00000 -1.00000 0.00000 0.00000 1.00000 0.00000 0.00000 1.00000 0.58248 0.81285 0.00000 0.58248 0.81285 -0.00000 -0.58248 -0.81285 -0.00000 -0.58248 -0.81285 -0.00000 0.00000 -0.00000 -1.00000 0.00000 0.00000 -1.00000 0.00000 0.00000 1.00000 0.00000 0.00000 1.00000 0.52807 0.84920 0.00000 0.52807 0.84920 -0.00000 -0.52807 -0.84920 -0.00000 -0.52807 -0.84920 -0.00000 0.00000 -0.00000 -1.00000 0.00000 0.00000 -1.00000 0.00000 0.00000 1.00000 0.00000 0.00000 1.00000 0.47140 0.88192 0.00000 0.47140 0.88192 -0.00000 -0.47140 -0.88192 -0.00000 -0.47140 -0.88192 -0.00000 0.00000 -0.00000 -1.00000 0.00000 0.00000 -1.00000 0.00000 0.00000 1.00000 0.00000 0.00000 1.00000 0.41271 0.91086 0.00000 0.41271 0.91086 -0.00000 -0.41271 -0.91086 -0.00000 -0.41271 -0.91086 -0.00000 0.00000 -0.00000 -1.00000 0.00000 0.00000 -1.00000 0.00000 0.00000 1.00000 0.00000 0.00000 1.00000 0.35225 0.93591 0.00000 0.35225 0.93591 -0.00000 -0.35225 -0.93591 -0.00000 -0.35225 -0.93591 -0.00000 0.00000 -0.00000 -1.00000 0.00000 0.00000 -1.00000 0.00000 0.00000 1.00000 0.00000 0.00000 1.00000 0.29028 0.95694 0.00000 0.29028 0.95694 -0.00000 -0.29028 -0.95694 -0.00000 -0.29028 -0.95694 -0.00000 0.00000 -0.00000 -1.00000 0.00000 0.00000 -1.00000 0.00000 0.00000 1.00000 0.00000 0.00000 1.00000 0.22708 0.97388 0.00000 0.22708 0.97388 -0.00000 -0.22708 -0.97388 -0.00000 -0.22708 -0.97388 -0.00000 0.00000 0.00000 -1.00000 0.00000 0.00000 -1.00000 0.00000 0.00000 1.00000 0.00000 0.00000 1.00000 0.16290 0.98664 0.00000 0.16290 0.98664 -0.00000 -0.16290 -0.98664 -0.00000 -0.16290 -0.98664 -0.00000 0.00000 0.00000 -1.00000 0.00000 0.00000 -1.00000 0.00000 0.00000 1.00000 0.00000 0.00000 1.00000 0.09802 0.99518 0.00000 0.09802 0.99518 -0.00000 -0.09802 -0.99518 -0.00000 -0.09802 -0.99518 -0.00000 0.00000 0.00000 -1.00000 0.00000 0.00000 -1.00000 0.00000 0.00000 1.00000 0.00000 0.00000 1.00000 0.03272 0.99946 0.00000 0.03272 0.99946 -0.00000 -0.03272 -0.99946 -0.00000 -0.03272 -0.99946 -0.00000 0.00000 0.00000 -1.00000 0.00000 0.00000 -1.00000 0.00000 0.00000 1.00000 0.00000 0.00000 1.00000 -0.03272 0.99946 0.00000 -0.03272 0.99946 0.00000 0.03272 -0.99946 0.00000 0.03272 -0.99946 0.00000 0.00000 0.00000 -1.00000 0.00000 0.00000 -1.00000 0.00000 0.00000 1.00000 0.00000 0.00000 1.00000 -0.09802 0.99518 0.00000 -0.09802 0.99518 0.00000 0.09802 -0.99518 0.00000 0.09802 -0.99518 0.00000 0.00000 0.00000 -1.00000 0.00000 0.00000 -1.00000 0.00000 0.00000 1.00000 0.00000 0.00000 1.00000 -0.16290 0.98664 0.00000 -0.16290 0.98664 0.00000 0.16290 -0.98664 0.00000 0.16290 -0.98664 0.00000 0.00000 0.00000 -1.00000 0.00000 0.00000 -1.00000 0.00000 0.00000 1.00000 0.00000 0.00000 1.00000 -0.22708 0.97388 0.00000 -0.22708 0.97388 0.00000 0.22708 -0.97388 0.00000 0.22708 -0.97388 0.00000 0.00000 0.00000 -1.00000 0.00000 0.00000 -1.00000 0.00000 0.00000 1.00000 0.00000 0.00000 1.00000 -0.29028 0.95694 0.00000 -0.29028 0.95694 0.00000 0.29028 -0.95694 0.00000 0.29028 -0.95694 0.00000 0.00000 0.00000 -1.00000 0.00000 0.00000 -1.00000 0.00000 0.00000 1.00000 0.00000 0.00000 1.00000 -0.35225 0.93591 0.00000 -0.35225 0.93591 0.00000 0.35225 -0.93591 0.00000 0.35225 -0.93591 0.00000 0.00000 0.00000 -1.00000 0.00000 0.00000 -1.00000 0.00000 0.00000 1.00000 0.00000 0.00000 1.00000 -0.41271 0.91086 0.00000 -0.41271 0.91086 0.00000 0.41271 -0.91086 0.00000 0.41271 -0.91086 0.00000 0.00000 0.00000 -1.00000 0.00000 0.00000 -1.00000 0.00000 0.00000 1.00000 0.00000 0.00000 1.00000 -0.47140 0.88192 0.00000 -0.47140 0.88192 0.00000 0.47140 -0.88192 0.00000 0.47140 -0.88192 0.00000 0.00000 0.00000 -1.00000 0.00000 0.00000 -1.00000 0.00000 0.00000 1.00000 0.00000 0.00000 1.00000 -0.52807 0.84920 0.00000 -0.52807 0.84920 0.00000 0.52807 -0.84920 0.00000 0.52807 -0.84920 0.00000 0.00000 0.00000 -1.00000 0.00000 0.00000 -1.00000 0.00000 0.00000 1.00000 0.00000 0.00000 1.00000 -0.58248 0.81285 0.00000 -0.58248 0.81285 0.00000 0.58248 -0.81285 0.00000 0.58248 -0.81285 0.00000 0.00000 0.00000 -1.00000 0.00000 0.00000 -1.00000 0.00000 0.00000 1.00000 0.00000 0.00000 1.00000 -0.63439 0.77301 0.00000 -0.63439 0.77301 0.00000 0.63439 -0.77301 0.00000 0.63439 -0.77301 0.00000 0.00000 0.00000 -1.00000 0.00000 0.00000 -1.00000 0.00000 0.00000 1.00000 0.00000 0.00000 1.00000 -0.68359 0.72986 0.00000 -0.68359 0.72986 0.00000 0.68359 -0.72986 0.00000 0.68359 -0.72986 0.00000 0.00000 0.00000 -1.00000 0.00000 0.00000 -1.00000 0.00000 0.00000 1.00000 0.00000 0.00000 1.00000 -0.72986 0.68359 0.00000 -0.72986 0.68359 0.00000 0.72986 -0.68359 0.00000 0.72986 -0.68359 0.00000 0.00000 0.00000 -1.00000 0.00000 0.00000 -1.00000 0.00000 0.00000 1.00000 0.00000 0.00000 1.00000 -0.77301 0.63439 0.00000 -0.77301 0.63439 0.00000 0.77301 -0.63439 0.00000 0.77301 -0.63439 0.00000 0.00000 0.00000 -1.00000 0.00000 0.00000 -1.00000 0.00000 0.00000 1.00000 0.00000 0.00000 1.00000 -0.81285 0.58248 0.00000 -0.81285 0.58248 0.00000 0.81285 -0.58248 0.00000 0.81285 -0.58248 0.00000 0.00000 0.00000 -1.00000 0.00000 0.00000 -1.00000 0.00000 0.00000 1.00000 0.00000 0.00000 1.00000 -0.84920 0.52807 0.00000 -0.84920 0.52807 0.00000 0.84920 -0.52807 0.00000 0.84920 -0.52807 0.00000 0.00000 0.00000 -1.00000 0.00000 0.00000 -1.00000 0.00000 0.00000 1.00000 0.00000 0.00000 1.00000 -0.88192 0.47140 0.00000 -0.88192 0.47140 0.00000 0.88192 -0.47140 0.00000 0.88192 -0.47140 0.00000 0.00000 0.00000 -1.00000 0.00000 0.00000 -1.00000 0.00000 0.00000 1.00000 0.00000 0.00000 1.00000 -0.91086 0.41271 0.00000 -0.91086 0.41271 0.00000 0.91086 -0.41271 0.00000 0.91086 -0.41271 0.00000 0.00000 0.00000 -1.00000 0.00000 0.00000 -1.00000 0.00000 0.00000 1.00000 0.00000 0.00000 1.00000 -0.93591 0.35225 0.00000 -0.93591 0.35225 0.00000 0.93591 -0.35225 0.00000 0.93591 -0.35225 0.00000 0.00000 0.00000 -1.00000 0.00000 0.00000 -1.00000 0.00000 0.00000 1.00000 0.00000 0.00000 1.00000 -0.95694 0.29028 0.00000 -0.95694 0.29028 0.00000 0.95694 -0.29028 0.00000 0.95694 -0.29028 0.00000 0.00000 0.00000 -1.00000 0.00000 0.00000 -1.00000 0.00000 0.00000 1.00000 0.00000 0.00000 1.00000 -0.97388 0.22708 0.00000 -0.97388 0.22708 0.00000 0.97388 -0.22708 0.00000 0.97388 -0.22708 0.00000 0.00000 0.00000 -1.00000 0.00000 0.00000 -1.00000 -0.00000 0.00000 1.00000 0.00000 0.00000 1.00000 -0.98664 0.16290 0.00000 -0.98664 0.16290 0.00000 0.98664 -0.16290 0.00000 0.98664 -0.16290 0.00000 0.00000 0.00000 -1.00000 0.00000 0.00000 -1.00000 -0.00000 0.00000 1.00000 0.00000 0.00000 1.00000 -0.99518 0.09802 0.00000 -0.99518 0.09802 0.00000 0.99518 -0.09802 0.00000 0.99518 -0.09802 0.00000 0.00000 0.00000 -1.00000 0.00000 0.00000 -1.00000 0.00000 0.00000 1.00000 0.00000 0.00000 1.00000 -0.99946 0.03272 0.00000 -0.99946 0.03272 0.00000 0.99946 -0.03272 0.00000 0.99946 -0.03272 0.00000 0.00000 0.00000 -1.00000 -0.00000 0.00000 -1.00000 0.00000 0.00000 1.00000 -0.00000 0.00000 1.00000 -0.99946 -0.03272 0.00000 -0.99946 -0.03272 0.00000 0.99946 0.03272 0.00000 0.99946 0.03272 0.00000 0.00000 0.00000 -1.00000 -0.00000 0.00000 -1.00000 0.00000 0.00000 1.00000 -0.00000 0.00000 1.00000 -0.99518 -0.09802 0.00000 -0.99518 -0.09802 0.00000 0.99518 0.09802 0.00000 0.99518 0.09802 0.00000 0.00000 0.00000 -1.00000 -0.00000 0.00000 -1.00000 0.00000 0.00000 1.00000 -0.00000 0.00000 1.00000 -0.98664 -0.16290 0.00000 -0.98664 -0.16290 0.00000 0.98664 0.16290 0.00000 0.98664 0.16290 0.00000 0.00000 0.00000 -1.00000 -0.00000 0.00000 -1.00000 0.00000 0.00000 1.00000 -0.00000 0.00000 1.00000 -0.97388 -0.22708 0.00000 -0.97388 -0.22708 0.00000 0.97388 0.22708 0.00000 0.97388 0.22708 0.00000 0.00000 0.00000 -1.00000 -0.00000 0.00000 -1.00000 0.00000 0.00000 1.00000 -0.00000 0.00000 1.00000 -0.95694 -0.29028 0.00000 -0.95694 -0.29028 0.00000 0.95694 0.29028 0.00000 0.95694 0.29028 0.00000 0.00000 0.00000 -1.00000 -0.00000 0.00000 -1.00000 0.00000 0.00000 1.00000 -0.00000 0.00000 1.00000 -0.93591 -0.35225 0.00000 -0.93591 -0.35225 0.00000 0.93591 0.35225 0.00000 0.93591 0.35225 0.00000 0.00000 0.00000 -1.00000 -0.00000 0.00000 -1.00000 0.00000 0.00000 1.00000 -0.00000 0.00000 1.00000 -0.91086 -0.41271 0.00000 -0.91086 -0.41271 0.00000 0.91086 0.41271 0.00000 0.91086 0.41271 0.00000 0.00000 0.00000 -1.00000 -0.00000 0.00000 -1.00000 0.00000 0.00000 1.00000 -0.00000 0.00000 1.00000 -0.88192 -0.47140 0.00000 -0.88192 -0.47140 0.00000 0.88192 0.47140 0.00000 0.88192 0.47140 0.00000 0.00000 0.00000 -1.00000 -0.00000 0.00000 -1.00000 0.00000 0.00000 1.00000 -0.00000 0.00000 1.00000 -0.84920 -0.52807 0.00000 -0.84920 -0.52807 0.00000 0.84920 0.52807 0.00000 0.84920 0.52807 0.00000 0.00000 0.00000 -1.00000 -0.00000 0.00000 -1.00000 0.00000 0.00000 1.00000 -0.00000 0.00000 1.00000 -0.81285 -0.58248 0.00000 -0.81285 -0.58248 0.00000 0.81285 0.58248 0.00000 0.81285 0.58248 0.00000 0.00000 0.00000 -1.00000 -0.00000 0.00000 -1.00000 0.00000 0.00000 1.00000 -0.00000 0.00000 1.00000 -0.77301 -0.63439 0.00000 -0.77301 -0.63439 0.00000 0.77301 0.63439 0.00000 0.77301 0.63439 0.00000 0.00000 0.00000 -1.00000 -0.00000 0.00000 -1.00000 0.00000 0.00000 1.00000 -0.00000 0.00000 1.00000 -0.72986 -0.68359 0.00000 -0.72986 -0.68359 0.00000 0.72986 0.68359 0.00000 0.72986 0.68359 0.00000 0.00000 0.00000 -1.00000 -0.00000 0.00000 -1.00000 0.00000 0.00000 1.00000 -0.00000 0.00000 1.00000 -0.68359 -0.72986 0.00000 -0.68359 -0.72986 0.00000 0.68359 0.72986 0.00000 0.68359 0.72986 0.00000 0.00000 0.00000 -1.00000 -0.00000 0.00000 -1.00000 0.00000 0.00000 1.00000 -0.00000 0.00000 1.00000 -0.63439 -0.77301 0.00000 -0.63439 -0.77301 0.00000 0.63439 0.77301 0.00000 0.63439 0.77301 0.00000 0.00000 0.00000 -1.00000 -0.00000 0.00000 -1.00000 0.00000 0.00000 1.00000 -0.00000 0.00000 1.00000 -0.58248 -0.81285 0.00000 -0.58248 -0.81285 0.00000 0.58248 0.81285 0.00000 0.58248 0.81285 0.00000 0.00000 0.00000 -1.00000 -0.00000 0.00000 -1.00000 0.00000 0.00000 1.00000 -0.00000 0.00000 1.00000 -0.52807 -0.84920 0.00000 -0.52807 -0.84920 0.00000 0.52807 0.84920 0.00000 0.52807 0.84920 0.00000 0.00000 0.00000 -1.00000 -0.00000 0.00000 -1.00000 0.00000 0.00000 1.00000 -0.00000 0.00000 1.00000 -0.47140 -0.88192 0.00000 -0.47140 -0.88192 0.00000 0.47140 0.88192 0.00000 0.47140 0.88192 0.00000 0.00000 0.00000 -1.00000 -0.00000 0.00000 -1.00000 0.00000 0.00000 1.00000 -0.00000 0.00000 1.00000 -0.41271 -0.91086 0.00000 -0.41271 -0.91086 0.00000 0.41271 0.91086 0.00000 0.41271 0.91086 0.00000 0.00000 0.00000 -1.00000 -0.00000 0.00000 -1.00000 0.00000 0.00000 1.00000 -0.00000 0.00000 1.00000 -0.35225 -0.93591 0.00000 -0.35225 -0.93591 0.00000 0.35225 0.93591 0.00000 0.35225 0.93591 0.00000 0.00000 0.00000 -1.00000 -0.00000 0.00000 -1.00000 0.00000 0.00000 1.00000 -0.00000 0.00000 1.00000 -0.29028 -0.95694 0.00000 -0.29028 -0.95694 0.00000 0.29028 0.95694 0.00000 0.29028 0.95694 0.00000 0.00000 0.00000 -1.00000 -0.00000 0.00000 -1.00000 0.00000 0.00000 1.00000 -0.00000 0.00000 1.00000 -0.22708 -0.97388 0.00000 -0.22708 -0.97388 0.00000 0.22708 0.97388 0.00000 0.22708 0.97388 0.00000 0.00000 0.00000 -1.00000 -0.00000 0.00000 -1.00000 0.00000 -0.00000 1.00000 -0.00000 0.00000 1.00000 -0.16290 -0.98664 0.00000 -0.16290 -0.98664 0.00000 0.16290 0.98664 0.00000 0.16290 0.98664 0.00000 0.00000 0.00000 -1.00000 -0.00000 0.00000 -1.00000 0.00000 -0.00000 1.00000 -0.00000 0.00000 1.00000 -0.09802 -0.99518 0.00000 -0.09802 -0.99518 0.00000 0.09802 0.99518 0.00000 0.09802 0.99518 0.00000 0.00000 0.00000 -1.00000 -0.00000 -0.00000 -1.00000 0.00000 -0.00000 1.00000 -0.00000 0.00000 1.00000 -0.03272 -0.99946 0.00000 -0.03272 -0.99946 0.00000 0.03272 0.99946 0.00000 0.03272 0.99946 0.00000 -0.00000 0.00000 -1.00000 0.00000 -0.00000 -1.00000 0.00000 0.00000 1.00000 0.00000 0.00000 1.00000 0.03272 -0.99946 0.00000 0.03272 -0.99946 0.00000 -0.03272 0.99946 0.00000 -0.03272 0.99946 0.00000 -0.00000 0.00000 -1.00000 0.00000 -0.00000 -1.00000 0.00000 0.00000 1.00000 0.00000 -0.00000 1.00000 0.09802 -0.99518 0.00000 0.09802 -0.99518 0.00000 -0.09802 0.99518 0.00000 -0.09802 0.99518 0.00000 -0.00000 0.00000 -1.00000 0.00000 -0.00000 -1.00000 0.00000 0.00000 1.00000 0.00000 -0.00000 1.00000 0.16290 -0.98664 0.00000 0.16290 -0.98664 0.00000 -0.16290 0.98664 0.00000 -0.16290 0.98664 0.00000 -0.00000 0.00000 -1.00000 0.00000 -0.00000 -1.00000 0.00000 0.00000 1.00000 0.00000 -0.00000 1.00000 0.22708 -0.97388 0.00000 0.22708 -0.97388 0.00000 -0.22708 0.97388 0.00000 -0.22708 0.97388 0.00000 -0.00000 0.00000 -1.00000 0.00000 -0.00000 -1.00000 0.00000 0.00000 1.00000 0.00000 -0.00000 1.00000 0.29028 -0.95694 0.00000 0.29028 -0.95694 0.00000 -0.29028 0.95694 0.00000 -0.29028 0.95694 0.00000 -0.00000 0.00000 -1.00000 0.00000 -0.00000 -1.00000 0.00000 0.00000 1.00000 0.00000 -0.00000 1.00000 0.35225 -0.93591 0.00000 0.35225 -0.93591 0.00000 -0.35225 0.93591 0.00000 -0.35225 0.93591 0.00000 -0.00000 0.00000 -1.00000 0.00000 -0.00000 -1.00000 0.00000 0.00000 1.00000 0.00000 -0.00000 1.00000 0.41271 -0.91086 0.00000 0.41271 -0.91086 0.00000 -0.41271 0.91086 0.00000 -0.41271 0.91086 0.00000 -0.00000 0.00000 -1.00000 0.00000 -0.00000 -1.00000 0.00000 0.00000 1.00000 0.00000 -0.00000 1.00000 0.47140 -0.88192 0.00000 0.47140 -0.88192 0.00000 -0.47140 0.88192 0.00000 -0.47140 0.88192 0.00000 -0.00000 0.00000 -1.00000 0.00000 -0.00000 -1.00000 0.00000 0.00000 1.00000 0.00000 -0.00000 1.00000 0.52807 -0.84920 0.00000 0.52807 -0.84920 0.00000 -0.52807 0.84920 0.00000 -0.52807 0.84920 0.00000 -0.00000 0.00000 -1.00000 0.00000 -0.00000 -1.00000 0.00000 0.00000 1.00000 0.00000 -0.00000 1.00000 0.58248 -0.81285 0.00000 0.58248 -0.81285 0.00000 -0.58248 0.81285 0.00000 -0.58248 0.81285 0.00000 -0.00000 0.00000 -1.00000 0.00000 -0.00000 -1.00000 0.00000 0.00000 1.00000 0.00000 -0.00000 1.00000 0.63439 -0.77301 0.00000 0.63439 -0.77301 0.00000 -0.63439 0.77301 0.00000 -0.63439 0.77301 0.00000 -0.00000 0.00000 -1.00000 0.00000 -0.00000 -1.00000 0.00000 0.00000 1.00000 0.00000 -0.00000 1.00000 0.68359 -0.72986 0.00000 0.68359 -0.72986 0.00000 -0.68359 0.72986 0.00000 -0.68359 0.72986 0.00000 -0.00000 0.00000 -1.00000 0.00000 -0.00000 -1.00000 0.00000 0.00000 1.00000 0.00000 -0.00000 1.00000 0.72986 -0.68359 0.00000 0.72986 -0.68359 0.00000 -0.72986 0.68359 0.00000 -0.72986 0.68359 0.00000 -0.00000 0.00000 -1.00000 0.00000 -0.00000 -1.00000 0.00000 0.00000 1.00000 0.00000 -0.00000 1.00000 0.77301 -0.63439 0.00000 0.77301 -0.63439 0.00000 -0.77301 0.63439 0.00000 -0.77301 0.63439 0.00000 -0.00000 0.00000 -1.00000 0.00000 -0.00000 -1.00000 0.00000 0.00000 1.00000 0.00000 -0.00000 1.00000 0.81285 -0.58248 0.00000 0.81285 -0.58248 0.00000 -0.81285 0.58248 0.00000 -0.81285 0.58248 0.00000 -0.00000 0.00000 -1.00000 0.00000 -0.00000 -1.00000 0.00000 0.00000 1.00000 0.00000 -0.00000 1.00000 0.84920 -0.52807 0.00000 0.84920 -0.52807 0.00000 -0.84920 0.52807 0.00000 -0.84920 0.52807 0.00000 -0.00000 0.00000 -1.00000 0.00000 -0.00000 -1.00000 0.00000 0.00000 1.00000 0.00000 -0.00000 1.00000 0.88192 -0.47140 0.00000 0.88192 -0.47140 0.00000 -0.88192 0.47140 0.00000 -0.88192 0.47140 0.00000 -0.00000 0.00000 -1.00000 0.00000 -0.00000 -1.00000 0.00000 0.00000 1.00000 0.00000 -0.00000 1.00000 0.91086 -0.41271 0.00000 0.91086 -0.41271 0.00000 -0.91086 0.41271 0.00000 -0.91086 0.41271 0.00000 -0.00000 0.00000 -1.00000 0.00000 -0.00000 -1.00000 0.00000 0.00000 1.00000 0.00000 -0.00000 1.00000 0.93591 -0.35225 0.00000 0.93591 -0.35225 0.00000 -0.93591 0.35225 0.00000 -0.93591 0.35225 0.00000 -0.00000 0.00000 -1.00000 0.00000 -0.00000 -1.00000 0.00000 0.00000 1.00000 0.00000 -0.00000 1.00000 0.95694 -0.29028 0.00000 0.95694 -0.29028 0.00000 -0.95694 0.29028 0.00000 -0.95694 0.29028 0.00000 -0.00000 0.00000 -1.00000 0.00000 -0.00000 -1.00000 0.00000 0.00000 1.00000 0.00000 -0.00000 1.00000 0.97388 -0.22708 0.00000 0.97388 -0.22708 0.00000 -0.97388 0.22708 0.00000 -0.97388 0.22708 0.00000 0.00000 0.00000 -1.00000 0.00000 -0.00000 -1.00000 0.00000 0.00000 1.00000 0.00000 -0.00000 1.00000 0.98664 -0.16290 0.00000 0.98664 -0.16290 0.00000 -0.98664 0.16290 0.00000 -0.98664 0.16290 0.00000 0.00000 0.00000 -1.00000 0.00000 -0.00000 -1.00000 0.00000 0.00000 1.00000 0.00000 -0.00000 1.00000 0.99518 -0.09802 0.00000 0.99518 -0.09802 0.00000 -0.99518 0.09802 0.00000 -0.99518 0.09802 0.00000 0.00000 0.00000 -1.00000 0.00000 -0.00000 -1.00000 0.00000 0.00000 1.00000 0.00000 -0.00000 1.00000 0.99946 -0.03272 0.00000 0.99946 -0.03272 0.00000 -0.99946 0.03272 0.00000 -0.99946 0.03272 0.00000</float_array><technique_common><accessor source="#normals-array" count="768" stride="3"><param name="X" type="float"/><param name="Y" type="float"/><param name="Z" type="float"/></accessor></technique_common></source>
<vertices id="vertices"><input semantic="POSITION" source="#positions"/></vertices><triangles count="768"><input semantic="VERTEX" source="#vertices" offset="0"/><input semantic="NORMAL" source="#normals" offset="1"/><p>97 0 96 0 0 0 1 1 97 1 0 1 289 2 193 2 192 2 288 3 289 3 192 3 289 4 288 4 96 4 97 5 289 5 96 5 193 6 1 6 0 6 192 7 193 7 0 7 98 8 97 8 1 8 2 9 98 9 1 9 290 10 194 10 193 10 289 11 290 11 193 11 290 12 289 12 97 12 98 13 290 13 97 13 194 14 2 14 1 14 193 15 194 15 1 15 99 16 98 16 2 16 3 17 99 17 2 17 291 18 195 18 194 18 290 19 291 19 194 19 291 20 290 20 98 20 99 21 291 21 98 21 195 22 3 22 2 22 194 23 195 23 2 23 100 24 99 24 3 24 4 25 100 25 3 25 292 26 196 26 195 26 291 27 292 27 195 27 292 28 291 28 99 28 100 29 292 29 99 29 196 30 4 30 3 30 195 31 196 31 3 31 101 32 100 32 4 32 5 33 101 33 4 33 293 34 197 34 196 34 292 35 293 35 196 35 293 36 292 36 100 36 101 37 293 37 100 37 197 38 5 38 4 38 196 39 197 39 4 39 102 40 101 40 5 40 6 41 102 41 5 41 294 42 198 42 197 42 293 43 294 43 197 43 294 44 293 44 101 44 102 45 294 45 101 45 198 46 6 46 5 46 197 47 198 47 5 47 103 48 102 48 6 48 7 49 103 49 6 49 295 50 199 50 198 50 294 51 295 51 198 51 295 52 294 52 102 52 103 53 295 53 102 53 199 54 7 54 6 54 198 55 199 55 6 55 104 56 103 56 7 56 8 57 104 57 7 57 296 58 200 58 199 58 295 59 296 59 199 59 296 60 295 60 103 60 104 61 296 61 103 61 200 62 8 62 7 62 199 63 200 63 7 63 105 64 104 64 8 64 9 65 105 65 8 65 297 66 201 66 200 66 296 67 297 67 200 67 297 68 296 68 104 68 105 69 297 69 104 69 201 70 9 70 8 70 200 71 201 71 8 71 106 72 105 72 9 72 10 73 106 73 9 73 298 74 202 74 201 74 297 75 298 75 201 75 298 76 297 76 105 76 106 77 298 77 105 77 202 78 10 78 9 78 201 79 202 79 9 79 107 80 106 80 10 80 11 81 107 81 10 81 299 82 203 82 202 82 298 83 299 83 202 83 299 84 298 84 106 84 107 85 299 85 106 85 203 86 11 86 10 86 202 87 203 87 10 87 108 88 107 88 11 88 12 89 108 89 11 89 300 90 204 90 203 90 299 91 300 91 203 91 300 92 299 92 107 92 108 93 300 93 107 93 204 94 12 94 11 94 203 95 204 95 11 95 109 96 108 96 12 96 13 97 109 97 12 97 301 98 205 98 204 98 300 99 301 99 204 99 301 100 300 100 108 100 109 101 301 101 108 101 205 102 13 102 12 102 204 103 205 103 12 103 110 104 109 104 13 104 14 105 110 105 13 105 302 106 206 106 205 106 301 107 302 107 205 107 302 108 301 108 109 108 110 109 302 109 109 109 206 110 14 110 13 110 205 111 206 111 13 111 111 112 110 112 14 112 15 113 111 113 14 113 303 114 207 114 206 114 302 115 303 115 206 115 303 116 302 116 110 116 111 117 303 117 110 117 207 118 15 118 14 118 206 119 207 119 14 119 112 120 111 120 15 120 16 121 112 121 15 121 304 122 208 122 207 122 303 123 304 123 207 123 304 124 303 124 111 124 112 125 304 125 111 125 208 126 16 126 15 126 207 127 208 127 15 127 113 128 112 128 16 128 17 129 113 129 16 129 305 130 209 130 208 130 304 131 305 131 208 131 305 132 304 132 112 132 113 133 305 133 112 133 209 134 17 134 16 134 208 135 209 135 16 135 114 136 113 136 17 136 18 137 114 137 17 137 306 138 210 138 209 138 305 139 306 139 209 139 306 140 305 140 113 140 114 141 306 141 113 141 210 142 18 142 17 142 209 143 210 143 17 143 115 144 114 144 18 144 19 145 115 145 18 145 307 146 211 146 210 146 306 147 307 147 210 147 307 148 306 148 114 148 115 149 307 149 114 149 211 150 19 150 18 150 210 151 211 151 18 151 116 152 115 152 19 152 20 153 116 153 19 153 308 154 212 154 211 154 307 155 308 155 211 155 308 156 307 156 115 156 116 157 308 157 115 157 212 158 20 158 19 158 211 159 212 159 19 159 117 160 116 160 20 160 21 161 117 161 20 161 309 162 213 162 212 162 308 163 309 163 212 163 309 164 308 164 116 164 117 165 309 165 116 165 213 166 21 166 20 166 212 167 213 167 20 167 118 168 117 168 21 168 22 169 118 169 21 169 310 170 214 170 213 170 309 171 310 171 213 171 310 172 309 172 117 172 118 173 310 173 117 173 214 174 22 174 21 174 213 175 214 175 21 175 119 176 118 176 22 176 23 177 119 177 22 177 311 178 215 178 214 178 310 179 311 179 214 179 311 180 310 180 118 180 119 181 311 181 118 181 215 182 23 182 22 182 214 183 215 183 22 183 120 184 119 184 23 184 24 185 120 185 23 185 312 186 216 186 215 186 311 187 312 187 215 187 312 188 311 188 119 188 120 189 312 189 119 189 216 190 24 190 23 190 215 191 216 191 23 191 121 192 120 192 24 192 25 193 121 193 24 193 313 194 217 194 216 194 312 195 313 195 216 195 313 196 312 196 120 196 121 197 313 197 120 197 217 198 25 198 24 198 216 199 217 199 24 199 122 200 121 200 25 200 26 201 122 201 25 201 314 202 218 202 217 202 313 203 314 203 217 203 314 204 313 204 121 204 122 205 314 205 121 205 218 206 26 206 25 206 217 207 218 207 25 207 123 208 122 208 26 208 27 209 123 209 26 209 315 210 219 210 218 210 314 211 315 211 218 211 315 212 314 212 122 212 123 213 315 213 122 213 219 214 27 214 26 214 218 215 219 215 26 215 124 216 123 216 27 216 28 217 124 217 27 217 316 218 220 218 219 218 315 219 316 219 219 219 316 220 315 220 123 220 124 221 316 221 123 221 220 222 28 222 27 222 219 223 220 223 27 223 125 224 124 224 28 224 29 225 125 225 28 225 317 226 221 226 220 226 316 227 317 227 220 227 317 228 316 228 124 228 125 229 317 229 124 229 221 230 29 230 28 230 220 231 221 231 28 231 126 232 125 232 29 232 30 233 126 233 29 233 318 234 222 234 221 234 317 235 318 235 221 235 318 236 317 236 125 236 126 237 318 237 125 237 222 238 30 238 29 238 221 239 222 239 29 239 127 240 126 240 30 240 31 241 127 241 30 241 319 242 223 242 222 242 318 243 319 243 222 243 319 244 318 244 126 244 127 245 319 245 126 245 223 246 31 246 30 246 222 247 223 247 30 247 128 248 127 248 31 248 32 249 128 249 31 249 320 250 224 250 223 250 319 251 320 251 223 251 320 252 319 252 127 252 128 253 320 253 127 253 224 254 32 254 31 254 223 255 224 255 31 255 129 256 128 256 32 256 33 257 129 257 32 257 321 258 225 258 224 258 320 259 321 259 224 259 321 260 320 260 128 260 129 261 321 261 128 261 225 262 33 262 32 262 224 263 225 263 32 263 130 264 129 264 33 264 34 265 130 265 33 265 322 266 226 266 225 266 321 267 322 267 225 267 322 268 321 268 129 268 130 269 322 269 129 269 226 270 34 270 33 270 225 271 226 271 33 271 131 272 130 272 34 272 35 273 131 273 34 273 323 274 227 274 226 274 322 275 323 275 226 275 323 276 322 276 130 276 131 277 323 277 130 277 227 278 35 278 34 278 226 279 227 279 34 279 132 280 131 280 35 280 36 281 132 281 35 281 324 282 228 282 227 282 323 283 324 283 227 283 324 284 323 284 131 284 132 285 324 285 131 285 228 286 36 286 35 286 227 287 228 287 35 287 133 288 132 288 36 288 37 289 133 289 36 289 325 290 229 290 228 290 324 291 325 291 228 291 325 292 324 292 132 292 133 293 325 293 132 293 229 294 37 294 36 294 228 295 229 295 36 295 134 296 133 296 37 296 38 297 134 297 37 297 326 298 230 298 229 298 325 299 326 299 229 299 326 300 325 300 133 300 134 301 326 301 133 301 230 302 38 302 37 302 229 303 230 303 37 303 135 304 134 304 38 304 39 305 135 305 38 305 327 306 231 306 230 306 326 307 327 307 230 307 327 308 326 308 134 308 135 309 327 309 134 309 231 310 39 310 38 310 230 311 231 311 38 311 136 312 135 312 39 312 40 313 136 313 39 313 328 314 232 314 231 314 327 315 328 315 231 315 328 316 327 316 135 316 136 317 328 317 135 317 232 318 40 318 39 318 231 319 232 319 39 319 137 320 136 320 40 320 41 321 137 321 40 321 329 322 233 322 232 322 328 323 329 323 232 323 329 324 328 324 136 324 137 325 329 325 136 325 233 326 41 326 40 326 232 327 233 327 40 327 138 328 137 328 41 328 42 329 138 329 41 329 330 330 234 330 233 330 329 331 330 331 233 331 330 332 329 332 137 332 138 333 330 333 137 333 234 334 42 334 41 334 233 335 234 335 41 335 139 336 138 336 42 336 43 337 139 337 42 337 331 338 235 338 234 338 330 339 331 339 234 339 331 340 330 340 138 340 139 341 331 341 138 341 235 342 43 342 42 342 234 343 235 343 42 343 140 344 139 344 43 344 44 345 140 345 43 345 332 346 236 346 235 346 331 347 332 347 235 347 332 348 331 348 139 348 140 349 332 349 139 349 236 350 44 350 43 350 235 351 236 351 43 351 141 352 140 352 44 352 45 353 141 353 44 353 333 354 237 354 236 354 332 355 333 355 236 355 333 356 332 356 140 356 141 357 333 357 140 357 237 358 45 358 44 358 236 359 237 359 44 359 142 360 141 360 45 360 46 361 142 361 45 361 334 362 238 362 237 362 333 363 334 363 237 363 334 364 333 364 141 364 142 365 334 365 141 365 238 366 46 366 45 366 237 367 238 367 45 367 143 368 142 368 46 368 47 369 143 369 46 369 335 370 239 370 238 370 334 371 335 371 238 371 335 372 334 372 142 372 143 373 335 373 142 373 239 374 47 374 46 374 238 375 239 375 46 375 144 376 143 376 47 376 48 377 144 377 47 377 336 378 240 378 239 378 335 379 336 379 239 379 336 380 335 380 143 380 144 381 336 381 143 381 240 382 48 382 47 382 239 383 240 383 47 383 145 384 144 384 48 384 49 385 145 385 48 385 337 386 241 386 240 386 336 387 337 387 240 387 337 388 336 388 144 388 145 389 337 389 144 389 241 390 49 390 48 390 240 391 241 391 48 391 146 392 145 392 49 392 50 393 146 393 49 393 338 394 242 394 241 394 337 395 338 395 241 395 338 396 337 396 145 396 146 397 338 397 145 397 242 398 50 398 49 398 241 399 242 399 49 399 147 400 146 400 50 400 51 401 147 401 50 401 339 402 243 402 242 402 338 403 339 403 242 403 339 404 338 404 146 404 147 405 339 405 146 405 243 406 51 406 50 406 242 407 243 407 50 407 148 408 147 408 51 408 52 409 148 409 51 409 340 410 244 410 243 410 339 411 340 411 243 411 340 412 339 412 147 412 148 413 340 413 147 413 244 414 52 414 51 414 243 415 244 415 51 415 149 416 148 416 52 416 53 417 149 417 52 417 341 418 245 418 244 418 340 419 341 419 244 419 341 420 340 420 148 420 149 421 341 421 148 421 245 422 53 422 52 422 244 423 245 423 52 423 150 424 149 424 53 424 54 425 150 425 53 425 342 426 246 426 245 426 341 427 342 427 245 427 342 428 341 428 149 428 150 429 342 429 149 429 246 430 54 430 53 430 245 431 246 431 53 431 151 432 150 432 54 432 55 433 151 433 54 433 343 434 247 434 246 434 342 435 343 435 246 435 343 436 342 436 150 436 151 437 343 437 150 437 247 438 55 438 54 438 246 439 247 439 54 439 152 440 151 440 55 440 56 441 152 441 55 441 344 442 248 442 247 442 343 443 344 443 247 443 344 444 343 444 151 444 152 445 344 445 151 445 248 446 56 446 55 446 247 447 248 447 55 447 153 448 152 448 56 448 57 449 153 449 56 449 345 450 249 450 248 450 344 451 345 451 248 451 345 452 344 452 152 452 153 453 345 453 152 453 249 454 57 454 56 454 248 455 249 455 56 455 154 456 153 456 57 456 58 457 154 457 57 457 346 458 250 458 249 458 345 459 346 459 249 459 346 460 345 460 153 460 154 461 346 461 153 461 250 462 58 462 57 462 249 463 250 463 57 463 155 464 154 464 58 464 59 465 155 465 58 465 347 466 251 466 250 466 346 467 347 467 250 467 347 468 346 468 154 468 155 469 347 469 154 469 251 470 59 470 58 470 250 471 251 471 58 471 156 472 155 472 59 472 60 473 156 473 59 473 348 474 252 474 251 474 347 475 348 475 251 475 348 476 347 476 155 476 156 477 348 477 155 477 252 478 60 478 59 478 251 479 252 479 59 479 157 480 156 480 60 480 61 481 157 481 60 481 349 482 253 482 252 482 348 483 349 483 252 483 349 484 348 484 156 484 157 485 349 485 156 485 253 486 61 486 60 486 252 487 253 487 60 487 158 488 157 488 61 488 62 489 158 489 61 489 350 490 254 490 253 490 349 491 350 491 253 491 350 492 349 492 157 492 158 493 350 493 157 493 254 494 62 494 61 494 253 495 254 495 61 495 159 496 158 496 62 496 63 497 159 497 62 497 351 498 255 498 254 498 350 499 351 499 254 499 351 500 350 500 158 500 159 501 351 501 158 501 255 502 63 502 62 502 254 503 255 503 62 503 160 504 159 504 63 504 64 505 160 505 63 505 352 506 256 506 255 506 351 507 352 507 255 507 352 508 351 508 159 508 160 509 352 509 159 509 256 510 64 510 63 510 255 511 256 511 63 511 161 512 160 512 64 512 65 513 161 513 64 513 353 514 257 514 256 514 352 515 353 515 256 515 353 516 352 516 160 516 161 517 353 517 160 517 257 518 65 518 64 518 256 519 257 519 64 519 162 520 161 520 65 520 66 521 162 521 65 521 354 522 258 522 257 522 353 523 354 523 257 523 354 524 353 524 161 524 162 525 354 525 161 525 258 526 66 526 65 526 257 527 258 527 65 527 163 528 162 528 66 528 67 529 163 529 66 529 355 530 259 530 258 530 354 531 355 531 258 531 355 532 354 532 162 532 163 533 355 533 162 533 259 534 67 534 66 534 258 535 259 535 66 535 164 536 163 536 67 536 68 537 164 537 67 537 356 538 260 538 259 538 355 539 356 539 259 539 356 540 355 540 163 540 164 541 356 541 163 541 260 542 68 542 67 542 259 543 260 543 67 543 165 544 164 544 68 544 69 545 165 545 68 545 357 546 261 546 260 546 356 547 357 547 260 547 357 548 356 548 164 548 165 549 357 549 164 549 261 550 69 550 68 550 260 551 261 551 68 551 166 552 165 552 69 552 70 553 166 553 69 553 358 554 262 554 261 554 357 555 358 555 261 555 358 556 357 556 165 556 166 557 358 557 165 557 262 558 70 558 69 558 261 559 262 559 69 559 167 560 166 560 70 560 71 561 167 561 70 561 359 562 263 562 262 562 358 563 359 563 262 563 359 564 358 564 166 564 167 565 359 565 166 565 263 566 71 566 70 566 262 567 263 567 70 567 168 568 167 568 71 568 72 569 168 569 71 569 360 570 264 570 263 570 359 571 360 571 263 571 360 572 359 572 167 572 168 573 360 573 167 573 264 574 72 574 71 574 263 575 264 575 71 575 169 576 168 576 72 576 73 577 169 577 72 577 361 578 265 578 264 578 360 579 361 579 264 579 361 580 360 580 168 580 169 581 361 581 168 581 265 582 73 582 72 582 264 583 265 583 72 583 170 584 169 584 73 584 74 585 170 585 73 585 362 586 266 586 265 586 361 587 362 587 265 587 362 588 361 588 169 588 170 589 362 589 169 589 266 590 74 590 73 590 265 591 266 591 73 591 171 592 170 592 74 592 75 593 171 593 74 593 363 594 267 594 266 594 362 595 363 595 266 595 363 596 362 596 170 596 171 597 363 597 170 597 267 598 75 598 74 598 266 599 267 599 74 599 172 600 171 600 75 600 76 601 172 601 75 601 364 602 268 602 267 602 363 603 364 603 267 603 364 604 363 604 171 604 172 605 364 605 171 605 268 606 76 606 75 606 267 607 268 607 75 607 173 608 172 608 76 608 77 609 173 609 76 609 365 610 269 610 268 610 364 611 365 611 268 611 365 612 364 612 172 612 173 613 365 613 172 613 269 614 77 614 76 614 268 615 269 615 76 615 174 616 173 616 77 616 78 617 174 617 77 617 366 618 270 618 269 618 365 619 366 619 269 619 366 620 365 620 173 620 174 621 366 621 173 621 270 622 78 622 77 622 269 623 270 623 77 623 175 624 174 624 78 624 79 625 175 625 78 625 367 626 271 626 270 626 366 627 367 627 270 627 367 628 366 628 174 628 175 629 367 629 174 629 271 630 79 630 78 630 270 631 271 631 78 631 176 632 175 632 79 632 80 633 176 633 79 633 368 634 272 634 271 634 367 635 368 635 271 635 368 636 367 636 175 636 176 637 368 637 175 637 272 638 80 638 79 638 271 639 272 639 79 639 177 640 176 640 80 640 81 641 177 641 80 641 369 642 273 642 272 642 368 643 369 643 272 643 369 644 368 644 176 644 177 645 369 645 176 645 273 646 81 646 80 646 272 647 273 647 80 647 178 648 177 648 81 648 82 649 178 649 81 649 370 650 274 650 273 650 369 651 370 651 273 651 370 652 369 652 177 652 178 653 370 653 177 653 274 654 82 654 81 654 273 655 274 655 81 655 179 656 178 656 82 656 83 657 179 657 82 657 371 658 275 658 274 658 370 659 371 659 274 659 371 660 370 660 178 660 179 661 371 661 178 661 275 662 83 662 82 662 274 663 275 663 82 663 180 664 179 664 83 664 84 665 180 665 83 665 372 666 276 666 275 666 371 667 372 667 275 667 372 668 371 668 179 668 180 669 372 669 179 669 276 670 84 670 83 670 275 671 276 671 83 671 181 672 180 672 84 672 85 673 181 673 84 673 373 674 277 674 276 674 372 675 373 675 276 675 373 676 372 676 180 676 181 677 373 677 180 677 277 678 85 678 84 678 276 679 277 679 84 679 182 680 181 680 85 680 86 681 182 681 85 681 374 682 278 682 277 682 373 683 374 683 277 683 374 684 373 684 181 684 182 685 374 685 181 685 278 686 86 686 85 686 277 687 278 687 85 687 183 688 182 688 86 688 87 689 183 689 86 689 375 690 279 690 278 690 374 691 375 691 278 691 375 692 374 692 182 692 183 693 375 693 182 693 279 694 87 694 86 694 278 695 279 695 86 695 184 696 183 696 87 696 88 697 184 697 87 697 376 698 280 698 279 698 375 699 376 699 279 699 376 700 375 700 183 700 184 701 376 701 183 701 280 702 88 702 87 702 279 703 280 703 87 703 185 704 184 704 88 704 89 705 185 705 88 705 377 706 281 706 280 706 376 707 377 707 280 707 377 708 376 708 184 708 185 709 377 709 184 709 281 710 89 710 88 710 280 711 281 711 88 711 186 712 185 712 89 712 90 713 186 713 89 713 378 714 282 714 281 714 377 715 378 715 281 715 378 716 377 716 185 716 186 717 378 717 185 717 282 718 90 718 89 718 281 719 282 719 89 719 187 720 186 720 90 720 91 721 187 721 90 721 379 722 283 722 282 722 378 723 379 723 282 723 379 724 378 724 186 724 187 725 379 725 186 725 283 726 91 726 90 726 282 727 283 727 90 727 188 728 187 728 91 728 92 729 188 729 91 729 380 730 284 730 283 730 379 731 380 731 283 731 380 732 379 732 187 732 188 733 380 733 187 733 284 734 92 734 91 734 283 735 284 735 91 735 189 736 188 736 92 736 93 737 189 737 92 737 381 738 285 738 284 738 380 739 381 739 284 739 381 740 380 740 188 740 189 741 381 741 188 741 285 742 93 742 92 742 284 743 285 743 92 743 190 744 189 744 93 744 94 745 190 745 93 745 382 746 286 746 285 746 381 747 382 747 285 747 382 748 381 748 189 748 190 749 382 749 189 749 286 750 94 750 93 750 285 751 286 751 93 751 191 752 190 752 94 752 95 753 191 753 94 753 383 754 287 754 286 754 382 755 383 755 286 755 383 756 382 756 190 756 191 757 383 757 190 757 287 758 95 758 94 758 286 759 287 759 94 759 96 760 191 760 95 760 0 761 96 761 95 761 288 762 192 762 287 762 383 763 288 763 287 763 288 764 383 764 191 764 96 765 288 765 191 765 192 766 0 766 95 766 287 767 192 767 95 767</p></triangles>
</mesh></geometry></library_geometries><library_visual_scenes><visual_scene id="Scene"><node id="mesh"><instance_geometry url="#geometry"/></node></visual_scene></library_visual_scenes><scene><instance_visual_scene url="#Scene"/></scene></COLLADA>