<?xml version="1.0" encoding="UTF-8"?>
<COLLADA xmlns="http://www.collada.org/2005/11/COLLADASchema" version="1.4.1">
<asset><contributor><authoring_tool>Summit Estate procedural mesh exporter</authoring_tool></contributor><created>2026-09-11T00:00:00Z</created><modified>2026-09-11T00:00:00Z</modified><unit name="meter" meter="1"/><up_axis>Z_UP</up_axis></asset>
<library_geometries><geometry id="geometry" name="geometry"><mesh>
<source id="positions"><float_array id="positions-array" count="576">79.90000 58.00000 84.80000 79.88375 58.24800 84.80000 79.83526 58.49176 84.80000 79.75537 58.72710 84.80000 79.64545 58.95000 84.80000 79.50737 59.15665 84.80000 79.34350 59.34350 84.80000 79.15665 59.50737 84.80000 78.95000 59.64545 84.80000 78.72710 59.75537 84.80000 78.49176 59.83526 84.80000 78.24800 59.88375 84.80000 78.00000 59.90000 84.80000 77.75200 59.88375 84.80000 77.50824 59.83526 84.80000 77.27290 59.75537 84.80000 77.05000 59.64545 84.80000 76.84335 59.50737 84.80000 76.65650 59.34350 84.80000 76.49263 59.15665 84.80000 76.35455 58.95000 84.80000 76.24463 58.72710 84.80000 76.16474 58.49176 84.80000 76.11625 58.24800 84.80000 76.10000 58.00000 84.80000 76.11625 57.75200 84.80000 76.16474 57.50824 84.80000 76.24463 57.27290 84.80000 76.35455 57.05000 84.80000 76.49263 56.84335 84.80000 76.65650 56.65650 84.80000 76.84335 56.49263 84.80000 77.05000 56.35455 84.80000 77.27290 56.24463 84.80000 77.50824 56.16474 84.80000 77.75200 56.11625 84.80000 78.00000 56.10000 84.80000 78.24800 56.11625 84.80000 78.49176 56.16474 84.80000 78.72710 56.24463 84.80000 78.95000 56.35455 84.80000 79.15665 56.49263 84.80000 79.34350 56.65650 84.80000 79.50737 56.84335 84.80000 79.64545 57.05000 84.80000 79.75537 57.27290 84.80000 79.83526 57.50824 84.80000 79.88375 57.75200 84.80000 80.32000 58.00000 84.80000 80.30015 58.30282 84.80000 80.24095 58.60046 84.80000 80.14340 58.88783 84.80000 80.00918 59.16000 84.80000 79.84058 59.41233 84.80000 79.64049 59.64049 84.80000 79.41233 59.84058 84.80000 79.16000 60.00918 84.80000 78.88783 60.14340 84.80000 78.60046 60.24095 84.80000 78.30282 60.30015 84.80000 78.00000 60.32000 84.80000 77.69718 60.30015 84.80000 77.39954 60.24095 84.80000 77.11217 60.14340 84.80000 76.84000 60.00918 84.80000 76.58767 59.84058 84.80000 76.35951 59.64049 84.80000 76.15942 59.41233 84.80000 75.99082 59.16000 84.80000 75.85660 58.88783 84.80000 75.75905 58.60046 84.80000 75.69985 58.30282 84.80000 75.68000 58.00000 84.80000 75.69985 57.69718 84.80000 75.75905 57.39954 84.80000 75.85660 57.11217 84.80000 75.99082 56.84000 84.80000 76.15942 56.58767 84.80000 76.35951 56.35951 84.80000 76.58767 56.15942 84.80000 76.84000 55.99082 84.80000 77.11217 55.85660 84.80000 77.39954 55.75905 84.80000 77.69718 55.69985 84.80000 78.00000 55.68000 84.80000 78.30282 55.69985 84.80000 78.60046 55.75905 84.80000 78.88783 55.85660 84.80000 79.16000 55.99082 84.80000 79.41233 56.15942 84.80000 79.64049 56.35951 84.80000 79.84058 56.58767 84.80000 80.00918 56.84000 84.80000 80.14340 57.11217 84.80000 80.24095 57.39954 84.80000 80.30015 57.69718 84.80000 79.90000 58.00000 85.20000 79.88375 58.24800 85.20000 79.83526 58.49176 85.20000 79.75537 58.72710 85.20000 79.64545 58.95000 85.20000 79.50737 59.15665 85.20000 79.34350 59.34350 85.20000 79.15665 59.50737 85.20000 78.95000 59.64545 85.20000 78.72710 59.75537 85.20000 78.49176 59.83526 85.20000 78.24800 59.88375 85.20000 78.00000 59.90000 85.20000 77.75200 59.88375 85.20000 77.50824 59.83526 85.20000 77.27290 59.75537 85.20000 77.05000 59.64545 85.20000 76.84335 59.50737 85.20000 76.65650 59.34350 85.20000 76.49263 59.15665 85.20000 76.35455 58.95000 85.20000 76.24463 58.72710 85.20000 76.16474 58.49176 85.20000 76.11625 58.24800 85.20000 76.10000 58.00000 85.20000 76.11625 57.75200 85.20000 76.16474 57.50824 85.20000 76.24463 57.27290 85.20000 76.35455 57.05000 85.20000 76.49263 56.84335 85.20000 76.65650 56.65650 85.20000 76.84335 56.49263 85.20000 77.05000 56.35455 85.20000 77.27290 56.24463 85.20000 77.50824 56.16474 85.20000 77.75200 56.11625 85.20000 78.00000 56.10000 85.20000 78.24800 56.11625 85.20000 78.49176 56.16474 85.20000 78.72710 56.24463 85.20000 78.95000 56.35455 85.20000 79.15665 56.49263 85.20000 79.34350 56.65650 85.20000 79.50737 56.84335 85.20000 79.64545 57.05000 85.20000 79.75537 57.27290 85.20000 79.83526 57.50824 85.20000 79.88375 57.75200 85.20000 80.32000 58.00000 85.20000 80.30015 58.30282 85.20000 80.24095 58.60046 85.20000 80.14340 58.88783 85.20000 80.00918 59.16000 85.20000 79.84058 59.41233 85.20000 79.64049 59.64049 85.20000 79.41233 59.84058 85.20000 79.16000 60.00918 85.20000 78.88783 60.14340 85.20000 78.60046 60.24095 85.20000 78.30282 60.30015 85.20000 78.00000 60.32000 85.20000 77.69718 60.30015 85.20000 77.39954 60.24095 85.20000 77.11217 60.14340 85.20000 76.84000 60.00918 85.20000 76.58767 59.84058 85.20000 76.35951 59.64049 85.20000 76.15942 59.41233 85.20000 75.99082 59.16000 85.20000 75.85660 58.88783 85.20000 75.75905 58.60046 85.20000 75.69985 58.30282 85.20000 75.68000 58.00000 85.20000 75.69985 57.69718 85.20000 75.75905 57.39954 85.20000 75.85660 57.11217 85.20000 75.99082 56.84000 85.20000 76.15942 56.58767 85.20000 76.35951 56.35951 85.20000 76.58767 56.15942 85.20000 76.84000 55.99082 85.20000 77.11217 55.85660 85.20000 77.39954 55.75905 85.20000 77.69718 55.69985 85.20000 78.00000 55.68000 85.20000 78.30282 55.69985 85.20000 78.60046 55.75905 85.20000 78.88783 55.85660 85.20000 79.16000 55.99082 85.20000 79.41233 56.15942 85.20000 79.64049 56.35951 85.20000 79.84058 56.58767 85.20000 80.00918 56.84000 85.20000 80.14340 57.11217 85.20000 80.24095 57.39954 85.20000 80.30015 57.69718 85.20000</float_array><technique_common><accessor source="#positions-array" count="192" stride="3"><param name="X" type="float"/><param name="Y" type="float"/><param name="Z" type="float"/></accessor></technique_common></source>
<source id="normals"><float_array id="normals-array" count="1152">0.00000 -0.00000 -1.00000 0.00000 0.00000 -1.00000 0.00000 0.00000 1.00000 0.00000 0.00000 1.00000 0.99786 0.06540 0.00000 0.99786 0.06540 -0.00000 -0.99786 -0.06540 -0.00000 -0.99786 -0.06540 -0.00000 0.00000 -0.00000 -1.00000 0.00000 0.00000 -1.00000 0.00000 0.00000 1.00000 0.00000 0.00000 1.00000 0.98079 0.19509 0.00000 0.98079 0.19509 -0.00000 -0.98079 -0.19509 -0.00000 -0.98079 -0.19509 -0.00000 0.00000 -0.00000 -1.00000 0.00000 0.00000 -1.00000 0.00000 0.00000 1.00000 0.00000 0.00000 1.00000 0.94693 0.32144 0.00000 0.94693 0.32144 -0.00000 -0.94693 -0.32144 -0.00000 -0.94693 -0.32144 -0.00000 0.00000 -0.00000 -1.00000 0.00000 0.00000 -1.00000 0.00000 0.00000 1.00000 0.00000 0.00000 1.00000 0.89687 0.44229 0.00000 0.89687 0.44229 -0.00000 -0.89687 -0.44229 -0.00000 -0.89687 -0.44229 -0.00000 0.00000 -0.00000 -1.00000 0.00000 0.00000 -1.00000 0.00000 0.00000 1.00000 0.00000 0.00000 1.00000 0.83147 0.55557 0.00000 0.83147 0.55557 -0.00000 -0.83147 -0.55557 -0.00000 -0.83147 -0.55557 -0.00000 0.00000 -0.00000 -1.00000 0.00000 0.00000 -1.00000 0.00000 0.00000 1.00000 0.00000 0.00000 1.00000 0.75184 0.65935 0.00000 0.75184 0.65935 -0.00000 -0.75184 -0.65935 -0.00000 -0.75184 -0.65935 -0.00000 0.00000 -0.00000 -1.00000 0.00000 0.00000 -1.00000 0.00000 0.00000 1.00000 0.00000 0.00000 1.00000 0.65935 0.75184 0.00000 0.65935 0.75184 -0.00000 -0.65935 -0.75184 -0.00000 -0.65935 -0.75184 -0.00000 0.00000 -0.00000 -1.00000 0.00000 0.00000 -1.00000 0.00000 0.00000 1.00000 0.00000 0.00000 1.00000 0.55557 0.83147 0.00000 0.55557 0.83147 -0.00000 -0.55557 -0.83147 -0.00000 -0.55557 -0.83147 -0.00000 0.00000 0.00000 -1.00000 0.00000 0.00000 -1.00000 0.00000 0.00000 1.00000 0.00000 0.00000 1.00000 0.44229 0.89687 0.00000 0.44229 0.89687 -0.00000 -0.44229 -0.89687 -0.00000 -0.44229 -0.89687 -0.00000 0.00000 0.00000 -1.00000 0.00000 0.00000 -1.00000 0.00000 0.00000 1.00000 0.00000 0.00000 1.00000 0.32144 0.94693 0.00000 0.32144 0.94693 -0.00000 -0.32144 -0.94693 -0.00000 -0.32144 -0.94693 -0.00000 0.00000 0.00000 -1.00000 0.00000 0.00000 -1.00000 0.00000 0.00000 1.00000 0.00000 0.00000 1.00000 0.19509 0.98079 0.00000 0.19509 0.98079 -0.00000 -0.19509 -0.98079 -0.00000 -0.19509 -0.98079 -0.00000 0.00000 0.00000 -1.00000 0.00000 0.00000 -1.00000 0.00000 0.00000 1.00000 0.00000 0.00000 1.00000 0.06540 0.99786 0.00000 0.06540 0.99786 -0.00000 -0.06540 -0.99786 -0.00000 -0.06540 -0.99786 -0.00000 0.00000 0.00000 -1.00000 0.00000 0.00000 -1.00000 0.00000 0.00000 1.00000 0.00000 0.00000 1.00000 -0.06540 0.99786 0.00000 -0.06540 0.99786 0.00000 0.06540 -0.99786 0.00000 0.06540 -0.99786 0.00000 0.00000 0.00000 -1.00000 0.00000 0.00000 -1.00000 0.00000 0.00000 1.00000 0.00000 0.00000 1.00000 -0.19509 0.98079 0.00000 -0.19509 0.98079 0.00000 0.19509 -0.98079 0.00000 0.19509 -0.98079 0.00000 0.00000 0.00000 -1.00000 0.00000 0.00000 -1.00000 0.00000 0.00000 1.00000 0.00000 0.00000 1.00000 -0.32144 0.94693 0.00000 -0.32144 0.94693 0.00000 0.32144 -0.94693 0.00000 0.32144 -0.94693 0.00000 0.00000 0.00000 -1.00000 0.00000 0.00000 -1.00000 0.00000 0.00000 1.00000 0.00000 0.00000 1.00000 -0.44229 0.89687 0.00000 -0.44229 0.89687 0.00000 0.44229 -0.89687 0.00000 0.44229 -0.89687 0.00000 0.00000 0.00000 -1.00000 0.00000 0.00000 -1.00000 0.00000 0.00000 1.00000 0.00000 0.00000 1.00000 -0.55557 0.83147 0.00000 -0.55557 0.83147 0.00000 0.55557 -0.83147 0.00000 0.55557 -0.83147 0.00000 0.00000 0.00000 -1.00000 0.00000 0.00000 -1.00000 0.00000 0.00000 1.00000 0.00000 0.00000 1.00000 -0.65935 0.75184 0.00000 -0.65935 0.75184 0.00000 0.65935 -0.75184 0.00000 0.65935 -0.75184 0.00000 0.00000 0.00000 -1.00000 0.00000 0.00000 -1.00000 0.00000 0.00000 1.00000 0.00000 0.00000 1.00000 -0.75184 0.65935 0.00000 -0.75184 0.65935 0.00000 0.75184 -0.65935 0.00000 0.75184 -0.65935 0.00000 0.00000 0.00000 -1.00000 0.00000 0.00000 -1.00000 0.00000 0.00000 1.00000 0.00000 0.00000 1.00000 -0.83147 0.55557 0.00000 -0.83147 0.55557 0.00000 0.83147 -0.55557 0.00000 0.83147 -0.55557 0.00000 0.00000 0.00000 -1.00000 0.00000 0.00000 -1.00000 -0.00000 0.00000 1.00000 0.00000 0.00000 1.00000 -0.89687 0.44229 0.00000 -0.89687 0.44229 0.00000 0.89687 -0.44229 0.00000 0.89687 -0.44229 0.00000 0.00000 0.00000 -1.00000 0.00000 0.00000 -1.00000 -0.00000 0.00000 1.00000 0.00000 0.00000 1.00000 -0.94693 0.32144 0.00000 -0.94693 0.32144 0.00000 0.94693 -0.32144 0.00000 0.94693 -0.32144 0.00000 0.00000 0.00000 -1.00000 0.00000 0.00000 -1.00000 -0.00000 0.00000 1.00000 0.00000 0.00000 1.00000 -0.98079 0.19509 0.00000 -0.98079 0.19509 0.00000 0.98079 -0.19509 0.00000 0.98079 -0.19509 0.00000 0.00000 0.00000 -1.00000 0.00000 0.00000 -1.00000 0.00000 0.00000 1.00000 0.00000 0.00000 1.00000 -0.99786 0.06540 0.00000 -0.99786 0.06540 0.00000 0.99786 -0.06540 0.00000 0.99786 -0.06540 0.00000 0.00000 0.00000 -1.00000 -0.00000 0.00000 -1.00000 0.00000 0.00000 1.00000 -0.00000 0.00000 1.00000 -0.99786 -0.06540 0.00000 -0.99786 -0.06540 0.00000 0.99786 0.06540 0.00000 0.99786 0.06540 0.00000 0.00000 0.00000 -1.00000 -0.00000 0.00000 -1.00000 0.00000 0.00000 1.00000 -0.00000 0.00000 1.00000 -0.98079 -0.19509 0.00000 -0.98079 -0.19509 0.00000 0.98079 0.19509 0.00000 0.98079 0.19509 0.00000 0.00000 0.00000 -1.00000 -0.00000 0.00000 -1.00000 0.00000 0.00000 1.00000 -0.00000 0.00000 1.00000 -0.94693 -0.32144 0.00000 -0.94693 -0.32144 0.00000 0.94693 0.32144 0.00000 0.94693 0.32144 0.00000 0.00000 0.00000 -1.00000 -0.00000 0.00000 -1.00000 0.00000 0.00000 1.00000 -0.00000 0.00000 1.00000 -0.89687 -0.44229 0.00000 -0.89687 -0.44229 0.00000 0.89687 0.44229 0.00000 0.89687 0.44229 0.00000 0.00000 0.00000 -1.00000 -0.00000 0.00000 -1.00000 0.00000 0.00000 1.00000 -0.00000 0.00000 1.00000 -0.83147 -0.55557 0.00000 -0.83147 -0.55557 0.00000 0.83147 0.55557 0.00000 0.83147 0.55557 0.00000 0.00000 0.00000 -1.00000 -0.00000 0.00000 -1.00000 0.00000 0.00000 1.00000 -0.00000 0.00000 1.00000 -0.75184 -0.65935 0.00000 -0.75184 -0.65935 0.00000 0.75184 0.65935 0.00000 0.75184 0.65935 0.00000 0.00000 0.00000 -1.00000 -0.00000 0.00000 -1.00000 0.00000 0.00000 1.00000 -0.00000 0.00000 1.00000 -0.65935 -0.75184 0.00000 -0.65935 -0.75184 0.00000 0.65935 0.75184 0.00000 0.65935 0.75184 0.00000 0.00000 0.00000 -1.00000 -0.00000 0.00000 -1.00000 0.00000 0.00000 1.00000 -0.00000 0.00000 1.00000 -0.55557 -0.83147 0.00000 -0.55557 -0.83147 0.00000 0.55557 0.83147 0.00000 0.55557 0.83147 0.00000 0.00000 0.00000 -1.00000 -0.00000 0.00000 -1.00000 0.00000 -0.00000 1.00000 -0.00000 0.00000 1.00000 -0.44229 -0.89687 0.00000 -0.44229 -0.89687 0.00000 0.44229 0.89687 0.00000 0.44229 0.89687 0.00000 0.00000 0.00000 -1.00000 -0.00000 0.00000 -1.00000 0.00000 -0.00000 1.00000 -0.00000 0.00000 1.00000 -0.32144 -0.94693 0.00000 -0.32144 -0.94693 0.00000 0.32144 0.94693 0.00000 0.32144 0.94693 0.00000 0.00000 0.00000 -1.00000 -0.00000 0.00000 -1.00000 0.00000 -0.00000 1.00000 -0.00000 0.00000 1.00000 -0.19509 -0.98079 0.00000 -0.19509 -0.98079 0.00000 0.19509 0.98079 0.00000 0.19509 0.98079 0.00000 0.00000 0.00000 -1.00000 -0.00000 -0.00000 -1.00000 0.00000 -0.00000 1.00000 -0.00000 0.00000 1.00000 -0.06540 -0.99786 0.00000 -0.06540 -0.99786 0.00000 0.06540 0.99786 0.00000 0.06540 0.99786 0.00000 -0.00000 0.00000 -1.00000 0.00000 -0.00000 -1.00000 0.00000 0.00000 1.00000 0.00000 0.00000 1.00000 0.06540 -0.99786 0.00000 0.06540 -0.99786 0.00000 -0.06540 0.99786 0.00000 -0.06540 0.99786 0.00000 -0.00000 0.00000 -1.00000 0.00000 -0.00000 -1.00000 0.00000 0.00000 1.00000 0.00000 -0.00000 1.00000 0.19509 -0.98079 0.00000 0.19509 -0.98079 0.00000 -0.19509 0.98079 0.00000 -0.19509 0.98079 0.00000 -0.00000 0.00000 -1.00000 0.00000 -0.00000 -1.00000 0.00000 0.00000 1.00000 0.00000 -0.00000 1.00000 0.32144 -0.94693 0.00000 0.32144 -0.94693 0.00000 -0.32144 0.94693 0.00000 -0.32144 0.94693 0.00000 -0.00000 0.00000 -1.00000 0.00000 -0.00000 -1.00000 0.00000 0.00000 1.00000 0.00000 -0.00000 1.00000 0.44229 -0.89687 0.00000 0.44229 -0.89687 0.00000 -0.44229 0.89687 0.00000 -0.44229 0.89687 0.00000 -0.00000 0.00000 -1.00000 0.00000 -0.00000 -1.00000 0.00000 0.00000 1.00000 0.00000 -0.00000 1.00000 0.55557 -0.83147 0.00000 0.55557 -0.83147 0.00000 -0.55557 0.83147 0.00000 -0.55557 0.83147 0.00000 -0.00000 0.00000 -1.00000 0.00000 -0.00000 -1.00000 0.00000 0.00000 1.00000 0.00000 -0.00000 1.00000 0.65935 -0.75184 0.00000 0.65935 -0.75184 0.00000 -0.65935 0.75184 0.00000 -0.65935 0.75184 0.00000 -0.00000 0.00000 -1.00000 0.00000 -0.00000 -1.00000 0.00000 0.00000 1.00000 0.00000 -0.00000 1.00000 0.75184 -0.65935 0.00000 0.75184 -0.65935 0.00000 -0.75184 0.65935 0.00000 -0.75184 0.65935 0.00000 -0.00000 0.00000 -1.00000 0.00000 -0.00000 -1.00000 0.00000 0.00000 1.00000 0.00000 -0.00000 1.00000 0.83147 -0.55557 0.00000 0.83147 -0.55557 0.00000 -0.83147 0.55557 0.00000 -0.83147 0.55557 0.00000 0.00000 0.00000 -1.00000 0.00000 -0.00000 -1.00000 0.00000 0.00000 1.00000 0.00000 -0.00000 1.00000 0.89687 -0.44229 0.00000 0.89687 -0.44229 0.00000 -0.89687 0.44229 0.00000 -0.89687 0.44229 0.00000 0.00000 0.00000 -1.00000 0.00000 -0.00000 -1.00000 0.00000 0.00000 1.00000 0.00000 -0.00000 1.00000 0.94693 -0.32144 0.00000 0.94693 -0.32144 0.00000 -0.94693 0.32144 0.00000 -0.94693 0.32144 0.00000 0.00000 0.00000 -1.00000 0.00000 -0.00000 -1.00000 0.00000 0.00000 1.00000 0.00000 -0.00000 1.00000 0.98079 -0.19509 0.00000 0.98079 -0.19509 0.00000 -0.98079 0.19509 0.00000 -0.98079 0.19509 0.00000 0.00000 0.00000 -1.00000 0.00000 -0.00000 -1.00000 0.00000 0.00000 1.00000 0.00000 -0.00000 1.00000 0.99786 -0.06540 0.00000 0.99786 -0.06540 0.00000 -0.99786 0.06540 0.00000 -0.99786 0.06540 0.00000</float_array><technique_common><accessor source="#normals-array" count="384" stride="3"><param name="X" type="float"/><param name="Y" type="float"/><param name="Z" type="float"/></accessor></technique_common></source>
<vertices id="vertices"><input semantic="POSITION" source="#positions"/></vertices><triangles count="384"><input semantic="VERTEX" source="#vertices" offset="0"/><input semantic="NORMAL" source="#normals" offset="1"/><p>49 0 48 0 0 0 1 1 49 1 0 1 145 2 97 2 96 2 144 3 145 3 96 3 145 4 144 4 48 4 49 5 145 5 48 5 97 6 1 6 0 6 96 7 97 7 0 7 50 8 49 8 1 8 2 9 50 9 1 9 146 10 98 10 97 10 145 11 146 11 97 11 146 12 145 12 49 12 50 13 146 13 49 13 98 14 2 14 1 14 97 15 98 15 1 15 51 16 50 16 2 16 3 17 51 17 2 17 147 18 99 18 98 18 146 19 147 19 98 19 147 20 146 20 50 20 51 21 147 21 50 21 99 22 3 22 2 22 98 23 99 23 2 23 52 24 51 24 3 24 4 25 52 25 3 25 148 26 100 26 99 26 147 27 148 27 99 27 148 28 147 28 51 28 52 29 148 29 51 29 100 30 4 30 3 30 99 31 100 31 3 31 53 32 52 32 4 32 5 33 53 33 4 33 149 34 101 34 100 34 148 35 149 35 100 35 149 36 148 36 52 36 53 37 149 37 52 37 101 38 5 38 4 38 100 39 101 39 4 39 54 40 53 40 5 40 6 41 54 41 5 41 150 42 102 42 101 42 149 43 150 43 101 43 150 44 149 44 53 44 54 45 150 45 53 45 102 46 6 46 5 46 101 47 102 47 5 47 55 48 54 48 6 48 7 49 55 49 6 49 151 50 103 50 102 50 150 51 151 51 102 51 151 52 150 52 54 52 55 53 151 53 54 53 103 54 7 54 6 54 102 55 103 55 6 55 56 56 55 56 7 56 8 57 56 57 7 57 152 58 104 58 103 58 151 59 152 59 103 59 152 60 151 60 55 60 56 61 152 61 55 61 104 62 8 62 7 62 103 63 104 63 7 63 57 64 56 64 8 64 9 65 57 65 8 65 153 66 105 66 104 66 152 67 153 67 104 67 153 68 152 68 56 68 57 69 153 69 56 69 105 70 9 70 8 70 104 71 105 71 8 71 58 72 57 72 9 72 10 73 58 73 9 73 154 74 106 74 105 74 153 75 154 75 105 75 154 76 153 76 57 76 58 77 154 77 57 77 106 78 10 78 9 78 105 79 106 79 9 79 59 80 58 80 10 80 11 81 59 81 10 81 155 82 107 82 106 82 154 83 155 83 106 83 155 84 154 84 58 84 59 85 155 85 58 85 107 86 11 86 10 86 106 87 107 87 10 87 60 88 59 88 11 88 12 89 60 89 11 89 156 90 108 90 107 90 155 91 156 91 107 91 156 92 155 92 59 92 60 93 156 93 59 93 108 94 12 94 11 94 107 95 108 95 11 95 61 96 60 96 12 96 13 97 61 97 12 97 157 98 109 98 108 98 156 99 157 99 108 99 157 100 156 100 60 100 61 101 157 101 60 101 109 102 13 102 12 102 108 103 109 103 12 103 62 104 61 104 13 104 14 105 62 105 13 105 158 106 110 106 109 106 157 107 158 107 109 107 158 108 157 108 61 108 62 109 158 109 61 109 110 110 14 110 13 110 109 111 110 111 13 111 63 112 62 112 14 112 15 113 63 113 14 113 159 114 111 114 110 114 158 115 159 115 110 115 159 116 158 116 62 116 63 117 159 117 62 117 111 118 15 118 14 118 110 119 111 119 14 119 64 120 63 120 15 120 16 121 64 121 15 121 160 122 112 122 111 122 159 123 160 123 111 123 160 124 159 124 63 124 64 125 160 125 63 125 112 126 16 126 15 126 111 127 112 127 15 127 65 128 64 128 16 128 17 129 65 129 16 129 161 130 113 130 112 130 160 131 161 131 112 131 161 132 160 132 64 132 65 133 161 133 64 133 113 134 17 134 16 134 112 135 113 135 16 135 66 136 65 136 17 136 18 137 66 137 17 137 162 138 114 138 113 138 161 139 162 139 113 139 162 140 161 140 65 140 66 141 162 141 65 141 114 142 18 142 17 142 113 143 114 143 17 143 67 144 66 144 18 144 19 145 67 145 18 145 163 146 115 146 114 146 162 147 163 147 114 147 163 148 162 148 66 148 67 149 163 149 66 149 115 150 19 150 18 150 114 151 115 151 18 151 68 152 67 152 19 152 20 153 68 153 19 153 164 154 116 154 115 154 163 155 164 155 115 155 164 156 163 156 67 156 68 157 164 157 67 157 116 158 20 158 19 158 115 159 116 159 19 159 69 160 68 160 20 160 21 161 69 161 20 161 165 162 117 162 116 162 164 163 165 163 116 163 165 164 164 164 68 164 69 165 165 165 68 165 117 166 21 166 20 166 116 167 117 167 20 167 70 168 69 168 21 168 22 169 70 169 21 169 166 170 118 170 117 170 165 171 166 171 117 171 166 172 165 172 69 172 70 173 166 173 69 173 118 174 22 174 21 174 117 175 118 175 21 175 71 176 70 176 22 176 23 177 71 177 22 177 167 178 119 178 118 178 166 179 167 179 118 179 167 180 166 180 70 180 71 181 167 181 70 181 119 182 23 182 22 182 118 183 119 183 22 183 72 184 71 184 23 184 24 185 72 185 23 185 168 186 120 186 119 186 167 187 168 187 119 187 168 188 167 188 71 188 72 189 168 189 71 189 120 190 24 190 23 190 119 191 120 191 23 191 73 192 72 192 24 192 25 193 73 193 24 193 169 194 121 194 120 194 168 195 169 195 120 195 169 196 168 196 72 196 73 197 169 197 72 197 121 198 25 198 24 198 120 199 121 199 24 199 74 200 73 200 25 200 26 201 74 201 25 201 170 202 122 202 121 202 169 203 170 203 121 203 170 204 169 204 73 204 74 205 170 205 73 205 122 206 26 206 25 206 121 207 122 207 25 207 75 208 74 208 26 208 27 209 75 209 26 209 171 210 123 210 122 210 170 211 171 211 122 211 171 212 170 212 74 212 75 213 171 213 74 213 123 214 27 214 26 214 122 215 123 215 26 215 76 216 75 216 27 216 28 217 76 217 27 217 172 218 124 218 123 218 171 219 172 219 123 219 172 220 171 220 75 220 76 221 172 221 75 221 124 222 28 222 27 222 123 223 124 223 27 223 77 224 76 224 28 224 29 225 77 225 28 225 173 226 125 226 124 226 172 227 173 227 124 227 173 228 172 228 76 228 77 229 173 229 76 229 125 230 29 230 28 230 124 231 125 231 28 231 78 232 77 232 29 232 30 233 78 233 29 233 174 234 126 234 125 234 173 235 174 235 125 235 174 236 173 236 77 236 78 237 174 237 77 237 126 238 30 238 29 238 125 239 126 239 29 239 79 240 78 240 30 240 31 241 79 241 30 241 175 242 127 242 126 242 174 243 175 243 126 243 175 244 174 244 78 244 79 245 175 245 78 245 127 246 31 246 30 246 126 247 127 247 30 247 80 248 79 248 31 248 32 249 80 249 31 249 176 250 128 250 127 250 175 251 176 251 127 251 176 252 175 252 79 252 80 253 176 253 79 253 128 254 32 254 31 254 127 255 128 255 31 255 81 256 80 256 32 256 33 257 81 257 32 257 177 258 129 258 128 258 176 259 177 259 128 259 177 260 176 260 80 260 81 261 177 261 80 261 129 262 33 262 32 262 128 263 129 263 32 263 82 264 81 264 33 264 34 265 82 265 33 265 178 266 130 266 129 266 177 267 178 267 129 267 178 268 177 268 81 268 82 269 178 269 81 269 130 270 34 270 33 270 129 271 130 271 33 271 83 272 82 272 34 272 35 273 83 273 34 273 179 274 131 274 130 274 178 275 179 275 130 275 179 276 178 276 82 276 83 277 179 277 82 277 131 278 35 278 34 278 130 279 131 279 34 279 84 280 83 280 35 280 36 281 84 281 35 281 180 282 132 282 131 282 179 283 180 283 131 283 180 284 179 284 83 284 84 285 180 285 83 285 132 286 36 286 35 286 131 287 132 287 35 287 85 288 84 288 36 288 37 289 85 289 36 289 181 290 133 290 132 290 180 291 181 291 132 291 181 292 180 292 84 292 85 293 181 293 84 293 133 294 37 294 36 294 132 295 133 295 36 295 86 296 85 296 37 296 38 297 86 297 37 297 182 298 134 298 133 298 181 299 182 299 133 299 182 300 181 300 85 300 86 301 182 301 85 301 134 302 38 302 37 302 133 303 134 303 37 303 87 304 86 304 38 304 39 305 87 305 38 305 183 306 135 306 134 306 182 307 183 307 134 307 183 308 182 308 86 308 87 309 183 309 86 309 135 310 39 310 38 310 134 311 135 311 38 311 88 312 87 312 39 312 40 313 88 313 39 313 184 314 136 314 135 314 183 315 184 315 135 315 184 316 183 316 87 316 88 317 184 317 87 317 136 318 40 318 39 318 135 319 136 319 39 319 89 320 88 320 40 320 41 321 89 321 40 321 185 322 137 322 136 322 184 323 185 323 136 323 185 324 184 324 88 324 89 325 185 325 88 325 137 326 41 326 40 326 136 327 137 327 40 327 90 328 89 328 41 328 42 329 90 329 41 329 186 330 138 330 137 330 185 331 186 331 137 331 186 332 185 332 89 332 90 333 186 333 89 333 138 334 42 334 41 334 137 335 138 335 41 335 91 336 90 336 42 336 43 337 91 337 42 337 187 338 139 338 138 338 186 339 187 339 138 339 187 340 186 340 90 340 91 341 187 341 90 341 139 342 43 342 42 342 138 343 139 343 42 343 92 344 91 344 43 344 44 345 92 345 43 345 188 346 140 346 139 346 187 347 188 347 139 347 188 348 187 348 91 348 92 349 188 349 91 349 140 350 44 350 43 350 139 351 140 351 43 351 93 352 92 352 44 352 45 353 93 353 44 353 189 354 141 354 140 354 188 355 189 355 140 355 189 356 188 356 92 356 93 357 189 357 92 357 141 358 45 358 44 358 140 359 141 359 44 359 94 360 93 360 45 360 46 361 94 361 45 361 190 362 142 362 141 362 189 363 190 363 141 363 190 364 189 364 93 364 94 365 190 365 93 365 142 366 46 366 45 366 141 367 142 367 45 367 95 368 94 368 46 368 47 369 95 369 46 369 191 370 143 370 142 370 190 371 191 371 142 371 191 372 190 372 94 372 95 373 191 373 94 373 143 374 47 374 46 374 142 375 143 375 46 375 48 376 95 376 47 376 0 377 48 377 47 377 144 378 96 378 143 378 191 379 144 379 143 379 144 380 191 380 95 380 48 381 144 381 95 381 96 382 0 382 47 382 143 383 96 383 47 383</p></triangles>
</mesh></geometry></library_geometries><library_visual_scenes><visual_scene id="Scene"><node id="mesh"><instance_geometry url="#geometry"/></node></visual_scene></library_visual_scenes><scene><instance_visual_scene url="#Scene"/></scene></COLLADA>