<?xml version="1.0" encoding="UTF-8"?>
<COLLADA xmlns="http://www.collada.org/2005/11/COLLADASchema" version="1.4.1">
<asset><contributor><authoring_tool>Summit Estate procedural mesh exporter</authoring_tool></contributor><created>2026-09-11T00:00:00Z</created><modified>2026-09-11T00:00:00Z</modified><unit name="meter" meter="1"/><up_axis>Z_UP</up_axis></asset>
<library_geometries><geometry id="geometry" name="geometry"><mesh>
<source id="positions"><float_array id="positions-array" count="768">81.48000 58.00000 82.88000 81.46324 58.34110 82.88000 81.41313 58.67891 82.88000 81.33015 59.01019 82.88000 81.21510 59.33174 82.88000 81.06909 59.64046 82.88000 80.89351 59.93338 82.88000 80.69008 60.20769 82.88000 80.46073 60.46073 82.88000 80.20769 60.69008 82.88000 79.93338 60.89351 82.88000 79.64046 61.06909 82.88000 79.33174 61.21510 82.88000 79.01019 61.33015 82.88000 78.67891 61.41313 82.88000 78.34110 61.46324 82.88000 78.00000 61.48000 82.88000 77.65890 61.46324 82.88000 77.32109 61.41313 82.88000 76.98981 61.33015 82.88000 76.66826 61.21510 82.88000 76.35954 61.06909 82.88000 76.06662 60.89351 82.88000 75.79231 60.69008 82.88000 75.53927 60.46073 82.88000 75.30992 60.20769 82.88000 75.10649 59.93338 82.88000 74.93091 59.64046 82.88000 74.78490 59.33174 82.88000 74.66985 59.01019 82.88000 74.58687 58.67891 82.88000 74.53676 58.34110 82.88000 74.52000 58.00000 82.88000 74.53676 57.65890 82.88000 74.58687 57.32109 82.88000 74.66985 56.98981 82.88000 74.78490 56.66826 82.88000 74.93091 56.35954 82.88000 75.10649 56.06662 82.88000 75.30992 55.79231 82.88000 75.53927 55.53927 82.88000 75.79231 55.30992 82.88000 76.06662 55.10649 82.88000 76.35954 54.93091 82.88000 76.66826 54.78490 82.88000 76.98981 54.66985 82.88000 77.32109 54.58687 82.88000 77.65890 54.53676 82.88000 78.00000 54.52000 82.88000 78.34110 54.53676 82.88000 78.67891 54.58687 82.88000 79.01019 54.66985 82.88000 79.33174 54.78490 82.88000 79.64046 54.93091 82.88000 79.93338 55.10649 82.88000 80.20769 55.30992 82.88000 80.46073 55.53927 82.88000 80.69008 55.79231 82.88000 80.89351 56.06662 82.88000 81.06909 56.35954 82.88000 81.21510 56.66826 82.88000 81.33015 56.98981 82.88000 81.41313 57.32109 82.88000 81.46324 57.65890 82.88000 82.00000 58.00000 82.88000 81.98074 58.39207 82.88000 81.92314 58.78036 82.88000 81.82776 59.16114 82.88000 81.69552 59.53073 82.88000 81.52769 59.88559 82.88000 81.32588 60.22228 82.88000 81.09204 60.53757 82.88000 80.82843 60.82843 82.88000 80.53757 61.09204 82.88000 80.22228 61.32588 82.88000 79.88559 61.52769 82.88000 79.53073 61.69552 82.88000 79.16114 61.82776 82.88000 78.78036 61.92314 82.88000 78.39207 61.98074 82.88000 78.00000 62.00000 82.88000 77.60793 61.98074 82.88000 77.21964 61.92314 82.88000 76.83886 61.82776 82.88000 76.46927 61.69552 82.88000 76.11441 61.52769 82.88000 75.77772 61.32588 82.88000 75.46243 61.09204 82.88000 75.17157 60.82843 82.88000 74.90796 60.53757 82.88000 74.67412 60.22228 82.88000 74.47231 59.88559 82.88000 74.30448 59.53073 82.88000 74.17224 59.16114 82.88000 74.07686 58.78036 82.88000 74.01926 58.39207 82.88000 74.00000 58.00000 82.88000 74.01926 57.60793 82.88000 74.07686 57.21964 82.88000 74.17224 56.83886 82.88000 74.30448 56.46927 82.88000 74.47231 56.11441 82.88000 74.67412 55.77772 82.88000 74.90796 55.46243 82.88000 75.17157 55.17157 82.88000 75.46243 54.90796 82.88000 75.77772 54.67412 82.88000 76.11441 54.47231 82.88000 76.46927 54.30448 82.88000 76.83886 54.17224 82.88000 77.21964 54.07686 82.88000 77.60793 54.01926 82.88000 78.00000 54.00000 82.88000 78.39207 54.01926 82.88000 78.78036 54.07686 82.88000 79.16114 54.17224 82.88000 79.53073 54.30448 82.88000 79.88559 54.47231 82.88000 80.22228 54.67412 82.88000 80.53757 54.90796 82.88000 80.82843 55.17157 82.88000 81.09204 55.46243 82.88000 81.32588 55.77772 82.88000 81.52769 56.11441 82.88000 81.69552 56.46927 82.88000 81.82776 56.83886 82.88000 81.92314 57.21964 82.88000 81.98074 57.60793 82.88000 81.48000 58.00000 83.36000 81.46324 58.34110 83.36000 81.41313 58.67891 83.36000 81.33015 59.01019 83.36000 81.21510 59.33174 83.36000 81.06909 59.64046 83.36000 80.89351 59.93338 83.36000 80.69008 60.20769 83.36000 80.46073 60.46073 83.36000 80.20769 60.69008 83.36000 79.93338 60.89351 83.36000 79.64046 61.06909 83.36000 79.33174 61.21510 83.36000 79.01019 61.33015 83.36000 78.67891 61.41313 83.36000 78.34110 61.46324 83.36000 78.00000 61.48000 83.36000 77.65890 61.46324 83.36000 77.32109 61.41313 83.36000 76.98981 61.33015 83.36000 76.66826 61.21510 83.36000 76.35954 61.06909 83.36000 76.06662 60.89351 83.36000 75.79231 60.69008 83.36000 75.53927 60.46073 83.36000 75.30992 60.20769 83.36000 75.10649 59.93338 83.36000 74.93091 59.64046 83.36000 74.78490 59.33174 83.36000 74.66985 59.01019 83.36000 74.58687 58.67891 83.36000 74.53676 58.34110 83.36000 74.52000 58.00000 83.36000 74.53676 57.65890 83.36000 74.58687 57.32109 83.36000 74.66985 56.98981 83.36000 74.78490 56.66826 83.36000 74.93091 56.35954 83.36000 75.10649 56.06662 83.36000 75.30992 55.79231 83.36000 75.53927 55.53927 83.36000 75.79231 55.30992 83.36000 76.06662 55.10649 83.36000 76.35954 54.93091 83.36000 76.66826 54.78490 83.36000 76.98981 54.66985 83.36000 77.32109 54.58687 83.36000 77.65890 54.53676 83.36000 78.00000 54.52000 83.36000 78.34110 54.53676 83.36000 78.67891 54.58687 83.36000 79.01019 54.66985 83.36000 79.33174 54.78490 83.36000 79.64046 54.93091 83.36000 79.93338 55.10649 83.36000 80.20769 55.30992 83.36000 80.46073 55.53927 83.36000 80.69008 55.79231 83.36000 80.89351 56.06662 83.36000 81.06909 56.35954 83.36000 81.21510 56.66826 83.36000 81.33015 56.98981 83.36000 81.41313 57.32109 83.36000 81.46324 57.65890 83.36000 82.00000 58.00000 83.36000 81.98074 58.39207 83.36000 81.92314 58.78036 83.36000 81.82776 59.16114 83.36000 81.69552 59.53073 83.36000 81.52769 59.88559 83.36000 81.32588 60.22228 83.36000 81.09204 60.53757 83.36000 80.82843 60.82843 83.36000 80.53757 61.09204 83.36000 80.22228 61.32588 83.36000 79.88559 61.52769 83.36000 79.53073 61.69552 83.36000 79.16114 61.82776 83.36000 78.78036 61.92314 83.36000 78.39207 61.98074 83.36000 78.00000 62.00000 83.36000 77.60793 61.98074 83.36000 77.21964 61.92314 83.36000 76.83886 61.82776 83.36000 76.46927 61.69552 83.36000 76.11441 61.52769 83.36000 75.77772 61.32588 83.36000 75.46243 61.09204 83.36000 75.17157 60.82843 83.36000 74.90796 60.53757 83.36000 74.67412 60.22228 83.36000 74.47231 59.88559 83.36000 74.30448 59.53073 83.36000 74.17224 59.16114 83.36000 74.07686 58.78036 83.36000 74.01926 58.39207 83.36000 74.00000 58.00000 83.36000 74.01926 57.60793 83.36000 74.07686 57.21964 83.36000 74.17224 56.83886 83.36000 74.30448 56.46927 83.36000 74.47231 56.11441 83.36000 74.67412 55.77772 83.36000 74.90796 55.46243 83.36000 75.17157 55.17157 83.36000 75.46243 54.90796 83.36000 75.77772 54.67412 83.36000 76.11441 54.47231 83.36000 76.46927 54.30448 83.36000 76.83886 54.17224 83.36000 77.21964 54.07686 83.36000 77.60793 54.01926 83.36000 78.00000 54.00000 83.36000 78.39207 54.01926 83.36000 78.78036 54.07686 83.36000 79.16114 54.17224 83.36000 79.53073 54.30448 83.36000 79.88559 54.47231 83.36000 80.22228 54.67412 83.36000 80.53757 54.90796 83.36000 80.82843 55.17157 83.36000 81.09204 55.46243 83.36000 81.32588 55.77772 83.36000 81.52769 56.11441 83.36000 81.69552 56.46927 83.36000 81.82776 56.83886 83.36000 81.92314 57.21964 83.36000 81.98074 57.60793 83.36000</float_array><technique_common><accessor source="#positions-array" count="256" stride="3"><param name="X" type="float"/><param name="Y" type="float"/><param name="Z" type="float"/></accessor></technique_common></source>
<source id="normals"><float_array id="normals-array" count="1536">0.00000 -0.00000 -1.00000 0.00000 0.00000 -1.00000 0.00000 0.00000 1.00000 0.00000 0.00000 1.00000 0.99880 0.04907 0.00000 0.99880 0.04907 -0.00000 -0.99880 -0.04907 -0.00000 -0.99880 -0.04907 -0.00000 0.00000 -0.00000 -1.00000 0.00000 0.00000 -1.00000 0.00000 0.00000 1.00000 0.00000 0.00000 1.00000 0.98918 0.14673 0.00000 0.98918 0.14673 -0.00000 -0.98918 -0.14673 -0.00000 -0.98918 -0.14673 -0.00000 0.00000 -0.00000 -1.00000 0.00000 0.00000 -1.00000 0.00000 0.00000 1.00000 0.00000 0.00000 1.00000 0.97003 0.24298 0.00000 0.97003 0.24298 -0.00000 -0.97003 -0.24298 -0.00000 -0.97003 -0.24298 -0.00000 0.00000 -0.00000 -1.00000 0.00000 0.00000 -1.00000 0.00000 0.00000 1.00000 0.00000 0.00000 1.00000 0.94154 0.33689 0.00000 0.94154 0.33689 -0.00000 -0.94154 -0.33689 -0.00000 -0.94154 -0.33689 -0.00000 0.00000 -0.00000 -1.00000 0.00000 0.00000 -1.00000 0.00000 0.00000 1.00000 0.00000 0.00000 1.00000 0.90399 0.42756 0.00000 0.90399 0.42756 -0.00000 -0.90399 -0.42756 -0.00000 -0.90399 -0.42756 -0.00000 0.00000 -0.00000 -1.00000 0.00000 0.00000 -1.00000 0.00000 0.00000 1.00000 0.00000 0.00000 1.00000 0.85773 0.51410 0.00000 0.85773 0.51410 -0.00000 -0.85773 -0.51410 -0.00000 -0.85773 -0.51410 -0.00000 0.00000 -0.00000 -1.00000 0.00000 0.00000 -1.00000 0.00000 0.00000 1.00000 0.00000 0.00000 1.00000 0.80321 0.59570 0.00000 0.80321 0.59570 -0.00000 -0.80321 -0.59570 -0.00000 -0.80321 -0.59570 -0.00000 0.00000 -0.00000 -1.00000 0.00000 0.00000 -1.00000 0.00000 0.00000 1.00000 0.00000 0.00000 1.00000 0.74095 0.67156 0.00000 0.74095 0.67156 -0.00000 -0.74095 -0.67156 -0.00000 -0.74095 -0.67156 -0.00000 0.00000 -0.00000 -1.00000 0.00000 0.00000 -1.00000 0.00000 0.00000 1.00000 0.00000 0.00000 1.00000 0.67156 0.74095 0.00000 0.67156 0.74095 -0.00000 -0.67156 -0.74095 -0.00000 -0.67156 -0.74095 -0.00000 0.00000 -0.00000 -1.00000 0.00000 0.00000 -1.00000 0.00000 0.00000 1.00000 0.00000 0.00000 1.00000 0.59570 0.80321 0.00000 0.59570 0.80321 -0.00000 -0.59570 -0.80321 -0.00000 -0.59570 -0.80321 -0.00000 0.00000 0.00000 -1.00000 0.00000 0.00000 -1.00000 0.00000 0.00000 1.00000 0.00000 0.00000 1.00000 0.51410 0.85773 0.00000 0.51410 0.85773 -0.00000 -0.51410 -0.85773 -0.00000 -0.51410 -0.85773 -0.00000 0.00000 0.00000 -1.00000 0.00000 0.00000 -1.00000 0.00000 0.00000 1.00000 0.00000 0.00000 1.00000 0.42756 0.90399 0.00000 0.42756 0.90399 -0.00000 -0.42756 -0.90399 -0.00000 -0.42756 -0.90399 -0.00000 0.00000 0.00000 -1.00000 0.00000 0.00000 -1.00000 0.00000 0.00000 1.00000 0.00000 0.00000 1.00000 0.33689 0.94154 0.00000 0.33689 0.94154 -0.00000 -0.33689 -0.94154 -0.00000 -0.33689 -0.94154 -0.00000 0.00000 0.00000 -1.00000 0.00000 0.00000 -1.00000 0.00000 0.00000 1.00000 0.00000 0.00000 1.00000 0.24298 0.97003 0.00000 0.24298 0.97003 -0.00000 -0.24298 -0.97003 -0.00000 -0.24298 -0.97003 -0.00000 0.00000 0.00000 -1.00000 0.00000 0.00000 -1.00000 0.00000 0.00000 1.00000 0.00000 0.00000 1.00000 0.14673 0.98918 0.00000 0.14673 0.98918 -0.00000 -0.14673 -0.98918 -0.00000 -0.14673 -0.98918 -0.00000 0.00000 0.00000 -1.00000 0.00000 0.00000 -1.00000 0.00000 0.00000 1.00000 0.00000 0.00000 1.00000 0.04907 0.99880 0.00000 0.04907 0.99880 -0.00000 -0.04907 -0.99880 -0.00000 -0.04907 -0.99880 -0.00000 0.00000 0.00000 -1.00000 0.00000 0.00000 -1.00000 0.00000 0.00000 1.00000 0.00000 0.00000 1.00000 -0.04907 0.99880 0.00000 -0.04907 0.99880 0.00000 0.04907 -0.99880 0.00000 0.04907 -0.99880 0.00000 0.00000 0.00000 -1.00000 0.00000 0.00000 -1.00000 0.00000 0.00000 1.00000 0.00000 0.00000 1.00000 -0.14673 0.98918 0.00000 -0.14673 0.98918 0.00000 0.14673 -0.98918 0.00000 0.14673 -0.98918 0.00000 0.00000 0.00000 -1.00000 0.00000 0.00000 -1.00000 0.00000 0.00000 1.00000 0.00000 0.00000 1.00000 -0.24298 0.97003 0.00000 -0.24298 0.97003 0.00000 0.24298 -0.97003 0.00000 0.24298 -0.97003 0.00000 0.00000 0.00000 -1.00000 0.00000 0.00000 -1.00000 0.00000 0.00000 1.00000 0.00000 0.00000 1.00000 -0.33689 0.94154 0.00000 -0.33689 0.94154 0.00000 0.33689 -0.94154 0.00000 0.33689 -0.94154 0.00000 0.00000 0.00000 -1.00000 0.00000 0.00000 -1.00000 0.00000 0.00000 1.00000 0.00000 0.00000 1.00000 -0.42756 0.90399 0.00000 -0.42756 0.90399 0.00000 0.42756 -0.90399 0.00000 0.42756 -0.90399 0.00000 0.00000 0.00000 -1.00000 0.00000 0.00000 -1.00000 0.00000 0.00000 1.00000 0.00000 0.00000 1.00000 -0.51410 0.85773 0.00000 -0.51410 0.85773 0.00000 0.51410 -0.85773 0.00000 0.51410 -0.85773 0.00000 0.00000 0.00000 -1.00000 0.00000 0.00000 -1.00000 0.00000 0.00000 1.00000 0.00000 0.00000 1.00000 -0.59570 0.80321 0.00000 -0.59570 0.80321 0.00000 0.59570 -0.80321 0.00000 0.59570 -0.80321 0.00000 0.00000 0.00000 -1.00000 0.00000 0.00000 -1.00000 0.00000 0.00000 1.00000 0.00000 0.00000 1.00000 -0.67156 0.74095 0.00000 -0.67156 0.74095 0.00000 0.67156 -0.74095 0.00000 0.67156 -0.74095 0.00000 0.00000 0.00000 -1.00000 0.00000 0.00000 -1.00000 0.00000 0.00000 1.00000 0.00000 0.00000 1.00000 -0.74095 0.67156 0.00000 -0.74095 0.67156 0.00000 0.74095 -0.67156 0.00000 0.74095 -0.67156 0.00000 0.00000 0.00000 -1.00000 0.00000 0.00000 -1.00000 0.00000 0.00000 1.00000 0.00000 0.00000 1.00000 -0.80321 0.59570 0.00000 -0.80321 0.59570 0.00000 0.80321 -0.59570 0.00000 0.80321 -0.59570 0.00000 0.00000 0.00000 -1.00000 0.00000 0.00000 -1.00000 -0.00000 0.00000 1.00000 0.00000 0.00000 1.00000 -0.85773 0.51410 0.00000 -0.85773 0.51410 0.00000 0.85773 -0.51410 0.00000 0.85773 -0.51410 0.00000 0.00000 0.00000 -1.00000 0.00000 0.00000 -1.00000 -0.00000 0.00000 1.00000 0.00000 0.00000 1.00000 -0.90399 0.42756 0.00000 -0.90399 0.42756 0.00000 0.90399 -0.42756 0.00000 0.90399 -0.42756 0.00000 0.00000 0.00000 -1.00000 0.00000 0.00000 -1.00000 -0.00000 0.00000 1.00000 0.00000 0.00000 1.00000 -0.94154 0.33689 0.00000 -0.94154 0.33689 0.00000 0.94154 -0.33689 0.00000 0.94154 -0.33689 0.00000 0.00000 0.00000 -1.00000 0.00000 0.00000 -1.00000 -0.00000 0.00000 1.00000 0.00000 0.00000 1.00000 -0.97003 0.24298 0.00000 -0.97003 0.24298 0.00000 0.97003 -0.24298 0.00000 0.97003 -0.24298 0.00000 0.00000 0.00000 -1.00000 0.00000 0.00000 -1.00000 -0.00000 0.00000 1.00000 0.00000 0.00000 1.00000 -0.98918 0.14673 0.00000 -0.98918 0.14673 0.00000 0.98918 -0.14673 0.00000 0.98918 -0.14673 0.00000 0.00000 0.00000 -1.00000 0.00000 0.00000 -1.00000 0.00000 0.00000 1.00000 0.00000 0.00000 1.00000 -0.99880 0.04907 0.00000 -0.99880 0.04907 0.00000 0.99880 -0.04907 0.00000 0.99880 -0.04907 0.00000 0.00000 0.00000 -1.00000 -0.00000 0.00000 -1.00000 0.00000 0.00000 1.00000 -0.00000 0.00000 1.00000 -0.99880 -0.04907 0.00000 -0.99880 -0.04907 0.00000 0.99880 0.04907 0.00000 0.99880 0.04907 0.00000 0.00000 0.00000 -1.00000 -0.00000 0.00000 -1.00000 0.00000 0.00000 1.00000 -0.00000 0.00000 1.00000 -0.98918 -0.14673 0.00000 -0.98918 -0.14673 0.00000 0.98918 0.14673 0.00000 0.98918 0.14673 0.00000 0.00000 0.00000 -1.00000 -0.00000 0.00000 -1.00000 0.00000 0.00000 1.00000 -0.00000 0.00000 1.00000 -0.97003 -0.24298 0.00000 -0.97003 -0.24298 0.00000 0.97003 0.24298 0.00000 0.97003 0.24298 0.00000 0.00000 0.00000 -1.00000 -0.00000 0.00000 -1.00000 0.00000 0.00000 1.00000 -0.00000 0.00000 1.00000 -0.94154 -0.33689 0.00000 -0.94154 -0.33689 0.00000 0.94154 0.33689 0.00000 0.94154 0.33689 0.00000 0.00000 0.00000 -1.00000 -0.00000 0.00000 -1.00000 0.00000 0.00000 1.00000 -0.00000 0.00000 1.00000 -0.90399 -0.42756 0.00000 -0.90399 -0.42756 0.00000 0.90399 0.42756 0.00000 0.90399 0.42756 0.00000 0.00000 0.00000 -1.00000 -0.00000 0.00000 -1.00000 0.00000 0.00000 1.00000 -0.00000 0.00000 1.00000 -0.85773 -0.51410 0.00000 -0.85773 -0.51410 0.00000 0.85773 0.51410 0.00000 0.85773 0.51410 0.00000 0.00000 0.00000 -1.00000 -0.00000 0.00000 -1.00000 0.00000 0.00000 1.00000 -0.00000 0.00000 1.00000 -0.80321 -0.59570 0.00000 -0.80321 -0.59570 0.00000 0.80321 0.59570 0.00000 0.80321 0.59570 0.00000 0.00000 0.00000 -1.00000 -0.00000 0.00000 -1.00000 0.00000 0.00000 1.00000 -0.00000 0.00000 1.00000 -0.74095 -0.67156 0.00000 -0.74095 -0.67156 0.00000 0.74095 0.67156 0.00000 0.74095 0.67156 0.00000 0.00000 0.00000 -1.00000 -0.00000 0.00000 -1.00000 0.00000 0.00000 1.00000 -0.00000 0.00000 1.00000 -0.67156 -0.74095 0.00000 -0.67156 -0.74095 0.00000 0.67156 0.74095 0.00000 0.67156 0.74095 0.00000 0.00000 0.00000 -1.00000 -0.00000 0.00000 -1.00000 0.00000 0.00000 1.00000 -0.00000 0.00000 1.00000 -0.59570 -0.80321 0.00000 -0.59570 -0.80321 0.00000 0.59570 0.80321 0.00000 0.59570 0.80321 0.00000 0.00000 0.00000 -1.00000 -0.00000 0.00000 -1.00000 0.00000 -0.00000 1.00000 -0.00000 0.00000 1.00000 -0.51410 -0.85773 0.00000 -0.51410 -0.85773 0.00000 0.51410 0.85773 0.00000 0.51410 0.85773 0.00000 0.00000 0.00000 -1.00000 -0.00000 0.00000 -1.00000 0.00000 -0.00000 1.00000 -0.00000 0.00000 1.00000 -0.42756 -0.90399 0.00000 -0.42756 -0.90399 0.00000 0.42756 0.90399 0.00000 0.42756 0.90399 0.00000 0.00000 0.00000 -1.00000 -0.00000 0.00000 -1.00000 0.00000 -0.00000 1.00000 -0.00000 0.00000 1.00000 -0.33689 -0.94154 0.00000 -0.33689 -0.94154 0.00000 0.33689 0.94154 0.00000 0.33689 0.94154 0.00000 0.00000 0.00000 -1.00000 -0.00000 0.00000 -1.00000 0.00000 -0.00000 1.00000 -0.00000 0.00000 1.00000 -0.24298 -0.97003 0.00000 -0.24298 -0.97003 0.00000 0.24298 0.97003 0.00000 0.24298 0.97003 0.00000 0.00000 0.00000 -1.00000 -0.00000 0.00000 -1.00000 0.00000 -0.00000 1.00000 -0.00000 0.00000 1.00000 -0.14673 -0.98918 0.00000 -0.14673 -0.98918 0.00000 0.14673 0.98918 0.00000 0.14673 0.98918 0.00000 0.00000 0.00000 -1.00000 -0.00000 -0.00000 -1.00000 0.00000 -0.00000 1.00000 -0.00000 0.00000 1.00000 -0.04907 -0.99880 0.00000 -0.04907 -0.99880 0.00000 0.04907 0.99880 0.00000 0.04907 0.99880 0.00000 -0.00000 0.00000 -1.00000 0.00000 -0.00000 -1.00000 0.00000 0.00000 1.00000 0.00000 0.00000 1.00000 0.04907 -0.99880 0.00000 0.04907 -0.99880 0.00000 -0.04907 0.99880 0.00000 -0.04907 0.99880 0.00000 -0.00000 0.00000 -1.00000 0.00000 -0.00000 -1.00000 0.00000 0.00000 1.00000 0.00000 -0.00000 1.00000 0.14673 -0.98918 0.00000 0.14673 -0.98918 0.00000 -0.14673 0.98918 0.00000 -0.14673 0.98918 0.00000 -0.00000 0.00000 -1.00000 0.00000 -0.00000 -1.00000 0.00000 0.00000 1.00000 0.00000 -0.00000 1.00000 0.24298 -0.97003 0.00000 0.24298 -0.97003 0.00000 -0.24298 0.97003 0.00000 -0.24298 0.97003 0.00000 -0.00000 0.00000 -1.00000 0.00000 -0.00000 -1.00000 0.00000 0.00000 1.00000 0.00000 -0.00000 1.00000 0.33689 -0.94154 0.00000 0.33689 -0.94154 0.00000 -0.33689 0.94154 0.00000 -0.33689 0.94154 0.00000 -0.00000 0.00000 -1.00000 0.00000 -0.00000 -1.00000 0.00000 0.00000 1.00000 0.00000 -0.00000 1.00000 0.42756 -0.90399 0.00000 0.42756 -0.90399 0.00000 -0.42756 0.90399 0.00000 -0.42756 0.90399 0.00000 -0.00000 0.00000 -1.00000 0.00000 -0.00000 -1.00000 0.00000 0.00000 1.00000 0.00000 -0.00000 1.00000 0.51410 -0.85773 0.00000 0.51410 -0.85773 0.00000 -0.51410 0.85773 0.00000 -0.51410 0.85773 0.00000 -0.00000 0.00000 -1.00000 0.00000 -0.00000 -1.00000 0.00000 0.00000 1.00000 0.00000 -0.00000 1.00000 0.59570 -0.80321 0.00000 0.59570 -0.80321 0.00000 -0.59570 0.80321 0.00000 -0.59570 0.80321 0.00000 -0.00000 0.00000 -1.00000 0.00000 -0.00000 -1.00000 0.00000 0.00000 1.00000 0.00000 -0.00000 1.00000 0.67156 -0.74095 0.00000 0.67156 -0.74095 0.00000 -0.67156 0.74095 0.00000 -0.67156 0.74095 0.00000 -0.00000 0.00000 -1.00000 0.00000 -0.00000 -1.00000 0.00000 0.00000 1.00000 0.00000 -0.00000 1.00000 0.74095 -0.67156 0.00000 0.74095 -0.67156 0.00000 -0.74095 0.67156 0.00000 -0.74095 0.67156 0.00000 -0.00000 0.00000 -1.00000 0.00000 -0.00000 -1.00000 0.00000 0.00000 1.00000 0.00000 -0.00000 1.00000 0.80321 -0.59570 0.00000 0.80321 -0.59570 0.00000 -0.80321 0.59570 0.00000 -0.80321 0.59570 0.00000 0.00000 0.00000 -1.00000 0.00000 -0.00000 -1.00000 0.00000 0.00000 1.00000 0.00000 -0.00000 1.00000 0.85773 -0.51410 0.00000 0.85773 -0.51410 0.00000 -0.85773 0.51410 0.00000 -0.85773 0.51410 0.00000 0.00000 0.00000 -1.00000 0.00000 -0.00000 -1.00000 0.00000 0.00000 1.00000 0.00000 -0.00000 1.00000 0.90399 -0.42756 0.00000 0.90399 -0.42756 0.00000 -0.90399 0.42756 0.00000 -0.90399 0.42756 0.00000 0.00000 0.00000 -1.00000 0.00000 -0.00000 -1.00000 0.00000 0.00000 1.00000 0.00000 -0.00000 1.00000 0.94154 -0.33689 0.00000 0.94154 -0.33689 0.00000 -0.94154 0.33689 0.00000 -0.94154 0.33689 0.00000 0.00000 0.00000 -1.00000 0.00000 -0.00000 -1.00000 0.00000 0.00000 1.00000 0.00000 -0.00000 1.00000 0.97003 -0.24298 0.00000 0.97003 -0.24298 0.00000 -0.97003 0.24298 0.00000 -0.97003 0.24298 0.00000 0.00000 0.00000 -1.00000 0.00000 -0.00000 -1.00000 0.00000 0.00000 1.00000 0.00000 -0.00000 1.00000 0.98918 -0.14673 0.00000 0.98918 -0.14673 0.00000 -0.98918 0.14673 0.00000 -0.98918 0.14673 0.00000 0.00000 0.00000 -1.00000 0.00000 -0.00000 -1.00000 0.00000 0.00000 1.00000 0.00000 -0.00000 1.00000 0.99880 -0.04907 0.00000 0.99880 -0.04907 0.00000 -0.99880 0.04907 0.00000 -0.99880 0.04907 0.00000</float_array><technique_common><accessor source="#normals-array" count="512" stride="3"><param name="X" type="float"/><param name="Y" type="float"/><param name="Z" type="float"/></accessor></technique_common></source>
<vertices id="vertices"><input semantic="POSITION" source="#positions"/></vertices><triangles count="512"><input semantic="VERTEX" source="#vertices" offset="0"/><input semantic="NORMAL" source="#normals" offset="1"/><p>65 0 64 0 0 0 1 1 65 1 0 1 193 2 129 2 128 2 192 3 193 3 128 3 193 4 192 4 64 4 65 5 193 5 64 5 129 6 1 6 0 6 128 7 129 7 0 7 66 8 65 8 1 8 2 9 66 9 1 9 194 10 130 10 129 10 193 11 194 11 129 11 194 12 193 12 65 12 66 13 194 13 65 13 130 14 2 14 1 14 129 15 130 15 1 15 67 16 66 16 2 16 3 17 67 17 2 17 195 18 131 18 130 18 194 19 195 19 130 19 195 20 194 20 66 20 67 21 195 21 66 21 131 22 3 22 2 22 130 23 131 23 2 23 68 24 67 24 3 24 4 25 68 25 3 25 196 26 132 26 131 26 195 27 196 27 131 27 196 28 195 28 67 28 68 29 196 29 67 29 132 30 4 30 3 30 131 31 132 31 3 31 69 32 68 32 4 32 5 33 69 33 4 33 197 34 133 34 132 34 196 35 197 35 132 35 197 36 196 36 68 36 69 37 197 37 68 37 133 38 5 38 4 38 132 39 133 39 4 39 70 40 69 40 5 40 6 41 70 41 5 41 198 42 134 42 133 42 197 43 198 43 133 43 198 44 197 44 69 44 70 45 198 45 69 45 134 46 6 46 5 46 133 47 134 47 5 47 71 48 70 48 6 48 7 49 71 49 6 49 199 50 135 50 134 50 198 51 199 51 134 51 199 52 198 52 70 52 71 53 199 53 70 53 135 54 7 54 6 54 134 55 135 55 6 55 72 56 71 56 7 56 8 57 72 57 7 57 200 58 136 58 135 58 199 59 200 59 135 59 200 60 199 60 71 60 72 61 200 61 71 61 136 62 8 62 7 62 135 63 136 63 7 63 73 64 72 64 8 64 9 65 73 65 8 65 201 66 137 66 136 66 200 67 201 67 136 67 201 68 200 68 72 68 73 69 201 69 72 69 137 70 9 70 8 70 136 71 137 71 8 71 74 72 73 72 9 72 10 73 74 73 9 73 202 74 138 74 137 74 201 75 202 75 137 75 202 76 201 76 73 76 74 77 202 77 73 77 138 78 10 78 9 78 137 79 138 79 9 79 75 80 74 80 10 80 11 81 75 81 10 81 203 82 139 82 138 82 202 83 203 83 138 83 203 84 202 84 74 84 75 85 203 85 74 85 139 86 11 86 10 86 138 87 139 87 10 87 76 88 75 88 11 88 12 89 76 89 11 89 204 90 140 90 139 90 203 91 204 91 139 91 204 92 203 92 75 92 76 93 204 93 75 93 140 94 12 94 11 94 139 95 140 95 11 95 77 96 76 96 12 96 13 97 77 97 12 97 205 98 141 98 140 98 204 99 205 99 140 99 205 100 204 100 76 100 77 101 205 101 76 101 141 102 13 102 12 102 140 103 141 103 12 103 78 104 77 104 13 104 14 105 78 105 13 105 206 106 142 106 141 106 205 107 206 107 141 107 206 108 205 108 77 108 78 109 206 109 77 109 142 110 14 110 13 110 141 111 142 111 13 111 79 112 78 112 14 112 15 113 79 113 14 113 207 114 143 114 142 114 206 115 207 115 142 115 207 116 206 116 78 116 79 117 207 117 78 117 143 118 15 118 14 118 142 119 143 119 14 119 80 120 79 120 15 120 16 121 80 121 15 121 208 122 144 122 143 122 207 123 208 123 143 123 208 124 207 124 79 124 80 125 208 125 79 125 144 126 16 126 15 126 143 127 144 127 15 127 81 128 80 128 16 128 17 129 81 129 16 129 209 130 145 130 144 130 208 131 209 131 144 131 209 132 208 132 80 132 81 133 209 133 80 133 145 134 17 134 16 134 144 135 145 135 16 135 82 136 81 136 17 136 18 137 82 137 17 137 210 138 146 138 145 138 209 139 210 139 145 139 210 140 209 140 81 140 82 141 210 141 81 141 146 142 18 142 17 142 145 143 146 143 17 143 83 144 82 144 18 144 19 145 83 145 18 145 211 146 147 146 146 146 210 147 211 147 146 147 211 148 210 148 82 148 83 149 211 149 82 149 147 150 19 150 18 150 146 151 147 151 18 151 84 152 83 152 19 152 20 153 84 153 19 153 212 154 148 154 147 154 211 155 212 155 147 155 212 156 211 156 83 156 84 157 212 157 83 157 148 158 20 158 19 158 147 159 148 159 19 159 85 160 84 160 20 160 21 161 85 161 20 161 213 162 149 162 148 162 212 163 213 163 148 163 213 164 212 164 84 164 85 165 213 165 84 165 149 166 21 166 20 166 148 167 149 167 20 167 86 168 85 168 21 168 22 169 86 169 21 169 214 170 150 170 149 170 213 171 214 171 149 171 214 172 213 172 85 172 86 173 214 173 85 173 150 174 22 174 21 174 149 175 150 175 21 175 87 176 86 176 22 176 23 177 87 177 22 177 215 178 151 178 150 178 214 179 215 179 150 179 215 180 214 180 86 180 87 181 215 181 86 181 151 182 23 182 22 182 150 183 151 183 22 183 88 184 87 184 23 184 24 185 88 185 23 185 216 186 152 186 151 186 215 187 216 187 151 187 216 188 215 188 87 188 88 189 216 189 87 189 152 190 24 190 23 190 151 191 152 191 23 191 89 192 88 192 24 192 25 193 89 193 24 193 217 194 153 194 152 194 216 195 217 195 152 195 217 196 216 196 88 196 89 197 217 197 88 197 153 198 25 198 24 198 152 199 153 199 24 199 90 200 89 200 25 200 26 201 90 201 25 201 218 202 154 202 153 202 217 203 218 203 153 203 218 204 217 204 89 204 90 205 218 205 89 205 154 206 26 206 25 206 153 207 154 207 25 207 91 208 90 208 26 208 27 209 91 209 26 209 219 210 155 210 154 210 218 211 219 211 154 211 219 212 218 212 90 212 91 213 219 213 90 213 155 214 27 214 26 214 154 215 155 215 26 215 92 216 91 216 27 216 28 217 92 217 27 217 220 218 156 218 155 218 219 219 220 219 155 219 220 220 219 220 91 220 92 221 220 221 91 221 156 222 28 222 27 222 155 223 156 223 27 223 93 224 92 224 28 224 29 225 93 225 28 225 221 226 157 226 156 226 220 227 221 227 156 227 221 228 220 228 92 228 93 229 221 229 92 229 157 230 29 230 28 230 156 231 157 231 28 231 94 232 93 232 29 232 30 233 94 233 29 233 222 234 158 234 157 234 221 235 222 235 157 235 222 236 221 236 93 236 94 237 222 237 93 237 158 238 30 238 29 238 157 239 158 239 29 239 95 240 94 240 30 240 31 241 95 241 30 241 223 242 159 242 158 242 222 243 223 243 158 243 223 244 222 244 94 244 95 245 223 245 94 245 159 246 31 246 30 246 158 247 159 247 30 247 96 248 95 248 31 248 32 249 96 249 31 249 224 250 160 250 159 250 223 251 224 251 159 251 224 252 223 252 95 252 96 253 224 253 95 253 160 254 32 254 31 254 159 255 160 255 31 255 97 256 96 256 32 256 33 257 97 257 32 257 225 258 161 258 160 258 224 259 225 259 160 259 225 260 224 260 96 260 97 261 225 261 96 261 161 262 33 262 32 262 160 263 161 263 32 263 98 264 97 264 33 264 34 265 98 265 33 265 226 266 162 266 161 266 225 267 226 267 161 267 226 268 225 268 97 268 98 269 226 269 97 269 162 270 34 270 33 270 161 271 162 271 33 271 99 272 98 272 34 272 35 273 99 273 34 273 227 274 163 274 162 274 226 275 227 275 162 275 227 276 226 276 98 276 99 277 227 277 98 277 163 278 35 278 34 278 162 279 163 279 34 279 100 280 99 280 35 280 36 281 100 281 35 281 228 282 164 282 163 282 227 283 228 283 163 283 228 284 227 284 99 284 100 285 228 285 99 285 164 286 36 286 35 286 163 287 164 287 35 287 101 288 100 288 36 288 37 289 101 289 36 289 229 290 165 290 164 290 228 291 229 291 164 291 229 292 228 292 100 292 101 293 229 293 100 293 165 294 37 294 36 294 164 295 165 295 36 295 102 296 101 296 37 296 38 297 102 297 37 297 230 298 166 298 165 298 229 299 230 299 165 299 230 300 229 300 101 300 102 301 230 301 101 301 166 302 38 302 37 302 165 303 166 303 37 303 103 304 102 304 38 304 39 305 103 305 38 305 231 306 167 306 166 306 230 307 231 307 166 307 231 308 230 308 102 308 103 309 231 309 102 309 167 310 39 310 38 310 166 311 167 311 38 311 104 312 103 312 39 312 40 313 104 313 39 313 232 314 168 314 167 314 231 315 232 315 167 315 232 316 231 316 103 316 104 317 232 317 103 317 168 318 40 318 39 318 167 319 168 319 39 319 105 320 104 320 40 320 41 321 105 321 40 321 233 322 169 322 168 322 232 323 233 323 168 323 233 324 232 324 104 324 105 325 233 325 104 325 169 326 41 326 40 326 168 327 169 327 40 327 106 328 105 328 41 328 42 329 106 329 41 329 234 330 170 330 169 330 233 331 234 331 169 331 234 332 233 332 105 332 106 333 234 333 105 333 170 334 42 334 41 334 169 335 170 335 41 335 107 336 106 336 42 336 43 337 107 337 42 337 235 338 171 338 170 338 234 339 235 339 170 339 235 340 234 340 106 340 107 341 235 341 106 341 171 342 43 342 42 342 170 343 171 343 42 343 108 344 107 344 43 344 44 345 108 345 43 345 236 346 172 346 171 346 235 347 236 347 171 347 236 348 235 348 107 348 108 349 236 349 107 349 172 350 44 350 43 350 171 351 172 351 43 351 109 352 108 352 44 352 45 353 109 353 44 353 237 354 173 354 172 354 236 355 237 355 172 355 237 356 236 356 108 356 109 357 237 357 108 357 173 358 45 358 44 358 172 359 173 359 44 359 110 360 109 360 45 360 46 361 110 361 45 361 238 362 174 362 173 362 237 363 238 363 173 363 238 364 237 364 109 364 110 365 238 365 109 365 174 366 46 366 45 366 173 367 174 367 45 367 111 368 110 368 46 368 47 369 111 369 46 369 239 370 175 370 174 370 238 371 239 371 174 371 239 372 238 372 110 372 111 373 239 373 110 373 175 374 47 374 46 374 174 375 175 375 46 375 112 376 111 376 47 376 48 377 112 377 47 377 240 378 176 378 175 378 239 379 240 379 175 379 240 380 239 380 111 380 112 381 240 381 111 381 176 382 48 382 47 382 175 383 176 383 47 383 113 384 112 384 48 384 49 385 113 385 48 385 241 386 177 386 176 386 240 387 241 387 176 387 241 388 240 388 112 388 113 389 241 389 112 389 177 390 49 390 48 390 176 391 177 391 48 391 114 392 113 392 49 392 50 393 114 393 49 393 242 394 178 394 177 394 241 395 242 395 177 395 242 396 241 396 113 396 114 397 242 397 113 397 178 398 50 398 49 398 177 399 178 399 49 399 115 400 114 400 50 400 51 401 115 401 50 401 243 402 179 402 178 402 242 403 243 403 178 403 243 404 242 404 114 404 115 405 243 405 114 405 179 406 51 406 50 406 178 407 179 407 50 407 116 408 115 408 51 408 52 409 116 409 51 409 244 410 180 410 179 410 243 411 244 411 179 411 244 412 243 412 115 412 116 413 244 413 115 413 180 414 52 414 51 414 179 415 180 415 51 415 117 416 116 416 52 416 53 417 117 417 52 417 245 418 181 418 180 418 244 419 245 419 180 419 245 420 244 420 116 420 117 421 245 421 116 421 181 422 53 422 52 422 180 423 181 423 52 423 118 424 117 424 53 424 54 425 118 425 53 425 246 426 182 426 181 426 245 427 246 427 181 427 246 428 245 428 117 428 118 429 246 429 117 429 182 430 54 430 53 430 181 431 182 431 53 431 119 432 118 432 54 432 55 433 119 433 54 433 247 434 183 434 182 434 246 435 247 435 182 435 247 436 246 436 118 436 119 437 247 437 118 437 183 438 55 438 54 438 182 439 183 439 54 439 120 440 119 440 55 440 56 441 120 441 55 441 248 442 184 442 183 442 247 443 248 443 183 443 248 444 247 444 119 444 120 445 248 445 119 445 184 446 56 446 55 446 183 447 184 447 55 447 121 448 120 448 56 448 57 449 121 449 56 449 249 450 185 450 184 450 248 451 249 451 184 451 249 452 248 452 120 452 121 453 249 453 120 453 185 454 57 454 56 454 184 455 185 455 56 455 122 456 121 456 57 456 58 457 122 457 57 457 250 458 186 458 185 458 249 459 250 459 185 459 250 460 249 460 121 460 122 461 250 461 121 461 186 462 58 462 57 462 185 463 186 463 57 463 123 464 122 464 58 464 59 465 123 465 58 465 251 466 187 466 186 466 250 467 251 467 186 467 251 468 250 468 122 468 123 469 251 469 122 469 187 470 59 470 58 470 186 471 187 471 58 471 124 472 123 472 59 472 60 473 124 473 59 473 252 474 188 474 187 474 251 475 252 475 187 475 252 476 251 476 123 476 124 477 252 477 123 477 188 478 60 478 59 478 187 479 188 479 59 479 125 480 124 480 60 480 61 481 125 481 60 481 253 482 189 482 188 482 252 483 253 483 188 483 253 484 252 484 124 484 125 485 253 485 124 485 189 486 61 486 60 486 188 487 189 487 60 487 126 488 125 488 61 488 62 489 126 489 61 489 254 490 190 490 189 490 253 491 254 491 189 491 254 492 253 492 125 492 126 493 254 493 125 493 190 494 62 494 61 494 189 495 190 495 61 495 127 496 126 496 62 496 63 497 127 497 62 497 255 498 191 498 190 498 254 499 255 499 190 499 255 500 254 500 126 500 127 501 255 501 126 501 191 502 63 502 62 502 190 503 191 503 62 503 64 504 127 504 63 504 0 505 64 505 63 505 192 506 128 506 191 506 255 507 192 507 191 507 192 508 255 508 127 508 64 509 192 509 127 509 128 510 0 510 63 510 191 511 128 511 63 511</p></triangles>
</mesh></geometry></library_geometries><library_visual_scenes><visual_scene id="Scene"><node id="mesh"><instance_geometry url="#geometry"/></node></visual_scene></library_visual_scenes><scene><instance_visual_scene url="#Scene"/></scene></COLLADA>