<?xml version="1.0" encoding="UTF-8"?>
<COLLADA xmlns="http://www.collada.org/2005/11/COLLADASchema" version="1.4.1">
<asset><contributor><authoring_tool>Summit Estate procedural mesh exporter</authoring_tool></contributor><created>2026-09-11T00:00:00Z</created><modified>2026-09-11T00:00:00Z</modified><unit name="meter" meter="1"/><up_axis>Z_UP</up_axis></asset>
<library_geometries><geometry id="geometry" name="geometry"><mesh>
<source id="positions"><float_array id="positions-array" count="1980">178.81333 236.43068 83.00763 176.91601 234.84902 83.00763 176.59007 232.47750 83.00763 177.69050 230.18569 83.00763 180.13208 229.65267 83.00763 182.33614 230.36473 83.00763 183.18978 232.52149 83.00763 182.88454 234.94390 83.00763 180.80020 236.48027 83.00763 179.89991 233.01754 88.88648 179.89991 233.01754 83.00763 114.28285 245.81699 81.31773 115.18283 244.24823 81.31773 116.62989 243.97147 81.31773 117.71167 244.14164 81.31773 118.72960 245.75380 81.31773 118.17255 247.11736 81.31773 117.14044 247.75736 81.31773 116.00814 247.72676 81.31773 114.68098 247.10583 81.31773 116.49114 245.96503 88.23084 116.49114 245.96503 81.31773 189.30097 252.49122 80.35949 187.54290 251.30420 80.35949 187.47062 249.52514 80.35949 187.92990 247.76413 80.35949 189.89747 247.27072 80.35949 191.61897 247.79070 80.35949 192.53745 249.38991 80.35949 192.02540 251.20163 80.35949 191.01675 252.07180 80.35949 189.91851 249.82573 90.71622 189.91851 249.82573 80.35949 21.87651 232.76919 81.18223 22.12589 230.61397 81.18223 23.50734 228.82644 81.18223 25.79869 228.35542 81.18223 27.89799 229.63167 81.18223 28.48159 231.76591 81.18223 27.46351 233.99665 81.18223 25.72339 234.88174 81.18223 23.33439 234.71170 81.18223 25.20623 231.78413 88.60992 25.20623 231.78413 81.18223 46.05001 251.80385 77.92574 43.87636 252.23437 77.92574 42.13593 251.16174 77.92574 41.28917 248.63831 77.92574 41.88720 246.87611 77.92574 43.94619 245.69791 77.92574 46.30138 246.14388 77.92574 47.76254 247.94582 77.92574 47.81485 250.02051 77.92574 44.61143 248.83085 89.24278 44.61143 248.83085 77.92574 69.07728 229.29425 82.88329 69.39631 227.81954 82.88329 71.08684 227.36924 82.88329 72.40196 227.79792 82.88329 73.09700 229.20472 82.88329 72.74826 230.71147 82.88329 71.58359 231.32409 82.88329 69.95063 231.50738 82.88329 69.17041 230.60590 82.88329 70.88156 229.51660 88.88889 70.88156 229.51660 82.88329 39.52359 242.14690 82.55992 39.91983 244.80245 82.55992 38.84118 246.92812 82.55992 36.20562 247.70912 82.55992 34.00818 247.02667 82.55992 32.75532 244.88838 82.55992 32.79247 242.24048 82.55992 35.02986 240.78375 82.55992 37.53200 240.60407 82.55992 36.27381 244.11894 90.68764 36.27381 244.11894 82.55992 78.70456 228.90707 80.77863 79.25912 226.15372 80.77863 81.39889 224.21288 80.77863 84.15719 223.98623 80.77863 86.56609 225.67373 80.77863 87.41309 228.47910 80.77863 86.26326 231.00172 80.77863 83.25957 232.12835 80.77863 80.61325 231.32499 80.77863 83.06096 227.99734 88.36254 83.06096 227.99734 80.77863 86.31022 231.32775 81.58752 86.21486 229.82229 81.58752 86.44463 228.48136 81.58752 87.91659 227.98837 81.58752 89.36917 228.07006 81.58752 90.39015 229.39746 81.58752 90.32414 230.92150 81.58752 89.03210 231.78042 81.58752 87.61065 232.03560 81.58752 88.21546 229.98646 86.66422 88.21546 229.98646 81.58752 190.48108 230.92570 80.08262 192.41795 232.81583 80.08262 192.30843 236.08504 80.08262 190.50599 238.27106 80.08262 187.64017 238.99952 80.08262 185.03516 237.50190 80.08262 183.87793 235.10638 80.08262 184.65399 232.18669 80.08262 187.15421 230.51000 80.08262 188.27053 234.69850 85.68824 188.27053 234.69850 80.08262 180.35338 245.12612 80.31017 181.78778 245.58057 80.31017 182.69452 247.09358 80.31017 182.39527 248.72013 80.31017 181.12994 249.94435 80.31017 179.34497 249.72733 80.31017 177.90617 248.80712 80.31017 177.65610 247.19600 80.31017 178.78693 245.47137 80.31017 180.14653 247.46705 90.83906 180.14653 247.46705 80.31017 178.29152 240.01114 83.51750 178.68568 240.66852 83.51750 178.97134 241.67436 83.51750 178.25538 242.52658 83.51750 177.63291 242.79269 83.51750 176.45955 242.10310 83.51750 176.28879 241.65931 83.51750 176.68407 240.63812 83.51750 177.26854 240.03742 83.51750 177.56746 241.36002 88.31314 177.56746 241.36002 83.51750 89.56066 250.85331 75.41404 88.22673 250.29984 75.41404 87.16015 248.97004 75.41404 87.64606 246.92573 75.41404 89.09273 245.84541 75.41404 90.96314 246.35202 75.41404 91.88086 247.35762 75.41404 92.26847 249.11421 75.41404 91.56477 250.66412 75.41404 89.82820 248.50975 81.48896 89.82820 248.50975 75.41404 198.43845 222.29570 87.06507 200.27939 223.97565 87.06507 200.56408 226.76064 87.06507 198.96614 228.55614 87.06507 196.81791 229.38624 87.06507 194.64001 228.51308 87.06507 193.22565 226.31380 87.06507 193.83653 223.88332 87.06507 195.85904 222.10311 87.06507 196.96554 225.76935 96.45000 196.96554 225.76935 87.06507 123.63347 230.50604 81.86371 123.59977 232.71328 81.86371 122.47112 234.06919 81.86371 120.35643 234.76444 81.86371 118.52055 233.47527 81.86371 117.83839 231.42668 81.86371 118.23925 229.24173 81.86371 120.39337 228.42446 81.86371 122.36512 228.82807 81.86371 120.85470 231.48031 87.98516 120.85470 231.48031 81.86371 119.97538 237.35552 84.61267 117.60871 237.83871 84.61267 115.60703 236.65163 84.61267 114.35079 234.26240 84.61267 115.13831 232.21049 84.61267 117.27453 230.67266 84.61267 119.49309 230.91344 84.61267 121.33073 232.71434 84.61267 121.49186 235.48721 84.61267 118.01621 234.20490 95.14410 118.01621 234.20490 84.61267 100.04767 234.93122 84.88457 98.89089 234.76777 84.88457 98.13364 233.99790 84.88457 97.86824 233.21846 84.88457 98.58262 232.38945 84.88457 99.30066 232.03069 84.88457 100.34599 232.24342 84.88457 100.82958 233.16893 84.88457 100.88256 233.95124 84.88457 99.41292 233.34269 91.30619 99.41292 233.34269 84.88457 55.65890 242.32170 77.14291 58.28836 243.00994 77.14291 60.64937 245.21746 77.14291 60.52220 248.10722 77.14291 58.77064 250.73717 77.14291 55.90922 251.02772 77.14291 52.87532 249.81265 77.14291 52.05674 246.68418 77.14291 52.80288 243.95039 77.14291 56.38584 246.76720 87.88569 56.38584 246.76720 77.14291 51.75790 247.21346 80.40375 53.47432 247.44722 80.40375 54.32187 248.74557 80.40375 54.42925 250.35450 80.40375 53.67359 251.58918 80.40375 51.96682 252.02610 80.40375 50.73989 251.04750 80.40375 50.18280 249.53883 80.40375 50.47713 247.87893 80.40375 52.33143 249.48576 89.57739 52.33143 249.48576 80.40375 110.93406 241.93220 76.66191 108.06052 241.80607 76.66191 105.79842 239.63188 76.66191 105.46925 236.73486 76.66191 107.15313 234.05924 76.66191 110.11841 232.99941 76.66191 112.84127 234.56340 76.66191 113.90648 237.09925 76.66191 113.52782 240.17648 76.66191 109.70454 237.59717 82.54626 109.70454 237.59717 76.66191 232.06707 243.86004 84.96971 230.82945 245.81977 84.96971 228.80641 246.45826 84.96971 226.93964 245.81455 84.96971 225.87010 244.03727 84.96971 226.41478 241.95651 84.96971 227.96136 240.56710 84.96971 229.69258 240.51209 84.96971 231.30485 241.71763 84.96971 228.88833 243.45210 95.08201 228.88833 243.45210 84.96971 62.44018 230.92040 85.32383 63.56141 229.41591 85.32383 65.15652 228.58546 85.32383 67.09292 229.00085 85.32383 67.80610 230.81030 85.32383 67.52424 232.58213 85.32383 66.46111 234.01856 85.32383 64.45212 233.89745 85.32383 62.91418 232.95912 85.32383 65.29575 231.39037 94.66017 65.29575 231.39037 85.32383 37.49474 236.36812 83.68688 37.19540 234.66828 83.68688 38.20279 232.69219 83.68688 39.81452 232.02312 83.68688 41.56876 232.70307 83.68688 42.57676 234.51142 83.68688 42.47437 236.45454 83.68688 40.83327 237.82365 83.68688 39.18959 237.55463 83.68688 39.94212 235.05633 91.01757 39.94212 235.05633 83.68688 62.14561 242.20273 78.54202 59.57817 240.12689 78.54202 59.16979 237.05450 78.54202 60.81460 234.17738 78.54202 63.99199 233.23882 78.54202 67.29451 234.50795 78.54202 68.62961 237.31296 78.54202 67.75005 240.45438 78.54202 65.46294 242.47634 78.54202 63.94196 237.96626 86.53289 63.94196 237.96626 78.54202 151.07239 247.82784 82.20734 149.70776 248.91132 82.20734 147.87492 249.27127 82.20734 146.37493 248.30938 82.20734 145.84324 246.66649 82.20734 146.54754 245.21410 82.20734 148.45214 244.08712 82.20734 149.94773 244.75467 82.20734 151.09551 245.81065 82.20734 148.60198 246.76201 87.95097 148.60198 246.76201 82.20734 145.39907 247.42206 82.46145 145.93465 246.58143 82.46145 146.83483 246.07960 82.46145 148.10745 246.47858 82.46145 148.52201 247.31111 82.46145 148.40149 248.21273 82.46145 147.75951 249.10211 82.46145 146.61250 249.11809 82.46145 145.83259 248.63560 82.46145 147.00261 247.59732 88.58850 147.00261 247.59732 82.46145 219.53692 231.84068 82.32398 219.44353 235.07622 82.32398 217.14007 237.77935 82.32398 214.00063 238.05809 82.32398 211.10162 236.43602 82.32398 210.23067 233.47161 82.32398 211.45284 230.17947 82.32398 214.13912 228.67638 82.32398 217.43273 229.11880 82.32398 215.04121 233.37745 93.49450 215.04121 233.37745 82.32398 72.23866 231.79300 84.60209 72.80356 230.30466 84.60209 73.62687 229.61624 84.60209 75.25798 229.57933 84.60209 76.34661 230.67220 84.60209 76.83335 232.20880 84.60209 75.74463 233.22494 84.60209 74.58139 233.77939 84.60209 72.86124 233.34898 84.60209 74.53697 231.64750 90.00896 74.53697 231.64750 84.60209 70.78791 236.78075 77.79057 71.86467 238.47220 77.79057 71.50423 239.97223 77.79057 70.25394 241.08766 77.79057 68.55890 241.18314 77.79057 67.21442 240.20267 77.79057 66.87408 238.67081 77.79057 67.72762 236.80293 77.79057 69.20907 236.33319 77.79057 69.33732 238.82255 85.34249 69.33732 238.82255 77.79057 212.09339 231.59134 82.79061 209.25172 232.62305 82.79061 206.65073 231.58211 82.79061 205.08498 229.29704 82.79061 205.18587 226.27746 82.79061 207.70315 224.49648 82.79061 210.24542 224.22074 82.79061 212.67009 226.29895 82.79061 213.20681 228.67358 82.79061 209.09211 228.34795 93.30962 209.09211 228.34795 82.79061 231.34082 247.68671 82.47980 230.38828 247.93140 82.47980 229.33240 247.36962 82.47980 228.71400 246.58011 82.47980 229.09453 245.54338 82.47980 229.91416 245.02412 82.47980 230.86840 244.88330 82.47980 231.91804 245.71898 82.47980 231.90206 246.79209 82.47980 230.45956 246.33312 87.08404 230.45956 246.33312 82.47980 10.01114 249.75871 81.19592 7.69543 247.34923 81.19592 7.80252 244.49466 81.19592 10.05563 242.24152 81.19592 12.74925 241.71316 81.19592 15.74775 243.29782 81.19592 16.45899 246.04353 81.19592 15.79236 248.82801 81.19592 12.77014 250.29561 81.19592 12.13111 246.01871 93.12505 12.13111 246.01871 81.19592 230.74984 237.10233 79.99298 229.92944 235.70814 79.99298 229.89445 233.46622 79.99298 231.27918 232.52242 79.99298 233.14436 232.05259 79.99298 234.71139 233.25104 79.99298 235.14272 234.95376 79.99298 234.54461 236.70771 79.99298 232.56025 237.34897 79.99298 232.40799 234.77574 85.97989 232.40799 234.77574 79.99298 71.18834 239.93007 75.39550 73.64838 240.37038 75.39550 74.97478 242.52905 75.39550 74.37690 244.78559 75.39550 72.88195 246.35736 75.39550 70.38341 246.48053 75.39550 68.67066 244.86142 75.39550 68.10641 242.94826 75.39550 69.13018 240.53487 75.39550 71.53506 243.12513 81.08745 71.53506 243.12513 75.39550 125.87499 237.27673 79.29806 127.19047 234.81870 79.29806 129.97228 233.97471 79.29806 132.67285 234.99092 79.29806 134.06028 237.58919 79.29806 133.25602 240.32383 79.29806 130.93439 241.87463 79.29806 128.26304 241.60898 79.29806 125.97259 239.96488 79.29806 129.73120 237.96565 91.15578 129.73120 237.96565 79.29806 16.56542 241.60043 80.71408 16.65018 243.39439 80.71408 15.80489 245.22714 80.71408 14.01454 245.33814 80.71408 12.18505 244.72558 80.71408 11.38057 242.79875 80.71408 11.87706 240.86028 80.71408 13.56542 239.94067 80.71408 15.13650 239.99379 80.71408 14.07889 242.71568 90.44413 14.07889 242.71568 80.71408 40.77477 234.60167 83.25191 39.92954 236.93400 83.25191 38.17651 238.53142 83.25191 35.58929 238.43417 83.25191 33.96667 236.52803 83.25191 33.56692 234.16403 83.25191 34.84133 232.26915 83.25191 37.09497 231.18519 83.25191 39.62539 232.11475 83.25191 37.09369 234.90379 89.90639 37.09369 234.90379 83.25191 61.32570 247.62236 74.11654 62.35073 248.95349 74.11654 61.91972 250.68087 74.11654 61.03873 251.69291 74.11654 59.30344 251.74532 74.11654 58.02580 250.97283 74.11654 57.49756 249.50419 74.11654 58.01481 247.71070 74.11654 59.88718 247.20728 74.11654 59.93039 249.51458 80.12412 59.93039 249.51458 74.11654 119.14489 231.13363 88.89571 119.43609 233.16955 88.89571 118.23082 234.71500 88.89571 116.65461 234.82200 88.89571 115.12637 233.95208 88.89571 114.36307 232.36556 88.89571 114.69545 230.58397 88.89571 116.27057 229.62201 88.89571 118.24508 229.99989 88.89571 116.88926 232.27161 97.95858 116.88926 232.27161 88.89571 243.42612 242.11524 80.98028 241.57714 240.03660 80.98028 241.22904 236.64948 80.98028 242.97584 234.42990 80.98028 245.99716 233.37323 80.98028 248.92330 234.78561 80.98028 250.06480 237.90274 80.98028 249.09609 240.64671 80.98028 246.77019 242.52718 80.98028 245.58767 238.03517 92.83862 245.58767 238.03517 80.98028 130.71860 252.48732 78.54931 128.39716 251.90513 78.54931 127.07148 250.43616 78.54931 127.19837 248.36168 78.54931 128.79018 246.74854 78.54931 130.93347 246.51976 78.54931 132.77929 247.43481 78.54931 133.41024 249.66790 78.54931 132.40585 251.69852 78.54931 130.15572 249.41027 86.36339 130.15572 249.41027 78.54931 223.46405 227.38085 86.56135 221.49102 228.99040 86.56135 218.53180 228.50734 86.56135 216.97200 226.58101 86.56135 217.10945 223.83327 86.56135 218.54303 222.01526 86.56135 221.07639 221.36738 86.56135 223.45003 222.74529 86.56135 224.51076 224.94626 86.56135 220.60525 225.06874 95.25126 220.60525 225.06874 86.56135 212.63792 240.72597 87.48223 213.78487 242.27752 87.48223 213.45086 243.56351 87.48223 212.18551 244.47708 87.48223 210.60911 244.54440 87.48223 209.32939 243.81072 87.48223 209.38802 242.11895 87.48223 209.99894 241.01648 87.48223 211.20636 240.37330 87.48223 211.38329 242.48866 95.07397 211.38329 242.48866 87.48223 228.48169 238.71283 85.03829 229.14397 240.62653 85.03829 228.09209 242.83266 85.03829 225.93007 243.63677 85.03829 223.56327 243.08573 85.03829 222.19189 241.06340 85.03829 222.41386 238.84496 85.03829 224.36217 237.41227 85.03829 226.42544 237.16597 85.03829 225.62926 240.43797 94.63592 225.62926 240.43797 85.03829 25.80423 238.36449 86.06036 26.32080 237.07553 86.06036 27.21968 236.36489 86.06036 28.45181 236.22107 86.06036 29.61198 237.13604 86.06036 29.75364 238.53295 86.06036 29.29000 239.76802 86.06036 28.07479 240.19852 86.06036 26.83659 239.51072 86.06036 27.92728 238.13954 96.42436 27.92728 238.13954 86.06036 84.44018 224.46617 88.46394 84.11282 226.28501 88.46394 83.32774 227.44269 88.46394 81.50672 227.35704 88.46394 80.03161 226.37793 88.46394 79.52100 224.88991 88.46394 80.65794 223.22877 88.46394 81.77686 222.53337 88.46394 83.61396 223.07181 88.46394 82.13679 225.14356 95.55772 82.13679 225.14356 88.46394 148.37282 232.56607 78.64926 151.27577 231.96422 78.64926 153.83701 233.11115 78.64926 155.22147 235.92764 78.64926 154.42581 238.64238 78.64926 151.86450 240.37257 78.64926 148.95539 239.91757 78.64926 146.87839 237.98858 78.64926 146.67701 234.97881 78.64926 150.96083 236.18675 84.61504 150.96083 236.18675 78.64926 237.48406 240.59053 86.74799 238.16545 242.39736 86.74799 237.63350 243.93406 86.74799 236.29283 244.90126 86.74799 234.46477 244.85712 86.74799 233.12926 243.60129 86.74799 232.88099 241.80804 86.74799 234.18350 240.56638 86.74799 235.86789 239.87089 86.74799 235.53266 242.45383 94.18180 235.53266 242.45383 86.74799 208.66356 226.03686 82.58298 208.02654 227.71266 82.58298 206.25562 227.99705 82.58298 204.63316 227.42812 82.58298 203.63162 225.67876 82.58298 203.72089 224.06485 82.58298 205.33618 223.13825 82.58298 207.17139 223.13242 82.58298 208.48774 224.18241 82.58298 206.16709 225.48431 91.61679 206.16709 225.48431 82.58298 128.65870 246.80966 77.82575 127.15244 247.17411 77.82575 125.97372 246.32994 77.82575 124.98760 244.72341 77.82575 125.51821 243.20010 77.82575 126.72024 242.49793 77.82575 128.64237 242.34646 77.82575 129.61194 243.58298 77.82575 129.71541 245.49716 77.82575 127.48558 244.64266 83.69534 127.48558 244.64266 77.82575 217.37184 232.19490 82.98228 218.78165 233.49435 82.98228 218.58207 235.42238 82.98228 217.18359 236.93484 82.98228 214.97576 236.95332 82.98228 213.40277 236.00377 82.98228 212.83113 234.14752 82.98228 213.90142 232.49728 82.98228 215.86803 231.62279 82.98228 215.86895 234.42278 88.83728 215.86895 234.42278 82.98228 121.59766 228.82588 88.94180 120.05266 228.94711 88.94180 118.79022 228.21517 88.94180 118.38008 226.94355 88.94180 119.04440 225.55443 88.94180 120.40973 224.71356 88.94180 122.05553 225.05567 88.94180 122.95656 226.50081 88.94180 122.77499 227.90030 88.94180 120.77804 226.92608 96.85315 120.77804 226.92608 88.94180 235.41357 246.49981 83.03412 234.14677 247.12944 83.03412 232.78956 247.07792 83.03412 232.26905 245.94459 83.03412 231.90545 244.44185 83.03412 232.85604 243.33116 83.03412 234.38288 243.23177 83.03412 235.59002 243.83635 83.03412 236.07671 244.98126 83.03412 233.97509 245.17607 87.99795 233.97509 245.17607 83.03412 220.79988 225.86763 84.74210 222.63254 225.18550 84.74210 224.47434 226.31601 84.74210 225.15386 227.94847 84.74210 224.81504 229.92830 84.74210 223.17822 230.90716 84.74210 221.17304 230.54502 84.74210 219.96388 229.39411 84.74210 220.05039 227.45753 84.74210 222.47797 228.15008 91.71495 222.47797 228.15008 84.74210 243.69025 236.94208 83.26643 242.42980 236.37578 83.26643 242.28456 234.63040 83.26643 242.69235 233.23297 83.26643 243.87182 232.60301 83.26643 245.42819 232.66632 83.26643 246.43099 234.08814 83.26643 246.52146 235.67252 83.26643 245.49417 236.66849 83.26643 244.34069 234.75190 90.44274 244.34069 234.75190 83.26643 17.16475 244.15824 85.57534 17.52363 242.39314 85.57534 18.77244 241.38007 85.57534 20.36799 241.53588 85.57534 21.46674 242.52394 85.57534 21.52072 244.15129 85.57534 20.82159 245.45089 85.57534 19.46549 245.79488 85.57534 17.96418 245.43522 85.57534 19.39016 243.62522 91.91431 19.39016 243.62522 85.57534 159.15194 233.67574 80.72489 161.37780 235.37938 80.72489 162.24154 238.38410 80.72489 161.11211 240.79617 80.72489 158.39295 241.93268 80.72489 155.58922 241.42666 80.72489 154.13709 238.94644 80.72489 154.22298 235.87714 80.72489 156.35825 234.24793 80.72489 158.09880 237.87881 92.32160 158.09880 237.87881 80.72489 136.21406 234.88626 82.97390 135.07402 235.64360 82.97390 133.59005 235.28391 82.97390 132.71510 234.10169 82.97390 132.71171 232.91200 82.97390 133.51436 231.59860 82.97390 135.04449 231.24829 82.97390 136.26678 232.19520 82.97390 136.78931 233.50815 82.97390 134.76246 233.49646 87.70661 134.76246 233.49646 82.97390 96.86024 240.16469 79.27385 95.63269 241.67729 79.27385 93.53547 241.85055 79.27385 91.65466 240.73366 79.27385 91.01771 238.75032 79.27385 91.92646 236.94687 79.27385 93.84563 236.13432 79.27385 95.84493 236.30676 79.27385 97.13451 237.99080 79.27385 94.11226 239.02416 85.58835 94.11226 239.02416 79.27385 131.78997 238.46771 78.03872 134.26497 237.13266 78.03872 137.27364 237.89209 78.03872 139.20499 240.05616 78.03872 139.32143 243.39143 78.03872 137.34348 245.38248 78.03872 134.15951 246.02824 78.03872 131.42574 244.39642 78.03872 130.57322 241.48182 78.03872 135.02554 241.60926 88.42992 135.02554 241.60926 78.03872</float_array><technique_common><accessor source="#positions-array" count="660" stride="3"><param name="X" type="float"/><param name="Y" type="float"/><param name="Z" type="float"/></accessor></technique_common></source>
<source id="normals"><float_array id="normals-array" count="3240">-0.55766 0.66895 0.49145 0.00000 0.00000 -1.00000 -0.86979 0.11954 0.47872 -0.00000 0.00000 -1.00000 -0.79078 -0.37970 0.48010 0.00000 0.00000 -1.00000 -0.18683 -0.85577 0.48244 0.00000 -0.00000 -1.00000 0.26860 -0.83139 0.48647 0.00000 0.00000 -1.00000 0.81424 -0.32227 0.48285 0.00000 0.00000 -1.00000 0.87130 0.10979 0.47832 0.00000 0.00000 -1.00000 0.51658 0.70083 0.49191 0.00000 0.00000 -1.00000 -0.02153 0.86288 0.50495 0.00000 0.00000 -1.00000 -0.83358 -0.47821 0.27651 0.00000 0.00000 -1.00000 -0.18092 -0.94595 0.26916 0.00000 -0.00000 -1.00000 0.14933 -0.94927 0.27674 0.00000 0.00000 -1.00000 0.81207 -0.51275 0.27862 0.00000 0.00000 -1.00000 0.88953 0.36339 0.27692 0.00000 0.00000 -1.00000 0.50880 0.82052 0.26052 0.00000 0.00000 -1.00000 -0.02617 0.96826 0.24858 0.00000 0.00000 -1.00000 -0.41010 0.87653 0.25203 0.00000 0.00000 -1.00000 -0.91544 0.28278 0.28637 -0.00000 0.00000 -1.00000 -0.54330 0.80466 0.23949 0.00000 0.00000 -1.00000 -0.97268 0.03952 0.22875 -0.00000 0.00000 -1.00000 -0.94175 -0.24561 0.22972 0.00000 0.00000 -1.00000 -0.23653 -0.94323 0.23318 0.00000 0.00000 -1.00000 0.28144 -0.93178 0.22930 0.00000 -0.00000 -1.00000 0.84316 -0.48426 0.23359 0.00000 0.00000 -1.00000 0.93743 0.26495 0.22590 0.00000 0.00000 -1.00000 0.63611 0.73734 0.22736 0.00000 0.00000 -1.00000 0.23112 0.94546 0.22955 0.00000 0.00000 -1.00000 -0.91256 -0.10559 0.39508 -0.00000 0.00000 -1.00000 -0.72835 -0.56288 0.39073 0.00000 0.00000 -1.00000 -0.18457 -0.89786 0.39974 0.00000 -0.00000 -1.00000 0.47620 -0.78331 0.39957 0.00000 0.00000 -1.00000 0.88742 -0.24266 0.39192 0.00000 0.00000 -1.00000 0.84463 0.38547 0.37150 0.00000 0.00000 -1.00000 0.42046 0.82664 0.37401 0.00000 0.00000 -1.00000 -0.06566 0.92258 0.38018 0.00000 0.00000 -1.00000 -0.73257 0.54980 0.40132 0.00000 0.00000 -1.00000 0.18698 0.94403 0.27176 0.00000 0.00000 -1.00000 -0.50389 0.81760 0.27862 0.00000 0.00000 -1.00000 -0.91460 0.30690 0.26327 -0.00000 0.00000 -1.00000 -0.91106 -0.30918 0.27271 0.00000 0.00000 -1.00000 -0.47955 -0.83805 0.26019 0.00000 0.00000 -1.00000 0.18002 -0.95068 0.25260 0.00000 -0.00000 -1.00000 0.75071 -0.60874 0.25663 0.00000 0.00000 -1.00000 0.96258 -0.02427 0.26992 0.00000 0.00000 -1.00000 0.68532 0.67821 0.26528 0.00000 0.00000 -1.00000 -0.93579 -0.20244 0.28864 0.00000 0.00000 -1.00000 -0.24394 -0.91579 0.31911 0.00000 -0.00000 -1.00000 0.29247 -0.89723 0.33081 0.00000 0.00000 -1.00000 0.84523 -0.41759 0.33349 0.00000 0.00000 -1.00000 0.92021 0.21298 0.32840 0.00000 0.00000 -1.00000 0.44328 0.84273 0.30545 0.00000 0.00000 -1.00000 0.10648 0.94862 0.29795 0.00000 0.00000 -1.00000 -0.71716 0.62069 0.31692 0.00000 0.00000 -1.00000 -0.95619 0.06789 0.28476 -0.00000 0.00000 -1.00000 0.90819 -0.13551 0.39601 0.00000 0.00000 -1.00000 0.81681 0.41448 0.40127 0.00000 0.00000 -1.00000 0.26185 0.88363 0.38812 0.00000 0.00000 -1.00000 -0.27303 0.87913 0.39062 0.00000 0.00000 -1.00000 -0.79511 0.46586 0.38830 0.00000 0.00000 -1.00000 -0.91807 -0.01288 0.39621 -0.00000 0.00000 -1.00000 -0.50172 -0.77060 0.39300 0.00000 0.00000 -1.00000 -0.06603 -0.91953 0.38743 0.00000 -0.00000 -1.00000 0.56123 -0.72448 0.40018 0.00000 0.00000 -1.00000 -0.86279 -0.17378 0.47476 -0.00000 0.00000 -1.00000 -0.59683 -0.65801 0.45915 0.00000 0.00000 -1.00000 -0.07280 -0.88594 0.45805 0.00000 -0.00000 -1.00000 0.50985 -0.72781 0.45863 0.00000 0.00000 -1.00000 0.84551 -0.25528 0.46899 0.00000 0.00000 -1.00000 0.79779 0.36364 0.48092 0.00000 0.00000 -1.00000 0.31168 0.83097 0.46080 0.00000 0.00000 -1.00000 -0.25839 0.85118 0.45687 0.00000 0.00000 -1.00000 -0.69490 0.54855 0.46497 0.00000 0.00000 -1.00000 -0.92940 0.05887 0.36435 -0.00000 0.00000 -1.00000 -0.91706 -0.15714 0.36647 0.00000 0.00000 -1.00000 -0.29569 -0.88285 0.36488 0.00000 0.00000 -1.00000 0.05232 -0.93029 0.36307 0.00000 -0.00000 -1.00000 0.73333 -0.56405 0.37958 0.00000 0.00000 -1.00000 0.92015 0.03985 0.38954 0.00000 0.00000 -1.00000 0.51693 0.77760 0.35794 0.00000 0.00000 -1.00000 0.16538 0.92122 0.35214 0.00000 0.00000 -1.00000 -0.44212 0.81224 0.38052 0.00000 0.00000 -1.00000 0.55683 -0.57060 0.60362 0.00000 0.00000 -1.00000 0.80792 0.02707 0.58867 0.00000 0.00000 -1.00000 0.62818 0.51795 0.58061 0.00000 0.00000 -1.00000 0.20031 0.78804 0.58212 0.00000 0.00000 -1.00000 -0.40424 0.70314 0.58496 0.00000 0.00000 -1.00000 -0.72477 0.35012 0.59341 0.00000 0.00000 -1.00000 -0.77738 -0.20663 0.59412 -0.00000 0.00000 -1.00000 -0.44954 -0.67034 0.59039 0.00000 0.00000 -1.00000 0.10078 -0.80652 0.58256 0.00000 -0.00000 -1.00000 0.29510 -0.93145 0.21289 0.00000 0.00000 -1.00000 0.83669 -0.50143 0.22027 0.00000 0.00000 -1.00000 0.95814 0.17628 0.22562 0.00000 0.00000 -1.00000 0.67704 0.69978 0.22788 0.00000 0.00000 -1.00000 -0.11782 0.96904 0.21700 0.00000 0.00000 -1.00000 -0.52601 0.82244 0.21660 0.00000 0.00000 -1.00000 -0.96307 0.14948 0.22395 -0.00000 0.00000 -1.00000 -0.81809 -0.53642 0.20732 0.00000 0.00000 -1.00000 -0.21052 -0.95515 0.20823 0.00000 -0.00000 -1.00000 0.82713 -0.49594 0.26438 0.00000 0.00000 -1.00000 0.93016 -0.26417 0.25498 0.00000 0.00000 -1.00000 0.73988 0.62158 0.25734 0.00000 0.00000 -1.00000 0.37852 0.88543 0.26968 0.00000 0.00000 -1.00000 -0.49148 0.83627 0.24312 0.00000 0.00000 -1.00000 -0.90075 0.34658 0.26180 0.00000 0.00000 -1.00000 -0.90961 -0.35209 0.22056 -0.00000 0.00000 -1.00000 -0.69740 -0.67856 0.23061 0.00000 0.00000 -1.00000 -0.02475 -0.96332 0.26722 0.00000 -0.00000 -1.00000 -0.35905 0.86535 0.34964 0.00000 0.00000 -1.00000 -0.72677 0.58291 0.36336 0.00000 0.00000 -1.00000 -0.90025 -0.21398 0.37917 -0.00000 0.00000 -1.00000 -0.55090 -0.73771 0.39024 0.00000 0.00000 -1.00000 0.24343 -0.89874 0.36470 0.00000 -0.00000 -1.00000 0.69106 -0.63067 0.35311 0.00000 0.00000 -1.00000 0.91559 -0.20203 0.34768 0.00000 0.00000 -1.00000 0.84340 0.38293 0.37689 0.00000 0.00000 -1.00000 0.08785 0.93067 0.35516 0.00000 0.00000 -1.00000 0.63028 -0.69068 0.35456 0.00000 0.00000 -1.00000 0.93278 -0.09535 0.34759 0.00000 0.00000 -1.00000 0.70360 0.62618 0.33593 0.00000 0.00000 -1.00000 0.33980 0.87936 0.33356 0.00000 0.00000 -1.00000 -0.34973 0.87232 0.34169 0.00000 0.00000 -1.00000 -0.78970 0.50786 0.34416 0.00000 0.00000 -1.00000 -0.90888 -0.22844 0.34894 -0.00000 0.00000 -1.00000 -0.61943 -0.70374 0.34795 0.00000 0.00000 -1.00000 0.06958 -0.93194 0.35586 0.00000 -0.00000 -1.00000 0.91132 0.01391 0.41147 0.00000 0.00000 -1.00000 0.69464 0.57821 0.42796 0.00000 0.00000 -1.00000 0.28110 0.85501 0.43583 0.00000 0.00000 -1.00000 -0.51690 0.73611 0.43699 0.00000 0.00000 -1.00000 -0.86040 0.28651 0.42145 -0.00000 0.00000 -1.00000 -0.88456 -0.16229 0.43728 0.00000 0.00000 -1.00000 -0.31810 -0.83844 0.44252 0.00000 0.00000 -1.00000 0.18121 -0.88529 0.42828 0.00000 -0.00000 -1.00000 0.72526 -0.54822 0.41648 0.00000 0.00000 -1.00000 0.18994 0.93034 0.31366 0.00000 0.00000 -1.00000 -0.48631 0.82003 0.30176 0.00000 0.00000 -1.00000 -0.84527 0.44444 0.29662 0.00000 0.00000 -1.00000 -0.88841 -0.34097 0.30735 -0.00000 0.00000 -1.00000 -0.55751 -0.77445 0.29901 0.00000 0.00000 -1.00000 0.10259 -0.94525 0.30981 0.00000 -0.00000 -1.00000 0.66637 -0.67996 0.30596 0.00000 0.00000 -1.00000 0.95015 -0.05521 0.30685 0.00000 0.00000 -1.00000 0.73666 0.59794 0.31592 0.00000 0.00000 -1.00000 -0.13631 0.96474 0.22517 0.00000 0.00000 -1.00000 -0.69720 0.68577 0.20886 0.00000 0.00000 -1.00000 -0.92423 0.31470 0.21623 -0.00000 0.00000 -1.00000 -0.74355 -0.64074 0.19125 0.00000 0.00000 -1.00000 -0.43906 -0.87874 0.18721 0.00000 0.00000 -1.00000 0.19567 -0.96149 0.19302 0.00000 -0.00000 -1.00000 0.86772 -0.45340 0.20369 0.00000 0.00000 -1.00000 0.97402 -0.06597 0.21666 0.00000 0.00000 -1.00000 0.74091 0.63122 0.22938 0.00000 0.00000 -1.00000 0.23645 -0.90336 0.35782 0.00000 -0.00000 -1.00000 0.63918 -0.68362 0.35229 0.00000 0.00000 -1.00000 0.93071 0.04096 0.36346 0.00000 0.00000 -1.00000 0.77552 0.51650 0.36303 0.00000 0.00000 -1.00000 0.09411 0.92686 0.36341 0.00000 0.00000 -1.00000 -0.34700 0.86643 0.35901 0.00000 0.00000 -1.00000 -0.90195 0.23600 0.36164 -0.00000 0.00000 -1.00000 -0.89854 -0.24524 0.36399 0.00000 0.00000 -1.00000 -0.46105 -0.80849 0.36576 0.00000 0.00000 -1.00000 0.13131 -0.96415 0.23061 0.00000 -0.00000 -1.00000 0.81681 -0.53321 0.22025 0.00000 0.00000 -1.00000 0.97409 -0.06501 0.21660 0.00000 0.00000 -1.00000 0.82853 0.50708 0.23749 0.00000 0.00000 -1.00000 0.24011 0.93795 0.25019 0.00000 0.00000 -1.00000 -0.60616 0.75998 0.23454 0.00000 0.00000 -1.00000 -0.91585 0.33818 0.21646 0.00000 0.00000 -1.00000 -0.95967 -0.17017 0.22379 -0.00000 0.00000 -1.00000 -0.44744 -0.86115 0.24128 0.00000 0.00000 -1.00000 -0.03547 0.80813 0.58794 0.00000 0.00000 -1.00000 -0.56521 0.58807 0.57854 0.00000 0.00000 -1.00000 -0.81453 0.09255 0.57270 -0.00000 0.00000 -1.00000 -0.69751 -0.43898 0.56637 0.00000 0.00000 -1.00000 -0.27416 -0.76705 0.58006 0.00000 -0.00000 -1.00000 0.40563 -0.70619 0.58031 0.00000 0.00000 -1.00000 0.75845 -0.31859 0.56856 0.00000 0.00000 -1.00000 0.81371 0.10013 0.57259 0.00000 0.00000 -1.00000 0.45336 0.66975 0.58814 0.00000 0.00000 -1.00000 0.81263 0.51320 0.27615 0.00000 0.00000 -1.00000 0.28975 0.91806 0.27057 0.00000 0.00000 -1.00000 -0.31361 0.90949 0.27291 0.00000 0.00000 -1.00000 -0.82388 0.49580 0.27459 0.00000 0.00000 -1.00000 -0.93299 -0.24423 0.26434 -0.00000 0.00000 -1.00000 -0.64462 -0.71754 0.26380 0.00000 0.00000 -1.00000 -0.03052 -0.96044 0.27681 0.00000 -0.00000 -1.00000 0.57659 -0.77112 0.27005 0.00000 0.00000 -1.00000 0.90663 -0.32256 0.27198 0.00000 0.00000 -1.00000 -0.77306 -0.57613 0.26544 0.00000 0.00000 -1.00000 -0.44544 -0.85560 0.26369 0.00000 0.00000 -1.00000 0.20141 -0.93891 0.27907 0.00000 -0.00000 -1.00000 0.89752 -0.35375 0.26330 0.00000 0.00000 -1.00000 0.95678 0.15220 0.24780 0.00000 0.00000 -1.00000 0.77644 0.57466 0.25868 0.00000 0.00000 -1.00000 -0.05805 0.96283 0.26379 0.00000 0.00000 -1.00000 -0.50202 0.82283 0.26632 0.00000 0.00000 -1.00000 -0.93635 0.21770 0.27543 -0.00000 0.00000 -1.00000 -0.92668 0.16318 0.33858 -0.00000 0.00000 -1.00000 -0.83882 -0.42762 0.33693 0.00000 0.00000 -1.00000 -0.35734 -0.86080 0.36239 0.00000 0.00000 -1.00000 0.33789 -0.87174 0.35482 0.00000 -0.00000 -1.00000 0.82440 -0.45953 0.33045 0.00000 0.00000 -1.00000 0.94108 0.04959 0.33454 0.00000 0.00000 -1.00000 0.60124 0.72068 0.34515 0.00000 0.00000 -1.00000 -0.15231 0.93062 0.33279 0.00000 0.00000 -1.00000 -0.54329 0.77606 0.32025 0.00000 0.00000 -1.00000 -0.55006 0.68033 0.48434 0.00000 0.00000 -1.00000 -0.85862 0.11412 0.49975 -0.00000 0.00000 -1.00000 -0.75257 -0.43023 0.49853 0.00000 0.00000 -1.00000 -0.24658 -0.83476 0.49231 0.00000 -0.00000 -1.00000 0.31372 -0.81635 0.48492 0.00000 0.00000 -1.00000 0.78620 -0.37420 0.49180 0.00000 0.00000 -1.00000 0.84631 0.23696 0.47709 0.00000 0.00000 -1.00000 0.58062 0.65676 0.48119 0.00000 0.00000 -1.00000 -0.07212 0.87441 0.47979 0.00000 0.00000 -1.00000 0.57477 0.72392 0.38155 0.00000 0.00000 -1.00000 0.17866 0.90972 0.37482 0.00000 0.00000 -1.00000 -0.49480 0.77161 0.39973 0.00000 0.00000 -1.00000 -0.86701 0.28059 0.41177 -0.00000 0.00000 -1.00000 -0.82376 -0.39946 0.40231 0.00000 0.00000 -1.00000 -0.47050 -0.79515 0.38259 0.00000 0.00000 -1.00000 0.37651 -0.84353 0.38302 0.00000 -0.00000 -1.00000 0.62517 -0.67951 0.38396 0.00000 0.00000 -1.00000 0.91787 0.01052 0.39674 0.00000 0.00000 -1.00000 -0.82081 -0.52295 0.22978 0.00000 0.00000 -1.00000 -0.47457 -0.85128 0.22386 0.00000 0.00000 -1.00000 0.29166 -0.93029 0.22246 0.00000 -0.00000 -1.00000 0.86989 -0.43316 0.23595 0.00000 0.00000 -1.00000 0.96390 0.12884 0.23301 0.00000 0.00000 -1.00000 0.78774 0.56861 0.23696 0.00000 0.00000 -1.00000 0.01352 0.97066 0.24006 0.00000 0.00000 -1.00000 -0.51105 0.82607 0.23757 0.00000 0.00000 -1.00000 -0.91636 0.32736 0.23046 -0.00000 0.00000 -1.00000 0.92863 0.02680 0.37005 0.00000 0.00000 -1.00000 0.70703 0.60250 0.37027 0.00000 0.00000 -1.00000 0.08185 0.92191 0.37867 0.00000 0.00000 -1.00000 -0.45161 0.80712 0.38027 0.00000 0.00000 -1.00000 -0.88599 0.26031 0.38374 0.00000 0.00000 -1.00000 -0.87019 -0.32305 0.37202 -0.00000 0.00000 -1.00000 -0.45232 -0.80838 0.37673 0.00000 0.00000 -1.00000 0.12334 -0.91819 0.37646 0.00000 -0.00000 -1.00000 0.73392 -0.56737 0.37343 0.00000 0.00000 -1.00000 -0.87166 -0.33083 0.36161 -0.00000 0.00000 -1.00000 -0.59636 -0.71322 0.36833 0.00000 0.00000 -1.00000 -0.02115 -0.93473 0.35472 0.00000 -0.00000 -1.00000 0.66565 -0.66308 0.34240 0.00000 0.00000 -1.00000 0.89305 -0.28288 0.34992 0.00000 0.00000 -1.00000 0.64082 0.68659 0.34344 0.00000 0.00000 -1.00000 0.40490 0.84949 0.33827 0.00000 0.00000 -1.00000 -0.22687 0.90667 0.35563 0.00000 0.00000 -1.00000 -0.86065 0.34436 0.37510 0.00000 0.00000 -1.00000 0.80638 -0.51333 0.29368 0.00000 0.00000 -1.00000 0.92752 0.22287 0.30007 0.00000 0.00000 -1.00000 0.63682 0.71382 0.29140 0.00000 0.00000 -1.00000 0.05377 0.95464 0.29286 0.00000 0.00000 -1.00000 -0.56227 0.77102 0.29896 0.00000 0.00000 -1.00000 -0.93135 0.20692 0.29962 -0.00000 0.00000 -1.00000 -0.86997 -0.39754 0.29175 0.00000 0.00000 -1.00000 -0.28792 -0.90805 0.30421 0.00000 0.00000 -1.00000 0.26031 -0.91830 0.29828 0.00000 -0.00000 -1.00000 0.31824 0.87655 0.36107 0.00000 0.00000 -1.00000 -0.34828 0.87024 0.34840 0.00000 0.00000 -1.00000 -0.77485 0.53094 0.34308 0.00000 0.00000 -1.00000 -0.93497 -0.03124 0.35335 -0.00000 0.00000 -1.00000 -0.54076 -0.76433 0.35126 0.00000 0.00000 -1.00000 -0.10086 -0.92987 0.35378 0.00000 -0.00000 -1.00000 0.61049 -0.71226 0.34640 0.00000 0.00000 -1.00000 0.91338 -0.20644 0.35089 0.00000 0.00000 -1.00000 0.87437 0.33366 0.35235 0.00000 0.00000 -1.00000 0.23610 0.91912 0.31540 0.00000 0.00000 -1.00000 -0.44817 0.84234 0.29934 0.00000 0.00000 -1.00000 -0.74725 0.58530 0.31470 0.00000 0.00000 -1.00000 -0.88949 -0.32649 0.31971 -0.00000 0.00000 -1.00000 -0.51210 -0.80832 0.29047 0.00000 0.00000 -1.00000 -0.13989 -0.94794 0.28607 0.00000 -0.00000 -1.00000 0.59632 -0.74900 0.28880 0.00000 0.00000 -1.00000 0.95376 0.01420 0.30023 0.00000 0.00000 -1.00000 0.80718 0.50638 0.30337 0.00000 0.00000 -1.00000 -0.68149 0.65497 0.32646 0.00000 0.00000 -1.00000 -0.93800 -0.03519 0.34486 -0.00000 0.00000 -1.00000 -0.66805 -0.66804 0.32776 0.00000 0.00000 -1.00000 -0.18200 -0.92787 0.32546 0.00000 -0.00000 -1.00000 0.44193 -0.83622 0.32471 0.00000 0.00000 -1.00000 0.91351 -0.23663 0.33093 0.00000 0.00000 -1.00000 0.91697 0.21953 0.33313 0.00000 0.00000 -1.00000 0.41282 0.85012 0.32691 0.00000 0.00000 -1.00000 -0.18075 0.92886 0.32334 0.00000 0.00000 -1.00000 -0.79009 0.46493 0.39950 0.00000 0.00000 -1.00000 -0.92306 0.01441 0.38439 -0.00000 0.00000 -1.00000 -0.51978 -0.76261 0.38503 0.00000 0.00000 -1.00000 -0.22592 -0.89690 0.38017 0.00000 -0.00000 -1.00000 0.55686 -0.72812 0.39968 0.00000 0.00000 -1.00000 0.88876 -0.22514 0.39928 0.00000 0.00000 -1.00000 0.86571 0.29522 0.40422 0.00000 0.00000 -1.00000 0.28383 0.87831 0.38472 0.00000 0.00000 -1.00000 -0.12435 0.91275 0.38914 0.00000 0.00000 -1.00000 0.15491 -0.86548 0.47639 0.00000 -0.00000 -1.00000 0.74030 -0.45488 0.49501 0.00000 0.00000 -1.00000 0.84436 0.22372 0.48683 0.00000 0.00000 -1.00000 0.63145 0.60059 0.49047 0.00000 0.00000 -1.00000 0.04261 0.86442 0.50095 0.00000 0.00000 -1.00000 -0.59749 0.63205 0.49348 0.00000 0.00000 -1.00000 -0.83366 0.24587 0.49453 -0.00000 0.00000 -1.00000 -0.80093 -0.33976 0.49302 0.00000 0.00000 -1.00000 -0.24644 -0.83863 0.48576 0.00000 0.00000 -1.00000 -0.84115 -0.45016 0.29970 0.00000 0.00000 -1.00000 -0.27682 -0.91241 0.30146 0.00000 -0.00000 -1.00000 0.33522 -0.89084 0.30664 0.00000 0.00000 -1.00000 0.83592 -0.44637 0.31935 0.00000 0.00000 -1.00000 0.90795 0.26703 0.32300 0.00000 0.00000 -1.00000 0.52740 0.78955 0.31379 0.00000 0.00000 -1.00000 -0.09430 0.94830 0.30304 0.00000 0.00000 -1.00000 -0.55509 0.77332 0.30633 0.00000 0.00000 -1.00000 -0.95100 0.03453 0.30726 -0.00000 0.00000 -1.00000 0.96658 -0.04567 0.25225 0.00000 0.00000 -1.00000 0.87686 0.40442 0.25993 0.00000 0.00000 -1.00000 0.05976 0.96392 0.25940 0.00000 0.00000 -1.00000 -0.30746 0.91826 0.24953 0.00000 0.00000 -1.00000 -0.89328 0.37296 0.25091 0.00000 0.00000 -1.00000 -0.93605 -0.23975 0.25754 -0.00000 0.00000 -1.00000 -0.46112 -0.84660 0.26578 0.00000 0.00000 -1.00000 0.03251 -0.96160 0.27253 0.00000 -0.00000 -1.00000 0.72191 -0.64206 0.25808 0.00000 0.00000 -1.00000 0.83936 0.30418 0.45050 0.00000 0.00000 -1.00000 0.59939 0.65779 0.45612 0.00000 0.00000 -1.00000 -0.03307 0.87978 0.47423 0.00000 0.00000 -1.00000 -0.67668 0.57603 0.45858 0.00000 0.00000 -1.00000 -0.88048 0.14889 0.45009 -0.00000 0.00000 -1.00000 -0.74165 -0.49880 0.44851 0.00000 0.00000 -1.00000 -0.38715 -0.80491 0.44972 0.00000 -0.00000 -1.00000 0.30535 -0.83123 0.46456 0.00000 0.00000 -1.00000 0.80497 -0.37203 0.46218 0.00000 0.00000 -1.00000 0.74157 -0.57105 0.35210 0.00000 0.00000 -1.00000 0.91047 0.22718 0.34559 0.00000 0.00000 -1.00000 0.70571 0.61432 0.35295 0.00000 0.00000 -1.00000 0.02833 0.93804 0.34536 0.00000 0.00000 -1.00000 -0.48497 0.80211 0.34845 0.00000 0.00000 -1.00000 -0.87948 0.31633 0.35561 -0.00000 0.00000 -1.00000 -0.89530 -0.25821 0.36301 0.00000 0.00000 -1.00000 -0.24329 -0.90488 0.34928 0.00000 0.00000 -1.00000 0.26026 -0.90197 0.34454 0.00000 -0.00000 -1.00000 0.95710 -0.13690 0.25540 0.00000 0.00000 -1.00000 0.75884 0.59181 0.27188 0.00000 0.00000 -1.00000 0.06523 0.96100 0.26875 0.00000 0.00000 -1.00000 -0.47908 0.84164 0.24925 0.00000 0.00000 -1.00000 -0.87305 0.42004 0.24771 0.00000 0.00000 -1.00000 -0.94855 -0.17697 0.26256 -0.00000 0.00000 -1.00000 -0.50124 -0.82073 0.27416 0.00000 0.00000 -1.00000 0.18127 -0.94718 0.26454 0.00000 -0.00000 -1.00000 0.75563 -0.59972 0.26337 0.00000 0.00000 -1.00000 -0.70192 0.62436 0.34277 0.00000 0.00000 -1.00000 -0.93783 0.09638 0.33344 -0.00000 0.00000 -1.00000 -0.73912 -0.58168 0.33964 0.00000 0.00000 -1.00000 -0.31065 -0.88822 0.33847 0.00000 -0.00000 -1.00000 0.40780 -0.84488 0.34623 0.00000 0.00000 -1.00000 0.88397 -0.32371 0.33736 0.00000 0.00000 -1.00000 0.88938 0.31398 0.33228 0.00000 0.00000 -1.00000 0.59206 0.73230 0.33644 0.00000 0.00000 -1.00000 -0.11489 0.93270 0.34186 0.00000 0.00000 -1.00000 -0.22855 0.91133 0.34240 0.00000 0.00000 -1.00000 -0.69375 0.62607 0.35602 0.00000 0.00000 -1.00000 -0.93119 -0.05696 0.36007 -0.00000 0.00000 -1.00000 -0.66894 -0.66010 0.34175 0.00000 0.00000 -1.00000 -0.09995 -0.93639 0.33643 0.00000 -0.00000 -1.00000 0.41579 -0.83873 0.35164 0.00000 0.00000 -1.00000 0.89600 -0.25316 0.36483 0.00000 0.00000 -1.00000 0.83567 0.41334 0.36168 0.00000 0.00000 -1.00000 0.39493 0.84477 0.36110 0.00000 0.00000 -1.00000 0.58402 0.71591 0.38261 0.00000 0.00000 -1.00000 -0.14806 0.90701 0.39423 0.00000 0.00000 -1.00000 -0.71280 0.57718 0.39847 0.00000 0.00000 -1.00000 -0.92446 -0.04624 0.37847 -0.00000 0.00000 -1.00000 -0.72809 -0.57413 0.37452 0.00000 0.00000 -1.00000 -0.23011 -0.89977 0.37077 0.00000 -0.00000 -1.00000 0.46684 -0.80420 0.36785 0.00000 0.00000 -1.00000 0.83322 -0.40156 0.38013 0.00000 0.00000 -1.00000 0.85082 0.36579 0.37723 0.00000 0.00000 -1.00000 0.77616 -0.57376 0.26149 0.00000 0.00000 -1.00000 0.92727 0.24084 0.28664 0.00000 0.00000 -1.00000 0.56453 0.78190 0.26445 0.00000 0.00000 -1.00000 0.04123 0.96547 0.25723 0.00000 0.00000 -1.00000 -0.47824 0.83418 0.27465 0.00000 0.00000 -1.00000 -0.96621 -0.03349 0.25557 -0.00000 0.00000 -1.00000 -0.84787 -0.46983 0.24572 0.00000 0.00000 -1.00000 -0.45536 -0.85483 0.24880 0.00000 0.00000 -1.00000 0.23123 -0.93858 0.25614 0.00000 -0.00000 -1.00000 0.89481 -0.30967 0.32160 0.00000 0.00000 -1.00000 0.85486 0.40760 0.32106 0.00000 0.00000 -1.00000 0.33169 0.89182 0.30763 0.00000 0.00000 -1.00000 -0.21613 0.92828 0.30262 0.00000 0.00000 -1.00000 -0.78526 0.53250 0.31594 0.00000 0.00000 -1.00000 -0.93920 -0.09397 0.33025 -0.00000 0.00000 -1.00000 -0.56221 -0.76455 0.31525 0.00000 0.00000 -1.00000 -0.11260 -0.94330 0.31225 0.00000 -0.00000 -1.00000 0.57218 -0.76060 0.30677 0.00000 0.00000 -1.00000 -0.91322 -0.36599 0.17913 -0.00000 0.00000 -1.00000 -0.61073 -0.77249 0.17397 0.00000 0.00000 -1.00000 -0.11415 -0.97789 0.17524 0.00000 -0.00000 -1.00000 0.60980 -0.77322 0.17399 0.00000 0.00000 -1.00000 0.98058 -0.09944 0.16903 0.00000 0.00000 -1.00000 0.92167 0.34599 0.17555 0.00000 0.00000 -1.00000 0.32794 0.92569 0.18857 0.00000 0.00000 -1.00000 -0.47898 0.86228 0.16449 0.00000 0.00000 -1.00000 -0.73294 0.66012 0.16447 0.00000 0.00000 -1.00000 0.94199 0.16954 0.28968 0.00000 0.00000 -1.00000 0.78807 0.53442 0.30552 0.00000 0.00000 -1.00000 -0.04480 0.95251 0.30119 0.00000 0.00000 -1.00000 -0.52836 0.79601 0.29531 0.00000 0.00000 -1.00000 -0.89629 0.30756 0.31950 -0.00000 0.00000 -1.00000 -0.78493 -0.53723 0.30865 0.00000 0.00000 -1.00000 -0.49986 -0.80430 0.32131 0.00000 0.00000 -1.00000 0.26639 -0.90888 0.32091 0.00000 -0.00000 -1.00000 0.81745 -0.48438 0.31168 0.00000 0.00000 -1.00000 -0.16769 -0.80883 0.56363 0.00000 -0.00000 -1.00000 0.33992 -0.75908 0.55521 0.00000 0.00000 -1.00000 0.74898 -0.36816 0.55090 0.00000 0.00000 -1.00000 0.79608 0.23332 0.55841 0.00000 0.00000 -1.00000 0.46585 0.68963 0.55443 0.00000 0.00000 -1.00000 -0.12839 0.82087 0.55650 0.00000 0.00000 -1.00000 -0.56091 0.60395 0.56624 0.00000 0.00000 -1.00000 -0.81627 0.05462 0.57508 -0.00000 0.00000 -1.00000 -0.66901 -0.47022 0.57560 0.00000 0.00000 -1.00000 0.88746 -0.33468 0.31685 0.00000 0.00000 -1.00000 0.89680 0.31044 0.31526 0.00000 0.00000 -1.00000 0.55612 0.77086 0.31066 0.00000 0.00000 -1.00000 -0.02295 0.95029 0.31052 0.00000 0.00000 -1.00000 -0.64977 0.69099 0.31674 0.00000 0.00000 -1.00000 -0.93742 0.12979 0.32311 -0.00000 0.00000 -1.00000 -0.65924 -0.69155 0.29523 0.00000 0.00000 -1.00000 -0.36516 -0.88436 0.29081 0.00000 -0.00000 -1.00000 0.38561 -0.86602 0.31829 0.00000 0.00000 -1.00000 0.90011 0.34216 0.26967 0.00000 0.00000 -1.00000 0.15283 0.95172 0.26622 0.00000 0.00000 -1.00000 -0.32032 0.91347 0.25094 0.00000 0.00000 -1.00000 -0.84107 0.48153 0.24642 0.00000 0.00000 -1.00000 -0.96173 -0.05320 0.26878 -0.00000 0.00000 -1.00000 -0.48026 -0.83721 0.26159 0.00000 0.00000 -1.00000 -0.00307 -0.96782 0.25162 0.00000 -0.00000 -1.00000 0.60158 -0.75419 0.26323 0.00000 0.00000 -1.00000 0.96128 -0.09114 0.26007 0.00000 0.00000 -1.00000 0.21791 0.90061 0.37605 0.00000 0.00000 -1.00000 -0.54361 0.75906 0.35822 0.00000 0.00000 -1.00000 -0.79932 0.49064 0.34693 0.00000 0.00000 -1.00000 -0.87760 -0.30570 0.36928 -0.00000 0.00000 -1.00000 -0.47131 -0.80681 0.35626 0.00000 0.00000 -1.00000 -0.07357 -0.93359 0.35072 0.00000 -0.00000 -1.00000 0.73153 -0.57360 0.36857 0.00000 0.00000 -1.00000 0.93604 -0.05060 0.34823 0.00000 0.00000 -1.00000 0.72637 0.58481 0.36108 0.00000 0.00000 -1.00000 0.61718 -0.66959 0.41321 0.00000 0.00000 -1.00000 0.89726 0.09288 0.43163 0.00000 0.00000 -1.00000 0.66802 0.61768 0.41500 0.00000 0.00000 -1.00000 0.00769 0.91833 0.39573 0.00000 0.00000 -1.00000 -0.47148 0.78104 0.40949 0.00000 0.00000 -1.00000 -0.86091 0.26512 0.43421 -0.00000 0.00000 -1.00000 -0.76196 -0.49418 0.41857 0.00000 0.00000 -1.00000 -0.37231 -0.83727 0.40046 0.00000 0.00000 -1.00000 0.32463 -0.85331 0.40802 0.00000 -0.00000 -1.00000 0.07593 0.96774 0.24026 0.00000 0.00000 -1.00000 -0.48460 0.83584 0.25795 0.00000 0.00000 -1.00000 -0.91427 0.29488 0.27777 0.00000 0.00000 -1.00000 -0.87041 -0.41626 0.26291 -0.00000 0.00000 -1.00000 -0.50721 -0.82356 0.25393 0.00000 0.00000 -1.00000 0.19676 -0.94656 0.25556 0.00000 -0.00000 -1.00000 0.82085 -0.51179 0.25354 0.00000 0.00000 -1.00000 0.95832 0.12434 0.25721 0.00000 0.00000 -1.00000 0.59919 0.76217 0.24510 0.00000 0.00000 -1.00000 0.41772 0.84045 0.34518 0.00000 0.00000 -1.00000 -0.03532 0.93038 0.36490 0.00000 0.00000 -1.00000 -0.85033 0.39054 0.35272 0.00000 0.00000 -1.00000 -0.91142 0.22053 0.34739 -0.00000 0.00000 -1.00000 -0.70222 -0.60100 0.38168 0.00000 0.00000 -1.00000 -0.06061 -0.93109 0.35972 0.00000 -0.00000 -1.00000 0.41763 -0.83386 0.36093 0.00000 0.00000 -1.00000 0.85300 -0.36261 0.37538 0.00000 0.00000 -1.00000 0.85884 0.37505 0.34890 0.00000 0.00000 -1.00000 -0.32490 -0.87292 0.36393 0.00000 -0.00000 -1.00000 0.48998 -0.79827 0.35025 0.00000 0.00000 -1.00000 0.86713 -0.36095 0.34321 0.00000 0.00000 -1.00000 0.92340 0.15803 0.34979 0.00000 0.00000 -1.00000 0.47803 0.79934 0.36407 0.00000 0.00000 -1.00000 -0.16662 0.92255 0.34805 0.00000 0.00000 -1.00000 -0.64495 0.67759 0.35343 0.00000 0.00000 -1.00000 -0.94226 -0.04209 0.33223 -0.00000 0.00000 -1.00000 -0.85181 -0.40154 0.33643 0.00000 0.00000 -1.00000 -0.39083 0.86989 0.30091 0.00000 0.00000 -1.00000 -0.95861 0.07977 0.27331 -0.00000 0.00000 -1.00000 -0.92446 -0.26978 0.26944 0.00000 0.00000 -1.00000 -0.45188 -0.84605 0.28287 0.00000 0.00000 -1.00000 0.03897 -0.95794 0.28430 0.00000 -0.00000 -1.00000 0.78458 -0.55335 0.27971 0.00000 0.00000 -1.00000 0.95730 -0.05466 0.28389 0.00000 0.00000 -1.00000 0.66605 0.68699 0.29053 0.00000 0.00000 -1.00000 0.14409 0.95004 0.27689 0.00000 0.00000 -1.00000 -0.93134 -0.18936 0.31104 -0.00000 0.00000 -1.00000 -0.59711 -0.73606 0.31888 0.00000 0.00000 -1.00000 0.09193 -0.94142 0.32447 0.00000 -0.00000 -1.00000 0.63147 -0.70221 0.32886 0.00000 0.00000 -1.00000 0.94821 -0.03145 0.31609 0.00000 0.00000 -1.00000 0.83497 0.44917 0.31791 0.00000 0.00000 -1.00000 0.23316 0.91919 0.31738 0.00000 0.00000 -1.00000 -0.22123 0.92347 0.31345 0.00000 0.00000 -1.00000 -0.80195 0.50205 0.32376 0.00000 0.00000 -1.00000 0.57491 -0.75114 0.32445 0.00000 0.00000 -1.00000 0.91232 -0.26226 0.31448 0.00000 0.00000 -1.00000 0.85691 0.40124 0.32360 0.00000 0.00000 -1.00000 0.36596 0.87557 0.31536 0.00000 0.00000 -1.00000 -0.16819 0.93186 0.32148 0.00000 0.00000 -1.00000 -0.81671 0.47817 0.32303 0.00000 0.00000 -1.00000 -0.94671 -0.02649 0.32098 -0.00000 0.00000 -1.00000 -0.57432 -0.75270 0.32187 0.00000 0.00000 -1.00000 -0.19015 -0.92841 0.31922 0.00000 -0.00000 -1.00000 0.51120 0.76952 0.38277 0.00000 0.00000 -1.00000 -0.21676 0.89430 0.39146 0.00000 0.00000 -1.00000 -0.74009 0.54773 0.39020 0.00000 0.00000 -1.00000 -0.91768 0.00261 0.39732 -0.00000 0.00000 -1.00000 -0.78270 -0.47833 0.39823 0.00000 0.00000 -1.00000 -0.20353 -0.88901 0.41017 0.00000 -0.00000 -1.00000 0.56624 -0.73092 0.38095 0.00000 0.00000 -1.00000 0.86356 -0.34368 0.36898 0.00000 0.00000 -1.00000 0.85796 0.35812 0.36832 0.00000 0.00000 -1.00000 0.70762 0.57427 0.41168 0.00000 0.00000 -1.00000 0.07540 0.91269 0.40164 0.00000 0.00000 -1.00000 -0.46881 0.78946 0.39619 0.00000 0.00000 -1.00000 -0.86716 0.27849 0.41289 -0.00000 0.00000 -1.00000 -0.81218 -0.40925 0.41577 0.00000 0.00000 -1.00000 -0.35714 -0.84354 0.40112 0.00000 0.00000 -1.00000 0.07829 -0.90776 0.41213 0.00000 -0.00000 -1.00000 0.71591 -0.54821 0.43236 0.00000 0.00000 -1.00000 0.90327 0.11396 0.41367 0.00000 0.00000 -1.00000 -0.43866 -0.81321 0.38244 0.00000 0.00000 -1.00000 0.22725 -0.90031 0.37122 0.00000 -0.00000 -1.00000 0.69282 -0.61831 0.37107 0.00000 0.00000 -1.00000 0.92560 -0.03231 0.37712 0.00000 0.00000 -1.00000 0.65545 0.65113 0.38265 0.00000 0.00000 -1.00000 0.18454 0.90988 0.37156 0.00000 0.00000 -1.00000 -0.47459 0.79507 0.37767 0.00000 0.00000 -1.00000 -0.88873 0.25995 0.37761 -0.00000 0.00000 -1.00000 -0.86040 -0.34733 0.37292 0.00000 0.00000 -1.00000</float_array><technique_common><accessor source="#normals-array" count="1080" stride="3"><param name="X" type="float"/><param name="Y" type="float"/><param name="Z" type="float"/></accessor></technique_common></source>
<vertices id="vertices"><input semantic="POSITION" source="#positions"/></vertices><triangles count="1080"><input semantic="VERTEX" source="#vertices" offset="0"/><input semantic="NORMAL" source="#normals" offset="1"/><p>0 0 1 0 9 0 10 1 1 1 0 1 1 2 2 2 9 2 10 3 2 3 1 3 2 4 3 4 9 4 10 5 3 5 2 5 3 6 4 6 9 6 10 7 4 7 3 7 4 8 5 8 9 8 10 9 5 9 4 9 5 10 6 10 9 10 10 11 6 11 5 11 6 12 7 12 9 12 10 13 7 13 6 13 7 14 8 14 9 14 10 15 8 15 7 15 8 16 0 16 9 16 10 17 0 17 8 17 11 18 12 18 20 18 21 19 12 19 11 19 12 20 13 20 20 20 21 21 13 21 12 21 13 22 14 22 20 22 21 23 14 23 13 23 14 24 15 24 20 24 21 25 15 25 14 25 15 26 16 26 20 26 21 27 16 27 15 27 16 28 17 28 20 28 21 29 17 29 16 29 17 30 18 30 20 30 21 31 18 31 17 31 18 32 19 32 20 32 21 33 19 33 18 33 19 34 11 34 20 34 21 35 11 35 19 35 22 36 23 36 31 36 32 37 23 37 22 37 23 38 24 38 31 38 32 39 24 39 23 39 24 40 25 40 31 40 32 41 25 41 24 41 25 42 26 42 31 42 32 43 26 43 25 43 26 44 27 44 31 44 32 45 27 45 26 45 27 46 28 46 31 46 32 47 28 47 27 47 28 48 29 48 31 48 32 49 29 49 28 49 29 50 30 50 31 50 32 51 30 51 29 51 30 52 22 52 31 52 32 53 22 53 30 53 33 54 34 54 42 54 43 55 34 55 33 55 34 56 35 56 42 56 43 57 35 57 34 57 35 58 36 58 42 58 43 59 36 59 35 59 36 60 37 60 42 60 43 61 37 61 36 61 37 62 38 62 42 62 43 63 38 63 37 63 38 64 39 64 42 64 43 65 39 65 38 65 39 66 40 66 42 66 43 67 40 67 39 67 40 68 41 68 42 68 43 69 41 69 40 69 41 70 33 70 42 70 43 71 33 71 41 71 44 72 45 72 53 72 54 73 45 73 44 73 45 74 46 74 53 74 54 75 46 75 45 75 46 76 47 76 53 76 54 77 47 77 46 77 47 78 48 78 53 78 54 79 48 79 47 79 48 80 49 80 53 80 54 81 49 81 48 81 49 82 50 82 53 82 54 83 50 83 49 83 50 84 51 84 53 84 54 85 51 85 50 85 51 86 52 86 53 86 54 87 52 87 51 87 52 88 44 88 53 88 54 89 44 89 52 89 55 90 56 90 64 90 65 91 56 91 55 91 56 92 57 92 64 92 65 93 57 93 56 93 57 94 58 94 64 94 65 95 58 95 57 95 58 96 59 96 64 96 65 97 59 97 58 97 59 98 60 98 64 98 65 99 60 99 59 99 60 100 61 100 64 100 65 101 61 101 60 101 61 102 62 102 64 102 65 103 62 103 61 103 62 104 63 104 64 104 65 105 63 105 62 105 63 106 55 106 64 106 65 107 55 107 63 107 66 108 67 108 75 108 76 109 67 109 66 109 67 110 68 110 75 110 76 111 68 111 67 111 68 112 69 112 75 112 76 113 69 113 68 113 69 114 70 114 75 114 76 115 70 115 69 115 70 116 71 116 75 116 76 117 71 117 70 117 71 118 72 118 75 118 76 119 72 119 71 119 72 120 73 120 75 120 76 121 73 121 72 121 73 122 74 122 75 122 76 123 74 123 73 123 74 124 66 124 75 124 76 125 66 125 74 125 77 126 78 126 86 126 87 127 78 127 77 127 78 128 79 128 86 128 87 129 79 129 78 129 79 130 80 130 86 130 87 131 80 131 79 131 80 132 81 132 86 132 87 133 81 133 80 133 81 134 82 134 86 134 87 135 82 135 81 135 82 136 83 136 86 136 87 137 83 137 82 137 83 138 84 138 86 138 87 139 84 139 83 139 84 140 85 140 86 140 87 141 85 141 84 141 85 142 77 142 86 142 87 143 77 143 85 143 88 144 89 144 97 144 98 145 89 145 88 145 89 146 90 146 97 146 98 147 90 147 89 147 90 148 91 148 97 148 98 149 91 149 90 149 91 150 92 150 97 150 98 151 92 151 91 151 92 152 93 152 97 152 98 153 93 153 92 153 93 154 94 154 97 154 98 155 94 155 93 155 94 156 95 156 97 156 98 157 95 157 94 157 95 158 96 158 97 158 98 159 96 159 95 159 96 160 88 160 97 160 98 161 88 161 96 161 99 162 100 162 108 162 109 163 100 163 99 163 100 164 101 164 108 164 109 165 101 165 100 165 101 166 102 166 108 166 109 167 102 167 101 167 102 168 103 168 108 168 109 169 103 169 102 169 103 170 104 170 108 170 109 171 104 171 103 171 104 172 105 172 108 172 109 173 105 173 104 173 105 174 106 174 108 174 109 175 106 175 105 175 106 176 107 176 108 176 109 177 107 177 106 177 107 178 99 178 108 178 109 179 99 179 107 179 110 180 111 180 119 180 120 181 111 181 110 181 111 182 112 182 119 182 120 183 112 183 111 183 112 184 113 184 119 184 120 185 113 185 112 185 113 186 114 186 119 186 120 187 114 187 113 187 114 188 115 188 119 188 120 189 115 189 114 189 115 190 116 190 119 190 120 191 116 191 115 191 116 192 117 192 119 192 120 193 117 193 116 193 117 194 118 194 119 194 120 195 118 195 117 195 118 196 110 196 119 196 120 197 110 197 118 197 121 198 122 198 130 198 131 199 122 199 121 199 122 200 123 200 130 200 131 201 123 201 122 201 123 202 124 202 130 202 131 203 124 203 123 203 124 204 125 204 130 204 131 205 125 205 124 205 125 206 126 206 130 206 131 207 126 207 125 207 126 208 127 208 130 208 131 209 127 209 126 209 127 210 128 210 130 210 131 211 128 211 127 211 128 212 129 212 130 212 131 213 129 213 128 213 129 214 121 214 130 214 131 215 121 215 129 215 132 216 133 216 141 216 142 217 133 217 132 217 133 218 134 218 141 218 142 219 134 219 133 219 134 220 135 220 141 220 142 221 135 221 134 221 135 222 136 222 141 222 142 223 136 223 135 223 136 224 137 224 141 224 142 225 137 225 136 225 137 226 138 226 141 226 142 227 138 227 137 227 138 228 139 228 141 228 142 229 139 229 138 229 139 230 140 230 141 230 142 231 140 231 139 231 140 232 132 232 141 232 142 233 132 233 140 233 143 234 144 234 152 234 153 235 144 235 143 235 144 236 145 236 152 236 153 237 145 237 144 237 145 238 146 238 152 238 153 239 146 239 145 239 146 240 147 240 152 240 153 241 147 241 146 241 147 242 148 242 152 242 153 243 148 243 147 243 148 244 149 244 152 244 153 245 149 245 148 245 149 246 150 246 152 246 153 247 150 247 149 247 150 248 151 248 152 248 153 249 151 249 150 249 151 250 143 250 152 250 153 251 143 251 151 251 154 252 155 252 163 252 164 253 155 253 154 253 155 254 156 254 163 254 164 255 156 255 155 255 156 256 157 256 163 256 164 257 157 257 156 257 157 258 158 258 163 258 164 259 158 259 157 259 158 260 159 260 163 260 164 261 159 261 158 261 159 262 160 262 163 262 164 263 160 263 159 263 160 264 161 264 163 264 164 265 161 265 160 265 161 266 162 266 163 266 164 267 162 267 161 267 162 268 154 268 163 268 164 269 154 269 162 269 165 270 166 270 174 270 175 271 166 271 165 271 166 272 167 272 174 272 175 273 167 273 166 273 167 274 168 274 174 274 175 275 168 275 167 275 168 276 169 276 174 276 175 277 169 277 168 277 169 278 170 278 174 278 175 279 170 279 169 279 170 280 171 280 174 280 175 281 171 281 170 281 171 282 172 282 174 282 175 283 172 283 171 283 172 284 173 284 174 284 175 285 173 285 172 285 173 286 165 286 174 286 175 287 165 287 173 287 176 288 177 288 185 288 186 289 177 289 176 289 177 290 178 290 185 290 186 291 178 291 177 291 178 292 179 292 185 292 186 293 179 293 178 293 179 294 180 294 185 294 186 295 180 295 179 295 180 296 181 296 185 296 186 297 181 297 180 297 181 298 182 298 185 298 186 299 182 299 181 299 182 300 183 300 185 300 186 301 183 301 182 301 183 302 184 302 185 302 186 303 184 303 183 303 184 304 176 304 185 304 186 305 176 305 184 305 187 306 188 306 196 306 197 307 188 307 187 307 188 308 189 308 196 308 197 309 189 309 188 309 189 310 190 310 196 310 197 311 190 311 189 311 190 312 191 312 196 312 197 313 191 313 190 313 191 314 192 314 196 314 197 315 192 315 191 315 192 316 193 316 196 316 197 317 193 317 192 317 193 318 194 318 196 318 197 319 194 319 193 319 194 320 195 320 196 320 197 321 195 321 194 321 195 322 187 322 196 322 197 323 187 323 195 323 198 324 199 324 207 324 208 325 199 325 198 325 199 326 200 326 207 326 208 327 200 327 199 327 200 328 201 328 207 328 208 329 201 329 200 329 201 330 202 330 207 330 208 331 202 331 201 331 202 332 203 332 207 332 208 333 203 333 202 333 203 334 204 334 207 334 208 335 204 335 203 335 204 336 205 336 207 336 208 337 205 337 204 337 205 338 206 338 207 338 208 339 206 339 205 339 206 340 198 340 207 340 208 341 198 341 206 341 209 342 210 342 218 342 219 343 210 343 209 343 210 344 211 344 218 344 219 345 211 345 210 345 211 346 212 346 218 346 219 347 212 347 211 347 212 348 213 348 218 348 219 349 213 349 212 349 213 350 214 350 218 350 219 351 214 351 213 351 214 352 215 352 218 352 219 353 215 353 214 353 215 354 216 354 218 354 219 355 216 355 215 355 216 356 217 356 218 356 219 357 217 357 216 357 217 358 209 358 218 358 219 359 209 359 217 359 220 360 221 360 229 360 230 361 221 361 220 361 221 362 222 362 229 362 230 363 222 363 221 363 222 364 223 364 229 364 230 365 223 365 222 365 223 366 224 366 229 366 230 367 224 367 223 367 224 368 225 368 229 368 230 369 225 369 224 369 225 370 226 370 229 370 230 371 226 371 225 371 226 372 227 372 229 372 230 373 227 373 226 373 227 374 228 374 229 374 230 375 228 375 227 375 228 376 220 376 229 376 230 377 220 377 228 377 231 378 232 378 240 378 241 379 232 379 231 379 232 380 233 380 240 380 241 381 233 381 232 381 233 382 234 382 240 382 241 383 234 383 233 383 234 384 235 384 240 384 241 385 235 385 234 385 235 386 236 386 240 386 241 387 236 387 235 387 236 388 237 388 240 388 241 389 237 389 236 389 237 390 238 390 240 390 241 391 238 391 237 391 238 392 239 392 240 392 241 393 239 393 238 393 239 394 231 394 240 394 241 395 231 395 239 395 242 396 243 396 251 396 252 397 243 397 242 397 243 398 244 398 251 398 252 399 244 399 243 399 244 400 245 400 251 400 252 401 245 401 244 401 245 402 246 402 251 402 252 403 246 403 245 403 246 404 247 404 251 404 252 405 247 405 246 405 247 406 248 406 251 406 252 407 248 407 247 407 248 408 249 408 251 408 252 409 249 409 248 409 249 410 250 410 251 410 252 411 250 411 249 411 250 412 242 412 251 412 252 413 242 413 250 413 253 414 254 414 262 414 263 415 254 415 253 415 254 416 255 416 262 416 263 417 255 417 254 417 255 418 256 418 262 418 263 419 256 419 255 419 256 420 257 420 262 420 263 421 257 421 256 421 257 422 258 422 262 422 263 423 258 423 257 423 258 424 259 424 262 424 263 425 259 425 258 425 259 426 260 426 262 426 263 427 260 427 259 427 260 428 261 428 262 428 263 429 261 429 260 429 261 430 253 430 262 430 263 431 253 431 261 431 264 432 265 432 273 432 274 433 265 433 264 433 265 434 266 434 273 434 274 435 266 435 265 435 266 436 267 436 273 436 274 437 267 437 266 437 267 438 268 438 273 438 274 439 268 439 267 439 268 440 269 440 273 440 274 441 269 441 268 441 269 442 270 442 273 442 274 443 270 443 269 443 270 444 271 444 273 444 274 445 271 445 270 445 271 446 272 446 273 446 274 447 272 447 271 447 272 448 264 448 273 448 274 449 264 449 272 449 275 450 276 450 284 450 285 451 276 451 275 451 276 452 277 452 284 452 285 453 277 453 276 453 277 454 278 454 284 454 285 455 278 455 277 455 278 456 279 456 284 456 285 457 279 457 278 457 279 458 280 458 284 458 285 459 280 459 279 459 280 460 281 460 284 460 285 461 281 461 280 461 281 462 282 462 284 462 285 463 282 463 281 463 282 464 283 464 284 464 285 465 283 465 282 465 283 466 275 466 284 466 285 467 275 467 283 467 286 468 287 468 295 468 296 469 287 469 286 469 287 470 288 470 295 470 296 471 288 471 287 471 288 472 289 472 295 472 296 473 289 473 288 473 289 474 290 474 295 474 296 475 290 475 289 475 290 476 291 476 295 476 296 477 291 477 290 477 291 478 292 478 295 478 296 479 292 479 291 479 292 480 293 480 295 480 296 481 293 481 292 481 293 482 294 482 295 482 296 483 294 483 293 483 294 484 286 484 295 484 296 485 286 485 294 485 297 486 298 486 306 486 307 487 298 487 297 487 298 488 299 488 306 488 307 489 299 489 298 489 299 490 300 490 306 490 307 491 300 491 299 491 300 492 301 492 306 492 307 493 301 493 300 493 301 494 302 494 306 494 307 495 302 495 301 495 302 496 303 496 306 496 307 497 303 497 302 497 303 498 304 498 306 498 307 499 304 499 303 499 304 500 305 500 306 500 307 501 305 501 304 501 305 502 297 502 306 502 307 503 297 503 305 503 308 504 309 504 317 504 318 505 309 505 308 505 309 506 310 506 317 506 318 507 310 507 309 507 310 508 311 508 317 508 318 509 311 509 310 509 311 510 312 510 317 510 318 511 312 511 311 511 312 512 313 512 317 512 318 513 313 513 312 513 313 514 314 514 317 514 318 515 314 515 313 515 314 516 315 516 317 516 318 517 315 517 314 517 315 518 316 518 317 518 318 519 316 519 315 519 316 520 308 520 317 520 318 521 308 521 316 521 319 522 320 522 328 522 329 523 320 523 319 523 320 524 321 524 328 524 329 525 321 525 320 525 321 526 322 526 328 526 329 527 322 527 321 527 322 528 323 528 328 528 329 529 323 529 322 529 323 530 324 530 328 530 329 531 324 531 323 531 324 532 325 532 328 532 329 533 325 533 324 533 325 534 326 534 328 534 329 535 326 535 325 535 326 536 327 536 328 536 329 537 327 537 326 537 327 538 319 538 328 538 329 539 319 539 327 539 330 540 331 540 339 540 340 541 331 541 330 541 331 542 332 542 339 542 340 543 332 543 331 543 332 544 333 544 339 544 340 545 333 545 332 545 333 546 334 546 339 546 340 547 334 547 333 547 334 548 335 548 339 548 340 549 335 549 334 549 335 550 336 550 339 550 340 551 336 551 335 551 336 552 337 552 339 552 340 553 337 553 336 553 337 554 338 554 339 554 340 555 338 555 337 555 338 556 330 556 339 556 340 557 330 557 338 557 341 558 342 558 350 558 351 559 342 559 341 559 342 560 343 560 350 560 351 561 343 561 342 561 343 562 344 562 350 562 351 563 344 563 343 563 344 564 345 564 350 564 351 565 345 565 344 565 345 566 346 566 350 566 351 567 346 567 345 567 346 568 347 568 350 568 351 569 347 569 346 569 347 570 348 570 350 570 351 571 348 571 347 571 348 572 349 572 350 572 351 573 349 573 348 573 349 574 341 574 350 574 351 575 341 575 349 575 352 576 353 576 361 576 362 577 353 577 352 577 353 578 354 578 361 578 362 579 354 579 353 579 354 580 355 580 361 580 362 581 355 581 354 581 355 582 356 582 361 582 362 583 356 583 355 583 356 584 357 584 361 584 362 585 357 585 356 585 357 586 358 586 361 586 362 587 358 587 357 587 358 588 359 588 361 588 362 589 359 589 358 589 359 590 360 590 361 590 362 591 360 591 359 591 360 592 352 592 361 592 362 593 352 593 360 593 363 594 364 594 372 594 373 595 364 595 363 595 364 596 365 596 372 596 373 597 365 597 364 597 365 598 366 598 372 598 373 599 366 599 365 599 366 600 367 600 372 600 373 601 367 601 366 601 367 602 368 602 372 602 373 603 368 603 367 603 368 604 369 604 372 604 373 605 369 605 368 605 369 606 370 606 372 606 373 607 370 607 369 607 370 608 371 608 372 608 373 609 371 609 370 609 371 610 363 610 372 610 373 611 363 611 371 611 374 612 375 612 383 612 384 613 375 613 374 613 375 614 376 614 383 614 384 615 376 615 375 615 376 616 377 616 383 616 384 617 377 617 376 617 377 618 378 618 383 618 384 619 378 619 377 619 378 620 379 620 383 620 384 621 379 621 378 621 379 622 380 622 383 622 384 623 380 623 379 623 380 624 381 624 383 624 384 625 381 625 380 625 381 626 382 626 383 626 384 627 382 627 381 627 382 628 374 628 383 628 384 629 374 629 382 629 385 630 386 630 394 630 395 631 386 631 385 631 386 632 387 632 394 632 395 633 387 633 386 633 387 634 388 634 394 634 395 635 388 635 387 635 388 636 389 636 394 636 395 637 389 637 388 637 389 638 390 638 394 638 395 639 390 639 389 639 390 640 391 640 394 640 395 641 391 641 390 641 391 642 392 642 394 642 395 643 392 643 391 643 392 644 393 644 394 644 395 645 393 645 392 645 393 646 385 646 394 646 395 647 385 647 393 647 396 648 397 648 405 648 406 649 397 649 396 649 397 650 398 650 405 650 406 651 398 651 397 651 398 652 399 652 405 652 406 653 399 653 398 653 399 654 400 654 405 654 406 655 400 655 399 655 400 656 401 656 405 656 406 657 401 657 400 657 401 658 402 658 405 658 406 659 402 659 401 659 402 660 403 660 405 660 406 661 403 661 402 661 403 662 404 662 405 662 406 663 404 663 403 663 404 664 396 664 405 664 406 665 396 665 404 665 407 666 408 666 416 666 417 667 408 667 407 667 408 668 409 668 416 668 417 669 409 669 408 669 409 670 410 670 416 670 417 671 410 671 409 671 410 672 411 672 416 672 417 673 411 673 410 673 411 674 412 674 416 674 417 675 412 675 411 675 412 676 413 676 416 676 417 677 413 677 412 677 413 678 414 678 416 678 417 679 414 679 413 679 414 680 415 680 416 680 417 681 415 681 414 681 415 682 407 682 416 682 417 683 407 683 415 683 418 684 419 684 427 684 428 685 419 685 418 685 419 686 420 686 427 686 428 687 420 687 419 687 420 688 421 688 427 688 428 689 421 689 420 689 421 690 422 690 427 690 428 691 422 691 421 691 422 692 423 692 427 692 428 693 423 693 422 693 423 694 424 694 427 694 428 695 424 695 423 695 424 696 425 696 427 696 428 697 425 697 424 697 425 698 426 698 427 698 428 699 426 699 425 699 426 700 418 700 427 700 428 701 418 701 426 701 429 702 430 702 438 702 439 703 430 703 429 703 430 704 431 704 438 704 439 705 431 705 430 705 431 706 432 706 438 706 439 707 432 707 431 707 432 708 433 708 438 708 439 709 433 709 432 709 433 710 434 710 438 710 439 711 434 711 433 711 434 712 435 712 438 712 439 713 435 713 434 713 435 714 436 714 438 714 439 715 436 715 435 715 436 716 437 716 438 716 439 717 437 717 436 717 437 718 429 718 438 718 439 719 429 719 437 719 440 720 441 720 449 720 450 721 441 721 440 721 441 722 442 722 449 722 450 723 442 723 441 723 442 724 443 724 449 724 450 725 443 725 442 725 443 726 444 726 449 726 450 727 444 727 443 727 444 728 445 728 449 728 450 729 445 729 444 729 445 730 446 730 449 730 450 731 446 731 445 731 446 732 447 732 449 732 450 733 447 733 446 733 447 734 448 734 449 734 450 735 448 735 447 735 448 736 440 736 449 736 450 737 440 737 448 737 451 738 452 738 460 738 461 739 452 739 451 739 452 740 453 740 460 740 461 741 453 741 452 741 453 742 454 742 460 742 461 743 454 743 453 743 454 744 455 744 460 744 461 745 455 745 454 745 455 746 456 746 460 746 461 747 456 747 455 747 456 748 457 748 460 748 461 749 457 749 456 749 457 750 458 750 460 750 461 751 458 751 457 751 458 752 459 752 460 752 461 753 459 753 458 753 459 754 451 754 460 754 461 755 451 755 459 755 462 756 463 756 471 756 472 757 463 757 462 757 463 758 464 758 471 758 472 759 464 759 463 759 464 760 465 760 471 760 472 761 465 761 464 761 465 762 466 762 471 762 472 763 466 763 465 763 466 764 467 764 471 764 472 765 467 765 466 765 467 766 468 766 471 766 472 767 468 767 467 767 468 768 469 768 471 768 472 769 469 769 468 769 469 770 470 770 471 770 472 771 470 771 469 771 470 772 462 772 471 772 472 773 462 773 470 773 473 774 474 774 482 774 483 775 474 775 473 775 474 776 475 776 482 776 483 777 475 777 474 777 475 778 476 778 482 778 483 779 476 779 475 779 476 780 477 780 482 780 483 781 477 781 476 781 477 782 478 782 482 782 483 783 478 783 477 783 478 784 479 784 482 784 483 785 479 785 478 785 479 786 480 786 482 786 483 787 480 787 479 787 480 788 481 788 482 788 483 789 481 789 480 789 481 790 473 790 482 790 483 791 473 791 481 791 484 792 485 792 493 792 494 793 485 793 484 793 485 794 486 794 493 794 494 795 486 795 485 795 486 796 487 796 493 796 494 797 487 797 486 797 487 798 488 798 493 798 494 799 488 799 487 799 488 800 489 800 493 800 494 801 489 801 488 801 489 802 490 802 493 802 494 803 490 803 489 803 490 804 491 804 493 804 494 805 491 805 490 805 491 806 492 806 493 806 494 807 492 807 491 807 492 808 484 808 493 808 494 809 484 809 492 809 495 810 496 810 504 810 505 811 496 811 495 811 496 812 497 812 504 812 505 813 497 813 496 813 497 814 498 814 504 814 505 815 498 815 497 815 498 816 499 816 504 816 505 817 499 817 498 817 499 818 500 818 504 818 505 819 500 819 499 819 500 820 501 820 504 820 505 821 501 821 500 821 501 822 502 822 504 822 505 823 502 823 501 823 502 824 503 824 504 824 505 825 503 825 502 825 503 826 495 826 504 826 505 827 495 827 503 827 506 828 507 828 515 828 516 829 507 829 506 829 507 830 508 830 515 830 516 831 508 831 507 831 508 832 509 832 515 832 516 833 509 833 508 833 509 834 510 834 515 834 516 835 510 835 509 835 510 836 511 836 515 836 516 837 511 837 510 837 511 838 512 838 515 838 516 839 512 839 511 839 512 840 513 840 515 840 516 841 513 841 512 841 513 842 514 842 515 842 516 843 514 843 513 843 514 844 506 844 515 844 516 845 506 845 514 845 517 846 518 846 526 846 527 847 518 847 517 847 518 848 519 848 526 848 527 849 519 849 518 849 519 850 520 850 526 850 527 851 520 851 519 851 520 852 521 852 526 852 527 853 521 853 520 853 521 854 522 854 526 854 527 855 522 855 521 855 522 856 523 856 526 856 527 857 523 857 522 857 523 858 524 858 526 858 527 859 524 859 523 859 524 860 525 860 526 860 527 861 525 861 524 861 525 862 517 862 526 862 527 863 517 863 525 863 528 864 529 864 537 864 538 865 529 865 528 865 529 866 530 866 537 866 538 867 530 867 529 867 530 868 531 868 537 868 538 869 531 869 530 869 531 870 532 870 537 870 538 871 532 871 531 871 532 872 533 872 537 872 538 873 533 873 532 873 533 874 534 874 537 874 538 875 534 875 533 875 534 876 535 876 537 876 538 877 535 877 534 877 535 878 536 878 537 878 538 879 536 879 535 879 536 880 528 880 537 880 538 881 528 881 536 881 539 882 540 882 548 882 549 883 540 883 539 883 540 884 541 884 548 884 549 885 541 885 540 885 541 886 542 886 548 886 549 887 542 887 541 887 542 888 543 888 548 888 549 889 543 889 542 889 543 890 544 890 548 890 549 891 544 891 543 891 544 892 545 892 548 892 549 893 545 893 544 893 545 894 546 894 548 894 549 895 546 895 545 895 546 896 547 896 548 896 549 897 547 897 546 897 547 898 539 898 548 898 549 899 539 899 547 899 550 900 551 900 559 900 560 901 551 901 550 901 551 902 552 902 559 902 560 903 552 903 551 903 552 904 553 904 559 904 560 905 553 905 552 905 553 906 554 906 559 906 560 907 554 907 553 907 554 908 555 908 559 908 560 909 555 909 554 909 555 910 556 910 559 910 560 911 556 911 555 911 556 912 557 912 559 912 560 913 557 913 556 913 557 914 558 914 559 914 560 915 558 915 557 915 558 916 550 916 559 916 560 917 550 917 558 917 561 918 562 918 570 918 571 919 562 919 561 919 562 920 563 920 570 920 571 921 563 921 562 921 563 922 564 922 570 922 571 923 564 923 563 923 564 924 565 924 570 924 571 925 565 925 564 925 565 926 566 926 570 926 571 927 566 927 565 927 566 928 567 928 570 928 571 929 567 929 566 929 567 930 568 930 570 930 571 931 568 931 567 931 568 932 569 932 570 932 571 933 569 933 568 933 569 934 561 934 570 934 571 935 561 935 569 935 572 936 573 936 581 936 582 937 573 937 572 937 573 938 574 938 581 938 582 939 574 939 573 939 574 940 575 940 581 940 582 941 575 941 574 941 575 942 576 942 581 942 582 943 576 943 575 943 576 944 577 944 581 944 582 945 577 945 576 945 577 946 578 946 581 946 582 947 578 947 577 947 578 948 579 948 581 948 582 949 579 949 578 949 579 950 580 950 581 950 582 951 580 951 579 951 580 952 572 952 581 952 582 953 572 953 580 953 583 954 584 954 592 954 593 955 584 955 583 955 584 956 585 956 592 956 593 957 585 957 584 957 585 958 586 958 592 958 593 959 586 959 585 959 586 960 587 960 592 960 593 961 587 961 586 961 587 962 588 962 592 962 593 963 588 963 587 963 588 964 589 964 592 964 593 965 589 965 588 965 589 966 590 966 592 966 593 967 590 967 589 967 590 968 591 968 592 968 593 969 591 969 590 969 591 970 583 970 592 970 593 971 583 971 591 971 594 972 595 972 603 972 604 973 595 973 594 973 595 974 596 974 603 974 604 975 596 975 595 975 596 976 597 976 603 976 604 977 597 977 596 977 597 978 598 978 603 978 604 979 598 979 597 979 598 980 599 980 603 980 604 981 599 981 598 981 599 982 600 982 603 982 604 983 600 983 599 983 600 984 601 984 603 984 604 985 601 985 600 985 601 986 602 986 603 986 604 987 602 987 601 987 602 988 594 988 603 988 604 989 594 989 602 989 605 990 606 990 614 990 615 991 606 991 605 991 606 992 607 992 614 992 615 993 607 993 606 993 607 994 608 994 614 994 615 995 608 995 607 995 608 996 609 996 614 996 615 997 609 997 608 997 609 998 610 998 614 998 615 999 610 999 609 999 610 1000 611 1000 614 1000 615 1001 611 1001 610 1001 611 1002 612 1002 614 1002 615 1003 612 1003 611 1003 612 1004 613 1004 614 1004 615 1005 613 1005 612 1005 613 1006 605 1006 614 1006 615 1007 605 1007 613 1007 616 1008 617 1008 625 1008 626 1009 617 1009 616 1009 617 1010 618 1010 625 1010 626 1011 618 1011 617 1011 618 1012 619 1012 625 1012 626 1013 619 1013 618 1013 619 1014 620 1014 625 1014 626 1015 620 1015 619 1015 620 1016 621 1016 625 1016 626 1017 621 1017 620 1017 621 1018 622 1018 625 1018 626 1019 622 1019 621 1019 622 1020 623 1020 625 1020 626 1021 623 1021 622 1021 623 1022 624 1022 625 1022 626 1023 624 1023 623 1023 624 1024 616 1024 625 1024 626 1025 616 1025 624 1025 627 1026 628 1026 636 1026 637 1027 628 1027 627 1027 628 1028 629 1028 636 1028 637 1029 629 1029 628 1029 629 1030 630 1030 636 1030 637 1031 630 1031 629 1031 630 1032 631 1032 636 1032 637 1033 631 1033 630 1033 631 1034 632 1034 636 1034 637 1035 632 1035 631 1035 632 1036 633 1036 636 1036 637 1037 633 1037 632 1037 633 1038 634 1038 636 1038 637 1039 634 1039 633 1039 634 1040 635 1040 636 1040 637 1041 635 1041 634 1041 635 1042 627 1042 636 1042 637 1043 627 1043 635 1043 638 1044 639 1044 647 1044 648 1045 639 1045 638 1045 639 1046 640 1046 647 1046 648 1047 640 1047 639 1047 640 1048 641 1048 647 1048 648 1049 641 1049 640 1049 641 1050 642 1050 647 1050 648 1051 642 1051 641 1051 642 1052 643 1052 647 1052 648 1053 643 1053 642 1053 643 1054 644 1054 647 1054 648 1055 644 1055 643 1055 644 1056 645 1056 647 1056 648 1057 645 1057 644 1057 645 1058 646 1058 647 1058 648 1059 646 1059 645 1059 646 1060 638 1060 647 1060 648 1061 638 1061 646 1061 649 1062 650 1062 658 1062 659 1063 650 1063 649 1063 650 1064 651 1064 658 1064 659 1065 651 1065 650 1065 651 1066 652 1066 658 1066 659 1067 652 1067 651 1067 652 1068 653 1068 658 1068 659 1069 653 1069 652 1069 653 1070 654 1070 658 1070 659 1071 654 1071 653 1071 654 1072 655 1072 658 1072 659 1073 655 1073 654 1073 655 1074 656 1074 658 1074 659 1075 656 1075 655 1075 656 1076 657 1076 658 1076 659 1077 657 1077 656 1077 657 1078 649 1078 658 1078 659 1079 649 1079 657 1079</p></triangles>
</mesh></geometry></library_geometries><library_visual_scenes><visual_scene id="Scene"><node id="mesh"><instance_geometry url="#geometry"/></node></visual_scene></library_visual_scenes><scene><instance_visual_scene url="#Scene"/></scene></COLLADA>