<?xml version="1.0" encoding="UTF-8"?>
<COLLADA xmlns="http://www.collada.org/2005/11/COLLADASchema" version="1.4.1">
<asset><contributor><authoring_tool>Summit Estate procedural mesh exporter</authoring_tool></contributor><created>2026-09-11T00:00:00Z</created><modified>2026-09-11T00:00:00Z</modified><unit name="meter" meter="1"/><up_axis>Z_UP</up_axis></asset>
<library_geometries><geometry id="geometry" name="geometry"><mesh>
<source id="positions"><float_array id="positions-array" count="1980">178.65365 234.82922 85.33467 177.44247 233.53439 85.33467 177.94206 231.85662 85.33467 178.86134 230.80054 85.33467 180.37421 230.80417 85.33467 181.78440 231.66336 85.33467 182.33735 233.36511 85.33467 181.33682 234.84460 85.33467 179.83957 235.41336 85.33467 179.89991 233.01754 90.60115 179.89991 233.01754 85.33467 112.75275 247.55280 75.04771 113.08244 244.90990 75.04771 114.57149 242.59837 75.04771 116.97789 242.09747 75.04771 119.37224 243.46981 75.04771 120.40228 245.76072 75.04771 119.65198 248.43309 75.04771 117.42309 249.76542 75.04771 114.91719 249.11074 75.04771 116.49114 245.96503 83.89005 116.49114 245.96503 75.04771 189.03272 251.45315 84.12557 188.13164 250.58772 84.12557 187.84387 249.06096 84.12557 189.10741 248.16747 84.12557 190.20128 247.78444 84.12557 191.59420 248.74736 84.12557 192.19351 249.71047 84.12557 191.49642 251.44496 84.12557 190.14655 251.76676 84.12557 189.91851 249.82573 93.16417 189.91851 249.82573 84.12557 22.54071 231.70251 83.88321 23.30899 230.08814 83.88321 24.59365 229.32197 83.88321 26.59430 229.36318 83.88321 27.71715 230.75068 83.88321 27.53284 232.59028 83.88321 26.80561 234.20880 83.88321 25.03974 234.29978 83.88321 23.41053 233.43851 83.88321 25.20623 231.78413 90.36556 25.20623 231.78413 83.88321 45.28916 251.52459 82.04103 43.24735 251.16944 82.04103 42.23631 249.96718 82.04103 42.03239 247.97977 82.04103 43.21464 246.57069 82.04103 44.70304 246.07425 82.04103 46.44155 247.01827 82.04103 47.26628 248.85170 82.04103 46.88348 250.57139 82.04103 44.61143 248.83085 91.91772 44.61143 248.83085 82.04103 69.79948 229.02738 85.26051 70.37983 228.19795 85.26051 71.16716 228.05918 85.26051 72.17196 228.88190 85.26051 72.29612 229.87571 85.26051 71.74173 230.30254 85.26051 70.88569 230.95816 85.26051 70.21166 230.69577 85.26051 69.31804 229.72010 85.26051 70.88156 229.51660 90.64052 70.88156 229.51660 85.26051 38.73792 243.30662 85.77715 38.81766 245.33545 85.77715 37.33460 246.54088 85.77715 35.80013 246.60246 85.77715 34.17044 245.62689 85.77715 33.80234 243.85274 85.77715 34.61545 242.28930 85.77715 35.84383 241.50010 85.77715 37.61351 241.81680 85.77715 36.27381 244.11894 93.05823 36.27381 244.11894 85.77715 79.82998 227.84564 83.53642 80.65943 225.94251 83.53642 82.54518 224.78177 83.53642 84.80067 224.80751 83.53642 86.46737 226.72945 83.53642 86.21345 229.25692 83.53642 84.82812 230.93070 83.53642 82.62924 231.55621 83.53642 80.56710 230.34379 83.53642 83.06096 227.99734 90.15511 83.06096 227.99734 83.53642 86.70327 230.69408 83.59705 86.95844 229.61311 83.59705 87.45648 228.88548 83.59705 88.62004 228.56704 83.59705 89.21229 228.89678 83.59705 89.88282 229.81369 83.59705 89.51518 230.84157 83.59705 88.37750 231.33314 83.59705 87.66987 231.47844 83.59705 88.21546 229.98646 88.14493 88.21546 229.98646 83.59705 190.48961 232.23020 82.12103 191.81580 234.46761 82.12103 191.41683 236.80017 82.12103 189.27574 238.15974 82.12103 186.74201 237.93561 82.12103 185.28518 236.20938 82.12103 184.98554 234.00761 82.12103 186.04280 231.76186 82.12103 188.40039 231.42535 82.12103 188.27053 234.69850 87.01320 188.27053 234.69850 82.12103 180.66232 245.51778 84.13886 181.54480 246.32366 84.13886 182.15385 247.45376 84.13886 181.44175 248.81370 84.13886 180.34063 249.25349 84.13886 178.93117 249.04515 84.13886 178.44984 248.05013 84.13886 178.42601 246.80482 84.13886 179.25823 245.66018 84.13886 180.14653 247.46705 93.32771 180.14653 247.46705 84.13886 177.05117 239.02364 79.16796 178.65123 239.30643 79.16796 179.67737 240.63828 79.16796 179.77788 242.07070 79.16796 178.73695 243.69842 79.16796 176.90025 243.62681 79.16796 175.71043 242.96150 79.16796 175.32628 241.15156 79.16796 175.64986 239.69408 79.16796 177.56746 241.36002 85.30192 177.56746 241.36002 79.16796 89.19685 250.06356 77.81869 88.54541 249.30134 77.81869 87.85441 248.48036 77.81869 88.42416 247.25064 77.81869 89.85462 246.75390 77.81869 90.93533 247.07077 77.81869 91.53271 248.20572 77.81869 91.31092 249.19580 77.81869 90.30784 250.28981 77.81869 89.82820 248.50975 83.26081 89.82820 248.50975 77.81869 198.49898 224.00170 90.77994 199.44621 225.39781 90.77994 198.96344 226.92164 90.77994 197.99132 228.23291 90.77994 196.24040 228.36352 90.77994 194.81297 227.22860 90.77994 194.38827 225.64349 90.77994 195.47768 223.83774 90.77994 196.86270 223.47349 90.77994 196.96554 225.76935 99.18727 196.96554 225.76935 90.77994 122.83907 231.39721 84.28679 122.67483 232.89666 84.28679 121.60251 233.72404 84.28679 120.05402 233.22403 84.28679 118.81819 232.55096 84.28679 118.77201 230.74000 84.28679 119.50287 229.51266 84.28679 121.21765 229.39030 84.28679 122.40613 230.18117 84.28679 120.85470 231.48031 89.77059 120.85470 231.48031 84.28679 118.53956 236.67358 88.78136 116.83491 236.57489 88.78136 115.61453 235.21840 88.78136 115.68554 233.52051 88.78136 116.52275 232.26995 88.78136 118.28123 231.66290 88.78136 119.50650 232.41266 88.78136 120.58698 233.97331 88.78136 120.29005 235.38144 88.78136 118.01621 234.20490 98.21577 118.01621 234.20490 88.78136 101.59992 234.82407 79.06032 99.82027 236.20553 79.06032 97.93757 235.62355 79.06032 96.77152 234.42645 79.06032 96.76839 232.43347 79.06032 98.02544 231.20721 79.06032 99.66509 230.44263 79.06032 101.48127 231.42639 79.06032 101.99067 233.37316 79.06032 99.41292 233.34269 87.27401 99.41292 233.34269 79.06032 56.50678 243.15697 81.04937 58.71767 244.26121 81.04937 59.68646 246.23763 81.04937 59.22774 248.95879 81.04937 57.13229 250.32152 81.04937 54.85863 250.14877 81.04937 53.26615 248.40906 81.04937 52.86870 245.84387 81.04937 54.36730 243.88662 81.04937 56.38584 246.76720 90.42489 56.38584 246.76720 81.04937 52.20376 248.02875 84.03498 53.30206 248.05438 84.03498 53.74017 249.43083 84.03498 53.61456 250.44327 84.03498 52.79846 251.07623 84.03498 51.73990 251.21082 84.03498 50.72383 250.41167 84.03498 50.70922 248.99337 84.03498 51.40759 247.99050 84.03498 52.33143 249.48576 92.25304 52.33143 249.48576 84.03498 109.86884 240.96275 78.80167 107.48746 240.45480 78.80167 106.33857 238.23377 78.80167 106.62639 236.02074 78.80167 108.47961 234.27150 78.80167 110.77629 234.49226 78.80167 112.71456 235.98901 78.80167 113.00791 238.31994 78.80167 112.10008 240.16067 78.80167 109.70454 237.59717 83.93711 109.70454 237.59717 78.80167 230.91700 244.39550 88.97249 229.90385 245.40857 88.97249 228.37066 245.60387 88.97249 226.97699 244.67506 88.97249 226.83891 243.29727 88.97249 227.37535 241.92699 88.97249 228.89110 241.15378 88.97249 229.86595 241.64866 88.97249 230.82072 242.86429 88.97249 228.88833 243.45210 98.03144 228.88833 243.45210 88.97249 63.62915 230.60302 89.01946 64.53371 229.72804 89.01946 65.59369 229.41403 89.01946 66.83878 230.01010 89.01946 66.99385 231.38320 89.01946 66.55662 232.84834 89.01946 65.40005 233.20584 89.01946 64.39827 232.89495 89.01946 63.35574 231.93727 89.01946 65.29575 231.39037 97.38327 65.29575 231.39037 89.01946 37.98493 235.77340 86.58861 38.34659 234.11551 86.58861 39.00056 233.33124 86.58861 40.63127 232.95593 86.58861 41.44569 234.04303 86.58861 42.08564 235.06926 86.58861 41.55928 236.62784 86.58861 40.21530 236.90642 86.58861 38.67880 236.73831 86.58861 39.94212 235.05633 93.15569 39.94212 235.05633 86.58861 61.77303 241.02813 81.44779 60.08916 238.76652 81.44779 60.58177 236.28093 81.44779 62.62122 234.33383 81.44779 65.08487 234.38878 81.44779 67.02611 235.72391 81.44779 67.50035 238.49455 81.44779 66.60504 240.71047 81.44779 64.06889 241.74114 81.44779 63.94196 237.96626 88.42164 63.94196 237.96626 81.44779 153.16902 246.04311 76.99800 152.55592 249.32611 76.99800 150.22528 251.33330 76.99800 146.93949 251.26881 76.99800 144.58876 248.73371 76.99800 143.92588 245.69537 76.99800 145.55924 243.28831 76.99800 148.77533 242.11316 76.99800 151.67199 243.42212 76.99800 148.60198 246.76201 84.34450 148.60198 246.76201 76.99800 144.46677 248.84103 76.90435 144.24007 246.94123 76.90435 145.24886 245.05341 76.90435 147.10183 244.75960 76.90435 148.93812 245.57881 76.90435 149.74703 247.25224 76.90435 149.40753 249.05300 76.90435 147.97240 250.56385 76.90435 145.71112 250.15282 76.90435 147.00261 247.59732 84.74128 147.00261 247.59732 76.90435 219.05479 233.24834 86.38599 218.24683 235.57038 86.38599 215.92474 237.29825 86.38599 213.39609 236.81378 86.38599 211.33763 234.80049 86.38599 211.15238 232.22416 86.38599 213.02340 230.00877 86.38599 215.42545 229.54525 86.38599 217.84812 230.65324 86.38599 215.04121 233.37745 96.13481 215.04121 233.37745 86.38599 71.25976 234.32381 79.69819 70.54118 231.73882 79.69819 71.43288 229.00983 79.69819 73.84735 227.42785 79.69819 76.75718 228.23392 79.69819 78.35312 230.45809 79.69819 78.49361 233.12356 79.69819 76.74369 235.32305 79.69819 73.67987 235.71599 79.69819 74.53697 231.64750 86.61395 74.53697 231.64750 79.69819 70.73391 237.84375 80.53672 71.44220 238.87136 80.53672 70.73629 240.05317 80.53672 69.48362 240.94771 80.53672 68.03876 240.42860 80.53672 67.42252 239.40772 80.53672 67.56480 237.88630 80.53672 68.42127 237.24617 80.53672 69.58939 236.77386 80.53672 69.33732 238.82255 87.12749 69.33732 238.82255 80.53672 210.40541 231.12996 86.61570 208.23379 231.42042 86.61570 206.34286 230.24176 86.61570 205.67331 228.12743 86.61570 206.69408 226.04785 86.61570 208.64383 224.97300 86.61570 210.70508 225.71870 86.61570 212.23224 227.52799 86.61570 211.97890 229.72798 86.61570 209.09211 228.34795 95.79593 209.09211 228.34795 86.61570 232.98298 247.30229 78.30386 231.71715 248.67160 78.30386 230.13206 249.16163 78.30386 228.33128 248.29972 78.30386 227.84586 246.49384 78.30386 228.46219 244.61394 78.30386 229.96086 243.46918 78.30386 231.79230 243.87587 78.30386 233.17990 245.46644 78.30386 230.45956 246.33312 84.19300 230.45956 246.33312 78.30386 9.45929 248.38618 85.53379 8.42956 246.35860 85.53379 9.34920 243.80755 85.53379 11.43619 242.57962 85.53379 13.81618 242.74541 85.53379 15.50570 244.66312 85.53379 15.79122 247.21424 85.53379 14.29043 248.83567 85.53379 11.78415 249.42323 85.53379 12.13111 246.01871 95.94467 12.13111 246.01871 85.53379 230.84340 236.06850 82.17004 230.10141 234.93263 82.17004 230.83139 233.26114 82.17004 232.17065 232.47560 82.17004 233.65767 232.97304 82.17004 234.43494 233.93610 82.17004 234.59000 235.46181 82.17004 233.40116 236.58112 82.17004 232.16921 236.79344 82.17004 232.40799 234.77574 87.39498 232.40799 234.77574 82.17004 72.23681 240.40069 77.46530 73.62470 241.60360 77.46530 74.39505 243.20066 77.46530 73.70045 245.04925 77.46530 71.83688 245.98647 77.46530 70.11072 245.52722 77.46530 68.78743 243.87999 77.46530 69.07379 241.89423 77.46530 70.31832 240.74267 77.46530 71.53506 243.12513 82.43282 71.53506 243.12513 77.46530 126.85515 236.26054 83.60996 128.40195 234.69012 83.60996 130.74839 234.90306 83.60996 132.69823 236.14098 83.60996 133.20051 238.28041 83.60996 132.00998 240.36421 83.60996 129.82213 241.18091 83.60996 127.78855 240.40564 83.60996 126.28623 238.71278 83.60996 129.73120 237.96565 93.95852 129.73120 237.96565 83.60996 16.18510 242.57409 84.25228 16.14751 244.04032 84.25228 14.95229 244.90859 84.25228 13.38944 244.80384 84.25228 12.30982 243.65405 84.25228 11.82525 242.49006 84.25228 12.81798 241.01316 84.25228 14.17937 240.47788 84.25228 15.38098 241.14676 84.25228 14.07889 242.71568 92.74396 14.07889 242.71568 84.25228 39.62932 235.25186 85.88598 38.56608 236.89960 85.88598 37.36994 237.39767 85.88598 35.55207 237.07338 85.88598 34.52531 235.39194 85.88598 34.72602 233.70316 85.88598 36.31372 232.80735 85.88598 37.92627 232.48570 85.88598 39.40178 233.59148 85.88598 37.09369 234.90379 91.84728 37.09369 234.90379 85.88598 61.28079 248.25546 76.30112 61.67951 249.56134 76.30112 61.31058 250.54474 76.30112 60.16065 251.40523 76.30112 58.77989 251.05472 76.30112 58.29428 250.38226 76.30112 57.97343 248.89827 76.30112 58.82190 247.86670 76.30112 60.23205 247.78231 76.30112 59.93039 249.51458 81.54409 59.93039 249.51458 76.30112 119.92376 228.43401 80.67590 121.54133 231.24942 80.67590 121.22621 234.32828 80.67590 119.00640 236.71450 80.67590 115.71711 236.86488 80.67590 113.02787 234.79856 80.67590 112.07491 231.65574 80.67590 113.47199 228.98852 80.67590 116.70798 227.66334 80.67590 116.88926 232.27161 92.26794 116.88926 232.27161 80.67590 243.17298 240.73794 85.29240 241.89268 238.60734 85.29240 242.66292 235.94107 85.29240 244.59408 234.65764 85.29240 247.04745 234.52338 85.29240 248.74832 236.51902 85.29240 249.25269 238.94263 85.29240 247.96391 240.67383 85.29240 245.58513 241.75474 85.29240 245.58767 238.03517 95.64151 245.58767 238.03517 85.29240 129.85191 251.53870 81.64238 128.35247 251.06966 81.64238 128.01659 249.46425 81.64238 128.41452 248.02152 81.64238 129.56969 247.25719 81.64238 131.33789 247.39264 81.64238 132.08262 248.58894 81.64238 132.14864 250.09647 81.64238 131.47992 251.33749 81.64238 130.15572 249.41027 88.64250 130.15572 249.41027 81.64238 222.28099 227.40780 90.00111 220.56660 227.77063 90.00111 218.84421 226.86368 90.00111 217.85646 225.41712 90.00111 218.41521 223.64226 90.00111 219.98689 222.55604 90.00111 221.58514 222.55600 90.00111 223.17456 224.17551 90.00111 222.96598 225.96305 90.00111 220.60525 225.06874 97.78582 220.60525 225.06874 90.00111 212.17557 238.32755 80.59670 214.40299 239.62116 80.59670 215.61361 242.18921 80.59670 214.57345 245.01456 80.59670 212.17845 246.38272 80.59670 209.63514 245.84182 80.59670 207.60605 243.84794 80.59670 207.46001 241.38110 80.59670 209.46127 239.07067 80.59670 211.38329 242.48866 90.30707 211.38329 242.48866 80.59670 227.78701 239.74994 88.83735 227.83396 241.08899 88.83735 226.64364 242.58134 88.83735 225.05855 242.84062 88.83735 223.92998 241.84944 88.83735 223.38956 240.52447 88.83735 224.05814 238.69672 88.83735 225.41552 238.10996 88.83735 226.81261 238.31411 88.83735 225.62926 240.43797 97.43523 225.62926 240.43797 88.83735 26.65617 238.20884 90.16278 26.97954 237.09357 90.16278 27.98631 236.68428 90.16278 28.81836 237.09624 90.16278 29.38338 237.66476 90.16278 29.23445 238.83981 90.16278 28.40901 239.33861 90.16278 27.74561 239.51952 90.16278 26.67124 238.85427 90.16278 27.92728 238.13954 99.44719 27.92728 238.13954 90.16278 85.38831 222.21618 82.03005 86.37229 224.72539 82.03005 85.82034 227.62662 82.03005 83.42376 229.34412 82.03005 80.32432 229.15642 82.03005 77.98713 227.14087 82.03005 77.97813 224.21286 82.03005 79.74692 221.75425 82.03005 82.63245 220.67646 82.03005 82.13679 225.14356 91.10348 82.13679 225.14356 82.03005 149.68214 232.87771 80.81863 152.03016 233.05958 80.81863 153.97011 234.44743 80.81863 154.47413 236.98233 80.81863 153.06064 238.86822 80.81863 150.79849 239.53039 80.81863 148.52285 238.89358 80.81863 147.57942 236.84828 80.81863 147.83515 234.47398 80.81863 150.96083 236.18675 86.02514 150.96083 236.18675 80.81863 236.64388 238.17357 80.00570 239.16540 239.81917 80.00570 239.98545 242.66744 80.00570 238.95519 245.66362 80.00570 236.07469 246.92642 80.00570 232.89584 246.51365 80.00570 231.31549 244.01396 80.00570 231.48332 240.62542 80.00570 233.56926 238.45206 80.00570 235.53266 242.45383 89.51406 235.53266 242.45383 80.00570 208.16050 226.63110 85.86800 207.17478 227.34935 85.86800 205.67402 227.42628 85.86800 204.31901 226.79635 85.86800 204.29389 225.28604 85.86800 204.60886 223.77826 85.86800 205.84071 223.41219 85.86800 207.52382 223.96666 85.86800 208.22626 225.18559 85.86800 206.16709 225.48431 93.75205 206.16709 225.48431 85.86800 128.21151 246.06234 80.14913 126.85328 246.11008 80.14913 125.88827 245.46033 80.14913 125.90983 244.48995 80.14913 126.53335 243.50146 80.14913 127.49664 242.81955 80.14913 128.57326 243.54623 80.14913 128.90591 244.17278 80.14913 128.77646 245.40066 80.14913 127.48558 244.64266 85.40730 127.48558 244.64266 80.14913 217.39777 233.05812 85.29989 217.98820 234.65042 85.29989 217.28252 235.54694 85.29989 216.13511 236.21707 85.29989 214.92050 235.93191 85.29989 214.11802 235.11011 85.29989 214.01241 233.91072 85.29989 214.93819 232.64051 85.29989 216.14801 232.45638 85.29989 215.86895 234.42278 90.54499 215.86895 234.42278 85.29989 124.20132 229.20158 81.76638 122.05639 230.61027 81.76638 118.93189 230.47084 81.76638 117.14029 228.72264 81.76638 116.90283 226.14433 81.76638 118.41577 223.83704 81.76638 120.86541 222.73497 81.76638 123.42616 224.09017 81.76638 124.93739 226.40906 81.76638 120.77804 226.92608 91.88556 120.77804 226.92608 81.76638 237.77593 245.73558 78.53205 236.58652 247.90471 78.53205 234.01909 249.12986 78.53205 231.85555 248.00519 78.53205 230.39566 245.69039 78.53205 230.85404 243.57851 78.53205 232.51598 241.54584 78.53205 235.01800 241.57470 78.53205 237.13028 243.06478 78.53205 233.97509 245.17607 84.88113 233.97509 245.17607 78.53205 222.00280 226.14146 87.50219 223.07782 226.57926 87.50219 223.97294 227.43371 87.50219 224.24091 228.74589 87.50219 223.41255 229.68418 87.50219 222.44033 230.18874 87.50219 221.32635 229.57038 87.50219 220.59176 228.48766 87.50219 220.75047 226.91364 87.50219 222.47797 228.15008 93.74871 222.47797 228.15008 87.50219 243.46822 236.32269 86.10705 242.89770 235.25810 86.10705 242.72171 234.48660 86.10705 243.54836 233.36508 86.10705 244.51536 233.03228 86.10705 245.49065 233.66201 86.10705 245.74308 234.62285 86.10705 245.58132 235.81091 86.10705 244.59200 236.24564 86.10705 244.34069 234.75190 92.53584 244.34069 234.75190 86.10705 16.00053 246.02379 79.82604 15.40612 243.77610 79.82604 16.22577 240.70331 79.82604 18.87623 239.46776 79.82604 21.70265 240.06831 79.82604 23.13663 242.10577 79.82604 23.07450 245.23693 79.82604 21.21255 247.14190 79.82604 18.70928 247.71986 79.82604 19.39016 243.62522 87.93403 19.39016 243.62522 79.82604 159.75591 235.06760 84.94188 161.17771 236.58145 84.94188 161.19003 238.91790 84.94188 159.81255 240.84633 84.94188 157.68394 241.33037 84.94188 155.54788 240.23662 84.94188 154.65091 237.85337 84.94188 155.44120 235.53555 84.94188 157.75447 234.43593 84.94188 158.09880 237.87881 95.06264 158.09880 237.87881 84.94188 138.85342 234.18145 78.68143 137.33356 236.41933 78.68143 134.67554 237.43410 78.68143 132.22662 236.42129 78.68143 131.05852 234.20203 78.68143 131.48741 231.73448 78.68143 133.20916 229.69142 78.68143 136.28350 229.72304 78.68143 138.08930 231.71975 78.68143 134.76246 233.49646 84.73491 134.76246 233.49646 78.68143 95.89302 240.48317 81.77334 94.56281 241.34038 81.77334 92.96459 241.10986 81.77334 91.96365 239.79472 81.77334 92.04817 238.34387 81.77334 93.02734 237.37662 81.77334 94.39398 236.88055 81.77334 95.72535 237.49266 81.77334 96.38358 239.09041 81.77334 94.11226 239.02416 87.43008 94.11226 239.02416 81.77334 133.18335 238.66751 81.81734 135.42000 238.06079 81.81734 137.42729 238.99644 81.81734 138.52790 241.62209 81.81734 137.93922 243.60785 81.81734 135.98182 245.22919 81.81734 133.24636 244.57111 81.81734 131.75893 243.08209 81.81734 131.71237 240.60679 81.81734 135.02554 241.60926 90.88603 135.02554 241.60926 81.81734</float_array><technique_common><accessor source="#positions-array" count="660" stride="3"><param name="X" type="float"/><param name="Y" type="float"/><param name="Z" type="float"/></accessor></technique_common></source>
<source id="normals"><float_array id="normals-array" count="3240">-0.67623 0.63254 0.37762 0.00000 0.00000 -1.00000 -0.88389 -0.26319 0.38661 -0.00000 0.00000 -1.00000 -0.69414 -0.60423 0.39125 0.00000 0.00000 -1.00000 0.00221 -0.92182 0.38762 0.00000 -0.00000 -1.00000 0.48213 -0.79132 0.37599 0.00000 0.00000 -1.00000 0.87693 -0.28494 0.38706 0.00000 0.00000 -1.00000 0.76364 0.51642 0.38751 0.00000 0.00000 -1.00000 0.32726 0.86152 0.38817 0.00000 0.00000 -1.00000 -0.40838 0.82910 0.38185 0.00000 0.00000 -1.00000 -0.92219 -0.11504 0.36923 -0.00000 0.00000 -1.00000 -0.78356 -0.50476 0.36229 0.00000 0.00000 -1.00000 -0.18809 -0.90360 0.38487 0.00000 -0.00000 -1.00000 0.46061 -0.80363 0.37686 0.00000 0.00000 -1.00000 0.84302 -0.37904 0.38164 0.00000 0.00000 -1.00000 0.88778 0.24926 0.38692 0.00000 0.00000 -1.00000 0.47254 0.79053 0.38957 0.00000 0.00000 -1.00000 -0.23556 0.90165 0.36269 0.00000 0.00000 -1.00000 -0.54376 0.75545 0.36554 0.00000 0.00000 -1.00000 -0.67954 0.70752 0.19399 0.00000 0.00000 -1.00000 -0.96174 0.18127 0.20541 -0.00000 0.00000 -1.00000 -0.56598 -0.80038 0.19763 0.00000 0.00000 -1.00000 -0.32389 -0.92498 0.19877 0.00000 -0.00000 -1.00000 0.55722 -0.80605 0.19947 0.00000 0.00000 -1.00000 0.82913 -0.51594 0.21527 0.00000 0.00000 -1.00000 0.90450 0.36352 0.22302 0.00000 0.00000 -1.00000 0.22673 0.95106 0.20996 0.00000 0.00000 -1.00000 -0.26576 0.94390 0.19600 0.00000 0.00000 -1.00000 -0.84500 -0.40213 0.35252 0.00000 0.00000 -1.00000 -0.47966 -0.80427 0.35081 0.00000 0.00000 -1.00000 0.01927 -0.93527 0.35342 0.00000 -0.00000 -1.00000 0.72140 -0.58380 0.37250 0.00000 0.00000 -1.00000 0.93333 0.09351 0.34662 0.00000 0.00000 -1.00000 0.85313 0.38333 0.35387 0.00000 0.00000 -1.00000 0.04800 0.93160 0.36030 0.00000 0.00000 -1.00000 -0.44041 0.83311 0.33462 0.00000 0.00000 -1.00000 -0.84067 0.42121 0.34038 -0.00000 0.00000 -1.00000 -0.16597 0.95421 0.24886 0.00000 0.00000 -1.00000 -0.74106 0.62320 0.24991 0.00000 0.00000 -1.00000 -0.96486 0.09900 0.24342 -0.00000 0.00000 -1.00000 -0.74224 -0.62276 0.24748 0.00000 0.00000 -1.00000 -0.30608 -0.91769 0.25329 0.00000 -0.00000 -1.00000 0.46298 -0.85262 0.24226 0.00000 0.00000 -1.00000 0.88593 -0.39852 0.23730 0.00000 0.00000 -1.00000 0.94405 0.21014 0.25420 0.00000 0.00000 -1.00000 0.49550 0.82877 0.26004 0.00000 0.00000 -1.00000 -0.80072 -0.56027 0.21200 0.00000 0.00000 -1.00000 -0.16809 -0.95369 0.24943 0.00000 -0.00000 -1.00000 0.61557 -0.75181 0.23634 0.00000 0.00000 -1.00000 0.96206 -0.12019 0.24493 0.00000 0.00000 -1.00000 0.59663 0.77493 0.20860 0.00000 0.00000 -1.00000 0.59467 0.77646 0.20851 0.00000 0.00000 -1.00000 -0.35199 0.90418 0.24200 0.00000 0.00000 -1.00000 -0.71709 0.65679 0.23324 0.00000 0.00000 -1.00000 -0.80247 -0.55772 0.21211 -0.00000 0.00000 -1.00000 0.94531 -0.03715 0.32406 0.00000 0.00000 -1.00000 0.59532 0.73243 0.33036 0.00000 0.00000 -1.00000 0.03799 0.94653 0.32038 0.00000 0.00000 -1.00000 -0.48832 0.81574 0.31001 0.00000 0.00000 -1.00000 -0.93122 0.19321 0.30903 -0.00000 0.00000 -1.00000 -0.84547 -0.43971 0.30306 0.00000 0.00000 -1.00000 -0.51261 -0.79786 0.31725 0.00000 0.00000 -1.00000 0.16660 -0.93093 0.32499 0.00000 -0.00000 -1.00000 0.75631 -0.57081 0.31964 0.00000 0.00000 -1.00000 -0.83388 -0.36344 0.41540 0.00000 0.00000 -1.00000 -0.47720 -0.77526 0.41383 0.00000 0.00000 -1.00000 0.01027 -0.89973 0.43632 0.00000 -0.00000 -1.00000 0.67184 -0.58262 0.45738 0.00000 0.00000 -1.00000 0.89245 0.08966 0.44214 0.00000 0.00000 -1.00000 0.69225 0.57295 0.43876 0.00000 0.00000 -1.00000 0.24479 0.86053 0.44674 0.00000 0.00000 -1.00000 -0.45394 0.77209 0.44476 0.00000 0.00000 -1.00000 -0.87078 0.25694 0.41919 -0.00000 0.00000 -1.00000 -0.93527 -0.22077 0.27663 -0.00000 0.00000 -1.00000 -0.79578 -0.54469 0.26467 0.00000 0.00000 -1.00000 -0.25436 -0.92940 0.26744 0.00000 -0.00000 -1.00000 0.46384 -0.83311 0.30128 0.00000 0.00000 -1.00000 0.76915 -0.56248 0.30336 0.00000 0.00000 -1.00000 0.89351 0.31958 0.31544 0.00000 0.00000 -1.00000 0.38135 0.88260 0.27494 0.00000 0.00000 -1.00000 0.19280 0.93896 0.28491 0.00000 0.00000 -1.00000 -0.59831 0.73732 0.31366 0.00000 0.00000 -1.00000 0.72210 -0.42801 0.54349 0.00000 0.00000 -1.00000 0.80510 0.13771 0.57694 0.00000 0.00000 -1.00000 0.43762 0.68918 0.57751 0.00000 0.00000 -1.00000 -0.07264 0.82116 0.56605 0.00000 0.00000 -1.00000 -0.63620 0.53691 0.55405 0.00000 0.00000 -1.00000 -0.83219 0.11325 0.54280 -0.00000 0.00000 -1.00000 -0.75245 -0.35424 0.55528 0.00000 0.00000 -1.00000 -0.11801 -0.82677 0.55002 0.00000 -0.00000 -1.00000 0.30363 -0.78815 0.53538 0.00000 0.00000 -1.00000 0.66193 -0.72484 0.19092 0.00000 0.00000 -1.00000 0.86435 -0.46583 0.18949 0.00000 0.00000 -1.00000 0.86987 0.45548 0.18936 0.00000 0.00000 -1.00000 0.36450 0.91261 0.18512 0.00000 0.00000 -1.00000 -0.14368 0.97200 0.18594 0.00000 0.00000 -1.00000 -0.88376 0.42750 0.19031 0.00000 0.00000 -1.00000 -0.98299 0.01881 0.18270 -0.00000 0.00000 -1.00000 -0.79404 -0.57732 0.19028 0.00000 0.00000 -1.00000 -0.09884 -0.97455 0.20119 0.00000 -0.00000 -1.00000 0.16373 -0.92640 0.33908 0.00000 -0.00000 -1.00000 0.74900 -0.57708 0.32554 0.00000 0.00000 -1.00000 0.94114 -0.06604 0.33150 0.00000 0.00000 -1.00000 0.79114 0.50593 0.34371 0.00000 0.00000 -1.00000 -0.03650 0.93608 0.34990 0.00000 0.00000 -1.00000 -0.45688 0.81707 0.35164 0.00000 0.00000 -1.00000 -0.92319 0.19594 0.33065 -0.00000 0.00000 -1.00000 -0.91733 -0.20366 0.34209 0.00000 0.00000 -1.00000 -0.40345 -0.84327 0.35515 0.00000 0.00000 -1.00000 -0.73322 0.62666 0.26398 0.00000 0.00000 -1.00000 -0.73787 0.62105 0.26426 -0.00000 0.00000 -1.00000 -0.86129 -0.39905 0.31454 0.00000 0.00000 -1.00000 -0.31393 -0.90402 0.29015 0.00000 -0.00000 -1.00000 0.26867 -0.91632 0.29695 0.00000 0.00000 -1.00000 0.84684 -0.44573 0.29014 0.00000 0.00000 -1.00000 0.93634 0.20975 0.28155 0.00000 0.00000 -1.00000 0.70866 0.64976 0.27499 0.00000 0.00000 -1.00000 -0.19098 0.93780 0.28991 0.00000 0.00000 -1.00000 0.79911 -0.54218 0.25975 0.00000 0.00000 -1.00000 0.92082 0.29173 0.25881 0.00000 0.00000 -1.00000 0.77505 0.57459 0.26293 0.00000 0.00000 -1.00000 0.07123 0.95483 0.28848 0.00000 0.00000 -1.00000 -0.59688 0.75072 0.28312 0.00000 0.00000 -1.00000 -0.92715 0.24841 0.28050 -0.00000 0.00000 -1.00000 -0.82660 -0.49869 0.26086 0.00000 0.00000 -1.00000 -0.24572 -0.93433 0.25815 0.00000 0.00000 -1.00000 0.29759 -0.92189 0.24811 0.00000 -0.00000 -1.00000 0.93587 0.10251 0.33710 0.00000 0.00000 -1.00000 0.56576 0.73325 0.37717 0.00000 0.00000 -1.00000 -0.29026 0.89890 0.32821 0.00000 0.00000 -1.00000 -0.45157 0.82913 0.32958 0.00000 0.00000 -1.00000 -0.93565 0.02386 0.35213 -0.00000 0.00000 -1.00000 -0.79901 -0.47580 0.36769 0.00000 0.00000 -1.00000 -0.06663 -0.93382 0.35149 0.00000 -0.00000 -1.00000 0.52225 -0.78480 0.33367 0.00000 0.00000 -1.00000 0.89030 -0.31696 0.32696 0.00000 0.00000 -1.00000 -0.05596 0.96667 0.24984 0.00000 0.00000 -1.00000 -0.71931 0.64713 0.25263 0.00000 0.00000 -1.00000 -0.96933 -0.04054 0.24240 -0.00000 0.00000 -1.00000 -0.80698 -0.54025 0.23855 0.00000 0.00000 -1.00000 -0.31690 -0.91800 0.23844 0.00000 -0.00000 -1.00000 0.50701 -0.82857 0.23749 0.00000 0.00000 -1.00000 0.79984 -0.55375 0.23154 0.00000 0.00000 -1.00000 0.94664 0.19962 0.25305 0.00000 0.00000 -1.00000 0.57703 0.78171 0.23656 0.00000 0.00000 -1.00000 0.58640 0.75542 0.29238 0.00000 0.00000 -1.00000 -0.28142 0.91038 0.30335 0.00000 0.00000 -1.00000 -0.68177 0.66409 0.30687 0.00000 0.00000 -1.00000 -0.95193 0.00149 0.30632 -0.00000 0.00000 -1.00000 -0.66808 -0.68486 0.29091 0.00000 0.00000 -1.00000 -0.40401 -0.86639 0.29350 0.00000 -0.00000 -1.00000 0.45295 -0.83622 0.30915 0.00000 0.00000 -1.00000 0.92595 -0.24229 0.28970 0.00000 0.00000 -1.00000 0.92385 0.24880 0.29086 0.00000 0.00000 -1.00000 0.42170 -0.84433 0.33057 0.00000 0.00000 -1.00000 0.84988 -0.41659 0.32273 0.00000 0.00000 -1.00000 0.93424 0.15749 0.32000 0.00000 0.00000 -1.00000 0.51275 0.78846 0.33973 0.00000 0.00000 -1.00000 -0.07101 0.93456 0.34864 0.00000 0.00000 -1.00000 -0.69321 0.63454 0.34179 0.00000 0.00000 -1.00000 -0.93108 0.14426 0.33508 -0.00000 0.00000 -1.00000 -0.74759 -0.57241 0.33683 0.00000 0.00000 -1.00000 -0.30368 -0.89044 0.33896 0.00000 -0.00000 -1.00000 0.02297 -0.98445 0.17418 0.00000 -0.00000 -1.00000 0.94013 -0.29923 0.16316 0.00000 0.00000 -1.00000 0.97847 0.12139 0.16692 0.00000 0.00000 -1.00000 0.60234 0.77661 0.18453 0.00000 0.00000 -1.00000 0.12370 0.97291 0.19532 0.00000 0.00000 -1.00000 -0.60507 0.76932 0.20504 0.00000 0.00000 -1.00000 -0.98113 0.01010 0.19307 -0.00000 0.00000 -1.00000 -0.80527 -0.56077 0.19256 0.00000 0.00000 -1.00000 0.04727 -0.98367 0.17366 0.00000 0.00000 -1.00000 -0.17616 0.82588 0.53562 0.00000 0.00000 -1.00000 -0.74841 0.38713 0.53853 0.00000 0.00000 -1.00000 -0.83752 -0.10892 0.53544 -0.00000 0.00000 -1.00000 -0.57954 -0.61400 0.53585 0.00000 0.00000 -1.00000 0.08125 -0.84532 0.52804 0.00000 -0.00000 -1.00000 0.52268 -0.67687 0.51832 0.00000 0.00000 -1.00000 0.84301 -0.10610 0.52733 0.00000 0.00000 -1.00000 0.75569 0.37270 0.53855 0.00000 0.00000 -1.00000 0.28654 0.79709 0.53155 0.00000 0.00000 -1.00000 0.68879 0.68884 0.22598 0.00000 0.00000 -1.00000 0.12319 0.96708 0.22267 0.00000 0.00000 -1.00000 -0.54054 0.81108 0.22354 0.00000 0.00000 -1.00000 -0.97108 0.09732 0.21803 -0.00000 0.00000 -1.00000 -0.91003 -0.35626 0.21197 0.00000 0.00000 -1.00000 -0.44325 -0.86890 0.22031 0.00000 -0.00000 -1.00000 0.44149 -0.86968 0.22078 0.00000 0.00000 -1.00000 0.76998 -0.60475 0.20349 0.00000 0.00000 -1.00000 0.97534 -0.06133 0.21203 0.00000 0.00000 -1.00000 -0.68093 -0.70395 0.20195 0.00000 0.00000 -1.00000 -0.27761 -0.93711 0.21155 0.00000 -0.00000 -1.00000 0.42095 -0.87930 0.22277 0.00000 0.00000 -1.00000 0.97404 -0.11000 0.19785 0.00000 0.00000 -1.00000 0.94065 0.28071 0.19074 0.00000 0.00000 -1.00000 0.28896 0.93480 0.20651 0.00000 0.00000 -1.00000 -0.29044 0.93586 0.19952 0.00000 0.00000 -1.00000 -0.66271 0.72143 0.20089 0.00000 0.00000 -1.00000 -0.95793 -0.19630 0.20936 -0.00000 0.00000 -1.00000 -0.94374 -0.20587 0.25878 -0.00000 0.00000 -1.00000 -0.73989 -0.61697 0.26815 0.00000 0.00000 -1.00000 -0.21552 -0.93642 0.27689 0.00000 -0.00000 -1.00000 0.77152 -0.57800 0.26583 0.00000 0.00000 -1.00000 0.81797 -0.51008 0.26598 0.00000 0.00000 -1.00000 0.90498 0.30563 0.29599 0.00000 0.00000 -1.00000 0.19523 0.94186 0.27346 0.00000 0.00000 -1.00000 -0.10485 0.95836 0.26563 0.00000 0.00000 -1.00000 -0.77641 0.55831 0.29236 0.00000 0.00000 -1.00000 -0.71405 0.53165 0.45550 0.00000 0.00000 -1.00000 -0.87043 -0.17251 0.46108 -0.00000 0.00000 -1.00000 -0.61578 -0.64498 0.45257 0.00000 0.00000 -1.00000 0.01981 -0.88826 0.45891 0.00000 -0.00000 -1.00000 0.50369 -0.73234 0.45823 0.00000 0.00000 -1.00000 0.88506 -0.15149 0.44013 0.00000 0.00000 -1.00000 0.82881 0.33487 0.44826 0.00000 0.00000 -1.00000 0.33562 0.82585 0.45313 0.00000 0.00000 -1.00000 -0.26405 0.85022 0.45541 0.00000 0.00000 -1.00000 0.84547 0.15789 0.51015 0.00000 0.00000 -1.00000 0.55569 0.64524 0.52428 0.00000 0.00000 -1.00000 -0.01669 0.85058 0.52558 0.00000 0.00000 -1.00000 -0.63346 0.58739 0.50369 0.00000 0.00000 -1.00000 -0.84113 0.18351 0.50874 -0.00000 0.00000 -1.00000 -0.70698 -0.47973 0.51965 0.00000 0.00000 -1.00000 -0.29607 -0.81028 0.50576 0.00000 -0.00000 -1.00000 0.35523 -0.78610 0.50582 0.00000 0.00000 -1.00000 0.74842 -0.42747 0.50709 0.00000 0.00000 -1.00000 -0.94007 0.11218 0.32199 -0.00000 0.00000 -1.00000 -0.83237 -0.44479 0.33065 0.00000 0.00000 -1.00000 -0.14755 -0.93056 0.33508 0.00000 -0.00000 -1.00000 0.38622 -0.86573 0.31837 0.00000 0.00000 -1.00000 0.85384 -0.41273 0.31718 0.00000 0.00000 -1.00000 0.93152 0.17562 0.31848 0.00000 0.00000 -1.00000 0.68425 0.64996 0.33070 0.00000 0.00000 -1.00000 -0.16878 0.92856 0.33060 0.00000 0.00000 -1.00000 -0.68606 0.65079 0.32527 0.00000 0.00000 -1.00000 0.88155 0.30674 0.35887 0.00000 0.00000 -1.00000 0.55863 0.75075 0.35257 0.00000 0.00000 -1.00000 -0.17602 0.91871 0.35354 0.00000 0.00000 -1.00000 -0.65577 0.67049 0.34700 0.00000 0.00000 -1.00000 -0.92945 0.06683 0.36285 -0.00000 0.00000 -1.00000 -0.71390 -0.60293 0.35611 0.00000 0.00000 -1.00000 -0.17720 -0.91831 0.35400 0.00000 -0.00000 -1.00000 0.38957 -0.85182 0.35020 0.00000 0.00000 -1.00000 0.84794 -0.39428 0.35432 0.00000 0.00000 -1.00000 -0.84056 0.23366 0.48874 0.00000 0.00000 -1.00000 -0.83460 -0.27271 0.47861 -0.00000 0.00000 -1.00000 -0.47715 -0.72825 0.49192 0.00000 0.00000 -1.00000 0.23279 -0.84034 0.48952 0.00000 -0.00000 -1.00000 0.71233 -0.51113 0.48097 0.00000 0.00000 -1.00000 0.87126 -0.04592 0.48866 0.00000 0.00000 -1.00000 0.67675 0.53843 0.50210 0.00000 0.00000 -1.00000 0.11062 0.86255 0.49372 0.00000 0.00000 -1.00000 -0.43288 0.75250 0.49634 0.00000 0.00000 -1.00000 0.79711 -0.54942 0.25050 0.00000 0.00000 -1.00000 0.82715 0.49407 0.26782 0.00000 0.00000 -1.00000 0.56030 0.78461 0.26543 0.00000 0.00000 -1.00000 -0.32422 0.90241 0.28378 0.00000 0.00000 -1.00000 -0.82122 0.49572 0.28260 0.00000 0.00000 -1.00000 -0.95853 -0.08963 0.27052 -0.00000 0.00000 -1.00000 -0.57726 -0.77237 0.26497 0.00000 0.00000 -1.00000 -0.36155 -0.89416 0.26412 0.00000 -0.00000 -1.00000 0.66200 -0.70817 0.24545 0.00000 0.00000 -1.00000 0.12629 0.94420 0.30420 0.00000 0.00000 -1.00000 -0.50181 0.80505 0.31635 0.00000 0.00000 -1.00000 -0.90044 0.28514 0.32848 -0.00000 0.00000 -1.00000 -0.84863 -0.41656 0.32604 0.00000 0.00000 -1.00000 -0.45631 -0.82773 0.32658 0.00000 0.00000 -1.00000 0.32315 -0.89323 0.31260 0.00000 -0.00000 -1.00000 0.72803 -0.61451 0.30391 0.00000 0.00000 -1.00000 0.94351 0.10865 0.31303 0.00000 0.00000 -1.00000 0.63333 0.71081 0.30601 0.00000 0.00000 -1.00000 0.67547 0.62443 0.39220 0.00000 0.00000 -1.00000 0.27010 0.87369 0.40461 0.00000 0.00000 -1.00000 -0.39263 0.82032 0.41583 0.00000 0.00000 -1.00000 -0.88534 0.23798 0.39942 0.00000 0.00000 -1.00000 -0.87821 -0.28792 0.38190 -0.00000 0.00000 -1.00000 -0.55605 -0.72796 0.40110 0.00000 0.00000 -1.00000 0.19721 -0.88810 0.41519 0.00000 -0.00000 -1.00000 0.68851 -0.60064 0.40643 0.00000 0.00000 -1.00000 0.90889 0.09749 0.40549 0.00000 0.00000 -1.00000 -0.84624 0.42977 0.31491 0.00000 0.00000 -1.00000 -0.89509 -0.32267 0.30771 -0.00000 0.00000 -1.00000 -0.48318 -0.82122 0.30353 0.00000 0.00000 -1.00000 0.06609 -0.94876 0.30900 0.00000 -0.00000 -1.00000 0.71269 -0.62789 0.31277 0.00000 0.00000 -1.00000 0.94187 -0.10541 0.31902 0.00000 0.00000 -1.00000 0.69566 0.64390 0.31851 0.00000 0.00000 -1.00000 0.21796 0.92974 0.29678 0.00000 0.00000 -1.00000 -0.38886 0.87176 0.29804 0.00000 0.00000 -1.00000 -0.78104 0.51020 0.36011 0.00000 0.00000 -1.00000 -0.85305 -0.37254 0.36540 -0.00000 0.00000 -1.00000 -0.46931 -0.80013 0.37355 0.00000 0.00000 -1.00000 0.29424 -0.87958 0.37385 0.00000 -0.00000 -1.00000 0.72181 -0.58257 0.37364 0.00000 0.00000 -1.00000 0.92302 -0.09380 0.37315 0.00000 0.00000 -1.00000 0.64039 0.68017 0.35675 0.00000 0.00000 -1.00000 0.15915 0.92339 0.34931 0.00000 0.00000 -1.00000 -0.45129 0.82534 0.33934 0.00000 0.00000 -1.00000 0.58417 -0.67400 0.45218 0.00000 0.00000 -1.00000 0.80173 -0.38672 0.45571 0.00000 0.00000 -1.00000 0.82220 0.30894 0.47807 0.00000 0.00000 -1.00000 0.39503 0.78547 0.47644 0.00000 0.00000 -1.00000 -0.22614 0.84996 0.47585 0.00000 0.00000 -1.00000 -0.68986 0.55419 0.46579 0.00000 0.00000 -1.00000 -0.87606 -0.12633 0.46537 -0.00000 0.00000 -1.00000 -0.60296 -0.65164 0.46022 0.00000 0.00000 -1.00000 -0.15601 -0.87518 0.45796 0.00000 -0.00000 -1.00000 -0.67980 -0.66957 0.29925 0.00000 0.00000 -1.00000 0.08648 -0.95295 0.29052 0.00000 -0.00000 -1.00000 0.51302 -0.80806 0.28957 0.00000 0.00000 -1.00000 0.92737 -0.21772 0.30427 0.00000 0.00000 -1.00000 0.83024 0.47434 0.29276 0.00000 0.00000 -1.00000 0.33551 0.89878 0.28220 0.00000 0.00000 -1.00000 -0.34239 0.89810 0.27603 0.00000 0.00000 -1.00000 -0.71701 0.63631 0.28463 0.00000 0.00000 -1.00000 -0.93098 -0.21599 0.29432 -0.00000 0.00000 -1.00000 0.97039 0.02488 0.24027 0.00000 0.00000 -1.00000 0.56750 0.78121 0.26011 0.00000 0.00000 -1.00000 -0.06486 0.96779 0.24325 0.00000 0.00000 -1.00000 -0.71084 0.66745 0.22185 0.00000 0.00000 -1.00000 -0.89876 0.37415 0.22858 -0.00000 0.00000 -1.00000 -0.80791 -0.54305 0.22884 0.00000 0.00000 -1.00000 -0.35574 -0.90476 0.23422 0.00000 -0.00000 -1.00000 0.47337 -0.85039 0.22970 0.00000 0.00000 -1.00000 0.85013 -0.47894 0.21885 0.00000 0.00000 -1.00000 0.78308 0.50530 0.36258 0.00000 0.00000 -1.00000 0.35641 0.85595 0.37460 0.00000 0.00000 -1.00000 -0.16285 0.91288 0.37435 0.00000 0.00000 -1.00000 -0.78956 0.48214 0.37966 0.00000 0.00000 -1.00000 -0.91614 -0.10888 0.38579 -0.00000 0.00000 -1.00000 -0.46078 -0.81666 0.34749 0.00000 0.00000 -1.00000 -0.18343 -0.91960 0.34740 0.00000 -0.00000 -1.00000 0.55520 -0.74083 0.37805 0.00000 0.00000 -1.00000 0.91556 -0.12547 0.38211 0.00000 0.00000 -1.00000 0.91184 -0.27841 0.30172 0.00000 0.00000 -1.00000 0.89290 0.33497 0.30087 0.00000 0.00000 -1.00000 0.57144 0.76365 0.30048 0.00000 0.00000 -1.00000 -0.23305 0.91802 0.32081 0.00000 0.00000 -1.00000 -0.76522 0.55260 0.33025 0.00000 0.00000 -1.00000 -0.92539 0.20008 0.32189 -0.00000 0.00000 -1.00000 -0.72598 -0.59713 0.34117 0.00000 0.00000 -1.00000 -0.05679 -0.94895 0.31026 0.00000 -0.00000 -1.00000 0.39113 -0.86694 0.30894 0.00000 0.00000 -1.00000 0.80730 -0.46383 0.36488 0.00000 0.00000 -1.00000 0.92673 0.09485 0.36355 0.00000 0.00000 -1.00000 0.68103 0.63354 0.36720 0.00000 0.00000 -1.00000 0.04253 0.93030 0.36432 0.00000 0.00000 -1.00000 -0.57033 0.74227 0.35179 0.00000 0.00000 -1.00000 -0.89396 0.27106 0.35687 -0.00000 0.00000 -1.00000 -0.82458 -0.43191 0.36541 0.00000 0.00000 -1.00000 -0.35498 -0.86683 0.35015 0.00000 0.00000 -1.00000 0.21764 -0.90815 0.35762 0.00000 -0.00000 -1.00000 -0.81288 0.48847 0.31723 0.00000 0.00000 -1.00000 -0.91296 -0.26374 0.31138 -0.00000 0.00000 -1.00000 -0.52641 -0.79208 0.30904 0.00000 0.00000 -1.00000 -0.05187 -0.94789 0.31434 0.00000 -0.00000 -1.00000 0.72328 -0.61645 0.31120 0.00000 0.00000 -1.00000 0.93003 -0.19354 0.31239 0.00000 0.00000 -1.00000 0.76026 0.56597 0.31887 0.00000 0.00000 -1.00000 0.39319 0.86530 0.31090 0.00000 0.00000 -1.00000 -0.36872 0.87473 0.31448 0.00000 0.00000 -1.00000 -0.28571 0.91335 0.29011 0.00000 0.00000 -1.00000 -0.93735 0.19611 0.28795 0.00000 0.00000 -1.00000 -0.92523 -0.25519 0.28077 -0.00000 0.00000 -1.00000 -0.52814 -0.79820 0.28972 0.00000 0.00000 -1.00000 0.07315 -0.95495 0.28760 0.00000 -0.00000 -1.00000 0.81410 -0.50680 0.28356 0.00000 0.00000 -1.00000 0.96201 -0.04213 0.26975 0.00000 0.00000 -1.00000 0.84387 0.45472 0.28482 0.00000 0.00000 -1.00000 0.11760 0.95152 0.28421 0.00000 0.00000 -1.00000 0.19612 0.92667 0.32065 0.00000 0.00000 -1.00000 -0.44510 0.84529 0.29559 0.00000 0.00000 -1.00000 -0.78727 0.53757 0.30204 0.00000 0.00000 -1.00000 -0.90758 -0.28572 0.30768 -0.00000 0.00000 -1.00000 -0.54295 -0.78561 0.29670 0.00000 0.00000 -1.00000 -0.00003 -0.95165 0.30717 0.00000 -0.00000 -1.00000 0.68055 -0.66791 0.30125 0.00000 0.00000 -1.00000 0.94750 0.11056 0.30003 0.00000 0.00000 -1.00000 0.85979 0.40764 0.30756 0.00000 0.00000 -1.00000 0.46442 -0.79967 0.38057 0.00000 0.00000 -1.00000 0.83774 -0.39492 0.37714 0.00000 0.00000 -1.00000 0.87185 0.32097 0.36993 0.00000 0.00000 -1.00000 0.46231 0.80928 0.36240 0.00000 0.00000 -1.00000 -0.19477 0.91578 0.35130 0.00000 0.00000 -1.00000 -0.65681 0.66840 0.34906 0.00000 0.00000 -1.00000 -0.92794 0.05494 0.36865 -0.00000 0.00000 -1.00000 -0.70656 -0.61201 0.35528 0.00000 0.00000 -1.00000 -0.24587 -0.89805 0.36477 0.00000 -0.00000 -1.00000 0.96872 -0.03397 0.24583 0.00000 0.00000 -1.00000 0.75885 0.60527 0.24042 0.00000 0.00000 -1.00000 0.15604 0.95394 0.25622 0.00000 0.00000 -1.00000 -0.63962 0.72828 0.24597 0.00000 0.00000 -1.00000 -0.89934 0.36682 0.23796 0.00000 0.00000 -1.00000 -0.91296 -0.33396 0.23446 -0.00000 0.00000 -1.00000 -0.38417 -0.88872 0.25018 0.00000 0.00000 -1.00000 0.13979 -0.95664 0.25555 0.00000 -0.00000 -1.00000 0.80226 -0.54443 0.24490 0.00000 0.00000 -1.00000 -0.95250 -0.27618 0.12834 -0.00000 0.00000 -1.00000 -0.37283 -0.91707 0.14137 0.00000 -0.00000 -1.00000 0.43922 -0.88711 0.14184 0.00000 0.00000 -1.00000 0.70172 -0.69739 0.14572 0.00000 0.00000 -1.00000 0.98121 0.12436 0.14753 0.00000 0.00000 -1.00000 0.51237 0.84791 0.13609 0.00000 0.00000 -1.00000 0.26061 0.95568 0.13695 0.00000 0.00000 -1.00000 -0.52160 0.84238 0.13541 0.00000 0.00000 -1.00000 -0.99047 0.02313 0.13578 0.00000 0.00000 -1.00000 0.84853 -0.33275 0.41143 0.00000 0.00000 -1.00000 0.89587 0.17044 0.41034 0.00000 0.00000 -1.00000 0.52942 0.73875 0.41710 0.00000 0.00000 -1.00000 -0.05505 0.90905 0.41304 0.00000 0.00000 -1.00000 -0.59210 0.68658 0.42193 0.00000 0.00000 -1.00000 -0.90917 0.00279 0.41642 -0.00000 0.00000 -1.00000 -0.74520 -0.53612 0.39654 0.00000 0.00000 -1.00000 -0.32003 -0.85679 0.40434 0.00000 -0.00000 -1.00000 0.44371 -0.79417 0.41523 0.00000 0.00000 -1.00000 0.06579 -0.84938 0.52367 0.00000 -0.00000 -1.00000 0.49716 -0.69494 0.51951 0.00000 0.00000 -1.00000 0.82908 -0.16485 0.53427 0.00000 0.00000 -1.00000 0.67654 0.50708 0.53401 0.00000 0.00000 -1.00000 0.24009 0.82020 0.51925 0.00000 0.00000 -1.00000 -0.22833 0.81595 0.53112 0.00000 0.00000 -1.00000 -0.76380 0.35232 0.54082 0.00000 0.00000 -1.00000 -0.84042 -0.09052 0.53432 -0.00000 0.00000 -1.00000 -0.55039 -0.63683 0.53992 0.00000 0.00000 -1.00000 0.50009 -0.76628 0.40339 0.00000 0.00000 -1.00000 0.87835 -0.25288 0.40565 0.00000 0.00000 -1.00000 0.86231 0.29651 0.41048 0.00000 0.00000 -1.00000 0.36564 0.83403 0.41316 0.00000 0.00000 -1.00000 -0.11702 0.90122 0.41725 0.00000 0.00000 -1.00000 -0.76715 0.48501 0.41983 0.00000 0.00000 -1.00000 -0.91592 -0.04537 0.39879 -0.00000 0.00000 -1.00000 -0.66027 -0.63371 0.40305 0.00000 0.00000 -1.00000 -0.08264 -0.91233 0.40103 0.00000 -0.00000 -1.00000 0.56905 0.78095 0.25747 0.00000 0.00000 -1.00000 0.04975 0.97049 0.23594 0.00000 0.00000 -1.00000 -0.40900 0.87978 0.24228 0.00000 0.00000 -1.00000 -0.97288 0.01618 0.23074 -0.00000 0.00000 -1.00000 -0.95233 -0.19894 0.23127 0.00000 0.00000 -1.00000 -0.27544 -0.92688 0.25501 0.00000 0.00000 -1.00000 0.30448 -0.92426 0.23031 0.00000 -0.00000 -1.00000 0.84150 -0.48493 0.23816 0.00000 0.00000 -1.00000 0.96701 0.04399 0.25090 0.00000 0.00000 -1.00000 0.03387 0.96369 0.26487 0.00000 0.00000 -1.00000 -0.53515 0.79481 0.28616 0.00000 0.00000 -1.00000 -0.95752 -0.02127 0.28757 -0.00000 0.00000 -1.00000 -0.81677 -0.51520 0.25973 0.00000 0.00000 -1.00000 -0.55613 -0.78560 0.27121 0.00000 -0.00000 -1.00000 0.53752 -0.79637 0.27725 0.00000 0.00000 -1.00000 0.85041 -0.45151 0.27006 0.00000 0.00000 -1.00000 0.96266 0.10150 0.25096 0.00000 0.00000 -1.00000 0.73228 0.62523 0.26991 0.00000 0.00000 -1.00000 0.88113 -0.32673 0.34184 0.00000 0.00000 -1.00000 0.74297 0.58481 0.32557 0.00000 0.00000 -1.00000 0.48019 0.82220 0.30563 0.00000 0.00000 -1.00000 -0.21760 0.92683 0.30601 0.00000 0.00000 -1.00000 -0.67935 0.66338 0.31371 0.00000 0.00000 -1.00000 -0.94196 0.08294 0.32531 -0.00000 0.00000 -1.00000 -0.76429 -0.55704 0.32491 0.00000 0.00000 -1.00000 -0.14145 -0.92939 0.34091 0.00000 -0.00000 -1.00000 0.40806 -0.84751 0.33944 0.00000 0.00000 -1.00000 0.51422 0.78298 0.35003 0.00000 0.00000 -1.00000 -0.04197 0.94052 0.33712 0.00000 0.00000 -1.00000 -0.65324 0.66946 0.35369 0.00000 0.00000 -1.00000 -0.93261 0.08589 0.35051 -0.00000 0.00000 -1.00000 -0.78616 -0.51550 0.34089 0.00000 0.00000 -1.00000 -0.38426 -0.85413 0.35044 0.00000 -0.00000 -1.00000 0.43868 -0.82891 0.34710 0.00000 0.00000 -1.00000 0.78515 -0.51169 0.34887 0.00000 0.00000 -1.00000 0.90257 0.23790 0.35884 0.00000 0.00000 -1.00000 0.76266 0.41819 0.49342 0.00000 0.00000 -1.00000 0.37496 0.78576 0.49192 0.00000 0.00000 -1.00000 -0.40425 0.77766 0.48148 0.00000 0.00000 -1.00000 -0.75042 0.47327 0.46140 0.00000 0.00000 -1.00000 -0.86212 -0.18712 0.47088 -0.00000 0.00000 -1.00000 -0.68125 -0.55700 0.47504 0.00000 0.00000 -1.00000 0.01002 -0.86906 0.49460 0.00000 -0.00000 -1.00000 0.50334 -0.71351 0.48740 0.00000 0.00000 -1.00000 0.84765 -0.20492 0.48938 0.00000 0.00000 -1.00000 0.36421 -0.89432 0.25987 0.00000 -0.00000 -1.00000 0.67014 -0.70205 0.24090 0.00000 0.00000 -1.00000 0.94884 -0.19377 0.24931 0.00000 0.00000 -1.00000 0.72288 0.63818 0.26489 0.00000 0.00000 -1.00000 0.44277 0.85317 0.27578 0.00000 0.00000 -1.00000 -0.46634 0.84012 0.27700 0.00000 0.00000 -1.00000 -0.79682 0.54062 0.26983 0.00000 0.00000 -1.00000 -0.95429 -0.09623 0.28296 -0.00000 0.00000 -1.00000 -0.50079 -0.81219 0.29926 0.00000 0.00000 -1.00000 -0.85803 0.45982 0.22880 0.00000 0.00000 -1.00000 -0.94881 0.21644 0.23001 -0.00000 0.00000 -1.00000 -0.78496 -0.57858 0.22156 0.00000 0.00000 -1.00000 -0.31614 -0.91860 0.23713 0.00000 -0.00000 -1.00000 0.52752 -0.81700 0.23287 0.00000 0.00000 -1.00000 0.94536 -0.24836 0.21121 0.00000 0.00000 -1.00000 0.96903 0.13194 0.20874 0.00000 0.00000 -1.00000 0.39219 0.89252 0.22271 0.00000 0.00000 -1.00000 0.06660 0.97131 0.22829 0.00000 0.00000 -1.00000 -0.87163 0.23051 0.43258 0.00000 0.00000 -1.00000 -0.87446 -0.23326 0.42534 -0.00000 0.00000 -1.00000 -0.37918 -0.81341 0.44112 0.00000 0.00000 -1.00000 0.18675 -0.87894 0.43885 0.00000 -0.00000 -1.00000 0.73559 -0.51771 0.43691 0.00000 0.00000 -1.00000 0.90891 0.01803 0.41660 0.00000 0.00000 -1.00000 0.64873 0.63408 0.42083 0.00000 0.00000 -1.00000 0.20335 0.88075 0.42771 0.00000 0.00000 -1.00000 -0.47981 0.76630 0.42728 0.00000 0.00000 -1.00000 0.69633 -0.65399 0.29567 0.00000 0.00000 -1.00000 0.95652 -0.00504 0.29164 0.00000 0.00000 -1.00000 0.77763 0.55546 0.29454 0.00000 0.00000 -1.00000 0.21098 0.92778 0.30776 0.00000 0.00000 -1.00000 -0.43380 0.84720 0.30671 0.00000 0.00000 -1.00000 -0.89191 0.33568 0.30301 -0.00000 0.00000 -1.00000 -0.90061 -0.30708 0.30759 0.00000 0.00000 -1.00000 -0.40867 -0.85973 0.30636 0.00000 0.00000 -1.00000 0.28713 -0.90979 0.29972 0.00000 -0.00000 -1.00000 0.70225 0.47694 0.52855 0.00000 0.00000 -1.00000 0.30549 0.80019 0.51612 0.00000 0.00000 -1.00000 -0.32676 0.79009 0.51863 0.00000 0.00000 -1.00000 -0.76023 0.40015 0.51180 0.00000 0.00000 -1.00000 -0.85119 -0.14795 0.50357 -0.00000 0.00000 -1.00000 -0.65534 -0.55227 0.51530 0.00000 0.00000 -1.00000 0.00872 -0.84761 0.53055 0.00000 -0.00000 -1.00000 0.63472 -0.57404 0.51731 0.00000 0.00000 -1.00000 0.81465 -0.25287 0.52193 0.00000 0.00000 -1.00000 0.50512 0.78384 0.36118 0.00000 0.00000 -1.00000 -0.13282 0.92089 0.36649 0.00000 0.00000 -1.00000 -0.74267 0.56524 0.35909 0.00000 0.00000 -1.00000 -0.93589 -0.05452 0.34805 -0.00000 0.00000 -1.00000 -0.66495 -0.67315 0.32359 0.00000 0.00000 -1.00000 -0.32312 -0.89017 0.32124 0.00000 -0.00000 -1.00000 0.39239 -0.85347 0.34296 0.00000 0.00000 -1.00000 0.86806 -0.35762 0.34436 0.00000 0.00000 -1.00000 0.88092 0.31028 0.35735 0.00000 0.00000 -1.00000 -0.24583 -0.90625 0.34391 0.00000 -0.00000 -1.00000 0.39584 -0.84921 0.34950 0.00000 0.00000 -1.00000 0.86894 -0.36424 0.33507 0.00000 0.00000 -1.00000 0.89898 0.26651 0.34757 0.00000 0.00000 -1.00000 0.59735 0.72116 0.35085 0.00000 0.00000 -1.00000 -0.21983 0.91378 0.34157 0.00000 0.00000 -1.00000 -0.66361 0.66290 0.34670 0.00000 0.00000 -1.00000 -0.93976 0.01767 0.34138 -0.00000 0.00000 -1.00000 -0.75014 -0.56899 0.33695 0.00000 0.00000 -1.00000</float_array><technique_common><accessor source="#normals-array" count="1080" stride="3"><param name="X" type="float"/><param name="Y" type="float"/><param name="Z" type="float"/></accessor></technique_common></source>
<vertices id="vertices"><input semantic="POSITION" source="#positions"/></vertices><triangles count="1080"><input semantic="VERTEX" source="#vertices" offset="0"/><input semantic="NORMAL" source="#normals" offset="1"/><p>0 0 1 0 9 0 10 1 1 1 0 1 1 2 2 2 9 2 10 3 2 3 1 3 2 4 3 4 9 4 10 5 3 5 2 5 3 6 4 6 9 6 10 7 4 7 3 7 4 8 5 8 9 8 10 9 5 9 4 9 5 10 6 10 9 10 10 11 6 11 5 11 6 12 7 12 9 12 10 13 7 13 6 13 7 14 8 14 9 14 10 15 8 15 7 15 8 16 0 16 9 16 10 17 0 17 8 17 11 18 12 18 20 18 21 19 12 19 11 19 12 20 13 20 20 20 21 21 13 21 12 21 13 22 14 22 20 22 21 23 14 23 13 23 14 24 15 24 20 24 21 25 15 25 14 25 15 26 16 26 20 26 21 27 16 27 15 27 16 28 17 28 20 28 21 29 17 29 16 29 17 30 18 30 20 30 21 31 18 31 17 31 18 32 19 32 20 32 21 33 19 33 18 33 19 34 11 34 20 34 21 35 11 35 19 35 22 36 23 36 31 36 32 37 23 37 22 37 23 38 24 38 31 38 32 39 24 39 23 39 24 40 25 40 31 40 32 41 25 41 24 41 25 42 26 42 31 42 32 43 26 43 25 43 26 44 27 44 31 44 32 45 27 45 26 45 27 46 28 46 31 46 32 47 28 47 27 47 28 48 29 48 31 48 32 49 29 49 28 49 29 50 30 50 31 50 32 51 30 51 29 51 30 52 22 52 31 52 32 53 22 53 30 53 33 54 34 54 42 54 43 55 34 55 33 55 34 56 35 56 42 56 43 57 35 57 34 57 35 58 36 58 42 58 43 59 36 59 35 59 36 60 37 60 42 60 43 61 37 61 36 61 37 62 38 62 42 62 43 63 38 63 37 63 38 64 39 64 42 64 43 65 39 65 38 65 39 66 40 66 42 66 43 67 40 67 39 67 40 68 41 68 42 68 43 69 41 69 40 69 41 70 33 70 42 70 43 71 33 71 41 71 44 72 45 72 53 72 54 73 45 73 44 73 45 74 46 74 53 74 54 75 46 75 45 75 46 76 47 76 53 76 54 77 47 77 46 77 47 78 48 78 53 78 54 79 48 79 47 79 48 80 49 80 53 80 54 81 49 81 48 81 49 82 50 82 53 82 54 83 50 83 49 83 50 84 51 84 53 84 54 85 51 85 50 85 51 86 52 86 53 86 54 87 52 87 51 87 52 88 44 88 53 88 54 89 44 89 52 89 55 90 56 90 64 90 65 91 56 91 55 91 56 92 57 92 64 92 65 93 57 93 56 93 57 94 58 94 64 94 65 95 58 95 57 95 58 96 59 96 64 96 65 97 59 97 58 97 59 98 60 98 64 98 65 99 60 99 59 99 60 100 61 100 64 100 65 101 61 101 60 101 61 102 62 102 64 102 65 103 62 103 61 103 62 104 63 104 64 104 65 105 63 105 62 105 63 106 55 106 64 106 65 107 55 107 63 107 66 108 67 108 75 108 76 109 67 109 66 109 67 110 68 110 75 110 76 111 68 111 67 111 68 112 69 112 75 112 76 113 69 113 68 113 69 114 70 114 75 114 76 115 70 115 69 115 70 116 71 116 75 116 76 117 71 117 70 117 71 118 72 118 75 118 76 119 72 119 71 119 72 120 73 120 75 120 76 121 73 121 72 121 73 122 74 122 75 122 76 123 74 123 73 123 74 124 66 124 75 124 76 125 66 125 74 125 77 126 78 126 86 126 87 127 78 127 77 127 78 128 79 128 86 128 87 129 79 129 78 129 79 130 80 130 86 130 87 131 80 131 79 131 80 132 81 132 86 132 87 133 81 133 80 133 81 134 82 134 86 134 87 135 82 135 81 135 82 136 83 136 86 136 87 137 83 137 82 137 83 138 84 138 86 138 87 139 84 139 83 139 84 140 85 140 86 140 87 141 85 141 84 141 85 142 77 142 86 142 87 143 77 143 85 143 88 144 89 144 97 144 98 145 89 145 88 145 89 146 90 146 97 146 98 147 90 147 89 147 90 148 91 148 97 148 98 149 91 149 90 149 91 150 92 150 97 150 98 151 92 151 91 151 92 152 93 152 97 152 98 153 93 153 92 153 93 154 94 154 97 154 98 155 94 155 93 155 94 156 95 156 97 156 98 157 95 157 94 157 95 158 96 158 97 158 98 159 96 159 95 159 96 160 88 160 97 160 98 161 88 161 96 161 99 162 100 162 108 162 109 163 100 163 99 163 100 164 101 164 108 164 109 165 101 165 100 165 101 166 102 166 108 166 109 167 102 167 101 167 102 168 103 168 108 168 109 169 103 169 102 169 103 170 104 170 108 170 109 171 104 171 103 171 104 172 105 172 108 172 109 173 105 173 104 173 105 174 106 174 108 174 109 175 106 175 105 175 106 176 107 176 108 176 109 177 107 177 106 177 107 178 99 178 108 178 109 179 99 179 107 179 110 180 111 180 119 180 120 181 111 181 110 181 111 182 112 182 119 182 120 183 112 183 111 183 112 184 113 184 119 184 120 185 113 185 112 185 113 186 114 186 119 186 120 187 114 187 113 187 114 188 115 188 119 188 120 189 115 189 114 189 115 190 116 190 119 190 120 191 116 191 115 191 116 192 117 192 119 192 120 193 117 193 116 193 117 194 118 194 119 194 120 195 118 195 117 195 118 196 110 196 119 196 120 197 110 197 118 197 121 198 122 198 130 198 131 199 122 199 121 199 122 200 123 200 130 200 131 201 123 201 122 201 123 202 124 202 130 202 131 203 124 203 123 203 124 204 125 204 130 204 131 205 125 205 124 205 125 206 126 206 130 206 131 207 126 207 125 207 126 208 127 208 130 208 131 209 127 209 126 209 127 210 128 210 130 210 131 211 128 211 127 211 128 212 129 212 130 212 131 213 129 213 128 213 129 214 121 214 130 214 131 215 121 215 129 215 132 216 133 216 141 216 142 217 133 217 132 217 133 218 134 218 141 218 142 219 134 219 133 219 134 220 135 220 141 220 142 221 135 221 134 221 135 222 136 222 141 222 142 223 136 223 135 223 136 224 137 224 141 224 142 225 137 225 136 225 137 226 138 226 141 226 142 227 138 227 137 227 138 228 139 228 141 228 142 229 139 229 138 229 139 230 140 230 141 230 142 231 140 231 139 231 140 232 132 232 141 232 142 233 132 233 140 233 143 234 144 234 152 234 153 235 144 235 143 235 144 236 145 236 152 236 153 237 145 237 144 237 145 238 146 238 152 238 153 239 146 239 145 239 146 240 147 240 152 240 153 241 147 241 146 241 147 242 148 242 152 242 153 243 148 243 147 243 148 244 149 244 152 244 153 245 149 245 148 245 149 246 150 246 152 246 153 247 150 247 149 247 150 248 151 248 152 248 153 249 151 249 150 249 151 250 143 250 152 250 153 251 143 251 151 251 154 252 155 252 163 252 164 253 155 253 154 253 155 254 156 254 163 254 164 255 156 255 155 255 156 256 157 256 163 256 164 257 157 257 156 257 157 258 158 258 163 258 164 259 158 259 157 259 158 260 159 260 163 260 164 261 159 261 158 261 159 262 160 262 163 262 164 263 160 263 159 263 160 264 161 264 163 264 164 265 161 265 160 265 161 266 162 266 163 266 164 267 162 267 161 267 162 268 154 268 163 268 164 269 154 269 162 269 165 270 166 270 174 270 175 271 166 271 165 271 166 272 167 272 174 272 175 273 167 273 166 273 167 274 168 274 174 274 175 275 168 275 167 275 168 276 169 276 174 276 175 277 169 277 168 277 169 278 170 278 174 278 175 279 170 279 169 279 170 280 171 280 174 280 175 281 171 281 170 281 171 282 172 282 174 282 175 283 172 283 171 283 172 284 173 284 174 284 175 285 173 285 172 285 173 286 165 286 174 286 175 287 165 287 173 287 176 288 177 288 185 288 186 289 177 289 176 289 177 290 178 290 185 290 186 291 178 291 177 291 178 292 179 292 185 292 186 293 179 293 178 293 179 294 180 294 185 294 186 295 180 295 179 295 180 296 181 296 185 296 186 297 181 297 180 297 181 298 182 298 185 298 186 299 182 299 181 299 182 300 183 300 185 300 186 301 183 301 182 301 183 302 184 302 185 302 186 303 184 303 183 303 184 304 176 304 185 304 186 305 176 305 184 305 187 306 188 306 196 306 197 307 188 307 187 307 188 308 189 308 196 308 197 309 189 309 188 309 189 310 190 310 196 310 197 311 190 311 189 311 190 312 191 312 196 312 197 313 191 313 190 313 191 314 192 314 196 314 197 315 192 315 191 315 192 316 193 316 196 316 197 317 193 317 192 317 193 318 194 318 196 318 197 319 194 319 193 319 194 320 195 320 196 320 197 321 195 321 194 321 195 322 187 322 196 322 197 323 187 323 195 323 198 324 199 324 207 324 208 325 199 325 198 325 199 326 200 326 207 326 208 327 200 327 199 327 200 328 201 328 207 328 208 329 201 329 200 329 201 330 202 330 207 330 208 331 202 331 201 331 202 332 203 332 207 332 208 333 203 333 202 333 203 334 204 334 207 334 208 335 204 335 203 335 204 336 205 336 207 336 208 337 205 337 204 337 205 338 206 338 207 338 208 339 206 339 205 339 206 340 198 340 207 340 208 341 198 341 206 341 209 342 210 342 218 342 219 343 210 343 209 343 210 344 211 344 218 344 219 345 211 345 210 345 211 346 212 346 218 346 219 347 212 347 211 347 212 348 213 348 218 348 219 349 213 349 212 349 213 350 214 350 218 350 219 351 214 351 213 351 214 352 215 352 218 352 219 353 215 353 214 353 215 354 216 354 218 354 219 355 216 355 215 355 216 356 217 356 218 356 219 357 217 357 216 357 217 358 209 358 218 358 219 359 209 359 217 359 220 360 221 360 229 360 230 361 221 361 220 361 221 362 222 362 229 362 230 363 222 363 221 363 222 364 223 364 229 364 230 365 223 365 222 365 223 366 224 366 229 366 230 367 224 367 223 367 224 368 225 368 229 368 230 369 225 369 224 369 225 370 226 370 229 370 230 371 226 371 225 371 226 372 227 372 229 372 230 373 227 373 226 373 227 374 228 374 229 374 230 375 228 375 227 375 228 376 220 376 229 376 230 377 220 377 228 377 231 378 232 378 240 378 241 379 232 379 231 379 232 380 233 380 240 380 241 381 233 381 232 381 233 382 234 382 240 382 241 383 234 383 233 383 234 384 235 384 240 384 241 385 235 385 234 385 235 386 236 386 240 386 241 387 236 387 235 387 236 388 237 388 240 388 241 389 237 389 236 389 237 390 238 390 240 390 241 391 238 391 237 391 238 392 239 392 240 392 241 393 239 393 238 393 239 394 231 394 240 394 241 395 231 395 239 395 242 396 243 396 251 396 252 397 243 397 242 397 243 398 244 398 251 398 252 399 244 399 243 399 244 400 245 400 251 400 252 401 245 401 244 401 245 402 246 402 251 402 252 403 246 403 245 403 246 404 247 404 251 404 252 405 247 405 246 405 247 406 248 406 251 406 252 407 248 407 247 407 248 408 249 408 251 408 252 409 249 409 248 409 249 410 250 410 251 410 252 411 250 411 249 411 250 412 242 412 251 412 252 413 242 413 250 413 253 414 254 414 262 414 263 415 254 415 253 415 254 416 255 416 262 416 263 417 255 417 254 417 255 418 256 418 262 418 263 419 256 419 255 419 256 420 257 420 262 420 263 421 257 421 256 421 257 422 258 422 262 422 263 423 258 423 257 423 258 424 259 424 262 424 263 425 259 425 258 425 259 426 260 426 262 426 263 427 260 427 259 427 260 428 261 428 262 428 263 429 261 429 260 429 261 430 253 430 262 430 263 431 253 431 261 431 264 432 265 432 273 432 274 433 265 433 264 433 265 434 266 434 273 434 274 435 266 435 265 435 266 436 267 436 273 436 274 437 267 437 266 437 267 438 268 438 273 438 274 439 268 439 267 439 268 440 269 440 273 440 274 441 269 441 268 441 269 442 270 442 273 442 274 443 270 443 269 443 270 444 271 444 273 444 274 445 271 445 270 445 271 446 272 446 273 446 274 447 272 447 271 447 272 448 264 448 273 448 274 449 264 449 272 449 275 450 276 450 284 450 285 451 276 451 275 451 276 452 277 452 284 452 285 453 277 453 276 453 277 454 278 454 284 454 285 455 278 455 277 455 278 456 279 456 284 456 285 457 279 457 278 457 279 458 280 458 284 458 285 459 280 459 279 459 280 460 281 460 284 460 285 461 281 461 280 461 281 462 282 462 284 462 285 463 282 463 281 463 282 464 283 464 284 464 285 465 283 465 282 465 283 466 275 466 284 466 285 467 275 467 283 467 286 468 287 468 295 468 296 469 287 469 286 469 287 470 288 470 295 470 296 471 288 471 287 471 288 472 289 472 295 472 296 473 289 473 288 473 289 474 290 474 295 474 296 475 290 475 289 475 290 476 291 476 295 476 296 477 291 477 290 477 291 478 292 478 295 478 296 479 292 479 291 479 292 480 293 480 295 480 296 481 293 481 292 481 293 482 294 482 295 482 296 483 294 483 293 483 294 484 286 484 295 484 296 485 286 485 294 485 297 486 298 486 306 486 307 487 298 487 297 487 298 488 299 488 306 488 307 489 299 489 298 489 299 490 300 490 306 490 307 491 300 491 299 491 300 492 301 492 306 492 307 493 301 493 300 493 301 494 302 494 306 494 307 495 302 495 301 495 302 496 303 496 306 496 307 497 303 497 302 497 303 498 304 498 306 498 307 499 304 499 303 499 304 500 305 500 306 500 307 501 305 501 304 501 305 502 297 502 306 502 307 503 297 503 305 503 308 504 309 504 317 504 318 505 309 505 308 505 309 506 310 506 317 506 318 507 310 507 309 507 310 508 311 508 317 508 318 509 311 509 310 509 311 510 312 510 317 510 318 511 312 511 311 511 312 512 313 512 317 512 318 513 313 513 312 513 313 514 314 514 317 514 318 515 314 515 313 515 314 516 315 516 317 516 318 517 315 517 314 517 315 518 316 518 317 518 318 519 316 519 315 519 316 520 308 520 317 520 318 521 308 521 316 521 319 522 320 522 328 522 329 523 320 523 319 523 320 524 321 524 328 524 329 525 321 525 320 525 321 526 322 526 328 526 329 527 322 527 321 527 322 528 323 528 328 528 329 529 323 529 322 529 323 530 324 530 328 530 329 531 324 531 323 531 324 532 325 532 328 532 329 533 325 533 324 533 325 534 326 534 328 534 329 535 326 535 325 535 326 536 327 536 328 536 329 537 327 537 326 537 327 538 319 538 328 538 329 539 319 539 327 539 330 540 331 540 339 540 340 541 331 541 330 541 331 542 332 542 339 542 340 543 332 543 331 543 332 544 333 544 339 544 340 545 333 545 332 545 333 546 334 546 339 546 340 547 334 547 333 547 334 548 335 548 339 548 340 549 335 549 334 549 335 550 336 550 339 550 340 551 336 551 335 551 336 552 337 552 339 552 340 553 337 553 336 553 337 554 338 554 339 554 340 555 338 555 337 555 338 556 330 556 339 556 340 557 330 557 338 557 341 558 342 558 350 558 351 559 342 559 341 559 342 560 343 560 350 560 351 561 343 561 342 561 343 562 344 562 350 562 351 563 344 563 343 563 344 564 345 564 350 564 351 565 345 565 344 565 345 566 346 566 350 566 351 567 346 567 345 567 346 568 347 568 350 568 351 569 347 569 346 569 347 570 348 570 350 570 351 571 348 571 347 571 348 572 349 572 350 572 351 573 349 573 348 573 349 574 341 574 350 574 351 575 341 575 349 575 352 576 353 576 361 576 362 577 353 577 352 577 353 578 354 578 361 578 362 579 354 579 353 579 354 580 355 580 361 580 362 581 355 581 354 581 355 582 356 582 361 582 362 583 356 583 355 583 356 584 357 584 361 584 362 585 357 585 356 585 357 586 358 586 361 586 362 587 358 587 357 587 358 588 359 588 361 588 362 589 359 589 358 589 359 590 360 590 361 590 362 591 360 591 359 591 360 592 352 592 361 592 362 593 352 593 360 593 363 594 364 594 372 594 373 595 364 595 363 595 364 596 365 596 372 596 373 597 365 597 364 597 365 598 366 598 372 598 373 599 366 599 365 599 366 600 367 600 372 600 373 601 367 601 366 601 367 602 368 602 372 602 373 603 368 603 367 603 368 604 369 604 372 604 373 605 369 605 368 605 369 606 370 606 372 606 373 607 370 607 369 607 370 608 371 608 372 608 373 609 371 609 370 609 371 610 363 610 372 610 373 611 363 611 371 611 374 612 375 612 383 612 384 613 375 613 374 613 375 614 376 614 383 614 384 615 376 615 375 615 376 616 377 616 383 616 384 617 377 617 376 617 377 618 378 618 383 618 384 619 378 619 377 619 378 620 379 620 383 620 384 621 379 621 378 621 379 622 380 622 383 622 384 623 380 623 379 623 380 624 381 624 383 624 384 625 381 625 380 625 381 626 382 626 383 626 384 627 382 627 381 627 382 628 374 628 383 628 384 629 374 629 382 629 385 630 386 630 394 630 395 631 386 631 385 631 386 632 387 632 394 632 395 633 387 633 386 633 387 634 388 634 394 634 395 635 388 635 387 635 388 636 389 636 394 636 395 637 389 637 388 637 389 638 390 638 394 638 395 639 390 639 389 639 390 640 391 640 394 640 395 641 391 641 390 641 391 642 392 642 394 642 395 643 392 643 391 643 392 644 393 644 394 644 395 645 393 645 392 645 393 646 385 646 394 646 395 647 385 647 393 647 396 648 397 648 405 648 406 649 397 649 396 649 397 650 398 650 405 650 406 651 398 651 397 651 398 652 399 652 405 652 406 653 399 653 398 653 399 654 400 654 405 654 406 655 400 655 399 655 400 656 401 656 405 656 406 657 401 657 400 657 401 658 402 658 405 658 406 659 402 659 401 659 402 660 403 660 405 660 406 661 403 661 402 661 403 662 404 662 405 662 406 663 404 663 403 663 404 664 396 664 405 664 406 665 396 665 404 665 407 666 408 666 416 666 417 667 408 667 407 667 408 668 409 668 416 668 417 669 409 669 408 669 409 670 410 670 416 670 417 671 410 671 409 671 410 672 411 672 416 672 417 673 411 673 410 673 411 674 412 674 416 674 417 675 412 675 411 675 412 676 413 676 416 676 417 677 413 677 412 677 413 678 414 678 416 678 417 679 414 679 413 679 414 680 415 680 416 680 417 681 415 681 414 681 415 682 407 682 416 682 417 683 407 683 415 683 418 684 419 684 427 684 428 685 419 685 418 685 419 686 420 686 427 686 428 687 420 687 419 687 420 688 421 688 427 688 428 689 421 689 420 689 421 690 422 690 427 690 428 691 422 691 421 691 422 692 423 692 427 692 428 693 423 693 422 693 423 694 424 694 427 694 428 695 424 695 423 695 424 696 425 696 427 696 428 697 425 697 424 697 425 698 426 698 427 698 428 699 426 699 425 699 426 700 418 700 427 700 428 701 418 701 426 701 429 702 430 702 438 702 439 703 430 703 429 703 430 704 431 704 438 704 439 705 431 705 430 705 431 706 432 706 438 706 439 707 432 707 431 707 432 708 433 708 438 708 439 709 433 709 432 709 433 710 434 710 438 710 439 711 434 711 433 711 434 712 435 712 438 712 439 713 435 713 434 713 435 714 436 714 438 714 439 715 436 715 435 715 436 716 437 716 438 716 439 717 437 717 436 717 437 718 429 718 438 718 439 719 429 719 437 719 440 720 441 720 449 720 450 721 441 721 440 721 441 722 442 722 449 722 450 723 442 723 441 723 442 724 443 724 449 724 450 725 443 725 442 725 443 726 444 726 449 726 450 727 444 727 443 727 444 728 445 728 449 728 450 729 445 729 444 729 445 730 446 730 449 730 450 731 446 731 445 731 446 732 447 732 449 732 450 733 447 733 446 733 447 734 448 734 449 734 450 735 448 735 447 735 448 736 440 736 449 736 450 737 440 737 448 737 451 738 452 738 460 738 461 739 452 739 451 739 452 740 453 740 460 740 461 741 453 741 452 741 453 742 454 742 460 742 461 743 454 743 453 743 454 744 455 744 460 744 461 745 455 745 454 745 455 746 456 746 460 746 461 747 456 747 455 747 456 748 457 748 460 748 461 749 457 749 456 749 457 750 458 750 460 750 461 751 458 751 457 751 458 752 459 752 460 752 461 753 459 753 458 753 459 754 451 754 460 754 461 755 451 755 459 755 462 756 463 756 471 756 472 757 463 757 462 757 463 758 464 758 471 758 472 759 464 759 463 759 464 760 465 760 471 760 472 761 465 761 464 761 465 762 466 762 471 762 472 763 466 763 465 763 466 764 467 764 471 764 472 765 467 765 466 765 467 766 468 766 471 766 472 767 468 767 467 767 468 768 469 768 471 768 472 769 469 769 468 769 469 770 470 770 471 770 472 771 470 771 469 771 470 772 462 772 471 772 472 773 462 773 470 773 473 774 474 774 482 774 483 775 474 775 473 775 474 776 475 776 482 776 483 777 475 777 474 777 475 778 476 778 482 778 483 779 476 779 475 779 476 780 477 780 482 780 483 781 477 781 476 781 477 782 478 782 482 782 483 783 478 783 477 783 478 784 479 784 482 784 483 785 479 785 478 785 479 786 480 786 482 786 483 787 480 787 479 787 480 788 481 788 482 788 483 789 481 789 480 789 481 790 473 790 482 790 483 791 473 791 481 791 484 792 485 792 493 792 494 793 485 793 484 793 485 794 486 794 493 794 494 795 486 795 485 795 486 796 487 796 493 796 494 797 487 797 486 797 487 798 488 798 493 798 494 799 488 799 487 799 488 800 489 800 493 800 494 801 489 801 488 801 489 802 490 802 493 802 494 803 490 803 489 803 490 804 491 804 493 804 494 805 491 805 490 805 491 806 492 806 493 806 494 807 492 807 491 807 492 808 484 808 493 808 494 809 484 809 492 809 495 810 496 810 504 810 505 811 496 811 495 811 496 812 497 812 504 812 505 813 497 813 496 813 497 814 498 814 504 814 505 815 498 815 497 815 498 816 499 816 504 816 505 817 499 817 498 817 499 818 500 818 504 818 505 819 500 819 499 819 500 820 501 820 504 820 505 821 501 821 500 821 501 822 502 822 504 822 505 823 502 823 501 823 502 824 503 824 504 824 505 825 503 825 502 825 503 826 495 826 504 826 505 827 495 827 503 827 506 828 507 828 515 828 516 829 507 829 506 829 507 830 508 830 515 830 516 831 508 831 507 831 508 832 509 832 515 832 516 833 509 833 508 833 509 834 510 834 515 834 516 835 510 835 509 835 510 836 511 836 515 836 516 837 511 837 510 837 511 838 512 838 515 838 516 839 512 839 511 839 512 840 513 840 515 840 516 841 513 841 512 841 513 842 514 842 515 842 516 843 514 843 513 843 514 844 506 844 515 844 516 845 506 845 514 845 517 846 518 846 526 846 527 847 518 847 517 847 518 848 519 848 526 848 527 849 519 849 518 849 519 850 520 850 526 850 527 851 520 851 519 851 520 852 521 852 526 852 527 853 521 853 520 853 521 854 522 854 526 854 527 855 522 855 521 855 522 856 523 856 526 856 527 857 523 857 522 857 523 858 524 858 526 858 527 859 524 859 523 859 524 860 525 860 526 860 527 861 525 861 524 861 525 862 517 862 526 862 527 863 517 863 525 863 528 864 529 864 537 864 538 865 529 865 528 865 529 866 530 866 537 866 538 867 530 867 529 867 530 868 531 868 537 868 538 869 531 869 530 869 531 870 532 870 537 870 538 871 532 871 531 871 532 872 533 872 537 872 538 873 533 873 532 873 533 874 534 874 537 874 538 875 534 875 533 875 534 876 535 876 537 876 538 877 535 877 534 877 535 878 536 878 537 878 538 879 536 879 535 879 536 880 528 880 537 880 538 881 528 881 536 881 539 882 540 882 548 882 549 883 540 883 539 883 540 884 541 884 548 884 549 885 541 885 540 885 541 886 542 886 548 886 549 887 542 887 541 887 542 888 543 888 548 888 549 889 543 889 542 889 543 890 544 890 548 890 549 891 544 891 543 891 544 892 545 892 548 892 549 893 545 893 544 893 545 894 546 894 548 894 549 895 546 895 545 895 546 896 547 896 548 896 549 897 547 897 546 897 547 898 539 898 548 898 549 899 539 899 547 899 550 900 551 900 559 900 560 901 551 901 550 901 551 902 552 902 559 902 560 903 552 903 551 903 552 904 553 904 559 904 560 905 553 905 552 905 553 906 554 906 559 906 560 907 554 907 553 907 554 908 555 908 559 908 560 909 555 909 554 909 555 910 556 910 559 910 560 911 556 911 555 911 556 912 557 912 559 912 560 913 557 913 556 913 557 914 558 914 559 914 560 915 558 915 557 915 558 916 550 916 559 916 560 917 550 917 558 917 561 918 562 918 570 918 571 919 562 919 561 919 562 920 563 920 570 920 571 921 563 921 562 921 563 922 564 922 570 922 571 923 564 923 563 923 564 924 565 924 570 924 571 925 565 925 564 925 565 926 566 926 570 926 571 927 566 927 565 927 566 928 567 928 570 928 571 929 567 929 566 929 567 930 568 930 570 930 571 931 568 931 567 931 568 932 569 932 570 932 571 933 569 933 568 933 569 934 561 934 570 934 571 935 561 935 569 935 572 936 573 936 581 936 582 937 573 937 572 937 573 938 574 938 581 938 582 939 574 939 573 939 574 940 575 940 581 940 582 941 575 941 574 941 575 942 576 942 581 942 582 943 576 943 575 943 576 944 577 944 581 944 582 945 577 945 576 945 577 946 578 946 581 946 582 947 578 947 577 947 578 948 579 948 581 948 582 949 579 949 578 949 579 950 580 950 581 950 582 951 580 951 579 951 580 952 572 952 581 952 582 953 572 953 580 953 583 954 584 954 592 954 593 955 584 955 583 955 584 956 585 956 592 956 593 957 585 957 584 957 585 958 586 958 592 958 593 959 586 959 585 959 586 960 587 960 592 960 593 961 587 961 586 961 587 962 588 962 592 962 593 963 588 963 587 963 588 964 589 964 592 964 593 965 589 965 588 965 589 966 590 966 592 966 593 967 590 967 589 967 590 968 591 968 592 968 593 969 591 969 590 969 591 970 583 970 592 970 593 971 583 971 591 971 594 972 595 972 603 972 604 973 595 973 594 973 595 974 596 974 603 974 604 975 596 975 595 975 596 976 597 976 603 976 604 977 597 977 596 977 597 978 598 978 603 978 604 979 598 979 597 979 598 980 599 980 603 980 604 981 599 981 598 981 599 982 600 982 603 982 604 983 600 983 599 983 600 984 601 984 603 984 604 985 601 985 600 985 601 986 602 986 603 986 604 987 602 987 601 987 602 988 594 988 603 988 604 989 594 989 602 989 605 990 606 990 614 990 615 991 606 991 605 991 606 992 607 992 614 992 615 993 607 993 606 993 607 994 608 994 614 994 615 995 608 995 607 995 608 996 609 996 614 996 615 997 609 997 608 997 609 998 610 998 614 998 615 999 610 999 609 999 610 1000 611 1000 614 1000 615 1001 611 1001 610 1001 611 1002 612 1002 614 1002 615 1003 612 1003 611 1003 612 1004 613 1004 614 1004 615 1005 613 1005 612 1005 613 1006 605 1006 614 1006 615 1007 605 1007 613 1007 616 1008 617 1008 625 1008 626 1009 617 1009 616 1009 617 1010 618 1010 625 1010 626 1011 618 1011 617 1011 618 1012 619 1012 625 1012 626 1013 619 1013 618 1013 619 1014 620 1014 625 1014 626 1015 620 1015 619 1015 620 1016 621 1016 625 1016 626 1017 621 1017 620 1017 621 1018 622 1018 625 1018 626 1019 622 1019 621 1019 622 1020 623 1020 625 1020 626 1021 623 1021 622 1021 623 1022 624 1022 625 1022 626 1023 624 1023 623 1023 624 1024 616 1024 625 1024 626 1025 616 1025 624 1025 627 1026 628 1026 636 1026 637 1027 628 1027 627 1027 628 1028 629 1028 636 1028 637 1029 629 1029 628 1029 629 1030 630 1030 636 1030 637 1031 630 1031 629 1031 630 1032 631 1032 636 1032 637 1033 631 1033 630 1033 631 1034 632 1034 636 1034 637 1035 632 1035 631 1035 632 1036 633 1036 636 1036 637 1037 633 1037 632 1037 633 1038 634 1038 636 1038 637 1039 634 1039 633 1039 634 1040 635 1040 636 1040 637 1041 635 1041 634 1041 635 1042 627 1042 636 1042 637 1043 627 1043 635 1043 638 1044 639 1044 647 1044 648 1045 639 1045 638 1045 639 1046 640 1046 647 1046 648 1047 640 1047 639 1047 640 1048 641 1048 647 1048 648 1049 641 1049 640 1049 641 1050 642 1050 647 1050 648 1051 642 1051 641 1051 642 1052 643 1052 647 1052 648 1053 643 1053 642 1053 643 1054 644 1054 647 1054 648 1055 644 1055 643 1055 644 1056 645 1056 647 1056 648 1057 645 1057 644 1057 645 1058 646 1058 647 1058 648 1059 646 1059 645 1059 646 1060 638 1060 647 1060 648 1061 638 1061 646 1061 649 1062 650 1062 658 1062 659 1063 650 1063 649 1063 650 1064 651 1064 658 1064 659 1065 651 1065 650 1065 651 1066 652 1066 658 1066 659 1067 652 1067 651 1067 652 1068 653 1068 658 1068 659 1069 653 1069 652 1069 653 1070 654 1070 658 1070 659 1071 654 1071 653 1071 654 1072 655 1072 658 1072 659 1073 655 1073 654 1073 655 1074 656 1074 658 1074 659 1075 656 1075 655 1075 656 1076 657 1076 658 1076 659 1077 657 1077 656 1077 657 1078 649 1078 658 1078 659 1079 649 1079 657 1079</p></triangles>
</mesh></geometry></library_geometries><library_visual_scenes><visual_scene id="Scene"><node id="mesh"><instance_geometry url="#geometry"/></node></visual_scene></library_visual_scenes><scene><instance_visual_scene url="#Scene"/></scene></COLLADA>