<?xml version="1.0" encoding="UTF-8"?>
<COLLADA xmlns="http://www.collada.org/2005/11/COLLADASchema" version="1.4.1">
<asset><contributor><authoring_tool>Summit Estate procedural mesh exporter</authoring_tool></contributor><created>2026-09-11T00:00:00Z</created><modified>2026-09-11T00:00:00Z</modified><unit name="meter" meter="1"/><up_axis>Z_UP</up_axis></asset>
<library_geometries><geometry id="geometry" name="geometry"><mesh>
<source id="positions"><float_array id="positions-array" count="1980">179.25635 237.23583 80.55810 176.77700 236.01719 80.55810 175.57378 233.13232 80.55810 176.19384 230.56603 80.55810 178.97476 228.58453 80.55810 181.57491 229.12067 80.55810 183.69278 231.02285 80.55810 184.21004 234.19866 80.55810 182.17012 236.72682 80.55810 179.89991 233.01754 87.29429 179.89991 233.01754 80.55810 113.51271 246.09140 78.26311 114.06202 244.26339 78.26311 115.82150 243.00405 78.26311 117.83630 243.17815 78.26311 119.24464 244.76513 78.26311 119.55451 246.64190 78.26311 118.27234 248.51163 78.26311 116.39017 249.15860 78.26311 114.49614 248.13816 78.26311 116.49114 245.96503 85.98006 116.49114 245.96503 78.26311 188.85777 250.73476 87.70335 188.70284 249.75447 87.70335 188.96034 248.75408 87.70335 189.83559 248.51172 87.70335 190.54016 248.73042 87.70335 191.09308 249.33188 87.70335 191.07074 250.40690 87.70335 190.74191 251.15007 87.70335 189.95154 251.30750 87.70335 189.91851 249.82573 95.80043 189.91851 249.82573 87.70335 23.45582 231.31005 86.44914 24.22927 230.24334 86.44914 25.27555 230.15233 86.44914 26.41052 230.38607 86.44914 27.20622 231.42130 86.44914 26.77926 232.73738 86.44914 25.60924 233.69636 86.44914 24.43333 233.58642 86.44914 23.66536 232.42164 86.44914 25.20623 231.78413 92.25624 25.20623 231.78413 86.44914 44.43407 250.77186 85.95055 43.53725 249.99110 85.95055 42.97681 249.07089 85.95055 42.83911 247.76282 85.95055 44.13078 247.05691 85.95055 45.07282 247.15775 85.95055 46.27606 247.87740 85.95055 46.32423 249.36822 85.95055 45.75106 250.35125 85.95055 44.61143 248.83085 94.79842 44.61143 248.83085 85.95055 68.41552 229.92328 80.38096 68.94863 228.14850 80.38096 70.08948 227.18154 80.38096 71.84981 227.36652 80.38096 73.13260 228.31399 80.38096 73.46042 230.35373 80.38096 72.15873 231.66406 80.38096 70.54032 231.91909 80.38096 68.96731 231.38047 80.38096 70.88156 229.51660 87.26237 70.88156 229.51660 80.38096 39.27967 240.57782 79.17337 41.02153 243.47371 79.17337 40.07857 246.57423 79.17337 37.82120 248.43544 79.17337 34.70693 248.50130 79.17337 32.35610 246.21516 79.17337 31.88877 242.95671 79.17337 33.49222 240.38394 79.17337 36.60252 239.47953 79.17337 36.27381 244.11894 88.48639 36.27381 244.11894 79.17337 80.56509 227.20782 86.15631 81.62219 225.93504 86.15631 83.43487 225.61189 86.15631 84.81746 226.55429 86.15631 85.28314 227.65482 86.15631 85.09379 229.43242 86.15631 83.76295 230.17319 86.15631 81.85178 230.27369 86.15631 80.77220 228.88593 86.15631 83.06096 227.99734 92.08556 83.06096 227.99734 86.15631 86.69475 232.34484 79.47222 85.66265 230.48111 79.47222 85.62430 228.87081 79.47222 87.20342 227.41585 79.47222 88.90065 227.48187 79.47222 90.31831 228.46175 79.47222 91.08567 230.34138 79.47222 90.26573 232.14532 79.47222 88.38349 232.62339 79.47222 88.21546 229.98646 85.28928 88.21546 229.98646 79.47222 190.14725 233.26131 84.05751 190.85340 235.01570 84.05751 189.98368 236.43941 84.05751 188.32871 237.30589 84.05751 186.95445 236.38212 84.05751 185.86485 235.26178 84.05751 186.21513 233.46806 84.05751 187.20999 232.62058 84.05751 188.99507 232.62716 84.05751 188.27053 234.69850 88.44009 188.27053 234.69850 84.05751 180.80961 246.19212 87.77611 181.61404 246.92362 87.77611 181.46310 247.95072 87.77611 180.69637 248.59271 87.77611 179.79823 248.86583 87.77611 179.19901 248.40861 87.77611 178.97845 247.33192 87.77611 179.13934 246.72319 87.77611 179.98796 246.15720 87.77611 180.14653 247.46705 96.00779 180.14653 247.46705 87.77611 178.01856 239.67278 81.39849 178.80992 239.88028 81.39849 179.63986 241.46490 81.39849 179.15901 242.52690 81.39849 178.02894 243.24054 81.39849 176.81095 243.20894 81.39849 175.73697 241.91990 81.39849 175.73277 240.80768 81.39849 176.37501 239.61057 81.39849 177.56746 241.36002 86.75177 177.56746 241.36002 81.39849 90.66239 251.63932 72.88283 88.44892 251.53197 72.88283 86.90148 249.55963 72.88283 86.90466 247.52868 72.88283 88.28057 245.99232 72.88283 90.40764 245.23286 72.88283 92.20849 246.35621 72.88283 93.16982 248.25426 72.88283 92.55448 250.62090 72.88283 89.82820 248.50975 79.84367 89.82820 248.50975 72.88283 197.42609 221.21193 83.15468 200.32333 222.77499 83.15468 201.47326 225.33387 83.15468 200.65977 228.42012 83.15468 198.07623 230.16012 83.15468 195.01285 229.81089 83.15468 192.94862 227.60536 83.15468 192.68830 224.31816 83.15468 194.62590 221.74388 83.15468 196.96554 225.76935 93.90825 196.96554 225.76935 83.15468 123.89632 229.38476 79.31311 124.76395 231.63836 79.31311 123.54069 234.48842 79.31311 121.07420 235.32644 79.31311 118.48188 234.90268 79.31311 117.09884 232.55721 79.31311 117.23457 229.60261 79.31311 119.35229 227.73803 79.31311 121.85211 227.62716 79.31311 120.85470 231.48031 86.32727 120.85470 231.48031 79.31311 121.12629 237.37452 80.22457 118.69969 238.58458 80.22457 115.77828 238.02080 80.22457 113.67192 235.42165 80.22457 113.83327 232.69837 80.22457 116.05774 230.35889 80.22457 119.11968 229.92165 80.22457 121.49026 231.56567 80.22457 122.25204 234.47357 80.22457 118.01621 234.20490 92.29184 118.01621 234.20490 80.22457 100.54571 235.18920 82.04711 99.07562 235.75238 82.04711 97.91991 234.95813 82.04711 97.04691 233.38210 82.04711 97.68251 232.11247 82.04711 98.59812 231.36300 82.04711 100.39779 231.40192 82.04711 101.25261 232.47390 82.04711 101.46031 233.72264 82.04711 99.41292 233.34269 89.21543 99.41292 233.34269 82.04711 57.04580 244.33608 84.76052 58.57482 245.56578 84.76052 58.59176 247.28157 84.76052 58.16867 248.40160 84.76052 56.42425 249.17944 84.76052 54.63888 248.53344 84.76052 53.99760 247.22412 84.76052 54.35897 245.55678 84.76052 55.67867 244.37367 84.76052 56.38584 246.76720 93.15942 56.38584 246.76720 84.76052 50.87701 246.76050 76.58140 52.80915 246.54575 76.58140 54.54949 247.55968 76.58140 55.37944 249.43913 76.58140 54.71865 251.33639 76.58140 52.63183 252.37883 76.58140 50.68962 251.93708 76.58140 49.58913 250.39311 76.58140 49.37713 248.64077 76.58140 52.33143 249.48576 87.09286 52.33143 249.48576 76.58140 108.90877 239.87232 80.83445 107.83543 238.90671 80.83445 107.37608 237.30961 80.83445 107.82265 235.98670 80.83445 109.30192 235.09266 80.83445 111.22318 235.63214 80.83445 111.80122 236.79584 80.83445 111.69941 238.79781 80.83445 110.77101 239.69649 80.83445 109.70454 237.59717 85.43494 109.70454 237.59717 80.83445 232.88047 243.05808 80.75625 231.91132 245.55244 80.75625 229.76849 246.93290 80.75625 227.39682 246.80690 80.75625 225.33947 244.98311 80.75625 225.30531 242.56758 80.75625 226.53997 240.42665 80.75625 229.25445 239.59383 80.75625 231.47804 240.74346 80.75625 228.88833 243.45210 92.34326 228.88833 243.45210 80.75625 61.72827 232.15480 81.43368 62.22549 229.43864 81.43368 64.23437 228.39267 81.43368 66.34104 228.31367 81.43368 68.31709 229.89538 81.43368 68.63845 232.10877 81.43368 67.53343 234.03484 81.43368 65.04837 234.68384 81.43368 63.02859 233.74152 81.43368 65.29575 231.39037 92.13158 65.29575 231.39037 81.43368 37.26389 237.82239 80.63242 36.33243 235.53498 80.63242 37.11800 232.87987 80.63242 38.72168 231.65007 80.63242 41.17110 231.79646 80.63242 43.00689 233.53328 80.63242 43.27085 235.79424 80.63242 42.10503 237.77522 80.63242 39.90903 238.83077 80.63242 39.94212 235.05633 89.03218 39.94212 235.05633 80.63242 61.99858 239.60819 84.20827 61.13818 237.70383 84.20827 61.83245 235.97777 84.20827 63.77903 235.15687 84.20827 65.25618 235.76014 84.20827 66.47360 237.18836 84.20827 66.46301 238.76352 84.20827 65.30049 240.20630 84.20827 63.15484 240.62741 84.20827 63.94196 237.96626 90.45568 63.94196 237.96626 84.20827 152.40397 247.33085 79.66945 151.00753 249.73028 79.66945 148.83284 250.35725 79.66945 146.30520 249.52057 79.66945 145.01551 247.37821 79.66945 145.43515 244.85876 79.66945 147.33231 243.37500 79.66945 149.65622 243.16204 79.66945 151.94289 244.54230 79.66945 148.60198 246.76201 86.08095 148.60198 246.76201 79.66945 144.88151 247.79695 79.75414 145.01555 246.53767 79.75414 146.01933 245.51391 79.75414 147.95312 245.42029 79.75414 149.07234 246.64467 79.75414 149.04927 248.11240 79.75414 148.30231 249.28877 79.75414 146.85365 249.67149 79.75414 145.58874 249.24243 79.75414 147.00261 247.59732 86.59365 147.00261 247.59732 79.75414 217.41307 234.12238 90.24490 216.45165 235.32658 90.24490 214.91412 236.13370 90.24490 213.33272 235.28297 90.24490 212.28512 233.72042 90.24490 212.70762 231.95946 90.24490 214.17658 230.95040 90.24490 216.17762 230.78156 90.24490 217.55204 232.30166 90.24490 215.04121 233.37745 98.97821 215.04121 233.37745 90.24490 71.35854 233.17730 82.21301 71.50010 230.82788 82.21301 72.47965 228.82681 82.21301 74.83840 228.31460 82.21301 76.74155 229.51559 82.21301 78.02494 231.32291 82.21301 77.39670 233.74311 82.21301 75.21638 235.02101 82.21301 72.89209 234.41127 82.21301 74.53697 231.64750 88.24858 74.53697 231.64750 82.21301 70.45583 238.37196 83.14557 70.47185 239.23024 83.14557 70.25757 239.83109 83.14557 68.91989 240.23562 83.14557 68.14365 239.83825 83.14557 67.80733 238.69659 83.14557 68.08929 238.13700 83.14557 69.18402 237.62113 83.14557 69.90971 237.68275 83.14557 69.33732 238.82255 89.04979 69.33732 238.82255 83.14557 209.69342 230.48396 90.24954 207.92191 230.54069 90.24954 206.76557 229.30611 90.24954 206.99441 227.49659 90.24954 207.88230 226.37159 90.24954 209.52169 225.95488 90.24954 210.77798 226.88594 90.24954 211.31042 228.30533 90.24954 211.06610 229.63711 90.24954 209.09211 228.34795 98.47350 209.09211 228.34795 90.24954 232.25406 247.74865 80.44536 231.21769 248.64230 80.44536 229.70355 248.37248 80.44536 228.26723 247.29153 80.44536 228.45456 245.51543 80.44536 229.04807 244.35063 80.44536 230.56507 244.29108 80.44536 232.15527 244.66709 80.44536 232.88857 246.01835 80.44536 230.45956 246.33312 85.58498 230.45956 246.33312 80.44536 10.08423 247.41546 89.65476 9.61518 245.62622 89.65476 10.68668 244.02768 89.65476 12.21572 243.73788 89.65476 13.91694 244.23885 89.65476 14.38506 245.55722 89.65476 14.46794 247.41319 89.65476 13.03744 248.54401 89.65476 11.19934 248.32912 89.65476 12.13111 246.01871 98.98117 12.13111 246.01871 89.65476 231.16676 235.60341 84.23824 231.13967 234.48551 84.23824 231.47935 233.35121 84.23824 232.59999 233.49782 84.23824 233.59346 233.69070 84.23824 234.10413 234.52147 84.23824 233.49771 235.79964 84.23824 232.69696 236.33104 84.23824 231.87864 236.15564 84.23824 232.40799 234.77574 88.91892 232.40799 234.77574 84.23824 72.54913 241.22965 79.43161 73.18632 242.33594 79.43161 73.18130 243.64214 79.43161 72.76112 244.81076 79.43161 71.14517 245.17988 79.43161 70.01816 244.59381 79.43161 69.61313 243.28766 79.43161 69.85805 241.77247 79.43161 71.33271 241.45747 79.43161 71.53506 243.12513 83.88168 71.53506 243.12513 79.43161 128.06603 236.47837 87.70627 129.54431 235.67450 87.70627 131.05747 236.15664 87.70627 131.80145 237.50199 87.70627 132.03283 238.83758 87.70627 130.60408 240.21383 87.70627 129.41528 240.11392 87.70627 127.87248 239.42699 87.70627 127.65384 237.94988 87.70627 129.73120 237.96565 96.97685 129.73120 237.96565 87.70627 15.68819 242.73415 87.61357 15.21399 244.03386 87.61357 14.10712 244.22535 87.61357 13.34087 243.86384 87.61357 12.70961 242.89940 87.61357 12.52199 241.80375 87.61357 13.40509 241.45756 87.61357 14.36962 241.03555 87.61357 15.37181 241.81717 87.61357 14.07889 242.71568 95.22070 14.07889 242.71568 87.61357 41.37865 233.32436 80.47922 41.42084 236.06117 80.47922 39.73697 238.83351 80.47922 36.66635 239.27920 80.47922 33.65805 238.21286 80.47922 32.67691 235.14322 80.47922 33.49194 232.26143 80.47922 36.01319 230.41725 80.47922 39.17648 230.96670 80.47922 37.09369 234.90379 88.10414 37.09369 234.90379 80.47922 61.23687 249.13419 78.37646 61.38466 249.64614 78.37646 60.87750 250.61811 78.37646 59.68014 250.96584 78.37646 58.85040 250.44935 78.37646 58.61850 249.58850 78.37646 58.78903 248.57747 78.37646 59.74201 248.29238 78.37646 60.47372 248.19950 78.37646 59.93039 249.51458 83.07329 59.93039 249.51458 78.37646 119.90630 230.00781 84.89119 120.54296 232.23505 84.89119 119.88146 234.83684 84.89119 117.31824 236.05469 84.89119 114.80291 235.74909 84.89119 113.38895 233.58984 84.89119 113.25243 230.92553 84.89119 114.85915 228.93937 84.89119 117.60421 228.44319 84.89119 116.88926 232.27161 95.00788 116.88926 232.27161 84.89119 243.37402 239.50781 89.38892 242.97090 237.67055 89.38892 244.12121 236.04972 89.38892 245.26475 235.45357 89.38892 246.87675 236.26451 89.38892 248.08145 237.32304 89.38892 247.64857 239.27329 89.38892 246.37803 240.19779 89.38892 244.94055 240.25558 89.38892 245.58767 238.03517 98.65999 245.58767 238.03517 89.38892 131.74306 253.04308 75.29344 128.81029 253.16933 75.29344 126.95513 251.39646 75.29344 126.41881 249.03228 75.29344 127.63835 246.37140 75.29344 130.11908 245.45437 75.29344 132.60093 246.18725 75.29344 133.97521 248.66374 75.29344 133.42333 251.32303 75.29344 130.15572 249.41027 84.24708 130.15572 249.41027 75.29344 224.87316 227.14403 82.94055 222.78783 229.49299 82.94055 219.36713 229.80161 82.94055 216.61827 228.07549 82.94055 215.65602 224.70683 82.94055 217.14879 221.59311 82.94055 220.28220 220.49996 82.94055 223.10648 221.28984 82.94055 224.97496 223.62538 82.94055 220.60525 225.06874 92.89774 220.60525 225.06874 82.94055 212.58638 239.47537 84.12774 214.40859 240.92592 84.12774 214.70998 243.07194 84.12774 213.23330 245.28712 84.12774 210.95143 245.75612 84.12774 208.94675 244.81741 84.12774 208.17391 242.78021 84.12774 208.78489 240.78426 84.12774 210.32198 239.51445 84.12774 211.38329 242.48866 92.60224 211.38329 242.48866 84.12774 228.45765 237.08571 81.03927 229.93764 239.65177 81.03927 229.16772 242.44981 81.03927 226.92365 244.27435 81.03927 223.95068 244.50198 81.03927 221.76105 242.28611 81.03927 221.72609 239.68407 81.03927 222.95868 237.02438 81.03927 225.75491 236.05285 81.03927 225.62926 240.43797 92.03656 225.62926 240.43797 81.03927 25.66537 239.17833 81.74203 25.46305 237.67950 81.74203 26.62373 236.30333 81.74203 27.92893 235.80868 81.74203 29.83980 236.36809 81.74203 30.29311 237.93136 81.74203 30.05515 239.40709 81.74203 28.79351 240.40779 81.74203 26.96707 240.55870 81.74203 27.92728 238.13954 93.61744 27.92728 238.13954 81.74203 85.14828 223.46789 85.32948 85.52894 225.89019 85.32948 84.27295 227.75894 85.32948 81.93117 228.69271 85.32948 80.00735 227.69218 85.32948 78.50801 225.70694 85.32948 79.23523 223.54631 85.32948 80.95030 222.01163 85.32948 83.39959 221.68852 85.32948 82.13679 225.14356 93.24811 82.13679 225.14356 85.32948 151.01653 234.07637 82.87954 152.29566 234.28854 82.87954 153.44545 235.47079 82.87954 152.97920 237.29215 82.87954 151.89597 238.15856 82.87954 150.19371 238.57064 82.87954 148.85625 237.40982 82.87954 148.75496 236.10769 82.87954 149.27615 234.60410 82.87954 150.96083 236.18675 87.54370 150.96083 236.18675 82.87954 237.27847 239.10328 83.46329 238.86131 241.01038 83.46329 239.06904 243.37437 83.46329 237.50093 245.51305 83.46329 235.08873 246.04073 83.46329 232.65700 244.96927 83.46329 231.86878 242.79037 83.46329 232.70927 240.38018 83.46329 234.61162 238.67855 83.46329 235.53266 242.45383 91.76149 235.53266 242.45383 83.46329 207.20528 226.37619 88.98877 206.47439 226.91904 88.98877 205.26613 226.68816 88.98877 204.86278 225.75518 88.98877 204.77435 224.95320 88.98877 205.61870 224.35360 88.98877 206.32381 223.85932 88.98877 207.29576 224.71518 88.98877 207.60168 225.38603 88.98877 206.16709 225.48431 96.05157 206.16709 225.48431 88.98877 129.78672 246.40618 75.38009 128.12709 247.52031 75.38009 126.08822 247.22435 75.38009 124.84654 245.66039 75.38009 124.57341 243.72712 75.38009 126.02429 241.84781 75.38009 127.84845 241.68051 75.38009 129.91967 242.86529 75.38009 130.47847 244.81206 75.38009 127.48558 244.64266 82.10566 127.48558 244.64266 75.38009 216.95708 230.91627 80.54269 218.72273 232.74977 80.54269 219.41498 235.26355 80.54269 218.01351 237.06292 80.54269 215.71231 237.97030 80.54269 213.78377 236.93714 80.54269 212.55990 235.02313 80.54269 212.70445 232.76714 80.54269 214.65668 231.30139 80.54269 215.86895 234.42278 87.25155 215.86895 234.42278 80.54269 122.77967 229.45824 85.44608 120.86110 230.04397 85.44608 118.87643 229.57509 85.44608 117.56196 227.68266 85.44608 117.91783 225.29062 85.44608 119.76766 224.12375 85.44608 121.76687 224.06595 85.44608 123.63338 225.33996 85.44608 123.79349 227.68303 85.44608 120.77804 226.92608 94.27736 120.77804 226.92608 85.44608 236.51478 246.33293 80.84081 235.23228 247.79734 80.84081 233.30793 247.94980 80.84081 231.62116 246.83009 80.84081 230.86275 244.94956 80.84081 231.71925 243.22948 80.84081 233.65464 242.09571 80.84081 235.50062 242.89212 80.84081 236.79189 244.15882 80.84081 233.97509 245.17607 86.38182 233.97509 245.17607 80.84081 219.95582 225.75445 81.83674 221.92871 224.70871 81.83674 224.19868 225.01107 81.83674 225.70954 227.05861 81.83674 225.55589 229.56816 81.83674 223.99241 231.33199 81.83674 221.98744 231.37022 81.83674 219.87519 230.49303 81.83674 218.99249 227.83113 81.83674 222.47797 228.15008 89.82647 222.47797 228.15008 81.83674 244.58116 237.42315 80.27629 242.46265 237.03900 80.27629 241.69447 235.39982 80.27629 241.71719 233.27176 80.27629 243.13799 232.22170 80.27629 245.13462 231.83944 80.27629 246.80747 232.99538 80.27629 247.06608 235.17009 80.27629 246.47995 236.71305 80.27629 244.34069 234.75190 88.49916 244.34069 234.75190 80.27629 16.19874 244.83513 82.77440 16.38130 242.64455 82.77440 17.33313 240.73681 82.77440 19.77239 240.44099 82.77440 21.93376 241.11679 82.77440 22.47178 243.30915 82.77440 22.19855 245.63378 82.77440 20.15946 246.90759 82.77440 18.01632 246.75230 82.77440 19.39016 243.62522 89.85046 19.39016 243.62522 82.77440 159.98634 236.18482 88.94801 160.26231 237.83191 88.94801 159.78209 239.31616 88.94801 158.54671 240.23534 88.94801 157.16368 240.08728 88.94801 155.93549 238.63099 88.94801 155.94892 237.09672 88.94801 157.03048 235.88927 88.94801 158.51144 235.42528 88.94801 158.09880 237.87881 98.01453 158.09880 237.87881 88.94801 137.71440 235.03352 80.88270 135.99145 236.35880 80.88270 133.97678 236.55585 80.88270 132.10235 235.10222 80.88270 131.79700 233.19455 80.88270 132.43898 231.15792 80.88270 134.55210 230.29197 80.88270 136.67214 230.89873 80.88270 137.61963 232.86410 80.88270 134.76246 233.49646 86.16573 134.76246 233.49646 80.88270 97.85652 239.35067 76.64281 96.67638 241.88224 76.64281 94.22320 242.74080 76.64281 91.56322 242.24729 76.64281 90.48421 239.84149 76.64281 90.49043 236.99029 76.64281 92.61955 235.31865 76.64281 95.11633 235.37293 76.64281 97.21328 237.19611 76.64281 94.11226 239.02416 83.87818 94.11226 239.02416 76.64281 134.48061 239.16196 85.40703 135.98853 239.37935 85.40703 137.12021 240.62038 85.40703 137.41531 242.33169 85.40703 136.63795 243.43835 85.40703 135.07181 243.98020 85.40703 133.43244 243.21229 85.40703 132.61264 242.12752 85.40703 133.13452 240.47095 85.40703 135.02554 241.60926 93.53106 135.02554 241.60926 85.40703</float_array><technique_common><accessor source="#positions-array" count="660" stride="3"><param name="X" type="float"/><param name="Y" type="float"/><param name="Z" type="float"/></accessor></technique_common></source>
<source id="normals"><float_array id="normals-array" count="3240">-0.37756 0.76815 0.51710 0.00000 0.00000 -1.00000 -0.79166 0.33019 0.51405 0.00000 0.00000 -1.00000 -0.82603 -0.19958 0.52710 -0.00000 0.00000 -1.00000 -0.49415 -0.69351 0.52426 0.00000 0.00000 -1.00000 0.17188 -0.83359 0.52497 0.00000 -0.00000 -1.00000 0.57386 -0.63893 0.51231 0.00000 0.00000 -1.00000 0.84509 -0.13765 0.51660 0.00000 0.00000 -1.00000 0.66497 0.53655 0.51955 0.00000 0.00000 -1.00000 0.14753 0.84454 0.51477 0.00000 0.00000 -1.00000 -0.89967 -0.27034 0.34281 -0.00000 0.00000 -1.00000 -0.54718 -0.76449 0.34081 0.00000 0.00000 -1.00000 0.08061 -0.93291 0.35096 0.00000 -0.00000 -1.00000 0.70145 -0.62250 0.34708 0.00000 0.00000 -1.00000 0.92310 -0.15241 0.35307 0.00000 0.00000 -1.00000 0.77170 0.52919 0.35275 0.00000 0.00000 -1.00000 0.30315 0.88192 0.36100 0.00000 0.00000 -1.00000 -0.44476 0.82551 0.34745 0.00000 0.00000 -1.00000 -0.84942 0.40813 0.33453 0.00000 0.00000 -1.00000 -0.97725 0.15444 0.14536 -0.00000 0.00000 -1.00000 -0.95806 -0.24660 0.14601 0.00000 0.00000 -1.00000 -0.26354 -0.95176 0.15715 0.00000 0.00000 -1.00000 0.29308 -0.94421 0.15023 0.00000 -0.00000 -1.00000 0.72825 -0.66947 0.14647 0.00000 0.00000 -1.00000 0.98961 0.02056 0.14230 0.00000 0.00000 -1.00000 0.90311 0.39960 0.15720 0.00000 0.00000 -1.00000 0.19225 0.96518 0.17741 0.00000 0.00000 -1.00000 -0.45805 0.87474 0.15821 0.00000 0.00000 -1.00000 -0.77713 -0.56349 0.28025 0.00000 0.00000 -1.00000 -0.08347 -0.95961 0.26866 0.00000 -0.00000 -1.00000 0.19436 -0.94375 0.26751 0.00000 0.00000 -1.00000 0.75706 -0.58189 0.29709 0.00000 0.00000 -1.00000 0.90897 0.29489 0.29463 0.00000 0.00000 -1.00000 0.60739 0.74106 0.28618 0.00000 0.00000 -1.00000 -0.08862 0.94790 0.30599 0.00000 0.00000 -1.00000 -0.80354 0.52979 0.27137 0.00000 0.00000 -1.00000 -0.94603 0.17834 0.27060 -0.00000 0.00000 -1.00000 -0.64638 0.74247 0.17584 0.00000 0.00000 -1.00000 -0.84172 0.51264 0.16941 0.00000 0.00000 -1.00000 -0.97764 0.10291 0.18341 -0.00000 0.00000 -1.00000 -0.47008 -0.86013 0.19799 0.00000 0.00000 -1.00000 0.10450 -0.97620 0.19005 0.00000 -0.00000 -1.00000 0.50436 -0.84328 0.18576 0.00000 0.00000 -1.00000 0.98164 -0.03172 0.18810 0.00000 0.00000 -1.00000 0.84746 0.49412 0.19406 0.00000 0.00000 -1.00000 0.29816 0.93358 0.19883 0.00000 0.00000 -1.00000 -0.91050 -0.27350 0.31013 -0.00000 0.00000 -1.00000 -0.61341 -0.72371 0.31618 0.00000 0.00000 -1.00000 0.09938 -0.94570 0.30946 0.00000 -0.00000 -1.00000 0.56336 -0.76274 0.31758 0.00000 0.00000 -1.00000 0.93169 -0.14974 0.33094 0.00000 0.00000 -1.00000 0.66927 0.66487 0.33170 0.00000 0.00000 -1.00000 0.14750 0.93604 0.31948 0.00000 0.00000 -1.00000 -0.30611 0.89397 0.32729 0.00000 0.00000 -1.00000 -0.88101 0.33361 0.33544 0.00000 0.00000 -1.00000 0.77477 -0.46602 0.42726 0.00000 0.00000 -1.00000 0.86667 0.26358 0.42356 0.00000 0.00000 -1.00000 0.57721 0.70007 0.42038 0.00000 0.00000 -1.00000 0.01916 0.90590 0.42306 0.00000 0.00000 -1.00000 -0.63466 0.65262 0.41388 0.00000 0.00000 -1.00000 -0.90324 0.12954 0.40912 -0.00000 0.00000 -1.00000 -0.76936 -0.47950 0.42209 0.00000 0.00000 -1.00000 -0.25284 -0.86953 0.42425 0.00000 -0.00000 -1.00000 0.34293 -0.83592 0.42853 0.00000 0.00000 -1.00000 -0.71205 -0.59139 0.37848 0.00000 0.00000 -1.00000 -0.16379 -0.91874 0.35930 0.00000 -0.00000 -1.00000 0.52858 -0.77547 0.34532 0.00000 0.00000 -1.00000 0.86437 -0.36575 0.34508 0.00000 0.00000 -1.00000 0.93363 0.09945 0.34416 0.00000 0.00000 -1.00000 0.45490 0.81726 0.35377 0.00000 0.00000 -1.00000 0.04921 0.93575 0.34922 0.00000 0.00000 -1.00000 -0.73367 0.57075 0.36874 0.00000 0.00000 -1.00000 -0.92102 0.11367 0.37256 -0.00000 0.00000 -1.00000 -0.80509 0.44584 0.39122 0.00000 0.00000 -1.00000 -0.91480 0.02179 0.40331 -0.00000 0.00000 -1.00000 -0.61956 -0.67243 0.40494 0.00000 0.00000 -1.00000 0.03565 -0.91637 0.39875 0.00000 -0.00000 -1.00000 0.52402 -0.75812 0.38814 0.00000 0.00000 -1.00000 0.84936 -0.34675 0.39793 0.00000 0.00000 -1.00000 0.82250 0.37385 0.42864 0.00000 0.00000 -1.00000 0.22479 0.88502 0.40768 0.00000 0.00000 -1.00000 -0.14882 0.90226 0.40470 0.00000 0.00000 -1.00000 0.82315 -0.33132 0.46114 0.00000 0.00000 -1.00000 0.75068 0.45858 0.47560 0.00000 0.00000 -1.00000 0.40929 0.78173 0.47052 0.00000 0.00000 -1.00000 -0.50169 0.74634 0.43737 0.00000 0.00000 -1.00000 -0.64549 0.62778 0.43501 0.00000 0.00000 -1.00000 -0.87286 -0.17046 0.45722 -0.00000 0.00000 -1.00000 -0.57584 -0.67598 0.45985 0.00000 0.00000 -1.00000 0.00333 -0.90389 0.42775 0.00000 -0.00000 -1.00000 0.43235 -0.78553 0.44274 0.00000 0.00000 -1.00000 0.66339 -0.72953 0.16643 0.00000 0.00000 -1.00000 0.97589 0.14341 0.16451 0.00000 0.00000 -1.00000 0.63509 0.75849 0.14614 0.00000 0.00000 -1.00000 0.28771 0.94612 0.14860 0.00000 0.00000 -1.00000 -0.59892 0.78492 0.15872 0.00000 0.00000 -1.00000 -0.97076 0.19886 0.13449 -0.00000 0.00000 -1.00000 -0.95728 -0.25300 0.13999 0.00000 0.00000 -1.00000 -0.54926 -0.82356 0.14163 0.00000 0.00000 -1.00000 0.04194 -0.98683 0.15622 0.00000 -0.00000 -1.00000 0.24113 -0.91960 0.31016 0.00000 0.00000 -1.00000 0.84027 -0.44008 0.31667 0.00000 0.00000 -1.00000 0.85692 0.38799 0.33934 0.00000 0.00000 -1.00000 0.50505 0.79977 0.32448 0.00000 0.00000 -1.00000 -0.02449 0.94386 0.32945 0.00000 0.00000 -1.00000 -0.72966 0.60793 0.31308 0.00000 0.00000 -1.00000 -0.94609 0.00357 0.32388 -0.00000 0.00000 -1.00000 -0.83152 -0.44610 0.33101 0.00000 0.00000 -1.00000 0.03604 -0.95226 0.30317 0.00000 -0.00000 -1.00000 -0.04429 0.91314 0.40524 0.00000 0.00000 -1.00000 -0.72436 0.56831 0.39028 0.00000 0.00000 -1.00000 -0.92191 -0.00144 0.38740 -0.00000 0.00000 -1.00000 -0.69000 -0.61794 0.37689 0.00000 0.00000 -1.00000 -0.31053 -0.86973 0.38359 0.00000 -0.00000 -1.00000 0.48382 -0.77561 0.40540 0.00000 0.00000 -1.00000 0.81509 -0.41283 0.40645 0.00000 0.00000 -1.00000 0.88080 0.22901 0.41443 0.00000 0.00000 -1.00000 0.43178 0.80218 0.41240 0.00000 0.00000 -1.00000 0.44186 -0.81902 0.36603 0.00000 0.00000 -1.00000 0.84720 -0.38072 0.37055 0.00000 0.00000 -1.00000 0.89935 0.23705 0.36739 0.00000 0.00000 -1.00000 0.51931 0.77107 0.36847 0.00000 0.00000 -1.00000 -0.10538 0.92441 0.36656 0.00000 0.00000 -1.00000 -0.68035 0.63676 0.36286 0.00000 0.00000 -1.00000 -0.93005 0.07365 0.35999 -0.00000 0.00000 -1.00000 -0.74210 -0.55856 0.37055 0.00000 0.00000 -1.00000 -0.17278 -0.90952 0.37806 0.00000 -0.00000 -1.00000 0.83067 -0.31981 0.45576 0.00000 0.00000 -1.00000 0.81494 0.34978 0.46208 0.00000 0.00000 -1.00000 0.28434 0.83686 0.46778 0.00000 0.00000 -1.00000 -0.14219 0.86979 0.47249 0.00000 0.00000 -1.00000 -0.75819 0.44708 0.47463 0.00000 0.00000 -1.00000 -0.88342 -0.04058 0.46681 -0.00000 0.00000 -1.00000 -0.58098 -0.65986 0.47650 0.00000 0.00000 -1.00000 -0.03894 -0.87812 0.47685 0.00000 -0.00000 -1.00000 0.58096 -0.67569 0.45379 0.00000 0.00000 -1.00000 0.42119 0.84464 0.33041 0.00000 0.00000 -1.00000 -0.17909 0.92802 0.32667 0.00000 0.00000 -1.00000 -0.73484 0.59552 0.32459 0.00000 0.00000 -1.00000 -0.94120 -0.05577 0.33322 -0.00000 0.00000 -1.00000 -0.68670 -0.65294 0.31955 0.00000 0.00000 -1.00000 -0.13390 -0.93771 0.32059 0.00000 -0.00000 -1.00000 0.53892 -0.77709 0.32511 0.00000 0.00000 -1.00000 0.91755 -0.24037 0.31673 0.00000 0.00000 -1.00000 0.88390 0.34301 0.31790 0.00000 0.00000 -1.00000 0.34293 0.89516 0.28478 0.00000 0.00000 -1.00000 -0.54194 0.78858 0.29059 0.00000 0.00000 -1.00000 -0.83983 0.46520 0.27976 0.00000 0.00000 -1.00000 -0.85820 -0.42963 0.28090 -0.00000 0.00000 -1.00000 -0.60904 -0.74404 0.27471 0.00000 0.00000 -1.00000 0.02086 -0.96431 0.26395 0.00000 -0.00000 -1.00000 0.75363 -0.60096 0.26625 0.00000 0.00000 -1.00000 0.95161 -0.15828 0.26341 0.00000 0.00000 -1.00000 0.81910 0.51082 0.26102 0.00000 0.00000 -1.00000 0.60430 -0.75140 0.26498 0.00000 0.00000 -1.00000 0.96730 -0.00955 0.25347 0.00000 0.00000 -1.00000 0.90374 0.34139 0.25827 0.00000 0.00000 -1.00000 0.39374 0.88302 0.25541 0.00000 0.00000 -1.00000 -0.32860 0.90817 0.25933 0.00000 0.00000 -1.00000 -0.86496 0.42364 0.26900 0.00000 0.00000 -1.00000 -0.94438 -0.20468 0.25740 -0.00000 0.00000 -1.00000 -0.64470 -0.71914 0.25922 0.00000 0.00000 -1.00000 -0.02642 -0.96079 0.27603 0.00000 -0.00000 -1.00000 -0.10657 -0.95880 0.26333 0.00000 -0.00000 -1.00000 0.48666 -0.83532 0.25575 0.00000 0.00000 -1.00000 0.88381 -0.39028 0.25801 0.00000 0.00000 -1.00000 0.91117 0.31735 0.26280 0.00000 0.00000 -1.00000 0.43261 0.86602 0.25072 0.00000 0.00000 -1.00000 -0.21454 0.94325 0.25348 0.00000 0.00000 -1.00000 -0.78762 0.56140 0.25394 0.00000 0.00000 -1.00000 -0.95859 0.11597 0.26010 -0.00000 0.00000 -1.00000 -0.75475 -0.60206 0.26053 0.00000 0.00000 -1.00000 -0.60216 0.66934 0.43518 0.00000 0.00000 -1.00000 -0.87005 0.25024 0.42472 -0.00000 0.00000 -1.00000 -0.84760 -0.28612 0.44688 0.00000 0.00000 -1.00000 -0.46056 -0.76204 0.45516 0.00000 0.00000 -1.00000 0.24175 -0.86096 0.44755 0.00000 -0.00000 -1.00000 0.80561 -0.40017 0.43686 0.00000 0.00000 -1.00000 0.91200 0.04638 0.40757 0.00000 0.00000 -1.00000 0.62479 0.64544 0.43937 0.00000 0.00000 -1.00000 0.08487 0.89890 0.42986 0.00000 0.00000 -1.00000 0.89061 0.34603 0.29508 0.00000 0.00000 -1.00000 0.51963 0.80659 0.28178 0.00000 0.00000 -1.00000 -0.05087 0.95754 0.28379 0.00000 0.00000 -1.00000 -0.63502 0.71634 0.28914 0.00000 0.00000 -1.00000 -0.95557 0.01351 0.29446 -0.00000 0.00000 -1.00000 -0.82836 -0.47771 0.29262 0.00000 0.00000 -1.00000 -0.28023 -0.91339 0.29529 0.00000 -0.00000 -1.00000 0.43863 -0.84839 0.29636 0.00000 0.00000 -1.00000 0.81638 -0.49464 0.29809 0.00000 0.00000 -1.00000 -0.93817 -0.17174 0.30058 -0.00000 0.00000 -1.00000 -0.44303 -0.85087 0.28238 0.00000 0.00000 -1.00000 -0.03605 -0.96135 0.27296 0.00000 -0.00000 -1.00000 0.60088 -0.75069 0.27461 0.00000 0.00000 -1.00000 0.94800 -0.13763 0.28697 0.00000 0.00000 -1.00000 0.82978 0.47606 0.29125 0.00000 0.00000 -1.00000 0.24255 0.92876 0.28032 0.00000 0.00000 -1.00000 -0.40620 0.87065 0.27743 0.00000 0.00000 -1.00000 -0.74018 0.60658 0.29017 0.00000 0.00000 -1.00000 -0.85405 0.34778 0.38684 0.00000 0.00000 -1.00000 -0.89158 -0.26379 0.36811 -0.00000 0.00000 -1.00000 -0.56300 -0.73416 0.37952 0.00000 0.00000 -1.00000 0.05547 -0.92806 0.36829 0.00000 -0.00000 -1.00000 0.64191 -0.67849 0.35723 0.00000 0.00000 -1.00000 0.92742 -0.10827 0.35801 0.00000 0.00000 -1.00000 0.80399 0.47315 0.36018 0.00000 0.00000 -1.00000 0.40178 0.83587 0.37402 0.00000 0.00000 -1.00000 -0.32827 0.86111 0.38823 0.00000 0.00000 -1.00000 -0.84853 0.38337 0.36471 -0.00000 0.00000 -1.00000 -0.85167 -0.34257 0.39661 0.00000 0.00000 -1.00000 -0.35768 -0.84817 0.39074 0.00000 0.00000 -1.00000 0.35026 -0.85764 0.37654 0.00000 -0.00000 -1.00000 0.70922 -0.60454 0.36267 0.00000 0.00000 -1.00000 0.92705 0.00624 0.37489 0.00000 0.00000 -1.00000 0.72440 0.58369 0.36681 0.00000 0.00000 -1.00000 0.17920 0.91306 0.36635 0.00000 0.00000 -1.00000 -0.61336 0.69582 0.37367 0.00000 0.00000 -1.00000 0.75501 0.43941 0.48670 0.00000 0.00000 -1.00000 0.24285 0.84236 0.48110 0.00000 0.00000 -1.00000 -0.27869 0.84192 0.46207 0.00000 0.00000 -1.00000 -0.75736 0.45593 0.46747 0.00000 0.00000 -1.00000 -0.86940 -0.14481 0.47241 -0.00000 0.00000 -1.00000 -0.54250 -0.69365 0.47387 0.00000 0.00000 -1.00000 -0.08016 -0.87472 0.47796 0.00000 -0.00000 -1.00000 0.44979 -0.74516 0.49236 0.00000 0.00000 -1.00000 0.85693 -0.14169 0.49558 0.00000 0.00000 -1.00000 -0.95105 -0.10123 0.29199 -0.00000 0.00000 -1.00000 -0.68087 -0.66759 0.30124 0.00000 0.00000 -1.00000 -0.04617 -0.95371 0.29715 0.00000 -0.00000 -1.00000 0.70352 -0.64309 0.30247 0.00000 0.00000 -1.00000 0.95761 0.01505 0.28769 0.00000 0.00000 -1.00000 0.81014 0.51441 0.28117 0.00000 0.00000 -1.00000 0.24548 0.92915 0.27643 0.00000 0.00000 -1.00000 -0.30817 0.90850 0.28223 0.00000 0.00000 -1.00000 -0.86238 0.42194 0.27976 0.00000 0.00000 -1.00000 0.75532 0.60304 0.25657 0.00000 0.00000 -1.00000 0.44842 0.85423 0.26307 0.00000 0.00000 -1.00000 -0.45564 0.84697 0.27394 0.00000 0.00000 -1.00000 -0.79900 0.53569 0.27319 0.00000 0.00000 -1.00000 -0.93198 -0.22361 0.28534 -0.00000 0.00000 -1.00000 -0.54451 -0.79267 0.27420 0.00000 0.00000 -1.00000 -0.08085 -0.95824 0.27431 0.00000 -0.00000 -1.00000 0.71128 -0.64311 0.28371 0.00000 0.00000 -1.00000 0.96084 0.07334 0.26721 0.00000 0.00000 -1.00000 -0.88907 -0.05357 0.45462 -0.00000 0.00000 -1.00000 -0.79959 -0.39141 0.45547 0.00000 0.00000 -1.00000 -0.18758 -0.86379 0.46763 0.00000 -0.00000 -1.00000 0.47854 -0.75832 0.44265 0.00000 0.00000 -1.00000 0.72859 -0.51737 0.44887 0.00000 0.00000 -1.00000 0.84959 0.22054 0.47912 0.00000 0.00000 -1.00000 0.44509 0.75940 0.47456 0.00000 0.00000 -1.00000 -0.22586 0.86095 0.45580 0.00000 0.00000 -1.00000 -0.55446 0.68907 0.46664 0.00000 0.00000 -1.00000 0.98210 -0.01834 0.18745 0.00000 0.00000 -1.00000 0.92285 0.32912 0.20006 0.00000 0.00000 -1.00000 0.28336 0.93701 0.20422 0.00000 0.00000 -1.00000 -0.44256 0.86452 0.23820 0.00000 0.00000 -1.00000 -0.93221 0.27462 0.23571 -0.00000 0.00000 -1.00000 -0.86818 -0.43745 0.23431 0.00000 0.00000 -1.00000 -0.41838 -0.88785 0.19153 0.00000 0.00000 -1.00000 0.08296 -0.97696 0.19664 0.00000 -0.00000 -1.00000 0.76916 -0.60946 0.19222 0.00000 0.00000 -1.00000 0.03096 0.96687 0.25339 0.00000 0.00000 -1.00000 -0.70170 0.65723 0.27508 0.00000 0.00000 -1.00000 -0.95875 -0.12125 0.25710 -0.00000 0.00000 -1.00000 -0.75890 -0.59895 0.25558 0.00000 0.00000 -1.00000 -0.23788 -0.93587 0.25990 0.00000 -0.00000 -1.00000 0.57557 -0.77663 0.25605 0.00000 0.00000 -1.00000 0.90739 -0.34038 0.24652 0.00000 0.00000 -1.00000 0.95091 0.17445 0.25559 0.00000 0.00000 -1.00000 0.50823 0.82380 0.25112 0.00000 0.00000 -1.00000 0.59848 0.69406 0.40012 0.00000 0.00000 -1.00000 -0.16196 0.90883 0.38444 0.00000 0.00000 -1.00000 -0.55725 0.74045 0.37577 0.00000 0.00000 -1.00000 -0.92187 -0.09723 0.37510 -0.00000 0.00000 -1.00000 -0.82154 -0.41861 0.38709 0.00000 0.00000 -1.00000 -0.03647 -0.92897 0.36835 0.00000 -0.00000 -1.00000 0.21428 -0.90623 0.36446 0.00000 0.00000 -1.00000 0.80312 -0.43583 0.40625 0.00000 0.00000 -1.00000 0.86480 0.31713 0.38929 0.00000 0.00000 -1.00000 -0.93837 0.24599 0.24279 -0.00000 0.00000 -1.00000 -0.80632 -0.54048 0.24026 0.00000 0.00000 -1.00000 -0.18113 -0.95568 0.23207 0.00000 -0.00000 -1.00000 0.27486 -0.93338 0.23076 0.00000 0.00000 -1.00000 0.91544 -0.32505 0.23732 0.00000 0.00000 -1.00000 0.97061 -0.04335 0.23672 0.00000 0.00000 -1.00000 0.59830 0.75685 0.26307 0.00000 0.00000 -1.00000 -0.11245 0.96182 0.24950 0.00000 0.00000 -1.00000 -0.61413 0.74954 0.24704 0.00000 0.00000 -1.00000 -0.96529 0.02339 0.26012 -0.00000 0.00000 -1.00000 -0.92312 -0.27644 0.26728 0.00000 0.00000 -1.00000 0.12504 -0.95581 0.26608 0.00000 -0.00000 -1.00000 0.18373 -0.94633 0.26590 0.00000 0.00000 -1.00000 0.80727 -0.49622 0.31949 0.00000 0.00000 -1.00000 0.86438 0.41011 0.29095 0.00000 0.00000 -1.00000 0.52801 0.79562 0.29697 0.00000 0.00000 -1.00000 -0.20008 0.93342 0.29781 0.00000 0.00000 -1.00000 -0.58672 0.75634 0.28933 0.00000 0.00000 -1.00000 0.80176 -0.46178 0.37940 0.00000 0.00000 -1.00000 0.93774 0.00360 0.34732 0.00000 0.00000 -1.00000 0.87747 0.31550 0.36126 0.00000 0.00000 -1.00000 0.20453 0.89540 0.39552 0.00000 0.00000 -1.00000 -0.42073 0.80904 0.41042 0.00000 0.00000 -1.00000 -0.87956 0.27275 0.38984 0.00000 0.00000 -1.00000 -0.91000 -0.14710 0.38765 -0.00000 0.00000 -1.00000 -0.19553 -0.91538 0.35193 0.00000 0.00000 -1.00000 -0.17227 -0.91981 0.35253 0.00000 -0.00000 -1.00000 -0.46589 -0.85676 0.22113 0.00000 0.00000 -1.00000 0.29591 -0.92869 0.22355 0.00000 -0.00000 -1.00000 0.85473 -0.47267 0.21451 0.00000 0.00000 -1.00000 0.96055 -0.16641 0.22283 0.00000 0.00000 -1.00000 0.67460 0.70033 0.23335 0.00000 0.00000 -1.00000 -0.08155 0.97033 0.22763 0.00000 0.00000 -1.00000 -0.39679 0.89115 0.22003 0.00000 0.00000 -1.00000 -0.96583 0.14296 0.21618 -0.00000 0.00000 -1.00000 -0.94118 -0.26364 0.21135 0.00000 0.00000 -1.00000 0.92126 0.33613 0.19571 0.00000 0.00000 -1.00000 0.16728 0.96693 0.19251 0.00000 0.00000 -1.00000 -0.42009 0.89042 0.17515 0.00000 0.00000 -1.00000 -0.82570 0.54045 0.16168 0.00000 0.00000 -1.00000 -0.96981 0.16607 0.17858 -0.00000 0.00000 -1.00000 -0.35880 -0.91527 0.18315 0.00000 0.00000 -1.00000 -0.39401 -0.90053 0.18384 0.00000 -0.00000 -1.00000 0.60331 -0.77357 0.19391 0.00000 0.00000 -1.00000 0.92710 -0.31987 0.19535 0.00000 0.00000 -1.00000 0.87051 -0.01342 0.49198 0.00000 0.00000 -1.00000 0.74451 0.45220 0.49115 0.00000 0.00000 -1.00000 0.12534 0.86352 0.48849 0.00000 0.00000 -1.00000 -0.29155 0.82252 0.48833 0.00000 0.00000 -1.00000 -0.83062 0.26549 0.48948 0.00000 0.00000 -1.00000 -0.84355 -0.23857 0.48114 -0.00000 0.00000 -1.00000 -0.51542 -0.70465 0.48766 0.00000 0.00000 -1.00000 0.14960 -0.86129 0.48559 0.00000 -0.00000 -1.00000 0.63977 -0.59758 0.48331 0.00000 0.00000 -1.00000 0.92282 -0.26640 0.27827 0.00000 0.00000 -1.00000 0.85206 0.44460 0.27627 0.00000 0.00000 -1.00000 0.26844 0.92430 0.27130 0.00000 0.00000 -1.00000 -0.50748 0.81526 0.27895 0.00000 0.00000 -1.00000 -0.93130 0.25088 0.26407 0.00000 0.00000 -1.00000 -0.95131 -0.16046 0.26319 -0.00000 0.00000 -1.00000 -0.27733 -0.92704 0.25236 0.00000 0.00000 -1.00000 -0.12178 -0.95937 0.25453 0.00000 -0.00000 -1.00000 0.74845 -0.61109 0.25768 0.00000 0.00000 -1.00000 0.90801 -0.25956 0.32887 0.00000 0.00000 -1.00000 0.91500 0.23264 0.32962 0.00000 0.00000 -1.00000 0.40430 0.85093 0.33534 0.00000 0.00000 -1.00000 -0.11326 0.93219 0.34379 0.00000 0.00000 -1.00000 -0.78693 0.51531 0.33942 0.00000 0.00000 -1.00000 -0.94197 0.04827 0.33220 -0.00000 0.00000 -1.00000 -0.73076 -0.59116 0.34136 0.00000 0.00000 -1.00000 -0.16737 -0.92594 0.33857 0.00000 -0.00000 -1.00000 0.53011 -0.77997 0.33262 0.00000 0.00000 -1.00000 -0.94364 0.20705 0.25820 -0.00000 0.00000 -1.00000 -0.79060 -0.56109 0.24521 0.00000 0.00000 -1.00000 -0.44707 -0.85757 0.25437 0.00000 0.00000 -1.00000 0.43767 -0.87001 0.22702 0.00000 -0.00000 -1.00000 0.64252 -0.73125 0.22900 0.00000 0.00000 -1.00000 0.94799 0.21042 0.23883 0.00000 0.00000 -1.00000 0.57228 0.78648 0.23225 0.00000 0.00000 -1.00000 0.03909 0.97237 0.23015 0.00000 0.00000 -1.00000 -0.41829 0.87629 0.23907 0.00000 0.00000 -1.00000 0.03975 0.92343 0.38171 0.00000 0.00000 -1.00000 -0.63984 0.66954 0.37725 0.00000 0.00000 -1.00000 -0.90619 0.20557 0.36953 -0.00000 0.00000 -1.00000 -0.84492 -0.38725 0.36899 0.00000 0.00000 -1.00000 -0.32015 -0.86607 0.38396 0.00000 0.00000 -1.00000 0.26087 -0.88342 0.38925 0.00000 -0.00000 -1.00000 0.80805 -0.44841 0.38209 0.00000 0.00000 -1.00000 0.90887 0.18862 0.37199 0.00000 0.00000 -1.00000 0.66178 0.64648 0.37962 0.00000 0.00000 -1.00000 0.67968 0.60339 0.41709 0.00000 0.00000 -1.00000 0.08156 0.90405 0.41957 0.00000 0.00000 -1.00000 -0.48153 0.76684 0.42437 0.00000 0.00000 -1.00000 -0.87090 0.24877 0.42384 -0.00000 0.00000 -1.00000 -0.81799 -0.39216 0.42084 0.00000 0.00000 -1.00000 -0.30107 -0.86298 0.40574 0.00000 0.00000 -1.00000 0.24715 -0.88371 0.39746 0.00000 -0.00000 -1.00000 0.71651 -0.57322 0.39753 0.00000 0.00000 -1.00000 0.91679 0.02653 0.39849 0.00000 0.00000 -1.00000 0.58474 -0.73457 0.34421 0.00000 0.00000 -1.00000 0.92596 -0.13004 0.35454 0.00000 0.00000 -1.00000 0.78168 0.52108 0.34271 0.00000 0.00000 -1.00000 0.18897 0.91943 0.34487 0.00000 0.00000 -1.00000 -0.39762 0.84914 0.34766 0.00000 0.00000 -1.00000 -0.87794 0.33306 0.34394 0.00000 0.00000 -1.00000 -0.90194 -0.27610 0.33208 -0.00000 0.00000 -1.00000 -0.60107 -0.72759 0.33063 0.00000 0.00000 -1.00000 -0.01627 -0.94281 0.33293 0.00000 -0.00000 -1.00000 0.81107 -0.46779 0.35119 0.00000 0.00000 -1.00000 0.90753 0.24972 0.33769 0.00000 0.00000 -1.00000 0.59637 0.73350 0.32607 0.00000 0.00000 -1.00000 0.07190 0.93909 0.33606 0.00000 0.00000 -1.00000 -0.66747 0.65957 0.34562 0.00000 0.00000 -1.00000 -0.94260 0.01267 0.33368 -0.00000 0.00000 -1.00000 -0.85614 -0.39677 0.33106 0.00000 0.00000 -1.00000 -0.30751 -0.88507 0.34940 0.00000 -0.00000 -1.00000 0.33408 -0.87419 0.35240 0.00000 0.00000 -1.00000 -0.97168 0.13116 0.19655 -0.00000 0.00000 -1.00000 -0.75185 -0.63412 0.18058 0.00000 0.00000 -1.00000 -0.34857 -0.91974 0.18048 0.00000 -0.00000 -1.00000 0.27610 -0.94313 0.18515 0.00000 0.00000 -1.00000 0.94246 -0.27329 0.19255 0.00000 0.00000 -1.00000 0.96920 0.15628 0.19034 0.00000 0.00000 -1.00000 0.60995 0.76899 0.19137 0.00000 0.00000 -1.00000 0.08080 0.97793 0.19268 0.00000 0.00000 -1.00000 -0.71360 0.67293 0.19478 0.00000 0.00000 -1.00000 0.91450 -0.14371 0.37820 0.00000 0.00000 -1.00000 0.76843 0.51646 0.37787 0.00000 0.00000 -1.00000 0.34310 0.86044 0.37674 0.00000 0.00000 -1.00000 -0.42697 0.82098 0.37905 0.00000 0.00000 -1.00000 -0.73871 0.55791 0.37821 0.00000 0.00000 -1.00000 -0.87641 -0.29498 0.38064 -0.00000 0.00000 -1.00000 -0.62027 -0.69318 0.36710 0.00000 0.00000 -1.00000 -0.12094 -0.91675 0.38071 0.00000 -0.00000 -1.00000 0.65769 -0.64635 0.38689 0.00000 0.00000 -1.00000 0.14931 -0.90019 0.40909 0.00000 0.00000 -1.00000 0.64403 -0.62634 0.43922 0.00000 0.00000 -1.00000 0.87404 0.22374 0.43126 0.00000 0.00000 -1.00000 0.56845 0.71071 0.41443 0.00000 0.00000 -1.00000 0.21391 0.88364 0.41645 0.00000 0.00000 -1.00000 -0.58772 0.67716 0.44276 0.00000 0.00000 -1.00000 -0.90223 0.07018 0.42551 -0.00000 0.00000 -1.00000 -0.86085 -0.29839 0.41219 0.00000 0.00000 -1.00000 -0.26662 -0.87929 0.39467 0.00000 -0.00000 -1.00000 0.70952 -0.58888 0.38704 0.00000 0.00000 -1.00000 0.92014 -0.08086 0.38316 0.00000 0.00000 -1.00000 0.74636 0.54724 0.37878 0.00000 0.00000 -1.00000 0.19767 0.90361 0.38001 0.00000 0.00000 -1.00000 -0.37213 0.84458 0.38498 0.00000 0.00000 -1.00000 -0.86420 0.31263 0.39424 0.00000 0.00000 -1.00000 -0.87562 -0.30535 0.37423 -0.00000 0.00000 -1.00000 -0.61619 -0.68887 0.38180 0.00000 0.00000 -1.00000 0.14439 -0.90663 0.39645 0.00000 -0.00000 -1.00000 0.58588 0.78883 0.18573 0.00000 0.00000 -1.00000 -0.18434 0.96472 0.18795 0.00000 0.00000 -1.00000 -0.90262 0.39023 0.18166 0.00000 0.00000 -1.00000 -0.97691 0.10771 0.18454 -0.00000 0.00000 -1.00000 -0.57028 -0.80306 0.17284 0.00000 0.00000 -1.00000 -0.56536 -0.80650 0.17301 0.00000 -0.00000 -1.00000 0.64957 -0.73767 0.18414 0.00000 0.00000 -1.00000 0.89378 -0.40757 0.18721 0.00000 0.00000 -1.00000 0.91314 0.36556 0.18039 0.00000 0.00000 -1.00000 0.51599 0.76863 0.37809 0.00000 0.00000 -1.00000 -0.13293 0.91574 0.37914 0.00000 0.00000 -1.00000 -0.72681 0.57704 0.37251 0.00000 0.00000 -1.00000 -0.91625 0.12945 0.37912 -0.00000 0.00000 -1.00000 -0.72825 -0.56222 0.39187 0.00000 0.00000 -1.00000 -0.08379 -0.91361 0.39786 0.00000 -0.00000 -1.00000 0.45956 -0.80340 0.37863 0.00000 0.00000 -1.00000 0.88595 -0.25430 0.38784 0.00000 0.00000 -1.00000 0.84631 0.36725 0.38586 0.00000 0.00000 -1.00000 0.64953 -0.62549 0.43228 0.00000 0.00000 -1.00000 0.87042 -0.23970 0.43003 0.00000 0.00000 -1.00000 0.70733 0.55092 0.44291 0.00000 0.00000 -1.00000 0.33026 0.83758 0.43519 0.00000 0.00000 -1.00000 -0.42620 0.79556 0.43063 0.00000 0.00000 -1.00000 -0.76430 0.48871 0.42071 0.00000 0.00000 -1.00000 -0.89739 -0.05750 0.43748 -0.00000 0.00000 -1.00000 -0.54117 -0.72078 0.43314 0.00000 0.00000 -1.00000 -0.14835 -0.88611 0.43908 0.00000 -0.00000 -1.00000 0.27642 0.90540 0.32225 0.00000 0.00000 -1.00000 -0.21759 0.92101 0.32312 0.00000 0.00000 -1.00000 -0.77569 0.53879 0.32864 0.00000 0.00000 -1.00000 -0.93428 -0.13899 0.32833 -0.00000 0.00000 -1.00000 -0.50673 -0.80332 0.31288 0.00000 0.00000 -1.00000 -0.02752 -0.95189 0.30520 0.00000 -0.00000 -1.00000 0.53526 -0.78419 0.31390 0.00000 0.00000 -1.00000 0.94606 -0.06465 0.31749 0.00000 0.00000 -1.00000 0.82239 0.46967 0.32106 0.00000 0.00000 -1.00000 0.67758 0.59341 0.43446 0.00000 0.00000 -1.00000 0.07094 0.89536 0.43966 0.00000 0.00000 -1.00000 -0.49788 0.75003 0.43540 0.00000 0.00000 -1.00000 -0.82764 0.33378 0.45123 -0.00000 0.00000 -1.00000 -0.79387 -0.39530 0.46207 0.00000 0.00000 -1.00000 -0.45048 -0.76900 0.45355 0.00000 0.00000 -1.00000 0.35607 -0.82533 0.43823 0.00000 -0.00000 -1.00000 0.62958 -0.64179 0.43787 0.00000 0.00000 -1.00000 0.89392 0.11394 0.43351 0.00000 0.00000 -1.00000 -0.43290 -0.81671 0.38154 0.00000 0.00000 -1.00000 0.12183 -0.91460 0.38557 0.00000 -0.00000 -1.00000 0.74540 -0.55002 0.37663 0.00000 0.00000 -1.00000 0.92822 0.05683 0.36767 0.00000 0.00000 -1.00000 0.69336 0.61460 0.37619 0.00000 0.00000 -1.00000 0.01769 0.92773 0.37282 0.00000 0.00000 -1.00000 -0.35662 0.85872 0.36799 0.00000 0.00000 -1.00000 -0.88083 0.29209 0.37260 -0.00000 0.00000 -1.00000 -0.83859 -0.38901 0.38136 0.00000 0.00000 -1.00000 -0.17021 0.93865 0.29995 0.00000 0.00000 -1.00000 -0.86120 0.40359 0.30895 0.00000 0.00000 -1.00000 -0.95211 -0.01017 0.30560 -0.00000 0.00000 -1.00000 -0.56368 -0.76269 0.31713 0.00000 0.00000 -1.00000 -0.17858 -0.93277 0.31314 0.00000 -0.00000 -1.00000 0.53719 -0.77740 0.32722 0.00000 0.00000 -1.00000 0.94490 -0.11237 0.30746 0.00000 0.00000 -1.00000 0.88829 0.33743 0.31158 0.00000 0.00000 -1.00000 0.33414 0.89349 0.30003 0.00000 0.00000 -1.00000 -0.91374 -0.07615 0.39909 -0.00000 0.00000 -1.00000 -0.81832 -0.40829 0.40455 0.00000 0.00000 -1.00000 -0.11019 -0.90858 0.40291 0.00000 -0.00000 -1.00000 0.27258 -0.87179 0.40703 0.00000 0.00000 -1.00000 0.89103 -0.21867 0.39781 0.00000 0.00000 -1.00000 0.91328 0.10734 0.39294 0.00000 0.00000 -1.00000 0.48296 0.77312 0.41113 0.00000 0.00000 -1.00000 -0.06578 0.90790 0.41400 0.00000 0.00000 -1.00000 -0.66304 0.62859 0.40652 0.00000 0.00000 -1.00000 0.95984 -0.16082 0.22987 0.00000 0.00000 -1.00000 0.92815 0.30030 0.21993 0.00000 0.00000 -1.00000 0.58071 0.78048 0.23155 0.00000 0.00000 -1.00000 -0.10319 0.96391 0.24544 0.00000 0.00000 -1.00000 -0.74402 0.62748 0.22958 0.00000 0.00000 -1.00000 -0.97282 -0.00852 0.23141 -0.00000 0.00000 -1.00000 -0.72525 -0.64963 0.22801 0.00000 0.00000 -1.00000 -0.29041 -0.92693 0.23762 0.00000 -0.00000 -1.00000 0.44295 -0.86013 0.25292 0.00000 0.00000 -1.00000 0.52939 0.68825 0.49604 0.00000 0.00000 -1.00000 0.08486 0.86767 0.48984 0.00000 0.00000 -1.00000 -0.53725 0.69277 0.48108 0.00000 0.00000 -1.00000 -0.86694 0.13877 0.47870 -0.00000 0.00000 -1.00000 -0.83479 -0.26314 0.48362 0.00000 0.00000 -1.00000 -0.32853 -0.80169 0.49936 0.00000 0.00000 -1.00000 0.23883 -0.83445 0.49664 0.00000 -0.00000 -1.00000 0.79289 -0.38225 0.47456 0.00000 0.00000 -1.00000 0.87703 -0.03832 0.47890 0.00000 0.00000 -1.00000 0.81451 0.37970 0.43864 0.00000 0.00000 -1.00000 0.29665 0.84761 0.43995 0.00000 0.00000 -1.00000 -0.16301 0.87862 0.44883 0.00000 0.00000 -1.00000 -0.81488 0.36548 0.44989 0.00000 0.00000 -1.00000 -0.89400 -0.00195 0.44806 -0.00000 0.00000 -1.00000 -0.54559 -0.69490 0.46845 0.00000 0.00000 -1.00000 0.01938 -0.89151 0.45258 0.00000 -0.00000 -1.00000 0.59338 -0.68248 0.42675 0.00000 0.00000 -1.00000 0.86285 -0.25760 0.43490 0.00000 0.00000 -1.00000 0.13710 -0.95096 0.27727 0.00000 -0.00000 -1.00000 0.71291 -0.65009 0.26294 0.00000 0.00000 -1.00000 0.95024 -0.16386 0.26495 0.00000 0.00000 -1.00000 0.78553 0.55179 0.28014 0.00000 0.00000 -1.00000 0.31504 0.91059 0.26754 0.00000 0.00000 -1.00000 -0.41035 0.87603 0.25333 0.00000 0.00000 -1.00000 -0.76916 0.58128 0.26553 0.00000 0.00000 -1.00000 -0.92217 -0.29052 0.25536 -0.00000 0.00000 -1.00000 -0.67428 -0.69338 0.25411 0.00000 0.00000 -1.00000</float_array><technique_common><accessor source="#normals-array" count="1080" stride="3"><param name="X" type="float"/><param name="Y" type="float"/><param name="Z" type="float"/></accessor></technique_common></source>
<vertices id="vertices"><input semantic="POSITION" source="#positions"/></vertices><triangles count="1080"><input semantic="VERTEX" source="#vertices" offset="0"/><input semantic="NORMAL" source="#normals" offset="1"/><p>0 0 1 0 9 0 10 1 1 1 0 1 1 2 2 2 9 2 10 3 2 3 1 3 2 4 3 4 9 4 10 5 3 5 2 5 3 6 4 6 9 6 10 7 4 7 3 7 4 8 5 8 9 8 10 9 5 9 4 9 5 10 6 10 9 10 10 11 6 11 5 11 6 12 7 12 9 12 10 13 7 13 6 13 7 14 8 14 9 14 10 15 8 15 7 15 8 16 0 16 9 16 10 17 0 17 8 17 11 18 12 18 20 18 21 19 12 19 11 19 12 20 13 20 20 20 21 21 13 21 12 21 13 22 14 22 20 22 21 23 14 23 13 23 14 24 15 24 20 24 21 25 15 25 14 25 15 26 16 26 20 26 21 27 16 27 15 27 16 28 17 28 20 28 21 29 17 29 16 29 17 30 18 30 20 30 21 31 18 31 17 31 18 32 19 32 20 32 21 33 19 33 18 33 19 34 11 34 20 34 21 35 11 35 19 35 22 36 23 36 31 36 32 37 23 37 22 37 23 38 24 38 31 38 32 39 24 39 23 39 24 40 25 40 31 40 32 41 25 41 24 41 25 42 26 42 31 42 32 43 26 43 25 43 26 44 27 44 31 44 32 45 27 45 26 45 27 46 28 46 31 46 32 47 28 47 27 47 28 48 29 48 31 48 32 49 29 49 28 49 29 50 30 50 31 50 32 51 30 51 29 51 30 52 22 52 31 52 32 53 22 53 30 53 33 54 34 54 42 54 43 55 34 55 33 55 34 56 35 56 42 56 43 57 35 57 34 57 35 58 36 58 42 58 43 59 36 59 35 59 36 60 37 60 42 60 43 61 37 61 36 61 37 62 38 62 42 62 43 63 38 63 37 63 38 64 39 64 42 64 43 65 39 65 38 65 39 66 40 66 42 66 43 67 40 67 39 67 40 68 41 68 42 68 43 69 41 69 40 69 41 70 33 70 42 70 43 71 33 71 41 71 44 72 45 72 53 72 54 73 45 73 44 73 45 74 46 74 53 74 54 75 46 75 45 75 46 76 47 76 53 76 54 77 47 77 46 77 47 78 48 78 53 78 54 79 48 79 47 79 48 80 49 80 53 80 54 81 49 81 48 81 49 82 50 82 53 82 54 83 50 83 49 83 50 84 51 84 53 84 54 85 51 85 50 85 51 86 52 86 53 86 54 87 52 87 51 87 52 88 44 88 53 88 54 89 44 89 52 89 55 90 56 90 64 90 65 91 56 91 55 91 56 92 57 92 64 92 65 93 57 93 56 93 57 94 58 94 64 94 65 95 58 95 57 95 58 96 59 96 64 96 65 97 59 97 58 97 59 98 60 98 64 98 65 99 60 99 59 99 60 100 61 100 64 100 65 101 61 101 60 101 61 102 62 102 64 102 65 103 62 103 61 103 62 104 63 104 64 104 65 105 63 105 62 105 63 106 55 106 64 106 65 107 55 107 63 107 66 108 67 108 75 108 76 109 67 109 66 109 67 110 68 110 75 110 76 111 68 111 67 111 68 112 69 112 75 112 76 113 69 113 68 113 69 114 70 114 75 114 76 115 70 115 69 115 70 116 71 116 75 116 76 117 71 117 70 117 71 118 72 118 75 118 76 119 72 119 71 119 72 120 73 120 75 120 76 121 73 121 72 121 73 122 74 122 75 122 76 123 74 123 73 123 74 124 66 124 75 124 76 125 66 125 74 125 77 126 78 126 86 126 87 127 78 127 77 127 78 128 79 128 86 128 87 129 79 129 78 129 79 130 80 130 86 130 87 131 80 131 79 131 80 132 81 132 86 132 87 133 81 133 80 133 81 134 82 134 86 134 87 135 82 135 81 135 82 136 83 136 86 136 87 137 83 137 82 137 83 138 84 138 86 138 87 139 84 139 83 139 84 140 85 140 86 140 87 141 85 141 84 141 85 142 77 142 86 142 87 143 77 143 85 143 88 144 89 144 97 144 98 145 89 145 88 145 89 146 90 146 97 146 98 147 90 147 89 147 90 148 91 148 97 148 98 149 91 149 90 149 91 150 92 150 97 150 98 151 92 151 91 151 92 152 93 152 97 152 98 153 93 153 92 153 93 154 94 154 97 154 98 155 94 155 93 155 94 156 95 156 97 156 98 157 95 157 94 157 95 158 96 158 97 158 98 159 96 159 95 159 96 160 88 160 97 160 98 161 88 161 96 161 99 162 100 162 108 162 109 163 100 163 99 163 100 164 101 164 108 164 109 165 101 165 100 165 101 166 102 166 108 166 109 167 102 167 101 167 102 168 103 168 108 168 109 169 103 169 102 169 103 170 104 170 108 170 109 171 104 171 103 171 104 172 105 172 108 172 109 173 105 173 104 173 105 174 106 174 108 174 109 175 106 175 105 175 106 176 107 176 108 176 109 177 107 177 106 177 107 178 99 178 108 178 109 179 99 179 107 179 110 180 111 180 119 180 120 181 111 181 110 181 111 182 112 182 119 182 120 183 112 183 111 183 112 184 113 184 119 184 120 185 113 185 112 185 113 186 114 186 119 186 120 187 114 187 113 187 114 188 115 188 119 188 120 189 115 189 114 189 115 190 116 190 119 190 120 191 116 191 115 191 116 192 117 192 119 192 120 193 117 193 116 193 117 194 118 194 119 194 120 195 118 195 117 195 118 196 110 196 119 196 120 197 110 197 118 197 121 198 122 198 130 198 131 199 122 199 121 199 122 200 123 200 130 200 131 201 123 201 122 201 123 202 124 202 130 202 131 203 124 203 123 203 124 204 125 204 130 204 131 205 125 205 124 205 125 206 126 206 130 206 131 207 126 207 125 207 126 208 127 208 130 208 131 209 127 209 126 209 127 210 128 210 130 210 131 211 128 211 127 211 128 212 129 212 130 212 131 213 129 213 128 213 129 214 121 214 130 214 131 215 121 215 129 215 132 216 133 216 141 216 142 217 133 217 132 217 133 218 134 218 141 218 142 219 134 219 133 219 134 220 135 220 141 220 142 221 135 221 134 221 135 222 136 222 141 222 142 223 136 223 135 223 136 224 137 224 141 224 142 225 137 225 136 225 137 226 138 226 141 226 142 227 138 227 137 227 138 228 139 228 141 228 142 229 139 229 138 229 139 230 140 230 141 230 142 231 140 231 139 231 140 232 132 232 141 232 142 233 132 233 140 233 143 234 144 234 152 234 153 235 144 235 143 235 144 236 145 236 152 236 153 237 145 237 144 237 145 238 146 238 152 238 153 239 146 239 145 239 146 240 147 240 152 240 153 241 147 241 146 241 147 242 148 242 152 242 153 243 148 243 147 243 148 244 149 244 152 244 153 245 149 245 148 245 149 246 150 246 152 246 153 247 150 247 149 247 150 248 151 248 152 248 153 249 151 249 150 249 151 250 143 250 152 250 153 251 143 251 151 251 154 252 155 252 163 252 164 253 155 253 154 253 155 254 156 254 163 254 164 255 156 255 155 255 156 256 157 256 163 256 164 257 157 257 156 257 157 258 158 258 163 258 164 259 158 259 157 259 158 260 159 260 163 260 164 261 159 261 158 261 159 262 160 262 163 262 164 263 160 263 159 263 160 264 161 264 163 264 164 265 161 265 160 265 161 266 162 266 163 266 164 267 162 267 161 267 162 268 154 268 163 268 164 269 154 269 162 269 165 270 166 270 174 270 175 271 166 271 165 271 166 272 167 272 174 272 175 273 167 273 166 273 167 274 168 274 174 274 175 275 168 275 167 275 168 276 169 276 174 276 175 277 169 277 168 277 169 278 170 278 174 278 175 279 170 279 169 279 170 280 171 280 174 280 175 281 171 281 170 281 171 282 172 282 174 282 175 283 172 283 171 283 172 284 173 284 174 284 175 285 173 285 172 285 173 286 165 286 174 286 175 287 165 287 173 287 176 288 177 288 185 288 186 289 177 289 176 289 177 290 178 290 185 290 186 291 178 291 177 291 178 292 179 292 185 292 186 293 179 293 178 293 179 294 180 294 185 294 186 295 180 295 179 295 180 296 181 296 185 296 186 297 181 297 180 297 181 298 182 298 185 298 186 299 182 299 181 299 182 300 183 300 185 300 186 301 183 301 182 301 183 302 184 302 185 302 186 303 184 303 183 303 184 304 176 304 185 304 186 305 176 305 184 305 187 306 188 306 196 306 197 307 188 307 187 307 188 308 189 308 196 308 197 309 189 309 188 309 189 310 190 310 196 310 197 311 190 311 189 311 190 312 191 312 196 312 197 313 191 313 190 313 191 314 192 314 196 314 197 315 192 315 191 315 192 316 193 316 196 316 197 317 193 317 192 317 193 318 194 318 196 318 197 319 194 319 193 319 194 320 195 320 196 320 197 321 195 321 194 321 195 322 187 322 196 322 197 323 187 323 195 323 198 324 199 324 207 324 208 325 199 325 198 325 199 326 200 326 207 326 208 327 200 327 199 327 200 328 201 328 207 328 208 329 201 329 200 329 201 330 202 330 207 330 208 331 202 331 201 331 202 332 203 332 207 332 208 333 203 333 202 333 203 334 204 334 207 334 208 335 204 335 203 335 204 336 205 336 207 336 208 337 205 337 204 337 205 338 206 338 207 338 208 339 206 339 205 339 206 340 198 340 207 340 208 341 198 341 206 341 209 342 210 342 218 342 219 343 210 343 209 343 210 344 211 344 218 344 219 345 211 345 210 345 211 346 212 346 218 346 219 347 212 347 211 347 212 348 213 348 218 348 219 349 213 349 212 349 213 350 214 350 218 350 219 351 214 351 213 351 214 352 215 352 218 352 219 353 215 353 214 353 215 354 216 354 218 354 219 355 216 355 215 355 216 356 217 356 218 356 219 357 217 357 216 357 217 358 209 358 218 358 219 359 209 359 217 359 220 360 221 360 229 360 230 361 221 361 220 361 221 362 222 362 229 362 230 363 222 363 221 363 222 364 223 364 229 364 230 365 223 365 222 365 223 366 224 366 229 366 230 367 224 367 223 367 224 368 225 368 229 368 230 369 225 369 224 369 225 370 226 370 229 370 230 371 226 371 225 371 226 372 227 372 229 372 230 373 227 373 226 373 227 374 228 374 229 374 230 375 228 375 227 375 228 376 220 376 229 376 230 377 220 377 228 377 231 378 232 378 240 378 241 379 232 379 231 379 232 380 233 380 240 380 241 381 233 381 232 381 233 382 234 382 240 382 241 383 234 383 233 383 234 384 235 384 240 384 241 385 235 385 234 385 235 386 236 386 240 386 241 387 236 387 235 387 236 388 237 388 240 388 241 389 237 389 236 389 237 390 238 390 240 390 241 391 238 391 237 391 238 392 239 392 240 392 241 393 239 393 238 393 239 394 231 394 240 394 241 395 231 395 239 395 242 396 243 396 251 396 252 397 243 397 242 397 243 398 244 398 251 398 252 399 244 399 243 399 244 400 245 400 251 400 252 401 245 401 244 401 245 402 246 402 251 402 252 403 246 403 245 403 246 404 247 404 251 404 252 405 247 405 246 405 247 406 248 406 251 406 252 407 248 407 247 407 248 408 249 408 251 408 252 409 249 409 248 409 249 410 250 410 251 410 252 411 250 411 249 411 250 412 242 412 251 412 252 413 242 413 250 413 253 414 254 414 262 414 263 415 254 415 253 415 254 416 255 416 262 416 263 417 255 417 254 417 255 418 256 418 262 418 263 419 256 419 255 419 256 420 257 420 262 420 263 421 257 421 256 421 257 422 258 422 262 422 263 423 258 423 257 423 258 424 259 424 262 424 263 425 259 425 258 425 259 426 260 426 262 426 263 427 260 427 259 427 260 428 261 428 262 428 263 429 261 429 260 429 261 430 253 430 262 430 263 431 253 431 261 431 264 432 265 432 273 432 274 433 265 433 264 433 265 434 266 434 273 434 274 435 266 435 265 435 266 436 267 436 273 436 274 437 267 437 266 437 267 438 268 438 273 438 274 439 268 439 267 439 268 440 269 440 273 440 274 441 269 441 268 441 269 442 270 442 273 442 274 443 270 443 269 443 270 444 271 444 273 444 274 445 271 445 270 445 271 446 272 446 273 446 274 447 272 447 271 447 272 448 264 448 273 448 274 449 264 449 272 449 275 450 276 450 284 450 285 451 276 451 275 451 276 452 277 452 284 452 285 453 277 453 276 453 277 454 278 454 284 454 285 455 278 455 277 455 278 456 279 456 284 456 285 457 279 457 278 457 279 458 280 458 284 458 285 459 280 459 279 459 280 460 281 460 284 460 285 461 281 461 280 461 281 462 282 462 284 462 285 463 282 463 281 463 282 464 283 464 284 464 285 465 283 465 282 465 283 466 275 466 284 466 285 467 275 467 283 467 286 468 287 468 295 468 296 469 287 469 286 469 287 470 288 470 295 470 296 471 288 471 287 471 288 472 289 472 295 472 296 473 289 473 288 473 289 474 290 474 295 474 296 475 290 475 289 475 290 476 291 476 295 476 296 477 291 477 290 477 291 478 292 478 295 478 296 479 292 479 291 479 292 480 293 480 295 480 296 481 293 481 292 481 293 482 294 482 295 482 296 483 294 483 293 483 294 484 286 484 295 484 296 485 286 485 294 485 297 486 298 486 306 486 307 487 298 487 297 487 298 488 299 488 306 488 307 489 299 489 298 489 299 490 300 490 306 490 307 491 300 491 299 491 300 492 301 492 306 492 307 493 301 493 300 493 301 494 302 494 306 494 307 495 302 495 301 495 302 496 303 496 306 496 307 497 303 497 302 497 303 498 304 498 306 498 307 499 304 499 303 499 304 500 305 500 306 500 307 501 305 501 304 501 305 502 297 502 306 502 307 503 297 503 305 503 308 504 309 504 317 504 318 505 309 505 308 505 309 506 310 506 317 506 318 507 310 507 309 507 310 508 311 508 317 508 318 509 311 509 310 509 311 510 312 510 317 510 318 511 312 511 311 511 312 512 313 512 317 512 318 513 313 513 312 513 313 514 314 514 317 514 318 515 314 515 313 515 314 516 315 516 317 516 318 517 315 517 314 517 315 518 316 518 317 518 318 519 316 519 315 519 316 520 308 520 317 520 318 521 308 521 316 521 319 522 320 522 328 522 329 523 320 523 319 523 320 524 321 524 328 524 329 525 321 525 320 525 321 526 322 526 328 526 329 527 322 527 321 527 322 528 323 528 328 528 329 529 323 529 322 529 323 530 324 530 328 530 329 531 324 531 323 531 324 532 325 532 328 532 329 533 325 533 324 533 325 534 326 534 328 534 329 535 326 535 325 535 326 536 327 536 328 536 329 537 327 537 326 537 327 538 319 538 328 538 329 539 319 539 327 539 330 540 331 540 339 540 340 541 331 541 330 541 331 542 332 542 339 542 340 543 332 543 331 543 332 544 333 544 339 544 340 545 333 545 332 545 333 546 334 546 339 546 340 547 334 547 333 547 334 548 335 548 339 548 340 549 335 549 334 549 335 550 336 550 339 550 340 551 336 551 335 551 336 552 337 552 339 552 340 553 337 553 336 553 337 554 338 554 339 554 340 555 338 555 337 555 338 556 330 556 339 556 340 557 330 557 338 557 341 558 342 558 350 558 351 559 342 559 341 559 342 560 343 560 350 560 351 561 343 561 342 561 343 562 344 562 350 562 351 563 344 563 343 563 344 564 345 564 350 564 351 565 345 565 344 565 345 566 346 566 350 566 351 567 346 567 345 567 346 568 347 568 350 568 351 569 347 569 346 569 347 570 348 570 350 570 351 571 348 571 347 571 348 572 349 572 350 572 351 573 349 573 348 573 349 574 341 574 350 574 351 575 341 575 349 575 352 576 353 576 361 576 362 577 353 577 352 577 353 578 354 578 361 578 362 579 354 579 353 579 354 580 355 580 361 580 362 581 355 581 354 581 355 582 356 582 361 582 362 583 356 583 355 583 356 584 357 584 361 584 362 585 357 585 356 585 357 586 358 586 361 586 362 587 358 587 357 587 358 588 359 588 361 588 362 589 359 589 358 589 359 590 360 590 361 590 362 591 360 591 359 591 360 592 352 592 361 592 362 593 352 593 360 593 363 594 364 594 372 594 373 595 364 595 363 595 364 596 365 596 372 596 373 597 365 597 364 597 365 598 366 598 372 598 373 599 366 599 365 599 366 600 367 600 372 600 373 601 367 601 366 601 367 602 368 602 372 602 373 603 368 603 367 603 368 604 369 604 372 604 373 605 369 605 368 605 369 606 370 606 372 606 373 607 370 607 369 607 370 608 371 608 372 608 373 609 371 609 370 609 371 610 363 610 372 610 373 611 363 611 371 611 374 612 375 612 383 612 384 613 375 613 374 613 375 614 376 614 383 614 384 615 376 615 375 615 376 616 377 616 383 616 384 617 377 617 376 617 377 618 378 618 383 618 384 619 378 619 377 619 378 620 379 620 383 620 384 621 379 621 378 621 379 622 380 622 383 622 384 623 380 623 379 623 380 624 381 624 383 624 384 625 381 625 380 625 381 626 382 626 383 626 384 627 382 627 381 627 382 628 374 628 383 628 384 629 374 629 382 629 385 630 386 630 394 630 395 631 386 631 385 631 386 632 387 632 394 632 395 633 387 633 386 633 387 634 388 634 394 634 395 635 388 635 387 635 388 636 389 636 394 636 395 637 389 637 388 637 389 638 390 638 394 638 395 639 390 639 389 639 390 640 391 640 394 640 395 641 391 641 390 641 391 642 392 642 394 642 395 643 392 643 391 643 392 644 393 644 394 644 395 645 393 645 392 645 393 646 385 646 394 646 395 647 385 647 393 647 396 648 397 648 405 648 406 649 397 649 396 649 397 650 398 650 405 650 406 651 398 651 397 651 398 652 399 652 405 652 406 653 399 653 398 653 399 654 400 654 405 654 406 655 400 655 399 655 400 656 401 656 405 656 406 657 401 657 400 657 401 658 402 658 405 658 406 659 402 659 401 659 402 660 403 660 405 660 406 661 403 661 402 661 403 662 404 662 405 662 406 663 404 663 403 663 404 664 396 664 405 664 406 665 396 665 404 665 407 666 408 666 416 666 417 667 408 667 407 667 408 668 409 668 416 668 417 669 409 669 408 669 409 670 410 670 416 670 417 671 410 671 409 671 410 672 411 672 416 672 417 673 411 673 410 673 411 674 412 674 416 674 417 675 412 675 411 675 412 676 413 676 416 676 417 677 413 677 412 677 413 678 414 678 416 678 417 679 414 679 413 679 414 680 415 680 416 680 417 681 415 681 414 681 415 682 407 682 416 682 417 683 407 683 415 683 418 684 419 684 427 684 428 685 419 685 418 685 419 686 420 686 427 686 428 687 420 687 419 687 420 688 421 688 427 688 428 689 421 689 420 689 421 690 422 690 427 690 428 691 422 691 421 691 422 692 423 692 427 692 428 693 423 693 422 693 423 694 424 694 427 694 428 695 424 695 423 695 424 696 425 696 427 696 428 697 425 697 424 697 425 698 426 698 427 698 428 699 426 699 425 699 426 700 418 700 427 700 428 701 418 701 426 701 429 702 430 702 438 702 439 703 430 703 429 703 430 704 431 704 438 704 439 705 431 705 430 705 431 706 432 706 438 706 439 707 432 707 431 707 432 708 433 708 438 708 439 709 433 709 432 709 433 710 434 710 438 710 439 711 434 711 433 711 434 712 435 712 438 712 439 713 435 713 434 713 435 714 436 714 438 714 439 715 436 715 435 715 436 716 437 716 438 716 439 717 437 717 436 717 437 718 429 718 438 718 439 719 429 719 437 719 440 720 441 720 449 720 450 721 441 721 440 721 441 722 442 722 449 722 450 723 442 723 441 723 442 724 443 724 449 724 450 725 443 725 442 725 443 726 444 726 449 726 450 727 444 727 443 727 444 728 445 728 449 728 450 729 445 729 444 729 445 730 446 730 449 730 450 731 446 731 445 731 446 732 447 732 449 732 450 733 447 733 446 733 447 734 448 734 449 734 450 735 448 735 447 735 448 736 440 736 449 736 450 737 440 737 448 737 451 738 452 738 460 738 461 739 452 739 451 739 452 740 453 740 460 740 461 741 453 741 452 741 453 742 454 742 460 742 461 743 454 743 453 743 454 744 455 744 460 744 461 745 455 745 454 745 455 746 456 746 460 746 461 747 456 747 455 747 456 748 457 748 460 748 461 749 457 749 456 749 457 750 458 750 460 750 461 751 458 751 457 751 458 752 459 752 460 752 461 753 459 753 458 753 459 754 451 754 460 754 461 755 451 755 459 755 462 756 463 756 471 756 472 757 463 757 462 757 463 758 464 758 471 758 472 759 464 759 463 759 464 760 465 760 471 760 472 761 465 761 464 761 465 762 466 762 471 762 472 763 466 763 465 763 466 764 467 764 471 764 472 765 467 765 466 765 467 766 468 766 471 766 472 767 468 767 467 767 468 768 469 768 471 768 472 769 469 769 468 769 469 770 470 770 471 770 472 771 470 771 469 771 470 772 462 772 471 772 472 773 462 773 470 773 473 774 474 774 482 774 483 775 474 775 473 775 474 776 475 776 482 776 483 777 475 777 474 777 475 778 476 778 482 778 483 779 476 779 475 779 476 780 477 780 482 780 483 781 477 781 476 781 477 782 478 782 482 782 483 783 478 783 477 783 478 784 479 784 482 784 483 785 479 785 478 785 479 786 480 786 482 786 483 787 480 787 479 787 480 788 481 788 482 788 483 789 481 789 480 789 481 790 473 790 482 790 483 791 473 791 481 791 484 792 485 792 493 792 494 793 485 793 484 793 485 794 486 794 493 794 494 795 486 795 485 795 486 796 487 796 493 796 494 797 487 797 486 797 487 798 488 798 493 798 494 799 488 799 487 799 488 800 489 800 493 800 494 801 489 801 488 801 489 802 490 802 493 802 494 803 490 803 489 803 490 804 491 804 493 804 494 805 491 805 490 805 491 806 492 806 493 806 494 807 492 807 491 807 492 808 484 808 493 808 494 809 484 809 492 809 495 810 496 810 504 810 505 811 496 811 495 811 496 812 497 812 504 812 505 813 497 813 496 813 497 814 498 814 504 814 505 815 498 815 497 815 498 816 499 816 504 816 505 817 499 817 498 817 499 818 500 818 504 818 505 819 500 819 499 819 500 820 501 820 504 820 505 821 501 821 500 821 501 822 502 822 504 822 505 823 502 823 501 823 502 824 503 824 504 824 505 825 503 825 502 825 503 826 495 826 504 826 505 827 495 827 503 827 506 828 507 828 515 828 516 829 507 829 506 829 507 830 508 830 515 830 516 831 508 831 507 831 508 832 509 832 515 832 516 833 509 833 508 833 509 834 510 834 515 834 516 835 510 835 509 835 510 836 511 836 515 836 516 837 511 837 510 837 511 838 512 838 515 838 516 839 512 839 511 839 512 840 513 840 515 840 516 841 513 841 512 841 513 842 514 842 515 842 516 843 514 843 513 843 514 844 506 844 515 844 516 845 506 845 514 845 517 846 518 846 526 846 527 847 518 847 517 847 518 848 519 848 526 848 527 849 519 849 518 849 519 850 520 850 526 850 527 851 520 851 519 851 520 852 521 852 526 852 527 853 521 853 520 853 521 854 522 854 526 854 527 855 522 855 521 855 522 856 523 856 526 856 527 857 523 857 522 857 523 858 524 858 526 858 527 859 524 859 523 859 524 860 525 860 526 860 527 861 525 861 524 861 525 862 517 862 526 862 527 863 517 863 525 863 528 864 529 864 537 864 538 865 529 865 528 865 529 866 530 866 537 866 538 867 530 867 529 867 530 868 531 868 537 868 538 869 531 869 530 869 531 870 532 870 537 870 538 871 532 871 531 871 532 872 533 872 537 872 538 873 533 873 532 873 533 874 534 874 537 874 538 875 534 875 533 875 534 876 535 876 537 876 538 877 535 877 534 877 535 878 536 878 537 878 538 879 536 879 535 879 536 880 528 880 537 880 538 881 528 881 536 881 539 882 540 882 548 882 549 883 540 883 539 883 540 884 541 884 548 884 549 885 541 885 540 885 541 886 542 886 548 886 549 887 542 887 541 887 542 888 543 888 548 888 549 889 543 889 542 889 543 890 544 890 548 890 549 891 544 891 543 891 544 892 545 892 548 892 549 893 545 893 544 893 545 894 546 894 548 894 549 895 546 895 545 895 546 896 547 896 548 896 549 897 547 897 546 897 547 898 539 898 548 898 549 899 539 899 547 899 550 900 551 900 559 900 560 901 551 901 550 901 551 902 552 902 559 902 560 903 552 903 551 903 552 904 553 904 559 904 560 905 553 905 552 905 553 906 554 906 559 906 560 907 554 907 553 907 554 908 555 908 559 908 560 909 555 909 554 909 555 910 556 910 559 910 560 911 556 911 555 911 556 912 557 912 559 912 560 913 557 913 556 913 557 914 558 914 559 914 560 915 558 915 557 915 558 916 550 916 559 916 560 917 550 917 558 917 561 918 562 918 570 918 571 919 562 919 561 919 562 920 563 920 570 920 571 921 563 921 562 921 563 922 564 922 570 922 571 923 564 923 563 923 564 924 565 924 570 924 571 925 565 925 564 925 565 926 566 926 570 926 571 927 566 927 565 927 566 928 567 928 570 928 571 929 567 929 566 929 567 930 568 930 570 930 571 931 568 931 567 931 568 932 569 932 570 932 571 933 569 933 568 933 569 934 561 934 570 934 571 935 561 935 569 935 572 936 573 936 581 936 582 937 573 937 572 937 573 938 574 938 581 938 582 939 574 939 573 939 574 940 575 940 581 940 582 941 575 941 574 941 575 942 576 942 581 942 582 943 576 943 575 943 576 944 577 944 581 944 582 945 577 945 576 945 577 946 578 946 581 946 582 947 578 947 577 947 578 948 579 948 581 948 582 949 579 949 578 949 579 950 580 950 581 950 582 951 580 951 579 951 580 952 572 952 581 952 582 953 572 953 580 953 583 954 584 954 592 954 593 955 584 955 583 955 584 956 585 956 592 956 593 957 585 957 584 957 585 958 586 958 592 958 593 959 586 959 585 959 586 960 587 960 592 960 593 961 587 961 586 961 587 962 588 962 592 962 593 963 588 963 587 963 588 964 589 964 592 964 593 965 589 965 588 965 589 966 590 966 592 966 593 967 590 967 589 967 590 968 591 968 592 968 593 969 591 969 590 969 591 970 583 970 592 970 593 971 583 971 591 971 594 972 595 972 603 972 604 973 595 973 594 973 595 974 596 974 603 974 604 975 596 975 595 975 596 976 597 976 603 976 604 977 597 977 596 977 597 978 598 978 603 978 604 979 598 979 597 979 598 980 599 980 603 980 604 981 599 981 598 981 599 982 600 982 603 982 604 983 600 983 599 983 600 984 601 984 603 984 604 985 601 985 600 985 601 986 602 986 603 986 604 987 602 987 601 987 602 988 594 988 603 988 604 989 594 989 602 989 605 990 606 990 614 990 615 991 606 991 605 991 606 992 607 992 614 992 615 993 607 993 606 993 607 994 608 994 614 994 615 995 608 995 607 995 608 996 609 996 614 996 615 997 609 997 608 997 609 998 610 998 614 998 615 999 610 999 609 999 610 1000 611 1000 614 1000 615 1001 611 1001 610 1001 611 1002 612 1002 614 1002 615 1003 612 1003 611 1003 612 1004 613 1004 614 1004 615 1005 613 1005 612 1005 613 1006 605 1006 614 1006 615 1007 605 1007 613 1007 616 1008 617 1008 625 1008 626 1009 617 1009 616 1009 617 1010 618 1010 625 1010 626 1011 618 1011 617 1011 618 1012 619 1012 625 1012 626 1013 619 1013 618 1013 619 1014 620 1014 625 1014 626 1015 620 1015 619 1015 620 1016 621 1016 625 1016 626 1017 621 1017 620 1017 621 1018 622 1018 625 1018 626 1019 622 1019 621 1019 622 1020 623 1020 625 1020 626 1021 623 1021 622 1021 623 1022 624 1022 625 1022 626 1023 624 1023 623 1023 624 1024 616 1024 625 1024 626 1025 616 1025 624 1025 627 1026 628 1026 636 1026 637 1027 628 1027 627 1027 628 1028 629 1028 636 1028 637 1029 629 1029 628 1029 629 1030 630 1030 636 1030 637 1031 630 1031 629 1031 630 1032 631 1032 636 1032 637 1033 631 1033 630 1033 631 1034 632 1034 636 1034 637 1035 632 1035 631 1035 632 1036 633 1036 636 1036 637 1037 633 1037 632 1037 633 1038 634 1038 636 1038 637 1039 634 1039 633 1039 634 1040 635 1040 636 1040 637 1041 635 1041 634 1041 635 1042 627 1042 636 1042 637 1043 627 1043 635 1043 638 1044 639 1044 647 1044 648 1045 639 1045 638 1045 639 1046 640 1046 647 1046 648 1047 640 1047 639 1047 640 1048 641 1048 647 1048 648 1049 641 1049 640 1049 641 1050 642 1050 647 1050 648 1051 642 1051 641 1051 642 1052 643 1052 647 1052 648 1053 643 1053 642 1053 643 1054 644 1054 647 1054 648 1055 644 1055 643 1055 644 1056 645 1056 647 1056 648 1057 645 1057 644 1057 645 1058 646 1058 647 1058 648 1059 646 1059 645 1059 646 1060 638 1060 647 1060 648 1061 638 1061 646 1061 649 1062 650 1062 658 1062 659 1063 650 1063 649 1063 650 1064 651 1064 658 1064 659 1065 651 1065 650 1065 651 1066 652 1066 658 1066 659 1067 652 1067 651 1067 652 1068 653 1068 658 1068 659 1069 653 1069 652 1069 653 1070 654 1070 658 1070 659 1071 654 1071 653 1071 654 1072 655 1072 658 1072 659 1073 655 1073 654 1073 655 1074 656 1074 658 1074 659 1075 656 1075 655 1075 656 1076 657 1076 658 1076 659 1077 657 1077 656 1077 657 1078 649 1078 658 1078 659 1079 649 1079 657 1079</p></triangles>
</mesh></geometry></library_geometries><library_visual_scenes><visual_scene id="Scene"><node id="mesh"><instance_geometry url="#geometry"/></node></visual_scene></library_visual_scenes><scene><instance_visual_scene url="#Scene"/></scene></COLLADA>