<?xml version="1.0" encoding="UTF-8"?>
<COLLADA xmlns="http://www.collada.org/2005/11/COLLADASchema" version="1.4.1">
<asset><contributor><authoring_tool>Summit Estate procedural mesh exporter</authoring_tool></contributor><created>2026-09-11T00:00:00Z</created><modified>2026-09-11T00:00:00Z</modified><unit name="meter" meter="1"/><up_axis>Z_UP</up_axis></asset>
<library_geometries><geometry id="geometry" name="geometry"><mesh>
<source id="positions"><float_array id="positions-array" count="2520">180.15991 233.01754 78.10858 180.02991 233.24271 78.10858 179.76991 233.24271 78.10858 179.63991 233.01754 78.10858 179.76991 232.79238 78.10858 180.02991 232.79238 78.10858 180.15991 233.01754 86.43696 180.02991 233.24271 86.43696 179.76991 233.24271 86.43696 179.63991 233.01754 86.43696 179.76991 232.79238 86.43696 180.02991 232.79238 86.43696 179.89991 233.01754 78.10858 179.89991 233.01754 86.43696 116.75114 245.96503 71.83231 116.62114 246.19020 71.83231 116.36114 246.19020 71.83231 116.23114 245.96503 71.83231 116.36114 245.73987 71.83231 116.62114 245.73987 71.83231 116.75114 245.96503 82.76466 116.62114 246.19020 82.76466 116.36114 246.19020 82.76466 116.23114 245.96503 82.76466 116.36114 245.73987 82.76466 116.62114 245.73987 82.76466 116.49114 245.96503 71.83231 116.49114 245.96503 82.76466 190.17851 249.82573 76.59341 190.04851 250.05090 76.59341 189.78851 250.05090 76.59341 189.65851 249.82573 76.59341 189.78851 249.60057 76.59341 190.04851 249.60057 76.59341 190.17851 249.82573 89.39809 190.04851 250.05090 89.39809 189.78851 250.05090 89.39809 189.65851 249.82573 89.39809 189.78851 249.60057 89.39809 190.04851 249.60057 89.39809 189.91851 249.82573 76.59341 189.91851 249.82573 89.39809 25.46623 231.78413 78.48125 25.33623 232.00930 78.48125 25.07623 232.00930 78.48125 24.94623 231.78413 78.48125 25.07623 231.55897 78.48125 25.33623 231.55897 78.48125 25.46623 231.78413 87.66458 25.33623 232.00930 87.66458 25.07623 232.00930 87.66458 24.94623 231.78413 87.66458 25.07623 231.55897 87.66458 25.33623 231.55897 87.66458 25.20623 231.78413 78.48125 25.20623 231.78413 87.66458 44.87143 248.83085 73.81045 44.74143 249.05602 73.81045 44.48143 249.05602 73.81045 44.35143 248.83085 73.81045 44.48143 248.60569 73.81045 44.74143 248.60569 73.81045 44.87143 248.83085 87.80243 44.74143 249.05602 87.80243 44.48143 249.05602 87.80243 44.35143 248.83085 87.80243 44.48143 248.60569 87.80243 44.74143 248.60569 87.80243 44.61143 248.83085 73.81045 44.61143 248.83085 87.80243 71.14156 229.51660 77.87863 71.01156 229.74176 77.87863 70.75156 229.74176 77.87863 70.62156 229.51660 77.87863 70.75156 229.29143 77.87863 71.01156 229.29143 77.87863 71.14156 229.51660 86.38656 71.01156 229.74176 86.38656 70.75156 229.74176 86.38656 70.62156 229.51660 86.38656 70.75156 229.29143 86.38656 71.01156 229.29143 86.38656 70.88156 229.51660 77.87863 70.88156 229.51660 86.38656 36.53381 244.11894 75.78682 36.40381 244.34411 75.78682 36.14381 244.34411 75.78682 36.01381 244.11894 75.78682 36.14381 243.89378 75.78682 36.40381 243.89378 75.78682 36.53381 244.11894 87.30109 36.40381 244.34411 87.30109 36.14381 244.34411 87.30109 36.01381 244.11894 87.30109 36.14381 243.89378 87.30109 36.40381 243.89378 87.30109 36.27381 244.11894 75.78682 36.27381 244.11894 87.30109 83.32096 227.99734 78.02084 83.19096 228.22251 78.02084 82.93096 228.22251 78.02084 82.80096 227.99734 78.02084 82.93096 227.77218 78.02084 83.19096 227.77218 78.02084 83.32096 227.99734 87.39732 83.19096 228.22251 87.39732 82.93096 228.22251 87.39732 82.80096 227.99734 87.39732 82.93096 227.77218 87.39732 83.19096 227.77218 87.39732 83.06096 227.99734 78.02084 83.06096 227.99734 87.39732 88.47546 229.98646 77.35693 88.34546 230.21163 77.35693 88.08546 230.21163 77.35693 87.95546 229.98646 77.35693 88.08546 229.76129 77.35693 88.34546 229.76129 77.35693 88.47546 229.98646 84.54893 88.34546 230.21163 84.54893 88.08546 230.21163 84.54893 87.95546 229.98646 84.54893 88.08546 229.76129 84.54893 88.34546 229.76129 84.54893 88.21546 229.98646 77.35693 88.21546 229.98646 84.54893 188.53053 234.69850 78.04421 188.40053 234.92366 78.04421 188.14053 234.92366 78.04421 188.01053 234.69850 78.04421 188.14053 234.47333 78.04421 188.40053 234.47333 78.04421 188.53053 234.69850 84.97480 188.40053 234.92366 84.97480 188.14053 234.92366 84.97480 188.01053 234.69850 84.97480 188.14053 234.47333 84.97480 188.40053 234.47333 84.97480 188.27053 234.69850 78.04421 188.27053 234.69850 84.97480 180.40653 247.46705 76.48148 180.27653 247.69222 76.48148 180.01653 247.69222 76.48148 179.88653 247.46705 76.48148 180.01653 247.24189 76.48148 180.27653 247.24189 76.48148 180.40653 247.46705 89.49902 180.27653 247.69222 89.49902 180.01653 247.69222 89.49902 179.88653 247.46705 89.49902 180.01653 247.24189 89.49902 180.27653 247.24189 89.49902 180.14653 247.46705 76.48148 180.14653 247.46705 89.49902 177.82746 241.36002 76.93743 177.69746 241.58518 76.93743 177.43746 241.58518 76.93743 177.30746 241.36002 76.93743 177.43746 241.13485 76.93743 177.69746 241.13485 76.93743 177.82746 241.36002 84.52124 177.69746 241.58518 84.52124 177.43746 241.58518 84.52124 177.30746 241.36002 84.52124 177.43746 241.13485 84.52124 177.69746 241.13485 84.52124 177.56746 241.36002 76.93743 177.56746 241.36002 84.52124 90.08820 248.50975 70.35161 89.95820 248.73492 70.35161 89.69820 248.73492 70.35161 89.56820 248.50975 70.35161 89.69820 248.28459 70.35161 89.95820 248.28459 70.35161 90.08820 248.50975 78.95774 89.95820 248.73492 78.95774 89.69820 248.73492 78.95774 89.56820 248.50975 78.95774 89.69820 248.28459 78.95774 89.95820 248.28459 78.95774 89.82820 248.50975 70.35161 89.82820 248.50975 78.95774 197.22554 225.76935 79.24430 197.09554 225.99452 79.24430 196.83554 225.99452 79.24430 196.70554 225.76935 79.24430 196.83554 225.54418 79.24430 197.09554 225.54418 79.24430 197.22554 225.76935 92.53961 197.09554 225.99452 92.53961 196.83554 225.99452 92.53961 196.70554 225.76935 92.53961 196.83554 225.54418 92.53961 197.09554 225.54418 92.53961 196.96554 225.76935 79.24430 196.96554 225.76935 92.53961 121.11470 231.48031 76.76250 120.98470 231.70547 76.76250 120.72470 231.70547 76.76250 120.59470 231.48031 76.76250 120.72470 231.25514 76.76250 120.98470 231.25514 76.76250 121.11470 231.48031 85.43456 120.98470 231.70547 85.43456 120.72470 231.70547 85.43456 120.59470 231.48031 85.43456 120.72470 231.25514 85.43456 120.98470 231.25514 85.43456 120.85470 231.48031 76.76250 120.85470 231.48031 85.43456 118.27621 234.20490 75.83647 118.14621 234.43006 75.83647 117.88621 234.43006 75.83647 117.75621 234.20490 75.83647 117.88621 233.97973 75.83647 118.14621 233.97973 75.83647 118.27621 234.20490 90.75600 118.14621 234.43006 90.75600 117.88621 234.43006 90.75600 117.75621 234.20490 90.75600 117.88621 233.97973 90.75600 118.14621 233.97973 90.75600 118.01621 234.20490 75.83647 118.01621 234.20490 90.75600 99.67292 233.34269 76.07352 99.54292 233.56786 76.07352 99.28292 233.56786 76.07352 99.15292 233.34269 76.07352 99.28292 233.11752 76.07352 99.54292 233.11752 76.07352 99.67292 233.34269 86.22863 99.54292 233.56786 86.22863 99.28292 233.56786 86.22863 99.15292 233.34269 86.22863 99.28292 233.11752 86.22863 99.54292 233.11752 86.22863 99.41292 233.34269 76.07352 99.41292 233.34269 86.22863 56.64584 246.76720 73.23644 56.51584 246.99237 73.23644 56.25584 246.99237 73.23644 56.12584 246.76720 73.23644 56.25584 246.54203 73.23644 56.51584 246.54203 73.23644 56.64584 246.76720 86.51843 56.51584 246.99237 86.51843 56.25584 246.99237 86.51843 56.12584 246.76720 86.51843 56.25584 246.54203 86.51843 56.51584 246.54203 86.51843 56.38584 246.76720 73.23644 56.38584 246.76720 86.51843 52.59143 249.48576 72.75904 52.46143 249.71093 72.75904 52.20143 249.71093 72.75904 52.07143 249.48576 72.75904 52.20143 249.26060 72.75904 52.46143 249.26060 72.75904 52.59143 249.48576 85.75504 52.46143 249.71093 85.75504 52.20143 249.71093 85.75504 52.07143 249.48576 85.75504 52.20143 249.26060 85.75504 52.46143 249.26060 85.75504 52.33143 249.48576 72.75904 52.33143 249.48576 85.75504 109.96454 237.59717 74.52214 109.83454 237.82234 74.52214 109.57454 237.82234 74.52214 109.44454 237.59717 74.52214 109.57454 237.37201 74.52214 109.83454 237.37201 74.52214 109.96454 237.59717 81.79734 109.83454 237.82234 81.79734 109.57454 237.82234 81.79734 109.44454 237.59717 81.79734 109.57454 237.37201 81.79734 109.83454 237.37201 81.79734 109.70454 237.59717 74.52214 109.70454 237.59717 81.79734 229.14833 243.45210 76.54278 229.01833 243.67726 76.54278 228.75833 243.67726 76.54278 228.62833 243.45210 76.54278 228.75833 243.22693 76.54278 229.01833 243.22693 76.54278 229.14833 243.45210 90.86855 229.01833 243.67726 90.86855 228.75833 243.67726 90.86855 228.62833 243.45210 90.86855 228.75833 243.22693 90.86855 229.01833 243.22693 90.86855 228.88833 243.45210 76.54278 228.88833 243.45210 90.86855 65.55575 231.39037 77.54354 65.42575 231.61554 77.54354 65.16575 231.61554 77.54354 65.03575 231.39037 77.54354 65.16575 231.16520 77.54354 65.42575 231.16520 77.54354 65.55575 231.39037 90.77003 65.42575 231.61554 90.77003 65.16575 231.61554 90.77003 65.03575 231.39037 90.77003 65.16575 231.16520 90.77003 65.42575 231.16520 90.77003 65.29575 231.39037 77.54354 65.29575 231.39037 90.77003 40.20212 235.05633 77.57797 40.07212 235.28149 77.57797 39.81212 235.28149 77.57797 39.68212 235.05633 77.57797 39.81212 234.83116 77.57797 40.07212 234.83116 77.57797 40.20212 235.05633 87.96312 40.07212 235.28149 87.96312 39.81212 235.28149 87.96312 39.68212 235.05633 87.96312 39.81212 234.83116 87.96312 40.07212 234.83116 87.96312 39.94212 235.05633 77.57797 39.94212 235.05633 87.96312 64.20196 237.96626 75.63625 64.07196 238.19143 75.63625 63.81196 238.19143 75.63625 63.68196 237.96626 75.63625 63.81196 237.74109 75.63625 64.07196 237.74109 75.63625 64.20196 237.96626 85.51587 64.07196 238.19143 85.51587 63.81196 238.19143 85.51587 63.68196 237.96626 85.51587 63.81196 237.74109 85.51587 64.07196 237.74109 85.51587 63.94196 237.96626 75.63625 63.94196 237.96626 85.51587 148.86198 246.76201 74.32654 148.73198 246.98718 74.32654 148.47198 246.98718 74.32654 148.34198 246.76201 74.32654 148.47198 246.53684 74.32654 148.73198 246.53684 74.32654 148.86198 246.76201 83.40949 148.73198 246.98718 83.40949 148.47198 246.98718 83.40949 148.34198 246.76201 83.40949 148.47198 246.53684 83.40949 148.73198 246.53684 83.40949 148.60198 246.76201 74.32654 148.60198 246.76201 83.40949 147.26261 247.59732 74.05455 147.13261 247.82249 74.05455 146.87261 247.82249 74.05455 146.74261 247.59732 74.05455 146.87261 247.37215 74.05455 147.13261 247.37215 74.05455 147.26261 247.59732 83.74385 147.13261 247.82249 83.74385 146.87261 247.82249 83.74385 146.74261 247.59732 83.74385 146.87261 247.37215 83.74385 147.13261 247.37215 83.74385 147.00261 247.59732 74.05455 147.00261 247.59732 83.74385 215.30121 233.37745 78.26197 215.17121 233.60261 78.26197 214.91121 233.60261 78.26197 214.78121 233.37745 78.26197 214.91121 233.15228 78.26197 215.17121 233.15228 78.26197 215.30121 233.37745 92.07280 215.17121 233.60261 92.07280 214.91121 233.60261 92.07280 214.78121 233.37745 92.07280 214.91121 233.15228 92.07280 215.17121 233.15228 92.07280 215.04121 233.37745 78.26197 215.04121 233.37745 92.07280 74.79697 231.64750 77.18336 74.66697 231.87266 77.18336 74.40697 231.87266 77.18336 74.27697 231.64750 77.18336 74.40697 231.42233 77.18336 74.66697 231.42233 77.18336 74.79697 231.64750 85.73376 74.66697 231.87266 85.73376 74.40697 231.87266 85.73376 74.27697 231.64750 85.73376 74.40697 231.42233 85.73376 74.66697 231.42233 85.73376 74.53697 231.64750 77.18336 74.53697 231.64750 85.73376 69.59732 238.82255 75.04442 69.46732 239.04772 75.04442 69.20732 239.04772 75.04442 69.07732 238.82255 75.04442 69.20732 238.59738 75.04442 69.46732 238.59738 75.04442 69.59732 238.82255 84.38134 69.46732 239.04772 84.38134 69.20732 239.04772 84.38134 69.07732 238.82255 84.38134 69.20732 238.59738 84.38134 69.46732 238.59738 84.38134 69.33732 238.82255 75.04442 69.33732 238.82255 84.38134 209.35211 228.34795 78.96551 209.22211 228.57312 78.96551 208.96211 228.57312 78.96551 208.83211 228.34795 78.96551 208.96211 228.12279 78.96551 209.22211 228.12279 78.96551 209.35211 228.34795 91.97084 209.22211 228.57312 91.97084 208.96211 228.57312 91.97084 208.83211 228.34795 91.97084 208.96211 228.12279 91.97084 209.22211 228.12279 91.97084 209.09211 228.34795 78.96551 209.09211 228.34795 91.97084 230.71956 246.33312 76.16235 230.58956 246.55828 76.16235 230.32956 246.55828 76.16235 230.19956 246.33312 76.16235 230.32956 246.10795 76.16235 230.58956 246.10795 76.16235 230.71956 246.33312 83.44347 230.58956 246.55828 83.44347 230.32956 246.55828 83.44347 230.19956 246.33312 83.44347 230.32956 246.10795 83.44347 230.58956 246.10795 83.44347 230.45956 246.33312 76.16235 230.45956 246.33312 83.44347 12.39111 246.01871 76.85806 12.26111 246.24388 76.85806 12.00111 246.24388 76.85806 11.87111 246.01871 76.85806 12.00111 245.79354 76.85806 12.26111 245.79354 76.85806 12.39111 246.01871 91.60680 12.26111 246.24388 91.60680 12.00111 246.24388 91.60680 11.87111 246.01871 91.60680 12.00111 245.79354 91.60680 12.26111 245.79354 91.60680 12.13111 246.01871 76.85806 12.13111 246.01871 91.60680 232.66799 234.77574 77.81593 232.53799 235.00091 77.81593 232.27799 235.00091 77.81593 232.14799 234.77574 77.81593 232.27799 234.55057 77.81593 232.53799 234.55057 77.81593 232.66799 234.77574 85.21792 232.53799 235.00091 85.21792 232.27799 235.00091 85.21792 232.14799 234.77574 85.21792 232.27799 234.55057 85.21792 232.53799 234.55057 85.21792 232.40799 234.77574 77.81593 232.40799 234.77574 85.21792 71.79506 243.12513 73.32570 71.66506 243.35030 73.32570 71.40506 243.35030 73.32570 71.27506 243.12513 73.32570 71.40506 242.89997 73.32570 71.66506 242.89997 73.32570 71.79506 243.12513 80.36302 71.66506 243.35030 80.36302 71.40506 243.35030 80.36302 71.27506 243.12513 80.36302 71.40506 242.89997 80.36302 71.66506 242.89997 80.36302 71.53506 243.12513 73.32570 71.53506 243.12513 80.36302 129.99120 237.96565 74.98616 129.86120 238.19082 74.98616 129.60120 238.19082 74.98616 129.47120 237.96565 74.98616 129.60120 237.74048 74.98616 129.86120 237.74048 74.98616 129.99120 237.96565 89.64662 129.86120 238.19082 89.64662 129.60120 238.19082 89.64662 129.47120 237.96565 89.64662 129.60120 237.74048 89.64662 129.86120 237.74048 89.64662 129.73120 237.96565 74.98616 129.73120 237.96565 89.64662 14.33889 242.71568 77.17588 14.20889 242.94084 77.17588 13.94889 242.94084 77.17588 13.81889 242.71568 77.17588 13.94889 242.49051 77.17588 14.20889 242.49051 77.17588 14.33889 242.71568 89.20576 14.20889 242.94084 89.20576 13.94889 242.94084 89.20576 13.81889 242.71568 89.20576 13.94889 242.49051 89.20576 14.20889 242.49051 89.20576 14.07889 242.71568 77.17588 14.07889 242.71568 89.20576 37.35369 234.90379 77.70652 37.22369 235.12895 77.70652 36.96369 235.12895 77.70652 36.83369 234.90379 77.70652 36.96369 234.67862 77.70652 37.22369 234.67862 77.70652 37.35369 234.90379 87.13369 37.22369 235.12895 87.13369 36.96369 235.12895 87.13369 36.83369 234.90379 87.13369 36.96369 234.67862 87.13369 37.22369 234.67862 87.13369 37.09369 234.90379 77.70652 37.09369 234.90379 87.13369 60.19039 249.51458 71.93197 60.06039 249.73975 71.93197 59.80039 249.73975 71.93197 59.67039 249.51458 71.93197 59.80039 249.28941 71.93197 60.06039 249.28941 71.93197 60.19039 249.51458 79.35952 60.06039 249.73975 79.35952 59.80039 249.73975 79.35952 59.67039 249.51458 79.35952 59.80039 249.28941 79.35952 60.06039 249.28941 79.35952 59.93039 249.51458 71.93197 59.93039 249.51458 79.35952 117.14926 232.27161 76.46061 117.01926 232.49678 76.46061 116.75926 232.49678 76.46061 116.62926 232.27161 76.46061 116.75926 232.04644 76.46061 117.01926 232.04644 76.46061 117.14926 232.27161 90.79259 117.01926 232.49678 90.79259 116.75926 232.49678 90.79259 116.62926 232.27161 90.79259 116.75926 232.04644 90.79259 117.01926 232.04644 90.79259 116.88926 232.27161 76.46061 116.88926 232.27161 90.79259 245.84767 238.03517 76.66815 245.71767 238.26034 76.66815 245.45767 238.26034 76.66815 245.32767 238.03517 76.66815 245.45767 237.81001 76.66815 245.71767 237.81001 76.66815 245.84767 238.03517 91.32938 245.71767 238.26034 91.32938 245.45767 238.26034 91.32938 245.32767 238.03517 91.32938 245.45767 237.81001 91.32938 245.71767 237.81001 91.32938 245.58767 238.03517 76.66815 245.58767 238.03517 91.32938 130.41572 249.41027 72.03757 130.28572 249.63544 72.03757 130.02572 249.63544 72.03757 129.89572 249.41027 72.03757 130.02572 249.18510 72.03757 130.28572 249.18510 72.03757 130.41572 249.41027 83.10753 130.28572 249.63544 83.10753 130.02572 249.63544 83.10753 129.89572 249.41027 83.10753 130.02572 249.18510 83.10753 130.28572 249.18510 83.10753 130.15572 249.41027 72.03757 130.15572 249.41027 83.10753 220.86525 225.06874 79.31976 220.73525 225.29390 79.31976 220.47525 225.29390 79.31976 220.34525 225.06874 79.31976 220.47525 224.84357 79.31976 220.73525 224.84357 79.31976 220.86525 225.06874 91.63046 220.73525 225.29390 91.63046 220.47525 225.29390 91.63046 220.34525 225.06874 91.63046 220.47525 224.84357 91.63046 220.73525 224.84357 91.63046 220.60525 225.06874 79.31976 220.60525 225.06874 91.63046 211.64329 242.48866 77.06566 211.51329 242.71382 77.06566 211.25329 242.71382 77.06566 211.12329 242.48866 77.06566 211.25329 242.26349 77.06566 211.51329 242.26349 77.06566 211.64329 242.48866 89.07120 211.51329 242.71382 89.07120 211.25329 242.71382 89.07120 211.12329 242.48866 89.07120 211.25329 242.26349 89.07120 211.51329 242.26349 89.07120 211.38329 242.48866 77.06566 211.38329 242.48866 89.07120 225.88926 240.43797 77.04026 225.75926 240.66313 77.04026 225.49926 240.66313 77.04026 225.36926 240.43797 77.04026 225.49926 240.21280 77.04026 225.75926 240.21280 77.04026 225.88926 240.43797 90.63691 225.75926 240.66313 90.63691 225.49926 240.66313 90.63691 225.36926 240.43797 90.63691 225.49926 240.21280 90.63691 225.75926 240.21280 90.63691 225.62926 240.43797 77.04026 225.62926 240.43797 90.63691 28.18728 238.13954 77.42369 28.05728 238.36471 77.42369 27.79728 238.36471 77.42369 27.66728 238.13954 77.42369 27.79728 237.91438 77.42369 28.05728 237.91438 77.42369 28.18728 238.13954 92.10602 28.05728 238.36471 92.10602 27.79728 238.36471 92.10602 27.66728 238.13954 92.10602 27.79728 237.91438 92.10602 28.05728 237.91438 92.10602 27.92728 238.13954 77.42369 27.92728 238.13954 92.10602 82.39679 225.14356 78.73061 82.26679 225.36872 78.73061 82.00679 225.36872 78.73061 81.87679 225.14356 78.73061 82.00679 224.91839 78.73061 82.26679 224.91839 78.73061 82.39679 225.14356 89.94868 82.26679 225.36872 89.94868 82.00679 225.36872 89.94868 81.87679 225.14356 89.94868 82.00679 224.91839 89.94868 82.26679 224.91839 89.94868 82.13679 225.14356 78.73061 82.13679 225.14356 89.94868 151.22083 236.18675 76.47988 151.09083 236.41192 76.47988 150.83083 236.41192 76.47988 150.70083 236.18675 76.47988 150.83083 235.96159 76.47988 151.09083 235.96159 76.47988 151.22083 236.18675 83.85576 151.09083 236.41192 83.85576 150.83083 236.41192 83.85576 150.70083 236.18675 83.85576 150.83083 235.96159 83.85576 151.09083 235.96159 83.85576 150.96083 236.18675 76.47988 150.96083 236.18675 83.85576 235.79266 242.45383 76.54812 235.66266 242.67899 76.54812 235.40266 242.67899 76.54812 235.27266 242.45383 76.54812 235.40266 242.22866 76.54812 235.66266 242.22866 76.54812 235.79266 242.45383 88.30390 235.66266 242.67899 88.30390 235.40266 242.67899 88.30390 235.27266 242.45383 88.30390 235.40266 242.22866 88.30390 235.66266 242.22866 88.30390 235.53266 242.45383 76.54812 235.53266 242.45383 88.30390 206.42709 225.48431 79.29796 206.29709 225.70948 79.29796 206.03709 225.70948 79.29796 205.90709 225.48431 79.29796 206.03709 225.25914 79.29796 206.29709 225.25914 79.29796 206.42709 225.48431 90.46703 206.29709 225.70948 90.46703 206.03709 225.70948 90.46703 205.90709 225.48431 90.46703 206.03709 225.25914 90.46703 206.29709 225.25914 90.46703 206.16709 225.48431 79.29796 206.16709 225.48431 90.46703 127.74558 244.64266 72.93443 127.61558 244.86783 72.93443 127.35558 244.86783 72.93443 127.22558 244.64266 72.93443 127.35558 244.41750 72.93443 127.61558 244.41750 72.93443 127.74558 244.64266 81.24968 127.61558 244.86783 81.24968 127.35558 244.86783 81.24968 127.22558 244.64266 81.24968 127.35558 244.41750 81.24968 127.61558 244.41750 81.24968 127.48558 244.64266 72.93443 127.48558 244.64266 81.24968 216.12895 234.42278 78.10311 215.99895 234.64795 78.10311 215.73895 234.64795 78.10311 215.60895 234.42278 78.10311 215.73895 234.19761 78.10311 215.99895 234.19761 78.10311 216.12895 234.42278 86.39770 215.99895 234.64795 86.39770 215.73895 234.64795 86.39770 215.60895 234.42278 86.39770 215.73895 234.19761 86.39770 215.99895 234.19761 86.39770 215.86895 234.42278 78.10311 215.86895 234.42278 86.39770 121.03804 226.92608 78.08668 120.90804 227.15124 78.08668 120.64804 227.15124 78.08668 120.51804 226.92608 78.08668 120.64804 226.70091 78.08668 120.90804 226.70091 78.08668 121.03804 226.92608 90.59766 120.90804 227.15124 90.59766 120.64804 227.15124 90.59766 120.51804 226.92608 90.59766 120.64804 226.70091 90.59766 120.90804 226.70091 90.59766 120.77804 226.92608 78.08668 120.77804 226.92608 90.59766 234.23509 245.17607 76.22329 234.10509 245.40124 76.22329 233.84509 245.40124 76.22329 233.71509 245.17607 76.22329 233.84509 244.95090 76.22329 234.10509 244.95090 76.22329 234.23509 245.17607 84.07306 234.10509 245.40124 84.07306 233.84509 245.40124 84.07306 233.71509 245.17607 84.07306 233.84509 244.95090 84.07306 234.10509 244.95090 84.07306 233.97509 245.17607 76.22329 233.97509 245.17607 84.07306 222.73797 228.15008 78.93138 222.60797 228.37524 78.93138 222.34797 228.37524 78.93138 222.21797 228.15008 78.93138 222.34797 227.92491 78.93138 222.60797 227.92491 78.93138 222.73797 228.15008 88.80960 222.60797 228.37524 88.80960 222.34797 228.37524 88.80960 222.21797 228.15008 88.80960 222.34797 227.92491 88.80960 222.60797 227.92491 88.80960 222.47797 228.15008 78.93138 222.47797 228.15008 88.80960 244.60069 234.75190 77.28616 244.47069 234.97707 77.28616 244.21069 234.97707 77.28616 244.08069 234.75190 77.28616 244.21069 234.52674 77.28616 244.47069 234.52674 77.28616 244.60069 234.75190 87.45261 244.47069 234.97707 87.45261 244.21069 234.97707 87.45261 244.08069 234.75190 87.45261 244.21069 234.52674 87.45261 244.47069 234.52674 87.45261 244.34069 234.75190 77.28616 244.34069 234.75190 87.45261 19.65016 243.62522 76.87768 19.52016 243.85038 76.87768 19.26016 243.85038 76.87768 19.13016 243.62522 76.87768 19.26016 243.40005 76.87768 19.52016 243.40005 76.87768 19.65016 243.62522 86.90210 19.52016 243.85038 86.90210 19.26016 243.85038 86.90210 19.13016 243.62522 86.90210 19.26016 243.40005 86.90210 19.52016 243.40005 86.90210 19.39016 243.62522 76.87768 19.39016 243.62522 86.90210 158.35880 237.87881 76.50791 158.22880 238.10398 76.50791 157.96880 238.10398 76.50791 157.83880 237.87881 76.50791 157.96880 237.65365 76.50791 158.22880 237.65365 76.50791 158.35880 237.87881 90.84566 158.22880 238.10398 90.84566 157.96880 238.10398 90.84566 157.83880 237.87881 90.84566 157.96880 237.65365 90.84566 158.22880 237.65365 90.84566 158.09880 237.87881 76.50791 158.09880 237.87881 90.84566 135.02246 233.49646 76.48017 134.89246 233.72163 76.48017 134.63246 233.72163 76.48017 134.50246 233.49646 76.48017 134.63246 233.27129 76.48017 134.89246 233.27129 76.48017 135.02246 233.49646 83.96447 134.89246 233.72163 83.96447 134.63246 233.72163 83.96447 134.50246 233.49646 83.96447 134.63246 233.27129 83.96447 134.89246 233.27129 83.96447 134.76246 233.49646 76.48017 134.76246 233.49646 83.96447 94.37226 239.02416 74.01177 94.24226 239.24932 74.01177 93.98226 239.24932 74.01177 93.85226 239.02416 74.01177 93.98226 238.79899 74.01177 94.24226 238.79899 74.01177 94.37226 239.02416 82.95731 94.24226 239.24932 82.95731 93.98226 239.24932 82.95731 93.85226 239.02416 82.95731 93.98226 238.79899 82.95731 94.24226 238.79899 82.95731 94.11226 239.02416 74.01177 94.11226 239.02416 82.95731 135.28554 241.60926 74.26010 135.15554 241.83443 74.26010 134.89554 241.83443 74.26010 134.76554 241.60926 74.26010 134.89554 241.38409 74.26010 135.15554 241.38409 74.26010 135.28554 241.60926 87.10741 135.15554 241.83443 87.10741 134.89554 241.83443 87.10741 134.76554 241.60926 87.10741 134.89554 241.38409 87.10741 135.15554 241.38409 87.10741 135.02554 241.60926 74.26010 135.02554 241.60926 87.10741</float_array><technique_common><accessor source="#positions-array" count="840" stride="3"><param name="X" type="float"/><param name="Y" type="float"/><param name="Z" type="float"/></accessor></technique_common></source>
<source id="normals"><float_array id="normals-array" count="4320">0.86603 0.50000 0.00000 0.86603 0.50000 -0.00000 0.00000 0.00000 -1.00000 0.00000 0.00000 1.00000 0.00000 1.00000 0.00000 0.00000 1.00000 -0.00000 0.00000 0.00000 -1.00000 0.00000 -0.00000 1.00000 -0.86603 0.50000 0.00000 -0.86603 0.50000 0.00000 0.00000 0.00000 -1.00000 0.00000 0.00000 1.00000 -0.86603 -0.50000 0.00000 -0.86603 -0.50000 0.00000 -0.00000 0.00000 -1.00000 0.00000 0.00000 1.00000 0.00000 -1.00000 0.00000 0.00000 -1.00000 0.00000 0.00000 -0.00000 -1.00000 0.00000 0.00000 1.00000 0.86603 -0.50000 0.00000 0.86603 -0.50000 0.00000 0.00000 0.00000 -1.00000 -0.00000 0.00000 1.00000 0.86603 0.50000 0.00000 0.86603 0.50000 -0.00000 0.00000 0.00000 -1.00000 0.00000 0.00000 1.00000 0.00000 1.00000 0.00000 0.00000 1.00000 -0.00000 0.00000 0.00000 -1.00000 0.00000 -0.00000 1.00000 -0.86603 0.50000 0.00000 -0.86603 0.50000 0.00000 0.00000 0.00000 -1.00000 0.00000 0.00000 1.00000 -0.86603 -0.50000 0.00000 -0.86603 -0.50000 0.00000 -0.00000 0.00000 -1.00000 0.00000 0.00000 1.00000 0.00000 -1.00000 0.00000 0.00000 -1.00000 0.00000 0.00000 -0.00000 -1.00000 0.00000 0.00000 1.00000 0.86603 -0.50000 0.00000 0.86603 -0.50000 0.00000 0.00000 0.00000 -1.00000 -0.00000 0.00000 1.00000 0.86603 0.50000 0.00000 0.86603 0.50000 -0.00000 0.00000 0.00000 -1.00000 0.00000 0.00000 1.00000 0.00000 1.00000 0.00000 0.00000 1.00000 -0.00000 0.00000 0.00000 -1.00000 0.00000 -0.00000 1.00000 -0.86603 0.50000 0.00000 -0.86603 0.50000 0.00000 0.00000 0.00000 -1.00000 0.00000 0.00000 1.00000 -0.86603 -0.50000 0.00000 -0.86603 -0.50000 0.00000 -0.00000 0.00000 -1.00000 0.00000 0.00000 1.00000 0.00000 -1.00000 0.00000 0.00000 -1.00000 0.00000 0.00000 -0.00000 -1.00000 0.00000 0.00000 1.00000 0.86603 -0.50000 0.00000 0.86603 -0.50000 0.00000 0.00000 0.00000 -1.00000 -0.00000 0.00000 1.00000 0.86603 0.50000 0.00000 0.86603 0.50000 -0.00000 0.00000 0.00000 -1.00000 0.00000 0.00000 1.00000 0.00000 1.00000 0.00000 0.00000 1.00000 -0.00000 0.00000 0.00000 -1.00000 0.00000 -0.00000 1.00000 -0.86603 0.50000 0.00000 -0.86603 0.50000 0.00000 0.00000 0.00000 -1.00000 0.00000 0.00000 1.00000 -0.86603 -0.50000 0.00000 -0.86603 -0.50000 0.00000 -0.00000 0.00000 -1.00000 0.00000 0.00000 1.00000 0.00000 -1.00000 0.00000 0.00000 -1.00000 0.00000 0.00000 -0.00000 -1.00000 0.00000 0.00000 1.00000 0.86603 -0.50000 0.00000 0.86603 -0.50000 0.00000 0.00000 0.00000 -1.00000 -0.00000 0.00000 1.00000 0.86603 0.50000 0.00000 0.86603 0.50000 -0.00000 0.00000 0.00000 -1.00000 0.00000 0.00000 1.00000 0.00000 1.00000 0.00000 0.00000 1.00000 -0.00000 0.00000 0.00000 -1.00000 0.00000 -0.00000 1.00000 -0.86603 0.50000 0.00000 -0.86603 0.50000 0.00000 0.00000 0.00000 -1.00000 0.00000 0.00000 1.00000 -0.86603 -0.50000 0.00000 -0.86603 -0.50000 0.00000 -0.00000 0.00000 -1.00000 0.00000 0.00000 1.00000 0.00000 -1.00000 0.00000 0.00000 -1.00000 0.00000 0.00000 -0.00000 -1.00000 0.00000 0.00000 1.00000 0.86603 -0.50000 0.00000 0.86603 -0.50000 0.00000 0.00000 0.00000 -1.00000 -0.00000 0.00000 1.00000 0.86603 0.50000 0.00000 0.86603 0.50000 -0.00000 0.00000 0.00000 -1.00000 0.00000 0.00000 1.00000 0.00000 1.00000 0.00000 0.00000 1.00000 -0.00000 0.00000 0.00000 -1.00000 0.00000 -0.00000 1.00000 -0.86603 0.50000 0.00000 -0.86603 0.50000 0.00000 0.00000 0.00000 -1.00000 0.00000 0.00000 1.00000 -0.86603 -0.50000 0.00000 -0.86603 -0.50000 0.00000 -0.00000 0.00000 -1.00000 0.00000 0.00000 1.00000 0.00000 -1.00000 0.00000 0.00000 -1.00000 0.00000 0.00000 -0.00000 -1.00000 0.00000 0.00000 1.00000 0.86603 -0.50000 0.00000 0.86603 -0.50000 0.00000 0.00000 0.00000 -1.00000 -0.00000 0.00000 1.00000 0.86603 0.50000 0.00000 0.86603 0.50000 -0.00000 0.00000 0.00000 -1.00000 0.00000 0.00000 1.00000 0.00000 1.00000 0.00000 0.00000 1.00000 -0.00000 0.00000 0.00000 -1.00000 0.00000 -0.00000 1.00000 -0.86603 0.50000 0.00000 -0.86603 0.50000 0.00000 0.00000 0.00000 -1.00000 0.00000 0.00000 1.00000 -0.86603 -0.50000 0.00000 -0.86603 -0.50000 0.00000 -0.00000 0.00000 -1.00000 0.00000 0.00000 1.00000 0.00000 -1.00000 0.00000 0.00000 -1.00000 0.00000 0.00000 -0.00000 -1.00000 0.00000 0.00000 1.00000 0.86603 -0.50000 0.00000 0.86603 -0.50000 0.00000 0.00000 0.00000 -1.00000 -0.00000 0.00000 1.00000 0.86603 0.50000 0.00000 0.86603 0.50000 -0.00000 0.00000 0.00000 -1.00000 0.00000 0.00000 1.00000 0.00000 1.00000 0.00000 0.00000 1.00000 -0.00000 0.00000 0.00000 -1.00000 0.00000 -0.00000 1.00000 -0.86603 0.50000 0.00000 -0.86603 0.50000 0.00000 0.00000 0.00000 -1.00000 0.00000 0.00000 1.00000 -0.86603 -0.50000 0.00000 -0.86603 -0.50000 0.00000 -0.00000 0.00000 -1.00000 0.00000 0.00000 1.00000 0.00000 -1.00000 0.00000 0.00000 -1.00000 0.00000 0.00000 -0.00000 -1.00000 0.00000 0.00000 1.00000 0.86603 -0.50000 0.00000 0.86603 -0.50000 0.00000 0.00000 0.00000 -1.00000 -0.00000 0.00000 1.00000 0.86603 0.50000 0.00000 0.86603 0.50000 -0.00000 0.00000 0.00000 -1.00000 0.00000 0.00000 1.00000 0.00000 1.00000 0.00000 0.00000 1.00000 -0.00000 0.00000 0.00000 -1.00000 0.00000 -0.00000 1.00000 -0.86603 0.50000 0.00000 -0.86603 0.50000 0.00000 0.00000 0.00000 -1.00000 0.00000 0.00000 1.00000 -0.86603 -0.50000 0.00000 -0.86603 -0.50000 0.00000 -0.00000 0.00000 -1.00000 0.00000 0.00000 1.00000 0.00000 -1.00000 0.00000 0.00000 -1.00000 0.00000 0.00000 -0.00000 -1.00000 0.00000 0.00000 1.00000 0.86603 -0.50000 0.00000 0.86603 -0.50000 0.00000 0.00000 0.00000 -1.00000 -0.00000 0.00000 1.00000 0.86603 0.50000 0.00000 0.86603 0.50000 -0.00000 0.00000 0.00000 -1.00000 0.00000 0.00000 1.00000 0.00000 1.00000 0.00000 0.00000 1.00000 -0.00000 0.00000 0.00000 -1.00000 0.00000 -0.00000 1.00000 -0.86603 0.50000 0.00000 -0.86603 0.50000 0.00000 0.00000 0.00000 -1.00000 0.00000 0.00000 1.00000 -0.86603 -0.50000 0.00000 -0.86603 -0.50000 0.00000 -0.00000 0.00000 -1.00000 0.00000 0.00000 1.00000 0.00000 -1.00000 0.00000 0.00000 -1.00000 0.00000 0.00000 -0.00000 -1.00000 0.00000 0.00000 1.00000 0.86603 -0.50000 0.00000 0.86603 -0.50000 0.00000 0.00000 0.00000 -1.00000 -0.00000 0.00000 1.00000 0.86603 0.50000 0.00000 0.86603 0.50000 -0.00000 0.00000 0.00000 -1.00000 0.00000 0.00000 1.00000 0.00000 1.00000 0.00000 0.00000 1.00000 -0.00000 0.00000 0.00000 -1.00000 0.00000 -0.00000 1.00000 -0.86603 0.50000 0.00000 -0.86603 0.50000 0.00000 0.00000 0.00000 -1.00000 0.00000 0.00000 1.00000 -0.86603 -0.50000 0.00000 -0.86603 -0.50000 0.00000 -0.00000 0.00000 -1.00000 0.00000 0.00000 1.00000 0.00000 -1.00000 0.00000 0.00000 -1.00000 0.00000 0.00000 -0.00000 -1.00000 0.00000 0.00000 1.00000 0.86603 -0.50000 0.00000 0.86603 -0.50000 0.00000 0.00000 0.00000 -1.00000 -0.00000 0.00000 1.00000 0.86603 0.50000 0.00000 0.86603 0.50000 -0.00000 0.00000 0.00000 -1.00000 0.00000 0.00000 1.00000 0.00000 1.00000 0.00000 0.00000 1.00000 -0.00000 0.00000 0.00000 -1.00000 0.00000 -0.00000 1.00000 -0.86603 0.50000 0.00000 -0.86603 0.50000 0.00000 0.00000 0.00000 -1.00000 0.00000 0.00000 1.00000 -0.86603 -0.50000 0.00000 -0.86603 -0.50000 0.00000 -0.00000 0.00000 -1.00000 0.00000 0.00000 1.00000 0.00000 -1.00000 0.00000 0.00000 -1.00000 0.00000 0.00000 -0.00000 -1.00000 0.00000 0.00000 1.00000 0.86603 -0.50000 0.00000 0.86603 -0.50000 0.00000 0.00000 0.00000 -1.00000 -0.00000 0.00000 1.00000 0.86603 0.50000 0.00000 0.86603 0.50000 -0.00000 0.00000 0.00000 -1.00000 0.00000 0.00000 1.00000 0.00000 1.00000 0.00000 0.00000 1.00000 -0.00000 0.00000 0.00000 -1.00000 0.00000 -0.00000 1.00000 -0.86603 0.50000 0.00000 -0.86603 0.50000 0.00000 0.00000 0.00000 -1.00000 0.00000 0.00000 1.00000 -0.86603 -0.50000 0.00000 -0.86603 -0.50000 0.00000 -0.00000 0.00000 -1.00000 0.00000 0.00000 1.00000 0.00000 -1.00000 0.00000 0.00000 -1.00000 0.00000 0.00000 -0.00000 -1.00000 0.00000 0.00000 1.00000 0.86603 -0.50000 0.00000 0.86603 -0.50000 0.00000 0.00000 0.00000 -1.00000 -0.00000 0.00000 1.00000 0.86603 0.50000 0.00000 0.86603 0.50000 -0.00000 0.00000 0.00000 -1.00000 0.00000 0.00000 1.00000 0.00000 1.00000 0.00000 0.00000 1.00000 -0.00000 0.00000 0.00000 -1.00000 0.00000 -0.00000 1.00000 -0.86603 0.50000 0.00000 -0.86603 0.50000 0.00000 0.00000 0.00000 -1.00000 0.00000 0.00000 1.00000 -0.86603 -0.50000 0.00000 -0.86603 -0.50000 0.00000 -0.00000 0.00000 -1.00000 0.00000 0.00000 1.00000 0.00000 -1.00000 0.00000 0.00000 -1.00000 0.00000 0.00000 -0.00000 -1.00000 0.00000 0.00000 1.00000 0.86603 -0.50000 0.00000 0.86603 -0.50000 0.00000 0.00000 0.00000 -1.00000 -0.00000 0.00000 1.00000 0.86603 0.50000 0.00000 0.86603 0.50000 -0.00000 0.00000 0.00000 -1.00000 0.00000 0.00000 1.00000 0.00000 1.00000 0.00000 0.00000 1.00000 -0.00000 0.00000 0.00000 -1.00000 0.00000 -0.00000 1.00000 -0.86603 0.50000 0.00000 -0.86603 0.50000 0.00000 0.00000 0.00000 -1.00000 0.00000 0.00000 1.00000 -0.86603 -0.50000 0.00000 -0.86603 -0.50000 0.00000 -0.00000 0.00000 -1.00000 0.00000 0.00000 1.00000 0.00000 -1.00000 0.00000 0.00000 -1.00000 0.00000 0.00000 -0.00000 -1.00000 0.00000 0.00000 1.00000 0.86603 -0.50000 0.00000 0.86603 -0.50000 0.00000 0.00000 0.00000 -1.00000 -0.00000 0.00000 1.00000 0.86603 0.50000 0.00000 0.86603 0.50000 -0.00000 0.00000 0.00000 -1.00000 0.00000 0.00000 1.00000 0.00000 1.00000 0.00000 0.00000 1.00000 -0.00000 0.00000 0.00000 -1.00000 0.00000 -0.00000 1.00000 -0.86603 0.50000 0.00000 -0.86603 0.50000 0.00000 0.00000 0.00000 -1.00000 0.00000 0.00000 1.00000 -0.86603 -0.50000 0.00000 -0.86603 -0.50000 0.00000 -0.00000 0.00000 -1.00000 0.00000 0.00000 1.00000 0.00000 -1.00000 0.00000 0.00000 -1.00000 0.00000 0.00000 -0.00000 -1.00000 0.00000 0.00000 1.00000 0.86603 -0.50000 0.00000 0.86603 -0.50000 0.00000 0.00000 0.00000 -1.00000 -0.00000 0.00000 1.00000 0.86603 0.50000 0.00000 0.86603 0.50000 -0.00000 0.00000 0.00000 -1.00000 0.00000 0.00000 1.00000 0.00000 1.00000 0.00000 0.00000 1.00000 -0.00000 0.00000 0.00000 -1.00000 0.00000 -0.00000 1.00000 -0.86603 0.50000 0.00000 -0.86603 0.50000 0.00000 0.00000 0.00000 -1.00000 0.00000 0.00000 1.00000 -0.86603 -0.50000 0.00000 -0.86603 -0.50000 0.00000 -0.00000 0.00000 -1.00000 0.00000 0.00000 1.00000 0.00000 -1.00000 0.00000 0.00000 -1.00000 0.00000 0.00000 -0.00000 -1.00000 0.00000 0.00000 1.00000 0.86603 -0.50000 0.00000 0.86603 -0.50000 0.00000 0.00000 0.00000 -1.00000 -0.00000 0.00000 1.00000 0.86603 0.50000 0.00000 0.86603 0.50000 -0.00000 0.00000 0.00000 -1.00000 0.00000 0.00000 1.00000 0.00000 1.00000 0.00000 0.00000 1.00000 -0.00000 0.00000 0.00000 -1.00000 0.00000 -0.00000 1.00000 -0.86603 0.50000 0.00000 -0.86603 0.50000 0.00000 0.00000 0.00000 -1.00000 0.00000 0.00000 1.00000 -0.86603 -0.50000 0.00000 -0.86603 -0.50000 0.00000 -0.00000 0.00000 -1.00000 0.00000 0.00000 1.00000 0.00000 -1.00000 0.00000 0.00000 -1.00000 0.00000 0.00000 -0.00000 -1.00000 0.00000 0.00000 1.00000 0.86603 -0.50000 0.00000 0.86603 -0.50000 0.00000 0.00000 0.00000 -1.00000 -0.00000 0.00000 1.00000 0.86603 0.50000 0.00000 0.86603 0.50000 -0.00000 0.00000 0.00000 -1.00000 0.00000 0.00000 1.00000 0.00000 1.00000 0.00000 0.00000 1.00000 -0.00000 0.00000 0.00000 -1.00000 0.00000 -0.00000 1.00000 -0.86603 0.50000 0.00000 -0.86603 0.50000 0.00000 0.00000 0.00000 -1.00000 0.00000 0.00000 1.00000 -0.86603 -0.50000 0.00000 -0.86603 -0.50000 0.00000 -0.00000 0.00000 -1.00000 0.00000 0.00000 1.00000 0.00000 -1.00000 0.00000 0.00000 -1.00000 0.00000 0.00000 -0.00000 -1.00000 0.00000 0.00000 1.00000 0.86603 -0.50000 0.00000 0.86603 -0.50000 0.00000 0.00000 0.00000 -1.00000 -0.00000 0.00000 1.00000 0.86603 0.50000 0.00000 0.86603 0.50000 -0.00000 0.00000 0.00000 -1.00000 0.00000 0.00000 1.00000 0.00000 1.00000 0.00000 0.00000 1.00000 -0.00000 0.00000 0.00000 -1.00000 0.00000 -0.00000 1.00000 -0.86603 0.50000 0.00000 -0.86603 0.50000 0.00000 0.00000 0.00000 -1.00000 0.00000 0.00000 1.00000 -0.86603 -0.50000 0.00000 -0.86603 -0.50000 0.00000 -0.00000 0.00000 -1.00000 0.00000 0.00000 1.00000 0.00000 -1.00000 0.00000 0.00000 -1.00000 0.00000 0.00000 -0.00000 -1.00000 0.00000 0.00000 1.00000 0.86603 -0.50000 0.00000 0.86603 -0.50000 0.00000 0.00000 0.00000 -1.00000 -0.00000 0.00000 1.00000 0.86603 0.50000 0.00000 0.86603 0.50000 -0.00000 0.00000 0.00000 -1.00000 0.00000 0.00000 1.00000 0.00000 1.00000 0.00000 0.00000 1.00000 -0.00000 0.00000 0.00000 -1.00000 0.00000 -0.00000 1.00000 -0.86603 0.50000 0.00000 -0.86603 0.50000 0.00000 0.00000 0.00000 -1.00000 0.00000 0.00000 1.00000 -0.86603 -0.50000 0.00000 -0.86603 -0.50000 0.00000 -0.00000 0.00000 -1.00000 0.00000 0.00000 1.00000 0.00000 -1.00000 0.00000 0.00000 -1.00000 0.00000 0.00000 -0.00000 -1.00000 0.00000 0.00000 1.00000 0.86603 -0.50000 0.00000 0.86603 -0.50000 0.00000 0.00000 0.00000 -1.00000 -0.00000 0.00000 1.00000 0.86603 0.50000 0.00000 0.86603 0.50000 -0.00000 0.00000 0.00000 -1.00000 0.00000 0.00000 1.00000 0.00000 1.00000 0.00000 0.00000 1.00000 -0.00000 0.00000 0.00000 -1.00000 0.00000 -0.00000 1.00000 -0.86603 0.50000 0.00000 -0.86603 0.50000 0.00000 0.00000 0.00000 -1.00000 0.00000 0.00000 1.00000 -0.86603 -0.50000 0.00000 -0.86603 -0.50000 0.00000 -0.00000 0.00000 -1.00000 0.00000 0.00000 1.00000 0.00000 -1.00000 0.00000 0.00000 -1.00000 0.00000 0.00000 -0.00000 -1.00000 0.00000 0.00000 1.00000 0.86603 -0.50000 0.00000 0.86603 -0.50000 0.00000 0.00000 0.00000 -1.00000 -0.00000 0.00000 1.00000 0.86603 0.50000 0.00000 0.86603 0.50000 -0.00000 0.00000 0.00000 -1.00000 0.00000 0.00000 1.00000 0.00000 1.00000 0.00000 0.00000 1.00000 -0.00000 0.00000 0.00000 -1.00000 0.00000 -0.00000 1.00000 -0.86603 0.50000 0.00000 -0.86603 0.50000 0.00000 0.00000 0.00000 -1.00000 0.00000 0.00000 1.00000 -0.86603 -0.50000 0.00000 -0.86603 -0.50000 0.00000 -0.00000 0.00000 -1.00000 0.00000 0.00000 1.00000 0.00000 -1.00000 0.00000 0.00000 -1.00000 0.00000 0.00000 -0.00000 -1.00000 0.00000 0.00000 1.00000 0.86603 -0.50000 0.00000 0.86603 -0.50000 0.00000 0.00000 0.00000 -1.00000 -0.00000 0.00000 1.00000 0.86603 0.50000 0.00000 0.86603 0.50000 -0.00000 0.00000 0.00000 -1.00000 0.00000 0.00000 1.00000 0.00000 1.00000 0.00000 0.00000 1.00000 -0.00000 0.00000 0.00000 -1.00000 0.00000 -0.00000 1.00000 -0.86603 0.50000 0.00000 -0.86603 0.50000 0.00000 0.00000 0.00000 -1.00000 0.00000 0.00000 1.00000 -0.86603 -0.50000 0.00000 -0.86603 -0.50000 0.00000 -0.00000 0.00000 -1.00000 0.00000 0.00000 1.00000 0.00000 -1.00000 0.00000 0.00000 -1.00000 0.00000 0.00000 -0.00000 -1.00000 0.00000 0.00000 1.00000 0.86603 -0.50000 0.00000 0.86603 -0.50000 0.00000 0.00000 0.00000 -1.00000 -0.00000 0.00000 1.00000 0.86603 0.50000 0.00000 0.86603 0.50000 -0.00000 0.00000 0.00000 -1.00000 0.00000 0.00000 1.00000 0.00000 1.00000 0.00000 0.00000 1.00000 -0.00000 0.00000 0.00000 -1.00000 0.00000 -0.00000 1.00000 -0.86603 0.50000 0.00000 -0.86603 0.50000 0.00000 0.00000 0.00000 -1.00000 0.00000 0.00000 1.00000 -0.86603 -0.50000 0.00000 -0.86603 -0.50000 0.00000 -0.00000 0.00000 -1.00000 0.00000 0.00000 1.00000 0.00000 -1.00000 0.00000 0.00000 -1.00000 0.00000 0.00000 -0.00000 -1.00000 0.00000 0.00000 1.00000 0.86603 -0.50000 0.00000 0.86603 -0.50000 0.00000 0.00000 0.00000 -1.00000 -0.00000 0.00000 1.00000 0.86603 0.50000 0.00000 0.86603 0.50000 -0.00000 0.00000 0.00000 -1.00000 0.00000 0.00000 1.00000 0.00000 1.00000 0.00000 0.00000 1.00000 -0.00000 0.00000 0.00000 -1.00000 0.00000 -0.00000 1.00000 -0.86603 0.50000 0.00000 -0.86603 0.50000 0.00000 0.00000 0.00000 -1.00000 0.00000 0.00000 1.00000 -0.86603 -0.50000 0.00000 -0.86603 -0.50000 0.00000 -0.00000 0.00000 -1.00000 0.00000 0.00000 1.00000 0.00000 -1.00000 0.00000 0.00000 -1.00000 0.00000 0.00000 -0.00000 -1.00000 0.00000 0.00000 1.00000 0.86603 -0.50000 0.00000 0.86603 -0.50000 0.00000 0.00000 0.00000 -1.00000 -0.00000 0.00000 1.00000 0.86603 0.50000 0.00000 0.86603 0.50000 -0.00000 0.00000 0.00000 -1.00000 0.00000 0.00000 1.00000 0.00000 1.00000 0.00000 0.00000 1.00000 -0.00000 0.00000 0.00000 -1.00000 0.00000 -0.00000 1.00000 -0.86603 0.50000 0.00000 -0.86603 0.50000 0.00000 0.00000 0.00000 -1.00000 0.00000 0.00000 1.00000 -0.86603 -0.50000 0.00000 -0.86603 -0.50000 0.00000 -0.00000 0.00000 -1.00000 0.00000 0.00000 1.00000 0.00000 -1.00000 0.00000 0.00000 -1.00000 0.00000 0.00000 -0.00000 -1.00000 0.00000 0.00000 1.00000 0.86603 -0.50000 0.00000 0.86603 -0.50000 0.00000 0.00000 0.00000 -1.00000 -0.00000 0.00000 1.00000 0.86603 0.50000 0.00000 0.86603 0.50000 -0.00000 0.00000 0.00000 -1.00000 0.00000 0.00000 1.00000 0.00000 1.00000 0.00000 0.00000 1.00000 -0.00000 0.00000 0.00000 -1.00000 0.00000 -0.00000 1.00000 -0.86603 0.50000 0.00000 -0.86603 0.50000 0.00000 0.00000 0.00000 -1.00000 0.00000 0.00000 1.00000 -0.86603 -0.50000 0.00000 -0.86603 -0.50000 0.00000 -0.00000 0.00000 -1.00000 0.00000 0.00000 1.00000 0.00000 -1.00000 0.00000 0.00000 -1.00000 0.00000 0.00000 -0.00000 -1.00000 0.00000 0.00000 1.00000 0.86603 -0.50000 0.00000 0.86603 -0.50000 0.00000 0.00000 0.00000 -1.00000 -0.00000 0.00000 1.00000 0.86603 0.50000 0.00000 0.86603 0.50000 -0.00000 0.00000 0.00000 -1.00000 0.00000 0.00000 1.00000 0.00000 1.00000 0.00000 0.00000 1.00000 -0.00000 0.00000 0.00000 -1.00000 0.00000 -0.00000 1.00000 -0.86603 0.50000 0.00000 -0.86603 0.50000 0.00000 0.00000 0.00000 -1.00000 0.00000 0.00000 1.00000 -0.86603 -0.50000 0.00000 -0.86603 -0.50000 0.00000 -0.00000 0.00000 -1.00000 0.00000 0.00000 1.00000 0.00000 -1.00000 0.00000 0.00000 -1.00000 0.00000 0.00000 -0.00000 -1.00000 0.00000 0.00000 1.00000 0.86603 -0.50000 0.00000 0.86603 -0.50000 0.00000 0.00000 0.00000 -1.00000 -0.00000 0.00000 1.00000 0.86603 0.50000 0.00000 0.86603 0.50000 -0.00000 0.00000 0.00000 -1.00000 0.00000 0.00000 1.00000 0.00000 1.00000 0.00000 0.00000 1.00000 -0.00000 0.00000 0.00000 -1.00000 0.00000 -0.00000 1.00000 -0.86603 0.50000 0.00000 -0.86603 0.50000 0.00000 0.00000 0.00000 -1.00000 0.00000 0.00000 1.00000 -0.86603 -0.50000 0.00000 -0.86603 -0.50000 0.00000 -0.00000 0.00000 -1.00000 0.00000 0.00000 1.00000 0.00000 -1.00000 0.00000 0.00000 -1.00000 0.00000 0.00000 -0.00000 -1.00000 0.00000 0.00000 1.00000 0.86603 -0.50000 0.00000 0.86603 -0.50000 0.00000 0.00000 0.00000 -1.00000 -0.00000 0.00000 1.00000 0.86603 0.50000 0.00000 0.86603 0.50000 -0.00000 0.00000 0.00000 -1.00000 0.00000 0.00000 1.00000 0.00000 1.00000 0.00000 0.00000 1.00000 -0.00000 0.00000 0.00000 -1.00000 0.00000 -0.00000 1.00000 -0.86603 0.50000 0.00000 -0.86603 0.50000 0.00000 0.00000 0.00000 -1.00000 0.00000 0.00000 1.00000 -0.86603 -0.50000 0.00000 -0.86603 -0.50000 0.00000 -0.00000 0.00000 -1.00000 0.00000 0.00000 1.00000 0.00000 -1.00000 0.00000 0.00000 -1.00000 0.00000 0.00000 -0.00000 -1.00000 0.00000 0.00000 1.00000 0.86603 -0.50000 0.00000 0.86603 -0.50000 0.00000 0.00000 0.00000 -1.00000 -0.00000 0.00000 1.00000 0.86603 0.50000 0.00000 0.86603 0.50000 -0.00000 0.00000 0.00000 -1.00000 0.00000 0.00000 1.00000 0.00000 1.00000 0.00000 0.00000 1.00000 -0.00000 0.00000 0.00000 -1.00000 0.00000 -0.00000 1.00000 -0.86603 0.50000 0.00000 -0.86603 0.50000 0.00000 0.00000 0.00000 -1.00000 0.00000 0.00000 1.00000 -0.86603 -0.50000 0.00000 -0.86603 -0.50000 0.00000 -0.00000 0.00000 -1.00000 0.00000 0.00000 1.00000 0.00000 -1.00000 0.00000 0.00000 -1.00000 0.00000 0.00000 -0.00000 -1.00000 0.00000 0.00000 1.00000 0.86603 -0.50000 0.00000 0.86603 -0.50000 0.00000 0.00000 0.00000 -1.00000 -0.00000 0.00000 1.00000 0.86603 0.50000 0.00000 0.86603 0.50000 -0.00000 0.00000 0.00000 -1.00000 0.00000 0.00000 1.00000 0.00000 1.00000 0.00000 0.00000 1.00000 -0.00000 0.00000 0.00000 -1.00000 0.00000 -0.00000 1.00000 -0.86603 0.50000 0.00000 -0.86603 0.50000 0.00000 0.00000 0.00000 -1.00000 0.00000 0.00000 1.00000 -0.86603 -0.50000 0.00000 -0.86603 -0.50000 0.00000 -0.00000 0.00000 -1.00000 0.00000 0.00000 1.00000 0.00000 -1.00000 0.00000 0.00000 -1.00000 0.00000 0.00000 -0.00000 -1.00000 0.00000 0.00000 1.00000 0.86603 -0.50000 0.00000 0.86603 -0.50000 0.00000 0.00000 0.00000 -1.00000 -0.00000 0.00000 1.00000 0.86603 0.50000 0.00000 0.86603 0.50000 -0.00000 0.00000 0.00000 -1.00000 0.00000 0.00000 1.00000 0.00000 1.00000 0.00000 0.00000 1.00000 -0.00000 0.00000 0.00000 -1.00000 0.00000 -0.00000 1.00000 -0.86603 0.50000 0.00000 -0.86603 0.50000 0.00000 0.00000 0.00000 -1.00000 0.00000 0.00000 1.00000 -0.86603 -0.50000 0.00000 -0.86603 -0.50000 0.00000 -0.00000 0.00000 -1.00000 0.00000 0.00000 1.00000 0.00000 -1.00000 0.00000 0.00000 -1.00000 0.00000 0.00000 -0.00000 -1.00000 0.00000 0.00000 1.00000 0.86603 -0.50000 0.00000 0.86603 -0.50000 0.00000 0.00000 0.00000 -1.00000 -0.00000 0.00000 1.00000 0.86603 0.50000 0.00000 0.86603 0.50000 -0.00000 0.00000 0.00000 -1.00000 0.00000 0.00000 1.00000 0.00000 1.00000 0.00000 0.00000 1.00000 -0.00000 0.00000 0.00000 -1.00000 0.00000 -0.00000 1.00000 -0.86603 0.50000 0.00000 -0.86603 0.50000 0.00000 0.00000 0.00000 -1.00000 0.00000 0.00000 1.00000 -0.86603 -0.50000 0.00000 -0.86603 -0.50000 0.00000 -0.00000 0.00000 -1.00000 0.00000 0.00000 1.00000 0.00000 -1.00000 0.00000 0.00000 -1.00000 0.00000 0.00000 -0.00000 -1.00000 0.00000 0.00000 1.00000 0.86603 -0.50000 0.00000 0.86603 -0.50000 0.00000 0.00000 0.00000 -1.00000 -0.00000 0.00000 1.00000 0.86603 0.50000 0.00000 0.86603 0.50000 -0.00000 0.00000 0.00000 -1.00000 0.00000 0.00000 1.00000 0.00000 1.00000 0.00000 0.00000 1.00000 -0.00000 0.00000 0.00000 -1.00000 0.00000 -0.00000 1.00000 -0.86603 0.50000 0.00000 -0.86603 0.50000 0.00000 0.00000 0.00000 -1.00000 0.00000 0.00000 1.00000 -0.86603 -0.50000 0.00000 -0.86603 -0.50000 0.00000 -0.00000 0.00000 -1.00000 0.00000 0.00000 1.00000 0.00000 -1.00000 0.00000 0.00000 -1.00000 0.00000 0.00000 -0.00000 -1.00000 0.00000 0.00000 1.00000 0.86603 -0.50000 0.00000 0.86603 -0.50000 0.00000 0.00000 0.00000 -1.00000 -0.00000 0.00000 1.00000 0.86603 0.50000 0.00000 0.86603 0.50000 -0.00000 0.00000 0.00000 -1.00000 0.00000 0.00000 1.00000 0.00000 1.00000 0.00000 0.00000 1.00000 -0.00000 0.00000 0.00000 -1.00000 0.00000 -0.00000 1.00000 -0.86603 0.50000 0.00000 -0.86603 0.50000 0.00000 0.00000 0.00000 -1.00000 0.00000 0.00000 1.00000 -0.86603 -0.50000 0.00000 -0.86603 -0.50000 0.00000 -0.00000 0.00000 -1.00000 0.00000 0.00000 1.00000 0.00000 -1.00000 0.00000 0.00000 -1.00000 0.00000 0.00000 -0.00000 -1.00000 0.00000 0.00000 1.00000 0.86603 -0.50000 0.00000 0.86603 -0.50000 0.00000 0.00000 0.00000 -1.00000 -0.00000 0.00000 1.00000 0.86603 0.50000 0.00000 0.86603 0.50000 -0.00000 0.00000 0.00000 -1.00000 0.00000 0.00000 1.00000 0.00000 1.00000 0.00000 0.00000 1.00000 -0.00000 0.00000 0.00000 -1.00000 0.00000 -0.00000 1.00000 -0.86603 0.50000 0.00000 -0.86603 0.50000 0.00000 0.00000 0.00000 -1.00000 0.00000 0.00000 1.00000 -0.86603 -0.50000 0.00000 -0.86603 -0.50000 0.00000 -0.00000 0.00000 -1.00000 0.00000 0.00000 1.00000 0.00000 -1.00000 0.00000 0.00000 -1.00000 0.00000 0.00000 -0.00000 -1.00000 0.00000 0.00000 1.00000 0.86603 -0.50000 0.00000 0.86603 -0.50000 0.00000 0.00000 0.00000 -1.00000 -0.00000 0.00000 1.00000 0.86603 0.50000 0.00000 0.86603 0.50000 -0.00000 0.00000 0.00000 -1.00000 0.00000 0.00000 1.00000 0.00000 1.00000 0.00000 0.00000 1.00000 -0.00000 0.00000 0.00000 -1.00000 0.00000 -0.00000 1.00000 -0.86603 0.50000 0.00000 -0.86603 0.50000 0.00000 0.00000 0.00000 -1.00000 0.00000 0.00000 1.00000 -0.86603 -0.50000 0.00000 -0.86603 -0.50000 0.00000 -0.00000 0.00000 -1.00000 0.00000 0.00000 1.00000 0.00000 -1.00000 0.00000 0.00000 -1.00000 0.00000 0.00000 -0.00000 -1.00000 0.00000 0.00000 1.00000 0.86603 -0.50000 0.00000 0.86603 -0.50000 0.00000 0.00000 0.00000 -1.00000 -0.00000 0.00000 1.00000 0.86603 0.50000 0.00000 0.86603 0.50000 -0.00000 0.00000 0.00000 -1.00000 0.00000 0.00000 1.00000 0.00000 1.00000 0.00000 0.00000 1.00000 -0.00000 0.00000 0.00000 -1.00000 0.00000 -0.00000 1.00000 -0.86603 0.50000 0.00000 -0.86603 0.50000 0.00000 0.00000 0.00000 -1.00000 0.00000 0.00000 1.00000 -0.86603 -0.50000 0.00000 -0.86603 -0.50000 0.00000 -0.00000 0.00000 -1.00000 0.00000 0.00000 1.00000 0.00000 -1.00000 0.00000 0.00000 -1.00000 0.00000 0.00000 -0.00000 -1.00000 0.00000 0.00000 1.00000 0.86603 -0.50000 0.00000 0.86603 -0.50000 0.00000 0.00000 0.00000 -1.00000 -0.00000 0.00000 1.00000 0.86603 0.50000 0.00000 0.86603 0.50000 -0.00000 0.00000 0.00000 -1.00000 0.00000 0.00000 1.00000 0.00000 1.00000 0.00000 0.00000 1.00000 -0.00000 0.00000 0.00000 -1.00000 0.00000 -0.00000 1.00000 -0.86603 0.50000 0.00000 -0.86603 0.50000 0.00000 0.00000 0.00000 -1.00000 0.00000 0.00000 1.00000 -0.86603 -0.50000 0.00000 -0.86603 -0.50000 0.00000 -0.00000 0.00000 -1.00000 0.00000 0.00000 1.00000 0.00000 -1.00000 0.00000 0.00000 -1.00000 0.00000 0.00000 -0.00000 -1.00000 0.00000 0.00000 1.00000 0.86603 -0.50000 0.00000 0.86603 -0.50000 0.00000 0.00000 0.00000 -1.00000 -0.00000 0.00000 1.00000 0.86603 0.50000 0.00000 0.86603 0.50000 -0.00000 0.00000 0.00000 -1.00000 0.00000 0.00000 1.00000 0.00000 1.00000 0.00000 0.00000 1.00000 -0.00000 0.00000 0.00000 -1.00000 0.00000 -0.00000 1.00000 -0.86603 0.50000 0.00000 -0.86603 0.50000 0.00000 0.00000 0.00000 -1.00000 0.00000 0.00000 1.00000 -0.86603 -0.50000 0.00000 -0.86603 -0.50000 0.00000 -0.00000 0.00000 -1.00000 0.00000 0.00000 1.00000 0.00000 -1.00000 0.00000 0.00000 -1.00000 0.00000 0.00000 -0.00000 -1.00000 0.00000 0.00000 1.00000 0.86603 -0.50000 0.00000 0.86603 -0.50000 0.00000 0.00000 0.00000 -1.00000 -0.00000 0.00000 1.00000 0.86603 0.50000 0.00000 0.86603 0.50000 -0.00000 0.00000 0.00000 -1.00000 0.00000 0.00000 1.00000 0.00000 1.00000 0.00000 0.00000 1.00000 -0.00000 0.00000 0.00000 -1.00000 0.00000 -0.00000 1.00000 -0.86603 0.50000 0.00000 -0.86603 0.50000 0.00000 0.00000 0.00000 -1.00000 0.00000 0.00000 1.00000 -0.86603 -0.50000 0.00000 -0.86603 -0.50000 0.00000 -0.00000 0.00000 -1.00000 0.00000 0.00000 1.00000 0.00000 -1.00000 0.00000 0.00000 -1.00000 0.00000 0.00000 -0.00000 -1.00000 0.00000 0.00000 1.00000 0.86603 -0.50000 0.00000 0.86603 -0.50000 0.00000 0.00000 0.00000 -1.00000 -0.00000 0.00000 1.00000 0.86603 0.50000 0.00000 0.86603 0.50000 -0.00000 0.00000 0.00000 -1.00000 0.00000 0.00000 1.00000 0.00000 1.00000 0.00000 0.00000 1.00000 -0.00000 0.00000 0.00000 -1.00000 0.00000 -0.00000 1.00000 -0.86603 0.50000 0.00000 -0.86603 0.50000 0.00000 0.00000 0.00000 -1.00000 0.00000 0.00000 1.00000 -0.86603 -0.50000 0.00000 -0.86603 -0.50000 0.00000 -0.00000 0.00000 -1.00000 0.00000 0.00000 1.00000 0.00000 -1.00000 0.00000 0.00000 -1.00000 0.00000 0.00000 -0.00000 -1.00000 0.00000 0.00000 1.00000 0.86603 -0.50000 0.00000 0.86603 -0.50000 0.00000 0.00000 0.00000 -1.00000 -0.00000 0.00000 1.00000 0.86603 0.50000 0.00000 0.86603 0.50000 -0.00000 0.00000 0.00000 -1.00000 0.00000 0.00000 1.00000 0.00000 1.00000 0.00000 0.00000 1.00000 -0.00000 0.00000 0.00000 -1.00000 0.00000 -0.00000 1.00000 -0.86603 0.50000 0.00000 -0.86603 0.50000 0.00000 0.00000 0.00000 -1.00000 0.00000 0.00000 1.00000 -0.86603 -0.50000 0.00000 -0.86603 -0.50000 0.00000 -0.00000 0.00000 -1.00000 0.00000 0.00000 1.00000 0.00000 -1.00000 0.00000 0.00000 -1.00000 0.00000 0.00000 -0.00000 -1.00000 0.00000 0.00000 1.00000 0.86603 -0.50000 0.00000 0.86603 -0.50000 0.00000 0.00000 0.00000 -1.00000 -0.00000 0.00000 1.00000 0.86603 0.50000 0.00000 0.86603 0.50000 -0.00000 0.00000 0.00000 -1.00000 0.00000 0.00000 1.00000 0.00000 1.00000 0.00000 0.00000 1.00000 -0.00000 0.00000 0.00000 -1.00000 0.00000 -0.00000 1.00000 -0.86603 0.50000 0.00000 -0.86603 0.50000 0.00000 0.00000 0.00000 -1.00000 0.00000 0.00000 1.00000 -0.86603 -0.50000 0.00000 -0.86603 -0.50000 0.00000 -0.00000 0.00000 -1.00000 0.00000 0.00000 1.00000 0.00000 -1.00000 0.00000 0.00000 -1.00000 0.00000 0.00000 -0.00000 -1.00000 0.00000 0.00000 1.00000 0.86603 -0.50000 0.00000 0.86603 -0.50000 0.00000 0.00000 0.00000 -1.00000 -0.00000 0.00000 1.00000 0.86603 0.50000 0.00000 0.86603 0.50000 -0.00000 0.00000 0.00000 -1.00000 0.00000 0.00000 1.00000 0.00000 1.00000 0.00000 0.00000 1.00000 -0.00000 0.00000 0.00000 -1.00000 0.00000 -0.00000 1.00000 -0.86603 0.50000 0.00000 -0.86603 0.50000 0.00000 0.00000 0.00000 -1.00000 0.00000 0.00000 1.00000 -0.86603 -0.50000 0.00000 -0.86603 -0.50000 0.00000 -0.00000 0.00000 -1.00000 0.00000 0.00000 1.00000 0.00000 -1.00000 0.00000 0.00000 -1.00000 0.00000 0.00000 -0.00000 -1.00000 0.00000 0.00000 1.00000 0.86603 -0.50000 0.00000 0.86603 -0.50000 0.00000 0.00000 0.00000 -1.00000 -0.00000 0.00000 1.00000 0.86603 0.50000 0.00000 0.86603 0.50000 -0.00000 0.00000 0.00000 -1.00000 0.00000 0.00000 1.00000 0.00000 1.00000 0.00000 0.00000 1.00000 -0.00000 0.00000 0.00000 -1.00000 0.00000 -0.00000 1.00000 -0.86603 0.50000 0.00000 -0.86603 0.50000 0.00000 0.00000 0.00000 -1.00000 0.00000 0.00000 1.00000 -0.86603 -0.50000 0.00000 -0.86603 -0.50000 0.00000 -0.00000 0.00000 -1.00000 0.00000 0.00000 1.00000 0.00000 -1.00000 0.00000 0.00000 -1.00000 0.00000 0.00000 -0.00000 -1.00000 0.00000 0.00000 1.00000 0.86603 -0.50000 0.00000 0.86603 -0.50000 0.00000 0.00000 0.00000 -1.00000 -0.00000 0.00000 1.00000 0.86603 0.50000 0.00000 0.86603 0.50000 -0.00000 0.00000 0.00000 -1.00000 0.00000 0.00000 1.00000 0.00000 1.00000 0.00000 0.00000 1.00000 -0.00000 0.00000 0.00000 -1.00000 0.00000 -0.00000 1.00000 -0.86603 0.50000 0.00000 -0.86603 0.50000 0.00000 0.00000 0.00000 -1.00000 0.00000 0.00000 1.00000 -0.86603 -0.50000 0.00000 -0.86603 -0.50000 0.00000 -0.00000 0.00000 -1.00000 0.00000 0.00000 1.00000 0.00000 -1.00000 0.00000 0.00000 -1.00000 0.00000 0.00000 -0.00000 -1.00000 0.00000 0.00000 1.00000 0.86603 -0.50000 0.00000 0.86603 -0.50000 0.00000 0.00000 0.00000 -1.00000 -0.00000 0.00000 1.00000 0.86603 0.50000 0.00000 0.86603 0.50000 -0.00000 0.00000 0.00000 -1.00000 0.00000 0.00000 1.00000 0.00000 1.00000 0.00000 0.00000 1.00000 -0.00000 0.00000 0.00000 -1.00000 0.00000 -0.00000 1.00000 -0.86603 0.50000 0.00000 -0.86603 0.50000 0.00000 0.00000 0.00000 -1.00000 0.00000 0.00000 1.00000 -0.86603 -0.50000 0.00000 -0.86603 -0.50000 0.00000 -0.00000 0.00000 -1.00000 0.00000 0.00000 1.00000 0.00000 -1.00000 0.00000 0.00000 -1.00000 0.00000 0.00000 -0.00000 -1.00000 0.00000 0.00000 1.00000 0.86603 -0.50000 0.00000 0.86603 -0.50000 0.00000 0.00000 0.00000 -1.00000 -0.00000 0.00000 1.00000 0.86603 0.50000 0.00000 0.86603 0.50000 -0.00000 0.00000 0.00000 -1.00000 0.00000 0.00000 1.00000 0.00000 1.00000 0.00000 0.00000 1.00000 -0.00000 0.00000 0.00000 -1.00000 0.00000 -0.00000 1.00000 -0.86603 0.50000 0.00000 -0.86603 0.50000 0.00000 0.00000 0.00000 -1.00000 0.00000 0.00000 1.00000 -0.86603 -0.50000 0.00000 -0.86603 -0.50000 0.00000 -0.00000 0.00000 -1.00000 0.00000 0.00000 1.00000 0.00000 -1.00000 0.00000 0.00000 -1.00000 0.00000 0.00000 -0.00000 -1.00000 0.00000 0.00000 1.00000 0.86603 -0.50000 0.00000 0.86603 -0.50000 0.00000 0.00000 0.00000 -1.00000 -0.00000 0.00000 1.00000 0.86603 0.50000 0.00000 0.86603 0.50000 -0.00000 0.00000 0.00000 -1.00000 0.00000 0.00000 1.00000 0.00000 1.00000 0.00000 0.00000 1.00000 -0.00000 0.00000 0.00000 -1.00000 0.00000 -0.00000 1.00000 -0.86603 0.50000 0.00000 -0.86603 0.50000 0.00000 0.00000 0.00000 -1.00000 0.00000 0.00000 1.00000 -0.86603 -0.50000 0.00000 -0.86603 -0.50000 0.00000 -0.00000 0.00000 -1.00000 0.00000 0.00000 1.00000 0.00000 -1.00000 0.00000 0.00000 -1.00000 0.00000 0.00000 -0.00000 -1.00000 0.00000 0.00000 1.00000 0.86603 -0.50000 0.00000 0.86603 -0.50000 0.00000 0.00000 0.00000 -1.00000 -0.00000 0.00000 1.00000 0.86603 0.50000 0.00000 0.86603 0.50000 -0.00000 0.00000 0.00000 -1.00000 0.00000 0.00000 1.00000 0.00000 1.00000 0.00000 0.00000 1.00000 -0.00000 0.00000 0.00000 -1.00000 0.00000 -0.00000 1.00000 -0.86603 0.50000 0.00000 -0.86603 0.50000 0.00000 0.00000 0.00000 -1.00000 0.00000 0.00000 1.00000 -0.86603 -0.50000 0.00000 -0.86603 -0.50000 0.00000 -0.00000 0.00000 -1.00000 0.00000 0.00000 1.00000 0.00000 -1.00000 0.00000 0.00000 -1.00000 0.00000 0.00000 -0.00000 -1.00000 0.00000 0.00000 1.00000 0.86603 -0.50000 0.00000 0.86603 -0.50000 0.00000 0.00000 0.00000 -1.00000 -0.00000 0.00000 1.00000 0.86603 0.50000 0.00000 0.86603 0.50000 -0.00000 0.00000 0.00000 -1.00000 0.00000 0.00000 1.00000 0.00000 1.00000 0.00000 0.00000 1.00000 -0.00000 0.00000 0.00000 -1.00000 0.00000 -0.00000 1.00000 -0.86603 0.50000 0.00000 -0.86603 0.50000 0.00000 0.00000 0.00000 -1.00000 0.00000 0.00000 1.00000 -0.86603 -0.50000 0.00000 -0.86603 -0.50000 0.00000 -0.00000 0.00000 -1.00000 0.00000 0.00000 1.00000 0.00000 -1.00000 0.00000 0.00000 -1.00000 0.00000 0.00000 -0.00000 -1.00000 0.00000 0.00000 1.00000 0.86603 -0.50000 0.00000 0.86603 -0.50000 0.00000 0.00000 0.00000 -1.00000 -0.00000 0.00000 1.00000 0.86603 0.50000 0.00000 0.86603 0.50000 -0.00000 0.00000 0.00000 -1.00000 0.00000 0.00000 1.00000 0.00000 1.00000 0.00000 0.00000 1.00000 -0.00000 0.00000 0.00000 -1.00000 0.00000 -0.00000 1.00000 -0.86603 0.50000 0.00000 -0.86603 0.50000 0.00000 0.00000 0.00000 -1.00000 0.00000 0.00000 1.00000 -0.86603 -0.50000 0.00000 -0.86603 -0.50000 0.00000 -0.00000 0.00000 -1.00000 0.00000 0.00000 1.00000 0.00000 -1.00000 0.00000 0.00000 -1.00000 0.00000 0.00000 -0.00000 -1.00000 0.00000 0.00000 1.00000 0.86603 -0.50000 0.00000 0.86603 -0.50000 0.00000 0.00000 0.00000 -1.00000 -0.00000 0.00000 1.00000 0.86603 0.50000 0.00000 0.86603 0.50000 -0.00000 0.00000 0.00000 -1.00000 0.00000 0.00000 1.00000 0.00000 1.00000 0.00000 0.00000 1.00000 -0.00000 0.00000 0.00000 -1.00000 0.00000 -0.00000 1.00000 -0.86603 0.50000 0.00000 -0.86603 0.50000 0.00000 0.00000 0.00000 -1.00000 0.00000 0.00000 1.00000 -0.86603 -0.50000 0.00000 -0.86603 -0.50000 0.00000 -0.00000 0.00000 -1.00000 0.00000 0.00000 1.00000 0.00000 -1.00000 0.00000 0.00000 -1.00000 0.00000 0.00000 -0.00000 -1.00000 0.00000 0.00000 1.00000 0.86603 -0.50000 0.00000 0.86603 -0.50000 0.00000 0.00000 0.00000 -1.00000 -0.00000 0.00000 1.00000 0.86603 0.50000 0.00000 0.86603 0.50000 -0.00000 0.00000 0.00000 -1.00000 0.00000 0.00000 1.00000 0.00000 1.00000 0.00000 0.00000 1.00000 -0.00000 0.00000 0.00000 -1.00000 0.00000 -0.00000 1.00000 -0.86603 0.50000 0.00000 -0.86603 0.50000 0.00000 0.00000 0.00000 -1.00000 0.00000 0.00000 1.00000 -0.86603 -0.50000 0.00000 -0.86603 -0.50000 0.00000 -0.00000 0.00000 -1.00000 0.00000 0.00000 1.00000 0.00000 -1.00000 0.00000 0.00000 -1.00000 0.00000 0.00000 -0.00000 -1.00000 0.00000 0.00000 1.00000 0.86603 -0.50000 0.00000 0.86603 -0.50000 0.00000 0.00000 0.00000 -1.00000 -0.00000 0.00000 1.00000 0.86603 0.50000 0.00000 0.86603 0.50000 -0.00000 0.00000 0.00000 -1.00000 0.00000 0.00000 1.00000 0.00000 1.00000 0.00000 0.00000 1.00000 -0.00000 0.00000 0.00000 -1.00000 0.00000 -0.00000 1.00000 -0.86603 0.50000 0.00000 -0.86603 0.50000 0.00000 0.00000 0.00000 -1.00000 0.00000 0.00000 1.00000 -0.86603 -0.50000 0.00000 -0.86603 -0.50000 0.00000 -0.00000 0.00000 -1.00000 0.00000 0.00000 1.00000 0.00000 -1.00000 0.00000 0.00000 -1.00000 0.00000 0.00000 -0.00000 -1.00000 0.00000 0.00000 1.00000 0.86603 -0.50000 0.00000 0.86603 -0.50000 0.00000 0.00000 0.00000 -1.00000 -0.00000 0.00000 1.00000 0.86603 0.50000 0.00000 0.86603 0.50000 -0.00000 0.00000 0.00000 -1.00000 0.00000 0.00000 1.00000 0.00000 1.00000 0.00000 0.00000 1.00000 -0.00000 0.00000 0.00000 -1.00000 0.00000 -0.00000 1.00000 -0.86603 0.50000 0.00000 -0.86603 0.50000 0.00000 0.00000 0.00000 -1.00000 0.00000 0.00000 1.00000 -0.86603 -0.50000 0.00000 -0.86603 -0.50000 0.00000 -0.00000 0.00000 -1.00000 0.00000 0.00000 1.00000 0.00000 -1.00000 0.00000 0.00000 -1.00000 0.00000 0.00000 -0.00000 -1.00000 0.00000 0.00000 1.00000 0.86603 -0.50000 0.00000 0.86603 -0.50000 0.00000 0.00000 0.00000 -1.00000 -0.00000 0.00000 1.00000 0.86603 0.50000 0.00000 0.86603 0.50000 -0.00000 0.00000 0.00000 -1.00000 0.00000 0.00000 1.00000 0.00000 1.00000 0.00000 0.00000 1.00000 -0.00000 0.00000 0.00000 -1.00000 0.00000 -0.00000 1.00000 -0.86603 0.50000 0.00000 -0.86603 0.50000 0.00000 0.00000 0.00000 -1.00000 0.00000 0.00000 1.00000 -0.86603 -0.50000 0.00000 -0.86603 -0.50000 0.00000 -0.00000 0.00000 -1.00000 0.00000 0.00000 1.00000 0.00000 -1.00000 0.00000 0.00000 -1.00000 0.00000 0.00000 -0.00000 -1.00000 0.00000 0.00000 1.00000 0.86603 -0.50000 0.00000 0.86603 -0.50000 0.00000 0.00000 0.00000 -1.00000 -0.00000 0.00000 1.00000</float_array><technique_common><accessor source="#normals-array" count="1440" stride="3"><param name="X" type="float"/><param name="Y" type="float"/><param name="Z" type="float"/></accessor></technique_common></source>
<vertices id="vertices"><input semantic="POSITION" source="#positions"/></vertices><triangles count="1440"><input semantic="VERTEX" source="#vertices" offset="0"/><input semantic="NORMAL" source="#normals" offset="1"/><p>0 0 1 0 7 0 0 1 7 1 6 1 12 2 1 2 0 2 13 3 6 3 7 3 1 4 2 4 8 4 1 5 8 5 7 5 12 6 2 6 1 6 13 7 7 7 8 7 2 8 3 8 9 8 2 9 9 9 8 9 12 10 3 10 2 10 13 11 8 11 9 11 3 12 4 12 10 12 3 13 10 13 9 13 12 14 4 14 3 14 13 15 9 15 10 15 4 16 5 16 11 16 4 17 11 17 10 17 12 18 5 18 4 18 13 19 10 19 11 19 5 20 0 20 6 20 5 21 6 21 11 21 12 22 0 22 5 22 13 23 11 23 6 23 14 24 15 24 21 24 14 25 21 25 20 25 26 26 15 26 14 26 27 27 20 27 21 27 15 28 16 28 22 28 15 29 22 29 21 29 26 30 16 30 15 30 27 31 21 31 22 31 16 32 17 32 23 32 16 33 23 33 22 33 26 34 17 34 16 34 27 35 22 35 23 35 17 36 18 36 24 36 17 37 24 37 23 37 26 38 18 38 17 38 27 39 23 39 24 39 18 40 19 40 25 40 18 41 25 41 24 41 26 42 19 42 18 42 27 43 24 43 25 43 19 44 14 44 20 44 19 45 20 45 25 45 26 46 14 46 19 46 27 47 25 47 20 47 28 48 29 48 35 48 28 49 35 49 34 49 40 50 29 50 28 50 41 51 34 51 35 51 29 52 30 52 36 52 29 53 36 53 35 53 40 54 30 54 29 54 41 55 35 55 36 55 30 56 31 56 37 56 30 57 37 57 36 57 40 58 31 58 30 58 41 59 36 59 37 59 31 60 32 60 38 60 31 61 38 61 37 61 40 62 32 62 31 62 41 63 37 63 38 63 32 64 33 64 39 64 32 65 39 65 38 65 40 66 33 66 32 66 41 67 38 67 39 67 33 68 28 68 34 68 33 69 34 69 39 69 40 70 28 70 33 70 41 71 39 71 34 71 42 72 43 72 49 72 42 73 49 73 48 73 54 74 43 74 42 74 55 75 48 75 49 75 43 76 44 76 50 76 43 77 50 77 49 77 54 78 44 78 43 78 55 79 49 79 50 79 44 80 45 80 51 80 44 81 51 81 50 81 54 82 45 82 44 82 55 83 50 83 51 83 45 84 46 84 52 84 45 85 52 85 51 85 54 86 46 86 45 86 55 87 51 87 52 87 46 88 47 88 53 88 46 89 53 89 52 89 54 90 47 90 46 90 55 91 52 91 53 91 47 92 42 92 48 92 47 93 48 93 53 93 54 94 42 94 47 94 55 95 53 95 48 95 56 96 57 96 63 96 56 97 63 97 62 97 68 98 57 98 56 98 69 99 62 99 63 99 57 100 58 100 64 100 57 101 64 101 63 101 68 102 58 102 57 102 69 103 63 103 64 103 58 104 59 104 65 104 58 105 65 105 64 105 68 106 59 106 58 106 69 107 64 107 65 107 59 108 60 108 66 108 59 109 66 109 65 109 68 110 60 110 59 110 69 111 65 111 66 111 60 112 61 112 67 112 60 113 67 113 66 113 68 114 61 114 60 114 69 115 66 115 67 115 61 116 56 116 62 116 61 117 62 117 67 117 68 118 56 118 61 118 69 119 67 119 62 119 70 120 71 120 77 120 70 121 77 121 76 121 82 122 71 122 70 122 83 123 76 123 77 123 71 124 72 124 78 124 71 125 78 125 77 125 82 126 72 126 71 126 83 127 77 127 78 127 72 128 73 128 79 128 72 129 79 129 78 129 82 130 73 130 72 130 83 131 78 131 79 131 73 132 74 132 80 132 73 133 80 133 79 133 82 134 74 134 73 134 83 135 79 135 80 135 74 136 75 136 81 136 74 137 81 137 80 137 82 138 75 138 74 138 83 139 80 139 81 139 75 140 70 140 76 140 75 141 76 141 81 141 82 142 70 142 75 142 83 143 81 143 76 143 84 144 85 144 91 144 84 145 91 145 90 145 96 146 85 146 84 146 97 147 90 147 91 147 85 148 86 148 92 148 85 149 92 149 91 149 96 150 86 150 85 150 97 151 91 151 92 151 86 152 87 152 93 152 86 153 93 153 92 153 96 154 87 154 86 154 97 155 92 155 93 155 87 156 88 156 94 156 87 157 94 157 93 157 96 158 88 158 87 158 97 159 93 159 94 159 88 160 89 160 95 160 88 161 95 161 94 161 96 162 89 162 88 162 97 163 94 163 95 163 89 164 84 164 90 164 89 165 90 165 95 165 96 166 84 166 89 166 97 167 95 167 90 167 98 168 99 168 105 168 98 169 105 169 104 169 110 170 99 170 98 170 111 171 104 171 105 171 99 172 100 172 106 172 99 173 106 173 105 173 110 174 100 174 99 174 111 175 105 175 106 175 100 176 101 176 107 176 100 177 107 177 106 177 110 178 101 178 100 178 111 179 106 179 107 179 101 180 102 180 108 180 101 181 108 181 107 181 110 182 102 182 101 182 111 183 107 183 108 183 102 184 103 184 109 184 102 185 109 185 108 185 110 186 103 186 102 186 111 187 108 187 109 187 103 188 98 188 104 188 103 189 104 189 109 189 110 190 98 190 103 190 111 191 109 191 104 191 112 192 113 192 119 192 112 193 119 193 118 193 124 194 113 194 112 194 125 195 118 195 119 195 113 196 114 196 120 196 113 197 120 197 119 197 124 198 114 198 113 198 125 199 119 199 120 199 114 200 115 200 121 200 114 201 121 201 120 201 124 202 115 202 114 202 125 203 120 203 121 203 115 204 116 204 122 204 115 205 122 205 121 205 124 206 116 206 115 206 125 207 121 207 122 207 116 208 117 208 123 208 116 209 123 209 122 209 124 210 117 210 116 210 125 211 122 211 123 211 117 212 112 212 118 212 117 213 118 213 123 213 124 214 112 214 117 214 125 215 123 215 118 215 126 216 127 216 133 216 126 217 133 217 132 217 138 218 127 218 126 218 139 219 132 219 133 219 127 220 128 220 134 220 127 221 134 221 133 221 138 222 128 222 127 222 139 223 133 223 134 223 128 224 129 224 135 224 128 225 135 225 134 225 138 226 129 226 128 226 139 227 134 227 135 227 129 228 130 228 136 228 129 229 136 229 135 229 138 230 130 230 129 230 139 231 135 231 136 231 130 232 131 232 137 232 130 233 137 233 136 233 138 234 131 234 130 234 139 235 136 235 137 235 131 236 126 236 132 236 131 237 132 237 137 237 138 238 126 238 131 238 139 239 137 239 132 239 140 240 141 240 147 240 140 241 147 241 146 241 152 242 141 242 140 242 153 243 146 243 147 243 141 244 142 244 148 244 141 245 148 245 147 245 152 246 142 246 141 246 153 247 147 247 148 247 142 248 143 248 149 248 142 249 149 249 148 249 152 250 143 250 142 250 153 251 148 251 149 251 143 252 144 252 150 252 143 253 150 253 149 253 152 254 144 254 143 254 153 255 149 255 150 255 144 256 145 256 151 256 144 257 151 257 150 257 152 258 145 258 144 258 153 259 150 259 151 259 145 260 140 260 146 260 145 261 146 261 151 261 152 262 140 262 145 262 153 263 151 263 146 263 154 264 155 264 161 264 154 265 161 265 160 265 166 266 155 266 154 266 167 267 160 267 161 267 155 268 156 268 162 268 155 269 162 269 161 269 166 270 156 270 155 270 167 271 161 271 162 271 156 272 157 272 163 272 156 273 163 273 162 273 166 274 157 274 156 274 167 275 162 275 163 275 157 276 158 276 164 276 157 277 164 277 163 277 166 278 158 278 157 278 167 279 163 279 164 279 158 280 159 280 165 280 158 281 165 281 164 281 166 282 159 282 158 282 167 283 164 283 165 283 159 284 154 284 160 284 159 285 160 285 165 285 166 286 154 286 159 286 167 287 165 287 160 287 168 288 169 288 175 288 168 289 175 289 174 289 180 290 169 290 168 290 181 291 174 291 175 291 169 292 170 292 176 292 169 293 176 293 175 293 180 294 170 294 169 294 181 295 175 295 176 295 170 296 171 296 177 296 170 297 177 297 176 297 180 298 171 298 170 298 181 299 176 299 177 299 171 300 172 300 178 300 171 301 178 301 177 301 180 302 172 302 171 302 181 303 177 303 178 303 172 304 173 304 179 304 172 305 179 305 178 305 180 306 173 306 172 306 181 307 178 307 179 307 173 308 168 308 174 308 173 309 174 309 179 309 180 310 168 310 173 310 181 311 179 311 174 311 182 312 183 312 189 312 182 313 189 313 188 313 194 314 183 314 182 314 195 315 188 315 189 315 183 316 184 316 190 316 183 317 190 317 189 317 194 318 184 318 183 318 195 319 189 319 190 319 184 320 185 320 191 320 184 321 191 321 190 321 194 322 185 322 184 322 195 323 190 323 191 323 185 324 186 324 192 324 185 325 192 325 191 325 194 326 186 326 185 326 195 327 191 327 192 327 186 328 187 328 193 328 186 329 193 329 192 329 194 330 187 330 186 330 195 331 192 331 193 331 187 332 182 332 188 332 187 333 188 333 193 333 194 334 182 334 187 334 195 335 193 335 188 335 196 336 197 336 203 336 196 337 203 337 202 337 208 338 197 338 196 338 209 339 202 339 203 339 197 340 198 340 204 340 197 341 204 341 203 341 208 342 198 342 197 342 209 343 203 343 204 343 198 344 199 344 205 344 198 345 205 345 204 345 208 346 199 346 198 346 209 347 204 347 205 347 199 348 200 348 206 348 199 349 206 349 205 349 208 350 200 350 199 350 209 351 205 351 206 351 200 352 201 352 207 352 200 353 207 353 206 353 208 354 201 354 200 354 209 355 206 355 207 355 201 356 196 356 202 356 201 357 202 357 207 357 208 358 196 358 201 358 209 359 207 359 202 359 210 360 211 360 217 360 210 361 217 361 216 361 222 362 211 362 210 362 223 363 216 363 217 363 211 364 212 364 218 364 211 365 218 365 217 365 222 366 212 366 211 366 223 367 217 367 218 367 212 368 213 368 219 368 212 369 219 369 218 369 222 370 213 370 212 370 223 371 218 371 219 371 213 372 214 372 220 372 213 373 220 373 219 373 222 374 214 374 213 374 223 375 219 375 220 375 214 376 215 376 221 376 214 377 221 377 220 377 222 378 215 378 214 378 223 379 220 379 221 379 215 380 210 380 216 380 215 381 216 381 221 381 222 382 210 382 215 382 223 383 221 383 216 383 224 384 225 384 231 384 224 385 231 385 230 385 236 386 225 386 224 386 237 387 230 387 231 387 225 388 226 388 232 388 225 389 232 389 231 389 236 390 226 390 225 390 237 391 231 391 232 391 226 392 227 392 233 392 226 393 233 393 232 393 236 394 227 394 226 394 237 395 232 395 233 395 227 396 228 396 234 396 227 397 234 397 233 397 236 398 228 398 227 398 237 399 233 399 234 399 228 400 229 400 235 400 228 401 235 401 234 401 236 402 229 402 228 402 237 403 234 403 235 403 229 404 224 404 230 404 229 405 230 405 235 405 236 406 224 406 229 406 237 407 235 407 230 407 238 408 239 408 245 408 238 409 245 409 244 409 250 410 239 410 238 410 251 411 244 411 245 411 239 412 240 412 246 412 239 413 246 413 245 413 250 414 240 414 239 414 251 415 245 415 246 415 240 416 241 416 247 416 240 417 247 417 246 417 250 418 241 418 240 418 251 419 246 419 247 419 241 420 242 420 248 420 241 421 248 421 247 421 250 422 242 422 241 422 251 423 247 423 248 423 242 424 243 424 249 424 242 425 249 425 248 425 250 426 243 426 242 426 251 427 248 427 249 427 243 428 238 428 244 428 243 429 244 429 249 429 250 430 238 430 243 430 251 431 249 431 244 431 252 432 253 432 259 432 252 433 259 433 258 433 264 434 253 434 252 434 265 435 258 435 259 435 253 436 254 436 260 436 253 437 260 437 259 437 264 438 254 438 253 438 265 439 259 439 260 439 254 440 255 440 261 440 254 441 261 441 260 441 264 442 255 442 254 442 265 443 260 443 261 443 255 444 256 444 262 444 255 445 262 445 261 445 264 446 256 446 255 446 265 447 261 447 262 447 256 448 257 448 263 448 256 449 263 449 262 449 264 450 257 450 256 450 265 451 262 451 263 451 257 452 252 452 258 452 257 453 258 453 263 453 264 454 252 454 257 454 265 455 263 455 258 455 266 456 267 456 273 456 266 457 273 457 272 457 278 458 267 458 266 458 279 459 272 459 273 459 267 460 268 460 274 460 267 461 274 461 273 461 278 462 268 462 267 462 279 463 273 463 274 463 268 464 269 464 275 464 268 465 275 465 274 465 278 466 269 466 268 466 279 467 274 467 275 467 269 468 270 468 276 468 269 469 276 469 275 469 278 470 270 470 269 470 279 471 275 471 276 471 270 472 271 472 277 472 270 473 277 473 276 473 278 474 271 474 270 474 279 475 276 475 277 475 271 476 266 476 272 476 271 477 272 477 277 477 278 478 266 478 271 478 279 479 277 479 272 479 280 480 281 480 287 480 280 481 287 481 286 481 292 482 281 482 280 482 293 483 286 483 287 483 281 484 282 484 288 484 281 485 288 485 287 485 292 486 282 486 281 486 293 487 287 487 288 487 282 488 283 488 289 488 282 489 289 489 288 489 292 490 283 490 282 490 293 491 288 491 289 491 283 492 284 492 290 492 283 493 290 493 289 493 292 494 284 494 283 494 293 495 289 495 290 495 284 496 285 496 291 496 284 497 291 497 290 497 292 498 285 498 284 498 293 499 290 499 291 499 285 500 280 500 286 500 285 501 286 501 291 501 292 502 280 502 285 502 293 503 291 503 286 503 294 504 295 504 301 504 294 505 301 505 300 505 306 506 295 506 294 506 307 507 300 507 301 507 295 508 296 508 302 508 295 509 302 509 301 509 306 510 296 510 295 510 307 511 301 511 302 511 296 512 297 512 303 512 296 513 303 513 302 513 306 514 297 514 296 514 307 515 302 515 303 515 297 516 298 516 304 516 297 517 304 517 303 517 306 518 298 518 297 518 307 519 303 519 304 519 298 520 299 520 305 520 298 521 305 521 304 521 306 522 299 522 298 522 307 523 304 523 305 523 299 524 294 524 300 524 299 525 300 525 305 525 306 526 294 526 299 526 307 527 305 527 300 527 308 528 309 528 315 528 308 529 315 529 314 529 320 530 309 530 308 530 321 531 314 531 315 531 309 532 310 532 316 532 309 533 316 533 315 533 320 534 310 534 309 534 321 535 315 535 316 535 310 536 311 536 317 536 310 537 317 537 316 537 320 538 311 538 310 538 321 539 316 539 317 539 311 540 312 540 318 540 311 541 318 541 317 541 320 542 312 542 311 542 321 543 317 543 318 543 312 544 313 544 319 544 312 545 319 545 318 545 320 546 313 546 312 546 321 547 318 547 319 547 313 548 308 548 314 548 313 549 314 549 319 549 320 550 308 550 313 550 321 551 319 551 314 551 322 552 323 552 329 552 322 553 329 553 328 553 334 554 323 554 322 554 335 555 328 555 329 555 323 556 324 556 330 556 323 557 330 557 329 557 334 558 324 558 323 558 335 559 329 559 330 559 324 560 325 560 331 560 324 561 331 561 330 561 334 562 325 562 324 562 335 563 330 563 331 563 325 564 326 564 332 564 325 565 332 565 331 565 334 566 326 566 325 566 335 567 331 567 332 567 326 568 327 568 333 568 326 569 333 569 332 569 334 570 327 570 326 570 335 571 332 571 333 571 327 572 322 572 328 572 327 573 328 573 333 573 334 574 322 574 327 574 335 575 333 575 328 575 336 576 337 576 343 576 336 577 343 577 342 577 348 578 337 578 336 578 349 579 342 579 343 579 337 580 338 580 344 580 337 581 344 581 343 581 348 582 338 582 337 582 349 583 343 583 344 583 338 584 339 584 345 584 338 585 345 585 344 585 348 586 339 586 338 586 349 587 344 587 345 587 339 588 340 588 346 588 339 589 346 589 345 589 348 590 340 590 339 590 349 591 345 591 346 591 340 592 341 592 347 592 340 593 347 593 346 593 348 594 341 594 340 594 349 595 346 595 347 595 341 596 336 596 342 596 341 597 342 597 347 597 348 598 336 598 341 598 349 599 347 599 342 599 350 600 351 600 357 600 350 601 357 601 356 601 362 602 351 602 350 602 363 603 356 603 357 603 351 604 352 604 358 604 351 605 358 605 357 605 362 606 352 606 351 606 363 607 357 607 358 607 352 608 353 608 359 608 352 609 359 609 358 609 362 610 353 610 352 610 363 611 358 611 359 611 353 612 354 612 360 612 353 613 360 613 359 613 362 614 354 614 353 614 363 615 359 615 360 615 354 616 355 616 361 616 354 617 361 617 360 617 362 618 355 618 354 618 363 619 360 619 361 619 355 620 350 620 356 620 355 621 356 621 361 621 362 622 350 622 355 622 363 623 361 623 356 623 364 624 365 624 371 624 364 625 371 625 370 625 376 626 365 626 364 626 377 627 370 627 371 627 365 628 366 628 372 628 365 629 372 629 371 629 376 630 366 630 365 630 377 631 371 631 372 631 366 632 367 632 373 632 366 633 373 633 372 633 376 634 367 634 366 634 377 635 372 635 373 635 367 636 368 636 374 636 367 637 374 637 373 637 376 638 368 638 367 638 377 639 373 639 374 639 368 640 369 640 375 640 368 641 375 641 374 641 376 642 369 642 368 642 377 643 374 643 375 643 369 644 364 644 370 644 369 645 370 645 375 645 376 646 364 646 369 646 377 647 375 647 370 647 378 648 379 648 385 648 378 649 385 649 384 649 390 650 379 650 378 650 391 651 384 651 385 651 379 652 380 652 386 652 379 653 386 653 385 653 390 654 380 654 379 654 391 655 385 655 386 655 380 656 381 656 387 656 380 657 387 657 386 657 390 658 381 658 380 658 391 659 386 659 387 659 381 660 382 660 388 660 381 661 388 661 387 661 390 662 382 662 381 662 391 663 387 663 388 663 382 664 383 664 389 664 382 665 389 665 388 665 390 666 383 666 382 666 391 667 388 667 389 667 383 668 378 668 384 668 383 669 384 669 389 669 390 670 378 670 383 670 391 671 389 671 384 671 392 672 393 672 399 672 392 673 399 673 398 673 404 674 393 674 392 674 405 675 398 675 399 675 393 676 394 676 400 676 393 677 400 677 399 677 404 678 394 678 393 678 405 679 399 679 400 679 394 680 395 680 401 680 394 681 401 681 400 681 404 682 395 682 394 682 405 683 400 683 401 683 395 684 396 684 402 684 395 685 402 685 401 685 404 686 396 686 395 686 405 687 401 687 402 687 396 688 397 688 403 688 396 689 403 689 402 689 404 690 397 690 396 690 405 691 402 691 403 691 397 692 392 692 398 692 397 693 398 693 403 693 404 694 392 694 397 694 405 695 403 695 398 695 406 696 407 696 413 696 406 697 413 697 412 697 418 698 407 698 406 698 419 699 412 699 413 699 407 700 408 700 414 700 407 701 414 701 413 701 418 702 408 702 407 702 419 703 413 703 414 703 408 704 409 704 415 704 408 705 415 705 414 705 418 706 409 706 408 706 419 707 414 707 415 707 409 708 410 708 416 708 409 709 416 709 415 709 418 710 410 710 409 710 419 711 415 711 416 711 410 712 411 712 417 712 410 713 417 713 416 713 418 714 411 714 410 714 419 715 416 715 417 715 411 716 406 716 412 716 411 717 412 717 417 717 418 718 406 718 411 718 419 719 417 719 412 719 420 720 421 720 427 720 420 721 427 721 426 721 432 722 421 722 420 722 433 723 426 723 427 723 421 724 422 724 428 724 421 725 428 725 427 725 432 726 422 726 421 726 433 727 427 727 428 727 422 728 423 728 429 728 422 729 429 729 428 729 432 730 423 730 422 730 433 731 428 731 429 731 423 732 424 732 430 732 423 733 430 733 429 733 432 734 424 734 423 734 433 735 429 735 430 735 424 736 425 736 431 736 424 737 431 737 430 737 432 738 425 738 424 738 433 739 430 739 431 739 425 740 420 740 426 740 425 741 426 741 431 741 432 742 420 742 425 742 433 743 431 743 426 743 434 744 435 744 441 744 434 745 441 745 440 745 446 746 435 746 434 746 447 747 440 747 441 747 435 748 436 748 442 748 435 749 442 749 441 749 446 750 436 750 435 750 447 751 441 751 442 751 436 752 437 752 443 752 436 753 443 753 442 753 446 754 437 754 436 754 447 755 442 755 443 755 437 756 438 756 444 756 437 757 444 757 443 757 446 758 438 758 437 758 447 759 443 759 444 759 438 760 439 760 445 760 438 761 445 761 444 761 446 762 439 762 438 762 447 763 444 763 445 763 439 764 434 764 440 764 439 765 440 765 445 765 446 766 434 766 439 766 447 767 445 767 440 767 448 768 449 768 455 768 448 769 455 769 454 769 460 770 449 770 448 770 461 771 454 771 455 771 449 772 450 772 456 772 449 773 456 773 455 773 460 774 450 774 449 774 461 775 455 775 456 775 450 776 451 776 457 776 450 777 457 777 456 777 460 778 451 778 450 778 461 779 456 779 457 779 451 780 452 780 458 780 451 781 458 781 457 781 460 782 452 782 451 782 461 783 457 783 458 783 452 784 453 784 459 784 452 785 459 785 458 785 460 786 453 786 452 786 461 787 458 787 459 787 453 788 448 788 454 788 453 789 454 789 459 789 460 790 448 790 453 790 461 791 459 791 454 791 462 792 463 792 469 792 462 793 469 793 468 793 474 794 463 794 462 794 475 795 468 795 469 795 463 796 464 796 470 796 463 797 470 797 469 797 474 798 464 798 463 798 475 799 469 799 470 799 464 800 465 800 471 800 464 801 471 801 470 801 474 802 465 802 464 802 475 803 470 803 471 803 465 804 466 804 472 804 465 805 472 805 471 805 474 806 466 806 465 806 475 807 471 807 472 807 466 808 467 808 473 808 466 809 473 809 472 809 474 810 467 810 466 810 475 811 472 811 473 811 467 812 462 812 468 812 467 813 468 813 473 813 474 814 462 814 467 814 475 815 473 815 468 815 476 816 477 816 483 816 476 817 483 817 482 817 488 818 477 818 476 818 489 819 482 819 483 819 477 820 478 820 484 820 477 821 484 821 483 821 488 822 478 822 477 822 489 823 483 823 484 823 478 824 479 824 485 824 478 825 485 825 484 825 488 826 479 826 478 826 489 827 484 827 485 827 479 828 480 828 486 828 479 829 486 829 485 829 488 830 480 830 479 830 489 831 485 831 486 831 480 832 481 832 487 832 480 833 487 833 486 833 488 834 481 834 480 834 489 835 486 835 487 835 481 836 476 836 482 836 481 837 482 837 487 837 488 838 476 838 481 838 489 839 487 839 482 839 490 840 491 840 497 840 490 841 497 841 496 841 502 842 491 842 490 842 503 843 496 843 497 843 491 844 492 844 498 844 491 845 498 845 497 845 502 846 492 846 491 846 503 847 497 847 498 847 492 848 493 848 499 848 492 849 499 849 498 849 502 850 493 850 492 850 503 851 498 851 499 851 493 852 494 852 500 852 493 853 500 853 499 853 502 854 494 854 493 854 503 855 499 855 500 855 494 856 495 856 501 856 494 857 501 857 500 857 502 858 495 858 494 858 503 859 500 859 501 859 495 860 490 860 496 860 495 861 496 861 501 861 502 862 490 862 495 862 503 863 501 863 496 863 504 864 505 864 511 864 504 865 511 865 510 865 516 866 505 866 504 866 517 867 510 867 511 867 505 868 506 868 512 868 505 869 512 869 511 869 516 870 506 870 505 870 517 871 511 871 512 871 506 872 507 872 513 872 506 873 513 873 512 873 516 874 507 874 506 874 517 875 512 875 513 875 507 876 508 876 514 876 507 877 514 877 513 877 516 878 508 878 507 878 517 879 513 879 514 879 508 880 509 880 515 880 508 881 515 881 514 881 516 882 509 882 508 882 517 883 514 883 515 883 509 884 504 884 510 884 509 885 510 885 515 885 516 886 504 886 509 886 517 887 515 887 510 887 518 888 519 888 525 888 518 889 525 889 524 889 530 890 519 890 518 890 531 891 524 891 525 891 519 892 520 892 526 892 519 893 526 893 525 893 530 894 520 894 519 894 531 895 525 895 526 895 520 896 521 896 527 896 520 897 527 897 526 897 530 898 521 898 520 898 531 899 526 899 527 899 521 900 522 900 528 900 521 901 528 901 527 901 530 902 522 902 521 902 531 903 527 903 528 903 522 904 523 904 529 904 522 905 529 905 528 905 530 906 523 906 522 906 531 907 528 907 529 907 523 908 518 908 524 908 523 909 524 909 529 909 530 910 518 910 523 910 531 911 529 911 524 911 532 912 533 912 539 912 532 913 539 913 538 913 544 914 533 914 532 914 545 915 538 915 539 915 533 916 534 916 540 916 533 917 540 917 539 917 544 918 534 918 533 918 545 919 539 919 540 919 534 920 535 920 541 920 534 921 541 921 540 921 544 922 535 922 534 922 545 923 540 923 541 923 535 924 536 924 542 924 535 925 542 925 541 925 544 926 536 926 535 926 545 927 541 927 542 927 536 928 537 928 543 928 536 929 543 929 542 929 544 930 537 930 536 930 545 931 542 931 543 931 537 932 532 932 538 932 537 933 538 933 543 933 544 934 532 934 537 934 545 935 543 935 538 935 546 936 547 936 553 936 546 937 553 937 552 937 558 938 547 938 546 938 559 939 552 939 553 939 547 940 548 940 554 940 547 941 554 941 553 941 558 942 548 942 547 942 559 943 553 943 554 943 548 944 549 944 555 944 548 945 555 945 554 945 558 946 549 946 548 946 559 947 554 947 555 947 549 948 550 948 556 948 549 949 556 949 555 949 558 950 550 950 549 950 559 951 555 951 556 951 550 952 551 952 557 952 550 953 557 953 556 953 558 954 551 954 550 954 559 955 556 955 557 955 551 956 546 956 552 956 551 957 552 957 557 957 558 958 546 958 551 958 559 959 557 959 552 959 560 960 561 960 567 960 560 961 567 961 566 961 572 962 561 962 560 962 573 963 566 963 567 963 561 964 562 964 568 964 561 965 568 965 567 965 572 966 562 966 561 966 573 967 567 967 568 967 562 968 563 968 569 968 562 969 569 969 568 969 572 970 563 970 562 970 573 971 568 971 569 971 563 972 564 972 570 972 563 973 570 973 569 973 572 974 564 974 563 974 573 975 569 975 570 975 564 976 565 976 571 976 564 977 571 977 570 977 572 978 565 978 564 978 573 979 570 979 571 979 565 980 560 980 566 980 565 981 566 981 571 981 572 982 560 982 565 982 573 983 571 983 566 983 574 984 575 984 581 984 574 985 581 985 580 985 586 986 575 986 574 986 587 987 580 987 581 987 575 988 576 988 582 988 575 989 582 989 581 989 586 990 576 990 575 990 587 991 581 991 582 991 576 992 577 992 583 992 576 993 583 993 582 993 586 994 577 994 576 994 587 995 582 995 583 995 577 996 578 996 584 996 577 997 584 997 583 997 586 998 578 998 577 998 587 999 583 999 584 999 578 1000 579 1000 585 1000 578 1001 585 1001 584 1001 586 1002 579 1002 578 1002 587 1003 584 1003 585 1003 579 1004 574 1004 580 1004 579 1005 580 1005 585 1005 586 1006 574 1006 579 1006 587 1007 585 1007 580 1007 588 1008 589 1008 595 1008 588 1009 595 1009 594 1009 600 1010 589 1010 588 1010 601 1011 594 1011 595 1011 589 1012 590 1012 596 1012 589 1013 596 1013 595 1013 600 1014 590 1014 589 1014 601 1015 595 1015 596 1015 590 1016 591 1016 597 1016 590 1017 597 1017 596 1017 600 1018 591 1018 590 1018 601 1019 596 1019 597 1019 591 1020 592 1020 598 1020 591 1021 598 1021 597 1021 600 1022 592 1022 591 1022 601 1023 597 1023 598 1023 592 1024 593 1024 599 1024 592 1025 599 1025 598 1025 600 1026 593 1026 592 1026 601 1027 598 1027 599 1027 593 1028 588 1028 594 1028 593 1029 594 1029 599 1029 600 1030 588 1030 593 1030 601 1031 599 1031 594 1031 602 1032 603 1032 609 1032 602 1033 609 1033 608 1033 614 1034 603 1034 602 1034 615 1035 608 1035 609 1035 603 1036 604 1036 610 1036 603 1037 610 1037 609 1037 614 1038 604 1038 603 1038 615 1039 609 1039 610 1039 604 1040 605 1040 611 1040 604 1041 611 1041 610 1041 614 1042 605 1042 604 1042 615 1043 610 1043 611 1043 605 1044 606 1044 612 1044 605 1045 612 1045 611 1045 614 1046 606 1046 605 1046 615 1047 611 1047 612 1047 606 1048 607 1048 613 1048 606 1049 613 1049 612 1049 614 1050 607 1050 606 1050 615 1051 612 1051 613 1051 607 1052 602 1052 608 1052 607 1053 608 1053 613 1053 614 1054 602 1054 607 1054 615 1055 613 1055 608 1055 616 1056 617 1056 623 1056 616 1057 623 1057 622 1057 628 1058 617 1058 616 1058 629 1059 622 1059 623 1059 617 1060 618 1060 624 1060 617 1061 624 1061 623 1061 628 1062 618 1062 617 1062 629 1063 623 1063 624 1063 618 1064 619 1064 625 1064 618 1065 625 1065 624 1065 628 1066 619 1066 618 1066 629 1067 624 1067 625 1067 619 1068 620 1068 626 1068 619 1069 626 1069 625 1069 628 1070 620 1070 619 1070 629 1071 625 1071 626 1071 620 1072 621 1072 627 1072 620 1073 627 1073 626 1073 628 1074 621 1074 620 1074 629 1075 626 1075 627 1075 621 1076 616 1076 622 1076 621 1077 622 1077 627 1077 628 1078 616 1078 621 1078 629 1079 627 1079 622 1079 630 1080 631 1080 637 1080 630 1081 637 1081 636 1081 642 1082 631 1082 630 1082 643 1083 636 1083 637 1083 631 1084 632 1084 638 1084 631 1085 638 1085 637 1085 642 1086 632 1086 631 1086 643 1087 637 1087 638 1087 632 1088 633 1088 639 1088 632 1089 639 1089 638 1089 642 1090 633 1090 632 1090 643 1091 638 1091 639 1091 633 1092 634 1092 640 1092 633 1093 640 1093 639 1093 642 1094 634 1094 633 1094 643 1095 639 1095 640 1095 634 1096 635 1096 641 1096 634 1097 641 1097 640 1097 642 1098 635 1098 634 1098 643 1099 640 1099 641 1099 635 1100 630 1100 636 1100 635 1101 636 1101 641 1101 642 1102 630 1102 635 1102 643 1103 641 1103 636 1103 644 1104 645 1104 651 1104 644 1105 651 1105 650 1105 656 1106 645 1106 644 1106 657 1107 650 1107 651 1107 645 1108 646 1108 652 1108 645 1109 652 1109 651 1109 656 1110 646 1110 645 1110 657 1111 651 1111 652 1111 646 1112 647 1112 653 1112 646 1113 653 1113 652 1113 656 1114 647 1114 646 1114 657 1115 652 1115 653 1115 647 1116 648 1116 654 1116 647 1117 654 1117 653 1117 656 1118 648 1118 647 1118 657 1119 653 1119 654 1119 648 1120 649 1120 655 1120 648 1121 655 1121 654 1121 656 1122 649 1122 648 1122 657 1123 654 1123 655 1123 649 1124 644 1124 650 1124 649 1125 650 1125 655 1125 656 1126 644 1126 649 1126 657 1127 655 1127 650 1127 658 1128 659 1128 665 1128 658 1129 665 1129 664 1129 670 1130 659 1130 658 1130 671 1131 664 1131 665 1131 659 1132 660 1132 666 1132 659 1133 666 1133 665 1133 670 1134 660 1134 659 1134 671 1135 665 1135 666 1135 660 1136 661 1136 667 1136 660 1137 667 1137 666 1137 670 1138 661 1138 660 1138 671 1139 666 1139 667 1139 661 1140 662 1140 668 1140 661 1141 668 1141 667 1141 670 1142 662 1142 661 1142 671 1143 667 1143 668 1143 662 1144 663 1144 669 1144 662 1145 669 1145 668 1145 670 1146 663 1146 662 1146 671 1147 668 1147 669 1147 663 1148 658 1148 664 1148 663 1149 664 1149 669 1149 670 1150 658 1150 663 1150 671 1151 669 1151 664 1151 672 1152 673 1152 679 1152 672 1153 679 1153 678 1153 684 1154 673 1154 672 1154 685 1155 678 1155 679 1155 673 1156 674 1156 680 1156 673 1157 680 1157 679 1157 684 1158 674 1158 673 1158 685 1159 679 1159 680 1159 674 1160 675 1160 681 1160 674 1161 681 1161 680 1161 684 1162 675 1162 674 1162 685 1163 680 1163 681 1163 675 1164 676 1164 682 1164 675 1165 682 1165 681 1165 684 1166 676 1166 675 1166 685 1167 681 1167 682 1167 676 1168 677 1168 683 1168 676 1169 683 1169 682 1169 684 1170 677 1170 676 1170 685 1171 682 1171 683 1171 677 1172 672 1172 678 1172 677 1173 678 1173 683 1173 684 1174 672 1174 677 1174 685 1175 683 1175 678 1175 686 1176 687 1176 693 1176 686 1177 693 1177 692 1177 698 1178 687 1178 686 1178 699 1179 692 1179 693 1179 687 1180 688 1180 694 1180 687 1181 694 1181 693 1181 698 1182 688 1182 687 1182 699 1183 693 1183 694 1183 688 1184 689 1184 695 1184 688 1185 695 1185 694 1185 698 1186 689 1186 688 1186 699 1187 694 1187 695 1187 689 1188 690 1188 696 1188 689 1189 696 1189 695 1189 698 1190 690 1190 689 1190 699 1191 695 1191 696 1191 690 1192 691 1192 697 1192 690 1193 697 1193 696 1193 698 1194 691 1194 690 1194 699 1195 696 1195 697 1195 691 1196 686 1196 692 1196 691 1197 692 1197 697 1197 698 1198 686 1198 691 1198 699 1199 697 1199 692 1199 700 1200 701 1200 707 1200 700 1201 707 1201 706 1201 712 1202 701 1202 700 1202 713 1203 706 1203 707 1203 701 1204 702 1204 708 1204 701 1205 708 1205 707 1205 712 1206 702 1206 701 1206 713 1207 707 1207 708 1207 702 1208 703 1208 709 1208 702 1209 709 1209 708 1209 712 1210 703 1210 702 1210 713 1211 708 1211 709 1211 703 1212 704 1212 710 1212 703 1213 710 1213 709 1213 712 1214 704 1214 703 1214 713 1215 709 1215 710 1215 704 1216 705 1216 711 1216 704 1217 711 1217 710 1217 712 1218 705 1218 704 1218 713 1219 710 1219 711 1219 705 1220 700 1220 706 1220 705 1221 706 1221 711 1221 712 1222 700 1222 705 1222 713 1223 711 1223 706 1223 714 1224 715 1224 721 1224 714 1225 721 1225 720 1225 726 1226 715 1226 714 1226 727 1227 720 1227 721 1227 715 1228 716 1228 722 1228 715 1229 722 1229 721 1229 726 1230 716 1230 715 1230 727 1231 721 1231 722 1231 716 1232 717 1232 723 1232 716 1233 723 1233 722 1233 726 1234 717 1234 716 1234 727 1235 722 1235 723 1235 717 1236 718 1236 724 1236 717 1237 724 1237 723 1237 726 1238 718 1238 717 1238 727 1239 723 1239 724 1239 718 1240 719 1240 725 1240 718 1241 725 1241 724 1241 726 1242 719 1242 718 1242 727 1243 724 1243 725 1243 719 1244 714 1244 720 1244 719 1245 720 1245 725 1245 726 1246 714 1246 719 1246 727 1247 725 1247 720 1247 728 1248 729 1248 735 1248 728 1249 735 1249 734 1249 740 1250 729 1250 728 1250 741 1251 734 1251 735 1251 729 1252 730 1252 736 1252 729 1253 736 1253 735 1253 740 1254 730 1254 729 1254 741 1255 735 1255 736 1255 730 1256 731 1256 737 1256 730 1257 737 1257 736 1257 740 1258 731 1258 730 1258 741 1259 736 1259 737 1259 731 1260 732 1260 738 1260 731 1261 738 1261 737 1261 740 1262 732 1262 731 1262 741 1263 737 1263 738 1263 732 1264 733 1264 739 1264 732 1265 739 1265 738 1265 740 1266 733 1266 732 1266 741 1267 738 1267 739 1267 733 1268 728 1268 734 1268 733 1269 734 1269 739 1269 740 1270 728 1270 733 1270 741 1271 739 1271 734 1271 742 1272 743 1272 749 1272 742 1273 749 1273 748 1273 754 1274 743 1274 742 1274 755 1275 748 1275 749 1275 743 1276 744 1276 750 1276 743 1277 750 1277 749 1277 754 1278 744 1278 743 1278 755 1279 749 1279 750 1279 744 1280 745 1280 751 1280 744 1281 751 1281 750 1281 754 1282 745 1282 744 1282 755 1283 750 1283 751 1283 745 1284 746 1284 752 1284 745 1285 752 1285 751 1285 754 1286 746 1286 745 1286 755 1287 751 1287 752 1287 746 1288 747 1288 753 1288 746 1289 753 1289 752 1289 754 1290 747 1290 746 1290 755 1291 752 1291 753 1291 747 1292 742 1292 748 1292 747 1293 748 1293 753 1293 754 1294 742 1294 747 1294 755 1295 753 1295 748 1295 756 1296 757 1296 763 1296 756 1297 763 1297 762 1297 768 1298 757 1298 756 1298 769 1299 762 1299 763 1299 757 1300 758 1300 764 1300 757 1301 764 1301 763 1301 768 1302 758 1302 757 1302 769 1303 763 1303 764 1303 758 1304 759 1304 765 1304 758 1305 765 1305 764 1305 768 1306 759 1306 758 1306 769 1307 764 1307 765 1307 759 1308 760 1308 766 1308 759 1309 766 1309 765 1309 768 1310 760 1310 759 1310 769 1311 765 1311 766 1311 760 1312 761 1312 767 1312 760 1313 767 1313 766 1313 768 1314 761 1314 760 1314 769 1315 766 1315 767 1315 761 1316 756 1316 762 1316 761 1317 762 1317 767 1317 768 1318 756 1318 761 1318 769 1319 767 1319 762 1319 770 1320 771 1320 777 1320 770 1321 777 1321 776 1321 782 1322 771 1322 770 1322 783 1323 776 1323 777 1323 771 1324 772 1324 778 1324 771 1325 778 1325 777 1325 782 1326 772 1326 771 1326 783 1327 777 1327 778 1327 772 1328 773 1328 779 1328 772 1329 779 1329 778 1329 782 1330 773 1330 772 1330 783 1331 778 1331 779 1331 773 1332 774 1332 780 1332 773 1333 780 1333 779 1333 782 1334 774 1334 773 1334 783 1335 779 1335 780 1335 774 1336 775 1336 781 1336 774 1337 781 1337 780 1337 782 1338 775 1338 774 1338 783 1339 780 1339 781 1339 775 1340 770 1340 776 1340 775 1341 776 1341 781 1341 782 1342 770 1342 775 1342 783 1343 781 1343 776 1343 784 1344 785 1344 791 1344 784 1345 791 1345 790 1345 796 1346 785 1346 784 1346 797 1347 790 1347 791 1347 785 1348 786 1348 792 1348 785 1349 792 1349 791 1349 796 1350 786 1350 785 1350 797 1351 791 1351 792 1351 786 1352 787 1352 793 1352 786 1353 793 1353 792 1353 796 1354 787 1354 786 1354 797 1355 792 1355 793 1355 787 1356 788 1356 794 1356 787 1357 794 1357 793 1357 796 1358 788 1358 787 1358 797 1359 793 1359 794 1359 788 1360 789 1360 795 1360 788 1361 795 1361 794 1361 796 1362 789 1362 788 1362 797 1363 794 1363 795 1363 789 1364 784 1364 790 1364 789 1365 790 1365 795 1365 796 1366 784 1366 789 1366 797 1367 795 1367 790 1367 798 1368 799 1368 805 1368 798 1369 805 1369 804 1369 810 1370 799 1370 798 1370 811 1371 804 1371 805 1371 799 1372 800 1372 806 1372 799 1373 806 1373 805 1373 810 1374 800 1374 799 1374 811 1375 805 1375 806 1375 800 1376 801 1376 807 1376 800 1377 807 1377 806 1377 810 1378 801 1378 800 1378 811 1379 806 1379 807 1379 801 1380 802 1380 808 1380 801 1381 808 1381 807 1381 810 1382 802 1382 801 1382 811 1383 807 1383 808 1383 802 1384 803 1384 809 1384 802 1385 809 1385 808 1385 810 1386 803 1386 802 1386 811 1387 808 1387 809 1387 803 1388 798 1388 804 1388 803 1389 804 1389 809 1389 810 1390 798 1390 803 1390 811 1391 809 1391 804 1391 812 1392 813 1392 819 1392 812 1393 819 1393 818 1393 824 1394 813 1394 812 1394 825 1395 818 1395 819 1395 813 1396 814 1396 820 1396 813 1397 820 1397 819 1397 824 1398 814 1398 813 1398 825 1399 819 1399 820 1399 814 1400 815 1400 821 1400 814 1401 821 1401 820 1401 824 1402 815 1402 814 1402 825 1403 820 1403 821 1403 815 1404 816 1404 822 1404 815 1405 822 1405 821 1405 824 1406 816 1406 815 1406 825 1407 821 1407 822 1407 816 1408 817 1408 823 1408 816 1409 823 1409 822 1409 824 1410 817 1410 816 1410 825 1411 822 1411 823 1411 817 1412 812 1412 818 1412 817 1413 818 1413 823 1413 824 1414 812 1414 817 1414 825 1415 823 1415 818 1415 826 1416 827 1416 833 1416 826 1417 833 1417 832 1417 838 1418 827 1418 826 1418 839 1419 832 1419 833 1419 827 1420 828 1420 834 1420 827 1421 834 1421 833 1421 838 1422 828 1422 827 1422 839 1423 833 1423 834 1423 828 1424 829 1424 835 1424 828 1425 835 1425 834 1425 838 1426 829 1426 828 1426 839 1427 834 1427 835 1427 829 1428 830 1428 836 1428 829 1429 836 1429 835 1429 838 1430 830 1430 829 1430 839 1431 835 1431 836 1431 830 1432 831 1432 837 1432 830 1433 837 1433 836 1433 838 1434 831 1434 830 1434 839 1435 836 1435 837 1435 831 1436 826 1436 832 1436 831 1437 832 1437 837 1437 838 1438 826 1438 831 1438 839 1439 837 1439 832 1439</p></triangles>
</mesh></geometry></library_geometries><library_visual_scenes><visual_scene id="Scene"><node id="mesh"><instance_geometry url="#geometry"/></node></visual_scene></library_visual_scenes><scene><instance_visual_scene url="#Scene"/></scene></COLLADA>