<?xml version="1.0" encoding="UTF-8"?>
<COLLADA xmlns="http://www.collada.org/2005/11/COLLADASchema" version="1.4.1">
<asset><contributor><authoring_tool>Summit Estate procedural mesh exporter</authoring_tool></contributor><created>2026-09-11T00:00:00Z</created><modified>2026-09-11T00:00:00Z</modified><unit name="meter" meter="1"/><up_axis>Z_UP</up_axis></asset>
<library_geometries><geometry id="geometry" name="geometry"><mesh>
<source id="positions"><float_array id="positions-array" count="2304">65.00000 149.64000 75.18500 59.00000 149.64000 75.18500 59.00000 149.32000 75.18500 65.00000 149.32000 75.18500 65.00000 149.64000 76.33500 59.00000 149.64000 76.33500 59.00000 149.32000 76.33500 65.00000 149.32000 76.33500 64.72500 150.95500 75.35000 62.94167 150.95500 75.35000 62.94167 149.60500 75.35000 64.72500 149.60500 75.35000 64.72500 150.95500 75.59000 62.94167 150.95500 75.59000 62.94167 149.60500 75.59000 64.72500 149.60500 75.59000 62.89167 150.95500 75.35000 61.10833 150.95500 75.35000 61.10833 149.60500 75.35000 62.89167 149.60500 75.35000 62.89167 150.95500 75.59000 61.10833 150.95500 75.59000 61.10833 149.60500 75.59000 62.89167 149.60500 75.59000 61.05833 150.95500 75.35000 59.27500 150.95500 75.35000 59.27500 149.60500 75.35000 61.05833 149.60500 75.35000 61.05833 150.95500 75.59000 59.27500 150.95500 75.59000 59.27500 149.60500 75.59000 61.05833 149.60500 75.59000 65.00000 151.05000 75.15000 64.70000 151.05000 75.15000 64.70000 149.35000 75.15000 65.00000 149.35000 75.15000 65.00000 151.05000 75.95000 64.70000 151.05000 75.95000 64.70000 149.35000 75.95000 65.00000 149.35000 75.95000 59.30000 151.05000 75.15000 59.00000 151.05000 75.15000 59.00000 149.35000 75.15000 59.30000 149.35000 75.15000 59.30000 151.05000 75.95000 59.00000 151.05000 75.95000 59.00000 149.35000 75.95000 59.30000 149.35000 75.95000 93.10000 121.06000 75.18500 94.90000 121.06000 75.18500 94.90000 121.38000 75.18500 93.10000 121.38000 75.18500 93.10000 121.06000 76.33500 94.90000 121.06000 76.33500 94.90000 121.38000 76.33500 93.10000 121.38000 76.33500 93.37500 119.74500 75.35000 93.75833 119.74500 75.35000 93.75833 121.09500 75.35000 93.37500 121.09500 75.35000 93.37500 119.74500 75.59000 93.75833 119.74500 75.59000 93.75833 121.09500 75.59000 93.37500 121.09500 75.59000 93.80833 119.74500 75.35000 94.19167 119.74500 75.35000 94.19167 121.09500 75.35000 93.80833 121.09500 75.35000 93.80833 119.74500 75.59000 94.19167 119.74500 75.59000 94.19167 121.09500 75.59000 93.80833 121.09500 75.59000 94.24167 119.74500 75.35000 94.62500 119.74500 75.35000 94.62500 121.09500 75.35000 94.24167 121.09500 75.35000 94.24167 119.74500 75.59000 94.62500 119.74500 75.59000 94.62500 121.09500 75.59000 94.24167 121.09500 75.59000 93.10000 119.65000 75.15000 93.40000 119.65000 75.15000 93.40000 121.35000 75.15000 93.10000 121.35000 75.15000 93.10000 119.65000 75.95000 93.40000 119.65000 75.95000 93.40000 121.35000 75.95000 93.10000 121.35000 75.95000 94.60000 119.65000 75.15000 94.90000 119.65000 75.15000 94.90000 121.35000 75.15000 94.60000 121.35000 75.15000 94.60000 119.65000 75.95000 94.90000 119.65000 75.95000 94.90000 121.35000 75.95000 94.60000 121.35000 75.95000 98.80000 121.06000 75.18500 100.60000 121.06000 75.18500 100.60000 121.38000 75.18500 98.80000 121.38000 75.18500 98.80000 121.06000 76.33500 100.60000 121.06000 76.33500 100.60000 121.38000 76.33500 98.80000 121.38000 76.33500 99.07500 119.74500 75.35000 99.45833 119.74500 75.35000 99.45833 121.09500 75.35000 99.07500 121.09500 75.35000 99.07500 119.74500 75.59000 99.45833 119.74500 75.59000 99.45833 121.09500 75.59000 99.07500 121.09500 75.59000 99.50833 119.74500 75.35000 99.89167 119.74500 75.35000 99.89167 121.09500 75.35000 99.50833 121.09500 75.35000 99.50833 119.74500 75.59000 99.89167 119.74500 75.59000 99.89167 121.09500 75.59000 99.50833 121.09500 75.59000 99.94167 119.74500 75.35000 100.32500 119.74500 75.35000 100.32500 121.09500 75.35000 99.94167 121.09500 75.35000 99.94167 119.74500 75.59000 100.32500 119.74500 75.59000 100.32500 121.09500 75.59000 99.94167 121.09500 75.59000 98.80000 119.65000 75.15000 99.10000 119.65000 75.15000 99.10000 121.35000 75.15000 98.80000 121.35000 75.15000 98.80000 119.65000 75.95000 99.10000 119.65000 75.95000 99.10000 121.35000 75.95000 98.80000 121.35000 75.95000 100.30000 119.65000 75.15000 100.60000 119.65000 75.15000 100.60000 121.35000 75.15000 100.30000 121.35000 75.15000 100.30000 119.65000 75.95000 100.60000 119.65000 75.95000 100.60000 121.35000 75.95000 100.30000 121.35000 75.95000 104.50000 121.06000 75.18500 106.30000 121.06000 75.18500 106.30000 121.38000 75.18500 104.50000 121.38000 75.18500 104.50000 121.06000 76.33500 106.30000 121.06000 76.33500 106.30000 121.38000 76.33500 104.50000 121.38000 76.33500 104.77500 119.74500 75.35000 105.15833 119.74500 75.35000 105.15833 121.09500 75.35000 104.77500 121.09500 75.35000 104.77500 119.74500 75.59000 105.15833 119.74500 75.59000 105.15833 121.09500 75.59000 104.77500 121.09500 75.59000 105.20833 119.74500 75.35000 105.59167 119.74500 75.35000 105.59167 121.09500 75.35000 105.20833 121.09500 75.35000 105.20833 119.74500 75.59000 105.59167 119.74500 75.59000 105.59167 121.09500 75.59000 105.20833 121.09500 75.59000 105.64167 119.74500 75.35000 106.02500 119.74500 75.35000 106.02500 121.09500 75.35000 105.64167 121.09500 75.35000 105.64167 119.74500 75.59000 106.02500 119.74500 75.59000 106.02500 121.09500 75.59000 105.64167 121.09500 75.59000 104.50000 119.65000 75.15000 104.80000 119.65000 75.15000 104.80000 121.35000 75.15000 104.50000 121.35000 75.15000 104.50000 119.65000 75.95000 104.80000 119.65000 75.95000 104.80000 121.35000 75.95000 104.50000 121.35000 75.95000 106.00000 119.65000 75.15000 106.30000 119.65000 75.15000 106.30000 121.35000 75.15000 106.00000 121.35000 75.15000 106.00000 119.65000 75.95000 106.30000 119.65000 75.95000 106.30000 121.35000 75.95000 106.00000 121.35000 75.95000 110.20000 121.06000 75.18500 112.00000 121.06000 75.18500 112.00000 121.38000 75.18500 110.20000 121.38000 75.18500 110.20000 121.06000 76.33500 112.00000 121.06000 76.33500 112.00000 121.38000 76.33500 110.20000 121.38000 76.33500 110.47500 119.74500 75.35000 110.85833 119.74500 75.35000 110.85833 121.09500 75.35000 110.47500 121.09500 75.35000 110.47500 119.74500 75.59000 110.85833 119.74500 75.59000 110.85833 121.09500 75.59000 110.47500 121.09500 75.59000 110.90833 119.74500 75.35000 111.29167 119.74500 75.35000 111.29167 121.09500 75.35000 110.90833 121.09500 75.35000 110.90833 119.74500 75.59000 111.29167 119.74500 75.59000 111.29167 121.09500 75.59000 110.90833 121.09500 75.59000 111.34167 119.74500 75.35000 111.72500 119.74500 75.35000 111.72500 121.09500 75.35000 111.34167 121.09500 75.35000 111.34167 119.74500 75.59000 111.72500 119.74500 75.59000 111.72500 121.09500 75.59000 111.34167 121.09500 75.59000 110.20000 119.65000 75.15000 110.50000 119.65000 75.15000 110.50000 121.35000 75.15000 110.20000 121.35000 75.15000 110.20000 119.65000 75.95000 110.50000 119.65000 75.95000 110.50000 121.35000 75.95000 110.20000 121.35000 75.95000 111.70000 119.65000 75.15000 112.00000 119.65000 75.15000 112.00000 121.35000 75.15000 111.70000 121.35000 75.15000 111.70000 119.65000 75.95000 112.00000 119.65000 75.95000 112.00000 121.35000 75.95000 111.70000 121.35000 75.95000 115.90000 121.06000 75.18500 117.70000 121.06000 75.18500 117.70000 121.38000 75.18500 115.90000 121.38000 75.18500 115.90000 121.06000 76.33500 117.70000 121.06000 76.33500 117.70000 121.38000 76.33500 115.90000 121.38000 76.33500 116.17500 119.74500 75.35000 116.55833 119.74500 75.35000 116.55833 121.09500 75.35000 116.17500 121.09500 75.35000 116.17500 119.74500 75.59000 116.55833 119.74500 75.59000 116.55833 121.09500 75.59000 116.17500 121.09500 75.59000 116.60833 119.74500 75.35000 116.99167 119.74500 75.35000 116.99167 121.09500 75.35000 116.60833 121.09500 75.35000 116.60833 119.74500 75.59000 116.99167 119.74500 75.59000 116.99167 121.09500 75.59000 116.60833 121.09500 75.59000 117.04167 119.74500 75.35000 117.42500 119.74500 75.35000 117.42500 121.09500 75.35000 117.04167 121.09500 75.35000 117.04167 119.74500 75.59000 117.42500 119.74500 75.59000 117.42500 121.09500 75.59000 117.04167 121.09500 75.59000 115.90000 119.65000 75.15000 116.20000 119.65000 75.15000 116.20000 121.35000 75.15000 115.90000 121.35000 75.15000 115.90000 119.65000 75.95000 116.20000 119.65000 75.95000 116.20000 121.35000 75.95000 115.90000 121.35000 75.95000 117.40000 119.65000 75.15000 117.70000 119.65000 75.15000 117.70000 121.35000 75.15000 117.40000 121.35000 75.15000 117.40000 119.65000 75.95000 117.70000 119.65000 75.95000 117.70000 121.35000 75.95000 117.40000 121.35000 75.95000 93.10000 124.66000 75.43500 94.90000 124.66000 75.43500 94.90000 124.98000 75.43500 93.10000 124.98000 75.43500 93.10000 124.66000 76.58500 94.90000 124.66000 76.58500 94.90000 124.98000 76.58500 93.10000 124.98000 76.58500 93.37500 123.34500 75.60000 93.75833 123.34500 75.60000 93.75833 124.69500 75.60000 93.37500 124.69500 75.60000 93.37500 123.34500 75.84000 93.75833 123.34500 75.84000 93.75833 124.69500 75.84000 93.37500 124.69500 75.84000 93.80833 123.34500 75.60000 94.19167 123.34500 75.60000 94.19167 124.69500 75.60000 93.80833 124.69500 75.60000 93.80833 123.34500 75.84000 94.19167 123.34500 75.84000 94.19167 124.69500 75.84000 93.80833 124.69500 75.84000 94.24167 123.34500 75.60000 94.62500 123.34500 75.60000 94.62500 124.69500 75.60000 94.24167 124.69500 75.60000 94.24167 123.34500 75.84000 94.62500 123.34500 75.84000 94.62500 124.69500 75.84000 94.24167 124.69500 75.84000 93.10000 123.25000 75.40000 93.40000 123.25000 75.40000 93.40000 124.95000 75.40000 93.10000 124.95000 75.40000 93.10000 123.25000 76.20000 93.40000 123.25000 76.20000 93.40000 124.95000 76.20000 93.10000 124.95000 76.20000 94.60000 123.25000 75.40000 94.90000 123.25000 75.40000 94.90000 124.95000 75.40000 94.60000 124.95000 75.40000 94.60000 123.25000 76.20000 94.90000 123.25000 76.20000 94.90000 124.95000 76.20000 94.60000 124.95000 76.20000 98.80000 124.66000 75.43500 100.60000 124.66000 75.43500 100.60000 124.98000 75.43500 98.80000 124.98000 75.43500 98.80000 124.66000 76.58500 100.60000 124.66000 76.58500 100.60000 124.98000 76.58500 98.80000 124.98000 76.58500 99.07500 123.34500 75.60000 99.45833 123.34500 75.60000 99.45833 124.69500 75.60000 99.07500 124.69500 75.60000 99.07500 123.34500 75.84000 99.45833 123.34500 75.84000 99.45833 124.69500 75.84000 99.07500 124.69500 75.84000 99.50833 123.34500 75.60000 99.89167 123.34500 75.60000 99.89167 124.69500 75.60000 99.50833 124.69500 75.60000 99.50833 123.34500 75.84000 99.89167 123.34500 75.84000 99.89167 124.69500 75.84000 99.50833 124.69500 75.84000 99.94167 123.34500 75.60000 100.32500 123.34500 75.60000 100.32500 124.69500 75.60000 99.94167 124.69500 75.60000 99.94167 123.34500 75.84000 100.32500 123.34500 75.84000 100.32500 124.69500 75.84000 99.94167 124.69500 75.84000 98.80000 123.25000 75.40000 99.10000 123.25000 75.40000 99.10000 124.95000 75.40000 98.80000 124.95000 75.40000 98.80000 123.25000 76.20000 99.10000 123.25000 76.20000 99.10000 124.95000 76.20000 98.80000 124.95000 76.20000 100.30000 123.25000 75.40000 100.60000 123.25000 75.40000 100.60000 124.95000 75.40000 100.30000 124.95000 75.40000 100.30000 123.25000 76.20000 100.60000 123.25000 76.20000 100.60000 124.95000 76.20000 100.30000 124.95000 76.20000 104.50000 124.66000 75.43500 106.30000 124.66000 75.43500 106.30000 124.98000 75.43500 104.50000 124.98000 75.43500 104.50000 124.66000 76.58500 106.30000 124.66000 76.58500 106.30000 124.98000 76.58500 104.50000 124.98000 76.58500 104.77500 123.34500 75.60000 105.15833 123.34500 75.60000 105.15833 124.69500 75.60000 104.77500 124.69500 75.60000 104.77500 123.34500 75.84000 105.15833 123.34500 75.84000 105.15833 124.69500 75.84000 104.77500 124.69500 75.84000 105.20833 123.34500 75.60000 105.59167 123.34500 75.60000 105.59167 124.69500 75.60000 105.20833 124.69500 75.60000 105.20833 123.34500 75.84000 105.59167 123.34500 75.84000 105.59167 124.69500 75.84000 105.20833 124.69500 75.84000 105.64167 123.34500 75.60000 106.02500 123.34500 75.60000 106.02500 124.69500 75.60000 105.64167 124.69500 75.60000 105.64167 123.34500 75.84000 106.02500 123.34500 75.84000 106.02500 124.69500 75.84000 105.64167 124.69500 75.84000 104.50000 123.25000 75.40000 104.80000 123.25000 75.40000 104.80000 124.95000 75.40000 104.50000 124.95000 75.40000 104.50000 123.25000 76.20000 104.80000 123.25000 76.20000 104.80000 124.95000 76.20000 104.50000 124.95000 76.20000 106.00000 123.25000 75.40000 106.30000 123.25000 75.40000 106.30000 124.95000 75.40000 106.00000 124.95000 75.40000 106.00000 123.25000 76.20000 106.30000 123.25000 76.20000 106.30000 124.95000 76.20000 106.00000 124.95000 76.20000 110.20000 124.66000 75.43500 112.00000 124.66000 75.43500 112.00000 124.98000 75.43500 110.20000 124.98000 75.43500 110.20000 124.66000 76.58500 112.00000 124.66000 76.58500 112.00000 124.98000 76.58500 110.20000 124.98000 76.58500 110.47500 123.34500 75.60000 110.85833 123.34500 75.60000 110.85833 124.69500 75.60000 110.47500 124.69500 75.60000 110.47500 123.34500 75.84000 110.85833 123.34500 75.84000 110.85833 124.69500 75.84000 110.47500 124.69500 75.84000 110.90833 123.34500 75.60000 111.29167 123.34500 75.60000 111.29167 124.69500 75.60000 110.90833 124.69500 75.60000 110.90833 123.34500 75.84000 111.29167 123.34500 75.84000 111.29167 124.69500 75.84000 110.90833 124.69500 75.84000 111.34167 123.34500 75.60000 111.72500 123.34500 75.60000 111.72500 124.69500 75.60000 111.34167 124.69500 75.60000 111.34167 123.34500 75.84000 111.72500 123.34500 75.84000 111.72500 124.69500 75.84000 111.34167 124.69500 75.84000 110.20000 123.25000 75.40000 110.50000 123.25000 75.40000 110.50000 124.95000 75.40000 110.20000 124.95000 75.40000 110.20000 123.25000 76.20000 110.50000 123.25000 76.20000 110.50000 124.95000 76.20000 110.20000 124.95000 76.20000 111.70000 123.25000 75.40000 112.00000 123.25000 75.40000 112.00000 124.95000 75.40000 111.70000 124.95000 75.40000 111.70000 123.25000 76.20000 112.00000 123.25000 76.20000 112.00000 124.95000 76.20000 111.70000 124.95000 76.20000 115.90000 124.66000 75.43500 117.70000 124.66000 75.43500 117.70000 124.98000 75.43500 115.90000 124.98000 75.43500 115.90000 124.66000 76.58500 117.70000 124.66000 76.58500 117.70000 124.98000 76.58500 115.90000 124.98000 76.58500 116.17500 123.34500 75.60000 116.55833 123.34500 75.60000 116.55833 124.69500 75.60000 116.17500 124.69500 75.60000 116.17500 123.34500 75.84000 116.55833 123.34500 75.84000 116.55833 124.69500 75.84000 116.17500 124.69500 75.84000 116.60833 123.34500 75.60000 116.99167 123.34500 75.60000 116.99167 124.69500 75.60000 116.60833 124.69500 75.60000 116.60833 123.34500 75.84000 116.99167 123.34500 75.84000 116.99167 124.69500 75.84000 116.60833 124.69500 75.84000 117.04167 123.34500 75.60000 117.42500 123.34500 75.60000 117.42500 124.69500 75.60000 117.04167 124.69500 75.60000 117.04167 123.34500 75.84000 117.42500 123.34500 75.84000 117.42500 124.69500 75.84000 117.04167 124.69500 75.84000 115.90000 123.25000 75.40000 116.20000 123.25000 75.40000 116.20000 124.95000 75.40000 115.90000 124.95000 75.40000 115.90000 123.25000 76.20000 116.20000 123.25000 76.20000 116.20000 124.95000 76.20000 115.90000 124.95000 76.20000 117.40000 123.25000 75.40000 117.70000 123.25000 75.40000 117.70000 124.95000 75.40000 117.40000 124.95000 75.40000 117.40000 123.25000 76.20000 117.70000 123.25000 76.20000 117.70000 124.95000 76.20000 117.40000 124.95000 76.20000 93.10000 128.26000 75.68500 94.90000 128.26000 75.68500 94.90000 128.58000 75.68500 93.10000 128.58000 75.68500 93.10000 128.26000 76.83500 94.90000 128.26000 76.83500 94.90000 128.58000 76.83500 93.10000 128.58000 76.83500 93.37500 126.94500 75.85000 93.75833 126.94500 75.85000 93.75833 128.29500 75.85000 93.37500 128.29500 75.85000 93.37500 126.94500 76.09000 93.75833 126.94500 76.09000 93.75833 128.29500 76.09000 93.37500 128.29500 76.09000 93.80833 126.94500 75.85000 94.19167 126.94500 75.85000 94.19167 128.29500 75.85000 93.80833 128.29500 75.85000 93.80833 126.94500 76.09000 94.19167 126.94500 76.09000 94.19167 128.29500 76.09000 93.80833 128.29500 76.09000 94.24167 126.94500 75.85000 94.62500 126.94500 75.85000 94.62500 128.29500 75.85000 94.24167 128.29500 75.85000 94.24167 126.94500 76.09000 94.62500 126.94500 76.09000 94.62500 128.29500 76.09000 94.24167 128.29500 76.09000 93.10000 126.85000 75.65000 93.40000 126.85000 75.65000 93.40000 128.55000 75.65000 93.10000 128.55000 75.65000 93.10000 126.85000 76.45000 93.40000 126.85000 76.45000 93.40000 128.55000 76.45000 93.10000 128.55000 76.45000 94.60000 126.85000 75.65000 94.90000 126.85000 75.65000 94.90000 128.55000 75.65000 94.60000 128.55000 75.65000 94.60000 126.85000 76.45000 94.90000 126.85000 76.45000 94.90000 128.55000 76.45000 94.60000 128.55000 76.45000 98.80000 128.26000 75.68500 100.60000 128.26000 75.68500 100.60000 128.58000 75.68500 98.80000 128.58000 75.68500 98.80000 128.26000 76.83500 100.60000 128.26000 76.83500 100.60000 128.58000 76.83500 98.80000 128.58000 76.83500 99.07500 126.94500 75.85000 99.45833 126.94500 75.85000 99.45833 128.29500 75.85000 99.07500 128.29500 75.85000 99.07500 126.94500 76.09000 99.45833 126.94500 76.09000 99.45833 128.29500 76.09000 99.07500 128.29500 76.09000 99.50833 126.94500 75.85000 99.89167 126.94500 75.85000 99.89167 128.29500 75.85000 99.50833 128.29500 75.85000 99.50833 126.94500 76.09000 99.89167 126.94500 76.09000 99.89167 128.29500 76.09000 99.50833 128.29500 76.09000 99.94167 126.94500 75.85000 100.32500 126.94500 75.85000 100.32500 128.29500 75.85000 99.94167 128.29500 75.85000 99.94167 126.94500 76.09000 100.32500 126.94500 76.09000 100.32500 128.29500 76.09000 99.94167 128.29500 76.09000 98.80000 126.85000 75.65000 99.10000 126.85000 75.65000 99.10000 128.55000 75.65000 98.80000 128.55000 75.65000 98.80000 126.85000 76.45000 99.10000 126.85000 76.45000 99.10000 128.55000 76.45000 98.80000 128.55000 76.45000 100.30000 126.85000 75.65000 100.60000 126.85000 75.65000 100.60000 128.55000 75.65000 100.30000 128.55000 75.65000 100.30000 126.85000 76.45000 100.60000 126.85000 76.45000 100.60000 128.55000 76.45000 100.30000 128.55000 76.45000 104.50000 128.26000 75.68500 106.30000 128.26000 75.68500 106.30000 128.58000 75.68500 104.50000 128.58000 75.68500 104.50000 128.26000 76.83500 106.30000 128.26000 76.83500 106.30000 128.58000 76.83500 104.50000 128.58000 76.83500 104.77500 126.94500 75.85000 105.15833 126.94500 75.85000 105.15833 128.29500 75.85000 104.77500 128.29500 75.85000 104.77500 126.94500 76.09000 105.15833 126.94500 76.09000 105.15833 128.29500 76.09000 104.77500 128.29500 76.09000 105.20833 126.94500 75.85000 105.59167 126.94500 75.85000 105.59167 128.29500 75.85000 105.20833 128.29500 75.85000 105.20833 126.94500 76.09000 105.59167 126.94500 76.09000 105.59167 128.29500 76.09000 105.20833 128.29500 76.09000 105.64167 126.94500 75.85000 106.02500 126.94500 75.85000 106.02500 128.29500 75.85000 105.64167 128.29500 75.85000 105.64167 126.94500 76.09000 106.02500 126.94500 76.09000 106.02500 128.29500 76.09000 105.64167 128.29500 76.09000 104.50000 126.85000 75.65000 104.80000 126.85000 75.65000 104.80000 128.55000 75.65000 104.50000 128.55000 75.65000 104.50000 126.85000 76.45000 104.80000 126.85000 76.45000 104.80000 128.55000 76.45000 104.50000 128.55000 76.45000 106.00000 126.85000 75.65000 106.30000 126.85000 75.65000 106.30000 128.55000 75.65000 106.00000 128.55000 75.65000 106.00000 126.85000 76.45000 106.30000 126.85000 76.45000 106.30000 128.55000 76.45000 106.00000 128.55000 76.45000 110.20000 128.26000 75.68500 112.00000 128.26000 75.68500 112.00000 128.58000 75.68500 110.20000 128.58000 75.68500 110.20000 128.26000 76.83500 112.00000 128.26000 76.83500 112.00000 128.58000 76.83500 110.20000 128.58000 76.83500 110.47500 126.94500 75.85000 110.85833 126.94500 75.85000 110.85833 128.29500 75.85000 110.47500 128.29500 75.85000 110.47500 126.94500 76.09000 110.85833 126.94500 76.09000 110.85833 128.29500 76.09000 110.47500 128.29500 76.09000 110.90833 126.94500 75.85000 111.29167 126.94500 75.85000 111.29167 128.29500 75.85000 110.90833 128.29500 75.85000 110.90833 126.94500 76.09000 111.29167 126.94500 76.09000 111.29167 128.29500 76.09000 110.90833 128.29500 76.09000 111.34167 126.94500 75.85000 111.72500 126.94500 75.85000 111.72500 128.29500 75.85000 111.34167 128.29500 75.85000 111.34167 126.94500 76.09000 111.72500 126.94500 76.09000 111.72500 128.29500 76.09000 111.34167 128.29500 76.09000 110.20000 126.85000 75.65000 110.50000 126.85000 75.65000 110.50000 128.55000 75.65000 110.20000 128.55000 75.65000 110.20000 126.85000 76.45000 110.50000 126.85000 76.45000 110.50000 128.55000 76.45000 110.20000 128.55000 76.45000 111.70000 126.85000 75.65000 112.00000 126.85000 75.65000 112.00000 128.55000 75.65000 111.70000 128.55000 75.65000 111.70000 126.85000 76.45000 112.00000 126.85000 76.45000 112.00000 128.55000 76.45000 111.70000 128.55000 76.45000 115.90000 128.26000 75.68500 117.70000 128.26000 75.68500 117.70000 128.58000 75.68500 115.90000 128.58000 75.68500 115.90000 128.26000 76.83500 117.70000 128.26000 76.83500 117.70000 128.58000 76.83500 115.90000 128.58000 76.83500 116.17500 126.94500 75.85000 116.55833 126.94500 75.85000 116.55833 128.29500 75.85000 116.17500 128.29500 75.85000 116.17500 126.94500 76.09000 116.55833 126.94500 76.09000 116.55833 128.29500 76.09000 116.17500 128.29500 76.09000 116.60833 126.94500 75.85000 116.99167 126.94500 75.85000 116.99167 128.29500 75.85000 116.60833 128.29500 75.85000 116.60833 126.94500 76.09000 116.99167 126.94500 76.09000 116.99167 128.29500 76.09000 116.60833 128.29500 76.09000 117.04167 126.94500 75.85000 117.42500 126.94500 75.85000 117.42500 128.29500 75.85000 117.04167 128.29500 75.85000 117.04167 126.94500 76.09000 117.42500 126.94500 76.09000 117.42500 128.29500 76.09000 117.04167 128.29500 76.09000 115.90000 126.85000 75.65000 116.20000 126.85000 75.65000 116.20000 128.55000 75.65000 115.90000 128.55000 75.65000 115.90000 126.85000 76.45000 116.20000 126.85000 76.45000 116.20000 128.55000 76.45000 115.90000 128.55000 76.45000 117.40000 126.85000 75.65000 117.70000 126.85000 75.65000 117.70000 128.55000 75.65000 117.40000 128.55000 75.65000 117.40000 126.85000 76.45000 117.70000 126.85000 76.45000 117.70000 128.55000 76.45000 117.40000 128.55000 76.45000</float_array><technique_common><accessor source="#positions-array" count="768" stride="3"><param name="X" type="float"/><param name="Y" type="float"/><param name="Z" type="float"/></accessor></technique_common></source>
<source id="normals"><float_array id="normals-array" count="3456">-0.00000 0.00000 -1.00000 0.00000 -0.00000 -1.00000 0.00000 0.00000 1.00000 0.00000 0.00000 1.00000 0.00000 1.00000 0.00000 0.00000 1.00000 -0.00000 -1.00000 0.00000 0.00000 -1.00000 0.00000 0.00000 0.00000 -1.00000 0.00000 0.00000 -1.00000 0.00000 1.00000 0.00000 0.00000 1.00000 0.00000 0.00000 -0.00000 0.00000 -1.00000 0.00000 -0.00000 -1.00000 0.00000 0.00000 1.00000 0.00000 0.00000 1.00000 0.00000 1.00000 0.00000 0.00000 1.00000 -0.00000 -1.00000 0.00000 0.00000 -1.00000 0.00000 0.00000 0.00000 -1.00000 0.00000 0.00000 -1.00000 0.00000 1.00000 0.00000 0.00000 1.00000 0.00000 0.00000 -0.00000 0.00000 -1.00000 0.00000 -0.00000 -1.00000 0.00000 0.00000 1.00000 0.00000 0.00000 1.00000 0.00000 1.00000 0.00000 0.00000 1.00000 -0.00000 -1.00000 0.00000 0.00000 -1.00000 0.00000 0.00000 0.00000 -1.00000 0.00000 0.00000 -1.00000 0.00000 1.00000 0.00000 0.00000 1.00000 0.00000 0.00000 -0.00000 0.00000 -1.00000 0.00000 -0.00000 -1.00000 0.00000 0.00000 1.00000 0.00000 0.00000 1.00000 0.00000 1.00000 0.00000 0.00000 1.00000 -0.00000 -1.00000 0.00000 0.00000 -1.00000 0.00000 0.00000 0.00000 -1.00000 0.00000 0.00000 -1.00000 0.00000 1.00000 0.00000 0.00000 1.00000 0.00000 0.00000 -0.00000 0.00000 -1.00000 0.00000 -0.00000 -1.00000 0.00000 0.00000 1.00000 0.00000 0.00000 1.00000 0.00000 1.00000 0.00000 0.00000 1.00000 -0.00000 -1.00000 0.00000 0.00000 -1.00000 0.00000 0.00000 0.00000 -1.00000 0.00000 0.00000 -1.00000 0.00000 1.00000 0.00000 0.00000 1.00000 0.00000 0.00000 -0.00000 0.00000 -1.00000 0.00000 -0.00000 -1.00000 0.00000 0.00000 1.00000 0.00000 0.00000 1.00000 0.00000 1.00000 0.00000 0.00000 1.00000 -0.00000 -1.00000 0.00000 0.00000 -1.00000 0.00000 0.00000 0.00000 -1.00000 0.00000 0.00000 -1.00000 0.00000 1.00000 0.00000 0.00000 1.00000 0.00000 0.00000 0.00000 0.00000 -1.00000 0.00000 0.00000 -1.00000 0.00000 0.00000 1.00000 0.00000 0.00000 1.00000 0.00000 -1.00000 0.00000 0.00000 -1.00000 0.00000 1.00000 0.00000 0.00000 1.00000 0.00000 0.00000 0.00000 1.00000 0.00000 0.00000 1.00000 -0.00000 -1.00000 0.00000 0.00000 -1.00000 0.00000 0.00000 0.00000 0.00000 -1.00000 0.00000 0.00000 -1.00000 0.00000 0.00000 1.00000 0.00000 0.00000 1.00000 0.00000 -1.00000 0.00000 0.00000 -1.00000 0.00000 1.00000 0.00000 0.00000 1.00000 0.00000 0.00000 0.00000 1.00000 0.00000 0.00000 1.00000 -0.00000 -1.00000 0.00000 0.00000 -1.00000 0.00000 0.00000 0.00000 0.00000 -1.00000 0.00000 0.00000 -1.00000 0.00000 0.00000 1.00000 0.00000 0.00000 1.00000 0.00000 -1.00000 0.00000 0.00000 -1.00000 0.00000 1.00000 0.00000 0.00000 1.00000 0.00000 0.00000 0.00000 1.00000 0.00000 0.00000 1.00000 -0.00000 -1.00000 0.00000 0.00000 -1.00000 0.00000 0.00000 0.00000 0.00000 -1.00000 0.00000 0.00000 -1.00000 0.00000 0.00000 1.00000 0.00000 0.00000 1.00000 0.00000 -1.00000 0.00000 0.00000 -1.00000 0.00000 1.00000 0.00000 0.00000 1.00000 0.00000 0.00000 0.00000 1.00000 0.00000 0.00000 1.00000 -0.00000 -1.00000 0.00000 0.00000 -1.00000 0.00000 0.00000 0.00000 0.00000 -1.00000 0.00000 0.00000 -1.00000 0.00000 0.00000 1.00000 0.00000 0.00000 1.00000 0.00000 -1.00000 0.00000 0.00000 -1.00000 0.00000 1.00000 0.00000 0.00000 1.00000 0.00000 0.00000 0.00000 1.00000 0.00000 0.00000 1.00000 -0.00000 -1.00000 0.00000 0.00000 -1.00000 0.00000 0.00000 0.00000 0.00000 -1.00000 0.00000 0.00000 -1.00000 0.00000 0.00000 1.00000 0.00000 0.00000 1.00000 0.00000 -1.00000 0.00000 0.00000 -1.00000 0.00000 1.00000 0.00000 0.00000 1.00000 0.00000 0.00000 0.00000 1.00000 0.00000 0.00000 1.00000 -0.00000 -1.00000 0.00000 0.00000 -1.00000 0.00000 0.00000 0.00000 0.00000 -1.00000 0.00000 0.00000 -1.00000 0.00000 0.00000 1.00000 0.00000 0.00000 1.00000 0.00000 -1.00000 0.00000 0.00000 -1.00000 0.00000 1.00000 0.00000 0.00000 1.00000 0.00000 0.00000 0.00000 1.00000 0.00000 0.00000 1.00000 -0.00000 -1.00000 0.00000 0.00000 -1.00000 0.00000 0.00000 0.00000 0.00000 -1.00000 0.00000 0.00000 -1.00000 0.00000 0.00000 1.00000 0.00000 0.00000 1.00000 0.00000 -1.00000 0.00000 0.00000 -1.00000 0.00000 1.00000 0.00000 0.00000 1.00000 0.00000 0.00000 0.00000 1.00000 0.00000 0.00000 1.00000 -0.00000 -1.00000 0.00000 0.00000 -1.00000 0.00000 0.00000 0.00000 0.00000 -1.00000 0.00000 0.00000 -1.00000 0.00000 0.00000 1.00000 0.00000 0.00000 1.00000 0.00000 -1.00000 0.00000 0.00000 -1.00000 0.00000 1.00000 0.00000 0.00000 1.00000 0.00000 0.00000 0.00000 1.00000 0.00000 0.00000 1.00000 -0.00000 -1.00000 0.00000 0.00000 -1.00000 0.00000 0.00000 0.00000 0.00000 -1.00000 0.00000 0.00000 -1.00000 0.00000 0.00000 1.00000 0.00000 0.00000 1.00000 0.00000 -1.00000 0.00000 0.00000 -1.00000 0.00000 1.00000 0.00000 0.00000 1.00000 0.00000 0.00000 0.00000 1.00000 0.00000 0.00000 1.00000 -0.00000 -1.00000 0.00000 0.00000 -1.00000 0.00000 0.00000 0.00000 0.00000 -1.00000 0.00000 0.00000 -1.00000 0.00000 0.00000 1.00000 0.00000 0.00000 1.00000 0.00000 -1.00000 0.00000 0.00000 -1.00000 0.00000 1.00000 0.00000 0.00000 1.00000 0.00000 0.00000 0.00000 1.00000 0.00000 0.00000 1.00000 -0.00000 -1.00000 0.00000 0.00000 -1.00000 0.00000 0.00000 0.00000 0.00000 -1.00000 0.00000 0.00000 -1.00000 0.00000 0.00000 1.00000 0.00000 0.00000 1.00000 0.00000 -1.00000 0.00000 0.00000 -1.00000 0.00000 1.00000 0.00000 0.00000 1.00000 0.00000 0.00000 0.00000 1.00000 0.00000 0.00000 1.00000 -0.00000 -1.00000 0.00000 0.00000 -1.00000 0.00000 0.00000 0.00000 0.00000 -1.00000 0.00000 0.00000 -1.00000 0.00000 0.00000 1.00000 0.00000 0.00000 1.00000 0.00000 -1.00000 0.00000 0.00000 -1.00000 0.00000 1.00000 0.00000 0.00000 1.00000 0.00000 0.00000 0.00000 1.00000 0.00000 0.00000 1.00000 -0.00000 -1.00000 0.00000 0.00000 -1.00000 0.00000 0.00000 0.00000 0.00000 -1.00000 0.00000 0.00000 -1.00000 0.00000 0.00000 1.00000 0.00000 0.00000 1.00000 0.00000 -1.00000 0.00000 0.00000 -1.00000 0.00000 1.00000 0.00000 0.00000 1.00000 0.00000 0.00000 0.00000 1.00000 0.00000 0.00000 1.00000 -0.00000 -1.00000 0.00000 0.00000 -1.00000 0.00000 0.00000 0.00000 0.00000 -1.00000 0.00000 0.00000 -1.00000 0.00000 0.00000 1.00000 0.00000 0.00000 1.00000 0.00000 -1.00000 0.00000 0.00000 -1.00000 0.00000 1.00000 0.00000 0.00000 1.00000 0.00000 0.00000 0.00000 1.00000 0.00000 0.00000 1.00000 -0.00000 -1.00000 0.00000 0.00000 -1.00000 0.00000 0.00000 0.00000 0.00000 -1.00000 0.00000 0.00000 -1.00000 0.00000 0.00000 1.00000 0.00000 0.00000 1.00000 0.00000 -1.00000 0.00000 0.00000 -1.00000 0.00000 1.00000 0.00000 0.00000 1.00000 0.00000 0.00000 0.00000 1.00000 0.00000 0.00000 1.00000 -0.00000 -1.00000 0.00000 0.00000 -1.00000 0.00000 0.00000 0.00000 0.00000 -1.00000 0.00000 0.00000 -1.00000 0.00000 0.00000 1.00000 0.00000 0.00000 1.00000 0.00000 -1.00000 0.00000 0.00000 -1.00000 0.00000 1.00000 0.00000 0.00000 1.00000 0.00000 0.00000 0.00000 1.00000 0.00000 0.00000 1.00000 -0.00000 -1.00000 0.00000 0.00000 -1.00000 0.00000 0.00000 0.00000 0.00000 -1.00000 0.00000 0.00000 -1.00000 0.00000 0.00000 1.00000 0.00000 0.00000 1.00000 0.00000 -1.00000 0.00000 0.00000 -1.00000 0.00000 1.00000 0.00000 0.00000 1.00000 0.00000 0.00000 0.00000 1.00000 0.00000 0.00000 1.00000 -0.00000 -1.00000 0.00000 0.00000 -1.00000 0.00000 0.00000 0.00000 0.00000 -1.00000 0.00000 0.00000 -1.00000 0.00000 0.00000 1.00000 0.00000 0.00000 1.00000 0.00000 -1.00000 0.00000 0.00000 -1.00000 0.00000 1.00000 0.00000 0.00000 1.00000 0.00000 0.00000 0.00000 1.00000 0.00000 0.00000 1.00000 -0.00000 -1.00000 0.00000 0.00000 -1.00000 0.00000 0.00000 0.00000 0.00000 -1.00000 0.00000 0.00000 -1.00000 0.00000 0.00000 1.00000 0.00000 0.00000 1.00000 0.00000 -1.00000 0.00000 0.00000 -1.00000 0.00000 1.00000 0.00000 0.00000 1.00000 0.00000 0.00000 0.00000 1.00000 0.00000 0.00000 1.00000 -0.00000 -1.00000 0.00000 0.00000 -1.00000 0.00000 0.00000 0.00000 0.00000 -1.00000 0.00000 0.00000 -1.00000 0.00000 0.00000 1.00000 0.00000 0.00000 1.00000 0.00000 -1.00000 0.00000 0.00000 -1.00000 0.00000 1.00000 0.00000 0.00000 1.00000 0.00000 0.00000 0.00000 1.00000 0.00000 0.00000 1.00000 -0.00000 -1.00000 0.00000 0.00000 -1.00000 0.00000 0.00000 0.00000 0.00000 -1.00000 0.00000 0.00000 -1.00000 0.00000 0.00000 1.00000 0.00000 0.00000 1.00000 0.00000 -1.00000 0.00000 0.00000 -1.00000 0.00000 1.00000 0.00000 0.00000 1.00000 0.00000 0.00000 0.00000 1.00000 0.00000 0.00000 1.00000 -0.00000 -1.00000 0.00000 0.00000 -1.00000 0.00000 0.00000 0.00000 0.00000 -1.00000 0.00000 0.00000 -1.00000 0.00000 0.00000 1.00000 0.00000 0.00000 1.00000 0.00000 -1.00000 0.00000 0.00000 -1.00000 0.00000 1.00000 0.00000 0.00000 1.00000 0.00000 0.00000 0.00000 1.00000 0.00000 0.00000 1.00000 -0.00000 -1.00000 0.00000 0.00000 -1.00000 0.00000 0.00000 0.00000 0.00000 -1.00000 0.00000 0.00000 -1.00000 0.00000 0.00000 1.00000 0.00000 0.00000 1.00000 0.00000 -1.00000 0.00000 0.00000 -1.00000 0.00000 1.00000 0.00000 0.00000 1.00000 0.00000 0.00000 0.00000 1.00000 0.00000 0.00000 1.00000 -0.00000 -1.00000 0.00000 0.00000 -1.00000 0.00000 0.00000 0.00000 0.00000 -1.00000 0.00000 0.00000 -1.00000 0.00000 0.00000 1.00000 0.00000 0.00000 1.00000 0.00000 -1.00000 0.00000 0.00000 -1.00000 0.00000 1.00000 0.00000 0.00000 1.00000 0.00000 0.00000 0.00000 1.00000 0.00000 0.00000 1.00000 -0.00000 -1.00000 0.00000 0.00000 -1.00000 0.00000 0.00000 0.00000 0.00000 -1.00000 0.00000 0.00000 -1.00000 0.00000 0.00000 1.00000 0.00000 0.00000 1.00000 0.00000 -1.00000 0.00000 0.00000 -1.00000 0.00000 1.00000 0.00000 0.00000 1.00000 0.00000 0.00000 0.00000 1.00000 0.00000 0.00000 1.00000 -0.00000 -1.00000 0.00000 0.00000 -1.00000 0.00000 0.00000 0.00000 0.00000 -1.00000 0.00000 0.00000 -1.00000 0.00000 0.00000 1.00000 0.00000 0.00000 1.00000 0.00000 -1.00000 0.00000 0.00000 -1.00000 0.00000 1.00000 0.00000 0.00000 1.00000 0.00000 0.00000 0.00000 1.00000 0.00000 0.00000 1.00000 -0.00000 -1.00000 0.00000 0.00000 -1.00000 0.00000 0.00000 0.00000 0.00000 -1.00000 0.00000 0.00000 -1.00000 0.00000 0.00000 1.00000 0.00000 0.00000 1.00000 0.00000 -1.00000 0.00000 0.00000 -1.00000 0.00000 1.00000 0.00000 0.00000 1.00000 0.00000 0.00000 0.00000 1.00000 0.00000 0.00000 1.00000 -0.00000 -1.00000 0.00000 0.00000 -1.00000 0.00000 0.00000 0.00000 0.00000 -1.00000 0.00000 0.00000 -1.00000 0.00000 0.00000 1.00000 0.00000 0.00000 1.00000 0.00000 -1.00000 0.00000 0.00000 -1.00000 0.00000 1.00000 0.00000 0.00000 1.00000 0.00000 0.00000 0.00000 1.00000 0.00000 0.00000 1.00000 -0.00000 -1.00000 0.00000 0.00000 -1.00000 0.00000 0.00000 0.00000 0.00000 -1.00000 0.00000 0.00000 -1.00000 0.00000 0.00000 1.00000 0.00000 0.00000 1.00000 0.00000 -1.00000 0.00000 0.00000 -1.00000 0.00000 1.00000 0.00000 0.00000 1.00000 0.00000 0.00000 0.00000 1.00000 0.00000 0.00000 1.00000 -0.00000 -1.00000 0.00000 0.00000 -1.00000 0.00000 0.00000 0.00000 0.00000 -1.00000 0.00000 0.00000 -1.00000 0.00000 0.00000 1.00000 0.00000 0.00000 1.00000 0.00000 -1.00000 0.00000 0.00000 -1.00000 0.00000 1.00000 0.00000 0.00000 1.00000 0.00000 0.00000 0.00000 1.00000 0.00000 0.00000 1.00000 -0.00000 -1.00000 0.00000 0.00000 -1.00000 0.00000 0.00000 0.00000 0.00000 -1.00000 0.00000 0.00000 -1.00000 0.00000 0.00000 1.00000 0.00000 0.00000 1.00000 0.00000 -1.00000 0.00000 0.00000 -1.00000 0.00000 1.00000 0.00000 0.00000 1.00000 0.00000 0.00000 0.00000 1.00000 0.00000 0.00000 1.00000 -0.00000 -1.00000 0.00000 0.00000 -1.00000 0.00000 0.00000 0.00000 0.00000 -1.00000 0.00000 0.00000 -1.00000 0.00000 0.00000 1.00000 0.00000 0.00000 1.00000 0.00000 -1.00000 0.00000 0.00000 -1.00000 0.00000 1.00000 0.00000 0.00000 1.00000 0.00000 0.00000 0.00000 1.00000 0.00000 0.00000 1.00000 -0.00000 -1.00000 0.00000 0.00000 -1.00000 0.00000 0.00000 0.00000 0.00000 -1.00000 0.00000 0.00000 -1.00000 0.00000 0.00000 1.00000 0.00000 0.00000 1.00000 0.00000 -1.00000 0.00000 0.00000 -1.00000 0.00000 1.00000 0.00000 0.00000 1.00000 0.00000 0.00000 0.00000 1.00000 0.00000 0.00000 1.00000 -0.00000 -1.00000 0.00000 0.00000 -1.00000 0.00000 0.00000 0.00000 0.00000 -1.00000 0.00000 0.00000 -1.00000 0.00000 0.00000 1.00000 0.00000 0.00000 1.00000 0.00000 -1.00000 0.00000 0.00000 -1.00000 0.00000 1.00000 0.00000 0.00000 1.00000 0.00000 0.00000 0.00000 1.00000 0.00000 0.00000 1.00000 -0.00000 -1.00000 0.00000 0.00000 -1.00000 0.00000 0.00000 0.00000 0.00000 -1.00000 0.00000 0.00000 -1.00000 0.00000 0.00000 1.00000 0.00000 0.00000 1.00000 0.00000 -1.00000 0.00000 0.00000 -1.00000 0.00000 1.00000 0.00000 0.00000 1.00000 0.00000 0.00000 0.00000 1.00000 0.00000 0.00000 1.00000 -0.00000 -1.00000 0.00000 0.00000 -1.00000 0.00000 0.00000 0.00000 0.00000 -1.00000 0.00000 0.00000 -1.00000 0.00000 0.00000 1.00000 0.00000 0.00000 1.00000 0.00000 -1.00000 0.00000 0.00000 -1.00000 0.00000 1.00000 0.00000 0.00000 1.00000 0.00000 0.00000 0.00000 1.00000 0.00000 0.00000 1.00000 -0.00000 -1.00000 0.00000 0.00000 -1.00000 0.00000 0.00000 0.00000 0.00000 -1.00000 0.00000 0.00000 -1.00000 0.00000 0.00000 1.00000 0.00000 0.00000 1.00000 0.00000 -1.00000 0.00000 0.00000 -1.00000 0.00000 1.00000 0.00000 0.00000 1.00000 0.00000 0.00000 0.00000 1.00000 0.00000 0.00000 1.00000 -0.00000 -1.00000 0.00000 0.00000 -1.00000 0.00000 0.00000 0.00000 0.00000 -1.00000 0.00000 0.00000 -1.00000 0.00000 0.00000 1.00000 0.00000 0.00000 1.00000 0.00000 -1.00000 0.00000 0.00000 -1.00000 0.00000 1.00000 0.00000 0.00000 1.00000 0.00000 0.00000 0.00000 1.00000 0.00000 0.00000 1.00000 -0.00000 -1.00000 0.00000 0.00000 -1.00000 0.00000 0.00000 0.00000 0.00000 -1.00000 0.00000 0.00000 -1.00000 0.00000 0.00000 1.00000 0.00000 0.00000 1.00000 0.00000 -1.00000 0.00000 0.00000 -1.00000 0.00000 1.00000 0.00000 0.00000 1.00000 0.00000 0.00000 0.00000 1.00000 0.00000 0.00000 1.00000 -0.00000 -1.00000 0.00000 0.00000 -1.00000 0.00000 0.00000 0.00000 0.00000 -1.00000 0.00000 0.00000 -1.00000 0.00000 0.00000 1.00000 0.00000 0.00000 1.00000 0.00000 -1.00000 0.00000 0.00000 -1.00000 0.00000 1.00000 0.00000 0.00000 1.00000 0.00000 0.00000 0.00000 1.00000 0.00000 0.00000 1.00000 -0.00000 -1.00000 0.00000 0.00000 -1.00000 0.00000 0.00000 0.00000 0.00000 -1.00000 0.00000 0.00000 -1.00000 0.00000 0.00000 1.00000 0.00000 0.00000 1.00000 0.00000 -1.00000 0.00000 0.00000 -1.00000 0.00000 1.00000 0.00000 0.00000 1.00000 0.00000 0.00000 0.00000 1.00000 0.00000 0.00000 1.00000 -0.00000 -1.00000 0.00000 0.00000 -1.00000 0.00000 0.00000 0.00000 0.00000 -1.00000 0.00000 0.00000 -1.00000 0.00000 0.00000 1.00000 0.00000 0.00000 1.00000 0.00000 -1.00000 0.00000 0.00000 -1.00000 0.00000 1.00000 0.00000 0.00000 1.00000 0.00000 0.00000 0.00000 1.00000 0.00000 0.00000 1.00000 -0.00000 -1.00000 0.00000 0.00000 -1.00000 0.00000 0.00000 0.00000 0.00000 -1.00000 0.00000 0.00000 -1.00000 0.00000 0.00000 1.00000 0.00000 0.00000 1.00000 0.00000 -1.00000 0.00000 0.00000 -1.00000 0.00000 1.00000 0.00000 0.00000 1.00000 0.00000 0.00000 0.00000 1.00000 0.00000 0.00000 1.00000 -0.00000 -1.00000 0.00000 0.00000 -1.00000 0.00000 0.00000 0.00000 0.00000 -1.00000 0.00000 0.00000 -1.00000 0.00000 0.00000 1.00000 0.00000 0.00000 1.00000 0.00000 -1.00000 0.00000 0.00000 -1.00000 0.00000 1.00000 0.00000 0.00000 1.00000 0.00000 0.00000 0.00000 1.00000 0.00000 0.00000 1.00000 -0.00000 -1.00000 0.00000 0.00000 -1.00000 0.00000 0.00000 0.00000 0.00000 -1.00000 0.00000 0.00000 -1.00000 0.00000 0.00000 1.00000 0.00000 0.00000 1.00000 0.00000 -1.00000 0.00000 0.00000 -1.00000 0.00000 1.00000 0.00000 0.00000 1.00000 0.00000 0.00000 0.00000 1.00000 0.00000 0.00000 1.00000 -0.00000 -1.00000 0.00000 0.00000 -1.00000 0.00000 0.00000 0.00000 0.00000 -1.00000 0.00000 0.00000 -1.00000 0.00000 0.00000 1.00000 0.00000 0.00000 1.00000 0.00000 -1.00000 0.00000 0.00000 -1.00000 0.00000 1.00000 0.00000 0.00000 1.00000 0.00000 0.00000 0.00000 1.00000 0.00000 0.00000 1.00000 -0.00000 -1.00000 0.00000 0.00000 -1.00000 0.00000 0.00000 0.00000 0.00000 -1.00000 0.00000 0.00000 -1.00000 0.00000 0.00000 1.00000 0.00000 0.00000 1.00000 0.00000 -1.00000 0.00000 0.00000 -1.00000 0.00000 1.00000 0.00000 0.00000 1.00000 0.00000 0.00000 0.00000 1.00000 0.00000 0.00000 1.00000 -0.00000 -1.00000 0.00000 0.00000 -1.00000 0.00000 0.00000 0.00000 0.00000 -1.00000 0.00000 0.00000 -1.00000 0.00000 0.00000 1.00000 0.00000 0.00000 1.00000 0.00000 -1.00000 0.00000 0.00000 -1.00000 0.00000 1.00000 0.00000 0.00000 1.00000 0.00000 0.00000 0.00000 1.00000 0.00000 0.00000 1.00000 -0.00000 -1.00000 0.00000 0.00000 -1.00000 0.00000 0.00000 0.00000 0.00000 -1.00000 0.00000 0.00000 -1.00000 0.00000 0.00000 1.00000 0.00000 0.00000 1.00000 0.00000 -1.00000 0.00000 0.00000 -1.00000 0.00000 1.00000 0.00000 0.00000 1.00000 0.00000 0.00000 0.00000 1.00000 0.00000 0.00000 1.00000 -0.00000 -1.00000 0.00000 0.00000 -1.00000 0.00000 0.00000 0.00000 0.00000 -1.00000 0.00000 0.00000 -1.00000 0.00000 0.00000 1.00000 0.00000 0.00000 1.00000 0.00000 -1.00000 0.00000 0.00000 -1.00000 0.00000 1.00000 0.00000 0.00000 1.00000 0.00000 0.00000 0.00000 1.00000 0.00000 0.00000 1.00000 -0.00000 -1.00000 0.00000 0.00000 -1.00000 0.00000 0.00000 0.00000 0.00000 -1.00000 0.00000 0.00000 -1.00000 0.00000 0.00000 1.00000 0.00000 0.00000 1.00000 0.00000 -1.00000 0.00000 0.00000 -1.00000 0.00000 1.00000 0.00000 0.00000 1.00000 0.00000 0.00000 0.00000 1.00000 0.00000 0.00000 1.00000 -0.00000 -1.00000 0.00000 0.00000 -1.00000 0.00000 0.00000 0.00000 0.00000 -1.00000 0.00000 0.00000 -1.00000 0.00000 0.00000 1.00000 0.00000 0.00000 1.00000 0.00000 -1.00000 0.00000 0.00000 -1.00000 0.00000 1.00000 0.00000 0.00000 1.00000 0.00000 0.00000 0.00000 1.00000 0.00000 0.00000 1.00000 -0.00000 -1.00000 0.00000 0.00000 -1.00000 0.00000 0.00000 0.00000 0.00000 -1.00000 0.00000 0.00000 -1.00000 0.00000 0.00000 1.00000 0.00000 0.00000 1.00000 0.00000 -1.00000 0.00000 0.00000 -1.00000 0.00000 1.00000 0.00000 0.00000 1.00000 0.00000 0.00000 0.00000 1.00000 0.00000 0.00000 1.00000 -0.00000 -1.00000 0.00000 0.00000 -1.00000 0.00000 0.00000 0.00000 0.00000 -1.00000 0.00000 0.00000 -1.00000 0.00000 0.00000 1.00000 0.00000 0.00000 1.00000 0.00000 -1.00000 0.00000 0.00000 -1.00000 0.00000 1.00000 0.00000 0.00000 1.00000 0.00000 0.00000 0.00000 1.00000 0.00000 0.00000 1.00000 -0.00000 -1.00000 0.00000 0.00000 -1.00000 0.00000 0.00000 0.00000 0.00000 -1.00000 0.00000 0.00000 -1.00000 0.00000 0.00000 1.00000 0.00000 0.00000 1.00000 0.00000 -1.00000 0.00000 0.00000 -1.00000 0.00000 1.00000 0.00000 0.00000 1.00000 0.00000 0.00000 0.00000 1.00000 0.00000 0.00000 1.00000 -0.00000 -1.00000 0.00000 0.00000 -1.00000 0.00000 0.00000 0.00000 0.00000 -1.00000 0.00000 0.00000 -1.00000 0.00000 0.00000 1.00000 0.00000 0.00000 1.00000 0.00000 -1.00000 0.00000 0.00000 -1.00000 0.00000 1.00000 0.00000 0.00000 1.00000 0.00000 0.00000 0.00000 1.00000 0.00000 0.00000 1.00000 -0.00000 -1.00000 0.00000 0.00000 -1.00000 0.00000 0.00000 0.00000 0.00000 -1.00000 0.00000 0.00000 -1.00000 0.00000 0.00000 1.00000 0.00000 0.00000 1.00000 0.00000 -1.00000 0.00000 0.00000 -1.00000 0.00000 1.00000 0.00000 0.00000 1.00000 0.00000 0.00000 0.00000 1.00000 0.00000 0.00000 1.00000 -0.00000 -1.00000 0.00000 0.00000 -1.00000 0.00000 0.00000 0.00000 0.00000 -1.00000 0.00000 0.00000 -1.00000 0.00000 0.00000 1.00000 0.00000 0.00000 1.00000 0.00000 -1.00000 0.00000 0.00000 -1.00000 0.00000 1.00000 0.00000 0.00000 1.00000 0.00000 0.00000 0.00000 1.00000 0.00000 0.00000 1.00000 -0.00000 -1.00000 0.00000 0.00000 -1.00000 0.00000 0.00000 0.00000 0.00000 -1.00000 0.00000 0.00000 -1.00000 0.00000 0.00000 1.00000 0.00000 0.00000 1.00000 0.00000 -1.00000 0.00000 0.00000 -1.00000 0.00000 1.00000 0.00000 0.00000 1.00000 0.00000 0.00000 0.00000 1.00000 0.00000 0.00000 1.00000 -0.00000 -1.00000 0.00000 0.00000 -1.00000 0.00000 0.00000 0.00000 0.00000 -1.00000 0.00000 0.00000 -1.00000 0.00000 0.00000 1.00000 0.00000 0.00000 1.00000 0.00000 -1.00000 0.00000 0.00000 -1.00000 0.00000 1.00000 0.00000 0.00000 1.00000 0.00000 0.00000 0.00000 1.00000 0.00000 0.00000 1.00000 -0.00000 -1.00000 0.00000 0.00000 -1.00000 0.00000 0.00000 0.00000 0.00000 -1.00000 0.00000 0.00000 -1.00000 0.00000 0.00000 1.00000 0.00000 0.00000 1.00000 0.00000 -1.00000 0.00000 0.00000 -1.00000 0.00000 1.00000 0.00000 0.00000 1.00000 0.00000 0.00000 0.00000 1.00000 0.00000 0.00000 1.00000 -0.00000 -1.00000 0.00000 0.00000 -1.00000 0.00000 0.00000 0.00000 0.00000 -1.00000 0.00000 0.00000 -1.00000 0.00000 0.00000 1.00000 0.00000 0.00000 1.00000 0.00000 -1.00000 0.00000 0.00000 -1.00000 0.00000 1.00000 0.00000 0.00000 1.00000 0.00000 0.00000 0.00000 1.00000 0.00000 0.00000 1.00000 -0.00000 -1.00000 0.00000 0.00000 -1.00000 0.00000 0.00000 0.00000 0.00000 -1.00000 0.00000 0.00000 -1.00000 0.00000 0.00000 1.00000 0.00000 0.00000 1.00000 0.00000 -1.00000 0.00000 0.00000 -1.00000 0.00000 1.00000 0.00000 0.00000 1.00000 0.00000 0.00000 0.00000 1.00000 0.00000 0.00000 1.00000 -0.00000 -1.00000 0.00000 0.00000 -1.00000 0.00000 0.00000 0.00000 0.00000 -1.00000 0.00000 0.00000 -1.00000 0.00000 0.00000 1.00000 0.00000 0.00000 1.00000 0.00000 -1.00000 0.00000 0.00000 -1.00000 0.00000 1.00000 0.00000 0.00000 1.00000 0.00000 0.00000 0.00000 1.00000 0.00000 0.00000 1.00000 -0.00000 -1.00000 0.00000 0.00000 -1.00000 0.00000 0.00000 0.00000 0.00000 -1.00000 0.00000 0.00000 -1.00000 0.00000 0.00000 1.00000 0.00000 0.00000 1.00000 0.00000 -1.00000 0.00000 0.00000 -1.00000 0.00000 1.00000 0.00000 0.00000 1.00000 0.00000 0.00000 0.00000 1.00000 0.00000 0.00000 1.00000 -0.00000 -1.00000 0.00000 0.00000 -1.00000 0.00000 0.00000 0.00000 0.00000 -1.00000 0.00000 0.00000 -1.00000 0.00000 0.00000 1.00000 0.00000 0.00000 1.00000 0.00000 -1.00000 0.00000 0.00000 -1.00000 0.00000 1.00000 0.00000 0.00000 1.00000 0.00000 0.00000 0.00000 1.00000 0.00000 0.00000 1.00000 -0.00000 -1.00000 0.00000 0.00000 -1.00000 0.00000 0.00000 0.00000 0.00000 -1.00000 0.00000 0.00000 -1.00000 0.00000 0.00000 1.00000 0.00000 0.00000 1.00000 0.00000 -1.00000 0.00000 0.00000 -1.00000 0.00000 1.00000 0.00000 0.00000 1.00000 0.00000 0.00000 0.00000 1.00000 0.00000 0.00000 1.00000 -0.00000 -1.00000 0.00000 0.00000 -1.00000 0.00000 0.00000 0.00000 0.00000 -1.00000 0.00000 0.00000 -1.00000 0.00000 0.00000 1.00000 0.00000 0.00000 1.00000 0.00000 -1.00000 0.00000 0.00000 -1.00000 0.00000 1.00000 0.00000 0.00000 1.00000 0.00000 0.00000 0.00000 1.00000 0.00000 0.00000 1.00000 -0.00000 -1.00000 0.00000 0.00000 -1.00000 0.00000 0.00000 0.00000 0.00000 -1.00000 0.00000 0.00000 -1.00000 0.00000 0.00000 1.00000 0.00000 0.00000 1.00000 0.00000 -1.00000 0.00000 0.00000 -1.00000 0.00000 1.00000 0.00000 0.00000 1.00000 0.00000 0.00000 0.00000 1.00000 0.00000 0.00000 1.00000 -0.00000 -1.00000 0.00000 0.00000 -1.00000 0.00000 0.00000 0.00000 0.00000 -1.00000 0.00000 0.00000 -1.00000 0.00000 0.00000 1.00000 0.00000 0.00000 1.00000 0.00000 -1.00000 0.00000 0.00000 -1.00000 0.00000 1.00000 0.00000 0.00000 1.00000 0.00000 0.00000 0.00000 1.00000 0.00000 0.00000 1.00000 -0.00000 -1.00000 0.00000 0.00000 -1.00000 0.00000 0.00000 0.00000 0.00000 -1.00000 0.00000 0.00000 -1.00000 0.00000 0.00000 1.00000 0.00000 0.00000 1.00000 0.00000 -1.00000 0.00000 0.00000 -1.00000 0.00000 1.00000 0.00000 0.00000 1.00000 0.00000 0.00000 0.00000 1.00000 0.00000 0.00000 1.00000 -0.00000 -1.00000 0.00000 0.00000 -1.00000 0.00000 0.00000 0.00000 0.00000 -1.00000 0.00000 0.00000 -1.00000 0.00000 0.00000 1.00000 0.00000 0.00000 1.00000 0.00000 -1.00000 0.00000 0.00000 -1.00000 0.00000 1.00000 0.00000 0.00000 1.00000 0.00000 0.00000 0.00000 1.00000 0.00000 0.00000 1.00000 -0.00000 -1.00000 0.00000 0.00000 -1.00000 0.00000 0.00000 0.00000 0.00000 -1.00000 0.00000 0.00000 -1.00000 0.00000 0.00000 1.00000 0.00000 0.00000 1.00000 0.00000 -1.00000 0.00000 0.00000 -1.00000 0.00000 1.00000 0.00000 0.00000 1.00000 0.00000 0.00000 0.00000 1.00000 0.00000 0.00000 1.00000 -0.00000 -1.00000 0.00000 0.00000 -1.00000 0.00000 0.00000 0.00000 0.00000 -1.00000 0.00000 0.00000 -1.00000 0.00000 0.00000 1.00000 0.00000 0.00000 1.00000 0.00000 -1.00000 0.00000 0.00000 -1.00000 0.00000 1.00000 0.00000 0.00000 1.00000 0.00000 0.00000 0.00000 1.00000 0.00000 0.00000 1.00000 -0.00000 -1.00000 0.00000 0.00000 -1.00000 0.00000 0.00000 0.00000 0.00000 -1.00000 0.00000 0.00000 -1.00000 0.00000 0.00000 1.00000 0.00000 0.00000 1.00000 0.00000 -1.00000 0.00000 0.00000 -1.00000 0.00000 1.00000 0.00000 0.00000 1.00000 0.00000 0.00000 0.00000 1.00000 0.00000 0.00000 1.00000 -0.00000 -1.00000 0.00000 0.00000 -1.00000 0.00000 0.00000 0.00000 0.00000 -1.00000 0.00000 0.00000 -1.00000 0.00000 0.00000 1.00000 0.00000 0.00000 1.00000 0.00000 -1.00000 0.00000 0.00000 -1.00000 0.00000 1.00000 0.00000 0.00000 1.00000 0.00000 0.00000 0.00000 1.00000 0.00000 0.00000 1.00000 -0.00000 -1.00000 0.00000 0.00000 -1.00000 0.00000 0.00000 0.00000 0.00000 -1.00000 0.00000 0.00000 -1.00000 0.00000 0.00000 1.00000 0.00000 0.00000 1.00000 0.00000 -1.00000 0.00000 0.00000 -1.00000 0.00000 1.00000 0.00000 0.00000 1.00000 0.00000 0.00000 0.00000 1.00000 0.00000 0.00000 1.00000 -0.00000 -1.00000 0.00000 0.00000 -1.00000 0.00000 0.00000 0.00000 0.00000 -1.00000 0.00000 0.00000 -1.00000 0.00000 0.00000 1.00000 0.00000 0.00000 1.00000 0.00000 -1.00000 0.00000 0.00000 -1.00000 0.00000 1.00000 0.00000 0.00000 1.00000 0.00000 0.00000 0.00000 1.00000 0.00000 0.00000 1.00000 -0.00000 -1.00000 0.00000 0.00000 -1.00000 0.00000 0.00000 0.00000 0.00000 -1.00000 0.00000 0.00000 -1.00000 0.00000 0.00000 1.00000 0.00000 0.00000 1.00000 0.00000 -1.00000 0.00000 0.00000 -1.00000 0.00000 1.00000 0.00000 0.00000 1.00000 0.00000 0.00000 0.00000 1.00000 0.00000 0.00000 1.00000 -0.00000 -1.00000 0.00000 0.00000 -1.00000 0.00000 0.00000 0.00000 0.00000 -1.00000 0.00000 0.00000 -1.00000 0.00000 0.00000 1.00000 0.00000 0.00000 1.00000 0.00000 -1.00000 0.00000 0.00000 -1.00000 0.00000 1.00000 0.00000 0.00000 1.00000 0.00000 0.00000 0.00000 1.00000 0.00000 0.00000 1.00000 -0.00000 -1.00000 0.00000 0.00000 -1.00000 0.00000 0.00000 0.00000 0.00000 -1.00000 0.00000 0.00000 -1.00000 0.00000 0.00000 1.00000 0.00000 0.00000 1.00000 0.00000 -1.00000 0.00000 0.00000 -1.00000 0.00000 1.00000 0.00000 0.00000 1.00000 0.00000 0.00000 0.00000 1.00000 0.00000 0.00000 1.00000 -0.00000 -1.00000 0.00000 0.00000 -1.00000 0.00000 0.00000 0.00000 0.00000 -1.00000 0.00000 0.00000 -1.00000 0.00000 0.00000 1.00000 0.00000 0.00000 1.00000 0.00000 -1.00000 0.00000 0.00000 -1.00000 0.00000 1.00000 0.00000 0.00000 1.00000 0.00000 0.00000 0.00000 1.00000 0.00000 0.00000 1.00000 -0.00000 -1.00000 0.00000 0.00000 -1.00000 0.00000 0.00000 0.00000 0.00000 -1.00000 0.00000 0.00000 -1.00000 0.00000 0.00000 1.00000 0.00000 0.00000 1.00000 0.00000 -1.00000 0.00000 0.00000 -1.00000 0.00000 1.00000 0.00000 0.00000 1.00000 0.00000 0.00000 0.00000 1.00000 0.00000 0.00000 1.00000 -0.00000 -1.00000 0.00000 0.00000 -1.00000 0.00000 0.00000 0.00000 0.00000 -1.00000 0.00000 0.00000 -1.00000 0.00000 0.00000 1.00000 0.00000 0.00000 1.00000 0.00000 -1.00000 0.00000 0.00000 -1.00000 0.00000 1.00000 0.00000 0.00000 1.00000 0.00000 0.00000 0.00000 1.00000 0.00000 0.00000 1.00000 -0.00000 -1.00000 0.00000 0.00000 -1.00000 0.00000 0.00000 0.00000 0.00000 -1.00000 0.00000 0.00000 -1.00000 0.00000 0.00000 1.00000 0.00000 0.00000 1.00000 0.00000 -1.00000 0.00000 0.00000 -1.00000 0.00000 1.00000 0.00000 0.00000 1.00000 0.00000 0.00000 0.00000 1.00000 0.00000 0.00000 1.00000 -0.00000 -1.00000 0.00000 0.00000 -1.00000 0.00000 0.00000 0.00000 0.00000 -1.00000 0.00000 0.00000 -1.00000 0.00000 0.00000 1.00000 0.00000 0.00000 1.00000 0.00000 -1.00000 0.00000 0.00000 -1.00000 0.00000 1.00000 0.00000 0.00000 1.00000 0.00000 0.00000 0.00000 1.00000 0.00000 0.00000 1.00000 -0.00000 -1.00000 0.00000 0.00000 -1.00000 0.00000 0.00000 0.00000 0.00000 -1.00000 0.00000 0.00000 -1.00000 0.00000 0.00000 1.00000 0.00000 0.00000 1.00000 0.00000 -1.00000 0.00000 0.00000 -1.00000 0.00000 1.00000 0.00000 0.00000 1.00000 0.00000 0.00000 0.00000 1.00000 0.00000 0.00000 1.00000 -0.00000 -1.00000 0.00000 0.00000 -1.00000 0.00000 0.00000 0.00000 0.00000 -1.00000 0.00000 0.00000 -1.00000 0.00000 0.00000 1.00000 0.00000 0.00000 1.00000 0.00000 -1.00000 0.00000 0.00000 -1.00000 0.00000 1.00000 0.00000 0.00000 1.00000 0.00000 0.00000 0.00000 1.00000 0.00000 0.00000 1.00000 -0.00000 -1.00000 0.00000 0.00000 -1.00000 0.00000 0.00000 0.00000 0.00000 -1.00000 0.00000 0.00000 -1.00000 0.00000 0.00000 1.00000 0.00000 0.00000 1.00000 0.00000 -1.00000 0.00000 0.00000 -1.00000 0.00000 1.00000 0.00000 0.00000 1.00000 0.00000 0.00000 0.00000 1.00000 0.00000 0.00000 1.00000 -0.00000 -1.00000 0.00000 0.00000 -1.00000 0.00000 0.00000</float_array><technique_common><accessor source="#normals-array" count="1152" stride="3"><param name="X" type="float"/><param name="Y" type="float"/><param name="Z" type="float"/></accessor></technique_common></source>
<vertices id="vertices"><input semantic="POSITION" source="#positions"/></vertices><triangles count="1152"><input semantic="VERTEX" source="#vertices" offset="0"/><input semantic="NORMAL" source="#normals" offset="1"/><p>0 0 2 0 1 0 0 1 3 1 2 1 4 2 5 2 6 2 4 3 6 3 7 3 0 4 1 4 5 4 0 5 5 5 4 5 1 6 2 6 6 6 1 7 6 7 5 7 2 8 3 8 7 8 2 9 7 9 6 9 3 10 0 10 4 10 3 11 4 11 7 11 8 12 10 12 9 12 8 13 11 13 10 13 12 14 13 14 14 14 12 15 14 15 15 15 8 16 9 16 13 16 8 17 13 17 12 17 9 18 10 18 14 18 9 19 14 19 13 19 10 20 11 20 15 20 10 21 15 21 14 21 11 22 8 22 12 22 11 23 12 23 15 23 16 24 18 24 17 24 16 25 19 25 18 25 20 26 21 26 22 26 20 27 22 27 23 27 16 28 17 28 21 28 16 29 21 29 20 29 17 30 18 30 22 30 17 31 22 31 21 31 18 32 19 32 23 32 18 33 23 33 22 33 19 34 16 34 20 34 19 35 20 35 23 35 24 36 26 36 25 36 24 37 27 37 26 37 28 38 29 38 30 38 28 39 30 39 31 39 24 40 25 40 29 40 24 41 29 41 28 41 25 42 26 42 30 42 25 43 30 43 29 43 26 44 27 44 31 44 26 45 31 45 30 45 27 46 24 46 28 46 27 47 28 47 31 47 32 48 34 48 33 48 32 49 35 49 34 49 36 50 37 50 38 50 36 51 38 51 39 51 32 52 33 52 37 52 32 53 37 53 36 53 33 54 34 54 38 54 33 55 38 55 37 55 34 56 35 56 39 56 34 57 39 57 38 57 35 58 32 58 36 58 35 59 36 59 39 59 40 60 42 60 41 60 40 61 43 61 42 61 44 62 45 62 46 62 44 63 46 63 47 63 40 64 41 64 45 64 40 65 45 65 44 65 41 66 42 66 46 66 41 67 46 67 45 67 42 68 43 68 47 68 42 69 47 69 46 69 43 70 40 70 44 70 43 71 44 71 47 71 48 72 50 72 49 72 48 73 51 73 50 73 52 74 53 74 54 74 52 75 54 75 55 75 48 76 49 76 53 76 48 77 53 77 52 77 49 78 50 78 54 78 49 79 54 79 53 79 50 80 51 80 55 80 50 81 55 81 54 81 51 82 48 82 52 82 51 83 52 83 55 83 56 84 58 84 57 84 56 85 59 85 58 85 60 86 61 86 62 86 60 87 62 87 63 87 56 88 57 88 61 88 56 89 61 89 60 89 57 90 58 90 62 90 57 91 62 91 61 91 58 92 59 92 63 92 58 93 63 93 62 93 59 94 56 94 60 94 59 95 60 95 63 95 64 96 66 96 65 96 64 97 67 97 66 97 68 98 69 98 70 98 68 99 70 99 71 99 64 100 65 100 69 100 64 101 69 101 68 101 65 102 66 102 70 102 65 103 70 103 69 103 66 104 67 104 71 104 66 105 71 105 70 105 67 106 64 106 68 106 67 107 68 107 71 107 72 108 74 108 73 108 72 109 75 109 74 109 76 110 77 110 78 110 76 111 78 111 79 111 72 112 73 112 77 112 72 113 77 113 76 113 73 114 74 114 78 114 73 115 78 115 77 115 74 116 75 116 79 116 74 117 79 117 78 117 75 118 72 118 76 118 75 119 76 119 79 119 80 120 82 120 81 120 80 121 83 121 82 121 84 122 85 122 86 122 84 123 86 123 87 123 80 124 81 124 85 124 80 125 85 125 84 125 81 126 82 126 86 126 81 127 86 127 85 127 82 128 83 128 87 128 82 129 87 129 86 129 83 130 80 130 84 130 83 131 84 131 87 131 88 132 90 132 89 132 88 133 91 133 90 133 92 134 93 134 94 134 92 135 94 135 95 135 88 136 89 136 93 136 88 137 93 137 92 137 89 138 90 138 94 138 89 139 94 139 93 139 90 140 91 140 95 140 90 141 95 141 94 141 91 142 88 142 92 142 91 143 92 143 95 143 96 144 98 144 97 144 96 145 99 145 98 145 100 146 101 146 102 146 100 147 102 147 103 147 96 148 97 148 101 148 96 149 101 149 100 149 97 150 98 150 102 150 97 151 102 151 101 151 98 152 99 152 103 152 98 153 103 153 102 153 99 154 96 154 100 154 99 155 100 155 103 155 104 156 106 156 105 156 104 157 107 157 106 157 108 158 109 158 110 158 108 159 110 159 111 159 104 160 105 160 109 160 104 161 109 161 108 161 105 162 106 162 110 162 105 163 110 163 109 163 106 164 107 164 111 164 106 165 111 165 110 165 107 166 104 166 108 166 107 167 108 167 111 167 112 168 114 168 113 168 112 169 115 169 114 169 116 170 117 170 118 170 116 171 118 171 119 171 112 172 113 172 117 172 112 173 117 173 116 173 113 174 114 174 118 174 113 175 118 175 117 175 114 176 115 176 119 176 114 177 119 177 118 177 115 178 112 178 116 178 115 179 116 179 119 179 120 180 122 180 121 180 120 181 123 181 122 181 124 182 125 182 126 182 124 183 126 183 127 183 120 184 121 184 125 184 120 185 125 185 124 185 121 186 122 186 126 186 121 187 126 187 125 187 122 188 123 188 127 188 122 189 127 189 126 189 123 190 120 190 124 190 123 191 124 191 127 191 128 192 130 192 129 192 128 193 131 193 130 193 132 194 133 194 134 194 132 195 134 195 135 195 128 196 129 196 133 196 128 197 133 197 132 197 129 198 130 198 134 198 129 199 134 199 133 199 130 200 131 200 135 200 130 201 135 201 134 201 131 202 128 202 132 202 131 203 132 203 135 203 136 204 138 204 137 204 136 205 139 205 138 205 140 206 141 206 142 206 140 207 142 207 143 207 136 208 137 208 141 208 136 209 141 209 140 209 137 210 138 210 142 210 137 211 142 211 141 211 138 212 139 212 143 212 138 213 143 213 142 213 139 214 136 214 140 214 139 215 140 215 143 215 144 216 146 216 145 216 144 217 147 217 146 217 148 218 149 218 150 218 148 219 150 219 151 219 144 220 145 220 149 220 144 221 149 221 148 221 145 222 146 222 150 222 145 223 150 223 149 223 146 224 147 224 151 224 146 225 151 225 150 225 147 226 144 226 148 226 147 227 148 227 151 227 152 228 154 228 153 228 152 229 155 229 154 229 156 230 157 230 158 230 156 231 158 231 159 231 152 232 153 232 157 232 152 233 157 233 156 233 153 234 154 234 158 234 153 235 158 235 157 235 154 236 155 236 159 236 154 237 159 237 158 237 155 238 152 238 156 238 155 239 156 239 159 239 160 240 162 240 161 240 160 241 163 241 162 241 164 242 165 242 166 242 164 243 166 243 167 243 160 244 161 244 165 244 160 245 165 245 164 245 161 246 162 246 166 246 161 247 166 247 165 247 162 248 163 248 167 248 162 249 167 249 166 249 163 250 160 250 164 250 163 251 164 251 167 251 168 252 170 252 169 252 168 253 171 253 170 253 172 254 173 254 174 254 172 255 174 255 175 255 168 256 169 256 173 256 168 257 173 257 172 257 169 258 170 258 174 258 169 259 174 259 173 259 170 260 171 260 175 260 170 261 175 261 174 261 171 262 168 262 172 262 171 263 172 263 175 263 176 264 178 264 177 264 176 265 179 265 178 265 180 266 181 266 182 266 180 267 182 267 183 267 176 268 177 268 181 268 176 269 181 269 180 269 177 270 178 270 182 270 177 271 182 271 181 271 178 272 179 272 183 272 178 273 183 273 182 273 179 274 176 274 180 274 179 275 180 275 183 275 184 276 186 276 185 276 184 277 187 277 186 277 188 278 189 278 190 278 188 279 190 279 191 279 184 280 185 280 189 280 184 281 189 281 188 281 185 282 186 282 190 282 185 283 190 283 189 283 186 284 187 284 191 284 186 285 191 285 190 285 187 286 184 286 188 286 187 287 188 287 191 287 192 288 194 288 193 288 192 289 195 289 194 289 196 290 197 290 198 290 196 291 198 291 199 291 192 292 193 292 197 292 192 293 197 293 196 293 193 294 194 294 198 294 193 295 198 295 197 295 194 296 195 296 199 296 194 297 199 297 198 297 195 298 192 298 196 298 195 299 196 299 199 299 200 300 202 300 201 300 200 301 203 301 202 301 204 302 205 302 206 302 204 303 206 303 207 303 200 304 201 304 205 304 200 305 205 305 204 305 201 306 202 306 206 306 201 307 206 307 205 307 202 308 203 308 207 308 202 309 207 309 206 309 203 310 200 310 204 310 203 311 204 311 207 311 208 312 210 312 209 312 208 313 211 313 210 313 212 314 213 314 214 314 212 315 214 315 215 315 208 316 209 316 213 316 208 317 213 317 212 317 209 318 210 318 214 318 209 319 214 319 213 319 210 320 211 320 215 320 210 321 215 321 214 321 211 322 208 322 212 322 211 323 212 323 215 323 216 324 218 324 217 324 216 325 219 325 218 325 220 326 221 326 222 326 220 327 222 327 223 327 216 328 217 328 221 328 216 329 221 329 220 329 217 330 218 330 222 330 217 331 222 331 221 331 218 332 219 332 223 332 218 333 223 333 222 333 219 334 216 334 220 334 219 335 220 335 223 335 224 336 226 336 225 336 224 337 227 337 226 337 228 338 229 338 230 338 228 339 230 339 231 339 224 340 225 340 229 340 224 341 229 341 228 341 225 342 226 342 230 342 225 343 230 343 229 343 226 344 227 344 231 344 226 345 231 345 230 345 227 346 224 346 228 346 227 347 228 347 231 347 232 348 234 348 233 348 232 349 235 349 234 349 236 350 237 350 238 350 236 351 238 351 239 351 232 352 233 352 237 352 232 353 237 353 236 353 233 354 234 354 238 354 233 355 238 355 237 355 234 356 235 356 239 356 234 357 239 357 238 357 235 358 232 358 236 358 235 359 236 359 239 359 240 360 242 360 241 360 240 361 243 361 242 361 244 362 245 362 246 362 244 363 246 363 247 363 240 364 241 364 245 364 240 365 245 365 244 365 241 366 242 366 246 366 241 367 246 367 245 367 242 368 243 368 247 368 242 369 247 369 246 369 243 370 240 370 244 370 243 371 244 371 247 371 248 372 250 372 249 372 248 373 251 373 250 373 252 374 253 374 254 374 252 375 254 375 255 375 248 376 249 376 253 376 248 377 253 377 252 377 249 378 250 378 254 378 249 379 254 379 253 379 250 380 251 380 255 380 250 381 255 381 254 381 251 382 248 382 252 382 251 383 252 383 255 383 256 384 258 384 257 384 256 385 259 385 258 385 260 386 261 386 262 386 260 387 262 387 263 387 256 388 257 388 261 388 256 389 261 389 260 389 257 390 258 390 262 390 257 391 262 391 261 391 258 392 259 392 263 392 258 393 263 393 262 393 259 394 256 394 260 394 259 395 260 395 263 395 264 396 266 396 265 396 264 397 267 397 266 397 268 398 269 398 270 398 268 399 270 399 271 399 264 400 265 400 269 400 264 401 269 401 268 401 265 402 266 402 270 402 265 403 270 403 269 403 266 404 267 404 271 404 266 405 271 405 270 405 267 406 264 406 268 406 267 407 268 407 271 407 272 408 274 408 273 408 272 409 275 409 274 409 276 410 277 410 278 410 276 411 278 411 279 411 272 412 273 412 277 412 272 413 277 413 276 413 273 414 274 414 278 414 273 415 278 415 277 415 274 416 275 416 279 416 274 417 279 417 278 417 275 418 272 418 276 418 275 419 276 419 279 419 280 420 282 420 281 420 280 421 283 421 282 421 284 422 285 422 286 422 284 423 286 423 287 423 280 424 281 424 285 424 280 425 285 425 284 425 281 426 282 426 286 426 281 427 286 427 285 427 282 428 283 428 287 428 282 429 287 429 286 429 283 430 280 430 284 430 283 431 284 431 287 431 288 432 290 432 289 432 288 433 291 433 290 433 292 434 293 434 294 434 292 435 294 435 295 435 288 436 289 436 293 436 288 437 293 437 292 437 289 438 290 438 294 438 289 439 294 439 293 439 290 440 291 440 295 440 290 441 295 441 294 441 291 442 288 442 292 442 291 443 292 443 295 443 296 444 298 444 297 444 296 445 299 445 298 445 300 446 301 446 302 446 300 447 302 447 303 447 296 448 297 448 301 448 296 449 301 449 300 449 297 450 298 450 302 450 297 451 302 451 301 451 298 452 299 452 303 452 298 453 303 453 302 453 299 454 296 454 300 454 299 455 300 455 303 455 304 456 306 456 305 456 304 457 307 457 306 457 308 458 309 458 310 458 308 459 310 459 311 459 304 460 305 460 309 460 304 461 309 461 308 461 305 462 306 462 310 462 305 463 310 463 309 463 306 464 307 464 311 464 306 465 311 465 310 465 307 466 304 466 308 466 307 467 308 467 311 467 312 468 314 468 313 468 312 469 315 469 314 469 316 470 317 470 318 470 316 471 318 471 319 471 312 472 313 472 317 472 312 473 317 473 316 473 313 474 314 474 318 474 313 475 318 475 317 475 314 476 315 476 319 476 314 477 319 477 318 477 315 478 312 478 316 478 315 479 316 479 319 479 320 480 322 480 321 480 320 481 323 481 322 481 324 482 325 482 326 482 324 483 326 483 327 483 320 484 321 484 325 484 320 485 325 485 324 485 321 486 322 486 326 486 321 487 326 487 325 487 322 488 323 488 327 488 322 489 327 489 326 489 323 490 320 490 324 490 323 491 324 491 327 491 328 492 330 492 329 492 328 493 331 493 330 493 332 494 333 494 334 494 332 495 334 495 335 495 328 496 329 496 333 496 328 497 333 497 332 497 329 498 330 498 334 498 329 499 334 499 333 499 330 500 331 500 335 500 330 501 335 501 334 501 331 502 328 502 332 502 331 503 332 503 335 503 336 504 338 504 337 504 336 505 339 505 338 505 340 506 341 506 342 506 340 507 342 507 343 507 336 508 337 508 341 508 336 509 341 509 340 509 337 510 338 510 342 510 337 511 342 511 341 511 338 512 339 512 343 512 338 513 343 513 342 513 339 514 336 514 340 514 339 515 340 515 343 515 344 516 346 516 345 516 344 517 347 517 346 517 348 518 349 518 350 518 348 519 350 519 351 519 344 520 345 520 349 520 344 521 349 521 348 521 345 522 346 522 350 522 345 523 350 523 349 523 346 524 347 524 351 524 346 525 351 525 350 525 347 526 344 526 348 526 347 527 348 527 351 527 352 528 354 528 353 528 352 529 355 529 354 529 356 530 357 530 358 530 356 531 358 531 359 531 352 532 353 532 357 532 352 533 357 533 356 533 353 534 354 534 358 534 353 535 358 535 357 535 354 536 355 536 359 536 354 537 359 537 358 537 355 538 352 538 356 538 355 539 356 539 359 539 360 540 362 540 361 540 360 541 363 541 362 541 364 542 365 542 366 542 364 543 366 543 367 543 360 544 361 544 365 544 360 545 365 545 364 545 361 546 362 546 366 546 361 547 366 547 365 547 362 548 363 548 367 548 362 549 367 549 366 549 363 550 360 550 364 550 363 551 364 551 367 551 368 552 370 552 369 552 368 553 371 553 370 553 372 554 373 554 374 554 372 555 374 555 375 555 368 556 369 556 373 556 368 557 373 557 372 557 369 558 370 558 374 558 369 559 374 559 373 559 370 560 371 560 375 560 370 561 375 561 374 561 371 562 368 562 372 562 371 563 372 563 375 563 376 564 378 564 377 564 376 565 379 565 378 565 380 566 381 566 382 566 380 567 382 567 383 567 376 568 377 568 381 568 376 569 381 569 380 569 377 570 378 570 382 570 377 571 382 571 381 571 378 572 379 572 383 572 378 573 383 573 382 573 379 574 376 574 380 574 379 575 380 575 383 575 384 576 386 576 385 576 384 577 387 577 386 577 388 578 389 578 390 578 388 579 390 579 391 579 384 580 385 580 389 580 384 581 389 581 388 581 385 582 386 582 390 582 385 583 390 583 389 583 386 584 387 584 391 584 386 585 391 585 390 585 387 586 384 586 388 586 387 587 388 587 391 587 392 588 394 588 393 588 392 589 395 589 394 589 396 590 397 590 398 590 396 591 398 591 399 591 392 592 393 592 397 592 392 593 397 593 396 593 393 594 394 594 398 594 393 595 398 595 397 595 394 596 395 596 399 596 394 597 399 597 398 597 395 598 392 598 396 598 395 599 396 599 399 599 400 600 402 600 401 600 400 601 403 601 402 601 404 602 405 602 406 602 404 603 406 603 407 603 400 604 401 604 405 604 400 605 405 605 404 605 401 606 402 606 406 606 401 607 406 607 405 607 402 608 403 608 407 608 402 609 407 609 406 609 403 610 400 610 404 610 403 611 404 611 407 611 408 612 410 612 409 612 408 613 411 613 410 613 412 614 413 614 414 614 412 615 414 615 415 615 408 616 409 616 413 616 408 617 413 617 412 617 409 618 410 618 414 618 409 619 414 619 413 619 410 620 411 620 415 620 410 621 415 621 414 621 411 622 408 622 412 622 411 623 412 623 415 623 416 624 418 624 417 624 416 625 419 625 418 625 420 626 421 626 422 626 420 627 422 627 423 627 416 628 417 628 421 628 416 629 421 629 420 629 417 630 418 630 422 630 417 631 422 631 421 631 418 632 419 632 423 632 418 633 423 633 422 633 419 634 416 634 420 634 419 635 420 635 423 635 424 636 426 636 425 636 424 637 427 637 426 637 428 638 429 638 430 638 428 639 430 639 431 639 424 640 425 640 429 640 424 641 429 641 428 641 425 642 426 642 430 642 425 643 430 643 429 643 426 644 427 644 431 644 426 645 431 645 430 645 427 646 424 646 428 646 427 647 428 647 431 647 432 648 434 648 433 648 432 649 435 649 434 649 436 650 437 650 438 650 436 651 438 651 439 651 432 652 433 652 437 652 432 653 437 653 436 653 433 654 434 654 438 654 433 655 438 655 437 655 434 656 435 656 439 656 434 657 439 657 438 657 435 658 432 658 436 658 435 659 436 659 439 659 440 660 442 660 441 660 440 661 443 661 442 661 444 662 445 662 446 662 444 663 446 663 447 663 440 664 441 664 445 664 440 665 445 665 444 665 441 666 442 666 446 666 441 667 446 667 445 667 442 668 443 668 447 668 442 669 447 669 446 669 443 670 440 670 444 670 443 671 444 671 447 671 448 672 450 672 449 672 448 673 451 673 450 673 452 674 453 674 454 674 452 675 454 675 455 675 448 676 449 676 453 676 448 677 453 677 452 677 449 678 450 678 454 678 449 679 454 679 453 679 450 680 451 680 455 680 450 681 455 681 454 681 451 682 448 682 452 682 451 683 452 683 455 683 456 684 458 684 457 684 456 685 459 685 458 685 460 686 461 686 462 686 460 687 462 687 463 687 456 688 457 688 461 688 456 689 461 689 460 689 457 690 458 690 462 690 457 691 462 691 461 691 458 692 459 692 463 692 458 693 463 693 462 693 459 694 456 694 460 694 459 695 460 695 463 695 464 696 466 696 465 696 464 697 467 697 466 697 468 698 469 698 470 698 468 699 470 699 471 699 464 700 465 700 469 700 464 701 469 701 468 701 465 702 466 702 470 702 465 703 470 703 469 703 466 704 467 704 471 704 466 705 471 705 470 705 467 706 464 706 468 706 467 707 468 707 471 707 472 708 474 708 473 708 472 709 475 709 474 709 476 710 477 710 478 710 476 711 478 711 479 711 472 712 473 712 477 712 472 713 477 713 476 713 473 714 474 714 478 714 473 715 478 715 477 715 474 716 475 716 479 716 474 717 479 717 478 717 475 718 472 718 476 718 475 719 476 719 479 719 480 720 482 720 481 720 480 721 483 721 482 721 484 722 485 722 486 722 484 723 486 723 487 723 480 724 481 724 485 724 480 725 485 725 484 725 481 726 482 726 486 726 481 727 486 727 485 727 482 728 483 728 487 728 482 729 487 729 486 729 483 730 480 730 484 730 483 731 484 731 487 731 488 732 490 732 489 732 488 733 491 733 490 733 492 734 493 734 494 734 492 735 494 735 495 735 488 736 489 736 493 736 488 737 493 737 492 737 489 738 490 738 494 738 489 739 494 739 493 739 490 740 491 740 495 740 490 741 495 741 494 741 491 742 488 742 492 742 491 743 492 743 495 743 496 744 498 744 497 744 496 745 499 745 498 745 500 746 501 746 502 746 500 747 502 747 503 747 496 748 497 748 501 748 496 749 501 749 500 749 497 750 498 750 502 750 497 751 502 751 501 751 498 752 499 752 503 752 498 753 503 753 502 753 499 754 496 754 500 754 499 755 500 755 503 755 504 756 506 756 505 756 504 757 507 757 506 757 508 758 509 758 510 758 508 759 510 759 511 759 504 760 505 760 509 760 504 761 509 761 508 761 505 762 506 762 510 762 505 763 510 763 509 763 506 764 507 764 511 764 506 765 511 765 510 765 507 766 504 766 508 766 507 767 508 767 511 767 512 768 514 768 513 768 512 769 515 769 514 769 516 770 517 770 518 770 516 771 518 771 519 771 512 772 513 772 517 772 512 773 517 773 516 773 513 774 514 774 518 774 513 775 518 775 517 775 514 776 515 776 519 776 514 777 519 777 518 777 515 778 512 778 516 778 515 779 516 779 519 779 520 780 522 780 521 780 520 781 523 781 522 781 524 782 525 782 526 782 524 783 526 783 527 783 520 784 521 784 525 784 520 785 525 785 524 785 521 786 522 786 526 786 521 787 526 787 525 787 522 788 523 788 527 788 522 789 527 789 526 789 523 790 520 790 524 790 523 791 524 791 527 791 528 792 530 792 529 792 528 793 531 793 530 793 532 794 533 794 534 794 532 795 534 795 535 795 528 796 529 796 533 796 528 797 533 797 532 797 529 798 530 798 534 798 529 799 534 799 533 799 530 800 531 800 535 800 530 801 535 801 534 801 531 802 528 802 532 802 531 803 532 803 535 803 536 804 538 804 537 804 536 805 539 805 538 805 540 806 541 806 542 806 540 807 542 807 543 807 536 808 537 808 541 808 536 809 541 809 540 809 537 810 538 810 542 810 537 811 542 811 541 811 538 812 539 812 543 812 538 813 543 813 542 813 539 814 536 814 540 814 539 815 540 815 543 815 544 816 546 816 545 816 544 817 547 817 546 817 548 818 549 818 550 818 548 819 550 819 551 819 544 820 545 820 549 820 544 821 549 821 548 821 545 822 546 822 550 822 545 823 550 823 549 823 546 824 547 824 551 824 546 825 551 825 550 825 547 826 544 826 548 826 547 827 548 827 551 827 552 828 554 828 553 828 552 829 555 829 554 829 556 830 557 830 558 830 556 831 558 831 559 831 552 832 553 832 557 832 552 833 557 833 556 833 553 834 554 834 558 834 553 835 558 835 557 835 554 836 555 836 559 836 554 837 559 837 558 837 555 838 552 838 556 838 555 839 556 839 559 839 560 840 562 840 561 840 560 841 563 841 562 841 564 842 565 842 566 842 564 843 566 843 567 843 560 844 561 844 565 844 560 845 565 845 564 845 561 846 562 846 566 846 561 847 566 847 565 847 562 848 563 848 567 848 562 849 567 849 566 849 563 850 560 850 564 850 563 851 564 851 567 851 568 852 570 852 569 852 568 853 571 853 570 853 572 854 573 854 574 854 572 855 574 855 575 855 568 856 569 856 573 856 568 857 573 857 572 857 569 858 570 858 574 858 569 859 574 859 573 859 570 860 571 860 575 860 570 861 575 861 574 861 571 862 568 862 572 862 571 863 572 863 575 863 576 864 578 864 577 864 576 865 579 865 578 865 580 866 581 866 582 866 580 867 582 867 583 867 576 868 577 868 581 868 576 869 581 869 580 869 577 870 578 870 582 870 577 871 582 871 581 871 578 872 579 872 583 872 578 873 583 873 582 873 579 874 576 874 580 874 579 875 580 875 583 875 584 876 586 876 585 876 584 877 587 877 586 877 588 878 589 878 590 878 588 879 590 879 591 879 584 880 585 880 589 880 584 881 589 881 588 881 585 882 586 882 590 882 585 883 590 883 589 883 586 884 587 884 591 884 586 885 591 885 590 885 587 886 584 886 588 886 587 887 588 887 591 887 592 888 594 888 593 888 592 889 595 889 594 889 596 890 597 890 598 890 596 891 598 891 599 891 592 892 593 892 597 892 592 893 597 893 596 893 593 894 594 894 598 894 593 895 598 895 597 895 594 896 595 896 599 896 594 897 599 897 598 897 595 898 592 898 596 898 595 899 596 899 599 899 600 900 602 900 601 900 600 901 603 901 602 901 604 902 605 902 606 902 604 903 606 903 607 903 600 904 601 904 605 904 600 905 605 905 604 905 601 906 602 906 606 906 601 907 606 907 605 907 602 908 603 908 607 908 602 909 607 909 606 909 603 910 600 910 604 910 603 911 604 911 607 911 608 912 610 912 609 912 608 913 611 913 610 913 612 914 613 914 614 914 612 915 614 915 615 915 608 916 609 916 613 916 608 917 613 917 612 917 609 918 610 918 614 918 609 919 614 919 613 919 610 920 611 920 615 920 610 921 615 921 614 921 611 922 608 922 612 922 611 923 612 923 615 923 616 924 618 924 617 924 616 925 619 925 618 925 620 926 621 926 622 926 620 927 622 927 623 927 616 928 617 928 621 928 616 929 621 929 620 929 617 930 618 930 622 930 617 931 622 931 621 931 618 932 619 932 623 932 618 933 623 933 622 933 619 934 616 934 620 934 619 935 620 935 623 935 624 936 626 936 625 936 624 937 627 937 626 937 628 938 629 938 630 938 628 939 630 939 631 939 624 940 625 940 629 940 624 941 629 941 628 941 625 942 626 942 630 942 625 943 630 943 629 943 626 944 627 944 631 944 626 945 631 945 630 945 627 946 624 946 628 946 627 947 628 947 631 947 632 948 634 948 633 948 632 949 635 949 634 949 636 950 637 950 638 950 636 951 638 951 639 951 632 952 633 952 637 952 632 953 637 953 636 953 633 954 634 954 638 954 633 955 638 955 637 955 634 956 635 956 639 956 634 957 639 957 638 957 635 958 632 958 636 958 635 959 636 959 639 959 640 960 642 960 641 960 640 961 643 961 642 961 644 962 645 962 646 962 644 963 646 963 647 963 640 964 641 964 645 964 640 965 645 965 644 965 641 966 642 966 646 966 641 967 646 967 645 967 642 968 643 968 647 968 642 969 647 969 646 969 643 970 640 970 644 970 643 971 644 971 647 971 648 972 650 972 649 972 648 973 651 973 650 973 652 974 653 974 654 974 652 975 654 975 655 975 648 976 649 976 653 976 648 977 653 977 652 977 649 978 650 978 654 978 649 979 654 979 653 979 650 980 651 980 655 980 650 981 655 981 654 981 651 982 648 982 652 982 651 983 652 983 655 983 656 984 658 984 657 984 656 985 659 985 658 985 660 986 661 986 662 986 660 987 662 987 663 987 656 988 657 988 661 988 656 989 661 989 660 989 657 990 658 990 662 990 657 991 662 991 661 991 658 992 659 992 663 992 658 993 663 993 662 993 659 994 656 994 660 994 659 995 660 995 663 995 664 996 666 996 665 996 664 997 667 997 666 997 668 998 669 998 670 998 668 999 670 999 671 999 664 1000 665 1000 669 1000 664 1001 669 1001 668 1001 665 1002 666 1002 670 1002 665 1003 670 1003 669 1003 666 1004 667 1004 671 1004 666 1005 671 1005 670 1005 667 1006 664 1006 668 1006 667 1007 668 1007 671 1007 672 1008 674 1008 673 1008 672 1009 675 1009 674 1009 676 1010 677 1010 678 1010 676 1011 678 1011 679 1011 672 1012 673 1012 677 1012 672 1013 677 1013 676 1013 673 1014 674 1014 678 1014 673 1015 678 1015 677 1015 674 1016 675 1016 679 1016 674 1017 679 1017 678 1017 675 1018 672 1018 676 1018 675 1019 676 1019 679 1019 680 1020 682 1020 681 1020 680 1021 683 1021 682 1021 684 1022 685 1022 686 1022 684 1023 686 1023 687 1023 680 1024 681 1024 685 1024 680 1025 685 1025 684 1025 681 1026 682 1026 686 1026 681 1027 686 1027 685 1027 682 1028 683 1028 687 1028 682 1029 687 1029 686 1029 683 1030 680 1030 684 1030 683 1031 684 1031 687 1031 688 1032 690 1032 689 1032 688 1033 691 1033 690 1033 692 1034 693 1034 694 1034 692 1035 694 1035 695 1035 688 1036 689 1036 693 1036 688 1037 693 1037 692 1037 689 1038 690 1038 694 1038 689 1039 694 1039 693 1039 690 1040 691 1040 695 1040 690 1041 695 1041 694 1041 691 1042 688 1042 692 1042 691 1043 692 1043 695 1043 696 1044 698 1044 697 1044 696 1045 699 1045 698 1045 700 1046 701 1046 702 1046 700 1047 702 1047 703 1047 696 1048 697 1048 701 1048 696 1049 701 1049 700 1049 697 1050 698 1050 702 1050 697 1051 702 1051 701 1051 698 1052 699 1052 703 1052 698 1053 703 1053 702 1053 699 1054 696 1054 700 1054 699 1055 700 1055 703 1055 704 1056 706 1056 705 1056 704 1057 707 1057 706 1057 708 1058 709 1058 710 1058 708 1059 710 1059 711 1059 704 1060 705 1060 709 1060 704 1061 709 1061 708 1061 705 1062 706 1062 710 1062 705 1063 710 1063 709 1063 706 1064 707 1064 711 1064 706 1065 711 1065 710 1065 707 1066 704 1066 708 1066 707 1067 708 1067 711 1067 712 1068 714 1068 713 1068 712 1069 715 1069 714 1069 716 1070 717 1070 718 1070 716 1071 718 1071 719 1071 712 1072 713 1072 717 1072 712 1073 717 1073 716 1073 713 1074 714 1074 718 1074 713 1075 718 1075 717 1075 714 1076 715 1076 719 1076 714 1077 719 1077 718 1077 715 1078 712 1078 716 1078 715 1079 716 1079 719 1079 720 1080 722 1080 721 1080 720 1081 723 1081 722 1081 724 1082 725 1082 726 1082 724 1083 726 1083 727 1083 720 1084 721 1084 725 1084 720 1085 725 1085 724 1085 721 1086 722 1086 726 1086 721 1087 726 1087 725 1087 722 1088 723 1088 727 1088 722 1089 727 1089 726 1089 723 1090 720 1090 724 1090 723 1091 724 1091 727 1091 728 1092 730 1092 729 1092 728 1093 731 1093 730 1093 732 1094 733 1094 734 1094 732 1095 734 1095 735 1095 728 1096 729 1096 733 1096 728 1097 733 1097 732 1097 729 1098 730 1098 734 1098 729 1099 734 1099 733 1099 730 1100 731 1100 735 1100 730 1101 735 1101 734 1101 731 1102 728 1102 732 1102 731 1103 732 1103 735 1103 736 1104 738 1104 737 1104 736 1105 739 1105 738 1105 740 1106 741 1106 742 1106 740 1107 742 1107 743 1107 736 1108 737 1108 741 1108 736 1109 741 1109 740 1109 737 1110 738 1110 742 1110 737 1111 742 1111 741 1111 738 1112 739 1112 743 1112 738 1113 743 1113 742 1113 739 1114 736 1114 740 1114 739 1115 740 1115 743 1115 744 1116 746 1116 745 1116 744 1117 747 1117 746 1117 748 1118 749 1118 750 1118 748 1119 750 1119 751 1119 744 1120 745 1120 749 1120 744 1121 749 1121 748 1121 745 1122 746 1122 750 1122 745 1123 750 1123 749 1123 746 1124 747 1124 751 1124 746 1125 751 1125 750 1125 747 1126 744 1126 748 1126 747 1127 748 1127 751 1127 752 1128 754 1128 753 1128 752 1129 755 1129 754 1129 756 1130 757 1130 758 1130 756 1131 758 1131 759 1131 752 1132 753 1132 757 1132 752 1133 757 1133 756 1133 753 1134 754 1134 758 1134 753 1135 758 1135 757 1135 754 1136 755 1136 759 1136 754 1137 759 1137 758 1137 755 1138 752 1138 756 1138 755 1139 756 1139 759 1139 760 1140 762 1140 761 1140 760 1141 763 1141 762 1141 764 1142 765 1142 766 1142 764 1143 766 1143 767 1143 760 1144 761 1144 765 1144 760 1145 765 1145 764 1145 761 1146 762 1146 766 1146 761 1147 766 1147 765 1147 762 1148 763 1148 767 1148 762 1149 767 1149 766 1149 763 1150 760 1150 764 1150 763 1151 764 1151 767 1151</p></triangles>
</mesh></geometry></library_geometries><library_visual_scenes><visual_scene id="Scene"><node id="mesh"><instance_geometry url="#geometry"/></node></visual_scene></library_visual_scenes><scene><instance_visual_scene url="#Scene"/></scene></COLLADA>