<?xml version="1.0" encoding="UTF-8"?>
<COLLADA xmlns="http://www.collada.org/2005/11/COLLADASchema" version="1.4.1">
<asset><contributor><authoring_tool>Summit Estate procedural mesh exporter</authoring_tool></contributor><created>2026-09-11T00:00:00Z</created><modified>2026-09-11T00:00:00Z</modified><unit name="meter" meter="1"/><up_axis>Z_UP</up_axis></asset>
<library_geometries><geometry id="geometry" name="geometry"><mesh>
<source id="positions"><float_array id="positions-array" count="1278">101.00000 125.00000 84.10000 101.27500 125.00000 84.11742 101.23816 125.13750 84.11742 101.13750 125.23816 84.11742 101.00000 125.27500 84.11742 100.86250 125.23816 84.11742 100.76184 125.13750 84.11742 100.72500 125.00000 84.11742 100.76184 124.86250 84.11742 100.86250 124.76184 84.11742 101.00000 124.72500 84.11742 101.13750 124.76184 84.11742 101.23816 124.86250 84.11742 101.47631 125.00000 84.16500 101.41250 125.23816 84.16500 101.23816 125.41250 84.16500 101.00000 125.47631 84.16500 100.76184 125.41250 84.16500 100.58750 125.23816 84.16500 100.52369 125.00000 84.16500 100.58750 124.76184 84.16500 100.76184 124.58750 84.16500 101.00000 124.52369 84.16500 101.23816 124.58750 84.16500 101.41250 124.76184 84.16500 101.55000 125.00000 84.23000 101.47631 125.27500 84.23000 101.27500 125.47631 84.23000 101.00000 125.55000 84.23000 100.72500 125.47631 84.23000 100.52369 125.27500 84.23000 100.45000 125.00000 84.23000 100.52369 124.72500 84.23000 100.72500 124.52369 84.23000 101.00000 124.45000 84.23000 101.27500 124.52369 84.23000 101.47631 124.72500 84.23000 101.47631 125.00000 84.29500 101.41250 125.23816 84.29500 101.23816 125.41250 84.29500 101.00000 125.47631 84.29500 100.76184 125.41250 84.29500 100.58750 125.23816 84.29500 100.52369 125.00000 84.29500 100.58750 124.76184 84.29500 100.76184 124.58750 84.29500 101.00000 124.52369 84.29500 101.23816 124.58750 84.29500 101.41250 124.76184 84.29500 101.27500 125.00000 84.34258 101.23816 125.13750 84.34258 101.13750 125.23816 84.34258 101.00000 125.27500 84.34258 100.86250 125.23816 84.34258 100.76184 125.13750 84.34258 100.72500 125.00000 84.34258 100.76184 124.86250 84.34258 100.86250 124.76184 84.34258 101.00000 124.72500 84.34258 101.13750 124.76184 84.34258 101.23816 124.86250 84.34258 101.00000 125.00000 84.36000 106.00000 125.00000 84.10000 106.27500 125.00000 84.11742 106.23816 125.13750 84.11742 106.13750 125.23816 84.11742 106.00000 125.27500 84.11742 105.86250 125.23816 84.11742 105.76184 125.13750 84.11742 105.72500 125.00000 84.11742 105.76184 124.86250 84.11742 105.86250 124.76184 84.11742 106.00000 124.72500 84.11742 106.13750 124.76184 84.11742 106.23816 124.86250 84.11742 106.47631 125.00000 84.16500 106.41250 125.23816 84.16500 106.23816 125.41250 84.16500 106.00000 125.47631 84.16500 105.76184 125.41250 84.16500 105.58750 125.23816 84.16500 105.52369 125.00000 84.16500 105.58750 124.76184 84.16500 105.76184 124.58750 84.16500 106.00000 124.52369 84.16500 106.23816 124.58750 84.16500 106.41250 124.76184 84.16500 106.55000 125.00000 84.23000 106.47631 125.27500 84.23000 106.27500 125.47631 84.23000 106.00000 125.55000 84.23000 105.72500 125.47631 84.23000 105.52369 125.27500 84.23000 105.45000 125.00000 84.23000 105.52369 124.72500 84.23000 105.72500 124.52369 84.23000 106.00000 124.45000 84.23000 106.27500 124.52369 84.23000 106.47631 124.72500 84.23000 106.47631 125.00000 84.29500 106.41250 125.23816 84.29500 106.23816 125.41250 84.29500 106.00000 125.47631 84.29500 105.76184 125.41250 84.29500 105.58750 125.23816 84.29500 105.52369 125.00000 84.29500 105.58750 124.76184 84.29500 105.76184 124.58750 84.29500 106.00000 124.52369 84.29500 106.23816 124.58750 84.29500 106.41250 124.76184 84.29500 106.27500 125.00000 84.34258 106.23816 125.13750 84.34258 106.13750 125.23816 84.34258 106.00000 125.27500 84.34258 105.86250 125.23816 84.34258 105.76184 125.13750 84.34258 105.72500 125.00000 84.34258 105.76184 124.86250 84.34258 105.86250 124.76184 84.34258 106.00000 124.72500 84.34258 106.13750 124.76184 84.34258 106.23816 124.86250 84.34258 106.00000 125.00000 84.36000 111.00000 125.00000 84.10000 111.27500 125.00000 84.11742 111.23816 125.13750 84.11742 111.13750 125.23816 84.11742 111.00000 125.27500 84.11742 110.86250 125.23816 84.11742 110.76184 125.13750 84.11742 110.72500 125.00000 84.11742 110.76184 124.86250 84.11742 110.86250 124.76184 84.11742 111.00000 124.72500 84.11742 111.13750 124.76184 84.11742 111.23816 124.86250 84.11742 111.47631 125.00000 84.16500 111.41250 125.23816 84.16500 111.23816 125.41250 84.16500 111.00000 125.47631 84.16500 110.76184 125.41250 84.16500 110.58750 125.23816 84.16500 110.52369 125.00000 84.16500 110.58750 124.76184 84.16500 110.76184 124.58750 84.16500 111.00000 124.52369 84.16500 111.23816 124.58750 84.16500 111.41250 124.76184 84.16500 111.55000 125.00000 84.23000 111.47631 125.27500 84.23000 111.27500 125.47631 84.23000 111.00000 125.55000 84.23000 110.72500 125.47631 84.23000 110.52369 125.27500 84.23000 110.45000 125.00000 84.23000 110.52369 124.72500 84.23000 110.72500 124.52369 84.23000 111.00000 124.45000 84.23000 111.27500 124.52369 84.23000 111.47631 124.72500 84.23000 111.47631 125.00000 84.29500 111.41250 125.23816 84.29500 111.23816 125.41250 84.29500 111.00000 125.47631 84.29500 110.76184 125.41250 84.29500 110.58750 125.23816 84.29500 110.52369 125.00000 84.29500 110.58750 124.76184 84.29500 110.76184 124.58750 84.29500 111.00000 124.52369 84.29500 111.23816 124.58750 84.29500 111.41250 124.76184 84.29500 111.27500 125.00000 84.34258 111.23816 125.13750 84.34258 111.13750 125.23816 84.34258 111.00000 125.27500 84.34258 110.86250 125.23816 84.34258 110.76184 125.13750 84.34258 110.72500 125.00000 84.34258 110.76184 124.86250 84.34258 110.86250 124.76184 84.34258 111.00000 124.72500 84.34258 111.13750 124.76184 84.34258 111.23816 124.86250 84.34258 111.00000 125.00000 84.36000 119.88000 139.00000 91.46000 119.84192 139.09192 91.46000 119.75000 139.13000 91.46000 119.65808 139.09192 91.46000 119.62000 139.00000 91.46000 119.65808 138.90808 91.46000 119.75000 138.87000 91.46000 119.84192 138.90808 91.46000 119.88000 139.00000 91.62000 119.84192 139.09192 91.62000 119.75000 139.13000 91.62000 119.65808 139.09192 91.62000 119.62000 139.00000 91.62000 119.65808 138.90808 91.62000 119.75000 138.87000 91.62000 119.84192 138.90808 91.62000 119.75000 139.00000 91.46000 119.75000 139.00000 91.62000 116.43850 147.30850 91.46000 116.40043 147.40043 91.46000 116.30850 147.43850 91.46000 116.21658 147.40043 91.46000 116.17850 147.30850 91.46000 116.21658 147.21658 91.46000 116.30850 147.17850 91.46000 116.40043 147.21658 91.46000 116.43850 147.30850 91.62000 116.40043 147.40043 91.62000 116.30850 147.43850 91.62000 116.21658 147.40043 91.62000 116.17850 147.30850 91.62000 116.21658 147.21658 91.62000 116.30850 147.17850 91.62000 116.40043 147.21658 91.62000 116.30850 147.30850 91.46000 116.30850 147.30850 91.62000 108.13000 150.75000 91.46000 108.09192 150.84192 91.46000 108.00000 150.88000 91.46000 107.90808 150.84192 91.46000 107.87000 150.75000 91.46000 107.90808 150.65808 91.46000 108.00000 150.62000 91.46000 108.09192 150.65808 91.46000 108.13000 150.75000 91.62000 108.09192 150.84192 91.62000 108.00000 150.88000 91.62000 107.90808 150.84192 91.62000 107.87000 150.75000 91.62000 107.90808 150.65808 91.62000 108.00000 150.62000 91.62000 108.09192 150.65808 91.62000 108.00000 150.75000 91.46000 108.00000 150.75000 91.62000 99.82150 147.30850 91.46000 99.78342 147.40043 91.46000 99.69150 147.43850 91.46000 99.59957 147.40043 91.46000 99.56150 147.30850 91.46000 99.59957 147.21658 91.46000 99.69150 147.17850 91.46000 99.78342 147.21658 91.46000 99.82150 147.30850 91.62000 99.78342 147.40043 91.62000 99.69150 147.43850 91.62000 99.59957 147.40043 91.62000 99.56150 147.30850 91.62000 99.59957 147.21658 91.62000 99.69150 147.17850 91.62000 99.78342 147.21658 91.62000 99.69150 147.30850 91.46000 99.69150 147.30850 91.62000 96.38000 139.00000 91.46000 96.34192 139.09192 91.46000 96.25000 139.13000 91.46000 96.15808 139.09192 91.46000 96.12000 139.00000 91.46000 96.15808 138.90808 91.46000 96.25000 138.87000 91.46000 96.34192 138.90808 91.46000 96.38000 139.00000 91.62000 96.34192 139.09192 91.62000 96.25000 139.13000 91.62000 96.15808 139.09192 91.62000 96.12000 139.00000 91.62000 96.15808 138.90808 91.62000 96.25000 138.87000 91.62000 96.34192 138.90808 91.62000 96.25000 139.00000 91.46000 96.25000 139.00000 91.62000 99.82150 130.69150 91.46000 99.78342 130.78342 91.46000 99.69150 130.82150 91.46000 99.59957 130.78342 91.46000 99.56150 130.69150 91.46000 99.59957 130.59957 91.46000 99.69150 130.56150 91.46000 99.78342 130.59957 91.46000 99.82150 130.69150 91.62000 99.78342 130.78342 91.62000 99.69150 130.82150 91.62000 99.59957 130.78342 91.62000 99.56150 130.69150 91.62000 99.59957 130.59957 91.62000 99.69150 130.56150 91.62000 99.78342 130.59957 91.62000 99.69150 130.69150 91.46000 99.69150 130.69150 91.62000 108.13000 127.25000 91.46000 108.09192 127.34192 91.46000 108.00000 127.38000 91.46000 107.90808 127.34192 91.46000 107.87000 127.25000 91.46000 107.90808 127.15808 91.46000 108.00000 127.12000 91.46000 108.09192 127.15808 91.46000 108.13000 127.25000 91.62000 108.09192 127.34192 91.62000 108.00000 127.38000 91.62000 107.90808 127.34192 91.62000 107.87000 127.25000 91.62000 107.90808 127.15808 91.62000 108.00000 127.12000 91.62000 108.09192 127.15808 91.62000 108.00000 127.25000 91.46000 108.00000 127.25000 91.62000 116.43850 130.69150 91.46000 116.40043 130.78342 91.46000 116.30850 130.82150 91.46000 116.21658 130.78342 91.46000 116.17850 130.69150 91.46000 116.21658 130.59957 91.46000 116.30850 130.56150 91.46000 116.40043 130.59957 91.46000 116.43850 130.69150 91.62000 116.40043 130.78342 91.62000 116.30850 130.82150 91.62000 116.21658 130.78342 91.62000 116.17850 130.69150 91.62000 116.21658 130.59957 91.62000 116.30850 130.56150 91.62000 116.40043 130.59957 91.62000 116.30850 130.69150 91.46000 116.30850 130.69150 91.62000 34.93500 120.50000 85.39250 35.06500 120.50000 85.39250 35.06500 159.50000 85.39250 34.93500 159.50000 85.39250 34.93500 120.50000 85.44750 35.06500 120.50000 85.44750 35.06500 159.50000 85.44750 34.93500 159.50000 85.44750 64.93500 120.50000 85.39250 65.06500 120.50000 85.39250 65.06500 159.50000 85.39250 64.93500 159.50000 85.39250 64.93500 120.50000 85.44750 65.06500 120.50000 85.44750 65.06500 159.50000 85.44750 64.93500 159.50000 85.44750 90.93500 120.50000 85.39250 91.06500 120.50000 85.39250 91.06500 159.50000 85.39250 90.93500 159.50000 85.39250 90.93500 120.50000 85.44750 91.06500 120.50000 85.44750 91.06500 159.50000 85.44750 90.93500 159.50000 85.44750 120.93500 120.50000 85.39250 121.06500 120.50000 85.39250 121.06500 159.50000 85.39250 120.93500 159.50000 85.39250 120.93500 120.50000 85.44750 121.06500 120.50000 85.44750 121.06500 159.50000 85.44750 120.93500 159.50000 85.44750 34.93500 120.50000 79.79250 35.06500 120.50000 79.79250 35.06500 159.50000 79.79250 34.93500 159.50000 79.79250 34.93500 120.50000 79.84750 35.06500 120.50000 79.84750 35.06500 159.50000 79.84750 34.93500 159.50000 79.84750 64.93500 120.50000 79.79250 65.06500 120.50000 79.79250 65.06500 159.50000 79.79250 64.93500 159.50000 79.79250 64.93500 120.50000 79.84750 65.06500 120.50000 79.84750 65.06500 159.50000 79.84750 64.93500 159.50000 79.84750 90.93500 120.50000 79.79250 91.06500 120.50000 79.79250 91.06500 159.50000 79.79250 90.93500 159.50000 79.79250 90.93500 120.50000 79.84750 91.06500 120.50000 79.84750 91.06500 159.50000 79.84750 90.93500 159.50000 79.84750 120.93500 120.50000 79.79250 121.06500 120.50000 79.79250 121.06500 159.50000 79.79250 120.93500 159.50000 79.79250 120.93500 120.50000 79.84750 121.06500 120.50000 79.84750 121.06500 159.50000 79.84750 120.93500 159.50000 79.84750 34.93500 120.50000 90.99250 35.06500 120.50000 90.99250 35.06500 159.50000 90.99250 34.93500 159.50000 90.99250 34.93500 120.50000 91.04750 35.06500 120.50000 91.04750 35.06500 159.50000 91.04750 34.93500 159.50000 91.04750 64.93500 120.50000 90.99250 65.06500 120.50000 90.99250 65.06500 159.50000 90.99250 64.93500 159.50000 90.99250 64.93500 120.50000 91.04750 65.06500 120.50000 91.04750 65.06500 159.50000 91.04750 64.93500 159.50000 91.04750 90.93500 120.50000 90.99250 91.06500 120.50000 90.99250 91.06500 159.50000 90.99250 90.93500 159.50000 90.99250 90.93500 120.50000 91.04750 91.06500 120.50000 91.04750 91.06500 159.50000 91.04750 90.93500 159.50000 91.04750 120.93500 120.50000 90.99250 121.06500 120.50000 90.99250 121.06500 159.50000 90.99250 120.93500 159.50000 90.99250 120.93500 120.50000 91.04750 121.06500 120.50000 91.04750 121.06500 159.50000 91.04750 120.93500 159.50000 91.04750</float_array><technique_common><accessor source="#positions-array" count="426" stride="3"><param name="X" type="float"/><param name="Y" type="float"/><param name="Z" type="float"/></accessor></technique_common></source>
<source id="normals"><float_array id="normals-array" count="2280">0.06320 0.01693 -0.99786 0.04626 0.04626 -0.99786 0.01693 0.06320 -0.99786 -0.01693 0.06320 -0.99786 -0.04626 0.04626 -0.99786 -0.06320 0.01693 -0.99786 -0.06320 -0.01693 -0.99786 -0.04626 -0.04626 -0.99786 -0.01693 -0.06320 -0.99786 0.01693 -0.06320 -0.99786 0.04626 -0.04626 -0.99786 0.06320 -0.01693 -0.99786 0.22959 0.06152 -0.97134 0.22959 0.06152 -0.97134 0.16807 0.16807 -0.97134 0.16807 0.16807 -0.97134 0.06152 0.22959 -0.97134 0.06152 0.22959 -0.97134 -0.06152 0.22959 -0.97134 -0.06152 0.22959 -0.97134 -0.16807 0.16807 -0.97134 -0.16807 0.16807 -0.97134 -0.22959 0.06152 -0.97134 -0.22959 0.06152 -0.97134 -0.22959 -0.06152 -0.97134 -0.22959 -0.06152 -0.97134 -0.16807 -0.16807 -0.97134 -0.16807 -0.16807 -0.97134 -0.06152 -0.22959 -0.97134 -0.06152 -0.22959 -0.97134 0.06152 -0.22959 -0.97134 0.06152 -0.22959 -0.97134 0.16807 -0.16807 -0.97134 0.16807 -0.16807 -0.97134 0.22959 -0.06152 -0.97134 0.22959 -0.06152 -0.97134 0.65137 0.17453 -0.73841 0.65137 0.17453 -0.73841 0.47684 0.47684 -0.73841 0.47684 0.47684 -0.73841 0.17453 0.65137 -0.73841 0.17453 0.65137 -0.73841 -0.17453 0.65137 -0.73841 -0.17453 0.65137 -0.73841 -0.47684 0.47684 -0.73841 -0.47684 0.47684 -0.73841 -0.65137 0.17453 -0.73841 -0.65137 0.17453 -0.73841 -0.65137 -0.17453 -0.73841 -0.65137 -0.17453 -0.73841 -0.47684 -0.47684 -0.73841 -0.47684 -0.47684 -0.73841 -0.17453 -0.65137 -0.73841 -0.17453 -0.65137 -0.73841 0.17453 -0.65137 -0.73841 0.17453 -0.65137 -0.73841 0.47684 -0.47684 -0.73841 0.47684 -0.47684 -0.73841 0.65137 -0.17453 -0.73841 0.65137 -0.17453 -0.73841 0.65137 0.17453 0.73841 0.65137 0.17453 0.73841 0.47684 0.47684 0.73841 0.47684 0.47684 0.73841 0.17453 0.65137 0.73841 0.17453 0.65137 0.73841 -0.17453 0.65137 0.73841 -0.17453 0.65137 0.73841 -0.47684 0.47684 0.73841 -0.47684 0.47684 0.73841 -0.65137 0.17453 0.73841 -0.65137 0.17453 0.73841 -0.65137 -0.17453 0.73841 -0.65137 -0.17453 0.73841 -0.47684 -0.47684 0.73841 -0.47684 -0.47684 0.73841 -0.17453 -0.65137 0.73841 -0.17453 -0.65137 0.73841 0.17453 -0.65137 0.73841 0.17453 -0.65137 0.73841 0.47684 -0.47684 0.73841 0.47684 -0.47684 0.73841 0.65137 -0.17453 0.73841 0.65137 -0.17453 0.73841 0.22959 0.06152 0.97134 0.22959 0.06152 0.97134 0.16807 0.16807 0.97134 0.16807 0.16807 0.97134 0.06152 0.22959 0.97134 0.06152 0.22959 0.97134 -0.06152 0.22959 0.97134 -0.06152 0.22959 0.97134 -0.16807 0.16807 0.97134 -0.16807 0.16807 0.97134 -0.22959 0.06152 0.97134 -0.22959 0.06152 0.97134 -0.22959 -0.06152 0.97134 -0.22959 -0.06152 0.97134 -0.16807 -0.16807 0.97134 -0.16807 -0.16807 0.97134 -0.06152 -0.22959 0.97134 -0.06152 -0.22959 0.97134 0.06152 -0.22959 0.97134 0.06152 -0.22959 0.97134 0.16807 -0.16807 0.97134 0.16807 -0.16807 0.97134 0.22959 -0.06152 0.97134 0.22959 -0.06152 0.97134 0.06320 0.01693 0.99786 0.04626 0.04626 0.99786 0.01693 0.06320 0.99786 -0.01693 0.06320 0.99786 -0.04626 0.04626 0.99786 -0.06320 0.01693 0.99786 -0.06320 -0.01693 0.99786 -0.04626 -0.04626 0.99786 -0.01693 -0.06320 0.99786 0.01693 -0.06320 0.99786 0.04626 -0.04626 0.99786 0.06320 -0.01693 0.99786 0.06320 0.01693 -0.99786 0.04626 0.04626 -0.99786 0.01693 0.06320 -0.99786 -0.01693 0.06320 -0.99786 -0.04626 0.04626 -0.99786 -0.06320 0.01693 -0.99786 -0.06320 -0.01693 -0.99786 -0.04626 -0.04626 -0.99786 -0.01693 -0.06320 -0.99786 0.01693 -0.06320 -0.99786 0.04626 -0.04626 -0.99786 0.06320 -0.01693 -0.99786 0.22959 0.06152 -0.97134 0.22959 0.06152 -0.97134 0.16807 0.16807 -0.97134 0.16807 0.16807 -0.97134 0.06152 0.22959 -0.97134 0.06152 0.22959 -0.97134 -0.06152 0.22959 -0.97134 -0.06152 0.22959 -0.97134 -0.16807 0.16807 -0.97134 -0.16807 0.16807 -0.97134 -0.22959 0.06152 -0.97134 -0.22959 0.06152 -0.97134 -0.22959 -0.06152 -0.97134 -0.22959 -0.06152 -0.97134 -0.16807 -0.16807 -0.97134 -0.16807 -0.16807 -0.97134 -0.06152 -0.22959 -0.97134 -0.06152 -0.22959 -0.97134 0.06152 -0.22959 -0.97134 0.06152 -0.22959 -0.97134 0.16807 -0.16807 -0.97134 0.16807 -0.16807 -0.97134 0.22959 -0.06152 -0.97134 0.22959 -0.06152 -0.97134 0.65137 0.17453 -0.73841 0.65137 0.17453 -0.73841 0.47684 0.47684 -0.73841 0.47684 0.47684 -0.73841 0.17453 0.65137 -0.73841 0.17453 0.65137 -0.73841 -0.17453 0.65137 -0.73841 -0.17453 0.65137 -0.73841 -0.47684 0.47684 -0.73841 -0.47684 0.47684 -0.73841 -0.65137 0.17453 -0.73841 -0.65137 0.17453 -0.73841 -0.65137 -0.17453 -0.73841 -0.65137 -0.17453 -0.73841 -0.47684 -0.47684 -0.73841 -0.47684 -0.47684 -0.73841 -0.17453 -0.65137 -0.73841 -0.17453 -0.65137 -0.73841 0.17453 -0.65137 -0.73841 0.17453 -0.65137 -0.73841 0.47684 -0.47684 -0.73841 0.47684 -0.47684 -0.73841 0.65137 -0.17453 -0.73841 0.65137 -0.17453 -0.73841 0.65137 0.17453 0.73841 0.65137 0.17453 0.73841 0.47684 0.47684 0.73841 0.47684 0.47684 0.73841 0.17453 0.65137 0.73841 0.17453 0.65137 0.73841 -0.17453 0.65137 0.73841 -0.17453 0.65137 0.73841 -0.47684 0.47684 0.73841 -0.47684 0.47684 0.73841 -0.65137 0.17453 0.73841 -0.65137 0.17453 0.73841 -0.65137 -0.17453 0.73841 -0.65137 -0.17453 0.73841 -0.47684 -0.47684 0.73841 -0.47684 -0.47684 0.73841 -0.17453 -0.65137 0.73841 -0.17453 -0.65137 0.73841 0.17453 -0.65137 0.73841 0.17453 -0.65137 0.73841 0.47684 -0.47684 0.73841 0.47684 -0.47684 0.73841 0.65137 -0.17453 0.73841 0.65137 -0.17453 0.73841 0.22959 0.06152 0.97134 0.22959 0.06152 0.97134 0.16807 0.16807 0.97134 0.16807 0.16807 0.97134 0.06152 0.22959 0.97134 0.06152 0.22959 0.97134 -0.06152 0.22959 0.97134 -0.06152 0.22959 0.97134 -0.16807 0.16807 0.97134 -0.16807 0.16807 0.97134 -0.22959 0.06152 0.97134 -0.22959 0.06152 0.97134 -0.22959 -0.06152 0.97134 -0.22959 -0.06152 0.97134 -0.16807 -0.16807 0.97134 -0.16807 -0.16807 0.97134 -0.06152 -0.22959 0.97134 -0.06152 -0.22959 0.97134 0.06152 -0.22959 0.97134 0.06152 -0.22959 0.97134 0.16807 -0.16807 0.97134 0.16807 -0.16807 0.97134 0.22959 -0.06152 0.97134 0.22959 -0.06152 0.97134 0.06320 0.01693 0.99786 0.04626 0.04626 0.99786 0.01693 0.06320 0.99786 -0.01693 0.06320 0.99786 -0.04626 0.04626 0.99786 -0.06320 0.01693 0.99786 -0.06320 -0.01693 0.99786 -0.04626 -0.04626 0.99786 -0.01693 -0.06320 0.99786 0.01693 -0.06320 0.99786 0.04626 -0.04626 0.99786 0.06320 -0.01693 0.99786 0.06320 0.01693 -0.99786 0.04626 0.04626 -0.99786 0.01693 0.06320 -0.99786 -0.01693 0.06320 -0.99786 -0.04626 0.04626 -0.99786 -0.06320 0.01693 -0.99786 -0.06320 -0.01693 -0.99786 -0.04626 -0.04626 -0.99786 -0.01693 -0.06320 -0.99786 0.01693 -0.06320 -0.99786 0.04626 -0.04626 -0.99786 0.06320 -0.01693 -0.99786 0.22959 0.06152 -0.97134 0.22959 0.06152 -0.97134 0.16807 0.16807 -0.97134 0.16807 0.16807 -0.97134 0.06152 0.22959 -0.97134 0.06152 0.22959 -0.97134 -0.06152 0.22959 -0.97134 -0.06152 0.22959 -0.97134 -0.16807 0.16807 -0.97134 -0.16807 0.16807 -0.97134 -0.22959 0.06152 -0.97134 -0.22959 0.06152 -0.97134 -0.22959 -0.06152 -0.97134 -0.22959 -0.06152 -0.97134 -0.16807 -0.16807 -0.97134 -0.16807 -0.16807 -0.97134 -0.06152 -0.22959 -0.97134 -0.06152 -0.22959 -0.97134 0.06152 -0.22959 -0.97134 0.06152 -0.22959 -0.97134 0.16807 -0.16807 -0.97134 0.16807 -0.16807 -0.97134 0.22959 -0.06152 -0.97134 0.22959 -0.06152 -0.97134 0.65137 0.17453 -0.73841 0.65137 0.17453 -0.73841 0.47684 0.47684 -0.73841 0.47684 0.47684 -0.73841 0.17453 0.65137 -0.73841 0.17453 0.65137 -0.73841 -0.17453 0.65137 -0.73841 -0.17453 0.65137 -0.73841 -0.47684 0.47684 -0.73841 -0.47684 0.47684 -0.73841 -0.65137 0.17453 -0.73841 -0.65137 0.17453 -0.73841 -0.65137 -0.17453 -0.73841 -0.65137 -0.17453 -0.73841 -0.47684 -0.47684 -0.73841 -0.47684 -0.47684 -0.73841 -0.17453 -0.65137 -0.73841 -0.17453 -0.65137 -0.73841 0.17453 -0.65137 -0.73841 0.17453 -0.65137 -0.73841 0.47684 -0.47684 -0.73841 0.47684 -0.47684 -0.73841 0.65137 -0.17453 -0.73841 0.65137 -0.17453 -0.73841 0.65137 0.17453 0.73841 0.65137 0.17453 0.73841 0.47684 0.47684 0.73841 0.47684 0.47684 0.73841 0.17453 0.65137 0.73841 0.17453 0.65137 0.73841 -0.17453 0.65137 0.73841 -0.17453 0.65137 0.73841 -0.47684 0.47684 0.73841 -0.47684 0.47684 0.73841 -0.65137 0.17453 0.73841 -0.65137 0.17453 0.73841 -0.65137 -0.17453 0.73841 -0.65137 -0.17453 0.73841 -0.47684 -0.47684 0.73841 -0.47684 -0.47684 0.73841 -0.17453 -0.65137 0.73841 -0.17453 -0.65137 0.73841 0.17453 -0.65137 0.73841 0.17453 -0.65137 0.73841 0.47684 -0.47684 0.73841 0.47684 -0.47684 0.73841 0.65137 -0.17453 0.73841 0.65137 -0.17453 0.73841 0.22959 0.06152 0.97134 0.22959 0.06152 0.97134 0.16807 0.16807 0.97134 0.16807 0.16807 0.97134 0.06152 0.22959 0.97134 0.06152 0.22959 0.97134 -0.06152 0.22959 0.97134 -0.06152 0.22959 0.97134 -0.16807 0.16807 0.97134 -0.16807 0.16807 0.97134 -0.22959 0.06152 0.97134 -0.22959 0.06152 0.97134 -0.22959 -0.06152 0.97134 -0.22959 -0.06152 0.97134 -0.16807 -0.16807 0.97134 -0.16807 -0.16807 0.97134 -0.06152 -0.22959 0.97134 -0.06152 -0.22959 0.97134 0.06152 -0.22959 0.97134 0.06152 -0.22959 0.97134 0.16807 -0.16807 0.97134 0.16807 -0.16807 0.97134 0.22959 -0.06152 0.97134 0.22959 -0.06152 0.97134 0.06320 0.01693 0.99786 0.04626 0.04626 0.99786 0.01693 0.06320 0.99786 -0.01693 0.06320 0.99786 -0.04626 0.04626 0.99786 -0.06320 0.01693 0.99786 -0.06320 -0.01693 0.99786 -0.04626 -0.04626 0.99786 -0.01693 -0.06320 0.99786 0.01693 -0.06320 0.99786 0.04626 -0.04626 0.99786 0.06320 -0.01693 0.99786 0.92388 0.38268 0.00000 0.92388 0.38268 -0.00000 0.00000 0.00000 -1.00000 0.00000 0.00000 1.00000 0.38268 0.92388 0.00000 0.38268 0.92388 -0.00000 0.00000 0.00000 -1.00000 0.00000 0.00000 1.00000 -0.38268 0.92388 0.00000 -0.38268 0.92388 0.00000 0.00000 0.00000 -1.00000 0.00000 -0.00000 1.00000 -0.92388 0.38268 0.00000 -0.92388 0.38268 0.00000 0.00000 0.00000 -1.00000 0.00000 0.00000 1.00000 -0.92388 -0.38268 0.00000 -0.92388 -0.38268 0.00000 -0.00000 0.00000 -1.00000 0.00000 0.00000 1.00000 -0.38268 -0.92388 0.00000 -0.38268 -0.92388 0.00000 0.00000 -0.00000 -1.00000 0.00000 0.00000 1.00000 0.38268 -0.92388 0.00000 0.38268 -0.92388 0.00000 0.00000 0.00000 -1.00000 0.00000 0.00000 1.00000 0.92388 -0.38268 0.00000 0.92388 -0.38268 0.00000 0.00000 0.00000 -1.00000 -0.00000 0.00000 1.00000 0.92388 0.38268 0.00000 0.92388 0.38268 -0.00000 0.00000 0.00000 -1.00000 0.00000 0.00000 1.00000 0.38268 0.92388 0.00000 0.38268 0.92388 -0.00000 0.00000 0.00000 -1.00000 0.00000 0.00000 1.00000 -0.38268 0.92388 0.00000 -0.38268 0.92388 0.00000 0.00000 0.00000 -1.00000 0.00000 -0.00000 1.00000 -0.92388 0.38268 0.00000 -0.92388 0.38268 0.00000 0.00000 0.00000 -1.00000 0.00000 0.00000 1.00000 -0.92388 -0.38268 0.00000 -0.92388 -0.38268 0.00000 -0.00000 0.00000 -1.00000 0.00000 0.00000 1.00000 -0.38268 -0.92388 0.00000 -0.38268 -0.92388 0.00000 0.00000 -0.00000 -1.00000 0.00000 0.00000 1.00000 0.38268 -0.92388 0.00000 0.38268 -0.92388 0.00000 0.00000 0.00000 -1.00000 0.00000 0.00000 1.00000 0.92388 -0.38268 0.00000 0.92388 -0.38268 0.00000 0.00000 0.00000 -1.00000 -0.00000 0.00000 1.00000 0.92388 0.38268 0.00000 0.92388 0.38268 -0.00000 0.00000 0.00000 -1.00000 0.00000 0.00000 1.00000 0.38268 0.92388 0.00000 0.38268 0.92388 -0.00000 0.00000 0.00000 -1.00000 0.00000 0.00000 1.00000 -0.38268 0.92388 0.00000 -0.38268 0.92388 0.00000 0.00000 0.00000 -1.00000 0.00000 -0.00000 1.00000 -0.92388 0.38268 0.00000 -0.92388 0.38268 0.00000 0.00000 0.00000 -1.00000 0.00000 0.00000 1.00000 -0.92388 -0.38268 0.00000 -0.92388 -0.38268 0.00000 -0.00000 0.00000 -1.00000 0.00000 0.00000 1.00000 -0.38268 -0.92388 0.00000 -0.38268 -0.92388 0.00000 0.00000 -0.00000 -1.00000 0.00000 0.00000 1.00000 0.38268 -0.92388 0.00000 0.38268 -0.92388 0.00000 0.00000 0.00000 -1.00000 0.00000 0.00000 1.00000 0.92388 -0.38268 0.00000 0.92388 -0.38268 0.00000 0.00000 0.00000 -1.00000 -0.00000 0.00000 1.00000 0.92388 0.38268 0.00000 0.92388 0.38268 -0.00000 0.00000 0.00000 -1.00000 0.00000 0.00000 1.00000 0.38268 0.92388 0.00000 0.38268 0.92388 -0.00000 0.00000 0.00000 -1.00000 0.00000 0.00000 1.00000 -0.38268 0.92388 0.00000 -0.38268 0.92388 0.00000 0.00000 0.00000 -1.00000 0.00000 -0.00000 1.00000 -0.92388 0.38268 0.00000 -0.92388 0.38268 0.00000 0.00000 0.00000 -1.00000 0.00000 0.00000 1.00000 -0.92388 -0.38268 0.00000 -0.92388 -0.38268 0.00000 -0.00000 0.00000 -1.00000 0.00000 0.00000 1.00000 -0.38268 -0.92388 0.00000 -0.38268 -0.92388 0.00000 0.00000 -0.00000 -1.00000 0.00000 0.00000 1.00000 0.38268 -0.92388 0.00000 0.38268 -0.92388 0.00000 0.00000 0.00000 -1.00000 0.00000 0.00000 1.00000 0.92388 -0.38268 0.00000 0.92388 -0.38268 0.00000 0.00000 0.00000 -1.00000 -0.00000 0.00000 1.00000 0.92388 0.38268 0.00000 0.92388 0.38268 -0.00000 0.00000 0.00000 -1.00000 0.00000 0.00000 1.00000 0.38268 0.92388 0.00000 0.38268 0.92388 -0.00000 0.00000 0.00000 -1.00000 0.00000 0.00000 1.00000 -0.38268 0.92388 0.00000 -0.38268 0.92388 0.00000 0.00000 0.00000 -1.00000 0.00000 -0.00000 1.00000 -0.92388 0.38268 0.00000 -0.92388 0.38268 0.00000 0.00000 0.00000 -1.00000 0.00000 0.00000 1.00000 -0.92388 -0.38268 0.00000 -0.92388 -0.38268 0.00000 -0.00000 0.00000 -1.00000 0.00000 0.00000 1.00000 -0.38268 -0.92388 0.00000 -0.38268 -0.92388 0.00000 0.00000 -0.00000 -1.00000 0.00000 0.00000 1.00000 0.38268 -0.92388 0.00000 0.38268 -0.92388 0.00000 0.00000 0.00000 -1.00000 0.00000 0.00000 1.00000 0.92388 -0.38268 0.00000 0.92388 -0.38268 0.00000 0.00000 0.00000 -1.00000 -0.00000 0.00000 1.00000 0.92388 0.38268 0.00000 0.92388 0.38268 -0.00000 0.00000 0.00000 -1.00000 0.00000 0.00000 1.00000 0.38268 0.92388 0.00000 0.38268 0.92388 -0.00000 0.00000 0.00000 -1.00000 0.00000 0.00000 1.00000 -0.38268 0.92388 0.00000 -0.38268 0.92388 0.00000 0.00000 0.00000 -1.00000 0.00000 -0.00000 1.00000 -0.92388 0.38268 0.00000 -0.92388 0.38268 0.00000 0.00000 0.00000 -1.00000 0.00000 0.00000 1.00000 -0.92388 -0.38268 0.00000 -0.92388 -0.38268 0.00000 -0.00000 0.00000 -1.00000 0.00000 0.00000 1.00000 -0.38268 -0.92388 0.00000 -0.38268 -0.92388 0.00000 0.00000 -0.00000 -1.00000 0.00000 0.00000 1.00000 0.38268 -0.92388 0.00000 0.38268 -0.92388 0.00000 0.00000 0.00000 -1.00000 0.00000 0.00000 1.00000 0.92388 -0.38268 0.00000 0.92388 -0.38268 0.00000 0.00000 0.00000 -1.00000 -0.00000 0.00000 1.00000 0.92388 0.38268 0.00000 0.92388 0.38268 -0.00000 0.00000 0.00000 -1.00000 0.00000 0.00000 1.00000 0.38268 0.92388 0.00000 0.38268 0.92388 -0.00000 0.00000 0.00000 -1.00000 0.00000 0.00000 1.00000 -0.38268 0.92388 0.00000 -0.38268 0.92388 0.00000 0.00000 0.00000 -1.00000 0.00000 -0.00000 1.00000 -0.92388 0.38268 0.00000 -0.92388 0.38268 0.00000 0.00000 0.00000 -1.00000 0.00000 0.00000 1.00000 -0.92388 -0.38268 0.00000 -0.92388 -0.38268 0.00000 -0.00000 0.00000 -1.00000 0.00000 0.00000 1.00000 -0.38268 -0.92388 0.00000 -0.38268 -0.92388 0.00000 0.00000 -0.00000 -1.00000 0.00000 0.00000 1.00000 0.38268 -0.92388 0.00000 0.38268 -0.92388 0.00000 0.00000 0.00000 -1.00000 0.00000 0.00000 1.00000 0.92388 -0.38268 0.00000 0.92388 -0.38268 0.00000 0.00000 0.00000 -1.00000 -0.00000 0.00000 1.00000 0.92388 0.38268 0.00000 0.92388 0.38268 -0.00000 0.00000 0.00000 -1.00000 0.00000 0.00000 1.00000 0.38268 0.92388 0.00000 0.38268 0.92388 -0.00000 0.00000 0.00000 -1.00000 0.00000 0.00000 1.00000 -0.38268 0.92388 0.00000 -0.38268 0.92388 0.00000 0.00000 0.00000 -1.00000 0.00000 -0.00000 1.00000 -0.92388 0.38268 0.00000 -0.92388 0.38268 0.00000 0.00000 0.00000 -1.00000 0.00000 0.00000 1.00000 -0.92388 -0.38268 0.00000 -0.92388 -0.38268 0.00000 -0.00000 0.00000 -1.00000 0.00000 0.00000 1.00000 -0.38268 -0.92388 0.00000 -0.38268 -0.92388 0.00000 0.00000 -0.00000 -1.00000 0.00000 0.00000 1.00000 0.38268 -0.92388 0.00000 0.38268 -0.92388 0.00000 0.00000 0.00000 -1.00000 0.00000 0.00000 1.00000 0.92388 -0.38268 0.00000 0.92388 -0.38268 0.00000 0.00000 0.00000 -1.00000 -0.00000 0.00000 1.00000 0.00000 0.00000 -1.00000 0.00000 0.00000 -1.00000 0.00000 0.00000 1.00000 0.00000 0.00000 1.00000 0.00000 -1.00000 0.00000 0.00000 -1.00000 0.00000 1.00000 0.00000 0.00000 1.00000 0.00000 0.00000 0.00000 1.00000 0.00000 0.00000 1.00000 -0.00000 -1.00000 0.00000 0.00000 -1.00000 0.00000 0.00000 0.00000 0.00000 -1.00000 0.00000 0.00000 -1.00000 0.00000 0.00000 1.00000 0.00000 0.00000 1.00000 0.00000 -1.00000 0.00000 0.00000 -1.00000 0.00000 1.00000 0.00000 0.00000 1.00000 0.00000 0.00000 0.00000 1.00000 0.00000 0.00000 1.00000 -0.00000 -1.00000 0.00000 0.00000 -1.00000 0.00000 0.00000 0.00000 0.00000 -1.00000 0.00000 0.00000 -1.00000 0.00000 0.00000 1.00000 0.00000 0.00000 1.00000 0.00000 -1.00000 0.00000 0.00000 -1.00000 0.00000 1.00000 0.00000 0.00000 1.00000 0.00000 0.00000 0.00000 1.00000 0.00000 0.00000 1.00000 -0.00000 -1.00000 0.00000 0.00000 -1.00000 0.00000 0.00000 0.00000 0.00000 -1.00000 0.00000 0.00000 -1.00000 0.00000 0.00000 1.00000 0.00000 0.00000 1.00000 0.00000 -1.00000 0.00000 0.00000 -1.00000 0.00000 1.00000 0.00000 0.00000 1.00000 0.00000 0.00000 0.00000 1.00000 0.00000 0.00000 1.00000 -0.00000 -1.00000 0.00000 0.00000 -1.00000 0.00000 0.00000 0.00000 0.00000 -1.00000 0.00000 0.00000 -1.00000 0.00000 0.00000 1.00000 0.00000 0.00000 1.00000 0.00000 -1.00000 0.00000 0.00000 -1.00000 0.00000 1.00000 0.00000 0.00000 1.00000 0.00000 0.00000 0.00000 1.00000 0.00000 0.00000 1.00000 -0.00000 -1.00000 0.00000 0.00000 -1.00000 0.00000 0.00000 0.00000 0.00000 -1.00000 0.00000 0.00000 -1.00000 0.00000 0.00000 1.00000 0.00000 0.00000 1.00000 0.00000 -1.00000 0.00000 0.00000 -1.00000 0.00000 1.00000 0.00000 0.00000 1.00000 0.00000 0.00000 0.00000 1.00000 0.00000 0.00000 1.00000 -0.00000 -1.00000 0.00000 0.00000 -1.00000 0.00000 0.00000 0.00000 0.00000 -1.00000 0.00000 0.00000 -1.00000 0.00000 0.00000 1.00000 0.00000 0.00000 1.00000 0.00000 -1.00000 0.00000 0.00000 -1.00000 0.00000 1.00000 0.00000 0.00000 1.00000 0.00000 0.00000 0.00000 1.00000 0.00000 0.00000 1.00000 -0.00000 -1.00000 0.00000 0.00000 -1.00000 0.00000 0.00000 0.00000 0.00000 -1.00000 0.00000 0.00000 -1.00000 0.00000 0.00000 1.00000 0.00000 0.00000 1.00000 0.00000 -1.00000 0.00000 0.00000 -1.00000 0.00000 1.00000 0.00000 0.00000 1.00000 0.00000 0.00000 0.00000 1.00000 0.00000 0.00000 1.00000 -0.00000 -1.00000 0.00000 0.00000 -1.00000 0.00000 0.00000 0.00000 0.00000 -1.00000 0.00000 0.00000 -1.00000 0.00000 0.00000 1.00000 0.00000 0.00000 1.00000 0.00000 -1.00000 0.00000 0.00000 -1.00000 0.00000 1.00000 0.00000 0.00000 1.00000 0.00000 0.00000 0.00000 1.00000 0.00000 0.00000 1.00000 -0.00000 -1.00000 0.00000 0.00000 -1.00000 0.00000 0.00000 0.00000 0.00000 -1.00000 0.00000 0.00000 -1.00000 0.00000 0.00000 1.00000 0.00000 0.00000 1.00000 0.00000 -1.00000 0.00000 0.00000 -1.00000 0.00000 1.00000 0.00000 0.00000 1.00000 0.00000 0.00000 0.00000 1.00000 0.00000 0.00000 1.00000 -0.00000 -1.00000 0.00000 0.00000 -1.00000 0.00000 0.00000 0.00000 0.00000 -1.00000 0.00000 0.00000 -1.00000 0.00000 0.00000 1.00000 0.00000 0.00000 1.00000 0.00000 -1.00000 0.00000 0.00000 -1.00000 0.00000 1.00000 0.00000 0.00000 1.00000 0.00000 0.00000 0.00000 1.00000 0.00000 0.00000 1.00000 -0.00000 -1.00000 0.00000 0.00000 -1.00000 0.00000 0.00000 0.00000 0.00000 -1.00000 0.00000 0.00000 -1.00000 0.00000 0.00000 1.00000 0.00000 0.00000 1.00000 0.00000 -1.00000 0.00000 0.00000 -1.00000 0.00000 1.00000 0.00000 0.00000 1.00000 0.00000 0.00000 0.00000 1.00000 0.00000 0.00000 1.00000 -0.00000 -1.00000 0.00000 0.00000 -1.00000 0.00000 0.00000</float_array><technique_common><accessor source="#normals-array" count="760" stride="3"><param name="X" type="float"/><param name="Y" type="float"/><param name="Z" type="float"/></accessor></technique_common></source>
<vertices id="vertices"><input semantic="POSITION" source="#positions"/></vertices><triangles count="760"><input semantic="VERTEX" source="#vertices" offset="0"/><input semantic="NORMAL" source="#normals" offset="1"/><p>0 0 2 0 1 0 0 1 3 1 2 1 0 2 4 2 3 2 0 3 5 3 4 3 0 4 6 4 5 4 0 5 7 5 6 5 0 6 8 6 7 6 0 7 9 7 8 7 0 8 10 8 9 8 0 9 11 9 10 9 0 10 12 10 11 10 0 11 1 11 12 11 1 12 2 12 14 12 1 13 14 13 13 13 2 14 3 14 15 14 2 15 15 15 14 15 3 16 4 16 16 16 3 17 16 17 15 17 4 18 5 18 17 18 4 19 17 19 16 19 5 20 6 20 18 20 5 21 18 21 17 21 6 22 7 22 19 22 6 23 19 23 18 23 7 24 8 24 20 24 7 25 20 25 19 25 8 26 9 26 21 26 8 27 21 27 20 27 9 28 10 28 22 28 9 29 22 29 21 29 10 30 11 30 23 30 10 31 23 31 22 31 11 32 12 32 24 32 11 33 24 33 23 33 12 34 1 34 13 34 12 35 13 35 24 35 13 36 14 36 26 36 13 37 26 37 25 37 14 38 15 38 27 38 14 39 27 39 26 39 15 40 16 40 28 40 15 41 28 41 27 41 16 42 17 42 29 42 16 43 29 43 28 43 17 44 18 44 30 44 17 45 30 45 29 45 18 46 19 46 31 46 18 47 31 47 30 47 19 48 20 48 32 48 19 49 32 49 31 49 20 50 21 50 33 50 20 51 33 51 32 51 21 52 22 52 34 52 21 53 34 53 33 53 22 54 23 54 35 54 22 55 35 55 34 55 23 56 24 56 36 56 23 57 36 57 35 57 24 58 13 58 25 58 24 59 25 59 36 59 25 60 26 60 38 60 25 61 38 61 37 61 26 62 27 62 39 62 26 63 39 63 38 63 27 64 28 64 40 64 27 65 40 65 39 65 28 66 29 66 41 66 28 67 41 67 40 67 29 68 30 68 42 68 29 69 42 69 41 69 30 70 31 70 43 70 30 71 43 71 42 71 31 72 32 72 44 72 31 73 44 73 43 73 32 74 33 74 45 74 32 75 45 75 44 75 33 76 34 76 46 76 33 77 46 77 45 77 34 78 35 78 47 78 34 79 47 79 46 79 35 80 36 80 48 80 35 81 48 81 47 81 36 82 25 82 37 82 36 83 37 83 48 83 37 84 38 84 50 84 37 85 50 85 49 85 38 86 39 86 51 86 38 87 51 87 50 87 39 88 40 88 52 88 39 89 52 89 51 89 40 90 41 90 53 90 40 91 53 91 52 91 41 92 42 92 54 92 41 93 54 93 53 93 42 94 43 94 55 94 42 95 55 95 54 95 43 96 44 96 56 96 43 97 56 97 55 97 44 98 45 98 57 98 44 99 57 99 56 99 45 100 46 100 58 100 45 101 58 101 57 101 46 102 47 102 59 102 46 103 59 103 58 103 47 104 48 104 60 104 47 105 60 105 59 105 48 106 37 106 49 106 48 107 49 107 60 107 49 108 50 108 61 108 50 109 51 109 61 109 51 110 52 110 61 110 52 111 53 111 61 111 53 112 54 112 61 112 54 113 55 113 61 113 55 114 56 114 61 114 56 115 57 115 61 115 57 116 58 116 61 116 58 117 59 117 61 117 59 118 60 118 61 118 60 119 49 119 61 119 62 120 64 120 63 120 62 121 65 121 64 121 62 122 66 122 65 122 62 123 67 123 66 123 62 124 68 124 67 124 62 125 69 125 68 125 62 126 70 126 69 126 62 127 71 127 70 127 62 128 72 128 71 128 62 129 73 129 72 129 62 130 74 130 73 130 62 131 63 131 74 131 63 132 64 132 76 132 63 133 76 133 75 133 64 134 65 134 77 134 64 135 77 135 76 135 65 136 66 136 78 136 65 137 78 137 77 137 66 138 67 138 79 138 66 139 79 139 78 139 67 140 68 140 80 140 67 141 80 141 79 141 68 142 69 142 81 142 68 143 81 143 80 143 69 144 70 144 82 144 69 145 82 145 81 145 70 146 71 146 83 146 70 147 83 147 82 147 71 148 72 148 84 148 71 149 84 149 83 149 72 150 73 150 85 150 72 151 85 151 84 151 73 152 74 152 86 152 73 153 86 153 85 153 74 154 63 154 75 154 74 155 75 155 86 155 75 156 76 156 88 156 75 157 88 157 87 157 76 158 77 158 89 158 76 159 89 159 88 159 77 160 78 160 90 160 77 161 90 161 89 161 78 162 79 162 91 162 78 163 91 163 90 163 79 164 80 164 92 164 79 165 92 165 91 165 80 166 81 166 93 166 80 167 93 167 92 167 81 168 82 168 94 168 81 169 94 169 93 169 82 170 83 170 95 170 82 171 95 171 94 171 83 172 84 172 96 172 83 173 96 173 95 173 84 174 85 174 97 174 84 175 97 175 96 175 85 176 86 176 98 176 85 177 98 177 97 177 86 178 75 178 87 178 86 179 87 179 98 179 87 180 88 180 100 180 87 181 100 181 99 181 88 182 89 182 101 182 88 183 101 183 100 183 89 184 90 184 102 184 89 185 102 185 101 185 90 186 91 186 103 186 90 187 103 187 102 187 91 188 92 188 104 188 91 189 104 189 103 189 92 190 93 190 105 190 92 191 105 191 104 191 93 192 94 192 106 192 93 193 106 193 105 193 94 194 95 194 107 194 94 195 107 195 106 195 95 196 96 196 108 196 95 197 108 197 107 197 96 198 97 198 109 198 96 199 109 199 108 199 97 200 98 200 110 200 97 201 110 201 109 201 98 202 87 202 99 202 98 203 99 203 110 203 99 204 100 204 112 204 99 205 112 205 111 205 100 206 101 206 113 206 100 207 113 207 112 207 101 208 102 208 114 208 101 209 114 209 113 209 102 210 103 210 115 210 102 211 115 211 114 211 103 212 104 212 116 212 103 213 116 213 115 213 104 214 105 214 117 214 104 215 117 215 116 215 105 216 106 216 118 216 105 217 118 217 117 217 106 218 107 218 119 218 106 219 119 219 118 219 107 220 108 220 120 220 107 221 120 221 119 221 108 222 109 222 121 222 108 223 121 223 120 223 109 224 110 224 122 224 109 225 122 225 121 225 110 226 99 226 111 226 110 227 111 227 122 227 111 228 112 228 123 228 112 229 113 229 123 229 113 230 114 230 123 230 114 231 115 231 123 231 115 232 116 232 123 232 116 233 117 233 123 233 117 234 118 234 123 234 118 235 119 235 123 235 119 236 120 236 123 236 120 237 121 237 123 237 121 238 122 238 123 238 122 239 111 239 123 239 124 240 126 240 125 240 124 241 127 241 126 241 124 242 128 242 127 242 124 243 129 243 128 243 124 244 130 244 129 244 124 245 131 245 130 245 124 246 132 246 131 246 124 247 133 247 132 247 124 248 134 248 133 248 124 249 135 249 134 249 124 250 136 250 135 250 124 251 125 251 136 251 125 252 126 252 138 252 125 253 138 253 137 253 126 254 127 254 139 254 126 255 139 255 138 255 127 256 128 256 140 256 127 257 140 257 139 257 128 258 129 258 141 258 128 259 141 259 140 259 129 260 130 260 142 260 129 261 142 261 141 261 130 262 131 262 143 262 130 263 143 263 142 263 131 264 132 264 144 264 131 265 144 265 143 265 132 266 133 266 145 266 132 267 145 267 144 267 133 268 134 268 146 268 133 269 146 269 145 269 134 270 135 270 147 270 134 271 147 271 146 271 135 272 136 272 148 272 135 273 148 273 147 273 136 274 125 274 137 274 136 275 137 275 148 275 137 276 138 276 150 276 137 277 150 277 149 277 138 278 139 278 151 278 138 279 151 279 150 279 139 280 140 280 152 280 139 281 152 281 151 281 140 282 141 282 153 282 140 283 153 283 152 283 141 284 142 284 154 284 141 285 154 285 153 285 142 286 143 286 155 286 142 287 155 287 154 287 143 288 144 288 156 288 143 289 156 289 155 289 144 290 145 290 157 290 144 291 157 291 156 291 145 292 146 292 158 292 145 293 158 293 157 293 146 294 147 294 159 294 146 295 159 295 158 295 147 296 148 296 160 296 147 297 160 297 159 297 148 298 137 298 149 298 148 299 149 299 160 299 149 300 150 300 162 300 149 301 162 301 161 301 150 302 151 302 163 302 150 303 163 303 162 303 151 304 152 304 164 304 151 305 164 305 163 305 152 306 153 306 165 306 152 307 165 307 164 307 153 308 154 308 166 308 153 309 166 309 165 309 154 310 155 310 167 310 154 311 167 311 166 311 155 312 156 312 168 312 155 313 168 313 167 313 156 314 157 314 169 314 156 315 169 315 168 315 157 316 158 316 170 316 157 317 170 317 169 317 158 318 159 318 171 318 158 319 171 319 170 319 159 320 160 320 172 320 159 321 172 321 171 321 160 322 149 322 161 322 160 323 161 323 172 323 161 324 162 324 174 324 161 325 174 325 173 325 162 326 163 326 175 326 162 327 175 327 174 327 163 328 164 328 176 328 163 329 176 329 175 329 164 330 165 330 177 330 164 331 177 331 176 331 165 332 166 332 178 332 165 333 178 333 177 333 166 334 167 334 179 334 166 335 179 335 178 335 167 336 168 336 180 336 167 337 180 337 179 337 168 338 169 338 181 338 168 339 181 339 180 339 169 340 170 340 182 340 169 341 182 341 181 341 170 342 171 342 183 342 170 343 183 343 182 343 171 344 172 344 184 344 171 345 184 345 183 345 172 346 161 346 173 346 172 347 173 347 184 347 173 348 174 348 185 348 174 349 175 349 185 349 175 350 176 350 185 350 176 351 177 351 185 351 177 352 178 352 185 352 178 353 179 353 185 353 179 354 180 354 185 354 180 355 181 355 185 355 181 356 182 356 185 356 182 357 183 357 185 357 183 358 184 358 185 358 184 359 173 359 185 359 186 360 187 360 195 360 186 361 195 361 194 361 202 362 187 362 186 362 203 363 194 363 195 363 187 364 188 364 196 364 187 365 196 365 195 365 202 366 188 366 187 366 203 367 195 367 196 367 188 368 189 368 197 368 188 369 197 369 196 369 202 370 189 370 188 370 203 371 196 371 197 371 189 372 190 372 198 372 189 373 198 373 197 373 202 374 190 374 189 374 203 375 197 375 198 375 190 376 191 376 199 376 190 377 199 377 198 377 202 378 191 378 190 378 203 379 198 379 199 379 191 380 192 380 200 380 191 381 200 381 199 381 202 382 192 382 191 382 203 383 199 383 200 383 192 384 193 384 201 384 192 385 201 385 200 385 202 386 193 386 192 386 203 387 200 387 201 387 193 388 186 388 194 388 193 389 194 389 201 389 202 390 186 390 193 390 203 391 201 391 194 391 204 392 205 392 213 392 204 393 213 393 212 393 220 394 205 394 204 394 221 395 212 395 213 395 205 396 206 396 214 396 205 397 214 397 213 397 220 398 206 398 205 398 221 399 213 399 214 399 206 400 207 400 215 400 206 401 215 401 214 401 220 402 207 402 206 402 221 403 214 403 215 403 207 404 208 404 216 404 207 405 216 405 215 405 220 406 208 406 207 406 221 407 215 407 216 407 208 408 209 408 217 408 208 409 217 409 216 409 220 410 209 410 208 410 221 411 216 411 217 411 209 412 210 412 218 412 209 413 218 413 217 413 220 414 210 414 209 414 221 415 217 415 218 415 210 416 211 416 219 416 210 417 219 417 218 417 220 418 211 418 210 418 221 419 218 419 219 419 211 420 204 420 212 420 211 421 212 421 219 421 220 422 204 422 211 422 221 423 219 423 212 423 222 424 223 424 231 424 222 425 231 425 230 425 238 426 223 426 222 426 239 427 230 427 231 427 223 428 224 428 232 428 223 429 232 429 231 429 238 430 224 430 223 430 239 431 231 431 232 431 224 432 225 432 233 432 224 433 233 433 232 433 238 434 225 434 224 434 239 435 232 435 233 435 225 436 226 436 234 436 225 437 234 437 233 437 238 438 226 438 225 438 239 439 233 439 234 439 226 440 227 440 235 440 226 441 235 441 234 441 238 442 227 442 226 442 239 443 234 443 235 443 227 444 228 444 236 444 227 445 236 445 235 445 238 446 228 446 227 446 239 447 235 447 236 447 228 448 229 448 237 448 228 449 237 449 236 449 238 450 229 450 228 450 239 451 236 451 237 451 229 452 222 452 230 452 229 453 230 453 237 453 238 454 222 454 229 454 239 455 237 455 230 455 240 456 241 456 249 456 240 457 249 457 248 457 256 458 241 458 240 458 257 459 248 459 249 459 241 460 242 460 250 460 241 461 250 461 249 461 256 462 242 462 241 462 257 463 249 463 250 463 242 464 243 464 251 464 242 465 251 465 250 465 256 466 243 466 242 466 257 467 250 467 251 467 243 468 244 468 252 468 243 469 252 469 251 469 256 470 244 470 243 470 257 471 251 471 252 471 244 472 245 472 253 472 244 473 253 473 252 473 256 474 245 474 244 474 257 475 252 475 253 475 245 476 246 476 254 476 245 477 254 477 253 477 256 478 246 478 245 478 257 479 253 479 254 479 246 480 247 480 255 480 246 481 255 481 254 481 256 482 247 482 246 482 257 483 254 483 255 483 247 484 240 484 248 484 247 485 248 485 255 485 256 486 240 486 247 486 257 487 255 487 248 487 258 488 259 488 267 488 258 489 267 489 266 489 274 490 259 490 258 490 275 491 266 491 267 491 259 492 260 492 268 492 259 493 268 493 267 493 274 494 260 494 259 494 275 495 267 495 268 495 260 496 261 496 269 496 260 497 269 497 268 497 274 498 261 498 260 498 275 499 268 499 269 499 261 500 262 500 270 500 261 501 270 501 269 501 274 502 262 502 261 502 275 503 269 503 270 503 262 504 263 504 271 504 262 505 271 505 270 505 274 506 263 506 262 506 275 507 270 507 271 507 263 508 264 508 272 508 263 509 272 509 271 509 274 510 264 510 263 510 275 511 271 511 272 511 264 512 265 512 273 512 264 513 273 513 272 513 274 514 265 514 264 514 275 515 272 515 273 515 265 516 258 516 266 516 265 517 266 517 273 517 274 518 258 518 265 518 275 519 273 519 266 519 276 520 277 520 285 520 276 521 285 521 284 521 292 522 277 522 276 522 293 523 284 523 285 523 277 524 278 524 286 524 277 525 286 525 285 525 292 526 278 526 277 526 293 527 285 527 286 527 278 528 279 528 287 528 278 529 287 529 286 529 292 530 279 530 278 530 293 531 286 531 287 531 279 532 280 532 288 532 279 533 288 533 287 533 292 534 280 534 279 534 293 535 287 535 288 535 280 536 281 536 289 536 280 537 289 537 288 537 292 538 281 538 280 538 293 539 288 539 289 539 281 540 282 540 290 540 281 541 290 541 289 541 292 542 282 542 281 542 293 543 289 543 290 543 282 544 283 544 291 544 282 545 291 545 290 545 292 546 283 546 282 546 293 547 290 547 291 547 283 548 276 548 284 548 283 549 284 549 291 549 292 550 276 550 283 550 293 551 291 551 284 551 294 552 295 552 303 552 294 553 303 553 302 553 310 554 295 554 294 554 311 555 302 555 303 555 295 556 296 556 304 556 295 557 304 557 303 557 310 558 296 558 295 558 311 559 303 559 304 559 296 560 297 560 305 560 296 561 305 561 304 561 310 562 297 562 296 562 311 563 304 563 305 563 297 564 298 564 306 564 297 565 306 565 305 565 310 566 298 566 297 566 311 567 305 567 306 567 298 568 299 568 307 568 298 569 307 569 306 569 310 570 299 570 298 570 311 571 306 571 307 571 299 572 300 572 308 572 299 573 308 573 307 573 310 574 300 574 299 574 311 575 307 575 308 575 300 576 301 576 309 576 300 577 309 577 308 577 310 578 301 578 300 578 311 579 308 579 309 579 301 580 294 580 302 580 301 581 302 581 309 581 310 582 294 582 301 582 311 583 309 583 302 583 312 584 313 584 321 584 312 585 321 585 320 585 328 586 313 586 312 586 329 587 320 587 321 587 313 588 314 588 322 588 313 589 322 589 321 589 328 590 314 590 313 590 329 591 321 591 322 591 314 592 315 592 323 592 314 593 323 593 322 593 328 594 315 594 314 594 329 595 322 595 323 595 315 596 316 596 324 596 315 597 324 597 323 597 328 598 316 598 315 598 329 599 323 599 324 599 316 600 317 600 325 600 316 601 325 601 324 601 328 602 317 602 316 602 329 603 324 603 325 603 317 604 318 604 326 604 317 605 326 605 325 605 328 606 318 606 317 606 329 607 325 607 326 607 318 608 319 608 327 608 318 609 327 609 326 609 328 610 319 610 318 610 329 611 326 611 327 611 319 612 312 612 320 612 319 613 320 613 327 613 328 614 312 614 319 614 329 615 327 615 320 615 330 616 332 616 331 616 330 617 333 617 332 617 334 618 335 618 336 618 334 619 336 619 337 619 330 620 331 620 335 620 330 621 335 621 334 621 331 622 332 622 336 622 331 623 336 623 335 623 332 624 333 624 337 624 332 625 337 625 336 625 333 626 330 626 334 626 333 627 334 627 337 627 338 628 340 628 339 628 338 629 341 629 340 629 342 630 343 630 344 630 342 631 344 631 345 631 338 632 339 632 343 632 338 633 343 633 342 633 339 634 340 634 344 634 339 635 344 635 343 635 340 636 341 636 345 636 340 637 345 637 344 637 341 638 338 638 342 638 341 639 342 639 345 639 346 640 348 640 347 640 346 641 349 641 348 641 350 642 351 642 352 642 350 643 352 643 353 643 346 644 347 644 351 644 346 645 351 645 350 645 347 646 348 646 352 646 347 647 352 647 351 647 348 648 349 648 353 648 348 649 353 649 352 649 349 650 346 650 350 650 349 651 350 651 353 651 354 652 356 652 355 652 354 653 357 653 356 653 358 654 359 654 360 654 358 655 360 655 361 655 354 656 355 656 359 656 354 657 359 657 358 657 355 658 356 658 360 658 355 659 360 659 359 659 356 660 357 660 361 660 356 661 361 661 360 661 357 662 354 662 358 662 357 663 358 663 361 663 362 664 364 664 363 664 362 665 365 665 364 665 366 666 367 666 368 666 366 667 368 667 369 667 362 668 363 668 367 668 362 669 367 669 366 669 363 670 364 670 368 670 363 671 368 671 367 671 364 672 365 672 369 672 364 673 369 673 368 673 365 674 362 674 366 674 365 675 366 675 369 675 370 676 372 676 371 676 370 677 373 677 372 677 374 678 375 678 376 678 374 679 376 679 377 679 370 680 371 680 375 680 370 681 375 681 374 681 371 682 372 682 376 682 371 683 376 683 375 683 372 684 373 684 377 684 372 685 377 685 376 685 373 686 370 686 374 686 373 687 374 687 377 687 378 688 380 688 379 688 378 689 381 689 380 689 382 690 383 690 384 690 382 691 384 691 385 691 378 692 379 692 383 692 378 693 383 693 382 693 379 694 380 694 384 694 379 695 384 695 383 695 380 696 381 696 385 696 380 697 385 697 384 697 381 698 378 698 382 698 381 699 382 699 385 699 386 700 388 700 387 700 386 701 389 701 388 701 390 702 391 702 392 702 390 703 392 703 393 703 386 704 387 704 391 704 386 705 391 705 390 705 387 706 388 706 392 706 387 707 392 707 391 707 388 708 389 708 393 708 388 709 393 709 392 709 389 710 386 710 390 710 389 711 390 711 393 711 394 712 396 712 395 712 394 713 397 713 396 713 398 714 399 714 400 714 398 715 400 715 401 715 394 716 395 716 399 716 394 717 399 717 398 717 395 718 396 718 400 718 395 719 400 719 399 719 396 720 397 720 401 720 396 721 401 721 400 721 397 722 394 722 398 722 397 723 398 723 401 723 402 724 404 724 403 724 402 725 405 725 404 725 406 726 407 726 408 726 406 727 408 727 409 727 402 728 403 728 407 728 402 729 407 729 406 729 403 730 404 730 408 730 403 731 408 731 407 731 404 732 405 732 409 732 404 733 409 733 408 733 405 734 402 734 406 734 405 735 406 735 409 735 410 736 412 736 411 736 410 737 413 737 412 737 414 738 415 738 416 738 414 739 416 739 417 739 410 740 411 740 415 740 410 741 415 741 414 741 411 742 412 742 416 742 411 743 416 743 415 743 412 744 413 744 417 744 412 745 417 745 416 745 413 746 410 746 414 746 413 747 414 747 417 747 418 748 420 748 419 748 418 749 421 749 420 749 422 750 423 750 424 750 422 751 424 751 425 751 418 752 419 752 423 752 418 753 423 753 422 753 419 754 420 754 424 754 419 755 424 755 423 755 420 756 421 756 425 756 420 757 425 757 424 757 421 758 418 758 422 758 421 759 422 759 425 759</p></triangles>
</mesh></geometry></library_geometries><library_visual_scenes><visual_scene id="Scene"><node id="mesh"><instance_geometry url="#geometry"/></node></visual_scene></library_visual_scenes><scene><instance_visual_scene url="#Scene"/></scene></COLLADA>