<?xml version="1.0" encoding="UTF-8"?>
<COLLADA xmlns="http://www.collada.org/2005/11/COLLADASchema" version="1.4.1">
<asset><contributor><authoring_tool>Summit Estate procedural mesh exporter</authoring_tool></contributor><created>2026-09-11T00:00:00Z</created><modified>2026-09-11T00:00:00Z</modified><unit name="meter" meter="1"/><up_axis>Z_UP</up_axis></asset>
<library_geometries><geometry id="geometry" name="geometry"><mesh>
<source id="positions"><float_array id="positions-array" count="540">69.10000 109.00000 81.30000 69.07071 109.07071 81.30000 69.00000 109.10000 81.30000 68.92929 109.07071 81.30000 68.90000 109.00000 81.30000 68.92929 108.92929 81.30000 69.00000 108.90000 81.30000 69.07071 108.92929 81.30000 69.10000 109.00000 83.30000 69.07071 109.07071 83.30000 69.00000 109.10000 83.30000 68.92929 109.07071 83.30000 68.90000 109.00000 83.30000 68.92929 108.92929 83.30000 69.00000 108.90000 83.30000 69.07071 108.92929 83.30000 69.00000 109.00000 81.30000 69.00000 109.00000 83.30000 88.10000 109.00000 81.30000 88.07071 109.07071 81.30000 88.00000 109.10000 81.30000 87.92929 109.07071 81.30000 87.90000 109.00000 81.30000 87.92929 108.92929 81.30000 88.00000 108.90000 81.30000 88.07071 108.92929 81.30000 88.10000 109.00000 83.30000 88.07071 109.07071 83.30000 88.00000 109.10000 83.30000 87.92929 109.07071 83.30000 87.90000 109.00000 83.30000 87.92929 108.92929 83.30000 88.00000 108.90000 83.30000 88.07071 108.92929 83.30000 88.00000 109.00000 81.30000 88.00000 109.00000 83.30000 25.10000 128.00000 75.80000 25.07071 128.07071 75.80000 25.00000 128.10000 75.80000 24.92929 128.07071 75.80000 24.90000 128.00000 75.80000 24.92929 127.92929 75.80000 25.00000 127.90000 75.80000 25.07071 127.92929 75.80000 25.10000 128.00000 77.80000 25.07071 128.07071 77.80000 25.00000 128.10000 77.80000 24.92929 128.07071 77.80000 24.90000 128.00000 77.80000 24.92929 127.92929 77.80000 25.00000 127.90000 77.80000 25.07071 127.92929 77.80000 25.00000 128.00000 75.80000 25.00000 128.00000 77.80000 34.10000 118.00000 81.20000 34.07071 118.07071 81.20000 34.00000 118.10000 81.20000 33.92929 118.07071 81.20000 33.90000 118.00000 81.20000 33.92929 117.92929 81.20000 34.00000 117.90000 81.20000 34.07071 117.92929 81.20000 34.10000 118.00000 83.20000 34.07071 118.07071 83.20000 34.00000 118.10000 83.20000 33.92929 118.07071 83.20000 33.90000 118.00000 83.20000 33.92929 117.92929 83.20000 34.00000 117.90000 83.20000 34.07071 117.92929 83.20000 34.00000 118.00000 81.20000 34.00000 118.00000 83.20000 65.10000 131.00000 81.20000 65.07071 131.07071 81.20000 65.00000 131.10000 81.20000 64.92929 131.07071 81.20000 64.90000 131.00000 81.20000 64.92929 130.92929 81.20000 65.00000 130.90000 81.20000 65.07071 130.92929 81.20000 65.10000 131.00000 83.20000 65.07071 131.07071 83.20000 65.00000 131.10000 83.20000 64.92929 131.07071 83.20000 64.90000 131.00000 83.20000 64.92929 130.92929 83.20000 65.00000 130.90000 83.20000 65.07071 130.92929 83.20000 65.00000 131.00000 81.20000 65.00000 131.00000 83.20000 33.10000 159.00000 81.20000 33.07071 159.07071 81.20000 33.00000 159.10000 81.20000 32.92929 159.07071 81.20000 32.90000 159.00000 81.20000 32.92929 158.92929 81.20000 33.00000 158.90000 81.20000 33.07071 158.92929 81.20000 33.10000 159.00000 83.20000 33.07071 159.07071 83.20000 33.00000 159.10000 83.20000 32.92929 159.07071 83.20000 32.90000 159.00000 83.20000 32.92929 158.92929 83.20000 33.00000 158.90000 83.20000 33.07071 158.92929 83.20000 33.00000 159.00000 81.20000 33.00000 159.00000 83.20000 35.10000 129.00000 92.40000 35.07071 129.07071 92.40000 35.00000 129.10000 92.40000 34.92929 129.07071 92.40000 34.90000 129.00000 92.40000 34.92929 128.92929 92.40000 35.00000 128.90000 92.40000 35.07071 128.92929 92.40000 35.10000 129.00000 94.40000 35.07071 129.07071 94.40000 35.00000 129.10000 94.40000 34.92929 129.07071 94.40000 34.90000 129.00000 94.40000 34.92929 128.92929 94.40000 35.00000 128.90000 94.40000 35.07071 128.92929 94.40000 35.00000 129.00000 92.40000 35.00000 129.00000 94.40000 64.10000 155.00000 92.40000 64.07071 155.07071 92.40000 64.00000 155.10000 92.40000 63.92929 155.07071 92.40000 63.90000 155.00000 92.40000 63.92929 154.92929 92.40000 64.00000 154.90000 92.40000 64.07071 154.92929 92.40000 64.10000 155.00000 94.40000 64.07071 155.07071 94.40000 64.00000 155.10000 94.40000 63.92929 155.07071 94.40000 63.90000 155.00000 94.40000 63.92929 154.92929 94.40000 64.00000 154.90000 94.40000 64.07071 154.92929 94.40000 64.00000 155.00000 92.40000 64.00000 155.00000 94.40000 92.10000 160.00000 92.40000 92.07071 160.07071 92.40000 92.00000 160.10000 92.40000 91.92929 160.07071 92.40000 91.90000 160.00000 92.40000 91.92929 159.92929 92.40000 92.00000 159.90000 92.40000 92.07071 159.92929 92.40000 92.10000 160.00000 94.40000 92.07071 160.07071 94.40000 92.00000 160.10000 94.40000 91.92929 160.07071 94.40000 91.90000 160.00000 94.40000 91.92929 159.92929 94.40000 92.00000 159.90000 94.40000 92.07071 159.92929 94.40000 92.00000 160.00000 92.40000 92.00000 160.00000 94.40000 121.10000 160.00000 92.40000 121.07071 160.07071 92.40000 121.00000 160.10000 92.40000 120.92929 160.07071 92.40000 120.90000 160.00000 92.40000 120.92929 159.92929 92.40000 121.00000 159.90000 92.40000 121.07071 159.92929 92.40000 121.10000 160.00000 94.40000 121.07071 160.07071 94.40000 121.00000 160.10000 94.40000 120.92929 160.07071 94.40000 120.90000 160.00000 94.40000 120.92929 159.92929 94.40000 121.00000 159.90000 94.40000 121.07071 159.92929 94.40000 121.00000 160.00000 92.40000 121.00000 160.00000 94.40000</float_array><technique_common><accessor source="#positions-array" count="180" stride="3"><param name="X" type="float"/><param name="Y" type="float"/><param name="Z" type="float"/></accessor></technique_common></source>
<source id="normals"><float_array id="normals-array" count="960">0.92388 0.38268 0.00000 0.92388 0.38268 -0.00000 0.00000 0.00000 -1.00000 0.00000 0.00000 1.00000 0.38268 0.92388 0.00000 0.38268 0.92388 -0.00000 0.00000 0.00000 -1.00000 0.00000 0.00000 1.00000 -0.38268 0.92388 0.00000 -0.38268 0.92388 0.00000 0.00000 0.00000 -1.00000 0.00000 -0.00000 1.00000 -0.92388 0.38268 0.00000 -0.92388 0.38268 0.00000 0.00000 0.00000 -1.00000 0.00000 0.00000 1.00000 -0.92388 -0.38268 0.00000 -0.92388 -0.38268 0.00000 -0.00000 0.00000 -1.00000 0.00000 0.00000 1.00000 -0.38268 -0.92388 0.00000 -0.38268 -0.92388 0.00000 0.00000 -0.00000 -1.00000 0.00000 0.00000 1.00000 0.38268 -0.92388 0.00000 0.38268 -0.92388 0.00000 0.00000 0.00000 -1.00000 0.00000 0.00000 1.00000 0.92388 -0.38268 0.00000 0.92388 -0.38268 0.00000 0.00000 0.00000 -1.00000 -0.00000 0.00000 1.00000 0.92388 0.38268 0.00000 0.92388 0.38268 -0.00000 0.00000 0.00000 -1.00000 0.00000 0.00000 1.00000 0.38268 0.92388 0.00000 0.38268 0.92388 -0.00000 0.00000 0.00000 -1.00000 0.00000 0.00000 1.00000 -0.38268 0.92388 0.00000 -0.38268 0.92388 0.00000 0.00000 0.00000 -1.00000 0.00000 -0.00000 1.00000 -0.92388 0.38268 0.00000 -0.92388 0.38268 0.00000 0.00000 0.00000 -1.00000 0.00000 0.00000 1.00000 -0.92388 -0.38268 0.00000 -0.92388 -0.38268 0.00000 -0.00000 0.00000 -1.00000 0.00000 0.00000 1.00000 -0.38268 -0.92388 0.00000 -0.38268 -0.92388 0.00000 0.00000 -0.00000 -1.00000 0.00000 0.00000 1.00000 0.38268 -0.92388 0.00000 0.38268 -0.92388 0.00000 0.00000 0.00000 -1.00000 0.00000 0.00000 1.00000 0.92388 -0.38268 0.00000 0.92388 -0.38268 0.00000 0.00000 0.00000 -1.00000 -0.00000 0.00000 1.00000 0.92388 0.38268 0.00000 0.92388 0.38268 -0.00000 0.00000 0.00000 -1.00000 0.00000 0.00000 1.00000 0.38268 0.92388 0.00000 0.38268 0.92388 -0.00000 0.00000 0.00000 -1.00000 0.00000 0.00000 1.00000 -0.38268 0.92388 0.00000 -0.38268 0.92388 0.00000 0.00000 0.00000 -1.00000 0.00000 -0.00000 1.00000 -0.92388 0.38268 0.00000 -0.92388 0.38268 0.00000 0.00000 0.00000 -1.00000 0.00000 0.00000 1.00000 -0.92388 -0.38268 0.00000 -0.92388 -0.38268 0.00000 -0.00000 0.00000 -1.00000 0.00000 0.00000 1.00000 -0.38268 -0.92388 0.00000 -0.38268 -0.92388 0.00000 0.00000 -0.00000 -1.00000 0.00000 0.00000 1.00000 0.38268 -0.92388 0.00000 0.38268 -0.92388 0.00000 0.00000 0.00000 -1.00000 0.00000 0.00000 1.00000 0.92388 -0.38268 0.00000 0.92388 -0.38268 0.00000 0.00000 0.00000 -1.00000 -0.00000 0.00000 1.00000 0.92388 0.38268 0.00000 0.92388 0.38268 -0.00000 0.00000 0.00000 -1.00000 0.00000 0.00000 1.00000 0.38268 0.92388 0.00000 0.38268 0.92388 -0.00000 0.00000 0.00000 -1.00000 0.00000 0.00000 1.00000 -0.38268 0.92388 0.00000 -0.38268 0.92388 0.00000 0.00000 0.00000 -1.00000 0.00000 -0.00000 1.00000 -0.92388 0.38268 0.00000 -0.92388 0.38268 0.00000 0.00000 0.00000 -1.00000 0.00000 0.00000 1.00000 -0.92388 -0.38268 0.00000 -0.92388 -0.38268 0.00000 -0.00000 0.00000 -1.00000 0.00000 0.00000 1.00000 -0.38268 -0.92388 0.00000 -0.38268 -0.92388 0.00000 0.00000 -0.00000 -1.00000 0.00000 0.00000 1.00000 0.38268 -0.92388 0.00000 0.38268 -0.92388 0.00000 0.00000 0.00000 -1.00000 0.00000 0.00000 1.00000 0.92388 -0.38268 0.00000 0.92388 -0.38268 0.00000 0.00000 0.00000 -1.00000 -0.00000 0.00000 1.00000 0.92388 0.38268 0.00000 0.92388 0.38268 -0.00000 0.00000 0.00000 -1.00000 0.00000 0.00000 1.00000 0.38268 0.92388 0.00000 0.38268 0.92388 -0.00000 0.00000 0.00000 -1.00000 0.00000 0.00000 1.00000 -0.38268 0.92388 0.00000 -0.38268 0.92388 0.00000 0.00000 0.00000 -1.00000 0.00000 -0.00000 1.00000 -0.92388 0.38268 0.00000 -0.92388 0.38268 0.00000 0.00000 0.00000 -1.00000 0.00000 0.00000 1.00000 -0.92388 -0.38268 0.00000 -0.92388 -0.38268 0.00000 -0.00000 0.00000 -1.00000 0.00000 0.00000 1.00000 -0.38268 -0.92388 0.00000 -0.38268 -0.92388 0.00000 0.00000 -0.00000 -1.00000 0.00000 0.00000 1.00000 0.38268 -0.92388 0.00000 0.38268 -0.92388 0.00000 0.00000 0.00000 -1.00000 0.00000 0.00000 1.00000 0.92388 -0.38268 0.00000 0.92388 -0.38268 0.00000 0.00000 0.00000 -1.00000 -0.00000 0.00000 1.00000 0.92388 0.38268 0.00000 0.92388 0.38268 -0.00000 0.00000 0.00000 -1.00000 0.00000 0.00000 1.00000 0.38268 0.92388 0.00000 0.38268 0.92388 -0.00000 0.00000 0.00000 -1.00000 0.00000 0.00000 1.00000 -0.38268 0.92388 0.00000 -0.38268 0.92388 0.00000 0.00000 0.00000 -1.00000 0.00000 -0.00000 1.00000 -0.92388 0.38268 0.00000 -0.92388 0.38268 0.00000 0.00000 0.00000 -1.00000 0.00000 0.00000 1.00000 -0.92388 -0.38268 0.00000 -0.92388 -0.38268 0.00000 -0.00000 0.00000 -1.00000 0.00000 0.00000 1.00000 -0.38268 -0.92388 0.00000 -0.38268 -0.92388 0.00000 0.00000 -0.00000 -1.00000 0.00000 0.00000 1.00000 0.38268 -0.92388 0.00000 0.38268 -0.92388 0.00000 0.00000 0.00000 -1.00000 0.00000 0.00000 1.00000 0.92388 -0.38268 0.00000 0.92388 -0.38268 0.00000 0.00000 0.00000 -1.00000 -0.00000 0.00000 1.00000 0.92388 0.38268 0.00000 0.92388 0.38268 -0.00000 0.00000 0.00000 -1.00000 0.00000 0.00000 1.00000 0.38268 0.92388 0.00000 0.38268 0.92388 -0.00000 0.00000 0.00000 -1.00000 0.00000 0.00000 1.00000 -0.38268 0.92388 0.00000 -0.38268 0.92388 0.00000 0.00000 0.00000 -1.00000 0.00000 -0.00000 1.00000 -0.92388 0.38268 0.00000 -0.92388 0.38268 0.00000 0.00000 0.00000 -1.00000 0.00000 0.00000 1.00000 -0.92388 -0.38268 0.00000 -0.92388 -0.38268 0.00000 -0.00000 0.00000 -1.00000 0.00000 0.00000 1.00000 -0.38268 -0.92388 0.00000 -0.38268 -0.92388 0.00000 0.00000 -0.00000 -1.00000 0.00000 0.00000 1.00000 0.38268 -0.92388 0.00000 0.38268 -0.92388 0.00000 0.00000 0.00000 -1.00000 0.00000 0.00000 1.00000 0.92388 -0.38268 0.00000 0.92388 -0.38268 0.00000 0.00000 0.00000 -1.00000 -0.00000 0.00000 1.00000 0.92388 0.38268 0.00000 0.92388 0.38268 -0.00000 0.00000 0.00000 -1.00000 0.00000 0.00000 1.00000 0.38268 0.92388 0.00000 0.38268 0.92388 -0.00000 0.00000 0.00000 -1.00000 0.00000 0.00000 1.00000 -0.38268 0.92388 0.00000 -0.38268 0.92388 0.00000 0.00000 0.00000 -1.00000 0.00000 -0.00000 1.00000 -0.92388 0.38268 0.00000 -0.92388 0.38268 0.00000 0.00000 0.00000 -1.00000 0.00000 0.00000 1.00000 -0.92388 -0.38268 0.00000 -0.92388 -0.38268 0.00000 -0.00000 0.00000 -1.00000 0.00000 0.00000 1.00000 -0.38268 -0.92388 0.00000 -0.38268 -0.92388 0.00000 0.00000 -0.00000 -1.00000 0.00000 0.00000 1.00000 0.38268 -0.92388 0.00000 0.38268 -0.92388 0.00000 0.00000 0.00000 -1.00000 0.00000 0.00000 1.00000 0.92388 -0.38268 0.00000 0.92388 -0.38268 0.00000 0.00000 0.00000 -1.00000 -0.00000 0.00000 1.00000 0.92388 0.38268 0.00000 0.92388 0.38268 -0.00000 0.00000 0.00000 -1.00000 0.00000 0.00000 1.00000 0.38268 0.92388 0.00000 0.38268 0.92388 -0.00000 0.00000 0.00000 -1.00000 0.00000 0.00000 1.00000 -0.38268 0.92388 0.00000 -0.38268 0.92388 0.00000 0.00000 0.00000 -1.00000 0.00000 -0.00000 1.00000 -0.92388 0.38268 0.00000 -0.92388 0.38268 0.00000 0.00000 0.00000 -1.00000 0.00000 0.00000 1.00000 -0.92388 -0.38268 0.00000 -0.92388 -0.38268 0.00000 -0.00000 0.00000 -1.00000 0.00000 0.00000 1.00000 -0.38268 -0.92388 0.00000 -0.38268 -0.92388 0.00000 0.00000 -0.00000 -1.00000 0.00000 0.00000 1.00000 0.38268 -0.92388 0.00000 0.38268 -0.92388 0.00000 0.00000 0.00000 -1.00000 0.00000 0.00000 1.00000 0.92388 -0.38268 0.00000 0.92388 -0.38268 0.00000 0.00000 0.00000 -1.00000 -0.00000 0.00000 1.00000 0.92388 0.38268 0.00000 0.92388 0.38268 -0.00000 0.00000 0.00000 -1.00000 0.00000 0.00000 1.00000 0.38268 0.92388 0.00000 0.38268 0.92388 -0.00000 0.00000 0.00000 -1.00000 0.00000 0.00000 1.00000 -0.38268 0.92388 0.00000 -0.38268 0.92388 0.00000 0.00000 0.00000 -1.00000 0.00000 -0.00000 1.00000 -0.92388 0.38268 0.00000 -0.92388 0.38268 0.00000 0.00000 0.00000 -1.00000 0.00000 0.00000 1.00000 -0.92388 -0.38268 0.00000 -0.92388 -0.38268 0.00000 -0.00000 0.00000 -1.00000 0.00000 0.00000 1.00000 -0.38268 -0.92388 0.00000 -0.38268 -0.92388 0.00000 0.00000 -0.00000 -1.00000 0.00000 0.00000 1.00000 0.38268 -0.92388 0.00000 0.38268 -0.92388 0.00000 0.00000 0.00000 -1.00000 0.00000 0.00000 1.00000 0.92388 -0.38268 0.00000 0.92388 -0.38268 0.00000 0.00000 0.00000 -1.00000 -0.00000 0.00000 1.00000</float_array><technique_common><accessor source="#normals-array" count="320" stride="3"><param name="X" type="float"/><param name="Y" type="float"/><param name="Z" type="float"/></accessor></technique_common></source>
<vertices id="vertices"><input semantic="POSITION" source="#positions"/></vertices><triangles count="320"><input semantic="VERTEX" source="#vertices" offset="0"/><input semantic="NORMAL" source="#normals" offset="1"/><p>0 0 1 0 9 0 0 1 9 1 8 1 16 2 1 2 0 2 17 3 8 3 9 3 1 4 2 4 10 4 1 5 10 5 9 5 16 6 2 6 1 6 17 7 9 7 10 7 2 8 3 8 11 8 2 9 11 9 10 9 16 10 3 10 2 10 17 11 10 11 11 11 3 12 4 12 12 12 3 13 12 13 11 13 16 14 4 14 3 14 17 15 11 15 12 15 4 16 5 16 13 16 4 17 13 17 12 17 16 18 5 18 4 18 17 19 12 19 13 19 5 20 6 20 14 20 5 21 14 21 13 21 16 22 6 22 5 22 17 23 13 23 14 23 6 24 7 24 15 24 6 25 15 25 14 25 16 26 7 26 6 26 17 27 14 27 15 27 7 28 0 28 8 28 7 29 8 29 15 29 16 30 0 30 7 30 17 31 15 31 8 31 18 32 19 32 27 32 18 33 27 33 26 33 34 34 19 34 18 34 35 35 26 35 27 35 19 36 20 36 28 36 19 37 28 37 27 37 34 38 20 38 19 38 35 39 27 39 28 39 20 40 21 40 29 40 20 41 29 41 28 41 34 42 21 42 20 42 35 43 28 43 29 43 21 44 22 44 30 44 21 45 30 45 29 45 34 46 22 46 21 46 35 47 29 47 30 47 22 48 23 48 31 48 22 49 31 49 30 49 34 50 23 50 22 50 35 51 30 51 31 51 23 52 24 52 32 52 23 53 32 53 31 53 34 54 24 54 23 54 35 55 31 55 32 55 24 56 25 56 33 56 24 57 33 57 32 57 34 58 25 58 24 58 35 59 32 59 33 59 25 60 18 60 26 60 25 61 26 61 33 61 34 62 18 62 25 62 35 63 33 63 26 63 36 64 37 64 45 64 36 65 45 65 44 65 52 66 37 66 36 66 53 67 44 67 45 67 37 68 38 68 46 68 37 69 46 69 45 69 52 70 38 70 37 70 53 71 45 71 46 71 38 72 39 72 47 72 38 73 47 73 46 73 52 74 39 74 38 74 53 75 46 75 47 75 39 76 40 76 48 76 39 77 48 77 47 77 52 78 40 78 39 78 53 79 47 79 48 79 40 80 41 80 49 80 40 81 49 81 48 81 52 82 41 82 40 82 53 83 48 83 49 83 41 84 42 84 50 84 41 85 50 85 49 85 52 86 42 86 41 86 53 87 49 87 50 87 42 88 43 88 51 88 42 89 51 89 50 89 52 90 43 90 42 90 53 91 50 91 51 91 43 92 36 92 44 92 43 93 44 93 51 93 52 94 36 94 43 94 53 95 51 95 44 95 54 96 55 96 63 96 54 97 63 97 62 97 70 98 55 98 54 98 71 99 62 99 63 99 55 100 56 100 64 100 55 101 64 101 63 101 70 102 56 102 55 102 71 103 63 103 64 103 56 104 57 104 65 104 56 105 65 105 64 105 70 106 57 106 56 106 71 107 64 107 65 107 57 108 58 108 66 108 57 109 66 109 65 109 70 110 58 110 57 110 71 111 65 111 66 111 58 112 59 112 67 112 58 113 67 113 66 113 70 114 59 114 58 114 71 115 66 115 67 115 59 116 60 116 68 116 59 117 68 117 67 117 70 118 60 118 59 118 71 119 67 119 68 119 60 120 61 120 69 120 60 121 69 121 68 121 70 122 61 122 60 122 71 123 68 123 69 123 61 124 54 124 62 124 61 125 62 125 69 125 70 126 54 126 61 126 71 127 69 127 62 127 72 128 73 128 81 128 72 129 81 129 80 129 88 130 73 130 72 130 89 131 80 131 81 131 73 132 74 132 82 132 73 133 82 133 81 133 88 134 74 134 73 134 89 135 81 135 82 135 74 136 75 136 83 136 74 137 83 137 82 137 88 138 75 138 74 138 89 139 82 139 83 139 75 140 76 140 84 140 75 141 84 141 83 141 88 142 76 142 75 142 89 143 83 143 84 143 76 144 77 144 85 144 76 145 85 145 84 145 88 146 77 146 76 146 89 147 84 147 85 147 77 148 78 148 86 148 77 149 86 149 85 149 88 150 78 150 77 150 89 151 85 151 86 151 78 152 79 152 87 152 78 153 87 153 86 153 88 154 79 154 78 154 89 155 86 155 87 155 79 156 72 156 80 156 79 157 80 157 87 157 88 158 72 158 79 158 89 159 87 159 80 159 90 160 91 160 99 160 90 161 99 161 98 161 106 162 91 162 90 162 107 163 98 163 99 163 91 164 92 164 100 164 91 165 100 165 99 165 106 166 92 166 91 166 107 167 99 167 100 167 92 168 93 168 101 168 92 169 101 169 100 169 106 170 93 170 92 170 107 171 100 171 101 171 93 172 94 172 102 172 93 173 102 173 101 173 106 174 94 174 93 174 107 175 101 175 102 175 94 176 95 176 103 176 94 177 103 177 102 177 106 178 95 178 94 178 107 179 102 179 103 179 95 180 96 180 104 180 95 181 104 181 103 181 106 182 96 182 95 182 107 183 103 183 104 183 96 184 97 184 105 184 96 185 105 185 104 185 106 186 97 186 96 186 107 187 104 187 105 187 97 188 90 188 98 188 97 189 98 189 105 189 106 190 90 190 97 190 107 191 105 191 98 191 108 192 109 192 117 192 108 193 117 193 116 193 124 194 109 194 108 194 125 195 116 195 117 195 109 196 110 196 118 196 109 197 118 197 117 197 124 198 110 198 109 198 125 199 117 199 118 199 110 200 111 200 119 200 110 201 119 201 118 201 124 202 111 202 110 202 125 203 118 203 119 203 111 204 112 204 120 204 111 205 120 205 119 205 124 206 112 206 111 206 125 207 119 207 120 207 112 208 113 208 121 208 112 209 121 209 120 209 124 210 113 210 112 210 125 211 120 211 121 211 113 212 114 212 122 212 113 213 122 213 121 213 124 214 114 214 113 214 125 215 121 215 122 215 114 216 115 216 123 216 114 217 123 217 122 217 124 218 115 218 114 218 125 219 122 219 123 219 115 220 108 220 116 220 115 221 116 221 123 221 124 222 108 222 115 222 125 223 123 223 116 223 126 224 127 224 135 224 126 225 135 225 134 225 142 226 127 226 126 226 143 227 134 227 135 227 127 228 128 228 136 228 127 229 136 229 135 229 142 230 128 230 127 230 143 231 135 231 136 231 128 232 129 232 137 232 128 233 137 233 136 233 142 234 129 234 128 234 143 235 136 235 137 235 129 236 130 236 138 236 129 237 138 237 137 237 142 238 130 238 129 238 143 239 137 239 138 239 130 240 131 240 139 240 130 241 139 241 138 241 142 242 131 242 130 242 143 243 138 243 139 243 131 244 132 244 140 244 131 245 140 245 139 245 142 246 132 246 131 246 143 247 139 247 140 247 132 248 133 248 141 248 132 249 141 249 140 249 142 250 133 250 132 250 143 251 140 251 141 251 133 252 126 252 134 252 133 253 134 253 141 253 142 254 126 254 133 254 143 255 141 255 134 255 144 256 145 256 153 256 144 257 153 257 152 257 160 258 145 258 144 258 161 259 152 259 153 259 145 260 146 260 154 260 145 261 154 261 153 261 160 262 146 262 145 262 161 263 153 263 154 263 146 264 147 264 155 264 146 265 155 265 154 265 160 266 147 266 146 266 161 267 154 267 155 267 147 268 148 268 156 268 147 269 156 269 155 269 160 270 148 270 147 270 161 271 155 271 156 271 148 272 149 272 157 272 148 273 157 273 156 273 160 274 149 274 148 274 161 275 156 275 157 275 149 276 150 276 158 276 149 277 158 277 157 277 160 278 150 278 149 278 161 279 157 279 158 279 150 280 151 280 159 280 150 281 159 281 158 281 160 282 151 282 150 282 161 283 158 283 159 283 151 284 144 284 152 284 151 285 152 285 159 285 160 286 144 286 151 286 161 287 159 287 152 287 162 288 163 288 171 288 162 289 171 289 170 289 178 290 163 290 162 290 179 291 170 291 171 291 163 292 164 292 172 292 163 293 172 293 171 293 178 294 164 294 163 294 179 295 171 295 172 295 164 296 165 296 173 296 164 297 173 297 172 297 178 298 165 298 164 298 179 299 172 299 173 299 165 300 166 300 174 300 165 301 174 301 173 301 178 302 166 302 165 302 179 303 173 303 174 303 166 304 167 304 175 304 166 305 175 305 174 305 178 306 167 306 166 306 179 307 174 307 175 307 167 308 168 308 176 308 167 309 176 309 175 309 178 310 168 310 167 310 179 311 175 311 176 311 168 312 169 312 177 312 168 313 177 313 176 313 178 314 169 314 168 314 179 315 176 315 177 315 169 316 162 316 170 316 169 317 170 317 177 317 178 318 162 318 169 318 179 319 177 319 170 319</p></triangles>
</mesh></geometry></library_geometries><library_visual_scenes><visual_scene id="Scene"><node id="mesh"><instance_geometry url="#geometry"/></node></visual_scene></library_visual_scenes><scene><instance_visual_scene url="#Scene"/></scene></COLLADA>