<?xml version="1.0" encoding="UTF-8"?>
<COLLADA xmlns="http://www.collada.org/2005/11/COLLADASchema" version="1.4.1">
<asset><contributor><authoring_tool>Summit Estate procedural mesh exporter</authoring_tool></contributor><created>2026-09-11T00:00:00Z</created><modified>2026-09-11T00:00:00Z</modified><unit name="meter" meter="1"/><up_axis>Z_UP</up_axis></asset>
<library_geometries><geometry id="geometry" name="geometry"><mesh>
<source id="positions"><float_array id="positions-array" count="1368">57.31643 161.42000 80.46000 57.51643 161.42000 80.46000 57.51643 161.78000 80.46000 57.31643 161.78000 80.46000 57.31643 161.42000 80.92000 57.51643 161.42000 80.92000 57.51643 161.78000 80.92000 57.31643 161.78000 80.92000 59.70214 161.42000 80.46000 59.90214 161.42000 80.46000 59.90214 161.78000 80.46000 59.70214 161.78000 80.46000 59.70214 161.42000 80.92000 59.90214 161.42000 80.92000 59.90214 161.78000 80.92000 59.70214 161.78000 80.92000 62.08786 161.42000 80.46000 62.28786 161.42000 80.46000 62.28786 161.78000 80.46000 62.08786 161.78000 80.46000 62.08786 161.42000 80.92000 62.28786 161.42000 80.92000 62.28786 161.78000 80.92000 62.08786 161.78000 80.92000 64.47357 161.42000 80.46000 64.67357 161.42000 80.46000 64.67357 161.78000 80.46000 64.47357 161.78000 80.46000 64.47357 161.42000 80.92000 64.67357 161.42000 80.92000 64.67357 161.78000 80.92000 64.47357 161.78000 80.92000 58.50929 161.42000 81.30000 58.70929 161.42000 81.30000 58.70929 161.78000 81.30000 58.50929 161.78000 81.30000 58.50929 161.42000 81.70000 58.70929 161.42000 81.70000 58.70929 161.78000 81.70000 58.50929 161.78000 81.70000 60.89500 161.42000 81.30000 61.09500 161.42000 81.30000 61.09500 161.78000 81.30000 60.89500 161.78000 81.30000 60.89500 161.42000 81.70000 61.09500 161.42000 81.70000 61.09500 161.78000 81.70000 60.89500 161.78000 81.70000 63.28071 161.42000 81.30000 63.48071 161.42000 81.30000 63.48071 161.78000 81.30000 63.28071 161.78000 81.30000 63.28071 161.42000 81.70000 63.48071 161.42000 81.70000 63.48071 161.78000 81.70000 63.28071 161.78000 81.70000 57.31643 161.42000 82.14000 57.51643 161.42000 82.14000 57.51643 161.78000 82.14000 57.31643 161.78000 82.14000 57.31643 161.42000 82.72000 57.51643 161.42000 82.72000 57.51643 161.78000 82.72000 57.31643 161.78000 82.72000 59.70214 161.42000 82.14000 59.90214 161.42000 82.14000 59.90214 161.78000 82.14000 59.70214 161.78000 82.14000 59.70214 161.42000 82.72000 59.90214 161.42000 82.72000 59.90214 161.78000 82.72000 59.70214 161.78000 82.72000 62.08786 161.42000 82.14000 62.28786 161.42000 82.14000 62.28786 161.78000 82.14000 62.08786 161.78000 82.14000 62.08786 161.42000 82.72000 62.28786 161.42000 82.72000 62.28786 161.78000 82.72000 62.08786 161.78000 82.72000 64.47357 161.42000 82.14000 64.67357 161.42000 82.14000 64.67357 161.78000 82.14000 64.47357 161.78000 82.14000 64.47357 161.42000 82.72000 64.67357 161.42000 82.72000 64.67357 161.78000 82.72000 64.47357 161.78000 82.72000 58.50929 161.42000 82.98000 58.70929 161.42000 82.98000 58.70929 161.78000 82.98000 58.50929 161.78000 82.98000 58.50929 161.42000 83.50000 58.70929 161.42000 83.50000 58.70929 161.78000 83.50000 58.50929 161.78000 83.50000 60.89500 161.42000 82.98000 61.09500 161.42000 82.98000 61.09500 161.78000 82.98000 60.89500 161.78000 82.98000 60.89500 161.42000 83.50000 61.09500 161.42000 83.50000 61.09500 161.78000 83.50000 60.89500 161.78000 83.50000 63.28071 161.42000 82.98000 63.48071 161.42000 82.98000 63.48071 161.78000 82.98000 63.28071 161.78000 82.98000 63.28071 161.42000 83.50000 63.48071 161.42000 83.50000 63.48071 161.78000 83.50000 63.28071 161.78000 83.50000 99.00000 116.10500 75.80000 113.00000 116.10500 75.80000 113.00000 116.10500 76.40000 109.60000 116.10500 78.40000 106.80000 116.10500 77.30000 104.50000 116.10500 78.70000 101.60000 116.10500 77.10000 99.00000 116.10500 77.60000 89.38786 161.82000 75.06000 89.58786 161.82000 75.06000 89.58786 162.18000 75.06000 89.38786 162.18000 75.06000 89.38786 161.82000 75.52000 89.58786 161.82000 75.52000 89.58786 162.18000 75.52000 89.38786 162.18000 75.52000 91.05929 161.82000 75.06000 91.25929 161.82000 75.06000 91.25929 162.18000 75.06000 91.05929 162.18000 75.06000 91.05929 161.82000 75.52000 91.25929 161.82000 75.52000 91.25929 162.18000 75.52000 91.05929 162.18000 75.52000 92.73071 161.82000 75.06000 92.93071 161.82000 75.06000 92.93071 162.18000 75.06000 92.73071 162.18000 75.06000 92.73071 161.82000 75.52000 92.93071 161.82000 75.52000 92.93071 162.18000 75.52000 92.73071 162.18000 75.52000 94.40214 161.82000 75.06000 94.60214 161.82000 75.06000 94.60214 162.18000 75.06000 94.40214 162.18000 75.06000 94.40214 161.82000 75.52000 94.60214 161.82000 75.52000 94.60214 162.18000 75.52000 94.40214 162.18000 75.52000 90.22357 161.82000 75.90000 90.42357 161.82000 75.90000 90.42357 162.18000 75.90000 90.22357 162.18000 75.90000 90.22357 161.82000 76.30000 90.42357 161.82000 76.30000 90.42357 162.18000 76.30000 90.22357 162.18000 76.30000 91.89500 161.82000 75.90000 92.09500 161.82000 75.90000 92.09500 162.18000 75.90000 91.89500 162.18000 75.90000 91.89500 161.82000 76.30000 92.09500 161.82000 76.30000 92.09500 162.18000 76.30000 91.89500 162.18000 76.30000 93.56643 161.82000 75.90000 93.76643 161.82000 75.90000 93.76643 162.18000 75.90000 93.56643 162.18000 75.90000 93.56643 161.82000 76.30000 93.76643 161.82000 76.30000 93.76643 162.18000 76.30000 93.56643 162.18000 76.30000 89.38786 161.82000 76.74000 89.58786 161.82000 76.74000 89.58786 162.18000 76.74000 89.38786 162.18000 76.74000 89.38786 161.82000 77.32000 89.58786 161.82000 77.32000 89.58786 162.18000 77.32000 89.38786 162.18000 77.32000 91.05929 161.82000 76.74000 91.25929 161.82000 76.74000 91.25929 162.18000 76.74000 91.05929 162.18000 76.74000 91.05929 161.82000 77.32000 91.25929 161.82000 77.32000 91.25929 162.18000 77.32000 91.05929 162.18000 77.32000 92.73071 161.82000 76.74000 92.93071 161.82000 76.74000 92.93071 162.18000 76.74000 92.73071 162.18000 76.74000 92.73071 161.82000 77.32000 92.93071 161.82000 77.32000 92.93071 162.18000 77.32000 92.73071 162.18000 77.32000 94.40214 161.82000 76.74000 94.60214 161.82000 76.74000 94.60214 162.18000 76.74000 94.40214 162.18000 76.74000 94.40214 161.82000 77.32000 94.60214 161.82000 77.32000 94.60214 162.18000 77.32000 94.40214 162.18000 77.32000 90.22357 161.82000 77.58000 90.42357 161.82000 77.58000 90.42357 162.18000 77.58000 90.22357 162.18000 77.58000 90.22357 161.82000 78.10000 90.42357 161.82000 78.10000 90.42357 162.18000 78.10000 90.22357 162.18000 78.10000 91.89500 161.82000 77.58000 92.09500 161.82000 77.58000 92.09500 162.18000 77.58000 91.89500 162.18000 77.58000 91.89500 161.82000 78.10000 92.09500 161.82000 78.10000 92.09500 162.18000 78.10000 91.89500 162.18000 78.10000 93.56643 161.82000 77.58000 93.76643 161.82000 77.58000 93.76643 162.18000 77.58000 93.56643 162.18000 77.58000 93.56643 161.82000 78.10000 93.76643 161.82000 78.10000 93.76643 162.18000 78.10000 93.56643 162.18000 78.10000 96.38786 161.82000 75.06000 96.58786 161.82000 75.06000 96.58786 162.18000 75.06000 96.38786 162.18000 75.06000 96.38786 161.82000 75.52000 96.58786 161.82000 75.52000 96.58786 162.18000 75.52000 96.38786 162.18000 75.52000 98.05929 161.82000 75.06000 98.25929 161.82000 75.06000 98.25929 162.18000 75.06000 98.05929 162.18000 75.06000 98.05929 161.82000 75.52000 98.25929 161.82000 75.52000 98.25929 162.18000 75.52000 98.05929 162.18000 75.52000 99.73071 161.82000 75.06000 99.93071 161.82000 75.06000 99.93071 162.18000 75.06000 99.73071 162.18000 75.06000 99.73071 161.82000 75.52000 99.93071 161.82000 75.52000 99.93071 162.18000 75.52000 99.73071 162.18000 75.52000 101.40214 161.82000 75.06000 101.60214 161.82000 75.06000 101.60214 162.18000 75.06000 101.40214 162.18000 75.06000 101.40214 161.82000 75.52000 101.60214 161.82000 75.52000 101.60214 162.18000 75.52000 101.40214 162.18000 75.52000 97.22357 161.82000 75.90000 97.42357 161.82000 75.90000 97.42357 162.18000 75.90000 97.22357 162.18000 75.90000 97.22357 161.82000 76.30000 97.42357 161.82000 76.30000 97.42357 162.18000 76.30000 97.22357 162.18000 76.30000 98.89500 161.82000 75.90000 99.09500 161.82000 75.90000 99.09500 162.18000 75.90000 98.89500 162.18000 75.90000 98.89500 161.82000 76.30000 99.09500 161.82000 76.30000 99.09500 162.18000 76.30000 98.89500 162.18000 76.30000 100.56643 161.82000 75.90000 100.76643 161.82000 75.90000 100.76643 162.18000 75.90000 100.56643 162.18000 75.90000 100.56643 161.82000 76.30000 100.76643 161.82000 76.30000 100.76643 162.18000 76.30000 100.56643 162.18000 76.30000 96.38786 161.82000 76.74000 96.58786 161.82000 76.74000 96.58786 162.18000 76.74000 96.38786 162.18000 76.74000 96.38786 161.82000 77.32000 96.58786 161.82000 77.32000 96.58786 162.18000 77.32000 96.38786 162.18000 77.32000 98.05929 161.82000 76.74000 98.25929 161.82000 76.74000 98.25929 162.18000 76.74000 98.05929 162.18000 76.74000 98.05929 161.82000 77.32000 98.25929 161.82000 77.32000 98.25929 162.18000 77.32000 98.05929 162.18000 77.32000 99.73071 161.82000 76.74000 99.93071 161.82000 76.74000 99.93071 162.18000 76.74000 99.73071 162.18000 76.74000 99.73071 161.82000 77.32000 99.93071 161.82000 77.32000 99.93071 162.18000 77.32000 99.73071 162.18000 77.32000 101.40214 161.82000 76.74000 101.60214 161.82000 76.74000 101.60214 162.18000 76.74000 101.40214 162.18000 76.74000 101.40214 161.82000 77.32000 101.60214 161.82000 77.32000 101.60214 162.18000 77.32000 101.40214 162.18000 77.32000 97.22357 161.82000 77.58000 97.42357 161.82000 77.58000 97.42357 162.18000 77.58000 97.22357 162.18000 77.58000 97.22357 161.82000 78.10000 97.42357 161.82000 78.10000 97.42357 162.18000 78.10000 97.22357 162.18000 78.10000 98.89500 161.82000 77.58000 99.09500 161.82000 77.58000 99.09500 162.18000 77.58000 98.89500 162.18000 77.58000 98.89500 161.82000 78.10000 99.09500 161.82000 78.10000 99.09500 162.18000 78.10000 98.89500 162.18000 78.10000 100.56643 161.82000 77.58000 100.76643 161.82000 77.58000 100.76643 162.18000 77.58000 100.56643 162.18000 77.58000 100.56643 161.82000 78.10000 100.76643 161.82000 78.10000 100.76643 162.18000 78.10000 100.56643 162.18000 78.10000 103.38786 161.82000 75.06000 103.58786 161.82000 75.06000 103.58786 162.18000 75.06000 103.38786 162.18000 75.06000 103.38786 161.82000 75.52000 103.58786 161.82000 75.52000 103.58786 162.18000 75.52000 103.38786 162.18000 75.52000 105.05929 161.82000 75.06000 105.25929 161.82000 75.06000 105.25929 162.18000 75.06000 105.05929 162.18000 75.06000 105.05929 161.82000 75.52000 105.25929 161.82000 75.52000 105.25929 162.18000 75.52000 105.05929 162.18000 75.52000 106.73071 161.82000 75.06000 106.93071 161.82000 75.06000 106.93071 162.18000 75.06000 106.73071 162.18000 75.06000 106.73071 161.82000 75.52000 106.93071 161.82000 75.52000 106.93071 162.18000 75.52000 106.73071 162.18000 75.52000 108.40214 161.82000 75.06000 108.60214 161.82000 75.06000 108.60214 162.18000 75.06000 108.40214 162.18000 75.06000 108.40214 161.82000 75.52000 108.60214 161.82000 75.52000 108.60214 162.18000 75.52000 108.40214 162.18000 75.52000 104.22357 161.82000 75.90000 104.42357 161.82000 75.90000 104.42357 162.18000 75.90000 104.22357 162.18000 75.90000 104.22357 161.82000 76.30000 104.42357 161.82000 76.30000 104.42357 162.18000 76.30000 104.22357 162.18000 76.30000 105.89500 161.82000 75.90000 106.09500 161.82000 75.90000 106.09500 162.18000 75.90000 105.89500 162.18000 75.90000 105.89500 161.82000 76.30000 106.09500 161.82000 76.30000 106.09500 162.18000 76.30000 105.89500 162.18000 76.30000 107.56643 161.82000 75.90000 107.76643 161.82000 75.90000 107.76643 162.18000 75.90000 107.56643 162.18000 75.90000 107.56643 161.82000 76.30000 107.76643 161.82000 76.30000 107.76643 162.18000 76.30000 107.56643 162.18000 76.30000 103.38786 161.82000 76.74000 103.58786 161.82000 76.74000 103.58786 162.18000 76.74000 103.38786 162.18000 76.74000 103.38786 161.82000 77.32000 103.58786 161.82000 77.32000 103.58786 162.18000 77.32000 103.38786 162.18000 77.32000 105.05929 161.82000 76.74000 105.25929 161.82000 76.74000 105.25929 162.18000 76.74000 105.05929 162.18000 76.74000 105.05929 161.82000 77.32000 105.25929 161.82000 77.32000 105.25929 162.18000 77.32000 105.05929 162.18000 77.32000 106.73071 161.82000 76.74000 106.93071 161.82000 76.74000 106.93071 162.18000 76.74000 106.73071 162.18000 76.74000 106.73071 161.82000 77.32000 106.93071 161.82000 77.32000 106.93071 162.18000 77.32000 106.73071 162.18000 77.32000 108.40214 161.82000 76.74000 108.60214 161.82000 76.74000 108.60214 162.18000 76.74000 108.40214 162.18000 76.74000 108.40214 161.82000 77.32000 108.60214 161.82000 77.32000 108.60214 162.18000 77.32000 108.40214 162.18000 77.32000 104.22357 161.82000 77.58000 104.42357 161.82000 77.58000 104.42357 162.18000 77.58000 104.22357 162.18000 77.58000 104.22357 161.82000 78.10000 104.42357 161.82000 78.10000 104.42357 162.18000 78.10000 104.22357 162.18000 78.10000 105.89500 161.82000 77.58000 106.09500 161.82000 77.58000 106.09500 162.18000 77.58000 105.89500 162.18000 77.58000 105.89500 161.82000 78.10000 106.09500 161.82000 78.10000 106.09500 162.18000 78.10000 105.89500 162.18000 78.10000 107.56643 161.82000 77.58000 107.76643 161.82000 77.58000 107.76643 162.18000 77.58000 107.56643 162.18000 77.58000 107.56643 161.82000 78.10000 107.76643 161.82000 78.10000 107.76643 162.18000 78.10000 107.56643 162.18000 78.10000</float_array><technique_common><accessor source="#positions-array" count="456" stride="3"><param name="X" type="float"/><param name="Y" type="float"/><param name="Z" type="float"/></accessor></technique_common></source>
<source id="normals"><float_array id="normals-array" count="2034">0.00000 0.00000 -1.00000 0.00000 0.00000 -1.00000 0.00000 0.00000 1.00000 0.00000 0.00000 1.00000 0.00000 -1.00000 0.00000 0.00000 -1.00000 0.00000 1.00000 0.00000 0.00000 1.00000 0.00000 0.00000 0.00000 1.00000 0.00000 0.00000 1.00000 -0.00000 -1.00000 0.00000 0.00000 -1.00000 0.00000 0.00000 0.00000 0.00000 -1.00000 0.00000 0.00000 -1.00000 0.00000 0.00000 1.00000 0.00000 0.00000 1.00000 0.00000 -1.00000 0.00000 0.00000 -1.00000 0.00000 1.00000 0.00000 0.00000 1.00000 0.00000 0.00000 0.00000 1.00000 0.00000 0.00000 1.00000 -0.00000 -1.00000 0.00000 0.00000 -1.00000 0.00000 0.00000 0.00000 0.00000 -1.00000 0.00000 0.00000 -1.00000 0.00000 0.00000 1.00000 0.00000 0.00000 1.00000 0.00000 -1.00000 0.00000 0.00000 -1.00000 0.00000 1.00000 0.00000 0.00000 1.00000 0.00000 0.00000 0.00000 1.00000 0.00000 0.00000 1.00000 -0.00000 -1.00000 0.00000 0.00000 -1.00000 0.00000 0.00000 0.00000 0.00000 -1.00000 0.00000 0.00000 -1.00000 0.00000 0.00000 1.00000 0.00000 0.00000 1.00000 0.00000 -1.00000 0.00000 0.00000 -1.00000 0.00000 1.00000 0.00000 0.00000 1.00000 0.00000 0.00000 0.00000 1.00000 0.00000 0.00000 1.00000 -0.00000 -1.00000 0.00000 0.00000 -1.00000 0.00000 0.00000 0.00000 0.00000 -1.00000 0.00000 0.00000 -1.00000 0.00000 0.00000 1.00000 0.00000 0.00000 1.00000 0.00000 -1.00000 0.00000 0.00000 -1.00000 0.00000 1.00000 0.00000 0.00000 1.00000 0.00000 0.00000 0.00000 1.00000 0.00000 0.00000 1.00000 -0.00000 -1.00000 0.00000 0.00000 -1.00000 0.00000 0.00000 0.00000 0.00000 -1.00000 0.00000 0.00000 -1.00000 0.00000 0.00000 1.00000 0.00000 0.00000 1.00000 0.00000 -1.00000 0.00000 0.00000 -1.00000 0.00000 1.00000 0.00000 0.00000 1.00000 0.00000 0.00000 0.00000 1.00000 0.00000 0.00000 1.00000 -0.00000 -1.00000 0.00000 0.00000 -1.00000 0.00000 0.00000 0.00000 0.00000 -1.00000 0.00000 0.00000 -1.00000 0.00000 0.00000 1.00000 0.00000 0.00000 1.00000 0.00000 -1.00000 0.00000 0.00000 -1.00000 0.00000 1.00000 0.00000 0.00000 1.00000 0.00000 0.00000 0.00000 1.00000 0.00000 0.00000 1.00000 -0.00000 -1.00000 0.00000 0.00000 -1.00000 0.00000 0.00000 0.00000 0.00000 -1.00000 0.00000 0.00000 -1.00000 0.00000 0.00000 1.00000 0.00000 0.00000 1.00000 0.00000 -1.00000 0.00000 0.00000 -1.00000 0.00000 1.00000 0.00000 0.00000 1.00000 0.00000 0.00000 0.00000 1.00000 0.00000 0.00000 1.00000 -0.00000 -1.00000 0.00000 0.00000 -1.00000 0.00000 0.00000 0.00000 0.00000 -1.00000 0.00000 0.00000 -1.00000 0.00000 0.00000 1.00000 0.00000 0.00000 1.00000 0.00000 -1.00000 0.00000 0.00000 -1.00000 0.00000 1.00000 0.00000 0.00000 1.00000 0.00000 0.00000 0.00000 1.00000 0.00000 0.00000 1.00000 -0.00000 -1.00000 0.00000 0.00000 -1.00000 0.00000 0.00000 0.00000 0.00000 -1.00000 0.00000 0.00000 -1.00000 0.00000 0.00000 1.00000 0.00000 0.00000 1.00000 0.00000 -1.00000 0.00000 0.00000 -1.00000 0.00000 1.00000 0.00000 0.00000 1.00000 0.00000 0.00000 0.00000 1.00000 0.00000 0.00000 1.00000 -0.00000 -1.00000 0.00000 0.00000 -1.00000 0.00000 0.00000 0.00000 0.00000 -1.00000 0.00000 0.00000 -1.00000 0.00000 0.00000 1.00000 0.00000 0.00000 1.00000 0.00000 -1.00000 0.00000 0.00000 -1.00000 0.00000 1.00000 0.00000 0.00000 1.00000 0.00000 0.00000 0.00000 1.00000 0.00000 0.00000 1.00000 -0.00000 -1.00000 0.00000 0.00000 -1.00000 0.00000 0.00000 0.00000 0.00000 -1.00000 0.00000 0.00000 -1.00000 0.00000 0.00000 1.00000 0.00000 0.00000 1.00000 0.00000 -1.00000 0.00000 0.00000 -1.00000 0.00000 1.00000 0.00000 0.00000 1.00000 0.00000 0.00000 0.00000 1.00000 0.00000 0.00000 1.00000 -0.00000 -1.00000 0.00000 0.00000 -1.00000 0.00000 0.00000 0.00000 0.00000 -1.00000 0.00000 0.00000 -1.00000 0.00000 0.00000 1.00000 0.00000 0.00000 1.00000 0.00000 -1.00000 0.00000 0.00000 -1.00000 0.00000 1.00000 0.00000 0.00000 1.00000 0.00000 0.00000 0.00000 1.00000 0.00000 0.00000 1.00000 -0.00000 -1.00000 0.00000 0.00000 -1.00000 0.00000 0.00000 0.00000 0.00000 -1.00000 0.00000 0.00000 -1.00000 0.00000 0.00000 1.00000 0.00000 0.00000 1.00000 0.00000 -1.00000 0.00000 0.00000 -1.00000 0.00000 1.00000 0.00000 0.00000 1.00000 0.00000 0.00000 0.00000 1.00000 0.00000 0.00000 1.00000 -0.00000 -1.00000 0.00000 0.00000 -1.00000 0.00000 0.00000 0.00000 -1.00000 0.00000 0.00000 -1.00000 0.00000 0.00000 1.00000 0.00000 0.00000 -1.00000 0.00000 0.00000 1.00000 0.00000 0.00000 -1.00000 0.00000 0.00000 0.00000 -1.00000 0.00000 0.00000 -1.00000 0.00000 0.00000 1.00000 0.00000 0.00000 1.00000 0.00000 -1.00000 0.00000 0.00000 -1.00000 0.00000 1.00000 0.00000 0.00000 1.00000 0.00000 0.00000 0.00000 1.00000 0.00000 0.00000 1.00000 -0.00000 -1.00000 0.00000 0.00000 -1.00000 0.00000 0.00000 0.00000 0.00000 -1.00000 0.00000 0.00000 -1.00000 0.00000 0.00000 1.00000 0.00000 0.00000 1.00000 0.00000 -1.00000 0.00000 0.00000 -1.00000 0.00000 1.00000 0.00000 0.00000 1.00000 0.00000 0.00000 0.00000 1.00000 0.00000 0.00000 1.00000 -0.00000 -1.00000 0.00000 0.00000 -1.00000 0.00000 0.00000 0.00000 0.00000 -1.00000 0.00000 0.00000 -1.00000 0.00000 0.00000 1.00000 0.00000 0.00000 1.00000 0.00000 -1.00000 0.00000 0.00000 -1.00000 0.00000 1.00000 0.00000 0.00000 1.00000 0.00000 0.00000 0.00000 1.00000 0.00000 0.00000 1.00000 -0.00000 -1.00000 0.00000 0.00000 -1.00000 0.00000 0.00000 0.00000 0.00000 -1.00000 0.00000 0.00000 -1.00000 0.00000 0.00000 1.00000 0.00000 0.00000 1.00000 0.00000 -1.00000 0.00000 0.00000 -1.00000 0.00000 1.00000 0.00000 0.00000 1.00000 0.00000 0.00000 0.00000 1.00000 0.00000 0.00000 1.00000 -0.00000 -1.00000 0.00000 0.00000 -1.00000 0.00000 0.00000 0.00000 0.00000 -1.00000 0.00000 0.00000 -1.00000 0.00000 0.00000 1.00000 0.00000 0.00000 1.00000 0.00000 -1.00000 0.00000 0.00000 -1.00000 0.00000 1.00000 0.00000 0.00000 1.00000 0.00000 0.00000 0.00000 1.00000 0.00000 0.00000 1.00000 -0.00000 -1.00000 0.00000 0.00000 -1.00000 0.00000 0.00000 0.00000 0.00000 -1.00000 0.00000 0.00000 -1.00000 0.00000 0.00000 1.00000 0.00000 0.00000 1.00000 0.00000 -1.00000 0.00000 0.00000 -1.00000 0.00000 1.00000 0.00000 0.00000 1.00000 0.00000 0.00000 0.00000 1.00000 0.00000 0.00000 1.00000 -0.00000 -1.00000 0.00000 0.00000 -1.00000 0.00000 0.00000 0.00000 0.00000 -1.00000 0.00000 0.00000 -1.00000 0.00000 0.00000 1.00000 0.00000 0.00000 1.00000 0.00000 -1.00000 0.00000 0.00000 -1.00000 0.00000 1.00000 0.00000 0.00000 1.00000 0.00000 0.00000 0.00000 1.00000 0.00000 0.00000 1.00000 -0.00000 -1.00000 0.00000 0.00000 -1.00000 0.00000 0.00000 0.00000 0.00000 -1.00000 0.00000 0.00000 -1.00000 0.00000 0.00000 1.00000 0.00000 0.00000 1.00000 0.00000 -1.00000 0.00000 0.00000 -1.00000 0.00000 1.00000 0.00000 0.00000 1.00000 0.00000 0.00000 0.00000 1.00000 0.00000 0.00000 1.00000 -0.00000 -1.00000 0.00000 0.00000 -1.00000 0.00000 0.00000 0.00000 0.00000 -1.00000 0.00000 0.00000 -1.00000 0.00000 0.00000 1.00000 0.00000 0.00000 1.00000 0.00000 -1.00000 0.00000 0.00000 -1.00000 0.00000 1.00000 0.00000 0.00000 1.00000 0.00000 0.00000 0.00000 1.00000 0.00000 0.00000 1.00000 -0.00000 -1.00000 0.00000 0.00000 -1.00000 0.00000 0.00000 0.00000 0.00000 -1.00000 0.00000 0.00000 -1.00000 0.00000 0.00000 1.00000 0.00000 0.00000 1.00000 0.00000 -1.00000 0.00000 0.00000 -1.00000 0.00000 1.00000 0.00000 0.00000 1.00000 0.00000 0.00000 0.00000 1.00000 0.00000 0.00000 1.00000 -0.00000 -1.00000 0.00000 0.00000 -1.00000 0.00000 0.00000 0.00000 0.00000 -1.00000 0.00000 0.00000 -1.00000 0.00000 0.00000 1.00000 0.00000 0.00000 1.00000 0.00000 -1.00000 0.00000 0.00000 -1.00000 0.00000 1.00000 0.00000 0.00000 1.00000 0.00000 0.00000 0.00000 1.00000 0.00000 0.00000 1.00000 -0.00000 -1.00000 0.00000 0.00000 -1.00000 0.00000 0.00000 0.00000 0.00000 -1.00000 0.00000 0.00000 -1.00000 0.00000 0.00000 1.00000 0.00000 0.00000 1.00000 0.00000 -1.00000 0.00000 0.00000 -1.00000 0.00000 1.00000 0.00000 0.00000 1.00000 0.00000 0.00000 0.00000 1.00000 0.00000 0.00000 1.00000 -0.00000 -1.00000 0.00000 0.00000 -1.00000 0.00000 0.00000 0.00000 0.00000 -1.00000 0.00000 0.00000 -1.00000 0.00000 0.00000 1.00000 0.00000 0.00000 1.00000 0.00000 -1.00000 0.00000 0.00000 -1.00000 0.00000 1.00000 0.00000 0.00000 1.00000 0.00000 0.00000 0.00000 1.00000 0.00000 0.00000 1.00000 -0.00000 -1.00000 0.00000 0.00000 -1.00000 0.00000 0.00000 0.00000 0.00000 -1.00000 0.00000 0.00000 -1.00000 0.00000 0.00000 1.00000 0.00000 0.00000 1.00000 0.00000 -1.00000 0.00000 0.00000 -1.00000 0.00000 1.00000 0.00000 0.00000 1.00000 0.00000 0.00000 0.00000 1.00000 0.00000 0.00000 1.00000 -0.00000 -1.00000 0.00000 0.00000 -1.00000 0.00000 0.00000 0.00000 0.00000 -1.00000 0.00000 0.00000 -1.00000 0.00000 0.00000 1.00000 0.00000 0.00000 1.00000 0.00000 -1.00000 0.00000 0.00000 -1.00000 0.00000 1.00000 0.00000 0.00000 1.00000 0.00000 0.00000 0.00000 1.00000 0.00000 0.00000 1.00000 -0.00000 -1.00000 0.00000 0.00000 -1.00000 0.00000 0.00000 0.00000 0.00000 -1.00000 0.00000 0.00000 -1.00000 0.00000 0.00000 1.00000 0.00000 0.00000 1.00000 0.00000 -1.00000 0.00000 0.00000 -1.00000 0.00000 1.00000 0.00000 0.00000 1.00000 0.00000 0.00000 0.00000 1.00000 0.00000 0.00000 1.00000 -0.00000 -1.00000 0.00000 0.00000 -1.00000 0.00000 0.00000 0.00000 0.00000 -1.00000 0.00000 0.00000 -1.00000 0.00000 0.00000 1.00000 0.00000 0.00000 1.00000 0.00000 -1.00000 0.00000 0.00000 -1.00000 0.00000 1.00000 0.00000 0.00000 1.00000 0.00000 0.00000 0.00000 1.00000 0.00000 0.00000 1.00000 -0.00000 -1.00000 0.00000 0.00000 -1.00000 0.00000 0.00000 0.00000 0.00000 -1.00000 0.00000 0.00000 -1.00000 0.00000 0.00000 1.00000 0.00000 0.00000 1.00000 0.00000 -1.00000 0.00000 0.00000 -1.00000 0.00000 1.00000 0.00000 0.00000 1.00000 0.00000 0.00000 0.00000 1.00000 0.00000 0.00000 1.00000 -0.00000 -1.00000 0.00000 0.00000 -1.00000 0.00000 0.00000 0.00000 0.00000 -1.00000 0.00000 0.00000 -1.00000 0.00000 0.00000 1.00000 0.00000 0.00000 1.00000 0.00000 -1.00000 0.00000 0.00000 -1.00000 0.00000 1.00000 0.00000 0.00000 1.00000 0.00000 0.00000 0.00000 1.00000 0.00000 0.00000 1.00000 -0.00000 -1.00000 0.00000 0.00000 -1.00000 0.00000 0.00000 0.00000 0.00000 -1.00000 0.00000 0.00000 -1.00000 0.00000 0.00000 1.00000 0.00000 0.00000 1.00000 0.00000 -1.00000 0.00000 0.00000 -1.00000 0.00000 1.00000 0.00000 0.00000 1.00000 0.00000 0.00000 0.00000 1.00000 0.00000 0.00000 1.00000 -0.00000 -1.00000 0.00000 0.00000 -1.00000 0.00000 0.00000 0.00000 0.00000 -1.00000 0.00000 0.00000 -1.00000 0.00000 0.00000 1.00000 0.00000 0.00000 1.00000 0.00000 -1.00000 0.00000 0.00000 -1.00000 0.00000 1.00000 0.00000 0.00000 1.00000 0.00000 0.00000 0.00000 1.00000 0.00000 0.00000 1.00000 -0.00000 -1.00000 0.00000 0.00000 -1.00000 0.00000 0.00000 0.00000 0.00000 -1.00000 0.00000 0.00000 -1.00000 0.00000 0.00000 1.00000 0.00000 0.00000 1.00000 0.00000 -1.00000 0.00000 0.00000 -1.00000 0.00000 1.00000 0.00000 0.00000 1.00000 0.00000 0.00000 0.00000 1.00000 0.00000 0.00000 1.00000 -0.00000 -1.00000 0.00000 0.00000 -1.00000 0.00000 0.00000 0.00000 0.00000 -1.00000 0.00000 0.00000 -1.00000 0.00000 0.00000 1.00000 0.00000 0.00000 1.00000 0.00000 -1.00000 0.00000 0.00000 -1.00000 0.00000 1.00000 0.00000 0.00000 1.00000 0.00000 0.00000 0.00000 1.00000 0.00000 0.00000 1.00000 -0.00000 -1.00000 0.00000 0.00000 -1.00000 0.00000 0.00000 0.00000 0.00000 -1.00000 0.00000 0.00000 -1.00000 0.00000 0.00000 1.00000 0.00000 0.00000 1.00000 0.00000 -1.00000 0.00000 0.00000 -1.00000 0.00000 1.00000 0.00000 0.00000 1.00000 0.00000 0.00000 0.00000 1.00000 0.00000 0.00000 1.00000 -0.00000 -1.00000 0.00000 0.00000 -1.00000 0.00000 0.00000 0.00000 0.00000 -1.00000 0.00000 0.00000 -1.00000 0.00000 0.00000 1.00000 0.00000 0.00000 1.00000 0.00000 -1.00000 0.00000 0.00000 -1.00000 0.00000 1.00000 0.00000 0.00000 1.00000 0.00000 0.00000 0.00000 1.00000 0.00000 0.00000 1.00000 -0.00000 -1.00000 0.00000 0.00000 -1.00000 0.00000 0.00000 0.00000 0.00000 -1.00000 0.00000 0.00000 -1.00000 0.00000 0.00000 1.00000 0.00000 0.00000 1.00000 0.00000 -1.00000 0.00000 0.00000 -1.00000 0.00000 1.00000 0.00000 0.00000 1.00000 0.00000 0.00000 0.00000 1.00000 0.00000 0.00000 1.00000 -0.00000 -1.00000 0.00000 0.00000 -1.00000 0.00000 0.00000 0.00000 0.00000 -1.00000 0.00000 0.00000 -1.00000 0.00000 0.00000 1.00000 0.00000 0.00000 1.00000 0.00000 -1.00000 0.00000 0.00000 -1.00000 0.00000 1.00000 0.00000 0.00000 1.00000 0.00000 0.00000 0.00000 1.00000 0.00000 0.00000 1.00000 -0.00000 -1.00000 0.00000 0.00000 -1.00000 0.00000 0.00000 0.00000 0.00000 -1.00000 0.00000 0.00000 -1.00000 0.00000 0.00000 1.00000 0.00000 0.00000 1.00000 0.00000 -1.00000 0.00000 0.00000 -1.00000 0.00000 1.00000 0.00000 0.00000 1.00000 0.00000 0.00000 0.00000 1.00000 0.00000 0.00000 1.00000 -0.00000 -1.00000 0.00000 0.00000 -1.00000 0.00000 0.00000 0.00000 0.00000 -1.00000 0.00000 0.00000 -1.00000 0.00000 0.00000 1.00000 0.00000 0.00000 1.00000 0.00000 -1.00000 0.00000 0.00000 -1.00000 0.00000 1.00000 0.00000 0.00000 1.00000 0.00000 0.00000 0.00000 1.00000 0.00000 0.00000 1.00000 -0.00000 -1.00000 0.00000 0.00000 -1.00000 0.00000 0.00000 0.00000 0.00000 -1.00000 0.00000 0.00000 -1.00000 0.00000 0.00000 1.00000 0.00000 0.00000 1.00000 0.00000 -1.00000 0.00000 0.00000 -1.00000 0.00000 1.00000 0.00000 0.00000 1.00000 0.00000 0.00000 0.00000 1.00000 0.00000 0.00000 1.00000 -0.00000 -1.00000 0.00000 0.00000 -1.00000 0.00000 0.00000 0.00000 0.00000 -1.00000 0.00000 0.00000 -1.00000 0.00000 0.00000 1.00000 0.00000 0.00000 1.00000 0.00000 -1.00000 0.00000 0.00000 -1.00000 0.00000 1.00000 0.00000 0.00000 1.00000 0.00000 0.00000 0.00000 1.00000 0.00000 0.00000 1.00000 -0.00000 -1.00000 0.00000 0.00000 -1.00000 0.00000 0.00000 0.00000 0.00000 -1.00000 0.00000 0.00000 -1.00000 0.00000 0.00000 1.00000 0.00000 0.00000 1.00000 0.00000 -1.00000 0.00000 0.00000 -1.00000 0.00000 1.00000 0.00000 0.00000 1.00000 0.00000 0.00000 0.00000 1.00000 0.00000 0.00000 1.00000 -0.00000 -1.00000 0.00000 0.00000 -1.00000 0.00000 0.00000 0.00000 0.00000 -1.00000 0.00000 0.00000 -1.00000 0.00000 0.00000 1.00000 0.00000 0.00000 1.00000 0.00000 -1.00000 0.00000 0.00000 -1.00000 0.00000 1.00000 0.00000 0.00000 1.00000 0.00000 0.00000 0.00000 1.00000 0.00000 0.00000 1.00000 -0.00000 -1.00000 0.00000 0.00000 -1.00000 0.00000 0.00000 0.00000 0.00000 -1.00000 0.00000 0.00000 -1.00000 0.00000 0.00000 1.00000 0.00000 0.00000 1.00000 0.00000 -1.00000 0.00000 0.00000 -1.00000 0.00000 1.00000 0.00000 0.00000 1.00000 0.00000 0.00000 0.00000 1.00000 0.00000 0.00000 1.00000 -0.00000 -1.00000 0.00000 0.00000 -1.00000 0.00000 0.00000 0.00000 0.00000 -1.00000 0.00000 0.00000 -1.00000 0.00000 0.00000 1.00000 0.00000 0.00000 1.00000 0.00000 -1.00000 0.00000 0.00000 -1.00000 0.00000 1.00000 0.00000 0.00000 1.00000 0.00000 0.00000 0.00000 1.00000 0.00000 0.00000 1.00000 -0.00000 -1.00000 0.00000 0.00000 -1.00000 0.00000 0.00000 0.00000 0.00000 -1.00000 0.00000 0.00000 -1.00000 0.00000 0.00000 1.00000 0.00000 0.00000 1.00000 0.00000 -1.00000 0.00000 0.00000 -1.00000 0.00000 1.00000 0.00000 0.00000 1.00000 0.00000 0.00000 0.00000 1.00000 0.00000 0.00000 1.00000 -0.00000 -1.00000 0.00000 0.00000 -1.00000 0.00000 0.00000 0.00000 0.00000 -1.00000 0.00000 0.00000 -1.00000 0.00000 0.00000 1.00000 0.00000 0.00000 1.00000 0.00000 -1.00000 0.00000 0.00000 -1.00000 0.00000 1.00000 0.00000 0.00000 1.00000 0.00000 0.00000 0.00000 1.00000 0.00000 0.00000 1.00000 -0.00000 -1.00000 0.00000 0.00000 -1.00000 0.00000 0.00000 0.00000 0.00000 -1.00000 0.00000 0.00000 -1.00000 0.00000 0.00000 1.00000 0.00000 0.00000 1.00000 0.00000 -1.00000 0.00000 0.00000 -1.00000 0.00000 1.00000 0.00000 0.00000 1.00000 0.00000 0.00000 0.00000 1.00000 0.00000 0.00000 1.00000 -0.00000 -1.00000 0.00000 0.00000 -1.00000 0.00000 0.00000 0.00000 0.00000 -1.00000 0.00000 0.00000 -1.00000 0.00000 0.00000 1.00000 0.00000 0.00000 1.00000 0.00000 -1.00000 0.00000 0.00000 -1.00000 0.00000 1.00000 0.00000 0.00000 1.00000 0.00000 0.00000 0.00000 1.00000 0.00000 0.00000 1.00000 -0.00000 -1.00000 0.00000 0.00000 -1.00000 0.00000 0.00000 0.00000 0.00000 -1.00000 0.00000 0.00000 -1.00000 0.00000 0.00000 1.00000 0.00000 0.00000 1.00000 0.00000 -1.00000 0.00000 0.00000 -1.00000 0.00000 1.00000 0.00000 0.00000 1.00000 0.00000 0.00000 0.00000 1.00000 0.00000 0.00000 1.00000 -0.00000 -1.00000 0.00000 0.00000 -1.00000 0.00000 0.00000 0.00000 0.00000 -1.00000 0.00000 0.00000 -1.00000 0.00000 0.00000 1.00000 0.00000 0.00000 1.00000 0.00000 -1.00000 0.00000 0.00000 -1.00000 0.00000 1.00000 0.00000 0.00000 1.00000 0.00000 0.00000 0.00000 1.00000 0.00000 0.00000 1.00000 -0.00000 -1.00000 0.00000 0.00000 -1.00000 0.00000 0.00000 0.00000 0.00000 -1.00000 0.00000 0.00000 -1.00000 0.00000 0.00000 1.00000 0.00000 0.00000 1.00000 0.00000 -1.00000 0.00000 0.00000 -1.00000 0.00000 1.00000 0.00000 0.00000 1.00000 0.00000 0.00000 0.00000 1.00000 0.00000 0.00000 1.00000 -0.00000 -1.00000 0.00000 0.00000 -1.00000 0.00000 0.00000</float_array><technique_common><accessor source="#normals-array" count="678" stride="3"><param name="X" type="float"/><param name="Y" type="float"/><param name="Z" type="float"/></accessor></technique_common></source>
<vertices id="vertices"><input semantic="POSITION" source="#positions"/></vertices><triangles count="678"><input semantic="VERTEX" source="#vertices" offset="0"/><input semantic="NORMAL" source="#normals" offset="1"/><p>0 0 2 0 1 0 0 1 3 1 2 1 4 2 5 2 6 2 4 3 6 3 7 3 0 4 1 4 5 4 0 5 5 5 4 5 1 6 2 6 6 6 1 7 6 7 5 7 2 8 3 8 7 8 2 9 7 9 6 9 3 10 0 10 4 10 3 11 4 11 7 11 8 12 10 12 9 12 8 13 11 13 10 13 12 14 13 14 14 14 12 15 14 15 15 15 8 16 9 16 13 16 8 17 13 17 12 17 9 18 10 18 14 18 9 19 14 19 13 19 10 20 11 20 15 20 10 21 15 21 14 21 11 22 8 22 12 22 11 23 12 23 15 23 16 24 18 24 17 24 16 25 19 25 18 25 20 26 21 26 22 26 20 27 22 27 23 27 16 28 17 28 21 28 16 29 21 29 20 29 17 30 18 30 22 30 17 31 22 31 21 31 18 32 19 32 23 32 18 33 23 33 22 33 19 34 16 34 20 34 19 35 20 35 23 35 24 36 26 36 25 36 24 37 27 37 26 37 28 38 29 38 30 38 28 39 30 39 31 39 24 40 25 40 29 40 24 41 29 41 28 41 25 42 26 42 30 42 25 43 30 43 29 43 26 44 27 44 31 44 26 45 31 45 30 45 27 46 24 46 28 46 27 47 28 47 31 47 32 48 34 48 33 48 32 49 35 49 34 49 36 50 37 50 38 50 36 51 38 51 39 51 32 52 33 52 37 52 32 53 37 53 36 53 33 54 34 54 38 54 33 55 38 55 37 55 34 56 35 56 39 56 34 57 39 57 38 57 35 58 32 58 36 58 35 59 36 59 39 59 40 60 42 60 41 60 40 61 43 61 42 61 44 62 45 62 46 62 44 63 46 63 47 63 40 64 41 64 45 64 40 65 45 65 44 65 41 66 42 66 46 66 41 67 46 67 45 67 42 68 43 68 47 68 42 69 47 69 46 69 43 70 40 70 44 70 43 71 44 71 47 71 48 72 50 72 49 72 48 73 51 73 50 73 52 74 53 74 54 74 52 75 54 75 55 75 48 76 49 76 53 76 48 77 53 77 52 77 49 78 50 78 54 78 49 79 54 79 53 79 50 80 51 80 55 80 50 81 55 81 54 81 51 82 48 82 52 82 51 83 52 83 55 83 56 84 58 84 57 84 56 85 59 85 58 85 60 86 61 86 62 86 60 87 62 87 63 87 56 88 57 88 61 88 56 89 61 89 60 89 57 90 58 90 62 90 57 91 62 91 61 91 58 92 59 92 63 92 58 93 63 93 62 93 59 94 56 94 60 94 59 95 60 95 63 95 64 96 66 96 65 96 64 97 67 97 66 97 68 98 69 98 70 98 68 99 70 99 71 99 64 100 65 100 69 100 64 101 69 101 68 101 65 102 66 102 70 102 65 103 70 103 69 103 66 104 67 104 71 104 66 105 71 105 70 105 67 106 64 106 68 106 67 107 68 107 71 107 72 108 74 108 73 108 72 109 75 109 74 109 76 110 77 110 78 110 76 111 78 111 79 111 72 112 73 112 77 112 72 113 77 113 76 113 73 114 74 114 78 114 73 115 78 115 77 115 74 116 75 116 79 116 74 117 79 117 78 117 75 118 72 118 76 118 75 119 76 119 79 119 80 120 82 120 81 120 80 121 83 121 82 121 84 122 85 122 86 122 84 123 86 123 87 123 80 124 81 124 85 124 80 125 85 125 84 125 81 126 82 126 86 126 81 127 86 127 85 127 82 128 83 128 87 128 82 129 87 129 86 129 83 130 80 130 84 130 83 131 84 131 87 131 88 132 90 132 89 132 88 133 91 133 90 133 92 134 93 134 94 134 92 135 94 135 95 135 88 136 89 136 93 136 88 137 93 137 92 137 89 138 90 138 94 138 89 139 94 139 93 139 90 140 91 140 95 140 90 141 95 141 94 141 91 142 88 142 92 142 91 143 92 143 95 143 96 144 98 144 97 144 96 145 99 145 98 145 100 146 101 146 102 146 100 147 102 147 103 147 96 148 97 148 101 148 96 149 101 149 100 149 97 150 98 150 102 150 97 151 102 151 101 151 98 152 99 152 103 152 98 153 103 153 102 153 99 154 96 154 100 154 99 155 100 155 103 155 104 156 106 156 105 156 104 157 107 157 106 157 108 158 109 158 110 158 108 159 110 159 111 159 104 160 105 160 109 160 104 161 109 161 108 161 105 162 106 162 110 162 105 163 110 163 109 163 106 164 107 164 111 164 106 165 111 165 110 165 107 166 104 166 108 166 107 167 108 167 111 167 112 168 113 168 114 168 112 169 114 169 115 169 112 170 115 170 116 170 112 171 116 171 117 171 112 172 117 172 118 172 112 173 118 173 119 173 120 174 122 174 121 174 120 175 123 175 122 175 124 176 125 176 126 176 124 177 126 177 127 177 120 178 121 178 125 178 120 179 125 179 124 179 121 180 122 180 126 180 121 181 126 181 125 181 122 182 123 182 127 182 122 183 127 183 126 183 123 184 120 184 124 184 123 185 124 185 127 185 128 186 130 186 129 186 128 187 131 187 130 187 132 188 133 188 134 188 132 189 134 189 135 189 128 190 129 190 133 190 128 191 133 191 132 191 129 192 130 192 134 192 129 193 134 193 133 193 130 194 131 194 135 194 130 195 135 195 134 195 131 196 128 196 132 196 131 197 132 197 135 197 136 198 138 198 137 198 136 199 139 199 138 199 140 200 141 200 142 200 140 201 142 201 143 201 136 202 137 202 141 202 136 203 141 203 140 203 137 204 138 204 142 204 137 205 142 205 141 205 138 206 139 206 143 206 138 207 143 207 142 207 139 208 136 208 140 208 139 209 140 209 143 209 144 210 146 210 145 210 144 211 147 211 146 211 148 212 149 212 150 212 148 213 150 213 151 213 144 214 145 214 149 214 144 215 149 215 148 215 145 216 146 216 150 216 145 217 150 217 149 217 146 218 147 218 151 218 146 219 151 219 150 219 147 220 144 220 148 220 147 221 148 221 151 221 152 222 154 222 153 222 152 223 155 223 154 223 156 224 157 224 158 224 156 225 158 225 159 225 152 226 153 226 157 226 152 227 157 227 156 227 153 228 154 228 158 228 153 229 158 229 157 229 154 230 155 230 159 230 154 231 159 231 158 231 155 232 152 232 156 232 155 233 156 233 159 233 160 234 162 234 161 234 160 235 163 235 162 235 164 236 165 236 166 236 164 237 166 237 167 237 160 238 161 238 165 238 160 239 165 239 164 239 161 240 162 240 166 240 161 241 166 241 165 241 162 242 163 242 167 242 162 243 167 243 166 243 163 244 160 244 164 244 163 245 164 245 167 245 168 246 170 246 169 246 168 247 171 247 170 247 172 248 173 248 174 248 172 249 174 249 175 249 168 250 169 250 173 250 168 251 173 251 172 251 169 252 170 252 174 252 169 253 174 253 173 253 170 254 171 254 175 254 170 255 175 255 174 255 171 256 168 256 172 256 171 257 172 257 175 257 176 258 178 258 177 258 176 259 179 259 178 259 180 260 181 260 182 260 180 261 182 261 183 261 176 262 177 262 181 262 176 263 181 263 180 263 177 264 178 264 182 264 177 265 182 265 181 265 178 266 179 266 183 266 178 267 183 267 182 267 179 268 176 268 180 268 179 269 180 269 183 269 184 270 186 270 185 270 184 271 187 271 186 271 188 272 189 272 190 272 188 273 190 273 191 273 184 274 185 274 189 274 184 275 189 275 188 275 185 276 186 276 190 276 185 277 190 277 189 277 186 278 187 278 191 278 186 279 191 279 190 279 187 280 184 280 188 280 187 281 188 281 191 281 192 282 194 282 193 282 192 283 195 283 194 283 196 284 197 284 198 284 196 285 198 285 199 285 192 286 193 286 197 286 192 287 197 287 196 287 193 288 194 288 198 288 193 289 198 289 197 289 194 290 195 290 199 290 194 291 199 291 198 291 195 292 192 292 196 292 195 293 196 293 199 293 200 294 202 294 201 294 200 295 203 295 202 295 204 296 205 296 206 296 204 297 206 297 207 297 200 298 201 298 205 298 200 299 205 299 204 299 201 300 202 300 206 300 201 301 206 301 205 301 202 302 203 302 207 302 202 303 207 303 206 303 203 304 200 304 204 304 203 305 204 305 207 305 208 306 210 306 209 306 208 307 211 307 210 307 212 308 213 308 214 308 212 309 214 309 215 309 208 310 209 310 213 310 208 311 213 311 212 311 209 312 210 312 214 312 209 313 214 313 213 313 210 314 211 314 215 314 210 315 215 315 214 315 211 316 208 316 212 316 211 317 212 317 215 317 216 318 218 318 217 318 216 319 219 319 218 319 220 320 221 320 222 320 220 321 222 321 223 321 216 322 217 322 221 322 216 323 221 323 220 323 217 324 218 324 222 324 217 325 222 325 221 325 218 326 219 326 223 326 218 327 223 327 222 327 219 328 216 328 220 328 219 329 220 329 223 329 224 330 226 330 225 330 224 331 227 331 226 331 228 332 229 332 230 332 228 333 230 333 231 333 224 334 225 334 229 334 224 335 229 335 228 335 225 336 226 336 230 336 225 337 230 337 229 337 226 338 227 338 231 338 226 339 231 339 230 339 227 340 224 340 228 340 227 341 228 341 231 341 232 342 234 342 233 342 232 343 235 343 234 343 236 344 237 344 238 344 236 345 238 345 239 345 232 346 233 346 237 346 232 347 237 347 236 347 233 348 234 348 238 348 233 349 238 349 237 349 234 350 235 350 239 350 234 351 239 351 238 351 235 352 232 352 236 352 235 353 236 353 239 353 240 354 242 354 241 354 240 355 243 355 242 355 244 356 245 356 246 356 244 357 246 357 247 357 240 358 241 358 245 358 240 359 245 359 244 359 241 360 242 360 246 360 241 361 246 361 245 361 242 362 243 362 247 362 242 363 247 363 246 363 243 364 240 364 244 364 243 365 244 365 247 365 248 366 250 366 249 366 248 367 251 367 250 367 252 368 253 368 254 368 252 369 254 369 255 369 248 370 249 370 253 370 248 371 253 371 252 371 249 372 250 372 254 372 249 373 254 373 253 373 250 374 251 374 255 374 250 375 255 375 254 375 251 376 248 376 252 376 251 377 252 377 255 377 256 378 258 378 257 378 256 379 259 379 258 379 260 380 261 380 262 380 260 381 262 381 263 381 256 382 257 382 261 382 256 383 261 383 260 383 257 384 258 384 262 384 257 385 262 385 261 385 258 386 259 386 263 386 258 387 263 387 262 387 259 388 256 388 260 388 259 389 260 389 263 389 264 390 266 390 265 390 264 391 267 391 266 391 268 392 269 392 270 392 268 393 270 393 271 393 264 394 265 394 269 394 264 395 269 395 268 395 265 396 266 396 270 396 265 397 270 397 269 397 266 398 267 398 271 398 266 399 271 399 270 399 267 400 264 400 268 400 267 401 268 401 271 401 272 402 274 402 273 402 272 403 275 403 274 403 276 404 277 404 278 404 276 405 278 405 279 405 272 406 273 406 277 406 272 407 277 407 276 407 273 408 274 408 278 408 273 409 278 409 277 409 274 410 275 410 279 410 274 411 279 411 278 411 275 412 272 412 276 412 275 413 276 413 279 413 280 414 282 414 281 414 280 415 283 415 282 415 284 416 285 416 286 416 284 417 286 417 287 417 280 418 281 418 285 418 280 419 285 419 284 419 281 420 282 420 286 420 281 421 286 421 285 421 282 422 283 422 287 422 282 423 287 423 286 423 283 424 280 424 284 424 283 425 284 425 287 425 288 426 290 426 289 426 288 427 291 427 290 427 292 428 293 428 294 428 292 429 294 429 295 429 288 430 289 430 293 430 288 431 293 431 292 431 289 432 290 432 294 432 289 433 294 433 293 433 290 434 291 434 295 434 290 435 295 435 294 435 291 436 288 436 292 436 291 437 292 437 295 437 296 438 298 438 297 438 296 439 299 439 298 439 300 440 301 440 302 440 300 441 302 441 303 441 296 442 297 442 301 442 296 443 301 443 300 443 297 444 298 444 302 444 297 445 302 445 301 445 298 446 299 446 303 446 298 447 303 447 302 447 299 448 296 448 300 448 299 449 300 449 303 449 304 450 306 450 305 450 304 451 307 451 306 451 308 452 309 452 310 452 308 453 310 453 311 453 304 454 305 454 309 454 304 455 309 455 308 455 305 456 306 456 310 456 305 457 310 457 309 457 306 458 307 458 311 458 306 459 311 459 310 459 307 460 304 460 308 460 307 461 308 461 311 461 312 462 314 462 313 462 312 463 315 463 314 463 316 464 317 464 318 464 316 465 318 465 319 465 312 466 313 466 317 466 312 467 317 467 316 467 313 468 314 468 318 468 313 469 318 469 317 469 314 470 315 470 319 470 314 471 319 471 318 471 315 472 312 472 316 472 315 473 316 473 319 473 320 474 322 474 321 474 320 475 323 475 322 475 324 476 325 476 326 476 324 477 326 477 327 477 320 478 321 478 325 478 320 479 325 479 324 479 321 480 322 480 326 480 321 481 326 481 325 481 322 482 323 482 327 482 322 483 327 483 326 483 323 484 320 484 324 484 323 485 324 485 327 485 328 486 330 486 329 486 328 487 331 487 330 487 332 488 333 488 334 488 332 489 334 489 335 489 328 490 329 490 333 490 328 491 333 491 332 491 329 492 330 492 334 492 329 493 334 493 333 493 330 494 331 494 335 494 330 495 335 495 334 495 331 496 328 496 332 496 331 497 332 497 335 497 336 498 338 498 337 498 336 499 339 499 338 499 340 500 341 500 342 500 340 501 342 501 343 501 336 502 337 502 341 502 336 503 341 503 340 503 337 504 338 504 342 504 337 505 342 505 341 505 338 506 339 506 343 506 338 507 343 507 342 507 339 508 336 508 340 508 339 509 340 509 343 509 344 510 346 510 345 510 344 511 347 511 346 511 348 512 349 512 350 512 348 513 350 513 351 513 344 514 345 514 349 514 344 515 349 515 348 515 345 516 346 516 350 516 345 517 350 517 349 517 346 518 347 518 351 518 346 519 351 519 350 519 347 520 344 520 348 520 347 521 348 521 351 521 352 522 354 522 353 522 352 523 355 523 354 523 356 524 357 524 358 524 356 525 358 525 359 525 352 526 353 526 357 526 352 527 357 527 356 527 353 528 354 528 358 528 353 529 358 529 357 529 354 530 355 530 359 530 354 531 359 531 358 531 355 532 352 532 356 532 355 533 356 533 359 533 360 534 362 534 361 534 360 535 363 535 362 535 364 536 365 536 366 536 364 537 366 537 367 537 360 538 361 538 365 538 360 539 365 539 364 539 361 540 362 540 366 540 361 541 366 541 365 541 362 542 363 542 367 542 362 543 367 543 366 543 363 544 360 544 364 544 363 545 364 545 367 545 368 546 370 546 369 546 368 547 371 547 370 547 372 548 373 548 374 548 372 549 374 549 375 549 368 550 369 550 373 550 368 551 373 551 372 551 369 552 370 552 374 552 369 553 374 553 373 553 370 554 371 554 375 554 370 555 375 555 374 555 371 556 368 556 372 556 371 557 372 557 375 557 376 558 378 558 377 558 376 559 379 559 378 559 380 560 381 560 382 560 380 561 382 561 383 561 376 562 377 562 381 562 376 563 381 563 380 563 377 564 378 564 382 564 377 565 382 565 381 565 378 566 379 566 383 566 378 567 383 567 382 567 379 568 376 568 380 568 379 569 380 569 383 569 384 570 386 570 385 570 384 571 387 571 386 571 388 572 389 572 390 572 388 573 390 573 391 573 384 574 385 574 389 574 384 575 389 575 388 575 385 576 386 576 390 576 385 577 390 577 389 577 386 578 387 578 391 578 386 579 391 579 390 579 387 580 384 580 388 580 387 581 388 581 391 581 392 582 394 582 393 582 392 583 395 583 394 583 396 584 397 584 398 584 396 585 398 585 399 585 392 586 393 586 397 586 392 587 397 587 396 587 393 588 394 588 398 588 393 589 398 589 397 589 394 590 395 590 399 590 394 591 399 591 398 591 395 592 392 592 396 592 395 593 396 593 399 593 400 594 402 594 401 594 400 595 403 595 402 595 404 596 405 596 406 596 404 597 406 597 407 597 400 598 401 598 405 598 400 599 405 599 404 599 401 600 402 600 406 600 401 601 406 601 405 601 402 602 403 602 407 602 402 603 407 603 406 603 403 604 400 604 404 604 403 605 404 605 407 605 408 606 410 606 409 606 408 607 411 607 410 607 412 608 413 608 414 608 412 609 414 609 415 609 408 610 409 610 413 610 408 611 413 611 412 611 409 612 410 612 414 612 409 613 414 613 413 613 410 614 411 614 415 614 410 615 415 615 414 615 411 616 408 616 412 616 411 617 412 617 415 617 416 618 418 618 417 618 416 619 419 619 418 619 420 620 421 620 422 620 420 621 422 621 423 621 416 622 417 622 421 622 416 623 421 623 420 623 417 624 418 624 422 624 417 625 422 625 421 625 418 626 419 626 423 626 418 627 423 627 422 627 419 628 416 628 420 628 419 629 420 629 423 629 424 630 426 630 425 630 424 631 427 631 426 631 428 632 429 632 430 632 428 633 430 633 431 633 424 634 425 634 429 634 424 635 429 635 428 635 425 636 426 636 430 636 425 637 430 637 429 637 426 638 427 638 431 638 426 639 431 639 430 639 427 640 424 640 428 640 427 641 428 641 431 641 432 642 434 642 433 642 432 643 435 643 434 643 436 644 437 644 438 644 436 645 438 645 439 645 432 646 433 646 437 646 432 647 437 647 436 647 433 648 434 648 438 648 433 649 438 649 437 649 434 650 435 650 439 650 434 651 439 651 438 651 435 652 432 652 436 652 435 653 436 653 439 653 440 654 442 654 441 654 440 655 443 655 442 655 444 656 445 656 446 656 444 657 446 657 447 657 440 658 441 658 445 658 440 659 445 659 444 659 441 660 442 660 446 660 441 661 446 661 445 661 442 662 443 662 447 662 442 663 447 663 446 663 443 664 440 664 444 664 443 665 444 665 447 665 448 666 450 666 449 666 448 667 451 667 450 667 452 668 453 668 454 668 452 669 454 669 455 669 448 670 449 670 453 670 448 671 453 671 452 671 449 672 450 672 454 672 449 673 454 673 453 673 450 674 451 674 455 674 450 675 455 675 454 675 451 676 448 676 452 676 451 677 452 677 455 677</p></triangles>
</mesh></geometry></library_geometries><library_visual_scenes><visual_scene id="Scene"><node id="mesh"><instance_geometry url="#geometry"/></node></visual_scene></library_visual_scenes><scene><instance_visual_scene url="#Scene"/></scene></COLLADA>