<?xml version="1.0" encoding="UTF-8"?>
<COLLADA xmlns="http://www.collada.org/2005/11/COLLADASchema" version="1.4.1">
<asset><contributor><authoring_tool>Summit Estate procedural mesh exporter</authoring_tool></contributor><created>2026-09-11T00:00:00Z</created><modified>2026-09-11T00:00:00Z</modified><unit name="meter" meter="1"/><up_axis>Z_UP</up_axis></asset>
<library_geometries><geometry id="geometry" name="geometry"><mesh>
<source id="positions"><float_array id="positions-array" count="768">162.80000 83.00000 83.14000 162.79568 83.04390 83.14000 162.78287 83.08610 83.14000 162.76208 83.12500 83.14000 162.73410 83.15910 83.14000 162.70000 83.18708 83.14000 162.66110 83.20787 83.14000 162.61890 83.22068 83.14000 162.57500 83.22500 83.14000 162.53110 83.22068 83.14000 162.48890 83.20787 83.14000 162.45000 83.18708 83.14000 162.41590 83.15910 83.14000 162.38792 83.12500 83.14000 162.36713 83.08610 83.14000 162.35432 83.04390 83.14000 162.35000 83.00000 83.14000 162.35432 82.95610 83.14000 162.36713 82.91390 83.14000 162.38792 82.87500 83.14000 162.41590 82.84090 83.14000 162.45000 82.81292 83.14000 162.48890 82.79213 83.14000 162.53110 82.77932 83.14000 162.57500 82.77500 83.14000 162.61890 82.77932 83.14000 162.66110 82.79213 83.14000 162.70000 82.81292 83.14000 162.73410 82.84090 83.14000 162.76208 82.87500 83.14000 162.78287 82.91390 83.14000 162.79568 82.95610 83.14000 162.81800 83.00000 83.14000 162.81333 83.04741 83.14000 162.79950 83.09299 83.14000 162.77705 83.13500 83.14000 162.74683 83.17183 83.14000 162.71000 83.20205 83.14000 162.66799 83.22450 83.14000 162.62241 83.23833 83.14000 162.57500 83.24300 83.14000 162.52759 83.23833 83.14000 162.48201 83.22450 83.14000 162.44000 83.20205 83.14000 162.40317 83.17183 83.14000 162.37295 83.13500 83.14000 162.35050 83.09299 83.14000 162.33667 83.04741 83.14000 162.33200 83.00000 83.14000 162.33667 82.95259 83.14000 162.35050 82.90701 83.14000 162.37295 82.86500 83.14000 162.40317 82.82817 83.14000 162.44000 82.79795 83.14000 162.48201 82.77550 83.14000 162.52759 82.76167 83.14000 162.57500 82.75700 83.14000 162.62241 82.76167 83.14000 162.66799 82.77550 83.14000 162.71000 82.79795 83.14000 162.74683 82.82817 83.14000 162.77705 82.86500 83.14000 162.79950 82.90701 83.14000 162.81333 82.95259 83.14000 162.80000 83.00000 83.17000 162.79568 83.04390 83.17000 162.78287 83.08610 83.17000 162.76208 83.12500 83.17000 162.73410 83.15910 83.17000 162.70000 83.18708 83.17000 162.66110 83.20787 83.17000 162.61890 83.22068 83.17000 162.57500 83.22500 83.17000 162.53110 83.22068 83.17000 162.48890 83.20787 83.17000 162.45000 83.18708 83.17000 162.41590 83.15910 83.17000 162.38792 83.12500 83.17000 162.36713 83.08610 83.17000 162.35432 83.04390 83.17000 162.35000 83.00000 83.17000 162.35432 82.95610 83.17000 162.36713 82.91390 83.17000 162.38792 82.87500 83.17000 162.41590 82.84090 83.17000 162.45000 82.81292 83.17000 162.48890 82.79213 83.17000 162.53110 82.77932 83.17000 162.57500 82.77500 83.17000 162.61890 82.77932 83.17000 162.66110 82.79213 83.17000 162.70000 82.81292 83.17000 162.73410 82.84090 83.17000 162.76208 82.87500 83.17000 162.78287 82.91390 83.17000 162.79568 82.95610 83.17000 162.81800 83.00000 83.17000 162.81333 83.04741 83.17000 162.79950 83.09299 83.17000 162.77705 83.13500 83.17000 162.74683 83.17183 83.17000 162.71000 83.20205 83.17000 162.66799 83.22450 83.17000 162.62241 83.23833 83.17000 162.57500 83.24300 83.17000 162.52759 83.23833 83.17000 162.48201 83.22450 83.17000 162.44000 83.20205 83.17000 162.40317 83.17183 83.17000 162.37295 83.13500 83.17000 162.35050 83.09299 83.17000 162.33667 83.04741 83.17000 162.33200 83.00000 83.17000 162.33667 82.95259 83.17000 162.35050 82.90701 83.17000 162.37295 82.86500 83.17000 162.40317 82.82817 83.17000 162.44000 82.79795 83.17000 162.48201 82.77550 83.17000 162.52759 82.76167 83.17000 162.57500 82.75700 83.17000 162.62241 82.76167 83.17000 162.66799 82.77550 83.17000 162.71000 82.79795 83.17000 162.74683 82.82817 83.17000 162.77705 82.86500 83.17000 162.79950 82.90701 83.17000 162.81333 82.95259 83.17000 187.65000 83.00000 83.14000 187.64568 83.04390 83.14000 187.63287 83.08610 83.14000 187.61208 83.12500 83.14000 187.58410 83.15910 83.14000 187.55000 83.18708 83.14000 187.51110 83.20787 83.14000 187.46890 83.22068 83.14000 187.42500 83.22500 83.14000 187.38110 83.22068 83.14000 187.33890 83.20787 83.14000 187.30000 83.18708 83.14000 187.26590 83.15910 83.14000 187.23792 83.12500 83.14000 187.21713 83.08610 83.14000 187.20432 83.04390 83.14000 187.20000 83.00000 83.14000 187.20432 82.95610 83.14000 187.21713 82.91390 83.14000 187.23792 82.87500 83.14000 187.26590 82.84090 83.14000 187.30000 82.81292 83.14000 187.33890 82.79213 83.14000 187.38110 82.77932 83.14000 187.42500 82.77500 83.14000 187.46890 82.77932 83.14000 187.51110 82.79213 83.14000 187.55000 82.81292 83.14000 187.58410 82.84090 83.14000 187.61208 82.87500 83.14000 187.63287 82.91390 83.14000 187.64568 82.95610 83.14000 187.66800 83.00000 83.14000 187.66333 83.04741 83.14000 187.64950 83.09299 83.14000 187.62705 83.13500 83.14000 187.59683 83.17183 83.14000 187.56000 83.20205 83.14000 187.51799 83.22450 83.14000 187.47241 83.23833 83.14000 187.42500 83.24300 83.14000 187.37759 83.23833 83.14000 187.33201 83.22450 83.14000 187.29000 83.20205 83.14000 187.25317 83.17183 83.14000 187.22295 83.13500 83.14000 187.20050 83.09299 83.14000 187.18667 83.04741 83.14000 187.18200 83.00000 83.14000 187.18667 82.95259 83.14000 187.20050 82.90701 83.14000 187.22295 82.86500 83.14000 187.25317 82.82817 83.14000 187.29000 82.79795 83.14000 187.33201 82.77550 83.14000 187.37759 82.76167 83.14000 187.42500 82.75700 83.14000 187.47241 82.76167 83.14000 187.51799 82.77550 83.14000 187.56000 82.79795 83.14000 187.59683 82.82817 83.14000 187.62705 82.86500 83.14000 187.64950 82.90701 83.14000 187.66333 82.95259 83.14000 187.65000 83.00000 83.17000 187.64568 83.04390 83.17000 187.63287 83.08610 83.17000 187.61208 83.12500 83.17000 187.58410 83.15910 83.17000 187.55000 83.18708 83.17000 187.51110 83.20787 83.17000 187.46890 83.22068 83.17000 187.42500 83.22500 83.17000 187.38110 83.22068 83.17000 187.33890 83.20787 83.17000 187.30000 83.18708 83.17000 187.26590 83.15910 83.17000 187.23792 83.12500 83.17000 187.21713 83.08610 83.17000 187.20432 83.04390 83.17000 187.20000 83.00000 83.17000 187.20432 82.95610 83.17000 187.21713 82.91390 83.17000 187.23792 82.87500 83.17000 187.26590 82.84090 83.17000 187.30000 82.81292 83.17000 187.33890 82.79213 83.17000 187.38110 82.77932 83.17000 187.42500 82.77500 83.17000 187.46890 82.77932 83.17000 187.51110 82.79213 83.17000 187.55000 82.81292 83.17000 187.58410 82.84090 83.17000 187.61208 82.87500 83.17000 187.63287 82.91390 83.17000 187.64568 82.95610 83.17000 187.66800 83.00000 83.17000 187.66333 83.04741 83.17000 187.64950 83.09299 83.17000 187.62705 83.13500 83.17000 187.59683 83.17183 83.17000 187.56000 83.20205 83.17000 187.51799 83.22450 83.17000 187.47241 83.23833 83.17000 187.42500 83.24300 83.17000 187.37759 83.23833 83.17000 187.33201 83.22450 83.17000 187.29000 83.20205 83.17000 187.25317 83.17183 83.17000 187.22295 83.13500 83.17000 187.20050 83.09299 83.17000 187.18667 83.04741 83.17000 187.18200 83.00000 83.17000 187.18667 82.95259 83.17000 187.20050 82.90701 83.17000 187.22295 82.86500 83.17000 187.25317 82.82817 83.17000 187.29000 82.79795 83.17000 187.33201 82.77550 83.17000 187.37759 82.76167 83.17000 187.42500 82.75700 83.17000 187.47241 82.76167 83.17000 187.51799 82.77550 83.17000 187.56000 82.79795 83.17000 187.59683 82.82817 83.17000 187.62705 82.86500 83.17000 187.64950 82.90701 83.17000 187.66333 82.95259 83.17000</float_array><technique_common><accessor source="#positions-array" count="256" stride="3"><param name="X" type="float"/><param name="Y" type="float"/><param name="Z" type="float"/></accessor></technique_common></source>
<source id="normals"><float_array id="normals-array" count="1536">0.00000 -0.00000 -1.00000 0.00000 0.00000 -1.00000 0.00000 0.00000 1.00000 0.00000 0.00000 1.00000 0.99518 0.09802 0.00000 0.99518 0.09802 -0.00000 -0.99518 -0.09802 -0.00000 -0.99518 -0.09802 -0.00000 0.00000 -0.00000 -1.00000 0.00000 0.00000 -1.00000 0.00000 0.00000 1.00000 0.00000 0.00000 1.00000 0.95694 0.29028 0.00000 0.95694 0.29028 -0.00000 -0.95694 -0.29028 -0.00000 -0.95694 -0.29028 -0.00000 0.00000 0.00000 -1.00000 0.00000 0.00000 -1.00000 0.00000 0.00000 1.00000 0.00000 0.00000 1.00000 0.88192 0.47140 0.00000 0.88192 0.47140 -0.00000 -0.88192 -0.47140 -0.00000 -0.88192 -0.47140 -0.00000 0.00000 0.00000 -1.00000 0.00000 0.00000 -1.00000 0.00000 0.00000 1.00000 0.00000 0.00000 1.00000 0.77301 0.63439 0.00000 0.77301 0.63439 -0.00000 -0.77301 -0.63439 -0.00000 -0.77301 -0.63439 -0.00000 0.00000 0.00000 -1.00000 0.00000 0.00000 -1.00000 0.00000 0.00000 1.00000 0.00000 0.00000 1.00000 0.63439 0.77301 0.00000 0.63439 0.77301 -0.00000 -0.63439 -0.77301 -0.00000 -0.63439 -0.77301 -0.00000 0.00000 0.00000 -1.00000 0.00000 0.00000 -1.00000 0.00000 0.00000 1.00000 0.00000 0.00000 1.00000 0.47140 0.88192 0.00000 0.47140 0.88192 -0.00000 -0.47140 -0.88192 -0.00000 -0.47140 -0.88192 -0.00000 0.00000 0.00000 -1.00000 0.00000 0.00000 -1.00000 0.00000 0.00000 1.00000 0.00000 0.00000 1.00000 0.29028 0.95694 0.00000 0.29028 0.95694 -0.00000 -0.29028 -0.95694 -0.00000 -0.29028 -0.95694 -0.00000 0.00000 0.00000 -1.00000 0.00000 0.00000 -1.00000 0.00000 0.00000 1.00000 0.00000 0.00000 1.00000 0.09802 0.99518 0.00000 0.09802 0.99518 -0.00000 -0.09802 -0.99518 -0.00000 -0.09802 -0.99518 -0.00000 0.00000 0.00000 -1.00000 0.00000 0.00000 -1.00000 0.00000 0.00000 1.00000 0.00000 0.00000 1.00000 -0.09802 0.99518 0.00000 -0.09802 0.99518 0.00000 0.09802 -0.99518 0.00000 0.09802 -0.99518 0.00000 0.00000 0.00000 -1.00000 0.00000 0.00000 -1.00000 0.00000 0.00000 1.00000 0.00000 0.00000 1.00000 -0.29028 0.95694 0.00000 -0.29028 0.95694 0.00000 0.29028 -0.95694 0.00000 0.29028 -0.95694 0.00000 0.00000 0.00000 -1.00000 0.00000 0.00000 -1.00000 -0.00000 0.00000 1.00000 0.00000 0.00000 1.00000 -0.47140 0.88192 0.00000 -0.47140 0.88192 0.00000 0.47140 -0.88192 0.00000 0.47140 -0.88192 0.00000 0.00000 0.00000 -1.00000 0.00000 0.00000 -1.00000 -0.00000 0.00000 1.00000 0.00000 0.00000 1.00000 -0.63439 0.77301 0.00000 -0.63439 0.77301 0.00000 0.63439 -0.77301 0.00000 0.63439 -0.77301 0.00000 0.00000 0.00000 -1.00000 0.00000 0.00000 -1.00000 -0.00000 0.00000 1.00000 0.00000 0.00000 1.00000 -0.77301 0.63439 0.00000 -0.77301 0.63439 0.00000 0.77301 -0.63439 0.00000 0.77301 -0.63439 0.00000 0.00000 0.00000 -1.00000 0.00000 0.00000 -1.00000 -0.00000 0.00000 1.00000 0.00000 0.00000 1.00000 -0.88192 0.47140 0.00000 -0.88192 0.47140 0.00000 0.88192 -0.47140 0.00000 0.88192 -0.47140 0.00000 0.00000 0.00000 -1.00000 0.00000 0.00000 -1.00000 -0.00000 0.00000 1.00000 0.00000 0.00000 1.00000 -0.95694 0.29028 0.00000 -0.95694 0.29028 0.00000 0.95694 -0.29028 0.00000 0.95694 -0.29028 0.00000 0.00000 0.00000 -1.00000 0.00000 0.00000 -1.00000 0.00000 0.00000 1.00000 0.00000 0.00000 1.00000 -0.99518 0.09802 0.00000 -0.99518 0.09802 0.00000 0.99518 -0.09802 0.00000 0.99518 -0.09802 0.00000 0.00000 0.00000 -1.00000 -0.00000 0.00000 -1.00000 0.00000 0.00000 1.00000 -0.00000 0.00000 1.00000 -0.99518 -0.09802 0.00000 -0.99518 -0.09802 0.00000 0.99518 0.09802 0.00000 0.99518 0.09802 0.00000 0.00000 0.00000 -1.00000 -0.00000 0.00000 -1.00000 0.00000 0.00000 1.00000 -0.00000 0.00000 1.00000 -0.95694 -0.29028 0.00000 -0.95694 -0.29028 0.00000 0.95694 0.29028 0.00000 0.95694 0.29028 0.00000 0.00000 0.00000 -1.00000 -0.00000 0.00000 -1.00000 0.00000 -0.00000 1.00000 -0.00000 0.00000 1.00000 -0.88192 -0.47140 0.00000 -0.88192 -0.47140 0.00000 0.88192 0.47140 0.00000 0.88192 0.47140 0.00000 0.00000 0.00000 -1.00000 -0.00000 0.00000 -1.00000 0.00000 -0.00000 1.00000 -0.00000 0.00000 1.00000 -0.77301 -0.63439 0.00000 -0.77301 -0.63439 0.00000 0.77301 0.63439 0.00000 0.77301 0.63439 0.00000 0.00000 0.00000 -1.00000 -0.00000 0.00000 -1.00000 0.00000 -0.00000 1.00000 -0.00000 0.00000 1.00000 -0.63439 -0.77301 0.00000 -0.63439 -0.77301 0.00000 0.63439 0.77301 0.00000 0.63439 0.77301 0.00000 0.00000 0.00000 -1.00000 -0.00000 0.00000 -1.00000 0.00000 -0.00000 1.00000 -0.00000 0.00000 1.00000 -0.47140 -0.88192 0.00000 -0.47140 -0.88192 0.00000 0.47140 0.88192 0.00000 0.47140 0.88192 0.00000 0.00000 0.00000 -1.00000 -0.00000 0.00000 -1.00000 0.00000 -0.00000 1.00000 -0.00000 0.00000 1.00000 -0.29028 -0.95694 0.00000 -0.29028 -0.95694 0.00000 0.29028 0.95694 0.00000 0.29028 0.95694 0.00000 0.00000 0.00000 -1.00000 -0.00000 -0.00000 -1.00000 0.00000 -0.00000 1.00000 -0.00000 0.00000 1.00000 -0.09802 -0.99518 0.00000 -0.09802 -0.99518 0.00000 0.09802 0.99518 0.00000 0.09802 0.99518 0.00000 -0.00000 0.00000 -1.00000 0.00000 -0.00000 -1.00000 0.00000 0.00000 1.00000 0.00000 0.00000 1.00000 0.09802 -0.99518 0.00000 0.09802 -0.99518 0.00000 -0.09802 0.99518 0.00000 -0.09802 0.99518 0.00000 -0.00000 0.00000 -1.00000 0.00000 -0.00000 -1.00000 0.00000 0.00000 1.00000 0.00000 -0.00000 1.00000 0.29028 -0.95694 0.00000 0.29028 -0.95694 0.00000 -0.29028 0.95694 0.00000 -0.29028 0.95694 0.00000 0.00000 0.00000 -1.00000 0.00000 -0.00000 -1.00000 0.00000 0.00000 1.00000 0.00000 -0.00000 1.00000 0.47140 -0.88192 0.00000 0.47140 -0.88192 0.00000 -0.47140 0.88192 0.00000 -0.47140 0.88192 0.00000 0.00000 0.00000 -1.00000 0.00000 -0.00000 -1.00000 0.00000 0.00000 1.00000 0.00000 -0.00000 1.00000 0.63439 -0.77301 0.00000 0.63439 -0.77301 0.00000 -0.63439 0.77301 0.00000 -0.63439 0.77301 0.00000 0.00000 0.00000 -1.00000 0.00000 -0.00000 -1.00000 0.00000 0.00000 1.00000 0.00000 -0.00000 1.00000 0.77301 -0.63439 0.00000 0.77301 -0.63439 0.00000 -0.77301 0.63439 0.00000 -0.77301 0.63439 0.00000 0.00000 0.00000 -1.00000 0.00000 -0.00000 -1.00000 0.00000 0.00000 1.00000 0.00000 -0.00000 1.00000 0.88192 -0.47140 0.00000 0.88192 -0.47140 0.00000 -0.88192 0.47140 0.00000 -0.88192 0.47140 0.00000 0.00000 0.00000 -1.00000 0.00000 -0.00000 -1.00000 0.00000 0.00000 1.00000 0.00000 -0.00000 1.00000 0.95694 -0.29028 0.00000 0.95694 -0.29028 0.00000 -0.95694 0.29028 0.00000 -0.95694 0.29028 0.00000 0.00000 0.00000 -1.00000 0.00000 -0.00000 -1.00000 0.00000 0.00000 1.00000 0.00000 -0.00000 1.00000 0.99518 -0.09802 0.00000 0.99518 -0.09802 0.00000 -0.99518 0.09802 0.00000 -0.99518 0.09802 0.00000 0.00000 -0.00000 -1.00000 0.00000 0.00000 -1.00000 0.00000 0.00000 1.00000 0.00000 0.00000 1.00000 0.99518 0.09802 0.00000 0.99518 0.09802 -0.00000 -0.99518 -0.09802 -0.00000 -0.99518 -0.09802 -0.00000 0.00000 -0.00000 -1.00000 0.00000 0.00000 -1.00000 0.00000 0.00000 1.00000 0.00000 0.00000 1.00000 0.95694 0.29028 0.00000 0.95694 0.29028 -0.00000 -0.95694 -0.29028 -0.00000 -0.95694 -0.29028 -0.00000 0.00000 0.00000 -1.00000 0.00000 0.00000 -1.00000 0.00000 0.00000 1.00000 0.00000 0.00000 1.00000 0.88192 0.47140 0.00000 0.88192 0.47140 -0.00000 -0.88192 -0.47140 -0.00000 -0.88192 -0.47140 -0.00000 0.00000 0.00000 -1.00000 0.00000 0.00000 -1.00000 0.00000 0.00000 1.00000 0.00000 0.00000 1.00000 0.77301 0.63439 0.00000 0.77301 0.63439 -0.00000 -0.77301 -0.63439 -0.00000 -0.77301 -0.63439 -0.00000 0.00000 0.00000 -1.00000 0.00000 0.00000 -1.00000 0.00000 0.00000 1.00000 0.00000 0.00000 1.00000 0.63439 0.77301 0.00000 0.63439 0.77301 -0.00000 -0.63439 -0.77301 -0.00000 -0.63439 -0.77301 -0.00000 0.00000 0.00000 -1.00000 0.00000 0.00000 -1.00000 0.00000 0.00000 1.00000 0.00000 0.00000 1.00000 0.47140 0.88192 0.00000 0.47140 0.88192 -0.00000 -0.47140 -0.88192 -0.00000 -0.47140 -0.88192 -0.00000 0.00000 0.00000 -1.00000 0.00000 0.00000 -1.00000 0.00000 0.00000 1.00000 0.00000 0.00000 1.00000 0.29028 0.95694 0.00000 0.29028 0.95694 -0.00000 -0.29028 -0.95694 -0.00000 -0.29028 -0.95694 -0.00000 0.00000 0.00000 -1.00000 0.00000 0.00000 -1.00000 0.00000 0.00000 1.00000 0.00000 0.00000 1.00000 0.09802 0.99518 0.00000 0.09802 0.99518 -0.00000 -0.09802 -0.99518 -0.00000 -0.09802 -0.99518 -0.00000 0.00000 0.00000 -1.00000 0.00000 0.00000 -1.00000 0.00000 0.00000 1.00000 0.00000 0.00000 1.00000 -0.09802 0.99518 0.00000 -0.09802 0.99518 0.00000 0.09802 -0.99518 0.00000 0.09802 -0.99518 0.00000 0.00000 0.00000 -1.00000 0.00000 0.00000 -1.00000 0.00000 0.00000 1.00000 0.00000 0.00000 1.00000 -0.29028 0.95694 0.00000 -0.29028 0.95694 0.00000 0.29028 -0.95694 0.00000 0.29028 -0.95694 0.00000 0.00000 0.00000 -1.00000 0.00000 0.00000 -1.00000 -0.00000 0.00000 1.00000 0.00000 0.00000 1.00000 -0.47140 0.88192 0.00000 -0.47140 0.88192 0.00000 0.47140 -0.88192 0.00000 0.47140 -0.88192 0.00000 0.00000 0.00000 -1.00000 0.00000 0.00000 -1.00000 -0.00000 0.00000 1.00000 0.00000 0.00000 1.00000 -0.63439 0.77301 0.00000 -0.63439 0.77301 0.00000 0.63439 -0.77301 0.00000 0.63439 -0.77301 0.00000 0.00000 0.00000 -1.00000 0.00000 0.00000 -1.00000 -0.00000 0.00000 1.00000 0.00000 0.00000 1.00000 -0.77301 0.63439 0.00000 -0.77301 0.63439 0.00000 0.77301 -0.63439 0.00000 0.77301 -0.63439 0.00000 0.00000 0.00000 -1.00000 0.00000 0.00000 -1.00000 -0.00000 0.00000 1.00000 0.00000 0.00000 1.00000 -0.88192 0.47140 0.00000 -0.88192 0.47140 0.00000 0.88192 -0.47140 0.00000 0.88192 -0.47140 0.00000 0.00000 0.00000 -1.00000 0.00000 0.00000 -1.00000 -0.00000 0.00000 1.00000 0.00000 0.00000 1.00000 -0.95694 0.29028 0.00000 -0.95694 0.29028 0.00000 0.95694 -0.29028 0.00000 0.95694 -0.29028 0.00000 0.00000 0.00000 -1.00000 0.00000 0.00000 -1.00000 0.00000 0.00000 1.00000 0.00000 0.00000 1.00000 -0.99518 0.09802 0.00000 -0.99518 0.09802 0.00000 0.99518 -0.09802 0.00000 0.99518 -0.09802 0.00000 0.00000 0.00000 -1.00000 -0.00000 0.00000 -1.00000 0.00000 0.00000 1.00000 -0.00000 0.00000 1.00000 -0.99518 -0.09802 0.00000 -0.99518 -0.09802 0.00000 0.99518 0.09802 0.00000 0.99518 0.09802 0.00000 0.00000 0.00000 -1.00000 -0.00000 0.00000 -1.00000 0.00000 0.00000 1.00000 -0.00000 0.00000 1.00000 -0.95694 -0.29028 0.00000 -0.95694 -0.29028 0.00000 0.95694 0.29028 0.00000 0.95694 0.29028 0.00000 0.00000 0.00000 -1.00000 -0.00000 0.00000 -1.00000 0.00000 -0.00000 1.00000 -0.00000 0.00000 1.00000 -0.88192 -0.47140 0.00000 -0.88192 -0.47140 0.00000 0.88192 0.47140 0.00000 0.88192 0.47140 0.00000 0.00000 0.00000 -1.00000 -0.00000 0.00000 -1.00000 0.00000 -0.00000 1.00000 -0.00000 0.00000 1.00000 -0.77301 -0.63439 0.00000 -0.77301 -0.63439 0.00000 0.77301 0.63439 0.00000 0.77301 0.63439 0.00000 0.00000 0.00000 -1.00000 -0.00000 0.00000 -1.00000 0.00000 -0.00000 1.00000 -0.00000 0.00000 1.00000 -0.63439 -0.77301 0.00000 -0.63439 -0.77301 0.00000 0.63439 0.77301 0.00000 0.63439 0.77301 0.00000 0.00000 0.00000 -1.00000 -0.00000 0.00000 -1.00000 0.00000 -0.00000 1.00000 -0.00000 0.00000 1.00000 -0.47140 -0.88192 0.00000 -0.47140 -0.88192 0.00000 0.47140 0.88192 0.00000 0.47140 0.88192 0.00000 0.00000 0.00000 -1.00000 -0.00000 0.00000 -1.00000 0.00000 -0.00000 1.00000 -0.00000 0.00000 1.00000 -0.29028 -0.95694 0.00000 -0.29028 -0.95694 0.00000 0.29028 0.95694 0.00000 0.29028 0.95694 0.00000 0.00000 0.00000 -1.00000 -0.00000 -0.00000 -1.00000 0.00000 -0.00000 1.00000 -0.00000 0.00000 1.00000 -0.09802 -0.99518 0.00000 -0.09802 -0.99518 0.00000 0.09802 0.99518 0.00000 0.09802 0.99518 0.00000 -0.00000 0.00000 -1.00000 0.00000 -0.00000 -1.00000 0.00000 0.00000 1.00000 0.00000 0.00000 1.00000 0.09802 -0.99518 0.00000 0.09802 -0.99518 0.00000 -0.09802 0.99518 0.00000 -0.09802 0.99518 0.00000 -0.00000 0.00000 -1.00000 0.00000 -0.00000 -1.00000 0.00000 0.00000 1.00000 0.00000 -0.00000 1.00000 0.29028 -0.95694 0.00000 0.29028 -0.95694 0.00000 -0.29028 0.95694 0.00000 -0.29028 0.95694 0.00000 0.00000 0.00000 -1.00000 0.00000 -0.00000 -1.00000 0.00000 0.00000 1.00000 0.00000 -0.00000 1.00000 0.47140 -0.88192 0.00000 0.47140 -0.88192 0.00000 -0.47140 0.88192 0.00000 -0.47140 0.88192 0.00000 0.00000 0.00000 -1.00000 0.00000 -0.00000 -1.00000 0.00000 0.00000 1.00000 0.00000 -0.00000 1.00000 0.63439 -0.77301 0.00000 0.63439 -0.77301 0.00000 -0.63439 0.77301 0.00000 -0.63439 0.77301 0.00000 0.00000 0.00000 -1.00000 0.00000 -0.00000 -1.00000 0.00000 0.00000 1.00000 0.00000 -0.00000 1.00000 0.77301 -0.63439 0.00000 0.77301 -0.63439 0.00000 -0.77301 0.63439 0.00000 -0.77301 0.63439 0.00000 0.00000 0.00000 -1.00000 0.00000 -0.00000 -1.00000 0.00000 0.00000 1.00000 0.00000 -0.00000 1.00000 0.88192 -0.47140 0.00000 0.88192 -0.47140 0.00000 -0.88192 0.47140 0.00000 -0.88192 0.47140 0.00000 0.00000 0.00000 -1.00000 0.00000 -0.00000 -1.00000 0.00000 0.00000 1.00000 0.00000 -0.00000 1.00000 0.95694 -0.29028 0.00000 0.95694 -0.29028 0.00000 -0.95694 0.29028 0.00000 -0.95694 0.29028 0.00000 0.00000 0.00000 -1.00000 0.00000 -0.00000 -1.00000 0.00000 0.00000 1.00000 0.00000 -0.00000 1.00000 0.99518 -0.09802 0.00000 0.99518 -0.09802 0.00000 -0.99518 0.09802 0.00000 -0.99518 0.09802 0.00000</float_array><technique_common><accessor source="#normals-array" count="512" stride="3"><param name="X" type="float"/><param name="Y" type="float"/><param name="Z" type="float"/></accessor></technique_common></source>
<vertices id="vertices"><input semantic="POSITION" source="#positions"/></vertices><triangles count="512"><input semantic="VERTEX" source="#vertices" offset="0"/><input semantic="NORMAL" source="#normals" offset="1"/><p>33 0 32 0 0 0 1 1 33 1 0 1 97 2 65 2 64 2 96 3 97 3 64 3 97 4 96 4 32 4 33 5 97 5 32 5 65 6 1 6 0 6 64 7 65 7 0 7 34 8 33 8 1 8 2 9 34 9 1 9 98 10 66 10 65 10 97 11 98 11 65 11 98 12 97 12 33 12 34 13 98 13 33 13 66 14 2 14 1 14 65 15 66 15 1 15 35 16 34 16 2 16 3 17 35 17 2 17 99 18 67 18 66 18 98 19 99 19 66 19 99 20 98 20 34 20 35 21 99 21 34 21 67 22 3 22 2 22 66 23 67 23 2 23 36 24 35 24 3 24 4 25 36 25 3 25 100 26 68 26 67 26 99 27 100 27 67 27 100 28 99 28 35 28 36 29 100 29 35 29 68 30 4 30 3 30 67 31 68 31 3 31 37 32 36 32 4 32 5 33 37 33 4 33 101 34 69 34 68 34 100 35 101 35 68 35 101 36 100 36 36 36 37 37 101 37 36 37 69 38 5 38 4 38 68 39 69 39 4 39 38 40 37 40 5 40 6 41 38 41 5 41 102 42 70 42 69 42 101 43 102 43 69 43 102 44 101 44 37 44 38 45 102 45 37 45 70 46 6 46 5 46 69 47 70 47 5 47 39 48 38 48 6 48 7 49 39 49 6 49 103 50 71 50 70 50 102 51 103 51 70 51 103 52 102 52 38 52 39 53 103 53 38 53 71 54 7 54 6 54 70 55 71 55 6 55 40 56 39 56 7 56 8 57 40 57 7 57 104 58 72 58 71 58 103 59 104 59 71 59 104 60 103 60 39 60 40 61 104 61 39 61 72 62 8 62 7 62 71 63 72 63 7 63 41 64 40 64 8 64 9 65 41 65 8 65 105 66 73 66 72 66 104 67 105 67 72 67 105 68 104 68 40 68 41 69 105 69 40 69 73 70 9 70 8 70 72 71 73 71 8 71 42 72 41 72 9 72 10 73 42 73 9 73 106 74 74 74 73 74 105 75 106 75 73 75 106 76 105 76 41 76 42 77 106 77 41 77 74 78 10 78 9 78 73 79 74 79 9 79 43 80 42 80 10 80 11 81 43 81 10 81 107 82 75 82 74 82 106 83 107 83 74 83 107 84 106 84 42 84 43 85 107 85 42 85 75 86 11 86 10 86 74 87 75 87 10 87 44 88 43 88 11 88 12 89 44 89 11 89 108 90 76 90 75 90 107 91 108 91 75 91 108 92 107 92 43 92 44 93 108 93 43 93 76 94 12 94 11 94 75 95 76 95 11 95 45 96 44 96 12 96 13 97 45 97 12 97 109 98 77 98 76 98 108 99 109 99 76 99 109 100 108 100 44 100 45 101 109 101 44 101 77 102 13 102 12 102 76 103 77 103 12 103 46 104 45 104 13 104 14 105 46 105 13 105 110 106 78 106 77 106 109 107 110 107 77 107 110 108 109 108 45 108 46 109 110 109 45 109 78 110 14 110 13 110 77 111 78 111 13 111 47 112 46 112 14 112 15 113 47 113 14 113 111 114 79 114 78 114 110 115 111 115 78 115 111 116 110 116 46 116 47 117 111 117 46 117 79 118 15 118 14 118 78 119 79 119 14 119 48 120 47 120 15 120 16 121 48 121 15 121 112 122 80 122 79 122 111 123 112 123 79 123 112 124 111 124 47 124 48 125 112 125 47 125 80 126 16 126 15 126 79 127 80 127 15 127 49 128 48 128 16 128 17 129 49 129 16 129 113 130 81 130 80 130 112 131 113 131 80 131 113 132 112 132 48 132 49 133 113 133 48 133 81 134 17 134 16 134 80 135 81 135 16 135 50 136 49 136 17 136 18 137 50 137 17 137 114 138 82 138 81 138 113 139 114 139 81 139 114 140 113 140 49 140 50 141 114 141 49 141 82 142 18 142 17 142 81 143 82 143 17 143 51 144 50 144 18 144 19 145 51 145 18 145 115 146 83 146 82 146 114 147 115 147 82 147 115 148 114 148 50 148 51 149 115 149 50 149 83 150 19 150 18 150 82 151 83 151 18 151 52 152 51 152 19 152 20 153 52 153 19 153 116 154 84 154 83 154 115 155 116 155 83 155 116 156 115 156 51 156 52 157 116 157 51 157 84 158 20 158 19 158 83 159 84 159 19 159 53 160 52 160 20 160 21 161 53 161 20 161 117 162 85 162 84 162 116 163 117 163 84 163 117 164 116 164 52 164 53 165 117 165 52 165 85 166 21 166 20 166 84 167 85 167 20 167 54 168 53 168 21 168 22 169 54 169 21 169 118 170 86 170 85 170 117 171 118 171 85 171 118 172 117 172 53 172 54 173 118 173 53 173 86 174 22 174 21 174 85 175 86 175 21 175 55 176 54 176 22 176 23 177 55 177 22 177 119 178 87 178 86 178 118 179 119 179 86 179 119 180 118 180 54 180 55 181 119 181 54 181 87 182 23 182 22 182 86 183 87 183 22 183 56 184 55 184 23 184 24 185 56 185 23 185 120 186 88 186 87 186 119 187 120 187 87 187 120 188 119 188 55 188 56 189 120 189 55 189 88 190 24 190 23 190 87 191 88 191 23 191 57 192 56 192 24 192 25 193 57 193 24 193 121 194 89 194 88 194 120 195 121 195 88 195 121 196 120 196 56 196 57 197 121 197 56 197 89 198 25 198 24 198 88 199 89 199 24 199 58 200 57 200 25 200 26 201 58 201 25 201 122 202 90 202 89 202 121 203 122 203 89 203 122 204 121 204 57 204 58 205 122 205 57 205 90 206 26 206 25 206 89 207 90 207 25 207 59 208 58 208 26 208 27 209 59 209 26 209 123 210 91 210 90 210 122 211 123 211 90 211 123 212 122 212 58 212 59 213 123 213 58 213 91 214 27 214 26 214 90 215 91 215 26 215 60 216 59 216 27 216 28 217 60 217 27 217 124 218 92 218 91 218 123 219 124 219 91 219 124 220 123 220 59 220 60 221 124 221 59 221 92 222 28 222 27 222 91 223 92 223 27 223 61 224 60 224 28 224 29 225 61 225 28 225 125 226 93 226 92 226 124 227 125 227 92 227 125 228 124 228 60 228 61 229 125 229 60 229 93 230 29 230 28 230 92 231 93 231 28 231 62 232 61 232 29 232 30 233 62 233 29 233 126 234 94 234 93 234 125 235 126 235 93 235 126 236 125 236 61 236 62 237 126 237 61 237 94 238 30 238 29 238 93 239 94 239 29 239 63 240 62 240 30 240 31 241 63 241 30 241 127 242 95 242 94 242 126 243 127 243 94 243 127 244 126 244 62 244 63 245 127 245 62 245 95 246 31 246 30 246 94 247 95 247 30 247 32 248 63 248 31 248 0 249 32 249 31 249 96 250 64 250 95 250 127 251 96 251 95 251 96 252 127 252 63 252 32 253 96 253 63 253 64 254 0 254 31 254 95 255 64 255 31 255 161 256 160 256 128 256 129 257 161 257 128 257 225 258 193 258 192 258 224 259 225 259 192 259 225 260 224 260 160 260 161 261 225 261 160 261 193 262 129 262 128 262 192 263 193 263 128 263 162 264 161 264 129 264 130 265 162 265 129 265 226 266 194 266 193 266 225 267 226 267 193 267 226 268 225 268 161 268 162 269 226 269 161 269 194 270 130 270 129 270 193 271 194 271 129 271 163 272 162 272 130 272 131 273 163 273 130 273 227 274 195 274 194 274 226 275 227 275 194 275 227 276 226 276 162 276 163 277 227 277 162 277 195 278 131 278 130 278 194 279 195 279 130 279 164 280 163 280 131 280 132 281 164 281 131 281 228 282 196 282 195 282 227 283 228 283 195 283 228 284 227 284 163 284 164 285 228 285 163 285 196 286 132 286 131 286 195 287 196 287 131 287 165 288 164 288 132 288 133 289 165 289 132 289 229 290 197 290 196 290 228 291 229 291 196 291 229 292 228 292 164 292 165 293 229 293 164 293 197 294 133 294 132 294 196 295 197 295 132 295 166 296 165 296 133 296 134 297 166 297 133 297 230 298 198 298 197 298 229 299 230 299 197 299 230 300 229 300 165 300 166 301 230 301 165 301 198 302 134 302 133 302 197 303 198 303 133 303 167 304 166 304 134 304 135 305 167 305 134 305 231 306 199 306 198 306 230 307 231 307 198 307 231 308 230 308 166 308 167 309 231 309 166 309 199 310 135 310 134 310 198 311 199 311 134 311 168 312 167 312 135 312 136 313 168 313 135 313 232 314 200 314 199 314 231 315 232 315 199 315 232 316 231 316 167 316 168 317 232 317 167 317 200 318 136 318 135 318 199 319 200 319 135 319 169 320 168 320 136 320 137 321 169 321 136 321 233 322 201 322 200 322 232 323 233 323 200 323 233 324 232 324 168 324 169 325 233 325 168 325 201 326 137 326 136 326 200 327 201 327 136 327 170 328 169 328 137 328 138 329 170 329 137 329 234 330 202 330 201 330 233 331 234 331 201 331 234 332 233 332 169 332 170 333 234 333 169 333 202 334 138 334 137 334 201 335 202 335 137 335 171 336 170 336 138 336 139 337 171 337 138 337 235 338 203 338 202 338 234 339 235 339 202 339 235 340 234 340 170 340 171 341 235 341 170 341 203 342 139 342 138 342 202 343 203 343 138 343 172 344 171 344 139 344 140 345 172 345 139 345 236 346 204 346 203 346 235 347 236 347 203 347 236 348 235 348 171 348 172 349 236 349 171 349 204 350 140 350 139 350 203 351 204 351 139 351 173 352 172 352 140 352 141 353 173 353 140 353 237 354 205 354 204 354 236 355 237 355 204 355 237 356 236 356 172 356 173 357 237 357 172 357 205 358 141 358 140 358 204 359 205 359 140 359 174 360 173 360 141 360 142 361 174 361 141 361 238 362 206 362 205 362 237 363 238 363 205 363 238 364 237 364 173 364 174 365 238 365 173 365 206 366 142 366 141 366 205 367 206 367 141 367 175 368 174 368 142 368 143 369 175 369 142 369 239 370 207 370 206 370 238 371 239 371 206 371 239 372 238 372 174 372 175 373 239 373 174 373 207 374 143 374 142 374 206 375 207 375 142 375 176 376 175 376 143 376 144 377 176 377 143 377 240 378 208 378 207 378 239 379 240 379 207 379 240 380 239 380 175 380 176 381 240 381 175 381 208 382 144 382 143 382 207 383 208 383 143 383 177 384 176 384 144 384 145 385 177 385 144 385 241 386 209 386 208 386 240 387 241 387 208 387 241 388 240 388 176 388 177 389 241 389 176 389 209 390 145 390 144 390 208 391 209 391 144 391 178 392 177 392 145 392 146 393 178 393 145 393 242 394 210 394 209 394 241 395 242 395 209 395 242 396 241 396 177 396 178 397 242 397 177 397 210 398 146 398 145 398 209 399 210 399 145 399 179 400 178 400 146 400 147 401 179 401 146 401 243 402 211 402 210 402 242 403 243 403 210 403 243 404 242 404 178 404 179 405 243 405 178 405 211 406 147 406 146 406 210 407 211 407 146 407 180 408 179 408 147 408 148 409 180 409 147 409 244 410 212 410 211 410 243 411 244 411 211 411 244 412 243 412 179 412 180 413 244 413 179 413 212 414 148 414 147 414 211 415 212 415 147 415 181 416 180 416 148 416 149 417 181 417 148 417 245 418 213 418 212 418 244 419 245 419 212 419 245 420 244 420 180 420 181 421 245 421 180 421 213 422 149 422 148 422 212 423 213 423 148 423 182 424 181 424 149 424 150 425 182 425 149 425 246 426 214 426 213 426 245 427 246 427 213 427 246 428 245 428 181 428 182 429 246 429 181 429 214 430 150 430 149 430 213 431 214 431 149 431 183 432 182 432 150 432 151 433 183 433 150 433 247 434 215 434 214 434 246 435 247 435 214 435 247 436 246 436 182 436 183 437 247 437 182 437 215 438 151 438 150 438 214 439 215 439 150 439 184 440 183 440 151 440 152 441 184 441 151 441 248 442 216 442 215 442 247 443 248 443 215 443 248 444 247 444 183 444 184 445 248 445 183 445 216 446 152 446 151 446 215 447 216 447 151 447 185 448 184 448 152 448 153 449 185 449 152 449 249 450 217 450 216 450 248 451 249 451 216 451 249 452 248 452 184 452 185 453 249 453 184 453 217 454 153 454 152 454 216 455 217 455 152 455 186 456 185 456 153 456 154 457 186 457 153 457 250 458 218 458 217 458 249 459 250 459 217 459 250 460 249 460 185 460 186 461 250 461 185 461 218 462 154 462 153 462 217 463 218 463 153 463 187 464 186 464 154 464 155 465 187 465 154 465 251 466 219 466 218 466 250 467 251 467 218 467 251 468 250 468 186 468 187 469 251 469 186 469 219 470 155 470 154 470 218 471 219 471 154 471 188 472 187 472 155 472 156 473 188 473 155 473 252 474 220 474 219 474 251 475 252 475 219 475 252 476 251 476 187 476 188 477 252 477 187 477 220 478 156 478 155 478 219 479 220 479 155 479 189 480 188 480 156 480 157 481 189 481 156 481 253 482 221 482 220 482 252 483 253 483 220 483 253 484 252 484 188 484 189 485 253 485 188 485 221 486 157 486 156 486 220 487 221 487 156 487 190 488 189 488 157 488 158 489 190 489 157 489 254 490 222 490 221 490 253 491 254 491 221 491 254 492 253 492 189 492 190 493 254 493 189 493 222 494 158 494 157 494 221 495 222 495 157 495 191 496 190 496 158 496 159 497 191 497 158 497 255 498 223 498 222 498 254 499 255 499 222 499 255 500 254 500 190 500 191 501 255 501 190 501 223 502 159 502 158 502 222 503 223 503 158 503 160 504 191 504 159 504 128 505 160 505 159 505 224 506 192 506 223 506 255 507 224 507 223 507 224 508 255 508 191 508 160 509 224 509 191 509 192 510 128 510 159 510 223 511 192 511 159 511</p></triangles>
</mesh></geometry></library_geometries><library_visual_scenes><visual_scene id="Scene"><node id="mesh"><instance_geometry url="#geometry"/></node></visual_scene></library_visual_scenes><scene><instance_visual_scene url="#Scene"/></scene></COLLADA>