<?xml version="1.0" encoding="UTF-8"?>
<COLLADA xmlns="http://www.collada.org/2005/11/COLLADASchema" version="1.4.1">
<asset><contributor><authoring_tool>Summit Estate procedural mesh exporter</authoring_tool></contributor><created>2026-09-11T00:00:00Z</created><modified>2026-09-11T00:00:00Z</modified><unit name="meter" meter="1"/><up_axis>Z_UP</up_axis></asset>
<library_geometries><geometry id="geometry" name="geometry"><mesh>
<source id="positions"><float_array id="positions-array" count="2364">159.69000 82.89000 80.12000 159.91000 82.89000 80.12000 159.91000 83.11000 80.12000 159.69000 83.11000 80.12000 159.69000 82.89000 84.12000 159.91000 82.89000 84.12000 159.91000 83.11000 84.12000 159.69000 83.11000 84.12000 159.80000 82.92000 83.90000 159.80000 82.92000 83.74000 159.80000 83.08000 83.74000 159.80000 83.08000 83.90000 162.20000 82.92000 83.90000 162.20000 82.92000 83.74000 162.20000 83.08000 83.74000 162.20000 83.08000 83.90000 190.09000 82.89000 80.12000 190.31000 82.89000 80.12000 190.31000 83.11000 80.12000 190.09000 83.11000 80.12000 190.09000 82.89000 84.12000 190.31000 82.89000 84.12000 190.31000 83.11000 84.12000 190.09000 83.11000 84.12000 190.20000 83.08000 83.90000 190.20000 83.08000 83.74000 190.20000 82.92000 83.74000 190.20000 82.92000 83.90000 187.80000 83.08000 83.90000 187.80000 83.08000 83.74000 187.80000 82.92000 83.74000 187.80000 82.92000 83.90000 158.96000 72.46000 80.00000 159.04000 72.46000 80.00000 159.04000 72.54000 80.00000 158.96000 72.54000 80.00000 158.96000 72.46000 82.20000 159.04000 72.46000 82.20000 159.04000 72.54000 82.20000 158.96000 72.54000 82.20000 162.96000 72.46000 80.00000 163.04000 72.46000 80.00000 163.04000 72.54000 80.00000 162.96000 72.54000 80.00000 162.96000 72.46000 82.20000 163.04000 72.46000 82.20000 163.04000 72.54000 82.20000 162.96000 72.54000 82.20000 166.96000 72.46000 80.00000 167.04000 72.46000 80.00000 167.04000 72.54000 80.00000 166.96000 72.54000 80.00000 166.96000 72.46000 82.20000 167.04000 72.46000 82.20000 167.04000 72.54000 82.20000 166.96000 72.54000 82.20000 170.96000 72.46000 80.00000 171.04000 72.46000 80.00000 171.04000 72.54000 80.00000 170.96000 72.54000 80.00000 170.96000 72.46000 82.20000 171.04000 72.46000 82.20000 171.04000 72.54000 82.20000 170.96000 72.54000 82.20000 178.96000 72.46000 80.00000 179.04000 72.46000 80.00000 179.04000 72.54000 80.00000 178.96000 72.54000 80.00000 178.96000 72.46000 82.20000 179.04000 72.46000 82.20000 179.04000 72.54000 82.20000 178.96000 72.54000 82.20000 182.96000 72.46000 80.00000 183.04000 72.46000 80.00000 183.04000 72.54000 80.00000 182.96000 72.54000 80.00000 182.96000 72.46000 82.20000 183.04000 72.46000 82.20000 183.04000 72.54000 82.20000 182.96000 72.54000 82.20000 186.96000 72.46000 80.00000 187.04000 72.46000 80.00000 187.04000 72.54000 80.00000 186.96000 72.54000 80.00000 186.96000 72.46000 82.20000 187.04000 72.46000 82.20000 187.04000 72.54000 82.20000 186.96000 72.54000 82.20000 190.96000 72.46000 80.00000 191.04000 72.46000 80.00000 191.04000 72.54000 80.00000 190.96000 72.54000 80.00000 190.96000 72.46000 82.20000 191.04000 72.46000 82.20000 191.04000 72.54000 82.20000 190.96000 72.54000 82.20000 159.00000 72.46750 80.14750 171.00000 72.46750 80.14750 171.00000 72.53250 80.14750 159.00000 72.53250 80.14750 159.00000 72.46750 80.21250 171.00000 72.46750 80.21250 171.00000 72.53250 80.21250 159.00000 72.53250 80.21250 179.00000 72.46750 80.14750 191.00000 72.46750 80.14750 191.00000 72.53250 80.14750 179.00000 72.53250 80.14750 179.00000 72.46750 80.21250 191.00000 72.46750 80.21250 191.00000 72.53250 80.21250 179.00000 72.53250 80.21250 159.00000 72.46750 82.11750 171.00000 72.46750 82.11750 171.00000 72.53250 82.11750 159.00000 72.53250 82.11750 159.00000 72.46750 82.18250 171.00000 72.46750 82.18250 171.00000 72.53250 82.18250 159.00000 72.53250 82.18250 179.00000 72.46750 82.11750 191.00000 72.46750 82.11750 191.00000 72.53250 82.11750 179.00000 72.53250 82.11750 179.00000 72.46750 82.18250 191.00000 72.46750 82.18250 191.00000 72.53250 82.18250 179.00000 72.53250 82.18250 158.96000 93.46000 80.00000 159.04000 93.46000 80.00000 159.04000 93.54000 80.00000 158.96000 93.54000 80.00000 158.96000 93.46000 82.20000 159.04000 93.46000 82.20000 159.04000 93.54000 82.20000 158.96000 93.54000 82.20000 162.96000 93.46000 80.00000 163.04000 93.46000 80.00000 163.04000 93.54000 80.00000 162.96000 93.54000 80.00000 162.96000 93.46000 82.20000 163.04000 93.46000 82.20000 163.04000 93.54000 82.20000 162.96000 93.54000 82.20000 166.96000 93.46000 80.00000 167.04000 93.46000 80.00000 167.04000 93.54000 80.00000 166.96000 93.54000 80.00000 166.96000 93.46000 82.20000 167.04000 93.46000 82.20000 167.04000 93.54000 82.20000 166.96000 93.54000 82.20000 170.96000 93.46000 80.00000 171.04000 93.46000 80.00000 171.04000 93.54000 80.00000 170.96000 93.54000 80.00000 170.96000 93.46000 82.20000 171.04000 93.46000 82.20000 171.04000 93.54000 82.20000 170.96000 93.54000 82.20000 174.96000 93.46000 80.00000 175.04000 93.46000 80.00000 175.04000 93.54000 80.00000 174.96000 93.54000 80.00000 174.96000 93.46000 82.20000 175.04000 93.46000 82.20000 175.04000 93.54000 82.20000 174.96000 93.54000 82.20000 178.96000 93.46000 80.00000 179.04000 93.46000 80.00000 179.04000 93.54000 80.00000 178.96000 93.54000 80.00000 178.96000 93.46000 82.20000 179.04000 93.46000 82.20000 179.04000 93.54000 82.20000 178.96000 93.54000 82.20000 182.96000 93.46000 80.00000 183.04000 93.46000 80.00000 183.04000 93.54000 80.00000 182.96000 93.54000 80.00000 182.96000 93.46000 82.20000 183.04000 93.46000 82.20000 183.04000 93.54000 82.20000 182.96000 93.54000 82.20000 186.96000 93.46000 80.00000 187.04000 93.46000 80.00000 187.04000 93.54000 80.00000 186.96000 93.54000 80.00000 186.96000 93.46000 82.20000 187.04000 93.46000 82.20000 187.04000 93.54000 82.20000 186.96000 93.54000 82.20000 190.96000 93.46000 80.00000 191.04000 93.46000 80.00000 191.04000 93.54000 80.00000 190.96000 93.54000 80.00000 190.96000 93.46000 82.20000 191.04000 93.46000 82.20000 191.04000 93.54000 82.20000 190.96000 93.54000 82.20000 159.00000 93.46750 80.14750 191.00000 93.46750 80.14750 191.00000 93.53250 80.14750 159.00000 93.53250 80.14750 159.00000 93.46750 80.21250 191.00000 93.46750 80.21250 191.00000 93.53250 80.21250 159.00000 93.53250 80.21250 159.00000 93.46750 82.11750 191.00000 93.46750 82.11750 191.00000 93.53250 82.11750 159.00000 93.53250 82.11750 159.00000 93.46750 82.18250 191.00000 93.46750 82.18250 191.00000 93.53250 82.18250 159.00000 93.53250 82.18250 159.01118 72.47441 80.20000 159.03118 72.51441 82.10000 159.00882 72.52559 82.10000 158.98882 72.48559 80.20000 159.41118 72.47441 80.20000 159.43118 72.51441 82.10000 159.40882 72.52559 82.10000 159.38882 72.48559 80.20000 159.81118 72.47441 80.20000 159.83118 72.51441 82.10000 159.80882 72.52559 82.10000 159.78882 72.48559 80.20000 160.21118 72.47441 80.20000 160.23118 72.51441 82.10000 160.20882 72.52559 82.10000 160.18882 72.48559 80.20000 160.61118 72.47441 80.20000 160.63118 72.51441 82.10000 160.60882 72.52559 82.10000 160.58882 72.48559 80.20000 161.01118 72.47441 80.20000 161.03118 72.51441 82.10000 161.00882 72.52559 82.10000 160.98882 72.48559 80.20000 161.41118 72.47441 80.20000 161.43118 72.51441 82.10000 161.40882 72.52559 82.10000 161.38882 72.48559 80.20000 161.81118 72.47441 80.20000 161.83118 72.51441 82.10000 161.80882 72.52559 82.10000 161.78882 72.48559 80.20000 162.21118 72.47441 80.20000 162.23118 72.51441 82.10000 162.20882 72.52559 82.10000 162.18882 72.48559 80.20000 162.61118 72.47441 80.20000 162.63118 72.51441 82.10000 162.60882 72.52559 82.10000 162.58882 72.48559 80.20000 163.01118 72.47441 80.20000 163.03118 72.51441 82.10000 163.00882 72.52559 82.10000 162.98882 72.48559 80.20000 163.41118 72.47441 80.20000 163.43118 72.51441 82.10000 163.40882 72.52559 82.10000 163.38882 72.48559 80.20000 163.81118 72.47441 80.20000 163.83118 72.51441 82.10000 163.80882 72.52559 82.10000 163.78882 72.48559 80.20000 164.21118 72.47441 80.20000 164.23118 72.51441 82.10000 164.20882 72.52559 82.10000 164.18882 72.48559 80.20000 164.61118 72.47441 80.20000 164.63118 72.51441 82.10000 164.60882 72.52559 82.10000 164.58882 72.48559 80.20000 165.01118 72.47441 80.20000 165.03118 72.51441 82.10000 165.00882 72.52559 82.10000 164.98882 72.48559 80.20000 165.41118 72.47441 80.20000 165.43118 72.51441 82.10000 165.40882 72.52559 82.10000 165.38882 72.48559 80.20000 165.81118 72.47441 80.20000 165.83118 72.51441 82.10000 165.80882 72.52559 82.10000 165.78882 72.48559 80.20000 166.21118 72.47441 80.20000 166.23118 72.51441 82.10000 166.20882 72.52559 82.10000 166.18882 72.48559 80.20000 166.61118 72.47441 80.20000 166.63118 72.51441 82.10000 166.60882 72.52559 82.10000 166.58882 72.48559 80.20000 167.01118 72.47441 80.20000 167.03118 72.51441 82.10000 167.00882 72.52559 82.10000 166.98882 72.48559 80.20000 167.41118 72.47441 80.20000 167.43118 72.51441 82.10000 167.40882 72.52559 82.10000 167.38882 72.48559 80.20000 167.81118 72.47441 80.20000 167.83118 72.51441 82.10000 167.80882 72.52559 82.10000 167.78882 72.48559 80.20000 168.21118 72.47441 80.20000 168.23118 72.51441 82.10000 168.20882 72.52559 82.10000 168.18882 72.48559 80.20000 168.61118 72.47441 80.20000 168.63118 72.51441 82.10000 168.60882 72.52559 82.10000 168.58882 72.48559 80.20000 169.01118 72.47441 80.20000 169.03118 72.51441 82.10000 169.00882 72.52559 82.10000 168.98882 72.48559 80.20000 169.41118 72.47441 80.20000 169.43118 72.51441 82.10000 169.40882 72.52559 82.10000 169.38882 72.48559 80.20000 169.81118 72.47441 80.20000 169.83118 72.51441 82.10000 169.80882 72.52559 82.10000 169.78882 72.48559 80.20000 170.21118 72.47441 80.20000 170.23118 72.51441 82.10000 170.20882 72.52559 82.10000 170.18882 72.48559 80.20000 170.61118 72.47441 80.20000 170.63118 72.51441 82.10000 170.60882 72.52559 82.10000 170.58882 72.48559 80.20000 171.01118 72.47441 80.20000 171.03118 72.51441 82.10000 171.00882 72.52559 82.10000 170.98882 72.48559 80.20000 179.01118 72.47441 80.20000 179.03118 72.51441 82.10000 179.00882 72.52559 82.10000 178.98882 72.48559 80.20000 179.41118 72.47441 80.20000 179.43118 72.51441 82.10000 179.40882 72.52559 82.10000 179.38882 72.48559 80.20000 179.81118 72.47441 80.20000 179.83118 72.51441 82.10000 179.80882 72.52559 82.10000 179.78882 72.48559 80.20000 180.21118 72.47441 80.20000 180.23118 72.51441 82.10000 180.20882 72.52559 82.10000 180.18882 72.48559 80.20000 180.61118 72.47441 80.20000 180.63118 72.51441 82.10000 180.60882 72.52559 82.10000 180.58882 72.48559 80.20000 181.01118 72.47441 80.20000 181.03118 72.51441 82.10000 181.00882 72.52559 82.10000 180.98882 72.48559 80.20000 181.41118 72.47441 80.20000 181.43118 72.51441 82.10000 181.40882 72.52559 82.10000 181.38882 72.48559 80.20000 181.81118 72.47441 80.20000 181.83118 72.51441 82.10000 181.80882 72.52559 82.10000 181.78882 72.48559 80.20000 182.21118 72.47441 80.20000 182.23118 72.51441 82.10000 182.20882 72.52559 82.10000 182.18882 72.48559 80.20000 182.61118 72.47441 80.20000 182.63118 72.51441 82.10000 182.60882 72.52559 82.10000 182.58882 72.48559 80.20000 183.01118 72.47441 80.20000 183.03118 72.51441 82.10000 183.00882 72.52559 82.10000 182.98882 72.48559 80.20000 183.41118 72.47441 80.20000 183.43118 72.51441 82.10000 183.40882 72.52559 82.10000 183.38882 72.48559 80.20000 183.81118 72.47441 80.20000 183.83118 72.51441 82.10000 183.80882 72.52559 82.10000 183.78882 72.48559 80.20000 184.21118 72.47441 80.20000 184.23118 72.51441 82.10000 184.20882 72.52559 82.10000 184.18882 72.48559 80.20000 184.61118 72.47441 80.20000 184.63118 72.51441 82.10000 184.60882 72.52559 82.10000 184.58882 72.48559 80.20000 185.01118 72.47441 80.20000 185.03118 72.51441 82.10000 185.00882 72.52559 82.10000 184.98882 72.48559 80.20000 185.41118 72.47441 80.20000 185.43118 72.51441 82.10000 185.40882 72.52559 82.10000 185.38882 72.48559 80.20000 185.81118 72.47441 80.20000 185.83118 72.51441 82.10000 185.80882 72.52559 82.10000 185.78882 72.48559 80.20000 186.21118 72.47441 80.20000 186.23118 72.51441 82.10000 186.20882 72.52559 82.10000 186.18882 72.48559 80.20000 186.61118 72.47441 80.20000 186.63118 72.51441 82.10000 186.60882 72.52559 82.10000 186.58882 72.48559 80.20000 187.01118 72.47441 80.20000 187.03118 72.51441 82.10000 187.00882 72.52559 82.10000 186.98882 72.48559 80.20000 187.41118 72.47441 80.20000 187.43118 72.51441 82.10000 187.40882 72.52559 82.10000 187.38882 72.48559 80.20000 187.81118 72.47441 80.20000 187.83118 72.51441 82.10000 187.80882 72.52559 82.10000 187.78882 72.48559 80.20000 188.21118 72.47441 80.20000 188.23118 72.51441 82.10000 188.20882 72.52559 82.10000 188.18882 72.48559 80.20000 188.61118 72.47441 80.20000 188.63118 72.51441 82.10000 188.60882 72.52559 82.10000 188.58882 72.48559 80.20000 189.01118 72.47441 80.20000 189.03118 72.51441 82.10000 189.00882 72.52559 82.10000 188.98882 72.48559 80.20000 189.41118 72.47441 80.20000 189.43118 72.51441 82.10000 189.40882 72.52559 82.10000 189.38882 72.48559 80.20000 189.81118 72.47441 80.20000 189.83118 72.51441 82.10000 189.80882 72.52559 82.10000 189.78882 72.48559 80.20000 190.21118 72.47441 80.20000 190.23118 72.51441 82.10000 190.20882 72.52559 82.10000 190.18882 72.48559 80.20000 190.61118 72.47441 80.20000 190.63118 72.51441 82.10000 190.60882 72.52559 82.10000 190.58882 72.48559 80.20000 191.01118 72.47441 80.20000 191.03118 72.51441 82.10000 191.00882 72.52559 82.10000 190.98882 72.48559 80.20000 159.01118 93.47441 80.20000 159.03118 93.51441 82.10000 159.00882 93.52559 82.10000 158.98882 93.48559 80.20000 159.41118 93.47441 80.20000 159.43118 93.51441 82.10000 159.40882 93.52559 82.10000 159.38882 93.48559 80.20000 159.81118 93.47441 80.20000 159.83118 93.51441 82.10000 159.80882 93.52559 82.10000 159.78882 93.48559 80.20000 160.21118 93.47441 80.20000 160.23118 93.51441 82.10000 160.20882 93.52559 82.10000 160.18882 93.48559 80.20000 160.61118 93.47441 80.20000 160.63118 93.51441 82.10000 160.60882 93.52559 82.10000 160.58882 93.48559 80.20000 161.01118 93.47441 80.20000 161.03118 93.51441 82.10000 161.00882 93.52559 82.10000 160.98882 93.48559 80.20000 161.41118 93.47441 80.20000 161.43118 93.51441 82.10000 161.40882 93.52559 82.10000 161.38882 93.48559 80.20000 161.81118 93.47441 80.20000 161.83118 93.51441 82.10000 161.80882 93.52559 82.10000 161.78882 93.48559 80.20000 162.21118 93.47441 80.20000 162.23118 93.51441 82.10000 162.20882 93.52559 82.10000 162.18882 93.48559 80.20000 162.61118 93.47441 80.20000 162.63118 93.51441 82.10000 162.60882 93.52559 82.10000 162.58882 93.48559 80.20000 163.01118 93.47441 80.20000 163.03118 93.51441 82.10000 163.00882 93.52559 82.10000 162.98882 93.48559 80.20000 163.41118 93.47441 80.20000 163.43118 93.51441 82.10000 163.40882 93.52559 82.10000 163.38882 93.48559 80.20000 163.81118 93.47441 80.20000 163.83118 93.51441 82.10000 163.80882 93.52559 82.10000 163.78882 93.48559 80.20000 164.21118 93.47441 80.20000 164.23118 93.51441 82.10000 164.20882 93.52559 82.10000 164.18882 93.48559 80.20000 164.61118 93.47441 80.20000 164.63118 93.51441 82.10000 164.60882 93.52559 82.10000 164.58882 93.48559 80.20000 165.01118 93.47441 80.20000 165.03118 93.51441 82.10000 165.00882 93.52559 82.10000 164.98882 93.48559 80.20000 165.41118 93.47441 80.20000 165.43118 93.51441 82.10000 165.40882 93.52559 82.10000 165.38882 93.48559 80.20000 165.81118 93.47441 80.20000 165.83118 93.51441 82.10000 165.80882 93.52559 82.10000 165.78882 93.48559 80.20000 166.21118 93.47441 80.20000 166.23118 93.51441 82.10000 166.20882 93.52559 82.10000 166.18882 93.48559 80.20000 166.61118 93.47441 80.20000 166.63118 93.51441 82.10000 166.60882 93.52559 82.10000 166.58882 93.48559 80.20000 167.01118 93.47441 80.20000 167.03118 93.51441 82.10000 167.00882 93.52559 82.10000 166.98882 93.48559 80.20000 167.41118 93.47441 80.20000 167.43118 93.51441 82.10000 167.40882 93.52559 82.10000 167.38882 93.48559 80.20000 167.81118 93.47441 80.20000 167.83118 93.51441 82.10000 167.80882 93.52559 82.10000 167.78882 93.48559 80.20000 168.21118 93.47441 80.20000 168.23118 93.51441 82.10000 168.20882 93.52559 82.10000 168.18882 93.48559 80.20000 168.61118 93.47441 80.20000 168.63118 93.51441 82.10000 168.60882 93.52559 82.10000 168.58882 93.48559 80.20000 169.01118 93.47441 80.20000 169.03118 93.51441 82.10000 169.00882 93.52559 82.10000 168.98882 93.48559 80.20000 169.41118 93.47441 80.20000 169.43118 93.51441 82.10000 169.40882 93.52559 82.10000 169.38882 93.48559 80.20000 169.81118 93.47441 80.20000 169.83118 93.51441 82.10000 169.80882 93.52559 82.10000 169.78882 93.48559 80.20000 170.21118 93.47441 80.20000 170.23118 93.51441 82.10000 170.20882 93.52559 82.10000 170.18882 93.48559 80.20000 170.61118 93.47441 80.20000 170.63118 93.51441 82.10000 170.60882 93.52559 82.10000 170.58882 93.48559 80.20000 171.01118 93.47441 80.20000 171.03118 93.51441 82.10000 171.00882 93.52559 82.10000 170.98882 93.48559 80.20000 171.41118 93.47441 80.20000 171.43118 93.51441 82.10000 171.40882 93.52559 82.10000 171.38882 93.48559 80.20000 171.81118 93.47441 80.20000 171.83118 93.51441 82.10000 171.80882 93.52559 82.10000 171.78882 93.48559 80.20000 172.21118 93.47441 80.20000 172.23118 93.51441 82.10000 172.20882 93.52559 82.10000 172.18882 93.48559 80.20000 172.61118 93.47441 80.20000 172.63118 93.51441 82.10000 172.60882 93.52559 82.10000 172.58882 93.48559 80.20000 173.01118 93.47441 80.20000 173.03118 93.51441 82.10000 173.00882 93.52559 82.10000 172.98882 93.48559 80.20000 173.41118 93.47441 80.20000 173.43118 93.51441 82.10000 173.40882 93.52559 82.10000 173.38882 93.48559 80.20000 173.81118 93.47441 80.20000 173.83118 93.51441 82.10000 173.80882 93.52559 82.10000 173.78882 93.48559 80.20000 174.21118 93.47441 80.20000 174.23118 93.51441 82.10000 174.20882 93.52559 82.10000 174.18882 93.48559 80.20000 174.61118 93.47441 80.20000 174.63118 93.51441 82.10000 174.60882 93.52559 82.10000 174.58882 93.48559 80.20000 175.01118 93.47441 80.20000 175.03118 93.51441 82.10000 175.00882 93.52559 82.10000 174.98882 93.48559 80.20000 175.41118 93.47441 80.20000 175.43118 93.51441 82.10000 175.40882 93.52559 82.10000 175.38882 93.48559 80.20000 175.81118 93.47441 80.20000 175.83118 93.51441 82.10000 175.80882 93.52559 82.10000 175.78882 93.48559 80.20000 176.21118 93.47441 80.20000 176.23118 93.51441 82.10000 176.20882 93.52559 82.10000 176.18882 93.48559 80.20000 176.61118 93.47441 80.20000 176.63118 93.51441 82.10000 176.60882 93.52559 82.10000 176.58882 93.48559 80.20000 177.01118 93.47441 80.20000 177.03118 93.51441 82.10000 177.00882 93.52559 82.10000 176.98882 93.48559 80.20000 177.41118 93.47441 80.20000 177.43118 93.51441 82.10000 177.40882 93.52559 82.10000 177.38882 93.48559 80.20000 177.81118 93.47441 80.20000 177.83118 93.51441 82.10000 177.80882 93.52559 82.10000 177.78882 93.48559 80.20000 178.21118 93.47441 80.20000 178.23118 93.51441 82.10000 178.20882 93.52559 82.10000 178.18882 93.48559 80.20000 178.61118 93.47441 80.20000 178.63118 93.51441 82.10000 178.60882 93.52559 82.10000 178.58882 93.48559 80.20000 179.01118 93.47441 80.20000 179.03118 93.51441 82.10000 179.00882 93.52559 82.10000 178.98882 93.48559 80.20000 179.41118 93.47441 80.20000 179.43118 93.51441 82.10000 179.40882 93.52559 82.10000 179.38882 93.48559 80.20000 179.81118 93.47441 80.20000 179.83118 93.51441 82.10000 179.80882 93.52559 82.10000 179.78882 93.48559 80.20000 180.21118 93.47441 80.20000 180.23118 93.51441 82.10000 180.20882 93.52559 82.10000 180.18882 93.48559 80.20000 180.61118 93.47441 80.20000 180.63118 93.51441 82.10000 180.60882 93.52559 82.10000 180.58882 93.48559 80.20000 181.01118 93.47441 80.20000 181.03118 93.51441 82.10000 181.00882 93.52559 82.10000 180.98882 93.48559 80.20000 181.41118 93.47441 80.20000 181.43118 93.51441 82.10000 181.40882 93.52559 82.10000 181.38882 93.48559 80.20000 181.81118 93.47441 80.20000 181.83118 93.51441 82.10000 181.80882 93.52559 82.10000 181.78882 93.48559 80.20000 182.21118 93.47441 80.20000 182.23118 93.51441 82.10000 182.20882 93.52559 82.10000 182.18882 93.48559 80.20000 182.61118 93.47441 80.20000 182.63118 93.51441 82.10000 182.60882 93.52559 82.10000 182.58882 93.48559 80.20000 183.01118 93.47441 80.20000 183.03118 93.51441 82.10000 183.00882 93.52559 82.10000 182.98882 93.48559 80.20000 183.41118 93.47441 80.20000 183.43118 93.51441 82.10000 183.40882 93.52559 82.10000 183.38882 93.48559 80.20000 183.81118 93.47441 80.20000 183.83118 93.51441 82.10000 183.80882 93.52559 82.10000 183.78882 93.48559 80.20000 184.21118 93.47441 80.20000 184.23118 93.51441 82.10000 184.20882 93.52559 82.10000 184.18882 93.48559 80.20000 184.61118 93.47441 80.20000 184.63118 93.51441 82.10000 184.60882 93.52559 82.10000 184.58882 93.48559 80.20000 185.01118 93.47441 80.20000 185.03118 93.51441 82.10000 185.00882 93.52559 82.10000 184.98882 93.48559 80.20000 185.41118 93.47441 80.20000 185.43118 93.51441 82.10000 185.40882 93.52559 82.10000 185.38882 93.48559 80.20000 185.81118 93.47441 80.20000 185.83118 93.51441 82.10000 185.80882 93.52559 82.10000 185.78882 93.48559 80.20000 186.21118 93.47441 80.20000 186.23118 93.51441 82.10000 186.20882 93.52559 82.10000 186.18882 93.48559 80.20000 186.61118 93.47441 80.20000 186.63118 93.51441 82.10000 186.60882 93.52559 82.10000 186.58882 93.48559 80.20000 187.01118 93.47441 80.20000 187.03118 93.51441 82.10000 187.00882 93.52559 82.10000 186.98882 93.48559 80.20000 187.41118 93.47441 80.20000 187.43118 93.51441 82.10000 187.40882 93.52559 82.10000 187.38882 93.48559 80.20000 187.81118 93.47441 80.20000 187.83118 93.51441 82.10000 187.80882 93.52559 82.10000 187.78882 93.48559 80.20000 188.21118 93.47441 80.20000 188.23118 93.51441 82.10000 188.20882 93.52559 82.10000 188.18882 93.48559 80.20000 188.61118 93.47441 80.20000 188.63118 93.51441 82.10000 188.60882 93.52559 82.10000 188.58882 93.48559 80.20000 189.01118 93.47441 80.20000 189.03118 93.51441 82.10000 189.00882 93.52559 82.10000 188.98882 93.48559 80.20000 189.41118 93.47441 80.20000 189.43118 93.51441 82.10000 189.40882 93.52559 82.10000 189.38882 93.48559 80.20000 189.81118 93.47441 80.20000 189.83118 93.51441 82.10000 189.80882 93.52559 82.10000 189.78882 93.48559 80.20000 190.21118 93.47441 80.20000 190.23118 93.51441 82.10000 190.20882 93.52559 82.10000 190.18882 93.48559 80.20000 190.61118 93.47441 80.20000 190.63118 93.51441 82.10000 190.60882 93.52559 82.10000 190.58882 93.48559 80.20000 191.01118 93.47441 80.20000 191.03118 93.51441 82.10000 191.00882 93.52559 82.10000 190.98882 93.48559 80.20000</float_array><technique_common><accessor source="#positions-array" count="788" stride="3"><param name="X" type="float"/><param name="Y" type="float"/><param name="Z" type="float"/></accessor></technique_common></source>
<source id="normals"><float_array id="normals-array" count="1830">0.00000 0.00000 -1.00000 0.00000 0.00000 -1.00000 0.00000 0.00000 1.00000 0.00000 0.00000 1.00000 0.00000 -1.00000 0.00000 0.00000 -1.00000 0.00000 1.00000 0.00000 0.00000 1.00000 0.00000 0.00000 0.00000 1.00000 0.00000 0.00000 1.00000 -0.00000 -1.00000 0.00000 0.00000 -1.00000 0.00000 0.00000 -1.00000 0.00000 0.00000 -1.00000 0.00000 0.00000 1.00000 0.00000 0.00000 1.00000 -0.00000 0.00000 0.00000 -1.00000 0.00000 0.00000 -1.00000 0.00000 0.00000 0.00000 -1.00000 0.00000 0.00000 -1.00000 0.00000 1.00000 0.00000 0.00000 1.00000 0.00000 0.00000 0.00000 1.00000 -0.00000 0.00000 1.00000 0.00000 0.00000 -1.00000 0.00000 0.00000 -1.00000 0.00000 0.00000 1.00000 0.00000 0.00000 1.00000 0.00000 -1.00000 0.00000 0.00000 -1.00000 0.00000 1.00000 0.00000 0.00000 1.00000 0.00000 0.00000 0.00000 1.00000 0.00000 0.00000 1.00000 -0.00000 -1.00000 0.00000 0.00000 -1.00000 0.00000 0.00000 1.00000 0.00000 0.00000 1.00000 0.00000 0.00000 -1.00000 0.00000 -0.00000 -1.00000 -0.00000 0.00000 0.00000 1.00000 0.00000 0.00000 1.00000 0.00000 0.00000 -0.00000 -1.00000 -0.00000 0.00000 -1.00000 0.00000 -1.00000 0.00000 0.00000 -1.00000 0.00000 0.00000 -0.00000 1.00000 0.00000 0.00000 1.00000 0.00000 0.00000 -1.00000 0.00000 0.00000 -1.00000 0.00000 0.00000 1.00000 0.00000 0.00000 1.00000 0.00000 -1.00000 0.00000 0.00000 -1.00000 0.00000 1.00000 0.00000 0.00000 1.00000 0.00000 0.00000 0.00000 1.00000 0.00000 0.00000 1.00000 -0.00000 -1.00000 0.00000 0.00000 -1.00000 0.00000 0.00000 0.00000 0.00000 -1.00000 0.00000 0.00000 -1.00000 0.00000 0.00000 1.00000 0.00000 0.00000 1.00000 0.00000 -1.00000 0.00000 0.00000 -1.00000 0.00000 1.00000 0.00000 0.00000 1.00000 0.00000 0.00000 0.00000 1.00000 0.00000 0.00000 1.00000 -0.00000 -1.00000 0.00000 0.00000 -1.00000 0.00000 0.00000 0.00000 0.00000 -1.00000 0.00000 0.00000 -1.00000 0.00000 0.00000 1.00000 0.00000 0.00000 1.00000 0.00000 -1.00000 0.00000 0.00000 -1.00000 0.00000 1.00000 0.00000 0.00000 1.00000 0.00000 0.00000 0.00000 1.00000 0.00000 0.00000 1.00000 -0.00000 -1.00000 0.00000 0.00000 -1.00000 0.00000 0.00000 0.00000 0.00000 -1.00000 0.00000 0.00000 -1.00000 0.00000 0.00000 1.00000 0.00000 0.00000 1.00000 0.00000 -1.00000 0.00000 0.00000 -1.00000 0.00000 1.00000 0.00000 0.00000 1.00000 0.00000 0.00000 0.00000 1.00000 0.00000 0.00000 1.00000 -0.00000 -1.00000 0.00000 0.00000 -1.00000 0.00000 0.00000 0.00000 0.00000 -1.00000 0.00000 0.00000 -1.00000 0.00000 0.00000 1.00000 0.00000 0.00000 1.00000 0.00000 -1.00000 0.00000 0.00000 -1.00000 0.00000 1.00000 0.00000 0.00000 1.00000 0.00000 0.00000 0.00000 1.00000 0.00000 0.00000 1.00000 -0.00000 -1.00000 0.00000 0.00000 -1.00000 0.00000 0.00000 0.00000 0.00000 -1.00000 0.00000 0.00000 -1.00000 0.00000 0.00000 1.00000 0.00000 0.00000 1.00000 0.00000 -1.00000 0.00000 0.00000 -1.00000 0.00000 1.00000 0.00000 0.00000 1.00000 0.00000 0.00000 0.00000 1.00000 0.00000 0.00000 1.00000 -0.00000 -1.00000 0.00000 0.00000 -1.00000 0.00000 0.00000 0.00000 0.00000 -1.00000 0.00000 0.00000 -1.00000 0.00000 0.00000 1.00000 0.00000 0.00000 1.00000 0.00000 -1.00000 0.00000 0.00000 -1.00000 0.00000 1.00000 0.00000 0.00000 1.00000 0.00000 0.00000 0.00000 1.00000 0.00000 0.00000 1.00000 -0.00000 -1.00000 0.00000 0.00000 -1.00000 0.00000 0.00000 0.00000 0.00000 -1.00000 0.00000 0.00000 -1.00000 0.00000 0.00000 1.00000 0.00000 0.00000 1.00000 0.00000 -1.00000 0.00000 0.00000 -1.00000 0.00000 1.00000 0.00000 0.00000 1.00000 0.00000 0.00000 0.00000 1.00000 0.00000 0.00000 1.00000 -0.00000 -1.00000 0.00000 0.00000 -1.00000 0.00000 0.00000 0.00000 0.00000 -1.00000 0.00000 0.00000 -1.00000 0.00000 0.00000 1.00000 0.00000 0.00000 1.00000 0.00000 -1.00000 0.00000 0.00000 -1.00000 0.00000 1.00000 0.00000 0.00000 1.00000 0.00000 0.00000 0.00000 1.00000 0.00000 0.00000 1.00000 -0.00000 -1.00000 0.00000 0.00000 -1.00000 0.00000 0.00000 0.00000 0.00000 -1.00000 0.00000 0.00000 -1.00000 0.00000 0.00000 1.00000 0.00000 0.00000 1.00000 0.00000 -1.00000 0.00000 0.00000 -1.00000 0.00000 1.00000 0.00000 0.00000 1.00000 0.00000 0.00000 0.00000 1.00000 0.00000 0.00000 1.00000 -0.00000 -1.00000 0.00000 0.00000 -1.00000 0.00000 0.00000 0.00000 0.00000 -1.00000 0.00000 0.00000 -1.00000 0.00000 0.00000 1.00000 0.00000 0.00000 1.00000 0.00000 -1.00000 0.00000 0.00000 -1.00000 0.00000 1.00000 0.00000 0.00000 1.00000 0.00000 0.00000 0.00000 1.00000 0.00000 0.00000 1.00000 -0.00000 -1.00000 0.00000 0.00000 -1.00000 0.00000 0.00000 0.00000 0.00000 -1.00000 0.00000 0.00000 -1.00000 0.00000 0.00000 1.00000 0.00000 0.00000 1.00000 0.00000 -1.00000 0.00000 0.00000 -1.00000 0.00000 1.00000 0.00000 0.00000 1.00000 0.00000 0.00000 0.00000 1.00000 0.00000 0.00000 1.00000 -0.00000 -1.00000 0.00000 0.00000 -1.00000 0.00000 0.00000 0.00000 0.00000 -1.00000 0.00000 0.00000 -1.00000 0.00000 0.00000 1.00000 0.00000 0.00000 1.00000 0.00000 -1.00000 0.00000 0.00000 -1.00000 0.00000 1.00000 0.00000 0.00000 1.00000 0.00000 0.00000 0.00000 1.00000 0.00000 0.00000 1.00000 -0.00000 -1.00000 0.00000 0.00000 -1.00000 0.00000 0.00000 0.00000 0.00000 -1.00000 0.00000 0.00000 -1.00000 0.00000 0.00000 1.00000 0.00000 0.00000 1.00000 0.00000 -1.00000 0.00000 0.00000 -1.00000 0.00000 1.00000 0.00000 0.00000 1.00000 0.00000 0.00000 0.00000 1.00000 0.00000 0.00000 1.00000 -0.00000 -1.00000 0.00000 0.00000 -1.00000 0.00000 0.00000 0.00000 0.00000 -1.00000 0.00000 0.00000 -1.00000 0.00000 0.00000 1.00000 0.00000 0.00000 1.00000 0.00000 -1.00000 0.00000 0.00000 -1.00000 0.00000 1.00000 0.00000 0.00000 1.00000 0.00000 0.00000 0.00000 1.00000 0.00000 0.00000 1.00000 -0.00000 -1.00000 0.00000 0.00000 -1.00000 0.00000 0.00000 0.00000 0.00000 -1.00000 0.00000 0.00000 -1.00000 0.00000 0.00000 1.00000 0.00000 0.00000 1.00000 0.00000 -1.00000 0.00000 0.00000 -1.00000 0.00000 1.00000 0.00000 0.00000 1.00000 0.00000 0.00000 0.00000 1.00000 0.00000 0.00000 1.00000 -0.00000 -1.00000 0.00000 0.00000 -1.00000 0.00000 0.00000 0.00000 0.00000 -1.00000 0.00000 0.00000 -1.00000 0.00000 0.00000 1.00000 0.00000 0.00000 1.00000 0.00000 -1.00000 0.00000 0.00000 -1.00000 0.00000 1.00000 0.00000 0.00000 1.00000 0.00000 0.00000 0.00000 1.00000 0.00000 0.00000 1.00000 -0.00000 -1.00000 0.00000 0.00000 -1.00000 0.00000 0.00000 0.00000 0.00000 -1.00000 0.00000 0.00000 -1.00000 0.00000 0.00000 1.00000 0.00000 0.00000 1.00000 0.00000 -1.00000 0.00000 0.00000 -1.00000 0.00000 1.00000 0.00000 0.00000 1.00000 0.00000 0.00000 0.00000 1.00000 0.00000 0.00000 1.00000 -0.00000 -1.00000 0.00000 0.00000 -1.00000 0.00000 0.00000 0.00000 0.00000 -1.00000 0.00000 0.00000 -1.00000 0.00000 0.00000 1.00000 0.00000 0.00000 1.00000 0.00000 -1.00000 0.00000 0.00000 -1.00000 0.00000 1.00000 0.00000 0.00000 1.00000 0.00000 0.00000 0.00000 1.00000 0.00000 0.00000 1.00000 -0.00000 -1.00000 0.00000 0.00000 -1.00000 0.00000 0.00000 0.00000 0.00000 -1.00000 0.00000 0.00000 -1.00000 0.00000 0.00000 1.00000 0.00000 0.00000 1.00000 0.00000 -1.00000 0.00000 0.00000 -1.00000 0.00000 1.00000 0.00000 0.00000 1.00000 0.00000 0.00000 0.00000 1.00000 0.00000 0.00000 1.00000 -0.00000 -1.00000 0.00000 0.00000 -1.00000 0.00000 0.00000 0.00000 0.00000 -1.00000 0.00000 0.00000 -1.00000 0.00000 0.00000 1.00000 0.00000 0.00000 1.00000 0.00000 -1.00000 0.00000 0.00000 -1.00000 0.00000 1.00000 0.00000 0.00000 1.00000 0.00000 0.00000 0.00000 1.00000 0.00000 0.00000 1.00000 -0.00000 -1.00000 0.00000 0.00000 -1.00000 0.00000 0.00000 0.00000 0.00000 -1.00000 0.00000 0.00000 -1.00000 0.00000 0.00000 1.00000 0.00000 0.00000 1.00000 0.00000 -1.00000 0.00000 0.00000 -1.00000 0.00000 1.00000 0.00000 0.00000 1.00000 0.00000 0.00000 0.00000 1.00000 0.00000 0.00000 1.00000 -0.00000 -1.00000 0.00000 0.00000 -1.00000 0.00000 0.00000 0.00000 0.00000 -1.00000 0.00000 0.00000 -1.00000 0.00000 0.00000 1.00000 0.00000 0.00000 1.00000 0.00000 -1.00000 0.00000 0.00000 -1.00000 0.00000 1.00000 0.00000 0.00000 1.00000 0.00000 0.00000 0.00000 1.00000 0.00000 0.00000 1.00000 -0.00000 -1.00000 0.00000 0.00000 -1.00000 0.00000 0.00000 -0.44709 -0.89418 0.02353 -0.44709 -0.89418 0.02353 -0.44709 -0.89418 0.02353 -0.44709 -0.89418 0.02353 -0.44709 -0.89418 0.02353 -0.44709 -0.89418 0.02353 -0.44709 -0.89418 0.02353 -0.44709 -0.89418 0.02353 -0.44709 -0.89418 0.02353 -0.44709 -0.89418 0.02353 -0.44709 -0.89418 0.02353 -0.44709 -0.89418 0.02353 -0.44709 -0.89418 0.02353 -0.44709 -0.89418 0.02353 -0.44709 -0.89418 0.02353 -0.44709 -0.89418 0.02353 -0.44709 -0.89418 0.02353 -0.44709 -0.89418 0.02353 -0.44709 -0.89418 0.02353 -0.44709 -0.89418 0.02353 -0.44709 -0.89418 0.02353 -0.44709 -0.89418 0.02353 -0.44709 -0.89418 0.02353 -0.44709 -0.89418 0.02353 -0.44709 -0.89418 0.02353 -0.44709 -0.89418 0.02353 -0.44709 -0.89418 0.02353 -0.44709 -0.89418 0.02353 -0.44709 -0.89418 0.02353 -0.44709 -0.89418 0.02353 -0.44709 -0.89418 0.02353 -0.44709 -0.89418 0.02353 -0.44709 -0.89418 0.02353 -0.44709 -0.89418 0.02353 -0.44709 -0.89418 0.02353 -0.44709 -0.89418 0.02353 -0.44709 -0.89418 0.02353 -0.44709 -0.89418 0.02353 -0.44709 -0.89418 0.02353 -0.44709 -0.89418 0.02353 -0.44709 -0.89418 0.02353 -0.44709 -0.89418 0.02353 -0.44709 -0.89418 0.02353 -0.44709 -0.89418 0.02353 -0.44709 -0.89418 0.02353 -0.44709 -0.89418 0.02353 -0.44709 -0.89418 0.02353 -0.44709 -0.89418 0.02353 -0.44709 -0.89418 0.02353 -0.44709 -0.89418 0.02353 -0.44709 -0.89418 0.02353 -0.44709 -0.89418 0.02353 -0.44709 -0.89418 0.02353 -0.44709 -0.89418 0.02353 -0.44709 -0.89418 0.02353 -0.44709 -0.89418 0.02353 -0.44709 -0.89418 0.02353 -0.44709 -0.89418 0.02353 -0.44709 -0.89418 0.02353 -0.44709 -0.89418 0.02353 -0.44709 -0.89418 0.02353 -0.44709 -0.89418 0.02353 -0.44709 -0.89418 0.02353 -0.44709 -0.89418 0.02353 -0.44709 -0.89418 0.02353 -0.44709 -0.89418 0.02353 -0.44709 -0.89418 0.02353 -0.44709 -0.89418 0.02353 -0.44709 -0.89418 0.02353 -0.44709 -0.89418 0.02353 -0.44709 -0.89418 0.02353 -0.44709 -0.89418 0.02353 -0.44709 -0.89418 0.02353 -0.44709 -0.89418 0.02353 -0.44709 -0.89418 0.02353 -0.44709 -0.89418 0.02353 -0.44709 -0.89418 0.02353 -0.44709 -0.89418 0.02353 -0.44709 -0.89418 0.02353 -0.44709 -0.89418 0.02353 -0.44709 -0.89418 0.02353 -0.44709 -0.89418 0.02353 -0.44709 -0.89418 0.02353 -0.44709 -0.89418 0.02353 -0.44709 -0.89418 0.02353 -0.44709 -0.89418 0.02353 -0.44709 -0.89418 0.02353 -0.44709 -0.89418 0.02353 -0.44709 -0.89418 0.02353 -0.44709 -0.89418 0.02353 -0.44709 -0.89418 0.02353 -0.44709 -0.89418 0.02353 -0.44709 -0.89418 0.02353 -0.44709 -0.89418 0.02353 -0.44709 -0.89418 0.02353 -0.44709 -0.89418 0.02353 -0.44709 -0.89418 0.02353 -0.44709 -0.89418 0.02353 -0.44709 -0.89418 0.02353 -0.44709 -0.89418 0.02353 -0.44709 -0.89418 0.02353 -0.44709 -0.89418 0.02353 -0.44709 -0.89418 0.02353 -0.44709 -0.89418 0.02353 -0.44709 -0.89418 0.02353 -0.44709 -0.89418 0.02353 -0.44709 -0.89418 0.02353 -0.44709 -0.89418 0.02353 -0.44709 -0.89418 0.02353 -0.44709 -0.89418 0.02353 -0.44709 -0.89418 0.02353 -0.44709 -0.89418 0.02353 -0.44709 -0.89418 0.02353 -0.44709 -0.89418 0.02353 -0.44709 -0.89418 0.02353 -0.44709 -0.89418 0.02353 -0.44709 -0.89418 0.02353 -0.44709 -0.89418 0.02353 -0.44709 -0.89418 0.02353 -0.44709 -0.89418 0.02353 -0.44709 -0.89418 0.02353 -0.44709 -0.89418 0.02353 -0.44709 -0.89418 0.02353 -0.44709 -0.89418 0.02353 -0.44709 -0.89418 0.02353 -0.44709 -0.89418 0.02353 -0.44709 -0.89418 0.02353 -0.44709 -0.89418 0.02353 -0.44709 -0.89418 0.02353 -0.44709 -0.89418 0.02353 -0.44709 -0.89418 0.02353 -0.44709 -0.89418 0.02353 -0.44709 -0.89418 0.02353 -0.44709 -0.89418 0.02353 -0.44709 -0.89418 0.02353 -0.44709 -0.89418 0.02353 -0.44709 -0.89418 0.02353 -0.44709 -0.89418 0.02353 -0.44709 -0.89418 0.02353 -0.44709 -0.89418 0.02353 -0.44709 -0.89418 0.02353 -0.44709 -0.89418 0.02353 -0.44709 -0.89418 0.02353 -0.44709 -0.89418 0.02353 -0.44709 -0.89418 0.02353 -0.44709 -0.89418 0.02353 -0.44709 -0.89418 0.02353 -0.44709 -0.89418 0.02353 -0.44709 -0.89418 0.02353 -0.44709 -0.89418 0.02353 -0.44709 -0.89418 0.02353 -0.44709 -0.89418 0.02353 -0.44709 -0.89418 0.02353 -0.44709 -0.89418 0.02353 -0.44709 -0.89418 0.02353 -0.44709 -0.89418 0.02353 -0.44709 -0.89418 0.02353 -0.44709 -0.89418 0.02353 -0.44709 -0.89418 0.02353 -0.44709 -0.89418 0.02353 -0.44709 -0.89418 0.02353 -0.44709 -0.89418 0.02353 -0.44709 -0.89418 0.02353 -0.44709 -0.89418 0.02353 -0.44709 -0.89418 0.02353 -0.44709 -0.89418 0.02353 -0.44709 -0.89418 0.02353 -0.44709 -0.89418 0.02353 -0.44709 -0.89418 0.02353 -0.44709 -0.89418 0.02353 -0.44709 -0.89418 0.02353 -0.44709 -0.89418 0.02353 -0.44709 -0.89418 0.02353 -0.44709 -0.89418 0.02353 -0.44709 -0.89418 0.02353 -0.44709 -0.89418 0.02353 -0.44709 -0.89418 0.02353 -0.44709 -0.89418 0.02353 -0.44709 -0.89418 0.02353 -0.44709 -0.89418 0.02353 -0.44709 -0.89418 0.02353 -0.44709 -0.89418 0.02353 -0.44709 -0.89418 0.02353 -0.44709 -0.89418 0.02353 -0.44709 -0.89418 0.02353 -0.44709 -0.89418 0.02353 -0.44709 -0.89418 0.02353 -0.44709 -0.89418 0.02353 -0.44709 -0.89418 0.02353 -0.44709 -0.89418 0.02353 -0.44709 -0.89418 0.02353 -0.44709 -0.89418 0.02353 -0.44709 -0.89418 0.02353 -0.44709 -0.89418 0.02353 -0.44709 -0.89418 0.02353 -0.44709 -0.89418 0.02353 -0.44709 -0.89418 0.02353 -0.44709 -0.89418 0.02353 -0.44709 -0.89418 0.02353 -0.44709 -0.89418 0.02353 -0.44709 -0.89418 0.02353 -0.44709 -0.89418 0.02353 -0.44709 -0.89418 0.02353 -0.44709 -0.89418 0.02353 -0.44709 -0.89418 0.02353 -0.44709 -0.89418 0.02353 -0.44709 -0.89418 0.02353 -0.44709 -0.89418 0.02353 -0.44709 -0.89418 0.02353 -0.44709 -0.89418 0.02353 -0.44709 -0.89418 0.02353 -0.44709 -0.89418 0.02353 -0.44709 -0.89418 0.02353 -0.44709 -0.89418 0.02353 -0.44709 -0.89418 0.02353 -0.44709 -0.89418 0.02353 -0.44709 -0.89418 0.02353 -0.44709 -0.89418 0.02353 -0.44709 -0.89418 0.02353 -0.44709 -0.89418 0.02353 -0.44709 -0.89418 0.02353 -0.44709 -0.89418 0.02353 -0.44709 -0.89418 0.02353 -0.44709 -0.89418 0.02353 -0.44709 -0.89418 0.02353 -0.44709 -0.89418 0.02353 -0.44709 -0.89418 0.02353 -0.44709 -0.89418 0.02353 -0.44709 -0.89418 0.02353 -0.44709 -0.89418 0.02353 -0.44709 -0.89418 0.02353 -0.44709 -0.89418 0.02353 -0.44709 -0.89418 0.02353 -0.44709 -0.89418 0.02353 -0.44709 -0.89418 0.02353 -0.44709 -0.89418 0.02353 -0.44709 -0.89418 0.02353 -0.44709 -0.89418 0.02353 -0.44709 -0.89418 0.02353 -0.44709 -0.89418 0.02353 -0.44709 -0.89418 0.02353 -0.44709 -0.89418 0.02353 -0.44709 -0.89418 0.02353 -0.44709 -0.89418 0.02353 -0.44709 -0.89418 0.02353 -0.44709 -0.89418 0.02353 -0.44709 -0.89418 0.02353 -0.44709 -0.89418 0.02353 -0.44709 -0.89418 0.02353 -0.44709 -0.89418 0.02353 -0.44709 -0.89418 0.02353 -0.44709 -0.89418 0.02353 -0.44709 -0.89418 0.02353 -0.44709 -0.89418 0.02353 -0.44709 -0.89418 0.02353 -0.44709 -0.89418 0.02353 -0.44709 -0.89418 0.02353 -0.44709 -0.89418 0.02353 -0.44709 -0.89418 0.02353 -0.44709 -0.89418 0.02353 -0.44709 -0.89418 0.02353 -0.44709 -0.89418 0.02353 -0.44709 -0.89418 0.02353 -0.44709 -0.89418 0.02353 -0.44709 -0.89418 0.02353 -0.44709 -0.89418 0.02353 -0.44709 -0.89418 0.02353 -0.44709 -0.89418 0.02353 -0.44709 -0.89418 0.02353 -0.44709 -0.89418 0.02353 -0.44709 -0.89418 0.02353 -0.44709 -0.89418 0.02353 -0.44709 -0.89418 0.02353 -0.44709 -0.89418 0.02353 -0.44709 -0.89418 0.02353 -0.44709 -0.89418 0.02353 -0.44709 -0.89418 0.02353 -0.44709 -0.89418 0.02353 -0.44709 -0.89418 0.02353 -0.44709 -0.89418 0.02353 -0.44709 -0.89418 0.02353 -0.44709 -0.89418 0.02353 -0.44709 -0.89418 0.02353 -0.44709 -0.89418 0.02353 -0.44709 -0.89418 0.02353 -0.44709 -0.89418 0.02353</float_array><technique_common><accessor source="#normals-array" count="610" stride="3"><param name="X" type="float"/><param name="Y" type="float"/><param name="Z" type="float"/></accessor></technique_common></source>
<vertices id="vertices"><input semantic="POSITION" source="#positions"/></vertices><triangles count="610"><input semantic="VERTEX" source="#vertices" offset="0"/><input semantic="NORMAL" source="#normals" offset="1"/><p>0 0 2 0 1 0 0 1 3 1 2 1 4 2 5 2 6 2 4 3 6 3 7 3 0 4 1 4 5 4 0 5 5 5 4 5 1 6 2 6 6 6 1 7 6 7 5 7 2 8 3 8 7 8 2 9 7 9 6 9 3 10 0 10 4 10 3 11 4 11 7 11 8 12 10 12 9 12 8 13 11 13 10 13 12 14 13 14 14 14 12 15 14 15 15 15 8 16 9 16 13 16 8 17 13 17 12 17 9 18 10 18 14 18 9 19 14 19 13 19 10 20 11 20 15 20 10 21 15 21 14 21 11 22 8 22 12 22 11 23 12 23 15 23 16 24 18 24 17 24 16 25 19 25 18 25 20 26 21 26 22 26 20 27 22 27 23 27 16 28 17 28 21 28 16 29 21 29 20 29 17 30 18 30 22 30 17 31 22 31 21 31 18 32 19 32 23 32 18 33 23 33 22 33 19 34 16 34 20 34 19 35 20 35 23 35 24 36 26 36 25 36 24 37 27 37 26 37 28 38 29 38 30 38 28 39 30 39 31 39 24 40 25 40 29 40 24 41 29 41 28 41 25 42 26 42 30 42 25 43 30 43 29 43 26 44 27 44 31 44 26 45 31 45 30 45 27 46 24 46 28 46 27 47 28 47 31 47 32 48 34 48 33 48 32 49 35 49 34 49 36 50 37 50 38 50 36 51 38 51 39 51 32 52 33 52 37 52 32 53 37 53 36 53 33 54 34 54 38 54 33 55 38 55 37 55 34 56 35 56 39 56 34 57 39 57 38 57 35 58 32 58 36 58 35 59 36 59 39 59 40 60 42 60 41 60 40 61 43 61 42 61 44 62 45 62 46 62 44 63 46 63 47 63 40 64 41 64 45 64 40 65 45 65 44 65 41 66 42 66 46 66 41 67 46 67 45 67 42 68 43 68 47 68 42 69 47 69 46 69 43 70 40 70 44 70 43 71 44 71 47 71 48 72 50 72 49 72 48 73 51 73 50 73 52 74 53 74 54 74 52 75 54 75 55 75 48 76 49 76 53 76 48 77 53 77 52 77 49 78 50 78 54 78 49 79 54 79 53 79 50 80 51 80 55 80 50 81 55 81 54 81 51 82 48 82 52 82 51 83 52 83 55 83 56 84 58 84 57 84 56 85 59 85 58 85 60 86 61 86 62 86 60 87 62 87 63 87 56 88 57 88 61 88 56 89 61 89 60 89 57 90 58 90 62 90 57 91 62 91 61 91 58 92 59 92 63 92 58 93 63 93 62 93 59 94 56 94 60 94 59 95 60 95 63 95 64 96 66 96 65 96 64 97 67 97 66 97 68 98 69 98 70 98 68 99 70 99 71 99 64 100 65 100 69 100 64 101 69 101 68 101 65 102 66 102 70 102 65 103 70 103 69 103 66 104 67 104 71 104 66 105 71 105 70 105 67 106 64 106 68 106 67 107 68 107 71 107 72 108 74 108 73 108 72 109 75 109 74 109 76 110 77 110 78 110 76 111 78 111 79 111 72 112 73 112 77 112 72 113 77 113 76 113 73 114 74 114 78 114 73 115 78 115 77 115 74 116 75 116 79 116 74 117 79 117 78 117 75 118 72 118 76 118 75 119 76 119 79 119 80 120 82 120 81 120 80 121 83 121 82 121 84 122 85 122 86 122 84 123 86 123 87 123 80 124 81 124 85 124 80 125 85 125 84 125 81 126 82 126 86 126 81 127 86 127 85 127 82 128 83 128 87 128 82 129 87 129 86 129 83 130 80 130 84 130 83 131 84 131 87 131 88 132 90 132 89 132 88 133 91 133 90 133 92 134 93 134 94 134 92 135 94 135 95 135 88 136 89 136 93 136 88 137 93 137 92 137 89 138 90 138 94 138 89 139 94 139 93 139 90 140 91 140 95 140 90 141 95 141 94 141 91 142 88 142 92 142 91 143 92 143 95 143 96 144 98 144 97 144 96 145 99 145 98 145 100 146 101 146 102 146 100 147 102 147 103 147 96 148 97 148 101 148 96 149 101 149 100 149 97 150 98 150 102 150 97 151 102 151 101 151 98 152 99 152 103 152 98 153 103 153 102 153 99 154 96 154 100 154 99 155 100 155 103 155 104 156 106 156 105 156 104 157 107 157 106 157 108 158 109 158 110 158 108 159 110 159 111 159 104 160 105 160 109 160 104 161 109 161 108 161 105 162 106 162 110 162 105 163 110 163 109 163 106 164 107 164 111 164 106 165 111 165 110 165 107 166 104 166 108 166 107 167 108 167 111 167 112 168 114 168 113 168 112 169 115 169 114 169 116 170 117 170 118 170 116 171 118 171 119 171 112 172 113 172 117 172 112 173 117 173 116 173 113 174 114 174 118 174 113 175 118 175 117 175 114 176 115 176 119 176 114 177 119 177 118 177 115 178 112 178 116 178 115 179 116 179 119 179 120 180 122 180 121 180 120 181 123 181 122 181 124 182 125 182 126 182 124 183 126 183 127 183 120 184 121 184 125 184 120 185 125 185 124 185 121 186 122 186 126 186 121 187 126 187 125 187 122 188 123 188 127 188 122 189 127 189 126 189 123 190 120 190 124 190 123 191 124 191 127 191 128 192 130 192 129 192 128 193 131 193 130 193 132 194 133 194 134 194 132 195 134 195 135 195 128 196 129 196 133 196 128 197 133 197 132 197 129 198 130 198 134 198 129 199 134 199 133 199 130 200 131 200 135 200 130 201 135 201 134 201 131 202 128 202 132 202 131 203 132 203 135 203 136 204 138 204 137 204 136 205 139 205 138 205 140 206 141 206 142 206 140 207 142 207 143 207 136 208 137 208 141 208 136 209 141 209 140 209 137 210 138 210 142 210 137 211 142 211 141 211 138 212 139 212 143 212 138 213 143 213 142 213 139 214 136 214 140 214 139 215 140 215 143 215 144 216 146 216 145 216 144 217 147 217 146 217 148 218 149 218 150 218 148 219 150 219 151 219 144 220 145 220 149 220 144 221 149 221 148 221 145 222 146 222 150 222 145 223 150 223 149 223 146 224 147 224 151 224 146 225 151 225 150 225 147 226 144 226 148 226 147 227 148 227 151 227 152 228 154 228 153 228 152 229 155 229 154 229 156 230 157 230 158 230 156 231 158 231 159 231 152 232 153 232 157 232 152 233 157 233 156 233 153 234 154 234 158 234 153 235 158 235 157 235 154 236 155 236 159 236 154 237 159 237 158 237 155 238 152 238 156 238 155 239 156 239 159 239 160 240 162 240 161 240 160 241 163 241 162 241 164 242 165 242 166 242 164 243 166 243 167 243 160 244 161 244 165 244 160 245 165 245 164 245 161 246 162 246 166 246 161 247 166 247 165 247 162 248 163 248 167 248 162 249 167 249 166 249 163 250 160 250 164 250 163 251 164 251 167 251 168 252 170 252 169 252 168 253 171 253 170 253 172 254 173 254 174 254 172 255 174 255 175 255 168 256 169 256 173 256 168 257 173 257 172 257 169 258 170 258 174 258 169 259 174 259 173 259 170 260 171 260 175 260 170 261 175 261 174 261 171 262 168 262 172 262 171 263 172 263 175 263 176 264 178 264 177 264 176 265 179 265 178 265 180 266 181 266 182 266 180 267 182 267 183 267 176 268 177 268 181 268 176 269 181 269 180 269 177 270 178 270 182 270 177 271 182 271 181 271 178 272 179 272 183 272 178 273 183 273 182 273 179 274 176 274 180 274 179 275 180 275 183 275 184 276 186 276 185 276 184 277 187 277 186 277 188 278 189 278 190 278 188 279 190 279 191 279 184 280 185 280 189 280 184 281 189 281 188 281 185 282 186 282 190 282 185 283 190 283 189 283 186 284 187 284 191 284 186 285 191 285 190 285 187 286 184 286 188 286 187 287 188 287 191 287 192 288 194 288 193 288 192 289 195 289 194 289 196 290 197 290 198 290 196 291 198 291 199 291 192 292 193 292 197 292 192 293 197 293 196 293 193 294 194 294 198 294 193 295 198 295 197 295 194 296 195 296 199 296 194 297 199 297 198 297 195 298 192 298 196 298 195 299 196 299 199 299 200 300 202 300 201 300 200 301 203 301 202 301 204 302 205 302 206 302 204 303 206 303 207 303 200 304 201 304 205 304 200 305 205 305 204 305 201 306 202 306 206 306 201 307 206 307 205 307 202 308 203 308 207 308 202 309 207 309 206 309 203 310 200 310 204 310 203 311 204 311 207 311 208 312 210 312 209 312 208 313 211 313 210 313 212 314 213 314 214 314 212 315 214 315 215 315 208 316 209 316 213 316 208 317 213 317 212 317 209 318 210 318 214 318 209 319 214 319 213 319 210 320 211 320 215 320 210 321 215 321 214 321 211 322 208 322 212 322 211 323 212 323 215 323 216 324 217 324 218 324 216 325 218 325 219 325 220 326 221 326 222 326 220 327 222 327 223 327 224 328 225 328 226 328 224 329 226 329 227 329 228 330 229 330 230 330 228 331 230 331 231 331 232 332 233 332 234 332 232 333 234 333 235 333 236 334 237 334 238 334 236 335 238 335 239 335 240 336 241 336 242 336 240 337 242 337 243 337 244 338 245 338 246 338 244 339 246 339 247 339 248 340 249 340 250 340 248 341 250 341 251 341 252 342 253 342 254 342 252 343 254 343 255 343 256 344 257 344 258 344 256 345 258 345 259 345 260 346 261 346 262 346 260 347 262 347 263 347 264 348 265 348 266 348 264 349 266 349 267 349 268 350 269 350 270 350 268 351 270 351 271 351 272 352 273 352 274 352 272 353 274 353 275 353 276 354 277 354 278 354 276 355 278 355 279 355 280 356 281 356 282 356 280 357 282 357 283 357 284 358 285 358 286 358 284 359 286 359 287 359 288 360 289 360 290 360 288 361 290 361 291 361 292 362 293 362 294 362 292 363 294 363 295 363 296 364 297 364 298 364 296 365 298 365 299 365 300 366 301 366 302 366 300 367 302 367 303 367 304 368 305 368 306 368 304 369 306 369 307 369 308 370 309 370 310 370 308 371 310 371 311 371 312 372 313 372 314 372 312 373 314 373 315 373 316 374 317 374 318 374 316 375 318 375 319 375 320 376 321 376 322 376 320 377 322 377 323 377 324 378 325 378 326 378 324 379 326 379 327 379 328 380 329 380 330 380 328 381 330 381 331 381 332 382 333 382 334 382 332 383 334 383 335 383 336 384 337 384 338 384 336 385 338 385 339 385 340 386 341 386 342 386 340 387 342 387 343 387 344 388 345 388 346 388 344 389 346 389 347 389 348 390 349 390 350 390 348 391 350 391 351 391 352 392 353 392 354 392 352 393 354 393 355 393 356 394 357 394 358 394 356 395 358 395 359 395 360 396 361 396 362 396 360 397 362 397 363 397 364 398 365 398 366 398 364 399 366 399 367 399 368 400 369 400 370 400 368 401 370 401 371 401 372 402 373 402 374 402 372 403 374 403 375 403 376 404 377 404 378 404 376 405 378 405 379 405 380 406 381 406 382 406 380 407 382 407 383 407 384 408 385 408 386 408 384 409 386 409 387 409 388 410 389 410 390 410 388 411 390 411 391 411 392 412 393 412 394 412 392 413 394 413 395 413 396 414 397 414 398 414 396 415 398 415 399 415 400 416 401 416 402 416 400 417 402 417 403 417 404 418 405 418 406 418 404 419 406 419 407 419 408 420 409 420 410 420 408 421 410 421 411 421 412 422 413 422 414 422 412 423 414 423 415 423 416 424 417 424 418 424 416 425 418 425 419 425 420 426 421 426 422 426 420 427 422 427 423 427 424 428 425 428 426 428 424 429 426 429 427 429 428 430 429 430 430 430 428 431 430 431 431 431 432 432 433 432 434 432 432 433 434 433 435 433 436 434 437 434 438 434 436 435 438 435 439 435 440 436 441 436 442 436 440 437 442 437 443 437 444 438 445 438 446 438 444 439 446 439 447 439 448 440 449 440 450 440 448 441 450 441 451 441 452 442 453 442 454 442 452 443 454 443 455 443 456 444 457 444 458 444 456 445 458 445 459 445 460 446 461 446 462 446 460 447 462 447 463 447 464 448 465 448 466 448 464 449 466 449 467 449 468 450 469 450 470 450 468 451 470 451 471 451 472 452 473 452 474 452 472 453 474 453 475 453 476 454 477 454 478 454 476 455 478 455 479 455 480 456 481 456 482 456 480 457 482 457 483 457 484 458 485 458 486 458 484 459 486 459 487 459 488 460 489 460 490 460 488 461 490 461 491 461 492 462 493 462 494 462 492 463 494 463 495 463 496 464 497 464 498 464 496 465 498 465 499 465 500 466 501 466 502 466 500 467 502 467 503 467 504 468 505 468 506 468 504 469 506 469 507 469 508 470 509 470 510 470 508 471 510 471 511 471 512 472 513 472 514 472 512 473 514 473 515 473 516 474 517 474 518 474 516 475 518 475 519 475 520 476 521 476 522 476 520 477 522 477 523 477 524 478 525 478 526 478 524 479 526 479 527 479 528 480 529 480 530 480 528 481 530 481 531 481 532 482 533 482 534 482 532 483 534 483 535 483 536 484 537 484 538 484 536 485 538 485 539 485 540 486 541 486 542 486 540 487 542 487 543 487 544 488 545 488 546 488 544 489 546 489 547 489 548 490 549 490 550 490 548 491 550 491 551 491 552 492 553 492 554 492 552 493 554 493 555 493 556 494 557 494 558 494 556 495 558 495 559 495 560 496 561 496 562 496 560 497 562 497 563 497 564 498 565 498 566 498 564 499 566 499 567 499 568 500 569 500 570 500 568 501 570 501 571 501 572 502 573 502 574 502 572 503 574 503 575 503 576 504 577 504 578 504 576 505 578 505 579 505 580 506 581 506 582 506 580 507 582 507 583 507 584 508 585 508 586 508 584 509 586 509 587 509 588 510 589 510 590 510 588 511 590 511 591 511 592 512 593 512 594 512 592 513 594 513 595 513 596 514 597 514 598 514 596 515 598 515 599 515 600 516 601 516 602 516 600 517 602 517 603 517 604 518 605 518 606 518 604 519 606 519 607 519 608 520 609 520 610 520 608 521 610 521 611 521 612 522 613 522 614 522 612 523 614 523 615 523 616 524 617 524 618 524 616 525 618 525 619 525 620 526 621 526 622 526 620 527 622 527 623 527 624 528 625 528 626 528 624 529 626 529 627 529 628 530 629 530 630 530 628 531 630 531 631 531 632 532 633 532 634 532 632 533 634 533 635 533 636 534 637 534 638 534 636 535 638 535 639 535 640 536 641 536 642 536 640 537 642 537 643 537 644 538 645 538 646 538 644 539 646 539 647 539 648 540 649 540 650 540 648 541 650 541 651 541 652 542 653 542 654 542 652 543 654 543 655 543 656 544 657 544 658 544 656 545 658 545 659 545 660 546 661 546 662 546 660 547 662 547 663 547 664 548 665 548 666 548 664 549 666 549 667 549 668 550 669 550 670 550 668 551 670 551 671 551 672 552 673 552 674 552 672 553 674 553 675 553 676 554 677 554 678 554 676 555 678 555 679 555 680 556 681 556 682 556 680 557 682 557 683 557 684 558 685 558 686 558 684 559 686 559 687 559 688 560 689 560 690 560 688 561 690 561 691 561 692 562 693 562 694 562 692 563 694 563 695 563 696 564 697 564 698 564 696 565 698 565 699 565 700 566 701 566 702 566 700 567 702 567 703 567 704 568 705 568 706 568 704 569 706 569 707 569 708 570 709 570 710 570 708 571 710 571 711 571 712 572 713 572 714 572 712 573 714 573 715 573 716 574 717 574 718 574 716 575 718 575 719 575 720 576 721 576 722 576 720 577 722 577 723 577 724 578 725 578 726 578 724 579 726 579 727 579 728 580 729 580 730 580 728 581 730 581 731 581 732 582 733 582 734 582 732 583 734 583 735 583 736 584 737 584 738 584 736 585 738 585 739 585 740 586 741 586 742 586 740 587 742 587 743 587 744 588 745 588 746 588 744 589 746 589 747 589 748 590 749 590 750 590 748 591 750 591 751 591 752 592 753 592 754 592 752 593 754 593 755 593 756 594 757 594 758 594 756 595 758 595 759 595 760 596 761 596 762 596 760 597 762 597 763 597 764 598 765 598 766 598 764 599 766 599 767 599 768 600 769 600 770 600 768 601 770 601 771 601 772 602 773 602 774 602 772 603 774 603 775 603 776 604 777 604 778 604 776 605 778 605 779 605 780 606 781 606 782 606 780 607 782 607 783 607 784 608 785 608 786 608 784 609 786 609 787 609</p></triangles>
</mesh></geometry></library_geometries><library_visual_scenes><visual_scene id="Scene"><node id="mesh"><instance_geometry url="#geometry"/></node></visual_scene></library_visual_scenes><scene><instance_visual_scene url="#Scene"/></scene></COLLADA>