# Blender 4.5.13 LTS
# www.blender.org
mtllib villa_3F.mtl
o 3F_Floor_Main
v -18.770233 -6.298148 -0.200000
v -17.650734 -6.298148 -0.200000
v -17.650734 -5.735185 -0.200000
v -18.770233 -5.735185 -0.200000
v -18.770233 -6.298148 0.000000
v -17.650734 -6.298148 0.000000
v -17.650734 -5.735185 0.000000
v -18.770233 -5.735185 0.000000
v -17.650734 7.318519 -0.200000
v -18.770233 7.318519 -0.200000
v -17.650734 7.318519 0.000000
v -18.770233 7.318519 0.000000
v -17.650734 -9.570371 -0.200000
v -0.858281 -9.570371 -0.200000
v -0.858281 -9.042593 -0.200000
v -17.650734 -9.042593 -0.200000
v -17.650734 -9.570371 0.000000
v -0.858281 -9.570371 0.000000
v -0.858281 -9.042593 0.000000
v -17.650734 -9.042593 0.000000
v -0.858281 -6.298148 -0.200000
v -0.858281 -6.298148 0.000000
v -0.858281 -5.735185 -0.200000
v -0.858281 -5.735185 0.000000
v -0.858281 7.318519 -0.200000
v -0.858281 7.318519 0.000000
v 0.820964 -9.042593 -0.200000
v 0.820964 -6.298148 -0.200000
v 0.820964 -9.042593 0.000000
v 0.820964 -6.298148 0.000000
v 0.820964 -5.735185 -0.200000
v 0.820964 -5.735185 0.000000
v 0.820964 7.318519 -0.200000
v 0.820964 7.318519 0.000000
v 3.694340 -5.735185 -0.200000
v 3.694340 7.318519 -0.200000
v 3.694340 -5.735185 0.000000
v 3.694340 7.318519 0.000000
v 3.694340 -9.042593 -0.200000
v 5.373585 -9.042593 -0.200000
v 5.373585 -6.298148 -0.200000
v 3.694340 -6.298148 -0.200000
v 3.694340 -9.042593 0.000000
v 5.373585 -9.042593 0.000000
v 5.373585 -6.298148 0.000000
v 3.694340 -6.298148 0.000000
v 5.373585 -5.735185 -0.200000
v 5.373585 -5.735185 0.000000
v 5.373585 7.318519 -0.200000
v 5.373585 7.318519 0.000000
v 5.373585 -9.570371 -0.200000
v 16.680504 -9.570371 -0.200000
v 16.680504 -9.042593 -0.200000
v 5.373585 -9.570371 0.000000
v 16.680504 -9.570371 0.000000
v 16.680504 -9.042593 0.000000
v 16.680504 -6.298148 -0.200000
v 16.680504 -6.298148 0.000000
v 16.680504 -5.735185 -0.200000
v 16.680504 -5.735185 0.000000
v 16.680504 7.318519 -0.200000
v 16.680504 7.318519 0.000000
v 17.650734 -6.298148 -0.200000
v 17.650734 -5.735185 -0.200000
v 17.650734 -6.298148 0.000000
v 17.650734 -5.735185 0.000000
v 17.650734 7.318519 -0.200000
v 17.650734 7.318519 0.000000
vn -0.0000 -0.0000 -1.0000
vn -0.0000 -0.0000 1.0000
vn -0.0000 -1.0000 -0.0000
vn -1.0000 -0.0000 -0.0000
vn -0.0000 1.0000 -0.0000
vn 1.0000 -0.0000 -0.0000
s 0
usemtl Placeholder_Floor_Gray
f 4//1 3//1 2//1 1//1
f 5//2 6//2 7//2 8//2
f 1//3 2//3 6//3 5//3
f 4//4 1//4 5//4 8//4
f 10//1 9//1 3//1 4//1
f 8//2 7//2 11//2 12//2
f 9//5 10//5 12//5 11//5
f 10//4 4//4 8//4 12//4
f 16//1 15//1 14//1 13//1
f 17//2 18//2 19//2 20//2
f 13//3 14//3 18//3 17//3
f 14//6 15//6 19//6 18//6
f 16//4 13//4 17//4 20//4
f 2//1 21//1 15//1 16//1
f 20//2 19//2 22//2 6//2
f 2//4 16//4 20//4 6//4
f 3//1 23//1 21//1 2//1
f 6//2 22//2 24//2 7//2
f 9//1 25//1 23//1 3//1
f 7//2 24//2 26//2 11//2
f 25//5 9//5 11//5 26//5
f 21//1 28//1 27//1 15//1
f 19//2 29//2 30//2 22//2
f 15//3 27//3 29//3 19//3
f 27//6 28//6 30//6 29//6
f 23//1 31//1 28//1 21//1
f 22//2 30//2 32//2 24//2
f 28//6 31//6 32//6 30//6
f 25//1 33//1 31//1 23//1
f 24//2 32//2 34//2 26//2
f 33//5 25//5 26//5 34//5
f 33//1 36//1 35//1 31//1
f 32//2 37//2 38//2 34//2
f 31//3 35//3 37//3 32//3
f 36//5 33//5 34//5 38//5
f 42//1 41//1 40//1 39//1
f 43//2 44//2 45//2 46//2
f 39//3 40//3 44//3 43//3
f 42//4 39//4 43//4 46//4
f 35//1 47//1 41//1 42//1
f 46//2 45//2 48//2 37//2
f 35//4 42//4 46//4 37//4
f 36//1 49//1 47//1 35//1
f 37//2 48//2 50//2 38//2
f 49//5 36//5 38//5 50//5
f 40//1 53//1 52//1 51//1
f 54//2 55//2 56//2 44//2
f 51//3 52//3 55//3 54//3
f 52//6 53//6 56//6 55//6
f 40//4 51//4 54//4 44//4
f 41//1 57//1 53//1 40//1
f 44//2 56//2 58//2 45//2
f 53//6 57//6 58//6 56//6
f 47//1 59//1 57//1 41//1
f 45//2 58//2 60//2 48//2
f 49//1 61//1 59//1 47//1
f 48//2 60//2 62//2 50//2
f 61//5 49//5 50//5 62//5
f 59//1 64//1 63//1 57//1
f 58//2 65//2 66//2 60//2
f 57//3 63//3 65//3 58//3
f 63//6 64//6 66//6 65//6
f 61//1 67//1 64//1 59//1
f 60//2 66//2 68//2 62//2
f 64//6 67//6 68//6 66//6
f 67//5 61//5 62//5 68//5
o 3F_Wall_Exterior_001_NorthWest_Side
v -18.770231 5.488889 0.000000
v -18.490231 5.488889 0.000000
v -18.490231 7.318519 0.000000
v -18.770231 7.318519 0.000000
v -18.770231 5.488889 3.200000
v -18.490231 5.488889 3.200000
v -18.490231 7.318519 3.200000
v -18.770231 7.318519 3.200000
vn -0.0000 -0.0000 -1.0000
vn -0.0000 -0.0000 1.0000
vn -0.0000 -1.0000 -0.0000
vn 1.0000 -0.0000 -0.0000
vn -0.0000 1.0000 -0.0000
vn -1.0000 -0.0000 -0.0000
s 0
usemtl Placeholder_Wall_Gray
f 72//7 71//7 70//7 69//7
f 73//8 74//8 75//8 76//8
f 69//9 70//9 74//9 73//9
f 70//10 71//10 75//10 74//10
f 71//11 72//11 76//11 75//11
f 72//12 69//12 73//12 76//12
o 3F_Wall_Exterior_002_NorthEast_Side
v 17.370733 5.488889 0.000000
v 17.650734 5.488889 0.000000
v 17.650734 7.318519 0.000000
v 17.370733 7.318519 0.000000
v 17.370733 5.488889 3.200000
v 17.650734 5.488889 3.200000
v 17.650734 7.318519 3.200000
v 17.370733 7.318519 3.200000
vn -0.0000 -0.0000 -1.0000
vn -0.0000 -0.0000 1.0000
vn -0.0000 -1.0000 -0.0000
vn 1.0000 -0.0000 -0.0000
vn -0.0000 1.0000 -0.0000
vn -1.0000 -0.0000 -0.0000
s 0
usemtl Placeholder_Wall_Gray
f 80//13 79//13 78//13 77//13
f 81//14 82//14 83//14 84//14
f 77//15 78//15 82//15 81//15
f 78//16 79//16 83//16 82//16
f 79//17 80//17 84//17 83//17
f 80//18 77//18 81//18 84//18
o 3F_Wall_Exterior_003_SouthWest_DownReturn
v -17.035137 -9.042593 0.000000
v -16.755136 -9.042593 0.000000
v -16.755136 -6.298148 0.000000
v -17.035137 -6.298148 0.000000
v -17.035137 -9.042593 3.200000
v -16.755136 -9.042593 3.200000
v -16.755136 -6.298148 3.200000
v -17.035137 -6.298148 3.200000
vn -0.0000 -0.0000 -1.0000
vn -0.0000 -0.0000 1.0000
vn -0.0000 -1.0000 -0.0000
vn 1.0000 -0.0000 -0.0000
vn -0.0000 1.0000 -0.0000
vn -1.0000 -0.0000 -0.0000
s 0
usemtl Placeholder_Wall_Gray
f 88//19 87//19 86//19 85//19
f 89//20 90//20 91//20 92//20
f 85//21 86//21 90//21 89//21
f 86//22 87//22 91//22 90//22
f 87//23 88//23 92//23 91//23
f 88//24 85//24 89//24 92//24
o 3F_Wall_Exterior_004_SouthEast_DownReturn
v 15.822222 -9.042593 0.000000
v 16.102222 -9.042593 0.000000
v 16.102222 -6.298148 0.000000
v 15.822222 -6.298148 0.000000
v 15.822222 -9.042593 3.200000
v 16.102222 -9.042593 3.200000
v 16.102222 -6.298148 3.200000
v 15.822222 -6.298148 3.200000
vn -0.0000 -0.0000 -1.0000
vn -0.0000 -0.0000 1.0000
vn -0.0000 -1.0000 -0.0000
vn 1.0000 -0.0000 -0.0000
vn -0.0000 1.0000 -0.0000
vn -1.0000 -0.0000 -0.0000
s 0
usemtl Placeholder_Wall_Gray
f 96//25 95//25 94//25 93//25
f 97//26 98//26 99//26 100//26
f 93//27 94//27 98//27 97//27
f 94//28 95//28 99//28 98//28
f 95//29 96//29 100//29 99//29
f 96//30 93//30 97//30 100//30
o 3F_Wall_Exterior_005_Arrival_West_Return
v -0.858281 -9.182592 0.000000
v 0.600964 -9.182592 0.000000
v 0.600964 -8.902593 0.000000
v -0.858281 -8.902593 0.000000
v -0.858281 -9.182592 3.200000
v 0.600964 -9.182592 3.200000
v 0.600964 -8.902593 3.200000
v -0.858281 -8.902593 3.200000
vn -0.0000 -0.0000 -1.0000
vn -0.0000 -0.0000 1.0000
vn -0.0000 -1.0000 -0.0000
vn 1.0000 -0.0000 -0.0000
vn -0.0000 1.0000 -0.0000
vn -1.0000 -0.0000 -0.0000
s 0
usemtl Placeholder_Wall_Gray
f 104//31 103//31 102//31 101//31
f 105//32 106//32 107//32 108//32
f 101//33 102//33 106//33 105//33
f 102//34 103//34 107//34 106//34
f 103//35 104//35 108//35 107//35
f 104//36 101//36 105//36 108//36
o 3F_Wall_Exterior_006_Arrival_East_Return
v 3.914340 -9.182592 0.000000
v 5.373585 -9.182592 0.000000
v 5.373585 -8.902593 0.000000
v 3.914340 -8.902593 0.000000
v 3.914340 -9.182592 3.200000
v 5.373585 -9.182592 3.200000
v 5.373585 -8.902593 3.200000
v 3.914340 -8.902593 3.200000
vn -0.0000 -0.0000 -1.0000
vn -0.0000 -0.0000 1.0000
vn -0.0000 -1.0000 -0.0000
vn 1.0000 -0.0000 -0.0000
vn -0.0000 1.0000 -0.0000
vn -1.0000 -0.0000 -0.0000
s 0
usemtl Placeholder_Wall_Gray
f 112//37 111//37 110//37 109//37
f 113//38 114//38 115//38 116//38
f 109//39 110//39 114//39 113//39
f 110//40 111//40 115//40 114//40
f 111//41 112//41 116//41 115//41
f 112//42 109//42 113//42 116//42
o 3F_Wall_Stair_001_From2F_West
v 0.600964 -10.696297 0.000000
v 0.820964 -10.696297 0.000000
v 0.820964 -5.735185 0.000000
v 0.600964 -5.735185 0.000000
v 0.600964 -10.696297 3.200000
v 0.820964 -10.696297 3.200000
v 0.820964 -5.735185 3.200000
v 0.600964 -5.735185 3.200000
vn -0.0000 -0.0000 -1.0000
vn -0.0000 -0.0000 1.0000
vn -0.0000 -1.0000 -0.0000
vn 1.0000 -0.0000 -0.0000
vn -0.0000 1.0000 -0.0000
vn -1.0000 -0.0000 -0.0000
s 0
usemtl Placeholder_Wall_Gray
f 120//43 119//43 118//43 117//43
f 121//44 122//44 123//44 124//44
f 117//45 118//45 122//45 121//45
f 118//46 119//46 123//46 122//46
f 119//47 120//47 124//47 123//47
f 120//48 117//48 121//48 124//48
o 3F_Wall_Stair_002_From2F_East
v 3.694340 -10.696297 0.000000
v 3.914340 -10.696297 0.000000
v 3.914340 -5.735185 0.000000
v 3.694340 -5.735185 0.000000
v 3.694340 -10.696297 3.200000
v 3.914340 -10.696297 3.200000
v 3.914340 -5.735185 3.200000
v 3.694340 -5.735185 3.200000
vn -0.0000 -0.0000 -1.0000
vn -0.0000 -0.0000 1.0000
vn -0.0000 -1.0000 -0.0000
vn 1.0000 -0.0000 -0.0000
vn -0.0000 1.0000 -0.0000
vn -1.0000 -0.0000 -0.0000
s 0
usemtl Placeholder_Wall_Gray
f 128//49 127//49 126//49 125//49
f 129//50 130//50 131//50 132//50
f 125//51 126//51 130//51 129//51
f 126//52 127//52 131//52 130//52
f 127//53 128//53 132//53 131//53
f 128//54 125//54 129//54 132//54
o 3F_Column_001_Terrace_NorthWest
v -17.949266 8.198148 0.000000
v -17.016352 8.198148 0.000000
v -17.016352 10.661111 0.000000
v -17.949266 10.661111 0.000000
v -17.949266 8.198148 1.100000
v -17.016352 8.198148 1.100000
v -17.016352 10.661111 1.100000
v -17.949266 10.661111 1.100000
vn -0.0000 -0.0000 -1.0000
vn -0.0000 -0.0000 1.0000
vn -0.0000 -1.0000 -0.0000
vn 1.0000 -0.0000 -0.0000
vn -0.0000 1.0000 -0.0000
vn -1.0000 -0.0000 -0.0000
s 0
usemtl Placeholder_Structural_DarkGray
f 136//55 135//55 134//55 133//55
f 137//56 138//56 139//56 140//56
f 133//57 134//57 138//57 137//57
f 134//58 135//58 139//58 138//58
f 135//59 136//59 140//59 139//59
f 136//60 133//60 137//60 140//60
o 3F_Column_002_Terrace_CenterWest
v -8.284277 10.274074 0.000000
v -7.015513 10.274074 0.000000
v -7.015513 11.857408 0.000000
v -8.284277 11.857408 0.000000
v -8.284277 10.274074 1.100000
v -7.015513 10.274074 1.100000
v -7.015513 11.857408 1.100000
v -8.284277 11.857408 1.100000
vn -0.0000 -0.0000 -1.0000
vn -0.0000 -0.0000 1.0000
vn -0.0000 -1.0000 -0.0000
vn 1.0000 -0.0000 -0.0000
vn -0.0000 1.0000 -0.0000
vn -1.0000 -0.0000 -0.0000
s 0
usemtl Placeholder_Structural_DarkGray
f 144//61 143//61 142//61 141//61
f 145//62 146//62 147//62 148//62
f 141//63 142//63 146//63 145//63
f 142//64 143//64 147//64 146//64
f 143//65 144//65 148//65 147//65
f 144//66 141//66 145//66 148//66
o 3F_Column_003_Terrace_CenterEast
v 6.605031 10.274074 0.000000
v 7.948428 10.274074 0.000000
v 7.948428 11.857408 0.000000
v 6.605031 11.857408 0.000000
v 6.605031 10.274074 1.100000
v 7.948428 10.274074 1.100000
v 7.948428 11.857408 1.100000
v 6.605031 11.857408 1.100000
vn -0.0000 -0.0000 -1.0000
vn -0.0000 -0.0000 1.0000
vn -0.0000 -1.0000 -0.0000
vn 1.0000 -0.0000 -0.0000
vn -0.0000 1.0000 -0.0000
vn -1.0000 -0.0000 -0.0000
s 0
usemtl Placeholder_Structural_DarkGray
f 152//67 151//67 150//67 149//67
f 153//68 154//68 155//68 156//68
f 149//69 150//69 154//69 153//69
f 150//70 151//70 155//70 154//70
f 151//71 152//71 156//71 155//71
f 152//72 149//72 153//72 156//72
o 3F_Column_004_Terrace_NorthEast
v 16.008804 8.198148 0.000000
v 16.904402 8.198148 0.000000
v 16.904402 10.661111 0.000000
v 16.008804 10.661111 0.000000
v 16.008804 8.198148 1.100000
v 16.904402 8.198148 1.100000
v 16.904402 10.661111 1.100000
v 16.008804 10.661111 1.100000
vn -0.0000 -0.0000 -1.0000
vn -0.0000 -0.0000 1.0000
vn -0.0000 -1.0000 -0.0000
vn 1.0000 -0.0000 -0.0000
vn -0.0000 1.0000 -0.0000
vn -1.0000 -0.0000 -0.0000
s 0
usemtl Placeholder_Structural_DarkGray
f 160//73 159//73 158//73 157//73
f 161//74 162//74 163//74 164//74
f 157//75 158//75 162//75 161//75
f 158//76 159//76 163//76 162//76
f 159//77 160//77 164//77 163//77
f 160//78 157//78 161//78 164//78
o 3F_Column_005_Facade_WestMid
v -18.770231 -0.633333 0.000000
v -18.098532 -0.633333 0.000000
v -18.098532 0.703704 0.000000
v -18.770231 0.703704 0.000000
v -18.770231 -0.633333 3.200000
v -18.098532 -0.633333 3.200000
v -18.098532 0.703704 3.200000
v -18.770231 0.703704 3.200000
vn -0.0000 -0.0000 -1.0000
vn -0.0000 -0.0000 1.0000
vn -0.0000 -1.0000 -0.0000
vn 1.0000 -0.0000 -0.0000
vn -0.0000 1.0000 -0.0000
vn -1.0000 -0.0000 -0.0000
s 0
usemtl Placeholder_Structural_DarkGray
f 168//79 167//79 166//79 165//79
f 169//80 170//80 171//80 172//80
f 165//81 166//81 170//81 169//81
f 166//82 167//82 171//82 170//82
f 167//83 168//83 172//83 171//83
f 168//84 165//84 169//84 172//84
o 3F_Column_006_Facade_EastMid
v 16.941719 -0.633333 0.000000
v 17.650734 -0.633333 0.000000
v 17.650734 0.703704 0.000000
v 16.941719 0.703704 0.000000
v 16.941719 -0.633333 3.200000
v 17.650734 -0.633333 3.200000
v 17.650734 0.703704 3.200000
v 16.941719 0.703704 3.200000
vn -0.0000 -0.0000 -1.0000
vn -0.0000 -0.0000 1.0000
vn -0.0000 -1.0000 -0.0000
vn 1.0000 -0.0000 -0.0000
vn -0.0000 1.0000 -0.0000
vn -1.0000 -0.0000 -0.0000
s 0
usemtl Placeholder_Structural_DarkGray
f 176//85 175//85 174//85 173//85
f 177//86 178//86 179//86 180//86
f 173//87 174//87 178//87 177//87
f 174//88 175//88 179//88 178//88
f 175//89 176//89 180//89 179//89
f 176//90 173//90 177//90 180//90
o 3F_Column_007_Facade_SouthWestStep
v -8.246961 -9.570371 0.000000
v -7.239413 -9.570371 0.000000
v -7.239413 -7.107408 0.000000
v -8.246961 -7.107408 0.000000
v -8.246961 -9.570371 3.200000
v -7.239413 -9.570371 3.200000
v -7.239413 -7.107408 3.200000
v -8.246961 -7.107408 3.200000
vn -0.0000 -0.0000 -1.0000
vn -0.0000 -0.0000 1.0000
vn -0.0000 -1.0000 -0.0000
vn 1.0000 -0.0000 -0.0000
vn -0.0000 1.0000 -0.0000
vn -1.0000 -0.0000 -0.0000
s 0
usemtl Placeholder_Structural_DarkGray
f 184//91 183//91 182//91 181//91
f 185//92 186//92 187//92 188//92
f 181//93 182//93 186//93 185//93
f 182//94 183//94 187//94 186//94
f 183//95 184//95 188//95 187//95
f 184//96 181//96 185//96 188//96
o 3F_Column_008_Facade_SouthEastStep
v 6.978197 -9.570371 0.000000
v 7.948428 -9.570371 0.000000
v 7.948428 -7.107408 0.000000
v 6.978197 -7.107408 0.000000
v 6.978197 -9.570371 3.200000
v 7.948428 -9.570371 3.200000
v 7.948428 -7.107408 3.200000
v 6.978197 -7.107408 3.200000
vn -0.0000 -0.0000 -1.0000
vn -0.0000 -0.0000 1.0000
vn -0.0000 -1.0000 -0.0000
vn 1.0000 -0.0000 -0.0000
vn -0.0000 1.0000 -0.0000
vn -1.0000 -0.0000 -0.0000
s 0
usemtl Placeholder_Structural_DarkGray
f 192//97 191//97 190//97 189//97
f 193//98 194//98 195//98 196//98
f 189//99 190//99 194//99 193//99
f 190//100 191//100 195//100 194//100
f 191//101 192//101 196//101 195//101
f 192//102 189//102 193//102 196//102
o 3F_Column_009_Arrival_OuterWest
v -1.865828 -6.966667 0.000000
v -1.306080 -6.966667 0.000000
v -1.306080 -6.333333 0.000000
v -1.865828 -6.333333 0.000000
v -1.865828 -6.966667 3.200000
v -1.306080 -6.966667 3.200000
v -1.306080 -6.333333 3.200000
v -1.865828 -6.333333 3.200000
vn -0.0000 -0.0000 -1.0000
vn -0.0000 -0.0000 1.0000
vn -0.0000 -1.0000 -0.0000
vn 1.0000 -0.0000 -0.0000
vn -0.0000 1.0000 -0.0000
vn -1.0000 -0.0000 -0.0000
s 0
usemtl Placeholder_Structural_DarkGray
f 200//103 199//103 198//103 197//103
f 201//104 202//104 203//104 204//104
f 197//105 198//105 202//105 201//105
f 198//106 199//106 203//106 202//106
f 199//107 200//107 204//107 203//107
f 200//108 197//108 201//108 204//108
o 3F_Column_010_Arrival_OuterEast
v 5.821383 -6.966667 0.000000
v 6.343815 -6.966667 0.000000
v 6.343815 -6.298148 0.000000
v 5.821383 -6.298148 0.000000
v 5.821383 -6.966667 3.200000
v 6.343815 -6.966667 3.200000
v 6.343815 -6.298148 3.200000
v 5.821383 -6.298148 3.200000
vn -0.0000 -0.0000 -1.0000
vn -0.0000 -0.0000 1.0000
vn -0.0000 -1.0000 -0.0000
vn 1.0000 -0.0000 -0.0000
vn -0.0000 1.0000 -0.0000
vn -1.0000 -0.0000 -0.0000
s 0
usemtl Placeholder_Structural_DarkGray
f 208//109 207//109 206//109 205//109
f 209//110 210//110 211//110 212//110
f 205//111 206//111 210//111 209//111
f 206//112 207//112 211//112 210//112
f 207//113 208//113 212//113 211//113
f 208//114 205//114 209//114 212//114
o 3F_Column_011_Facade_NorthWestCorner
v -18.770231 7.318519 0.000000
v -16.493921 7.318519 0.000000
v -16.493921 8.198148 0.000000
v -18.770231 8.198148 0.000000
v -18.770231 7.318519 3.200000
v -16.493921 7.318519 3.200000
v -16.493921 8.198148 3.200000
v -18.770231 8.198148 3.200000
vn -0.0000 -0.0000 -1.0000
vn -0.0000 -0.0000 1.0000
vn -0.0000 -1.0000 -0.0000
vn 1.0000 -0.0000 -0.0000
vn -0.0000 1.0000 -0.0000
vn -1.0000 -0.0000 -0.0000
s 0
usemtl Placeholder_Structural_DarkGray
f 216//115 215//115 214//115 213//115
f 217//116 218//116 219//116 220//116
f 213//117 214//117 218//117 217//117
f 214//118 215//118 219//118 218//118
f 215//119 216//119 220//119 219//119
f 216//120 213//120 217//120 220//120
o 3F_Column_012_Facade_NorthEastCorner
v 15.561007 7.318519 0.000000
v 17.650734 7.318519 0.000000
v 17.650734 8.198148 0.000000
v 15.561007 8.198148 0.000000
v 15.561007 7.318519 3.200000
v 17.650734 7.318519 3.200000
v 17.650734 8.198148 3.200000
v 15.561007 8.198148 3.200000
vn -0.0000 -0.0000 -1.0000
vn -0.0000 -0.0000 1.0000
vn -0.0000 -1.0000 -0.0000
vn 1.0000 -0.0000 -0.0000
vn -0.0000 1.0000 -0.0000
vn -1.0000 -0.0000 -0.0000
s 0
usemtl Placeholder_Structural_DarkGray
f 224//121 223//121 222//121 221//121
f 225//122 226//122 227//122 228//122
f 221//123 222//123 226//123 225//123
f 222//124 223//124 227//124 226//124
f 223//125 224//125 228//125 227//125
f 224//126 221//126 225//126 228//126
o 3F_Column_013_Facade_SouthWestCorner
v -18.770231 -6.298148 0.000000
v -16.493921 -6.298148 0.000000
v -16.493921 -4.538889 0.000000
v -18.770231 -4.538889 0.000000
v -18.770231 -6.298148 3.200000
v -16.493921 -6.298148 3.200000
v -16.493921 -4.538889 3.200000
v -18.770231 -4.538889 3.200000
vn -0.0000 -0.0000 -1.0000
vn -0.0000 -0.0000 1.0000
vn -0.0000 -1.0000 -0.0000
vn 1.0000 -0.0000 -0.0000
vn -0.0000 1.0000 -0.0000
vn -1.0000 -0.0000 -0.0000
s 0
usemtl Placeholder_Structural_DarkGray
f 232//127 231//127 230//127 229//127
f 233//128 234//128 235//128 236//128
f 229//129 230//129 234//129 233//129
f 230//130 231//130 235//130 234//130
f 231//131 232//131 236//131 235//131
f 232//132 229//132 233//132 236//132
o 3F_Column_014_Facade_SouthEastCorner
v 15.561007 -6.298148 0.000000
v 17.650734 -6.298148 0.000000
v 17.650734 -4.538889 0.000000
v 15.561007 -4.538889 0.000000
v 15.561007 -6.298148 3.200000
v 17.650734 -6.298148 3.200000
v 17.650734 -4.538889 3.200000
v 15.561007 -4.538889 3.200000
vn -0.0000 -0.0000 -1.0000
vn -0.0000 -0.0000 1.0000
vn -0.0000 -1.0000 -0.0000
vn 1.0000 -0.0000 -0.0000
vn -0.0000 1.0000 -0.0000
vn -1.0000 -0.0000 -0.0000
s 0
usemtl Placeholder_Structural_DarkGray
f 240//133 239//133 238//133 237//133
f 241//134 242//134 243//134 244//134
f 237//135 238//135 242//135 241//135
f 238//136 239//136 243//136 242//136
f 239//137 240//137 244//137 243//137
f 240//138 237//138 241//138 244//138
o 3F_Glass_001_MasterNorth_West
v -16.493921 7.308518 0.000000
v -1.529979 7.308518 0.000000
v -1.529979 7.328518 0.000000
v -16.493921 7.328518 0.000000
v -16.493921 7.308518 3.200000
v -1.529979 7.308518 3.200000
v -1.529979 7.328518 3.200000
v -16.493921 7.328518 3.200000
vn -0.0000 -0.0000 -1.0000
vn -0.0000 -0.0000 1.0000
vn -0.0000 -1.0000 -0.0000
vn 1.0000 -0.0000 -0.0000
vn -0.0000 1.0000 -0.0000
vn -1.0000 -0.0000 -0.0000
s 0
usemtl Placeholder_Glass_Blue
f 248//139 247//139 246//139 245//139
f 249//140 250//140 251//140 252//140
f 245//141 246//141 250//141 249//141
f 246//142 247//142 251//142 250//142
f 247//143 248//143 252//143 251//143
f 248//144 245//144 249//144 252//144
o 3F_Glass_002_MasterNorth_East
v 1.418029 7.308518 0.000000
v 15.561007 7.308518 0.000000
v 15.561007 7.328518 0.000000
v 1.418029 7.328518 0.000000
v 1.418029 7.308518 3.200000
v 15.561007 7.308518 3.200000
v 15.561007 7.328518 3.200000
v 1.418029 7.328518 3.200000
vn -0.0000 -0.0000 -1.0000
vn -0.0000 -0.0000 1.0000
vn -0.0000 -1.0000 -0.0000
vn 1.0000 -0.0000 -0.0000
vn -0.0000 1.0000 -0.0000
vn -1.0000 -0.0000 -0.0000
s 0
usemtl Placeholder_Glass_Blue
f 256//145 255//145 254//145 253//145
f 257//146 258//146 259//146 260//146
f 253//147 254//147 258//147 257//147
f 254//148 255//148 259//148 258//148
f 255//149 256//149 260//149 259//149
f 256//150 253//150 257//150 260//150
o 3F_Glass_003_FacadeWest_North
v -18.556332 0.703704 0.000000
v -18.536331 0.703704 0.000000
v -18.536331 5.488889 0.000000
v -18.556332 5.488889 0.000000
v -18.556332 0.703704 3.200000
v -18.536331 0.703704 3.200000
v -18.536331 5.488889 3.200000
v -18.556332 5.488889 3.200000
vn -0.0000 -0.0000 -1.0000
vn -0.0000 -0.0000 1.0000
vn -0.0000 -1.0000 -0.0000
vn 1.0000 -0.0000 -0.0000
vn -0.0000 1.0000 -0.0000
vn -1.0000 -0.0000 -0.0000
s 0
usemtl Placeholder_Glass_Blue
f 264//151 263//151 262//151 261//151
f 265//152 266//152 267//152 268//152
f 261//153 262//153 266//153 265//153
f 262//154 263//154 267//154 266//154
f 263//155 264//155 268//155 267//155
f 264//156 261//156 265//156 268//156
o 3F_Glass_004_FacadeWest_South
v -18.556332 -4.538889 0.000000
v -18.536331 -4.538889 0.000000
v -18.536331 -0.633333 0.000000
v -18.556332 -0.633333 0.000000
v -18.556332 -4.538889 3.200000
v -18.536331 -4.538889 3.200000
v -18.536331 -0.633333 3.200000
v -18.556332 -0.633333 3.200000
vn -0.0000 -0.0000 -1.0000
vn -0.0000 -0.0000 1.0000
vn -0.0000 -1.0000 -0.0000
vn 1.0000 -0.0000 -0.0000
vn -0.0000 1.0000 -0.0000
vn -1.0000 -0.0000 -0.0000
s 0
usemtl Placeholder_Glass_Blue
f 272//157 271//157 270//157 269//157
f 273//158 274//158 275//158 276//158
f 269//159 270//159 274//159 273//159
f 270//160 271//160 275//160 274//160
f 271//161 272//161 276//161 275//161
f 272//162 269//162 273//162 276//162
o 3F_Glass_005_FacadeEast_North
v 17.379519 0.703704 0.000000
v 17.399517 0.703704 0.000000
v 17.399517 5.488889 0.000000
v 17.379519 5.488889 0.000000
v 17.379519 0.703704 3.200000
v 17.399517 0.703704 3.200000
v 17.399517 5.488889 3.200000
v 17.379519 5.488889 3.200000
vn -0.0000 -0.0000 -1.0000
vn -0.0000 -0.0000 1.0000
vn -0.0000 -1.0000 -0.0000
vn 1.0000 -0.0000 -0.0000
vn -0.0000 1.0000 -0.0000
vn -1.0000 -0.0000 -0.0000
s 0
usemtl Placeholder_Glass_Blue
f 280//163 279//163 278//163 277//163
f 281//164 282//164 283//164 284//164
f 277//165 278//165 282//165 281//165
f 278//166 279//166 283//166 282//166
f 279//167 280//167 284//167 283//167
f 280//168 277//168 281//168 284//168
o 3F_Glass_006_FacadeEast_South
v 17.379519 -4.538889 0.000000
v 17.399517 -4.538889 0.000000
v 17.399517 -0.633333 0.000000
v 17.379519 -0.633333 0.000000
v 17.379519 -4.538889 3.200000
v 17.399517 -4.538889 3.200000
v 17.399517 -0.633333 3.200000
v 17.379519 -0.633333 3.200000
vn -0.0000 -0.0000 -1.0000
vn -0.0000 -0.0000 1.0000
vn -0.0000 -1.0000 -0.0000
vn 1.0000 -0.0000 -0.0000
vn -0.0000 1.0000 -0.0000
vn -1.0000 -0.0000 -0.0000
s 0
usemtl Placeholder_Glass_Blue
f 288//169 287//169 286//169 285//169
f 289//170 290//170 291//170 292//170
f 285//171 286//171 290//171 289//171
f 286//172 287//172 291//172 290//172
f 287//173 288//173 292//173 291//173
f 288//174 285//174 289//174 292//174
o 3F_Glass_007_SouthWest_Outer
v -16.755136 -9.052592 0.000000
v -8.246961 -9.052592 0.000000
v -8.246961 -9.032593 0.000000
v -16.755136 -9.032593 0.000000
v -16.755136 -9.052592 3.200000
v -8.246961 -9.052592 3.200000
v -8.246961 -9.032593 3.200000
v -16.755136 -9.032593 3.200000
vn -0.0000 -0.0000 -1.0000
vn -0.0000 -0.0000 1.0000
vn -0.0000 -1.0000 -0.0000
vn 1.0000 -0.0000 -0.0000
vn -0.0000 1.0000 -0.0000
vn -1.0000 -0.0000 -0.0000
s 0
usemtl Placeholder_Glass_Blue
f 296//175 295//175 294//175 293//175
f 297//176 298//176 299//176 300//176
f 293//177 294//177 298//177 297//177
f 294//178 295//178 299//178 298//178
f 295//179 296//179 300//179 299//179
f 296//180 293//180 297//180 300//180
o 3F_Glass_008_SouthWest_Inner
v -7.239413 -9.052592 0.000000
v -0.858281 -9.052592 0.000000
v -0.858281 -9.032593 0.000000
v -7.239413 -9.032593 0.000000
v -7.239413 -9.052592 3.200000
v -0.858281 -9.052592 3.200000
v -0.858281 -9.032593 3.200000
v -7.239413 -9.032593 3.200000
vn -0.0000 -0.0000 -1.0000
vn -0.0000 -0.0000 1.0000
vn -0.0000 -1.0000 -0.0000
vn 1.0000 -0.0000 -0.0000
vn -0.0000 1.0000 -0.0000
vn -1.0000 -0.0000 -0.0000
s 0
usemtl Placeholder_Glass_Blue
f 304//181 303//181 302//181 301//181
f 305//182 306//182 307//182 308//182
f 301//183 302//183 306//183 305//183
f 302//184 303//184 307//184 306//184
f 303//185 304//185 308//185 307//185
f 304//186 301//186 305//186 308//186
o 3F_Glass_009_SouthEast_Inner
v 5.373585 -9.052592 0.000000
v 6.978197 -9.052592 0.000000
v 6.978197 -9.032593 0.000000
v 5.373585 -9.032593 0.000000
v 5.373585 -9.052592 3.200000
v 6.978197 -9.052592 3.200000
v 6.978197 -9.032593 3.200000
v 5.373585 -9.032593 3.200000
vn -0.0000 -0.0000 -1.0000
vn -0.0000 -0.0000 1.0000
vn -0.0000 -1.0000 -0.0000
vn 1.0000 -0.0000 -0.0000
vn -0.0000 1.0000 -0.0000
vn -1.0000 -0.0000 -0.0000
s 0
usemtl Placeholder_Glass_Blue
f 312//187 311//187 310//187 309//187
f 313//188 314//188 315//188 316//188
f 309//189 310//189 314//189 313//189
f 310//190 311//190 315//190 314//190
f 311//191 312//191 316//191 315//191
f 312//192 309//192 313//192 316//192
o 3F_Glass_010_SouthEast_Outer
v 7.948428 -9.052592 0.000000
v 15.822222 -9.052592 0.000000
v 15.822222 -9.032593 0.000000
v 7.948428 -9.032593 0.000000
v 7.948428 -9.052592 3.200000
v 15.822222 -9.052592 3.200000
v 15.822222 -9.032593 3.200000
v 7.948428 -9.032593 3.200000
vn -0.0000 -0.0000 -1.0000
vn -0.0000 -0.0000 1.0000
vn -0.0000 -1.0000 -0.0000
vn 1.0000 -0.0000 -0.0000
vn -0.0000 1.0000 -0.0000
vn -1.0000 -0.0000 -0.0000
s 0
usemtl Placeholder_Glass_Blue
f 320//193 319//193 318//193 317//193
f 321//194 322//194 323//194 324//194
f 317//195 318//195 322//195 321//195
f 318//196 319//196 323//196 322//196
f 319//197 320//197 324//197 323//197
f 320//198 317//198 321//198 324//198
o 3F_Railing_Terrace_NorthWest
v -17.001352 10.651111 0.000000
v -8.299276 10.651111 0.000000
v -8.299276 10.671111 0.000000
v -17.001352 10.671111 0.000000
v -17.001352 10.651111 1.050000
v -8.299276 10.651111 1.050000
v -8.299276 10.671111 1.050000
v -17.001352 10.671111 1.050000
vn -0.0000 -0.0000 -1.0000
vn -0.0000 -0.0000 1.0000
vn -0.0000 -1.0000 -0.0000
vn 1.0000 -0.0000 -0.0000
vn -0.0000 1.0000 -0.0000
vn -1.0000 -0.0000 -0.0000
s 0
usemtl Placeholder_Railing_Glass
f 328//199 327//199 326//199 325//199
f 329//200 330//200 331//200 332//200
f 325//201 326//201 330//201 329//201
f 326//202 327//202 331//202 330//202
f 327//203 328//203 332//203 331//203
f 328//204 325//204 329//204 332//204
o 3F_Railing_Terrace_NorthWest_TopRail
v -17.001352 10.641111 1.050000
v -8.299276 10.641111 1.050000
v -8.299276 10.681111 1.050000
v -17.001352 10.681111 1.050000
v -17.001352 10.641111 1.100000
v -8.299276 10.641111 1.100000
v -8.299276 10.681111 1.100000
v -17.001352 10.681111 1.100000
vn -0.0000 -0.0000 -1.0000
vn -0.0000 -0.0000 1.0000
vn -0.0000 -1.0000 -0.0000
vn 1.0000 -0.0000 -0.0000
vn -0.0000 1.0000 -0.0000
vn -1.0000 -0.0000 -0.0000
s 0
usemtl Placeholder_Railing_TopRail
f 336//205 335//205 334//205 333//205
f 337//206 338//206 339//206 340//206
f 333//207 334//207 338//207 337//207
f 334//208 335//208 339//208 338//208
f 335//209 336//209 340//209 339//209
f 336//210 333//210 337//210 340//210
o 3F_Railing_Terrace_NorthCenter
v -7.000514 11.847407 0.000000
v 6.590032 11.847407 0.000000
v 6.590032 11.867408 0.000000
v -7.000514 11.867408 0.000000
v -7.000514 11.847407 1.050000
v 6.590032 11.847407 1.050000
v 6.590032 11.867408 1.050000
v -7.000514 11.867408 1.050000
vn -0.0000 -0.0000 -1.0000
vn -0.0000 -0.0000 1.0000
vn -0.0000 -1.0000 -0.0000
vn 1.0000 -0.0000 -0.0000
vn -0.0000 1.0000 -0.0000
vn -1.0000 -0.0000 -0.0000
s 0
usemtl Placeholder_Railing_Glass
f 344//211 343//211 342//211 341//211
f 345//212 346//212 347//212 348//212
f 341//213 342//213 346//213 345//213
f 342//214 343//214 347//214 346//214
f 343//215 344//215 348//215 347//215
f 344//216 341//216 345//216 348//216
o 3F_Railing_Terrace_NorthCenter_TopRail
v -7.000514 11.837407 1.050000
v 6.590032 11.837407 1.050000
v 6.590032 11.877407 1.050000
v -7.000514 11.877407 1.050000
v -7.000514 11.837407 1.100000
v 6.590032 11.837407 1.100000
v 6.590032 11.877407 1.100000
v -7.000514 11.877407 1.100000
vn -0.0000 -0.0000 -1.0000
vn -0.0000 -0.0000 1.0000
vn -0.0000 -1.0000 -0.0000
vn 1.0000 -0.0000 -0.0000
vn -0.0000 1.0000 -0.0000
vn -1.0000 -0.0000 -0.0000
s 0
usemtl Placeholder_Railing_TopRail
f 352//217 351//217 350//217 349//217
f 353//218 354//218 355//218 356//218
f 349//219 350//219 354//219 353//219
f 350//220 351//220 355//220 354//220
f 351//221 352//221 356//221 355//221
f 352//222 349//222 353//222 356//222
o 3F_Railing_Terrace_NorthEast
v 7.963428 10.651111 0.000000
v 15.993805 10.651111 0.000000
v 15.993805 10.671111 0.000000
v 7.963428 10.671111 0.000000
v 7.963428 10.651111 1.050000
v 15.993805 10.651111 1.050000
v 15.993805 10.671111 1.050000
v 7.963428 10.671111 1.050000
vn -0.0000 -0.0000 -1.0000
vn -0.0000 -0.0000 1.0000
vn -0.0000 -1.0000 -0.0000
vn 1.0000 -0.0000 -0.0000
vn -0.0000 1.0000 -0.0000
vn -1.0000 -0.0000 -0.0000
s 0
usemtl Placeholder_Railing_Glass
f 360//223 359//223 358//223 357//223
f 361//224 362//224 363//224 364//224
f 357//225 358//225 362//225 361//225
f 358//226 359//226 363//226 362//226
f 359//227 360//227 364//227 363//227
f 360//228 357//228 361//228 364//228
o 3F_Railing_Terrace_NorthEast_TopRail
v 7.963428 10.641111 1.050000
v 15.993805 10.641111 1.050000
v 15.993805 10.681111 1.050000
v 7.963428 10.681111 1.050000
v 7.963428 10.641111 1.100000
v 15.993805 10.641111 1.100000
v 15.993805 10.681111 1.100000
v 7.963428 10.681111 1.100000
vn -0.0000 -0.0000 -1.0000
vn -0.0000 -0.0000 1.0000
vn -0.0000 -1.0000 -0.0000
vn 1.0000 -0.0000 -0.0000
vn -0.0000 1.0000 -0.0000
vn -1.0000 -0.0000 -0.0000
s 0
usemtl Placeholder_Railing_TopRail
f 368//229 367//229 366//229 365//229
f 369//230 370//230 371//230 372//230
f 365//231 366//231 370//231 369//231
f 366//232 367//232 371//232 370//232
f 367//233 368//233 372//233 371//233
f 368//234 365//234 369//234 372//234
o 3F_Terrace_Private
v -17.949266 7.318519 -0.200000
v -8.284277 7.318519 -0.200000
v -8.284277 10.661111 -0.200000
v -17.949266 10.661111 -0.200000
v -17.949266 7.318519 0.000000
v -8.284277 7.318519 0.000000
v -8.284277 10.661111 0.000000
v -17.949266 10.661111 0.000000
v 7.948427 7.318519 -0.200000
v 7.948427 10.661111 -0.200000
v 7.948427 7.318519 0.000000
v 7.948427 10.661111 0.000000
v 7.948427 11.857408 -0.200000
v -8.284277 11.857408 -0.200000
v 7.948427 11.857408 0.000000
v -8.284277 11.857408 0.000000
v 16.904402 7.318519 -0.200000
v 16.904402 10.661111 -0.200000
v 16.904402 7.318519 0.000000
v 16.904402 10.661111 0.000000
vn -0.0000 -0.0000 -1.0000
vn -0.0000 -0.0000 1.0000
vn -0.0000 -1.0000 -0.0000
vn -0.0000 1.0000 -0.0000
vn -1.0000 -0.0000 -0.0000
vn 1.0000 -0.0000 -0.0000
s 0
usemtl Placeholder_Terrace_Gray
f 376//235 375//235 374//235 373//235
f 377//236 378//236 379//236 380//236
f 373//237 374//237 378//237 377//237
f 375//238 376//238 380//238 379//238
f 376//239 373//239 377//239 380//239
f 375//235 382//235 381//235 374//235
f 378//236 383//236 384//236 379//236
f 374//237 381//237 383//237 378//237
f 386//235 385//235 382//235 375//235
f 379//236 384//236 387//236 388//236
f 382//240 385//240 387//240 384//240
f 385//238 386//238 388//238 387//238
f 386//239 375//239 379//239 388//239
f 382//235 390//235 389//235 381//235
f 383//236 391//236 392//236 384//236
f 381//237 389//237 391//237 383//237
f 389//240 390//240 392//240 391//240
f 390//238 382//238 384//238 392//238
