<?xml version="1.0" encoding="UTF-8"?>
<COLLADA xmlns="http://www.collada.org/2005/11/COLLADASchema" version="1.4.1">
<asset><contributor><authoring_tool>Summit Estate procedural mesh exporter</authoring_tool></contributor><created>2026-09-11T00:00:00Z</created><modified>2026-09-11T00:00:00Z</modified><unit name="meter" meter="1"/><up_axis>Z_UP</up_axis></asset>
<library_geometries><geometry id="geometry" name="geometry"><mesh>
<source id="positions"><float_array id="positions-array" count="648">141.02000 163.20000 80.64500 142.98000 163.20000 80.64500 142.98000 166.60000 80.64500 141.02000 166.60000 80.64500 141.02000 163.20000 80.79500 142.98000 163.20000 80.79500 142.98000 166.60000 80.79500 141.02000 166.60000 80.79500 141.02000 166.20000 80.80000 142.98000 166.20000 80.80000 142.98000 167.30000 81.40000 141.02000 167.30000 81.40000 148.62000 163.20000 80.64500 150.58000 163.20000 80.64500 150.58000 166.60000 80.64500 148.62000 166.60000 80.64500 148.62000 163.20000 80.79500 150.58000 163.20000 80.79500 150.58000 166.60000 80.79500 148.62000 166.60000 80.79500 148.62000 166.20000 80.80000 150.58000 166.20000 80.80000 150.58000 167.30000 81.40000 148.62000 167.30000 81.40000 156.22000 163.20000 80.64500 158.18000 163.20000 80.64500 158.18000 166.60000 80.64500 156.22000 166.60000 80.64500 156.22000 163.20000 80.79500 158.18000 163.20000 80.79500 158.18000 166.60000 80.79500 156.22000 166.60000 80.79500 156.22000 166.20000 80.80000 158.18000 166.20000 80.80000 158.18000 167.30000 81.40000 156.22000 167.30000 81.40000 163.82000 163.20000 80.64500 165.78000 163.20000 80.64500 165.78000 166.60000 80.64500 163.82000 166.60000 80.64500 163.82000 163.20000 80.79500 165.78000 163.20000 80.79500 165.78000 166.60000 80.79500 163.82000 166.60000 80.79500 163.82000 166.20000 80.80000 165.78000 166.20000 80.80000 165.78000 167.30000 81.40000 163.82000 167.30000 81.40000 171.42000 163.20000 80.64500 173.38000 163.20000 80.64500 173.38000 166.60000 80.64500 171.42000 166.60000 80.64500 171.42000 163.20000 80.79500 173.38000 163.20000 80.79500 173.38000 166.60000 80.79500 171.42000 166.60000 80.79500 171.42000 166.20000 80.80000 173.38000 166.20000 80.80000 173.38000 167.30000 81.40000 171.42000 167.30000 81.40000 179.02000 163.20000 80.64500 180.98000 163.20000 80.64500 180.98000 166.60000 80.64500 179.02000 166.60000 80.64500 179.02000 163.20000 80.79500 180.98000 163.20000 80.79500 180.98000 166.60000 80.79500 179.02000 166.60000 80.79500 179.02000 166.20000 80.80000 180.98000 166.20000 80.80000 180.98000 167.30000 81.40000 179.02000 167.30000 81.40000 198.64000 137.92500 80.32000 198.76000 137.92500 80.32000 198.76000 138.27500 80.32000 198.64000 138.27500 80.32000 198.64000 137.92500 83.72000 198.76000 137.92500 83.72000 198.76000 138.27500 83.72000 198.64000 138.27500 83.72000 198.64000 138.37500 80.32000 198.76000 138.37500 80.32000 198.76000 138.72500 80.32000 198.64000 138.72500 80.32000 198.64000 138.37500 83.72000 198.76000 138.37500 83.72000 198.76000 138.72500 83.72000 198.64000 138.72500 83.72000 198.64000 138.82500 80.32000 198.76000 138.82500 80.32000 198.76000 139.17500 80.32000 198.64000 139.17500 80.32000 198.64000 138.82500 83.72000 198.76000 138.82500 83.72000 198.76000 139.17500 83.72000 198.64000 139.17500 83.72000 198.64000 139.27500 80.32000 198.76000 139.27500 80.32000 198.76000 139.62500 80.32000 198.64000 139.62500 80.32000 198.64000 139.27500 83.72000 198.76000 139.27500 83.72000 198.76000 139.62500 83.72000 198.64000 139.62500 83.72000 198.64000 139.72500 80.32000 198.76000 139.72500 80.32000 198.76000 140.07500 80.32000 198.64000 140.07500 80.32000 198.64000 139.72500 83.72000 198.76000 139.72500 83.72000 198.76000 140.07500 83.72000 198.64000 140.07500 83.72000 198.64000 140.17500 80.32000 198.76000 140.17500 80.32000 198.76000 140.52500 80.32000 198.64000 140.52500 80.32000 198.64000 140.17500 83.72000 198.76000 140.17500 83.72000 198.76000 140.52500 83.72000 198.64000 140.52500 83.72000 198.64000 140.62500 80.32000 198.76000 140.62500 80.32000 198.76000 140.97500 80.32000 198.64000 140.97500 80.32000 198.64000 140.62500 83.72000 198.76000 140.62500 83.72000 198.76000 140.97500 83.72000 198.64000 140.97500 83.72000 191.85000 144.20000 80.99000 198.15000 144.20000 80.99000 198.15000 145.40000 80.99000 191.85000 145.40000 80.99000 191.85000 144.20000 81.19000 198.15000 144.20000 81.19000 198.15000 145.40000 81.19000 191.85000 145.40000 81.19000 191.89000 145.12000 81.11000 198.11000 145.12000 81.11000 198.11000 145.36000 81.11000 191.89000 145.36000 81.11000 191.89000 145.12000 81.77000 198.11000 145.12000 81.77000 198.11000 145.36000 81.77000 191.89000 145.36000 81.77000 198.64000 151.92500 80.32000 198.76000 151.92500 80.32000 198.76000 152.27500 80.32000 198.64000 152.27500 80.32000 198.64000 151.92500 83.72000 198.76000 151.92500 83.72000 198.76000 152.27500 83.72000 198.64000 152.27500 83.72000 198.64000 152.37500 80.32000 198.76000 152.37500 80.32000 198.76000 152.72500 80.32000 198.64000 152.72500 80.32000 198.64000 152.37500 83.72000 198.76000 152.37500 83.72000 198.76000 152.72500 83.72000 198.64000 152.72500 83.72000 198.64000 152.82500 80.32000 198.76000 152.82500 80.32000 198.76000 153.17500 80.32000 198.64000 153.17500 80.32000 198.64000 152.82500 83.72000 198.76000 152.82500 83.72000 198.76000 153.17500 83.72000 198.64000 153.17500 83.72000 198.64000 153.27500 80.32000 198.76000 153.27500 80.32000 198.76000 153.62500 80.32000 198.64000 153.62500 80.32000 198.64000 153.27500 83.72000 198.76000 153.27500 83.72000 198.76000 153.62500 83.72000 198.64000 153.62500 83.72000 198.64000 153.72500 80.32000 198.76000 153.72500 80.32000 198.76000 154.07500 80.32000 198.64000 154.07500 80.32000 198.64000 153.72500 83.72000 198.76000 153.72500 83.72000 198.76000 154.07500 83.72000 198.64000 154.07500 83.72000 198.64000 154.17500 80.32000 198.76000 154.17500 80.32000 198.76000 154.52500 80.32000 198.64000 154.52500 80.32000 198.64000 154.17500 83.72000 198.76000 154.17500 83.72000 198.76000 154.52500 83.72000 198.64000 154.52500 83.72000 198.64000 154.62500 80.32000 198.76000 154.62500 80.32000 198.76000 154.97500 80.32000 198.64000 154.97500 80.32000 198.64000 154.62500 83.72000 198.76000 154.62500 83.72000 198.76000 154.97500 83.72000 198.64000 154.97500 83.72000 191.85000 158.20000 80.99000 198.15000 158.20000 80.99000 198.15000 159.40000 80.99000 191.85000 159.40000 80.99000 191.85000 158.20000 81.19000 198.15000 158.20000 81.19000 198.15000 159.40000 81.19000 191.85000 159.40000 81.19000 191.89000 159.12000 81.11000 198.11000 159.12000 81.11000 198.11000 159.36000 81.11000 191.89000 159.36000 81.11000 191.89000 159.12000 81.77000 198.11000 159.12000 81.77000 198.11000 159.36000 81.77000 191.89000 159.36000 81.77000</float_array><technique_common><accessor source="#positions-array" count="216" stride="3"><param name="X" type="float"/><param name="Y" type="float"/><param name="Z" type="float"/></accessor></technique_common></source>
<source id="normals"><float_array id="normals-array" count="900">0.00000 0.00000 -1.00000 0.00000 0.00000 -1.00000 0.00000 0.00000 1.00000 0.00000 0.00000 1.00000 0.00000 -1.00000 0.00000 0.00000 -1.00000 0.00000 1.00000 0.00000 0.00000 1.00000 0.00000 0.00000 0.00000 1.00000 0.00000 0.00000 1.00000 -0.00000 -1.00000 0.00000 0.00000 -1.00000 0.00000 0.00000 0.00000 -0.47885 0.87790 0.00000 -0.47885 0.87790 0.00000 0.00000 -1.00000 0.00000 0.00000 -1.00000 0.00000 0.00000 1.00000 0.00000 0.00000 1.00000 0.00000 -1.00000 0.00000 0.00000 -1.00000 0.00000 1.00000 0.00000 0.00000 1.00000 0.00000 0.00000 0.00000 1.00000 0.00000 0.00000 1.00000 -0.00000 -1.00000 0.00000 0.00000 -1.00000 0.00000 0.00000 0.00000 -0.47885 0.87790 0.00000 -0.47885 0.87790 0.00000 0.00000 -1.00000 0.00000 0.00000 -1.00000 0.00000 0.00000 1.00000 0.00000 0.00000 1.00000 0.00000 -1.00000 0.00000 0.00000 -1.00000 0.00000 1.00000 0.00000 0.00000 1.00000 0.00000 0.00000 0.00000 1.00000 0.00000 0.00000 1.00000 -0.00000 -1.00000 0.00000 0.00000 -1.00000 0.00000 0.00000 0.00000 -0.47885 0.87790 0.00000 -0.47885 0.87790 0.00000 0.00000 -1.00000 0.00000 0.00000 -1.00000 0.00000 0.00000 1.00000 0.00000 0.00000 1.00000 0.00000 -1.00000 0.00000 0.00000 -1.00000 0.00000 1.00000 0.00000 0.00000 1.00000 0.00000 0.00000 0.00000 1.00000 0.00000 0.00000 1.00000 -0.00000 -1.00000 0.00000 0.00000 -1.00000 0.00000 0.00000 0.00000 -0.47885 0.87790 0.00000 -0.47885 0.87790 0.00000 0.00000 -1.00000 0.00000 0.00000 -1.00000 0.00000 0.00000 1.00000 0.00000 0.00000 1.00000 0.00000 -1.00000 0.00000 0.00000 -1.00000 0.00000 1.00000 0.00000 0.00000 1.00000 0.00000 0.00000 0.00000 1.00000 0.00000 0.00000 1.00000 -0.00000 -1.00000 0.00000 0.00000 -1.00000 0.00000 0.00000 0.00000 -0.47885 0.87790 0.00000 -0.47885 0.87790 0.00000 0.00000 -1.00000 0.00000 0.00000 -1.00000 0.00000 0.00000 1.00000 0.00000 0.00000 1.00000 0.00000 -1.00000 0.00000 0.00000 -1.00000 0.00000 1.00000 0.00000 0.00000 1.00000 0.00000 0.00000 0.00000 1.00000 0.00000 0.00000 1.00000 -0.00000 -1.00000 0.00000 0.00000 -1.00000 0.00000 0.00000 0.00000 -0.47885 0.87790 0.00000 -0.47885 0.87790 0.00000 0.00000 -1.00000 0.00000 0.00000 -1.00000 0.00000 0.00000 1.00000 0.00000 0.00000 1.00000 0.00000 -1.00000 0.00000 0.00000 -1.00000 0.00000 1.00000 0.00000 0.00000 1.00000 0.00000 0.00000 0.00000 1.00000 0.00000 0.00000 1.00000 -0.00000 -1.00000 0.00000 0.00000 -1.00000 0.00000 0.00000 0.00000 0.00000 -1.00000 0.00000 0.00000 -1.00000 0.00000 0.00000 1.00000 0.00000 0.00000 1.00000 0.00000 -1.00000 0.00000 0.00000 -1.00000 0.00000 1.00000 0.00000 0.00000 1.00000 0.00000 0.00000 0.00000 1.00000 0.00000 0.00000 1.00000 -0.00000 -1.00000 0.00000 0.00000 -1.00000 0.00000 0.00000 0.00000 0.00000 -1.00000 0.00000 0.00000 -1.00000 0.00000 0.00000 1.00000 0.00000 0.00000 1.00000 0.00000 -1.00000 0.00000 0.00000 -1.00000 0.00000 1.00000 0.00000 0.00000 1.00000 0.00000 0.00000 0.00000 1.00000 0.00000 0.00000 1.00000 -0.00000 -1.00000 0.00000 0.00000 -1.00000 0.00000 0.00000 0.00000 0.00000 -1.00000 0.00000 0.00000 -1.00000 0.00000 0.00000 1.00000 0.00000 0.00000 1.00000 0.00000 -1.00000 0.00000 0.00000 -1.00000 0.00000 1.00000 0.00000 0.00000 1.00000 0.00000 0.00000 0.00000 1.00000 0.00000 0.00000 1.00000 -0.00000 -1.00000 0.00000 0.00000 -1.00000 0.00000 0.00000 0.00000 0.00000 -1.00000 0.00000 0.00000 -1.00000 0.00000 0.00000 1.00000 0.00000 0.00000 1.00000 0.00000 -1.00000 0.00000 0.00000 -1.00000 0.00000 1.00000 0.00000 0.00000 1.00000 0.00000 0.00000 0.00000 1.00000 0.00000 0.00000 1.00000 -0.00000 -1.00000 0.00000 0.00000 -1.00000 0.00000 0.00000 0.00000 0.00000 -1.00000 0.00000 0.00000 -1.00000 0.00000 0.00000 1.00000 0.00000 0.00000 1.00000 0.00000 -1.00000 0.00000 0.00000 -1.00000 0.00000 1.00000 0.00000 0.00000 1.00000 0.00000 0.00000 0.00000 1.00000 0.00000 0.00000 1.00000 -0.00000 -1.00000 0.00000 0.00000 -1.00000 0.00000 0.00000 0.00000 0.00000 -1.00000 0.00000 0.00000 -1.00000 0.00000 0.00000 1.00000 0.00000 0.00000 1.00000 0.00000 -1.00000 0.00000 0.00000 -1.00000 0.00000 1.00000 0.00000 0.00000 1.00000 0.00000 0.00000 0.00000 1.00000 0.00000 0.00000 1.00000 -0.00000 -1.00000 0.00000 0.00000 -1.00000 0.00000 0.00000 0.00000 0.00000 -1.00000 0.00000 0.00000 -1.00000 0.00000 0.00000 1.00000 0.00000 0.00000 1.00000 0.00000 -1.00000 0.00000 0.00000 -1.00000 0.00000 1.00000 0.00000 0.00000 1.00000 0.00000 0.00000 0.00000 1.00000 0.00000 0.00000 1.00000 -0.00000 -1.00000 0.00000 0.00000 -1.00000 0.00000 0.00000 0.00000 0.00000 -1.00000 0.00000 0.00000 -1.00000 0.00000 0.00000 1.00000 0.00000 0.00000 1.00000 0.00000 -1.00000 0.00000 0.00000 -1.00000 0.00000 1.00000 0.00000 0.00000 1.00000 0.00000 0.00000 0.00000 1.00000 0.00000 0.00000 1.00000 -0.00000 -1.00000 0.00000 0.00000 -1.00000 0.00000 0.00000 0.00000 0.00000 -1.00000 0.00000 0.00000 -1.00000 0.00000 0.00000 1.00000 0.00000 0.00000 1.00000 0.00000 -1.00000 0.00000 0.00000 -1.00000 0.00000 1.00000 0.00000 0.00000 1.00000 0.00000 0.00000 0.00000 1.00000 0.00000 0.00000 1.00000 -0.00000 -1.00000 0.00000 0.00000 -1.00000 0.00000 0.00000 0.00000 0.00000 -1.00000 0.00000 0.00000 -1.00000 0.00000 0.00000 1.00000 0.00000 0.00000 1.00000 0.00000 -1.00000 0.00000 0.00000 -1.00000 0.00000 1.00000 0.00000 0.00000 1.00000 0.00000 0.00000 0.00000 1.00000 0.00000 0.00000 1.00000 -0.00000 -1.00000 0.00000 0.00000 -1.00000 0.00000 0.00000 0.00000 0.00000 -1.00000 0.00000 0.00000 -1.00000 0.00000 0.00000 1.00000 0.00000 0.00000 1.00000 0.00000 -1.00000 0.00000 0.00000 -1.00000 0.00000 1.00000 0.00000 0.00000 1.00000 0.00000 0.00000 0.00000 1.00000 0.00000 0.00000 1.00000 -0.00000 -1.00000 0.00000 0.00000 -1.00000 0.00000 0.00000 0.00000 0.00000 -1.00000 0.00000 0.00000 -1.00000 0.00000 0.00000 1.00000 0.00000 0.00000 1.00000 0.00000 -1.00000 0.00000 0.00000 -1.00000 0.00000 1.00000 0.00000 0.00000 1.00000 0.00000 0.00000 0.00000 1.00000 0.00000 0.00000 1.00000 -0.00000 -1.00000 0.00000 0.00000 -1.00000 0.00000 0.00000 0.00000 0.00000 -1.00000 0.00000 0.00000 -1.00000 0.00000 0.00000 1.00000 0.00000 0.00000 1.00000 0.00000 -1.00000 0.00000 0.00000 -1.00000 0.00000 1.00000 0.00000 0.00000 1.00000 0.00000 0.00000 0.00000 1.00000 0.00000 0.00000 1.00000 -0.00000 -1.00000 0.00000 0.00000 -1.00000 0.00000 0.00000 0.00000 0.00000 -1.00000 0.00000 0.00000 -1.00000 0.00000 0.00000 1.00000 0.00000 0.00000 1.00000 0.00000 -1.00000 0.00000 0.00000 -1.00000 0.00000 1.00000 0.00000 0.00000 1.00000 0.00000 0.00000 0.00000 1.00000 0.00000 0.00000 1.00000 -0.00000 -1.00000 0.00000 0.00000 -1.00000 0.00000 0.00000 0.00000 0.00000 -1.00000 0.00000 0.00000 -1.00000 0.00000 0.00000 1.00000 0.00000 0.00000 1.00000 0.00000 -1.00000 0.00000 0.00000 -1.00000 0.00000 1.00000 0.00000 0.00000 1.00000 0.00000 0.00000 0.00000 1.00000 0.00000 0.00000 1.00000 -0.00000 -1.00000 0.00000 0.00000 -1.00000 0.00000 0.00000 0.00000 0.00000 -1.00000 0.00000 0.00000 -1.00000 0.00000 0.00000 1.00000 0.00000 0.00000 1.00000 0.00000 -1.00000 0.00000 0.00000 -1.00000 0.00000 1.00000 0.00000 0.00000 1.00000 0.00000 0.00000 0.00000 1.00000 0.00000 0.00000 1.00000 -0.00000 -1.00000 0.00000 0.00000 -1.00000 0.00000 0.00000 0.00000 0.00000 -1.00000 0.00000 0.00000 -1.00000 0.00000 0.00000 1.00000 0.00000 0.00000 1.00000 0.00000 -1.00000 0.00000 0.00000 -1.00000 0.00000 1.00000 0.00000 0.00000 1.00000 0.00000 0.00000 0.00000 1.00000 0.00000 0.00000 1.00000 -0.00000 -1.00000 0.00000 0.00000 -1.00000 0.00000 0.00000</float_array><technique_common><accessor source="#normals-array" count="300" stride="3"><param name="X" type="float"/><param name="Y" type="float"/><param name="Z" type="float"/></accessor></technique_common></source>
<vertices id="vertices"><input semantic="POSITION" source="#positions"/></vertices><triangles count="300"><input semantic="VERTEX" source="#vertices" offset="0"/><input semantic="NORMAL" source="#normals" offset="1"/><p>0 0 2 0 1 0 0 1 3 1 2 1 4 2 5 2 6 2 4 3 6 3 7 3 0 4 1 4 5 4 0 5 5 5 4 5 1 6 2 6 6 6 1 7 6 7 5 7 2 8 3 8 7 8 2 9 7 9 6 9 3 10 0 10 4 10 3 11 4 11 7 11 8 12 9 12 10 12 8 13 10 13 11 13 12 14 14 14 13 14 12 15 15 15 14 15 16 16 17 16 18 16 16 17 18 17 19 17 12 18 13 18 17 18 12 19 17 19 16 19 13 20 14 20 18 20 13 21 18 21 17 21 14 22 15 22 19 22 14 23 19 23 18 23 15 24 12 24 16 24 15 25 16 25 19 25 20 26 21 26 22 26 20 27 22 27 23 27 24 28 26 28 25 28 24 29 27 29 26 29 28 30 29 30 30 30 28 31 30 31 31 31 24 32 25 32 29 32 24 33 29 33 28 33 25 34 26 34 30 34 25 35 30 35 29 35 26 36 27 36 31 36 26 37 31 37 30 37 27 38 24 38 28 38 27 39 28 39 31 39 32 40 33 40 34 40 32 41 34 41 35 41 36 42 38 42 37 42 36 43 39 43 38 43 40 44 41 44 42 44 40 45 42 45 43 45 36 46 37 46 41 46 36 47 41 47 40 47 37 48 38 48 42 48 37 49 42 49 41 49 38 50 39 50 43 50 38 51 43 51 42 51 39 52 36 52 40 52 39 53 40 53 43 53 44 54 45 54 46 54 44 55 46 55 47 55 48 56 50 56 49 56 48 57 51 57 50 57 52 58 53 58 54 58 52 59 54 59 55 59 48 60 49 60 53 60 48 61 53 61 52 61 49 62 50 62 54 62 49 63 54 63 53 63 50 64 51 64 55 64 50 65 55 65 54 65 51 66 48 66 52 66 51 67 52 67 55 67 56 68 57 68 58 68 56 69 58 69 59 69 60 70 62 70 61 70 60 71 63 71 62 71 64 72 65 72 66 72 64 73 66 73 67 73 60 74 61 74 65 74 60 75 65 75 64 75 61 76 62 76 66 76 61 77 66 77 65 77 62 78 63 78 67 78 62 79 67 79 66 79 63 80 60 80 64 80 63 81 64 81 67 81 68 82 69 82 70 82 68 83 70 83 71 83 72 84 74 84 73 84 72 85 75 85 74 85 76 86 77 86 78 86 76 87 78 87 79 87 72 88 73 88 77 88 72 89 77 89 76 89 73 90 74 90 78 90 73 91 78 91 77 91 74 92 75 92 79 92 74 93 79 93 78 93 75 94 72 94 76 94 75 95 76 95 79 95 80 96 82 96 81 96 80 97 83 97 82 97 84 98 85 98 86 98 84 99 86 99 87 99 80 100 81 100 85 100 80 101 85 101 84 101 81 102 82 102 86 102 81 103 86 103 85 103 82 104 83 104 87 104 82 105 87 105 86 105 83 106 80 106 84 106 83 107 84 107 87 107 88 108 90 108 89 108 88 109 91 109 90 109 92 110 93 110 94 110 92 111 94 111 95 111 88 112 89 112 93 112 88 113 93 113 92 113 89 114 90 114 94 114 89 115 94 115 93 115 90 116 91 116 95 116 90 117 95 117 94 117 91 118 88 118 92 118 91 119 92 119 95 119 96 120 98 120 97 120 96 121 99 121 98 121 100 122 101 122 102 122 100 123 102 123 103 123 96 124 97 124 101 124 96 125 101 125 100 125 97 126 98 126 102 126 97 127 102 127 101 127 98 128 99 128 103 128 98 129 103 129 102 129 99 130 96 130 100 130 99 131 100 131 103 131 104 132 106 132 105 132 104 133 107 133 106 133 108 134 109 134 110 134 108 135 110 135 111 135 104 136 105 136 109 136 104 137 109 137 108 137 105 138 106 138 110 138 105 139 110 139 109 139 106 140 107 140 111 140 106 141 111 141 110 141 107 142 104 142 108 142 107 143 108 143 111 143 112 144 114 144 113 144 112 145 115 145 114 145 116 146 117 146 118 146 116 147 118 147 119 147 112 148 113 148 117 148 112 149 117 149 116 149 113 150 114 150 118 150 113 151 118 151 117 151 114 152 115 152 119 152 114 153 119 153 118 153 115 154 112 154 116 154 115 155 116 155 119 155 120 156 122 156 121 156 120 157 123 157 122 157 124 158 125 158 126 158 124 159 126 159 127 159 120 160 121 160 125 160 120 161 125 161 124 161 121 162 122 162 126 162 121 163 126 163 125 163 122 164 123 164 127 164 122 165 127 165 126 165 123 166 120 166 124 166 123 167 124 167 127 167 128 168 130 168 129 168 128 169 131 169 130 169 132 170 133 170 134 170 132 171 134 171 135 171 128 172 129 172 133 172 128 173 133 173 132 173 129 174 130 174 134 174 129 175 134 175 133 175 130 176 131 176 135 176 130 177 135 177 134 177 131 178 128 178 132 178 131 179 132 179 135 179 136 180 138 180 137 180 136 181 139 181 138 181 140 182 141 182 142 182 140 183 142 183 143 183 136 184 137 184 141 184 136 185 141 185 140 185 137 186 138 186 142 186 137 187 142 187 141 187 138 188 139 188 143 188 138 189 143 189 142 189 139 190 136 190 140 190 139 191 140 191 143 191 144 192 146 192 145 192 144 193 147 193 146 193 148 194 149 194 150 194 148 195 150 195 151 195 144 196 145 196 149 196 144 197 149 197 148 197 145 198 146 198 150 198 145 199 150 199 149 199 146 200 147 200 151 200 146 201 151 201 150 201 147 202 144 202 148 202 147 203 148 203 151 203 152 204 154 204 153 204 152 205 155 205 154 205 156 206 157 206 158 206 156 207 158 207 159 207 152 208 153 208 157 208 152 209 157 209 156 209 153 210 154 210 158 210 153 211 158 211 157 211 154 212 155 212 159 212 154 213 159 213 158 213 155 214 152 214 156 214 155 215 156 215 159 215 160 216 162 216 161 216 160 217 163 217 162 217 164 218 165 218 166 218 164 219 166 219 167 219 160 220 161 220 165 220 160 221 165 221 164 221 161 222 162 222 166 222 161 223 166 223 165 223 162 224 163 224 167 224 162 225 167 225 166 225 163 226 160 226 164 226 163 227 164 227 167 227 168 228 170 228 169 228 168 229 171 229 170 229 172 230 173 230 174 230 172 231 174 231 175 231 168 232 169 232 173 232 168 233 173 233 172 233 169 234 170 234 174 234 169 235 174 235 173 235 170 236 171 236 175 236 170 237 175 237 174 237 171 238 168 238 172 238 171 239 172 239 175 239 176 240 178 240 177 240 176 241 179 241 178 241 180 242 181 242 182 242 180 243 182 243 183 243 176 244 177 244 181 244 176 245 181 245 180 245 177 246 178 246 182 246 177 247 182 247 181 247 178 248 179 248 183 248 178 249 183 249 182 249 179 250 176 250 180 250 179 251 180 251 183 251 184 252 186 252 185 252 184 253 187 253 186 253 188 254 189 254 190 254 188 255 190 255 191 255 184 256 185 256 189 256 184 257 189 257 188 257 185 258 186 258 190 258 185 259 190 259 189 259 186 260 187 260 191 260 186 261 191 261 190 261 187 262 184 262 188 262 187 263 188 263 191 263 192 264 194 264 193 264 192 265 195 265 194 265 196 266 197 266 198 266 196 267 198 267 199 267 192 268 193 268 197 268 192 269 197 269 196 269 193 270 194 270 198 270 193 271 198 271 197 271 194 272 195 272 199 272 194 273 199 273 198 273 195 274 192 274 196 274 195 275 196 275 199 275 200 276 202 276 201 276 200 277 203 277 202 277 204 278 205 278 206 278 204 279 206 279 207 279 200 280 201 280 205 280 200 281 205 281 204 281 201 282 202 282 206 282 201 283 206 283 205 283 202 284 203 284 207 284 202 285 207 285 206 285 203 286 200 286 204 286 203 287 204 287 207 287 208 288 210 288 209 288 208 289 211 289 210 289 212 290 213 290 214 290 212 291 214 291 215 291 208 292 209 292 213 292 208 293 213 293 212 293 209 294 210 294 214 294 209 295 214 295 213 295 210 296 211 296 215 296 210 297 215 297 214 297 211 298 208 298 212 298 211 299 212 299 215 299</p></triangles>
</mesh></geometry></library_geometries><library_visual_scenes><visual_scene id="Scene"><node id="mesh"><instance_geometry url="#geometry"/></node></visual_scene></library_visual_scenes><scene><instance_visual_scene url="#Scene"/></scene></COLLADA>