<?xml version="1.0" encoding="UTF-8"?>
<COLLADA xmlns="http://www.collada.org/2005/11/COLLADASchema" version="1.4.1">
<asset><contributor><authoring_tool>Summit Estate procedural mesh exporter</authoring_tool></contributor><created>2026-09-11T00:00:00Z</created><modified>2026-09-11T00:00:00Z</modified><unit name="meter" meter="1"/><up_axis>Z_UP</up_axis></asset>
<library_geometries><geometry id="geometry" name="geometry"><mesh>
<source id="positions"><float_array id="positions-array" count="252">134.00000 130.00000 80.92500 135.37000 130.00000 80.92500 135.30295 130.42335 80.92500 135.10835 130.80527 80.92500 134.80527 131.10835 80.92500 134.42335 131.30295 80.92500 134.00000 131.37000 80.92500 133.57665 131.30295 80.92500 133.19473 131.10835 80.92500 132.89165 130.80527 80.92500 132.69705 130.42335 80.92500 132.63000 130.00000 80.92500 132.69705 129.57665 80.92500 132.89165 129.19473 80.92500 133.19473 128.89165 80.92500 133.57665 128.69705 80.92500 134.00000 128.63000 80.92500 134.42335 128.69705 80.92500 134.80527 128.89165 80.92500 135.10835 129.19473 80.92500 135.30295 129.57665 80.92500 134.00000 170.00000 80.92500 135.37000 170.00000 80.92500 135.30295 170.42335 80.92500 135.10835 170.80527 80.92500 134.80527 171.10835 80.92500 134.42335 171.30295 80.92500 134.00000 171.37000 80.92500 133.57665 171.30295 80.92500 133.19473 171.10835 80.92500 132.89165 170.80527 80.92500 132.69705 170.42335 80.92500 132.63000 170.00000 80.92500 132.69705 169.57665 80.92500 132.89165 169.19473 80.92500 133.19473 168.89165 80.92500 133.57665 168.69705 80.92500 134.00000 168.63000 80.92500 134.42335 168.69705 80.92500 134.80527 168.89165 80.92500 135.10835 169.19473 80.92500 135.30295 169.57665 80.92500 200.00000 130.00000 80.92500 201.37000 130.00000 80.92500 201.30295 130.42335 80.92500 201.10835 130.80527 80.92500 200.80527 131.10835 80.92500 200.42335 131.30295 80.92500 200.00000 131.37000 80.92500 199.57665 131.30295 80.92500 199.19473 131.10835 80.92500 198.89165 130.80527 80.92500 198.69705 130.42335 80.92500 198.63000 130.00000 80.92500 198.69705 129.57665 80.92500 198.89165 129.19473 80.92500 199.19473 128.89165 80.92500 199.57665 128.69705 80.92500 200.00000 128.63000 80.92500 200.42335 128.69705 80.92500 200.80527 128.89165 80.92500 201.10835 129.19473 80.92500 201.30295 129.57665 80.92500 200.00000 170.00000 80.92500 201.37000 170.00000 80.92500 201.30295 170.42335 80.92500 201.10835 170.80527 80.92500 200.80527 171.10835 80.92500 200.42335 171.30295 80.92500 200.00000 171.37000 80.92500 199.57665 171.30295 80.92500 199.19473 171.10835 80.92500 198.89165 170.80527 80.92500 198.69705 170.42335 80.92500 198.63000 170.00000 80.92500 198.69705 169.57665 80.92500 198.89165 169.19473 80.92500 199.19473 168.89165 80.92500 199.57665 168.69705 80.92500 200.00000 168.63000 80.92500 200.42335 168.69705 80.92500 200.80527 168.89165 80.92500 201.10835 169.19473 80.92500 201.30295 169.57665 80.92500</float_array><technique_common><accessor source="#positions-array" count="84" stride="3"><param name="X" type="float"/><param name="Y" type="float"/><param name="Z" type="float"/></accessor></technique_common></source>
<source id="normals"><float_array id="normals-array" count="240">0.00000 0.00000 1.00000 0.00000 0.00000 1.00000 0.00000 0.00000 1.00000 0.00000 0.00000 1.00000 0.00000 0.00000 1.00000 0.00000 -0.00000 1.00000 0.00000 0.00000 1.00000 0.00000 0.00000 1.00000 0.00000 0.00000 1.00000 0.00000 0.00000 1.00000 0.00000 0.00000 1.00000 0.00000 0.00000 1.00000 0.00000 0.00000 1.00000 0.00000 0.00000 1.00000 0.00000 0.00000 1.00000 0.00000 0.00000 1.00000 0.00000 0.00000 1.00000 0.00000 0.00000 1.00000 0.00000 0.00000 1.00000 -0.00000 0.00000 1.00000 0.00000 0.00000 1.00000 0.00000 0.00000 1.00000 0.00000 0.00000 1.00000 0.00000 0.00000 1.00000 0.00000 0.00000 1.00000 0.00000 -0.00000 1.00000 0.00000 0.00000 1.00000 0.00000 0.00000 1.00000 0.00000 0.00000 1.00000 0.00000 0.00000 1.00000 0.00000 0.00000 1.00000 0.00000 0.00000 1.00000 0.00000 0.00000 1.00000 0.00000 0.00000 1.00000 0.00000 0.00000 1.00000 0.00000 0.00000 1.00000 0.00000 0.00000 1.00000 0.00000 0.00000 1.00000 0.00000 0.00000 1.00000 -0.00000 0.00000 1.00000 0.00000 0.00000 1.00000 0.00000 0.00000 1.00000 0.00000 0.00000 1.00000 0.00000 0.00000 1.00000 0.00000 0.00000 1.00000 0.00000 -0.00000 1.00000 0.00000 0.00000 1.00000 0.00000 0.00000 1.00000 0.00000 0.00000 1.00000 0.00000 0.00000 1.00000 0.00000 0.00000 1.00000 0.00000 0.00000 1.00000 0.00000 0.00000 1.00000 0.00000 0.00000 1.00000 0.00000 0.00000 1.00000 0.00000 0.00000 1.00000 0.00000 0.00000 1.00000 0.00000 0.00000 1.00000 0.00000 0.00000 1.00000 -0.00000 0.00000 1.00000 0.00000 0.00000 1.00000 0.00000 0.00000 1.00000 0.00000 0.00000 1.00000 0.00000 0.00000 1.00000 0.00000 0.00000 1.00000 0.00000 -0.00000 1.00000 0.00000 0.00000 1.00000 0.00000 0.00000 1.00000 0.00000 0.00000 1.00000 0.00000 0.00000 1.00000 0.00000 0.00000 1.00000 0.00000 0.00000 1.00000 0.00000 0.00000 1.00000 0.00000 0.00000 1.00000 0.00000 0.00000 1.00000 0.00000 0.00000 1.00000 0.00000 0.00000 1.00000 0.00000 0.00000 1.00000 0.00000 0.00000 1.00000 -0.00000 0.00000 1.00000</float_array><technique_common><accessor source="#normals-array" count="80" stride="3"><param name="X" type="float"/><param name="Y" type="float"/><param name="Z" type="float"/></accessor></technique_common></source>
<vertices id="vertices"><input semantic="POSITION" source="#positions"/></vertices><triangles count="80"><input semantic="VERTEX" source="#vertices" offset="0"/><input semantic="NORMAL" source="#normals" offset="1"/><p>0 0 1 0 2 0 0 1 2 1 3 1 0 2 3 2 4 2 0 3 4 3 5 3 0 4 5 4 6 4 0 5 6 5 7 5 0 6 7 6 8 6 0 7 8 7 9 7 0 8 9 8 10 8 0 9 10 9 11 9 0 10 11 10 12 10 0 11 12 11 13 11 0 12 13 12 14 12 0 13 14 13 15 13 0 14 15 14 16 14 0 15 16 15 17 15 0 16 17 16 18 16 0 17 18 17 19 17 0 18 19 18 20 18 0 19 20 19 1 19 21 20 22 20 23 20 21 21 23 21 24 21 21 22 24 22 25 22 21 23 25 23 26 23 21 24 26 24 27 24 21 25 27 25 28 25 21 26 28 26 29 26 21 27 29 27 30 27 21 28 30 28 31 28 21 29 31 29 32 29 21 30 32 30 33 30 21 31 33 31 34 31 21 32 34 32 35 32 21 33 35 33 36 33 21 34 36 34 37 34 21 35 37 35 38 35 21 36 38 36 39 36 21 37 39 37 40 37 21 38 40 38 41 38 21 39 41 39 22 39 42 40 43 40 44 40 42 41 44 41 45 41 42 42 45 42 46 42 42 43 46 43 47 43 42 44 47 44 48 44 42 45 48 45 49 45 42 46 49 46 50 46 42 47 50 47 51 47 42 48 51 48 52 48 42 49 52 49 53 49 42 50 53 50 54 50 42 51 54 51 55 51 42 52 55 52 56 52 42 53 56 53 57 53 42 54 57 54 58 54 42 55 58 55 59 55 42 56 59 56 60 56 42 57 60 57 61 57 42 58 61 58 62 58 42 59 62 59 43 59 63 60 64 60 65 60 63 61 65 61 66 61 63 62 66 62 67 62 63 63 67 63 68 63 63 64 68 64 69 64 63 65 69 65 70 65 63 66 70 66 71 66 63 67 71 67 72 67 63 68 72 68 73 68 63 69 73 69 74 69 63 70 74 70 75 70 63 71 75 71 76 71 63 72 76 72 77 72 63 73 77 73 78 73 63 74 78 74 79 74 63 75 79 75 80 75 63 76 80 76 81 76 63 77 81 77 82 77 63 78 82 78 83 78 63 79 83 79 64 79</p></triangles>
</mesh></geometry></library_geometries><library_visual_scenes><visual_scene id="Scene"><node id="mesh"><instance_geometry url="#geometry"/></node></visual_scene></library_visual_scenes><scene><instance_visual_scene url="#Scene"/></scene></COLLADA>