<?xml version="1.0" encoding="UTF-8"?>
<COLLADA xmlns="http://www.collada.org/2005/11/COLLADASchema" version="1.4.1">
<asset><contributor><authoring_tool>Summit Estate procedural mesh exporter</authoring_tool></contributor><created>2026-09-11T00:00:00Z</created><modified>2026-09-11T00:00:00Z</modified><unit name="meter" meter="1"/><up_axis>Z_UP</up_axis></asset>
<library_geometries><geometry id="geometry" name="geometry"><mesh>
<source id="positions"><float_array id="positions-array" count="504">134.00000 130.00000 80.67000 134.70534 130.00000 80.79032 134.57063 130.41459 80.79032 134.21796 130.67082 80.79032 133.78204 130.67082 80.79032 133.42937 130.41459 80.79032 133.29466 130.00000 80.79032 133.42937 129.58541 80.79032 133.78204 129.32918 80.79032 134.21796 129.32918 80.79032 134.57063 129.58541 80.79032 135.14127 130.00000 81.10532 134.92331 130.67082 81.10532 134.35267 131.08541 81.10532 133.64733 131.08541 81.10532 133.07669 130.67082 81.10532 132.85873 130.00000 81.10532 133.07669 129.32918 81.10532 133.64733 128.91459 81.10532 134.35267 128.91459 81.10532 134.92331 129.32918 81.10532 135.14127 130.00000 81.49468 134.92331 130.67082 81.49468 134.35267 131.08541 81.49468 133.64733 131.08541 81.49468 133.07669 130.67082 81.49468 132.85873 130.00000 81.49468 133.07669 129.32918 81.49468 133.64733 128.91459 81.49468 134.35267 128.91459 81.49468 134.92331 129.32918 81.49468 134.70534 130.00000 81.80968 134.57063 130.41459 81.80968 134.21796 130.67082 81.80968 133.78204 130.67082 81.80968 133.42937 130.41459 81.80968 133.29466 130.00000 81.80968 133.42937 129.58541 81.80968 133.78204 129.32918 81.80968 134.21796 129.32918 81.80968 134.57063 129.58541 81.80968 134.00000 130.00000 81.93000 134.00000 170.00000 80.67000 134.70534 170.00000 80.79032 134.57063 170.41459 80.79032 134.21796 170.67082 80.79032 133.78204 170.67082 80.79032 133.42937 170.41459 80.79032 133.29466 170.00000 80.79032 133.42937 169.58541 80.79032 133.78204 169.32918 80.79032 134.21796 169.32918 80.79032 134.57063 169.58541 80.79032 135.14127 170.00000 81.10532 134.92331 170.67082 81.10532 134.35267 171.08541 81.10532 133.64733 171.08541 81.10532 133.07669 170.67082 81.10532 132.85873 170.00000 81.10532 133.07669 169.32918 81.10532 133.64733 168.91459 81.10532 134.35267 168.91459 81.10532 134.92331 169.32918 81.10532 135.14127 170.00000 81.49468 134.92331 170.67082 81.49468 134.35267 171.08541 81.49468 133.64733 171.08541 81.49468 133.07669 170.67082 81.49468 132.85873 170.00000 81.49468 133.07669 169.32918 81.49468 133.64733 168.91459 81.49468 134.35267 168.91459 81.49468 134.92331 169.32918 81.49468 134.70534 170.00000 81.80968 134.57063 170.41459 81.80968 134.21796 170.67082 81.80968 133.78204 170.67082 81.80968 133.42937 170.41459 81.80968 133.29466 170.00000 81.80968 133.42937 169.58541 81.80968 133.78204 169.32918 81.80968 134.21796 169.32918 81.80968 134.57063 169.58541 81.80968 134.00000 170.00000 81.93000 200.00000 130.00000 80.67000 200.70534 130.00000 80.79032 200.57063 130.41459 80.79032 200.21796 130.67082 80.79032 199.78204 130.67082 80.79032 199.42937 130.41459 80.79032 199.29466 130.00000 80.79032 199.42937 129.58541 80.79032 199.78204 129.32918 80.79032 200.21796 129.32918 80.79032 200.57063 129.58541 80.79032 201.14127 130.00000 81.10532 200.92331 130.67082 81.10532 200.35267 131.08541 81.10532 199.64733 131.08541 81.10532 199.07669 130.67082 81.10532 198.85873 130.00000 81.10532 199.07669 129.32918 81.10532 199.64733 128.91459 81.10532 200.35267 128.91459 81.10532 200.92331 129.32918 81.10532 201.14127 130.00000 81.49468 200.92331 130.67082 81.49468 200.35267 131.08541 81.49468 199.64733 131.08541 81.49468 199.07669 130.67082 81.49468 198.85873 130.00000 81.49468 199.07669 129.32918 81.49468 199.64733 128.91459 81.49468 200.35267 128.91459 81.49468 200.92331 129.32918 81.49468 200.70534 130.00000 81.80968 200.57063 130.41459 81.80968 200.21796 130.67082 81.80968 199.78204 130.67082 81.80968 199.42937 130.41459 81.80968 199.29466 130.00000 81.80968 199.42937 129.58541 81.80968 199.78204 129.32918 81.80968 200.21796 129.32918 81.80968 200.57063 129.58541 81.80968 200.00000 130.00000 81.93000 200.00000 170.00000 80.67000 200.70534 170.00000 80.79032 200.57063 170.41459 80.79032 200.21796 170.67082 80.79032 199.78204 170.67082 80.79032 199.42937 170.41459 80.79032 199.29466 170.00000 80.79032 199.42937 169.58541 80.79032 199.78204 169.32918 80.79032 200.21796 169.32918 80.79032 200.57063 169.58541 80.79032 201.14127 170.00000 81.10532 200.92331 170.67082 81.10532 200.35267 171.08541 81.10532 199.64733 171.08541 81.10532 199.07669 170.67082 81.10532 198.85873 170.00000 81.10532 199.07669 169.32918 81.10532 199.64733 168.91459 81.10532 200.35267 168.91459 81.10532 200.92331 169.32918 81.10532 201.14127 170.00000 81.49468 200.92331 170.67082 81.49468 200.35267 171.08541 81.49468 199.64733 171.08541 81.49468 199.07669 170.67082 81.49468 198.85873 170.00000 81.49468 199.07669 169.32918 81.49468 199.64733 168.91459 81.49468 200.35267 168.91459 81.49468 200.92331 169.32918 81.49468 200.70534 170.00000 81.80968 200.57063 170.41459 81.80968 200.21796 170.67082 81.80968 199.78204 170.67082 81.80968 199.42937 170.41459 81.80968 199.29466 170.00000 81.80968 199.42937 169.58541 81.80968 199.78204 169.32918 81.80968 200.21796 169.32918 81.80968 200.57063 169.58541 81.80968 200.00000 170.00000 81.93000</float_array><technique_common><accessor source="#positions-array" count="168" stride="3"><param name="X" type="float"/><param name="Y" type="float"/><param name="Z" type="float"/></accessor></technique_common></source>
<source id="normals"><float_array id="normals-array" count="960">0.16790 0.05456 -0.98429 0.57537 0.18695 -0.79624 0.57537 0.18695 -0.79624 0.95106 0.30902 0.00000 0.95106 0.30902 -0.00000 0.57537 0.18695 0.79624 0.57537 0.18695 0.79624 0.16790 0.05456 0.98429 0.10377 0.14283 -0.98429 0.35560 0.48944 -0.79624 0.35560 0.48944 -0.79624 0.58779 0.80902 0.00000 0.58779 0.80902 -0.00000 0.35560 0.48944 0.79624 0.35560 0.48944 0.79624 0.10377 0.14283 0.98429 0.00000 0.17654 -0.98429 0.00000 0.60498 -0.79624 0.00000 0.60498 -0.79624 0.00000 1.00000 0.00000 0.00000 1.00000 -0.00000 0.00000 0.60498 0.79624 0.00000 0.60498 0.79624 0.00000 0.17654 0.98429 -0.10377 0.14283 -0.98429 -0.35560 0.48944 -0.79624 -0.35560 0.48944 -0.79624 -0.58779 0.80902 0.00000 -0.58779 0.80902 0.00000 -0.35560 0.48944 0.79624 -0.35560 0.48944 0.79624 -0.10377 0.14283 0.98429 -0.16790 0.05456 -0.98429 -0.57537 0.18695 -0.79624 -0.57537 0.18695 -0.79624 -0.95106 0.30902 0.00000 -0.95106 0.30902 0.00000 -0.57537 0.18695 0.79624 -0.57537 0.18695 0.79624 -0.16790 0.05456 0.98429 -0.16790 -0.05456 -0.98429 -0.57537 -0.18695 -0.79624 -0.57537 -0.18695 -0.79624 -0.95106 -0.30902 0.00000 -0.95106 -0.30902 0.00000 -0.57537 -0.18695 0.79624 -0.57537 -0.18695 0.79624 -0.16790 -0.05456 0.98429 -0.10377 -0.14283 -0.98429 -0.35560 -0.48944 -0.79624 -0.35560 -0.48944 -0.79624 -0.58779 -0.80902 0.00000 -0.58779 -0.80902 0.00000 -0.35560 -0.48944 0.79624 -0.35560 -0.48944 0.79624 -0.10377 -0.14283 0.98429 0.00000 -0.17654 -0.98429 0.00000 -0.60498 -0.79624 0.00000 -0.60498 -0.79624 0.00000 -1.00000 0.00000 0.00000 -1.00000 0.00000 0.00000 -0.60498 0.79624 0.00000 -0.60498 0.79624 0.00000 -0.17654 0.98429 0.10377 -0.14283 -0.98429 0.35560 -0.48944 -0.79624 0.35560 -0.48944 -0.79624 0.58779 -0.80902 0.00000 0.58779 -0.80902 0.00000 0.35560 -0.48944 0.79624 0.35560 -0.48944 0.79624 0.10377 -0.14283 0.98429 0.16790 -0.05456 -0.98429 0.57537 -0.18695 -0.79624 0.57537 -0.18695 -0.79624 0.95106 -0.30902 0.00000 0.95106 -0.30902 0.00000 0.57537 -0.18695 0.79624 0.57537 -0.18695 0.79624 0.16790 -0.05456 0.98429 0.16790 0.05456 -0.98429 0.57537 0.18695 -0.79624 0.57537 0.18695 -0.79624 0.95106 0.30902 0.00000 0.95106 0.30902 -0.00000 0.57537 0.18695 0.79624 0.57537 0.18695 0.79624 0.16790 0.05456 0.98429 0.10377 0.14283 -0.98429 0.35560 0.48944 -0.79624 0.35560 0.48944 -0.79624 0.58779 0.80902 0.00000 0.58779 0.80902 -0.00000 0.35560 0.48944 0.79624 0.35560 0.48944 0.79624 0.10377 0.14283 0.98429 0.00000 0.17654 -0.98429 0.00000 0.60498 -0.79624 0.00000 0.60498 -0.79624 0.00000 1.00000 0.00000 0.00000 1.00000 -0.00000 0.00000 0.60498 0.79624 0.00000 0.60498 0.79624 0.00000 0.17654 0.98429 -0.10377 0.14283 -0.98429 -0.35560 0.48944 -0.79624 -0.35560 0.48944 -0.79624 -0.58779 0.80902 0.00000 -0.58779 0.80902 0.00000 -0.35560 0.48944 0.79624 -0.35560 0.48944 0.79624 -0.10377 0.14283 0.98429 -0.16790 0.05456 -0.98429 -0.57537 0.18695 -0.79624 -0.57537 0.18695 -0.79624 -0.95106 0.30902 0.00000 -0.95106 0.30902 0.00000 -0.57537 0.18695 0.79624 -0.57537 0.18695 0.79624 -0.16790 0.05456 0.98429 -0.16790 -0.05456 -0.98429 -0.57537 -0.18695 -0.79624 -0.57537 -0.18695 -0.79624 -0.95106 -0.30902 0.00000 -0.95106 -0.30902 0.00000 -0.57537 -0.18695 0.79624 -0.57537 -0.18695 0.79624 -0.16790 -0.05456 0.98429 -0.10377 -0.14283 -0.98429 -0.35560 -0.48944 -0.79624 -0.35560 -0.48944 -0.79624 -0.58779 -0.80902 0.00000 -0.58779 -0.80902 0.00000 -0.35560 -0.48944 0.79624 -0.35560 -0.48944 0.79624 -0.10377 -0.14283 0.98429 0.00000 -0.17654 -0.98429 0.00000 -0.60498 -0.79624 0.00000 -0.60498 -0.79624 0.00000 -1.00000 0.00000 0.00000 -1.00000 0.00000 0.00000 -0.60498 0.79624 0.00000 -0.60498 0.79624 0.00000 -0.17654 0.98429 0.10377 -0.14283 -0.98429 0.35560 -0.48944 -0.79624 0.35560 -0.48944 -0.79624 0.58779 -0.80902 0.00000 0.58779 -0.80902 0.00000 0.35560 -0.48944 0.79624 0.35560 -0.48944 0.79624 0.10377 -0.14283 0.98429 0.16790 -0.05456 -0.98429 0.57537 -0.18695 -0.79624 0.57537 -0.18695 -0.79624 0.95106 -0.30902 0.00000 0.95106 -0.30902 0.00000 0.57537 -0.18695 0.79624 0.57537 -0.18695 0.79624 0.16790 -0.05456 0.98429 0.16790 0.05456 -0.98429 0.57537 0.18695 -0.79624 0.57537 0.18695 -0.79624 0.95106 0.30902 0.00000 0.95106 0.30902 -0.00000 0.57537 0.18695 0.79624 0.57537 0.18695 0.79624 0.16790 0.05456 0.98429 0.10377 0.14283 -0.98429 0.35560 0.48944 -0.79624 0.35560 0.48944 -0.79624 0.58779 0.80902 0.00000 0.58779 0.80902 -0.00000 0.35560 0.48944 0.79624 0.35560 0.48944 0.79624 0.10377 0.14283 0.98429 0.00000 0.17654 -0.98429 0.00000 0.60498 -0.79624 0.00000 0.60498 -0.79624 0.00000 1.00000 0.00000 0.00000 1.00000 -0.00000 0.00000 0.60498 0.79624 0.00000 0.60498 0.79624 0.00000 0.17654 0.98429 -0.10377 0.14283 -0.98429 -0.35560 0.48944 -0.79624 -0.35560 0.48944 -0.79624 -0.58779 0.80902 0.00000 -0.58779 0.80902 0.00000 -0.35560 0.48944 0.79624 -0.35560 0.48944 0.79624 -0.10377 0.14283 0.98429 -0.16790 0.05456 -0.98429 -0.57537 0.18695 -0.79624 -0.57537 0.18695 -0.79624 -0.95106 0.30902 0.00000 -0.95106 0.30902 0.00000 -0.57537 0.18695 0.79624 -0.57537 0.18695 0.79624 -0.16790 0.05456 0.98429 -0.16790 -0.05456 -0.98429 -0.57537 -0.18695 -0.79624 -0.57537 -0.18695 -0.79624 -0.95106 -0.30902 0.00000 -0.95106 -0.30902 0.00000 -0.57537 -0.18695 0.79624 -0.57537 -0.18695 0.79624 -0.16790 -0.05456 0.98429 -0.10377 -0.14283 -0.98429 -0.35560 -0.48944 -0.79624 -0.35560 -0.48944 -0.79624 -0.58779 -0.80902 0.00000 -0.58779 -0.80902 0.00000 -0.35560 -0.48944 0.79624 -0.35560 -0.48944 0.79624 -0.10377 -0.14283 0.98429 0.00000 -0.17654 -0.98429 0.00000 -0.60498 -0.79624 0.00000 -0.60498 -0.79624 0.00000 -1.00000 0.00000 0.00000 -1.00000 0.00000 0.00000 -0.60498 0.79624 0.00000 -0.60498 0.79624 0.00000 -0.17654 0.98429 0.10377 -0.14283 -0.98429 0.35560 -0.48944 -0.79624 0.35560 -0.48944 -0.79624 0.58779 -0.80902 0.00000 0.58779 -0.80902 0.00000 0.35560 -0.48944 0.79624 0.35560 -0.48944 0.79624 0.10377 -0.14283 0.98429 0.16790 -0.05456 -0.98429 0.57537 -0.18695 -0.79624 0.57537 -0.18695 -0.79624 0.95106 -0.30902 0.00000 0.95106 -0.30902 0.00000 0.57537 -0.18695 0.79624 0.57537 -0.18695 0.79624 0.16790 -0.05456 0.98429 0.16790 0.05456 -0.98429 0.57537 0.18695 -0.79624 0.57537 0.18695 -0.79624 0.95106 0.30902 0.00000 0.95106 0.30902 -0.00000 0.57537 0.18695 0.79624 0.57537 0.18695 0.79624 0.16790 0.05456 0.98429 0.10377 0.14283 -0.98429 0.35560 0.48944 -0.79624 0.35560 0.48944 -0.79624 0.58779 0.80902 0.00000 0.58779 0.80902 -0.00000 0.35560 0.48944 0.79624 0.35560 0.48944 0.79624 0.10377 0.14283 0.98429 0.00000 0.17654 -0.98429 0.00000 0.60498 -0.79624 0.00000 0.60498 -0.79624 0.00000 1.00000 0.00000 0.00000 1.00000 -0.00000 0.00000 0.60498 0.79624 0.00000 0.60498 0.79624 0.00000 0.17654 0.98429 -0.10377 0.14283 -0.98429 -0.35560 0.48944 -0.79624 -0.35560 0.48944 -0.79624 -0.58779 0.80902 0.00000 -0.58779 0.80902 0.00000 -0.35560 0.48944 0.79624 -0.35560 0.48944 0.79624 -0.10377 0.14283 0.98429 -0.16790 0.05456 -0.98429 -0.57537 0.18695 -0.79624 -0.57537 0.18695 -0.79624 -0.95106 0.30902 0.00000 -0.95106 0.30902 0.00000 -0.57537 0.18695 0.79624 -0.57537 0.18695 0.79624 -0.16790 0.05456 0.98429 -0.16790 -0.05456 -0.98429 -0.57537 -0.18695 -0.79624 -0.57537 -0.18695 -0.79624 -0.95106 -0.30902 0.00000 -0.95106 -0.30902 0.00000 -0.57537 -0.18695 0.79624 -0.57537 -0.18695 0.79624 -0.16790 -0.05456 0.98429 -0.10377 -0.14283 -0.98429 -0.35560 -0.48944 -0.79624 -0.35560 -0.48944 -0.79624 -0.58779 -0.80902 0.00000 -0.58779 -0.80902 0.00000 -0.35560 -0.48944 0.79624 -0.35560 -0.48944 0.79624 -0.10377 -0.14283 0.98429 0.00000 -0.17654 -0.98429 0.00000 -0.60498 -0.79624 0.00000 -0.60498 -0.79624 0.00000 -1.00000 0.00000 0.00000 -1.00000 0.00000 0.00000 -0.60498 0.79624 0.00000 -0.60498 0.79624 0.00000 -0.17654 0.98429 0.10377 -0.14283 -0.98429 0.35560 -0.48944 -0.79624 0.35560 -0.48944 -0.79624 0.58779 -0.80902 0.00000 0.58779 -0.80902 0.00000 0.35560 -0.48944 0.79624 0.35560 -0.48944 0.79624 0.10377 -0.14283 0.98429 0.16790 -0.05456 -0.98429 0.57537 -0.18695 -0.79624 0.57537 -0.18695 -0.79624 0.95106 -0.30902 0.00000 0.95106 -0.30902 0.00000 0.57537 -0.18695 0.79624 0.57537 -0.18695 0.79624 0.16790 -0.05456 0.98429</float_array><technique_common><accessor source="#normals-array" count="320" stride="3"><param name="X" type="float"/><param name="Y" type="float"/><param name="Z" type="float"/></accessor></technique_common></source>
<vertices id="vertices"><input semantic="POSITION" source="#positions"/></vertices><triangles count="320"><input semantic="VERTEX" source="#vertices" offset="0"/><input semantic="NORMAL" source="#normals" offset="1"/><p>0 0 2 0 1 0 1 1 2 1 12 1 1 2 12 2 11 2 11 3 12 3 22 3 11 4 22 4 21 4 21 5 22 5 32 5 21 6 32 6 31 6 31 7 32 7 41 7 0 8 3 8 2 8 2 9 3 9 13 9 2 10 13 10 12 10 12 11 13 11 23 11 12 12 23 12 22 12 22 13 23 13 33 13 22 14 33 14 32 14 32 15 33 15 41 15 0 16 4 16 3 16 3 17 4 17 14 17 3 18 14 18 13 18 13 19 14 19 24 19 13 20 24 20 23 20 23 21 24 21 34 21 23 22 34 22 33 22 33 23 34 23 41 23 0 24 5 24 4 24 4 25 5 25 15 25 4 26 15 26 14 26 14 27 15 27 25 27 14 28 25 28 24 28 24 29 25 29 35 29 24 30 35 30 34 30 34 31 35 31 41 31 0 32 6 32 5 32 5 33 6 33 16 33 5 34 16 34 15 34 15 35 16 35 26 35 15 36 26 36 25 36 25 37 26 37 36 37 25 38 36 38 35 38 35 39 36 39 41 39 0 40 7 40 6 40 6 41 7 41 17 41 6 42 17 42 16 42 16 43 17 43 27 43 16 44 27 44 26 44 26 45 27 45 37 45 26 46 37 46 36 46 36 47 37 47 41 47 0 48 8 48 7 48 7 49 8 49 18 49 7 50 18 50 17 50 17 51 18 51 28 51 17 52 28 52 27 52 27 53 28 53 38 53 27 54 38 54 37 54 37 55 38 55 41 55 0 56 9 56 8 56 8 57 9 57 19 57 8 58 19 58 18 58 18 59 19 59 29 59 18 60 29 60 28 60 28 61 29 61 39 61 28 62 39 62 38 62 38 63 39 63 41 63 0 64 10 64 9 64 9 65 10 65 20 65 9 66 20 66 19 66 19 67 20 67 30 67 19 68 30 68 29 68 29 69 30 69 40 69 29 70 40 70 39 70 39 71 40 71 41 71 0 72 1 72 10 72 10 73 1 73 11 73 10 74 11 74 20 74 20 75 11 75 21 75 20 76 21 76 30 76 30 77 21 77 31 77 30 78 31 78 40 78 40 79 31 79 41 79 42 80 44 80 43 80 43 81 44 81 54 81 43 82 54 82 53 82 53 83 54 83 64 83 53 84 64 84 63 84 63 85 64 85 74 85 63 86 74 86 73 86 73 87 74 87 83 87 42 88 45 88 44 88 44 89 45 89 55 89 44 90 55 90 54 90 54 91 55 91 65 91 54 92 65 92 64 92 64 93 65 93 75 93 64 94 75 94 74 94 74 95 75 95 83 95 42 96 46 96 45 96 45 97 46 97 56 97 45 98 56 98 55 98 55 99 56 99 66 99 55 100 66 100 65 100 65 101 66 101 76 101 65 102 76 102 75 102 75 103 76 103 83 103 42 104 47 104 46 104 46 105 47 105 57 105 46 106 57 106 56 106 56 107 57 107 67 107 56 108 67 108 66 108 66 109 67 109 77 109 66 110 77 110 76 110 76 111 77 111 83 111 42 112 48 112 47 112 47 113 48 113 58 113 47 114 58 114 57 114 57 115 58 115 68 115 57 116 68 116 67 116 67 117 68 117 78 117 67 118 78 118 77 118 77 119 78 119 83 119 42 120 49 120 48 120 48 121 49 121 59 121 48 122 59 122 58 122 58 123 59 123 69 123 58 124 69 124 68 124 68 125 69 125 79 125 68 126 79 126 78 126 78 127 79 127 83 127 42 128 50 128 49 128 49 129 50 129 60 129 49 130 60 130 59 130 59 131 60 131 70 131 59 132 70 132 69 132 69 133 70 133 80 133 69 134 80 134 79 134 79 135 80 135 83 135 42 136 51 136 50 136 50 137 51 137 61 137 50 138 61 138 60 138 60 139 61 139 71 139 60 140 71 140 70 140 70 141 71 141 81 141 70 142 81 142 80 142 80 143 81 143 83 143 42 144 52 144 51 144 51 145 52 145 62 145 51 146 62 146 61 146 61 147 62 147 72 147 61 148 72 148 71 148 71 149 72 149 82 149 71 150 82 150 81 150 81 151 82 151 83 151 42 152 43 152 52 152 52 153 43 153 53 153 52 154 53 154 62 154 62 155 53 155 63 155 62 156 63 156 72 156 72 157 63 157 73 157 72 158 73 158 82 158 82 159 73 159 83 159 84 160 86 160 85 160 85 161 86 161 96 161 85 162 96 162 95 162 95 163 96 163 106 163 95 164 106 164 105 164 105 165 106 165 116 165 105 166 116 166 115 166 115 167 116 167 125 167 84 168 87 168 86 168 86 169 87 169 97 169 86 170 97 170 96 170 96 171 97 171 107 171 96 172 107 172 106 172 106 173 107 173 117 173 106 174 117 174 116 174 116 175 117 175 125 175 84 176 88 176 87 176 87 177 88 177 98 177 87 178 98 178 97 178 97 179 98 179 108 179 97 180 108 180 107 180 107 181 108 181 118 181 107 182 118 182 117 182 117 183 118 183 125 183 84 184 89 184 88 184 88 185 89 185 99 185 88 186 99 186 98 186 98 187 99 187 109 187 98 188 109 188 108 188 108 189 109 189 119 189 108 190 119 190 118 190 118 191 119 191 125 191 84 192 90 192 89 192 89 193 90 193 100 193 89 194 100 194 99 194 99 195 100 195 110 195 99 196 110 196 109 196 109 197 110 197 120 197 109 198 120 198 119 198 119 199 120 199 125 199 84 200 91 200 90 200 90 201 91 201 101 201 90 202 101 202 100 202 100 203 101 203 111 203 100 204 111 204 110 204 110 205 111 205 121 205 110 206 121 206 120 206 120 207 121 207 125 207 84 208 92 208 91 208 91 209 92 209 102 209 91 210 102 210 101 210 101 211 102 211 112 211 101 212 112 212 111 212 111 213 112 213 122 213 111 214 122 214 121 214 121 215 122 215 125 215 84 216 93 216 92 216 92 217 93 217 103 217 92 218 103 218 102 218 102 219 103 219 113 219 102 220 113 220 112 220 112 221 113 221 123 221 112 222 123 222 122 222 122 223 123 223 125 223 84 224 94 224 93 224 93 225 94 225 104 225 93 226 104 226 103 226 103 227 104 227 114 227 103 228 114 228 113 228 113 229 114 229 124 229 113 230 124 230 123 230 123 231 124 231 125 231 84 232 85 232 94 232 94 233 85 233 95 233 94 234 95 234 104 234 104 235 95 235 105 235 104 236 105 236 114 236 114 237 105 237 115 237 114 238 115 238 124 238 124 239 115 239 125 239 126 240 128 240 127 240 127 241 128 241 138 241 127 242 138 242 137 242 137 243 138 243 148 243 137 244 148 244 147 244 147 245 148 245 158 245 147 246 158 246 157 246 157 247 158 247 167 247 126 248 129 248 128 248 128 249 129 249 139 249 128 250 139 250 138 250 138 251 139 251 149 251 138 252 149 252 148 252 148 253 149 253 159 253 148 254 159 254 158 254 158 255 159 255 167 255 126 256 130 256 129 256 129 257 130 257 140 257 129 258 140 258 139 258 139 259 140 259 150 259 139 260 150 260 149 260 149 261 150 261 160 261 149 262 160 262 159 262 159 263 160 263 167 263 126 264 131 264 130 264 130 265 131 265 141 265 130 266 141 266 140 266 140 267 141 267 151 267 140 268 151 268 150 268 150 269 151 269 161 269 150 270 161 270 160 270 160 271 161 271 167 271 126 272 132 272 131 272 131 273 132 273 142 273 131 274 142 274 141 274 141 275 142 275 152 275 141 276 152 276 151 276 151 277 152 277 162 277 151 278 162 278 161 278 161 279 162 279 167 279 126 280 133 280 132 280 132 281 133 281 143 281 132 282 143 282 142 282 142 283 143 283 153 283 142 284 153 284 152 284 152 285 153 285 163 285 152 286 163 286 162 286 162 287 163 287 167 287 126 288 134 288 133 288 133 289 134 289 144 289 133 290 144 290 143 290 143 291 144 291 154 291 143 292 154 292 153 292 153 293 154 293 164 293 153 294 164 294 163 294 163 295 164 295 167 295 126 296 135 296 134 296 134 297 135 297 145 297 134 298 145 298 144 298 144 299 145 299 155 299 144 300 155 300 154 300 154 301 155 301 165 301 154 302 165 302 164 302 164 303 165 303 167 303 126 304 136 304 135 304 135 305 136 305 146 305 135 306 146 306 145 306 145 307 146 307 156 307 145 308 156 308 155 308 155 309 156 309 166 309 155 310 166 310 165 310 165 311 166 311 167 311 126 312 127 312 136 312 136 313 127 313 137 313 136 314 137 314 146 314 146 315 137 315 147 315 146 316 147 316 156 316 156 317 147 317 157 317 156 318 157 318 166 318 166 319 157 319 167 319</p></triangles>
</mesh></geometry></library_geometries><library_visual_scenes><visual_scene id="Scene"><node id="mesh"><instance_geometry url="#geometry"/></node></visual_scene></library_visual_scenes><scene><instance_visual_scene url="#Scene"/></scene></COLLADA>