<?xml version="1.0" encoding="UTF-8"?>
<COLLADA xmlns="http://www.collada.org/2005/11/COLLADASchema" version="1.4.1">
<asset><contributor><authoring_tool>Summit Estate procedural mesh exporter</authoring_tool></contributor><created>2026-09-11T00:00:00Z</created><modified>2026-09-11T00:00:00Z</modified><unit name="meter" meter="1"/><up_axis>Z_UP</up_axis></asset>
<library_geometries><geometry id="geometry" name="geometry"><mesh>
<source id="positions"><float_array id="positions-array" count="192">191.00000 137.50000 80.16000 191.20000 137.50000 80.16000 191.20000 137.70000 80.16000 191.00000 137.70000 80.16000 191.00000 137.50000 83.76000 191.20000 137.50000 83.76000 191.20000 137.70000 83.76000 191.00000 137.70000 83.76000 191.00000 146.30000 80.16000 191.20000 146.30000 80.16000 191.20000 146.50000 80.16000 191.00000 146.50000 80.16000 191.00000 146.30000 83.76000 191.20000 146.30000 83.76000 191.20000 146.50000 83.76000 191.00000 146.50000 83.76000 198.80000 137.50000 80.16000 199.00000 137.50000 80.16000 199.00000 137.70000 80.16000 198.80000 137.70000 80.16000 198.80000 137.50000 83.76000 199.00000 137.50000 83.76000 199.00000 137.70000 83.76000 198.80000 137.70000 83.76000 198.80000 146.30000 80.16000 199.00000 146.30000 80.16000 199.00000 146.50000 80.16000 198.80000 146.50000 80.16000 198.80000 146.30000 83.76000 199.00000 146.30000 83.76000 199.00000 146.50000 83.76000 198.80000 146.50000 83.76000 191.00000 151.50000 80.16000 191.20000 151.50000 80.16000 191.20000 151.70000 80.16000 191.00000 151.70000 80.16000 191.00000 151.50000 83.76000 191.20000 151.50000 83.76000 191.20000 151.70000 83.76000 191.00000 151.70000 83.76000 191.00000 160.30000 80.16000 191.20000 160.30000 80.16000 191.20000 160.50000 80.16000 191.00000 160.50000 80.16000 191.00000 160.30000 83.76000 191.20000 160.30000 83.76000 191.20000 160.50000 83.76000 191.00000 160.50000 83.76000 198.80000 151.50000 80.16000 199.00000 151.50000 80.16000 199.00000 151.70000 80.16000 198.80000 151.70000 80.16000 198.80000 151.50000 83.76000 199.00000 151.50000 83.76000 199.00000 151.70000 83.76000 198.80000 151.70000 83.76000 198.80000 160.30000 80.16000 199.00000 160.30000 80.16000 199.00000 160.50000 80.16000 198.80000 160.50000 80.16000 198.80000 160.30000 83.76000 199.00000 160.30000 83.76000 199.00000 160.50000 83.76000 198.80000 160.50000 83.76000</float_array><technique_common><accessor source="#positions-array" count="64" stride="3"><param name="X" type="float"/><param name="Y" type="float"/><param name="Z" type="float"/></accessor></technique_common></source>
<source id="normals"><float_array id="normals-array" count="288">0.00000 0.00000 -1.00000 0.00000 0.00000 -1.00000 0.00000 0.00000 1.00000 0.00000 0.00000 1.00000 0.00000 -1.00000 0.00000 0.00000 -1.00000 0.00000 1.00000 0.00000 0.00000 1.00000 0.00000 0.00000 0.00000 1.00000 0.00000 0.00000 1.00000 -0.00000 -1.00000 0.00000 0.00000 -1.00000 0.00000 0.00000 0.00000 0.00000 -1.00000 0.00000 0.00000 -1.00000 0.00000 0.00000 1.00000 0.00000 0.00000 1.00000 0.00000 -1.00000 0.00000 0.00000 -1.00000 0.00000 1.00000 0.00000 0.00000 1.00000 0.00000 0.00000 0.00000 1.00000 0.00000 0.00000 1.00000 -0.00000 -1.00000 0.00000 0.00000 -1.00000 0.00000 0.00000 0.00000 0.00000 -1.00000 0.00000 0.00000 -1.00000 0.00000 0.00000 1.00000 0.00000 0.00000 1.00000 0.00000 -1.00000 0.00000 0.00000 -1.00000 0.00000 1.00000 0.00000 0.00000 1.00000 0.00000 0.00000 0.00000 1.00000 0.00000 0.00000 1.00000 -0.00000 -1.00000 0.00000 0.00000 -1.00000 0.00000 0.00000 0.00000 0.00000 -1.00000 0.00000 0.00000 -1.00000 0.00000 0.00000 1.00000 0.00000 0.00000 1.00000 0.00000 -1.00000 0.00000 0.00000 -1.00000 0.00000 1.00000 0.00000 0.00000 1.00000 0.00000 0.00000 0.00000 1.00000 0.00000 0.00000 1.00000 -0.00000 -1.00000 0.00000 0.00000 -1.00000 0.00000 0.00000 0.00000 0.00000 -1.00000 0.00000 0.00000 -1.00000 0.00000 0.00000 1.00000 0.00000 0.00000 1.00000 0.00000 -1.00000 0.00000 0.00000 -1.00000 0.00000 1.00000 0.00000 0.00000 1.00000 0.00000 0.00000 0.00000 1.00000 0.00000 0.00000 1.00000 -0.00000 -1.00000 0.00000 0.00000 -1.00000 0.00000 0.00000 0.00000 0.00000 -1.00000 0.00000 0.00000 -1.00000 0.00000 0.00000 1.00000 0.00000 0.00000 1.00000 0.00000 -1.00000 0.00000 0.00000 -1.00000 0.00000 1.00000 0.00000 0.00000 1.00000 0.00000 0.00000 0.00000 1.00000 0.00000 0.00000 1.00000 -0.00000 -1.00000 0.00000 0.00000 -1.00000 0.00000 0.00000 0.00000 0.00000 -1.00000 0.00000 0.00000 -1.00000 0.00000 0.00000 1.00000 0.00000 0.00000 1.00000 0.00000 -1.00000 0.00000 0.00000 -1.00000 0.00000 1.00000 0.00000 0.00000 1.00000 0.00000 0.00000 0.00000 1.00000 0.00000 0.00000 1.00000 -0.00000 -1.00000 0.00000 0.00000 -1.00000 0.00000 0.00000 0.00000 0.00000 -1.00000 0.00000 0.00000 -1.00000 0.00000 0.00000 1.00000 0.00000 0.00000 1.00000 0.00000 -1.00000 0.00000 0.00000 -1.00000 0.00000 1.00000 0.00000 0.00000 1.00000 0.00000 0.00000 0.00000 1.00000 0.00000 0.00000 1.00000 -0.00000 -1.00000 0.00000 0.00000 -1.00000 0.00000 0.00000</float_array><technique_common><accessor source="#normals-array" count="96" stride="3"><param name="X" type="float"/><param name="Y" type="float"/><param name="Z" type="float"/></accessor></technique_common></source>
<vertices id="vertices"><input semantic="POSITION" source="#positions"/></vertices><triangles count="96"><input semantic="VERTEX" source="#vertices" offset="0"/><input semantic="NORMAL" source="#normals" offset="1"/><p>0 0 2 0 1 0 0 1 3 1 2 1 4 2 5 2 6 2 4 3 6 3 7 3 0 4 1 4 5 4 0 5 5 5 4 5 1 6 2 6 6 6 1 7 6 7 5 7 2 8 3 8 7 8 2 9 7 9 6 9 3 10 0 10 4 10 3 11 4 11 7 11 8 12 10 12 9 12 8 13 11 13 10 13 12 14 13 14 14 14 12 15 14 15 15 15 8 16 9 16 13 16 8 17 13 17 12 17 9 18 10 18 14 18 9 19 14 19 13 19 10 20 11 20 15 20 10 21 15 21 14 21 11 22 8 22 12 22 11 23 12 23 15 23 16 24 18 24 17 24 16 25 19 25 18 25 20 26 21 26 22 26 20 27 22 27 23 27 16 28 17 28 21 28 16 29 21 29 20 29 17 30 18 30 22 30 17 31 22 31 21 31 18 32 19 32 23 32 18 33 23 33 22 33 19 34 16 34 20 34 19 35 20 35 23 35 24 36 26 36 25 36 24 37 27 37 26 37 28 38 29 38 30 38 28 39 30 39 31 39 24 40 25 40 29 40 24 41 29 41 28 41 25 42 26 42 30 42 25 43 30 43 29 43 26 44 27 44 31 44 26 45 31 45 30 45 27 46 24 46 28 46 27 47 28 47 31 47 32 48 34 48 33 48 32 49 35 49 34 49 36 50 37 50 38 50 36 51 38 51 39 51 32 52 33 52 37 52 32 53 37 53 36 53 33 54 34 54 38 54 33 55 38 55 37 55 34 56 35 56 39 56 34 57 39 57 38 57 35 58 32 58 36 58 35 59 36 59 39 59 40 60 42 60 41 60 40 61 43 61 42 61 44 62 45 62 46 62 44 63 46 63 47 63 40 64 41 64 45 64 40 65 45 65 44 65 41 66 42 66 46 66 41 67 46 67 45 67 42 68 43 68 47 68 42 69 47 69 46 69 43 70 40 70 44 70 43 71 44 71 47 71 48 72 50 72 49 72 48 73 51 73 50 73 52 74 53 74 54 74 52 75 54 75 55 75 48 76 49 76 53 76 48 77 53 77 52 77 49 78 50 78 54 78 49 79 54 79 53 79 50 80 51 80 55 80 50 81 55 81 54 81 51 82 48 82 52 82 51 83 52 83 55 83 56 84 58 84 57 84 56 85 59 85 58 85 60 86 61 86 62 86 60 87 62 87 63 87 56 88 57 88 61 88 56 89 61 89 60 89 57 90 58 90 62 90 57 91 62 91 61 91 58 92 59 92 63 92 58 93 63 93 62 93 59 94 56 94 60 94 59 95 60 95 63 95</p></triangles>
</mesh></geometry></library_geometries><library_visual_scenes><visual_scene id="Scene"><node id="mesh"><instance_geometry url="#geometry"/></node></visual_scene></library_visual_scenes><scene><instance_visual_scene url="#Scene"/></scene></COLLADA>