<?xml version="1.0" encoding="UTF-8"?>
<COLLADA xmlns="http://www.collada.org/2005/11/COLLADASchema" version="1.4.1">
<asset><contributor><authoring_tool>Summit Estate procedural mesh exporter</authoring_tool></contributor><created>2026-09-11T00:00:00Z</created><modified>2026-09-11T00:00:00Z</modified><unit name="meter" meter="1"/><up_axis>Z_UP</up_axis></asset>
<library_geometries><geometry id="geometry" name="geometry"><mesh>
<source id="positions"><float_array id="positions-array" count="1488">148.20000 138.20000 79.99000 149.00000 138.20000 79.99000 149.00000 159.80000 79.99000 148.20000 159.80000 79.99000 148.20000 138.20000 80.23000 149.00000 138.20000 80.23000 149.00000 159.80000 80.23000 148.20000 159.80000 80.23000 185.00000 138.20000 79.99000 185.80000 138.20000 79.99000 185.80000 159.80000 79.99000 185.00000 159.80000 79.99000 185.00000 138.20000 80.23000 185.80000 138.20000 80.23000 185.80000 159.80000 80.23000 185.00000 159.80000 80.23000 149.00000 138.20000 79.99000 185.00000 138.20000 79.99000 185.00000 139.00000 79.99000 149.00000 139.00000 79.99000 149.00000 138.20000 80.23000 185.00000 138.20000 80.23000 185.00000 139.00000 80.23000 149.00000 139.00000 80.23000 149.00000 159.00000 79.99000 185.00000 159.00000 79.99000 185.00000 159.80000 79.99000 149.00000 159.80000 79.99000 149.00000 159.00000 80.23000 185.00000 159.00000 80.23000 185.00000 159.80000 80.23000 149.00000 159.80000 80.23000 145.05000 164.75000 80.17500 146.15000 164.75000 80.17500 146.15000 165.85000 80.17500 145.05000 165.85000 80.17500 145.05000 164.75000 80.82500 146.15000 164.75000 80.82500 146.15000 165.85000 80.82500 145.05000 165.85000 80.82500 152.65000 164.75000 80.17500 153.75000 164.75000 80.17500 153.75000 165.85000 80.17500 152.65000 165.85000 80.17500 152.65000 164.75000 80.82500 153.75000 164.75000 80.82500 153.75000 165.85000 80.82500 152.65000 165.85000 80.82500 160.25000 164.75000 80.17500 161.35000 164.75000 80.17500 161.35000 165.85000 80.17500 160.25000 165.85000 80.17500 160.25000 164.75000 80.82500 161.35000 164.75000 80.82500 161.35000 165.85000 80.82500 160.25000 165.85000 80.82500 167.85000 164.75000 80.17500 168.95000 164.75000 80.17500 168.95000 165.85000 80.17500 167.85000 165.85000 80.17500 167.85000 164.75000 80.82500 168.95000 164.75000 80.82500 168.95000 165.85000 80.82500 167.85000 165.85000 80.82500 175.45000 164.75000 80.17500 176.55000 164.75000 80.17500 176.55000 165.85000 80.17500 175.45000 165.85000 80.17500 175.45000 164.75000 80.82500 176.55000 164.75000 80.82500 176.55000 165.85000 80.82500 175.45000 165.85000 80.82500 193.60000 141.10000 80.52000 196.40000 141.10000 80.52000 196.40000 142.90000 80.52000 193.60000 142.90000 80.52000 193.60000 141.10000 81.12000 196.40000 141.10000 81.12000 196.40000 142.90000 81.12000 193.60000 142.90000 81.12000 193.60000 155.10000 80.52000 196.40000 155.10000 80.52000 196.40000 156.90000 80.52000 193.60000 156.90000 80.52000 193.60000 155.10000 81.12000 196.40000 155.10000 81.12000 196.40000 156.90000 81.12000 193.60000 156.90000 81.12000 135.50000 130.00000 80.20000 135.38582 130.57403 80.20000 135.06066 131.06066 80.20000 134.57403 131.38582 80.20000 134.00000 131.50000 80.20000 133.42597 131.38582 80.20000 132.93934 131.06066 80.20000 132.61418 130.57403 80.20000 132.50000 130.00000 80.20000 132.61418 129.42597 80.20000 132.93934 128.93934 80.20000 133.42597 128.61418 80.20000 134.00000 128.50000 80.20000 134.57403 128.61418 80.20000 135.06066 128.93934 80.20000 135.38582 129.42597 80.20000 135.50000 130.00000 80.92000 135.38582 130.57403 80.92000 135.06066 131.06066 80.92000 134.57403 131.38582 80.92000 134.00000 131.50000 80.92000 133.42597 131.38582 80.92000 132.93934 131.06066 80.92000 132.61418 130.57403 80.92000 132.50000 130.00000 80.92000 132.61418 129.42597 80.92000 132.93934 128.93934 80.92000 133.42597 128.61418 80.92000 134.00000 128.50000 80.92000 134.57403 128.61418 80.92000 135.06066 128.93934 80.92000 135.38582 129.42597 80.92000 134.00000 130.00000 80.20000 134.00000 130.00000 80.92000 135.50000 170.00000 80.20000 135.38582 170.57403 80.20000 135.06066 171.06066 80.20000 134.57403 171.38582 80.20000 134.00000 171.50000 80.20000 133.42597 171.38582 80.20000 132.93934 171.06066 80.20000 132.61418 170.57403 80.20000 132.50000 170.00000 80.20000 132.61418 169.42597 80.20000 132.93934 168.93934 80.20000 133.42597 168.61418 80.20000 134.00000 168.50000 80.20000 134.57403 168.61418 80.20000 135.06066 168.93934 80.20000 135.38582 169.42597 80.20000 135.50000 170.00000 80.92000 135.38582 170.57403 80.92000 135.06066 171.06066 80.92000 134.57403 171.38582 80.92000 134.00000 171.50000 80.92000 133.42597 171.38582 80.92000 132.93934 171.06066 80.92000 132.61418 170.57403 80.92000 132.50000 170.00000 80.92000 132.61418 169.42597 80.92000 132.93934 168.93934 80.92000 133.42597 168.61418 80.92000 134.00000 168.50000 80.92000 134.57403 168.61418 80.92000 135.06066 168.93934 80.92000 135.38582 169.42597 80.92000 134.00000 170.00000 80.20000 134.00000 170.00000 80.92000 201.50000 130.00000 80.20000 201.38582 130.57403 80.20000 201.06066 131.06066 80.20000 200.57403 131.38582 80.20000 200.00000 131.50000 80.20000 199.42597 131.38582 80.20000 198.93934 131.06066 80.20000 198.61418 130.57403 80.20000 198.50000 130.00000 80.20000 198.61418 129.42597 80.20000 198.93934 128.93934 80.20000 199.42597 128.61418 80.20000 200.00000 128.50000 80.20000 200.57403 128.61418 80.20000 201.06066 128.93934 80.20000 201.38582 129.42597 80.20000 201.50000 130.00000 80.92000 201.38582 130.57403 80.92000 201.06066 131.06066 80.92000 200.57403 131.38582 80.92000 200.00000 131.50000 80.92000 199.42597 131.38582 80.92000 198.93934 131.06066 80.92000 198.61418 130.57403 80.92000 198.50000 130.00000 80.92000 198.61418 129.42597 80.92000 198.93934 128.93934 80.92000 199.42597 128.61418 80.92000 200.00000 128.50000 80.92000 200.57403 128.61418 80.92000 201.06066 128.93934 80.92000 201.38582 129.42597 80.92000 200.00000 130.00000 80.20000 200.00000 130.00000 80.92000 201.50000 170.00000 80.20000 201.38582 170.57403 80.20000 201.06066 171.06066 80.20000 200.57403 171.38582 80.20000 200.00000 171.50000 80.20000 199.42597 171.38582 80.20000 198.93934 171.06066 80.20000 198.61418 170.57403 80.20000 198.50000 170.00000 80.20000 198.61418 169.42597 80.20000 198.93934 168.93934 80.20000 199.42597 168.61418 80.20000 200.00000 168.50000 80.20000 200.57403 168.61418 80.20000 201.06066 168.93934 80.20000 201.38582 169.42597 80.20000 201.50000 170.00000 80.92000 201.38582 170.57403 80.92000 201.06066 171.06066 80.92000 200.57403 171.38582 80.92000 200.00000 171.50000 80.92000 199.42597 171.38582 80.92000 198.93934 171.06066 80.92000 198.61418 170.57403 80.92000 198.50000 170.00000 80.92000 198.61418 169.42597 80.92000 198.93934 168.93934 80.92000 199.42597 168.61418 80.92000 200.00000 168.50000 80.92000 200.57403 168.61418 80.92000 201.06066 168.93934 80.92000 201.38582 169.42597 80.92000 200.00000 170.00000 80.20000 200.00000 170.00000 80.92000 134.00900 128.00000 80.18500 134.00900 138.20000 80.18500 133.99100 138.20000 80.18500 133.99100 128.00000 80.18500 134.00900 159.80000 80.18500 134.00900 172.00000 80.18500 133.99100 172.00000 80.18500 133.99100 159.80000 80.18500 136.00900 128.00000 80.18500 136.00900 138.20000 80.18500 135.99100 138.20000 80.18500 135.99100 128.00000 80.18500 136.00900 159.80000 80.18500 136.00900 172.00000 80.18500 135.99100 172.00000 80.18500 135.99100 159.80000 80.18500 138.00900 128.00000 80.18500 138.00900 138.20000 80.18500 137.99100 138.20000 80.18500 137.99100 128.00000 80.18500 138.00900 159.80000 80.18500 138.00900 172.00000 80.18500 137.99100 172.00000 80.18500 137.99100 159.80000 80.18500 140.00900 128.00000 80.18500 140.00900 138.20000 80.18500 139.99100 138.20000 80.18500 139.99100 128.00000 80.18500 140.00900 159.80000 80.18500 140.00900 172.00000 80.18500 139.99100 172.00000 80.18500 139.99100 159.80000 80.18500 142.00900 128.00000 80.18500 142.00900 138.20000 80.18500 141.99100 138.20000 80.18500 141.99100 128.00000 80.18500 142.00900 159.80000 80.18500 142.00900 172.00000 80.18500 141.99100 172.00000 80.18500 141.99100 159.80000 80.18500 144.00900 128.00000 80.18500 144.00900 138.20000 80.18500 143.99100 138.20000 80.18500 143.99100 128.00000 80.18500 144.00900 159.80000 80.18500 144.00900 172.00000 80.18500 143.99100 172.00000 80.18500 143.99100 159.80000 80.18500 146.00900 128.00000 80.18500 146.00900 138.20000 80.18500 145.99100 138.20000 80.18500 145.99100 128.00000 80.18500 146.00900 159.80000 80.18500 146.00900 172.00000 80.18500 145.99100 172.00000 80.18500 145.99100 159.80000 80.18500 148.00900 128.00000 80.18500 148.00900 138.20000 80.18500 147.99100 138.20000 80.18500 147.99100 128.00000 80.18500 148.00900 159.80000 80.18500 148.00900 172.00000 80.18500 147.99100 172.00000 80.18500 147.99100 159.80000 80.18500 150.00900 128.00000 80.18500 150.00900 138.20000 80.18500 149.99100 138.20000 80.18500 149.99100 128.00000 80.18500 150.00900 159.80000 80.18500 150.00900 172.00000 80.18500 149.99100 172.00000 80.18500 149.99100 159.80000 80.18500 152.00900 128.00000 80.18500 152.00900 138.20000 80.18500 151.99100 138.20000 80.18500 151.99100 128.00000 80.18500 152.00900 159.80000 80.18500 152.00900 172.00000 80.18500 151.99100 172.00000 80.18500 151.99100 159.80000 80.18500 154.00900 128.00000 80.18500 154.00900 138.20000 80.18500 153.99100 138.20000 80.18500 153.99100 128.00000 80.18500 154.00900 159.80000 80.18500 154.00900 172.00000 80.18500 153.99100 172.00000 80.18500 153.99100 159.80000 80.18500 156.00900 128.00000 80.18500 156.00900 138.20000 80.18500 155.99100 138.20000 80.18500 155.99100 128.00000 80.18500 156.00900 159.80000 80.18500 156.00900 172.00000 80.18500 155.99100 172.00000 80.18500 155.99100 159.80000 80.18500 158.00900 128.00000 80.18500 158.00900 138.20000 80.18500 157.99100 138.20000 80.18500 157.99100 128.00000 80.18500 158.00900 159.80000 80.18500 158.00900 172.00000 80.18500 157.99100 172.00000 80.18500 157.99100 159.80000 80.18500 160.00900 128.00000 80.18500 160.00900 138.20000 80.18500 159.99100 138.20000 80.18500 159.99100 128.00000 80.18500 160.00900 159.80000 80.18500 160.00900 172.00000 80.18500 159.99100 172.00000 80.18500 159.99100 159.80000 80.18500 162.00900 128.00000 80.18500 162.00900 138.20000 80.18500 161.99100 138.20000 80.18500 161.99100 128.00000 80.18500 162.00900 159.80000 80.18500 162.00900 172.00000 80.18500 161.99100 172.00000 80.18500 161.99100 159.80000 80.18500 164.00900 128.00000 80.18500 164.00900 138.20000 80.18500 163.99100 138.20000 80.18500 163.99100 128.00000 80.18500 164.00900 159.80000 80.18500 164.00900 172.00000 80.18500 163.99100 172.00000 80.18500 163.99100 159.80000 80.18500 166.00900 128.00000 80.18500 166.00900 138.20000 80.18500 165.99100 138.20000 80.18500 165.99100 128.00000 80.18500 166.00900 159.80000 80.18500 166.00900 172.00000 80.18500 165.99100 172.00000 80.18500 165.99100 159.80000 80.18500 168.00900 128.00000 80.18500 168.00900 138.20000 80.18500 167.99100 138.20000 80.18500 167.99100 128.00000 80.18500 168.00900 159.80000 80.18500 168.00900 172.00000 80.18500 167.99100 172.00000 80.18500 167.99100 159.80000 80.18500 170.00900 128.00000 80.18500 170.00900 138.20000 80.18500 169.99100 138.20000 80.18500 169.99100 128.00000 80.18500 170.00900 159.80000 80.18500 170.00900 172.00000 80.18500 169.99100 172.00000 80.18500 169.99100 159.80000 80.18500 172.00900 128.00000 80.18500 172.00900 138.20000 80.18500 171.99100 138.20000 80.18500 171.99100 128.00000 80.18500 172.00900 159.80000 80.18500 172.00900 172.00000 80.18500 171.99100 172.00000 80.18500 171.99100 159.80000 80.18500 174.00900 128.00000 80.18500 174.00900 138.20000 80.18500 173.99100 138.20000 80.18500 173.99100 128.00000 80.18500 174.00900 159.80000 80.18500 174.00900 172.00000 80.18500 173.99100 172.00000 80.18500 173.99100 159.80000 80.18500 176.00900 128.00000 80.18500 176.00900 138.20000 80.18500 175.99100 138.20000 80.18500 175.99100 128.00000 80.18500 176.00900 159.80000 80.18500 176.00900 172.00000 80.18500 175.99100 172.00000 80.18500 175.99100 159.80000 80.18500 178.00900 128.00000 80.18500 178.00900 138.20000 80.18500 177.99100 138.20000 80.18500 177.99100 128.00000 80.18500 178.00900 159.80000 80.18500 178.00900 172.00000 80.18500 177.99100 172.00000 80.18500 177.99100 159.80000 80.18500 180.00900 128.00000 80.18500 180.00900 138.20000 80.18500 179.99100 138.20000 80.18500 179.99100 128.00000 80.18500 180.00900 159.80000 80.18500 180.00900 172.00000 80.18500 179.99100 172.00000 80.18500 179.99100 159.80000 80.18500 182.00900 128.00000 80.18500 182.00900 138.20000 80.18500 181.99100 138.20000 80.18500 181.99100 128.00000 80.18500 182.00900 159.80000 80.18500 182.00900 172.00000 80.18500 181.99100 172.00000 80.18500 181.99100 159.80000 80.18500 184.00900 128.00000 80.18500 184.00900 138.20000 80.18500 183.99100 138.20000 80.18500 183.99100 128.00000 80.18500 184.00900 159.80000 80.18500 184.00900 172.00000 80.18500 183.99100 172.00000 80.18500 183.99100 159.80000 80.18500 186.00900 128.00000 80.18500 186.00900 138.20000 80.18500 185.99100 138.20000 80.18500 185.99100 128.00000 80.18500 186.00900 159.80000 80.18500 186.00900 172.00000 80.18500 185.99100 172.00000 80.18500 185.99100 159.80000 80.18500 188.00900 128.00000 80.18500 188.00900 138.20000 80.18500 187.99100 138.20000 80.18500 187.99100 128.00000 80.18500 188.00900 159.80000 80.18500 188.00900 172.00000 80.18500 187.99100 172.00000 80.18500 187.99100 159.80000 80.18500 190.00900 128.00000 80.18500 190.00900 138.20000 80.18500 189.99100 138.20000 80.18500 189.99100 128.00000 80.18500 190.00900 159.80000 80.18500 190.00900 172.00000 80.18500 189.99100 172.00000 80.18500 189.99100 159.80000 80.18500 192.00900 128.00000 80.18500 192.00900 138.20000 80.18500 191.99100 138.20000 80.18500 191.99100 128.00000 80.18500 192.00900 159.80000 80.18500 192.00900 172.00000 80.18500 191.99100 172.00000 80.18500 191.99100 159.80000 80.18500 194.00900 128.00000 80.18500 194.00900 138.20000 80.18500 193.99100 138.20000 80.18500 193.99100 128.00000 80.18500 194.00900 159.80000 80.18500 194.00900 172.00000 80.18500 193.99100 172.00000 80.18500 193.99100 159.80000 80.18500 196.00900 128.00000 80.18500 196.00900 138.20000 80.18500 195.99100 138.20000 80.18500 195.99100 128.00000 80.18500 196.00900 159.80000 80.18500 196.00900 172.00000 80.18500 195.99100 172.00000 80.18500 195.99100 159.80000 80.18500 198.00900 128.00000 80.18500 198.00900 138.20000 80.18500 197.99100 138.20000 80.18500 197.99100 128.00000 80.18500 198.00900 159.80000 80.18500 198.00900 172.00000 80.18500 197.99100 172.00000 80.18500 197.99100 159.80000 80.18500 200.00900 128.00000 80.18500 200.00900 138.20000 80.18500 199.99100 138.20000 80.18500 199.99100 128.00000 80.18500 200.00900 159.80000 80.18500 200.00900 172.00000 80.18500 199.99100 172.00000 80.18500 199.99100 159.80000 80.18500</float_array><technique_common><accessor source="#positions-array" count="496" stride="3"><param name="X" type="float"/><param name="Y" type="float"/><param name="Z" type="float"/></accessor></technique_common></source>
<source id="normals"><float_array id="normals-array" count="1572">0.00000 0.00000 -1.00000 0.00000 0.00000 -1.00000 0.00000 0.00000 1.00000 0.00000 0.00000 1.00000 0.00000 -1.00000 0.00000 0.00000 -1.00000 0.00000 1.00000 0.00000 0.00000 1.00000 0.00000 0.00000 0.00000 1.00000 0.00000 0.00000 1.00000 -0.00000 -1.00000 0.00000 0.00000 -1.00000 0.00000 0.00000 0.00000 0.00000 -1.00000 0.00000 0.00000 -1.00000 0.00000 0.00000 1.00000 0.00000 0.00000 1.00000 0.00000 -1.00000 0.00000 0.00000 -1.00000 0.00000 1.00000 0.00000 0.00000 1.00000 0.00000 0.00000 0.00000 1.00000 0.00000 0.00000 1.00000 -0.00000 -1.00000 0.00000 0.00000 -1.00000 0.00000 0.00000 0.00000 0.00000 -1.00000 0.00000 0.00000 -1.00000 0.00000 0.00000 1.00000 0.00000 0.00000 1.00000 0.00000 -1.00000 0.00000 0.00000 -1.00000 0.00000 1.00000 0.00000 0.00000 1.00000 0.00000 0.00000 0.00000 1.00000 0.00000 0.00000 1.00000 -0.00000 -1.00000 0.00000 0.00000 -1.00000 0.00000 0.00000 0.00000 0.00000 -1.00000 0.00000 0.00000 -1.00000 0.00000 0.00000 1.00000 0.00000 0.00000 1.00000 0.00000 -1.00000 0.00000 0.00000 -1.00000 0.00000 1.00000 0.00000 0.00000 1.00000 0.00000 0.00000 0.00000 1.00000 0.00000 0.00000 1.00000 -0.00000 -1.00000 0.00000 0.00000 -1.00000 0.00000 0.00000 0.00000 0.00000 -1.00000 0.00000 0.00000 -1.00000 0.00000 0.00000 1.00000 0.00000 0.00000 1.00000 0.00000 -1.00000 0.00000 0.00000 -1.00000 0.00000 1.00000 0.00000 0.00000 1.00000 0.00000 0.00000 0.00000 1.00000 0.00000 0.00000 1.00000 -0.00000 -1.00000 0.00000 0.00000 -1.00000 0.00000 0.00000 0.00000 0.00000 -1.00000 0.00000 0.00000 -1.00000 0.00000 0.00000 1.00000 0.00000 0.00000 1.00000 0.00000 -1.00000 0.00000 0.00000 -1.00000 0.00000 1.00000 0.00000 0.00000 1.00000 0.00000 0.00000 0.00000 1.00000 0.00000 0.00000 1.00000 -0.00000 -1.00000 0.00000 0.00000 -1.00000 0.00000 0.00000 0.00000 0.00000 -1.00000 0.00000 0.00000 -1.00000 0.00000 0.00000 1.00000 0.00000 0.00000 1.00000 0.00000 -1.00000 0.00000 0.00000 -1.00000 0.00000 1.00000 0.00000 0.00000 1.00000 0.00000 0.00000 0.00000 1.00000 0.00000 0.00000 1.00000 -0.00000 -1.00000 0.00000 0.00000 -1.00000 0.00000 0.00000 0.00000 0.00000 -1.00000 0.00000 0.00000 -1.00000 0.00000 0.00000 1.00000 0.00000 0.00000 1.00000 0.00000 -1.00000 0.00000 0.00000 -1.00000 0.00000 1.00000 0.00000 0.00000 1.00000 0.00000 0.00000 0.00000 1.00000 0.00000 0.00000 1.00000 -0.00000 -1.00000 0.00000 0.00000 -1.00000 0.00000 0.00000 0.00000 0.00000 -1.00000 0.00000 0.00000 -1.00000 0.00000 0.00000 1.00000 0.00000 0.00000 1.00000 0.00000 -1.00000 0.00000 0.00000 -1.00000 0.00000 1.00000 0.00000 0.00000 1.00000 0.00000 0.00000 0.00000 1.00000 0.00000 0.00000 1.00000 -0.00000 -1.00000 0.00000 0.00000 -1.00000 0.00000 0.00000 0.00000 0.00000 -1.00000 0.00000 0.00000 -1.00000 0.00000 0.00000 1.00000 0.00000 0.00000 1.00000 0.00000 -1.00000 0.00000 0.00000 -1.00000 0.00000 1.00000 0.00000 0.00000 1.00000 0.00000 0.00000 0.00000 1.00000 0.00000 0.00000 1.00000 -0.00000 -1.00000 0.00000 0.00000 -1.00000 0.00000 0.00000 0.00000 0.00000 -1.00000 0.00000 0.00000 -1.00000 0.00000 0.00000 1.00000 0.00000 0.00000 1.00000 0.00000 -1.00000 0.00000 0.00000 -1.00000 0.00000 1.00000 0.00000 0.00000 1.00000 0.00000 0.00000 0.00000 1.00000 0.00000 0.00000 1.00000 -0.00000 -1.00000 0.00000 0.00000 -1.00000 0.00000 0.00000 0.98079 0.19509 0.00000 0.98079 0.19509 -0.00000 0.00000 0.00000 -1.00000 0.00000 0.00000 1.00000 0.83147 0.55557 0.00000 0.83147 0.55557 -0.00000 0.00000 0.00000 -1.00000 0.00000 0.00000 1.00000 0.55557 0.83147 0.00000 0.55557 0.83147 -0.00000 0.00000 0.00000 -1.00000 0.00000 0.00000 1.00000 0.19509 0.98079 0.00000 0.19509 0.98079 -0.00000 0.00000 0.00000 -1.00000 0.00000 0.00000 1.00000 -0.19509 0.98079 0.00000 -0.19509 0.98079 0.00000 0.00000 0.00000 -1.00000 0.00000 -0.00000 1.00000 -0.55557 0.83147 0.00000 -0.55557 0.83147 0.00000 0.00000 0.00000 -1.00000 0.00000 0.00000 1.00000 -0.83147 0.55557 0.00000 -0.83147 0.55557 0.00000 0.00000 0.00000 -1.00000 0.00000 0.00000 1.00000 -0.98079 0.19509 0.00000 -0.98079 0.19509 0.00000 0.00000 0.00000 -1.00000 0.00000 0.00000 1.00000 -0.98079 -0.19509 0.00000 -0.98079 -0.19509 0.00000 -0.00000 0.00000 -1.00000 0.00000 0.00000 1.00000 -0.83147 -0.55557 0.00000 -0.83147 -0.55557 0.00000 0.00000 0.00000 -1.00000 0.00000 0.00000 1.00000 -0.55557 -0.83147 0.00000 -0.55557 -0.83147 0.00000 0.00000 0.00000 -1.00000 0.00000 0.00000 1.00000 -0.19509 -0.98079 0.00000 -0.19509 -0.98079 0.00000 0.00000 -0.00000 -1.00000 0.00000 0.00000 1.00000 0.19509 -0.98079 0.00000 0.19509 -0.98079 0.00000 0.00000 0.00000 -1.00000 0.00000 0.00000 1.00000 0.55557 -0.83147 0.00000 0.55557 -0.83147 0.00000 0.00000 0.00000 -1.00000 0.00000 0.00000 1.00000 0.83147 -0.55557 0.00000 0.83147 -0.55557 0.00000 0.00000 0.00000 -1.00000 0.00000 0.00000 1.00000 0.98079 -0.19509 0.00000 0.98079 -0.19509 0.00000 0.00000 0.00000 -1.00000 -0.00000 0.00000 1.00000 0.98079 0.19509 0.00000 0.98079 0.19509 -0.00000 0.00000 0.00000 -1.00000 0.00000 0.00000 1.00000 0.83147 0.55557 0.00000 0.83147 0.55557 -0.00000 0.00000 0.00000 -1.00000 0.00000 0.00000 1.00000 0.55557 0.83147 0.00000 0.55557 0.83147 -0.00000 0.00000 0.00000 -1.00000 0.00000 0.00000 1.00000 0.19509 0.98079 0.00000 0.19509 0.98079 -0.00000 0.00000 0.00000 -1.00000 0.00000 0.00000 1.00000 -0.19509 0.98079 0.00000 -0.19509 0.98079 0.00000 0.00000 0.00000 -1.00000 0.00000 -0.00000 1.00000 -0.55557 0.83147 0.00000 -0.55557 0.83147 0.00000 0.00000 0.00000 -1.00000 0.00000 0.00000 1.00000 -0.83147 0.55557 0.00000 -0.83147 0.55557 0.00000 0.00000 0.00000 -1.00000 0.00000 0.00000 1.00000 -0.98079 0.19509 0.00000 -0.98079 0.19509 0.00000 0.00000 0.00000 -1.00000 0.00000 0.00000 1.00000 -0.98079 -0.19509 0.00000 -0.98079 -0.19509 0.00000 -0.00000 0.00000 -1.00000 0.00000 0.00000 1.00000 -0.83147 -0.55557 0.00000 -0.83147 -0.55557 0.00000 0.00000 0.00000 -1.00000 0.00000 0.00000 1.00000 -0.55557 -0.83147 0.00000 -0.55557 -0.83147 0.00000 0.00000 0.00000 -1.00000 0.00000 0.00000 1.00000 -0.19509 -0.98079 0.00000 -0.19509 -0.98079 0.00000 0.00000 -0.00000 -1.00000 0.00000 0.00000 1.00000 0.19509 -0.98079 0.00000 0.19509 -0.98079 0.00000 0.00000 0.00000 -1.00000 0.00000 0.00000 1.00000 0.55557 -0.83147 0.00000 0.55557 -0.83147 0.00000 0.00000 0.00000 -1.00000 0.00000 0.00000 1.00000 0.83147 -0.55557 0.00000 0.83147 -0.55557 0.00000 0.00000 0.00000 -1.00000 0.00000 0.00000 1.00000 0.98079 -0.19509 0.00000 0.98079 -0.19509 0.00000 0.00000 0.00000 -1.00000 -0.00000 0.00000 1.00000 0.98079 0.19509 0.00000 0.98079 0.19509 -0.00000 0.00000 0.00000 -1.00000 0.00000 0.00000 1.00000 0.83147 0.55557 0.00000 0.83147 0.55557 -0.00000 0.00000 0.00000 -1.00000 0.00000 0.00000 1.00000 0.55557 0.83147 0.00000 0.55557 0.83147 -0.00000 0.00000 0.00000 -1.00000 0.00000 0.00000 1.00000 0.19509 0.98079 0.00000 0.19509 0.98079 -0.00000 0.00000 0.00000 -1.00000 0.00000 0.00000 1.00000 -0.19509 0.98079 0.00000 -0.19509 0.98079 0.00000 0.00000 0.00000 -1.00000 0.00000 -0.00000 1.00000 -0.55557 0.83147 0.00000 -0.55557 0.83147 0.00000 0.00000 0.00000 -1.00000 0.00000 0.00000 1.00000 -0.83147 0.55557 0.00000 -0.83147 0.55557 0.00000 0.00000 0.00000 -1.00000 0.00000 0.00000 1.00000 -0.98079 0.19509 0.00000 -0.98079 0.19509 0.00000 0.00000 0.00000 -1.00000 0.00000 0.00000 1.00000 -0.98079 -0.19509 0.00000 -0.98079 -0.19509 0.00000 -0.00000 0.00000 -1.00000 0.00000 0.00000 1.00000 -0.83147 -0.55557 0.00000 -0.83147 -0.55557 0.00000 0.00000 0.00000 -1.00000 0.00000 0.00000 1.00000 -0.55557 -0.83147 0.00000 -0.55557 -0.83147 0.00000 0.00000 0.00000 -1.00000 0.00000 0.00000 1.00000 -0.19509 -0.98079 0.00000 -0.19509 -0.98079 0.00000 0.00000 -0.00000 -1.00000 0.00000 0.00000 1.00000 0.19509 -0.98079 0.00000 0.19509 -0.98079 0.00000 0.00000 0.00000 -1.00000 0.00000 0.00000 1.00000 0.55557 -0.83147 0.00000 0.55557 -0.83147 0.00000 0.00000 0.00000 -1.00000 0.00000 0.00000 1.00000 0.83147 -0.55557 0.00000 0.83147 -0.55557 0.00000 0.00000 0.00000 -1.00000 0.00000 0.00000 1.00000 0.98079 -0.19509 0.00000 0.98079 -0.19509 0.00000 0.00000 0.00000 -1.00000 -0.00000 0.00000 1.00000 0.98079 0.19509 0.00000 0.98079 0.19509 -0.00000 0.00000 0.00000 -1.00000 0.00000 0.00000 1.00000 0.83147 0.55557 0.00000 0.83147 0.55557 -0.00000 0.00000 0.00000 -1.00000 0.00000 0.00000 1.00000 0.55557 0.83147 0.00000 0.55557 0.83147 -0.00000 0.00000 0.00000 -1.00000 0.00000 0.00000 1.00000 0.19509 0.98079 0.00000 0.19509 0.98079 -0.00000 0.00000 0.00000 -1.00000 0.00000 0.00000 1.00000 -0.19509 0.98079 0.00000 -0.19509 0.98079 0.00000 0.00000 0.00000 -1.00000 0.00000 -0.00000 1.00000 -0.55557 0.83147 0.00000 -0.55557 0.83147 0.00000 0.00000 0.00000 -1.00000 0.00000 0.00000 1.00000 -0.83147 0.55557 0.00000 -0.83147 0.55557 0.00000 0.00000 0.00000 -1.00000 0.00000 0.00000 1.00000 -0.98079 0.19509 0.00000 -0.98079 0.19509 0.00000 0.00000 0.00000 -1.00000 0.00000 0.00000 1.00000 -0.98079 -0.19509 0.00000 -0.98079 -0.19509 0.00000 -0.00000 0.00000 -1.00000 0.00000 0.00000 1.00000 -0.83147 -0.55557 0.00000 -0.83147 -0.55557 0.00000 0.00000 0.00000 -1.00000 0.00000 0.00000 1.00000 -0.55557 -0.83147 0.00000 -0.55557 -0.83147 0.00000 0.00000 0.00000 -1.00000 0.00000 0.00000 1.00000 -0.19509 -0.98079 0.00000 -0.19509 -0.98079 0.00000 0.00000 -0.00000 -1.00000 0.00000 0.00000 1.00000 0.19509 -0.98079 0.00000 0.19509 -0.98079 0.00000 0.00000 0.00000 -1.00000 0.00000 0.00000 1.00000 0.55557 -0.83147 0.00000 0.55557 -0.83147 0.00000 0.00000 0.00000 -1.00000 0.00000 0.00000 1.00000 0.83147 -0.55557 0.00000 0.83147 -0.55557 0.00000 0.00000 0.00000 -1.00000 0.00000 0.00000 1.00000 0.98079 -0.19509 0.00000 0.98079 -0.19509 0.00000 0.00000 0.00000 -1.00000 -0.00000 0.00000 1.00000 0.00000 -0.00000 1.00000 0.00000 0.00000 1.00000 0.00000 -0.00000 1.00000 0.00000 0.00000 1.00000 0.00000 -0.00000 1.00000 0.00000 0.00000 1.00000 0.00000 -0.00000 1.00000 0.00000 0.00000 1.00000 0.00000 -0.00000 1.00000 0.00000 0.00000 1.00000 0.00000 -0.00000 1.00000 0.00000 0.00000 1.00000 0.00000 -0.00000 1.00000 0.00000 0.00000 1.00000 0.00000 -0.00000 1.00000 0.00000 0.00000 1.00000 0.00000 -0.00000 1.00000 0.00000 0.00000 1.00000 0.00000 -0.00000 1.00000 0.00000 0.00000 1.00000 0.00000 -0.00000 1.00000 0.00000 0.00000 1.00000 0.00000 -0.00000 1.00000 0.00000 0.00000 1.00000 0.00000 -0.00000 1.00000 0.00000 0.00000 1.00000 0.00000 -0.00000 1.00000 0.00000 0.00000 1.00000 0.00000 -0.00000 1.00000 0.00000 0.00000 1.00000 0.00000 -0.00000 1.00000 0.00000 0.00000 1.00000 0.00000 -0.00000 1.00000 0.00000 0.00000 1.00000 0.00000 -0.00000 1.00000 0.00000 0.00000 1.00000 0.00000 -0.00000 1.00000 0.00000 0.00000 1.00000 0.00000 -0.00000 1.00000 0.00000 0.00000 1.00000 0.00000 -0.00000 1.00000 0.00000 0.00000 1.00000 0.00000 -0.00000 1.00000 0.00000 0.00000 1.00000 0.00000 -0.00000 1.00000 0.00000 0.00000 1.00000 0.00000 -0.00000 1.00000 0.00000 0.00000 1.00000 0.00000 -0.00000 1.00000 0.00000 0.00000 1.00000 0.00000 -0.00000 1.00000 0.00000 0.00000 1.00000 0.00000 -0.00000 1.00000 0.00000 0.00000 1.00000 0.00000 -0.00000 1.00000 0.00000 0.00000 1.00000 0.00000 -0.00000 1.00000 0.00000 0.00000 1.00000 0.00000 -0.00000 1.00000 0.00000 0.00000 1.00000 0.00000 -0.00000 1.00000 0.00000 0.00000 1.00000 0.00000 -0.00000 1.00000 0.00000 0.00000 1.00000 0.00000 -0.00000 1.00000 0.00000 0.00000 1.00000 0.00000 -0.00000 1.00000 0.00000 0.00000 1.00000 0.00000 -0.00000 1.00000 0.00000 0.00000 1.00000 0.00000 -0.00000 1.00000 0.00000 0.00000 1.00000 0.00000 -0.00000 1.00000 0.00000 0.00000 1.00000 0.00000 -0.00000 1.00000 0.00000 0.00000 1.00000 0.00000 -0.00000 1.00000 0.00000 0.00000 1.00000 0.00000 -0.00000 1.00000 0.00000 0.00000 1.00000 0.00000 -0.00000 1.00000 0.00000 0.00000 1.00000 0.00000 -0.00000 1.00000 0.00000 0.00000 1.00000 0.00000 -0.00000 1.00000 0.00000 0.00000 1.00000 0.00000 -0.00000 1.00000 0.00000 0.00000 1.00000 0.00000 -0.00000 1.00000 0.00000 0.00000 1.00000 0.00000 -0.00000 1.00000 0.00000 0.00000 1.00000 0.00000 -0.00000 1.00000 0.00000 0.00000 1.00000 0.00000 -0.00000 1.00000 0.00000 0.00000 1.00000 0.00000 -0.00000 1.00000 0.00000 0.00000 1.00000 0.00000 -0.00000 1.00000 0.00000 0.00000 1.00000 0.00000 -0.00000 1.00000 0.00000 0.00000 1.00000 0.00000 -0.00000 1.00000 0.00000 0.00000 1.00000 0.00000 -0.00000 1.00000 0.00000 0.00000 1.00000 0.00000 -0.00000 1.00000 0.00000 0.00000 1.00000 0.00000 -0.00000 1.00000 0.00000 0.00000 1.00000 0.00000 -0.00000 1.00000 0.00000 0.00000 1.00000 0.00000 -0.00000 1.00000 0.00000 0.00000 1.00000 0.00000 -0.00000 1.00000 0.00000 0.00000 1.00000 0.00000 -0.00000 1.00000 0.00000 0.00000 1.00000 0.00000 -0.00000 1.00000 0.00000 0.00000 1.00000 0.00000 -0.00000 1.00000 0.00000 0.00000 1.00000 0.00000 -0.00000 1.00000 0.00000 0.00000 1.00000 0.00000 -0.00000 1.00000 0.00000 0.00000 1.00000 0.00000 -0.00000 1.00000 0.00000 0.00000 1.00000 0.00000 -0.00000 1.00000 0.00000 0.00000 1.00000 0.00000 -0.00000 1.00000 0.00000 0.00000 1.00000 0.00000 -0.00000 1.00000 0.00000 0.00000 1.00000 0.00000 -0.00000 1.00000 0.00000 0.00000 1.00000</float_array><technique_common><accessor source="#normals-array" count="524" stride="3"><param name="X" type="float"/><param name="Y" type="float"/><param name="Z" type="float"/></accessor></technique_common></source>
<vertices id="vertices"><input semantic="POSITION" source="#positions"/></vertices><triangles count="524"><input semantic="VERTEX" source="#vertices" offset="0"/><input semantic="NORMAL" source="#normals" offset="1"/><p>0 0 2 0 1 0 0 1 3 1 2 1 4 2 5 2 6 2 4 3 6 3 7 3 0 4 1 4 5 4 0 5 5 5 4 5 1 6 2 6 6 6 1 7 6 7 5 7 2 8 3 8 7 8 2 9 7 9 6 9 3 10 0 10 4 10 3 11 4 11 7 11 8 12 10 12 9 12 8 13 11 13 10 13 12 14 13 14 14 14 12 15 14 15 15 15 8 16 9 16 13 16 8 17 13 17 12 17 9 18 10 18 14 18 9 19 14 19 13 19 10 20 11 20 15 20 10 21 15 21 14 21 11 22 8 22 12 22 11 23 12 23 15 23 16 24 18 24 17 24 16 25 19 25 18 25 20 26 21 26 22 26 20 27 22 27 23 27 16 28 17 28 21 28 16 29 21 29 20 29 17 30 18 30 22 30 17 31 22 31 21 31 18 32 19 32 23 32 18 33 23 33 22 33 19 34 16 34 20 34 19 35 20 35 23 35 24 36 26 36 25 36 24 37 27 37 26 37 28 38 29 38 30 38 28 39 30 39 31 39 24 40 25 40 29 40 24 41 29 41 28 41 25 42 26 42 30 42 25 43 30 43 29 43 26 44 27 44 31 44 26 45 31 45 30 45 27 46 24 46 28 46 27 47 28 47 31 47 32 48 34 48 33 48 32 49 35 49 34 49 36 50 37 50 38 50 36 51 38 51 39 51 32 52 33 52 37 52 32 53 37 53 36 53 33 54 34 54 38 54 33 55 38 55 37 55 34 56 35 56 39 56 34 57 39 57 38 57 35 58 32 58 36 58 35 59 36 59 39 59 40 60 42 60 41 60 40 61 43 61 42 61 44 62 45 62 46 62 44 63 46 63 47 63 40 64 41 64 45 64 40 65 45 65 44 65 41 66 42 66 46 66 41 67 46 67 45 67 42 68 43 68 47 68 42 69 47 69 46 69 43 70 40 70 44 70 43 71 44 71 47 71 48 72 50 72 49 72 48 73 51 73 50 73 52 74 53 74 54 74 52 75 54 75 55 75 48 76 49 76 53 76 48 77 53 77 52 77 49 78 50 78 54 78 49 79 54 79 53 79 50 80 51 80 55 80 50 81 55 81 54 81 51 82 48 82 52 82 51 83 52 83 55 83 56 84 58 84 57 84 56 85 59 85 58 85 60 86 61 86 62 86 60 87 62 87 63 87 56 88 57 88 61 88 56 89 61 89 60 89 57 90 58 90 62 90 57 91 62 91 61 91 58 92 59 92 63 92 58 93 63 93 62 93 59 94 56 94 60 94 59 95 60 95 63 95 64 96 66 96 65 96 64 97 67 97 66 97 68 98 69 98 70 98 68 99 70 99 71 99 64 100 65 100 69 100 64 101 69 101 68 101 65 102 66 102 70 102 65 103 70 103 69 103 66 104 67 104 71 104 66 105 71 105 70 105 67 106 64 106 68 106 67 107 68 107 71 107 72 108 74 108 73 108 72 109 75 109 74 109 76 110 77 110 78 110 76 111 78 111 79 111 72 112 73 112 77 112 72 113 77 113 76 113 73 114 74 114 78 114 73 115 78 115 77 115 74 116 75 116 79 116 74 117 79 117 78 117 75 118 72 118 76 118 75 119 76 119 79 119 80 120 82 120 81 120 80 121 83 121 82 121 84 122 85 122 86 122 84 123 86 123 87 123 80 124 81 124 85 124 80 125 85 125 84 125 81 126 82 126 86 126 81 127 86 127 85 127 82 128 83 128 87 128 82 129 87 129 86 129 83 130 80 130 84 130 83 131 84 131 87 131 88 132 89 132 105 132 88 133 105 133 104 133 120 134 89 134 88 134 121 135 104 135 105 135 89 136 90 136 106 136 89 137 106 137 105 137 120 138 90 138 89 138 121 139 105 139 106 139 90 140 91 140 107 140 90 141 107 141 106 141 120 142 91 142 90 142 121 143 106 143 107 143 91 144 92 144 108 144 91 145 108 145 107 145 120 146 92 146 91 146 121 147 107 147 108 147 92 148 93 148 109 148 92 149 109 149 108 149 120 150 93 150 92 150 121 151 108 151 109 151 93 152 94 152 110 152 93 153 110 153 109 153 120 154 94 154 93 154 121 155 109 155 110 155 94 156 95 156 111 156 94 157 111 157 110 157 120 158 95 158 94 158 121 159 110 159 111 159 95 160 96 160 112 160 95 161 112 161 111 161 120 162 96 162 95 162 121 163 111 163 112 163 96 164 97 164 113 164 96 165 113 165 112 165 120 166 97 166 96 166 121 167 112 167 113 167 97 168 98 168 114 168 97 169 114 169 113 169 120 170 98 170 97 170 121 171 113 171 114 171 98 172 99 172 115 172 98 173 115 173 114 173 120 174 99 174 98 174 121 175 114 175 115 175 99 176 100 176 116 176 99 177 116 177 115 177 120 178 100 178 99 178 121 179 115 179 116 179 100 180 101 180 117 180 100 181 117 181 116 181 120 182 101 182 100 182 121 183 116 183 117 183 101 184 102 184 118 184 101 185 118 185 117 185 120 186 102 186 101 186 121 187 117 187 118 187 102 188 103 188 119 188 102 189 119 189 118 189 120 190 103 190 102 190 121 191 118 191 119 191 103 192 88 192 104 192 103 193 104 193 119 193 120 194 88 194 103 194 121 195 119 195 104 195 122 196 123 196 139 196 122 197 139 197 138 197 154 198 123 198 122 198 155 199 138 199 139 199 123 200 124 200 140 200 123 201 140 201 139 201 154 202 124 202 123 202 155 203 139 203 140 203 124 204 125 204 141 204 124 205 141 205 140 205 154 206 125 206 124 206 155 207 140 207 141 207 125 208 126 208 142 208 125 209 142 209 141 209 154 210 126 210 125 210 155 211 141 211 142 211 126 212 127 212 143 212 126 213 143 213 142 213 154 214 127 214 126 214 155 215 142 215 143 215 127 216 128 216 144 216 127 217 144 217 143 217 154 218 128 218 127 218 155 219 143 219 144 219 128 220 129 220 145 220 128 221 145 221 144 221 154 222 129 222 128 222 155 223 144 223 145 223 129 224 130 224 146 224 129 225 146 225 145 225 154 226 130 226 129 226 155 227 145 227 146 227 130 228 131 228 147 228 130 229 147 229 146 229 154 230 131 230 130 230 155 231 146 231 147 231 131 232 132 232 148 232 131 233 148 233 147 233 154 234 132 234 131 234 155 235 147 235 148 235 132 236 133 236 149 236 132 237 149 237 148 237 154 238 133 238 132 238 155 239 148 239 149 239 133 240 134 240 150 240 133 241 150 241 149 241 154 242 134 242 133 242 155 243 149 243 150 243 134 244 135 244 151 244 134 245 151 245 150 245 154 246 135 246 134 246 155 247 150 247 151 247 135 248 136 248 152 248 135 249 152 249 151 249 154 250 136 250 135 250 155 251 151 251 152 251 136 252 137 252 153 252 136 253 153 253 152 253 154 254 137 254 136 254 155 255 152 255 153 255 137 256 122 256 138 256 137 257 138 257 153 257 154 258 122 258 137 258 155 259 153 259 138 259 156 260 157 260 173 260 156 261 173 261 172 261 188 262 157 262 156 262 189 263 172 263 173 263 157 264 158 264 174 264 157 265 174 265 173 265 188 266 158 266 157 266 189 267 173 267 174 267 158 268 159 268 175 268 158 269 175 269 174 269 188 270 159 270 158 270 189 271 174 271 175 271 159 272 160 272 176 272 159 273 176 273 175 273 188 274 160 274 159 274 189 275 175 275 176 275 160 276 161 276 177 276 160 277 177 277 176 277 188 278 161 278 160 278 189 279 176 279 177 279 161 280 162 280 178 280 161 281 178 281 177 281 188 282 162 282 161 282 189 283 177 283 178 283 162 284 163 284 179 284 162 285 179 285 178 285 188 286 163 286 162 286 189 287 178 287 179 287 163 288 164 288 180 288 163 289 180 289 179 289 188 290 164 290 163 290 189 291 179 291 180 291 164 292 165 292 181 292 164 293 181 293 180 293 188 294 165 294 164 294 189 295 180 295 181 295 165 296 166 296 182 296 165 297 182 297 181 297 188 298 166 298 165 298 189 299 181 299 182 299 166 300 167 300 183 300 166 301 183 301 182 301 188 302 167 302 166 302 189 303 182 303 183 303 167 304 168 304 184 304 167 305 184 305 183 305 188 306 168 306 167 306 189 307 183 307 184 307 168 308 169 308 185 308 168 309 185 309 184 309 188 310 169 310 168 310 189 311 184 311 185 311 169 312 170 312 186 312 169 313 186 313 185 313 188 314 170 314 169 314 189 315 185 315 186 315 170 316 171 316 187 316 170 317 187 317 186 317 188 318 171 318 170 318 189 319 186 319 187 319 171 320 156 320 172 320 171 321 172 321 187 321 188 322 156 322 171 322 189 323 187 323 172 323 190 324 191 324 207 324 190 325 207 325 206 325 222 326 191 326 190 326 223 327 206 327 207 327 191 328 192 328 208 328 191 329 208 329 207 329 222 330 192 330 191 330 223 331 207 331 208 331 192 332 193 332 209 332 192 333 209 333 208 333 222 334 193 334 192 334 223 335 208 335 209 335 193 336 194 336 210 336 193 337 210 337 209 337 222 338 194 338 193 338 223 339 209 339 210 339 194 340 195 340 211 340 194 341 211 341 210 341 222 342 195 342 194 342 223 343 210 343 211 343 195 344 196 344 212 344 195 345 212 345 211 345 222 346 196 346 195 346 223 347 211 347 212 347 196 348 197 348 213 348 196 349 213 349 212 349 222 350 197 350 196 350 223 351 212 351 213 351 197 352 198 352 214 352 197 353 214 353 213 353 222 354 198 354 197 354 223 355 213 355 214 355 198 356 199 356 215 356 198 357 215 357 214 357 222 358 199 358 198 358 223 359 214 359 215 359 199 360 200 360 216 360 199 361 216 361 215 361 222 362 200 362 199 362 223 363 215 363 216 363 200 364 201 364 217 364 200 365 217 365 216 365 222 366 201 366 200 366 223 367 216 367 217 367 201 368 202 368 218 368 201 369 218 369 217 369 222 370 202 370 201 370 223 371 217 371 218 371 202 372 203 372 219 372 202 373 219 373 218 373 222 374 203 374 202 374 223 375 218 375 219 375 203 376 204 376 220 376 203 377 220 377 219 377 222 378 204 378 203 378 223 379 219 379 220 379 204 380 205 380 221 380 204 381 221 381 220 381 222 382 205 382 204 382 223 383 220 383 221 383 205 384 190 384 206 384 205 385 206 385 221 385 222 386 190 386 205 386 223 387 221 387 206 387 224 388 225 388 226 388 224 389 226 389 227 389 228 390 229 390 230 390 228 391 230 391 231 391 232 392 233 392 234 392 232 393 234 393 235 393 236 394 237 394 238 394 236 395 238 395 239 395 240 396 241 396 242 396 240 397 242 397 243 397 244 398 245 398 246 398 244 399 246 399 247 399 248 400 249 400 250 400 248 401 250 401 251 401 252 402 253 402 254 402 252 403 254 403 255 403 256 404 257 404 258 404 256 405 258 405 259 405 260 406 261 406 262 406 260 407 262 407 263 407 264 408 265 408 266 408 264 409 266 409 267 409 268 410 269 410 270 410 268 411 270 411 271 411 272 412 273 412 274 412 272 413 274 413 275 413 276 414 277 414 278 414 276 415 278 415 279 415 280 416 281 416 282 416 280 417 282 417 283 417 284 418 285 418 286 418 284 419 286 419 287 419 288 420 289 420 290 420 288 421 290 421 291 421 292 422 293 422 294 422 292 423 294 423 295 423 296 424 297 424 298 424 296 425 298 425 299 425 300 426 301 426 302 426 300 427 302 427 303 427 304 428 305 428 306 428 304 429 306 429 307 429 308 430 309 430 310 430 308 431 310 431 311 431 312 432 313 432 314 432 312 433 314 433 315 433 316 434 317 434 318 434 316 435 318 435 319 435 320 436 321 436 322 436 320 437 322 437 323 437 324 438 325 438 326 438 324 439 326 439 327 439 328 440 329 440 330 440 328 441 330 441 331 441 332 442 333 442 334 442 332 443 334 443 335 443 336 444 337 444 338 444 336 445 338 445 339 445 340 446 341 446 342 446 340 447 342 447 343 447 344 448 345 448 346 448 344 449 346 449 347 449 348 450 349 450 350 450 348 451 350 451 351 451 352 452 353 452 354 452 352 453 354 453 355 453 356 454 357 454 358 454 356 455 358 455 359 455 360 456 361 456 362 456 360 457 362 457 363 457 364 458 365 458 366 458 364 459 366 459 367 459 368 460 369 460 370 460 368 461 370 461 371 461 372 462 373 462 374 462 372 463 374 463 375 463 376 464 377 464 378 464 376 465 378 465 379 465 380 466 381 466 382 466 380 467 382 467 383 467 384 468 385 468 386 468 384 469 386 469 387 469 388 470 389 470 390 470 388 471 390 471 391 471 392 472 393 472 394 472 392 473 394 473 395 473 396 474 397 474 398 474 396 475 398 475 399 475 400 476 401 476 402 476 400 477 402 477 403 477 404 478 405 478 406 478 404 479 406 479 407 479 408 480 409 480 410 480 408 481 410 481 411 481 412 482 413 482 414 482 412 483 414 483 415 483 416 484 417 484 418 484 416 485 418 485 419 485 420 486 421 486 422 486 420 487 422 487 423 487 424 488 425 488 426 488 424 489 426 489 427 489 428 490 429 490 430 490 428 491 430 491 431 491 432 492 433 492 434 492 432 493 434 493 435 493 436 494 437 494 438 494 436 495 438 495 439 495 440 496 441 496 442 496 440 497 442 497 443 497 444 498 445 498 446 498 444 499 446 499 447 499 448 500 449 500 450 500 448 501 450 501 451 501 452 502 453 502 454 502 452 503 454 503 455 503 456 504 457 504 458 504 456 505 458 505 459 505 460 506 461 506 462 506 460 507 462 507 463 507 464 508 465 508 466 508 464 509 466 509 467 509 468 510 469 510 470 510 468 511 470 511 471 511 472 512 473 512 474 512 472 513 474 513 475 513 476 514 477 514 478 514 476 515 478 515 479 515 480 516 481 516 482 516 480 517 482 517 483 517 484 518 485 518 486 518 484 519 486 519 487 519 488 520 489 520 490 520 488 521 490 521 491 521 492 522 493 522 494 522 492 523 494 523 495 523</p></triangles>
</mesh></geometry></library_geometries><library_visual_scenes><visual_scene id="Scene"><node id="mesh"><instance_geometry url="#geometry"/></node></visual_scene></library_visual_scenes><scene><instance_visual_scene url="#Scene"/></scene></COLLADA>