<?xml version="1.0" encoding="UTF-8"?>
<COLLADA xmlns="http://www.collada.org/2005/11/COLLADASchema" version="1.4.1">
<asset><contributor><authoring_tool>Summit Estate procedural mesh exporter</authoring_tool></contributor><created>2026-09-11T00:00:00Z</created><modified>2026-09-11T00:00:00Z</modified><unit name="meter" meter="1"/><up_axis>Z_UP</up_axis></asset>
<library_geometries><geometry id="geometry" name="geometry"><mesh>
<source id="positions"><float_array id="positions-array" count="1176">135.12500 130.00000 81.06000 135.28088 130.00000 81.12000 135.20294 130.13500 81.12000 135.04706 130.13500 81.12000 134.96912 130.00000 81.12000 135.04706 129.86500 81.12000 135.20294 129.86500 81.12000 135.28088 130.00000 81.24000 135.20294 130.13500 81.24000 135.04706 130.13500 81.24000 134.96912 130.00000 81.24000 135.04706 129.86500 81.24000 135.20294 129.86500 81.24000 135.12500 130.00000 81.30000 134.70143 130.87956 81.06000 134.85731 130.87956 81.12000 134.77937 131.01456 81.12000 134.62348 131.01456 81.12000 134.54554 130.87956 81.12000 134.62348 130.74456 81.12000 134.77937 130.74456 81.12000 134.85731 130.87956 81.24000 134.77937 131.01456 81.24000 134.62348 131.01456 81.24000 134.54554 130.87956 81.24000 134.62348 130.74456 81.24000 134.77937 130.74456 81.24000 134.70143 130.87956 81.30000 133.74966 131.09679 81.06000 133.90555 131.09679 81.12000 133.82761 131.23179 81.12000 133.67172 131.23179 81.12000 133.59378 131.09679 81.12000 133.67172 130.96179 81.12000 133.82761 130.96179 81.12000 133.90555 131.09679 81.24000 133.82761 131.23179 81.24000 133.67172 131.23179 81.24000 133.59378 131.09679 81.24000 133.67172 130.96179 81.24000 133.82761 130.96179 81.24000 133.74966 131.09679 81.30000 132.98641 130.48812 81.06000 133.14229 130.48812 81.12000 133.06435 130.62312 81.12000 132.90847 130.62312 81.12000 132.83053 130.48812 81.12000 132.90847 130.35312 81.12000 133.06435 130.35312 81.12000 133.14229 130.48812 81.24000 133.06435 130.62312 81.24000 132.90847 130.62312 81.24000 132.83053 130.48812 81.24000 132.90847 130.35312 81.24000 133.06435 130.35312 81.24000 132.98641 130.48812 81.30000 132.98641 129.51188 81.06000 133.14229 129.51188 81.12000 133.06435 129.64688 81.12000 132.90847 129.64688 81.12000 132.83053 129.51188 81.12000 132.90847 129.37688 81.12000 133.06435 129.37688 81.12000 133.14229 129.51188 81.24000 133.06435 129.64688 81.24000 132.90847 129.64688 81.24000 132.83053 129.51188 81.24000 132.90847 129.37688 81.24000 133.06435 129.37688 81.24000 132.98641 129.51188 81.30000 133.74966 128.90321 81.06000 133.90555 128.90321 81.12000 133.82761 129.03821 81.12000 133.67172 129.03821 81.12000 133.59378 128.90321 81.12000 133.67172 128.76821 81.12000 133.82761 128.76821 81.12000 133.90555 128.90321 81.24000 133.82761 129.03821 81.24000 133.67172 129.03821 81.24000 133.59378 128.90321 81.24000 133.67172 128.76821 81.24000 133.82761 128.76821 81.24000 133.74966 128.90321 81.30000 134.70143 129.12044 81.06000 134.85731 129.12044 81.12000 134.77937 129.25544 81.12000 134.62348 129.25544 81.12000 134.54554 129.12044 81.12000 134.62348 128.98544 81.12000 134.77937 128.98544 81.12000 134.85731 129.12044 81.24000 134.77937 129.25544 81.24000 134.62348 129.25544 81.24000 134.54554 129.12044 81.24000 134.62348 128.98544 81.24000 134.77937 128.98544 81.24000 134.70143 129.12044 81.30000 135.12500 170.00000 81.06000 135.28088 170.00000 81.12000 135.20294 170.13500 81.12000 135.04706 170.13500 81.12000 134.96912 170.00000 81.12000 135.04706 169.86500 81.12000 135.20294 169.86500 81.12000 135.28088 170.00000 81.24000 135.20294 170.13500 81.24000 135.04706 170.13500 81.24000 134.96912 170.00000 81.24000 135.04706 169.86500 81.24000 135.20294 169.86500 81.24000 135.12500 170.00000 81.30000 134.70143 170.87956 81.06000 134.85731 170.87956 81.12000 134.77937 171.01456 81.12000 134.62348 171.01456 81.12000 134.54554 170.87956 81.12000 134.62348 170.74456 81.12000 134.77937 170.74456 81.12000 134.85731 170.87956 81.24000 134.77937 171.01456 81.24000 134.62348 171.01456 81.24000 134.54554 170.87956 81.24000 134.62348 170.74456 81.24000 134.77937 170.74456 81.24000 134.70143 170.87956 81.30000 133.74966 171.09679 81.06000 133.90555 171.09679 81.12000 133.82761 171.23179 81.12000 133.67172 171.23179 81.12000 133.59378 171.09679 81.12000 133.67172 170.96179 81.12000 133.82761 170.96179 81.12000 133.90555 171.09679 81.24000 133.82761 171.23179 81.24000 133.67172 171.23179 81.24000 133.59378 171.09679 81.24000 133.67172 170.96179 81.24000 133.82761 170.96179 81.24000 133.74966 171.09679 81.30000 132.98641 170.48812 81.06000 133.14229 170.48812 81.12000 133.06435 170.62312 81.12000 132.90847 170.62312 81.12000 132.83053 170.48812 81.12000 132.90847 170.35312 81.12000 133.06435 170.35312 81.12000 133.14229 170.48812 81.24000 133.06435 170.62312 81.24000 132.90847 170.62312 81.24000 132.83053 170.48812 81.24000 132.90847 170.35312 81.24000 133.06435 170.35312 81.24000 132.98641 170.48812 81.30000 132.98641 169.51188 81.06000 133.14229 169.51188 81.12000 133.06435 169.64688 81.12000 132.90847 169.64688 81.12000 132.83053 169.51188 81.12000 132.90847 169.37688 81.12000 133.06435 169.37688 81.12000 133.14229 169.51188 81.24000 133.06435 169.64688 81.24000 132.90847 169.64688 81.24000 132.83053 169.51188 81.24000 132.90847 169.37688 81.24000 133.06435 169.37688 81.24000 132.98641 169.51188 81.30000 133.74966 168.90321 81.06000 133.90555 168.90321 81.12000 133.82761 169.03821 81.12000 133.67172 169.03821 81.12000 133.59378 168.90321 81.12000 133.67172 168.76821 81.12000 133.82761 168.76821 81.12000 133.90555 168.90321 81.24000 133.82761 169.03821 81.24000 133.67172 169.03821 81.24000 133.59378 168.90321 81.24000 133.67172 168.76821 81.24000 133.82761 168.76821 81.24000 133.74966 168.90321 81.30000 134.70143 169.12044 81.06000 134.85731 169.12044 81.12000 134.77937 169.25544 81.12000 134.62348 169.25544 81.12000 134.54554 169.12044 81.12000 134.62348 168.98544 81.12000 134.77937 168.98544 81.12000 134.85731 169.12044 81.24000 134.77937 169.25544 81.24000 134.62348 169.25544 81.24000 134.54554 169.12044 81.24000 134.62348 168.98544 81.24000 134.77937 168.98544 81.24000 134.70143 169.12044 81.30000 201.12500 130.00000 81.06000 201.28088 130.00000 81.12000 201.20294 130.13500 81.12000 201.04706 130.13500 81.12000 200.96912 130.00000 81.12000 201.04706 129.86500 81.12000 201.20294 129.86500 81.12000 201.28088 130.00000 81.24000 201.20294 130.13500 81.24000 201.04706 130.13500 81.24000 200.96912 130.00000 81.24000 201.04706 129.86500 81.24000 201.20294 129.86500 81.24000 201.12500 130.00000 81.30000 200.70143 130.87956 81.06000 200.85731 130.87956 81.12000 200.77937 131.01456 81.12000 200.62348 131.01456 81.12000 200.54554 130.87956 81.12000 200.62348 130.74456 81.12000 200.77937 130.74456 81.12000 200.85731 130.87956 81.24000 200.77937 131.01456 81.24000 200.62348 131.01456 81.24000 200.54554 130.87956 81.24000 200.62348 130.74456 81.24000 200.77937 130.74456 81.24000 200.70143 130.87956 81.30000 199.74966 131.09679 81.06000 199.90555 131.09679 81.12000 199.82761 131.23179 81.12000 199.67172 131.23179 81.12000 199.59378 131.09679 81.12000 199.67172 130.96179 81.12000 199.82761 130.96179 81.12000 199.90555 131.09679 81.24000 199.82761 131.23179 81.24000 199.67172 131.23179 81.24000 199.59378 131.09679 81.24000 199.67172 130.96179 81.24000 199.82761 130.96179 81.24000 199.74966 131.09679 81.30000 198.98641 130.48812 81.06000 199.14229 130.48812 81.12000 199.06435 130.62312 81.12000 198.90847 130.62312 81.12000 198.83053 130.48812 81.12000 198.90847 130.35312 81.12000 199.06435 130.35312 81.12000 199.14229 130.48812 81.24000 199.06435 130.62312 81.24000 198.90847 130.62312 81.24000 198.83053 130.48812 81.24000 198.90847 130.35312 81.24000 199.06435 130.35312 81.24000 198.98641 130.48812 81.30000 198.98641 129.51188 81.06000 199.14229 129.51188 81.12000 199.06435 129.64688 81.12000 198.90847 129.64688 81.12000 198.83053 129.51188 81.12000 198.90847 129.37688 81.12000 199.06435 129.37688 81.12000 199.14229 129.51188 81.24000 199.06435 129.64688 81.24000 198.90847 129.64688 81.24000 198.83053 129.51188 81.24000 198.90847 129.37688 81.24000 199.06435 129.37688 81.24000 198.98641 129.51188 81.30000 199.74966 128.90321 81.06000 199.90555 128.90321 81.12000 199.82761 129.03821 81.12000 199.67172 129.03821 81.12000 199.59378 128.90321 81.12000 199.67172 128.76821 81.12000 199.82761 128.76821 81.12000 199.90555 128.90321 81.24000 199.82761 129.03821 81.24000 199.67172 129.03821 81.24000 199.59378 128.90321 81.24000 199.67172 128.76821 81.24000 199.82761 128.76821 81.24000 199.74966 128.90321 81.30000 200.70143 129.12044 81.06000 200.85731 129.12044 81.12000 200.77937 129.25544 81.12000 200.62348 129.25544 81.12000 200.54554 129.12044 81.12000 200.62348 128.98544 81.12000 200.77937 128.98544 81.12000 200.85731 129.12044 81.24000 200.77937 129.25544 81.24000 200.62348 129.25544 81.24000 200.54554 129.12044 81.24000 200.62348 128.98544 81.24000 200.77937 128.98544 81.24000 200.70143 129.12044 81.30000 201.12500 170.00000 81.06000 201.28088 170.00000 81.12000 201.20294 170.13500 81.12000 201.04706 170.13500 81.12000 200.96912 170.00000 81.12000 201.04706 169.86500 81.12000 201.20294 169.86500 81.12000 201.28088 170.00000 81.24000 201.20294 170.13500 81.24000 201.04706 170.13500 81.24000 200.96912 170.00000 81.24000 201.04706 169.86500 81.24000 201.20294 169.86500 81.24000 201.12500 170.00000 81.30000 200.70143 170.87956 81.06000 200.85731 170.87956 81.12000 200.77937 171.01456 81.12000 200.62348 171.01456 81.12000 200.54554 170.87956 81.12000 200.62348 170.74456 81.12000 200.77937 170.74456 81.12000 200.85731 170.87956 81.24000 200.77937 171.01456 81.24000 200.62348 171.01456 81.24000 200.54554 170.87956 81.24000 200.62348 170.74456 81.24000 200.77937 170.74456 81.24000 200.70143 170.87956 81.30000 199.74966 171.09679 81.06000 199.90555 171.09679 81.12000 199.82761 171.23179 81.12000 199.67172 171.23179 81.12000 199.59378 171.09679 81.12000 199.67172 170.96179 81.12000 199.82761 170.96179 81.12000 199.90555 171.09679 81.24000 199.82761 171.23179 81.24000 199.67172 171.23179 81.24000 199.59378 171.09679 81.24000 199.67172 170.96179 81.24000 199.82761 170.96179 81.24000 199.74966 171.09679 81.30000 198.98641 170.48812 81.06000 199.14229 170.48812 81.12000 199.06435 170.62312 81.12000 198.90847 170.62312 81.12000 198.83053 170.48812 81.12000 198.90847 170.35312 81.12000 199.06435 170.35312 81.12000 199.14229 170.48812 81.24000 199.06435 170.62312 81.24000 198.90847 170.62312 81.24000 198.83053 170.48812 81.24000 198.90847 170.35312 81.24000 199.06435 170.35312 81.24000 198.98641 170.48812 81.30000 198.98641 169.51188 81.06000 199.14229 169.51188 81.12000 199.06435 169.64688 81.12000 198.90847 169.64688 81.12000 198.83053 169.51188 81.12000 198.90847 169.37688 81.12000 199.06435 169.37688 81.12000 199.14229 169.51188 81.24000 199.06435 169.64688 81.24000 198.90847 169.64688 81.24000 198.83053 169.51188 81.24000 198.90847 169.37688 81.24000 199.06435 169.37688 81.24000 198.98641 169.51188 81.30000 199.74966 168.90321 81.06000 199.90555 168.90321 81.12000 199.82761 169.03821 81.12000 199.67172 169.03821 81.12000 199.59378 168.90321 81.12000 199.67172 168.76821 81.12000 199.82761 168.76821 81.12000 199.90555 168.90321 81.24000 199.82761 169.03821 81.24000 199.67172 169.03821 81.24000 199.59378 168.90321 81.24000 199.67172 168.76821 81.24000 199.82761 168.76821 81.24000 199.74966 168.90321 81.30000 200.70143 169.12044 81.06000 200.85731 169.12044 81.12000 200.77937 169.25544 81.12000 200.62348 169.25544 81.12000 200.54554 169.12044 81.12000 200.62348 168.98544 81.12000 200.77937 168.98544 81.12000 200.85731 169.12044 81.24000 200.77937 169.25544 81.24000 200.62348 169.25544 81.24000 200.54554 169.12044 81.24000 200.62348 168.98544 81.24000 200.77937 168.98544 81.24000 200.70143 169.12044 81.30000</float_array><technique_common><accessor source="#positions-array" count="392" stride="3"><param name="X" type="float"/><param name="Y" type="float"/><param name="Z" type="float"/></accessor></technique_common></source>
<source id="normals"><float_array id="normals-array" count="2016">0.35173 0.20307 -0.91381 0.86603 0.50000 0.00000 0.86603 0.50000 -0.00000 0.35173 0.20307 0.91381 0.00000 0.40614 -0.91381 0.00000 1.00000 0.00000 0.00000 1.00000 -0.00000 0.00000 0.40614 0.91381 -0.35173 0.20307 -0.91381 -0.86603 0.50000 0.00000 -0.86603 0.50000 0.00000 -0.35173 0.20307 0.91381 -0.35173 -0.20307 -0.91381 -0.86603 -0.50000 0.00000 -0.86603 -0.50000 0.00000 -0.35173 -0.20307 0.91381 0.00000 -0.40614 -0.91381 0.00000 -1.00000 0.00000 0.00000 -1.00000 0.00000 0.00000 -0.40614 0.91381 0.35173 -0.20307 -0.91381 0.86603 -0.50000 0.00000 0.86603 -0.50000 0.00000 0.35173 -0.20307 0.91381 0.35173 0.20307 -0.91381 0.86603 0.50000 0.00000 0.86603 0.50000 -0.00000 0.35173 0.20307 0.91381 0.00000 0.40614 -0.91381 0.00000 1.00000 0.00000 0.00000 1.00000 -0.00000 0.00000 0.40614 0.91381 -0.35173 0.20307 -0.91381 -0.86603 0.50000 0.00000 -0.86603 0.50000 0.00000 -0.35173 0.20307 0.91381 -0.35173 -0.20307 -0.91381 -0.86603 -0.50000 0.00000 -0.86603 -0.50000 0.00000 -0.35173 -0.20307 0.91381 0.00000 -0.40614 -0.91381 0.00000 -1.00000 0.00000 0.00000 -1.00000 0.00000 0.00000 -0.40614 0.91381 0.35173 -0.20307 -0.91381 0.86603 -0.50000 0.00000 0.86603 -0.50000 0.00000 0.35173 -0.20307 0.91381 0.35173 0.20307 -0.91381 0.86603 0.50000 0.00000 0.86603 0.50000 -0.00000 0.35173 0.20307 0.91381 0.00000 0.40614 -0.91381 0.00000 1.00000 0.00000 0.00000 1.00000 -0.00000 0.00000 0.40614 0.91381 -0.35173 0.20307 -0.91381 -0.86603 0.50000 0.00000 -0.86603 0.50000 0.00000 -0.35173 0.20307 0.91381 -0.35173 -0.20307 -0.91381 -0.86603 -0.50000 0.00000 -0.86603 -0.50000 0.00000 -0.35173 -0.20307 0.91381 0.00000 -0.40614 -0.91381 0.00000 -1.00000 0.00000 0.00000 -1.00000 0.00000 0.00000 -0.40614 0.91381 0.35173 -0.20307 -0.91381 0.86603 -0.50000 0.00000 0.86603 -0.50000 0.00000 0.35173 -0.20307 0.91381 0.35173 0.20307 -0.91381 0.86603 0.50000 0.00000 0.86603 0.50000 -0.00000 0.35173 0.20307 0.91381 0.00000 0.40614 -0.91381 0.00000 1.00000 0.00000 0.00000 1.00000 -0.00000 0.00000 0.40614 0.91381 -0.35173 0.20307 -0.91381 -0.86603 0.50000 0.00000 -0.86603 0.50000 0.00000 -0.35173 0.20307 0.91381 -0.35173 -0.20307 -0.91381 -0.86603 -0.50000 0.00000 -0.86603 -0.50000 0.00000 -0.35173 -0.20307 0.91381 0.00000 -0.40614 -0.91381 0.00000 -1.00000 0.00000 0.00000 -1.00000 0.00000 0.00000 -0.40614 0.91381 0.35173 -0.20307 -0.91381 0.86603 -0.50000 0.00000 0.86603 -0.50000 0.00000 0.35173 -0.20307 0.91381 0.35173 0.20307 -0.91381 0.86603 0.50000 0.00000 0.86603 0.50000 -0.00000 0.35173 0.20307 0.91381 0.00000 0.40614 -0.91381 0.00000 1.00000 0.00000 0.00000 1.00000 -0.00000 0.00000 0.40614 0.91381 -0.35173 0.20307 -0.91381 -0.86603 0.50000 0.00000 -0.86603 0.50000 0.00000 -0.35173 0.20307 0.91381 -0.35173 -0.20307 -0.91381 -0.86603 -0.50000 0.00000 -0.86603 -0.50000 0.00000 -0.35173 -0.20307 0.91381 0.00000 -0.40614 -0.91381 0.00000 -1.00000 0.00000 0.00000 -1.00000 0.00000 0.00000 -0.40614 0.91381 0.35173 -0.20307 -0.91381 0.86603 -0.50000 0.00000 0.86603 -0.50000 0.00000 0.35173 -0.20307 0.91381 0.35173 0.20307 -0.91381 0.86603 0.50000 0.00000 0.86603 0.50000 -0.00000 0.35173 0.20307 0.91381 0.00000 0.40614 -0.91381 0.00000 1.00000 0.00000 0.00000 1.00000 -0.00000 0.00000 0.40614 0.91381 -0.35173 0.20307 -0.91381 -0.86603 0.50000 0.00000 -0.86603 0.50000 0.00000 -0.35173 0.20307 0.91381 -0.35173 -0.20307 -0.91381 -0.86603 -0.50000 0.00000 -0.86603 -0.50000 0.00000 -0.35173 -0.20307 0.91381 0.00000 -0.40614 -0.91381 0.00000 -1.00000 0.00000 0.00000 -1.00000 0.00000 0.00000 -0.40614 0.91381 0.35173 -0.20307 -0.91381 0.86603 -0.50000 0.00000 0.86603 -0.50000 0.00000 0.35173 -0.20307 0.91381 0.35173 0.20307 -0.91381 0.86603 0.50000 0.00000 0.86603 0.50000 -0.00000 0.35173 0.20307 0.91381 0.00000 0.40614 -0.91381 0.00000 1.00000 0.00000 0.00000 1.00000 -0.00000 0.00000 0.40614 0.91381 -0.35173 0.20307 -0.91381 -0.86603 0.50000 0.00000 -0.86603 0.50000 0.00000 -0.35173 0.20307 0.91381 -0.35173 -0.20307 -0.91381 -0.86603 -0.50000 0.00000 -0.86603 -0.50000 0.00000 -0.35173 -0.20307 0.91381 0.00000 -0.40614 -0.91381 0.00000 -1.00000 0.00000 0.00000 -1.00000 0.00000 0.00000 -0.40614 0.91381 0.35173 -0.20307 -0.91381 0.86603 -0.50000 0.00000 0.86603 -0.50000 0.00000 0.35173 -0.20307 0.91381 0.35173 0.20307 -0.91381 0.86603 0.50000 0.00000 0.86603 0.50000 -0.00000 0.35173 0.20307 0.91381 0.00000 0.40614 -0.91381 0.00000 1.00000 0.00000 0.00000 1.00000 -0.00000 0.00000 0.40614 0.91381 -0.35173 0.20307 -0.91381 -0.86603 0.50000 0.00000 -0.86603 0.50000 0.00000 -0.35173 0.20307 0.91381 -0.35173 -0.20307 -0.91381 -0.86603 -0.50000 0.00000 -0.86603 -0.50000 0.00000 -0.35173 -0.20307 0.91381 0.00000 -0.40614 -0.91381 0.00000 -1.00000 0.00000 0.00000 -1.00000 0.00000 0.00000 -0.40614 0.91381 0.35173 -0.20307 -0.91381 0.86603 -0.50000 0.00000 0.86603 -0.50000 0.00000 0.35173 -0.20307 0.91381 0.35173 0.20307 -0.91381 0.86603 0.50000 0.00000 0.86603 0.50000 -0.00000 0.35173 0.20307 0.91381 0.00000 0.40614 -0.91381 0.00000 1.00000 0.00000 0.00000 1.00000 -0.00000 0.00000 0.40614 0.91381 -0.35173 0.20307 -0.91381 -0.86603 0.50000 0.00000 -0.86603 0.50000 0.00000 -0.35173 0.20307 0.91381 -0.35173 -0.20307 -0.91381 -0.86603 -0.50000 0.00000 -0.86603 -0.50000 0.00000 -0.35173 -0.20307 0.91381 0.00000 -0.40614 -0.91381 0.00000 -1.00000 0.00000 0.00000 -1.00000 0.00000 0.00000 -0.40614 0.91381 0.35173 -0.20307 -0.91381 0.86603 -0.50000 0.00000 0.86603 -0.50000 0.00000 0.35173 -0.20307 0.91381 0.35173 0.20307 -0.91381 0.86603 0.50000 0.00000 0.86603 0.50000 -0.00000 0.35173 0.20307 0.91381 0.00000 0.40614 -0.91381 0.00000 1.00000 0.00000 0.00000 1.00000 -0.00000 0.00000 0.40614 0.91381 -0.35173 0.20307 -0.91381 -0.86603 0.50000 0.00000 -0.86603 0.50000 0.00000 -0.35173 0.20307 0.91381 -0.35173 -0.20307 -0.91381 -0.86603 -0.50000 0.00000 -0.86603 -0.50000 0.00000 -0.35173 -0.20307 0.91381 0.00000 -0.40614 -0.91381 0.00000 -1.00000 0.00000 0.00000 -1.00000 0.00000 0.00000 -0.40614 0.91381 0.35173 -0.20307 -0.91381 0.86603 -0.50000 0.00000 0.86603 -0.50000 0.00000 0.35173 -0.20307 0.91381 0.35173 0.20307 -0.91381 0.86603 0.50000 0.00000 0.86603 0.50000 -0.00000 0.35173 0.20307 0.91381 0.00000 0.40614 -0.91381 0.00000 1.00000 0.00000 0.00000 1.00000 -0.00000 0.00000 0.40614 0.91381 -0.35173 0.20307 -0.91381 -0.86603 0.50000 0.00000 -0.86603 0.50000 0.00000 -0.35173 0.20307 0.91381 -0.35173 -0.20307 -0.91381 -0.86603 -0.50000 0.00000 -0.86603 -0.50000 0.00000 -0.35173 -0.20307 0.91381 0.00000 -0.40614 -0.91381 0.00000 -1.00000 0.00000 0.00000 -1.00000 0.00000 0.00000 -0.40614 0.91381 0.35173 -0.20307 -0.91381 0.86603 -0.50000 0.00000 0.86603 -0.50000 0.00000 0.35173 -0.20307 0.91381 0.35173 0.20307 -0.91381 0.86603 0.50000 0.00000 0.86603 0.50000 -0.00000 0.35173 0.20307 0.91381 0.00000 0.40614 -0.91381 0.00000 1.00000 0.00000 0.00000 1.00000 -0.00000 0.00000 0.40614 0.91381 -0.35173 0.20307 -0.91381 -0.86603 0.50000 0.00000 -0.86603 0.50000 0.00000 -0.35173 0.20307 0.91381 -0.35173 -0.20307 -0.91381 -0.86603 -0.50000 0.00000 -0.86603 -0.50000 0.00000 -0.35173 -0.20307 0.91381 0.00000 -0.40614 -0.91381 0.00000 -1.00000 0.00000 0.00000 -1.00000 0.00000 0.00000 -0.40614 0.91381 0.35173 -0.20307 -0.91381 0.86603 -0.50000 0.00000 0.86603 -0.50000 0.00000 0.35173 -0.20307 0.91381 0.35173 0.20307 -0.91381 0.86603 0.50000 0.00000 0.86603 0.50000 -0.00000 0.35173 0.20307 0.91381 0.00000 0.40614 -0.91381 0.00000 1.00000 0.00000 0.00000 1.00000 -0.00000 0.00000 0.40614 0.91381 -0.35173 0.20307 -0.91381 -0.86603 0.50000 0.00000 -0.86603 0.50000 0.00000 -0.35173 0.20307 0.91381 -0.35173 -0.20307 -0.91381 -0.86603 -0.50000 0.00000 -0.86603 -0.50000 0.00000 -0.35173 -0.20307 0.91381 0.00000 -0.40614 -0.91381 0.00000 -1.00000 0.00000 0.00000 -1.00000 0.00000 0.00000 -0.40614 0.91381 0.35173 -0.20307 -0.91381 0.86603 -0.50000 0.00000 0.86603 -0.50000 0.00000 0.35173 -0.20307 0.91381 0.35173 0.20307 -0.91381 0.86603 0.50000 0.00000 0.86603 0.50000 -0.00000 0.35173 0.20307 0.91381 0.00000 0.40614 -0.91381 0.00000 1.00000 0.00000 0.00000 1.00000 -0.00000 0.00000 0.40614 0.91381 -0.35173 0.20307 -0.91381 -0.86603 0.50000 0.00000 -0.86603 0.50000 0.00000 -0.35173 0.20307 0.91381 -0.35173 -0.20307 -0.91381 -0.86603 -0.50000 0.00000 -0.86603 -0.50000 0.00000 -0.35173 -0.20307 0.91381 0.00000 -0.40614 -0.91381 0.00000 -1.00000 0.00000 0.00000 -1.00000 0.00000 0.00000 -0.40614 0.91381 0.35173 -0.20307 -0.91381 0.86603 -0.50000 0.00000 0.86603 -0.50000 0.00000 0.35173 -0.20307 0.91381 0.35173 0.20307 -0.91381 0.86603 0.50000 0.00000 0.86603 0.50000 -0.00000 0.35173 0.20307 0.91381 0.00000 0.40614 -0.91381 0.00000 1.00000 0.00000 0.00000 1.00000 -0.00000 0.00000 0.40614 0.91381 -0.35173 0.20307 -0.91381 -0.86603 0.50000 0.00000 -0.86603 0.50000 0.00000 -0.35173 0.20307 0.91381 -0.35173 -0.20307 -0.91381 -0.86603 -0.50000 0.00000 -0.86603 -0.50000 0.00000 -0.35173 -0.20307 0.91381 0.00000 -0.40614 -0.91381 0.00000 -1.00000 0.00000 0.00000 -1.00000 0.00000 0.00000 -0.40614 0.91381 0.35173 -0.20307 -0.91381 0.86603 -0.50000 0.00000 0.86603 -0.50000 0.00000 0.35173 -0.20307 0.91381 0.35173 0.20307 -0.91381 0.86603 0.50000 0.00000 0.86603 0.50000 -0.00000 0.35173 0.20307 0.91381 0.00000 0.40614 -0.91381 0.00000 1.00000 0.00000 0.00000 1.00000 -0.00000 0.00000 0.40614 0.91381 -0.35173 0.20307 -0.91381 -0.86603 0.50000 0.00000 -0.86603 0.50000 0.00000 -0.35173 0.20307 0.91381 -0.35173 -0.20307 -0.91381 -0.86603 -0.50000 0.00000 -0.86603 -0.50000 0.00000 -0.35173 -0.20307 0.91381 0.00000 -0.40614 -0.91381 0.00000 -1.00000 0.00000 0.00000 -1.00000 0.00000 0.00000 -0.40614 0.91381 0.35173 -0.20307 -0.91381 0.86603 -0.50000 0.00000 0.86603 -0.50000 0.00000 0.35173 -0.20307 0.91381 0.35173 0.20307 -0.91381 0.86603 0.50000 0.00000 0.86603 0.50000 -0.00000 0.35173 0.20307 0.91381 0.00000 0.40614 -0.91381 0.00000 1.00000 0.00000 0.00000 1.00000 -0.00000 0.00000 0.40614 0.91381 -0.35173 0.20307 -0.91381 -0.86603 0.50000 0.00000 -0.86603 0.50000 0.00000 -0.35173 0.20307 0.91381 -0.35173 -0.20307 -0.91381 -0.86603 -0.50000 0.00000 -0.86603 -0.50000 0.00000 -0.35173 -0.20307 0.91381 0.00000 -0.40614 -0.91381 0.00000 -1.00000 0.00000 0.00000 -1.00000 0.00000 0.00000 -0.40614 0.91381 0.35173 -0.20307 -0.91381 0.86603 -0.50000 0.00000 0.86603 -0.50000 0.00000 0.35173 -0.20307 0.91381 0.35173 0.20307 -0.91381 0.86603 0.50000 0.00000 0.86603 0.50000 -0.00000 0.35173 0.20307 0.91381 0.00000 0.40614 -0.91381 0.00000 1.00000 0.00000 0.00000 1.00000 -0.00000 0.00000 0.40614 0.91381 -0.35173 0.20307 -0.91381 -0.86603 0.50000 0.00000 -0.86603 0.50000 0.00000 -0.35173 0.20307 0.91381 -0.35173 -0.20307 -0.91381 -0.86603 -0.50000 0.00000 -0.86603 -0.50000 0.00000 -0.35173 -0.20307 0.91381 0.00000 -0.40614 -0.91381 0.00000 -1.00000 0.00000 0.00000 -1.00000 0.00000 0.00000 -0.40614 0.91381 0.35173 -0.20307 -0.91381 0.86603 -0.50000 0.00000 0.86603 -0.50000 0.00000 0.35173 -0.20307 0.91381 0.35173 0.20307 -0.91381 0.86603 0.50000 0.00000 0.86603 0.50000 -0.00000 0.35173 0.20307 0.91381 0.00000 0.40614 -0.91381 0.00000 1.00000 0.00000 0.00000 1.00000 -0.00000 0.00000 0.40614 0.91381 -0.35173 0.20307 -0.91381 -0.86603 0.50000 0.00000 -0.86603 0.50000 0.00000 -0.35173 0.20307 0.91381 -0.35173 -0.20307 -0.91381 -0.86603 -0.50000 0.00000 -0.86603 -0.50000 0.00000 -0.35173 -0.20307 0.91381 0.00000 -0.40614 -0.91381 0.00000 -1.00000 0.00000 0.00000 -1.00000 0.00000 0.00000 -0.40614 0.91381 0.35173 -0.20307 -0.91381 0.86603 -0.50000 0.00000 0.86603 -0.50000 0.00000 0.35173 -0.20307 0.91381 0.35173 0.20307 -0.91381 0.86603 0.50000 0.00000 0.86603 0.50000 -0.00000 0.35173 0.20307 0.91381 0.00000 0.40614 -0.91381 0.00000 1.00000 0.00000 0.00000 1.00000 -0.00000 0.00000 0.40614 0.91381 -0.35173 0.20307 -0.91381 -0.86603 0.50000 0.00000 -0.86603 0.50000 0.00000 -0.35173 0.20307 0.91381 -0.35173 -0.20307 -0.91381 -0.86603 -0.50000 0.00000 -0.86603 -0.50000 0.00000 -0.35173 -0.20307 0.91381 0.00000 -0.40614 -0.91381 0.00000 -1.00000 0.00000 0.00000 -1.00000 0.00000 0.00000 -0.40614 0.91381 0.35173 -0.20307 -0.91381 0.86603 -0.50000 0.00000 0.86603 -0.50000 0.00000 0.35173 -0.20307 0.91381 0.35173 0.20307 -0.91381 0.86603 0.50000 0.00000 0.86603 0.50000 -0.00000 0.35173 0.20307 0.91381 0.00000 0.40614 -0.91381 0.00000 1.00000 0.00000 0.00000 1.00000 -0.00000 0.00000 0.40614 0.91381 -0.35173 0.20307 -0.91381 -0.86603 0.50000 0.00000 -0.86603 0.50000 0.00000 -0.35173 0.20307 0.91381 -0.35173 -0.20307 -0.91381 -0.86603 -0.50000 0.00000 -0.86603 -0.50000 0.00000 -0.35173 -0.20307 0.91381 0.00000 -0.40614 -0.91381 0.00000 -1.00000 0.00000 0.00000 -1.00000 0.00000 0.00000 -0.40614 0.91381 0.35173 -0.20307 -0.91381 0.86603 -0.50000 0.00000 0.86603 -0.50000 0.00000 0.35173 -0.20307 0.91381 0.35173 0.20307 -0.91381 0.86603 0.50000 0.00000 0.86603 0.50000 -0.00000 0.35173 0.20307 0.91381 0.00000 0.40614 -0.91381 0.00000 1.00000 0.00000 0.00000 1.00000 -0.00000 0.00000 0.40614 0.91381 -0.35173 0.20307 -0.91381 -0.86603 0.50000 0.00000 -0.86603 0.50000 0.00000 -0.35173 0.20307 0.91381 -0.35173 -0.20307 -0.91381 -0.86603 -0.50000 0.00000 -0.86603 -0.50000 0.00000 -0.35173 -0.20307 0.91381 0.00000 -0.40614 -0.91381 0.00000 -1.00000 0.00000 0.00000 -1.00000 0.00000 0.00000 -0.40614 0.91381 0.35173 -0.20307 -0.91381 0.86603 -0.50000 0.00000 0.86603 -0.50000 0.00000 0.35173 -0.20307 0.91381 0.35173 0.20307 -0.91381 0.86603 0.50000 0.00000 0.86603 0.50000 -0.00000 0.35173 0.20307 0.91381 0.00000 0.40614 -0.91381 0.00000 1.00000 0.00000 0.00000 1.00000 -0.00000 0.00000 0.40614 0.91381 -0.35173 0.20307 -0.91381 -0.86603 0.50000 0.00000 -0.86603 0.50000 0.00000 -0.35173 0.20307 0.91381 -0.35173 -0.20307 -0.91381 -0.86603 -0.50000 0.00000 -0.86603 -0.50000 0.00000 -0.35173 -0.20307 0.91381 0.00000 -0.40614 -0.91381 0.00000 -1.00000 0.00000 0.00000 -1.00000 0.00000 0.00000 -0.40614 0.91381 0.35173 -0.20307 -0.91381 0.86603 -0.50000 0.00000 0.86603 -0.50000 0.00000 0.35173 -0.20307 0.91381 0.35173 0.20307 -0.91381 0.86603 0.50000 0.00000 0.86603 0.50000 -0.00000 0.35173 0.20307 0.91381 0.00000 0.40614 -0.91381 0.00000 1.00000 0.00000 0.00000 1.00000 -0.00000 0.00000 0.40614 0.91381 -0.35173 0.20307 -0.91381 -0.86603 0.50000 0.00000 -0.86603 0.50000 0.00000 -0.35173 0.20307 0.91381 -0.35173 -0.20307 -0.91381 -0.86603 -0.50000 0.00000 -0.86603 -0.50000 0.00000 -0.35173 -0.20307 0.91381 0.00000 -0.40614 -0.91381 0.00000 -1.00000 0.00000 0.00000 -1.00000 0.00000 0.00000 -0.40614 0.91381 0.35173 -0.20307 -0.91381 0.86603 -0.50000 0.00000 0.86603 -0.50000 0.00000 0.35173 -0.20307 0.91381 0.35173 0.20307 -0.91381 0.86603 0.50000 0.00000 0.86603 0.50000 -0.00000 0.35173 0.20307 0.91381 0.00000 0.40614 -0.91381 0.00000 1.00000 0.00000 0.00000 1.00000 -0.00000 0.00000 0.40614 0.91381 -0.35173 0.20307 -0.91381 -0.86603 0.50000 0.00000 -0.86603 0.50000 0.00000 -0.35173 0.20307 0.91381 -0.35173 -0.20307 -0.91381 -0.86603 -0.50000 0.00000 -0.86603 -0.50000 0.00000 -0.35173 -0.20307 0.91381 0.00000 -0.40614 -0.91381 0.00000 -1.00000 0.00000 0.00000 -1.00000 0.00000 0.00000 -0.40614 0.91381 0.35173 -0.20307 -0.91381 0.86603 -0.50000 0.00000 0.86603 -0.50000 0.00000 0.35173 -0.20307 0.91381 0.35173 0.20307 -0.91381 0.86603 0.50000 0.00000 0.86603 0.50000 -0.00000 0.35173 0.20307 0.91381 0.00000 0.40614 -0.91381 0.00000 1.00000 0.00000 0.00000 1.00000 -0.00000 0.00000 0.40614 0.91381 -0.35173 0.20307 -0.91381 -0.86603 0.50000 0.00000 -0.86603 0.50000 0.00000 -0.35173 0.20307 0.91381 -0.35173 -0.20307 -0.91381 -0.86603 -0.50000 0.00000 -0.86603 -0.50000 0.00000 -0.35173 -0.20307 0.91381 0.00000 -0.40614 -0.91381 0.00000 -1.00000 0.00000 0.00000 -1.00000 0.00000 0.00000 -0.40614 0.91381 0.35173 -0.20307 -0.91381 0.86603 -0.50000 0.00000 0.86603 -0.50000 0.00000 0.35173 -0.20307 0.91381 0.35173 0.20307 -0.91381 0.86603 0.50000 0.00000 0.86603 0.50000 -0.00000 0.35173 0.20307 0.91381 0.00000 0.40614 -0.91381 0.00000 1.00000 0.00000 0.00000 1.00000 -0.00000 0.00000 0.40614 0.91381 -0.35173 0.20307 -0.91381 -0.86603 0.50000 0.00000 -0.86603 0.50000 0.00000 -0.35173 0.20307 0.91381 -0.35173 -0.20307 -0.91381 -0.86603 -0.50000 0.00000 -0.86603 -0.50000 0.00000 -0.35173 -0.20307 0.91381 0.00000 -0.40614 -0.91381 0.00000 -1.00000 0.00000 0.00000 -1.00000 0.00000 0.00000 -0.40614 0.91381 0.35173 -0.20307 -0.91381 0.86603 -0.50000 0.00000 0.86603 -0.50000 0.00000 0.35173 -0.20307 0.91381 0.35173 0.20307 -0.91381 0.86603 0.50000 0.00000 0.86603 0.50000 -0.00000 0.35173 0.20307 0.91381 0.00000 0.40614 -0.91381 0.00000 1.00000 0.00000 0.00000 1.00000 -0.00000 0.00000 0.40614 0.91381 -0.35173 0.20307 -0.91381 -0.86603 0.50000 0.00000 -0.86603 0.50000 0.00000 -0.35173 0.20307 0.91381 -0.35173 -0.20307 -0.91381 -0.86603 -0.50000 0.00000 -0.86603 -0.50000 0.00000 -0.35173 -0.20307 0.91381 0.00000 -0.40614 -0.91381 0.00000 -1.00000 0.00000 0.00000 -1.00000 0.00000 0.00000 -0.40614 0.91381 0.35173 -0.20307 -0.91381 0.86603 -0.50000 0.00000 0.86603 -0.50000 0.00000 0.35173 -0.20307 0.91381</float_array><technique_common><accessor source="#normals-array" count="672" stride="3"><param name="X" type="float"/><param name="Y" type="float"/><param name="Z" type="float"/></accessor></technique_common></source>
<vertices id="vertices"><input semantic="POSITION" source="#positions"/></vertices><triangles count="672"><input semantic="VERTEX" source="#vertices" offset="0"/><input semantic="NORMAL" source="#normals" offset="1"/><p>0 0 2 0 1 0 1 1 2 1 8 1 1 2 8 2 7 2 7 3 8 3 13 3 0 4 3 4 2 4 2 5 3 5 9 5 2 6 9 6 8 6 8 7 9 7 13 7 0 8 4 8 3 8 3 9 4 9 10 9 3 10 10 10 9 10 9 11 10 11 13 11 0 12 5 12 4 12 4 13 5 13 11 13 4 14 11 14 10 14 10 15 11 15 13 15 0 16 6 16 5 16 5 17 6 17 12 17 5 18 12 18 11 18 11 19 12 19 13 19 0 20 1 20 6 20 6 21 1 21 7 21 6 22 7 22 12 22 12 23 7 23 13 23 14 24 16 24 15 24 15 25 16 25 22 25 15 26 22 26 21 26 21 27 22 27 27 27 14 28 17 28 16 28 16 29 17 29 23 29 16 30 23 30 22 30 22 31 23 31 27 31 14 32 18 32 17 32 17 33 18 33 24 33 17 34 24 34 23 34 23 35 24 35 27 35 14 36 19 36 18 36 18 37 19 37 25 37 18 38 25 38 24 38 24 39 25 39 27 39 14 40 20 40 19 40 19 41 20 41 26 41 19 42 26 42 25 42 25 43 26 43 27 43 14 44 15 44 20 44 20 45 15 45 21 45 20 46 21 46 26 46 26 47 21 47 27 47 28 48 30 48 29 48 29 49 30 49 36 49 29 50 36 50 35 50 35 51 36 51 41 51 28 52 31 52 30 52 30 53 31 53 37 53 30 54 37 54 36 54 36 55 37 55 41 55 28 56 32 56 31 56 31 57 32 57 38 57 31 58 38 58 37 58 37 59 38 59 41 59 28 60 33 60 32 60 32 61 33 61 39 61 32 62 39 62 38 62 38 63 39 63 41 63 28 64 34 64 33 64 33 65 34 65 40 65 33 66 40 66 39 66 39 67 40 67 41 67 28 68 29 68 34 68 34 69 29 69 35 69 34 70 35 70 40 70 40 71 35 71 41 71 42 72 44 72 43 72 43 73 44 73 50 73 43 74 50 74 49 74 49 75 50 75 55 75 42 76 45 76 44 76 44 77 45 77 51 77 44 78 51 78 50 78 50 79 51 79 55 79 42 80 46 80 45 80 45 81 46 81 52 81 45 82 52 82 51 82 51 83 52 83 55 83 42 84 47 84 46 84 46 85 47 85 53 85 46 86 53 86 52 86 52 87 53 87 55 87 42 88 48 88 47 88 47 89 48 89 54 89 47 90 54 90 53 90 53 91 54 91 55 91 42 92 43 92 48 92 48 93 43 93 49 93 48 94 49 94 54 94 54 95 49 95 55 95 56 96 58 96 57 96 57 97 58 97 64 97 57 98 64 98 63 98 63 99 64 99 69 99 56 100 59 100 58 100 58 101 59 101 65 101 58 102 65 102 64 102 64 103 65 103 69 103 56 104 60 104 59 104 59 105 60 105 66 105 59 106 66 106 65 106 65 107 66 107 69 107 56 108 61 108 60 108 60 109 61 109 67 109 60 110 67 110 66 110 66 111 67 111 69 111 56 112 62 112 61 112 61 113 62 113 68 113 61 114 68 114 67 114 67 115 68 115 69 115 56 116 57 116 62 116 62 117 57 117 63 117 62 118 63 118 68 118 68 119 63 119 69 119 70 120 72 120 71 120 71 121 72 121 78 121 71 122 78 122 77 122 77 123 78 123 83 123 70 124 73 124 72 124 72 125 73 125 79 125 72 126 79 126 78 126 78 127 79 127 83 127 70 128 74 128 73 128 73 129 74 129 80 129 73 130 80 130 79 130 79 131 80 131 83 131 70 132 75 132 74 132 74 133 75 133 81 133 74 134 81 134 80 134 80 135 81 135 83 135 70 136 76 136 75 136 75 137 76 137 82 137 75 138 82 138 81 138 81 139 82 139 83 139 70 140 71 140 76 140 76 141 71 141 77 141 76 142 77 142 82 142 82 143 77 143 83 143 84 144 86 144 85 144 85 145 86 145 92 145 85 146 92 146 91 146 91 147 92 147 97 147 84 148 87 148 86 148 86 149 87 149 93 149 86 150 93 150 92 150 92 151 93 151 97 151 84 152 88 152 87 152 87 153 88 153 94 153 87 154 94 154 93 154 93 155 94 155 97 155 84 156 89 156 88 156 88 157 89 157 95 157 88 158 95 158 94 158 94 159 95 159 97 159 84 160 90 160 89 160 89 161 90 161 96 161 89 162 96 162 95 162 95 163 96 163 97 163 84 164 85 164 90 164 90 165 85 165 91 165 90 166 91 166 96 166 96 167 91 167 97 167 98 168 100 168 99 168 99 169 100 169 106 169 99 170 106 170 105 170 105 171 106 171 111 171 98 172 101 172 100 172 100 173 101 173 107 173 100 174 107 174 106 174 106 175 107 175 111 175 98 176 102 176 101 176 101 177 102 177 108 177 101 178 108 178 107 178 107 179 108 179 111 179 98 180 103 180 102 180 102 181 103 181 109 181 102 182 109 182 108 182 108 183 109 183 111 183 98 184 104 184 103 184 103 185 104 185 110 185 103 186 110 186 109 186 109 187 110 187 111 187 98 188 99 188 104 188 104 189 99 189 105 189 104 190 105 190 110 190 110 191 105 191 111 191 112 192 114 192 113 192 113 193 114 193 120 193 113 194 120 194 119 194 119 195 120 195 125 195 112 196 115 196 114 196 114 197 115 197 121 197 114 198 121 198 120 198 120 199 121 199 125 199 112 200 116 200 115 200 115 201 116 201 122 201 115 202 122 202 121 202 121 203 122 203 125 203 112 204 117 204 116 204 116 205 117 205 123 205 116 206 123 206 122 206 122 207 123 207 125 207 112 208 118 208 117 208 117 209 118 209 124 209 117 210 124 210 123 210 123 211 124 211 125 211 112 212 113 212 118 212 118 213 113 213 119 213 118 214 119 214 124 214 124 215 119 215 125 215 126 216 128 216 127 216 127 217 128 217 134 217 127 218 134 218 133 218 133 219 134 219 139 219 126 220 129 220 128 220 128 221 129 221 135 221 128 222 135 222 134 222 134 223 135 223 139 223 126 224 130 224 129 224 129 225 130 225 136 225 129 226 136 226 135 226 135 227 136 227 139 227 126 228 131 228 130 228 130 229 131 229 137 229 130 230 137 230 136 230 136 231 137 231 139 231 126 232 132 232 131 232 131 233 132 233 138 233 131 234 138 234 137 234 137 235 138 235 139 235 126 236 127 236 132 236 132 237 127 237 133 237 132 238 133 238 138 238 138 239 133 239 139 239 140 240 142 240 141 240 141 241 142 241 148 241 141 242 148 242 147 242 147 243 148 243 153 243 140 244 143 244 142 244 142 245 143 245 149 245 142 246 149 246 148 246 148 247 149 247 153 247 140 248 144 248 143 248 143 249 144 249 150 249 143 250 150 250 149 250 149 251 150 251 153 251 140 252 145 252 144 252 144 253 145 253 151 253 144 254 151 254 150 254 150 255 151 255 153 255 140 256 146 256 145 256 145 257 146 257 152 257 145 258 152 258 151 258 151 259 152 259 153 259 140 260 141 260 146 260 146 261 141 261 147 261 146 262 147 262 152 262 152 263 147 263 153 263 154 264 156 264 155 264 155 265 156 265 162 265 155 266 162 266 161 266 161 267 162 267 167 267 154 268 157 268 156 268 156 269 157 269 163 269 156 270 163 270 162 270 162 271 163 271 167 271 154 272 158 272 157 272 157 273 158 273 164 273 157 274 164 274 163 274 163 275 164 275 167 275 154 276 159 276 158 276 158 277 159 277 165 277 158 278 165 278 164 278 164 279 165 279 167 279 154 280 160 280 159 280 159 281 160 281 166 281 159 282 166 282 165 282 165 283 166 283 167 283 154 284 155 284 160 284 160 285 155 285 161 285 160 286 161 286 166 286 166 287 161 287 167 287 168 288 170 288 169 288 169 289 170 289 176 289 169 290 176 290 175 290 175 291 176 291 181 291 168 292 171 292 170 292 170 293 171 293 177 293 170 294 177 294 176 294 176 295 177 295 181 295 168 296 172 296 171 296 171 297 172 297 178 297 171 298 178 298 177 298 177 299 178 299 181 299 168 300 173 300 172 300 172 301 173 301 179 301 172 302 179 302 178 302 178 303 179 303 181 303 168 304 174 304 173 304 173 305 174 305 180 305 173 306 180 306 179 306 179 307 180 307 181 307 168 308 169 308 174 308 174 309 169 309 175 309 174 310 175 310 180 310 180 311 175 311 181 311 182 312 184 312 183 312 183 313 184 313 190 313 183 314 190 314 189 314 189 315 190 315 195 315 182 316 185 316 184 316 184 317 185 317 191 317 184 318 191 318 190 318 190 319 191 319 195 319 182 320 186 320 185 320 185 321 186 321 192 321 185 322 192 322 191 322 191 323 192 323 195 323 182 324 187 324 186 324 186 325 187 325 193 325 186 326 193 326 192 326 192 327 193 327 195 327 182 328 188 328 187 328 187 329 188 329 194 329 187 330 194 330 193 330 193 331 194 331 195 331 182 332 183 332 188 332 188 333 183 333 189 333 188 334 189 334 194 334 194 335 189 335 195 335 196 336 198 336 197 336 197 337 198 337 204 337 197 338 204 338 203 338 203 339 204 339 209 339 196 340 199 340 198 340 198 341 199 341 205 341 198 342 205 342 204 342 204 343 205 343 209 343 196 344 200 344 199 344 199 345 200 345 206 345 199 346 206 346 205 346 205 347 206 347 209 347 196 348 201 348 200 348 200 349 201 349 207 349 200 350 207 350 206 350 206 351 207 351 209 351 196 352 202 352 201 352 201 353 202 353 208 353 201 354 208 354 207 354 207 355 208 355 209 355 196 356 197 356 202 356 202 357 197 357 203 357 202 358 203 358 208 358 208 359 203 359 209 359 210 360 212 360 211 360 211 361 212 361 218 361 211 362 218 362 217 362 217 363 218 363 223 363 210 364 213 364 212 364 212 365 213 365 219 365 212 366 219 366 218 366 218 367 219 367 223 367 210 368 214 368 213 368 213 369 214 369 220 369 213 370 220 370 219 370 219 371 220 371 223 371 210 372 215 372 214 372 214 373 215 373 221 373 214 374 221 374 220 374 220 375 221 375 223 375 210 376 216 376 215 376 215 377 216 377 222 377 215 378 222 378 221 378 221 379 222 379 223 379 210 380 211 380 216 380 216 381 211 381 217 381 216 382 217 382 222 382 222 383 217 383 223 383 224 384 226 384 225 384 225 385 226 385 232 385 225 386 232 386 231 386 231 387 232 387 237 387 224 388 227 388 226 388 226 389 227 389 233 389 226 390 233 390 232 390 232 391 233 391 237 391 224 392 228 392 227 392 227 393 228 393 234 393 227 394 234 394 233 394 233 395 234 395 237 395 224 396 229 396 228 396 228 397 229 397 235 397 228 398 235 398 234 398 234 399 235 399 237 399 224 400 230 400 229 400 229 401 230 401 236 401 229 402 236 402 235 402 235 403 236 403 237 403 224 404 225 404 230 404 230 405 225 405 231 405 230 406 231 406 236 406 236 407 231 407 237 407 238 408 240 408 239 408 239 409 240 409 246 409 239 410 246 410 245 410 245 411 246 411 251 411 238 412 241 412 240 412 240 413 241 413 247 413 240 414 247 414 246 414 246 415 247 415 251 415 238 416 242 416 241 416 241 417 242 417 248 417 241 418 248 418 247 418 247 419 248 419 251 419 238 420 243 420 242 420 242 421 243 421 249 421 242 422 249 422 248 422 248 423 249 423 251 423 238 424 244 424 243 424 243 425 244 425 250 425 243 426 250 426 249 426 249 427 250 427 251 427 238 428 239 428 244 428 244 429 239 429 245 429 244 430 245 430 250 430 250 431 245 431 251 431 252 432 254 432 253 432 253 433 254 433 260 433 253 434 260 434 259 434 259 435 260 435 265 435 252 436 255 436 254 436 254 437 255 437 261 437 254 438 261 438 260 438 260 439 261 439 265 439 252 440 256 440 255 440 255 441 256 441 262 441 255 442 262 442 261 442 261 443 262 443 265 443 252 444 257 444 256 444 256 445 257 445 263 445 256 446 263 446 262 446 262 447 263 447 265 447 252 448 258 448 257 448 257 449 258 449 264 449 257 450 264 450 263 450 263 451 264 451 265 451 252 452 253 452 258 452 258 453 253 453 259 453 258 454 259 454 264 454 264 455 259 455 265 455 266 456 268 456 267 456 267 457 268 457 274 457 267 458 274 458 273 458 273 459 274 459 279 459 266 460 269 460 268 460 268 461 269 461 275 461 268 462 275 462 274 462 274 463 275 463 279 463 266 464 270 464 269 464 269 465 270 465 276 465 269 466 276 466 275 466 275 467 276 467 279 467 266 468 271 468 270 468 270 469 271 469 277 469 270 470 277 470 276 470 276 471 277 471 279 471 266 472 272 472 271 472 271 473 272 473 278 473 271 474 278 474 277 474 277 475 278 475 279 475 266 476 267 476 272 476 272 477 267 477 273 477 272 478 273 478 278 478 278 479 273 479 279 479 280 480 282 480 281 480 281 481 282 481 288 481 281 482 288 482 287 482 287 483 288 483 293 483 280 484 283 484 282 484 282 485 283 485 289 485 282 486 289 486 288 486 288 487 289 487 293 487 280 488 284 488 283 488 283 489 284 489 290 489 283 490 290 490 289 490 289 491 290 491 293 491 280 492 285 492 284 492 284 493 285 493 291 493 284 494 291 494 290 494 290 495 291 495 293 495 280 496 286 496 285 496 285 497 286 497 292 497 285 498 292 498 291 498 291 499 292 499 293 499 280 500 281 500 286 500 286 501 281 501 287 501 286 502 287 502 292 502 292 503 287 503 293 503 294 504 296 504 295 504 295 505 296 505 302 505 295 506 302 506 301 506 301 507 302 507 307 507 294 508 297 508 296 508 296 509 297 509 303 509 296 510 303 510 302 510 302 511 303 511 307 511 294 512 298 512 297 512 297 513 298 513 304 513 297 514 304 514 303 514 303 515 304 515 307 515 294 516 299 516 298 516 298 517 299 517 305 517 298 518 305 518 304 518 304 519 305 519 307 519 294 520 300 520 299 520 299 521 300 521 306 521 299 522 306 522 305 522 305 523 306 523 307 523 294 524 295 524 300 524 300 525 295 525 301 525 300 526 301 526 306 526 306 527 301 527 307 527 308 528 310 528 309 528 309 529 310 529 316 529 309 530 316 530 315 530 315 531 316 531 321 531 308 532 311 532 310 532 310 533 311 533 317 533 310 534 317 534 316 534 316 535 317 535 321 535 308 536 312 536 311 536 311 537 312 537 318 537 311 538 318 538 317 538 317 539 318 539 321 539 308 540 313 540 312 540 312 541 313 541 319 541 312 542 319 542 318 542 318 543 319 543 321 543 308 544 314 544 313 544 313 545 314 545 320 545 313 546 320 546 319 546 319 547 320 547 321 547 308 548 309 548 314 548 314 549 309 549 315 549 314 550 315 550 320 550 320 551 315 551 321 551 322 552 324 552 323 552 323 553 324 553 330 553 323 554 330 554 329 554 329 555 330 555 335 555 322 556 325 556 324 556 324 557 325 557 331 557 324 558 331 558 330 558 330 559 331 559 335 559 322 560 326 560 325 560 325 561 326 561 332 561 325 562 332 562 331 562 331 563 332 563 335 563 322 564 327 564 326 564 326 565 327 565 333 565 326 566 333 566 332 566 332 567 333 567 335 567 322 568 328 568 327 568 327 569 328 569 334 569 327 570 334 570 333 570 333 571 334 571 335 571 322 572 323 572 328 572 328 573 323 573 329 573 328 574 329 574 334 574 334 575 329 575 335 575 336 576 338 576 337 576 337 577 338 577 344 577 337 578 344 578 343 578 343 579 344 579 349 579 336 580 339 580 338 580 338 581 339 581 345 581 338 582 345 582 344 582 344 583 345 583 349 583 336 584 340 584 339 584 339 585 340 585 346 585 339 586 346 586 345 586 345 587 346 587 349 587 336 588 341 588 340 588 340 589 341 589 347 589 340 590 347 590 346 590 346 591 347 591 349 591 336 592 342 592 341 592 341 593 342 593 348 593 341 594 348 594 347 594 347 595 348 595 349 595 336 596 337 596 342 596 342 597 337 597 343 597 342 598 343 598 348 598 348 599 343 599 349 599 350 600 352 600 351 600 351 601 352 601 358 601 351 602 358 602 357 602 357 603 358 603 363 603 350 604 353 604 352 604 352 605 353 605 359 605 352 606 359 606 358 606 358 607 359 607 363 607 350 608 354 608 353 608 353 609 354 609 360 609 353 610 360 610 359 610 359 611 360 611 363 611 350 612 355 612 354 612 354 613 355 613 361 613 354 614 361 614 360 614 360 615 361 615 363 615 350 616 356 616 355 616 355 617 356 617 362 617 355 618 362 618 361 618 361 619 362 619 363 619 350 620 351 620 356 620 356 621 351 621 357 621 356 622 357 622 362 622 362 623 357 623 363 623 364 624 366 624 365 624 365 625 366 625 372 625 365 626 372 626 371 626 371 627 372 627 377 627 364 628 367 628 366 628 366 629 367 629 373 629 366 630 373 630 372 630 372 631 373 631 377 631 364 632 368 632 367 632 367 633 368 633 374 633 367 634 374 634 373 634 373 635 374 635 377 635 364 636 369 636 368 636 368 637 369 637 375 637 368 638 375 638 374 638 374 639 375 639 377 639 364 640 370 640 369 640 369 641 370 641 376 641 369 642 376 642 375 642 375 643 376 643 377 643 364 644 365 644 370 644 370 645 365 645 371 645 370 646 371 646 376 646 376 647 371 647 377 647 378 648 380 648 379 648 379 649 380 649 386 649 379 650 386 650 385 650 385 651 386 651 391 651 378 652 381 652 380 652 380 653 381 653 387 653 380 654 387 654 386 654 386 655 387 655 391 655 378 656 382 656 381 656 381 657 382 657 388 657 381 658 388 658 387 658 387 659 388 659 391 659 378 660 383 660 382 660 382 661 383 661 389 661 382 662 389 662 388 662 388 663 389 663 391 663 378 664 384 664 383 664 383 665 384 665 390 665 383 666 390 666 389 666 389 667 390 667 391 667 378 668 379 668 384 668 384 669 379 669 385 669 384 670 385 670 390 670 390 671 385 671 391 671</p></triangles>
</mesh></geometry></library_geometries><library_visual_scenes><visual_scene id="Scene"><node id="mesh"><instance_geometry url="#geometry"/></node></visual_scene></library_visual_scenes><scene><instance_visual_scene url="#Scene"/></scene></COLLADA>