<?xml version="1.0" encoding="UTF-8"?>
<COLLADA xmlns="http://www.collada.org/2005/11/COLLADASchema" version="1.4.1">
<asset><contributor><authoring_tool>Summit Estate procedural mesh exporter</authoring_tool></contributor><created>2026-09-11T00:00:00Z</created><modified>2026-09-11T00:00:00Z</modified><unit name="meter" meter="1"/><up_axis>Z_UP</up_axis></asset>
<library_geometries><geometry id="geometry" name="geometry"><mesh>
<source id="positions"><float_array id="positions-array" count="1098">-81.00000 95.00000 53.35000 -69.00000 95.00000 53.35000 -69.00000 105.00000 53.35000 -81.00000 105.00000 53.35000 -77.00000 100.00000 55.15000 -73.00000 100.00000 55.15000 -80.68850 95.15000 49.55500 -80.68850 104.85000 49.55500 -80.71150 104.85000 49.55500 -80.71150 95.15000 49.55500 -80.28850 95.15000 49.55500 -80.28850 104.85000 49.55500 -80.31150 104.85000 49.55500 -80.31150 95.15000 49.55500 -79.88850 95.15000 49.55500 -79.88850 104.85000 49.55500 -79.91150 104.85000 49.55500 -79.91150 95.15000 49.55500 -79.48850 95.15000 49.55500 -79.48850 104.85000 49.55500 -79.51150 104.85000 49.55500 -79.51150 95.15000 49.55500 -79.08850 95.15000 49.55500 -79.08850 104.85000 49.55500 -79.11150 104.85000 49.55500 -79.11150 95.15000 49.55500 -78.68850 95.15000 49.55500 -78.68850 104.85000 49.55500 -78.71150 104.85000 49.55500 -78.71150 95.15000 49.55500 -78.28850 95.15000 49.55500 -78.28850 104.85000 49.55500 -78.31150 104.85000 49.55500 -78.31150 95.15000 49.55500 -77.88850 95.15000 49.55500 -77.88850 104.85000 49.55500 -77.91150 104.85000 49.55500 -77.91150 95.15000 49.55500 -77.48850 95.15000 49.55500 -77.48850 104.85000 49.55500 -77.51150 104.85000 49.55500 -77.51150 95.15000 49.55500 -77.08850 95.15000 49.55500 -77.08850 104.85000 49.55500 -77.11150 104.85000 49.55500 -77.11150 95.15000 49.55500 -76.68850 95.15000 49.55500 -76.68850 104.85000 49.55500 -76.71150 104.85000 49.55500 -76.71150 95.15000 49.55500 -76.28850 95.15000 49.55500 -76.28850 104.85000 49.55500 -76.31150 104.85000 49.55500 -76.31150 95.15000 49.55500 -75.88850 95.15000 49.55500 -75.88850 104.85000 49.55500 -75.91150 104.85000 49.55500 -75.91150 95.15000 49.55500 -75.48850 95.15000 49.55500 -75.48850 104.85000 49.55500 -75.51150 104.85000 49.55500 -75.51150 95.15000 49.55500 -75.08850 95.15000 49.55500 -75.08850 104.85000 49.55500 -75.11150 104.85000 49.55500 -75.11150 95.15000 49.55500 -74.68850 95.15000 49.55500 -74.68850 104.85000 49.55500 -74.71150 104.85000 49.55500 -74.71150 95.15000 49.55500 -74.28850 95.15000 49.55500 -74.28850 104.85000 49.55500 -74.31150 104.85000 49.55500 -74.31150 95.15000 49.55500 -73.88850 95.15000 49.55500 -73.88850 104.85000 49.55500 -73.91150 104.85000 49.55500 -73.91150 95.15000 49.55500 -73.48850 95.15000 49.55500 -73.48850 104.85000 49.55500 -73.51150 104.85000 49.55500 -73.51150 95.15000 49.55500 -73.08850 95.15000 49.55500 -73.08850 104.85000 49.55500 -73.11150 104.85000 49.55500 -73.11150 95.15000 49.55500 -72.68850 95.15000 49.55500 -72.68850 104.85000 49.55500 -72.71150 104.85000 49.55500 -72.71150 95.15000 49.55500 -72.28850 95.15000 49.55500 -72.28850 104.85000 49.55500 -72.31150 104.85000 49.55500 -72.31150 95.15000 49.55500 -71.88850 95.15000 49.55500 -71.88850 104.85000 49.55500 -71.91150 104.85000 49.55500 -71.91150 95.15000 49.55500 -71.48850 95.15000 49.55500 -71.48850 104.85000 49.55500 -71.51150 104.85000 49.55500 -71.51150 95.15000 49.55500 -71.08850 95.15000 49.55500 -71.08850 104.85000 49.55500 -71.11150 104.85000 49.55500 -71.11150 95.15000 49.55500 -70.68850 95.15000 49.55500 -70.68850 104.85000 49.55500 -70.71150 104.85000 49.55500 -70.71150 95.15000 49.55500 -70.28850 95.15000 49.55500 -70.28850 104.85000 49.55500 -70.31150 104.85000 49.55500 -70.31150 95.15000 49.55500 -69.88850 95.15000 49.55500 -69.88850 104.85000 49.55500 -69.91150 104.85000 49.55500 -69.91150 95.15000 49.55500 -69.48850 95.15000 49.55500 -69.48850 104.85000 49.55500 -69.51150 104.85000 49.55500 -69.51150 95.15000 49.55500 -69.08850 95.15000 49.55500 -69.08850 104.85000 49.55500 -69.11150 104.85000 49.55500 -69.11150 95.15000 49.55500 -68.68850 97.85000 49.55500 -68.68850 102.15000 49.55500 -68.71150 102.15000 49.55500 -68.71150 97.85000 49.55500 -68.28850 97.85000 49.55500 -68.28850 102.15000 49.55500 -68.31150 102.15000 49.55500 -68.31150 97.85000 49.55500 -67.88850 97.85000 49.55500 -67.88850 102.15000 49.55500 -67.91150 102.15000 49.55500 -67.91150 97.85000 49.55500 -67.48850 97.85000 49.55500 -67.48850 102.15000 49.55500 -67.51150 102.15000 49.55500 -67.51150 97.85000 49.55500 -67.08850 97.85000 49.55500 -67.08850 102.15000 49.55500 -67.11150 102.15000 49.55500 -67.11150 97.85000 49.55500 -66.68850 97.85000 49.55500 -66.68850 102.15000 49.55500 -66.71150 102.15000 49.55500 -66.71150 97.85000 49.55500 -66.28850 97.85000 49.55500 -66.28850 102.15000 49.55500 -66.31150 102.15000 49.55500 -66.31150 97.85000 49.55500 -65.88850 97.85000 49.55500 -65.88850 102.15000 49.55500 -65.91150 102.15000 49.55500 -65.91150 97.85000 49.55500 -65.48850 97.85000 49.55500 -65.48850 102.15000 49.55500 -65.51150 102.15000 49.55500 -65.51150 97.85000 49.55500 -65.08850 97.85000 49.55500 -65.08850 102.15000 49.55500 -65.11150 102.15000 49.55500 -65.11150 97.85000 49.55500 -64.68850 97.85000 49.55500 -64.68850 102.15000 49.55500 -64.71150 102.15000 49.55500 -64.71150 97.85000 49.55500 -64.28850 97.85000 49.55500 -64.28850 102.15000 49.55500 -64.31150 102.15000 49.55500 -64.31150 97.85000 49.55500 -63.88850 97.85000 49.55500 -63.88850 102.15000 49.55500 -63.91150 102.15000 49.55500 -63.91150 97.85000 49.55500 -63.48850 97.85000 49.55500 -63.48850 102.15000 49.55500 -63.51150 102.15000 49.55500 -63.51150 97.85000 49.55500 -63.08850 97.85000 49.55500 -63.08850 102.15000 49.55500 -63.11150 102.15000 49.55500 -63.11150 97.85000 49.55500 -62.68850 97.85000 49.55500 -62.68850 102.15000 49.55500 -62.71150 102.15000 49.55500 -62.71150 97.85000 49.55500 -62.28850 97.85000 49.55500 -62.28850 102.15000 49.55500 -62.31150 102.15000 49.55500 -62.31150 97.85000 49.55500 -61.88850 97.85000 49.55500 -61.88850 102.15000 49.55500 -61.91150 102.15000 49.55500 -61.91150 97.85000 49.55500 -61.48850 97.85000 49.55500 -61.48850 102.15000 49.55500 -61.51150 102.15000 49.55500 -61.51150 97.85000 49.55500 -61.08850 97.85000 49.55500 -61.08850 102.15000 49.55500 -61.11150 102.15000 49.55500 -61.11150 97.85000 49.55500 -60.68850 97.85000 49.55500 -60.68850 102.15000 49.55500 -60.71150 102.15000 49.55500 -60.71150 97.85000 49.55500 -60.28850 97.85000 49.55500 -60.28850 102.15000 49.55500 -60.31150 102.15000 49.55500 -60.31150 97.85000 49.55500 -59.88850 97.85000 49.55500 -59.88850 102.15000 49.55500 -59.91150 102.15000 49.55500 -59.91150 97.85000 49.55500 -59.48850 97.85000 49.55500 -59.48850 102.15000 49.55500 -59.51150 102.15000 49.55500 -59.51150 97.85000 49.55500 -59.08850 97.85000 49.55500 -59.08850 102.15000 49.55500 -59.11150 102.15000 49.55500 -59.11150 97.85000 49.55500 -58.68850 97.85000 49.55500 -58.68850 102.15000 49.55500 -58.71150 102.15000 49.55500 -58.71150 97.85000 49.55500 -58.28850 97.85000 49.55500 -58.28850 102.15000 49.55500 -58.31150 102.15000 49.55500 -58.31150 97.85000 49.55500 -57.88850 97.85000 49.55500 -57.88850 102.15000 49.55500 -57.91150 102.15000 49.55500 -57.91150 97.85000 49.55500 -57.48850 97.85000 49.55500 -57.48850 102.15000 49.55500 -57.51150 102.15000 49.55500 -57.51150 97.85000 49.55500 -57.08850 97.85000 49.55500 -57.08850 102.15000 49.55500 -57.11150 102.15000 49.55500 -57.11150 97.85000 49.55500 -56.68850 97.85000 49.55500 -56.68850 102.15000 49.55500 -56.71150 102.15000 49.55500 -56.71150 97.85000 49.55500 -56.28850 97.85000 49.55500 -56.28850 102.15000 49.55500 -56.31150 102.15000 49.55500 -56.31150 97.85000 49.55500 -55.88850 97.85000 49.55500 -55.88850 102.15000 49.55500 -55.91150 102.15000 49.55500 -55.91150 97.85000 49.55500 -55.48850 97.85000 49.55500 -55.48850 102.15000 49.55500 -55.51150 102.15000 49.55500 -55.51150 97.85000 49.55500 -55.08850 97.85000 49.55500 -55.08850 102.15000 49.55500 -55.11150 102.15000 49.55500 -55.11150 97.85000 49.55500 -54.68850 97.85000 49.55500 -54.68850 102.15000 49.55500 -54.71150 102.15000 49.55500 -54.71150 97.85000 49.55500 -54.28850 97.85000 49.55500 -54.28850 102.15000 49.55500 -54.31150 102.15000 49.55500 -54.31150 97.85000 49.55500 -53.88850 97.85000 49.55500 -53.88850 102.15000 49.55500 -53.91150 102.15000 49.55500 -53.91150 97.85000 49.55500 -53.48850 97.85000 49.55500 -53.48850 102.15000 49.55500 -53.51150 102.15000 49.55500 -53.51150 97.85000 49.55500 -53.08850 97.85000 49.55500 -53.08850 102.15000 49.55500 -53.11150 102.15000 49.55500 -53.11150 97.85000 49.55500 -52.68850 97.85000 49.55500 -52.68850 102.15000 49.55500 -52.71150 102.15000 49.55500 -52.71150 97.85000 49.55500 -52.28850 97.85000 49.55500 -52.28850 102.15000 49.55500 -52.31150 102.15000 49.55500 -52.31150 97.85000 49.55500 -51.88850 97.85000 49.55500 -51.88850 102.15000 49.55500 -51.91150 102.15000 49.55500 -51.91150 97.85000 49.55500 -51.48850 97.85000 49.55500 -51.48850 102.15000 49.55500 -51.51150 102.15000 49.55500 -51.51150 97.85000 49.55500 -51.08850 97.85000 49.55500 -51.08850 102.15000 49.55500 -51.11150 102.15000 49.55500 -51.11150 97.85000 49.55500 -50.68850 97.85000 49.55500 -50.68850 102.15000 49.55500 -50.71150 102.15000 49.55500 -50.71150 97.85000 49.55500 -50.28850 97.85000 49.55500 -50.28850 102.15000 49.55500 -50.31150 102.15000 49.55500 -50.31150 97.85000 49.55500 -49.88850 97.85000 49.55500 -49.88850 102.15000 49.55500 -49.91150 102.15000 49.55500 -49.91150 97.85000 49.55500 -49.48850 97.85000 49.55500 -49.48850 102.15000 49.55500 -49.51150 102.15000 49.55500 -49.51150 97.85000 49.55500 -49.08850 97.85000 49.55500 -49.08850 102.15000 49.55500 -49.11150 102.15000 49.55500 -49.11150 97.85000 49.55500 -48.68850 97.85000 49.55500 -48.68850 102.15000 49.55500 -48.71150 102.15000 49.55500 -48.71150 97.85000 49.55500 -48.28850 97.85000 49.55500 -48.28850 102.15000 49.55500 -48.31150 102.15000 49.55500 -48.31150 97.85000 49.55500 -47.88850 97.85000 49.55500 -47.88850 102.15000 49.55500 -47.91150 102.15000 49.55500 -47.91150 97.85000 49.55500 -47.48850 97.85000 49.55500 -47.48850 102.15000 49.55500 -47.51150 102.15000 49.55500 -47.51150 97.85000 49.55500 -47.08850 97.85000 49.55500 -47.08850 102.15000 49.55500 -47.11150 102.15000 49.55500 -47.11150 97.85000 49.55500 -46.68850 97.85000 49.55500 -46.68850 102.15000 49.55500 -46.71150 102.15000 49.55500 -46.71150 97.85000 49.55500 -46.28850 97.85000 49.55500 -46.28850 102.15000 49.55500 -46.31150 102.15000 49.55500 -46.31150 97.85000 49.55500 -45.88850 97.85000 49.55500 -45.88850 102.15000 49.55500 -45.91150 102.15000 49.55500 -45.91150 97.85000 49.55500 -45.48850 97.85000 49.55500 -45.48850 102.15000 49.55500 -45.51150 102.15000 49.55500 -45.51150 97.85000 49.55500 -45.08850 97.85000 49.55500 -45.08850 102.15000 49.55500 -45.11150 102.15000 49.55500 -45.11150 97.85000 49.55500</float_array><technique_common><accessor source="#positions-array" count="366" stride="3"><param name="X" type="float"/><param name="Y" type="float"/><param name="Z" type="float"/></accessor></technique_common></source>
<source id="normals"><float_array id="normals-array" count="558">0.00000 -0.33872 0.94089 0.00000 -0.33872 0.94089 0.41036 -0.00000 0.91192 0.00000 0.33872 0.94089 0.00000 0.33872 0.94089 -0.41036 0.00000 0.91192 0.00000 -0.00000 1.00000 0.00000 0.00000 1.00000 0.00000 -0.00000 1.00000 0.00000 0.00000 1.00000 0.00000 -0.00000 1.00000 0.00000 0.00000 1.00000 0.00000 -0.00000 1.00000 0.00000 0.00000 1.00000 0.00000 -0.00000 1.00000 0.00000 0.00000 1.00000 0.00000 -0.00000 1.00000 0.00000 0.00000 1.00000 0.00000 -0.00000 1.00000 0.00000 0.00000 1.00000 0.00000 -0.00000 1.00000 0.00000 0.00000 1.00000 0.00000 -0.00000 1.00000 0.00000 0.00000 1.00000 0.00000 -0.00000 1.00000 0.00000 0.00000 1.00000 0.00000 -0.00000 1.00000 0.00000 0.00000 1.00000 0.00000 -0.00000 1.00000 0.00000 0.00000 1.00000 0.00000 -0.00000 1.00000 0.00000 0.00000 1.00000 0.00000 -0.00000 1.00000 0.00000 0.00000 1.00000 0.00000 -0.00000 1.00000 0.00000 0.00000 1.00000 0.00000 -0.00000 1.00000 0.00000 0.00000 1.00000 0.00000 -0.00000 1.00000 0.00000 0.00000 1.00000 0.00000 -0.00000 1.00000 0.00000 0.00000 1.00000 0.00000 -0.00000 1.00000 0.00000 0.00000 1.00000 0.00000 -0.00000 1.00000 0.00000 0.00000 1.00000 0.00000 -0.00000 1.00000 0.00000 0.00000 1.00000 0.00000 -0.00000 1.00000 0.00000 0.00000 1.00000 0.00000 -0.00000 1.00000 0.00000 0.00000 1.00000 0.00000 -0.00000 1.00000 0.00000 0.00000 1.00000 0.00000 -0.00000 1.00000 0.00000 0.00000 1.00000 0.00000 -0.00000 1.00000 0.00000 0.00000 1.00000 0.00000 -0.00000 1.00000 0.00000 0.00000 1.00000 0.00000 -0.00000 1.00000 0.00000 0.00000 1.00000 0.00000 -0.00000 1.00000 0.00000 0.00000 1.00000 0.00000 -0.00000 1.00000 0.00000 0.00000 1.00000 0.00000 -0.00000 1.00000 0.00000 0.00000 1.00000 0.00000 -0.00000 1.00000 0.00000 0.00000 1.00000 0.00000 -0.00000 1.00000 0.00000 0.00000 1.00000 0.00000 -0.00000 1.00000 0.00000 0.00000 1.00000 0.00000 -0.00000 1.00000 0.00000 0.00000 1.00000 0.00000 -0.00000 1.00000 0.00000 0.00000 1.00000 0.00000 -0.00000 1.00000 0.00000 0.00000 1.00000 0.00000 -0.00000 1.00000 0.00000 0.00000 1.00000 0.00000 -0.00000 1.00000 0.00000 0.00000 1.00000 0.00000 -0.00000 1.00000 0.00000 0.00000 1.00000 0.00000 -0.00000 1.00000 0.00000 0.00000 1.00000 0.00000 -0.00000 1.00000 0.00000 0.00000 1.00000 0.00000 -0.00000 1.00000 0.00000 0.00000 1.00000 0.00000 -0.00000 1.00000 0.00000 0.00000 1.00000 0.00000 -0.00000 1.00000 0.00000 0.00000 1.00000 0.00000 -0.00000 1.00000 0.00000 0.00000 1.00000 0.00000 -0.00000 1.00000 0.00000 0.00000 1.00000 0.00000 -0.00000 1.00000 0.00000 0.00000 1.00000 0.00000 -0.00000 1.00000 0.00000 0.00000 1.00000 0.00000 -0.00000 1.00000 0.00000 0.00000 1.00000 0.00000 -0.00000 1.00000 0.00000 0.00000 1.00000 0.00000 -0.00000 1.00000 0.00000 0.00000 1.00000 0.00000 -0.00000 1.00000 0.00000 0.00000 1.00000 0.00000 -0.00000 1.00000 0.00000 0.00000 1.00000 0.00000 -0.00000 1.00000 0.00000 0.00000 1.00000 0.00000 -0.00000 1.00000 0.00000 0.00000 1.00000 0.00000 -0.00000 1.00000 0.00000 0.00000 1.00000 0.00000 -0.00000 1.00000 0.00000 0.00000 1.00000 0.00000 -0.00000 1.00000 0.00000 0.00000 1.00000 0.00000 -0.00000 1.00000 0.00000 0.00000 1.00000 0.00000 -0.00000 1.00000 0.00000 0.00000 1.00000 0.00000 -0.00000 1.00000 0.00000 0.00000 1.00000 0.00000 -0.00000 1.00000 0.00000 0.00000 1.00000 0.00000 -0.00000 1.00000 0.00000 0.00000 1.00000 0.00000 -0.00000 1.00000 0.00000 0.00000 1.00000 0.00000 -0.00000 1.00000 0.00000 0.00000 1.00000 0.00000 -0.00000 1.00000 0.00000 0.00000 1.00000 0.00000 -0.00000 1.00000 0.00000 0.00000 1.00000 0.00000 -0.00000 1.00000 0.00000 0.00000 1.00000 0.00000 -0.00000 1.00000 0.00000 0.00000 1.00000 0.00000 -0.00000 1.00000 0.00000 0.00000 1.00000 0.00000 -0.00000 1.00000 0.00000 0.00000 1.00000 0.00000 -0.00000 1.00000 0.00000 0.00000 1.00000 0.00000 -0.00000 1.00000 0.00000 0.00000 1.00000 0.00000 -0.00000 1.00000 0.00000 0.00000 1.00000 0.00000 -0.00000 1.00000 0.00000 0.00000 1.00000 0.00000 -0.00000 1.00000 0.00000 0.00000 1.00000 0.00000 -0.00000 1.00000 0.00000 0.00000 1.00000 0.00000 -0.00000 1.00000 0.00000 0.00000 1.00000 0.00000 -0.00000 1.00000 0.00000 0.00000 1.00000 0.00000 -0.00000 1.00000 0.00000 0.00000 1.00000 0.00000 -0.00000 1.00000 0.00000 0.00000 1.00000 0.00000 -0.00000 1.00000 0.00000 0.00000 1.00000 0.00000 -0.00000 1.00000 0.00000 0.00000 1.00000 0.00000 -0.00000 1.00000 0.00000 0.00000 1.00000 0.00000 -0.00000 1.00000 0.00000 0.00000 1.00000 0.00000 -0.00000 1.00000 0.00000 0.00000 1.00000 0.00000 -0.00000 1.00000 0.00000 0.00000 1.00000 0.00000 -0.00000 1.00000 0.00000 0.00000 1.00000 0.00000 -0.00000 1.00000 0.00000 0.00000 1.00000</float_array><technique_common><accessor source="#normals-array" count="186" stride="3"><param name="X" type="float"/><param name="Y" type="float"/><param name="Z" type="float"/></accessor></technique_common></source>
<vertices id="vertices"><input semantic="POSITION" source="#positions"/></vertices><triangles count="186"><input semantic="VERTEX" source="#vertices" offset="0"/><input semantic="NORMAL" source="#normals" offset="1"/><p>0 0 1 0 5 0 0 1 5 1 4 1 1 2 2 2 5 2 2 3 3 3 4 3 2 4 4 4 5 4 3 5 0 5 4 5 6 6 7 6 8 6 6 7 8 7 9 7 10 8 11 8 12 8 10 9 12 9 13 9 14 10 15 10 16 10 14 11 16 11 17 11 18 12 19 12 20 12 18 13 20 13 21 13 22 14 23 14 24 14 22 15 24 15 25 15 26 16 27 16 28 16 26 17 28 17 29 17 30 18 31 18 32 18 30 19 32 19 33 19 34 20 35 20 36 20 34 21 36 21 37 21 38 22 39 22 40 22 38 23 40 23 41 23 42 24 43 24 44 24 42 25 44 25 45 25 46 26 47 26 48 26 46 27 48 27 49 27 50 28 51 28 52 28 50 29 52 29 53 29 54 30 55 30 56 30 54 31 56 31 57 31 58 32 59 32 60 32 58 33 60 33 61 33 62 34 63 34 64 34 62 35 64 35 65 35 66 36 67 36 68 36 66 37 68 37 69 37 70 38 71 38 72 38 70 39 72 39 73 39 74 40 75 40 76 40 74 41 76 41 77 41 78 42 79 42 80 42 78 43 80 43 81 43 82 44 83 44 84 44 82 45 84 45 85 45 86 46 87 46 88 46 86 47 88 47 89 47 90 48 91 48 92 48 90 49 92 49 93 49 94 50 95 50 96 50 94 51 96 51 97 51 98 52 99 52 100 52 98 53 100 53 101 53 102 54 103 54 104 54 102 55 104 55 105 55 106 56 107 56 108 56 106 57 108 57 109 57 110 58 111 58 112 58 110 59 112 59 113 59 114 60 115 60 116 60 114 61 116 61 117 61 118 62 119 62 120 62 118 63 120 63 121 63 122 64 123 64 124 64 122 65 124 65 125 65 126 66 127 66 128 66 126 67 128 67 129 67 130 68 131 68 132 68 130 69 132 69 133 69 134 70 135 70 136 70 134 71 136 71 137 71 138 72 139 72 140 72 138 73 140 73 141 73 142 74 143 74 144 74 142 75 144 75 145 75 146 76 147 76 148 76 146 77 148 77 149 77 150 78 151 78 152 78 150 79 152 79 153 79 154 80 155 80 156 80 154 81 156 81 157 81 158 82 159 82 160 82 158 83 160 83 161 83 162 84 163 84 164 84 162 85 164 85 165 85 166 86 167 86 168 86 166 87 168 87 169 87 170 88 171 88 172 88 170 89 172 89 173 89 174 90 175 90 176 90 174 91 176 91 177 91 178 92 179 92 180 92 178 93 180 93 181 93 182 94 183 94 184 94 182 95 184 95 185 95 186 96 187 96 188 96 186 97 188 97 189 97 190 98 191 98 192 98 190 99 192 99 193 99 194 100 195 100 196 100 194 101 196 101 197 101 198 102 199 102 200 102 198 103 200 103 201 103 202 104 203 104 204 104 202 105 204 105 205 105 206 106 207 106 208 106 206 107 208 107 209 107 210 108 211 108 212 108 210 109 212 109 213 109 214 110 215 110 216 110 214 111 216 111 217 111 218 112 219 112 220 112 218 113 220 113 221 113 222 114 223 114 224 114 222 115 224 115 225 115 226 116 227 116 228 116 226 117 228 117 229 117 230 118 231 118 232 118 230 119 232 119 233 119 234 120 235 120 236 120 234 121 236 121 237 121 238 122 239 122 240 122 238 123 240 123 241 123 242 124 243 124 244 124 242 125 244 125 245 125 246 126 247 126 248 126 246 127 248 127 249 127 250 128 251 128 252 128 250 129 252 129 253 129 254 130 255 130 256 130 254 131 256 131 257 131 258 132 259 132 260 132 258 133 260 133 261 133 262 134 263 134 264 134 262 135 264 135 265 135 266 136 267 136 268 136 266 137 268 137 269 137 270 138 271 138 272 138 270 139 272 139 273 139 274 140 275 140 276 140 274 141 276 141 277 141 278 142 279 142 280 142 278 143 280 143 281 143 282 144 283 144 284 144 282 145 284 145 285 145 286 146 287 146 288 146 286 147 288 147 289 147 290 148 291 148 292 148 290 149 292 149 293 149 294 150 295 150 296 150 294 151 296 151 297 151 298 152 299 152 300 152 298 153 300 153 301 153 302 154 303 154 304 154 302 155 304 155 305 155 306 156 307 156 308 156 306 157 308 157 309 157 310 158 311 158 312 158 310 159 312 159 313 159 314 160 315 160 316 160 314 161 316 161 317 161 318 162 319 162 320 162 318 163 320 163 321 163 322 164 323 164 324 164 322 165 324 165 325 165 326 166 327 166 328 166 326 167 328 167 329 167 330 168 331 168 332 168 330 169 332 169 333 169 334 170 335 170 336 170 334 171 336 171 337 171 338 172 339 172 340 172 338 173 340 173 341 173 342 174 343 174 344 174 342 175 344 175 345 175 346 176 347 176 348 176 346 177 348 177 349 177 350 178 351 178 352 178 350 179 352 179 353 179 354 180 355 180 356 180 354 181 356 181 357 181 358 182 359 182 360 182 358 183 360 183 361 183 362 184 363 184 364 184 362 185 364 185 365 185</p></triangles>
</mesh></geometry></library_geometries><library_visual_scenes><visual_scene id="Scene"><node id="mesh"><instance_geometry url="#geometry"/></node></visual_scene></library_visual_scenes><scene><instance_visual_scene url="#Scene"/></scene></COLLADA>