<?xml version="1.0" encoding="UTF-8"?>
<COLLADA xmlns="http://www.collada.org/2005/11/COLLADASchema" version="1.4.1">
<asset><contributor><authoring_tool>Summit Estate procedural mesh exporter</authoring_tool></contributor><created>2026-09-11T00:00:00Z</created><modified>2026-09-11T00:00:00Z</modified><unit name="meter" meter="1"/><up_axis>Z_UP</up_axis></asset>
<library_geometries><geometry id="geometry" name="geometry"><mesh>
<source id="positions"><float_array id="positions-array" count="624">-79.75000 98.20000 46.70000 -79.78349 98.32500 46.70000 -79.87500 98.41651 46.70000 -80.00000 98.45000 46.70000 -80.12500 98.41651 46.70000 -80.21651 98.32500 46.70000 -80.25000 98.20000 46.70000 -80.21651 98.07500 46.70000 -80.12500 97.98349 46.70000 -80.00000 97.95000 46.70000 -79.87500 97.98349 46.70000 -79.78349 98.07500 46.70000 -79.75000 98.20000 49.90000 -79.78349 98.32500 49.90000 -79.87500 98.41651 49.90000 -80.00000 98.45000 49.90000 -80.12500 98.41651 49.90000 -80.21651 98.32500 49.90000 -80.25000 98.20000 49.90000 -80.21651 98.07500 49.90000 -80.12500 97.98349 49.90000 -80.00000 97.95000 49.90000 -79.87500 97.98349 49.90000 -79.78349 98.07500 49.90000 -80.00000 98.20000 46.70000 -80.00000 98.20000 49.90000 -79.75000 101.80000 46.70000 -79.78349 101.92500 46.70000 -79.87500 102.01651 46.70000 -80.00000 102.05000 46.70000 -80.12500 102.01651 46.70000 -80.21651 101.92500 46.70000 -80.25000 101.80000 46.70000 -80.21651 101.67500 46.70000 -80.12500 101.58349 46.70000 -80.00000 101.55000 46.70000 -79.87500 101.58349 46.70000 -79.78349 101.67500 46.70000 -79.75000 101.80000 49.90000 -79.78349 101.92500 49.90000 -79.87500 102.01651 49.90000 -80.00000 102.05000 49.90000 -80.12500 102.01651 49.90000 -80.21651 101.92500 49.90000 -80.25000 101.80000 49.90000 -80.21651 101.67500 49.90000 -80.12500 101.58349 49.90000 -80.00000 101.55000 49.90000 -79.87500 101.58349 49.90000 -79.78349 101.67500 49.90000 -80.00000 101.80000 46.70000 -80.00000 101.80000 49.90000 -69.75000 98.20000 46.70000 -69.78349 98.32500 46.70000 -69.87500 98.41651 46.70000 -70.00000 98.45000 46.70000 -70.12500 98.41651 46.70000 -70.21651 98.32500 46.70000 -70.25000 98.20000 46.70000 -70.21651 98.07500 46.70000 -70.12500 97.98349 46.70000 -70.00000 97.95000 46.70000 -69.87500 97.98349 46.70000 -69.78349 98.07500 46.70000 -69.75000 98.20000 49.90000 -69.78349 98.32500 49.90000 -69.87500 98.41651 49.90000 -70.00000 98.45000 49.90000 -70.12500 98.41651 49.90000 -70.21651 98.32500 49.90000 -70.25000 98.20000 49.90000 -70.21651 98.07500 49.90000 -70.12500 97.98349 49.90000 -70.00000 97.95000 49.90000 -69.87500 97.98349 49.90000 -69.78349 98.07500 49.90000 -70.00000 98.20000 46.70000 -70.00000 98.20000 49.90000 -69.75000 101.80000 46.70000 -69.78349 101.92500 46.70000 -69.87500 102.01651 46.70000 -70.00000 102.05000 46.70000 -70.12500 102.01651 46.70000 -70.21651 101.92500 46.70000 -70.25000 101.80000 46.70000 -70.21651 101.67500 46.70000 -70.12500 101.58349 46.70000 -70.00000 101.55000 46.70000 -69.87500 101.58349 46.70000 -69.78349 101.67500 46.70000 -69.75000 101.80000 49.90000 -69.78349 101.92500 49.90000 -69.87500 102.01651 49.90000 -70.00000 102.05000 49.90000 -70.12500 102.01651 49.90000 -70.21651 101.92500 49.90000 -70.25000 101.80000 49.90000 -70.21651 101.67500 49.90000 -70.12500 101.58349 49.90000 -70.00000 101.55000 49.90000 -69.87500 101.58349 49.90000 -69.78349 101.67500 49.90000 -70.00000 101.80000 46.70000 -70.00000 101.80000 49.90000 -56.75000 98.20000 46.70000 -56.78349 98.32500 46.70000 -56.87500 98.41651 46.70000 -57.00000 98.45000 46.70000 -57.12500 98.41651 46.70000 -57.21651 98.32500 46.70000 -57.25000 98.20000 46.70000 -57.21651 98.07500 46.70000 -57.12500 97.98349 46.70000 -57.00000 97.95000 46.70000 -56.87500 97.98349 46.70000 -56.78349 98.07500 46.70000 -56.75000 98.20000 49.90000 -56.78349 98.32500 49.90000 -56.87500 98.41651 49.90000 -57.00000 98.45000 49.90000 -57.12500 98.41651 49.90000 -57.21651 98.32500 49.90000 -57.25000 98.20000 49.90000 -57.21651 98.07500 49.90000 -57.12500 97.98349 49.90000 -57.00000 97.95000 49.90000 -56.87500 97.98349 49.90000 -56.78349 98.07500 49.90000 -57.00000 98.20000 46.70000 -57.00000 98.20000 49.90000 -56.75000 101.80000 46.70000 -56.78349 101.92500 46.70000 -56.87500 102.01651 46.70000 -57.00000 102.05000 46.70000 -57.12500 102.01651 46.70000 -57.21651 101.92500 46.70000 -57.25000 101.80000 46.70000 -57.21651 101.67500 46.70000 -57.12500 101.58349 46.70000 -57.00000 101.55000 46.70000 -56.87500 101.58349 46.70000 -56.78349 101.67500 46.70000 -56.75000 101.80000 49.90000 -56.78349 101.92500 49.90000 -56.87500 102.01651 49.90000 -57.00000 102.05000 49.90000 -57.12500 102.01651 49.90000 -57.21651 101.92500 49.90000 -57.25000 101.80000 49.90000 -57.21651 101.67500 49.90000 -57.12500 101.58349 49.90000 -57.00000 101.55000 49.90000 -56.87500 101.58349 49.90000 -56.78349 101.67500 49.90000 -57.00000 101.80000 46.70000 -57.00000 101.80000 49.90000 -45.75000 98.20000 46.70000 -45.78349 98.32500 46.70000 -45.87500 98.41651 46.70000 -46.00000 98.45000 46.70000 -46.12500 98.41651 46.70000 -46.21651 98.32500 46.70000 -46.25000 98.20000 46.70000 -46.21651 98.07500 46.70000 -46.12500 97.98349 46.70000 -46.00000 97.95000 46.70000 -45.87500 97.98349 46.70000 -45.78349 98.07500 46.70000 -45.75000 98.20000 49.90000 -45.78349 98.32500 49.90000 -45.87500 98.41651 49.90000 -46.00000 98.45000 49.90000 -46.12500 98.41651 49.90000 -46.21651 98.32500 49.90000 -46.25000 98.20000 49.90000 -46.21651 98.07500 49.90000 -46.12500 97.98349 49.90000 -46.00000 97.95000 49.90000 -45.87500 97.98349 49.90000 -45.78349 98.07500 49.90000 -46.00000 98.20000 46.70000 -46.00000 98.20000 49.90000 -45.75000 101.80000 46.70000 -45.78349 101.92500 46.70000 -45.87500 102.01651 46.70000 -46.00000 102.05000 46.70000 -46.12500 102.01651 46.70000 -46.21651 101.92500 46.70000 -46.25000 101.80000 46.70000 -46.21651 101.67500 46.70000 -46.12500 101.58349 46.70000 -46.00000 101.55000 46.70000 -45.87500 101.58349 46.70000 -45.78349 101.67500 46.70000 -45.75000 101.80000 49.90000 -45.78349 101.92500 49.90000 -45.87500 102.01651 49.90000 -46.00000 102.05000 49.90000 -46.12500 102.01651 49.90000 -46.21651 101.92500 49.90000 -46.25000 101.80000 49.90000 -46.21651 101.67500 49.90000 -46.12500 101.58349 49.90000 -46.00000 101.55000 49.90000 -45.87500 101.58349 49.90000 -45.78349 101.67500 49.90000 -46.00000 101.80000 46.70000 -46.00000 101.80000 49.90000</float_array><technique_common><accessor source="#positions-array" count="208" stride="3"><param name="X" type="float"/><param name="Y" type="float"/><param name="Z" type="float"/></accessor></technique_common></source>
<source id="normals"><float_array id="normals-array" count="1152">0.96593 0.25882 0.00000 0.96593 0.25882 -0.00000 0.00000 0.00000 -1.00000 0.00000 0.00000 1.00000 0.70711 0.70711 0.00000 0.70711 0.70711 -0.00000 0.00000 0.00000 -1.00000 0.00000 0.00000 1.00000 0.25882 0.96593 0.00000 0.25882 0.96593 -0.00000 0.00000 0.00000 -1.00000 0.00000 0.00000 1.00000 -0.25882 0.96593 0.00000 -0.25882 0.96593 0.00000 0.00000 0.00000 -1.00000 0.00000 -0.00000 1.00000 -0.70711 0.70711 0.00000 -0.70711 0.70711 0.00000 0.00000 0.00000 -1.00000 0.00000 0.00000 1.00000 -0.96593 0.25882 0.00000 -0.96593 0.25882 0.00000 0.00000 0.00000 -1.00000 0.00000 0.00000 1.00000 -0.96593 -0.25882 0.00000 -0.96593 -0.25882 0.00000 -0.00000 0.00000 -1.00000 0.00000 0.00000 1.00000 -0.70711 -0.70711 0.00000 -0.70711 -0.70711 0.00000 0.00000 0.00000 -1.00000 0.00000 0.00000 1.00000 -0.25882 -0.96593 0.00000 -0.25882 -0.96593 0.00000 0.00000 -0.00000 -1.00000 0.00000 0.00000 1.00000 0.25882 -0.96593 0.00000 0.25882 -0.96593 0.00000 0.00000 0.00000 -1.00000 0.00000 0.00000 1.00000 0.70711 -0.70711 0.00000 0.70711 -0.70711 0.00000 0.00000 0.00000 -1.00000 0.00000 0.00000 1.00000 0.96593 -0.25882 0.00000 0.96593 -0.25882 0.00000 0.00000 0.00000 -1.00000 -0.00000 0.00000 1.00000 0.96593 0.25882 0.00000 0.96593 0.25882 -0.00000 0.00000 0.00000 -1.00000 0.00000 0.00000 1.00000 0.70711 0.70711 0.00000 0.70711 0.70711 -0.00000 0.00000 0.00000 -1.00000 0.00000 0.00000 1.00000 0.25882 0.96593 0.00000 0.25882 0.96593 -0.00000 0.00000 0.00000 -1.00000 0.00000 0.00000 1.00000 -0.25882 0.96593 0.00000 -0.25882 0.96593 0.00000 0.00000 0.00000 -1.00000 0.00000 -0.00000 1.00000 -0.70711 0.70711 0.00000 -0.70711 0.70711 0.00000 0.00000 0.00000 -1.00000 0.00000 0.00000 1.00000 -0.96593 0.25882 0.00000 -0.96593 0.25882 0.00000 0.00000 0.00000 -1.00000 0.00000 0.00000 1.00000 -0.96593 -0.25882 0.00000 -0.96593 -0.25882 0.00000 -0.00000 0.00000 -1.00000 0.00000 0.00000 1.00000 -0.70711 -0.70711 0.00000 -0.70711 -0.70711 0.00000 0.00000 0.00000 -1.00000 0.00000 0.00000 1.00000 -0.25882 -0.96593 0.00000 -0.25882 -0.96593 0.00000 0.00000 -0.00000 -1.00000 0.00000 0.00000 1.00000 0.25882 -0.96593 0.00000 0.25882 -0.96593 0.00000 0.00000 0.00000 -1.00000 0.00000 0.00000 1.00000 0.70711 -0.70711 0.00000 0.70711 -0.70711 0.00000 0.00000 0.00000 -1.00000 0.00000 0.00000 1.00000 0.96593 -0.25882 0.00000 0.96593 -0.25882 0.00000 0.00000 0.00000 -1.00000 -0.00000 0.00000 1.00000 0.96593 0.25882 0.00000 0.96593 0.25882 -0.00000 0.00000 0.00000 -1.00000 0.00000 0.00000 1.00000 0.70711 0.70711 0.00000 0.70711 0.70711 -0.00000 0.00000 0.00000 -1.00000 0.00000 0.00000 1.00000 0.25882 0.96593 0.00000 0.25882 0.96593 -0.00000 0.00000 0.00000 -1.00000 0.00000 0.00000 1.00000 -0.25882 0.96593 0.00000 -0.25882 0.96593 0.00000 0.00000 0.00000 -1.00000 0.00000 -0.00000 1.00000 -0.70711 0.70711 0.00000 -0.70711 0.70711 0.00000 0.00000 0.00000 -1.00000 0.00000 0.00000 1.00000 -0.96593 0.25882 0.00000 -0.96593 0.25882 0.00000 0.00000 0.00000 -1.00000 0.00000 0.00000 1.00000 -0.96593 -0.25882 0.00000 -0.96593 -0.25882 0.00000 -0.00000 0.00000 -1.00000 0.00000 0.00000 1.00000 -0.70711 -0.70711 0.00000 -0.70711 -0.70711 0.00000 0.00000 0.00000 -1.00000 0.00000 0.00000 1.00000 -0.25882 -0.96593 0.00000 -0.25882 -0.96593 0.00000 0.00000 -0.00000 -1.00000 0.00000 0.00000 1.00000 0.25882 -0.96593 0.00000 0.25882 -0.96593 0.00000 0.00000 0.00000 -1.00000 0.00000 0.00000 1.00000 0.70711 -0.70711 0.00000 0.70711 -0.70711 0.00000 0.00000 0.00000 -1.00000 0.00000 0.00000 1.00000 0.96593 -0.25882 0.00000 0.96593 -0.25882 0.00000 0.00000 0.00000 -1.00000 -0.00000 0.00000 1.00000 0.96593 0.25882 0.00000 0.96593 0.25882 -0.00000 0.00000 0.00000 -1.00000 0.00000 0.00000 1.00000 0.70711 0.70711 0.00000 0.70711 0.70711 -0.00000 0.00000 0.00000 -1.00000 0.00000 0.00000 1.00000 0.25882 0.96593 0.00000 0.25882 0.96593 -0.00000 0.00000 0.00000 -1.00000 0.00000 0.00000 1.00000 -0.25882 0.96593 0.00000 -0.25882 0.96593 0.00000 0.00000 0.00000 -1.00000 0.00000 -0.00000 1.00000 -0.70711 0.70711 0.00000 -0.70711 0.70711 0.00000 0.00000 0.00000 -1.00000 0.00000 0.00000 1.00000 -0.96593 0.25882 0.00000 -0.96593 0.25882 0.00000 0.00000 0.00000 -1.00000 0.00000 0.00000 1.00000 -0.96593 -0.25882 0.00000 -0.96593 -0.25882 0.00000 -0.00000 0.00000 -1.00000 0.00000 0.00000 1.00000 -0.70711 -0.70711 0.00000 -0.70711 -0.70711 0.00000 0.00000 0.00000 -1.00000 0.00000 0.00000 1.00000 -0.25882 -0.96593 0.00000 -0.25882 -0.96593 0.00000 0.00000 -0.00000 -1.00000 0.00000 0.00000 1.00000 0.25882 -0.96593 0.00000 0.25882 -0.96593 0.00000 0.00000 0.00000 -1.00000 0.00000 0.00000 1.00000 0.70711 -0.70711 0.00000 0.70711 -0.70711 0.00000 0.00000 0.00000 -1.00000 0.00000 0.00000 1.00000 0.96593 -0.25882 0.00000 0.96593 -0.25882 0.00000 0.00000 0.00000 -1.00000 -0.00000 0.00000 1.00000 0.96593 0.25882 0.00000 0.96593 0.25882 -0.00000 0.00000 0.00000 -1.00000 0.00000 0.00000 1.00000 0.70711 0.70711 0.00000 0.70711 0.70711 -0.00000 0.00000 0.00000 -1.00000 0.00000 0.00000 1.00000 0.25882 0.96593 0.00000 0.25882 0.96593 -0.00000 0.00000 0.00000 -1.00000 0.00000 0.00000 1.00000 -0.25882 0.96593 0.00000 -0.25882 0.96593 0.00000 0.00000 0.00000 -1.00000 0.00000 -0.00000 1.00000 -0.70711 0.70711 0.00000 -0.70711 0.70711 0.00000 0.00000 0.00000 -1.00000 0.00000 0.00000 1.00000 -0.96593 0.25882 0.00000 -0.96593 0.25882 0.00000 0.00000 0.00000 -1.00000 0.00000 0.00000 1.00000 -0.96593 -0.25882 0.00000 -0.96593 -0.25882 0.00000 -0.00000 0.00000 -1.00000 0.00000 0.00000 1.00000 -0.70711 -0.70711 0.00000 -0.70711 -0.70711 0.00000 0.00000 0.00000 -1.00000 0.00000 0.00000 1.00000 -0.25882 -0.96593 0.00000 -0.25882 -0.96593 0.00000 0.00000 -0.00000 -1.00000 0.00000 0.00000 1.00000 0.25882 -0.96593 0.00000 0.25882 -0.96593 0.00000 0.00000 0.00000 -1.00000 0.00000 0.00000 1.00000 0.70711 -0.70711 0.00000 0.70711 -0.70711 0.00000 0.00000 0.00000 -1.00000 0.00000 0.00000 1.00000 0.96593 -0.25882 0.00000 0.96593 -0.25882 0.00000 0.00000 0.00000 -1.00000 -0.00000 0.00000 1.00000 0.96593 0.25882 0.00000 0.96593 0.25882 -0.00000 0.00000 0.00000 -1.00000 0.00000 0.00000 1.00000 0.70711 0.70711 0.00000 0.70711 0.70711 -0.00000 0.00000 0.00000 -1.00000 0.00000 0.00000 1.00000 0.25882 0.96593 0.00000 0.25882 0.96593 -0.00000 0.00000 0.00000 -1.00000 0.00000 0.00000 1.00000 -0.25882 0.96593 0.00000 -0.25882 0.96593 0.00000 0.00000 0.00000 -1.00000 0.00000 -0.00000 1.00000 -0.70711 0.70711 0.00000 -0.70711 0.70711 0.00000 0.00000 0.00000 -1.00000 0.00000 0.00000 1.00000 -0.96593 0.25882 0.00000 -0.96593 0.25882 0.00000 0.00000 0.00000 -1.00000 0.00000 0.00000 1.00000 -0.96593 -0.25882 0.00000 -0.96593 -0.25882 0.00000 -0.00000 0.00000 -1.00000 0.00000 0.00000 1.00000 -0.70711 -0.70711 0.00000 -0.70711 -0.70711 0.00000 0.00000 0.00000 -1.00000 0.00000 0.00000 1.00000 -0.25882 -0.96593 0.00000 -0.25882 -0.96593 0.00000 0.00000 -0.00000 -1.00000 0.00000 0.00000 1.00000 0.25882 -0.96593 0.00000 0.25882 -0.96593 0.00000 0.00000 0.00000 -1.00000 0.00000 0.00000 1.00000 0.70711 -0.70711 0.00000 0.70711 -0.70711 0.00000 0.00000 0.00000 -1.00000 0.00000 0.00000 1.00000 0.96593 -0.25882 0.00000 0.96593 -0.25882 0.00000 0.00000 0.00000 -1.00000 -0.00000 0.00000 1.00000 0.96593 0.25882 0.00000 0.96593 0.25882 -0.00000 0.00000 0.00000 -1.00000 0.00000 0.00000 1.00000 0.70711 0.70711 0.00000 0.70711 0.70711 -0.00000 0.00000 0.00000 -1.00000 0.00000 0.00000 1.00000 0.25882 0.96593 0.00000 0.25882 0.96593 -0.00000 0.00000 0.00000 -1.00000 0.00000 0.00000 1.00000 -0.25882 0.96593 0.00000 -0.25882 0.96593 0.00000 0.00000 0.00000 -1.00000 0.00000 -0.00000 1.00000 -0.70711 0.70711 0.00000 -0.70711 0.70711 0.00000 0.00000 0.00000 -1.00000 0.00000 0.00000 1.00000 -0.96593 0.25882 0.00000 -0.96593 0.25882 0.00000 0.00000 0.00000 -1.00000 0.00000 0.00000 1.00000 -0.96593 -0.25882 0.00000 -0.96593 -0.25882 0.00000 -0.00000 0.00000 -1.00000 0.00000 0.00000 1.00000 -0.70711 -0.70711 0.00000 -0.70711 -0.70711 0.00000 0.00000 0.00000 -1.00000 0.00000 0.00000 1.00000 -0.25882 -0.96593 0.00000 -0.25882 -0.96593 0.00000 0.00000 -0.00000 -1.00000 0.00000 0.00000 1.00000 0.25882 -0.96593 0.00000 0.25882 -0.96593 0.00000 0.00000 0.00000 -1.00000 0.00000 0.00000 1.00000 0.70711 -0.70711 0.00000 0.70711 -0.70711 0.00000 0.00000 0.00000 -1.00000 0.00000 0.00000 1.00000 0.96593 -0.25882 0.00000 0.96593 -0.25882 0.00000 0.00000 0.00000 -1.00000 -0.00000 0.00000 1.00000 0.96593 0.25882 0.00000 0.96593 0.25882 -0.00000 0.00000 0.00000 -1.00000 0.00000 0.00000 1.00000 0.70711 0.70711 0.00000 0.70711 0.70711 -0.00000 0.00000 0.00000 -1.00000 0.00000 0.00000 1.00000 0.25882 0.96593 0.00000 0.25882 0.96593 -0.00000 0.00000 0.00000 -1.00000 0.00000 0.00000 1.00000 -0.25882 0.96593 0.00000 -0.25882 0.96593 0.00000 0.00000 0.00000 -1.00000 0.00000 -0.00000 1.00000 -0.70711 0.70711 0.00000 -0.70711 0.70711 0.00000 0.00000 0.00000 -1.00000 0.00000 0.00000 1.00000 -0.96593 0.25882 0.00000 -0.96593 0.25882 0.00000 0.00000 0.00000 -1.00000 0.00000 0.00000 1.00000 -0.96593 -0.25882 0.00000 -0.96593 -0.25882 0.00000 -0.00000 0.00000 -1.00000 0.00000 0.00000 1.00000 -0.70711 -0.70711 0.00000 -0.70711 -0.70711 0.00000 0.00000 0.00000 -1.00000 0.00000 0.00000 1.00000 -0.25882 -0.96593 0.00000 -0.25882 -0.96593 0.00000 0.00000 -0.00000 -1.00000 0.00000 0.00000 1.00000 0.25882 -0.96593 0.00000 0.25882 -0.96593 0.00000 0.00000 0.00000 -1.00000 0.00000 0.00000 1.00000 0.70711 -0.70711 0.00000 0.70711 -0.70711 0.00000 0.00000 0.00000 -1.00000 0.00000 0.00000 1.00000 0.96593 -0.25882 0.00000 0.96593 -0.25882 0.00000 0.00000 0.00000 -1.00000 -0.00000 0.00000 1.00000</float_array><technique_common><accessor source="#normals-array" count="384" stride="3"><param name="X" type="float"/><param name="Y" type="float"/><param name="Z" type="float"/></accessor></technique_common></source>
<vertices id="vertices"><input semantic="POSITION" source="#positions"/></vertices><triangles count="384"><input semantic="VERTEX" source="#vertices" offset="0"/><input semantic="NORMAL" source="#normals" offset="1"/><p>0 0 1 0 13 0 0 1 13 1 12 1 24 2 1 2 0 2 25 3 12 3 13 3 1 4 2 4 14 4 1 5 14 5 13 5 24 6 2 6 1 6 25 7 13 7 14 7 2 8 3 8 15 8 2 9 15 9 14 9 24 10 3 10 2 10 25 11 14 11 15 11 3 12 4 12 16 12 3 13 16 13 15 13 24 14 4 14 3 14 25 15 15 15 16 15 4 16 5 16 17 16 4 17 17 17 16 17 24 18 5 18 4 18 25 19 16 19 17 19 5 20 6 20 18 20 5 21 18 21 17 21 24 22 6 22 5 22 25 23 17 23 18 23 6 24 7 24 19 24 6 25 19 25 18 25 24 26 7 26 6 26 25 27 18 27 19 27 7 28 8 28 20 28 7 29 20 29 19 29 24 30 8 30 7 30 25 31 19 31 20 31 8 32 9 32 21 32 8 33 21 33 20 33 24 34 9 34 8 34 25 35 20 35 21 35 9 36 10 36 22 36 9 37 22 37 21 37 24 38 10 38 9 38 25 39 21 39 22 39 10 40 11 40 23 40 10 41 23 41 22 41 24 42 11 42 10 42 25 43 22 43 23 43 11 44 0 44 12 44 11 45 12 45 23 45 24 46 0 46 11 46 25 47 23 47 12 47 26 48 27 48 39 48 26 49 39 49 38 49 50 50 27 50 26 50 51 51 38 51 39 51 27 52 28 52 40 52 27 53 40 53 39 53 50 54 28 54 27 54 51 55 39 55 40 55 28 56 29 56 41 56 28 57 41 57 40 57 50 58 29 58 28 58 51 59 40 59 41 59 29 60 30 60 42 60 29 61 42 61 41 61 50 62 30 62 29 62 51 63 41 63 42 63 30 64 31 64 43 64 30 65 43 65 42 65 50 66 31 66 30 66 51 67 42 67 43 67 31 68 32 68 44 68 31 69 44 69 43 69 50 70 32 70 31 70 51 71 43 71 44 71 32 72 33 72 45 72 32 73 45 73 44 73 50 74 33 74 32 74 51 75 44 75 45 75 33 76 34 76 46 76 33 77 46 77 45 77 50 78 34 78 33 78 51 79 45 79 46 79 34 80 35 80 47 80 34 81 47 81 46 81 50 82 35 82 34 82 51 83 46 83 47 83 35 84 36 84 48 84 35 85 48 85 47 85 50 86 36 86 35 86 51 87 47 87 48 87 36 88 37 88 49 88 36 89 49 89 48 89 50 90 37 90 36 90 51 91 48 91 49 91 37 92 26 92 38 92 37 93 38 93 49 93 50 94 26 94 37 94 51 95 49 95 38 95 52 96 53 96 65 96 52 97 65 97 64 97 76 98 53 98 52 98 77 99 64 99 65 99 53 100 54 100 66 100 53 101 66 101 65 101 76 102 54 102 53 102 77 103 65 103 66 103 54 104 55 104 67 104 54 105 67 105 66 105 76 106 55 106 54 106 77 107 66 107 67 107 55 108 56 108 68 108 55 109 68 109 67 109 76 110 56 110 55 110 77 111 67 111 68 111 56 112 57 112 69 112 56 113 69 113 68 113 76 114 57 114 56 114 77 115 68 115 69 115 57 116 58 116 70 116 57 117 70 117 69 117 76 118 58 118 57 118 77 119 69 119 70 119 58 120 59 120 71 120 58 121 71 121 70 121 76 122 59 122 58 122 77 123 70 123 71 123 59 124 60 124 72 124 59 125 72 125 71 125 76 126 60 126 59 126 77 127 71 127 72 127 60 128 61 128 73 128 60 129 73 129 72 129 76 130 61 130 60 130 77 131 72 131 73 131 61 132 62 132 74 132 61 133 74 133 73 133 76 134 62 134 61 134 77 135 73 135 74 135 62 136 63 136 75 136 62 137 75 137 74 137 76 138 63 138 62 138 77 139 74 139 75 139 63 140 52 140 64 140 63 141 64 141 75 141 76 142 52 142 63 142 77 143 75 143 64 143 78 144 79 144 91 144 78 145 91 145 90 145 102 146 79 146 78 146 103 147 90 147 91 147 79 148 80 148 92 148 79 149 92 149 91 149 102 150 80 150 79 150 103 151 91 151 92 151 80 152 81 152 93 152 80 153 93 153 92 153 102 154 81 154 80 154 103 155 92 155 93 155 81 156 82 156 94 156 81 157 94 157 93 157 102 158 82 158 81 158 103 159 93 159 94 159 82 160 83 160 95 160 82 161 95 161 94 161 102 162 83 162 82 162 103 163 94 163 95 163 83 164 84 164 96 164 83 165 96 165 95 165 102 166 84 166 83 166 103 167 95 167 96 167 84 168 85 168 97 168 84 169 97 169 96 169 102 170 85 170 84 170 103 171 96 171 97 171 85 172 86 172 98 172 85 173 98 173 97 173 102 174 86 174 85 174 103 175 97 175 98 175 86 176 87 176 99 176 86 177 99 177 98 177 102 178 87 178 86 178 103 179 98 179 99 179 87 180 88 180 100 180 87 181 100 181 99 181 102 182 88 182 87 182 103 183 99 183 100 183 88 184 89 184 101 184 88 185 101 185 100 185 102 186 89 186 88 186 103 187 100 187 101 187 89 188 78 188 90 188 89 189 90 189 101 189 102 190 78 190 89 190 103 191 101 191 90 191 104 192 105 192 117 192 104 193 117 193 116 193 128 194 105 194 104 194 129 195 116 195 117 195 105 196 106 196 118 196 105 197 118 197 117 197 128 198 106 198 105 198 129 199 117 199 118 199 106 200 107 200 119 200 106 201 119 201 118 201 128 202 107 202 106 202 129 203 118 203 119 203 107 204 108 204 120 204 107 205 120 205 119 205 128 206 108 206 107 206 129 207 119 207 120 207 108 208 109 208 121 208 108 209 121 209 120 209 128 210 109 210 108 210 129 211 120 211 121 211 109 212 110 212 122 212 109 213 122 213 121 213 128 214 110 214 109 214 129 215 121 215 122 215 110 216 111 216 123 216 110 217 123 217 122 217 128 218 111 218 110 218 129 219 122 219 123 219 111 220 112 220 124 220 111 221 124 221 123 221 128 222 112 222 111 222 129 223 123 223 124 223 112 224 113 224 125 224 112 225 125 225 124 225 128 226 113 226 112 226 129 227 124 227 125 227 113 228 114 228 126 228 113 229 126 229 125 229 128 230 114 230 113 230 129 231 125 231 126 231 114 232 115 232 127 232 114 233 127 233 126 233 128 234 115 234 114 234 129 235 126 235 127 235 115 236 104 236 116 236 115 237 116 237 127 237 128 238 104 238 115 238 129 239 127 239 116 239 130 240 131 240 143 240 130 241 143 241 142 241 154 242 131 242 130 242 155 243 142 243 143 243 131 244 132 244 144 244 131 245 144 245 143 245 154 246 132 246 131 246 155 247 143 247 144 247 132 248 133 248 145 248 132 249 145 249 144 249 154 250 133 250 132 250 155 251 144 251 145 251 133 252 134 252 146 252 133 253 146 253 145 253 154 254 134 254 133 254 155 255 145 255 146 255 134 256 135 256 147 256 134 257 147 257 146 257 154 258 135 258 134 258 155 259 146 259 147 259 135 260 136 260 148 260 135 261 148 261 147 261 154 262 136 262 135 262 155 263 147 263 148 263 136 264 137 264 149 264 136 265 149 265 148 265 154 266 137 266 136 266 155 267 148 267 149 267 137 268 138 268 150 268 137 269 150 269 149 269 154 270 138 270 137 270 155 271 149 271 150 271 138 272 139 272 151 272 138 273 151 273 150 273 154 274 139 274 138 274 155 275 150 275 151 275 139 276 140 276 152 276 139 277 152 277 151 277 154 278 140 278 139 278 155 279 151 279 152 279 140 280 141 280 153 280 140 281 153 281 152 281 154 282 141 282 140 282 155 283 152 283 153 283 141 284 130 284 142 284 141 285 142 285 153 285 154 286 130 286 141 286 155 287 153 287 142 287 156 288 157 288 169 288 156 289 169 289 168 289 180 290 157 290 156 290 181 291 168 291 169 291 157 292 158 292 170 292 157 293 170 293 169 293 180 294 158 294 157 294 181 295 169 295 170 295 158 296 159 296 171 296 158 297 171 297 170 297 180 298 159 298 158 298 181 299 170 299 171 299 159 300 160 300 172 300 159 301 172 301 171 301 180 302 160 302 159 302 181 303 171 303 172 303 160 304 161 304 173 304 160 305 173 305 172 305 180 306 161 306 160 306 181 307 172 307 173 307 161 308 162 308 174 308 161 309 174 309 173 309 180 310 162 310 161 310 181 311 173 311 174 311 162 312 163 312 175 312 162 313 175 313 174 313 180 314 163 314 162 314 181 315 174 315 175 315 163 316 164 316 176 316 163 317 176 317 175 317 180 318 164 318 163 318 181 319 175 319 176 319 164 320 165 320 177 320 164 321 177 321 176 321 180 322 165 322 164 322 181 323 176 323 177 323 165 324 166 324 178 324 165 325 178 325 177 325 180 326 166 326 165 326 181 327 177 327 178 327 166 328 167 328 179 328 166 329 179 329 178 329 180 330 167 330 166 330 181 331 178 331 179 331 167 332 156 332 168 332 167 333 168 333 179 333 180 334 156 334 167 334 181 335 179 335 168 335 182 336 183 336 195 336 182 337 195 337 194 337 206 338 183 338 182 338 207 339 194 339 195 339 183 340 184 340 196 340 183 341 196 341 195 341 206 342 184 342 183 342 207 343 195 343 196 343 184 344 185 344 197 344 184 345 197 345 196 345 206 346 185 346 184 346 207 347 196 347 197 347 185 348 186 348 198 348 185 349 198 349 197 349 206 350 186 350 185 350 207 351 197 351 198 351 186 352 187 352 199 352 186 353 199 353 198 353 206 354 187 354 186 354 207 355 198 355 199 355 187 356 188 356 200 356 187 357 200 357 199 357 206 358 188 358 187 358 207 359 199 359 200 359 188 360 189 360 201 360 188 361 201 361 200 361 206 362 189 362 188 362 207 363 200 363 201 363 189 364 190 364 202 364 189 365 202 365 201 365 206 366 190 366 189 366 207 367 201 367 202 367 190 368 191 368 203 368 190 369 203 369 202 369 206 370 191 370 190 370 207 371 202 371 203 371 191 372 192 372 204 372 191 373 204 373 203 373 206 374 192 374 191 374 207 375 203 375 204 375 192 376 193 376 205 376 192 377 205 377 204 377 206 378 193 378 192 378 207 379 204 379 205 379 193 380 182 380 194 380 193 381 194 381 205 381 206 382 182 382 193 382 207 383 205 383 194 383</p></triangles>
</mesh></geometry></library_geometries><library_visual_scenes><visual_scene id="Scene"><node id="mesh"><instance_geometry url="#geometry"/></node></visual_scene></library_visual_scenes><scene><instance_visual_scene url="#Scene"/></scene></COLLADA>