<?xml version="1.0" encoding="UTF-8"?>
<COLLADA xmlns="http://www.collada.org/2005/11/COLLADASchema" version="1.4.1">
<asset><contributor><authoring_tool>Summit Estate procedural mesh exporter</authoring_tool></contributor><created>2026-09-11T00:00:00Z</created><modified>2026-09-11T00:00:00Z</modified><unit name="meter" meter="1"/><up_axis>Z_UP</up_axis></asset>
<library_geometries><geometry id="geometry" name="geometry"><mesh>
<source id="positions"><float_array id="positions-array" count="504">-81.00000 95.00000 49.19000 -69.00000 95.00000 49.19000 -69.00000 105.00000 49.19000 -81.00000 105.00000 49.19000 -81.00000 95.00000 49.55000 -69.00000 95.00000 49.55000 -69.00000 105.00000 49.55000 -81.00000 105.00000 49.55000 -69.00000 97.75000 49.25000 -45.00000 97.75000 49.25000 -45.00000 102.25000 49.25000 -69.00000 102.25000 49.25000 -69.00000 97.75000 49.55000 -45.00000 97.75000 49.55000 -45.00000 102.25000 49.55000 -69.00000 102.25000 49.55000 -79.64000 96.26000 49.55000 -79.36000 96.26000 49.55000 -79.36000 96.54000 49.55000 -79.64000 96.54000 49.55000 -79.64000 96.26000 53.35000 -79.36000 96.26000 53.35000 -79.36000 96.54000 53.35000 -79.64000 96.54000 53.35000 -79.64000 103.46000 49.55000 -79.36000 103.46000 49.55000 -79.36000 103.74000 49.55000 -79.64000 103.74000 49.55000 -79.64000 103.46000 53.35000 -79.36000 103.46000 53.35000 -79.36000 103.74000 53.35000 -79.64000 103.74000 53.35000 -70.64000 96.26000 49.55000 -70.36000 96.26000 49.55000 -70.36000 96.54000 49.55000 -70.64000 96.54000 49.55000 -70.64000 96.26000 53.35000 -70.36000 96.26000 53.35000 -70.36000 96.54000 53.35000 -70.64000 96.54000 53.35000 -70.64000 103.46000 49.55000 -70.36000 103.46000 49.55000 -70.36000 103.74000 49.55000 -70.64000 103.74000 49.55000 -70.64000 103.46000 53.35000 -70.36000 103.46000 53.35000 -70.36000 103.74000 53.35000 -70.64000 103.74000 53.35000 -80.75000 95.20000 53.15000 -69.25000 95.20000 53.15000 -69.25000 104.80000 53.15000 -80.75000 104.80000 53.15000 -80.75000 95.20000 53.31000 -69.25000 95.20000 53.31000 -69.25000 104.80000 53.31000 -80.75000 104.80000 53.31000 -72.00000 97.95000 49.61000 -78.00000 97.95000 49.61000 -78.00000 96.65000 49.61000 -72.00000 96.65000 49.61000 -72.00000 97.95000 50.19000 -78.00000 97.95000 50.19000 -78.00000 96.65000 50.19000 -72.00000 96.65000 50.19000 -72.00000 96.83500 50.09000 -78.00000 96.83500 50.09000 -78.00000 96.64500 50.09000 -72.00000 96.64500 50.09000 -72.00000 96.83500 51.09000 -78.00000 96.83500 51.09000 -78.00000 96.64500 51.09000 -72.00000 96.64500 51.09000 -78.00000 102.05000 49.61000 -72.00000 102.05000 49.61000 -72.00000 103.35000 49.61000 -78.00000 103.35000 49.61000 -78.00000 102.05000 50.19000 -72.00000 102.05000 50.19000 -72.00000 103.35000 50.19000 -78.00000 103.35000 50.19000 -78.00000 103.16500 50.09000 -72.00000 103.16500 50.09000 -72.00000 103.35500 50.09000 -78.00000 103.35500 50.09000 -78.00000 103.16500 51.09000 -72.00000 103.16500 51.09000 -72.00000 103.35500 51.09000 -78.00000 103.35500 51.09000 -76.50000 99.40000 49.75000 -73.50000 99.40000 49.75000 -73.50000 100.60000 49.75000 -76.50000 100.60000 49.75000 -76.50000 99.40000 50.45000 -73.50000 99.40000 50.45000 -73.50000 100.60000 50.45000 -76.50000 100.60000 50.45000 -80.80000 95.35000 50.55000 -69.20000 95.35000 50.55000 -69.20000 95.45000 50.55000 -80.80000 95.45000 50.55000 -80.80000 95.35000 50.65000 -69.20000 95.35000 50.65000 -69.20000 95.45000 50.65000 -80.80000 95.45000 50.65000 -80.65000 95.35000 49.55000 -80.55000 95.35000 49.55000 -80.55000 95.45000 49.55000 -80.65000 95.45000 49.55000 -80.65000 95.35000 50.55000 -80.55000 95.35000 50.55000 -80.55000 95.45000 50.55000 -80.65000 95.45000 50.55000 -75.05000 95.35000 49.55000 -74.95000 95.35000 49.55000 -74.95000 95.45000 49.55000 -75.05000 95.45000 49.55000 -75.05000 95.35000 50.55000 -74.95000 95.35000 50.55000 -74.95000 95.45000 50.55000 -75.05000 95.45000 50.55000 -69.45000 95.35000 49.55000 -69.35000 95.35000 49.55000 -69.35000 95.45000 49.55000 -69.45000 95.45000 49.55000 -69.45000 95.35000 50.55000 -69.35000 95.35000 50.55000 -69.35000 95.45000 50.55000 -69.45000 95.45000 50.55000 -80.80000 104.55000 50.55000 -69.20000 104.55000 50.55000 -69.20000 104.65000 50.55000 -80.80000 104.65000 50.55000 -80.80000 104.55000 50.65000 -69.20000 104.55000 50.65000 -69.20000 104.65000 50.65000 -80.80000 104.65000 50.65000 -80.65000 104.55000 49.55000 -80.55000 104.55000 49.55000 -80.55000 104.65000 49.55000 -80.65000 104.65000 49.55000 -80.65000 104.55000 50.55000 -80.55000 104.55000 50.55000 -80.55000 104.65000 50.55000 -80.65000 104.65000 50.55000 -75.05000 104.55000 49.55000 -74.95000 104.55000 49.55000 -74.95000 104.65000 49.55000 -75.05000 104.65000 49.55000 -75.05000 104.55000 50.55000 -74.95000 104.55000 50.55000 -74.95000 104.65000 50.55000 -75.05000 104.65000 50.55000 -69.45000 104.55000 49.55000 -69.35000 104.55000 49.55000 -69.35000 104.65000 49.55000 -69.45000 104.65000 49.55000 -69.45000 104.55000 50.55000 -69.35000 104.55000 50.55000 -69.35000 104.65000 50.55000 -69.45000 104.65000 50.55000 -80.65000 95.40000 50.55000 -80.55000 95.40000 50.55000 -80.55000 104.60000 50.55000 -80.65000 104.60000 50.55000 -80.65000 95.40000 50.65000 -80.55000 95.40000 50.65000 -80.55000 104.60000 50.65000 -80.65000 104.60000 50.65000</float_array><technique_common><accessor source="#positions-array" count="168" stride="3"><param name="X" type="float"/><param name="Y" type="float"/><param name="Z" type="float"/></accessor></technique_common></source>
<source id="normals"><float_array id="normals-array" count="756">0.00000 0.00000 -1.00000 0.00000 0.00000 -1.00000 0.00000 0.00000 1.00000 0.00000 0.00000 1.00000 0.00000 -1.00000 0.00000 0.00000 -1.00000 0.00000 1.00000 0.00000 0.00000 1.00000 0.00000 0.00000 0.00000 1.00000 0.00000 0.00000 1.00000 -0.00000 -1.00000 0.00000 0.00000 -1.00000 0.00000 0.00000 0.00000 0.00000 -1.00000 0.00000 0.00000 -1.00000 0.00000 0.00000 1.00000 0.00000 0.00000 1.00000 0.00000 -1.00000 0.00000 0.00000 -1.00000 0.00000 1.00000 0.00000 0.00000 1.00000 0.00000 0.00000 0.00000 1.00000 0.00000 0.00000 1.00000 -0.00000 -1.00000 0.00000 0.00000 -1.00000 0.00000 0.00000 0.00000 0.00000 -1.00000 0.00000 0.00000 -1.00000 0.00000 0.00000 1.00000 0.00000 0.00000 1.00000 0.00000 -1.00000 0.00000 0.00000 -1.00000 0.00000 1.00000 0.00000 0.00000 1.00000 0.00000 0.00000 0.00000 1.00000 0.00000 0.00000 1.00000 -0.00000 -1.00000 0.00000 0.00000 -1.00000 0.00000 0.00000 0.00000 0.00000 -1.00000 0.00000 0.00000 -1.00000 0.00000 0.00000 1.00000 0.00000 0.00000 1.00000 0.00000 -1.00000 0.00000 0.00000 -1.00000 0.00000 1.00000 0.00000 0.00000 1.00000 0.00000 0.00000 0.00000 1.00000 0.00000 0.00000 1.00000 -0.00000 -1.00000 0.00000 0.00000 -1.00000 0.00000 0.00000 0.00000 0.00000 -1.00000 0.00000 0.00000 -1.00000 0.00000 0.00000 1.00000 0.00000 0.00000 1.00000 0.00000 -1.00000 0.00000 0.00000 -1.00000 0.00000 1.00000 0.00000 0.00000 1.00000 0.00000 0.00000 0.00000 1.00000 0.00000 0.00000 1.00000 -0.00000 -1.00000 0.00000 0.00000 -1.00000 0.00000 0.00000 0.00000 0.00000 -1.00000 0.00000 0.00000 -1.00000 0.00000 0.00000 1.00000 0.00000 0.00000 1.00000 0.00000 -1.00000 0.00000 0.00000 -1.00000 0.00000 1.00000 0.00000 0.00000 1.00000 0.00000 0.00000 0.00000 1.00000 0.00000 0.00000 1.00000 -0.00000 -1.00000 0.00000 0.00000 -1.00000 0.00000 0.00000 0.00000 0.00000 -1.00000 0.00000 0.00000 -1.00000 0.00000 0.00000 1.00000 0.00000 0.00000 1.00000 0.00000 -1.00000 0.00000 0.00000 -1.00000 0.00000 1.00000 0.00000 0.00000 1.00000 0.00000 0.00000 0.00000 1.00000 0.00000 0.00000 1.00000 -0.00000 -1.00000 0.00000 0.00000 -1.00000 0.00000 0.00000 -0.00000 0.00000 -1.00000 0.00000 -0.00000 -1.00000 0.00000 0.00000 1.00000 0.00000 0.00000 1.00000 0.00000 1.00000 0.00000 0.00000 1.00000 -0.00000 -1.00000 0.00000 0.00000 -1.00000 0.00000 0.00000 0.00000 -1.00000 0.00000 0.00000 -1.00000 0.00000 1.00000 0.00000 0.00000 1.00000 0.00000 0.00000 -0.00000 0.00000 -1.00000 0.00000 -0.00000 -1.00000 0.00000 0.00000 1.00000 0.00000 0.00000 1.00000 0.00000 1.00000 0.00000 0.00000 1.00000 -0.00000 -1.00000 0.00000 0.00000 -1.00000 0.00000 0.00000 0.00000 -1.00000 0.00000 0.00000 -1.00000 0.00000 1.00000 0.00000 0.00000 1.00000 0.00000 0.00000 0.00000 0.00000 -1.00000 0.00000 0.00000 -1.00000 0.00000 0.00000 1.00000 0.00000 0.00000 1.00000 0.00000 -1.00000 0.00000 0.00000 -1.00000 0.00000 1.00000 0.00000 0.00000 1.00000 0.00000 0.00000 0.00000 1.00000 0.00000 0.00000 1.00000 -0.00000 -1.00000 0.00000 0.00000 -1.00000 0.00000 0.00000 0.00000 0.00000 -1.00000 0.00000 0.00000 -1.00000 0.00000 0.00000 1.00000 0.00000 0.00000 1.00000 0.00000 -1.00000 0.00000 0.00000 -1.00000 0.00000 1.00000 0.00000 0.00000 1.00000 0.00000 0.00000 0.00000 1.00000 0.00000 0.00000 1.00000 -0.00000 -1.00000 0.00000 0.00000 -1.00000 0.00000 0.00000 0.00000 0.00000 -1.00000 0.00000 0.00000 -1.00000 0.00000 0.00000 1.00000 0.00000 0.00000 1.00000 0.00000 -1.00000 0.00000 0.00000 -1.00000 0.00000 1.00000 0.00000 0.00000 1.00000 0.00000 0.00000 0.00000 1.00000 0.00000 0.00000 1.00000 -0.00000 -1.00000 0.00000 0.00000 -1.00000 0.00000 0.00000 0.00000 0.00000 -1.00000 0.00000 0.00000 -1.00000 0.00000 0.00000 1.00000 0.00000 0.00000 1.00000 0.00000 -1.00000 0.00000 0.00000 -1.00000 0.00000 1.00000 0.00000 0.00000 1.00000 0.00000 0.00000 0.00000 1.00000 0.00000 0.00000 1.00000 -0.00000 -1.00000 0.00000 0.00000 -1.00000 0.00000 0.00000 0.00000 0.00000 -1.00000 0.00000 0.00000 -1.00000 0.00000 0.00000 1.00000 0.00000 0.00000 1.00000 0.00000 -1.00000 0.00000 0.00000 -1.00000 0.00000 1.00000 0.00000 0.00000 1.00000 0.00000 0.00000 0.00000 1.00000 0.00000 0.00000 1.00000 -0.00000 -1.00000 0.00000 0.00000 -1.00000 0.00000 0.00000 0.00000 0.00000 -1.00000 0.00000 0.00000 -1.00000 0.00000 0.00000 1.00000 0.00000 0.00000 1.00000 0.00000 -1.00000 0.00000 0.00000 -1.00000 0.00000 1.00000 0.00000 0.00000 1.00000 0.00000 0.00000 0.00000 1.00000 0.00000 0.00000 1.00000 -0.00000 -1.00000 0.00000 0.00000 -1.00000 0.00000 0.00000 0.00000 0.00000 -1.00000 0.00000 0.00000 -1.00000 0.00000 0.00000 1.00000 0.00000 0.00000 1.00000 0.00000 -1.00000 0.00000 0.00000 -1.00000 0.00000 1.00000 0.00000 0.00000 1.00000 0.00000 0.00000 0.00000 1.00000 0.00000 0.00000 1.00000 -0.00000 -1.00000 0.00000 0.00000 -1.00000 0.00000 0.00000 0.00000 0.00000 -1.00000 0.00000 0.00000 -1.00000 0.00000 0.00000 1.00000 0.00000 0.00000 1.00000 0.00000 -1.00000 0.00000 0.00000 -1.00000 0.00000 1.00000 0.00000 0.00000 1.00000 0.00000 0.00000 0.00000 1.00000 0.00000 0.00000 1.00000 -0.00000 -1.00000 0.00000 0.00000 -1.00000 0.00000 0.00000 0.00000 0.00000 -1.00000 0.00000 0.00000 -1.00000 0.00000 0.00000 1.00000 0.00000 0.00000 1.00000 0.00000 -1.00000 0.00000 0.00000 -1.00000 0.00000 1.00000 0.00000 0.00000 1.00000 0.00000 0.00000 0.00000 1.00000 0.00000 0.00000 1.00000 -0.00000 -1.00000 0.00000 0.00000 -1.00000 0.00000 0.00000 0.00000 0.00000 -1.00000 0.00000 0.00000 -1.00000 0.00000 0.00000 1.00000 0.00000 0.00000 1.00000 0.00000 -1.00000 0.00000 0.00000 -1.00000 0.00000 1.00000 0.00000 0.00000 1.00000 0.00000 0.00000 0.00000 1.00000 0.00000 0.00000 1.00000 -0.00000 -1.00000 0.00000 0.00000 -1.00000 0.00000 0.00000 0.00000 0.00000 -1.00000 0.00000 0.00000 -1.00000 0.00000 0.00000 1.00000 0.00000 0.00000 1.00000 0.00000 -1.00000 0.00000 0.00000 -1.00000 0.00000 1.00000 0.00000 0.00000 1.00000 0.00000 0.00000 0.00000 1.00000 0.00000 0.00000 1.00000 -0.00000 -1.00000 0.00000 0.00000 -1.00000 0.00000 0.00000 0.00000 0.00000 -1.00000 0.00000 0.00000 -1.00000 0.00000 0.00000 1.00000 0.00000 0.00000 1.00000 0.00000 -1.00000 0.00000 0.00000 -1.00000 0.00000 1.00000 0.00000 0.00000 1.00000 0.00000 0.00000 0.00000 1.00000 0.00000 0.00000 1.00000 -0.00000 -1.00000 0.00000 0.00000 -1.00000 0.00000 0.00000</float_array><technique_common><accessor source="#normals-array" count="252" stride="3"><param name="X" type="float"/><param name="Y" type="float"/><param name="Z" type="float"/></accessor></technique_common></source>
<vertices id="vertices"><input semantic="POSITION" source="#positions"/></vertices><triangles count="252"><input semantic="VERTEX" source="#vertices" offset="0"/><input semantic="NORMAL" source="#normals" offset="1"/><p>0 0 2 0 1 0 0 1 3 1 2 1 4 2 5 2 6 2 4 3 6 3 7 3 0 4 1 4 5 4 0 5 5 5 4 5 1 6 2 6 6 6 1 7 6 7 5 7 2 8 3 8 7 8 2 9 7 9 6 9 3 10 0 10 4 10 3 11 4 11 7 11 8 12 10 12 9 12 8 13 11 13 10 13 12 14 13 14 14 14 12 15 14 15 15 15 8 16 9 16 13 16 8 17 13 17 12 17 9 18 10 18 14 18 9 19 14 19 13 19 10 20 11 20 15 20 10 21 15 21 14 21 11 22 8 22 12 22 11 23 12 23 15 23 16 24 18 24 17 24 16 25 19 25 18 25 20 26 21 26 22 26 20 27 22 27 23 27 16 28 17 28 21 28 16 29 21 29 20 29 17 30 18 30 22 30 17 31 22 31 21 31 18 32 19 32 23 32 18 33 23 33 22 33 19 34 16 34 20 34 19 35 20 35 23 35 24 36 26 36 25 36 24 37 27 37 26 37 28 38 29 38 30 38 28 39 30 39 31 39 24 40 25 40 29 40 24 41 29 41 28 41 25 42 26 42 30 42 25 43 30 43 29 43 26 44 27 44 31 44 26 45 31 45 30 45 27 46 24 46 28 46 27 47 28 47 31 47 32 48 34 48 33 48 32 49 35 49 34 49 36 50 37 50 38 50 36 51 38 51 39 51 32 52 33 52 37 52 32 53 37 53 36 53 33 54 34 54 38 54 33 55 38 55 37 55 34 56 35 56 39 56 34 57 39 57 38 57 35 58 32 58 36 58 35 59 36 59 39 59 40 60 42 60 41 60 40 61 43 61 42 61 44 62 45 62 46 62 44 63 46 63 47 63 40 64 41 64 45 64 40 65 45 65 44 65 41 66 42 66 46 66 41 67 46 67 45 67 42 68 43 68 47 68 42 69 47 69 46 69 43 70 40 70 44 70 43 71 44 71 47 71 48 72 50 72 49 72 48 73 51 73 50 73 52 74 53 74 54 74 52 75 54 75 55 75 48 76 49 76 53 76 48 77 53 77 52 77 49 78 50 78 54 78 49 79 54 79 53 79 50 80 51 80 55 80 50 81 55 81 54 81 51 82 48 82 52 82 51 83 52 83 55 83 56 84 58 84 57 84 56 85 59 85 58 85 60 86 61 86 62 86 60 87 62 87 63 87 56 88 57 88 61 88 56 89 61 89 60 89 57 90 58 90 62 90 57 91 62 91 61 91 58 92 59 92 63 92 58 93 63 93 62 93 59 94 56 94 60 94 59 95 60 95 63 95 64 96 66 96 65 96 64 97 67 97 66 97 68 98 69 98 70 98 68 99 70 99 71 99 64 100 65 100 69 100 64 101 69 101 68 101 65 102 66 102 70 102 65 103 70 103 69 103 66 104 67 104 71 104 66 105 71 105 70 105 67 106 64 106 68 106 67 107 68 107 71 107 72 108 74 108 73 108 72 109 75 109 74 109 76 110 77 110 78 110 76 111 78 111 79 111 72 112 73 112 77 112 72 113 77 113 76 113 73 114 74 114 78 114 73 115 78 115 77 115 74 116 75 116 79 116 74 117 79 117 78 117 75 118 72 118 76 118 75 119 76 119 79 119 80 120 82 120 81 120 80 121 83 121 82 121 84 122 85 122 86 122 84 123 86 123 87 123 80 124 81 124 85 124 80 125 85 125 84 125 81 126 82 126 86 126 81 127 86 127 85 127 82 128 83 128 87 128 82 129 87 129 86 129 83 130 80 130 84 130 83 131 84 131 87 131 88 132 90 132 89 132 88 133 91 133 90 133 92 134 93 134 94 134 92 135 94 135 95 135 88 136 89 136 93 136 88 137 93 137 92 137 89 138 90 138 94 138 89 139 94 139 93 139 90 140 91 140 95 140 90 141 95 141 94 141 91 142 88 142 92 142 91 143 92 143 95 143 96 144 98 144 97 144 96 145 99 145 98 145 100 146 101 146 102 146 100 147 102 147 103 147 96 148 97 148 101 148 96 149 101 149 100 149 97 150 98 150 102 150 97 151 102 151 101 151 98 152 99 152 103 152 98 153 103 153 102 153 99 154 96 154 100 154 99 155 100 155 103 155 104 156 106 156 105 156 104 157 107 157 106 157 108 158 109 158 110 158 108 159 110 159 111 159 104 160 105 160 109 160 104 161 109 161 108 161 105 162 106 162 110 162 105 163 110 163 109 163 106 164 107 164 111 164 106 165 111 165 110 165 107 166 104 166 108 166 107 167 108 167 111 167 112 168 114 168 113 168 112 169 115 169 114 169 116 170 117 170 118 170 116 171 118 171 119 171 112 172 113 172 117 172 112 173 117 173 116 173 113 174 114 174 118 174 113 175 118 175 117 175 114 176 115 176 119 176 114 177 119 177 118 177 115 178 112 178 116 178 115 179 116 179 119 179 120 180 122 180 121 180 120 181 123 181 122 181 124 182 125 182 126 182 124 183 126 183 127 183 120 184 121 184 125 184 120 185 125 185 124 185 121 186 122 186 126 186 121 187 126 187 125 187 122 188 123 188 127 188 122 189 127 189 126 189 123 190 120 190 124 190 123 191 124 191 127 191 128 192 130 192 129 192 128 193 131 193 130 193 132 194 133 194 134 194 132 195 134 195 135 195 128 196 129 196 133 196 128 197 133 197 132 197 129 198 130 198 134 198 129 199 134 199 133 199 130 200 131 200 135 200 130 201 135 201 134 201 131 202 128 202 132 202 131 203 132 203 135 203 136 204 138 204 137 204 136 205 139 205 138 205 140 206 141 206 142 206 140 207 142 207 143 207 136 208 137 208 141 208 136 209 141 209 140 209 137 210 138 210 142 210 137 211 142 211 141 211 138 212 139 212 143 212 138 213 143 213 142 213 139 214 136 214 140 214 139 215 140 215 143 215 144 216 146 216 145 216 144 217 147 217 146 217 148 218 149 218 150 218 148 219 150 219 151 219 144 220 145 220 149 220 144 221 149 221 148 221 145 222 146 222 150 222 145 223 150 223 149 223 146 224 147 224 151 224 146 225 151 225 150 225 147 226 144 226 148 226 147 227 148 227 151 227 152 228 154 228 153 228 152 229 155 229 154 229 156 230 157 230 158 230 156 231 158 231 159 231 152 232 153 232 157 232 152 233 157 233 156 233 153 234 154 234 158 234 153 235 158 235 157 235 154 236 155 236 159 236 154 237 159 237 158 237 155 238 152 238 156 238 155 239 156 239 159 239 160 240 162 240 161 240 160 241 163 241 162 241 164 242 165 242 166 242 164 243 166 243 167 243 160 244 161 244 165 244 160 245 165 245 164 245 161 246 162 246 166 246 161 247 166 247 165 247 162 248 163 248 167 248 162 249 167 249 166 249 163 250 160 250 164 250 163 251 164 251 167 251</p></triangles>
</mesh></geometry></library_geometries><library_visual_scenes><visual_scene id="Scene"><node id="mesh"><instance_geometry url="#geometry"/></node></visual_scene></library_visual_scenes><scene><instance_visual_scene url="#Scene"/></scene></COLLADA>