<?xml version="1.0" encoding="UTF-8"?>
<COLLADA xmlns="http://www.collada.org/2005/11/COLLADASchema" version="1.4.1">
<asset><contributor><authoring_tool>Summit Estate procedural mesh exporter</authoring_tool></contributor><created>2026-09-11T00:00:00Z</created><modified>2026-09-11T00:00:00Z</modified><unit name="meter" meter="1"/><up_axis>Z_UP</up_axis></asset>
<library_geometries><geometry id="geometry" name="geometry"><mesh>
<source id="positions"><float_array id="positions-array" count="1980">-20.22050 246.52397 80.75667 -23.09283 250.19529 80.75667 -27.70846 249.54343 80.75667 -29.45175 245.22025 80.75667 -26.57941 241.54893 80.75667 -21.96379 242.20079 80.75667 -24.83612 245.87211 97.99617 -24.83612 245.87211 80.75667 -24.53612 245.87211 76.60257 -24.68612 246.13192 76.60257 -24.98612 246.13192 76.60257 -25.13612 245.87211 76.60257 -24.98612 245.61230 76.60257 -24.68612 245.61230 76.60257 -24.53612 245.87211 84.49536 -24.68612 246.13192 84.49536 -24.98612 246.13192 84.49536 -25.13612 245.87211 84.49536 -24.98612 245.61230 84.49536 -24.68612 245.61230 84.49536 -24.83612 245.87211 76.60257 -24.83612 245.87211 84.49536 -58.08057 26.68096 79.11728 -56.25331 29.36451 79.11728 -57.66369 32.28874 79.11728 -60.90135 32.52943 79.11728 -62.72861 29.84588 79.11728 -61.31823 26.92164 79.11728 -59.49096 29.60519 92.84479 -59.49096 29.60519 79.11728 -59.19096 29.60519 75.80945 -59.34096 29.86500 75.80945 -59.64096 29.86500 75.80945 -59.79096 29.60519 75.80945 -59.64096 29.34538 75.80945 -59.34096 29.34538 75.80945 -59.19096 29.60519 82.09433 -59.34096 29.86500 82.09433 -59.64096 29.86500 82.09433 -59.79096 29.60519 82.09433 -59.64096 29.34538 82.09433 -59.34096 29.34538 82.09433 -59.49096 29.60519 75.80945 -59.49096 29.60519 82.09433 -67.69600 11.78906 74.72259 -71.73625 11.80793 74.72259 -73.77271 8.31840 74.72259 -71.76892 4.81002 74.72259 -67.72868 4.79116 74.72259 -65.69222 8.28068 74.72259 -69.73246 8.29954 90.67668 -69.73246 8.29954 74.72259 -69.43246 8.29954 70.87823 -69.58246 8.55935 70.87823 -69.88246 8.55935 70.87823 -70.03246 8.29954 70.87823 -69.88246 8.03973 70.87823 -69.58246 8.03973 70.87823 -69.43246 8.29954 78.18251 -69.58246 8.55935 78.18251 -69.88246 8.55935 78.18251 -70.03246 8.29954 78.18251 -69.88246 8.03973 78.18251 -69.58246 8.03973 78.18251 -69.73246 8.29954 70.87823 -69.73246 8.29954 78.18251 -34.13033 244.11489 80.79578 -32.01647 239.70629 80.79578 -27.14158 239.33265 80.79578 -24.38055 243.36760 80.79578 -26.49441 247.77620 80.79578 -31.36930 248.14984 80.79578 -29.25544 243.74125 98.35219 -29.25544 243.74125 80.79578 -28.95544 243.74125 76.56532 -29.10544 244.00105 76.56532 -29.40544 244.00105 76.56532 -29.55544 243.74125 76.56532 -29.40544 243.48144 76.56532 -29.10544 243.48144 76.56532 -28.95544 243.74125 84.60319 -29.10544 244.00105 84.60319 -29.40544 244.00105 84.60319 -29.55544 243.74125 84.60319 -29.40544 243.48144 84.60319 -29.10544 243.48144 84.60319 -29.25544 243.74125 76.56532 -29.25544 243.74125 84.60319 -76.46071 27.42817 64.67912 -80.77068 27.41935 64.67912 -82.91804 23.68239 64.67912 -80.75541 19.95425 64.67912 -76.44544 19.96306 64.67912 -74.29808 23.70002 64.67912 -78.60806 23.69121 75.91821 -78.60806 23.69121 64.67912 -78.30806 23.69121 61.97091 -78.45806 23.95101 61.97091 -78.75806 23.95101 61.97091 -78.90806 23.69121 61.97091 -78.75806 23.43140 61.97091 -78.45806 23.43140 61.97091 -78.30806 23.69121 67.11651 -78.45806 23.95101 67.11651 -78.75806 23.95101 67.11651 -78.90806 23.69121 67.11651 -78.75806 23.43140 67.11651 -78.45806 23.43140 67.11651 -78.60806 23.69121 61.97091 -78.60806 23.69121 67.11651 -37.18796 244.34126 79.47343 -33.08004 242.12720 79.47343 -29.10864 244.57773 79.47343 -29.24516 249.24233 79.47343 -33.35308 251.45639 79.47343 -37.32448 249.00586 79.47343 -33.21656 246.79180 92.88306 -33.21656 246.79180 79.47343 -32.91656 246.79180 76.24219 -33.06656 247.05160 76.24219 -33.36656 247.05160 76.24219 -33.51656 246.79180 76.24219 -33.36656 246.53199 76.24219 -33.06656 246.53199 76.24219 -32.91656 246.79180 82.38154 -33.06656 247.05160 82.38154 -33.36656 247.05160 82.38154 -33.51656 246.79180 82.38154 -33.36656 246.53199 82.38154 -33.06656 246.53199 82.38154 -33.21656 246.79180 76.24219 -33.21656 246.79180 82.38154 -59.48141 1.36334 79.62176 -59.06465 3.92552 79.62176 -61.07518 5.56754 79.62176 -63.50248 4.64738 79.62176 -63.91924 2.08519 79.62176 -61.90871 0.44318 79.62176 -61.49194 3.00536 94.27147 -61.49194 3.00536 79.62176 -61.19194 3.00536 76.09171 -61.34194 3.26517 76.09171 -61.64194 3.26517 76.09171 -61.79194 3.00536 76.09171 -61.64194 2.74555 76.09171 -61.34194 2.74555 76.09171 -61.19194 3.00536 82.79881 -61.34194 3.26517 82.79881 -61.64194 3.26517 82.79881 -61.79194 3.00536 82.79881 -61.64194 2.74555 82.79881 -61.34194 2.74555 82.79881 -61.49194 3.00536 76.09171 -61.49194 3.00536 82.79881 -120.93090 0.50166 55.80424 -117.30960 0.01339 55.80424 -115.07609 2.90539 55.80424 -116.46388 6.28566 55.80424 -120.08518 6.77394 55.80424 -122.31869 3.88194 55.80424 -118.69739 3.39366 71.57783 -118.69739 3.39366 55.80424 -118.39739 3.39366 52.00337 -118.54739 3.65347 52.00337 -118.84739 3.65347 52.00337 -118.99739 3.39366 52.00337 -118.84739 3.13386 52.00337 -118.54739 3.13386 52.00337 -118.39739 3.39366 59.22502 -118.54739 3.65347 59.22502 -118.84739 3.65347 59.22502 -118.99739 3.39366 59.22502 -118.84739 3.13386 59.22502 -118.54739 3.13386 59.22502 -118.69739 3.39366 52.00337 -118.69739 3.39366 59.22502 -86.52237 19.34289 62.11045 -84.06026 16.56955 62.11045 -80.42742 17.31512 62.11045 -79.25668 20.83404 62.11045 -81.71879 23.60739 62.11045 -85.35163 22.86181 62.11045 -82.88952 20.08847 72.30010 -82.88952 20.08847 62.11045 -82.58952 20.08847 59.65512 -82.73952 20.34827 59.65512 -83.03952 20.34827 59.65512 -83.18952 20.08847 59.65512 -83.03952 19.82866 59.65512 -82.73952 19.82866 59.65512 -82.58952 20.08847 64.32026 -82.73952 20.34827 64.32026 -83.03952 20.34827 64.32026 -83.18952 20.08847 64.32026 -83.03952 19.82866 64.32026 -82.73952 19.82866 64.32026 -82.88952 20.08847 59.65512 -82.88952 20.08847 64.32026 -67.53889 3.76059 74.23471 -68.95346 5.93939 74.23471 -71.54764 5.80373 74.23471 -72.72725 3.48928 74.23471 -71.31268 1.31048 74.23471 -68.71850 1.44613 74.23471 -70.13307 3.62493 89.23498 -70.13307 3.62493 74.23471 -69.83307 3.62493 70.62019 -69.98307 3.88474 70.62019 -70.28307 3.88474 70.62019 -70.43307 3.62493 70.62019 -70.28307 3.36513 70.62019 -69.98307 3.36513 70.62019 -69.83307 3.62493 77.48778 -69.98307 3.88474 77.48778 -70.28307 3.88474 77.48778 -70.43307 3.62493 77.48778 -70.28307 3.36513 77.48778 -69.98307 3.36513 77.48778 -70.13307 3.62493 70.62019 -70.13307 3.62493 77.48778 -22.33135 236.97328 80.56448 -25.40229 237.41492 80.56448 -27.32023 234.97623 80.56448 -26.16723 232.09590 80.56448 -23.09629 231.65426 80.56448 -21.17835 234.09295 80.56448 -24.24929 234.53459 97.02913 -24.24929 234.53459 80.56448 -23.94929 234.53459 76.59710 -24.09929 234.79440 76.59710 -24.39929 234.79440 76.59710 -24.54929 234.53459 76.59710 -24.39929 234.27478 76.59710 -24.09929 234.27478 76.59710 -23.94929 234.53459 84.13513 -24.09929 234.79440 84.13513 -24.39929 234.79440 84.13513 -24.54929 234.53459 84.13513 -24.39929 234.27478 84.13513 -24.09929 234.27478 84.13513 -24.24929 234.53459 76.59710 -24.24929 234.53459 84.13513 -56.52725 5.47272 80.97125 -59.93751 4.70647 80.97125 -60.97905 1.36998 80.97125 -58.61034 -1.20027 80.97125 -55.20008 -0.43402 80.97125 -54.15854 2.90247 80.97125 -57.56879 2.13623 93.53974 -57.56879 2.13623 80.97125 -57.26879 2.13623 77.94270 -57.41879 2.39603 77.94270 -57.71879 2.39603 77.94270 -57.86879 2.13623 77.94270 -57.71879 1.87642 77.94270 -57.41879 1.87642 77.94270 -57.26879 2.13623 83.69695 -57.41879 2.39603 83.69695 -57.71879 2.39603 83.69695 -57.86879 2.13623 83.69695 -57.71879 1.87642 83.69695 -57.41879 1.87642 83.69695 -57.56879 2.13623 77.94270 -57.56879 2.13623 83.69695 -64.88747 0.69715 77.76354 -60.88217 2.97335 77.76354 -60.85077 7.58014 77.76354 -64.82467 9.91072 77.76354 -68.82996 7.63452 77.76354 -68.86137 3.02774 77.76354 -64.85607 5.30394 92.76923 -64.85607 5.30394 77.76354 -64.55607 5.30394 74.14771 -64.70607 5.56374 74.14771 -65.00607 5.56374 74.14771 -65.15607 5.30394 74.14771 -65.00607 5.04413 74.14771 -64.70607 5.04413 74.14771 -64.55607 5.30394 81.01778 -64.70607 5.56374 81.01778 -65.00607 5.56374 81.01778 -65.15607 5.30394 81.01778 -65.00607 5.04413 81.01778 -64.70607 5.04413 81.01778 -64.85607 5.30394 74.14771 -64.85607 5.30394 81.01778 -19.60805 229.87039 79.42877 -16.96880 227.73586 79.42877 -13.80062 228.95426 79.42877 -13.27169 232.30718 79.42877 -15.91094 234.44170 79.42877 -19.07912 233.22331 79.42877 -16.43987 231.08878 87.79796 -16.43987 231.08878 79.42877 -16.13987 231.08878 77.41210 -16.28987 231.34859 77.41210 -16.58987 231.34859 77.41210 -16.73987 231.08878 77.41210 -16.58987 230.82898 77.41210 -16.28987 230.82898 77.41210 -16.13987 231.08878 81.24378 -16.28987 231.34859 81.24378 -16.58987 231.34859 81.24378 -16.73987 231.08878 81.24378 -16.58987 230.82898 81.24378 -16.28987 230.82898 81.24378 -16.43987 231.08878 77.41210 -16.43987 231.08878 81.24378 -13.88101 240.04447 80.11334 -14.39614 243.61569 80.11334 -17.74646 244.95518 80.11334 -20.58166 242.72347 80.11334 -20.06654 239.15225 80.11334 -16.71621 237.81276 80.11334 -17.23134 241.38397 92.47449 -17.23134 241.38397 80.11334 -16.93134 241.38397 77.13475 -17.08134 241.64378 77.13475 -17.38134 241.64378 77.13475 -17.53134 241.38397 77.13475 -17.38134 241.12416 77.13475 -17.08134 241.12416 77.13475 -16.93134 241.38397 82.79408 -17.08134 241.64378 82.79408 -17.38134 241.64378 82.79408 -17.53134 241.38397 82.79408 -17.38134 241.12416 82.79408 -17.08134 241.12416 82.79408 -17.23134 241.38397 77.13475 -17.23134 241.38397 82.79408 -67.74686 11.06526 74.41197 -66.34705 15.25307 74.41197 -69.27389 18.55924 74.41197 -73.60054 17.67761 74.41197 -75.00035 13.48981 74.41197 -72.07351 10.18363 74.41197 -70.67370 14.37144 91.93435 -70.67370 14.37144 74.41197 -70.37370 14.37144 70.18971 -70.52370 14.63124 70.18971 -70.82370 14.63124 70.18971 -70.97370 14.37144 70.18971 -70.82370 14.11163 70.18971 -70.52370 14.11163 70.18971 -70.37370 14.37144 78.21200 -70.52370 14.63124 78.21200 -70.82370 14.63124 78.21200 -70.97370 14.37144 78.21200 -70.82370 14.11163 78.21200 -70.52370 14.11163 78.21200 -70.67370 14.37144 70.18971 -70.67370 14.37144 78.21200 -61.62904 13.40253 81.63550 -58.83107 11.29232 81.63550 -55.60459 12.66033 81.63550 -55.17607 16.13855 81.63550 -57.97404 18.24876 81.63550 -61.20053 16.88075 81.63550 -58.40256 14.77054 98.31504 -58.40256 14.77054 81.63550 -58.10256 14.77054 77.61633 -58.25256 15.03035 77.61633 -58.55256 15.03035 77.61633 -58.70256 14.77054 77.61633 -58.55256 14.51073 77.61633 -58.25256 14.51073 77.61633 -58.10256 14.77054 85.25275 -58.25256 15.03035 85.25275 -58.55256 15.03035 85.25275 -58.70256 14.77054 85.25275 -58.55256 14.51073 85.25275 -58.25256 14.51073 85.25275 -58.40256 14.77054 77.61633 -58.40256 14.77054 85.25275 -107.43497 3.72498 53.71770 -110.18280 1.86700 53.71770 -109.94765 -1.44167 53.71770 -106.96469 -2.89236 53.71770 -104.21687 -1.03439 53.71770 -104.45201 2.27428 53.71770 -107.19983 0.41631 68.65390 -107.19983 0.41631 53.71770 -106.89983 0.41631 50.11861 -107.04983 0.67612 50.11861 -107.34983 0.67612 50.11861 -107.49983 0.41631 50.11861 -107.34983 0.15650 50.11861 -107.04983 0.15650 50.11861 -106.89983 0.41631 56.95687 -107.04983 0.67612 56.95687 -107.34983 0.67612 56.95687 -107.49983 0.41631 56.95687 -107.34983 0.15650 56.95687 -107.04983 0.15650 56.95687 -107.19983 0.41631 50.11861 -107.19983 0.41631 56.95687 -57.00685 239.46620 64.19739 -60.75256 239.51500 64.19739 -62.66768 236.29551 64.19739 -60.83708 233.02723 64.19739 -57.09136 232.97843 64.19739 -55.17624 236.19792 64.19739 -58.92196 236.24671 78.47419 -58.92196 236.24671 64.19739 -58.62196 236.24671 60.75720 -58.77196 236.50652 60.75720 -59.07196 236.50652 60.75720 -59.22196 236.24671 60.75720 -59.07196 235.98691 60.75720 -58.77196 235.98691 60.75720 -58.62196 236.24671 67.29356 -58.77196 236.50652 67.29356 -59.07196 236.50652 67.29356 -59.22196 236.24671 67.29356 -59.07196 235.98691 67.29356 -58.77196 235.98691 67.29356 -58.92196 236.24671 60.75720 -58.92196 236.24671 67.29356 -101.04220 8.29231 53.56398 -105.63703 9.19917 53.56398 -108.71981 5.67336 53.56398 -107.20776 1.24069 53.56398 -102.61293 0.33383 53.56398 -99.53015 3.85964 53.56398 -104.12498 4.76650 64.43510 -104.12498 4.76650 53.56398 -103.82498 4.76650 50.94443 -103.97498 5.02631 50.94443 -104.27498 5.02631 50.94443 -104.42498 4.76650 50.94443 -104.27498 4.50669 50.94443 -103.97498 4.50669 50.94443 -103.82498 4.76650 55.92157 -103.97498 5.02631 55.92157 -104.27498 5.02631 55.92157 -104.42498 4.76650 55.92157 -104.27498 4.50669 55.92157 -103.97498 4.50669 55.92157 -104.12498 4.76650 50.94443 -104.12498 4.76650 55.92157 -9.71461 229.31883 80.60698 -10.85585 231.46994 80.60698 -13.28937 231.55715 80.60698 -14.58167 229.49326 80.60698 -13.44044 227.34216 80.60698 -11.00691 227.25494 80.60698 -12.14814 229.40605 91.64274 -12.14814 229.40605 80.60698 -11.84814 229.40605 77.94777 -11.99814 229.66585 77.94777 -12.29814 229.66585 77.94777 -12.44814 229.40605 77.94777 -12.29814 229.14624 77.94777 -11.99814 229.14624 77.94777 -11.84814 229.40605 83.00028 -11.99814 229.66585 83.00028 -12.29814 229.66585 83.00028 -12.44814 229.40605 83.00028 -12.29814 229.14624 83.00028 -11.99814 229.14624 83.00028 -12.14814 229.40605 77.94777 -12.14814 229.40605 83.00028 -78.21444 5.15761 70.14465 -76.97516 1.64375 70.14465 -73.31242 0.96006 70.14465 -70.88896 3.79024 70.14465 -72.12824 7.30411 70.14465 -75.79098 7.98780 70.14465 -74.55170 4.47393 81.68961 -74.55170 4.47393 70.14465 -74.25170 4.47393 67.36273 -74.40170 4.73374 67.36273 -74.70170 4.73374 67.36273 -74.85170 4.47393 67.36273 -74.70170 4.21412 67.36273 -74.40170 4.21412 67.36273 -74.25170 4.47393 72.64837 -74.40170 4.73374 72.64837 -74.70170 4.73374 72.64837 -74.85170 4.47393 72.64837 -74.70170 4.21412 72.64837 -74.40170 4.21412 72.64837 -74.55170 4.47393 67.36273 -74.55170 4.47393 72.64837 -22.54766 253.47766 79.54430 -25.04771 249.47799 79.54430 -22.83392 245.31306 79.54430 -18.12008 245.14779 79.54430 -15.62003 249.14745 79.54430 -17.83382 253.31239 79.54430 -20.33387 249.31272 91.41737 -20.33387 249.31272 79.54430 -20.03387 249.31272 76.68332 -20.18387 249.57253 76.68332 -20.48387 249.57253 76.68332 -20.63387 249.31272 76.68332 -20.48387 249.05292 76.68332 -20.18387 249.05292 76.68332 -20.03387 249.31272 82.11919 -20.18387 249.57253 82.11919 -20.48387 249.57253 82.11919 -20.63387 249.31272 82.11919 -20.48387 249.05292 82.11919 -20.18387 249.05292 82.11919 -20.33387 249.31272 76.68332 -20.33387 249.31272 82.11919 -99.91652 12.90425 54.04981 -102.73048 13.06382 54.04981 -104.27565 10.70664 54.04981 -103.00686 8.18990 54.04981 -100.19290 8.03033 54.04981 -98.64773 10.38751 54.04981 -101.46169 10.54708 62.82031 -101.46169 10.54708 54.04981 -101.16169 10.54708 51.93644 -101.31169 10.80688 51.93644 -101.61169 10.80688 51.93644 -101.76169 10.54708 51.93644 -101.61169 10.28727 51.93644 -101.31169 10.28727 51.93644 -101.16169 10.54708 55.95185 -101.31169 10.80688 55.95185 -101.61169 10.80688 55.95185 -101.76169 10.54708 55.95185 -101.61169 10.28727 55.95185 -101.31169 10.28727 55.95185 -101.46169 10.54708 51.93644 -101.46169 10.54708 55.95185 -90.22622 18.87633 59.50119 -85.78020 16.87614 59.50119 -81.82498 19.72641 59.50119 -82.31577 24.57687 59.50119 -86.76179 26.57706 59.50119 -90.71701 23.72679 59.50119 -86.27100 21.72660 70.18540 -86.27100 21.72660 59.50119 -85.97100 21.72660 56.92669 -86.12100 21.98641 56.92669 -86.42100 21.98641 56.92669 -86.57100 21.72660 56.92669 -86.42100 21.46680 56.92669 -86.12100 21.46680 56.92669 -85.97100 21.72660 61.81825 -86.12100 21.98641 61.81825 -86.42100 21.98641 61.81825 -86.57100 21.72660 61.81825 -86.42100 21.46680 61.81825 -86.12100 21.46680 61.81825 -86.27100 21.72660 56.92669 -86.27100 21.72660 61.81825 -58.17348 43.84339 67.99072 -58.25427 41.41320 67.99072 -56.19005 40.12814 67.99072 -54.04505 41.27327 67.99072 -53.96426 43.70346 67.99072 -56.02848 44.98852 67.99072 -56.10926 42.55833 80.32100 -56.10926 42.55833 67.99072 -55.80926 42.55833 65.01957 -55.95926 42.81814 65.01957 -56.25926 42.81814 65.01957 -56.40926 42.55833 65.01957 -56.25926 42.29852 65.01957 -55.95926 42.29852 65.01957 -55.80926 42.55833 70.66476 -55.95926 42.81814 70.66476 -56.25926 42.81814 70.66476 -56.40926 42.55833 70.66476 -56.25926 42.29852 70.66476 -55.95926 42.29852 70.66476 -56.10926 42.55833 65.01957 -56.10926 42.55833 70.66476 -19.98035 245.71815 79.45866 -23.72111 246.42815 79.45866 -26.20637 243.54356 79.45866 -24.95086 239.94897 79.45866 -21.21011 239.23897 79.45866 -18.72485 242.12356 79.45866 -22.46561 242.83356 90.23023 -22.46561 242.83356 79.45866 -22.16561 242.83356 76.86310 -22.31561 243.09337 76.86310 -22.61561 243.09337 76.86310 -22.76561 242.83356 76.86310 -22.61561 242.57375 76.86310 -22.31561 242.57375 76.86310 -22.16561 242.83356 81.79467 -22.31561 243.09337 81.79467 -22.61561 243.09337 81.79467 -22.76561 242.83356 81.79467 -22.61561 242.57375 81.79467 -22.31561 242.57375 81.79467 -22.46561 242.83356 76.86310 -22.46561 242.83356 81.79467 -45.07522 241.71682 79.61320 -42.30015 240.39255 79.61320 -39.76576 242.13369 79.61320 -40.00644 245.19911 79.61320 -42.78151 246.52338 79.61320 -45.31590 244.78223 79.61320 -42.54083 243.45796 97.50138 -42.54083 243.45796 79.61320 -42.24083 243.45796 75.30279 -42.39083 243.71777 75.30279 -42.69083 243.71777 75.30279 -42.84083 243.45796 75.30279 -42.69083 243.19815 75.30279 -42.39083 243.19815 75.30279 -42.24083 243.45796 83.49256 -42.39083 243.71777 83.49256 -42.69083 243.71777 83.49256 -42.84083 243.45796 83.49256 -42.69083 243.19815 83.49256 -42.39083 243.19815 83.49256 -42.54083 243.45796 75.30279 -42.54083 243.45796 83.49256 -43.40756 245.87078 77.59110 -46.94537 249.24414 77.59110 -51.63569 247.86699 77.59110 -52.78820 243.11648 77.59110 -49.25039 239.74312 77.59110 -44.56007 241.12027 77.59110 -48.09788 244.49363 91.39518 -48.09788 244.49363 77.59110 -47.79788 244.49363 74.26481 -47.94788 244.75344 74.26481 -48.24788 244.75344 74.26481 -48.39788 244.49363 74.26481 -48.24788 244.23382 74.26481 -47.94788 244.23382 74.26481 -47.79788 244.49363 80.58476 -47.94788 244.75344 80.58476 -48.24788 244.75344 80.58476 -48.39788 244.49363 80.58476 -48.24788 244.23382 80.58476 -47.94788 244.23382 80.58476 -48.09788 244.49363 74.26481 -48.09788 244.49363 80.58476 -56.13424 20.74478 80.32203 -58.72639 21.78377 80.32203 -60.92225 20.05839 80.32203 -60.52596 17.29403 80.32203 -57.93381 16.25505 80.32203 -55.73795 17.98043 80.32203 -58.33010 19.01941 91.34494 -58.33010 19.01941 80.32203 -58.03010 19.01941 77.66591 -58.18010 19.27922 77.66591 -58.48010 19.27922 77.66591 -58.63010 19.01941 77.66591 -58.48010 18.75960 77.66591 -58.18010 18.75960 77.66591 -58.03010 19.01941 82.71254 -58.18010 19.27922 82.71254 -58.48010 19.27922 82.71254 -58.63010 19.01941 82.71254 -58.48010 18.75960 82.71254 -58.18010 18.75960 82.71254 -58.33010 19.01941 77.66591 -58.33010 19.01941 82.71254</float_array><technique_common><accessor source="#positions-array" count="660" stride="3"><param name="X" type="float"/><param name="Y" type="float"/><param name="Z" type="float"/></accessor></technique_common></source>
<source id="normals"><float_array id="normals-array" count="3240">0.76685 0.59996 0.22800 0.00000 0.00000 -1.00000 -0.13616 0.96409 0.22800 0.00000 0.00000 -1.00000 -0.90301 0.36413 0.22800 -0.00000 0.00000 -1.00000 -0.76685 -0.59996 0.22800 0.00000 0.00000 -1.00000 0.13616 -0.96409 0.22800 0.00000 -0.00000 -1.00000 0.90301 -0.36413 0.22800 0.00000 0.00000 -1.00000 0.86603 0.50000 0.00000 0.86603 0.50000 -0.00000 0.00000 0.00000 -1.00000 0.00000 0.00000 1.00000 0.00000 1.00000 0.00000 0.00000 1.00000 -0.00000 0.00000 0.00000 -1.00000 0.00000 -0.00000 1.00000 -0.86603 0.50000 0.00000 -0.86603 0.50000 0.00000 0.00000 0.00000 -1.00000 0.00000 0.00000 1.00000 -0.86603 -0.50000 0.00000 -0.86603 -0.50000 0.00000 -0.00000 0.00000 -1.00000 0.00000 0.00000 1.00000 0.00000 -1.00000 0.00000 0.00000 -1.00000 0.00000 0.00000 -0.00000 -1.00000 0.00000 0.00000 1.00000 0.86603 -0.50000 0.00000 0.86603 -0.50000 0.00000 0.00000 0.00000 -1.00000 -0.00000 0.00000 1.00000 0.80976 -0.55138 0.20065 0.00000 0.00000 -1.00000 0.88239 0.42559 0.20065 0.00000 0.00000 -1.00000 0.07263 0.97697 0.20065 0.00000 0.00000 -1.00000 -0.80976 0.55138 0.20065 0.00000 0.00000 -1.00000 -0.88239 -0.42559 0.20065 -0.00000 0.00000 -1.00000 -0.07263 -0.97697 0.20065 0.00000 -0.00000 -1.00000 0.86603 0.50000 0.00000 0.86603 0.50000 -0.00000 0.00000 0.00000 -1.00000 0.00000 0.00000 1.00000 0.00000 1.00000 0.00000 0.00000 1.00000 -0.00000 0.00000 0.00000 -1.00000 0.00000 -0.00000 1.00000 -0.86603 0.50000 0.00000 -0.86603 0.50000 0.00000 0.00000 0.00000 -1.00000 0.00000 0.00000 1.00000 -0.86603 -0.50000 0.00000 -0.86603 -0.50000 0.00000 -0.00000 0.00000 -1.00000 0.00000 0.00000 1.00000 0.00000 -1.00000 0.00000 0.00000 -1.00000 0.00000 0.00000 -0.00000 -1.00000 0.00000 0.00000 1.00000 0.86603 -0.50000 0.00000 0.86603 -0.50000 0.00000 0.00000 0.00000 -1.00000 -0.00000 0.00000 1.00000 0.00456 0.97677 0.21422 0.00000 0.00000 -1.00000 -0.84363 0.49234 0.21422 0.00000 0.00000 -1.00000 -0.84819 -0.48444 0.21422 -0.00000 0.00000 -1.00000 -0.00456 -0.97677 0.21422 0.00000 -0.00000 -1.00000 0.84363 -0.49234 0.21422 0.00000 0.00000 -1.00000 0.84819 0.48444 0.21422 0.00000 0.00000 -1.00000 0.86603 0.50000 0.00000 0.86603 0.50000 -0.00000 0.00000 0.00000 -1.00000 0.00000 0.00000 1.00000 0.00000 1.00000 0.00000 0.00000 1.00000 -0.00000 0.00000 0.00000 -1.00000 0.00000 -0.00000 1.00000 -0.86603 0.50000 0.00000 -0.86603 0.50000 0.00000 0.00000 0.00000 -1.00000 0.00000 0.00000 1.00000 -0.86603 -0.50000 0.00000 -0.86603 -0.50000 0.00000 -0.00000 0.00000 -1.00000 0.00000 0.00000 1.00000 0.00000 -1.00000 0.00000 0.00000 -1.00000 0.00000 0.00000 -0.00000 -1.00000 0.00000 0.00000 1.00000 0.86603 -0.50000 0.00000 0.86603 -0.50000 0.00000 0.00000 0.00000 -1.00000 -0.00000 0.00000 1.00000 -0.87657 -0.42030 0.23445 -0.00000 0.00000 -1.00000 -0.07429 -0.96928 0.23445 0.00000 -0.00000 -1.00000 0.80228 -0.54898 0.23445 0.00000 0.00000 -1.00000 0.87657 0.42030 0.23445 0.00000 0.00000 -1.00000 0.07429 0.96928 0.23445 0.00000 0.00000 -1.00000 -0.80228 0.54898 0.23445 0.00000 0.00000 -1.00000 0.86603 0.50000 0.00000 0.86603 0.50000 -0.00000 0.00000 0.00000 -1.00000 0.00000 0.00000 1.00000 0.00000 1.00000 0.00000 0.00000 1.00000 -0.00000 0.00000 0.00000 -1.00000 0.00000 -0.00000 1.00000 -0.86603 0.50000 0.00000 -0.86603 0.50000 0.00000 0.00000 0.00000 -1.00000 0.00000 0.00000 1.00000 -0.86603 -0.50000 0.00000 -0.86603 -0.50000 0.00000 -0.00000 0.00000 -1.00000 0.00000 0.00000 1.00000 0.00000 -1.00000 0.00000 0.00000 -1.00000 0.00000 0.00000 -0.00000 -1.00000 0.00000 0.00000 1.00000 0.86603 -0.50000 0.00000 0.86603 -0.50000 0.00000 0.00000 0.00000 -1.00000 -0.00000 0.00000 1.00000 -0.00194 0.94903 0.31518 0.00000 0.00000 -1.00000 -0.82286 0.47283 0.31518 -0.00000 0.00000 -1.00000 -0.82091 -0.47620 0.31518 0.00000 0.00000 -1.00000 0.00194 -0.94903 0.31518 0.00000 -0.00000 -1.00000 0.82286 -0.47283 0.31518 0.00000 0.00000 -1.00000 0.82091 0.47620 0.31518 0.00000 0.00000 -1.00000 0.86603 0.50000 0.00000 0.86603 0.50000 -0.00000 0.00000 0.00000 -1.00000 0.00000 0.00000 1.00000 0.00000 1.00000 0.00000 0.00000 1.00000 -0.00000 0.00000 0.00000 -1.00000 0.00000 -0.00000 1.00000 -0.86603 0.50000 0.00000 -0.86603 0.50000 0.00000 0.00000 0.00000 -1.00000 0.00000 0.00000 1.00000 -0.86603 -0.50000 0.00000 -0.86603 -0.50000 0.00000 -0.00000 0.00000 -1.00000 0.00000 0.00000 1.00000 0.00000 -1.00000 0.00000 0.00000 -1.00000 0.00000 0.00000 -0.00000 -1.00000 0.00000 0.00000 1.00000 0.86603 -0.50000 0.00000 0.86603 -0.50000 0.00000 0.00000 0.00000 -1.00000 -0.00000 0.00000 1.00000 -0.45427 -0.84284 0.28856 0.00000 -0.00000 -1.00000 0.50278 -0.81483 0.28856 0.00000 0.00000 -1.00000 0.95705 0.02801 0.28856 0.00000 0.00000 -1.00000 0.45427 0.84284 0.28856 0.00000 0.00000 -1.00000 -0.50278 0.81483 0.28856 0.00000 0.00000 -1.00000 -0.95705 -0.02801 0.28856 -0.00000 0.00000 -1.00000 0.86603 0.50000 0.00000 0.86603 0.50000 -0.00000 0.00000 0.00000 -1.00000 0.00000 0.00000 1.00000 0.00000 1.00000 0.00000 0.00000 1.00000 -0.00000 0.00000 0.00000 -1.00000 0.00000 -0.00000 1.00000 -0.86603 0.50000 0.00000 -0.86603 0.50000 0.00000 0.00000 0.00000 -1.00000 0.00000 0.00000 1.00000 -0.86603 -0.50000 0.00000 -0.86603 -0.50000 0.00000 -0.00000 0.00000 -1.00000 0.00000 0.00000 1.00000 0.00000 -1.00000 0.00000 0.00000 -1.00000 0.00000 0.00000 -0.00000 -1.00000 0.00000 0.00000 1.00000 0.86603 -0.50000 0.00000 0.86603 -0.50000 0.00000 0.00000 0.00000 -1.00000 -0.00000 0.00000 1.00000 0.97561 -0.15869 0.15168 0.00000 0.00000 -1.00000 0.62523 0.76556 0.15168 0.00000 0.00000 -1.00000 -0.35037 0.92425 0.15168 0.00000 0.00000 -1.00000 -0.97561 0.15869 0.15168 -0.00000 0.00000 -1.00000 -0.62523 -0.76556 0.15168 0.00000 0.00000 -1.00000 0.35037 -0.92425 0.15168 0.00000 -0.00000 -1.00000 0.86603 0.50000 0.00000 0.86603 0.50000 -0.00000 0.00000 0.00000 -1.00000 0.00000 0.00000 1.00000 0.00000 1.00000 0.00000 0.00000 1.00000 -0.00000 0.00000 0.00000 -1.00000 0.00000 -0.00000 1.00000 -0.86603 0.50000 0.00000 -0.86603 0.50000 0.00000 0.00000 0.00000 -1.00000 0.00000 0.00000 1.00000 -0.86603 -0.50000 0.00000 -0.86603 -0.50000 0.00000 -0.00000 0.00000 -1.00000 0.00000 0.00000 1.00000 0.00000 -1.00000 0.00000 0.00000 -1.00000 0.00000 0.00000 -0.00000 -1.00000 0.00000 0.00000 1.00000 0.86603 -0.50000 0.00000 0.86603 -0.50000 0.00000 0.00000 0.00000 -1.00000 -0.00000 0.00000 1.00000 -0.13101 -0.97167 0.19670 0.00000 -0.00000 -1.00000 0.77598 -0.59930 0.19670 0.00000 0.00000 -1.00000 0.90700 0.37237 0.19670 0.00000 0.00000 -1.00000 0.13101 0.97167 0.19670 0.00000 0.00000 -1.00000 -0.77598 0.59930 0.19670 0.00000 0.00000 -1.00000 -0.90700 -0.37237 0.19670 -0.00000 0.00000 -1.00000 0.86603 0.50000 0.00000 0.86603 0.50000 -0.00000 0.00000 0.00000 -1.00000 0.00000 0.00000 1.00000 0.00000 1.00000 0.00000 0.00000 1.00000 -0.00000 0.00000 0.00000 -1.00000 0.00000 -0.00000 1.00000 -0.86603 0.50000 0.00000 -0.86603 0.50000 0.00000 0.00000 0.00000 -1.00000 0.00000 0.00000 1.00000 -0.86603 -0.50000 0.00000 -0.86603 -0.50000 0.00000 -0.00000 0.00000 -1.00000 0.00000 0.00000 1.00000 0.00000 -1.00000 0.00000 0.00000 -1.00000 0.00000 0.00000 -0.00000 -1.00000 0.00000 0.00000 1.00000 0.86603 -0.50000 0.00000 0.86603 -0.50000 0.00000 0.00000 0.00000 -1.00000 -0.00000 0.00000 1.00000 -0.71323 -0.63319 0.30061 0.00000 0.00000 -1.00000 0.19174 -0.93427 0.30061 0.00000 -0.00000 -1.00000 0.90498 -0.30108 0.30061 0.00000 0.00000 -1.00000 0.71323 0.63319 0.30061 0.00000 0.00000 -1.00000 -0.19174 0.93427 0.30061 0.00000 0.00000 -1.00000 -0.90498 0.30108 0.30061 -0.00000 0.00000 -1.00000 0.86603 0.50000 0.00000 0.86603 0.50000 -0.00000 0.00000 0.00000 -1.00000 0.00000 0.00000 1.00000 0.00000 1.00000 0.00000 0.00000 1.00000 -0.00000 0.00000 0.00000 -1.00000 0.00000 -0.00000 1.00000 -0.86603 0.50000 0.00000 -0.86603 0.50000 0.00000 0.00000 0.00000 -1.00000 0.00000 0.00000 1.00000 -0.86603 -0.50000 0.00000 -0.86603 -0.50000 0.00000 -0.00000 0.00000 -1.00000 0.00000 0.00000 1.00000 0.00000 -1.00000 0.00000 0.00000 -1.00000 0.00000 0.00000 -0.00000 -1.00000 0.00000 0.00000 1.00000 0.86603 -0.50000 0.00000 0.86603 -0.50000 0.00000 0.00000 0.00000 -1.00000 -0.00000 0.00000 1.00000 0.82946 0.53852 0.14832 0.00000 0.00000 -1.00000 -0.05164 0.98759 0.14832 0.00000 0.00000 -1.00000 -0.88110 0.44907 0.14832 -0.00000 0.00000 -1.00000 -0.82946 -0.53852 0.14832 0.00000 0.00000 -1.00000 0.05164 -0.98759 0.14832 0.00000 -0.00000 -1.00000 0.88110 -0.44907 0.14832 0.00000 0.00000 -1.00000 0.86603 0.50000 0.00000 0.86603 0.50000 -0.00000 0.00000 0.00000 -1.00000 0.00000 0.00000 1.00000 0.00000 1.00000 0.00000 0.00000 1.00000 -0.00000 0.00000 0.00000 -1.00000 0.00000 -0.00000 1.00000 -0.86603 0.50000 0.00000 -0.86603 0.50000 0.00000 0.00000 0.00000 -1.00000 0.00000 0.00000 1.00000 -0.86603 -0.50000 0.00000 -0.86603 -0.50000 0.00000 -0.00000 0.00000 -1.00000 0.00000 0.00000 1.00000 0.00000 -1.00000 0.00000 0.00000 -1.00000 0.00000 0.00000 -0.00000 -1.00000 0.00000 0.00000 1.00000 0.86603 -0.50000 0.00000 0.86603 -0.50000 0.00000 0.00000 0.00000 -1.00000 -0.00000 0.00000 1.00000 0.14049 0.97689 0.16106 0.00000 0.00000 -1.00000 -0.77577 0.61011 0.16106 0.00000 0.00000 -1.00000 -0.91626 -0.36678 0.16106 -0.00000 0.00000 -1.00000 -0.14049 -0.97689 0.16106 0.00000 -0.00000 -1.00000 0.77577 -0.61011 0.16106 0.00000 0.00000 -1.00000 0.91626 0.36678 0.16106 0.00000 0.00000 -1.00000 0.86603 0.50000 0.00000 0.86603 0.50000 -0.00000 0.00000 0.00000 -1.00000 0.00000 0.00000 1.00000 0.00000 1.00000 0.00000 0.00000 1.00000 -0.00000 0.00000 0.00000 -1.00000 0.00000 -0.00000 1.00000 -0.86603 0.50000 0.00000 -0.86603 0.50000 0.00000 0.00000 0.00000 -1.00000 0.00000 0.00000 1.00000 -0.86603 -0.50000 0.00000 -0.86603 -0.50000 0.00000 -0.00000 0.00000 -1.00000 0.00000 0.00000 1.00000 0.00000 -1.00000 0.00000 0.00000 -1.00000 0.00000 0.00000 -0.00000 -1.00000 0.00000 0.00000 1.00000 0.86603 -0.50000 0.00000 0.86603 -0.50000 0.00000 0.00000 0.00000 -1.00000 -0.00000 0.00000 1.00000 -0.21313 0.94855 0.23415 0.00000 0.00000 -1.00000 -0.92803 0.28970 0.23415 -0.00000 0.00000 -1.00000 -0.71491 -0.65885 0.23415 0.00000 0.00000 -1.00000 0.21313 -0.94855 0.23415 0.00000 -0.00000 -1.00000 0.92803 -0.28970 0.23415 0.00000 0.00000 -1.00000 0.71491 0.65885 0.23415 0.00000 0.00000 -1.00000 0.86603 0.50000 0.00000 0.86603 0.50000 -0.00000 0.00000 0.00000 -1.00000 0.00000 0.00000 1.00000 0.00000 1.00000 0.00000 0.00000 1.00000 -0.00000 0.00000 0.00000 -1.00000 0.00000 -0.00000 1.00000 -0.86603 0.50000 0.00000 -0.86603 0.50000 0.00000 0.00000 0.00000 -1.00000 0.00000 0.00000 1.00000 -0.86603 -0.50000 0.00000 -0.86603 -0.50000 0.00000 -0.00000 0.00000 -1.00000 0.00000 0.00000 1.00000 0.00000 -1.00000 0.00000 0.00000 -1.00000 0.00000 0.00000 -0.00000 -1.00000 0.00000 0.00000 1.00000 0.86603 -0.50000 0.00000 0.86603 -0.50000 0.00000 0.00000 0.00000 -1.00000 -0.00000 0.00000 1.00000 0.47750 -0.84022 0.25695 0.00000 -0.00000 -1.00000 0.96640 -0.00659 0.25695 0.00000 0.00000 -1.00000 0.48891 0.83363 0.25695 0.00000 0.00000 -1.00000 -0.47750 0.84022 0.25695 0.00000 0.00000 -1.00000 -0.96640 0.00659 0.25695 -0.00000 0.00000 -1.00000 -0.48891 -0.83363 0.25695 0.00000 0.00000 -1.00000 0.86603 0.50000 0.00000 0.86603 0.50000 -0.00000 0.00000 0.00000 -1.00000 0.00000 0.00000 1.00000 0.00000 1.00000 0.00000 0.00000 1.00000 -0.00000 0.00000 0.00000 -1.00000 0.00000 -0.00000 1.00000 -0.86603 0.50000 0.00000 -0.86603 0.50000 0.00000 0.00000 0.00000 -1.00000 0.00000 0.00000 1.00000 -0.86603 -0.50000 0.00000 -0.86603 -0.50000 0.00000 -0.00000 0.00000 -1.00000 0.00000 0.00000 1.00000 0.00000 -1.00000 0.00000 0.00000 -1.00000 0.00000 0.00000 -0.00000 -1.00000 0.00000 0.00000 1.00000 0.86603 -0.50000 0.00000 0.86603 -0.50000 0.00000 0.00000 0.00000 -1.00000 -0.00000 0.00000 1.00000 -0.59331 -0.73360 0.33140 0.00000 0.00000 -1.00000 0.33866 -0.88062 0.33140 0.00000 -0.00000 -1.00000 0.93197 -0.14702 0.33140 0.00000 0.00000 -1.00000 0.59331 0.73360 0.33140 0.00000 0.00000 -1.00000 -0.33866 0.88062 0.33140 0.00000 0.00000 -1.00000 -0.93197 0.14702 0.33140 -0.00000 0.00000 -1.00000 0.86603 0.50000 0.00000 0.86603 0.50000 -0.00000 0.00000 0.00000 -1.00000 0.00000 0.00000 1.00000 0.00000 1.00000 0.00000 0.00000 1.00000 -0.00000 0.00000 0.00000 -1.00000 0.00000 -0.00000 1.00000 -0.86603 0.50000 0.00000 -0.86603 0.50000 0.00000 0.00000 0.00000 -1.00000 0.00000 0.00000 1.00000 -0.86603 -0.50000 0.00000 -0.86603 -0.50000 0.00000 -0.00000 0.00000 -1.00000 0.00000 0.00000 1.00000 0.00000 -1.00000 0.00000 0.00000 -1.00000 0.00000 0.00000 -0.00000 -1.00000 0.00000 0.00000 1.00000 0.86603 -0.50000 0.00000 0.86603 -0.50000 0.00000 0.00000 0.00000 -1.00000 -0.00000 0.00000 1.00000 0.95957 0.13841 0.24508 0.00000 0.00000 -1.00000 0.35992 0.90022 0.24508 0.00000 0.00000 -1.00000 -0.59965 0.76181 0.24508 0.00000 0.00000 -1.00000 -0.95957 -0.13841 0.24508 -0.00000 0.00000 -1.00000 -0.35992 -0.90022 0.24508 0.00000 -0.00000 -1.00000 0.59965 -0.76181 0.24508 0.00000 0.00000 -1.00000 0.86603 0.50000 0.00000 0.86603 0.50000 -0.00000 0.00000 0.00000 -1.00000 0.00000 0.00000 1.00000 0.00000 1.00000 0.00000 0.00000 1.00000 -0.00000 0.00000 0.00000 -1.00000 0.00000 -0.00000 1.00000 -0.86603 0.50000 0.00000 -0.86603 0.50000 0.00000 0.00000 0.00000 -1.00000 0.00000 0.00000 1.00000 -0.86603 -0.50000 0.00000 -0.86603 -0.50000 0.00000 -0.00000 0.00000 -1.00000 0.00000 0.00000 1.00000 0.00000 -1.00000 0.00000 0.00000 -1.00000 0.00000 0.00000 -0.00000 -1.00000 0.00000 0.00000 1.00000 0.86603 -0.50000 0.00000 0.86603 -0.50000 0.00000 0.00000 0.00000 -1.00000 -0.00000 0.00000 1.00000 0.92661 -0.30973 0.21322 0.00000 0.00000 -1.00000 0.73154 0.64760 0.21322 0.00000 0.00000 -1.00000 -0.19507 0.95733 0.21322 0.00000 0.00000 -1.00000 -0.92661 0.30973 0.21322 -0.00000 0.00000 -1.00000 -0.73154 -0.64760 0.21322 0.00000 0.00000 -1.00000 0.19507 -0.95733 0.21322 0.00000 -0.00000 -1.00000 0.86603 0.50000 0.00000 0.86603 0.50000 -0.00000 0.00000 0.00000 -1.00000 0.00000 0.00000 1.00000 0.00000 1.00000 0.00000 0.00000 1.00000 -0.00000 0.00000 0.00000 -1.00000 0.00000 -0.00000 1.00000 -0.86603 0.50000 0.00000 -0.86603 0.50000 0.00000 0.00000 0.00000 -1.00000 0.00000 0.00000 1.00000 -0.86603 -0.50000 0.00000 -0.86603 -0.50000 0.00000 -0.00000 0.00000 -1.00000 0.00000 0.00000 1.00000 0.00000 -1.00000 0.00000 0.00000 -1.00000 0.00000 0.00000 -0.00000 -1.00000 0.00000 0.00000 1.00000 0.86603 -0.50000 0.00000 0.86603 -0.50000 0.00000 0.00000 0.00000 -1.00000 -0.00000 0.00000 1.00000 -0.59241 -0.78549 0.17902 0.00000 0.00000 -1.00000 0.38405 -0.90579 0.17902 0.00000 -0.00000 -1.00000 0.97646 -0.12030 0.17902 0.00000 0.00000 -1.00000 0.59241 0.78549 0.17902 0.00000 0.00000 -1.00000 -0.38405 0.90579 0.17902 0.00000 0.00000 -1.00000 -0.97646 0.12030 0.17902 -0.00000 0.00000 -1.00000 0.86603 0.50000 0.00000 0.86603 0.50000 -0.00000 0.00000 0.00000 -1.00000 0.00000 0.00000 1.00000 0.00000 1.00000 0.00000 0.00000 1.00000 -0.00000 0.00000 0.00000 -1.00000 0.00000 -0.00000 1.00000 -0.86603 0.50000 0.00000 -0.86603 0.50000 0.00000 0.00000 0.00000 -1.00000 0.00000 0.00000 1.00000 -0.86603 -0.50000 0.00000 -0.86603 -0.50000 0.00000 -0.00000 0.00000 -1.00000 0.00000 0.00000 1.00000 0.00000 -1.00000 0.00000 0.00000 -1.00000 0.00000 0.00000 -0.00000 -1.00000 0.00000 0.00000 1.00000 0.86603 -0.50000 0.00000 0.86603 -0.50000 0.00000 0.00000 0.00000 -1.00000 -0.00000 0.00000 1.00000 -0.55005 0.81349 0.18886 0.00000 0.00000 -1.00000 -0.97953 -0.06961 0.18886 -0.00000 0.00000 -1.00000 -0.42948 -0.88311 0.18886 0.00000 -0.00000 -1.00000 0.55005 -0.81349 0.18886 0.00000 0.00000 -1.00000 0.97953 0.06961 0.18886 0.00000 0.00000 -1.00000 0.42948 0.88311 0.18886 0.00000 0.00000 -1.00000 0.86603 0.50000 0.00000 0.86603 0.50000 -0.00000 0.00000 0.00000 -1.00000 0.00000 0.00000 1.00000 0.00000 1.00000 0.00000 0.00000 1.00000 -0.00000 0.00000 0.00000 -1.00000 0.00000 -0.00000 1.00000 -0.86603 0.50000 0.00000 -0.86603 0.50000 0.00000 0.00000 0.00000 -1.00000 0.00000 0.00000 1.00000 -0.86603 -0.50000 0.00000 -0.86603 -0.50000 0.00000 -0.00000 0.00000 -1.00000 0.00000 0.00000 1.00000 -0.00000 -1.00000 0.00000 -0.00000 -1.00000 0.00000 0.00000 -0.00000 -1.00000 0.00000 0.00000 1.00000 0.86603 -0.50000 0.00000 0.86603 -0.50000 0.00000 0.00000 0.00000 -1.00000 -0.00000 0.00000 1.00000 0.01270 0.97506 0.22158 0.00000 0.00000 -1.00000 -0.83807 0.49853 0.22158 0.00000 0.00000 -1.00000 -0.85078 -0.47653 0.22158 -0.00000 0.00000 -1.00000 -0.01270 -0.97506 0.22158 0.00000 -0.00000 -1.00000 0.83807 -0.49853 0.22158 0.00000 0.00000 -1.00000 0.85078 0.47653 0.22158 0.00000 0.00000 -1.00000 0.86603 0.50000 0.00000 0.86603 0.50000 -0.00000 0.00000 0.00000 -1.00000 0.00000 0.00000 1.00000 0.00000 1.00000 0.00000 0.00000 1.00000 -0.00000 0.00000 0.00000 -1.00000 0.00000 -0.00000 1.00000 -0.86603 0.50000 0.00000 -0.86603 0.50000 0.00000 0.00000 0.00000 -1.00000 0.00000 0.00000 1.00000 -0.86603 -0.50000 0.00000 -0.86603 -0.50000 0.00000 -0.00000 0.00000 -1.00000 0.00000 0.00000 1.00000 0.00000 -1.00000 0.00000 0.00000 -1.00000 0.00000 0.00000 -0.00000 -1.00000 0.00000 0.00000 1.00000 0.86603 -0.50000 0.00000 0.86603 -0.50000 0.00000 0.00000 0.00000 -1.00000 -0.00000 0.00000 1.00000 0.18141 0.91918 0.34956 0.00000 0.00000 -1.00000 -0.70533 0.61670 0.34956 0.00000 0.00000 -1.00000 -0.88674 -0.30248 0.34956 -0.00000 0.00000 -1.00000 -0.18141 -0.91918 0.34956 0.00000 -0.00000 -1.00000 0.70533 -0.61670 0.34956 0.00000 0.00000 -1.00000 0.88674 0.30248 0.34956 0.00000 0.00000 -1.00000 0.86603 0.50000 0.00000 0.86603 0.50000 -0.00000 0.00000 0.00000 -1.00000 0.00000 0.00000 1.00000 0.00000 1.00000 0.00000 0.00000 1.00000 -0.00000 0.00000 0.00000 -1.00000 0.00000 -0.00000 1.00000 -0.86603 0.50000 0.00000 -0.86603 0.50000 0.00000 0.00000 0.00000 -1.00000 0.00000 0.00000 1.00000 -0.86603 -0.50000 0.00000 -0.86603 -0.50000 0.00000 -0.00000 0.00000 -1.00000 0.00000 0.00000 1.00000 0.00000 -1.00000 0.00000 0.00000 -1.00000 0.00000 0.00000 -0.00000 -1.00000 0.00000 0.00000 1.00000 0.86603 -0.50000 0.00000 0.86603 -0.50000 0.00000 0.00000 0.00000 -1.00000 -0.00000 0.00000 1.00000 0.86768 0.46033 0.18770 0.00000 0.00000 -1.00000 0.03518 0.98160 0.18770 0.00000 0.00000 -1.00000 -0.83250 0.52127 0.18770 0.00000 0.00000 -1.00000 -0.86768 -0.46033 0.18770 -0.00000 0.00000 -1.00000 -0.03518 -0.98160 0.18770 0.00000 -0.00000 -1.00000 0.83250 -0.52127 0.18770 0.00000 0.00000 -1.00000 0.86603 0.50000 0.00000 0.86603 0.50000 -0.00000 0.00000 0.00000 -1.00000 0.00000 0.00000 1.00000 0.00000 1.00000 0.00000 0.00000 1.00000 -0.00000 0.00000 0.00000 -1.00000 0.00000 -0.00000 1.00000 -0.86603 0.50000 0.00000 -0.86603 0.50000 0.00000 0.00000 0.00000 -1.00000 0.00000 0.00000 1.00000 -0.86603 -0.50000 0.00000 -0.86603 -0.50000 0.00000 -0.00000 0.00000 -1.00000 0.00000 0.00000 1.00000 0.00000 -1.00000 0.00000 0.00000 -1.00000 0.00000 0.00000 -0.00000 -1.00000 0.00000 0.00000 1.00000 0.86603 -0.50000 0.00000 0.86603 -0.50000 0.00000 0.00000 0.00000 -1.00000 -0.00000 0.00000 1.00000 -0.90826 -0.32033 0.26918 -0.00000 0.00000 -1.00000 -0.17672 -0.94674 0.26918 0.00000 -0.00000 -1.00000 0.73154 -0.62641 0.26918 0.00000 0.00000 -1.00000 0.90826 0.32033 0.26918 0.00000 0.00000 -1.00000 0.17672 0.94674 0.26918 0.00000 0.00000 -1.00000 -0.73154 0.62641 0.26918 0.00000 0.00000 -1.00000 0.86603 0.50000 0.00000 0.86603 0.50000 -0.00000 0.00000 0.00000 -1.00000 0.00000 0.00000 1.00000 0.00000 1.00000 0.00000 0.00000 1.00000 -0.00000 0.00000 0.00000 -1.00000 0.00000 -0.00000 1.00000 -0.86603 0.50000 0.00000 -0.86603 0.50000 0.00000 0.00000 0.00000 -1.00000 0.00000 0.00000 1.00000 -0.86603 -0.50000 0.00000 -0.86603 -0.50000 0.00000 -0.00000 0.00000 -1.00000 0.00000 0.00000 1.00000 0.00000 -1.00000 0.00000 0.00000 -1.00000 0.00000 0.00000 -0.00000 -1.00000 0.00000 0.00000 1.00000 0.86603 -0.50000 0.00000 0.86603 -0.50000 0.00000 0.00000 0.00000 -1.00000 -0.00000 0.00000 1.00000 -0.80185 0.50120 0.32533 0.00000 0.00000 -1.00000 -0.83498 -0.44382 0.32533 -0.00000 0.00000 -1.00000 -0.03313 -0.94502 0.32533 0.00000 -0.00000 -1.00000 0.80185 -0.50120 0.32533 0.00000 0.00000 -1.00000 0.83498 0.44382 0.32533 0.00000 0.00000 -1.00000 0.03313 0.94502 0.32533 0.00000 0.00000 -1.00000 0.86603 0.50000 0.00000 0.86603 0.50000 -0.00000 0.00000 0.00000 -1.00000 0.00000 0.00000 1.00000 0.00000 1.00000 0.00000 0.00000 1.00000 -0.00000 0.00000 0.00000 -1.00000 0.00000 -0.00000 1.00000 -0.86603 0.50000 0.00000 -0.86603 0.50000 0.00000 0.00000 0.00000 -1.00000 0.00000 0.00000 1.00000 -0.86603 -0.50000 0.00000 -0.86603 -0.50000 0.00000 -0.00000 0.00000 -1.00000 0.00000 0.00000 1.00000 0.00000 -1.00000 0.00000 0.00000 -1.00000 0.00000 0.00000 -0.00000 -1.00000 0.00000 0.00000 1.00000 0.86603 -0.50000 0.00000 0.86603 -0.50000 0.00000 0.00000 0.00000 -1.00000 -0.00000 0.00000 1.00000 0.05454 0.96184 0.26812 0.00000 0.00000 -1.00000 -0.80571 0.52815 0.26812 0.00000 0.00000 -1.00000 -0.86025 -0.43369 0.26812 -0.00000 0.00000 -1.00000 -0.05454 -0.96184 0.26812 0.00000 -0.00000 -1.00000 0.80571 -0.52815 0.26812 0.00000 0.00000 -1.00000 0.86025 0.43369 0.26812 0.00000 0.00000 -1.00000 0.86603 0.50000 0.00000 0.86603 0.50000 -0.00000 0.00000 0.00000 -1.00000 0.00000 0.00000 1.00000 0.00000 1.00000 0.00000 0.00000 1.00000 -0.00000 0.00000 0.00000 -1.00000 0.00000 -0.00000 1.00000 -0.86603 0.50000 0.00000 -0.86603 0.50000 0.00000 0.00000 0.00000 -1.00000 0.00000 0.00000 1.00000 -0.86603 -0.50000 0.00000 -0.86603 -0.50000 0.00000 -0.00000 0.00000 -1.00000 0.00000 0.00000 1.00000 0.00000 -1.00000 0.00000 0.00000 -1.00000 0.00000 0.00000 -0.00000 -1.00000 0.00000 0.00000 1.00000 0.86603 -0.50000 0.00000 0.86603 -0.50000 0.00000 0.00000 0.00000 -1.00000 -0.00000 0.00000 1.00000 -0.38156 -0.84814 0.36751 0.00000 -0.00000 -1.00000 0.54373 -0.75451 0.36751 0.00000 0.00000 -1.00000 0.92529 0.09363 0.36751 0.00000 0.00000 -1.00000 0.38156 0.84814 0.36751 0.00000 0.00000 -1.00000 -0.54373 0.75451 0.36751 0.00000 0.00000 -1.00000 -0.92529 -0.09363 0.36751 -0.00000 0.00000 -1.00000 0.86603 0.50000 0.00000 0.86603 0.50000 -0.00000 0.00000 0.00000 -1.00000 0.00000 0.00000 1.00000 0.00000 1.00000 0.00000 0.00000 1.00000 -0.00000 0.00000 0.00000 -1.00000 0.00000 -0.00000 1.00000 -0.86603 0.50000 0.00000 -0.86603 0.50000 0.00000 0.00000 0.00000 -1.00000 0.00000 0.00000 1.00000 -0.86603 -0.50000 0.00000 -0.86603 -0.50000 0.00000 -0.00000 0.00000 -1.00000 0.00000 0.00000 1.00000 0.00000 -1.00000 0.00000 0.00000 -1.00000 0.00000 0.00000 -0.00000 -1.00000 0.00000 0.00000 1.00000 0.86603 -0.50000 0.00000 0.86603 -0.50000 0.00000 0.00000 0.00000 -1.00000 -0.00000 0.00000 1.00000 -0.98518 0.03275 0.16834 -0.00000 0.00000 -1.00000 -0.52095 -0.83682 0.16834 0.00000 0.00000 -1.00000 0.46423 -0.86957 0.16834 0.00000 -0.00000 -1.00000 0.98518 -0.03275 0.16834 0.00000 0.00000 -1.00000 0.52095 0.83682 0.16834 0.00000 0.00000 -1.00000 -0.46423 0.86957 0.16834 0.00000 0.00000 -1.00000 0.86603 0.50000 0.00000 0.86603 0.50000 -0.00000 0.00000 0.00000 -1.00000 0.00000 0.00000 1.00000 0.00000 1.00000 0.00000 0.00000 1.00000 -0.00000 0.00000 0.00000 -1.00000 0.00000 -0.00000 1.00000 -0.86603 0.50000 0.00000 -0.86603 0.50000 0.00000 0.00000 0.00000 -1.00000 0.00000 0.00000 1.00000 -0.86603 -0.50000 0.00000 -0.86603 -0.50000 0.00000 -0.00000 0.00000 -1.00000 0.00000 0.00000 1.00000 0.00000 -1.00000 0.00000 0.00000 -1.00000 0.00000 0.00000 -0.00000 -1.00000 0.00000 0.00000 1.00000 0.86603 -0.50000 0.00000 0.86603 -0.50000 0.00000 0.00000 0.00000 -1.00000 -0.00000 0.00000 1.00000 0.17830 0.93943 0.29271 0.00000 0.00000 -1.00000 -0.72442 0.62413 0.29271 0.00000 0.00000 -1.00000 -0.90272 -0.31530 0.29271 -0.00000 0.00000 -1.00000 -0.17830 -0.93943 0.29271 0.00000 -0.00000 -1.00000 0.72442 -0.62413 0.29271 0.00000 0.00000 -1.00000 0.90272 0.31530 0.29271 0.00000 0.00000 -1.00000 0.86603 0.50000 0.00000 0.86603 0.50000 -0.00000 0.00000 0.00000 -1.00000 0.00000 0.00000 1.00000 0.00000 1.00000 0.00000 0.00000 1.00000 -0.00000 0.00000 0.00000 -1.00000 0.00000 -0.00000 1.00000 -0.86603 0.50000 0.00000 -0.86603 0.50000 0.00000 0.00000 0.00000 -1.00000 0.00000 0.00000 1.00000 -0.86603 -0.50000 0.00000 -0.86603 -0.50000 0.00000 -0.00000 0.00000 -1.00000 0.00000 0.00000 1.00000 0.00000 -1.00000 0.00000 0.00000 -1.00000 0.00000 0.00000 -0.00000 -1.00000 0.00000 0.00000 1.00000 0.86603 -0.50000 0.00000 0.86603 -0.50000 0.00000 0.00000 0.00000 -1.00000 -0.00000 0.00000 1.00000 -0.42598 -0.89267 0.14724 0.00000 -0.00000 -1.00000 0.56008 -0.81525 0.14724 0.00000 0.00000 -1.00000 0.98607 0.07742 0.14724 0.00000 0.00000 -1.00000 0.42598 0.89267 0.14724 0.00000 0.00000 -1.00000 -0.56008 0.81525 0.14724 0.00000 0.00000 -1.00000 -0.98607 -0.07742 0.14724 -0.00000 0.00000 -1.00000 0.86603 0.50000 0.00000 0.86603 0.50000 -0.00000 0.00000 0.00000 -1.00000 0.00000 0.00000 1.00000 0.00000 1.00000 0.00000 0.00000 1.00000 -0.00000 0.00000 0.00000 -1.00000 0.00000 -0.00000 1.00000 -0.86603 0.50000 0.00000 -0.86603 0.50000 0.00000 0.00000 0.00000 -1.00000 0.00000 0.00000 1.00000 -0.86603 -0.50000 0.00000 -0.86603 -0.50000 0.00000 -0.00000 0.00000 -1.00000 0.00000 0.00000 1.00000 0.00000 -1.00000 0.00000 0.00000 -1.00000 0.00000 0.00000 -0.00000 -1.00000 0.00000 0.00000 1.00000 0.86603 -0.50000 0.00000 0.86603 -0.50000 0.00000 0.00000 0.00000 -1.00000 -0.00000 0.00000 1.00000 0.65976 0.69192 0.29320 0.00000 0.00000 -1.00000 -0.26934 0.91733 0.29320 0.00000 0.00000 -1.00000 -0.92910 0.22541 0.29320 -0.00000 0.00000 -1.00000 -0.65976 -0.69192 0.29320 0.00000 0.00000 -1.00000 0.26934 -0.91733 0.29320 0.00000 -0.00000 -1.00000 0.92910 -0.22541 0.29320 0.00000 0.00000 -1.00000 0.86603 0.50000 0.00000 0.86603 0.50000 -0.00000 0.00000 0.00000 -1.00000 0.00000 0.00000 1.00000 0.00000 1.00000 0.00000 0.00000 1.00000 -0.00000 0.00000 0.00000 -1.00000 0.00000 -0.00000 1.00000 -0.86603 0.50000 0.00000 -0.86603 0.50000 0.00000 0.00000 0.00000 -1.00000 0.00000 0.00000 1.00000 -0.86603 -0.50000 0.00000 -0.86603 -0.50000 0.00000 -0.00000 0.00000 -1.00000 0.00000 0.00000 1.00000 0.00000 -1.00000 0.00000 0.00000 -1.00000 0.00000 0.00000 -0.00000 -1.00000 0.00000 0.00000 1.00000 0.86603 -0.50000 0.00000 0.86603 -0.50000 0.00000 0.00000 0.00000 -1.00000 -0.00000 0.00000 1.00000 0.36340 0.90665 0.21431 0.00000 0.00000 -1.00000 -0.60348 0.76804 0.21431 0.00000 0.00000 -1.00000 -0.96688 -0.13861 0.21431 -0.00000 0.00000 -1.00000 -0.36340 -0.90665 0.21431 0.00000 -0.00000 -1.00000 0.60348 -0.76804 0.21431 0.00000 0.00000 -1.00000 0.96688 0.13861 0.21431 0.00000 0.00000 -1.00000 0.86603 0.50000 0.00000 0.86603 0.50000 -0.00000 0.00000 0.00000 -1.00000 0.00000 0.00000 1.00000 0.00000 1.00000 0.00000 0.00000 1.00000 -0.00000 0.00000 0.00000 -1.00000 0.00000 -0.00000 1.00000 -0.86603 0.50000 0.00000 -0.86603 0.50000 0.00000 0.00000 0.00000 -1.00000 0.00000 0.00000 1.00000 -0.86603 -0.50000 0.00000 -0.86603 -0.50000 0.00000 -0.00000 0.00000 -1.00000 0.00000 0.00000 1.00000 0.00000 -1.00000 0.00000 0.00000 -1.00000 0.00000 0.00000 -0.00000 -1.00000 0.00000 0.00000 1.00000 0.86603 -0.50000 0.00000 0.86603 -0.50000 0.00000 0.00000 0.00000 -1.00000 -0.00000 0.00000 1.00000</float_array><technique_common><accessor source="#normals-array" count="1080" stride="3"><param name="X" type="float"/><param name="Y" type="float"/><param name="Z" type="float"/></accessor></technique_common></source>
<vertices id="vertices"><input semantic="POSITION" source="#positions"/></vertices><triangles count="1080"><input semantic="VERTEX" source="#vertices" offset="0"/><input semantic="NORMAL" source="#normals" offset="1"/><p>0 0 1 0 6 0 7 1 1 1 0 1 1 2 2 2 6 2 7 3 2 3 1 3 2 4 3 4 6 4 7 5 3 5 2 5 3 6 4 6 6 6 7 7 4 7 3 7 4 8 5 8 6 8 7 9 5 9 4 9 5 10 0 10 6 10 7 11 0 11 5 11 8 12 9 12 15 12 8 13 15 13 14 13 20 14 9 14 8 14 21 15 14 15 15 15 9 16 10 16 16 16 9 17 16 17 15 17 20 18 10 18 9 18 21 19 15 19 16 19 10 20 11 20 17 20 10 21 17 21 16 21 20 22 11 22 10 22 21 23 16 23 17 23 11 24 12 24 18 24 11 25 18 25 17 25 20 26 12 26 11 26 21 27 17 27 18 27 12 28 13 28 19 28 12 29 19 29 18 29 20 30 13 30 12 30 21 31 18 31 19 31 13 32 8 32 14 32 13 33 14 33 19 33 20 34 8 34 13 34 21 35 19 35 14 35 22 36 23 36 28 36 29 37 23 37 22 37 23 38 24 38 28 38 29 39 24 39 23 39 24 40 25 40 28 40 29 41 25 41 24 41 25 42 26 42 28 42 29 43 26 43 25 43 26 44 27 44 28 44 29 45 27 45 26 45 27 46 22 46 28 46 29 47 22 47 27 47 30 48 31 48 37 48 30 49 37 49 36 49 42 50 31 50 30 50 43 51 36 51 37 51 31 52 32 52 38 52 31 53 38 53 37 53 42 54 32 54 31 54 43 55 37 55 38 55 32 56 33 56 39 56 32 57 39 57 38 57 42 58 33 58 32 58 43 59 38 59 39 59 33 60 34 60 40 60 33 61 40 61 39 61 42 62 34 62 33 62 43 63 39 63 40 63 34 64 35 64 41 64 34 65 41 65 40 65 42 66 35 66 34 66 43 67 40 67 41 67 35 68 30 68 36 68 35 69 36 69 41 69 42 70 30 70 35 70 43 71 41 71 36 71 44 72 45 72 50 72 51 73 45 73 44 73 45 74 46 74 50 74 51 75 46 75 45 75 46 76 47 76 50 76 51 77 47 77 46 77 47 78 48 78 50 78 51 79 48 79 47 79 48 80 49 80 50 80 51 81 49 81 48 81 49 82 44 82 50 82 51 83 44 83 49 83 52 84 53 84 59 84 52 85 59 85 58 85 64 86 53 86 52 86 65 87 58 87 59 87 53 88 54 88 60 88 53 89 60 89 59 89 64 90 54 90 53 90 65 91 59 91 60 91 54 92 55 92 61 92 54 93 61 93 60 93 64 94 55 94 54 94 65 95 60 95 61 95 55 96 56 96 62 96 55 97 62 97 61 97 64 98 56 98 55 98 65 99 61 99 62 99 56 100 57 100 63 100 56 101 63 101 62 101 64 102 57 102 56 102 65 103 62 103 63 103 57 104 52 104 58 104 57 105 58 105 63 105 64 106 52 106 57 106 65 107 63 107 58 107 66 108 67 108 72 108 73 109 67 109 66 109 67 110 68 110 72 110 73 111 68 111 67 111 68 112 69 112 72 112 73 113 69 113 68 113 69 114 70 114 72 114 73 115 70 115 69 115 70 116 71 116 72 116 73 117 71 117 70 117 71 118 66 118 72 118 73 119 66 119 71 119 74 120 75 120 81 120 74 121 81 121 80 121 86 122 75 122 74 122 87 123 80 123 81 123 75 124 76 124 82 124 75 125 82 125 81 125 86 126 76 126 75 126 87 127 81 127 82 127 76 128 77 128 83 128 76 129 83 129 82 129 86 130 77 130 76 130 87 131 82 131 83 131 77 132 78 132 84 132 77 133 84 133 83 133 86 134 78 134 77 134 87 135 83 135 84 135 78 136 79 136 85 136 78 137 85 137 84 137 86 138 79 138 78 138 87 139 84 139 85 139 79 140 74 140 80 140 79 141 80 141 85 141 86 142 74 142 79 142 87 143 85 143 80 143 88 144 89 144 94 144 95 145 89 145 88 145 89 146 90 146 94 146 95 147 90 147 89 147 90 148 91 148 94 148 95 149 91 149 90 149 91 150 92 150 94 150 95 151 92 151 91 151 92 152 93 152 94 152 95 153 93 153 92 153 93 154 88 154 94 154 95 155 88 155 93 155 96 156 97 156 103 156 96 157 103 157 102 157 108 158 97 158 96 158 109 159 102 159 103 159 97 160 98 160 104 160 97 161 104 161 103 161 108 162 98 162 97 162 109 163 103 163 104 163 98 164 99 164 105 164 98 165 105 165 104 165 108 166 99 166 98 166 109 167 104 167 105 167 99 168 100 168 106 168 99 169 106 169 105 169 108 170 100 170 99 170 109 171 105 171 106 171 100 172 101 172 107 172 100 173 107 173 106 173 108 174 101 174 100 174 109 175 106 175 107 175 101 176 96 176 102 176 101 177 102 177 107 177 108 178 96 178 101 178 109 179 107 179 102 179 110 180 111 180 116 180 117 181 111 181 110 181 111 182 112 182 116 182 117 183 112 183 111 183 112 184 113 184 116 184 117 185 113 185 112 185 113 186 114 186 116 186 117 187 114 187 113 187 114 188 115 188 116 188 117 189 115 189 114 189 115 190 110 190 116 190 117 191 110 191 115 191 118 192 119 192 125 192 118 193 125 193 124 193 130 194 119 194 118 194 131 195 124 195 125 195 119 196 120 196 126 196 119 197 126 197 125 197 130 198 120 198 119 198 131 199 125 199 126 199 120 200 121 200 127 200 120 201 127 201 126 201 130 202 121 202 120 202 131 203 126 203 127 203 121 204 122 204 128 204 121 205 128 205 127 205 130 206 122 206 121 206 131 207 127 207 128 207 122 208 123 208 129 208 122 209 129 209 128 209 130 210 123 210 122 210 131 211 128 211 129 211 123 212 118 212 124 212 123 213 124 213 129 213 130 214 118 214 123 214 131 215 129 215 124 215 132 216 133 216 138 216 139 217 133 217 132 217 133 218 134 218 138 218 139 219 134 219 133 219 134 220 135 220 138 220 139 221 135 221 134 221 135 222 136 222 138 222 139 223 136 223 135 223 136 224 137 224 138 224 139 225 137 225 136 225 137 226 132 226 138 226 139 227 132 227 137 227 140 228 141 228 147 228 140 229 147 229 146 229 152 230 141 230 140 230 153 231 146 231 147 231 141 232 142 232 148 232 141 233 148 233 147 233 152 234 142 234 141 234 153 235 147 235 148 235 142 236 143 236 149 236 142 237 149 237 148 237 152 238 143 238 142 238 153 239 148 239 149 239 143 240 144 240 150 240 143 241 150 241 149 241 152 242 144 242 143 242 153 243 149 243 150 243 144 244 145 244 151 244 144 245 151 245 150 245 152 246 145 246 144 246 153 247 150 247 151 247 145 248 140 248 146 248 145 249 146 249 151 249 152 250 140 250 145 250 153 251 151 251 146 251 154 252 155 252 160 252 161 253 155 253 154 253 155 254 156 254 160 254 161 255 156 255 155 255 156 256 157 256 160 256 161 257 157 257 156 257 157 258 158 258 160 258 161 259 158 259 157 259 158 260 159 260 160 260 161 261 159 261 158 261 159 262 154 262 160 262 161 263 154 263 159 263 162 264 163 264 169 264 162 265 169 265 168 265 174 266 163 266 162 266 175 267 168 267 169 267 163 268 164 268 170 268 163 269 170 269 169 269 174 270 164 270 163 270 175 271 169 271 170 271 164 272 165 272 171 272 164 273 171 273 170 273 174 274 165 274 164 274 175 275 170 275 171 275 165 276 166 276 172 276 165 277 172 277 171 277 174 278 166 278 165 278 175 279 171 279 172 279 166 280 167 280 173 280 166 281 173 281 172 281 174 282 167 282 166 282 175 283 172 283 173 283 167 284 162 284 168 284 167 285 168 285 173 285 174 286 162 286 167 286 175 287 173 287 168 287 176 288 177 288 182 288 183 289 177 289 176 289 177 290 178 290 182 290 183 291 178 291 177 291 178 292 179 292 182 292 183 293 179 293 178 293 179 294 180 294 182 294 183 295 180 295 179 295 180 296 181 296 182 296 183 297 181 297 180 297 181 298 176 298 182 298 183 299 176 299 181 299 184 300 185 300 191 300 184 301 191 301 190 301 196 302 185 302 184 302 197 303 190 303 191 303 185 304 186 304 192 304 185 305 192 305 191 305 196 306 186 306 185 306 197 307 191 307 192 307 186 308 187 308 193 308 186 309 193 309 192 309 196 310 187 310 186 310 197 311 192 311 193 311 187 312 188 312 194 312 187 313 194 313 193 313 196 314 188 314 187 314 197 315 193 315 194 315 188 316 189 316 195 316 188 317 195 317 194 317 196 318 189 318 188 318 197 319 194 319 195 319 189 320 184 320 190 320 189 321 190 321 195 321 196 322 184 322 189 322 197 323 195 323 190 323 198 324 199 324 204 324 205 325 199 325 198 325 199 326 200 326 204 326 205 327 200 327 199 327 200 328 201 328 204 328 205 329 201 329 200 329 201 330 202 330 204 330 205 331 202 331 201 331 202 332 203 332 204 332 205 333 203 333 202 333 203 334 198 334 204 334 205 335 198 335 203 335 206 336 207 336 213 336 206 337 213 337 212 337 218 338 207 338 206 338 219 339 212 339 213 339 207 340 208 340 214 340 207 341 214 341 213 341 218 342 208 342 207 342 219 343 213 343 214 343 208 344 209 344 215 344 208 345 215 345 214 345 218 346 209 346 208 346 219 347 214 347 215 347 209 348 210 348 216 348 209 349 216 349 215 349 218 350 210 350 209 350 219 351 215 351 216 351 210 352 211 352 217 352 210 353 217 353 216 353 218 354 211 354 210 354 219 355 216 355 217 355 211 356 206 356 212 356 211 357 212 357 217 357 218 358 206 358 211 358 219 359 217 359 212 359 220 360 221 360 226 360 227 361 221 361 220 361 221 362 222 362 226 362 227 363 222 363 221 363 222 364 223 364 226 364 227 365 223 365 222 365 223 366 224 366 226 366 227 367 224 367 223 367 224 368 225 368 226 368 227 369 225 369 224 369 225 370 220 370 226 370 227 371 220 371 225 371 228 372 229 372 235 372 228 373 235 373 234 373 240 374 229 374 228 374 241 375 234 375 235 375 229 376 230 376 236 376 229 377 236 377 235 377 240 378 230 378 229 378 241 379 235 379 236 379 230 380 231 380 237 380 230 381 237 381 236 381 240 382 231 382 230 382 241 383 236 383 237 383 231 384 232 384 238 384 231 385 238 385 237 385 240 386 232 386 231 386 241 387 237 387 238 387 232 388 233 388 239 388 232 389 239 389 238 389 240 390 233 390 232 390 241 391 238 391 239 391 233 392 228 392 234 392 233 393 234 393 239 393 240 394 228 394 233 394 241 395 239 395 234 395 242 396 243 396 248 396 249 397 243 397 242 397 243 398 244 398 248 398 249 399 244 399 243 399 244 400 245 400 248 400 249 401 245 401 244 401 245 402 246 402 248 402 249 403 246 403 245 403 246 404 247 404 248 404 249 405 247 405 246 405 247 406 242 406 248 406 249 407 242 407 247 407 250 408 251 408 257 408 250 409 257 409 256 409 262 410 251 410 250 410 263 411 256 411 257 411 251 412 252 412 258 412 251 413 258 413 257 413 262 414 252 414 251 414 263 415 257 415 258 415 252 416 253 416 259 416 252 417 259 417 258 417 262 418 253 418 252 418 263 419 258 419 259 419 253 420 254 420 260 420 253 421 260 421 259 421 262 422 254 422 253 422 263 423 259 423 260 423 254 424 255 424 261 424 254 425 261 425 260 425 262 426 255 426 254 426 263 427 260 427 261 427 255 428 250 428 256 428 255 429 256 429 261 429 262 430 250 430 255 430 263 431 261 431 256 431 264 432 265 432 270 432 271 433 265 433 264 433 265 434 266 434 270 434 271 435 266 435 265 435 266 436 267 436 270 436 271 437 267 437 266 437 267 438 268 438 270 438 271 439 268 439 267 439 268 440 269 440 270 440 271 441 269 441 268 441 269 442 264 442 270 442 271 443 264 443 269 443 272 444 273 444 279 444 272 445 279 445 278 445 284 446 273 446 272 446 285 447 278 447 279 447 273 448 274 448 280 448 273 449 280 449 279 449 284 450 274 450 273 450 285 451 279 451 280 451 274 452 275 452 281 452 274 453 281 453 280 453 284 454 275 454 274 454 285 455 280 455 281 455 275 456 276 456 282 456 275 457 282 457 281 457 284 458 276 458 275 458 285 459 281 459 282 459 276 460 277 460 283 460 276 461 283 461 282 461 284 462 277 462 276 462 285 463 282 463 283 463 277 464 272 464 278 464 277 465 278 465 283 465 284 466 272 466 277 466 285 467 283 467 278 467 286 468 287 468 292 468 293 469 287 469 286 469 287 470 288 470 292 470 293 471 288 471 287 471 288 472 289 472 292 472 293 473 289 473 288 473 289 474 290 474 292 474 293 475 290 475 289 475 290 476 291 476 292 476 293 477 291 477 290 477 291 478 286 478 292 478 293 479 286 479 291 479 294 480 295 480 301 480 294 481 301 481 300 481 306 482 295 482 294 482 307 483 300 483 301 483 295 484 296 484 302 484 295 485 302 485 301 485 306 486 296 486 295 486 307 487 301 487 302 487 296 488 297 488 303 488 296 489 303 489 302 489 306 490 297 490 296 490 307 491 302 491 303 491 297 492 298 492 304 492 297 493 304 493 303 493 306 494 298 494 297 494 307 495 303 495 304 495 298 496 299 496 305 496 298 497 305 497 304 497 306 498 299 498 298 498 307 499 304 499 305 499 299 500 294 500 300 500 299 501 300 501 305 501 306 502 294 502 299 502 307 503 305 503 300 503 308 504 309 504 314 504 315 505 309 505 308 505 309 506 310 506 314 506 315 507 310 507 309 507 310 508 311 508 314 508 315 509 311 509 310 509 311 510 312 510 314 510 315 511 312 511 311 511 312 512 313 512 314 512 315 513 313 513 312 513 313 514 308 514 314 514 315 515 308 515 313 515 316 516 317 516 323 516 316 517 323 517 322 517 328 518 317 518 316 518 329 519 322 519 323 519 317 520 318 520 324 520 317 521 324 521 323 521 328 522 318 522 317 522 329 523 323 523 324 523 318 524 319 524 325 524 318 525 325 525 324 525 328 526 319 526 318 526 329 527 324 527 325 527 319 528 320 528 326 528 319 529 326 529 325 529 328 530 320 530 319 530 329 531 325 531 326 531 320 532 321 532 327 532 320 533 327 533 326 533 328 534 321 534 320 534 329 535 326 535 327 535 321 536 316 536 322 536 321 537 322 537 327 537 328 538 316 538 321 538 329 539 327 539 322 539 330 540 331 540 336 540 337 541 331 541 330 541 331 542 332 542 336 542 337 543 332 543 331 543 332 544 333 544 336 544 337 545 333 545 332 545 333 546 334 546 336 546 337 547 334 547 333 547 334 548 335 548 336 548 337 549 335 549 334 549 335 550 330 550 336 550 337 551 330 551 335 551 338 552 339 552 345 552 338 553 345 553 344 553 350 554 339 554 338 554 351 555 344 555 345 555 339 556 340 556 346 556 339 557 346 557 345 557 350 558 340 558 339 558 351 559 345 559 346 559 340 560 341 560 347 560 340 561 347 561 346 561 350 562 341 562 340 562 351 563 346 563 347 563 341 564 342 564 348 564 341 565 348 565 347 565 350 566 342 566 341 566 351 567 347 567 348 567 342 568 343 568 349 568 342 569 349 569 348 569 350 570 343 570 342 570 351 571 348 571 349 571 343 572 338 572 344 572 343 573 344 573 349 573 350 574 338 574 343 574 351 575 349 575 344 575 352 576 353 576 358 576 359 577 353 577 352 577 353 578 354 578 358 578 359 579 354 579 353 579 354 580 355 580 358 580 359 581 355 581 354 581 355 582 356 582 358 582 359 583 356 583 355 583 356 584 357 584 358 584 359 585 357 585 356 585 357 586 352 586 358 586 359 587 352 587 357 587 360 588 361 588 367 588 360 589 367 589 366 589 372 590 361 590 360 590 373 591 366 591 367 591 361 592 362 592 368 592 361 593 368 593 367 593 372 594 362 594 361 594 373 595 367 595 368 595 362 596 363 596 369 596 362 597 369 597 368 597 372 598 363 598 362 598 373 599 368 599 369 599 363 600 364 600 370 600 363 601 370 601 369 601 372 602 364 602 363 602 373 603 369 603 370 603 364 604 365 604 371 604 364 605 371 605 370 605 372 606 365 606 364 606 373 607 370 607 371 607 365 608 360 608 366 608 365 609 366 609 371 609 372 610 360 610 365 610 373 611 371 611 366 611 374 612 375 612 380 612 381 613 375 613 374 613 375 614 376 614 380 614 381 615 376 615 375 615 376 616 377 616 380 616 381 617 377 617 376 617 377 618 378 618 380 618 381 619 378 619 377 619 378 620 379 620 380 620 381 621 379 621 378 621 379 622 374 622 380 622 381 623 374 623 379 623 382 624 383 624 389 624 382 625 389 625 388 625 394 626 383 626 382 626 395 627 388 627 389 627 383 628 384 628 390 628 383 629 390 629 389 629 394 630 384 630 383 630 395 631 389 631 390 631 384 632 385 632 391 632 384 633 391 633 390 633 394 634 385 634 384 634 395 635 390 635 391 635 385 636 386 636 392 636 385 637 392 637 391 637 394 638 386 638 385 638 395 639 391 639 392 639 386 640 387 640 393 640 386 641 393 641 392 641 394 642 387 642 386 642 395 643 392 643 393 643 387 644 382 644 388 644 387 645 388 645 393 645 394 646 382 646 387 646 395 647 393 647 388 647 396 648 397 648 402 648 403 649 397 649 396 649 397 650 398 650 402 650 403 651 398 651 397 651 398 652 399 652 402 652 403 653 399 653 398 653 399 654 400 654 402 654 403 655 400 655 399 655 400 656 401 656 402 656 403 657 401 657 400 657 401 658 396 658 402 658 403 659 396 659 401 659 404 660 405 660 411 660 404 661 411 661 410 661 416 662 405 662 404 662 417 663 410 663 411 663 405 664 406 664 412 664 405 665 412 665 411 665 416 666 406 666 405 666 417 667 411 667 412 667 406 668 407 668 413 668 406 669 413 669 412 669 416 670 407 670 406 670 417 671 412 671 413 671 407 672 408 672 414 672 407 673 414 673 413 673 416 674 408 674 407 674 417 675 413 675 414 675 408 676 409 676 415 676 408 677 415 677 414 677 416 678 409 678 408 678 417 679 414 679 415 679 409 680 404 680 410 680 409 681 410 681 415 681 416 682 404 682 409 682 417 683 415 683 410 683 418 684 419 684 424 684 425 685 419 685 418 685 419 686 420 686 424 686 425 687 420 687 419 687 420 688 421 688 424 688 425 689 421 689 420 689 421 690 422 690 424 690 425 691 422 691 421 691 422 692 423 692 424 692 425 693 423 693 422 693 423 694 418 694 424 694 425 695 418 695 423 695 426 696 427 696 433 696 426 697 433 697 432 697 438 698 427 698 426 698 439 699 432 699 433 699 427 700 428 700 434 700 427 701 434 701 433 701 438 702 428 702 427 702 439 703 433 703 434 703 428 704 429 704 435 704 428 705 435 705 434 705 438 706 429 706 428 706 439 707 434 707 435 707 429 708 430 708 436 708 429 709 436 709 435 709 438 710 430 710 429 710 439 711 435 711 436 711 430 712 431 712 437 712 430 713 437 713 436 713 438 714 431 714 430 714 439 715 436 715 437 715 431 716 426 716 432 716 431 717 432 717 437 717 438 718 426 718 431 718 439 719 437 719 432 719 440 720 441 720 446 720 447 721 441 721 440 721 441 722 442 722 446 722 447 723 442 723 441 723 442 724 443 724 446 724 447 725 443 725 442 725 443 726 444 726 446 726 447 727 444 727 443 727 444 728 445 728 446 728 447 729 445 729 444 729 445 730 440 730 446 730 447 731 440 731 445 731 448 732 449 732 455 732 448 733 455 733 454 733 460 734 449 734 448 734 461 735 454 735 455 735 449 736 450 736 456 736 449 737 456 737 455 737 460 738 450 738 449 738 461 739 455 739 456 739 450 740 451 740 457 740 450 741 457 741 456 741 460 742 451 742 450 742 461 743 456 743 457 743 451 744 452 744 458 744 451 745 458 745 457 745 460 746 452 746 451 746 461 747 457 747 458 747 452 748 453 748 459 748 452 749 459 749 458 749 460 750 453 750 452 750 461 751 458 751 459 751 453 752 448 752 454 752 453 753 454 753 459 753 460 754 448 754 453 754 461 755 459 755 454 755 462 756 463 756 468 756 469 757 463 757 462 757 463 758 464 758 468 758 469 759 464 759 463 759 464 760 465 760 468 760 469 761 465 761 464 761 465 762 466 762 468 762 469 763 466 763 465 763 466 764 467 764 468 764 469 765 467 765 466 765 467 766 462 766 468 766 469 767 462 767 467 767 470 768 471 768 477 768 470 769 477 769 476 769 482 770 471 770 470 770 483 771 476 771 477 771 471 772 472 772 478 772 471 773 478 773 477 773 482 774 472 774 471 774 483 775 477 775 478 775 472 776 473 776 479 776 472 777 479 777 478 777 482 778 473 778 472 778 483 779 478 779 479 779 473 780 474 780 480 780 473 781 480 781 479 781 482 782 474 782 473 782 483 783 479 783 480 783 474 784 475 784 481 784 474 785 481 785 480 785 482 786 475 786 474 786 483 787 480 787 481 787 475 788 470 788 476 788 475 789 476 789 481 789 482 790 470 790 475 790 483 791 481 791 476 791 484 792 485 792 490 792 491 793 485 793 484 793 485 794 486 794 490 794 491 795 486 795 485 795 486 796 487 796 490 796 491 797 487 797 486 797 487 798 488 798 490 798 491 799 488 799 487 799 488 800 489 800 490 800 491 801 489 801 488 801 489 802 484 802 490 802 491 803 484 803 489 803 492 804 493 804 499 804 492 805 499 805 498 805 504 806 493 806 492 806 505 807 498 807 499 807 493 808 494 808 500 808 493 809 500 809 499 809 504 810 494 810 493 810 505 811 499 811 500 811 494 812 495 812 501 812 494 813 501 813 500 813 504 814 495 814 494 814 505 815 500 815 501 815 495 816 496 816 502 816 495 817 502 817 501 817 504 818 496 818 495 818 505 819 501 819 502 819 496 820 497 820 503 820 496 821 503 821 502 821 504 822 497 822 496 822 505 823 502 823 503 823 497 824 492 824 498 824 497 825 498 825 503 825 504 826 492 826 497 826 505 827 503 827 498 827 506 828 507 828 512 828 513 829 507 829 506 829 507 830 508 830 512 830 513 831 508 831 507 831 508 832 509 832 512 832 513 833 509 833 508 833 509 834 510 834 512 834 513 835 510 835 509 835 510 836 511 836 512 836 513 837 511 837 510 837 511 838 506 838 512 838 513 839 506 839 511 839 514 840 515 840 521 840 514 841 521 841 520 841 526 842 515 842 514 842 527 843 520 843 521 843 515 844 516 844 522 844 515 845 522 845 521 845 526 846 516 846 515 846 527 847 521 847 522 847 516 848 517 848 523 848 516 849 523 849 522 849 526 850 517 850 516 850 527 851 522 851 523 851 517 852 518 852 524 852 517 853 524 853 523 853 526 854 518 854 517 854 527 855 523 855 524 855 518 856 519 856 525 856 518 857 525 857 524 857 526 858 519 858 518 858 527 859 524 859 525 859 519 860 514 860 520 860 519 861 520 861 525 861 526 862 514 862 519 862 527 863 525 863 520 863 528 864 529 864 534 864 535 865 529 865 528 865 529 866 530 866 534 866 535 867 530 867 529 867 530 868 531 868 534 868 535 869 531 869 530 869 531 870 532 870 534 870 535 871 532 871 531 871 532 872 533 872 534 872 535 873 533 873 532 873 533 874 528 874 534 874 535 875 528 875 533 875 536 876 537 876 543 876 536 877 543 877 542 877 548 878 537 878 536 878 549 879 542 879 543 879 537 880 538 880 544 880 537 881 544 881 543 881 548 882 538 882 537 882 549 883 543 883 544 883 538 884 539 884 545 884 538 885 545 885 544 885 548 886 539 886 538 886 549 887 544 887 545 887 539 888 540 888 546 888 539 889 546 889 545 889 548 890 540 890 539 890 549 891 545 891 546 891 540 892 541 892 547 892 540 893 547 893 546 893 548 894 541 894 540 894 549 895 546 895 547 895 541 896 536 896 542 896 541 897 542 897 547 897 548 898 536 898 541 898 549 899 547 899 542 899 550 900 551 900 556 900 557 901 551 901 550 901 551 902 552 902 556 902 557 903 552 903 551 903 552 904 553 904 556 904 557 905 553 905 552 905 553 906 554 906 556 906 557 907 554 907 553 907 554 908 555 908 556 908 557 909 555 909 554 909 555 910 550 910 556 910 557 911 550 911 555 911 558 912 559 912 565 912 558 913 565 913 564 913 570 914 559 914 558 914 571 915 564 915 565 915 559 916 560 916 566 916 559 917 566 917 565 917 570 918 560 918 559 918 571 919 565 919 566 919 560 920 561 920 567 920 560 921 567 921 566 921 570 922 561 922 560 922 571 923 566 923 567 923 561 924 562 924 568 924 561 925 568 925 567 925 570 926 562 926 561 926 571 927 567 927 568 927 562 928 563 928 569 928 562 929 569 929 568 929 570 930 563 930 562 930 571 931 568 931 569 931 563 932 558 932 564 932 563 933 564 933 569 933 570 934 558 934 563 934 571 935 569 935 564 935 572 936 573 936 578 936 579 937 573 937 572 937 573 938 574 938 578 938 579 939 574 939 573 939 574 940 575 940 578 940 579 941 575 941 574 941 575 942 576 942 578 942 579 943 576 943 575 943 576 944 577 944 578 944 579 945 577 945 576 945 577 946 572 946 578 946 579 947 572 947 577 947 580 948 581 948 587 948 580 949 587 949 586 949 592 950 581 950 580 950 593 951 586 951 587 951 581 952 582 952 588 952 581 953 588 953 587 953 592 954 582 954 581 954 593 955 587 955 588 955 582 956 583 956 589 956 582 957 589 957 588 957 592 958 583 958 582 958 593 959 588 959 589 959 583 960 584 960 590 960 583 961 590 961 589 961 592 962 584 962 583 962 593 963 589 963 590 963 584 964 585 964 591 964 584 965 591 965 590 965 592 966 585 966 584 966 593 967 590 967 591 967 585 968 580 968 586 968 585 969 586 969 591 969 592 970 580 970 585 970 593 971 591 971 586 971 594 972 595 972 600 972 601 973 595 973 594 973 595 974 596 974 600 974 601 975 596 975 595 975 596 976 597 976 600 976 601 977 597 977 596 977 597 978 598 978 600 978 601 979 598 979 597 979 598 980 599 980 600 980 601 981 599 981 598 981 599 982 594 982 600 982 601 983 594 983 599 983 602 984 603 984 609 984 602 985 609 985 608 985 614 986 603 986 602 986 615 987 608 987 609 987 603 988 604 988 610 988 603 989 610 989 609 989 614 990 604 990 603 990 615 991 609 991 610 991 604 992 605 992 611 992 604 993 611 993 610 993 614 994 605 994 604 994 615 995 610 995 611 995 605 996 606 996 612 996 605 997 612 997 611 997 614 998 606 998 605 998 615 999 611 999 612 999 606 1000 607 1000 613 1000 606 1001 613 1001 612 1001 614 1002 607 1002 606 1002 615 1003 612 1003 613 1003 607 1004 602 1004 608 1004 607 1005 608 1005 613 1005 614 1006 602 1006 607 1006 615 1007 613 1007 608 1007 616 1008 617 1008 622 1008 623 1009 617 1009 616 1009 617 1010 618 1010 622 1010 623 1011 618 1011 617 1011 618 1012 619 1012 622 1012 623 1013 619 1013 618 1013 619 1014 620 1014 622 1014 623 1015 620 1015 619 1015 620 1016 621 1016 622 1016 623 1017 621 1017 620 1017 621 1018 616 1018 622 1018 623 1019 616 1019 621 1019 624 1020 625 1020 631 1020 624 1021 631 1021 630 1021 636 1022 625 1022 624 1022 637 1023 630 1023 631 1023 625 1024 626 1024 632 1024 625 1025 632 1025 631 1025 636 1026 626 1026 625 1026 637 1027 631 1027 632 1027 626 1028 627 1028 633 1028 626 1029 633 1029 632 1029 636 1030 627 1030 626 1030 637 1031 632 1031 633 1031 627 1032 628 1032 634 1032 627 1033 634 1033 633 1033 636 1034 628 1034 627 1034 637 1035 633 1035 634 1035 628 1036 629 1036 635 1036 628 1037 635 1037 634 1037 636 1038 629 1038 628 1038 637 1039 634 1039 635 1039 629 1040 624 1040 630 1040 629 1041 630 1041 635 1041 636 1042 624 1042 629 1042 637 1043 635 1043 630 1043 638 1044 639 1044 644 1044 645 1045 639 1045 638 1045 639 1046 640 1046 644 1046 645 1047 640 1047 639 1047 640 1048 641 1048 644 1048 645 1049 641 1049 640 1049 641 1050 642 1050 644 1050 645 1051 642 1051 641 1051 642 1052 643 1052 644 1052 645 1053 643 1053 642 1053 643 1054 638 1054 644 1054 645 1055 638 1055 643 1055 646 1056 647 1056 653 1056 646 1057 653 1057 652 1057 658 1058 647 1058 646 1058 659 1059 652 1059 653 1059 647 1060 648 1060 654 1060 647 1061 654 1061 653 1061 658 1062 648 1062 647 1062 659 1063 653 1063 654 1063 648 1064 649 1064 655 1064 648 1065 655 1065 654 1065 658 1066 649 1066 648 1066 659 1067 654 1067 655 1067 649 1068 650 1068 656 1068 649 1069 656 1069 655 1069 658 1070 650 1070 649 1070 659 1071 655 1071 656 1071 650 1072 651 1072 657 1072 650 1073 657 1073 656 1073 658 1074 651 1074 650 1074 659 1075 656 1075 657 1075 651 1076 646 1076 652 1076 651 1077 652 1077 657 1077 658 1078 646 1078 651 1078 659 1079 657 1079 652 1079</p></triangles>
</mesh></geometry></library_geometries><library_visual_scenes><visual_scene id="Scene"><node id="mesh"><instance_geometry url="#geometry"/></node></visual_scene></library_visual_scenes><scene><instance_visual_scene url="#Scene"/></scene></COLLADA>